M48
; DRILL file {KiCad 8.0.7} date 2025-01-10T19:29:53-0500
; FORMAT={-:-/ absolute / metric / decimal}
; #@! TF.CreationDate,2025-01-10T19:29:53-05:00
; #@! TF.GenerationSoftware,Kicad,Pcbnew,8.0.7
; #@! TF.FileFunction,MixedPlating,1,2
FMAT,2
METRIC
; #@! TA.AperFunction,Plated,PTH,ViaDrill
T1C0.300
; #@! TA.AperFunction,NonPlated,NPTH,ComponentDrill
T2C0.300
; #@! TA.AperFunction,NonPlated,NPTH,ComponentDrill
T3C1.152
%
G90
G05
T1
X9.0Y-8.8
X9.0Y-9.8
X9.0Y-14.8
X9.0Y-15.6
X9.0Y-19.4
X9.0Y-20.4
X9.0Y-25.4
X9.0Y-26.2
X9.0Y-30.0
X9.0Y-31.0
X9.0Y-36.0
X9.0Y-36.8
X9.0Y-40.6
X9.0Y-41.6
X9.0Y-46.6
X9.0Y-47.4
X9.93Y-12.55
X9.93Y-23.15
X9.93Y-33.75
X9.93Y-44.35
X9.985Y-15.395
X9.985Y-25.995
X9.985Y-36.595
X9.985Y-47.195
X10.02Y-13.24
X10.02Y-23.84
X10.02Y-34.44
X10.02Y-45.04
X10.6Y-9.8
X10.6Y-20.4
X10.6Y-31.0
X10.6Y-41.6
X11.1Y-15.84
X11.1Y-26.44
X11.1Y-37.04
X11.1Y-47.64
X11.23Y-12.96
X11.23Y-23.56
X11.23Y-34.16
X11.23Y-44.76
X11.242Y-12.335
X11.242Y-22.935
X11.242Y-33.535
X11.242Y-44.135
X11.37Y-9.88
X11.37Y-20.48
X11.37Y-31.08
X11.37Y-41.68
X11.64Y-14.61
X11.64Y-25.21
X11.64Y-35.81
X11.64Y-46.41
X14.2Y-12.5
X14.2Y-23.1
X14.2Y-33.7
X14.2Y-44.3
X14.72Y-13.74
X14.72Y-24.34
X14.72Y-34.94
X14.72Y-45.54
X15.36Y-11.72
X15.36Y-22.32
X15.36Y-32.92
X15.36Y-43.52
X16.27Y-11.55
X16.27Y-22.15
X16.27Y-32.75
X16.27Y-43.35
X17.65Y-9.17
X17.65Y-19.77
X17.65Y-30.37
X17.65Y-40.97
X18.2Y-12.2
X18.2Y-22.8
X18.2Y-33.4
X18.2Y-44.0
X18.69Y-9.47
X18.69Y-20.07
X18.69Y-30.67
X18.69Y-41.27
X19.68Y-9.17
X19.68Y-19.77
X19.68Y-30.37
X19.68Y-40.97
X20.188Y-11.713
X20.188Y-22.312
X20.188Y-32.913
X20.188Y-43.512
X20.71Y-9.15
X20.71Y-19.75
X20.71Y-30.35
X20.71Y-40.95
X22.69Y-14.54
X22.69Y-25.14
X22.69Y-35.74
X22.69Y-46.34
X22.7Y-9.4
X22.7Y-20.0
X22.7Y-30.6
X22.7Y-41.2
X24.7Y-9.4
X24.7Y-20.0
X24.7Y-30.6
X24.7Y-41.2
X25.14Y-11.89
X25.14Y-22.49
X25.14Y-33.09
X25.14Y-43.69
X25.72Y-14.71
X25.72Y-25.31
X25.72Y-35.91
X25.72Y-46.51
X26.7Y-15.2
X26.7Y-25.8
X26.7Y-36.4
X26.7Y-47.0
X28.7Y-9.4
X28.7Y-15.2
X28.7Y-20.0
X28.7Y-25.8
X28.7Y-30.6
X28.7Y-36.4
X28.7Y-41.2
X28.7Y-47.0
X30.71Y-10.05
X30.71Y-20.65
X30.71Y-31.25
X30.71Y-41.85
X30.74Y-14.52
X30.74Y-25.12
X30.74Y-35.72
X30.74Y-46.32
T2
X0.0Y-8.0
X0.0Y-48.4
X0.625Y-8.0
X0.625Y-48.4
X1.25Y-8.0
X1.25Y-48.4
X1.875Y-8.0
X1.875Y-48.4
X2.5Y-8.0
X2.5Y-48.4
X3.125Y-8.0
X3.125Y-48.4
X3.75Y-8.0
X3.75Y-48.4
X4.375Y-8.0
X4.375Y-48.4
X5.0Y-8.0
X5.0Y-48.4
X7.97Y-11.3
X7.97Y-11.967
X7.97Y-12.633
X7.97Y-13.3
X7.97Y-21.9
X7.97Y-22.567
X7.97Y-23.233
X7.97Y-23.9
X7.97Y-32.5
X7.97Y-33.167
X7.97Y-33.833
X7.97Y-34.5
X7.97Y-43.1
X7.97Y-43.767
X7.97Y-44.433
X7.97Y-45.1
X8.0Y0.0
X8.0Y-0.625
X8.0Y-1.25
X8.0Y-1.875
X8.0Y-2.5
X8.0Y-3.125
X8.0Y-3.75
X8.0Y-4.375
X8.0Y-5.0
X8.0Y-51.4
X8.0Y-52.025
X8.0Y-52.65
X8.0Y-53.275
X8.0Y-53.9
X8.0Y-54.525
X8.0Y-55.15
X8.0Y-55.775
X8.0Y-56.4
X19.0Y-7.97
X19.0Y-16.63
X19.0Y-18.57
X19.0Y-27.23
X19.0Y-29.17
X19.0Y-37.83
X19.0Y-39.77
X19.0Y-48.43
X19.667Y-7.97
X19.667Y-16.63
X19.667Y-18.57
X19.667Y-27.23
X19.667Y-29.17
X19.667Y-37.83
X19.667Y-39.77
X19.667Y-48.43
X20.333Y-7.97
X20.333Y-16.63
X20.333Y-18.57
X20.333Y-27.23
X20.333Y-29.17
X20.333Y-37.83
X20.333Y-39.77
X20.333Y-48.43
X21.0Y-7.97
X21.0Y-16.63
X21.0Y-18.57
X21.0Y-27.23
X21.0Y-29.17
X21.0Y-37.83
X21.0Y-39.77
X21.0Y-48.43
X32.0Y0.0
X32.0Y-0.625
X32.0Y-1.25
X32.0Y-1.875
X32.0Y-2.5
X32.0Y-3.125
X32.0Y-3.75
X32.0Y-4.375
X32.0Y-5.0
X32.0Y-51.4
X32.0Y-52.025
X32.0Y-52.65
X32.0Y-53.275
X32.0Y-53.9
X32.0Y-54.525
X32.0Y-55.15
X32.0Y-55.775
X32.0Y-56.4
X32.03Y-11.3
X32.03Y-11.967
X32.03Y-12.633
X32.03Y-13.3
X32.03Y-21.9
X32.03Y-22.567
X32.03Y-23.233
X32.03Y-23.9
X32.03Y-32.5
X32.03Y-33.167
X32.03Y-33.833
X32.03Y-34.5
X32.03Y-43.1
X32.03Y-43.767
X32.03Y-44.433
X32.03Y-45.1
X35.0Y-8.0
X35.0Y-48.4
X35.625Y-8.0
X35.625Y-48.4
X36.25Y-8.0
X36.25Y-48.4
X36.875Y-8.0
X36.875Y-48.4
X37.5Y-8.0
X37.5Y-48.4
X38.125Y-8.0
X38.125Y-48.4
X38.75Y-8.0
X38.75Y-48.4
X39.375Y-8.0
X39.375Y-48.4
X40.0Y-8.0
X40.0Y-48.4
T3
X2.0Y-2.0
X2.0Y-54.4
X38.0Y-2.0
M30
