G04 #@! TF.GenerationSoftware,KiCad,Pcbnew,8.0.7*
G04 #@! TF.CreationDate,2025-01-10T19:29:53-05:00*
G04 #@! TF.ProjectId,panel,70616e65-6c2e-46b6-9963-61645f706362,rev?*
G04 #@! TF.SameCoordinates,Original*
G04 #@! TF.FileFunction,Soldermask,Top*
G04 #@! TF.FilePolarity,Negative*
%FSLAX46Y46*%
G04 Gerber Fmt 4.6, Leading zero omitted, Abs format (unit mm)*
G04 Created by KiCad (PCBNEW 8.0.7) date 2025-01-10 19:29:53*
%MOMM*%
%LPD*%
G01*
G04 APERTURE LIST*
G04 Aperture macros list*
%AMRoundRect*
0 Rectangle with rounded corners*
0 $1 Rounding radius*
0 $2 $3 $4 $5 $6 $7 $8 $9 X,Y pos of 4 corners*
0 Add a 4 corners polygon primitive as box body*
4,1,4,$2,$3,$4,$5,$6,$7,$8,$9,$2,$3,0*
0 Add four circle primitives for the rounded corners*
1,1,$1+$1,$2,$3*
1,1,$1+$1,$4,$5*
1,1,$1+$1,$6,$7*
1,1,$1+$1,$8,$9*
0 Add four rect primitives between the rounded corners*
20,1,$1+$1,$2,$3,$4,$5,0*
20,1,$1+$1,$4,$5,$6,$7,0*
20,1,$1+$1,$6,$7,$8,$9,0*
20,1,$1+$1,$8,$9,$2,$3,0*%
G04 Aperture macros list end*
%ADD10C,0.300000*%
%ADD11RoundRect,0.250000X-0.250000X-0.750000X0.250000X-0.750000X0.250000X0.750000X-0.250000X0.750000X0*%
%ADD12C,2.000000*%
%ADD13C,1.152000*%
G04 APERTURE END LIST*
D10*
G04 #@! TO.C,KiKit_MB_2_2*
X32030000Y-11966667D03*
G04 #@! TD*
G04 #@! TO.C,KiKit_MB_19_9*
X8000000Y-56400000D03*
G04 #@! TD*
D11*
G04 #@! TO.C,J19*
X26700000Y-30600000D03*
G04 #@! TD*
G04 #@! TO.C,J5*
X18700000Y-36400000D03*
G04 #@! TD*
D10*
G04 #@! TO.C,KiKit_MB_2_1*
X32030000Y-11300000D03*
G04 #@! TD*
D11*
G04 #@! TO.C,J19*
X26700000Y-20000000D03*
G04 #@! TD*
D10*
G04 #@! TO.C,KiKit_MB_14_4*
X32030000Y-45100000D03*
G04 #@! TD*
G04 #@! TO.C,KiKit_MB_1_4*
X7970000Y-11300000D03*
G04 #@! TD*
G04 #@! TO.C,KiKit_MB_7_4*
X21000000Y-18570000D03*
G04 #@! TD*
G04 #@! TO.C,KiKit_MB_15_3*
X20333333Y-39770000D03*
G04 #@! TD*
D11*
G04 #@! TO.C,J17*
X22700000Y-20000000D03*
G04 #@! TD*
D10*
G04 #@! TO.C,KiKit_MB_23_4*
X36875000Y-8000000D03*
G04 #@! TD*
G04 #@! TO.C,KiKit_MB_20_4*
X32000000Y-53275000D03*
G04 #@! TD*
D11*
G04 #@! TO.C,J9*
X26700000Y-47000000D03*
G04 #@! TD*
D10*
G04 #@! TO.C,KiKit_MB_3_2*
X19666667Y-7970000D03*
G04 #@! TD*
G04 #@! TO.C,KiKit_MB_17_4*
X8000000Y-1875000D03*
G04 #@! TD*
G04 #@! TO.C,KiKit_MB_6_4*
X32030000Y-23900000D03*
G04 #@! TD*
G04 #@! TO.C,KiKit_MB_23_1*
X35000000Y-8000000D03*
G04 #@! TD*
G04 #@! TO.C,KiKit_MB_19_7*
X8000000Y-55150000D03*
G04 #@! TD*
D11*
G04 #@! TO.C,J2*
X12700000Y-25800000D03*
G04 #@! TD*
D10*
G04 #@! TO.C,KiKit_MB_15_2*
X19666667Y-39770000D03*
G04 #@! TD*
G04 #@! TO.C,KiKit_MB_9_2*
X7970000Y-33833333D03*
G04 #@! TD*
G04 #@! TO.C,KiKit_MB_13_3*
X7970000Y-43766666D03*
G04 #@! TD*
D11*
G04 #@! TO.C,J8*
X24700000Y-47000000D03*
G04 #@! TD*
D12*
G04 #@! TO.C,KiKit_FID_T_4*
X30000000Y-52550000D03*
G04 #@! TD*
D13*
G04 #@! TO.C,KiKit_TO_3*
X2000000Y-54400000D03*
G04 #@! TD*
D10*
G04 #@! TO.C,KiKit_MB_24_5*
X37500000Y-48400000D03*
G04 #@! TD*
G04 #@! TO.C,KiKit_MB_24_3*
X36250000Y-48400000D03*
G04 #@! TD*
G04 #@! TO.C,KiKit_MB_8_1*
X21000000Y-27230000D03*
G04 #@! TD*
G04 #@! TO.C,KiKit_MB_23_6*
X38125000Y-8000000D03*
G04 #@! TD*
G04 #@! TO.C,KiKit_MB_19_1*
X8000000Y-51400000D03*
G04 #@! TD*
G04 #@! TO.C,KiKit_MB_17_2*
X8000000Y-625000D03*
G04 #@! TD*
D11*
G04 #@! TO.C,J12*
X12700000Y-41210000D03*
G04 #@! TD*
D10*
G04 #@! TO.C,KiKit_MB_17_1*
X8000000Y0D03*
G04 #@! TD*
D11*
G04 #@! TO.C,J15*
X18700000Y-41210000D03*
G04 #@! TD*
D10*
G04 #@! TO.C,KiKit_MB_21_7*
X3750000Y-8000000D03*
G04 #@! TD*
D11*
G04 #@! TO.C,J10*
X28700000Y-36400000D03*
G04 #@! TD*
D10*
G04 #@! TO.C,KiKit_MB_22_2*
X625000Y-48400000D03*
G04 #@! TD*
G04 #@! TO.C,KiKit_MB_21_6*
X3125000Y-8000000D03*
G04 #@! TD*
G04 #@! TO.C,KiKit_MB_1_3*
X7970000Y-11966667D03*
G04 #@! TD*
G04 #@! TO.C,KiKit_MB_11_4*
X21000000Y-29170000D03*
G04 #@! TD*
G04 #@! TO.C,KiKit_MB_11_1*
X19000000Y-29170000D03*
G04 #@! TD*
D11*
G04 #@! TO.C,J13*
X14700000Y-30610000D03*
G04 #@! TD*
D10*
G04 #@! TO.C,KiKit_MB_3_3*
X20333333Y-7970000D03*
G04 #@! TD*
D11*
G04 #@! TO.C,J18*
X24700000Y-9400000D03*
G04 #@! TD*
G04 #@! TO.C,J2*
X12700000Y-36400000D03*
G04 #@! TD*
D10*
G04 #@! TO.C,KiKit_MB_19_6*
X8000000Y-54525000D03*
G04 #@! TD*
G04 #@! TO.C,KiKit_MB_20_7*
X32000000Y-55150000D03*
G04 #@! TD*
G04 #@! TO.C,KiKit_MB_23_2*
X35625000Y-8000000D03*
G04 #@! TD*
G04 #@! TO.C,KiKit_MB_20_6*
X32000000Y-54525000D03*
G04 #@! TD*
D11*
G04 #@! TO.C,J20*
X28700000Y-9400000D03*
G04 #@! TD*
G04 #@! TO.C,J11*
X30700000Y-25800000D03*
G04 #@! TD*
D10*
G04 #@! TO.C,KiKit_MB_14_3*
X32030000Y-44433333D03*
G04 #@! TD*
G04 #@! TO.C,KiKit_MB_18_2*
X32000000Y-625000D03*
G04 #@! TD*
D11*
G04 #@! TO.C,J4*
X16700000Y-47000000D03*
G04 #@! TD*
D10*
G04 #@! TO.C,KiKit_MB_21_5*
X2500000Y-8000000D03*
G04 #@! TD*
G04 #@! TO.C,KiKit_MB_10_2*
X32030000Y-33166666D03*
G04 #@! TD*
G04 #@! TO.C,KiKit_MB_12_3*
X19666667Y-37830000D03*
G04 #@! TD*
D11*
G04 #@! TO.C,J14*
X20700000Y-9400000D03*
G04 #@! TD*
D10*
G04 #@! TO.C,KiKit_MB_13_2*
X7970000Y-44433333D03*
G04 #@! TD*
D11*
G04 #@! TO.C,J15*
X18700000Y-20010000D03*
G04 #@! TD*
G04 #@! TO.C,J3*
X14700000Y-15200000D03*
G04 #@! TD*
D10*
G04 #@! TO.C,KiKit_MB_22_3*
X1250000Y-48400000D03*
G04 #@! TD*
G04 #@! TO.C,KiKit_MB_18_5*
X32000000Y-2500000D03*
G04 #@! TD*
G04 #@! TO.C,KiKit_MB_21_2*
X625000Y-8000000D03*
G04 #@! TD*
D11*
G04 #@! TO.C,J3*
X14700000Y-25800000D03*
G04 #@! TD*
D10*
G04 #@! TO.C,KiKit_MB_19_4*
X8000000Y-53275000D03*
G04 #@! TD*
G04 #@! TO.C,KiKit_MB_4_3*
X19666667Y-16630000D03*
G04 #@! TD*
D11*
G04 #@! TO.C,J16*
X16700000Y-9400000D03*
G04 #@! TD*
D10*
G04 #@! TO.C,KiKit_MB_22_7*
X3750000Y-48400000D03*
G04 #@! TD*
G04 #@! TO.C,KiKit_MB_22_4*
X1875000Y-48400000D03*
G04 #@! TD*
G04 #@! TO.C,KiKit_MB_17_6*
X8000000Y-3125000D03*
G04 #@! TD*
D11*
G04 #@! TO.C,J8*
X24700000Y-15200000D03*
G04 #@! TD*
G04 #@! TO.C,J17*
X22700000Y-41200000D03*
G04 #@! TD*
G04 #@! TO.C,J11*
X30700000Y-47000000D03*
G04 #@! TD*
G04 #@! TO.C,J14*
X20700000Y-41200000D03*
G04 #@! TD*
G04 #@! TO.C,J4*
X16700000Y-36400000D03*
G04 #@! TD*
D10*
G04 #@! TO.C,KiKit_MB_24_2*
X35625000Y-48400000D03*
G04 #@! TD*
G04 #@! TO.C,KiKit_MB_24_6*
X38125000Y-48400000D03*
G04 #@! TD*
D11*
G04 #@! TO.C,J9*
X26700000Y-25800000D03*
G04 #@! TD*
D10*
G04 #@! TO.C,KiKit_MB_19_5*
X8000000Y-53900000D03*
G04 #@! TD*
G04 #@! TO.C,KiKit_MB_1_2*
X7970000Y-12633333D03*
G04 #@! TD*
G04 #@! TO.C,KiKit_MB_13_1*
X7970000Y-45100000D03*
G04 #@! TD*
D12*
G04 #@! TO.C,KiKit_FID_T_1*
X10000000Y-3850000D03*
G04 #@! TD*
D10*
G04 #@! TO.C,KiKit_MB_16_1*
X21000000Y-48430000D03*
G04 #@! TD*
D11*
G04 #@! TO.C,J5*
X18700000Y-25800000D03*
G04 #@! TD*
D10*
G04 #@! TO.C,KiKit_MB_24_8*
X39375000Y-48400000D03*
G04 #@! TD*
D11*
G04 #@! TO.C,J10*
X28700000Y-25800000D03*
G04 #@! TD*
G04 #@! TO.C,J16*
X16700000Y-41200000D03*
G04 #@! TD*
D10*
G04 #@! TO.C,KiKit_MB_10_4*
X32030000Y-34500000D03*
G04 #@! TD*
D11*
G04 #@! TO.C,J7*
X22700000Y-47000000D03*
G04 #@! TD*
D10*
G04 #@! TO.C,KiKit_MB_14_1*
X32030000Y-43100000D03*
G04 #@! TD*
G04 #@! TO.C,KiKit_MB_15_1*
X19000000Y-39770000D03*
G04 #@! TD*
D11*
G04 #@! TO.C,J13*
X14700000Y-9410000D03*
G04 #@! TD*
D10*
G04 #@! TO.C,KiKit_MB_1_1*
X7970000Y-13300000D03*
G04 #@! TD*
G04 #@! TO.C,KiKit_MB_7_2*
X19666667Y-18570000D03*
G04 #@! TD*
D11*
G04 #@! TO.C,J18*
X24700000Y-41200000D03*
G04 #@! TD*
D10*
G04 #@! TO.C,KiKit_MB_10_3*
X32030000Y-33833333D03*
G04 #@! TD*
D11*
G04 #@! TO.C,J3*
X14700000Y-47000000D03*
G04 #@! TD*
D10*
G04 #@! TO.C,KiKit_MB_12_1*
X21000000Y-37830000D03*
G04 #@! TD*
G04 #@! TO.C,KiKit_MB_4_1*
X21000000Y-16630000D03*
G04 #@! TD*
D11*
G04 #@! TO.C,J6*
X20700000Y-15200000D03*
G04 #@! TD*
D10*
G04 #@! TO.C,KiKit_MB_17_3*
X8000000Y-1250000D03*
G04 #@! TD*
D12*
G04 #@! TO.C,KiKit_FID_T_2*
X30000000Y-3850000D03*
G04 #@! TD*
D10*
G04 #@! TO.C,KiKit_MB_9_3*
X7970000Y-33166666D03*
G04 #@! TD*
D11*
G04 #@! TO.C,J8*
X24700000Y-25800000D03*
G04 #@! TD*
D10*
G04 #@! TO.C,KiKit_MB_24_7*
X38750000Y-48400000D03*
G04 #@! TD*
D11*
G04 #@! TO.C,J21*
X30700000Y-20000000D03*
G04 #@! TD*
G04 #@! TO.C,J6*
X20700000Y-25800000D03*
G04 #@! TD*
D10*
G04 #@! TO.C,KiKit_MB_22_9*
X5000000Y-48400000D03*
G04 #@! TD*
G04 #@! TO.C,KiKit_MB_23_5*
X37500000Y-8000000D03*
G04 #@! TD*
G04 #@! TO.C,KiKit_MB_20_5*
X32000000Y-53900000D03*
G04 #@! TD*
D11*
G04 #@! TO.C,J20*
X28700000Y-41200000D03*
G04 #@! TD*
D10*
G04 #@! TO.C,KiKit_MB_13_4*
X7970000Y-43100000D03*
G04 #@! TD*
G04 #@! TO.C,KiKit_MB_22_5*
X2500000Y-48400000D03*
G04 #@! TD*
G04 #@! TO.C,KiKit_MB_8_4*
X19000000Y-27230000D03*
G04 #@! TD*
G04 #@! TO.C,KiKit_MB_23_7*
X38750000Y-8000000D03*
G04 #@! TD*
G04 #@! TO.C,KiKit_MB_17_9*
X8000000Y-5000000D03*
G04 #@! TD*
G04 #@! TO.C,KiKit_MB_24_9*
X40000000Y-48400000D03*
G04 #@! TD*
D11*
G04 #@! TO.C,J7*
X22700000Y-15200000D03*
G04 #@! TD*
G04 #@! TO.C,J20*
X28700000Y-30600000D03*
G04 #@! TD*
D10*
G04 #@! TO.C,KiKit_MB_11_3*
X20333333Y-29170000D03*
G04 #@! TD*
G04 #@! TO.C,KiKit_MB_23_3*
X36250000Y-8000000D03*
G04 #@! TD*
G04 #@! TO.C,KiKit_MB_18_9*
X32000000Y-5000000D03*
G04 #@! TD*
D11*
G04 #@! TO.C,J20*
X28700000Y-20000000D03*
G04 #@! TD*
D10*
G04 #@! TO.C,KiKit_MB_5_1*
X7970000Y-23900000D03*
G04 #@! TD*
G04 #@! TO.C,KiKit_MB_6_3*
X32030000Y-23233333D03*
G04 #@! TD*
D13*
G04 #@! TO.C,KiKit_TO_2*
X38000000Y-2000000D03*
G04 #@! TD*
D10*
G04 #@! TO.C,KiKit_MB_21_3*
X1250000Y-8000000D03*
G04 #@! TD*
D11*
G04 #@! TO.C,J4*
X16700000Y-25800000D03*
G04 #@! TD*
D10*
G04 #@! TO.C,KiKit_MB_20_9*
X32000000Y-56400000D03*
G04 #@! TD*
G04 #@! TO.C,KiKit_MB_18_3*
X32000000Y-1250000D03*
G04 #@! TD*
D11*
G04 #@! TO.C,J12*
X12700000Y-9410000D03*
G04 #@! TD*
D10*
G04 #@! TO.C,KiKit_MB_17_7*
X8000000Y-3750000D03*
G04 #@! TD*
D11*
G04 #@! TO.C,J16*
X16700000Y-20000000D03*
G04 #@! TD*
D10*
G04 #@! TO.C,KiKit_MB_3_4*
X21000000Y-7970000D03*
G04 #@! TD*
G04 #@! TO.C,KiKit_MB_4_2*
X20333333Y-16630000D03*
G04 #@! TD*
D11*
G04 #@! TO.C,J14*
X20700000Y-30600000D03*
G04 #@! TD*
D10*
G04 #@! TO.C,KiKit_MB_24_1*
X35000000Y-48400000D03*
G04 #@! TD*
D11*
G04 #@! TO.C,J4*
X16700000Y-15200000D03*
G04 #@! TD*
D10*
G04 #@! TO.C,KiKit_MB_23_8*
X39375000Y-8000000D03*
G04 #@! TD*
D12*
G04 #@! TO.C,KiKit_FID_T_3*
X10000000Y-52550000D03*
G04 #@! TD*
D10*
G04 #@! TO.C,KiKit_MB_18_4*
X32000000Y-1875000D03*
G04 #@! TD*
D11*
G04 #@! TO.C,J5*
X18700000Y-47000000D03*
G04 #@! TD*
G04 #@! TO.C,J21*
X30700000Y-30600000D03*
G04 #@! TD*
G04 #@! TO.C,J18*
X24700000Y-30600000D03*
G04 #@! TD*
D10*
G04 #@! TO.C,KiKit_MB_8_2*
X20333333Y-27230000D03*
G04 #@! TD*
G04 #@! TO.C,KiKit_MB_18_6*
X32000000Y-3125000D03*
G04 #@! TD*
G04 #@! TO.C,KiKit_MB_7_1*
X19000000Y-18570000D03*
G04 #@! TD*
G04 #@! TO.C,KiKit_MB_12_4*
X19000000Y-37830000D03*
G04 #@! TD*
G04 #@! TO.C,KiKit_MB_6_2*
X32030000Y-22566666D03*
G04 #@! TD*
D11*
G04 #@! TO.C,J8*
X24700000Y-36400000D03*
G04 #@! TD*
G04 #@! TO.C,J7*
X22700000Y-36400000D03*
G04 #@! TD*
G04 #@! TO.C,J19*
X26700000Y-41200000D03*
G04 #@! TD*
D10*
G04 #@! TO.C,KiKit_MB_5_4*
X7970000Y-21900000D03*
G04 #@! TD*
G04 #@! TO.C,KiKit_MB_20_2*
X32000000Y-52025000D03*
G04 #@! TD*
G04 #@! TO.C,KiKit_MB_5_3*
X7970000Y-22566666D03*
G04 #@! TD*
D11*
G04 #@! TO.C,J17*
X22700000Y-9400000D03*
G04 #@! TD*
G04 #@! TO.C,J3*
X14700000Y-36400000D03*
G04 #@! TD*
D13*
G04 #@! TO.C,KiKit_TO_1*
X2000000Y-2000000D03*
G04 #@! TD*
D11*
G04 #@! TO.C,J9*
X26700000Y-15200000D03*
G04 #@! TD*
G04 #@! TO.C,J11*
X30700000Y-15200000D03*
G04 #@! TD*
D10*
G04 #@! TO.C,KiKit_MB_16_4*
X19000000Y-48430000D03*
G04 #@! TD*
D11*
G04 #@! TO.C,J12*
X12700000Y-30610000D03*
G04 #@! TD*
D10*
G04 #@! TO.C,KiKit_MB_21_8*
X4375000Y-8000000D03*
G04 #@! TD*
D11*
G04 #@! TO.C,J9*
X26700000Y-36400000D03*
G04 #@! TD*
D10*
G04 #@! TO.C,KiKit_MB_20_1*
X32000000Y-51400000D03*
G04 #@! TD*
G04 #@! TO.C,KiKit_MB_18_1*
X32000000Y0D03*
G04 #@! TD*
G04 #@! TO.C,KiKit_MB_2_4*
X32030000Y-13300000D03*
G04 #@! TD*
G04 #@! TO.C,KiKit_MB_10_1*
X32030000Y-32500000D03*
G04 #@! TD*
G04 #@! TO.C,KiKit_MB_20_3*
X32000000Y-52650000D03*
G04 #@! TD*
G04 #@! TO.C,KiKit_MB_2_3*
X32030000Y-12633333D03*
G04 #@! TD*
D11*
G04 #@! TO.C,J2*
X12700000Y-47000000D03*
G04 #@! TD*
D10*
G04 #@! TO.C,KiKit_MB_16_3*
X19666667Y-48430000D03*
G04 #@! TD*
G04 #@! TO.C,KiKit_MB_7_3*
X20333333Y-18570000D03*
G04 #@! TD*
G04 #@! TO.C,KiKit_MB_19_8*
X8000000Y-55775000D03*
G04 #@! TD*
D11*
G04 #@! TO.C,J12*
X12700000Y-20010000D03*
G04 #@! TD*
G04 #@! TO.C,J14*
X20700000Y-20000000D03*
G04 #@! TD*
G04 #@! TO.C,J2*
X12700000Y-15200000D03*
G04 #@! TD*
D10*
G04 #@! TO.C,KiKit_MB_17_5*
X8000000Y-2500000D03*
G04 #@! TD*
D11*
G04 #@! TO.C,J16*
X16700000Y-30600000D03*
G04 #@! TD*
D10*
G04 #@! TO.C,KiKit_MB_9_1*
X7970000Y-34500000D03*
G04 #@! TD*
G04 #@! TO.C,KiKit_MB_4_4*
X19000000Y-16630000D03*
G04 #@! TD*
D11*
G04 #@! TO.C,J6*
X20700000Y-36400000D03*
G04 #@! TD*
D10*
G04 #@! TO.C,KiKit_MB_14_2*
X32030000Y-43766666D03*
G04 #@! TD*
G04 #@! TO.C,KiKit_MB_20_8*
X32000000Y-55775000D03*
G04 #@! TD*
G04 #@! TO.C,KiKit_MB_24_4*
X36875000Y-48400000D03*
G04 #@! TD*
G04 #@! TO.C,KiKit_MB_21_9*
X5000000Y-8000000D03*
G04 #@! TD*
G04 #@! TO.C,KiKit_MB_3_1*
X19000000Y-7970000D03*
G04 #@! TD*
G04 #@! TO.C,KiKit_MB_17_8*
X8000000Y-4375000D03*
G04 #@! TD*
G04 #@! TO.C,KiKit_MB_16_2*
X20333333Y-48430000D03*
G04 #@! TD*
D11*
G04 #@! TO.C,J6*
X20700000Y-47000000D03*
G04 #@! TD*
D10*
G04 #@! TO.C,KiKit_MB_6_1*
X32030000Y-21900000D03*
G04 #@! TD*
G04 #@! TO.C,KiKit_MB_15_4*
X21000000Y-39770000D03*
G04 #@! TD*
D11*
G04 #@! TO.C,J5*
X18700000Y-15200000D03*
G04 #@! TD*
D10*
G04 #@! TO.C,KiKit_MB_21_1*
X0Y-8000000D03*
G04 #@! TD*
G04 #@! TO.C,KiKit_MB_19_2*
X8000000Y-52025000D03*
G04 #@! TD*
G04 #@! TO.C,KiKit_MB_5_2*
X7970000Y-23233333D03*
G04 #@! TD*
G04 #@! TO.C,KiKit_MB_8_3*
X19666667Y-27230000D03*
G04 #@! TD*
G04 #@! TO.C,KiKit_MB_23_9*
X40000000Y-8000000D03*
G04 #@! TD*
D11*
G04 #@! TO.C,J10*
X28700000Y-15200000D03*
G04 #@! TD*
G04 #@! TO.C,J18*
X24700000Y-20000000D03*
G04 #@! TD*
D10*
G04 #@! TO.C,KiKit_MB_18_7*
X32000000Y-3750000D03*
G04 #@! TD*
G04 #@! TO.C,KiKit_MB_22_8*
X4375000Y-48400000D03*
G04 #@! TD*
D11*
G04 #@! TO.C,J7*
X22700000Y-25800000D03*
G04 #@! TD*
G04 #@! TO.C,J21*
X30700000Y-41200000D03*
G04 #@! TD*
D10*
G04 #@! TO.C,KiKit_MB_19_3*
X8000000Y-52650000D03*
G04 #@! TD*
D11*
G04 #@! TO.C,J21*
X30700000Y-9400000D03*
G04 #@! TD*
G04 #@! TO.C,J10*
X28700000Y-47000000D03*
G04 #@! TD*
D10*
G04 #@! TO.C,KiKit_MB_9_4*
X7970000Y-32500000D03*
G04 #@! TD*
G04 #@! TO.C,KiKit_MB_21_4*
X1875000Y-8000000D03*
G04 #@! TD*
G04 #@! TO.C,KiKit_MB_11_2*
X19666667Y-29170000D03*
G04 #@! TD*
D11*
G04 #@! TO.C,J17*
X22700000Y-30600000D03*
G04 #@! TD*
D10*
G04 #@! TO.C,KiKit_MB_22_6*
X3125000Y-48400000D03*
G04 #@! TD*
D11*
G04 #@! TO.C,J11*
X30700000Y-36400000D03*
G04 #@! TD*
D10*
G04 #@! TO.C,KiKit_MB_18_8*
X32000000Y-4375000D03*
G04 #@! TD*
D11*
G04 #@! TO.C,J13*
X14700000Y-20010000D03*
G04 #@! TD*
D10*
G04 #@! TO.C,KiKit_MB_12_2*
X20333333Y-37830000D03*
G04 #@! TD*
G04 #@! TO.C,KiKit_MB_22_1*
X0Y-48400000D03*
G04 #@! TD*
D11*
G04 #@! TO.C,J15*
X18700000Y-9410000D03*
G04 #@! TD*
G04 #@! TO.C,J15*
X18700000Y-30610000D03*
G04 #@! TD*
G04 #@! TO.C,J13*
X14700000Y-41210000D03*
G04 #@! TD*
G04 #@! TO.C,J19*
X26700000Y-9400000D03*
G04 #@! TD*
M02*
