G04 #@! TF.GenerationSoftware,KiCad,Pcbnew,8.0.7*
G04 #@! TF.CreationDate,2025-01-10T19:29:53-05:00*
G04 #@! TF.ProjectId,panel,70616e65-6c2e-46b6-9963-61645f706362,rev?*
G04 #@! TF.SameCoordinates,Original*
G04 #@! TF.FileFunction,Copper,L2,Bot*
G04 #@! TF.FilePolarity,Positive*
%FSLAX46Y46*%
G04 Gerber Fmt 4.6, Leading zero omitted, Abs format (unit mm)*
G04 Created by KiCad (PCBNEW 8.0.7) date 2025-01-10 19:29:53*
%MOMM*%
%LPD*%
G01*
G04 APERTURE LIST*
G04 #@! TA.AperFunction,SMDPad,CuDef*
%ADD10C,1.000000*%
G04 #@! TD*
G04 #@! TA.AperFunction,SMDPad,CuDef*
%ADD11R,0.485000X0.180000*%
G04 #@! TD*
G04 #@! TA.AperFunction,SMDPad,CuDef*
%ADD12R,0.535000X0.230000*%
G04 #@! TD*
G04 #@! TA.AperFunction,ViaPad*
%ADD13C,0.450000*%
G04 #@! TD*
G04 #@! TA.AperFunction,Conductor*
%ADD14C,0.150000*%
G04 #@! TD*
G04 #@! TA.AperFunction,Conductor*
%ADD15C,0.200000*%
G04 #@! TD*
G04 APERTURE END LIST*
D10*
G04 #@! TO.P,KiKit_FID_B_3,*
G04 #@! TO.N,*
X10000000Y-52550000D03*
G04 #@! TD*
D11*
G04 #@! TO.P,J1,1,1*
G04 #@! TO.N,Board_2-/SPEAKER_N*
X10707000Y-35425000D03*
G04 #@! TO.P,J1,2,2*
G04 #@! TO.N,Board_2-/SPEAKER_P*
X10707000Y-35075000D03*
G04 #@! TO.P,J1,3,3*
G04 #@! TO.N,Board_2-GND*
X10707000Y-34725000D03*
G04 #@! TO.P,J1,4,4*
G04 #@! TO.N,Board_2-/MOTOR_B*
X10707000Y-34375000D03*
G04 #@! TO.P,J1,5,5*
X10707000Y-34025000D03*
G04 #@! TO.P,J1,6,6*
G04 #@! TO.N,Board_2-/MOTOR_A*
X10707000Y-33675000D03*
G04 #@! TO.P,J1,7,7*
X10707000Y-33325000D03*
G04 #@! TO.P,J1,8,8*
G04 #@! TO.N,Board_2-/CAP+*
X10707000Y-32975000D03*
G04 #@! TO.P,J1,9,9*
G04 #@! TO.N,Board_2-/LAMP_FRONT*
X10707000Y-32625000D03*
G04 #@! TO.P,J1,10,10*
G04 #@! TO.N,Board_2-/LAMP_REAR*
X10707000Y-32275000D03*
G04 #@! TO.P,J1,11,11*
G04 #@! TO.N,Board_2-/AUX1 (VDC)*
X10707000Y-31925000D03*
G04 #@! TO.P,J1,12,12*
G04 #@! TO.N,Board_2-/AUX2 (VDC)*
X10707000Y-31575000D03*
G04 #@! TO.P,J1,13,13*
G04 #@! TO.N,Board_2-/AUX8 (VDC)*
X8892000Y-31575000D03*
G04 #@! TO.P,J1,14,14*
G04 #@! TO.N,Board_2-/AUX7 (VDC)*
X8892000Y-31925000D03*
G04 #@! TO.P,J1,15,15*
G04 #@! TO.N,Board_2-/AUX6 (VDC)*
X8892000Y-32275000D03*
G04 #@! TO.P,J1,16,16*
G04 #@! TO.N,Board_2-/AUX5 (VDC)*
X8892000Y-32625000D03*
G04 #@! TO.P,J1,17,17*
G04 #@! TO.N,Board_2-VDC*
X8892000Y-32975000D03*
G04 #@! TO.P,J1,18,18*
G04 #@! TO.N,Board_2-VCC*
X8892000Y-33325000D03*
G04 #@! TO.P,J1,19,19*
G04 #@! TO.N,Board_2-/AUX10*
X8892000Y-33675000D03*
G04 #@! TO.P,J1,20,20*
G04 #@! TO.N,Board_2-/AUX4*
X8892000Y-34025000D03*
G04 #@! TO.P,J1,21,21*
G04 #@! TO.N,Board_2-/AUX3*
X8892000Y-34375000D03*
G04 #@! TO.P,J1,22,22*
G04 #@! TO.N,Board_2-GND*
X8892000Y-34725000D03*
G04 #@! TO.P,J1,23,23*
G04 #@! TO.N,Board_2-/AUX11*
X8892000Y-35075000D03*
G04 #@! TO.P,J1,24,24*
G04 #@! TO.N,Board_2-/AUX12*
X8892000Y-35425000D03*
D12*
G04 #@! TO.P,J1,X1A,X1A*
G04 #@! TO.N,Board_2-/TRACK_LEFT*
X10568000Y-35800000D03*
G04 #@! TO.P,J1,X1B,X1B*
X9032000Y-35800000D03*
G04 #@! TO.P,J1,X2A,X2A*
G04 #@! TO.N,Board_2-/TRACK_RIGHT*
X10568000Y-31200000D03*
G04 #@! TO.P,J1,X2B,X2B*
X9032000Y-31200000D03*
G04 #@! TD*
D11*
G04 #@! TO.P,J1,1,1*
G04 #@! TO.N,Board_3-/SPEAKER_N*
X10707000Y-46025000D03*
G04 #@! TO.P,J1,2,2*
G04 #@! TO.N,Board_3-/SPEAKER_P*
X10707000Y-45675000D03*
G04 #@! TO.P,J1,3,3*
G04 #@! TO.N,Board_3-GND*
X10707000Y-45325000D03*
G04 #@! TO.P,J1,4,4*
G04 #@! TO.N,Board_3-/MOTOR_B*
X10707000Y-44975000D03*
G04 #@! TO.P,J1,5,5*
X10707000Y-44625000D03*
G04 #@! TO.P,J1,6,6*
G04 #@! TO.N,Board_3-/MOTOR_A*
X10707000Y-44275000D03*
G04 #@! TO.P,J1,7,7*
X10707000Y-43925000D03*
G04 #@! TO.P,J1,8,8*
G04 #@! TO.N,Board_3-/CAP+*
X10707000Y-43575000D03*
G04 #@! TO.P,J1,9,9*
G04 #@! TO.N,Board_3-/LAMP_FRONT*
X10707000Y-43225000D03*
G04 #@! TO.P,J1,10,10*
G04 #@! TO.N,Board_3-/LAMP_REAR*
X10707000Y-42875000D03*
G04 #@! TO.P,J1,11,11*
G04 #@! TO.N,Board_3-/AUX1 (VDC)*
X10707000Y-42525000D03*
G04 #@! TO.P,J1,12,12*
G04 #@! TO.N,Board_3-/AUX2 (VDC)*
X10707000Y-42175000D03*
G04 #@! TO.P,J1,13,13*
G04 #@! TO.N,Board_3-/AUX8 (VDC)*
X8892000Y-42175000D03*
G04 #@! TO.P,J1,14,14*
G04 #@! TO.N,Board_3-/AUX7 (VDC)*
X8892000Y-42525000D03*
G04 #@! TO.P,J1,15,15*
G04 #@! TO.N,Board_3-/AUX6 (VDC)*
X8892000Y-42875000D03*
G04 #@! TO.P,J1,16,16*
G04 #@! TO.N,Board_3-/AUX5 (VDC)*
X8892000Y-43225000D03*
G04 #@! TO.P,J1,17,17*
G04 #@! TO.N,Board_3-VDC*
X8892000Y-43575000D03*
G04 #@! TO.P,J1,18,18*
G04 #@! TO.N,Board_3-VCC*
X8892000Y-43925000D03*
G04 #@! TO.P,J1,19,19*
G04 #@! TO.N,Board_3-/AUX10*
X8892000Y-44275000D03*
G04 #@! TO.P,J1,20,20*
G04 #@! TO.N,Board_3-/AUX4*
X8892000Y-44625000D03*
G04 #@! TO.P,J1,21,21*
G04 #@! TO.N,Board_3-/AUX3*
X8892000Y-44975000D03*
G04 #@! TO.P,J1,22,22*
G04 #@! TO.N,Board_3-GND*
X8892000Y-45325000D03*
G04 #@! TO.P,J1,23,23*
G04 #@! TO.N,Board_3-/AUX11*
X8892000Y-45675000D03*
G04 #@! TO.P,J1,24,24*
G04 #@! TO.N,Board_3-/AUX12*
X8892000Y-46025000D03*
D12*
G04 #@! TO.P,J1,X1A,X1A*
G04 #@! TO.N,Board_3-/TRACK_LEFT*
X10568000Y-46400000D03*
G04 #@! TO.P,J1,X1B,X1B*
X9032000Y-46400000D03*
G04 #@! TO.P,J1,X2A,X2A*
G04 #@! TO.N,Board_3-/TRACK_RIGHT*
X10568000Y-41800000D03*
G04 #@! TO.P,J1,X2B,X2B*
X9032000Y-41800000D03*
G04 #@! TD*
D11*
G04 #@! TO.P,J1,1,1*
G04 #@! TO.N,Board_0-/SPEAKER_N*
X10707000Y-14225000D03*
G04 #@! TO.P,J1,2,2*
G04 #@! TO.N,Board_0-/SPEAKER_P*
X10707000Y-13875000D03*
G04 #@! TO.P,J1,3,3*
G04 #@! TO.N,Board_0-GND*
X10707000Y-13525000D03*
G04 #@! TO.P,J1,4,4*
G04 #@! TO.N,Board_0-/MOTOR_B*
X10707000Y-13175000D03*
G04 #@! TO.P,J1,5,5*
X10707000Y-12825000D03*
G04 #@! TO.P,J1,6,6*
G04 #@! TO.N,Board_0-/MOTOR_A*
X10707000Y-12475000D03*
G04 #@! TO.P,J1,7,7*
X10707000Y-12125000D03*
G04 #@! TO.P,J1,8,8*
G04 #@! TO.N,Board_0-/CAP+*
X10707000Y-11775000D03*
G04 #@! TO.P,J1,9,9*
G04 #@! TO.N,Board_0-/LAMP_FRONT*
X10707000Y-11425000D03*
G04 #@! TO.P,J1,10,10*
G04 #@! TO.N,Board_0-/LAMP_REAR*
X10707000Y-11075000D03*
G04 #@! TO.P,J1,11,11*
G04 #@! TO.N,Board_0-/AUX1 (VDC)*
X10707000Y-10725000D03*
G04 #@! TO.P,J1,12,12*
G04 #@! TO.N,Board_0-/AUX2 (VDC)*
X10707000Y-10375000D03*
G04 #@! TO.P,J1,13,13*
G04 #@! TO.N,Board_0-/AUX8 (VDC)*
X8892000Y-10375000D03*
G04 #@! TO.P,J1,14,14*
G04 #@! TO.N,Board_0-/AUX7 (VDC)*
X8892000Y-10725000D03*
G04 #@! TO.P,J1,15,15*
G04 #@! TO.N,Board_0-/AUX6 (VDC)*
X8892000Y-11075000D03*
G04 #@! TO.P,J1,16,16*
G04 #@! TO.N,Board_0-/AUX5 (VDC)*
X8892000Y-11425000D03*
G04 #@! TO.P,J1,17,17*
G04 #@! TO.N,Board_0-VDC*
X8892000Y-11775000D03*
G04 #@! TO.P,J1,18,18*
G04 #@! TO.N,Board_0-VCC*
X8892000Y-12125000D03*
G04 #@! TO.P,J1,19,19*
G04 #@! TO.N,Board_0-/AUX10*
X8892000Y-12475000D03*
G04 #@! TO.P,J1,20,20*
G04 #@! TO.N,Board_0-/AUX4*
X8892000Y-12825000D03*
G04 #@! TO.P,J1,21,21*
G04 #@! TO.N,Board_0-/AUX3*
X8892000Y-13175000D03*
G04 #@! TO.P,J1,22,22*
G04 #@! TO.N,Board_0-GND*
X8892000Y-13525000D03*
G04 #@! TO.P,J1,23,23*
G04 #@! TO.N,Board_0-/AUX11*
X8892000Y-13875000D03*
G04 #@! TO.P,J1,24,24*
G04 #@! TO.N,Board_0-/AUX12*
X8892000Y-14225000D03*
D12*
G04 #@! TO.P,J1,X1A,X1A*
G04 #@! TO.N,Board_0-/TRACK_LEFT*
X10568000Y-14600000D03*
G04 #@! TO.P,J1,X1B,X1B*
X9032000Y-14600000D03*
G04 #@! TO.P,J1,X2A,X2A*
G04 #@! TO.N,Board_0-/TRACK_RIGHT*
X10568000Y-10000000D03*
G04 #@! TO.P,J1,X2B,X2B*
X9032000Y-10000000D03*
G04 #@! TD*
D10*
G04 #@! TO.P,KiKit_FID_B_2,*
G04 #@! TO.N,*
X30000000Y-3850000D03*
G04 #@! TD*
D11*
G04 #@! TO.P,J1,1,1*
G04 #@! TO.N,Board_1-/SPEAKER_N*
X10707000Y-24825000D03*
G04 #@! TO.P,J1,2,2*
G04 #@! TO.N,Board_1-/SPEAKER_P*
X10707000Y-24475000D03*
G04 #@! TO.P,J1,3,3*
G04 #@! TO.N,Board_1-GND*
X10707000Y-24125000D03*
G04 #@! TO.P,J1,4,4*
G04 #@! TO.N,Board_1-/MOTOR_B*
X10707000Y-23775000D03*
G04 #@! TO.P,J1,5,5*
X10707000Y-23425000D03*
G04 #@! TO.P,J1,6,6*
G04 #@! TO.N,Board_1-/MOTOR_A*
X10707000Y-23075000D03*
G04 #@! TO.P,J1,7,7*
X10707000Y-22725000D03*
G04 #@! TO.P,J1,8,8*
G04 #@! TO.N,Board_1-/CAP+*
X10707000Y-22375000D03*
G04 #@! TO.P,J1,9,9*
G04 #@! TO.N,Board_1-/LAMP_FRONT*
X10707000Y-22025000D03*
G04 #@! TO.P,J1,10,10*
G04 #@! TO.N,Board_1-/LAMP_REAR*
X10707000Y-21675000D03*
G04 #@! TO.P,J1,11,11*
G04 #@! TO.N,Board_1-/AUX1 (VDC)*
X10707000Y-21325000D03*
G04 #@! TO.P,J1,12,12*
G04 #@! TO.N,Board_1-/AUX2 (VDC)*
X10707000Y-20975000D03*
G04 #@! TO.P,J1,13,13*
G04 #@! TO.N,Board_1-/AUX8 (VDC)*
X8892000Y-20975000D03*
G04 #@! TO.P,J1,14,14*
G04 #@! TO.N,Board_1-/AUX7 (VDC)*
X8892000Y-21325000D03*
G04 #@! TO.P,J1,15,15*
G04 #@! TO.N,Board_1-/AUX6 (VDC)*
X8892000Y-21675000D03*
G04 #@! TO.P,J1,16,16*
G04 #@! TO.N,Board_1-/AUX5 (VDC)*
X8892000Y-22025000D03*
G04 #@! TO.P,J1,17,17*
G04 #@! TO.N,Board_1-VDC*
X8892000Y-22375000D03*
G04 #@! TO.P,J1,18,18*
G04 #@! TO.N,Board_1-VCC*
X8892000Y-22725000D03*
G04 #@! TO.P,J1,19,19*
G04 #@! TO.N,Board_1-/AUX10*
X8892000Y-23075000D03*
G04 #@! TO.P,J1,20,20*
G04 #@! TO.N,Board_1-/AUX4*
X8892000Y-23425000D03*
G04 #@! TO.P,J1,21,21*
G04 #@! TO.N,Board_1-/AUX3*
X8892000Y-23775000D03*
G04 #@! TO.P,J1,22,22*
G04 #@! TO.N,Board_1-GND*
X8892000Y-24125000D03*
G04 #@! TO.P,J1,23,23*
G04 #@! TO.N,Board_1-/AUX11*
X8892000Y-24475000D03*
G04 #@! TO.P,J1,24,24*
G04 #@! TO.N,Board_1-/AUX12*
X8892000Y-24825000D03*
D12*
G04 #@! TO.P,J1,X1A,X1A*
G04 #@! TO.N,Board_1-/TRACK_LEFT*
X10568000Y-25200000D03*
G04 #@! TO.P,J1,X1B,X1B*
X9032000Y-25200000D03*
G04 #@! TO.P,J1,X2A,X2A*
G04 #@! TO.N,Board_1-/TRACK_RIGHT*
X10568000Y-20600000D03*
G04 #@! TO.P,J1,X2B,X2B*
X9032000Y-20600000D03*
G04 #@! TD*
D10*
G04 #@! TO.P,KiKit_FID_B_4,*
G04 #@! TO.N,*
X30000000Y-52550000D03*
G04 #@! TD*
G04 #@! TO.P,KiKit_FID_B_1,*
G04 #@! TO.N,*
X10000000Y-3850000D03*
G04 #@! TD*
D13*
G04 #@! TO.N,Board_0-/AUX1 (VDC)*
X20187500Y-11712500D03*
G04 #@! TO.N,Board_0-/AUX10*
X25140000Y-11890000D03*
G04 #@! TO.N,Board_0-/AUX11*
X25720000Y-14710000D03*
G04 #@! TO.N,Board_0-/AUX12*
X26700000Y-15200000D03*
X9000000Y-15600000D03*
X11100000Y-15840000D03*
G04 #@! TO.N,Board_0-/AUX2 (VDC)*
X22700000Y-9400000D03*
G04 #@! TO.N,Board_0-/AUX3*
X22690000Y-14540000D03*
G04 #@! TO.N,Board_0-/AUX4*
X11370000Y-9880000D03*
X9930000Y-12550000D03*
X24700000Y-9400000D03*
G04 #@! TO.N,Board_0-/CAP+*
X18200000Y-12200000D03*
G04 #@! TO.N,Board_0-/LAMP_FRONT*
X15360000Y-11720000D03*
G04 #@! TO.N,Board_0-/LAMP_REAR*
X16270000Y-11550000D03*
G04 #@! TO.N,Board_0-/MOTOR_A*
X11242498Y-12335122D03*
G04 #@! TO.N,Board_0-/MOTOR_B*
X11230000Y-12960000D03*
G04 #@! TO.N,Board_0-/SPEAKER_N*
X28700000Y-15200000D03*
G04 #@! TO.N,Board_0-/SPEAKER_P*
X28700000Y-9400000D03*
G04 #@! TO.N,Board_0-/TRACK_LEFT*
X11640000Y-14610000D03*
X9000000Y-14800000D03*
G04 #@! TO.N,Board_0-/TRACK_RIGHT*
X10600000Y-9800000D03*
X9000000Y-9800000D03*
G04 #@! TO.N,Board_0-GND*
X14200000Y-12500000D03*
X10020000Y-13240000D03*
X17650000Y-9170000D03*
X19680000Y-9170000D03*
X9000000Y-8800000D03*
X9985000Y-15395000D03*
X30710000Y-10050000D03*
X30740000Y-14520000D03*
X14720000Y-13740000D03*
G04 #@! TO.N,Board_0-VCC*
X18690000Y-9470000D03*
G04 #@! TO.N,Board_0-VDC*
X20710000Y-9150000D03*
G04 #@! TO.N,Board_1-/AUX1 (VDC)*
X20187500Y-22312500D03*
G04 #@! TO.N,Board_1-/AUX10*
X25140000Y-22490000D03*
G04 #@! TO.N,Board_1-/AUX11*
X25720000Y-25310000D03*
G04 #@! TO.N,Board_1-/AUX12*
X26700000Y-25800000D03*
X11100000Y-26440000D03*
X9000000Y-26200000D03*
G04 #@! TO.N,Board_1-/AUX2 (VDC)*
X22700000Y-20000000D03*
G04 #@! TO.N,Board_1-/AUX3*
X22690000Y-25140000D03*
G04 #@! TO.N,Board_1-/AUX4*
X11370000Y-20480000D03*
X24700000Y-20000000D03*
X9930000Y-23150000D03*
G04 #@! TO.N,Board_1-/CAP+*
X18200000Y-22800000D03*
G04 #@! TO.N,Board_1-/LAMP_FRONT*
X15360000Y-22320000D03*
G04 #@! TO.N,Board_1-/LAMP_REAR*
X16270000Y-22150000D03*
G04 #@! TO.N,Board_1-/MOTOR_A*
X11242498Y-22935122D03*
G04 #@! TO.N,Board_1-/MOTOR_B*
X11230000Y-23560000D03*
G04 #@! TO.N,Board_1-/SPEAKER_N*
X28700000Y-25800000D03*
G04 #@! TO.N,Board_1-/SPEAKER_P*
X28700000Y-20000000D03*
G04 #@! TO.N,Board_1-/TRACK_LEFT*
X9000000Y-25400000D03*
X11640000Y-25210000D03*
G04 #@! TO.N,Board_1-/TRACK_RIGHT*
X9000000Y-20400000D03*
X10600000Y-20400000D03*
G04 #@! TO.N,Board_1-GND*
X14720000Y-24340000D03*
X30740000Y-25120000D03*
X17650000Y-19770000D03*
X10020000Y-23840000D03*
X9985000Y-25995000D03*
X9000000Y-19400000D03*
X19680000Y-19770000D03*
X14200000Y-23100000D03*
X30710000Y-20650000D03*
G04 #@! TO.N,Board_1-VCC*
X18690000Y-20070000D03*
G04 #@! TO.N,Board_1-VDC*
X20710000Y-19750000D03*
G04 #@! TO.N,Board_2-/AUX1 (VDC)*
X20187500Y-32912500D03*
G04 #@! TO.N,Board_2-/AUX10*
X25140000Y-33090000D03*
G04 #@! TO.N,Board_2-/AUX11*
X25720000Y-35910000D03*
G04 #@! TO.N,Board_2-/AUX12*
X9000000Y-36800000D03*
X11100000Y-37040000D03*
X26700000Y-36400000D03*
G04 #@! TO.N,Board_2-/AUX2 (VDC)*
X22700000Y-30600000D03*
G04 #@! TO.N,Board_2-/AUX3*
X22690000Y-35740000D03*
G04 #@! TO.N,Board_2-/AUX4*
X9930000Y-33750000D03*
X11370000Y-31080000D03*
X24700000Y-30600000D03*
G04 #@! TO.N,Board_2-/CAP+*
X18200000Y-33400000D03*
G04 #@! TO.N,Board_2-/LAMP_FRONT*
X15360000Y-32920000D03*
G04 #@! TO.N,Board_2-/LAMP_REAR*
X16270000Y-32750000D03*
G04 #@! TO.N,Board_2-/MOTOR_A*
X11242498Y-33535122D03*
G04 #@! TO.N,Board_2-/MOTOR_B*
X11230000Y-34160000D03*
G04 #@! TO.N,Board_2-/SPEAKER_N*
X28700000Y-36400000D03*
G04 #@! TO.N,Board_2-/SPEAKER_P*
X28700000Y-30600000D03*
G04 #@! TO.N,Board_2-/TRACK_LEFT*
X11640000Y-35810000D03*
X9000000Y-36000000D03*
G04 #@! TO.N,Board_2-/TRACK_RIGHT*
X9000000Y-31000000D03*
X10600000Y-31000000D03*
G04 #@! TO.N,Board_2-GND*
X14200000Y-33700000D03*
X14720000Y-34940000D03*
X17650000Y-30370000D03*
X10020000Y-34440000D03*
X9000000Y-30000000D03*
X9985000Y-36595000D03*
X30740000Y-35720000D03*
X30710000Y-31250000D03*
X19680000Y-30370000D03*
G04 #@! TO.N,Board_2-VCC*
X18690000Y-30670000D03*
G04 #@! TO.N,Board_2-VDC*
X20710000Y-30350000D03*
G04 #@! TO.N,Board_3-/AUX1 (VDC)*
X20187500Y-43512500D03*
G04 #@! TO.N,Board_3-/AUX10*
X25140000Y-43690000D03*
G04 #@! TO.N,Board_3-/AUX11*
X25720000Y-46510000D03*
G04 #@! TO.N,Board_3-/AUX12*
X9000000Y-47400000D03*
X11100000Y-47640000D03*
X26700000Y-47000000D03*
G04 #@! TO.N,Board_3-/AUX2 (VDC)*
X22700000Y-41200000D03*
G04 #@! TO.N,Board_3-/AUX3*
X22690000Y-46340000D03*
G04 #@! TO.N,Board_3-/AUX4*
X9930000Y-44350000D03*
X11370000Y-41680000D03*
X24700000Y-41200000D03*
G04 #@! TO.N,Board_3-/CAP+*
X18200000Y-44000000D03*
G04 #@! TO.N,Board_3-/LAMP_FRONT*
X15360000Y-43520000D03*
G04 #@! TO.N,Board_3-/LAMP_REAR*
X16270000Y-43350000D03*
G04 #@! TO.N,Board_3-/MOTOR_A*
X11242498Y-44135122D03*
G04 #@! TO.N,Board_3-/MOTOR_B*
X11230000Y-44760000D03*
G04 #@! TO.N,Board_3-/SPEAKER_N*
X28700000Y-47000000D03*
G04 #@! TO.N,Board_3-/SPEAKER_P*
X28700000Y-41200000D03*
G04 #@! TO.N,Board_3-/TRACK_LEFT*
X11640000Y-46410000D03*
X9000000Y-46600000D03*
G04 #@! TO.N,Board_3-/TRACK_RIGHT*
X10600000Y-41600000D03*
X9000000Y-41600000D03*
G04 #@! TO.N,Board_3-GND*
X17650000Y-40970000D03*
X30740000Y-46320000D03*
X30710000Y-41850000D03*
X9000000Y-40600000D03*
X14720000Y-45540000D03*
X10020000Y-45040000D03*
X14200000Y-44300000D03*
X9985000Y-47195000D03*
X19680000Y-40970000D03*
G04 #@! TO.N,Board_3-VCC*
X18690000Y-41270000D03*
G04 #@! TO.N,Board_3-VDC*
X20710000Y-40950000D03*
G04 #@! TD*
D14*
G04 #@! TO.N,Board_0-/AUX1 (VDC)*
X11315000Y-10725000D02*
X10707000Y-10725000D01*
X11385000Y-10795000D02*
X11315000Y-10725000D01*
X19270000Y-10795000D02*
X11385000Y-10795000D01*
X20187500Y-11712500D02*
X19270000Y-10795000D01*
G04 #@! TO.N,Board_0-/AUX10*
X11845000Y-9683248D02*
X11486752Y-9325000D01*
X11845000Y-9705000D02*
X11845000Y-9683248D01*
X24665000Y-8645000D02*
X22369020Y-8645000D01*
X22369020Y-8645000D02*
X21059020Y-9955000D01*
X9315244Y-12475000D02*
X8892000Y-12475000D01*
X25175000Y-11855000D02*
X25175000Y-9155000D01*
X10403248Y-9325000D02*
X10095500Y-9632748D01*
X10095500Y-9632748D02*
X10095500Y-11694744D01*
X25140000Y-11890000D02*
X25175000Y-11855000D01*
X21059020Y-9955000D02*
X12095000Y-9955000D01*
X25175000Y-9155000D02*
X24665000Y-8645000D01*
X12095000Y-9955000D02*
X11845000Y-9705000D01*
X11486752Y-9325000D02*
X10403248Y-9325000D01*
X10095500Y-11694744D02*
X9315244Y-12475000D01*
G04 #@! TO.N,Board_0-/AUX11*
X9165000Y-13875000D02*
X8892000Y-13875000D01*
X9510000Y-14220000D02*
X9165000Y-13875000D01*
X12450980Y-15015000D02*
X12100980Y-15365000D01*
X9510000Y-15591752D02*
X9510000Y-14220000D01*
X25720000Y-14710000D02*
X25415000Y-15015000D01*
X12100980Y-15365000D02*
X10686752Y-15365000D01*
X10686752Y-15365000D02*
X10181752Y-15870000D01*
X25415000Y-15015000D02*
X12450980Y-15015000D01*
X10181752Y-15870000D02*
X9788248Y-15870000D01*
X9788248Y-15870000D02*
X9510000Y-15591752D01*
G04 #@! TO.N,Board_0-/AUX12*
X8715000Y-14225000D02*
X8475000Y-14465000D01*
X11295000Y-15645000D02*
X12216960Y-15645000D01*
X11100000Y-15840000D02*
X11295000Y-15645000D01*
X12566960Y-15295000D02*
X26605000Y-15295000D01*
X26605000Y-15295000D02*
X26700000Y-15200000D01*
X8475000Y-14465000D02*
X8475000Y-15085000D01*
X8485000Y-15085000D02*
X9000000Y-15600000D01*
X8892000Y-14225000D02*
X8715000Y-14225000D01*
X8475000Y-15085000D02*
X8485000Y-15085000D01*
X12216960Y-15645000D02*
X12566960Y-15295000D01*
G04 #@! TO.N,Board_0-/AUX2 (VDC)*
X11500980Y-10515000D02*
X11360980Y-10375000D01*
X21290980Y-10515000D02*
X11500980Y-10515000D01*
X22405980Y-9400000D02*
X21290980Y-10515000D01*
X22700000Y-9400000D02*
X22405980Y-9400000D01*
X11360980Y-10375000D02*
X10707000Y-10375000D01*
G04 #@! TO.N,Board_0-/AUX3*
X10090000Y-13984020D02*
X9280980Y-13175000D01*
X12335000Y-14735000D02*
X11985000Y-15085000D01*
X11985000Y-15085000D02*
X10346752Y-15085000D01*
X10090000Y-14828248D02*
X10090000Y-13984020D01*
X22690000Y-14540000D02*
X22495000Y-14735000D01*
X9280980Y-13175000D02*
X8892000Y-13175000D01*
X10346752Y-15085000D02*
X10090000Y-14828248D01*
X22495000Y-14735000D02*
X12335000Y-14735000D01*
G04 #@! TO.N,Board_0-/AUX4*
X9930000Y-12550000D02*
X9655000Y-12825000D01*
X21175000Y-10235000D02*
X22485000Y-8925000D01*
X9655000Y-12825000D02*
X8892000Y-12825000D01*
X11725000Y-10235000D02*
X21175000Y-10235000D01*
X24225000Y-8925000D02*
X24700000Y-9400000D01*
X22485000Y-8925000D02*
X24225000Y-8925000D01*
X11370000Y-9880000D02*
X11725000Y-10235000D01*
G04 #@! TO.N,Board_0-/CAP+*
X18200000Y-12200000D02*
X15010000Y-12200000D01*
X14585000Y-11775000D02*
X10707000Y-11775000D01*
X15010000Y-12200000D02*
X14585000Y-11775000D01*
G04 #@! TO.N,Board_0-/LAMP_FRONT*
X15065000Y-11425000D02*
X10707000Y-11425000D01*
X15360000Y-11720000D02*
X15065000Y-11425000D01*
G04 #@! TO.N,Board_0-/LAMP_REAR*
X15795000Y-11075000D02*
X10707000Y-11075000D01*
X16270000Y-11550000D02*
X15795000Y-11075000D01*
D15*
G04 #@! TO.N,Board_0-/MOTOR_A*
X11207376Y-12300000D02*
X10707000Y-12300000D01*
X10707000Y-12300000D02*
X10707000Y-12125000D01*
X10707000Y-12475000D02*
X10707000Y-12300000D01*
X11242498Y-12335122D02*
X11207376Y-12300000D01*
G04 #@! TO.N,Board_0-/MOTOR_B*
X11190000Y-13000000D02*
X10707000Y-13000000D01*
X10707000Y-13000000D02*
X10707000Y-13175000D01*
X10707000Y-12825000D02*
X10707000Y-13000000D01*
X11230000Y-12960000D02*
X11190000Y-13000000D01*
D14*
G04 #@! TO.N,Board_0-/SPEAKER_N*
X11161460Y-14225000D02*
X11346460Y-14040000D01*
X12540980Y-13265000D02*
X26765000Y-13265000D01*
X11765980Y-14040000D02*
X12540980Y-13265000D01*
X11346460Y-14040000D02*
X11765980Y-14040000D01*
X26765000Y-13265000D02*
X28700000Y-15200000D01*
X10707000Y-14225000D02*
X11161460Y-14225000D01*
G04 #@! TO.N,Board_0-/SPEAKER_P*
X28700000Y-11080000D02*
X28700000Y-9400000D01*
X26795000Y-12985000D02*
X28700000Y-11080000D01*
X11650000Y-13760000D02*
X12425000Y-12985000D01*
X11230480Y-13760000D02*
X11650000Y-13760000D01*
X12425000Y-12985000D02*
X26795000Y-12985000D01*
X11115480Y-13875000D02*
X11230480Y-13760000D01*
X10707000Y-13875000D02*
X11115480Y-13875000D01*
D15*
G04 #@! TO.N,Board_0-/TRACK_LEFT*
X11640000Y-14610000D02*
X10578000Y-14610000D01*
X9032000Y-14600000D02*
X9032000Y-14768000D01*
X9032000Y-14768000D02*
X9000000Y-14800000D01*
X10578000Y-14610000D02*
X10568000Y-14600000D01*
G04 #@! TO.N,Board_0-/TRACK_RIGHT*
X10568000Y-9832000D02*
X10568000Y-10000000D01*
X9032000Y-9832000D02*
X9032000Y-10000000D01*
X9000000Y-9800000D02*
X9032000Y-9832000D01*
X10600000Y-9800000D02*
X10568000Y-9832000D01*
D14*
G04 #@! TO.N,Board_0-GND*
X12470000Y-12500000D02*
X11530000Y-13440000D01*
X9810000Y-15220000D02*
X9810000Y-14100000D01*
X11154500Y-13440000D02*
X11069500Y-13525000D01*
X10707000Y-13525000D02*
X10305000Y-13525000D01*
X11069500Y-13525000D02*
X10707000Y-13525000D01*
X9810000Y-14100000D02*
X9235000Y-13525000D01*
X10305000Y-13525000D02*
X10020000Y-13240000D01*
X9235000Y-13525000D02*
X8892000Y-13525000D01*
X14200000Y-12500000D02*
X12470000Y-12500000D01*
X9985000Y-15395000D02*
X9810000Y-15220000D01*
X11530000Y-13440000D02*
X11154500Y-13440000D01*
G04 #@! TO.N,Board_0-VCC*
X11602732Y-9045000D02*
X10287268Y-9045000D01*
X12210980Y-9675000D02*
X12125000Y-9589020D01*
X18690000Y-9470000D02*
X18485000Y-9675000D01*
X18485000Y-9675000D02*
X12210980Y-9675000D01*
X12125000Y-9589020D02*
X12125000Y-9567268D01*
X9815500Y-11578764D02*
X9269264Y-12125000D01*
X9269264Y-12125000D02*
X8892000Y-12125000D01*
X10287268Y-9045000D02*
X9815500Y-9516768D01*
X12125000Y-9567268D02*
X11602732Y-9045000D01*
X9815500Y-9516768D02*
X9815500Y-11578764D01*
G04 #@! TO.N,Board_0-VDC*
X20710000Y-9150000D02*
X20250000Y-8690000D01*
X9504500Y-11465500D02*
X9195000Y-11775000D01*
X20250000Y-8690000D02*
X10160000Y-8690000D01*
X9504500Y-9345500D02*
X9504500Y-11465500D01*
X10160000Y-8690000D02*
X9504500Y-9345500D01*
X9195000Y-11775000D02*
X8892000Y-11775000D01*
G04 #@! TO.N,Board_1-/AUX1 (VDC)*
X20187500Y-22312500D02*
X19270000Y-21395000D01*
X19270000Y-21395000D02*
X11385000Y-21395000D01*
X11385000Y-21395000D02*
X11315000Y-21325000D01*
X11315000Y-21325000D02*
X10707000Y-21325000D01*
G04 #@! TO.N,Board_1-/AUX10*
X21059020Y-20555000D02*
X12095000Y-20555000D01*
X12095000Y-20555000D02*
X11845000Y-20305000D01*
X11486752Y-19925000D02*
X10403248Y-19925000D01*
X10095500Y-20232748D02*
X10095500Y-22294744D01*
X25175000Y-19755000D02*
X24665000Y-19245000D01*
X9315244Y-23075000D02*
X8892000Y-23075000D01*
X10095500Y-22294744D02*
X9315244Y-23075000D01*
X25140000Y-22490000D02*
X25175000Y-22455000D01*
X24665000Y-19245000D02*
X22369020Y-19245000D01*
X11845000Y-20305000D02*
X11845000Y-20283248D01*
X22369020Y-19245000D02*
X21059020Y-20555000D01*
X25175000Y-22455000D02*
X25175000Y-19755000D01*
X11845000Y-20283248D02*
X11486752Y-19925000D01*
X10403248Y-19925000D02*
X10095500Y-20232748D01*
G04 #@! TO.N,Board_1-/AUX11*
X25720000Y-25310000D02*
X25415000Y-25615000D01*
X9788248Y-26470000D02*
X9510000Y-26191752D01*
X25415000Y-25615000D02*
X12450980Y-25615000D01*
X9510000Y-26191752D02*
X9510000Y-24820000D01*
X10181752Y-26470000D02*
X9788248Y-26470000D01*
X12100980Y-25965000D02*
X10686752Y-25965000D01*
X9510000Y-24820000D02*
X9165000Y-24475000D01*
X9165000Y-24475000D02*
X8892000Y-24475000D01*
X12450980Y-25615000D02*
X12100980Y-25965000D01*
X10686752Y-25965000D02*
X10181752Y-26470000D01*
G04 #@! TO.N,Board_1-/AUX12*
X11295000Y-26245000D02*
X12216960Y-26245000D01*
X8485000Y-25685000D02*
X9000000Y-26200000D01*
X12566960Y-25895000D02*
X26605000Y-25895000D01*
X8715000Y-24825000D02*
X8475000Y-25065000D01*
X8475000Y-25065000D02*
X8475000Y-25685000D01*
X8892000Y-24825000D02*
X8715000Y-24825000D01*
X26605000Y-25895000D02*
X26700000Y-25800000D01*
X11100000Y-26440000D02*
X11295000Y-26245000D01*
X12216960Y-26245000D02*
X12566960Y-25895000D01*
X8475000Y-25685000D02*
X8485000Y-25685000D01*
G04 #@! TO.N,Board_1-/AUX2 (VDC)*
X21290980Y-21115000D02*
X11500980Y-21115000D01*
X22700000Y-20000000D02*
X22405980Y-20000000D01*
X11500980Y-21115000D02*
X11360980Y-20975000D01*
X11360980Y-20975000D02*
X10707000Y-20975000D01*
X22405980Y-20000000D02*
X21290980Y-21115000D01*
G04 #@! TO.N,Board_1-/AUX3*
X10346752Y-25685000D02*
X10090000Y-25428248D01*
X10090000Y-24584020D02*
X9280980Y-23775000D01*
X12335000Y-25335000D02*
X11985000Y-25685000D01*
X22690000Y-25140000D02*
X22495000Y-25335000D01*
X11985000Y-25685000D02*
X10346752Y-25685000D01*
X10090000Y-25428248D02*
X10090000Y-24584020D01*
X22495000Y-25335000D02*
X12335000Y-25335000D01*
X9280980Y-23775000D02*
X8892000Y-23775000D01*
G04 #@! TO.N,Board_1-/AUX4*
X22485000Y-19525000D02*
X24225000Y-19525000D01*
X21175000Y-20835000D02*
X22485000Y-19525000D01*
X24225000Y-19525000D02*
X24700000Y-20000000D01*
X11725000Y-20835000D02*
X21175000Y-20835000D01*
X11370000Y-20480000D02*
X11725000Y-20835000D01*
X9930000Y-23150000D02*
X9655000Y-23425000D01*
X9655000Y-23425000D02*
X8892000Y-23425000D01*
G04 #@! TO.N,Board_1-/CAP+*
X14585000Y-22375000D02*
X10707000Y-22375000D01*
X15010000Y-22800000D02*
X14585000Y-22375000D01*
X18200000Y-22800000D02*
X15010000Y-22800000D01*
G04 #@! TO.N,Board_1-/LAMP_FRONT*
X15360000Y-22320000D02*
X15065000Y-22025000D01*
X15065000Y-22025000D02*
X10707000Y-22025000D01*
G04 #@! TO.N,Board_1-/LAMP_REAR*
X16270000Y-22150000D02*
X15795000Y-21675000D01*
X15795000Y-21675000D02*
X10707000Y-21675000D01*
D15*
G04 #@! TO.N,Board_1-/MOTOR_A*
X11242498Y-22935122D02*
X11207376Y-22900000D01*
X10707000Y-23075000D02*
X10707000Y-22900000D01*
X10707000Y-22900000D02*
X10707000Y-22725000D01*
X11207376Y-22900000D02*
X10707000Y-22900000D01*
G04 #@! TO.N,Board_1-/MOTOR_B*
X11230000Y-23560000D02*
X11190000Y-23600000D01*
X10707000Y-23425000D02*
X10707000Y-23600000D01*
X11190000Y-23600000D02*
X10707000Y-23600000D01*
X10707000Y-23600000D02*
X10707000Y-23775000D01*
D14*
G04 #@! TO.N,Board_1-/SPEAKER_N*
X11765980Y-24640000D02*
X12540980Y-23865000D01*
X10707000Y-24825000D02*
X11161460Y-24825000D01*
X11161460Y-24825000D02*
X11346460Y-24640000D01*
X12540980Y-23865000D02*
X26765000Y-23865000D01*
X11346460Y-24640000D02*
X11765980Y-24640000D01*
X26765000Y-23865000D02*
X28700000Y-25800000D01*
G04 #@! TO.N,Board_1-/SPEAKER_P*
X26795000Y-23585000D02*
X28700000Y-21680000D01*
X11115480Y-24475000D02*
X11230480Y-24360000D01*
X28700000Y-21680000D02*
X28700000Y-20000000D01*
X10707000Y-24475000D02*
X11115480Y-24475000D01*
X12425000Y-23585000D02*
X26795000Y-23585000D01*
X11650000Y-24360000D02*
X12425000Y-23585000D01*
X11230480Y-24360000D02*
X11650000Y-24360000D01*
D15*
G04 #@! TO.N,Board_1-/TRACK_LEFT*
X10578000Y-25210000D02*
X10568000Y-25200000D01*
X11640000Y-25210000D02*
X10578000Y-25210000D01*
X9032000Y-25368000D02*
X9000000Y-25400000D01*
X9032000Y-25200000D02*
X9032000Y-25368000D01*
G04 #@! TO.N,Board_1-/TRACK_RIGHT*
X9032000Y-20432000D02*
X9032000Y-20600000D01*
X9000000Y-20400000D02*
X9032000Y-20432000D01*
X10600000Y-20400000D02*
X10568000Y-20432000D01*
X10568000Y-20432000D02*
X10568000Y-20600000D01*
D14*
G04 #@! TO.N,Board_1-GND*
X10305000Y-24125000D02*
X10020000Y-23840000D01*
X9985000Y-25995000D02*
X9810000Y-25820000D01*
X9810000Y-25820000D02*
X9810000Y-24700000D01*
X14200000Y-23100000D02*
X12470000Y-23100000D01*
X12470000Y-23100000D02*
X11530000Y-24040000D01*
X9235000Y-24125000D02*
X8892000Y-24125000D01*
X11530000Y-24040000D02*
X11154500Y-24040000D01*
X11154500Y-24040000D02*
X11069500Y-24125000D01*
X11069500Y-24125000D02*
X10707000Y-24125000D01*
X9810000Y-24700000D02*
X9235000Y-24125000D01*
X10707000Y-24125000D02*
X10305000Y-24125000D01*
G04 #@! TO.N,Board_1-VCC*
X12210980Y-20275000D02*
X12125000Y-20189020D01*
X18485000Y-20275000D02*
X12210980Y-20275000D01*
X9815500Y-22178764D02*
X9269264Y-22725000D01*
X18690000Y-20070000D02*
X18485000Y-20275000D01*
X12125000Y-20167268D02*
X11602732Y-19645000D01*
X11602732Y-19645000D02*
X10287268Y-19645000D01*
X9269264Y-22725000D02*
X8892000Y-22725000D01*
X9815500Y-20116768D02*
X9815500Y-22178764D01*
X10287268Y-19645000D02*
X9815500Y-20116768D01*
X12125000Y-20189020D02*
X12125000Y-20167268D01*
G04 #@! TO.N,Board_1-VDC*
X9195000Y-22375000D02*
X8892000Y-22375000D01*
X10160000Y-19290000D02*
X9504500Y-19945500D01*
X20710000Y-19750000D02*
X20250000Y-19290000D01*
X9504500Y-22065500D02*
X9195000Y-22375000D01*
X9504500Y-19945500D02*
X9504500Y-22065500D01*
X20250000Y-19290000D02*
X10160000Y-19290000D01*
G04 #@! TO.N,Board_2-/AUX1 (VDC)*
X19270000Y-31995000D02*
X11385000Y-31995000D01*
X11385000Y-31995000D02*
X11315000Y-31925000D01*
X11315000Y-31925000D02*
X10707000Y-31925000D01*
X20187500Y-32912500D02*
X19270000Y-31995000D01*
G04 #@! TO.N,Board_2-/AUX10*
X10403248Y-30525000D02*
X10095500Y-30832748D01*
X22369020Y-29845000D02*
X21059020Y-31155000D01*
X10095500Y-32894744D02*
X9315244Y-33675000D01*
X25140000Y-33090000D02*
X25175000Y-33055000D01*
X11486752Y-30525000D02*
X10403248Y-30525000D01*
X9315244Y-33675000D02*
X8892000Y-33675000D01*
X11845000Y-30883248D02*
X11486752Y-30525000D01*
X25175000Y-33055000D02*
X25175000Y-30355000D01*
X24665000Y-29845000D02*
X22369020Y-29845000D01*
X10095500Y-30832748D02*
X10095500Y-32894744D01*
X21059020Y-31155000D02*
X12095000Y-31155000D01*
X11845000Y-30905000D02*
X11845000Y-30883248D01*
X12095000Y-31155000D02*
X11845000Y-30905000D01*
X25175000Y-30355000D02*
X24665000Y-29845000D01*
G04 #@! TO.N,Board_2-/AUX11*
X25720000Y-35910000D02*
X25415000Y-36215000D01*
X25415000Y-36215000D02*
X12450980Y-36215000D01*
X9510000Y-36791752D02*
X9510000Y-35420000D01*
X10686752Y-36565000D02*
X10181752Y-37070000D01*
X12450980Y-36215000D02*
X12100980Y-36565000D01*
X9510000Y-35420000D02*
X9165000Y-35075000D01*
X9788248Y-37070000D02*
X9510000Y-36791752D01*
X12100980Y-36565000D02*
X10686752Y-36565000D01*
X9165000Y-35075000D02*
X8892000Y-35075000D01*
X10181752Y-37070000D02*
X9788248Y-37070000D01*
G04 #@! TO.N,Board_2-/AUX12*
X8485000Y-36285000D02*
X9000000Y-36800000D01*
X8892000Y-35425000D02*
X8715000Y-35425000D01*
X8715000Y-35425000D02*
X8475000Y-35665000D01*
X26605000Y-36495000D02*
X26700000Y-36400000D01*
X8475000Y-36285000D02*
X8485000Y-36285000D01*
X11295000Y-36845000D02*
X12216960Y-36845000D01*
X12216960Y-36845000D02*
X12566960Y-36495000D01*
X8475000Y-35665000D02*
X8475000Y-36285000D01*
X12566960Y-36495000D02*
X26605000Y-36495000D01*
X11100000Y-37040000D02*
X11295000Y-36845000D01*
G04 #@! TO.N,Board_2-/AUX2 (VDC)*
X22700000Y-30600000D02*
X22405980Y-30600000D01*
X11500980Y-31715000D02*
X11360980Y-31575000D01*
X11360980Y-31575000D02*
X10707000Y-31575000D01*
X22405980Y-30600000D02*
X21290980Y-31715000D01*
X21290980Y-31715000D02*
X11500980Y-31715000D01*
G04 #@! TO.N,Board_2-/AUX3*
X11985000Y-36285000D02*
X10346752Y-36285000D01*
X12335000Y-35935000D02*
X11985000Y-36285000D01*
X9280980Y-34375000D02*
X8892000Y-34375000D01*
X10346752Y-36285000D02*
X10090000Y-36028248D01*
X10090000Y-36028248D02*
X10090000Y-35184020D01*
X10090000Y-35184020D02*
X9280980Y-34375000D01*
X22690000Y-35740000D02*
X22495000Y-35935000D01*
X22495000Y-35935000D02*
X12335000Y-35935000D01*
G04 #@! TO.N,Board_2-/AUX4*
X9655000Y-34025000D02*
X8892000Y-34025000D01*
X21175000Y-31435000D02*
X22485000Y-30125000D01*
X9930000Y-33750000D02*
X9655000Y-34025000D01*
X11370000Y-31080000D02*
X11725000Y-31435000D01*
X24225000Y-30125000D02*
X24700000Y-30600000D01*
X11725000Y-31435000D02*
X21175000Y-31435000D01*
X22485000Y-30125000D02*
X24225000Y-30125000D01*
G04 #@! TO.N,Board_2-/CAP+*
X18200000Y-33400000D02*
X15010000Y-33400000D01*
X14585000Y-32975000D02*
X10707000Y-32975000D01*
X15010000Y-33400000D02*
X14585000Y-32975000D01*
G04 #@! TO.N,Board_2-/LAMP_FRONT*
X15360000Y-32920000D02*
X15065000Y-32625000D01*
X15065000Y-32625000D02*
X10707000Y-32625000D01*
G04 #@! TO.N,Board_2-/LAMP_REAR*
X15795000Y-32275000D02*
X10707000Y-32275000D01*
X16270000Y-32750000D02*
X15795000Y-32275000D01*
D15*
G04 #@! TO.N,Board_2-/MOTOR_A*
X10707000Y-33675000D02*
X10707000Y-33500000D01*
X11242498Y-33535122D02*
X11207376Y-33500000D01*
X10707000Y-33500000D02*
X10707000Y-33325000D01*
X11207376Y-33500000D02*
X10707000Y-33500000D01*
G04 #@! TO.N,Board_2-/MOTOR_B*
X11230000Y-34160000D02*
X11190000Y-34200000D01*
X11190000Y-34200000D02*
X10707000Y-34200000D01*
X10707000Y-34025000D02*
X10707000Y-34200000D01*
X10707000Y-34200000D02*
X10707000Y-34375000D01*
D14*
G04 #@! TO.N,Board_2-/SPEAKER_N*
X26765000Y-34465000D02*
X28700000Y-36400000D01*
X10707000Y-35425000D02*
X11161460Y-35425000D01*
X11765980Y-35240000D02*
X12540980Y-34465000D01*
X11346460Y-35240000D02*
X11765980Y-35240000D01*
X11161460Y-35425000D02*
X11346460Y-35240000D01*
X12540980Y-34465000D02*
X26765000Y-34465000D01*
G04 #@! TO.N,Board_2-/SPEAKER_P*
X11115480Y-35075000D02*
X11230480Y-34960000D01*
X11650000Y-34960000D02*
X12425000Y-34185000D01*
X11230480Y-34960000D02*
X11650000Y-34960000D01*
X28700000Y-32280000D02*
X28700000Y-30600000D01*
X10707000Y-35075000D02*
X11115480Y-35075000D01*
X12425000Y-34185000D02*
X26795000Y-34185000D01*
X26795000Y-34185000D02*
X28700000Y-32280000D01*
D15*
G04 #@! TO.N,Board_2-/TRACK_LEFT*
X9032000Y-35968000D02*
X9000000Y-36000000D01*
X9032000Y-35800000D02*
X9032000Y-35968000D01*
X11640000Y-35810000D02*
X10578000Y-35810000D01*
X10578000Y-35810000D02*
X10568000Y-35800000D01*
G04 #@! TO.N,Board_2-/TRACK_RIGHT*
X9000000Y-31000000D02*
X9032000Y-31032000D01*
X10568000Y-31032000D02*
X10568000Y-31200000D01*
X9032000Y-31032000D02*
X9032000Y-31200000D01*
X10600000Y-31000000D02*
X10568000Y-31032000D01*
D14*
G04 #@! TO.N,Board_2-GND*
X10305000Y-34725000D02*
X10020000Y-34440000D01*
X10707000Y-34725000D02*
X10305000Y-34725000D01*
X11069500Y-34725000D02*
X10707000Y-34725000D01*
X9235000Y-34725000D02*
X8892000Y-34725000D01*
X12470000Y-33700000D02*
X11530000Y-34640000D01*
X11154500Y-34640000D02*
X11069500Y-34725000D01*
X14200000Y-33700000D02*
X12470000Y-33700000D01*
X9810000Y-36420000D02*
X9810000Y-35300000D01*
X9810000Y-35300000D02*
X9235000Y-34725000D01*
X11530000Y-34640000D02*
X11154500Y-34640000D01*
X9985000Y-36595000D02*
X9810000Y-36420000D01*
G04 #@! TO.N,Board_2-VCC*
X9815500Y-30716768D02*
X9815500Y-32778764D01*
X12210980Y-30875000D02*
X12125000Y-30789020D01*
X12125000Y-30767268D02*
X11602732Y-30245000D01*
X12125000Y-30789020D02*
X12125000Y-30767268D01*
X9815500Y-32778764D02*
X9269264Y-33325000D01*
X18690000Y-30670000D02*
X18485000Y-30875000D01*
X9269264Y-33325000D02*
X8892000Y-33325000D01*
X10287268Y-30245000D02*
X9815500Y-30716768D01*
X11602732Y-30245000D02*
X10287268Y-30245000D01*
X18485000Y-30875000D02*
X12210980Y-30875000D01*
G04 #@! TO.N,Board_2-VDC*
X20250000Y-29890000D02*
X10160000Y-29890000D01*
X9504500Y-30545500D02*
X9504500Y-32665500D01*
X9504500Y-32665500D02*
X9195000Y-32975000D01*
X9195000Y-32975000D02*
X8892000Y-32975000D01*
X20710000Y-30350000D02*
X20250000Y-29890000D01*
X10160000Y-29890000D02*
X9504500Y-30545500D01*
G04 #@! TO.N,Board_3-/AUX1 (VDC)*
X19270000Y-42595000D02*
X11385000Y-42595000D01*
X11315000Y-42525000D02*
X10707000Y-42525000D01*
X20187500Y-43512500D02*
X19270000Y-42595000D01*
X11385000Y-42595000D02*
X11315000Y-42525000D01*
G04 #@! TO.N,Board_3-/AUX10*
X11486752Y-41125000D02*
X10403248Y-41125000D01*
X25140000Y-43690000D02*
X25175000Y-43655000D01*
X12095000Y-41755000D02*
X11845000Y-41505000D01*
X10095500Y-41432748D02*
X10095500Y-43494744D01*
X11845000Y-41483248D02*
X11486752Y-41125000D01*
X21059020Y-41755000D02*
X12095000Y-41755000D01*
X22369020Y-40445000D02*
X21059020Y-41755000D01*
X11845000Y-41505000D02*
X11845000Y-41483248D01*
X10095500Y-43494744D02*
X9315244Y-44275000D01*
X24665000Y-40445000D02*
X22369020Y-40445000D01*
X10403248Y-41125000D02*
X10095500Y-41432748D01*
X9315244Y-44275000D02*
X8892000Y-44275000D01*
X25175000Y-43655000D02*
X25175000Y-40955000D01*
X25175000Y-40955000D02*
X24665000Y-40445000D01*
G04 #@! TO.N,Board_3-/AUX11*
X9788248Y-47670000D02*
X9510000Y-47391752D01*
X12450980Y-46815000D02*
X12100980Y-47165000D01*
X25415000Y-46815000D02*
X12450980Y-46815000D01*
X9510000Y-47391752D02*
X9510000Y-46020000D01*
X12100980Y-47165000D02*
X10686752Y-47165000D01*
X25720000Y-46510000D02*
X25415000Y-46815000D01*
X9510000Y-46020000D02*
X9165000Y-45675000D01*
X10181752Y-47670000D02*
X9788248Y-47670000D01*
X10686752Y-47165000D02*
X10181752Y-47670000D01*
X9165000Y-45675000D02*
X8892000Y-45675000D01*
G04 #@! TO.N,Board_3-/AUX12*
X12216960Y-47445000D02*
X12566960Y-47095000D01*
X8485000Y-46885000D02*
X9000000Y-47400000D01*
X26605000Y-47095000D02*
X26700000Y-47000000D01*
X8715000Y-46025000D02*
X8475000Y-46265000D01*
X11100000Y-47640000D02*
X11295000Y-47445000D01*
X8892000Y-46025000D02*
X8715000Y-46025000D01*
X12566960Y-47095000D02*
X26605000Y-47095000D01*
X8475000Y-46885000D02*
X8485000Y-46885000D01*
X11295000Y-47445000D02*
X12216960Y-47445000D01*
X8475000Y-46265000D02*
X8475000Y-46885000D01*
G04 #@! TO.N,Board_3-/AUX2 (VDC)*
X11500980Y-42315000D02*
X11360980Y-42175000D01*
X22405980Y-41200000D02*
X21290980Y-42315000D01*
X11360980Y-42175000D02*
X10707000Y-42175000D01*
X22700000Y-41200000D02*
X22405980Y-41200000D01*
X21290980Y-42315000D02*
X11500980Y-42315000D01*
G04 #@! TO.N,Board_3-/AUX3*
X11985000Y-46885000D02*
X10346752Y-46885000D01*
X10346752Y-46885000D02*
X10090000Y-46628248D01*
X22690000Y-46340000D02*
X22495000Y-46535000D01*
X22495000Y-46535000D02*
X12335000Y-46535000D01*
X9280980Y-44975000D02*
X8892000Y-44975000D01*
X10090000Y-45784020D02*
X9280980Y-44975000D01*
X12335000Y-46535000D02*
X11985000Y-46885000D01*
X10090000Y-46628248D02*
X10090000Y-45784020D01*
G04 #@! TO.N,Board_3-/AUX4*
X22485000Y-40725000D02*
X24225000Y-40725000D01*
X11725000Y-42035000D02*
X21175000Y-42035000D01*
X21175000Y-42035000D02*
X22485000Y-40725000D01*
X9930000Y-44350000D02*
X9655000Y-44625000D01*
X11370000Y-41680000D02*
X11725000Y-42035000D01*
X24225000Y-40725000D02*
X24700000Y-41200000D01*
X9655000Y-44625000D02*
X8892000Y-44625000D01*
G04 #@! TO.N,Board_3-/CAP+*
X14585000Y-43575000D02*
X10707000Y-43575000D01*
X18200000Y-44000000D02*
X15010000Y-44000000D01*
X15010000Y-44000000D02*
X14585000Y-43575000D01*
G04 #@! TO.N,Board_3-/LAMP_FRONT*
X15360000Y-43520000D02*
X15065000Y-43225000D01*
X15065000Y-43225000D02*
X10707000Y-43225000D01*
G04 #@! TO.N,Board_3-/LAMP_REAR*
X16270000Y-43350000D02*
X15795000Y-42875000D01*
X15795000Y-42875000D02*
X10707000Y-42875000D01*
D15*
G04 #@! TO.N,Board_3-/MOTOR_A*
X10707000Y-44275000D02*
X10707000Y-44100000D01*
X11207376Y-44100000D02*
X10707000Y-44100000D01*
X11242498Y-44135122D02*
X11207376Y-44100000D01*
X10707000Y-44100000D02*
X10707000Y-43925000D01*
G04 #@! TO.N,Board_3-/MOTOR_B*
X10707000Y-44625000D02*
X10707000Y-44800000D01*
X11190000Y-44800000D02*
X10707000Y-44800000D01*
X10707000Y-44800000D02*
X10707000Y-44975000D01*
X11230000Y-44760000D02*
X11190000Y-44800000D01*
D14*
G04 #@! TO.N,Board_3-/SPEAKER_N*
X12540980Y-45065000D02*
X26765000Y-45065000D01*
X26765000Y-45065000D02*
X28700000Y-47000000D01*
X10707000Y-46025000D02*
X11161460Y-46025000D01*
X11161460Y-46025000D02*
X11346460Y-45840000D01*
X11765980Y-45840000D02*
X12540980Y-45065000D01*
X11346460Y-45840000D02*
X11765980Y-45840000D01*
G04 #@! TO.N,Board_3-/SPEAKER_P*
X11230480Y-45560000D02*
X11650000Y-45560000D01*
X10707000Y-45675000D02*
X11115480Y-45675000D01*
X28700000Y-42880000D02*
X28700000Y-41200000D01*
X12425000Y-44785000D02*
X26795000Y-44785000D01*
X11115480Y-45675000D02*
X11230480Y-45560000D01*
X11650000Y-45560000D02*
X12425000Y-44785000D01*
X26795000Y-44785000D02*
X28700000Y-42880000D01*
D15*
G04 #@! TO.N,Board_3-/TRACK_LEFT*
X10578000Y-46410000D02*
X10568000Y-46400000D01*
X11640000Y-46410000D02*
X10578000Y-46410000D01*
X9032000Y-46400000D02*
X9032000Y-46568000D01*
X9032000Y-46568000D02*
X9000000Y-46600000D01*
G04 #@! TO.N,Board_3-/TRACK_RIGHT*
X10568000Y-41632000D02*
X10568000Y-41800000D01*
X9032000Y-41632000D02*
X9032000Y-41800000D01*
X9000000Y-41600000D02*
X9032000Y-41632000D01*
X10600000Y-41600000D02*
X10568000Y-41632000D01*
D14*
G04 #@! TO.N,Board_3-GND*
X10707000Y-45325000D02*
X10305000Y-45325000D01*
X9985000Y-47195000D02*
X9810000Y-47020000D01*
X14200000Y-44300000D02*
X12470000Y-44300000D01*
X9235000Y-45325000D02*
X8892000Y-45325000D01*
X12470000Y-44300000D02*
X11530000Y-45240000D01*
X9810000Y-47020000D02*
X9810000Y-45900000D01*
X9810000Y-45900000D02*
X9235000Y-45325000D01*
X11530000Y-45240000D02*
X11154500Y-45240000D01*
X11069500Y-45325000D02*
X10707000Y-45325000D01*
X11154500Y-45240000D02*
X11069500Y-45325000D01*
X10305000Y-45325000D02*
X10020000Y-45040000D01*
G04 #@! TO.N,Board_3-VCC*
X9815500Y-41316768D02*
X9815500Y-43378764D01*
X9815500Y-43378764D02*
X9269264Y-43925000D01*
X18485000Y-41475000D02*
X12210980Y-41475000D01*
X10287268Y-40845000D02*
X9815500Y-41316768D01*
X11602732Y-40845000D02*
X10287268Y-40845000D01*
X18690000Y-41270000D02*
X18485000Y-41475000D01*
X12125000Y-41367268D02*
X11602732Y-40845000D01*
X12125000Y-41389020D02*
X12125000Y-41367268D01*
X9269264Y-43925000D02*
X8892000Y-43925000D01*
X12210980Y-41475000D02*
X12125000Y-41389020D01*
G04 #@! TO.N,Board_3-VDC*
X20710000Y-40950000D02*
X20250000Y-40490000D01*
X9504500Y-41145500D02*
X9504500Y-43265500D01*
X10160000Y-40490000D02*
X9504500Y-41145500D01*
X9504500Y-43265500D02*
X9195000Y-43575000D01*
X20250000Y-40490000D02*
X10160000Y-40490000D01*
X9195000Y-43575000D02*
X8892000Y-43575000D01*
G04 #@! TD*
G04 #@! TA.AperFunction,Conductor*
G04 #@! TO.N,Board_1-GND*
G36*
X31585148Y-19014852D02*
G01*
X31599500Y-19049500D01*
X31599500Y-26750500D01*
X31585148Y-26785148D01*
X31550500Y-26799500D01*
X11425188Y-26799500D01*
X11390540Y-26785148D01*
X11376188Y-26750500D01*
X11390540Y-26715852D01*
X11428050Y-26678342D01*
X11428054Y-26678335D01*
X11485644Y-26565309D01*
X11485644Y-26565307D01*
X11485646Y-26565304D01*
X11497282Y-26491833D01*
X11516878Y-26459858D01*
X11545679Y-26450500D01*
X12257835Y-26450500D01*
X12257837Y-26450500D01*
X12289122Y-26437541D01*
X12333366Y-26419215D01*
X12391175Y-26361406D01*
X12637729Y-26114852D01*
X12672377Y-26100500D01*
X26413812Y-26100500D01*
X26448460Y-26114852D01*
X26461657Y-26128049D01*
X26461664Y-26128054D01*
X26574691Y-26185644D01*
X26574692Y-26185644D01*
X26574696Y-26185646D01*
X26700000Y-26205492D01*
X26825304Y-26185646D01*
X26825308Y-26185644D01*
X26825309Y-26185644D01*
X26938335Y-26128054D01*
X26938337Y-26128052D01*
X26938342Y-26128050D01*
X27028050Y-26038342D01*
X27028054Y-26038335D01*
X27085644Y-25925309D01*
X27085644Y-25925307D01*
X27085646Y-25925304D01*
X27105492Y-25800000D01*
X27085646Y-25674696D01*
X27085644Y-25674692D01*
X27085644Y-25674690D01*
X27028054Y-25561664D01*
X27028049Y-25561657D01*
X26938342Y-25471950D01*
X26938335Y-25471945D01*
X26825308Y-25414355D01*
X26825305Y-25414354D01*
X26825304Y-25414354D01*
X26700000Y-25394508D01*
X26574696Y-25414354D01*
X26574694Y-25414354D01*
X26574692Y-25414355D01*
X26574690Y-25414355D01*
X26461664Y-25471945D01*
X26461657Y-25471950D01*
X26371950Y-25561657D01*
X26371945Y-25561664D01*
X26320443Y-25662745D01*
X26291926Y-25687102D01*
X26276784Y-25689500D01*
X26025188Y-25689500D01*
X25990540Y-25675148D01*
X25976188Y-25640500D01*
X25990540Y-25605852D01*
X26048050Y-25548342D01*
X26049929Y-25544655D01*
X26105644Y-25435309D01*
X26105644Y-25435307D01*
X26105646Y-25435304D01*
X26125492Y-25310000D01*
X26105646Y-25184696D01*
X26105644Y-25184692D01*
X26105644Y-25184690D01*
X26048054Y-25071664D01*
X26048049Y-25071657D01*
X25958342Y-24981950D01*
X25958335Y-24981945D01*
X25845308Y-24924355D01*
X25845305Y-24924354D01*
X25845304Y-24924354D01*
X25720000Y-24904508D01*
X25594696Y-24924354D01*
X25594694Y-24924354D01*
X25594692Y-24924355D01*
X25594690Y-24924355D01*
X25481664Y-24981945D01*
X25481657Y-24981950D01*
X25391950Y-25071657D01*
X25391945Y-25071664D01*
X25334355Y-25184690D01*
X25334355Y-25184692D01*
X25334354Y-25184694D01*
X25334354Y-25184696D01*
X25314508Y-25310000D01*
X25321292Y-25352835D01*
X25312538Y-25389301D01*
X25280562Y-25408897D01*
X25272896Y-25409500D01*
X23082136Y-25409500D01*
X23047488Y-25395148D01*
X23033136Y-25360500D01*
X23038477Y-25338255D01*
X23075644Y-25265309D01*
X23075644Y-25265307D01*
X23075646Y-25265304D01*
X23095492Y-25140000D01*
X23075646Y-25014696D01*
X23075644Y-25014692D01*
X23075644Y-25014690D01*
X23018054Y-24901664D01*
X23018049Y-24901657D01*
X22928342Y-24811950D01*
X22928335Y-24811945D01*
X22815308Y-24754355D01*
X22815305Y-24754354D01*
X22815304Y-24754354D01*
X22690000Y-24734508D01*
X22564696Y-24754354D01*
X22564694Y-24754354D01*
X22564692Y-24754355D01*
X22564690Y-24754355D01*
X22451664Y-24811945D01*
X22451657Y-24811950D01*
X22361950Y-24901657D01*
X22361945Y-24901664D01*
X22304355Y-25014690D01*
X22304355Y-25014692D01*
X22304354Y-25014694D01*
X22304354Y-25014696D01*
X22293268Y-25084696D01*
X22292718Y-25088166D01*
X22273122Y-25120142D01*
X22244321Y-25129500D01*
X12294121Y-25129500D01*
X12274812Y-25137499D01*
X12218593Y-25160785D01*
X12218593Y-25160786D01*
X12128813Y-25250565D01*
X12094165Y-25264917D01*
X12059517Y-25250565D01*
X12045165Y-25215917D01*
X12045492Y-25211767D01*
X12045492Y-25210001D01*
X12041484Y-25184696D01*
X12025646Y-25084696D01*
X12025644Y-25084692D01*
X12025644Y-25084690D01*
X11968054Y-24971664D01*
X11968049Y-24971657D01*
X11881144Y-24884752D01*
X11866792Y-24850104D01*
X11881144Y-24815456D01*
X11882384Y-24814215D01*
X11882386Y-24814215D01*
X11940195Y-24756406D01*
X11940195Y-24756405D01*
X12611748Y-24084852D01*
X12646396Y-24070500D01*
X26659583Y-24070500D01*
X26694231Y-24084852D01*
X28292559Y-25683180D01*
X28306911Y-25717828D01*
X28306308Y-25725493D01*
X28294508Y-25799999D01*
X28294508Y-25800000D01*
X28314354Y-25925304D01*
X28314354Y-25925305D01*
X28314355Y-25925307D01*
X28314355Y-25925309D01*
X28371945Y-26038335D01*
X28371950Y-26038342D01*
X28461657Y-26128049D01*
X28461664Y-26128054D01*
X28574691Y-26185644D01*
X28574692Y-26185644D01*
X28574696Y-26185646D01*
X28700000Y-26205492D01*
X28825304Y-26185646D01*
X28825308Y-26185644D01*
X28825309Y-26185644D01*
X28938335Y-26128054D01*
X28938337Y-26128052D01*
X28938342Y-26128050D01*
X29028050Y-26038342D01*
X29028054Y-26038335D01*
X29085644Y-25925309D01*
X29085644Y-25925307D01*
X29085646Y-25925304D01*
X29105492Y-25800000D01*
X29085646Y-25674696D01*
X29085644Y-25674692D01*
X29085644Y-25674690D01*
X29028054Y-25561664D01*
X29028049Y-25561657D01*
X28938342Y-25471950D01*
X28938335Y-25471945D01*
X28825308Y-25414355D01*
X28825305Y-25414354D01*
X28825304Y-25414354D01*
X28700000Y-25394508D01*
X28699999Y-25394508D01*
X28625493Y-25406308D01*
X28589026Y-25397552D01*
X28583180Y-25392559D01*
X26965269Y-23774648D01*
X26950917Y-23740000D01*
X26965269Y-23705352D01*
X28874214Y-21796407D01*
X28874215Y-21796406D01*
X28892541Y-21752162D01*
X28905500Y-21720877D01*
X28905500Y-21639123D01*
X28905500Y-20374811D01*
X28919852Y-20340163D01*
X28932253Y-20331152D01*
X28938342Y-20328050D01*
X29028050Y-20238342D01*
X29028054Y-20238335D01*
X29085644Y-20125309D01*
X29085644Y-20125307D01*
X29085646Y-20125304D01*
X29105492Y-20000000D01*
X29085646Y-19874696D01*
X29085644Y-19874692D01*
X29085644Y-19874690D01*
X29028054Y-19761664D01*
X29028049Y-19761657D01*
X28938342Y-19671950D01*
X28938335Y-19671945D01*
X28825308Y-19614355D01*
X28825305Y-19614354D01*
X28825304Y-19614354D01*
X28700000Y-19594508D01*
X28574696Y-19614354D01*
X28574694Y-19614354D01*
X28574692Y-19614355D01*
X28574690Y-19614355D01*
X28461664Y-19671945D01*
X28461657Y-19671950D01*
X28371950Y-19761657D01*
X28371945Y-19761664D01*
X28314355Y-19874690D01*
X28314355Y-19874692D01*
X28314354Y-19874694D01*
X28314354Y-19874696D01*
X28294508Y-20000000D01*
X28314354Y-20125304D01*
X28314354Y-20125305D01*
X28314355Y-20125307D01*
X28314355Y-20125309D01*
X28371945Y-20238335D01*
X28371950Y-20238342D01*
X28461658Y-20328050D01*
X28467745Y-20331151D01*
X28492102Y-20359668D01*
X28494500Y-20374811D01*
X28494500Y-21574583D01*
X28480148Y-21609231D01*
X26724231Y-23365148D01*
X26689583Y-23379500D01*
X12384121Y-23379500D01*
X12372960Y-23384124D01*
X12308593Y-23410785D01*
X12288692Y-23430687D01*
X12250785Y-23468594D01*
X11579231Y-24140148D01*
X11544583Y-24154500D01*
X11189603Y-24154500D01*
X11167481Y-24163662D01*
X11167481Y-24163663D01*
X11140777Y-24174724D01*
X11114073Y-24185785D01*
X11085169Y-24214689D01*
X11056265Y-24243594D01*
X11056264Y-24243595D01*
X11056260Y-24243598D01*
X11049990Y-24249867D01*
X11044282Y-24252230D01*
X11043530Y-24252773D01*
X11043528Y-24252774D01*
X11043432Y-24252582D01*
X11015341Y-24264216D01*
X11005310Y-24262221D01*
X11005153Y-24263013D01*
X11000419Y-24262071D01*
X10962355Y-24254500D01*
X10962352Y-24254500D01*
X10451649Y-24254500D01*
X10451648Y-24254500D01*
X10451646Y-24254501D01*
X10426269Y-24259547D01*
X10413580Y-24262071D01*
X10413576Y-24262073D01*
X10370412Y-24290914D01*
X10341572Y-24334077D01*
X10341571Y-24334080D01*
X10341571Y-24334081D01*
X10334000Y-24372145D01*
X10334000Y-24372147D01*
X10334000Y-24372148D01*
X10334000Y-24419102D01*
X10319648Y-24453750D01*
X10285000Y-24468102D01*
X10250352Y-24453751D01*
X10250351Y-24453750D01*
X10206406Y-24409805D01*
X9510749Y-23714148D01*
X9496397Y-23679500D01*
X9510749Y-23644852D01*
X9545397Y-23630500D01*
X9695875Y-23630500D01*
X9695877Y-23630500D01*
X9727162Y-23617541D01*
X9771406Y-23599215D01*
X9813181Y-23557439D01*
X9847828Y-23543088D01*
X9855494Y-23543691D01*
X9869650Y-23545933D01*
X9930000Y-23555492D01*
X10055304Y-23535646D01*
X10055308Y-23535644D01*
X10055309Y-23535644D01*
X10168335Y-23478054D01*
X10168337Y-23478052D01*
X10168342Y-23478050D01*
X10250353Y-23396038D01*
X10285000Y-23381687D01*
X10319648Y-23396039D01*
X10334000Y-23430687D01*
X10334000Y-23527850D01*
X10334001Y-23527854D01*
X10341571Y-23565919D01*
X10341572Y-23565920D01*
X10346155Y-23572781D01*
X10353468Y-23609564D01*
X10346155Y-23627219D01*
X10341571Y-23634079D01*
X10334000Y-23672147D01*
X10334000Y-23877850D01*
X10334001Y-23877854D01*
X10341571Y-23915919D01*
X10341573Y-23915923D01*
X10370414Y-23959087D01*
X10413577Y-23987927D01*
X10413579Y-23987927D01*
X10413581Y-23987929D01*
X10451645Y-23995500D01*
X10627259Y-23995499D01*
X10646010Y-23999229D01*
X10661146Y-24005498D01*
X10661151Y-24005500D01*
X10661153Y-24005500D01*
X10752847Y-24005500D01*
X10752849Y-24005500D01*
X10767988Y-23999228D01*
X10786740Y-23995499D01*
X10962351Y-23995499D01*
X10962354Y-23995499D01*
X11000419Y-23987929D01*
X11043586Y-23959086D01*
X11043588Y-23959082D01*
X11046996Y-23955675D01*
X11048657Y-23957335D01*
X11072768Y-23941204D01*
X11100820Y-23945078D01*
X11101024Y-23944453D01*
X11104524Y-23945590D01*
X11104609Y-23945601D01*
X11104696Y-23945646D01*
X11230000Y-23965492D01*
X11355304Y-23945646D01*
X11355308Y-23945644D01*
X11355309Y-23945644D01*
X11468335Y-23888054D01*
X11468337Y-23888052D01*
X11468342Y-23888050D01*
X11558050Y-23798342D01*
X11587777Y-23740000D01*
X11615644Y-23685309D01*
X11615644Y-23685307D01*
X11615646Y-23685304D01*
X11635492Y-23560000D01*
X11615646Y-23434696D01*
X11615644Y-23434692D01*
X11615644Y-23434690D01*
X11558054Y-23321664D01*
X11558049Y-23321657D01*
X11524850Y-23288458D01*
X11510498Y-23253810D01*
X11524850Y-23219162D01*
X11538521Y-23205491D01*
X11570548Y-23173464D01*
X11579708Y-23155487D01*
X11628142Y-23060431D01*
X11628142Y-23060429D01*
X11628144Y-23060426D01*
X11647990Y-22935122D01*
X11628144Y-22809818D01*
X11628142Y-22809814D01*
X11628142Y-22809812D01*
X11570552Y-22696786D01*
X11570547Y-22696779D01*
X11537916Y-22664148D01*
X11523564Y-22629500D01*
X11537916Y-22594852D01*
X11572564Y-22580500D01*
X14479583Y-22580500D01*
X14514231Y-22594852D01*
X14835785Y-22916406D01*
X14893594Y-22974215D01*
X14937838Y-22992541D01*
X14969123Y-23005500D01*
X14969124Y-23005500D01*
X17825189Y-23005500D01*
X17859837Y-23019852D01*
X17868846Y-23032250D01*
X17871950Y-23038342D01*
X17871953Y-23038345D01*
X17961657Y-23128049D01*
X17961664Y-23128054D01*
X18074691Y-23185644D01*
X18074692Y-23185644D01*
X18074696Y-23185646D01*
X18200000Y-23205492D01*
X18325304Y-23185646D01*
X18325308Y-23185644D01*
X18325309Y-23185644D01*
X18438335Y-23128054D01*
X18438337Y-23128052D01*
X18438342Y-23128050D01*
X18528050Y-23038342D01*
X18535003Y-23024696D01*
X18585644Y-22925309D01*
X18585644Y-22925307D01*
X18585646Y-22925304D01*
X18605492Y-22800000D01*
X18585646Y-22674696D01*
X18585644Y-22674692D01*
X18585644Y-22674690D01*
X18528054Y-22561664D01*
X18528049Y-22561657D01*
X18438342Y-22471950D01*
X18438335Y-22471945D01*
X18325308Y-22414355D01*
X18325305Y-22414354D01*
X18325304Y-22414354D01*
X18200000Y-22394508D01*
X18074696Y-22414354D01*
X18074694Y-22414354D01*
X18074692Y-22414355D01*
X18074690Y-22414355D01*
X17961664Y-22471945D01*
X17961657Y-22471950D01*
X17871953Y-22561654D01*
X17871951Y-22561657D01*
X17871950Y-22561658D01*
X17868847Y-22567747D01*
X17840330Y-22592102D01*
X17825189Y-22594500D01*
X16483897Y-22594500D01*
X16449249Y-22580148D01*
X16434897Y-22545500D01*
X16449249Y-22510852D01*
X16461651Y-22501841D01*
X16508337Y-22478053D01*
X16508338Y-22478051D01*
X16508342Y-22478050D01*
X16598050Y-22388342D01*
X16598054Y-22388335D01*
X16655644Y-22275309D01*
X16655644Y-22275307D01*
X16655646Y-22275304D01*
X16675492Y-22150000D01*
X16655646Y-22024696D01*
X16655644Y-22024692D01*
X16655644Y-22024690D01*
X16598054Y-21911664D01*
X16598049Y-21911657D01*
X16508342Y-21821950D01*
X16508335Y-21821945D01*
X16395308Y-21764355D01*
X16395305Y-21764354D01*
X16395304Y-21764354D01*
X16270000Y-21744508D01*
X16269999Y-21744508D01*
X16195493Y-21756308D01*
X16159026Y-21747552D01*
X16153180Y-21742559D01*
X16094769Y-21684148D01*
X16080417Y-21649500D01*
X16094769Y-21614852D01*
X16129417Y-21600500D01*
X19164583Y-21600500D01*
X19199231Y-21614852D01*
X19780059Y-22195680D01*
X19794411Y-22230328D01*
X19793808Y-22237993D01*
X19787898Y-22275309D01*
X19782008Y-22312500D01*
X19801854Y-22437804D01*
X19801854Y-22437805D01*
X19801855Y-22437807D01*
X19801855Y-22437809D01*
X19859445Y-22550835D01*
X19859450Y-22550842D01*
X19949157Y-22640549D01*
X19949164Y-22640554D01*
X20062191Y-22698144D01*
X20062192Y-22698144D01*
X20062196Y-22698146D01*
X20187500Y-22717992D01*
X20312804Y-22698146D01*
X20312808Y-22698144D01*
X20312809Y-22698144D01*
X20425835Y-22640554D01*
X20425837Y-22640552D01*
X20425842Y-22640550D01*
X20515550Y-22550842D01*
X20523293Y-22535646D01*
X20573144Y-22437809D01*
X20573144Y-22437807D01*
X20573146Y-22437804D01*
X20592992Y-22312500D01*
X20573146Y-22187196D01*
X20573144Y-22187192D01*
X20573144Y-22187190D01*
X20515554Y-22074164D01*
X20515549Y-22074157D01*
X20425842Y-21984450D01*
X20425835Y-21984445D01*
X20312808Y-21926855D01*
X20312805Y-21926854D01*
X20312804Y-21926854D01*
X20187500Y-21907008D01*
X20187499Y-21907008D01*
X20112993Y-21918808D01*
X20076526Y-21910052D01*
X20070680Y-21905059D01*
X19569769Y-21404148D01*
X19555417Y-21369500D01*
X19569769Y-21334852D01*
X19604417Y-21320500D01*
X21331855Y-21320500D01*
X21331857Y-21320500D01*
X21363142Y-21307541D01*
X21407386Y-21289215D01*
X21465195Y-21231406D01*
X22380456Y-20316143D01*
X22415104Y-20301792D01*
X22449752Y-20316144D01*
X22461657Y-20328049D01*
X22461664Y-20328054D01*
X22574691Y-20385644D01*
X22574692Y-20385644D01*
X22574696Y-20385646D01*
X22700000Y-20405492D01*
X22825304Y-20385646D01*
X22825308Y-20385644D01*
X22825309Y-20385644D01*
X22938335Y-20328054D01*
X22938337Y-20328052D01*
X22938342Y-20328050D01*
X23028050Y-20238342D01*
X23028054Y-20238335D01*
X23085644Y-20125309D01*
X23085644Y-20125307D01*
X23085646Y-20125304D01*
X23105492Y-20000000D01*
X23085646Y-19874696D01*
X23085644Y-19874692D01*
X23085644Y-19874690D01*
X23048477Y-19801745D01*
X23045534Y-19764358D01*
X23069891Y-19735841D01*
X23092136Y-19730500D01*
X24119583Y-19730500D01*
X24154231Y-19744852D01*
X24292559Y-19883180D01*
X24306911Y-19917828D01*
X24306308Y-19925493D01*
X24296354Y-19988342D01*
X24294508Y-20000000D01*
X24314354Y-20125304D01*
X24314354Y-20125305D01*
X24314355Y-20125307D01*
X24314355Y-20125309D01*
X24371945Y-20238335D01*
X24371950Y-20238342D01*
X24461657Y-20328049D01*
X24461664Y-20328054D01*
X24574691Y-20385644D01*
X24574692Y-20385644D01*
X24574696Y-20385646D01*
X24700000Y-20405492D01*
X24825304Y-20385646D01*
X24898254Y-20348476D01*
X24935642Y-20345533D01*
X24964159Y-20369889D01*
X24969500Y-20392135D01*
X24969500Y-22097355D01*
X24955148Y-22132003D01*
X24942746Y-22141014D01*
X24901661Y-22161948D01*
X24901654Y-22161953D01*
X24811950Y-22251657D01*
X24811945Y-22251664D01*
X24754355Y-22364690D01*
X24754355Y-22364692D01*
X24754354Y-22364694D01*
X24754354Y-22364696D01*
X24734508Y-22490000D01*
X24754354Y-22615304D01*
X24754354Y-22615305D01*
X24754355Y-22615307D01*
X24754355Y-22615309D01*
X24811945Y-22728335D01*
X24811950Y-22728342D01*
X24901657Y-22818049D01*
X24901664Y-22818054D01*
X25014691Y-22875644D01*
X25014692Y-22875644D01*
X25014696Y-22875646D01*
X25140000Y-22895492D01*
X25265304Y-22875646D01*
X25265308Y-22875644D01*
X25265309Y-22875644D01*
X25378335Y-22818054D01*
X25378337Y-22818052D01*
X25378342Y-22818050D01*
X25468050Y-22728342D01*
X25473324Y-22717992D01*
X25525644Y-22615309D01*
X25525644Y-22615307D01*
X25525646Y-22615304D01*
X25545492Y-22490000D01*
X25525646Y-22364696D01*
X25525644Y-22364692D01*
X25525644Y-22364690D01*
X25468054Y-22251664D01*
X25468049Y-22251657D01*
X25394852Y-22178460D01*
X25380500Y-22143812D01*
X25380500Y-19714124D01*
X25380499Y-19714120D01*
X25378821Y-19710069D01*
X25378818Y-19710065D01*
X25364498Y-19675493D01*
X25363031Y-19671950D01*
X25349215Y-19638594D01*
X25291406Y-19580785D01*
X24794769Y-19084148D01*
X24780417Y-19049500D01*
X24794769Y-19014852D01*
X24829417Y-19000500D01*
X31550500Y-19000500D01*
X31585148Y-19014852D01*
G37*
G04 #@! TD.AperFunction*
G04 #@! TA.AperFunction,Conductor*
G36*
X10110225Y-19014852D02*
G01*
X10124577Y-19049500D01*
X10110225Y-19084148D01*
X10094329Y-19094769D01*
X10087838Y-19097458D01*
X10061920Y-19108193D01*
X10043593Y-19115785D01*
X10043593Y-19115786D01*
X9330287Y-19829091D01*
X9330282Y-19829099D01*
X9321418Y-19850501D01*
X9302661Y-19895785D01*
X9302661Y-19895786D01*
X9299000Y-19904622D01*
X9299000Y-20022895D01*
X9284648Y-20057543D01*
X9250000Y-20071895D01*
X9227755Y-20066554D01*
X9125308Y-20014355D01*
X9125305Y-20014354D01*
X9125304Y-20014354D01*
X9000000Y-19994508D01*
X8874696Y-20014354D01*
X8874694Y-20014354D01*
X8874692Y-20014355D01*
X8874690Y-20014355D01*
X8761664Y-20071945D01*
X8761657Y-20071950D01*
X8671950Y-20161657D01*
X8671945Y-20161664D01*
X8614355Y-20274690D01*
X8614355Y-20274692D01*
X8614354Y-20274694D01*
X8614354Y-20274696D01*
X8594508Y-20400000D01*
X8614354Y-20525304D01*
X8614354Y-20525305D01*
X8614355Y-20525306D01*
X8628659Y-20553379D01*
X8634000Y-20575625D01*
X8634000Y-20714812D01*
X8619648Y-20749460D01*
X8602399Y-20758690D01*
X8603036Y-20760227D01*
X8598576Y-20762073D01*
X8555412Y-20790914D01*
X8526572Y-20834077D01*
X8526571Y-20834080D01*
X8519000Y-20872147D01*
X8519000Y-21077850D01*
X8519001Y-21077854D01*
X8526571Y-21115919D01*
X8526572Y-21115920D01*
X8531155Y-21122781D01*
X8538468Y-21159564D01*
X8531155Y-21177219D01*
X8526571Y-21184079D01*
X8519000Y-21222147D01*
X8519000Y-21427850D01*
X8519001Y-21427854D01*
X8526571Y-21465919D01*
X8526572Y-21465920D01*
X8531155Y-21472781D01*
X8538468Y-21509564D01*
X8531155Y-21527219D01*
X8526571Y-21534079D01*
X8519000Y-21572147D01*
X8519000Y-21777850D01*
X8519001Y-21777854D01*
X8526571Y-21815919D01*
X8526572Y-21815920D01*
X8531155Y-21822781D01*
X8538468Y-21859564D01*
X8531155Y-21877219D01*
X8526571Y-21884079D01*
X8519000Y-21922147D01*
X8519000Y-22127850D01*
X8519001Y-22127854D01*
X8526571Y-22165919D01*
X8526572Y-22165920D01*
X8531155Y-22172781D01*
X8538468Y-22209564D01*
X8531155Y-22227219D01*
X8526571Y-22234079D01*
X8519000Y-22272147D01*
X8519000Y-22477850D01*
X8519001Y-22477854D01*
X8526571Y-22515919D01*
X8526572Y-22515920D01*
X8531155Y-22522781D01*
X8538468Y-22559564D01*
X8531155Y-22577219D01*
X8526571Y-22584079D01*
X8519000Y-22622147D01*
X8519000Y-22827850D01*
X8519001Y-22827854D01*
X8526571Y-22865919D01*
X8526572Y-22865920D01*
X8531155Y-22872781D01*
X8538468Y-22909564D01*
X8531155Y-22927219D01*
X8526571Y-22934079D01*
X8519000Y-22972147D01*
X8519000Y-23177850D01*
X8519001Y-23177854D01*
X8526571Y-23215919D01*
X8526572Y-23215920D01*
X8531155Y-23222781D01*
X8538468Y-23259564D01*
X8531155Y-23277219D01*
X8526571Y-23284079D01*
X8519000Y-23322147D01*
X8519000Y-23527850D01*
X8519001Y-23527854D01*
X8526571Y-23565919D01*
X8526572Y-23565920D01*
X8531155Y-23572781D01*
X8538468Y-23609564D01*
X8531155Y-23627219D01*
X8526571Y-23634079D01*
X8519000Y-23672147D01*
X8519000Y-23877850D01*
X8519001Y-23877854D01*
X8526571Y-23915919D01*
X8526573Y-23915923D01*
X8555414Y-23959087D01*
X8598577Y-23987927D01*
X8598579Y-23987927D01*
X8598581Y-23987929D01*
X8636645Y-23995500D01*
X9147354Y-23995499D01*
X9174639Y-23990072D01*
X9211417Y-23997389D01*
X9218842Y-24003483D01*
X9870148Y-24654789D01*
X9884500Y-24689437D01*
X9884500Y-25469127D01*
X9888796Y-25479494D01*
X9888797Y-25479500D01*
X9888798Y-25479500D01*
X9915785Y-25544654D01*
X9915786Y-25544655D01*
X10172537Y-25801406D01*
X10230346Y-25859215D01*
X10261092Y-25871950D01*
X10305875Y-25890500D01*
X10305876Y-25890500D01*
X10352335Y-25890500D01*
X10386983Y-25904852D01*
X10401335Y-25939500D01*
X10386983Y-25974148D01*
X10110983Y-26250148D01*
X10076335Y-26264500D01*
X9893665Y-26264500D01*
X9859017Y-26250148D01*
X9729852Y-26120983D01*
X9715500Y-26086335D01*
X9715500Y-24779126D01*
X9715499Y-24779122D01*
X9706090Y-24756407D01*
X9706090Y-24756406D01*
X9686286Y-24708594D01*
X9684215Y-24703594D01*
X9626406Y-24645785D01*
X9281407Y-24300786D01*
X9281406Y-24300785D01*
X9237162Y-24282458D01*
X9237161Y-24282457D01*
X9205877Y-24269500D01*
X9202133Y-24268755D01*
X9189960Y-24263712D01*
X9189876Y-24263917D01*
X9185422Y-24262072D01*
X9185419Y-24262071D01*
X9147355Y-24254500D01*
X9147352Y-24254500D01*
X8636649Y-24254500D01*
X8636648Y-24254500D01*
X8636646Y-24254501D01*
X8611269Y-24259547D01*
X8598580Y-24262071D01*
X8598576Y-24262073D01*
X8555412Y-24290914D01*
X8526572Y-24334077D01*
X8526571Y-24334080D01*
X8519000Y-24372147D01*
X8519000Y-24577850D01*
X8519001Y-24577854D01*
X8526571Y-24615919D01*
X8526572Y-24615920D01*
X8531155Y-24622781D01*
X8538468Y-24659564D01*
X8531155Y-24677219D01*
X8526571Y-24684079D01*
X8523670Y-24698663D01*
X8519855Y-24717845D01*
X8506445Y-24742933D01*
X8484148Y-24765230D01*
X8449500Y-24779582D01*
X8414852Y-24765230D01*
X8400500Y-24730582D01*
X8400500Y-19049500D01*
X8414852Y-19014852D01*
X8449500Y-19000500D01*
X10075577Y-19000500D01*
X10110225Y-19014852D01*
G37*
G04 #@! TD.AperFunction*
G04 #@! TA.AperFunction,Conductor*
G36*
X22239251Y-19014852D02*
G01*
X22253603Y-19049500D01*
X22239251Y-19084148D01*
X20988251Y-20335148D01*
X20953603Y-20349500D01*
X19077040Y-20349500D01*
X19042392Y-20335148D01*
X19028040Y-20300500D01*
X19033381Y-20278254D01*
X19053717Y-20238342D01*
X19075646Y-20195304D01*
X19095492Y-20070000D01*
X19075646Y-19944696D01*
X19075644Y-19944692D01*
X19075644Y-19944690D01*
X19018054Y-19831664D01*
X19018049Y-19831657D01*
X18928342Y-19741950D01*
X18928335Y-19741945D01*
X18815308Y-19684355D01*
X18815305Y-19684354D01*
X18815304Y-19684354D01*
X18690000Y-19664508D01*
X18564696Y-19684354D01*
X18564694Y-19684354D01*
X18564692Y-19684355D01*
X18564690Y-19684355D01*
X18451664Y-19741945D01*
X18451657Y-19741950D01*
X18361950Y-19831657D01*
X18361945Y-19831664D01*
X18304355Y-19944690D01*
X18304355Y-19944692D01*
X18304354Y-19944694D01*
X18304354Y-19944696D01*
X18293321Y-20014355D01*
X18291134Y-20028166D01*
X18271538Y-20060142D01*
X18242737Y-20069500D01*
X12337860Y-20069500D01*
X12303212Y-20055148D01*
X12301888Y-20053535D01*
X12276519Y-20028166D01*
X12241406Y-19993053D01*
X11827501Y-19579148D01*
X11813149Y-19544500D01*
X11827501Y-19509852D01*
X11862149Y-19495500D01*
X20144583Y-19495500D01*
X20179231Y-19509852D01*
X20302559Y-19633180D01*
X20316911Y-19667828D01*
X20316308Y-19675493D01*
X20305784Y-19741945D01*
X20304508Y-19750000D01*
X20324354Y-19875304D01*
X20324354Y-19875305D01*
X20324355Y-19875307D01*
X20324355Y-19875309D01*
X20381945Y-19988335D01*
X20381950Y-19988342D01*
X20471657Y-20078049D01*
X20471664Y-20078054D01*
X20584691Y-20135644D01*
X20584692Y-20135644D01*
X20584696Y-20135646D01*
X20710000Y-20155492D01*
X20835304Y-20135646D01*
X20835308Y-20135644D01*
X20835309Y-20135644D01*
X20948335Y-20078054D01*
X20948337Y-20078052D01*
X20948342Y-20078050D01*
X21038050Y-19988342D01*
X21060292Y-19944690D01*
X21095644Y-19875309D01*
X21095644Y-19875307D01*
X21095646Y-19875304D01*
X21115492Y-19750000D01*
X21095646Y-19624696D01*
X21095644Y-19624692D01*
X21095644Y-19624690D01*
X21038054Y-19511664D01*
X21038049Y-19511657D01*
X20948342Y-19421950D01*
X20948335Y-19421945D01*
X20835308Y-19364355D01*
X20835305Y-19364354D01*
X20835304Y-19364354D01*
X20710000Y-19344508D01*
X20709999Y-19344508D01*
X20635493Y-19356308D01*
X20599026Y-19347552D01*
X20593180Y-19342559D01*
X20366406Y-19115785D01*
X20322162Y-19097458D01*
X20315671Y-19094769D01*
X20289154Y-19068253D01*
X20289152Y-19030750D01*
X20315670Y-19004231D01*
X20334423Y-19000500D01*
X22204603Y-19000500D01*
X22239251Y-19014852D01*
G37*
G04 #@! TD.AperFunction*
G04 #@! TD*
G04 #@! TA.AperFunction,Conductor*
G04 #@! TO.N,Board_3-GND*
G36*
X31585148Y-40214852D02*
G01*
X31599500Y-40249500D01*
X31599500Y-47950500D01*
X31585148Y-47985148D01*
X31550500Y-47999500D01*
X11425188Y-47999500D01*
X11390540Y-47985148D01*
X11376188Y-47950500D01*
X11390540Y-47915852D01*
X11428050Y-47878342D01*
X11428054Y-47878335D01*
X11485644Y-47765309D01*
X11485644Y-47765307D01*
X11485646Y-47765304D01*
X11497282Y-47691833D01*
X11516878Y-47659858D01*
X11545679Y-47650500D01*
X12257835Y-47650500D01*
X12257837Y-47650500D01*
X12289122Y-47637541D01*
X12333366Y-47619215D01*
X12391175Y-47561406D01*
X12637729Y-47314852D01*
X12672377Y-47300500D01*
X26413812Y-47300500D01*
X26448460Y-47314852D01*
X26461657Y-47328049D01*
X26461664Y-47328054D01*
X26574691Y-47385644D01*
X26574692Y-47385644D01*
X26574696Y-47385646D01*
X26700000Y-47405492D01*
X26825304Y-47385646D01*
X26825308Y-47385644D01*
X26825309Y-47385644D01*
X26938335Y-47328054D01*
X26938337Y-47328052D01*
X26938342Y-47328050D01*
X27028050Y-47238342D01*
X27028054Y-47238335D01*
X27085644Y-47125309D01*
X27085644Y-47125307D01*
X27085646Y-47125304D01*
X27105492Y-47000000D01*
X27085646Y-46874696D01*
X27085644Y-46874692D01*
X27085644Y-46874690D01*
X27028054Y-46761664D01*
X27028049Y-46761657D01*
X26938342Y-46671950D01*
X26938335Y-46671945D01*
X26825308Y-46614355D01*
X26825305Y-46614354D01*
X26825304Y-46614354D01*
X26700000Y-46594508D01*
X26574696Y-46614354D01*
X26574694Y-46614354D01*
X26574692Y-46614355D01*
X26574690Y-46614355D01*
X26461664Y-46671945D01*
X26461657Y-46671950D01*
X26371950Y-46761657D01*
X26371945Y-46761664D01*
X26320443Y-46862745D01*
X26291926Y-46887102D01*
X26276784Y-46889500D01*
X26025188Y-46889500D01*
X25990540Y-46875148D01*
X25976188Y-46840500D01*
X25990540Y-46805852D01*
X26048050Y-46748342D01*
X26049929Y-46744655D01*
X26105644Y-46635309D01*
X26105644Y-46635307D01*
X26105646Y-46635304D01*
X26125492Y-46510000D01*
X26105646Y-46384696D01*
X26105644Y-46384692D01*
X26105644Y-46384690D01*
X26048054Y-46271664D01*
X26048049Y-46271657D01*
X25958342Y-46181950D01*
X25958335Y-46181945D01*
X25845308Y-46124355D01*
X25845305Y-46124354D01*
X25845304Y-46124354D01*
X25720000Y-46104508D01*
X25594696Y-46124354D01*
X25594694Y-46124354D01*
X25594692Y-46124355D01*
X25594690Y-46124355D01*
X25481664Y-46181945D01*
X25481657Y-46181950D01*
X25391950Y-46271657D01*
X25391945Y-46271664D01*
X25334355Y-46384690D01*
X25334355Y-46384692D01*
X25334354Y-46384694D01*
X25334354Y-46384696D01*
X25314508Y-46510000D01*
X25321292Y-46552835D01*
X25312538Y-46589301D01*
X25280562Y-46608897D01*
X25272896Y-46609500D01*
X23082136Y-46609500D01*
X23047488Y-46595148D01*
X23033136Y-46560500D01*
X23038477Y-46538255D01*
X23075644Y-46465309D01*
X23075644Y-46465307D01*
X23075646Y-46465304D01*
X23095492Y-46340000D01*
X23075646Y-46214696D01*
X23075644Y-46214692D01*
X23075644Y-46214690D01*
X23018054Y-46101664D01*
X23018049Y-46101657D01*
X22928342Y-46011950D01*
X22928335Y-46011945D01*
X22815308Y-45954355D01*
X22815305Y-45954354D01*
X22815304Y-45954354D01*
X22690000Y-45934508D01*
X22564696Y-45954354D01*
X22564694Y-45954354D01*
X22564692Y-45954355D01*
X22564690Y-45954355D01*
X22451664Y-46011945D01*
X22451657Y-46011950D01*
X22361950Y-46101657D01*
X22361945Y-46101664D01*
X22304355Y-46214690D01*
X22304355Y-46214692D01*
X22304354Y-46214694D01*
X22304354Y-46214696D01*
X22293268Y-46284696D01*
X22292718Y-46288166D01*
X22273122Y-46320142D01*
X22244321Y-46329500D01*
X12294121Y-46329500D01*
X12274812Y-46337499D01*
X12218593Y-46360785D01*
X12218593Y-46360786D01*
X12128813Y-46450565D01*
X12094165Y-46464917D01*
X12059517Y-46450565D01*
X12045165Y-46415917D01*
X12045492Y-46411767D01*
X12045492Y-46410001D01*
X12041484Y-46384696D01*
X12025646Y-46284696D01*
X12025644Y-46284692D01*
X12025644Y-46284690D01*
X11968054Y-46171664D01*
X11968049Y-46171657D01*
X11881144Y-46084752D01*
X11866792Y-46050104D01*
X11881144Y-46015456D01*
X11882384Y-46014215D01*
X11882386Y-46014215D01*
X11940195Y-45956406D01*
X11940195Y-45956405D01*
X12611748Y-45284852D01*
X12646396Y-45270500D01*
X26659583Y-45270500D01*
X26694231Y-45284852D01*
X28292559Y-46883180D01*
X28306911Y-46917828D01*
X28306308Y-46925493D01*
X28294508Y-46999999D01*
X28294508Y-47000000D01*
X28314354Y-47125304D01*
X28314354Y-47125305D01*
X28314355Y-47125307D01*
X28314355Y-47125309D01*
X28371945Y-47238335D01*
X28371950Y-47238342D01*
X28461657Y-47328049D01*
X28461664Y-47328054D01*
X28574691Y-47385644D01*
X28574692Y-47385644D01*
X28574696Y-47385646D01*
X28700000Y-47405492D01*
X28825304Y-47385646D01*
X28825308Y-47385644D01*
X28825309Y-47385644D01*
X28938335Y-47328054D01*
X28938337Y-47328052D01*
X28938342Y-47328050D01*
X29028050Y-47238342D01*
X29028054Y-47238335D01*
X29085644Y-47125309D01*
X29085644Y-47125307D01*
X29085646Y-47125304D01*
X29105492Y-47000000D01*
X29085646Y-46874696D01*
X29085644Y-46874692D01*
X29085644Y-46874690D01*
X29028054Y-46761664D01*
X29028049Y-46761657D01*
X28938342Y-46671950D01*
X28938335Y-46671945D01*
X28825308Y-46614355D01*
X28825305Y-46614354D01*
X28825304Y-46614354D01*
X28700000Y-46594508D01*
X28699999Y-46594508D01*
X28625493Y-46606308D01*
X28589026Y-46597552D01*
X28583180Y-46592559D01*
X26965269Y-44974648D01*
X26950917Y-44940000D01*
X26965269Y-44905352D01*
X28874214Y-42996407D01*
X28874215Y-42996406D01*
X28892541Y-42952162D01*
X28905500Y-42920877D01*
X28905500Y-42839123D01*
X28905500Y-41574811D01*
X28919852Y-41540163D01*
X28932253Y-41531152D01*
X28938342Y-41528050D01*
X29028050Y-41438342D01*
X29028054Y-41438335D01*
X29085644Y-41325309D01*
X29085644Y-41325307D01*
X29085646Y-41325304D01*
X29105492Y-41200000D01*
X29085646Y-41074696D01*
X29085644Y-41074692D01*
X29085644Y-41074690D01*
X29028054Y-40961664D01*
X29028049Y-40961657D01*
X28938342Y-40871950D01*
X28938335Y-40871945D01*
X28825308Y-40814355D01*
X28825305Y-40814354D01*
X28825304Y-40814354D01*
X28700000Y-40794508D01*
X28574696Y-40814354D01*
X28574694Y-40814354D01*
X28574692Y-40814355D01*
X28574690Y-40814355D01*
X28461664Y-40871945D01*
X28461657Y-40871950D01*
X28371950Y-40961657D01*
X28371945Y-40961664D01*
X28314355Y-41074690D01*
X28314355Y-41074692D01*
X28314354Y-41074694D01*
X28314354Y-41074696D01*
X28294508Y-41200000D01*
X28314354Y-41325304D01*
X28314354Y-41325305D01*
X28314355Y-41325307D01*
X28314355Y-41325309D01*
X28371945Y-41438335D01*
X28371950Y-41438342D01*
X28461658Y-41528050D01*
X28467745Y-41531151D01*
X28492102Y-41559668D01*
X28494500Y-41574811D01*
X28494500Y-42774583D01*
X28480148Y-42809231D01*
X26724231Y-44565148D01*
X26689583Y-44579500D01*
X12384121Y-44579500D01*
X12372960Y-44584124D01*
X12308593Y-44610785D01*
X12288692Y-44630687D01*
X12250785Y-44668594D01*
X11579231Y-45340148D01*
X11544583Y-45354500D01*
X11189603Y-45354500D01*
X11167481Y-45363662D01*
X11167481Y-45363663D01*
X11140777Y-45374724D01*
X11114073Y-45385785D01*
X11085169Y-45414689D01*
X11056265Y-45443594D01*
X11056264Y-45443595D01*
X11056260Y-45443598D01*
X11049990Y-45449867D01*
X11044282Y-45452230D01*
X11043530Y-45452773D01*
X11043528Y-45452774D01*
X11043432Y-45452582D01*
X11015341Y-45464216D01*
X11005310Y-45462221D01*
X11005153Y-45463013D01*
X11000419Y-45462071D01*
X10962355Y-45454500D01*
X10962352Y-45454500D01*
X10451649Y-45454500D01*
X10451648Y-45454500D01*
X10451646Y-45454501D01*
X10426269Y-45459547D01*
X10413580Y-45462071D01*
X10413576Y-45462073D01*
X10370412Y-45490914D01*
X10341572Y-45534077D01*
X10341571Y-45534080D01*
X10341571Y-45534081D01*
X10334000Y-45572145D01*
X10334000Y-45572147D01*
X10334000Y-45572148D01*
X10334000Y-45619102D01*
X10319648Y-45653750D01*
X10285000Y-45668102D01*
X10250352Y-45653751D01*
X10250351Y-45653750D01*
X10206406Y-45609805D01*
X9510749Y-44914148D01*
X9496397Y-44879500D01*
X9510749Y-44844852D01*
X9545397Y-44830500D01*
X9695875Y-44830500D01*
X9695877Y-44830500D01*
X9727162Y-44817541D01*
X9771406Y-44799215D01*
X9813181Y-44757439D01*
X9847828Y-44743088D01*
X9855494Y-44743691D01*
X9869650Y-44745933D01*
X9930000Y-44755492D01*
X10055304Y-44735646D01*
X10055308Y-44735644D01*
X10055309Y-44735644D01*
X10168335Y-44678054D01*
X10168337Y-44678052D01*
X10168342Y-44678050D01*
X10250353Y-44596038D01*
X10285000Y-44581687D01*
X10319648Y-44596039D01*
X10334000Y-44630687D01*
X10334000Y-44727850D01*
X10334001Y-44727854D01*
X10341571Y-44765919D01*
X10341572Y-44765920D01*
X10346155Y-44772781D01*
X10353468Y-44809564D01*
X10346155Y-44827219D01*
X10341571Y-44834079D01*
X10334000Y-44872147D01*
X10334000Y-45077850D01*
X10334001Y-45077854D01*
X10341571Y-45115919D01*
X10341573Y-45115923D01*
X10370414Y-45159087D01*
X10413577Y-45187927D01*
X10413579Y-45187927D01*
X10413581Y-45187929D01*
X10451645Y-45195500D01*
X10627259Y-45195499D01*
X10646010Y-45199229D01*
X10661146Y-45205498D01*
X10661151Y-45205500D01*
X10661153Y-45205500D01*
X10752847Y-45205500D01*
X10752849Y-45205500D01*
X10767988Y-45199228D01*
X10786740Y-45195499D01*
X10962351Y-45195499D01*
X10962354Y-45195499D01*
X11000419Y-45187929D01*
X11043586Y-45159086D01*
X11043588Y-45159082D01*
X11046996Y-45155675D01*
X11048657Y-45157335D01*
X11072768Y-45141204D01*
X11100820Y-45145078D01*
X11101024Y-45144453D01*
X11104524Y-45145590D01*
X11104609Y-45145601D01*
X11104696Y-45145646D01*
X11230000Y-45165492D01*
X11355304Y-45145646D01*
X11355308Y-45145644D01*
X11355309Y-45145644D01*
X11468335Y-45088054D01*
X11468337Y-45088052D01*
X11468342Y-45088050D01*
X11558050Y-44998342D01*
X11587777Y-44940000D01*
X11615644Y-44885309D01*
X11615644Y-44885307D01*
X11615646Y-44885304D01*
X11635492Y-44760000D01*
X11615646Y-44634696D01*
X11615644Y-44634692D01*
X11615644Y-44634690D01*
X11558054Y-44521664D01*
X11558049Y-44521657D01*
X11524850Y-44488458D01*
X11510498Y-44453810D01*
X11524850Y-44419162D01*
X11538521Y-44405491D01*
X11570548Y-44373464D01*
X11579708Y-44355487D01*
X11628142Y-44260431D01*
X11628142Y-44260429D01*
X11628144Y-44260426D01*
X11647990Y-44135122D01*
X11628144Y-44009818D01*
X11628142Y-44009814D01*
X11628142Y-44009812D01*
X11570552Y-43896786D01*
X11570547Y-43896779D01*
X11537916Y-43864148D01*
X11523564Y-43829500D01*
X11537916Y-43794852D01*
X11572564Y-43780500D01*
X14479583Y-43780500D01*
X14514231Y-43794852D01*
X14835785Y-44116406D01*
X14893594Y-44174215D01*
X14937838Y-44192541D01*
X14969123Y-44205500D01*
X14969124Y-44205500D01*
X17825189Y-44205500D01*
X17859837Y-44219852D01*
X17868846Y-44232250D01*
X17871950Y-44238342D01*
X17871953Y-44238345D01*
X17961657Y-44328049D01*
X17961664Y-44328054D01*
X18074691Y-44385644D01*
X18074692Y-44385644D01*
X18074696Y-44385646D01*
X18200000Y-44405492D01*
X18325304Y-44385646D01*
X18325308Y-44385644D01*
X18325309Y-44385644D01*
X18438335Y-44328054D01*
X18438337Y-44328052D01*
X18438342Y-44328050D01*
X18528050Y-44238342D01*
X18535003Y-44224696D01*
X18585644Y-44125309D01*
X18585644Y-44125307D01*
X18585646Y-44125304D01*
X18605492Y-44000000D01*
X18585646Y-43874696D01*
X18585644Y-43874692D01*
X18585644Y-43874690D01*
X18528054Y-43761664D01*
X18528049Y-43761657D01*
X18438342Y-43671950D01*
X18438335Y-43671945D01*
X18325308Y-43614355D01*
X18325305Y-43614354D01*
X18325304Y-43614354D01*
X18200000Y-43594508D01*
X18074696Y-43614354D01*
X18074694Y-43614354D01*
X18074692Y-43614355D01*
X18074690Y-43614355D01*
X17961664Y-43671945D01*
X17961657Y-43671950D01*
X17871953Y-43761654D01*
X17871951Y-43761657D01*
X17871950Y-43761658D01*
X17868847Y-43767747D01*
X17840330Y-43792102D01*
X17825189Y-43794500D01*
X16483897Y-43794500D01*
X16449249Y-43780148D01*
X16434897Y-43745500D01*
X16449249Y-43710852D01*
X16461651Y-43701841D01*
X16508337Y-43678053D01*
X16508338Y-43678051D01*
X16508342Y-43678050D01*
X16598050Y-43588342D01*
X16598054Y-43588335D01*
X16655644Y-43475309D01*
X16655644Y-43475307D01*
X16655646Y-43475304D01*
X16675492Y-43350000D01*
X16655646Y-43224696D01*
X16655644Y-43224692D01*
X16655644Y-43224690D01*
X16598054Y-43111664D01*
X16598049Y-43111657D01*
X16508342Y-43021950D01*
X16508335Y-43021945D01*
X16395308Y-42964355D01*
X16395305Y-42964354D01*
X16395304Y-42964354D01*
X16270000Y-42944508D01*
X16269999Y-42944508D01*
X16195493Y-42956308D01*
X16159026Y-42947552D01*
X16153180Y-42942559D01*
X16094769Y-42884148D01*
X16080417Y-42849500D01*
X16094769Y-42814852D01*
X16129417Y-42800500D01*
X19164583Y-42800500D01*
X19199231Y-42814852D01*
X19780059Y-43395680D01*
X19794411Y-43430328D01*
X19793808Y-43437993D01*
X19787898Y-43475309D01*
X19782008Y-43512500D01*
X19801854Y-43637804D01*
X19801854Y-43637805D01*
X19801855Y-43637807D01*
X19801855Y-43637809D01*
X19859445Y-43750835D01*
X19859450Y-43750842D01*
X19949157Y-43840549D01*
X19949164Y-43840554D01*
X20062191Y-43898144D01*
X20062192Y-43898144D01*
X20062196Y-43898146D01*
X20187500Y-43917992D01*
X20312804Y-43898146D01*
X20312808Y-43898144D01*
X20312809Y-43898144D01*
X20425835Y-43840554D01*
X20425837Y-43840552D01*
X20425842Y-43840550D01*
X20515550Y-43750842D01*
X20523293Y-43735646D01*
X20573144Y-43637809D01*
X20573144Y-43637807D01*
X20573146Y-43637804D01*
X20592992Y-43512500D01*
X20573146Y-43387196D01*
X20573144Y-43387192D01*
X20573144Y-43387190D01*
X20515554Y-43274164D01*
X20515549Y-43274157D01*
X20425842Y-43184450D01*
X20425835Y-43184445D01*
X20312808Y-43126855D01*
X20312805Y-43126854D01*
X20312804Y-43126854D01*
X20187500Y-43107008D01*
X20187499Y-43107008D01*
X20112993Y-43118808D01*
X20076526Y-43110052D01*
X20070680Y-43105059D01*
X19569769Y-42604148D01*
X19555417Y-42569500D01*
X19569769Y-42534852D01*
X19604417Y-42520500D01*
X21331855Y-42520500D01*
X21331857Y-42520500D01*
X21363142Y-42507541D01*
X21407386Y-42489215D01*
X21465195Y-42431406D01*
X22380456Y-41516143D01*
X22415104Y-41501792D01*
X22449752Y-41516144D01*
X22461657Y-41528049D01*
X22461664Y-41528054D01*
X22574691Y-41585644D01*
X22574692Y-41585644D01*
X22574696Y-41585646D01*
X22700000Y-41605492D01*
X22825304Y-41585646D01*
X22825308Y-41585644D01*
X22825309Y-41585644D01*
X22938335Y-41528054D01*
X22938337Y-41528052D01*
X22938342Y-41528050D01*
X23028050Y-41438342D01*
X23028054Y-41438335D01*
X23085644Y-41325309D01*
X23085644Y-41325307D01*
X23085646Y-41325304D01*
X23105492Y-41200000D01*
X23085646Y-41074696D01*
X23085644Y-41074692D01*
X23085644Y-41074690D01*
X23048477Y-41001745D01*
X23045534Y-40964358D01*
X23069891Y-40935841D01*
X23092136Y-40930500D01*
X24119583Y-40930500D01*
X24154231Y-40944852D01*
X24292559Y-41083180D01*
X24306911Y-41117828D01*
X24306308Y-41125493D01*
X24296354Y-41188342D01*
X24294508Y-41200000D01*
X24314354Y-41325304D01*
X24314354Y-41325305D01*
X24314355Y-41325307D01*
X24314355Y-41325309D01*
X24371945Y-41438335D01*
X24371950Y-41438342D01*
X24461657Y-41528049D01*
X24461664Y-41528054D01*
X24574691Y-41585644D01*
X24574692Y-41585644D01*
X24574696Y-41585646D01*
X24700000Y-41605492D01*
X24825304Y-41585646D01*
X24898254Y-41548476D01*
X24935642Y-41545533D01*
X24964159Y-41569889D01*
X24969500Y-41592135D01*
X24969500Y-43297355D01*
X24955148Y-43332003D01*
X24942746Y-43341014D01*
X24901661Y-43361948D01*
X24901654Y-43361953D01*
X24811950Y-43451657D01*
X24811945Y-43451664D01*
X24754355Y-43564690D01*
X24754355Y-43564692D01*
X24754354Y-43564694D01*
X24754354Y-43564696D01*
X24734508Y-43690000D01*
X24754354Y-43815304D01*
X24754354Y-43815305D01*
X24754355Y-43815307D01*
X24754355Y-43815309D01*
X24811945Y-43928335D01*
X24811950Y-43928342D01*
X24901657Y-44018049D01*
X24901664Y-44018054D01*
X25014691Y-44075644D01*
X25014692Y-44075644D01*
X25014696Y-44075646D01*
X25140000Y-44095492D01*
X25265304Y-44075646D01*
X25265308Y-44075644D01*
X25265309Y-44075644D01*
X25378335Y-44018054D01*
X25378337Y-44018052D01*
X25378342Y-44018050D01*
X25468050Y-43928342D01*
X25473324Y-43917992D01*
X25525644Y-43815309D01*
X25525644Y-43815307D01*
X25525646Y-43815304D01*
X25545492Y-43690000D01*
X25525646Y-43564696D01*
X25525644Y-43564692D01*
X25525644Y-43564690D01*
X25468054Y-43451664D01*
X25468049Y-43451657D01*
X25394852Y-43378460D01*
X25380500Y-43343812D01*
X25380500Y-40914124D01*
X25380499Y-40914120D01*
X25378821Y-40910069D01*
X25378818Y-40910065D01*
X25364498Y-40875493D01*
X25363031Y-40871950D01*
X25349215Y-40838594D01*
X25291406Y-40780785D01*
X24794769Y-40284148D01*
X24780417Y-40249500D01*
X24794769Y-40214852D01*
X24829417Y-40200500D01*
X31550500Y-40200500D01*
X31585148Y-40214852D01*
G37*
G04 #@! TD.AperFunction*
G04 #@! TA.AperFunction,Conductor*
G36*
X10110225Y-40214852D02*
G01*
X10124577Y-40249500D01*
X10110225Y-40284148D01*
X10094329Y-40294769D01*
X10087838Y-40297458D01*
X10061920Y-40308193D01*
X10043593Y-40315785D01*
X10043593Y-40315786D01*
X9330287Y-41029091D01*
X9330282Y-41029099D01*
X9321418Y-41050501D01*
X9302661Y-41095785D01*
X9302661Y-41095786D01*
X9299000Y-41104622D01*
X9299000Y-41222895D01*
X9284648Y-41257543D01*
X9250000Y-41271895D01*
X9227755Y-41266554D01*
X9125308Y-41214355D01*
X9125305Y-41214354D01*
X9125304Y-41214354D01*
X9000000Y-41194508D01*
X8874696Y-41214354D01*
X8874694Y-41214354D01*
X8874692Y-41214355D01*
X8874690Y-41214355D01*
X8761664Y-41271945D01*
X8761657Y-41271950D01*
X8671950Y-41361657D01*
X8671945Y-41361664D01*
X8614355Y-41474690D01*
X8614355Y-41474692D01*
X8614354Y-41474694D01*
X8614354Y-41474696D01*
X8594508Y-41600000D01*
X8614354Y-41725304D01*
X8614354Y-41725305D01*
X8614355Y-41725306D01*
X8628659Y-41753379D01*
X8634000Y-41775625D01*
X8634000Y-41914812D01*
X8619648Y-41949460D01*
X8602399Y-41958690D01*
X8603036Y-41960227D01*
X8598576Y-41962073D01*
X8555412Y-41990914D01*
X8526572Y-42034077D01*
X8526571Y-42034080D01*
X8519000Y-42072147D01*
X8519000Y-42277850D01*
X8519001Y-42277854D01*
X8526571Y-42315919D01*
X8526572Y-42315920D01*
X8531155Y-42322781D01*
X8538468Y-42359564D01*
X8531155Y-42377219D01*
X8526571Y-42384079D01*
X8519000Y-42422147D01*
X8519000Y-42627850D01*
X8519001Y-42627854D01*
X8526571Y-42665919D01*
X8526572Y-42665920D01*
X8531155Y-42672781D01*
X8538468Y-42709564D01*
X8531155Y-42727219D01*
X8526571Y-42734079D01*
X8519000Y-42772147D01*
X8519000Y-42977850D01*
X8519001Y-42977854D01*
X8526571Y-43015919D01*
X8526572Y-43015920D01*
X8531155Y-43022781D01*
X8538468Y-43059564D01*
X8531155Y-43077219D01*
X8526571Y-43084079D01*
X8519000Y-43122147D01*
X8519000Y-43327850D01*
X8519001Y-43327854D01*
X8526571Y-43365919D01*
X8526572Y-43365920D01*
X8531155Y-43372781D01*
X8538468Y-43409564D01*
X8531155Y-43427219D01*
X8526571Y-43434079D01*
X8519000Y-43472147D01*
X8519000Y-43677850D01*
X8519001Y-43677854D01*
X8526571Y-43715919D01*
X8526572Y-43715920D01*
X8531155Y-43722781D01*
X8538468Y-43759564D01*
X8531155Y-43777219D01*
X8526571Y-43784079D01*
X8519000Y-43822147D01*
X8519000Y-44027850D01*
X8519001Y-44027854D01*
X8526571Y-44065919D01*
X8526572Y-44065920D01*
X8531155Y-44072781D01*
X8538468Y-44109564D01*
X8531155Y-44127219D01*
X8526571Y-44134079D01*
X8519000Y-44172147D01*
X8519000Y-44377850D01*
X8519001Y-44377854D01*
X8526571Y-44415919D01*
X8526572Y-44415920D01*
X8531155Y-44422781D01*
X8538468Y-44459564D01*
X8531155Y-44477219D01*
X8526571Y-44484079D01*
X8519000Y-44522147D01*
X8519000Y-44727850D01*
X8519001Y-44727854D01*
X8526571Y-44765919D01*
X8526572Y-44765920D01*
X8531155Y-44772781D01*
X8538468Y-44809564D01*
X8531155Y-44827219D01*
X8526571Y-44834079D01*
X8519000Y-44872147D01*
X8519000Y-45077850D01*
X8519001Y-45077854D01*
X8526571Y-45115919D01*
X8526573Y-45115923D01*
X8555414Y-45159087D01*
X8598577Y-45187927D01*
X8598579Y-45187927D01*
X8598581Y-45187929D01*
X8636645Y-45195500D01*
X9147354Y-45195499D01*
X9174639Y-45190072D01*
X9211417Y-45197389D01*
X9218842Y-45203483D01*
X9870148Y-45854789D01*
X9884500Y-45889437D01*
X9884500Y-46669127D01*
X9888796Y-46679494D01*
X9888797Y-46679500D01*
X9888798Y-46679500D01*
X9915785Y-46744654D01*
X9915786Y-46744655D01*
X10172537Y-47001406D01*
X10230346Y-47059215D01*
X10261092Y-47071950D01*
X10305875Y-47090500D01*
X10305876Y-47090500D01*
X10352335Y-47090500D01*
X10386983Y-47104852D01*
X10401335Y-47139500D01*
X10386983Y-47174148D01*
X10110983Y-47450148D01*
X10076335Y-47464500D01*
X9893665Y-47464500D01*
X9859017Y-47450148D01*
X9729852Y-47320983D01*
X9715500Y-47286335D01*
X9715500Y-45979126D01*
X9715499Y-45979122D01*
X9706090Y-45956407D01*
X9706090Y-45956406D01*
X9686286Y-45908594D01*
X9684215Y-45903594D01*
X9626406Y-45845785D01*
X9281407Y-45500786D01*
X9281406Y-45500785D01*
X9237162Y-45482458D01*
X9237161Y-45482457D01*
X9205877Y-45469500D01*
X9202133Y-45468755D01*
X9189960Y-45463712D01*
X9189876Y-45463917D01*
X9185422Y-45462072D01*
X9185419Y-45462071D01*
X9147355Y-45454500D01*
X9147352Y-45454500D01*
X8636649Y-45454500D01*
X8636648Y-45454500D01*
X8636646Y-45454501D01*
X8611269Y-45459547D01*
X8598580Y-45462071D01*
X8598576Y-45462073D01*
X8555412Y-45490914D01*
X8526572Y-45534077D01*
X8526571Y-45534080D01*
X8519000Y-45572147D01*
X8519000Y-45777850D01*
X8519001Y-45777854D01*
X8526571Y-45815919D01*
X8526572Y-45815920D01*
X8531155Y-45822781D01*
X8538468Y-45859564D01*
X8531155Y-45877219D01*
X8526571Y-45884079D01*
X8523670Y-45898663D01*
X8519855Y-45917845D01*
X8506445Y-45942933D01*
X8484148Y-45965230D01*
X8449500Y-45979582D01*
X8414852Y-45965230D01*
X8400500Y-45930582D01*
X8400500Y-40249500D01*
X8414852Y-40214852D01*
X8449500Y-40200500D01*
X10075577Y-40200500D01*
X10110225Y-40214852D01*
G37*
G04 #@! TD.AperFunction*
G04 #@! TA.AperFunction,Conductor*
G36*
X22239251Y-40214852D02*
G01*
X22253603Y-40249500D01*
X22239251Y-40284148D01*
X20988251Y-41535148D01*
X20953603Y-41549500D01*
X19077040Y-41549500D01*
X19042392Y-41535148D01*
X19028040Y-41500500D01*
X19033381Y-41478254D01*
X19053717Y-41438342D01*
X19075646Y-41395304D01*
X19095492Y-41270000D01*
X19075646Y-41144696D01*
X19075644Y-41144692D01*
X19075644Y-41144690D01*
X19018054Y-41031664D01*
X19018049Y-41031657D01*
X18928342Y-40941950D01*
X18928335Y-40941945D01*
X18815308Y-40884355D01*
X18815305Y-40884354D01*
X18815304Y-40884354D01*
X18690000Y-40864508D01*
X18564696Y-40884354D01*
X18564694Y-40884354D01*
X18564692Y-40884355D01*
X18564690Y-40884355D01*
X18451664Y-40941945D01*
X18451657Y-40941950D01*
X18361950Y-41031657D01*
X18361945Y-41031664D01*
X18304355Y-41144690D01*
X18304355Y-41144692D01*
X18304354Y-41144694D01*
X18304354Y-41144696D01*
X18293321Y-41214355D01*
X18291134Y-41228166D01*
X18271538Y-41260142D01*
X18242737Y-41269500D01*
X12337860Y-41269500D01*
X12303212Y-41255148D01*
X12301888Y-41253535D01*
X12276519Y-41228166D01*
X12241406Y-41193053D01*
X11827501Y-40779148D01*
X11813149Y-40744500D01*
X11827501Y-40709852D01*
X11862149Y-40695500D01*
X20144583Y-40695500D01*
X20179231Y-40709852D01*
X20302559Y-40833180D01*
X20316911Y-40867828D01*
X20316308Y-40875493D01*
X20305784Y-40941945D01*
X20304508Y-40950000D01*
X20324354Y-41075304D01*
X20324354Y-41075305D01*
X20324355Y-41075307D01*
X20324355Y-41075309D01*
X20381945Y-41188335D01*
X20381950Y-41188342D01*
X20471657Y-41278049D01*
X20471664Y-41278054D01*
X20584691Y-41335644D01*
X20584692Y-41335644D01*
X20584696Y-41335646D01*
X20710000Y-41355492D01*
X20835304Y-41335646D01*
X20835308Y-41335644D01*
X20835309Y-41335644D01*
X20948335Y-41278054D01*
X20948337Y-41278052D01*
X20948342Y-41278050D01*
X21038050Y-41188342D01*
X21060292Y-41144690D01*
X21095644Y-41075309D01*
X21095644Y-41075307D01*
X21095646Y-41075304D01*
X21115492Y-40950000D01*
X21095646Y-40824696D01*
X21095644Y-40824692D01*
X21095644Y-40824690D01*
X21038054Y-40711664D01*
X21038049Y-40711657D01*
X20948342Y-40621950D01*
X20948335Y-40621945D01*
X20835308Y-40564355D01*
X20835305Y-40564354D01*
X20835304Y-40564354D01*
X20710000Y-40544508D01*
X20709999Y-40544508D01*
X20635493Y-40556308D01*
X20599026Y-40547552D01*
X20593180Y-40542559D01*
X20366406Y-40315785D01*
X20322162Y-40297458D01*
X20315671Y-40294769D01*
X20289154Y-40268253D01*
X20289152Y-40230750D01*
X20315670Y-40204231D01*
X20334423Y-40200500D01*
X22204603Y-40200500D01*
X22239251Y-40214852D01*
G37*
G04 #@! TD.AperFunction*
G04 #@! TD*
G04 #@! TA.AperFunction,Conductor*
G04 #@! TO.N,Board_0-GND*
G36*
X31585148Y-8414852D02*
G01*
X31599500Y-8449500D01*
X31599500Y-16150500D01*
X31585148Y-16185148D01*
X31550500Y-16199500D01*
X11425188Y-16199500D01*
X11390540Y-16185148D01*
X11376188Y-16150500D01*
X11390540Y-16115852D01*
X11428050Y-16078342D01*
X11428054Y-16078335D01*
X11485644Y-15965309D01*
X11485644Y-15965307D01*
X11485646Y-15965304D01*
X11497282Y-15891833D01*
X11516878Y-15859858D01*
X11545679Y-15850500D01*
X12257835Y-15850500D01*
X12257837Y-15850500D01*
X12289122Y-15837541D01*
X12333366Y-15819215D01*
X12391175Y-15761406D01*
X12637729Y-15514852D01*
X12672377Y-15500500D01*
X26413812Y-15500500D01*
X26448460Y-15514852D01*
X26461657Y-15528049D01*
X26461664Y-15528054D01*
X26574691Y-15585644D01*
X26574692Y-15585644D01*
X26574696Y-15585646D01*
X26700000Y-15605492D01*
X26825304Y-15585646D01*
X26825308Y-15585644D01*
X26825309Y-15585644D01*
X26938335Y-15528054D01*
X26938337Y-15528052D01*
X26938342Y-15528050D01*
X27028050Y-15438342D01*
X27028054Y-15438335D01*
X27085644Y-15325309D01*
X27085644Y-15325307D01*
X27085646Y-15325304D01*
X27105492Y-15200000D01*
X27085646Y-15074696D01*
X27085644Y-15074692D01*
X27085644Y-15074690D01*
X27028054Y-14961664D01*
X27028049Y-14961657D01*
X26938342Y-14871950D01*
X26938335Y-14871945D01*
X26825308Y-14814355D01*
X26825305Y-14814354D01*
X26825304Y-14814354D01*
X26700000Y-14794508D01*
X26574696Y-14814354D01*
X26574694Y-14814354D01*
X26574692Y-14814355D01*
X26574690Y-14814355D01*
X26461664Y-14871945D01*
X26461657Y-14871950D01*
X26371950Y-14961657D01*
X26371945Y-14961664D01*
X26320443Y-15062745D01*
X26291926Y-15087102D01*
X26276784Y-15089500D01*
X26025188Y-15089500D01*
X25990540Y-15075148D01*
X25976188Y-15040500D01*
X25990540Y-15005852D01*
X26048050Y-14948342D01*
X26049929Y-14944655D01*
X26105644Y-14835309D01*
X26105644Y-14835307D01*
X26105646Y-14835304D01*
X26125492Y-14710000D01*
X26105646Y-14584696D01*
X26105644Y-14584692D01*
X26105644Y-14584690D01*
X26048054Y-14471664D01*
X26048049Y-14471657D01*
X25958342Y-14381950D01*
X25958335Y-14381945D01*
X25845308Y-14324355D01*
X25845305Y-14324354D01*
X25845304Y-14324354D01*
X25720000Y-14304508D01*
X25594696Y-14324354D01*
X25594694Y-14324354D01*
X25594692Y-14324355D01*
X25594690Y-14324355D01*
X25481664Y-14381945D01*
X25481657Y-14381950D01*
X25391950Y-14471657D01*
X25391945Y-14471664D01*
X25334355Y-14584690D01*
X25334355Y-14584692D01*
X25334354Y-14584694D01*
X25334354Y-14584696D01*
X25314508Y-14710000D01*
X25321292Y-14752835D01*
X25312538Y-14789301D01*
X25280562Y-14808897D01*
X25272896Y-14809500D01*
X23082136Y-14809500D01*
X23047488Y-14795148D01*
X23033136Y-14760500D01*
X23038477Y-14738255D01*
X23075644Y-14665309D01*
X23075644Y-14665307D01*
X23075646Y-14665304D01*
X23095492Y-14540000D01*
X23075646Y-14414696D01*
X23075644Y-14414692D01*
X23075644Y-14414690D01*
X23018054Y-14301664D01*
X23018049Y-14301657D01*
X22928342Y-14211950D01*
X22928335Y-14211945D01*
X22815308Y-14154355D01*
X22815305Y-14154354D01*
X22815304Y-14154354D01*
X22690000Y-14134508D01*
X22564696Y-14154354D01*
X22564694Y-14154354D01*
X22564692Y-14154355D01*
X22564690Y-14154355D01*
X22451664Y-14211945D01*
X22451657Y-14211950D01*
X22361950Y-14301657D01*
X22361945Y-14301664D01*
X22304355Y-14414690D01*
X22304355Y-14414692D01*
X22304354Y-14414694D01*
X22304354Y-14414696D01*
X22293268Y-14484696D01*
X22292718Y-14488166D01*
X22273122Y-14520142D01*
X22244321Y-14529500D01*
X12294121Y-14529500D01*
X12274812Y-14537499D01*
X12218593Y-14560785D01*
X12218593Y-14560786D01*
X12128813Y-14650565D01*
X12094165Y-14664917D01*
X12059517Y-14650565D01*
X12045165Y-14615917D01*
X12045492Y-14611767D01*
X12045492Y-14610001D01*
X12041484Y-14584696D01*
X12025646Y-14484696D01*
X12025644Y-14484692D01*
X12025644Y-14484690D01*
X11968054Y-14371664D01*
X11968049Y-14371657D01*
X11881144Y-14284752D01*
X11866792Y-14250104D01*
X11881144Y-14215456D01*
X11882384Y-14214215D01*
X11882386Y-14214215D01*
X11940195Y-14156406D01*
X11940195Y-14156405D01*
X12611748Y-13484852D01*
X12646396Y-13470500D01*
X26659583Y-13470500D01*
X26694231Y-13484852D01*
X28292559Y-15083180D01*
X28306911Y-15117828D01*
X28306308Y-15125493D01*
X28294508Y-15199999D01*
X28294508Y-15200000D01*
X28314354Y-15325304D01*
X28314354Y-15325305D01*
X28314355Y-15325307D01*
X28314355Y-15325309D01*
X28371945Y-15438335D01*
X28371950Y-15438342D01*
X28461657Y-15528049D01*
X28461664Y-15528054D01*
X28574691Y-15585644D01*
X28574692Y-15585644D01*
X28574696Y-15585646D01*
X28700000Y-15605492D01*
X28825304Y-15585646D01*
X28825308Y-15585644D01*
X28825309Y-15585644D01*
X28938335Y-15528054D01*
X28938337Y-15528052D01*
X28938342Y-15528050D01*
X29028050Y-15438342D01*
X29028054Y-15438335D01*
X29085644Y-15325309D01*
X29085644Y-15325307D01*
X29085646Y-15325304D01*
X29105492Y-15200000D01*
X29085646Y-15074696D01*
X29085644Y-15074692D01*
X29085644Y-15074690D01*
X29028054Y-14961664D01*
X29028049Y-14961657D01*
X28938342Y-14871950D01*
X28938335Y-14871945D01*
X28825308Y-14814355D01*
X28825305Y-14814354D01*
X28825304Y-14814354D01*
X28700000Y-14794508D01*
X28699999Y-14794508D01*
X28625493Y-14806308D01*
X28589026Y-14797552D01*
X28583180Y-14792559D01*
X26965269Y-13174648D01*
X26950917Y-13140000D01*
X26965269Y-13105352D01*
X28874214Y-11196407D01*
X28874215Y-11196406D01*
X28892541Y-11152162D01*
X28905500Y-11120877D01*
X28905500Y-11039123D01*
X28905500Y-9774811D01*
X28919852Y-9740163D01*
X28932253Y-9731152D01*
X28938342Y-9728050D01*
X29028050Y-9638342D01*
X29028054Y-9638335D01*
X29085644Y-9525309D01*
X29085644Y-9525307D01*
X29085646Y-9525304D01*
X29105492Y-9400000D01*
X29085646Y-9274696D01*
X29085644Y-9274692D01*
X29085644Y-9274690D01*
X29028054Y-9161664D01*
X29028049Y-9161657D01*
X28938342Y-9071950D01*
X28938335Y-9071945D01*
X28825308Y-9014355D01*
X28825305Y-9014354D01*
X28825304Y-9014354D01*
X28700000Y-8994508D01*
X28574696Y-9014354D01*
X28574694Y-9014354D01*
X28574692Y-9014355D01*
X28574690Y-9014355D01*
X28461664Y-9071945D01*
X28461657Y-9071950D01*
X28371950Y-9161657D01*
X28371945Y-9161664D01*
X28314355Y-9274690D01*
X28314355Y-9274692D01*
X28314354Y-9274694D01*
X28314354Y-9274696D01*
X28294508Y-9400000D01*
X28314354Y-9525304D01*
X28314354Y-9525305D01*
X28314355Y-9525307D01*
X28314355Y-9525309D01*
X28371945Y-9638335D01*
X28371950Y-9638342D01*
X28461658Y-9728050D01*
X28467745Y-9731151D01*
X28492102Y-9759668D01*
X28494500Y-9774811D01*
X28494500Y-10974583D01*
X28480148Y-11009231D01*
X26724231Y-12765148D01*
X26689583Y-12779500D01*
X12384121Y-12779500D01*
X12372960Y-12784124D01*
X12308593Y-12810785D01*
X12288692Y-12830687D01*
X12250785Y-12868594D01*
X11579231Y-13540148D01*
X11544583Y-13554500D01*
X11189603Y-13554500D01*
X11167481Y-13563662D01*
X11167481Y-13563663D01*
X11140777Y-13574724D01*
X11114073Y-13585785D01*
X11085169Y-13614689D01*
X11056265Y-13643594D01*
X11056264Y-13643595D01*
X11056260Y-13643598D01*
X11049990Y-13649867D01*
X11044282Y-13652230D01*
X11043530Y-13652773D01*
X11043528Y-13652774D01*
X11043432Y-13652582D01*
X11015341Y-13664216D01*
X11005310Y-13662221D01*
X11005153Y-13663013D01*
X11000419Y-13662071D01*
X10962355Y-13654500D01*
X10962352Y-13654500D01*
X10451649Y-13654500D01*
X10451648Y-13654500D01*
X10451646Y-13654501D01*
X10426269Y-13659547D01*
X10413580Y-13662071D01*
X10413576Y-13662073D01*
X10370412Y-13690914D01*
X10341572Y-13734077D01*
X10341571Y-13734080D01*
X10341571Y-13734081D01*
X10334000Y-13772145D01*
X10334000Y-13772147D01*
X10334000Y-13772148D01*
X10334000Y-13819102D01*
X10319648Y-13853750D01*
X10285000Y-13868102D01*
X10250352Y-13853751D01*
X10250351Y-13853750D01*
X10206406Y-13809805D01*
X9510749Y-13114148D01*
X9496397Y-13079500D01*
X9510749Y-13044852D01*
X9545397Y-13030500D01*
X9695875Y-13030500D01*
X9695877Y-13030500D01*
X9727162Y-13017541D01*
X9771406Y-12999215D01*
X9813181Y-12957439D01*
X9847828Y-12943088D01*
X9855494Y-12943691D01*
X9869650Y-12945933D01*
X9930000Y-12955492D01*
X10055304Y-12935646D01*
X10055308Y-12935644D01*
X10055309Y-12935644D01*
X10168335Y-12878054D01*
X10168337Y-12878052D01*
X10168342Y-12878050D01*
X10250353Y-12796038D01*
X10285000Y-12781687D01*
X10319648Y-12796039D01*
X10334000Y-12830687D01*
X10334000Y-12927850D01*
X10334001Y-12927854D01*
X10341571Y-12965919D01*
X10341572Y-12965920D01*
X10346155Y-12972781D01*
X10353468Y-13009564D01*
X10346155Y-13027219D01*
X10341571Y-13034079D01*
X10334000Y-13072147D01*
X10334000Y-13277850D01*
X10334001Y-13277854D01*
X10341571Y-13315919D01*
X10341573Y-13315923D01*
X10370414Y-13359087D01*
X10413577Y-13387927D01*
X10413579Y-13387927D01*
X10413581Y-13387929D01*
X10451645Y-13395500D01*
X10627259Y-13395499D01*
X10646010Y-13399229D01*
X10661146Y-13405498D01*
X10661151Y-13405500D01*
X10661153Y-13405500D01*
X10752847Y-13405500D01*
X10752849Y-13405500D01*
X10767988Y-13399228D01*
X10786740Y-13395499D01*
X10962351Y-13395499D01*
X10962354Y-13395499D01*
X11000419Y-13387929D01*
X11043586Y-13359086D01*
X11043588Y-13359082D01*
X11046996Y-13355675D01*
X11048657Y-13357335D01*
X11072768Y-13341204D01*
X11100820Y-13345078D01*
X11101024Y-13344453D01*
X11104524Y-13345590D01*
X11104609Y-13345601D01*
X11104696Y-13345646D01*
X11230000Y-13365492D01*
X11355304Y-13345646D01*
X11355308Y-13345644D01*
X11355309Y-13345644D01*
X11468335Y-13288054D01*
X11468337Y-13288052D01*
X11468342Y-13288050D01*
X11558050Y-13198342D01*
X11587777Y-13140000D01*
X11615644Y-13085309D01*
X11615644Y-13085307D01*
X11615646Y-13085304D01*
X11635492Y-12960000D01*
X11615646Y-12834696D01*
X11615644Y-12834692D01*
X11615644Y-12834690D01*
X11558054Y-12721664D01*
X11558049Y-12721657D01*
X11524850Y-12688458D01*
X11510498Y-12653810D01*
X11524850Y-12619162D01*
X11538521Y-12605491D01*
X11570548Y-12573464D01*
X11579708Y-12555487D01*
X11628142Y-12460431D01*
X11628142Y-12460429D01*
X11628144Y-12460426D01*
X11647990Y-12335122D01*
X11628144Y-12209818D01*
X11628142Y-12209814D01*
X11628142Y-12209812D01*
X11570552Y-12096786D01*
X11570547Y-12096779D01*
X11537916Y-12064148D01*
X11523564Y-12029500D01*
X11537916Y-11994852D01*
X11572564Y-11980500D01*
X14479583Y-11980500D01*
X14514231Y-11994852D01*
X14835785Y-12316406D01*
X14893594Y-12374215D01*
X14937838Y-12392541D01*
X14969123Y-12405500D01*
X14969124Y-12405500D01*
X17825189Y-12405500D01*
X17859837Y-12419852D01*
X17868846Y-12432250D01*
X17871950Y-12438342D01*
X17871953Y-12438345D01*
X17961657Y-12528049D01*
X17961664Y-12528054D01*
X18074691Y-12585644D01*
X18074692Y-12585644D01*
X18074696Y-12585646D01*
X18200000Y-12605492D01*
X18325304Y-12585646D01*
X18325308Y-12585644D01*
X18325309Y-12585644D01*
X18438335Y-12528054D01*
X18438337Y-12528052D01*
X18438342Y-12528050D01*
X18528050Y-12438342D01*
X18535003Y-12424696D01*
X18585644Y-12325309D01*
X18585644Y-12325307D01*
X18585646Y-12325304D01*
X18605492Y-12200000D01*
X18585646Y-12074696D01*
X18585644Y-12074692D01*
X18585644Y-12074690D01*
X18528054Y-11961664D01*
X18528049Y-11961657D01*
X18438342Y-11871950D01*
X18438335Y-11871945D01*
X18325308Y-11814355D01*
X18325305Y-11814354D01*
X18325304Y-11814354D01*
X18200000Y-11794508D01*
X18074696Y-11814354D01*
X18074694Y-11814354D01*
X18074692Y-11814355D01*
X18074690Y-11814355D01*
X17961664Y-11871945D01*
X17961657Y-11871950D01*
X17871953Y-11961654D01*
X17871951Y-11961657D01*
X17871950Y-11961658D01*
X17868847Y-11967747D01*
X17840330Y-11992102D01*
X17825189Y-11994500D01*
X16483897Y-11994500D01*
X16449249Y-11980148D01*
X16434897Y-11945500D01*
X16449249Y-11910852D01*
X16461651Y-11901841D01*
X16508337Y-11878053D01*
X16508338Y-11878051D01*
X16508342Y-11878050D01*
X16598050Y-11788342D01*
X16598054Y-11788335D01*
X16655644Y-11675309D01*
X16655644Y-11675307D01*
X16655646Y-11675304D01*
X16675492Y-11550000D01*
X16655646Y-11424696D01*
X16655644Y-11424692D01*
X16655644Y-11424690D01*
X16598054Y-11311664D01*
X16598049Y-11311657D01*
X16508342Y-11221950D01*
X16508335Y-11221945D01*
X16395308Y-11164355D01*
X16395305Y-11164354D01*
X16395304Y-11164354D01*
X16270000Y-11144508D01*
X16269999Y-11144508D01*
X16195493Y-11156308D01*
X16159026Y-11147552D01*
X16153180Y-11142559D01*
X16094769Y-11084148D01*
X16080417Y-11049500D01*
X16094769Y-11014852D01*
X16129417Y-11000500D01*
X19164583Y-11000500D01*
X19199231Y-11014852D01*
X19780059Y-11595680D01*
X19794411Y-11630328D01*
X19793808Y-11637993D01*
X19787898Y-11675309D01*
X19782008Y-11712500D01*
X19801854Y-11837804D01*
X19801854Y-11837805D01*
X19801855Y-11837807D01*
X19801855Y-11837809D01*
X19859445Y-11950835D01*
X19859450Y-11950842D01*
X19949157Y-12040549D01*
X19949164Y-12040554D01*
X20062191Y-12098144D01*
X20062192Y-12098144D01*
X20062196Y-12098146D01*
X20187500Y-12117992D01*
X20312804Y-12098146D01*
X20312808Y-12098144D01*
X20312809Y-12098144D01*
X20425835Y-12040554D01*
X20425837Y-12040552D01*
X20425842Y-12040550D01*
X20515550Y-11950842D01*
X20523293Y-11935646D01*
X20573144Y-11837809D01*
X20573144Y-11837807D01*
X20573146Y-11837804D01*
X20592992Y-11712500D01*
X20573146Y-11587196D01*
X20573144Y-11587192D01*
X20573144Y-11587190D01*
X20515554Y-11474164D01*
X20515549Y-11474157D01*
X20425842Y-11384450D01*
X20425835Y-11384445D01*
X20312808Y-11326855D01*
X20312805Y-11326854D01*
X20312804Y-11326854D01*
X20187500Y-11307008D01*
X20187499Y-11307008D01*
X20112993Y-11318808D01*
X20076526Y-11310052D01*
X20070680Y-11305059D01*
X19569769Y-10804148D01*
X19555417Y-10769500D01*
X19569769Y-10734852D01*
X19604417Y-10720500D01*
X21331855Y-10720500D01*
X21331857Y-10720500D01*
X21363142Y-10707541D01*
X21407386Y-10689215D01*
X21465195Y-10631406D01*
X22380456Y-9716143D01*
X22415104Y-9701792D01*
X22449752Y-9716144D01*
X22461657Y-9728049D01*
X22461664Y-9728054D01*
X22574691Y-9785644D01*
X22574692Y-9785644D01*
X22574696Y-9785646D01*
X22700000Y-9805492D01*
X22825304Y-9785646D01*
X22825308Y-9785644D01*
X22825309Y-9785644D01*
X22938335Y-9728054D01*
X22938337Y-9728052D01*
X22938342Y-9728050D01*
X23028050Y-9638342D01*
X23028054Y-9638335D01*
X23085644Y-9525309D01*
X23085644Y-9525307D01*
X23085646Y-9525304D01*
X23105492Y-9400000D01*
X23085646Y-9274696D01*
X23085644Y-9274692D01*
X23085644Y-9274690D01*
X23048477Y-9201745D01*
X23045534Y-9164358D01*
X23069891Y-9135841D01*
X23092136Y-9130500D01*
X24119583Y-9130500D01*
X24154231Y-9144852D01*
X24292559Y-9283180D01*
X24306911Y-9317828D01*
X24306308Y-9325493D01*
X24296354Y-9388342D01*
X24294508Y-9400000D01*
X24314354Y-9525304D01*
X24314354Y-9525305D01*
X24314355Y-9525307D01*
X24314355Y-9525309D01*
X24371945Y-9638335D01*
X24371950Y-9638342D01*
X24461657Y-9728049D01*
X24461664Y-9728054D01*
X24574691Y-9785644D01*
X24574692Y-9785644D01*
X24574696Y-9785646D01*
X24700000Y-9805492D01*
X24825304Y-9785646D01*
X24898254Y-9748476D01*
X24935642Y-9745533D01*
X24964159Y-9769889D01*
X24969500Y-9792135D01*
X24969500Y-11497355D01*
X24955148Y-11532003D01*
X24942746Y-11541014D01*
X24901661Y-11561948D01*
X24901654Y-11561953D01*
X24811950Y-11651657D01*
X24811945Y-11651664D01*
X24754355Y-11764690D01*
X24754355Y-11764692D01*
X24754354Y-11764694D01*
X24754354Y-11764696D01*
X24734508Y-11890000D01*
X24754354Y-12015304D01*
X24754354Y-12015305D01*
X24754355Y-12015307D01*
X24754355Y-12015309D01*
X24811945Y-12128335D01*
X24811950Y-12128342D01*
X24901657Y-12218049D01*
X24901664Y-12218054D01*
X25014691Y-12275644D01*
X25014692Y-12275644D01*
X25014696Y-12275646D01*
X25140000Y-12295492D01*
X25265304Y-12275646D01*
X25265308Y-12275644D01*
X25265309Y-12275644D01*
X25378335Y-12218054D01*
X25378337Y-12218052D01*
X25378342Y-12218050D01*
X25468050Y-12128342D01*
X25473324Y-12117992D01*
X25525644Y-12015309D01*
X25525644Y-12015307D01*
X25525646Y-12015304D01*
X25545492Y-11890000D01*
X25525646Y-11764696D01*
X25525644Y-11764692D01*
X25525644Y-11764690D01*
X25468054Y-11651664D01*
X25468049Y-11651657D01*
X25394852Y-11578460D01*
X25380500Y-11543812D01*
X25380500Y-9114124D01*
X25380499Y-9114120D01*
X25378821Y-9110069D01*
X25378818Y-9110065D01*
X25364498Y-9075493D01*
X25363031Y-9071950D01*
X25349215Y-9038594D01*
X25291406Y-8980785D01*
X24794769Y-8484148D01*
X24780417Y-8449500D01*
X24794769Y-8414852D01*
X24829417Y-8400500D01*
X31550500Y-8400500D01*
X31585148Y-8414852D01*
G37*
G04 #@! TD.AperFunction*
G04 #@! TA.AperFunction,Conductor*
G36*
X10110225Y-8414852D02*
G01*
X10124577Y-8449500D01*
X10110225Y-8484148D01*
X10094329Y-8494769D01*
X10087838Y-8497458D01*
X10061920Y-8508193D01*
X10043593Y-8515785D01*
X10043593Y-8515786D01*
X9330287Y-9229091D01*
X9330282Y-9229099D01*
X9321418Y-9250501D01*
X9302661Y-9295785D01*
X9302661Y-9295786D01*
X9299000Y-9304622D01*
X9299000Y-9422895D01*
X9284648Y-9457543D01*
X9250000Y-9471895D01*
X9227755Y-9466554D01*
X9125308Y-9414355D01*
X9125305Y-9414354D01*
X9125304Y-9414354D01*
X9000000Y-9394508D01*
X8874696Y-9414354D01*
X8874694Y-9414354D01*
X8874692Y-9414355D01*
X8874690Y-9414355D01*
X8761664Y-9471945D01*
X8761657Y-9471950D01*
X8671950Y-9561657D01*
X8671945Y-9561664D01*
X8614355Y-9674690D01*
X8614355Y-9674692D01*
X8614354Y-9674694D01*
X8614354Y-9674696D01*
X8594508Y-9800000D01*
X8614354Y-9925304D01*
X8614354Y-9925305D01*
X8614355Y-9925306D01*
X8628659Y-9953379D01*
X8634000Y-9975625D01*
X8634000Y-10114812D01*
X8619648Y-10149460D01*
X8602399Y-10158690D01*
X8603036Y-10160227D01*
X8598576Y-10162073D01*
X8555412Y-10190914D01*
X8526572Y-10234077D01*
X8526571Y-10234080D01*
X8519000Y-10272147D01*
X8519000Y-10477850D01*
X8519001Y-10477854D01*
X8526571Y-10515919D01*
X8526572Y-10515920D01*
X8531155Y-10522781D01*
X8538468Y-10559564D01*
X8531155Y-10577219D01*
X8526571Y-10584079D01*
X8519000Y-10622147D01*
X8519000Y-10827850D01*
X8519001Y-10827854D01*
X8526571Y-10865919D01*
X8526572Y-10865920D01*
X8531155Y-10872781D01*
X8538468Y-10909564D01*
X8531155Y-10927219D01*
X8526571Y-10934079D01*
X8519000Y-10972147D01*
X8519000Y-11177850D01*
X8519001Y-11177854D01*
X8526571Y-11215919D01*
X8526572Y-11215920D01*
X8531155Y-11222781D01*
X8538468Y-11259564D01*
X8531155Y-11277219D01*
X8526571Y-11284079D01*
X8519000Y-11322147D01*
X8519000Y-11527850D01*
X8519001Y-11527854D01*
X8526571Y-11565919D01*
X8526572Y-11565920D01*
X8531155Y-11572781D01*
X8538468Y-11609564D01*
X8531155Y-11627219D01*
X8526571Y-11634079D01*
X8519000Y-11672147D01*
X8519000Y-11877850D01*
X8519001Y-11877854D01*
X8526571Y-11915919D01*
X8526572Y-11915920D01*
X8531155Y-11922781D01*
X8538468Y-11959564D01*
X8531155Y-11977219D01*
X8526571Y-11984079D01*
X8519000Y-12022147D01*
X8519000Y-12227850D01*
X8519001Y-12227854D01*
X8526571Y-12265919D01*
X8526572Y-12265920D01*
X8531155Y-12272781D01*
X8538468Y-12309564D01*
X8531155Y-12327219D01*
X8526571Y-12334079D01*
X8519000Y-12372147D01*
X8519000Y-12577850D01*
X8519001Y-12577854D01*
X8526571Y-12615919D01*
X8526572Y-12615920D01*
X8531155Y-12622781D01*
X8538468Y-12659564D01*
X8531155Y-12677219D01*
X8526571Y-12684079D01*
X8519000Y-12722147D01*
X8519000Y-12927850D01*
X8519001Y-12927854D01*
X8526571Y-12965919D01*
X8526572Y-12965920D01*
X8531155Y-12972781D01*
X8538468Y-13009564D01*
X8531155Y-13027219D01*
X8526571Y-13034079D01*
X8519000Y-13072147D01*
X8519000Y-13277850D01*
X8519001Y-13277854D01*
X8526571Y-13315919D01*
X8526573Y-13315923D01*
X8555414Y-13359087D01*
X8598577Y-13387927D01*
X8598579Y-13387927D01*
X8598581Y-13387929D01*
X8636645Y-13395500D01*
X9147354Y-13395499D01*
X9174639Y-13390072D01*
X9211417Y-13397389D01*
X9218842Y-13403483D01*
X9870148Y-14054789D01*
X9884500Y-14089437D01*
X9884500Y-14869127D01*
X9888796Y-14879494D01*
X9888797Y-14879500D01*
X9888798Y-14879500D01*
X9915785Y-14944654D01*
X9915786Y-14944655D01*
X10172537Y-15201406D01*
X10230346Y-15259215D01*
X10261092Y-15271950D01*
X10305875Y-15290500D01*
X10305876Y-15290500D01*
X10352335Y-15290500D01*
X10386983Y-15304852D01*
X10401335Y-15339500D01*
X10386983Y-15374148D01*
X10110983Y-15650148D01*
X10076335Y-15664500D01*
X9893665Y-15664500D01*
X9859017Y-15650148D01*
X9729852Y-15520983D01*
X9715500Y-15486335D01*
X9715500Y-14179126D01*
X9715499Y-14179122D01*
X9706090Y-14156407D01*
X9706090Y-14156406D01*
X9686286Y-14108594D01*
X9684215Y-14103594D01*
X9626406Y-14045785D01*
X9281407Y-13700786D01*
X9281406Y-13700785D01*
X9237162Y-13682458D01*
X9237161Y-13682457D01*
X9205877Y-13669500D01*
X9202133Y-13668755D01*
X9189960Y-13663712D01*
X9189876Y-13663917D01*
X9185422Y-13662072D01*
X9185419Y-13662071D01*
X9147355Y-13654500D01*
X9147352Y-13654500D01*
X8636649Y-13654500D01*
X8636648Y-13654500D01*
X8636646Y-13654501D01*
X8611269Y-13659547D01*
X8598580Y-13662071D01*
X8598576Y-13662073D01*
X8555412Y-13690914D01*
X8526572Y-13734077D01*
X8526571Y-13734080D01*
X8519000Y-13772147D01*
X8519000Y-13977850D01*
X8519001Y-13977854D01*
X8526571Y-14015919D01*
X8526572Y-14015920D01*
X8531155Y-14022781D01*
X8538468Y-14059564D01*
X8531155Y-14077219D01*
X8526571Y-14084079D01*
X8523670Y-14098663D01*
X8519855Y-14117845D01*
X8506445Y-14142933D01*
X8484148Y-14165230D01*
X8449500Y-14179582D01*
X8414852Y-14165230D01*
X8400500Y-14130582D01*
X8400500Y-8449500D01*
X8414852Y-8414852D01*
X8449500Y-8400500D01*
X10075577Y-8400500D01*
X10110225Y-8414852D01*
G37*
G04 #@! TD.AperFunction*
G04 #@! TA.AperFunction,Conductor*
G36*
X22239251Y-8414852D02*
G01*
X22253603Y-8449500D01*
X22239251Y-8484148D01*
X20988251Y-9735148D01*
X20953603Y-9749500D01*
X19077040Y-9749500D01*
X19042392Y-9735148D01*
X19028040Y-9700500D01*
X19033381Y-9678254D01*
X19053717Y-9638342D01*
X19075646Y-9595304D01*
X19095492Y-9470000D01*
X19075646Y-9344696D01*
X19075644Y-9344692D01*
X19075644Y-9344690D01*
X19018054Y-9231664D01*
X19018049Y-9231657D01*
X18928342Y-9141950D01*
X18928335Y-9141945D01*
X18815308Y-9084355D01*
X18815305Y-9084354D01*
X18815304Y-9084354D01*
X18690000Y-9064508D01*
X18564696Y-9084354D01*
X18564694Y-9084354D01*
X18564692Y-9084355D01*
X18564690Y-9084355D01*
X18451664Y-9141945D01*
X18451657Y-9141950D01*
X18361950Y-9231657D01*
X18361945Y-9231664D01*
X18304355Y-9344690D01*
X18304355Y-9344692D01*
X18304354Y-9344694D01*
X18304354Y-9344696D01*
X18293321Y-9414355D01*
X18291134Y-9428166D01*
X18271538Y-9460142D01*
X18242737Y-9469500D01*
X12337860Y-9469500D01*
X12303212Y-9455148D01*
X12301888Y-9453535D01*
X12276519Y-9428166D01*
X12241406Y-9393053D01*
X11827501Y-8979148D01*
X11813149Y-8944500D01*
X11827501Y-8909852D01*
X11862149Y-8895500D01*
X20144583Y-8895500D01*
X20179231Y-8909852D01*
X20302559Y-9033180D01*
X20316911Y-9067828D01*
X20316308Y-9075493D01*
X20305784Y-9141945D01*
X20304508Y-9150000D01*
X20324354Y-9275304D01*
X20324354Y-9275305D01*
X20324355Y-9275307D01*
X20324355Y-9275309D01*
X20381945Y-9388335D01*
X20381950Y-9388342D01*
X20471657Y-9478049D01*
X20471664Y-9478054D01*
X20584691Y-9535644D01*
X20584692Y-9535644D01*
X20584696Y-9535646D01*
X20710000Y-9555492D01*
X20835304Y-9535646D01*
X20835308Y-9535644D01*
X20835309Y-9535644D01*
X20948335Y-9478054D01*
X20948337Y-9478052D01*
X20948342Y-9478050D01*
X21038050Y-9388342D01*
X21060292Y-9344690D01*
X21095644Y-9275309D01*
X21095644Y-9275307D01*
X21095646Y-9275304D01*
X21115492Y-9150000D01*
X21095646Y-9024696D01*
X21095644Y-9024692D01*
X21095644Y-9024690D01*
X21038054Y-8911664D01*
X21038049Y-8911657D01*
X20948342Y-8821950D01*
X20948335Y-8821945D01*
X20835308Y-8764355D01*
X20835305Y-8764354D01*
X20835304Y-8764354D01*
X20710000Y-8744508D01*
X20709999Y-8744508D01*
X20635493Y-8756308D01*
X20599026Y-8747552D01*
X20593180Y-8742559D01*
X20366406Y-8515785D01*
X20322162Y-8497458D01*
X20315671Y-8494769D01*
X20289154Y-8468253D01*
X20289152Y-8430750D01*
X20315670Y-8404231D01*
X20334423Y-8400500D01*
X22204603Y-8400500D01*
X22239251Y-8414852D01*
G37*
G04 #@! TD.AperFunction*
G04 #@! TD*
G04 #@! TA.AperFunction,Conductor*
G04 #@! TO.N,Board_2-GND*
G36*
X31585148Y-29614852D02*
G01*
X31599500Y-29649500D01*
X31599500Y-37350500D01*
X31585148Y-37385148D01*
X31550500Y-37399500D01*
X11425188Y-37399500D01*
X11390540Y-37385148D01*
X11376188Y-37350500D01*
X11390540Y-37315852D01*
X11428050Y-37278342D01*
X11428054Y-37278335D01*
X11485644Y-37165309D01*
X11485644Y-37165307D01*
X11485646Y-37165304D01*
X11497282Y-37091833D01*
X11516878Y-37059858D01*
X11545679Y-37050500D01*
X12257835Y-37050500D01*
X12257837Y-37050500D01*
X12289122Y-37037541D01*
X12333366Y-37019215D01*
X12391175Y-36961406D01*
X12637729Y-36714852D01*
X12672377Y-36700500D01*
X26413812Y-36700500D01*
X26448460Y-36714852D01*
X26461657Y-36728049D01*
X26461664Y-36728054D01*
X26574691Y-36785644D01*
X26574692Y-36785644D01*
X26574696Y-36785646D01*
X26700000Y-36805492D01*
X26825304Y-36785646D01*
X26825308Y-36785644D01*
X26825309Y-36785644D01*
X26938335Y-36728054D01*
X26938337Y-36728052D01*
X26938342Y-36728050D01*
X27028050Y-36638342D01*
X27028054Y-36638335D01*
X27085644Y-36525309D01*
X27085644Y-36525307D01*
X27085646Y-36525304D01*
X27105492Y-36400000D01*
X27085646Y-36274696D01*
X27085644Y-36274692D01*
X27085644Y-36274690D01*
X27028054Y-36161664D01*
X27028049Y-36161657D01*
X26938342Y-36071950D01*
X26938335Y-36071945D01*
X26825308Y-36014355D01*
X26825305Y-36014354D01*
X26825304Y-36014354D01*
X26700000Y-35994508D01*
X26574696Y-36014354D01*
X26574694Y-36014354D01*
X26574692Y-36014355D01*
X26574690Y-36014355D01*
X26461664Y-36071945D01*
X26461657Y-36071950D01*
X26371950Y-36161657D01*
X26371945Y-36161664D01*
X26320443Y-36262745D01*
X26291926Y-36287102D01*
X26276784Y-36289500D01*
X26025188Y-36289500D01*
X25990540Y-36275148D01*
X25976188Y-36240500D01*
X25990540Y-36205852D01*
X26048050Y-36148342D01*
X26049929Y-36144655D01*
X26105644Y-36035309D01*
X26105644Y-36035307D01*
X26105646Y-36035304D01*
X26125492Y-35910000D01*
X26105646Y-35784696D01*
X26105644Y-35784692D01*
X26105644Y-35784690D01*
X26048054Y-35671664D01*
X26048049Y-35671657D01*
X25958342Y-35581950D01*
X25958335Y-35581945D01*
X25845308Y-35524355D01*
X25845305Y-35524354D01*
X25845304Y-35524354D01*
X25720000Y-35504508D01*
X25594696Y-35524354D01*
X25594694Y-35524354D01*
X25594692Y-35524355D01*
X25594690Y-35524355D01*
X25481664Y-35581945D01*
X25481657Y-35581950D01*
X25391950Y-35671657D01*
X25391945Y-35671664D01*
X25334355Y-35784690D01*
X25334355Y-35784692D01*
X25334354Y-35784694D01*
X25334354Y-35784696D01*
X25314508Y-35910000D01*
X25321292Y-35952835D01*
X25312538Y-35989301D01*
X25280562Y-36008897D01*
X25272896Y-36009500D01*
X23082136Y-36009500D01*
X23047488Y-35995148D01*
X23033136Y-35960500D01*
X23038477Y-35938255D01*
X23075644Y-35865309D01*
X23075644Y-35865307D01*
X23075646Y-35865304D01*
X23095492Y-35740000D01*
X23075646Y-35614696D01*
X23075644Y-35614692D01*
X23075644Y-35614690D01*
X23018054Y-35501664D01*
X23018049Y-35501657D01*
X22928342Y-35411950D01*
X22928335Y-35411945D01*
X22815308Y-35354355D01*
X22815305Y-35354354D01*
X22815304Y-35354354D01*
X22690000Y-35334508D01*
X22564696Y-35354354D01*
X22564694Y-35354354D01*
X22564692Y-35354355D01*
X22564690Y-35354355D01*
X22451664Y-35411945D01*
X22451657Y-35411950D01*
X22361950Y-35501657D01*
X22361945Y-35501664D01*
X22304355Y-35614690D01*
X22304355Y-35614692D01*
X22304354Y-35614694D01*
X22304354Y-35614696D01*
X22293268Y-35684696D01*
X22292718Y-35688166D01*
X22273122Y-35720142D01*
X22244321Y-35729500D01*
X12294121Y-35729500D01*
X12274812Y-35737499D01*
X12218593Y-35760785D01*
X12218593Y-35760786D01*
X12128813Y-35850565D01*
X12094165Y-35864917D01*
X12059517Y-35850565D01*
X12045165Y-35815917D01*
X12045492Y-35811767D01*
X12045492Y-35810001D01*
X12041484Y-35784696D01*
X12025646Y-35684696D01*
X12025644Y-35684692D01*
X12025644Y-35684690D01*
X11968054Y-35571664D01*
X11968049Y-35571657D01*
X11881144Y-35484752D01*
X11866792Y-35450104D01*
X11881144Y-35415456D01*
X11882384Y-35414215D01*
X11882386Y-35414215D01*
X11940195Y-35356406D01*
X11940195Y-35356405D01*
X12611748Y-34684852D01*
X12646396Y-34670500D01*
X26659583Y-34670500D01*
X26694231Y-34684852D01*
X28292559Y-36283180D01*
X28306911Y-36317828D01*
X28306308Y-36325493D01*
X28294508Y-36399999D01*
X28294508Y-36400000D01*
X28314354Y-36525304D01*
X28314354Y-36525305D01*
X28314355Y-36525307D01*
X28314355Y-36525309D01*
X28371945Y-36638335D01*
X28371950Y-36638342D01*
X28461657Y-36728049D01*
X28461664Y-36728054D01*
X28574691Y-36785644D01*
X28574692Y-36785644D01*
X28574696Y-36785646D01*
X28700000Y-36805492D01*
X28825304Y-36785646D01*
X28825308Y-36785644D01*
X28825309Y-36785644D01*
X28938335Y-36728054D01*
X28938337Y-36728052D01*
X28938342Y-36728050D01*
X29028050Y-36638342D01*
X29028054Y-36638335D01*
X29085644Y-36525309D01*
X29085644Y-36525307D01*
X29085646Y-36525304D01*
X29105492Y-36400000D01*
X29085646Y-36274696D01*
X29085644Y-36274692D01*
X29085644Y-36274690D01*
X29028054Y-36161664D01*
X29028049Y-36161657D01*
X28938342Y-36071950D01*
X28938335Y-36071945D01*
X28825308Y-36014355D01*
X28825305Y-36014354D01*
X28825304Y-36014354D01*
X28700000Y-35994508D01*
X28699999Y-35994508D01*
X28625493Y-36006308D01*
X28589026Y-35997552D01*
X28583180Y-35992559D01*
X26965269Y-34374648D01*
X26950917Y-34340000D01*
X26965269Y-34305352D01*
X28874214Y-32396407D01*
X28874215Y-32396406D01*
X28892541Y-32352162D01*
X28905500Y-32320877D01*
X28905500Y-32239123D01*
X28905500Y-30974811D01*
X28919852Y-30940163D01*
X28932253Y-30931152D01*
X28938342Y-30928050D01*
X29028050Y-30838342D01*
X29028054Y-30838335D01*
X29085644Y-30725309D01*
X29085644Y-30725307D01*
X29085646Y-30725304D01*
X29105492Y-30600000D01*
X29085646Y-30474696D01*
X29085644Y-30474692D01*
X29085644Y-30474690D01*
X29028054Y-30361664D01*
X29028049Y-30361657D01*
X28938342Y-30271950D01*
X28938335Y-30271945D01*
X28825308Y-30214355D01*
X28825305Y-30214354D01*
X28825304Y-30214354D01*
X28700000Y-30194508D01*
X28574696Y-30214354D01*
X28574694Y-30214354D01*
X28574692Y-30214355D01*
X28574690Y-30214355D01*
X28461664Y-30271945D01*
X28461657Y-30271950D01*
X28371950Y-30361657D01*
X28371945Y-30361664D01*
X28314355Y-30474690D01*
X28314355Y-30474692D01*
X28314354Y-30474694D01*
X28314354Y-30474696D01*
X28294508Y-30600000D01*
X28314354Y-30725304D01*
X28314354Y-30725305D01*
X28314355Y-30725307D01*
X28314355Y-30725309D01*
X28371945Y-30838335D01*
X28371950Y-30838342D01*
X28461658Y-30928050D01*
X28467745Y-30931151D01*
X28492102Y-30959668D01*
X28494500Y-30974811D01*
X28494500Y-32174583D01*
X28480148Y-32209231D01*
X26724231Y-33965148D01*
X26689583Y-33979500D01*
X12384121Y-33979500D01*
X12372960Y-33984124D01*
X12308593Y-34010785D01*
X12288692Y-34030687D01*
X12250785Y-34068594D01*
X11579231Y-34740148D01*
X11544583Y-34754500D01*
X11189603Y-34754500D01*
X11167481Y-34763662D01*
X11167481Y-34763663D01*
X11140777Y-34774724D01*
X11114073Y-34785785D01*
X11085169Y-34814689D01*
X11056265Y-34843594D01*
X11056264Y-34843595D01*
X11056260Y-34843598D01*
X11049990Y-34849867D01*
X11044282Y-34852230D01*
X11043530Y-34852773D01*
X11043528Y-34852774D01*
X11043432Y-34852582D01*
X11015341Y-34864216D01*
X11005310Y-34862221D01*
X11005153Y-34863013D01*
X11000419Y-34862071D01*
X10962355Y-34854500D01*
X10962352Y-34854500D01*
X10451649Y-34854500D01*
X10451648Y-34854500D01*
X10451646Y-34854501D01*
X10426269Y-34859547D01*
X10413580Y-34862071D01*
X10413576Y-34862073D01*
X10370412Y-34890914D01*
X10341572Y-34934077D01*
X10341571Y-34934080D01*
X10341571Y-34934081D01*
X10334000Y-34972145D01*
X10334000Y-34972147D01*
X10334000Y-34972148D01*
X10334000Y-35019102D01*
X10319648Y-35053750D01*
X10285000Y-35068102D01*
X10250352Y-35053751D01*
X10250351Y-35053750D01*
X10206406Y-35009805D01*
X9510749Y-34314148D01*
X9496397Y-34279500D01*
X9510749Y-34244852D01*
X9545397Y-34230500D01*
X9695875Y-34230500D01*
X9695877Y-34230500D01*
X9727162Y-34217541D01*
X9771406Y-34199215D01*
X9813181Y-34157439D01*
X9847828Y-34143088D01*
X9855494Y-34143691D01*
X9869650Y-34145933D01*
X9930000Y-34155492D01*
X10055304Y-34135646D01*
X10055308Y-34135644D01*
X10055309Y-34135644D01*
X10168335Y-34078054D01*
X10168337Y-34078052D01*
X10168342Y-34078050D01*
X10250353Y-33996038D01*
X10285000Y-33981687D01*
X10319648Y-33996039D01*
X10334000Y-34030687D01*
X10334000Y-34127850D01*
X10334001Y-34127854D01*
X10341571Y-34165919D01*
X10341572Y-34165920D01*
X10346155Y-34172781D01*
X10353468Y-34209564D01*
X10346155Y-34227219D01*
X10341571Y-34234079D01*
X10334000Y-34272147D01*
X10334000Y-34477850D01*
X10334001Y-34477854D01*
X10341571Y-34515919D01*
X10341573Y-34515923D01*
X10370414Y-34559087D01*
X10413577Y-34587927D01*
X10413579Y-34587927D01*
X10413581Y-34587929D01*
X10451645Y-34595500D01*
X10627259Y-34595499D01*
X10646010Y-34599229D01*
X10661146Y-34605498D01*
X10661151Y-34605500D01*
X10661153Y-34605500D01*
X10752847Y-34605500D01*
X10752849Y-34605500D01*
X10767988Y-34599228D01*
X10786740Y-34595499D01*
X10962351Y-34595499D01*
X10962354Y-34595499D01*
X11000419Y-34587929D01*
X11043586Y-34559086D01*
X11043588Y-34559082D01*
X11046996Y-34555675D01*
X11048657Y-34557335D01*
X11072768Y-34541204D01*
X11100820Y-34545078D01*
X11101024Y-34544453D01*
X11104524Y-34545590D01*
X11104609Y-34545601D01*
X11104696Y-34545646D01*
X11230000Y-34565492D01*
X11355304Y-34545646D01*
X11355308Y-34545644D01*
X11355309Y-34545644D01*
X11468335Y-34488054D01*
X11468337Y-34488052D01*
X11468342Y-34488050D01*
X11558050Y-34398342D01*
X11587777Y-34340000D01*
X11615644Y-34285309D01*
X11615644Y-34285307D01*
X11615646Y-34285304D01*
X11635492Y-34160000D01*
X11615646Y-34034696D01*
X11615644Y-34034692D01*
X11615644Y-34034690D01*
X11558054Y-33921664D01*
X11558049Y-33921657D01*
X11524850Y-33888458D01*
X11510498Y-33853810D01*
X11524850Y-33819162D01*
X11538521Y-33805491D01*
X11570548Y-33773464D01*
X11579708Y-33755487D01*
X11628142Y-33660431D01*
X11628142Y-33660429D01*
X11628144Y-33660426D01*
X11647990Y-33535122D01*
X11628144Y-33409818D01*
X11628142Y-33409814D01*
X11628142Y-33409812D01*
X11570552Y-33296786D01*
X11570547Y-33296779D01*
X11537916Y-33264148D01*
X11523564Y-33229500D01*
X11537916Y-33194852D01*
X11572564Y-33180500D01*
X14479583Y-33180500D01*
X14514231Y-33194852D01*
X14835785Y-33516406D01*
X14893594Y-33574215D01*
X14937838Y-33592541D01*
X14969123Y-33605500D01*
X14969124Y-33605500D01*
X17825189Y-33605500D01*
X17859837Y-33619852D01*
X17868846Y-33632250D01*
X17871950Y-33638342D01*
X17871953Y-33638345D01*
X17961657Y-33728049D01*
X17961664Y-33728054D01*
X18074691Y-33785644D01*
X18074692Y-33785644D01*
X18074696Y-33785646D01*
X18200000Y-33805492D01*
X18325304Y-33785646D01*
X18325308Y-33785644D01*
X18325309Y-33785644D01*
X18438335Y-33728054D01*
X18438337Y-33728052D01*
X18438342Y-33728050D01*
X18528050Y-33638342D01*
X18535003Y-33624696D01*
X18585644Y-33525309D01*
X18585644Y-33525307D01*
X18585646Y-33525304D01*
X18605492Y-33400000D01*
X18585646Y-33274696D01*
X18585644Y-33274692D01*
X18585644Y-33274690D01*
X18528054Y-33161664D01*
X18528049Y-33161657D01*
X18438342Y-33071950D01*
X18438335Y-33071945D01*
X18325308Y-33014355D01*
X18325305Y-33014354D01*
X18325304Y-33014354D01*
X18200000Y-32994508D01*
X18074696Y-33014354D01*
X18074694Y-33014354D01*
X18074692Y-33014355D01*
X18074690Y-33014355D01*
X17961664Y-33071945D01*
X17961657Y-33071950D01*
X17871953Y-33161654D01*
X17871951Y-33161657D01*
X17871950Y-33161658D01*
X17868847Y-33167747D01*
X17840330Y-33192102D01*
X17825189Y-33194500D01*
X16483897Y-33194500D01*
X16449249Y-33180148D01*
X16434897Y-33145500D01*
X16449249Y-33110852D01*
X16461651Y-33101841D01*
X16508337Y-33078053D01*
X16508338Y-33078051D01*
X16508342Y-33078050D01*
X16598050Y-32988342D01*
X16598054Y-32988335D01*
X16655644Y-32875309D01*
X16655644Y-32875307D01*
X16655646Y-32875304D01*
X16675492Y-32750000D01*
X16655646Y-32624696D01*
X16655644Y-32624692D01*
X16655644Y-32624690D01*
X16598054Y-32511664D01*
X16598049Y-32511657D01*
X16508342Y-32421950D01*
X16508335Y-32421945D01*
X16395308Y-32364355D01*
X16395305Y-32364354D01*
X16395304Y-32364354D01*
X16270000Y-32344508D01*
X16269999Y-32344508D01*
X16195493Y-32356308D01*
X16159026Y-32347552D01*
X16153180Y-32342559D01*
X16094769Y-32284148D01*
X16080417Y-32249500D01*
X16094769Y-32214852D01*
X16129417Y-32200500D01*
X19164583Y-32200500D01*
X19199231Y-32214852D01*
X19780059Y-32795680D01*
X19794411Y-32830328D01*
X19793808Y-32837993D01*
X19787898Y-32875309D01*
X19782008Y-32912500D01*
X19801854Y-33037804D01*
X19801854Y-33037805D01*
X19801855Y-33037807D01*
X19801855Y-33037809D01*
X19859445Y-33150835D01*
X19859450Y-33150842D01*
X19949157Y-33240549D01*
X19949164Y-33240554D01*
X20062191Y-33298144D01*
X20062192Y-33298144D01*
X20062196Y-33298146D01*
X20187500Y-33317992D01*
X20312804Y-33298146D01*
X20312808Y-33298144D01*
X20312809Y-33298144D01*
X20425835Y-33240554D01*
X20425837Y-33240552D01*
X20425842Y-33240550D01*
X20515550Y-33150842D01*
X20523293Y-33135646D01*
X20573144Y-33037809D01*
X20573144Y-33037807D01*
X20573146Y-33037804D01*
X20592992Y-32912500D01*
X20573146Y-32787196D01*
X20573144Y-32787192D01*
X20573144Y-32787190D01*
X20515554Y-32674164D01*
X20515549Y-32674157D01*
X20425842Y-32584450D01*
X20425835Y-32584445D01*
X20312808Y-32526855D01*
X20312805Y-32526854D01*
X20312804Y-32526854D01*
X20187500Y-32507008D01*
X20187499Y-32507008D01*
X20112993Y-32518808D01*
X20076526Y-32510052D01*
X20070680Y-32505059D01*
X19569769Y-32004148D01*
X19555417Y-31969500D01*
X19569769Y-31934852D01*
X19604417Y-31920500D01*
X21331855Y-31920500D01*
X21331857Y-31920500D01*
X21363142Y-31907541D01*
X21407386Y-31889215D01*
X21465195Y-31831406D01*
X22380456Y-30916143D01*
X22415104Y-30901792D01*
X22449752Y-30916144D01*
X22461657Y-30928049D01*
X22461664Y-30928054D01*
X22574691Y-30985644D01*
X22574692Y-30985644D01*
X22574696Y-30985646D01*
X22700000Y-31005492D01*
X22825304Y-30985646D01*
X22825308Y-30985644D01*
X22825309Y-30985644D01*
X22938335Y-30928054D01*
X22938337Y-30928052D01*
X22938342Y-30928050D01*
X23028050Y-30838342D01*
X23028054Y-30838335D01*
X23085644Y-30725309D01*
X23085644Y-30725307D01*
X23085646Y-30725304D01*
X23105492Y-30600000D01*
X23085646Y-30474696D01*
X23085644Y-30474692D01*
X23085644Y-30474690D01*
X23048477Y-30401745D01*
X23045534Y-30364358D01*
X23069891Y-30335841D01*
X23092136Y-30330500D01*
X24119583Y-30330500D01*
X24154231Y-30344852D01*
X24292559Y-30483180D01*
X24306911Y-30517828D01*
X24306308Y-30525493D01*
X24296354Y-30588342D01*
X24294508Y-30600000D01*
X24314354Y-30725304D01*
X24314354Y-30725305D01*
X24314355Y-30725307D01*
X24314355Y-30725309D01*
X24371945Y-30838335D01*
X24371950Y-30838342D01*
X24461657Y-30928049D01*
X24461664Y-30928054D01*
X24574691Y-30985644D01*
X24574692Y-30985644D01*
X24574696Y-30985646D01*
X24700000Y-31005492D01*
X24825304Y-30985646D01*
X24898254Y-30948476D01*
X24935642Y-30945533D01*
X24964159Y-30969889D01*
X24969500Y-30992135D01*
X24969500Y-32697355D01*
X24955148Y-32732003D01*
X24942746Y-32741014D01*
X24901661Y-32761948D01*
X24901654Y-32761953D01*
X24811950Y-32851657D01*
X24811945Y-32851664D01*
X24754355Y-32964690D01*
X24754355Y-32964692D01*
X24754354Y-32964694D01*
X24754354Y-32964696D01*
X24734508Y-33090000D01*
X24754354Y-33215304D01*
X24754354Y-33215305D01*
X24754355Y-33215307D01*
X24754355Y-33215309D01*
X24811945Y-33328335D01*
X24811950Y-33328342D01*
X24901657Y-33418049D01*
X24901664Y-33418054D01*
X25014691Y-33475644D01*
X25014692Y-33475644D01*
X25014696Y-33475646D01*
X25140000Y-33495492D01*
X25265304Y-33475646D01*
X25265308Y-33475644D01*
X25265309Y-33475644D01*
X25378335Y-33418054D01*
X25378337Y-33418052D01*
X25378342Y-33418050D01*
X25468050Y-33328342D01*
X25473324Y-33317992D01*
X25525644Y-33215309D01*
X25525644Y-33215307D01*
X25525646Y-33215304D01*
X25545492Y-33090000D01*
X25525646Y-32964696D01*
X25525644Y-32964692D01*
X25525644Y-32964690D01*
X25468054Y-32851664D01*
X25468049Y-32851657D01*
X25394852Y-32778460D01*
X25380500Y-32743812D01*
X25380500Y-30314124D01*
X25380499Y-30314120D01*
X25378821Y-30310069D01*
X25378818Y-30310065D01*
X25364498Y-30275493D01*
X25363031Y-30271950D01*
X25349215Y-30238594D01*
X25291406Y-30180785D01*
X24794769Y-29684148D01*
X24780417Y-29649500D01*
X24794769Y-29614852D01*
X24829417Y-29600500D01*
X31550500Y-29600500D01*
X31585148Y-29614852D01*
G37*
G04 #@! TD.AperFunction*
G04 #@! TA.AperFunction,Conductor*
G36*
X10110225Y-29614852D02*
G01*
X10124577Y-29649500D01*
X10110225Y-29684148D01*
X10094329Y-29694769D01*
X10087838Y-29697458D01*
X10061920Y-29708193D01*
X10043593Y-29715785D01*
X10043593Y-29715786D01*
X9330287Y-30429091D01*
X9330282Y-30429099D01*
X9321418Y-30450501D01*
X9302661Y-30495785D01*
X9302661Y-30495786D01*
X9299000Y-30504622D01*
X9299000Y-30622895D01*
X9284648Y-30657543D01*
X9250000Y-30671895D01*
X9227755Y-30666554D01*
X9125308Y-30614355D01*
X9125305Y-30614354D01*
X9125304Y-30614354D01*
X9000000Y-30594508D01*
X8874696Y-30614354D01*
X8874694Y-30614354D01*
X8874692Y-30614355D01*
X8874690Y-30614355D01*
X8761664Y-30671945D01*
X8761657Y-30671950D01*
X8671950Y-30761657D01*
X8671945Y-30761664D01*
X8614355Y-30874690D01*
X8614355Y-30874692D01*
X8614354Y-30874694D01*
X8614354Y-30874696D01*
X8594508Y-31000000D01*
X8614354Y-31125304D01*
X8614354Y-31125305D01*
X8614355Y-31125306D01*
X8628659Y-31153379D01*
X8634000Y-31175625D01*
X8634000Y-31314812D01*
X8619648Y-31349460D01*
X8602399Y-31358690D01*
X8603036Y-31360227D01*
X8598576Y-31362073D01*
X8555412Y-31390914D01*
X8526572Y-31434077D01*
X8526571Y-31434080D01*
X8519000Y-31472147D01*
X8519000Y-31677850D01*
X8519001Y-31677854D01*
X8526571Y-31715919D01*
X8526572Y-31715920D01*
X8531155Y-31722781D01*
X8538468Y-31759564D01*
X8531155Y-31777219D01*
X8526571Y-31784079D01*
X8519000Y-31822147D01*
X8519000Y-32027850D01*
X8519001Y-32027854D01*
X8526571Y-32065919D01*
X8526572Y-32065920D01*
X8531155Y-32072781D01*
X8538468Y-32109564D01*
X8531155Y-32127219D01*
X8526571Y-32134079D01*
X8519000Y-32172147D01*
X8519000Y-32377850D01*
X8519001Y-32377854D01*
X8526571Y-32415919D01*
X8526572Y-32415920D01*
X8531155Y-32422781D01*
X8538468Y-32459564D01*
X8531155Y-32477219D01*
X8526571Y-32484079D01*
X8519000Y-32522147D01*
X8519000Y-32727850D01*
X8519001Y-32727854D01*
X8526571Y-32765919D01*
X8526572Y-32765920D01*
X8531155Y-32772781D01*
X8538468Y-32809564D01*
X8531155Y-32827219D01*
X8526571Y-32834079D01*
X8519000Y-32872147D01*
X8519000Y-33077850D01*
X8519001Y-33077854D01*
X8526571Y-33115919D01*
X8526572Y-33115920D01*
X8531155Y-33122781D01*
X8538468Y-33159564D01*
X8531155Y-33177219D01*
X8526571Y-33184079D01*
X8519000Y-33222147D01*
X8519000Y-33427850D01*
X8519001Y-33427854D01*
X8526571Y-33465919D01*
X8526572Y-33465920D01*
X8531155Y-33472781D01*
X8538468Y-33509564D01*
X8531155Y-33527219D01*
X8526571Y-33534079D01*
X8519000Y-33572147D01*
X8519000Y-33777850D01*
X8519001Y-33777854D01*
X8526571Y-33815919D01*
X8526572Y-33815920D01*
X8531155Y-33822781D01*
X8538468Y-33859564D01*
X8531155Y-33877219D01*
X8526571Y-33884079D01*
X8519000Y-33922147D01*
X8519000Y-34127850D01*
X8519001Y-34127854D01*
X8526571Y-34165919D01*
X8526572Y-34165920D01*
X8531155Y-34172781D01*
X8538468Y-34209564D01*
X8531155Y-34227219D01*
X8526571Y-34234079D01*
X8519000Y-34272147D01*
X8519000Y-34477850D01*
X8519001Y-34477854D01*
X8526571Y-34515919D01*
X8526573Y-34515923D01*
X8555414Y-34559087D01*
X8598577Y-34587927D01*
X8598579Y-34587927D01*
X8598581Y-34587929D01*
X8636645Y-34595500D01*
X9147354Y-34595499D01*
X9174639Y-34590072D01*
X9211417Y-34597389D01*
X9218842Y-34603483D01*
X9870148Y-35254789D01*
X9884500Y-35289437D01*
X9884500Y-36069127D01*
X9888796Y-36079494D01*
X9888797Y-36079500D01*
X9888798Y-36079500D01*
X9915785Y-36144654D01*
X9915786Y-36144655D01*
X10172537Y-36401406D01*
X10230346Y-36459215D01*
X10261092Y-36471950D01*
X10305875Y-36490500D01*
X10305876Y-36490500D01*
X10352335Y-36490500D01*
X10386983Y-36504852D01*
X10401335Y-36539500D01*
X10386983Y-36574148D01*
X10110983Y-36850148D01*
X10076335Y-36864500D01*
X9893665Y-36864500D01*
X9859017Y-36850148D01*
X9729852Y-36720983D01*
X9715500Y-36686335D01*
X9715500Y-35379126D01*
X9715499Y-35379122D01*
X9706090Y-35356407D01*
X9706090Y-35356406D01*
X9686286Y-35308594D01*
X9684215Y-35303594D01*
X9626406Y-35245785D01*
X9281407Y-34900786D01*
X9281406Y-34900785D01*
X9237162Y-34882458D01*
X9237161Y-34882457D01*
X9205877Y-34869500D01*
X9202133Y-34868755D01*
X9189960Y-34863712D01*
X9189876Y-34863917D01*
X9185422Y-34862072D01*
X9185419Y-34862071D01*
X9147355Y-34854500D01*
X9147352Y-34854500D01*
X8636649Y-34854500D01*
X8636648Y-34854500D01*
X8636646Y-34854501D01*
X8611269Y-34859547D01*
X8598580Y-34862071D01*
X8598576Y-34862073D01*
X8555412Y-34890914D01*
X8526572Y-34934077D01*
X8526571Y-34934080D01*
X8519000Y-34972147D01*
X8519000Y-35177850D01*
X8519001Y-35177854D01*
X8526571Y-35215919D01*
X8526572Y-35215920D01*
X8531155Y-35222781D01*
X8538468Y-35259564D01*
X8531155Y-35277219D01*
X8526571Y-35284079D01*
X8523670Y-35298663D01*
X8519855Y-35317845D01*
X8506445Y-35342933D01*
X8484148Y-35365230D01*
X8449500Y-35379582D01*
X8414852Y-35365230D01*
X8400500Y-35330582D01*
X8400500Y-29649500D01*
X8414852Y-29614852D01*
X8449500Y-29600500D01*
X10075577Y-29600500D01*
X10110225Y-29614852D01*
G37*
G04 #@! TD.AperFunction*
G04 #@! TA.AperFunction,Conductor*
G36*
X22239251Y-29614852D02*
G01*
X22253603Y-29649500D01*
X22239251Y-29684148D01*
X20988251Y-30935148D01*
X20953603Y-30949500D01*
X19077040Y-30949500D01*
X19042392Y-30935148D01*
X19028040Y-30900500D01*
X19033381Y-30878254D01*
X19053717Y-30838342D01*
X19075646Y-30795304D01*
X19095492Y-30670000D01*
X19075646Y-30544696D01*
X19075644Y-30544692D01*
X19075644Y-30544690D01*
X19018054Y-30431664D01*
X19018049Y-30431657D01*
X18928342Y-30341950D01*
X18928335Y-30341945D01*
X18815308Y-30284355D01*
X18815305Y-30284354D01*
X18815304Y-30284354D01*
X18690000Y-30264508D01*
X18564696Y-30284354D01*
X18564694Y-30284354D01*
X18564692Y-30284355D01*
X18564690Y-30284355D01*
X18451664Y-30341945D01*
X18451657Y-30341950D01*
X18361950Y-30431657D01*
X18361945Y-30431664D01*
X18304355Y-30544690D01*
X18304355Y-30544692D01*
X18304354Y-30544694D01*
X18304354Y-30544696D01*
X18293321Y-30614355D01*
X18291134Y-30628166D01*
X18271538Y-30660142D01*
X18242737Y-30669500D01*
X12337860Y-30669500D01*
X12303212Y-30655148D01*
X12301888Y-30653535D01*
X12276519Y-30628166D01*
X12241406Y-30593053D01*
X11827501Y-30179148D01*
X11813149Y-30144500D01*
X11827501Y-30109852D01*
X11862149Y-30095500D01*
X20144583Y-30095500D01*
X20179231Y-30109852D01*
X20302559Y-30233180D01*
X20316911Y-30267828D01*
X20316308Y-30275493D01*
X20305784Y-30341945D01*
X20304508Y-30350000D01*
X20324354Y-30475304D01*
X20324354Y-30475305D01*
X20324355Y-30475307D01*
X20324355Y-30475309D01*
X20381945Y-30588335D01*
X20381950Y-30588342D01*
X20471657Y-30678049D01*
X20471664Y-30678054D01*
X20584691Y-30735644D01*
X20584692Y-30735644D01*
X20584696Y-30735646D01*
X20710000Y-30755492D01*
X20835304Y-30735646D01*
X20835308Y-30735644D01*
X20835309Y-30735644D01*
X20948335Y-30678054D01*
X20948337Y-30678052D01*
X20948342Y-30678050D01*
X21038050Y-30588342D01*
X21060292Y-30544690D01*
X21095644Y-30475309D01*
X21095644Y-30475307D01*
X21095646Y-30475304D01*
X21115492Y-30350000D01*
X21095646Y-30224696D01*
X21095644Y-30224692D01*
X21095644Y-30224690D01*
X21038054Y-30111664D01*
X21038049Y-30111657D01*
X20948342Y-30021950D01*
X20948335Y-30021945D01*
X20835308Y-29964355D01*
X20835305Y-29964354D01*
X20835304Y-29964354D01*
X20710000Y-29944508D01*
X20709999Y-29944508D01*
X20635493Y-29956308D01*
X20599026Y-29947552D01*
X20593180Y-29942559D01*
X20366406Y-29715785D01*
X20322162Y-29697458D01*
X20315671Y-29694769D01*
X20289154Y-29668253D01*
X20289152Y-29630750D01*
X20315670Y-29604231D01*
X20334423Y-29600500D01*
X22204603Y-29600500D01*
X22239251Y-29614852D01*
G37*
G04 #@! TD.AperFunction*
G04 #@! TD*
M02*
