G04 #@! TF.GenerationSoftware,KiCad,Pcbnew,9.0.0*
G04 #@! TF.CreationDate,2025-06-21T12:32:24-04:00*
G04 #@! TF.ProjectId,rp24-usb-tester,72703234-2d75-4736-922d-746573746572,v0.3.2*
G04 #@! TF.SameCoordinates,Original*
G04 #@! TF.FileFunction,Soldermask,Top*
G04 #@! TF.FilePolarity,Negative*
%FSLAX46Y46*%
G04 Gerber Fmt 4.6, Leading zero omitted, Abs format (unit mm)*
G04 Created by KiCad (PCBNEW 9.0.0) date 2025-06-21 12:32:24*
%MOMM*%
%LPD*%
G01*
G04 APERTURE LIST*
G04 Aperture macros list*
%AMRoundRect*
0 Rectangle with rounded corners*
0 $1 Rounding radius*
0 $2 $3 $4 $5 $6 $7 $8 $9 X,Y pos of 4 corners*
0 Add a 4 corners polygon primitive as box body*
4,1,4,$2,$3,$4,$5,$6,$7,$8,$9,$2,$3,0*
0 Add four circle primitives for the rounded corners*
1,1,$1+$1,$2,$3*
1,1,$1+$1,$4,$5*
1,1,$1+$1,$6,$7*
1,1,$1+$1,$8,$9*
0 Add four rect primitives between the rounded corners*
20,1,$1+$1,$2,$3,$4,$5,0*
20,1,$1+$1,$4,$5,$6,$7,0*
20,1,$1+$1,$6,$7,$8,$9,0*
20,1,$1+$1,$8,$9,$2,$3,0*%
G04 Aperture macros list end*
%ADD10R,1.700000X1.700000*%
%ADD11O,1.700000X1.700000*%
%ADD12RoundRect,0.218750X0.256250X-0.218750X0.256250X0.218750X-0.256250X0.218750X-0.256250X-0.218750X0*%
%ADD13R,0.490000X0.180000*%
%ADD14R,0.540000X0.230000*%
%ADD15RoundRect,0.150000X0.150000X-0.587500X0.150000X0.587500X-0.150000X0.587500X-0.150000X-0.587500X0*%
%ADD16RoundRect,0.200000X-0.200000X-0.275000X0.200000X-0.275000X0.200000X0.275000X-0.200000X0.275000X0*%
%ADD17R,0.500000X0.320000*%
%ADD18RoundRect,0.250000X0.650000X-1.000000X0.650000X1.000000X-0.650000X1.000000X-0.650000X-1.000000X0*%
%ADD19RoundRect,0.135000X0.185000X-0.135000X0.185000X0.135000X-0.185000X0.135000X-0.185000X-0.135000X0*%
%ADD20RoundRect,0.150000X-0.512500X-0.150000X0.512500X-0.150000X0.512500X0.150000X-0.512500X0.150000X0*%
%ADD21RoundRect,0.250000X-0.250000X-0.475000X0.250000X-0.475000X0.250000X0.475000X-0.250000X0.475000X0*%
%ADD22RoundRect,0.140000X0.170000X-0.140000X0.170000X0.140000X-0.170000X0.140000X-0.170000X-0.140000X0*%
%ADD23RoundRect,0.150000X-0.425000X0.150000X-0.425000X-0.150000X0.425000X-0.150000X0.425000X0.150000X0*%
%ADD24RoundRect,0.075000X-0.500000X0.075000X-0.500000X-0.075000X0.500000X-0.075000X0.500000X0.075000X0*%
%ADD25O,2.100000X1.000000*%
%ADD26O,1.800000X1.000000*%
%ADD27R,1.400000X1.900000*%
%ADD28R,0.320000X0.500000*%
%ADD29RoundRect,0.250000X-0.475000X0.250000X-0.475000X-0.250000X0.475000X-0.250000X0.475000X0.250000X0*%
G04 APERTURE END LIST*
D10*
G04 #@! TO.C,J6*
X12540000Y-16600000D03*
D11*
X15080000Y-16600000D03*
X17620000Y-16600000D03*
X20160000Y-16600000D03*
X22700000Y-16600000D03*
G04 #@! TD*
D12*
G04 #@! TO.C,D11*
X31462960Y-22062500D03*
X31462960Y-20487500D03*
G04 #@! TD*
D13*
G04 #@! TO.C,J4*
X17010000Y-8070000D03*
X17010000Y-8420000D03*
X17010000Y-8770000D03*
X17010000Y-9120000D03*
X17010000Y-9470000D03*
X17010000Y-9820000D03*
X17010000Y-10170000D03*
X17010000Y-10520000D03*
X17010000Y-10870000D03*
X17010000Y-11220000D03*
X17010000Y-11570000D03*
X17010000Y-11920000D03*
X15190000Y-11920000D03*
X15190000Y-11570000D03*
X15190000Y-11220000D03*
X15190000Y-10870000D03*
X15190000Y-10520000D03*
X15190000Y-10170000D03*
X15190000Y-9820000D03*
X15190000Y-9470000D03*
X15190000Y-9120000D03*
X15190000Y-8770000D03*
X15190000Y-8420000D03*
X15190000Y-8070000D03*
D14*
X16870000Y-7700000D03*
X15330000Y-7700000D03*
X16870000Y-12300000D03*
X15330000Y-12300000D03*
G04 #@! TD*
D15*
G04 #@! TO.C,Q1*
X13250000Y-4237500D03*
X15150000Y-4237500D03*
X14200000Y-2362500D03*
G04 #@! TD*
D10*
G04 #@! TO.C,J5*
X8125000Y-3500000D03*
D11*
X10665000Y-3500000D03*
G04 #@! TD*
D10*
G04 #@! TO.C,J7*
X38825000Y-3500000D03*
D11*
X41365000Y-3500000D03*
G04 #@! TD*
D12*
G04 #@! TO.C,D6*
X22556480Y-22062500D03*
X22556480Y-20487500D03*
G04 #@! TD*
D16*
G04 #@! TO.C,R3*
X39275000Y-17700000D03*
X40925000Y-17700000D03*
G04 #@! TD*
D17*
G04 #@! TO.C,RN1*
X11150000Y-20575000D03*
X11150000Y-21075000D03*
X11150000Y-21575000D03*
X11150000Y-22075000D03*
X12150000Y-22075000D03*
X12150000Y-21575000D03*
X12150000Y-21075000D03*
X12150000Y-20575000D03*
G04 #@! TD*
D12*
G04 #@! TO.C,D5*
X20775184Y-22062500D03*
X20775184Y-20487500D03*
G04 #@! TD*
G04 #@! TO.C,D12*
X33244256Y-22062500D03*
X33244256Y-20487500D03*
G04 #@! TD*
D18*
G04 #@! TO.C,D13*
X8700000Y-21600000D03*
X8700000Y-17600000D03*
G04 #@! TD*
D15*
G04 #@! TO.C,Q4*
X23450000Y-4237500D03*
X25350000Y-4237500D03*
X24400000Y-2362500D03*
G04 #@! TD*
D19*
G04 #@! TO.C,R2*
X10000000Y-13310000D03*
X10000000Y-12290000D03*
G04 #@! TD*
D15*
G04 #@! TO.C,Q2*
X16650000Y-4237500D03*
X18550000Y-4237500D03*
X17600000Y-2362500D03*
G04 #@! TD*
G04 #@! TO.C,Q3*
X20050000Y-4237500D03*
X21950000Y-4237500D03*
X21000000Y-2362500D03*
G04 #@! TD*
D12*
G04 #@! TO.C,D7*
X24337776Y-22062500D03*
X24337776Y-20487500D03*
G04 #@! TD*
G04 #@! TO.C,D1*
X13650000Y-22062500D03*
X13650000Y-20487500D03*
G04 #@! TD*
D20*
G04 #@! TO.C,U1*
X39362500Y-14050000D03*
X39362500Y-15000000D03*
X39362500Y-15950000D03*
X41637500Y-15950000D03*
X41637500Y-15000000D03*
X41637500Y-14050000D03*
G04 #@! TD*
D12*
G04 #@! TO.C,D4*
X18993888Y-22062500D03*
X18993888Y-20487500D03*
G04 #@! TD*
D21*
G04 #@! TO.C,C3*
X39150000Y-7500000D03*
X41050000Y-7500000D03*
G04 #@! TD*
D19*
G04 #@! TO.C,R1*
X10000000Y-9310000D03*
X10000000Y-8290000D03*
G04 #@! TD*
D10*
G04 #@! TO.C,J1*
X5075000Y-17900000D03*
D11*
X2535000Y-17900000D03*
G04 #@! TD*
D17*
G04 #@! TO.C,RN3*
X37550000Y-22075000D03*
X37550000Y-21575000D03*
X37550000Y-21075000D03*
X37550000Y-20575000D03*
X36550000Y-20575000D03*
X36550000Y-21075000D03*
X36550000Y-21575000D03*
X36550000Y-22075000D03*
G04 #@! TD*
D22*
G04 #@! TO.C,C2*
X37941172Y-14296153D03*
X37941172Y-13336153D03*
G04 #@! TD*
D12*
G04 #@! TO.C,D2*
X15431296Y-22062500D03*
X15431296Y-20487500D03*
G04 #@! TD*
D23*
G04 #@! TO.C,P1*
X7275000Y-7500000D03*
X7275000Y-8300000D03*
D24*
X7275000Y-9450000D03*
X7275000Y-10450000D03*
X7275000Y-10950000D03*
X7275000Y-11950000D03*
D23*
X7275000Y-13100000D03*
X7275000Y-13900000D03*
X7275000Y-13900000D03*
X7275000Y-13100000D03*
D24*
X7275000Y-12450000D03*
X7275000Y-11450000D03*
X7275000Y-9950000D03*
X7275000Y-8950000D03*
D23*
X7275000Y-8300000D03*
X7275000Y-7500000D03*
D25*
X6700000Y-6380000D03*
D26*
X2520000Y-6380000D03*
D25*
X6700000Y-15020000D03*
D26*
X2520000Y-15020000D03*
G04 #@! TD*
D12*
G04 #@! TO.C,D3*
X17212592Y-22062500D03*
X17212592Y-20487500D03*
G04 #@! TD*
D27*
G04 #@! TO.C,L1*
X43130000Y-10700000D03*
X39070000Y-10700000D03*
G04 #@! TD*
D10*
G04 #@! TO.C,J3*
X31300000Y-3500000D03*
D11*
X33840000Y-3500000D03*
G04 #@! TD*
D15*
G04 #@! TO.C,Q5*
X26850000Y-4237500D03*
X28750000Y-4237500D03*
X27800000Y-2362500D03*
G04 #@! TD*
D12*
G04 #@! TO.C,D14*
X35025556Y-22062500D03*
X35025556Y-20487500D03*
G04 #@! TD*
D19*
G04 #@! TO.C,R5*
X38600000Y-22110000D03*
X38600000Y-21090000D03*
G04 #@! TD*
D28*
G04 #@! TO.C,RN2*
X26450000Y-16089478D03*
X25950000Y-16089478D03*
X25450000Y-16089478D03*
X24950000Y-16089478D03*
X24950000Y-17089478D03*
X25450000Y-17089478D03*
X25950000Y-17089478D03*
X26450000Y-17089478D03*
G04 #@! TD*
D29*
G04 #@! TO.C,C1*
X43600000Y-15050000D03*
X43600000Y-16950000D03*
G04 #@! TD*
D12*
G04 #@! TO.C,D8*
X26119072Y-22062500D03*
X26119072Y-20487500D03*
G04 #@! TD*
D16*
G04 #@! TO.C,R4*
X39275000Y-19200000D03*
X40925000Y-19200000D03*
G04 #@! TD*
D12*
G04 #@! TO.C,D10*
X29681664Y-22062500D03*
X29681664Y-20487500D03*
G04 #@! TD*
G04 #@! TO.C,D9*
X27900368Y-22062500D03*
X27900368Y-20487500D03*
G04 #@! TD*
D10*
G04 #@! TO.C,J2*
X28700000Y-16600000D03*
D11*
X31240000Y-16600000D03*
X33780000Y-16600000D03*
X36320000Y-16600000D03*
G04 #@! TD*
M02*
