G04 #@! TF.GenerationSoftware,KiCad,Pcbnew,9.0.0*
G04 #@! TF.CreationDate,2025-02-22T20:52:15-05:00*
G04 #@! TF.ProjectId,rp24-usb-tester,72703234-2d75-4736-922d-746573746572,v0.3.0*
G04 #@! TF.SameCoordinates,Original*
G04 #@! TF.FileFunction,Copper,L2,Bot*
G04 #@! TF.FilePolarity,Positive*
%FSLAX46Y46*%
G04 Gerber Fmt 4.6, Leading zero omitted, Abs format (unit mm)*
G04 Created by KiCad (PCBNEW 9.0.0) date 2025-02-22 20:52:15*
%MOMM*%
%LPD*%
G01*
G04 APERTURE LIST*
G04 #@! TA.AperFunction,ComponentPad*
%ADD10R,1.700000X1.700000*%
G04 #@! TD*
G04 #@! TA.AperFunction,ComponentPad*
%ADD11O,1.700000X1.700000*%
G04 #@! TD*
G04 #@! TA.AperFunction,HeatsinkPad*
%ADD12O,2.100000X1.000000*%
G04 #@! TD*
G04 #@! TA.AperFunction,HeatsinkPad*
%ADD13O,1.800000X1.000000*%
G04 #@! TD*
G04 #@! TA.AperFunction,ViaPad*
%ADD14C,0.450000*%
G04 #@! TD*
G04 #@! TA.AperFunction,ViaPad*
%ADD15C,0.600000*%
G04 #@! TD*
G04 #@! TA.AperFunction,Conductor*
%ADD16C,0.200000*%
G04 #@! TD*
G04 #@! TA.AperFunction,Conductor*
%ADD17C,0.400000*%
G04 #@! TD*
G04 #@! TA.AperFunction,Conductor*
%ADD18C,0.150000*%
G04 #@! TD*
G04 #@! TA.AperFunction,Conductor*
%ADD19C,0.160000*%
G04 #@! TD*
G04 APERTURE END LIST*
D10*
G04 #@! TO.P,J6,1,Pin_1*
G04 #@! TO.N,/AUX3*
X12540000Y-16600000D03*
D11*
G04 #@! TO.P,J6,2,Pin_2*
G04 #@! TO.N,/AUX4*
X15080000Y-16600000D03*
G04 #@! TO.P,J6,3,Pin_3*
G04 #@! TO.N,/AUX10*
X17620000Y-16600000D03*
G04 #@! TO.P,J6,4,Pin_4*
G04 #@! TO.N,/AUX11*
X20160000Y-16600000D03*
G04 #@! TO.P,J6,5,Pin_5*
G04 #@! TO.N,/AUX12*
X22700000Y-16600000D03*
G04 #@! TD*
D10*
G04 #@! TO.P,J5,1,Pin_1*
G04 #@! TO.N,/TRACK_LEFT*
X8125000Y-3500000D03*
D11*
G04 #@! TO.P,J5,2,Pin_2*
G04 #@! TO.N,/TRACK_RIGHT*
X10665000Y-3500000D03*
G04 #@! TD*
D10*
G04 #@! TO.P,J7,1,Pin_1*
G04 #@! TO.N,/MOTOR_A*
X38825000Y-3500000D03*
D11*
G04 #@! TO.P,J7,2,Pin_2*
G04 #@! TO.N,/MOTOR_B*
X41365000Y-3500000D03*
G04 #@! TD*
D10*
G04 #@! TO.P,J1,1,Pin_1*
G04 #@! TO.N,/D+*
X5075000Y-17900000D03*
D11*
G04 #@! TO.P,J1,2,Pin_2*
G04 #@! TO.N,/D-*
X2535000Y-17900000D03*
G04 #@! TD*
D12*
G04 #@! TO.P,P1,S1,SHIELD*
G04 #@! TO.N,GND*
X6700000Y-6380000D03*
D13*
X2520000Y-6380000D03*
D12*
X6700000Y-15020000D03*
D13*
X2520000Y-15020000D03*
G04 #@! TD*
D10*
G04 #@! TO.P,J3,1,Pin_1*
G04 #@! TO.N,/CAP+*
X31300000Y-3500000D03*
D11*
G04 #@! TO.P,J3,2,Pin_2*
G04 #@! TO.N,GND*
X33840000Y-3500000D03*
G04 #@! TD*
D10*
G04 #@! TO.P,J2,1,Pin_1*
G04 #@! TO.N,VDC*
X28700000Y-16600000D03*
D11*
G04 #@! TO.P,J2,2,Pin_2*
G04 #@! TO.N,GND*
X31240000Y-16600000D03*
G04 #@! TO.P,J2,3,Pin_3*
G04 #@! TO.N,VCC*
X33780000Y-16600000D03*
G04 #@! TO.P,J2,4,Pin_4*
G04 #@! TO.N,GND*
X36320000Y-16600000D03*
G04 #@! TD*
D14*
G04 #@! TO.N,VDC*
X18300000Y-11700000D03*
X44000000Y-14000000D03*
X43200000Y-14000000D03*
X10300000Y-16149994D03*
X10300000Y-17400000D03*
X14300000Y-10525000D03*
X10300000Y-16774997D03*
G04 #@! TO.N,+5V*
X38800000Y-6200000D03*
X27000000Y-16100000D03*
X37500000Y-22700000D03*
X36750000Y-13450000D03*
X11800000Y-22900000D03*
X39400000Y-6200000D03*
G04 #@! TO.N,Net-(D3-A)*
X12800000Y-21100000D03*
X16500000Y-21325000D03*
G04 #@! TO.N,Net-(D4-A)*
X12700000Y-20400000D03*
X18400000Y-21200000D03*
G04 #@! TO.N,/AUX2*
X18100000Y-14800000D03*
X19700000Y-19800000D03*
G04 #@! TO.N,/AUX5*
X12774997Y-13300000D03*
X23500000Y-22000000D03*
G04 #@! TO.N,/AUX6*
X25300000Y-22000000D03*
X13400000Y-13300000D03*
G04 #@! TO.N,/AUX7*
X27100000Y-22000000D03*
X14074997Y-13300000D03*
G04 #@! TO.N,Net-(D9-A)*
X36000000Y-22100000D03*
X27200000Y-19800000D03*
G04 #@! TO.N,/AUX8*
X14700000Y-13300000D03*
X28800000Y-22100000D03*
D15*
G04 #@! TO.N,/TRACK_LEFT*
X15770982Y-7170982D03*
X16550000Y-7150000D03*
D14*
G04 #@! TO.N,/TRACK_RIGHT*
X15300000Y-12800000D03*
X16900000Y-12800000D03*
G04 #@! TO.N,/D+*
X8300000Y-10200000D03*
X10800000Y-9300000D03*
X8300000Y-11300000D03*
X17848975Y-7905161D03*
G04 #@! TO.N,/D-*
X11300000Y-9800000D03*
X17863262Y-8530000D03*
G04 #@! TO.N,/AUX3*
X14520033Y-8953311D03*
X12400000Y-10200000D03*
G04 #@! TO.N,/MOTOR_B*
X25500000Y-8700000D03*
X26066661Y-8716786D03*
G04 #@! TO.N,GND*
X34500000Y-9900000D03*
X23000000Y-6400000D03*
X11200000Y-14300000D03*
X18650000Y-8900000D03*
X26200000Y-6400000D03*
X23000000Y-10000000D03*
X15600000Y-17900000D03*
X18725000Y-8175000D03*
X13700000Y-17800000D03*
X15900000Y-9000000D03*
X18400000Y-17700000D03*
X20800000Y-17700000D03*
X19200000Y-14500000D03*
X15300000Y-14500000D03*
X17100000Y-14500000D03*
X23000000Y-14500000D03*
X26200000Y-14500000D03*
X34500000Y-5500000D03*
X16300000Y-9400000D03*
X34500000Y-14200000D03*
G04 #@! TO.N,/MOTOR_A*
X25600000Y-9400000D03*
X26200000Y-9400000D03*
G04 #@! TO.N,VCC*
X15900000Y-10600000D03*
X19200000Y-11200000D03*
G04 #@! TO.N,/AUX10*
X14500000Y-15400000D03*
G04 #@! TO.N,/AUX12*
X21100000Y-6100000D03*
G04 #@! TO.N,/AUX11*
X16100000Y-6000000D03*
G04 #@! TO.N,/AUX4*
X12900000Y-10700000D03*
X14000000Y-9300000D03*
G04 #@! TO.N,Net-(D14-A)*
X38600000Y-20500000D03*
X35600000Y-19800000D03*
G04 #@! TO.N,Net-(D6-K)*
X23500000Y-19800000D03*
X17600000Y-3500000D03*
G04 #@! TO.N,Net-(D10-A)*
X28800000Y-19800000D03*
X35900000Y-21400000D03*
G04 #@! TO.N,Net-(D11-K)*
X21000000Y-3500000D03*
X30600000Y-19800000D03*
G04 #@! TO.N,Net-(D12-K)*
X32400000Y-19800000D03*
X24400000Y-3500000D03*
G04 #@! TO.N,Net-(D5-K)*
X14300000Y-3500000D03*
X21600000Y-19800000D03*
G04 #@! TO.N,VBUS*
X9000000Y-14700000D03*
X8700000Y-15900000D03*
X8200000Y-8500000D03*
X8800000Y-8500000D03*
X8700000Y-15300000D03*
X9425003Y-8500000D03*
G04 #@! TO.N,Net-(D14-K)*
X27800000Y-3500000D03*
X34200000Y-19800000D03*
G04 #@! TD*
D16*
G04 #@! TO.N,VDC*
X18100000Y-11500000D02*
X15275000Y-11500000D01*
D17*
X30150000Y-15150000D02*
X28700000Y-16600000D01*
X43200000Y-14000000D02*
X42050000Y-15150000D01*
D16*
X10300000Y-17400000D02*
X10300000Y-16149994D01*
D17*
X44000000Y-14000000D02*
X43200000Y-14000000D01*
X42050000Y-15150000D02*
X30150000Y-15150000D01*
D16*
X15275000Y-11500000D02*
X14300000Y-10525000D01*
X10300000Y-14492893D02*
X14267893Y-10525000D01*
X18300000Y-11700000D02*
X18100000Y-11500000D01*
X14267893Y-10525000D02*
X14300000Y-10525000D01*
X10300000Y-16149994D02*
X10300000Y-14492893D01*
G04 #@! TO.N,+5V*
X37300000Y-22900000D02*
X37500000Y-22700000D01*
X38800000Y-6200000D02*
X39400000Y-6200000D01*
X27000000Y-15700000D02*
X27000000Y-16100000D01*
X28000000Y-14700000D02*
X27000000Y-15700000D01*
X36750000Y-8250000D02*
X36750000Y-13450000D01*
X38800000Y-6200000D02*
X36750000Y-8250000D01*
X36750000Y-13450000D02*
X35500000Y-14700000D01*
X35500000Y-14700000D02*
X28000000Y-14700000D01*
X11800000Y-22900000D02*
X37300000Y-22900000D01*
D18*
G04 #@! TO.N,Net-(D3-A)*
X16475000Y-21300000D02*
X13000000Y-21300000D01*
X16500000Y-21325000D02*
X16475000Y-21300000D01*
X13000000Y-21300000D02*
X12800000Y-21100000D01*
G04 #@! TO.N,Net-(D4-A)*
X12700000Y-20400000D02*
X12325000Y-20775000D01*
X12828248Y-21800000D02*
X17800000Y-21800000D01*
X17800000Y-21800000D02*
X18400000Y-21200000D01*
X12325000Y-20775000D02*
X12325000Y-21296752D01*
X12325000Y-21296752D02*
X12828248Y-21800000D01*
G04 #@! TO.N,/AUX2*
X19000000Y-19100000D02*
X19000000Y-15700000D01*
X19000000Y-15700000D02*
X18100000Y-14800000D01*
X19700000Y-19800000D02*
X19000000Y-19100000D01*
G04 #@! TO.N,/AUX5*
X17755456Y-19800000D02*
X19255456Y-21300000D01*
X12774997Y-13425003D02*
X11413234Y-14786766D01*
X11413234Y-14800000D02*
X10775000Y-15438234D01*
X12774997Y-13300000D02*
X12774997Y-13425003D01*
X19255456Y-21300000D02*
X22800000Y-21300000D01*
X10775000Y-18075000D02*
X12500000Y-19800000D01*
X11413234Y-14786766D02*
X11413234Y-14800000D01*
X10775000Y-15438234D02*
X10775000Y-18075000D01*
X22800000Y-21300000D02*
X23500000Y-22000000D01*
X12500000Y-19800000D02*
X17755456Y-19800000D01*
G04 #@! TO.N,/AUX6*
X25300000Y-22000000D02*
X24300000Y-21000000D01*
X11075000Y-17950736D02*
X11075000Y-15562498D01*
X11847488Y-15100000D02*
X13400000Y-13547488D01*
X17879720Y-19500000D02*
X12624264Y-19500000D01*
X13400000Y-13547488D02*
X13400000Y-13300000D01*
X12624264Y-19500000D02*
X11075000Y-17950736D01*
X11537498Y-15100000D02*
X11847488Y-15100000D01*
X24300000Y-21000000D02*
X19379720Y-21000000D01*
X11075000Y-15562498D02*
X11537498Y-15100000D01*
X19379720Y-21000000D02*
X17879720Y-19500000D01*
G04 #@! TO.N,/AUX7*
X11661762Y-15400000D02*
X11375000Y-15686762D01*
X14074997Y-13300000D02*
X14071752Y-13300000D01*
X11971752Y-15400000D02*
X11661762Y-15400000D01*
X18003984Y-19200000D02*
X19503984Y-20700000D01*
X12748528Y-19200000D02*
X18003984Y-19200000D01*
X11375000Y-15686762D02*
X11375000Y-17826472D01*
X19503984Y-20700000D02*
X25800000Y-20700000D01*
X14071752Y-13300000D02*
X11971752Y-15400000D01*
X11375000Y-17826472D02*
X12748528Y-19200000D01*
X25800000Y-20700000D02*
X27100000Y-22000000D01*
G04 #@! TO.N,Net-(D9-A)*
X27200000Y-19800000D02*
X29100000Y-21700000D01*
X29100000Y-21700000D02*
X35528248Y-21700000D01*
X35528248Y-21700000D02*
X35928248Y-22100000D01*
X35928248Y-22100000D02*
X36000000Y-22100000D01*
G04 #@! TO.N,/AUX8*
X18128248Y-18900000D02*
X19628248Y-20400000D01*
X13615000Y-14431749D02*
X13615000Y-16865000D01*
X15650000Y-18900000D02*
X18128248Y-18900000D01*
X27100000Y-20400000D02*
X28800000Y-22100000D01*
X14700000Y-13346749D02*
X13615000Y-14431749D01*
X19628248Y-20400000D02*
X27100000Y-20400000D01*
X13615000Y-16865000D02*
X15650000Y-18900000D01*
X14700000Y-13300000D02*
X14700000Y-13346749D01*
D16*
G04 #@! TO.N,/TRACK_LEFT*
X15791964Y-7150000D02*
X15770982Y-7170982D01*
X11795982Y-7170982D02*
X15770982Y-7170982D01*
X8125000Y-3500000D02*
X11795982Y-7170982D01*
X16550000Y-7150000D02*
X15791964Y-7150000D01*
G04 #@! TO.N,/TRACK_RIGHT*
X15300000Y-12800000D02*
X16900000Y-12800000D01*
X18700000Y-12800000D02*
X17100000Y-12800000D01*
X13665000Y-6500000D02*
X18500000Y-6500000D01*
X20000000Y-8000000D02*
X20000000Y-11500000D01*
D18*
X16900000Y-12800000D02*
X17100000Y-12800000D01*
D16*
X18500000Y-6500000D02*
X20000000Y-8000000D01*
X20000000Y-11500000D02*
X18700000Y-12800000D01*
X10665000Y-3500000D02*
X13665000Y-6500000D01*
D19*
G04 #@! TO.N,/D+*
X17599439Y-8115000D02*
X17809278Y-7905161D01*
X17848975Y-7905161D02*
X17809278Y-7905161D01*
X10800000Y-9300000D02*
X11109081Y-9300000D01*
X11109081Y-9300000D02*
X12294080Y-8115000D01*
X12294080Y-8115000D02*
X17599439Y-8115000D01*
D18*
X8300000Y-11300000D02*
X8300000Y-10200000D01*
D19*
G04 #@! TO.N,/D-*
X11300000Y-9800000D02*
X11300000Y-9490919D01*
X12405919Y-8385000D02*
X17718262Y-8385000D01*
X11300000Y-9490919D02*
X12405919Y-8385000D01*
X17718262Y-8385000D02*
X17863262Y-8530000D01*
D18*
G04 #@! TO.N,/AUX3*
X13775000Y-8825000D02*
X14391722Y-8825000D01*
X12400000Y-10200000D02*
X13775000Y-8825000D01*
X14391722Y-8825000D02*
X14520033Y-8953311D01*
D16*
G04 #@! TO.N,/MOTOR_B*
X37500000Y-2600000D02*
X37900000Y-2200000D01*
X40065000Y-2200000D02*
X41365000Y-3500000D01*
X33130026Y-8700000D02*
X37500000Y-4330026D01*
X37500000Y-4330026D02*
X37500000Y-2600000D01*
X37900000Y-2200000D02*
X40065000Y-2200000D01*
X25500000Y-8700000D02*
X33130026Y-8700000D01*
G04 #@! TO.N,/MOTOR_A*
X38600000Y-3500000D02*
X38800000Y-3500000D01*
X25600000Y-9400000D02*
X32925000Y-9400000D01*
X32925000Y-9400000D02*
X38825000Y-3500000D01*
D18*
G04 #@! TO.N,VCC*
X19200000Y-11200000D02*
X18725000Y-10725000D01*
X16025000Y-10725000D02*
X15900000Y-10600000D01*
X18725000Y-10725000D02*
X16025000Y-10725000D01*
G04 #@! TO.N,/AUX10*
X14500000Y-15400000D02*
X16420000Y-15400000D01*
X16420000Y-15400000D02*
X17620000Y-16600000D01*
G04 #@! TO.N,/AUX12*
X21900000Y-7175736D02*
X21900000Y-15800000D01*
X21100000Y-6375736D02*
X21900000Y-7175736D01*
X21900000Y-15800000D02*
X22700000Y-16600000D01*
X21100000Y-6100000D02*
X21100000Y-6375736D01*
G04 #@! TO.N,/AUX11*
X19451472Y-6000000D02*
X21000000Y-7548528D01*
X21000000Y-7548528D02*
X21000000Y-15760000D01*
X16100000Y-6000000D02*
X19451472Y-6000000D01*
X21000000Y-15760000D02*
X20160000Y-16600000D01*
G04 #@! TO.N,/AUX4*
X12900000Y-10700000D02*
X12900000Y-10400000D01*
X12900000Y-10400000D02*
X14000000Y-9300000D01*
G04 #@! TO.N,Net-(D14-A)*
X37900000Y-19800000D02*
X38600000Y-20500000D01*
X35600000Y-19800000D02*
X37900000Y-19800000D01*
G04 #@! TO.N,Net-(D6-K)*
X17800000Y-3500000D02*
X21600000Y-7300000D01*
X21600000Y-17900000D02*
X23500000Y-19800000D01*
X21600000Y-7300000D02*
X21600000Y-17900000D01*
X17600000Y-3500000D02*
X17800000Y-3500000D01*
G04 #@! TO.N,Net-(D10-A)*
X30400000Y-21400000D02*
X28800000Y-19800000D01*
X35900000Y-21400000D02*
X30400000Y-21400000D01*
G04 #@! TO.N,Net-(D11-K)*
X24100000Y-17400000D02*
X26025000Y-19325000D01*
X23100000Y-4200000D02*
X24100000Y-5200000D01*
X24100000Y-5200000D02*
X24100000Y-17400000D01*
X30125000Y-19325000D02*
X30600000Y-19800000D01*
X26025000Y-19325000D02*
X30125000Y-19325000D01*
X21000000Y-3500000D02*
X21700000Y-4200000D01*
X21700000Y-4200000D02*
X23100000Y-4200000D01*
G04 #@! TO.N,Net-(D12-K)*
X24400000Y-17275736D02*
X26149264Y-19025000D01*
X31625000Y-19025000D02*
X32400000Y-19800000D01*
X24400000Y-3500000D02*
X24400000Y-17275736D01*
X26149264Y-19025000D02*
X31625000Y-19025000D01*
G04 #@! TO.N,Net-(D5-K)*
X21300000Y-7424264D02*
X21300000Y-19500000D01*
X21300000Y-19500000D02*
X21600000Y-19800000D01*
X14900000Y-4100000D02*
X17975736Y-4100000D01*
X17975736Y-4100000D02*
X21300000Y-7424264D01*
X14300000Y-3500000D02*
X14900000Y-4100000D01*
D16*
G04 #@! TO.N,VBUS*
X8200000Y-8500000D02*
X9425003Y-8500000D01*
D18*
X8700000Y-15000000D02*
X9000000Y-14700000D01*
X9000000Y-14700000D02*
X9400000Y-14300000D01*
X8700000Y-15900000D02*
X8700000Y-15000000D01*
X9400000Y-14300000D02*
X9400000Y-8525003D01*
X9400000Y-8525003D02*
X9425003Y-8500000D01*
G04 #@! TO.N,Net-(D14-K)*
X27100000Y-4200000D02*
X25700000Y-4200000D01*
X27800000Y-3500000D02*
X27100000Y-4200000D01*
X33125000Y-18725000D02*
X34200000Y-19800000D01*
X24700000Y-17151472D02*
X26273528Y-18725000D01*
X25700000Y-4200000D02*
X24700000Y-5200000D01*
X24700000Y-5200000D02*
X24700000Y-17151472D01*
X26273528Y-18725000D02*
X33125000Y-18725000D01*
G04 #@! TD*
G04 #@! TA.AperFunction,Conductor*
G04 #@! TO.N,GND*
G36*
X19309148Y-17129157D02*
G01*
X19315238Y-17136577D01*
X19347043Y-17184177D01*
X19382857Y-17237777D01*
X19382861Y-17237782D01*
X19522218Y-17377139D01*
X19686086Y-17486632D01*
X19868165Y-17562051D01*
X20061459Y-17600500D01*
X20258541Y-17600500D01*
X20451835Y-17562051D01*
X20633914Y-17486632D01*
X20797782Y-17377139D01*
X20937139Y-17237782D01*
X20984759Y-17166513D01*
X21015940Y-17145679D01*
X21052723Y-17152995D01*
X21073558Y-17184177D01*
X21074500Y-17193737D01*
X21074500Y-19451188D01*
X21074499Y-19451202D01*
X21074499Y-19544856D01*
X21079557Y-19557065D01*
X21086779Y-19574500D01*
X21108830Y-19627736D01*
X21108831Y-19627737D01*
X21108831Y-19627738D01*
X21179155Y-19698061D01*
X21179157Y-19698062D01*
X21185771Y-19704676D01*
X21200123Y-19739324D01*
X21199705Y-19745712D01*
X21199500Y-19747271D01*
X21199500Y-19852730D01*
X21226792Y-19954585D01*
X21226793Y-19954589D01*
X21279520Y-20045913D01*
X21324459Y-20090852D01*
X21338811Y-20125500D01*
X21324459Y-20160148D01*
X21289811Y-20174500D01*
X20010189Y-20174500D01*
X19975541Y-20160148D01*
X19961189Y-20125500D01*
X19975541Y-20090852D01*
X20020479Y-20045914D01*
X20020480Y-20045913D01*
X20073207Y-19954587D01*
X20100499Y-19852730D01*
X20100500Y-19852730D01*
X20100500Y-19747270D01*
X20100499Y-19747269D01*
X20085467Y-19691170D01*
X20073207Y-19645413D01*
X20073206Y-19645412D01*
X20073206Y-19645410D01*
X20022199Y-19557065D01*
X20020480Y-19554087D01*
X19945913Y-19479520D01*
X19854589Y-19426793D01*
X19854585Y-19426792D01*
X19752730Y-19399500D01*
X19752727Y-19399500D01*
X19647273Y-19399500D01*
X19647271Y-19399500D01*
X19645712Y-19399705D01*
X19644947Y-19399500D01*
X19644062Y-19399500D01*
X19644062Y-19399262D01*
X19609488Y-19389993D01*
X19604676Y-19385771D01*
X19239852Y-19020946D01*
X19225500Y-18986298D01*
X19225500Y-17163805D01*
X19239852Y-17129157D01*
X19274500Y-17114805D01*
X19309148Y-17129157D01*
G37*
G04 #@! TD.AperFunction*
G04 #@! TA.AperFunction,Conductor*
G36*
X19372419Y-6239852D02*
G01*
X20760148Y-7627581D01*
X20774500Y-7662229D01*
X20774500Y-15646297D01*
X20760148Y-15680945D01*
X20718585Y-15722508D01*
X20683937Y-15736860D01*
X20656714Y-15728602D01*
X20633914Y-15713367D01*
X20451836Y-15637949D01*
X20451827Y-15637947D01*
X20258544Y-15599500D01*
X20258541Y-15599500D01*
X20061459Y-15599500D01*
X20061455Y-15599500D01*
X19868172Y-15637947D01*
X19868163Y-15637949D01*
X19686089Y-15713366D01*
X19522218Y-15822860D01*
X19382860Y-15962218D01*
X19315242Y-16063417D01*
X19284059Y-16084252D01*
X19247277Y-16076936D01*
X19226442Y-16045753D01*
X19225500Y-16036194D01*
X19225500Y-15655147D01*
X19225500Y-15655145D01*
X19191170Y-15572264D01*
X19191169Y-15572263D01*
X19191168Y-15572261D01*
X19124946Y-15506040D01*
X19124939Y-15506034D01*
X18514228Y-14895323D01*
X18499876Y-14860675D01*
X18500296Y-14854274D01*
X18500500Y-14852725D01*
X18500500Y-14747270D01*
X18500499Y-14747269D01*
X18476856Y-14659031D01*
X18473207Y-14645413D01*
X18473206Y-14645412D01*
X18473206Y-14645410D01*
X18422799Y-14558104D01*
X18420480Y-14554087D01*
X18345913Y-14479520D01*
X18340862Y-14476604D01*
X18254589Y-14426793D01*
X18254585Y-14426792D01*
X18152730Y-14399500D01*
X18152727Y-14399500D01*
X18047273Y-14399500D01*
X18047270Y-14399500D01*
X17945414Y-14426792D01*
X17945410Y-14426793D01*
X17854086Y-14479520D01*
X17854086Y-14479521D01*
X17779521Y-14554086D01*
X17779520Y-14554086D01*
X17726793Y-14645410D01*
X17726792Y-14645414D01*
X17699500Y-14747269D01*
X17699500Y-14852730D01*
X17726792Y-14954585D01*
X17726793Y-14954589D01*
X17768481Y-15026793D01*
X17779520Y-15045913D01*
X17854087Y-15120480D01*
X17887513Y-15139778D01*
X17945410Y-15173206D01*
X17945412Y-15173206D01*
X17945413Y-15173207D01*
X18024504Y-15194399D01*
X18047269Y-15200499D01*
X18047270Y-15200500D01*
X18047273Y-15200500D01*
X18152726Y-15200500D01*
X18152727Y-15200500D01*
X18152727Y-15200499D01*
X18154274Y-15200296D01*
X18155036Y-15200500D01*
X18155939Y-15200500D01*
X18155939Y-15200741D01*
X18190500Y-15209999D01*
X18195323Y-15214228D01*
X18760148Y-15779053D01*
X18774500Y-15813701D01*
X18774500Y-19055142D01*
X18774499Y-19055145D01*
X18774499Y-19109050D01*
X18760147Y-19143698D01*
X18735646Y-19153845D01*
X18725499Y-19158049D01*
X18725498Y-19158048D01*
X18725498Y-19158049D01*
X18690850Y-19143697D01*
X18690849Y-19143695D01*
X18326310Y-18779157D01*
X18326310Y-18779156D01*
X18255985Y-18708830D01*
X18231708Y-18698774D01*
X18173104Y-18674499D01*
X18173103Y-18674499D01*
X18083393Y-18674499D01*
X18077692Y-18674499D01*
X18077684Y-18674500D01*
X15763701Y-18674500D01*
X15729053Y-18660148D01*
X14693979Y-17625074D01*
X14679627Y-17590426D01*
X14693979Y-17555778D01*
X14728627Y-17541426D01*
X14747374Y-17545155D01*
X14788165Y-17562051D01*
X14981459Y-17600500D01*
X15178541Y-17600500D01*
X15371835Y-17562051D01*
X15553914Y-17486632D01*
X15717782Y-17377139D01*
X15857139Y-17237782D01*
X15966632Y-17073914D01*
X16042051Y-16891835D01*
X16080500Y-16698541D01*
X16080500Y-16501459D01*
X16042051Y-16308165D01*
X15966632Y-16126086D01*
X15857139Y-15962218D01*
X15717782Y-15822861D01*
X15684316Y-15800500D01*
X15622634Y-15759285D01*
X15556717Y-15715241D01*
X15535883Y-15684060D01*
X15543199Y-15647277D01*
X15574381Y-15626442D01*
X15583941Y-15625500D01*
X16306299Y-15625500D01*
X16340947Y-15639852D01*
X16742509Y-16041414D01*
X16756861Y-16076062D01*
X16748604Y-16103284D01*
X16733365Y-16126090D01*
X16657949Y-16308163D01*
X16657947Y-16308172D01*
X16619500Y-16501455D01*
X16619500Y-16698544D01*
X16657947Y-16891827D01*
X16657949Y-16891836D01*
X16733366Y-17073910D01*
X16733368Y-17073914D01*
X16781320Y-17145679D01*
X16842857Y-17237777D01*
X16842861Y-17237782D01*
X16982218Y-17377139D01*
X17146086Y-17486632D01*
X17328165Y-17562051D01*
X17521459Y-17600500D01*
X17718541Y-17600500D01*
X17911835Y-17562051D01*
X18093914Y-17486632D01*
X18257782Y-17377139D01*
X18397139Y-17237782D01*
X18506632Y-17073914D01*
X18582051Y-16891835D01*
X18620500Y-16698541D01*
X18620500Y-16501459D01*
X18582051Y-16308165D01*
X18506632Y-16126086D01*
X18397139Y-15962218D01*
X18257782Y-15822861D01*
X18224316Y-15800500D01*
X18169407Y-15763811D01*
X18093914Y-15713368D01*
X18093911Y-15713366D01*
X18093910Y-15713366D01*
X17911836Y-15637949D01*
X17911827Y-15637947D01*
X17718544Y-15599500D01*
X17718541Y-15599500D01*
X17521459Y-15599500D01*
X17521455Y-15599500D01*
X17328172Y-15637947D01*
X17328163Y-15637949D01*
X17146090Y-15713365D01*
X17146086Y-15713368D01*
X17123283Y-15728604D01*
X17086501Y-15735919D01*
X17061414Y-15722509D01*
X16618062Y-15279157D01*
X16618062Y-15279156D01*
X16547738Y-15208831D01*
X16547736Y-15208830D01*
X16517109Y-15196144D01*
X16464856Y-15174499D01*
X16464855Y-15174499D01*
X16375145Y-15174499D01*
X16369444Y-15174499D01*
X16369436Y-15174500D01*
X14860308Y-15174500D01*
X14825660Y-15160148D01*
X14821438Y-15155335D01*
X14820480Y-15154087D01*
X14745913Y-15079520D01*
X14654589Y-15026793D01*
X14654585Y-15026792D01*
X14552730Y-14999500D01*
X14552727Y-14999500D01*
X14447273Y-14999500D01*
X14447270Y-14999500D01*
X14345414Y-15026792D01*
X14345410Y-15026793D01*
X14254086Y-15079520D01*
X14254086Y-15079521D01*
X14179521Y-15154086D01*
X14179520Y-15154086D01*
X14126793Y-15245410D01*
X14126792Y-15245414D01*
X14099500Y-15347269D01*
X14099500Y-15452730D01*
X14126792Y-15554585D01*
X14126793Y-15554589D01*
X14168278Y-15626442D01*
X14179520Y-15645913D01*
X14254087Y-15720480D01*
X14282458Y-15736860D01*
X14345409Y-15773205D01*
X14345413Y-15773207D01*
X14378945Y-15782191D01*
X14408696Y-15805020D01*
X14413592Y-15842203D01*
X14400909Y-15864169D01*
X14302860Y-15962217D01*
X14193366Y-16126089D01*
X14117949Y-16308163D01*
X14117947Y-16308172D01*
X14079500Y-16501455D01*
X14079500Y-16698544D01*
X14117947Y-16891827D01*
X14117949Y-16891836D01*
X14134843Y-16932621D01*
X14134843Y-16970124D01*
X14108324Y-16996642D01*
X14070821Y-16996642D01*
X14054925Y-16986020D01*
X13854852Y-16785947D01*
X13840500Y-16751299D01*
X13840500Y-14545450D01*
X13854852Y-14510802D01*
X14650802Y-13714852D01*
X14685450Y-13700500D01*
X14752730Y-13700500D01*
X14752730Y-13700499D01*
X14854587Y-13673207D01*
X14945913Y-13620480D01*
X15020480Y-13545913D01*
X15073207Y-13454587D01*
X15100499Y-13352730D01*
X15100500Y-13352730D01*
X15100500Y-13247273D01*
X15100499Y-13247269D01*
X15097611Y-13236491D01*
X15102504Y-13199311D01*
X15132256Y-13176479D01*
X15157623Y-13176479D01*
X15247269Y-13200499D01*
X15247270Y-13200500D01*
X15247273Y-13200500D01*
X15352730Y-13200500D01*
X15352730Y-13200499D01*
X15454587Y-13173207D01*
X15545913Y-13120480D01*
X15601541Y-13064852D01*
X15636189Y-13050500D01*
X16563811Y-13050500D01*
X16598459Y-13064852D01*
X16654087Y-13120480D01*
X16669686Y-13129486D01*
X16745410Y-13173206D01*
X16745412Y-13173206D01*
X16745413Y-13173207D01*
X16825747Y-13194732D01*
X16847269Y-13200499D01*
X16847270Y-13200500D01*
X16847273Y-13200500D01*
X16952730Y-13200500D01*
X16952730Y-13200499D01*
X17054587Y-13173207D01*
X17145913Y-13120480D01*
X17201541Y-13064852D01*
X17236189Y-13050500D01*
X18749826Y-13050500D01*
X18749828Y-13050500D01*
X18841897Y-13012364D01*
X20135004Y-11719254D01*
X20135007Y-11719253D01*
X20141896Y-11712364D01*
X20141897Y-11712364D01*
X20212364Y-11641897D01*
X20229521Y-11600475D01*
X20250501Y-11549827D01*
X20250501Y-11450172D01*
X20250501Y-11446229D01*
X20250500Y-11446215D01*
X20250500Y-7950174D01*
X20250499Y-7950170D01*
X20237833Y-7919591D01*
X20212364Y-7858103D01*
X20212362Y-7858101D01*
X20212362Y-7858100D01*
X20141897Y-7787636D01*
X18663410Y-6309148D01*
X18649058Y-6274500D01*
X18663410Y-6239852D01*
X18698058Y-6225500D01*
X19337771Y-6225500D01*
X19372419Y-6239852D01*
G37*
G04 #@! TD.AperFunction*
G04 #@! TA.AperFunction,Conductor*
G36*
X13624148Y-17193053D02*
G01*
X15321947Y-18890852D01*
X15336299Y-18925500D01*
X15321947Y-18960148D01*
X15287299Y-18974500D01*
X12862229Y-18974500D01*
X12827581Y-18960148D01*
X11614852Y-17747419D01*
X11600500Y-17712771D01*
X11600500Y-17645351D01*
X11614852Y-17610703D01*
X11649500Y-17596351D01*
X11659054Y-17597292D01*
X11675180Y-17600500D01*
X11675181Y-17600500D01*
X13404820Y-17600500D01*
X13448722Y-17591767D01*
X13498504Y-17558504D01*
X13531767Y-17508722D01*
X13540500Y-17464820D01*
X13540500Y-17227701D01*
X13554852Y-17193053D01*
X13589500Y-17178701D01*
X13624148Y-17193053D01*
G37*
G04 #@! TD.AperFunction*
G04 #@! TA.AperFunction,Conductor*
G36*
X47001371Y-400577D02*
G01*
X47288310Y-416691D01*
X47293754Y-417304D01*
X47575738Y-465215D01*
X47581084Y-466435D01*
X47766030Y-519717D01*
X47855918Y-545614D01*
X47861104Y-547429D01*
X48125336Y-656877D01*
X48130287Y-659261D01*
X48380619Y-797614D01*
X48385243Y-800519D01*
X48618538Y-966051D01*
X48622805Y-969455D01*
X48819702Y-1145413D01*
X48836072Y-1160042D01*
X48839955Y-1163925D01*
X49030542Y-1377192D01*
X49033950Y-1381463D01*
X49199477Y-1614752D01*
X49202390Y-1619389D01*
X49340738Y-1869712D01*
X49343122Y-1874663D01*
X49452570Y-2138895D01*
X49454385Y-2144081D01*
X49533562Y-2418910D01*
X49534785Y-2424267D01*
X49582694Y-2706237D01*
X49583309Y-2711697D01*
X49599423Y-2998627D01*
X49599500Y-3001375D01*
X49599500Y-21998624D01*
X49599423Y-22001372D01*
X49583309Y-22288302D01*
X49582694Y-22293762D01*
X49534785Y-22575732D01*
X49533562Y-22581089D01*
X49454385Y-22855918D01*
X49452570Y-22861104D01*
X49343122Y-23125336D01*
X49340738Y-23130287D01*
X49202390Y-23380610D01*
X49199471Y-23385255D01*
X49033956Y-23618527D01*
X49030537Y-23622814D01*
X48839957Y-23836072D01*
X48836072Y-23839957D01*
X48622814Y-24030537D01*
X48618527Y-24033956D01*
X48385255Y-24199471D01*
X48380610Y-24202390D01*
X48130287Y-24340738D01*
X48125336Y-24343122D01*
X47861104Y-24452570D01*
X47855918Y-24454385D01*
X47581089Y-24533562D01*
X47575732Y-24534785D01*
X47293762Y-24582694D01*
X47288302Y-24583309D01*
X47030529Y-24597785D01*
X47001370Y-24599423D01*
X46998624Y-24599500D01*
X3001376Y-24599500D01*
X2998629Y-24599423D01*
X2965650Y-24597570D01*
X2711697Y-24583309D01*
X2706237Y-24582694D01*
X2424267Y-24534785D01*
X2418910Y-24533562D01*
X2144081Y-24454385D01*
X2138895Y-24452570D01*
X1874663Y-24343122D01*
X1869712Y-24340738D01*
X1619389Y-24202390D01*
X1614752Y-24199477D01*
X1381463Y-24033950D01*
X1377192Y-24030542D01*
X1163925Y-23839955D01*
X1160042Y-23836072D01*
X969455Y-23622805D01*
X966051Y-23618538D01*
X800519Y-23385243D01*
X797614Y-23380619D01*
X659261Y-23130287D01*
X656877Y-23125336D01*
X547429Y-22861104D01*
X545614Y-22855918D01*
X504748Y-22714068D01*
X466435Y-22581084D01*
X465214Y-22575732D01*
X417304Y-22293754D01*
X416691Y-22288310D01*
X400577Y-22001371D01*
X400500Y-21998624D01*
X400500Y-21875435D01*
X1099500Y-21875435D01*
X1099500Y-21913734D01*
X1099500Y-22124565D01*
X1132018Y-22371565D01*
X1132019Y-22371569D01*
X1132020Y-22371576D01*
X1196495Y-22612200D01*
X1196499Y-22612210D01*
X1211023Y-22647273D01*
X1291836Y-22842373D01*
X1314323Y-22881322D01*
X1416399Y-23058124D01*
X1416409Y-23058139D01*
X1568057Y-23255770D01*
X1568067Y-23255782D01*
X1744217Y-23431932D01*
X1744229Y-23431942D01*
X1941860Y-23583590D01*
X1941869Y-23583596D01*
X1941873Y-23583599D01*
X2157627Y-23708164D01*
X2387793Y-23803502D01*
X2387796Y-23803502D01*
X2387799Y-23803504D01*
X2628423Y-23867979D01*
X2628424Y-23867979D01*
X2628435Y-23867982D01*
X2875435Y-23900500D01*
X2875439Y-23900500D01*
X3124561Y-23900500D01*
X3124565Y-23900500D01*
X3371565Y-23867982D01*
X3443056Y-23848825D01*
X3612200Y-23803504D01*
X3612200Y-23803503D01*
X3612207Y-23803502D01*
X3842373Y-23708164D01*
X4058127Y-23583599D01*
X4255776Y-23431938D01*
X4431938Y-23255776D01*
X4583599Y-23058127D01*
X4705337Y-22847269D01*
X11399500Y-22847269D01*
X11399500Y-22952730D01*
X11426792Y-23054585D01*
X11426793Y-23054589D01*
X11467640Y-23125336D01*
X11479520Y-23145913D01*
X11554087Y-23220480D01*
X11587513Y-23239778D01*
X11645410Y-23273206D01*
X11645412Y-23273206D01*
X11645413Y-23273207D01*
X11725747Y-23294732D01*
X11747269Y-23300499D01*
X11747270Y-23300500D01*
X11747273Y-23300500D01*
X11852730Y-23300500D01*
X11852730Y-23300499D01*
X11954587Y-23273207D01*
X12045913Y-23220480D01*
X12101541Y-23164852D01*
X12136189Y-23150500D01*
X37349826Y-23150500D01*
X37349828Y-23150500D01*
X37441897Y-23112364D01*
X37441901Y-23112359D01*
X37445913Y-23109681D01*
X37447209Y-23111621D01*
X37474058Y-23100500D01*
X37552730Y-23100500D01*
X37552730Y-23100499D01*
X37654587Y-23073207D01*
X37745913Y-23020480D01*
X37820480Y-22945913D01*
X37873207Y-22854587D01*
X37900499Y-22752730D01*
X37900500Y-22752730D01*
X37900500Y-22647270D01*
X37900499Y-22647269D01*
X37873207Y-22545414D01*
X37873206Y-22545410D01*
X37820479Y-22454086D01*
X37745913Y-22379520D01*
X37654589Y-22326793D01*
X37654585Y-22326792D01*
X37552730Y-22299500D01*
X37552727Y-22299500D01*
X37447273Y-22299500D01*
X37447270Y-22299500D01*
X37345414Y-22326792D01*
X37345410Y-22326793D01*
X37254086Y-22379520D01*
X37254086Y-22379521D01*
X37179521Y-22454086D01*
X37179520Y-22454086D01*
X37126793Y-22545410D01*
X37126792Y-22545414D01*
X37108634Y-22613182D01*
X37085804Y-22642935D01*
X37061304Y-22649500D01*
X12136189Y-22649500D01*
X12101541Y-22635148D01*
X12045913Y-22579520D01*
X11954589Y-22526793D01*
X11954585Y-22526792D01*
X11852730Y-22499500D01*
X11852727Y-22499500D01*
X11747273Y-22499500D01*
X11747270Y-22499500D01*
X11645414Y-22526792D01*
X11645410Y-22526793D01*
X11554086Y-22579520D01*
X11554086Y-22579521D01*
X11479521Y-22654086D01*
X11479520Y-22654086D01*
X11426793Y-22745410D01*
X11426792Y-22745414D01*
X11399500Y-22847269D01*
X4705337Y-22847269D01*
X4708164Y-22842373D01*
X4803502Y-22612207D01*
X4812261Y-22579520D01*
X4867979Y-22371576D01*
X4867978Y-22371576D01*
X4867982Y-22371565D01*
X4900500Y-22124565D01*
X4900500Y-21875435D01*
X4867982Y-21628435D01*
X4864175Y-21614228D01*
X4803504Y-21387799D01*
X4803500Y-21387789D01*
X4708164Y-21157627D01*
X4583599Y-20941873D01*
X4583596Y-20941869D01*
X4583590Y-20941860D01*
X4431942Y-20744229D01*
X4431932Y-20744217D01*
X4255782Y-20568067D01*
X4255770Y-20568057D01*
X4058139Y-20416409D01*
X4058124Y-20416399D01*
X3935173Y-20345414D01*
X3842373Y-20291836D01*
X3641979Y-20208830D01*
X3612210Y-20196499D01*
X3612200Y-20196495D01*
X3371576Y-20132020D01*
X3371569Y-20132019D01*
X3371565Y-20132018D01*
X3124565Y-20099500D01*
X2875435Y-20099500D01*
X2628435Y-20132018D01*
X2628431Y-20132018D01*
X2628423Y-20132020D01*
X2387799Y-20196495D01*
X2387789Y-20196499D01*
X2269709Y-20245410D01*
X2157627Y-20291836D01*
X2157624Y-20291837D01*
X2157623Y-20291838D01*
X1941875Y-20416399D01*
X1941860Y-20416409D01*
X1744229Y-20568057D01*
X1744217Y-20568067D01*
X1568067Y-20744217D01*
X1568057Y-20744229D01*
X1416409Y-20941860D01*
X1416399Y-20941875D01*
X1291838Y-21157623D01*
X1291836Y-21157627D01*
X1285020Y-21174082D01*
X1196499Y-21387789D01*
X1196495Y-21387799D01*
X1132020Y-21628423D01*
X1132018Y-21628431D01*
X1132018Y-21628435D01*
X1099500Y-21875435D01*
X400500Y-21875435D01*
X400500Y-17801455D01*
X1534500Y-17801455D01*
X1534500Y-17998544D01*
X1572947Y-18191827D01*
X1572949Y-18191836D01*
X1606594Y-18273062D01*
X1648368Y-18373914D01*
X1757861Y-18537782D01*
X1897218Y-18677139D01*
X2061086Y-18786632D01*
X2243165Y-18862051D01*
X2436459Y-18900500D01*
X2633541Y-18900500D01*
X2826835Y-18862051D01*
X3008914Y-18786632D01*
X3172782Y-18677139D01*
X3312139Y-18537782D01*
X3421632Y-18373914D01*
X3497051Y-18191835D01*
X3535500Y-17998541D01*
X3535500Y-17801459D01*
X3497051Y-17608165D01*
X3421632Y-17426086D01*
X3312139Y-17262218D01*
X3172782Y-17122861D01*
X3160725Y-17114805D01*
X3119857Y-17087498D01*
X3041552Y-17035176D01*
X4074500Y-17035176D01*
X4074500Y-18764823D01*
X4083232Y-18808721D01*
X4116495Y-18858504D01*
X4164909Y-18890852D01*
X4166278Y-18891767D01*
X4210180Y-18900500D01*
X5939820Y-18900500D01*
X5983722Y-18891767D01*
X6033504Y-18858504D01*
X6066767Y-18808722D01*
X6075500Y-18764820D01*
X6075500Y-17035180D01*
X6066767Y-16991278D01*
X6063254Y-16986020D01*
X6033504Y-16941495D01*
X5983721Y-16908232D01*
X5939823Y-16899500D01*
X5939820Y-16899500D01*
X4210180Y-16899500D01*
X4210176Y-16899500D01*
X4166278Y-16908232D01*
X4116495Y-16941495D01*
X4083232Y-16991278D01*
X4074500Y-17035176D01*
X3041552Y-17035176D01*
X3008914Y-17013368D01*
X3008911Y-17013366D01*
X3008910Y-17013366D01*
X2826836Y-16937949D01*
X2826827Y-16937947D01*
X2633544Y-16899500D01*
X2633541Y-16899500D01*
X2436459Y-16899500D01*
X2436455Y-16899500D01*
X2243172Y-16937947D01*
X2243163Y-16937949D01*
X2061089Y-17013366D01*
X1897218Y-17122860D01*
X1757860Y-17262218D01*
X1648366Y-17426089D01*
X1572949Y-17608163D01*
X1572947Y-17608172D01*
X1534500Y-17801455D01*
X400500Y-17801455D01*
X400500Y-13514230D01*
X5624500Y-13514230D01*
X5624500Y-13665769D01*
X5663718Y-13812133D01*
X5663719Y-13812137D01*
X5739485Y-13943365D01*
X5846635Y-14050515D01*
X5894666Y-14078246D01*
X5977862Y-14126280D01*
X5977864Y-14126280D01*
X5977865Y-14126281D01*
X6083498Y-14154585D01*
X6124230Y-14165499D01*
X6124231Y-14165500D01*
X6124234Y-14165500D01*
X6275769Y-14165500D01*
X6275769Y-14165499D01*
X6422135Y-14126281D01*
X6553365Y-14050515D01*
X6660515Y-13943365D01*
X6736281Y-13812135D01*
X6775499Y-13665769D01*
X6775500Y-13665769D01*
X6775500Y-13514231D01*
X6775499Y-13514230D01*
X6744160Y-13397270D01*
X6736281Y-13367865D01*
X6736280Y-13367864D01*
X6736280Y-13367862D01*
X6666657Y-13247273D01*
X6660515Y-13236635D01*
X6553365Y-13129485D01*
X6526217Y-13113811D01*
X6422137Y-13053719D01*
X6422133Y-13053718D01*
X6275769Y-13014500D01*
X6275766Y-13014500D01*
X6124234Y-13014500D01*
X6124231Y-13014500D01*
X5977866Y-13053718D01*
X5977862Y-13053719D01*
X5846634Y-13129485D01*
X5846634Y-13129486D01*
X5739486Y-13236634D01*
X5739485Y-13236634D01*
X5663719Y-13367862D01*
X5663718Y-13367866D01*
X5624500Y-13514230D01*
X400500Y-13514230D01*
X400500Y-10147269D01*
X7899500Y-10147269D01*
X7899500Y-10252730D01*
X7926792Y-10354585D01*
X7926793Y-10354589D01*
X7979520Y-10445913D01*
X8054086Y-10520479D01*
X8055328Y-10521432D01*
X8055722Y-10522115D01*
X8056358Y-10522751D01*
X8056187Y-10522921D01*
X8074081Y-10553910D01*
X8074500Y-10560307D01*
X8074500Y-10939692D01*
X8060148Y-10974340D01*
X8055335Y-10978562D01*
X8054087Y-10979519D01*
X7979521Y-11054086D01*
X7979520Y-11054086D01*
X7926793Y-11145410D01*
X7926792Y-11145414D01*
X7899500Y-11247269D01*
X7899500Y-11352730D01*
X7926792Y-11454585D01*
X7926793Y-11454589D01*
X7964836Y-11520480D01*
X7979520Y-11545913D01*
X8054087Y-11620480D01*
X8087513Y-11639778D01*
X8145410Y-11673206D01*
X8145412Y-11673206D01*
X8145413Y-11673207D01*
X8225747Y-11694732D01*
X8247269Y-11700499D01*
X8247270Y-11700500D01*
X8247273Y-11700500D01*
X8352730Y-11700500D01*
X8352730Y-11700499D01*
X8454587Y-11673207D01*
X8545913Y-11620480D01*
X8620480Y-11545913D01*
X8673207Y-11454587D01*
X8700499Y-11352730D01*
X8700500Y-11352730D01*
X8700500Y-11247270D01*
X8700499Y-11247269D01*
X8673705Y-11147271D01*
X8673207Y-11145413D01*
X8673206Y-11145412D01*
X8673206Y-11145410D01*
X8620479Y-11054086D01*
X8545912Y-10979519D01*
X8544665Y-10978562D01*
X8544269Y-10977876D01*
X8543642Y-10977249D01*
X8543810Y-10977080D01*
X8525918Y-10946081D01*
X8525500Y-10939692D01*
X8525500Y-10560307D01*
X8539852Y-10525659D01*
X8544672Y-10521432D01*
X8545907Y-10520483D01*
X8545913Y-10520480D01*
X8620480Y-10445913D01*
X8673207Y-10354587D01*
X8700499Y-10252730D01*
X8700500Y-10252730D01*
X8700500Y-10147270D01*
X8700499Y-10147269D01*
X8673207Y-10045414D01*
X8673206Y-10045410D01*
X8639778Y-9987513D01*
X8620480Y-9954087D01*
X8545913Y-9879520D01*
X8454589Y-9826793D01*
X8454585Y-9826792D01*
X8352730Y-9799500D01*
X8352727Y-9799500D01*
X8247273Y-9799500D01*
X8247270Y-9799500D01*
X8145414Y-9826792D01*
X8145410Y-9826793D01*
X8054086Y-9879520D01*
X8054086Y-9879521D01*
X7979521Y-9954086D01*
X7979520Y-9954086D01*
X7926793Y-10045410D01*
X7926792Y-10045414D01*
X7899500Y-10147269D01*
X400500Y-10147269D01*
X400500Y-8447269D01*
X7799500Y-8447269D01*
X7799500Y-8552730D01*
X7826792Y-8654585D01*
X7826793Y-8654589D01*
X7857283Y-8707398D01*
X7879520Y-8745913D01*
X7954087Y-8820480D01*
X7975000Y-8832554D01*
X8045410Y-8873206D01*
X8045412Y-8873206D01*
X8045413Y-8873207D01*
X8125747Y-8894732D01*
X8147269Y-8900499D01*
X8147270Y-8900500D01*
X8147273Y-8900500D01*
X8252730Y-8900500D01*
X8252730Y-8900499D01*
X8354587Y-8873207D01*
X8445913Y-8820480D01*
X8465352Y-8801041D01*
X8500000Y-8786689D01*
X8534648Y-8801041D01*
X8554087Y-8820480D01*
X8575000Y-8832554D01*
X8645410Y-8873206D01*
X8645412Y-8873206D01*
X8645413Y-8873207D01*
X8725747Y-8894732D01*
X8747269Y-8900499D01*
X8747270Y-8900500D01*
X8747273Y-8900500D01*
X8852730Y-8900500D01*
X8852730Y-8900499D01*
X8954587Y-8873207D01*
X9045913Y-8820480D01*
X9077854Y-8788537D01*
X9112500Y-8774187D01*
X9112501Y-8774187D01*
X9119304Y-8777005D01*
X9147147Y-8788537D01*
X9147149Y-8788539D01*
X9160148Y-8801538D01*
X9174500Y-8836186D01*
X9174500Y-14186298D01*
X9160148Y-14220946D01*
X9095322Y-14285771D01*
X9060674Y-14300123D01*
X9054283Y-14299704D01*
X9052732Y-14299500D01*
X9052727Y-14299500D01*
X8947273Y-14299500D01*
X8947270Y-14299500D01*
X8845414Y-14326792D01*
X8845410Y-14326793D01*
X8754086Y-14379520D01*
X8754086Y-14379521D01*
X8679521Y-14454086D01*
X8679520Y-14454086D01*
X8626793Y-14545410D01*
X8626792Y-14545414D01*
X8599500Y-14647269D01*
X8599500Y-14752732D01*
X8599704Y-14754283D01*
X8599500Y-14755044D01*
X8599500Y-14755938D01*
X8599260Y-14755938D01*
X8598828Y-14757547D01*
X8600123Y-14760672D01*
X8594080Y-14775262D01*
X8589994Y-14790507D01*
X8585773Y-14795321D01*
X8572265Y-14808829D01*
X8508831Y-14872262D01*
X8508827Y-14872267D01*
X8507906Y-14874494D01*
X8507904Y-14874500D01*
X8474009Y-14956326D01*
X8456052Y-14976808D01*
X8456634Y-14977566D01*
X8454086Y-14979521D01*
X8379521Y-15054086D01*
X8379520Y-15054086D01*
X8326793Y-15145410D01*
X8326792Y-15145414D01*
X8299500Y-15247269D01*
X8299500Y-15352730D01*
X8326792Y-15454585D01*
X8326793Y-15454589D01*
X8379520Y-15545913D01*
X8398959Y-15565352D01*
X8413311Y-15600000D01*
X8398959Y-15634648D01*
X8379521Y-15654086D01*
X8379520Y-15654086D01*
X8326793Y-15745410D01*
X8326792Y-15745414D01*
X8299500Y-15847269D01*
X8299500Y-15952730D01*
X8326792Y-16054585D01*
X8326793Y-16054589D01*
X8368075Y-16126090D01*
X8379520Y-16145913D01*
X8454087Y-16220480D01*
X8487513Y-16239778D01*
X8545410Y-16273206D01*
X8545412Y-16273206D01*
X8545413Y-16273207D01*
X8625747Y-16294732D01*
X8647269Y-16300499D01*
X8647270Y-16300500D01*
X8647273Y-16300500D01*
X8752730Y-16300500D01*
X8752730Y-16300499D01*
X8854587Y-16273207D01*
X8945913Y-16220480D01*
X9020480Y-16145913D01*
X9073207Y-16054587D01*
X9100499Y-15952730D01*
X9100500Y-15952730D01*
X9100500Y-15847270D01*
X9100499Y-15847269D01*
X9091532Y-15813805D01*
X9073207Y-15745413D01*
X9073206Y-15745412D01*
X9073206Y-15745410D01*
X9021092Y-15655147D01*
X9020480Y-15654087D01*
X9001041Y-15634648D01*
X8986689Y-15600000D01*
X9001041Y-15565352D01*
X9020479Y-15545914D01*
X9020480Y-15545913D01*
X9073207Y-15454587D01*
X9100499Y-15352730D01*
X9100500Y-15352730D01*
X9100500Y-15247270D01*
X9100499Y-15247269D01*
X9073289Y-15145719D01*
X9078184Y-15108537D01*
X9107937Y-15085707D01*
X9132948Y-15079004D01*
X9154587Y-15073207D01*
X9245913Y-15020480D01*
X9320480Y-14945913D01*
X9373207Y-14854587D01*
X9400499Y-14752730D01*
X9400500Y-14752730D01*
X9400500Y-14647269D01*
X9400296Y-14645721D01*
X9400500Y-14644959D01*
X9400500Y-14644061D01*
X9400741Y-14644061D01*
X9410000Y-14609496D01*
X9414212Y-14604691D01*
X9591170Y-14427736D01*
X9625500Y-14344855D01*
X9625500Y-14255146D01*
X9625500Y-9247269D01*
X10399500Y-9247269D01*
X10399500Y-9352730D01*
X10426792Y-9454585D01*
X10426793Y-9454589D01*
X10464173Y-9519332D01*
X10479520Y-9545913D01*
X10554087Y-9620480D01*
X10587513Y-9639778D01*
X10645410Y-9673206D01*
X10645412Y-9673206D01*
X10645413Y-9673207D01*
X10683380Y-9683380D01*
X10747269Y-9700499D01*
X10747270Y-9700500D01*
X10850500Y-9700500D01*
X10885148Y-9714852D01*
X10899500Y-9749500D01*
X10899500Y-9852730D01*
X10926792Y-9954585D01*
X10926793Y-9954589D01*
X10979230Y-10045410D01*
X10979520Y-10045913D01*
X11054087Y-10120480D01*
X11061050Y-10124500D01*
X11145410Y-10173206D01*
X11145412Y-10173206D01*
X11145413Y-10173207D01*
X11172986Y-10180595D01*
X11247269Y-10200499D01*
X11247270Y-10200500D01*
X11247273Y-10200500D01*
X11352730Y-10200500D01*
X11352730Y-10200499D01*
X11454587Y-10173207D01*
X11545913Y-10120480D01*
X11620480Y-10045913D01*
X11673207Y-9954587D01*
X11700499Y-9852730D01*
X11700500Y-9852730D01*
X11700500Y-9747270D01*
X11700499Y-9747269D01*
X11680654Y-9673206D01*
X11673207Y-9645413D01*
X11673206Y-9645412D01*
X11673206Y-9645410D01*
X11637811Y-9584105D01*
X11620480Y-9554087D01*
X11620479Y-9554086D01*
X11618874Y-9551306D01*
X11620252Y-9550510D01*
X11611891Y-9519332D01*
X11625823Y-9491071D01*
X12487044Y-8629852D01*
X12521692Y-8615500D01*
X13547298Y-8615500D01*
X13581946Y-8629852D01*
X13596298Y-8664500D01*
X13581946Y-8699148D01*
X12495322Y-9785771D01*
X12460674Y-9800123D01*
X12454283Y-9799704D01*
X12452732Y-9799500D01*
X12452727Y-9799500D01*
X12347273Y-9799500D01*
X12347270Y-9799500D01*
X12245414Y-9826792D01*
X12245410Y-9826793D01*
X12154086Y-9879520D01*
X12154086Y-9879521D01*
X12079521Y-9954086D01*
X12079520Y-9954086D01*
X12026793Y-10045410D01*
X12026792Y-10045414D01*
X11999500Y-10147269D01*
X11999500Y-10252730D01*
X12026792Y-10354585D01*
X12026793Y-10354589D01*
X12068171Y-10426256D01*
X12079520Y-10445913D01*
X12154087Y-10520480D01*
X12177210Y-10533830D01*
X12245410Y-10573206D01*
X12245412Y-10573206D01*
X12245413Y-10573207D01*
X12325747Y-10594732D01*
X12347269Y-10600499D01*
X12347270Y-10600500D01*
X12450500Y-10600500D01*
X12485148Y-10614852D01*
X12499500Y-10649500D01*
X12499500Y-10752730D01*
X12526792Y-10854585D01*
X12526793Y-10854589D01*
X12571903Y-10932720D01*
X12579520Y-10945913D01*
X12654087Y-11020480D01*
X12687513Y-11039778D01*
X12745410Y-11073206D01*
X12745412Y-11073206D01*
X12745413Y-11073207D01*
X12825747Y-11094732D01*
X12847269Y-11100499D01*
X12847270Y-11100500D01*
X12847273Y-11100500D01*
X12952730Y-11100500D01*
X12952730Y-11100499D01*
X13054587Y-11073207D01*
X13145913Y-11020480D01*
X13220480Y-10945913D01*
X13273207Y-10854587D01*
X13300499Y-10752730D01*
X13300500Y-10752730D01*
X13300500Y-10647270D01*
X13300499Y-10647269D01*
X13287967Y-10600499D01*
X13273207Y-10545413D01*
X13273206Y-10545412D01*
X13273206Y-10545410D01*
X13238413Y-10485148D01*
X13220480Y-10454087D01*
X13220478Y-10454085D01*
X13218905Y-10451360D01*
X13214010Y-10414178D01*
X13226690Y-10392214D01*
X13904676Y-9714227D01*
X13939323Y-9699876D01*
X13945721Y-9700296D01*
X13947270Y-9700500D01*
X13947273Y-9700500D01*
X14052730Y-9700500D01*
X14052730Y-9700499D01*
X14154587Y-9673207D01*
X14245913Y-9620480D01*
X14320480Y-9545913D01*
X14373207Y-9454587D01*
X14392022Y-9384366D01*
X14414852Y-9354614D01*
X14452034Y-9349719D01*
X14452035Y-9349719D01*
X14460434Y-9351969D01*
X14467305Y-9353811D01*
X14467306Y-9353811D01*
X14572763Y-9353811D01*
X14572763Y-9353810D01*
X14674620Y-9326518D01*
X14765946Y-9273791D01*
X14840513Y-9199224D01*
X14893240Y-9107898D01*
X14920532Y-9006041D01*
X14920533Y-9006041D01*
X14920533Y-8900581D01*
X14920532Y-8900580D01*
X14907108Y-8850480D01*
X14893240Y-8798724D01*
X14893239Y-8798723D01*
X14893239Y-8798721D01*
X14840512Y-8707397D01*
X14832263Y-8699148D01*
X14817911Y-8664500D01*
X14832263Y-8629852D01*
X14866911Y-8615500D01*
X17433944Y-8615500D01*
X17468592Y-8629852D01*
X17481274Y-8651817D01*
X17490055Y-8684587D01*
X17490055Y-8684589D01*
X17537286Y-8766393D01*
X17542782Y-8775913D01*
X17617349Y-8850480D01*
X17650775Y-8869778D01*
X17708672Y-8903206D01*
X17708674Y-8903206D01*
X17708675Y-8903207D01*
X17789009Y-8924732D01*
X17810531Y-8930499D01*
X17810532Y-8930500D01*
X17810535Y-8930500D01*
X17915992Y-8930500D01*
X17915992Y-8930499D01*
X18017849Y-8903207D01*
X18022398Y-8900581D01*
X18066722Y-8874990D01*
X18109175Y-8850480D01*
X18183742Y-8775913D01*
X18236469Y-8684587D01*
X18263761Y-8582730D01*
X18263762Y-8582730D01*
X18263762Y-8477270D01*
X18263761Y-8477269D01*
X18239172Y-8385500D01*
X18236469Y-8375413D01*
X18236468Y-8375412D01*
X18236468Y-8375410D01*
X18202332Y-8316286D01*
X18183742Y-8284087D01*
X18144740Y-8245085D01*
X18130388Y-8210437D01*
X18144740Y-8175789D01*
X18169454Y-8151075D01*
X18169455Y-8151074D01*
X18222182Y-8059748D01*
X18249474Y-7957891D01*
X18249475Y-7957891D01*
X18249475Y-7852431D01*
X18249474Y-7852430D01*
X18243707Y-7830908D01*
X18222182Y-7750574D01*
X18222181Y-7750573D01*
X18222181Y-7750571D01*
X18169454Y-7659247D01*
X18094888Y-7584681D01*
X18003564Y-7531954D01*
X18003560Y-7531953D01*
X17901705Y-7504661D01*
X17901702Y-7504661D01*
X17796248Y-7504661D01*
X17796245Y-7504661D01*
X17694389Y-7531953D01*
X17694385Y-7531954D01*
X17603061Y-7584681D01*
X17603061Y-7584682D01*
X17528496Y-7659247D01*
X17528495Y-7659247D01*
X17475768Y-7750571D01*
X17475767Y-7750574D01*
X17449614Y-7848182D01*
X17426784Y-7877935D01*
X17402284Y-7884500D01*
X12248228Y-7884500D01*
X12223417Y-7894778D01*
X12223416Y-7894778D01*
X12163511Y-7919591D01*
X12163509Y-7919592D01*
X12098671Y-7984432D01*
X12098670Y-7984433D01*
X11108929Y-8974173D01*
X11074281Y-8988525D01*
X11049314Y-8980050D01*
X11048694Y-8981126D01*
X11045913Y-8979520D01*
X11016778Y-8962699D01*
X10954589Y-8926793D01*
X10954585Y-8926792D01*
X10852730Y-8899500D01*
X10852727Y-8899500D01*
X10747273Y-8899500D01*
X10747270Y-8899500D01*
X10645414Y-8926792D01*
X10645410Y-8926793D01*
X10554086Y-8979520D01*
X10554086Y-8979521D01*
X10479521Y-9054086D01*
X10479520Y-9054086D01*
X10426793Y-9145410D01*
X10426792Y-9145414D01*
X10399500Y-9247269D01*
X9625500Y-9247269D01*
X9625500Y-8874990D01*
X9639852Y-8840342D01*
X9650002Y-8832554D01*
X9670909Y-8820484D01*
X9670908Y-8820484D01*
X9670916Y-8820480D01*
X9745483Y-8745913D01*
X9798210Y-8654587D01*
X9825502Y-8552730D01*
X9825503Y-8552730D01*
X9825503Y-8447270D01*
X9825502Y-8447269D01*
X9811934Y-8396631D01*
X9798210Y-8345413D01*
X9798209Y-8345412D01*
X9798209Y-8345410D01*
X9762803Y-8284086D01*
X9745483Y-8254087D01*
X9670916Y-8179520D01*
X9664454Y-8175789D01*
X9579592Y-8126793D01*
X9579588Y-8126792D01*
X9477733Y-8099500D01*
X9477730Y-8099500D01*
X9372276Y-8099500D01*
X9372273Y-8099500D01*
X9270417Y-8126792D01*
X9270413Y-8126793D01*
X9179091Y-8179519D01*
X9147149Y-8211461D01*
X9112500Y-8225812D01*
X9077853Y-8211460D01*
X9045913Y-8179520D01*
X8954589Y-8126793D01*
X8954585Y-8126792D01*
X8852730Y-8099500D01*
X8852727Y-8099500D01*
X8747273Y-8099500D01*
X8747270Y-8099500D01*
X8645414Y-8126792D01*
X8645410Y-8126793D01*
X8554086Y-8179520D01*
X8554086Y-8179521D01*
X8534648Y-8198959D01*
X8500000Y-8213311D01*
X8465352Y-8198959D01*
X8445913Y-8179520D01*
X8354589Y-8126793D01*
X8354585Y-8126792D01*
X8252730Y-8099500D01*
X8252727Y-8099500D01*
X8147273Y-8099500D01*
X8147270Y-8099500D01*
X8045414Y-8126792D01*
X8045410Y-8126793D01*
X7954086Y-8179520D01*
X7954086Y-8179521D01*
X7879521Y-8254086D01*
X7879520Y-8254086D01*
X7826793Y-8345410D01*
X7826792Y-8345414D01*
X7799500Y-8447269D01*
X400500Y-8447269D01*
X400500Y-7734230D01*
X5624500Y-7734230D01*
X5624500Y-7885769D01*
X5663718Y-8032133D01*
X5663719Y-8032137D01*
X5696786Y-8089409D01*
X5739485Y-8163365D01*
X5846635Y-8270515D01*
X5894666Y-8298246D01*
X5977862Y-8346280D01*
X5977864Y-8346280D01*
X5977865Y-8346281D01*
X6081524Y-8374056D01*
X6124230Y-8385499D01*
X6124231Y-8385500D01*
X6124234Y-8385500D01*
X6275769Y-8385500D01*
X6275769Y-8385499D01*
X6422135Y-8346281D01*
X6423639Y-8345413D01*
X6455891Y-8326792D01*
X6553365Y-8270515D01*
X6660515Y-8163365D01*
X6736281Y-8032135D01*
X6775499Y-7885769D01*
X6775500Y-7885769D01*
X6775500Y-7734231D01*
X6775499Y-7734230D01*
X6767212Y-7703303D01*
X6736281Y-7587865D01*
X6736280Y-7587864D01*
X6736280Y-7587862D01*
X6660514Y-7456634D01*
X6553365Y-7349485D01*
X6422137Y-7273719D01*
X6422133Y-7273718D01*
X6275769Y-7234500D01*
X6275766Y-7234500D01*
X6124234Y-7234500D01*
X6124231Y-7234500D01*
X5977866Y-7273718D01*
X5977862Y-7273719D01*
X5846634Y-7349485D01*
X5846634Y-7349486D01*
X5739486Y-7456634D01*
X5739485Y-7456634D01*
X5663719Y-7587862D01*
X5663718Y-7587866D01*
X5624500Y-7734230D01*
X400500Y-7734230D01*
X400500Y-3001375D01*
X400577Y-2998628D01*
X403461Y-2947273D01*
X407495Y-2875435D01*
X1099500Y-2875435D01*
X1099500Y-2913734D01*
X1099500Y-3124565D01*
X1132018Y-3371565D01*
X1132019Y-3371569D01*
X1132020Y-3371576D01*
X1196495Y-3612200D01*
X1196498Y-3612207D01*
X1291836Y-3842373D01*
X1325535Y-3900741D01*
X1416399Y-4058124D01*
X1416409Y-4058139D01*
X1568057Y-4255770D01*
X1568067Y-4255782D01*
X1744217Y-4431932D01*
X1744229Y-4431942D01*
X1941860Y-4583590D01*
X1941869Y-4583596D01*
X1941873Y-4583599D01*
X2157627Y-4708164D01*
X2387793Y-4803502D01*
X2387796Y-4803502D01*
X2387799Y-4803504D01*
X2628423Y-4867979D01*
X2628424Y-4867979D01*
X2628435Y-4867982D01*
X2875435Y-4900500D01*
X2875439Y-4900500D01*
X3124561Y-4900500D01*
X3124565Y-4900500D01*
X3371565Y-4867982D01*
X3612207Y-4803502D01*
X3842373Y-4708164D01*
X4058127Y-4583599D01*
X4255776Y-4431938D01*
X4431938Y-4255776D01*
X4583599Y-4058127D01*
X4708164Y-3842373D01*
X4803502Y-3612207D01*
X4867982Y-3371565D01*
X4900500Y-3124565D01*
X4900500Y-2875435D01*
X4868869Y-2635176D01*
X7124500Y-2635176D01*
X7124500Y-4364823D01*
X7133232Y-4408721D01*
X7166495Y-4458504D01*
X7216278Y-4491767D01*
X7260180Y-4500500D01*
X8750943Y-4500500D01*
X8785591Y-4514852D01*
X11580822Y-7310082D01*
X11580825Y-7310086D01*
X11654082Y-7383344D01*
X11654084Y-7383345D01*
X11654085Y-7383346D01*
X11684425Y-7395913D01*
X11746155Y-7421483D01*
X11746157Y-7421483D01*
X11851511Y-7421483D01*
X11851519Y-7421482D01*
X15367126Y-7421482D01*
X15401774Y-7435834D01*
X15409561Y-7445981D01*
X15410490Y-7447591D01*
X15410492Y-7447593D01*
X15410493Y-7447595D01*
X15494369Y-7531471D01*
X15569567Y-7574887D01*
X15586530Y-7584681D01*
X15597096Y-7590781D01*
X15625740Y-7598456D01*
X15711670Y-7621482D01*
X15711673Y-7621482D01*
X15830293Y-7621482D01*
X15908596Y-7600500D01*
X15944868Y-7590781D01*
X16047595Y-7531471D01*
X16131471Y-7447595D01*
X16131478Y-7447582D01*
X16131757Y-7447220D01*
X16131967Y-7447098D01*
X16133742Y-7445324D01*
X16134216Y-7445798D01*
X16164230Y-7428459D01*
X16200458Y-7438155D01*
X16205288Y-7442390D01*
X16273387Y-7510489D01*
X16376114Y-7569799D01*
X16404758Y-7577474D01*
X16490688Y-7600500D01*
X16490691Y-7600500D01*
X16609311Y-7600500D01*
X16668346Y-7584681D01*
X16723886Y-7569799D01*
X16826613Y-7510489D01*
X16910489Y-7426613D01*
X16969799Y-7323886D01*
X16993750Y-7234500D01*
X17000500Y-7209311D01*
X17000500Y-7090688D01*
X16971316Y-6981776D01*
X16969799Y-6976114D01*
X16910489Y-6873387D01*
X16871250Y-6834148D01*
X16856898Y-6799500D01*
X16871250Y-6764852D01*
X16905898Y-6750500D01*
X18375943Y-6750500D01*
X18410591Y-6764852D01*
X19735148Y-8089409D01*
X19749500Y-8124057D01*
X19749500Y-11375943D01*
X19735148Y-11410591D01*
X18610591Y-12535148D01*
X18575943Y-12549500D01*
X17236189Y-12549500D01*
X17201541Y-12535148D01*
X17145913Y-12479520D01*
X17054589Y-12426793D01*
X17054585Y-12426792D01*
X16952730Y-12399500D01*
X16952727Y-12399500D01*
X16847273Y-12399500D01*
X16847270Y-12399500D01*
X16745414Y-12426792D01*
X16745410Y-12426793D01*
X16654086Y-12479520D01*
X16654086Y-12479521D01*
X16598459Y-12535148D01*
X16563811Y-12549500D01*
X15636189Y-12549500D01*
X15601541Y-12535148D01*
X15545913Y-12479520D01*
X15454589Y-12426793D01*
X15454585Y-12426792D01*
X15352730Y-12399500D01*
X15352727Y-12399500D01*
X15247273Y-12399500D01*
X15247270Y-12399500D01*
X15145414Y-12426792D01*
X15145410Y-12426793D01*
X15054086Y-12479520D01*
X15054086Y-12479521D01*
X14979521Y-12554086D01*
X14979520Y-12554086D01*
X14926793Y-12645410D01*
X14926792Y-12645414D01*
X14899500Y-12747269D01*
X14899500Y-12852730D01*
X14902388Y-12863508D01*
X14897493Y-12900690D01*
X14867740Y-12923520D01*
X14842376Y-12923520D01*
X14752730Y-12899500D01*
X14752727Y-12899500D01*
X14647273Y-12899500D01*
X14647270Y-12899500D01*
X14545414Y-12926792D01*
X14545410Y-12926793D01*
X14454088Y-12979519D01*
X14422146Y-13011461D01*
X14387497Y-13025812D01*
X14352850Y-13011460D01*
X14320910Y-12979520D01*
X14229586Y-12926793D01*
X14229582Y-12926792D01*
X14127727Y-12899500D01*
X14127724Y-12899500D01*
X14022270Y-12899500D01*
X14022267Y-12899500D01*
X13920411Y-12926792D01*
X13920407Y-12926793D01*
X13829085Y-12979519D01*
X13772146Y-13036458D01*
X13737498Y-13050809D01*
X13702850Y-13036457D01*
X13645913Y-12979520D01*
X13554589Y-12926793D01*
X13554585Y-12926792D01*
X13452730Y-12899500D01*
X13452727Y-12899500D01*
X13347273Y-12899500D01*
X13347270Y-12899500D01*
X13245414Y-12926792D01*
X13245410Y-12926793D01*
X13154088Y-12979519D01*
X13122146Y-13011461D01*
X13087497Y-13025812D01*
X13052850Y-13011460D01*
X13020910Y-12979520D01*
X12929586Y-12926793D01*
X12929582Y-12926792D01*
X12827727Y-12899500D01*
X12827724Y-12899500D01*
X12722270Y-12899500D01*
X12722267Y-12899500D01*
X12620411Y-12926792D01*
X12620407Y-12926793D01*
X12529083Y-12979520D01*
X12529083Y-12979521D01*
X12454518Y-13054086D01*
X12454517Y-13054086D01*
X12401790Y-13145410D01*
X12401789Y-13145414D01*
X12374497Y-13247269D01*
X12374497Y-13352730D01*
X12399691Y-13446754D01*
X12394796Y-13483936D01*
X12387009Y-13494084D01*
X11285499Y-14595595D01*
X11222064Y-14659029D01*
X11218334Y-14668035D01*
X11218333Y-14668034D01*
X11218332Y-14668040D01*
X11216434Y-14672621D01*
X11205814Y-14688513D01*
X10647265Y-15247063D01*
X10634148Y-15260180D01*
X10599500Y-15274532D01*
X10564852Y-15260180D01*
X10550500Y-15225532D01*
X10550500Y-14616949D01*
X10564851Y-14582302D01*
X14207547Y-10939605D01*
X14207617Y-10939576D01*
X14207647Y-10939505D01*
X14207649Y-10939503D01*
X14208429Y-10939240D01*
X14242194Y-10925254D01*
X14242338Y-10925254D01*
X14246399Y-10925265D01*
X14247273Y-10925500D01*
X14326087Y-10925500D01*
X14343375Y-10932720D01*
X14360591Y-10939852D01*
X15133100Y-11712362D01*
X15133101Y-11712362D01*
X15133103Y-11712364D01*
X15225172Y-11750500D01*
X15324828Y-11750500D01*
X17861304Y-11750500D01*
X17895952Y-11764852D01*
X17908634Y-11786818D01*
X17926792Y-11854585D01*
X17926793Y-11854589D01*
X17979520Y-11945913D01*
X18054087Y-12020480D01*
X18087513Y-12039778D01*
X18145410Y-12073206D01*
X18145412Y-12073206D01*
X18145413Y-12073207D01*
X18225747Y-12094732D01*
X18247269Y-12100499D01*
X18247270Y-12100500D01*
X18247273Y-12100500D01*
X18352730Y-12100500D01*
X18352730Y-12100499D01*
X18454587Y-12073207D01*
X18545913Y-12020480D01*
X18620480Y-11945913D01*
X18673207Y-11854587D01*
X18700499Y-11752730D01*
X18700500Y-11752730D01*
X18700500Y-11647270D01*
X18700499Y-11647269D01*
X18674390Y-11549828D01*
X18673207Y-11545413D01*
X18673206Y-11545412D01*
X18673206Y-11545410D01*
X18639778Y-11487513D01*
X18620480Y-11454087D01*
X18545913Y-11379520D01*
X18454589Y-11326793D01*
X18454585Y-11326792D01*
X18352730Y-11299500D01*
X18352727Y-11299500D01*
X18274058Y-11299500D01*
X18247209Y-11288378D01*
X18245913Y-11290319D01*
X18241898Y-11287637D01*
X18241897Y-11287636D01*
X18187965Y-11265296D01*
X18149829Y-11249500D01*
X18149828Y-11249500D01*
X15399057Y-11249500D01*
X15364409Y-11235148D01*
X14714852Y-10585591D01*
X14700500Y-10550943D01*
X14700500Y-10547269D01*
X15499500Y-10547269D01*
X15499500Y-10652730D01*
X15526792Y-10754585D01*
X15526793Y-10754589D01*
X15568481Y-10826793D01*
X15579520Y-10845913D01*
X15654087Y-10920480D01*
X15686580Y-10939240D01*
X15745410Y-10973206D01*
X15745412Y-10973206D01*
X15745413Y-10973207D01*
X15768974Y-10979520D01*
X15847269Y-11000499D01*
X15847270Y-11000500D01*
X15847273Y-11000500D01*
X15952730Y-11000500D01*
X15952730Y-11000499D01*
X16054587Y-10973207D01*
X16082546Y-10957065D01*
X16107046Y-10950500D01*
X18611299Y-10950500D01*
X18645947Y-10964852D01*
X18785771Y-11104676D01*
X18800123Y-11139324D01*
X18799705Y-11145712D01*
X18799500Y-11147271D01*
X18799500Y-11252730D01*
X18826792Y-11354585D01*
X18826793Y-11354589D01*
X18879520Y-11445913D01*
X18954087Y-11520480D01*
X18987513Y-11539778D01*
X19045410Y-11573206D01*
X19045412Y-11573206D01*
X19045413Y-11573207D01*
X19125747Y-11594732D01*
X19147269Y-11600499D01*
X19147270Y-11600500D01*
X19147273Y-11600500D01*
X19252730Y-11600500D01*
X19252730Y-11600499D01*
X19354587Y-11573207D01*
X19445913Y-11520480D01*
X19520480Y-11445913D01*
X19573207Y-11354587D01*
X19600499Y-11252730D01*
X19600500Y-11252730D01*
X19600500Y-11147270D01*
X19600499Y-11147269D01*
X19573207Y-11045414D01*
X19573206Y-11045410D01*
X19534611Y-10978562D01*
X19520480Y-10954087D01*
X19445913Y-10879520D01*
X19354589Y-10826793D01*
X19354585Y-10826792D01*
X19252730Y-10799500D01*
X19252727Y-10799500D01*
X19147273Y-10799500D01*
X19147271Y-10799500D01*
X19145712Y-10799705D01*
X19144947Y-10799500D01*
X19144062Y-10799500D01*
X19144062Y-10799262D01*
X19109488Y-10789993D01*
X19104676Y-10785771D01*
X18923062Y-10604157D01*
X18923062Y-10604156D01*
X18852738Y-10533831D01*
X18852736Y-10533830D01*
X18820506Y-10520480D01*
X18769856Y-10499499D01*
X18769855Y-10499499D01*
X18680145Y-10499499D01*
X18674444Y-10499499D01*
X18674436Y-10499500D01*
X16325298Y-10499500D01*
X16290650Y-10485148D01*
X16277968Y-10463183D01*
X16273207Y-10445413D01*
X16255173Y-10414178D01*
X16229904Y-10370410D01*
X16220480Y-10354087D01*
X16145913Y-10279520D01*
X16145161Y-10279086D01*
X16054589Y-10226793D01*
X16054585Y-10226792D01*
X15952730Y-10199500D01*
X15952727Y-10199500D01*
X15847273Y-10199500D01*
X15847270Y-10199500D01*
X15745414Y-10226792D01*
X15745410Y-10226793D01*
X15654086Y-10279520D01*
X15654086Y-10279521D01*
X15579521Y-10354086D01*
X15579520Y-10354086D01*
X15526793Y-10445410D01*
X15526792Y-10445414D01*
X15499500Y-10547269D01*
X14700500Y-10547269D01*
X14700500Y-10472270D01*
X14700499Y-10472269D01*
X14673207Y-10370414D01*
X14673206Y-10370410D01*
X14639778Y-10312513D01*
X14620480Y-10279087D01*
X14545913Y-10204520D01*
X14538950Y-10200500D01*
X14454589Y-10151793D01*
X14454585Y-10151792D01*
X14352730Y-10124500D01*
X14352727Y-10124500D01*
X14247273Y-10124500D01*
X14247270Y-10124500D01*
X14145414Y-10151792D01*
X14145410Y-10151793D01*
X14054086Y-10204520D01*
X14054086Y-10204521D01*
X13979521Y-10279086D01*
X13979520Y-10279086D01*
X13926793Y-10370410D01*
X13926792Y-10370414D01*
X13899500Y-10472269D01*
X13899500Y-10518836D01*
X13885148Y-10553484D01*
X10158103Y-14280529D01*
X10087637Y-14350993D01*
X10087637Y-14350994D01*
X10087636Y-14350995D01*
X10087636Y-14350996D01*
X10085122Y-14357065D01*
X10049500Y-14443063D01*
X10049500Y-15813805D01*
X10035148Y-15848453D01*
X9979521Y-15904080D01*
X9979520Y-15904080D01*
X9926793Y-15995404D01*
X9926792Y-15995408D01*
X9899500Y-16097263D01*
X9899500Y-16202724D01*
X9926792Y-16304579D01*
X9926793Y-16304583D01*
X9979520Y-16395907D01*
X10011460Y-16427847D01*
X10025812Y-16462495D01*
X10011461Y-16497143D01*
X9979519Y-16529085D01*
X9926793Y-16620407D01*
X9926792Y-16620411D01*
X9899500Y-16722266D01*
X9899500Y-16827727D01*
X9926792Y-16929582D01*
X9926793Y-16929586D01*
X9979520Y-17020910D01*
X10011460Y-17052850D01*
X10025812Y-17087498D01*
X10011461Y-17122146D01*
X9979519Y-17154088D01*
X9926793Y-17245410D01*
X9926792Y-17245414D01*
X9899500Y-17347269D01*
X9899500Y-17452730D01*
X9926792Y-17554585D01*
X9926793Y-17554589D01*
X9979196Y-17645351D01*
X9979520Y-17645913D01*
X10054087Y-17720480D01*
X10087513Y-17739778D01*
X10145410Y-17773206D01*
X10145412Y-17773206D01*
X10145413Y-17773207D01*
X10194274Y-17786299D01*
X10247269Y-17800499D01*
X10247270Y-17800500D01*
X10247273Y-17800500D01*
X10352730Y-17800500D01*
X10352730Y-17800499D01*
X10454587Y-17773207D01*
X10476000Y-17760843D01*
X10513181Y-17755948D01*
X10542935Y-17778778D01*
X10549500Y-17803279D01*
X10549500Y-18026188D01*
X10549499Y-18026202D01*
X10549499Y-18119856D01*
X10572853Y-18176236D01*
X10583830Y-18202737D01*
X10654155Y-18273061D01*
X10654157Y-18273062D01*
X12308829Y-19927735D01*
X12308830Y-19927736D01*
X12372261Y-19991168D01*
X12372263Y-19991169D01*
X12372264Y-19991170D01*
X12424844Y-20012949D01*
X12451362Y-20039466D01*
X12451362Y-20076969D01*
X12440741Y-20092866D01*
X12379519Y-20154088D01*
X12326793Y-20245410D01*
X12326792Y-20245414D01*
X12299500Y-20347269D01*
X12299500Y-20452732D01*
X12299704Y-20454283D01*
X12299500Y-20455044D01*
X12299500Y-20455938D01*
X12299260Y-20455938D01*
X12289994Y-20490507D01*
X12285771Y-20495322D01*
X12197265Y-20583829D01*
X12133830Y-20647263D01*
X12133830Y-20647265D01*
X12099499Y-20730143D01*
X12099499Y-20825555D01*
X12099500Y-20825564D01*
X12099500Y-21247940D01*
X12099499Y-21247954D01*
X12099499Y-21341608D01*
X12123774Y-21400212D01*
X12133830Y-21424489D01*
X12204155Y-21494813D01*
X12204157Y-21494814D01*
X12634282Y-21924939D01*
X12634285Y-21924943D01*
X12700509Y-21991168D01*
X12700511Y-21991169D01*
X12700512Y-21991170D01*
X12783393Y-22025500D01*
X12873103Y-22025500D01*
X17749436Y-22025500D01*
X17749444Y-22025501D01*
X17755145Y-22025501D01*
X17844853Y-22025501D01*
X17844855Y-22025501D01*
X17906418Y-22000000D01*
X17927736Y-21991170D01*
X17991170Y-21927736D01*
X17991170Y-21927735D01*
X17998059Y-21920846D01*
X17998061Y-21920843D01*
X18304676Y-21614227D01*
X18339323Y-21599876D01*
X18345721Y-21600296D01*
X18347270Y-21600500D01*
X18347273Y-21600500D01*
X18452730Y-21600500D01*
X18452730Y-21600499D01*
X18554587Y-21573207D01*
X18558561Y-21570913D01*
X18586834Y-21554589D01*
X18645913Y-21520480D01*
X18720480Y-21445913D01*
X18773207Y-21354587D01*
X18797295Y-21264687D01*
X18820125Y-21234935D01*
X18857307Y-21230040D01*
X18879272Y-21242721D01*
X18978157Y-21341607D01*
X19064285Y-21427735D01*
X19064286Y-21427736D01*
X19127717Y-21491168D01*
X19127719Y-21491169D01*
X19127720Y-21491170D01*
X19210601Y-21525500D01*
X22686299Y-21525500D01*
X22720947Y-21539852D01*
X23085771Y-21904676D01*
X23100123Y-21939324D01*
X23099705Y-21945712D01*
X23099500Y-21947271D01*
X23099500Y-22052730D01*
X23126792Y-22154585D01*
X23126793Y-22154589D01*
X23140433Y-22178213D01*
X23179520Y-22245913D01*
X23254087Y-22320480D01*
X23287513Y-22339778D01*
X23345410Y-22373206D01*
X23345412Y-22373206D01*
X23345413Y-22373207D01*
X23425747Y-22394732D01*
X23447269Y-22400499D01*
X23447270Y-22400500D01*
X23447273Y-22400500D01*
X23552730Y-22400500D01*
X23552730Y-22400499D01*
X23654587Y-22373207D01*
X23745913Y-22320480D01*
X23820480Y-22245913D01*
X23873207Y-22154587D01*
X23900499Y-22052730D01*
X23900500Y-22052730D01*
X23900500Y-21947270D01*
X23900499Y-21947269D01*
X23873207Y-21845414D01*
X23873206Y-21845410D01*
X23820479Y-21754086D01*
X23745913Y-21679520D01*
X23654589Y-21626793D01*
X23654585Y-21626792D01*
X23552730Y-21599500D01*
X23552727Y-21599500D01*
X23447273Y-21599500D01*
X23447271Y-21599500D01*
X23445712Y-21599705D01*
X23444947Y-21599500D01*
X23444062Y-21599500D01*
X23444062Y-21599262D01*
X23409488Y-21589993D01*
X23404676Y-21585771D01*
X23128053Y-21309148D01*
X23113701Y-21274500D01*
X23128053Y-21239852D01*
X23162701Y-21225500D01*
X24186299Y-21225500D01*
X24220947Y-21239852D01*
X24885771Y-21904676D01*
X24900123Y-21939324D01*
X24899705Y-21945712D01*
X24899500Y-21947271D01*
X24899500Y-22052730D01*
X24926792Y-22154585D01*
X24926793Y-22154589D01*
X24940433Y-22178213D01*
X24979520Y-22245913D01*
X25054087Y-22320480D01*
X25087513Y-22339778D01*
X25145410Y-22373206D01*
X25145412Y-22373206D01*
X25145413Y-22373207D01*
X25225747Y-22394732D01*
X25247269Y-22400499D01*
X25247270Y-22400500D01*
X25247273Y-22400500D01*
X25352730Y-22400500D01*
X25352730Y-22400499D01*
X25454587Y-22373207D01*
X25545913Y-22320480D01*
X25620480Y-22245913D01*
X25673207Y-22154587D01*
X25700499Y-22052730D01*
X25700500Y-22052730D01*
X25700500Y-21947270D01*
X25700499Y-21947269D01*
X25673207Y-21845414D01*
X25673206Y-21845410D01*
X25620479Y-21754086D01*
X25545913Y-21679520D01*
X25454589Y-21626793D01*
X25454585Y-21626792D01*
X25352730Y-21599500D01*
X25352727Y-21599500D01*
X25247273Y-21599500D01*
X25247271Y-21599500D01*
X25245712Y-21599705D01*
X25244947Y-21599500D01*
X25244062Y-21599500D01*
X25244062Y-21599262D01*
X25209488Y-21589993D01*
X25204676Y-21585771D01*
X24628053Y-21009148D01*
X24613701Y-20974500D01*
X24628053Y-20939852D01*
X24662701Y-20925500D01*
X25686299Y-20925500D01*
X25720947Y-20939852D01*
X26685771Y-21904676D01*
X26700123Y-21939324D01*
X26699705Y-21945712D01*
X26699500Y-21947271D01*
X26699500Y-22052730D01*
X26726792Y-22154585D01*
X26726793Y-22154589D01*
X26740433Y-22178213D01*
X26779520Y-22245913D01*
X26854087Y-22320480D01*
X26887513Y-22339778D01*
X26945410Y-22373206D01*
X26945412Y-22373206D01*
X26945413Y-22373207D01*
X27025747Y-22394732D01*
X27047269Y-22400499D01*
X27047270Y-22400500D01*
X27047273Y-22400500D01*
X27152730Y-22400500D01*
X27152730Y-22400499D01*
X27254587Y-22373207D01*
X27345913Y-22320480D01*
X27420480Y-22245913D01*
X27473207Y-22154587D01*
X27500499Y-22052730D01*
X27500500Y-22052730D01*
X27500500Y-21947270D01*
X27500499Y-21947269D01*
X27473207Y-21845414D01*
X27473206Y-21845410D01*
X27420479Y-21754086D01*
X27345913Y-21679520D01*
X27254589Y-21626793D01*
X27254585Y-21626792D01*
X27152730Y-21599500D01*
X27152727Y-21599500D01*
X27047273Y-21599500D01*
X27047271Y-21599500D01*
X27045712Y-21599705D01*
X27044947Y-21599500D01*
X27044062Y-21599500D01*
X27044062Y-21599262D01*
X27009488Y-21589993D01*
X27004676Y-21585771D01*
X26128053Y-20709148D01*
X26113701Y-20674500D01*
X26128053Y-20639852D01*
X26162701Y-20625500D01*
X26986299Y-20625500D01*
X27020947Y-20639852D01*
X28385771Y-22004676D01*
X28400123Y-22039324D01*
X28399705Y-22045712D01*
X28399500Y-22047271D01*
X28399500Y-22152730D01*
X28426792Y-22254585D01*
X28426793Y-22254589D01*
X28468481Y-22326793D01*
X28479520Y-22345913D01*
X28554087Y-22420480D01*
X28587513Y-22439778D01*
X28645410Y-22473206D01*
X28645412Y-22473206D01*
X28645413Y-22473207D01*
X28725747Y-22494732D01*
X28747269Y-22500499D01*
X28747270Y-22500500D01*
X28747273Y-22500500D01*
X28852730Y-22500500D01*
X28852730Y-22500499D01*
X28954587Y-22473207D01*
X29045913Y-22420480D01*
X29120480Y-22345913D01*
X29173207Y-22254587D01*
X29200499Y-22152730D01*
X29200500Y-22152730D01*
X29200500Y-22047270D01*
X29184399Y-21987182D01*
X29189294Y-21950000D01*
X29219047Y-21927170D01*
X29231729Y-21925500D01*
X35414547Y-21925500D01*
X35449195Y-21939852D01*
X35585148Y-22075805D01*
X35599500Y-22110453D01*
X35599500Y-22152730D01*
X35626792Y-22254585D01*
X35626793Y-22254589D01*
X35668481Y-22326793D01*
X35679520Y-22345913D01*
X35754087Y-22420480D01*
X35787513Y-22439778D01*
X35845410Y-22473206D01*
X35845412Y-22473206D01*
X35845413Y-22473207D01*
X35925747Y-22494732D01*
X35947269Y-22500499D01*
X35947270Y-22500500D01*
X35947273Y-22500500D01*
X36052730Y-22500500D01*
X36052730Y-22500499D01*
X36154587Y-22473207D01*
X36245913Y-22420480D01*
X36320480Y-22345913D01*
X36373207Y-22254587D01*
X36400499Y-22152730D01*
X36400500Y-22152730D01*
X36400500Y-22047270D01*
X36400499Y-22047269D01*
X36385467Y-21991168D01*
X36373207Y-21945413D01*
X36332805Y-21875435D01*
X45099500Y-21875435D01*
X45099500Y-21913734D01*
X45099500Y-22124565D01*
X45132018Y-22371565D01*
X45132019Y-22371569D01*
X45132020Y-22371576D01*
X45196495Y-22612200D01*
X45196499Y-22612210D01*
X45211023Y-22647273D01*
X45291836Y-22842373D01*
X45314323Y-22881322D01*
X45416399Y-23058124D01*
X45416409Y-23058139D01*
X45568057Y-23255770D01*
X45568067Y-23255782D01*
X45744217Y-23431932D01*
X45744229Y-23431942D01*
X45941860Y-23583590D01*
X45941869Y-23583596D01*
X45941873Y-23583599D01*
X46157627Y-23708164D01*
X46387793Y-23803502D01*
X46387796Y-23803502D01*
X46387799Y-23803504D01*
X46628423Y-23867979D01*
X46628424Y-23867979D01*
X46628435Y-23867982D01*
X46875435Y-23900500D01*
X46875439Y-23900500D01*
X47124561Y-23900500D01*
X47124565Y-23900500D01*
X47371565Y-23867982D01*
X47443056Y-23848825D01*
X47612200Y-23803504D01*
X47612200Y-23803503D01*
X47612207Y-23803502D01*
X47842373Y-23708164D01*
X48058127Y-23583599D01*
X48255776Y-23431938D01*
X48431938Y-23255776D01*
X48583599Y-23058127D01*
X48708164Y-22842373D01*
X48803502Y-22612207D01*
X48812261Y-22579520D01*
X48867979Y-22371576D01*
X48867978Y-22371576D01*
X48867982Y-22371565D01*
X48900500Y-22124565D01*
X48900500Y-21875435D01*
X48867982Y-21628435D01*
X48864175Y-21614228D01*
X48803504Y-21387799D01*
X48803500Y-21387789D01*
X48708164Y-21157627D01*
X48583599Y-20941873D01*
X48583596Y-20941869D01*
X48583590Y-20941860D01*
X48431942Y-20744229D01*
X48431932Y-20744217D01*
X48255782Y-20568067D01*
X48255770Y-20568057D01*
X48058139Y-20416409D01*
X48058124Y-20416399D01*
X47935173Y-20345414D01*
X47842373Y-20291836D01*
X47641979Y-20208830D01*
X47612210Y-20196499D01*
X47612200Y-20196495D01*
X47371576Y-20132020D01*
X47371569Y-20132019D01*
X47371565Y-20132018D01*
X47124565Y-20099500D01*
X46875435Y-20099500D01*
X46628435Y-20132018D01*
X46628431Y-20132018D01*
X46628423Y-20132020D01*
X46387799Y-20196495D01*
X46387789Y-20196499D01*
X46269709Y-20245410D01*
X46157627Y-20291836D01*
X46157624Y-20291837D01*
X46157623Y-20291838D01*
X45941875Y-20416399D01*
X45941860Y-20416409D01*
X45744229Y-20568057D01*
X45744217Y-20568067D01*
X45568067Y-20744217D01*
X45568057Y-20744229D01*
X45416409Y-20941860D01*
X45416399Y-20941875D01*
X45291838Y-21157623D01*
X45291836Y-21157627D01*
X45285020Y-21174082D01*
X45196499Y-21387789D01*
X45196495Y-21387799D01*
X45132020Y-21628423D01*
X45132018Y-21628431D01*
X45132018Y-21628435D01*
X45099500Y-21875435D01*
X36332805Y-21875435D01*
X36320480Y-21854087D01*
X36245913Y-21779520D01*
X36200388Y-21753236D01*
X36177558Y-21723483D01*
X36182453Y-21686301D01*
X36190240Y-21676153D01*
X36220479Y-21645914D01*
X36220480Y-21645913D01*
X36273207Y-21554587D01*
X36300499Y-21452730D01*
X36300500Y-21452730D01*
X36300500Y-21347270D01*
X36300499Y-21347269D01*
X36294732Y-21325747D01*
X36273207Y-21245413D01*
X36273206Y-21245412D01*
X36273206Y-21245410D01*
X36223979Y-21160148D01*
X36220480Y-21154087D01*
X36145913Y-21079520D01*
X36112360Y-21060148D01*
X36054589Y-21026793D01*
X36054585Y-21026792D01*
X35952730Y-20999500D01*
X35952727Y-20999500D01*
X35847273Y-20999500D01*
X35847270Y-20999500D01*
X35745414Y-21026792D01*
X35745410Y-21026793D01*
X35654086Y-21079520D01*
X35654086Y-21079521D01*
X35579519Y-21154087D01*
X35578562Y-21155335D01*
X35577876Y-21155730D01*
X35577249Y-21156358D01*
X35577080Y-21156189D01*
X35546081Y-21174082D01*
X35539692Y-21174500D01*
X30513701Y-21174500D01*
X30479053Y-21160148D01*
X29214228Y-19895323D01*
X29199876Y-19860675D01*
X29200296Y-19854274D01*
X29200500Y-19852725D01*
X29200500Y-19747270D01*
X29200499Y-19747269D01*
X29185467Y-19691170D01*
X29173207Y-19645413D01*
X29160843Y-19623999D01*
X29155948Y-19586819D01*
X29178778Y-19557065D01*
X29203279Y-19550500D01*
X30011299Y-19550500D01*
X30045947Y-19564852D01*
X30185771Y-19704676D01*
X30200123Y-19739324D01*
X30199705Y-19745712D01*
X30199500Y-19747271D01*
X30199500Y-19852730D01*
X30226792Y-19954585D01*
X30226793Y-19954589D01*
X30267976Y-20025918D01*
X30279520Y-20045913D01*
X30354087Y-20120480D01*
X30374075Y-20132020D01*
X30445410Y-20173206D01*
X30445412Y-20173206D01*
X30445413Y-20173207D01*
X30468974Y-20179520D01*
X30547269Y-20200499D01*
X30547270Y-20200500D01*
X30547273Y-20200500D01*
X30652730Y-20200500D01*
X30652730Y-20200499D01*
X30754587Y-20173207D01*
X30845913Y-20120480D01*
X30920480Y-20045913D01*
X30973207Y-19954587D01*
X31000499Y-19852730D01*
X31000500Y-19852730D01*
X31000500Y-19747270D01*
X31000499Y-19747269D01*
X30985467Y-19691170D01*
X30973207Y-19645413D01*
X30973206Y-19645412D01*
X30973206Y-19645410D01*
X30922199Y-19557065D01*
X30920480Y-19554087D01*
X30845913Y-19479520D01*
X30754589Y-19426793D01*
X30754585Y-19426792D01*
X30652730Y-19399500D01*
X30652727Y-19399500D01*
X30547273Y-19399500D01*
X30547271Y-19399500D01*
X30545712Y-19399705D01*
X30544947Y-19399500D01*
X30544062Y-19399500D01*
X30544062Y-19399262D01*
X30509488Y-19389993D01*
X30504676Y-19385771D01*
X30453053Y-19334148D01*
X30438701Y-19299500D01*
X30453053Y-19264852D01*
X30487701Y-19250500D01*
X31511299Y-19250500D01*
X31545947Y-19264852D01*
X31985771Y-19704676D01*
X32000123Y-19739324D01*
X31999705Y-19745712D01*
X31999500Y-19747271D01*
X31999500Y-19852730D01*
X32026792Y-19954585D01*
X32026793Y-19954589D01*
X32067976Y-20025918D01*
X32079520Y-20045913D01*
X32154087Y-20120480D01*
X32174075Y-20132020D01*
X32245410Y-20173206D01*
X32245412Y-20173206D01*
X32245413Y-20173207D01*
X32268974Y-20179520D01*
X32347269Y-20200499D01*
X32347270Y-20200500D01*
X32347273Y-20200500D01*
X32452730Y-20200500D01*
X32452730Y-20200499D01*
X32554587Y-20173207D01*
X32645913Y-20120480D01*
X32720480Y-20045913D01*
X32773207Y-19954587D01*
X32800499Y-19852730D01*
X32800500Y-19852730D01*
X32800500Y-19747270D01*
X32800499Y-19747269D01*
X32785467Y-19691170D01*
X32773207Y-19645413D01*
X32773206Y-19645412D01*
X32773206Y-19645410D01*
X32722199Y-19557065D01*
X32720480Y-19554087D01*
X32645913Y-19479520D01*
X32554589Y-19426793D01*
X32554585Y-19426792D01*
X32452730Y-19399500D01*
X32452727Y-19399500D01*
X32347273Y-19399500D01*
X32347271Y-19399500D01*
X32345712Y-19399705D01*
X32344947Y-19399500D01*
X32344062Y-19399500D01*
X32344062Y-19399262D01*
X32309488Y-19389993D01*
X32304676Y-19385771D01*
X31953053Y-19034148D01*
X31938701Y-18999500D01*
X31953053Y-18964852D01*
X31987701Y-18950500D01*
X33011299Y-18950500D01*
X33045947Y-18964852D01*
X33785771Y-19704676D01*
X33800123Y-19739324D01*
X33799705Y-19745712D01*
X33799500Y-19747271D01*
X33799500Y-19852730D01*
X33826792Y-19954585D01*
X33826793Y-19954589D01*
X33867976Y-20025918D01*
X33879520Y-20045913D01*
X33954087Y-20120480D01*
X33974075Y-20132020D01*
X34045410Y-20173206D01*
X34045412Y-20173206D01*
X34045413Y-20173207D01*
X34068974Y-20179520D01*
X34147269Y-20200499D01*
X34147270Y-20200500D01*
X34147273Y-20200500D01*
X34252730Y-20200500D01*
X34252730Y-20200499D01*
X34354587Y-20173207D01*
X34445913Y-20120480D01*
X34520480Y-20045913D01*
X34573207Y-19954587D01*
X34600499Y-19852730D01*
X34600500Y-19852730D01*
X34600500Y-19747270D01*
X34600499Y-19747269D01*
X35199500Y-19747269D01*
X35199500Y-19852730D01*
X35226792Y-19954585D01*
X35226793Y-19954589D01*
X35267976Y-20025918D01*
X35279520Y-20045913D01*
X35354087Y-20120480D01*
X35374075Y-20132020D01*
X35445410Y-20173206D01*
X35445412Y-20173206D01*
X35445413Y-20173207D01*
X35468974Y-20179520D01*
X35547269Y-20200499D01*
X35547270Y-20200500D01*
X35547273Y-20200500D01*
X35652730Y-20200500D01*
X35652730Y-20200499D01*
X35754587Y-20173207D01*
X35845913Y-20120480D01*
X35920480Y-20045913D01*
X35920482Y-20045908D01*
X35921438Y-20044665D01*
X35922123Y-20044269D01*
X35922751Y-20043642D01*
X35922919Y-20043810D01*
X35953919Y-20025918D01*
X35960308Y-20025500D01*
X37786299Y-20025500D01*
X37820947Y-20039852D01*
X38185771Y-20404676D01*
X38200123Y-20439324D01*
X38199705Y-20445712D01*
X38199500Y-20447271D01*
X38199500Y-20552730D01*
X38226792Y-20654585D01*
X38226793Y-20654589D01*
X38264836Y-20720480D01*
X38279520Y-20745913D01*
X38354087Y-20820480D01*
X38387513Y-20839778D01*
X38445410Y-20873206D01*
X38445412Y-20873206D01*
X38445413Y-20873207D01*
X38525747Y-20894732D01*
X38547269Y-20900499D01*
X38547270Y-20900500D01*
X38547273Y-20900500D01*
X38652730Y-20900500D01*
X38652730Y-20900499D01*
X38754587Y-20873207D01*
X38845913Y-20820480D01*
X38920480Y-20745913D01*
X38973207Y-20654587D01*
X39000499Y-20552730D01*
X39000500Y-20552730D01*
X39000500Y-20447270D01*
X39000499Y-20447269D01*
X38973705Y-20347273D01*
X38973207Y-20345413D01*
X38973206Y-20345412D01*
X38973206Y-20345410D01*
X38920479Y-20254086D01*
X38845913Y-20179520D01*
X38754589Y-20126793D01*
X38754585Y-20126792D01*
X38652730Y-20099500D01*
X38652727Y-20099500D01*
X38547273Y-20099500D01*
X38547271Y-20099500D01*
X38545712Y-20099705D01*
X38544947Y-20099500D01*
X38544062Y-20099500D01*
X38544062Y-20099262D01*
X38509488Y-20089993D01*
X38504676Y-20085771D01*
X38098062Y-19679157D01*
X38098062Y-19679156D01*
X38027737Y-19608830D01*
X38003460Y-19598774D01*
X37944856Y-19574499D01*
X37944855Y-19574499D01*
X37855145Y-19574499D01*
X37849444Y-19574499D01*
X37849436Y-19574500D01*
X35960308Y-19574500D01*
X35925660Y-19560148D01*
X35921438Y-19555335D01*
X35920480Y-19554087D01*
X35845913Y-19479520D01*
X35754589Y-19426793D01*
X35754585Y-19426792D01*
X35652730Y-19399500D01*
X35652727Y-19399500D01*
X35547273Y-19399500D01*
X35547270Y-19399500D01*
X35445414Y-19426792D01*
X35445410Y-19426793D01*
X35354086Y-19479520D01*
X35354086Y-19479521D01*
X35279521Y-19554086D01*
X35279520Y-19554086D01*
X35226793Y-19645410D01*
X35226792Y-19645414D01*
X35199500Y-19747269D01*
X34600499Y-19747269D01*
X34585467Y-19691170D01*
X34573207Y-19645413D01*
X34573206Y-19645412D01*
X34573206Y-19645410D01*
X34522199Y-19557065D01*
X34520480Y-19554087D01*
X34445913Y-19479520D01*
X34354589Y-19426793D01*
X34354585Y-19426792D01*
X34252730Y-19399500D01*
X34252727Y-19399500D01*
X34147273Y-19399500D01*
X34147271Y-19399500D01*
X34145712Y-19399705D01*
X34144947Y-19399500D01*
X34144062Y-19399500D01*
X34144062Y-19399262D01*
X34109488Y-19389993D01*
X34104676Y-19385771D01*
X33323062Y-18604157D01*
X33323062Y-18604156D01*
X33252737Y-18533830D01*
X33228460Y-18523774D01*
X33169856Y-18499499D01*
X33169855Y-18499499D01*
X33080145Y-18499499D01*
X33074444Y-18499499D01*
X33074436Y-18499500D01*
X26387229Y-18499500D01*
X26352581Y-18485148D01*
X24939852Y-17072419D01*
X24925500Y-17037771D01*
X24925500Y-16047269D01*
X26599500Y-16047269D01*
X26599500Y-16152730D01*
X26626792Y-16254585D01*
X26626793Y-16254589D01*
X26655658Y-16304583D01*
X26679520Y-16345913D01*
X26754087Y-16420480D01*
X26766847Y-16427847D01*
X26845410Y-16473206D01*
X26845412Y-16473206D01*
X26845413Y-16473207D01*
X26925747Y-16494732D01*
X26947269Y-16500499D01*
X26947270Y-16500500D01*
X26947273Y-16500500D01*
X27052730Y-16500500D01*
X27052730Y-16500499D01*
X27154587Y-16473207D01*
X27245913Y-16420480D01*
X27320480Y-16345913D01*
X27373207Y-16254587D01*
X27400499Y-16152730D01*
X27400500Y-16152730D01*
X27400500Y-16047270D01*
X27400499Y-16047269D01*
X27377710Y-15962218D01*
X27373207Y-15945413D01*
X27373206Y-15945412D01*
X27373206Y-15945410D01*
X27320479Y-15854086D01*
X27294974Y-15828581D01*
X27280622Y-15793933D01*
X27294974Y-15759285D01*
X28089408Y-14964852D01*
X28124056Y-14950500D01*
X29735522Y-14950500D01*
X29770170Y-14964852D01*
X29784522Y-14999500D01*
X29770170Y-15034148D01*
X29219170Y-15585148D01*
X29184522Y-15599500D01*
X27835176Y-15599500D01*
X27791278Y-15608232D01*
X27741495Y-15641495D01*
X27708232Y-15691278D01*
X27699500Y-15735176D01*
X27699500Y-17464823D01*
X27708232Y-17508721D01*
X27741495Y-17558504D01*
X27789271Y-17590426D01*
X27791278Y-17591767D01*
X27835180Y-17600500D01*
X29564820Y-17600500D01*
X29608722Y-17591767D01*
X29658504Y-17558504D01*
X29691767Y-17508722D01*
X29700500Y-17464820D01*
X29700500Y-16501455D01*
X32779500Y-16501455D01*
X32779500Y-16698544D01*
X32817947Y-16891827D01*
X32817949Y-16891836D01*
X32893366Y-17073910D01*
X32893368Y-17073914D01*
X32941320Y-17145679D01*
X33002857Y-17237777D01*
X33002861Y-17237782D01*
X33142218Y-17377139D01*
X33306086Y-17486632D01*
X33488165Y-17562051D01*
X33681459Y-17600500D01*
X33878541Y-17600500D01*
X34071835Y-17562051D01*
X34253914Y-17486632D01*
X34417782Y-17377139D01*
X34557139Y-17237782D01*
X34666632Y-17073914D01*
X34742051Y-16891835D01*
X34780500Y-16698541D01*
X34780500Y-16501459D01*
X34742051Y-16308165D01*
X34666632Y-16126086D01*
X34557139Y-15962218D01*
X34417782Y-15822861D01*
X34384316Y-15800500D01*
X34329407Y-15763811D01*
X34253914Y-15713368D01*
X34253911Y-15713366D01*
X34253910Y-15713366D01*
X34071836Y-15637949D01*
X34071827Y-15637947D01*
X33878544Y-15599500D01*
X33878541Y-15599500D01*
X33681459Y-15599500D01*
X33681455Y-15599500D01*
X33488172Y-15637947D01*
X33488163Y-15637949D01*
X33306089Y-15713366D01*
X33142218Y-15822860D01*
X33002860Y-15962218D01*
X32893366Y-16126089D01*
X32817949Y-16308163D01*
X32817947Y-16308172D01*
X32779500Y-16501455D01*
X29700500Y-16501455D01*
X29700500Y-16115478D01*
X29714852Y-16080830D01*
X30280830Y-15514852D01*
X30315478Y-15500500D01*
X42096146Y-15500500D01*
X42144157Y-15487635D01*
X42185288Y-15476614D01*
X42265212Y-15430470D01*
X43301439Y-14394241D01*
X43317333Y-14383622D01*
X43320297Y-14382394D01*
X43354587Y-14373207D01*
X43385327Y-14355459D01*
X43388295Y-14354230D01*
X43393126Y-14354230D01*
X43407046Y-14350500D01*
X43792954Y-14350500D01*
X43817454Y-14357065D01*
X43845413Y-14373207D01*
X43884283Y-14383622D01*
X43947269Y-14400499D01*
X43947270Y-14400500D01*
X43947273Y-14400500D01*
X44052730Y-14400500D01*
X44052730Y-14400499D01*
X44154587Y-14373207D01*
X44154591Y-14373205D01*
X44166823Y-14366142D01*
X44245913Y-14320480D01*
X44320480Y-14245913D01*
X44373207Y-14154587D01*
X44400499Y-14052730D01*
X44400500Y-14052730D01*
X44400500Y-13947270D01*
X44400499Y-13947269D01*
X44381563Y-13876598D01*
X44373207Y-13845413D01*
X44373206Y-13845412D01*
X44373206Y-13845410D01*
X44320479Y-13754086D01*
X44245913Y-13679520D01*
X44154589Y-13626793D01*
X44154585Y-13626792D01*
X44052730Y-13599500D01*
X44052727Y-13599500D01*
X43947273Y-13599500D01*
X43947270Y-13599500D01*
X43845417Y-13626791D01*
X43845411Y-13626794D01*
X43817454Y-13642935D01*
X43792954Y-13649500D01*
X43407046Y-13649500D01*
X43382546Y-13642935D01*
X43373953Y-13637974D01*
X43354587Y-13626793D01*
X43354584Y-13626792D01*
X43354582Y-13626791D01*
X43252730Y-13599500D01*
X43252727Y-13599500D01*
X43147273Y-13599500D01*
X43147270Y-13599500D01*
X43045414Y-13626792D01*
X43045410Y-13626793D01*
X42954086Y-13679520D01*
X42954086Y-13679521D01*
X42879521Y-13754086D01*
X42879520Y-13754086D01*
X42826793Y-13845410D01*
X42826792Y-13845413D01*
X42818436Y-13876598D01*
X42805754Y-13898562D01*
X41919170Y-14785148D01*
X41884522Y-14799500D01*
X35873057Y-14799500D01*
X35838409Y-14785148D01*
X35824057Y-14750500D01*
X35838409Y-14715852D01*
X36689408Y-13864852D01*
X36724056Y-13850500D01*
X36802730Y-13850500D01*
X36802730Y-13850499D01*
X36904587Y-13823207D01*
X36995913Y-13770480D01*
X37070480Y-13695913D01*
X37123207Y-13604587D01*
X37150499Y-13502730D01*
X37150500Y-13502730D01*
X37150500Y-13397270D01*
X37150499Y-13397269D01*
X37144732Y-13375747D01*
X37123207Y-13295413D01*
X37123206Y-13295412D01*
X37123206Y-13295410D01*
X37070479Y-13204086D01*
X37014852Y-13148459D01*
X37000500Y-13113811D01*
X37000500Y-8374056D01*
X37014852Y-8339408D01*
X38739408Y-6614852D01*
X38774056Y-6600500D01*
X38852730Y-6600500D01*
X38852730Y-6600499D01*
X38954587Y-6573207D01*
X39045913Y-6520480D01*
X39065352Y-6501041D01*
X39100000Y-6486689D01*
X39134648Y-6501041D01*
X39154087Y-6520480D01*
X39187513Y-6539778D01*
X39245410Y-6573206D01*
X39245412Y-6573206D01*
X39245413Y-6573207D01*
X39325747Y-6594732D01*
X39347269Y-6600499D01*
X39347270Y-6600500D01*
X39347273Y-6600500D01*
X39452730Y-6600500D01*
X39452730Y-6600499D01*
X39554587Y-6573207D01*
X39645913Y-6520480D01*
X39720480Y-6445913D01*
X39773207Y-6354587D01*
X39800499Y-6252730D01*
X39800500Y-6252730D01*
X39800500Y-6147270D01*
X39800499Y-6147269D01*
X39782634Y-6080595D01*
X39773207Y-6045413D01*
X39773206Y-6045412D01*
X39773206Y-6045410D01*
X39720479Y-5954086D01*
X39645913Y-5879520D01*
X39554589Y-5826793D01*
X39554585Y-5826792D01*
X39452730Y-5799500D01*
X39452727Y-5799500D01*
X39347273Y-5799500D01*
X39347270Y-5799500D01*
X39245414Y-5826792D01*
X39245410Y-5826793D01*
X39154086Y-5879520D01*
X39154086Y-5879521D01*
X39134648Y-5898959D01*
X39100000Y-5913311D01*
X39065352Y-5898959D01*
X39045913Y-5879520D01*
X38954589Y-5826793D01*
X38954585Y-5826792D01*
X38852730Y-5799500D01*
X38852727Y-5799500D01*
X38747273Y-5799500D01*
X38747270Y-5799500D01*
X38645414Y-5826792D01*
X38645410Y-5826793D01*
X38554086Y-5879520D01*
X38554086Y-5879521D01*
X38479521Y-5954086D01*
X38479520Y-5954086D01*
X38426793Y-6045410D01*
X38426792Y-6045414D01*
X38399500Y-6147269D01*
X38399500Y-6225942D01*
X38385148Y-6260590D01*
X36537637Y-8108101D01*
X36499500Y-8200170D01*
X36499500Y-13113811D01*
X36485148Y-13148459D01*
X36429521Y-13204086D01*
X36429520Y-13204086D01*
X36376793Y-13295410D01*
X36376792Y-13295414D01*
X36349500Y-13397269D01*
X36349500Y-13475943D01*
X36335148Y-13510591D01*
X35410591Y-14435148D01*
X35375943Y-14449500D01*
X28055537Y-14449500D01*
X28055529Y-14449499D01*
X28049828Y-14449499D01*
X27950173Y-14449499D01*
X27950171Y-14449499D01*
X27902037Y-14469438D01*
X27877695Y-14479521D01*
X27858101Y-14487637D01*
X27858100Y-14487637D01*
X27787636Y-14558103D01*
X27787635Y-14558104D01*
X26851211Y-15494527D01*
X26787637Y-15558101D01*
X26749500Y-15650170D01*
X26749500Y-15763811D01*
X26735148Y-15798459D01*
X26679521Y-15854086D01*
X26679520Y-15854086D01*
X26626793Y-15945410D01*
X26626792Y-15945414D01*
X26599500Y-16047269D01*
X24925500Y-16047269D01*
X24925500Y-8647269D01*
X25099500Y-8647269D01*
X25099500Y-8752730D01*
X25126792Y-8854585D01*
X25126793Y-8854589D01*
X25168481Y-8926793D01*
X25179520Y-8945913D01*
X25254087Y-9020480D01*
X25299613Y-9046764D01*
X25322442Y-9076516D01*
X25317547Y-9113698D01*
X25309761Y-9123846D01*
X25279519Y-9154088D01*
X25226793Y-9245410D01*
X25226792Y-9245414D01*
X25199500Y-9347269D01*
X25199500Y-9452730D01*
X25226792Y-9554585D01*
X25226793Y-9554589D01*
X25264836Y-9620480D01*
X25279520Y-9645913D01*
X25354087Y-9720480D01*
X25387513Y-9739778D01*
X25445410Y-9773206D01*
X25445412Y-9773206D01*
X25445413Y-9773207D01*
X25492303Y-9785771D01*
X25547269Y-9800499D01*
X25547270Y-9800500D01*
X25547273Y-9800500D01*
X25652730Y-9800500D01*
X25652730Y-9800499D01*
X25754587Y-9773207D01*
X25845913Y-9720480D01*
X25865352Y-9701041D01*
X25900000Y-9686689D01*
X25934648Y-9701041D01*
X25954087Y-9720480D01*
X25987513Y-9739778D01*
X26045410Y-9773206D01*
X26045412Y-9773206D01*
X26045413Y-9773207D01*
X26092303Y-9785771D01*
X26147269Y-9800499D01*
X26147270Y-9800500D01*
X26147273Y-9800500D01*
X26252730Y-9800500D01*
X26252730Y-9800499D01*
X26354587Y-9773207D01*
X26445913Y-9720480D01*
X26501541Y-9664852D01*
X26536189Y-9650500D01*
X32974826Y-9650500D01*
X32974828Y-9650500D01*
X33066897Y-9612364D01*
X38164409Y-4514852D01*
X38199057Y-4500500D01*
X39689820Y-4500500D01*
X39733722Y-4491767D01*
X39783504Y-4458504D01*
X39816767Y-4408722D01*
X39825500Y-4364820D01*
X39825500Y-2635180D01*
X39816767Y-2591278D01*
X39808724Y-2579240D01*
X39783505Y-2541496D01*
X39781628Y-2540242D01*
X39780373Y-2538364D01*
X39780092Y-2538083D01*
X39780147Y-2538027D01*
X39760792Y-2509059D01*
X39768109Y-2472277D01*
X39799292Y-2451441D01*
X39808851Y-2450500D01*
X39940943Y-2450500D01*
X39975591Y-2464852D01*
X40473347Y-2962608D01*
X40487699Y-2997256D01*
X40479443Y-3024475D01*
X40478369Y-3026081D01*
X40478369Y-3026082D01*
X40402949Y-3208163D01*
X40402947Y-3208172D01*
X40364500Y-3401455D01*
X40364500Y-3598544D01*
X40402947Y-3791827D01*
X40402949Y-3791836D01*
X40472666Y-3960148D01*
X40478368Y-3973914D01*
X40587861Y-4137782D01*
X40727218Y-4277139D01*
X40891086Y-4386632D01*
X41073165Y-4462051D01*
X41266459Y-4500500D01*
X41463541Y-4500500D01*
X41656835Y-4462051D01*
X41838914Y-4386632D01*
X42002782Y-4277139D01*
X42142139Y-4137782D01*
X42251632Y-3973914D01*
X42327051Y-3791835D01*
X42365500Y-3598541D01*
X42365500Y-3401459D01*
X42327051Y-3208165D01*
X42251632Y-3026086D01*
X42150970Y-2875435D01*
X45099500Y-2875435D01*
X45099500Y-2913734D01*
X45099500Y-3124565D01*
X45132018Y-3371565D01*
X45132019Y-3371569D01*
X45132020Y-3371576D01*
X45196495Y-3612200D01*
X45196498Y-3612207D01*
X45291836Y-3842373D01*
X45325535Y-3900741D01*
X45416399Y-4058124D01*
X45416409Y-4058139D01*
X45568057Y-4255770D01*
X45568067Y-4255782D01*
X45744217Y-4431932D01*
X45744229Y-4431942D01*
X45941860Y-4583590D01*
X45941869Y-4583596D01*
X45941873Y-4583599D01*
X46157627Y-4708164D01*
X46387793Y-4803502D01*
X46387796Y-4803502D01*
X46387799Y-4803504D01*
X46628423Y-4867979D01*
X46628424Y-4867979D01*
X46628435Y-4867982D01*
X46875435Y-4900500D01*
X46875439Y-4900500D01*
X47124561Y-4900500D01*
X47124565Y-4900500D01*
X47371565Y-4867982D01*
X47612207Y-4803502D01*
X47842373Y-4708164D01*
X48058127Y-4583599D01*
X48255776Y-4431938D01*
X48431938Y-4255776D01*
X48583599Y-4058127D01*
X48708164Y-3842373D01*
X48803502Y-3612207D01*
X48867982Y-3371565D01*
X48900500Y-3124565D01*
X48900500Y-2875435D01*
X48867982Y-2628435D01*
X48863944Y-2613366D01*
X48803504Y-2387799D01*
X48803500Y-2387789D01*
X48803437Y-2387636D01*
X48708164Y-2157627D01*
X48583599Y-1941873D01*
X48583596Y-1941869D01*
X48583590Y-1941860D01*
X48431942Y-1744229D01*
X48431932Y-1744217D01*
X48255782Y-1568067D01*
X48255770Y-1568057D01*
X48058139Y-1416409D01*
X48058124Y-1416399D01*
X47842376Y-1291838D01*
X47842377Y-1291838D01*
X47842373Y-1291836D01*
X47668058Y-1219632D01*
X47612210Y-1196499D01*
X47612200Y-1196495D01*
X47371576Y-1132020D01*
X47371569Y-1132019D01*
X47371565Y-1132018D01*
X47124565Y-1099500D01*
X46875435Y-1099500D01*
X46628435Y-1132018D01*
X46628431Y-1132018D01*
X46628423Y-1132020D01*
X46387799Y-1196495D01*
X46387789Y-1196499D01*
X46236603Y-1259123D01*
X46157627Y-1291836D01*
X46157624Y-1291837D01*
X46157623Y-1291838D01*
X45941875Y-1416399D01*
X45941860Y-1416409D01*
X45744229Y-1568057D01*
X45744217Y-1568067D01*
X45568067Y-1744217D01*
X45568057Y-1744229D01*
X45416409Y-1941860D01*
X45416399Y-1941875D01*
X45291838Y-2157623D01*
X45196499Y-2387789D01*
X45196495Y-2387799D01*
X45132020Y-2628423D01*
X45132018Y-2628431D01*
X45132018Y-2628435D01*
X45099500Y-2875435D01*
X42150970Y-2875435D01*
X42142139Y-2862218D01*
X42002782Y-2722861D01*
X41986075Y-2711698D01*
X41928930Y-2673515D01*
X41838914Y-2613368D01*
X41838911Y-2613366D01*
X41838910Y-2613366D01*
X41656836Y-2537949D01*
X41656827Y-2537947D01*
X41463544Y-2499500D01*
X41463541Y-2499500D01*
X41266459Y-2499500D01*
X41266455Y-2499500D01*
X41073172Y-2537947D01*
X41073163Y-2537949D01*
X40891082Y-2613369D01*
X40891081Y-2613369D01*
X40889475Y-2614443D01*
X40852692Y-2621757D01*
X40827608Y-2608347D01*
X40206899Y-1987637D01*
X40114829Y-1949500D01*
X40114828Y-1949500D01*
X37949827Y-1949500D01*
X37850172Y-1949500D01*
X37850170Y-1949500D01*
X37758101Y-1987637D01*
X37758100Y-1987637D01*
X37358103Y-2387636D01*
X37287637Y-2458100D01*
X37287637Y-2458101D01*
X37287636Y-2458102D01*
X37287636Y-2458103D01*
X37283820Y-2467315D01*
X37249500Y-2550170D01*
X37249500Y-4205969D01*
X37235148Y-4240617D01*
X33040617Y-8435148D01*
X33005969Y-8449500D01*
X26386064Y-8449500D01*
X26351416Y-8435148D01*
X26312574Y-8396306D01*
X26221250Y-8343579D01*
X26221246Y-8343578D01*
X26119391Y-8316286D01*
X26119388Y-8316286D01*
X26013934Y-8316286D01*
X26013931Y-8316286D01*
X25912075Y-8343578D01*
X25912071Y-8343579D01*
X25817967Y-8397911D01*
X25817228Y-8396631D01*
X25785749Y-8405053D01*
X25757516Y-8391123D01*
X25745913Y-8379520D01*
X25654589Y-8326793D01*
X25654585Y-8326792D01*
X25552730Y-8299500D01*
X25552727Y-8299500D01*
X25447273Y-8299500D01*
X25447270Y-8299500D01*
X25345414Y-8326792D01*
X25345410Y-8326793D01*
X25254086Y-8379520D01*
X25254086Y-8379521D01*
X25179521Y-8454086D01*
X25179520Y-8454086D01*
X25126793Y-8545410D01*
X25126792Y-8545414D01*
X25099500Y-8647269D01*
X24925500Y-8647269D01*
X24925500Y-5313701D01*
X24939852Y-5279053D01*
X25779053Y-4439852D01*
X25813701Y-4425500D01*
X27049436Y-4425500D01*
X27049444Y-4425501D01*
X27055145Y-4425501D01*
X27144853Y-4425501D01*
X27144855Y-4425501D01*
X27203460Y-4401225D01*
X27220164Y-4394306D01*
X27227732Y-4391172D01*
X27227733Y-4391171D01*
X27227736Y-4391170D01*
X27291170Y-4327736D01*
X27291170Y-4327735D01*
X27298059Y-4320846D01*
X27298061Y-4320843D01*
X27704676Y-3914227D01*
X27739323Y-3899876D01*
X27745721Y-3900296D01*
X27747270Y-3900500D01*
X27747273Y-3900500D01*
X27852730Y-3900500D01*
X27852730Y-3900499D01*
X27954587Y-3873207D01*
X28045913Y-3820480D01*
X28120480Y-3745913D01*
X28173207Y-3654587D01*
X28200499Y-3552730D01*
X28200500Y-3552730D01*
X28200500Y-3447270D01*
X28200499Y-3447269D01*
X28188223Y-3401455D01*
X28173207Y-3345413D01*
X28173206Y-3345411D01*
X28173206Y-3345410D01*
X28120479Y-3254086D01*
X28045913Y-3179520D01*
X27954589Y-3126793D01*
X27954585Y-3126792D01*
X27852730Y-3099500D01*
X27852727Y-3099500D01*
X27747273Y-3099500D01*
X27747270Y-3099500D01*
X27645414Y-3126792D01*
X27645410Y-3126793D01*
X27554086Y-3179520D01*
X27554086Y-3179521D01*
X27479521Y-3254086D01*
X27479520Y-3254086D01*
X27426793Y-3345410D01*
X27426792Y-3345414D01*
X27399500Y-3447269D01*
X27399500Y-3552732D01*
X27399704Y-3554283D01*
X27399500Y-3555044D01*
X27399500Y-3555938D01*
X27399260Y-3555938D01*
X27389994Y-3590507D01*
X27385771Y-3595322D01*
X27020947Y-3960148D01*
X26986299Y-3974500D01*
X25750564Y-3974500D01*
X25750556Y-3974499D01*
X25744855Y-3974499D01*
X25655146Y-3974499D01*
X25606594Y-3994608D01*
X25606595Y-3994609D01*
X25572262Y-4008830D01*
X25508830Y-4072264D01*
X24709148Y-4871946D01*
X24674500Y-4886298D01*
X24639852Y-4871946D01*
X24625500Y-4837298D01*
X24625500Y-3860307D01*
X24639852Y-3825659D01*
X24644672Y-3821432D01*
X24645907Y-3820483D01*
X24645913Y-3820480D01*
X24720480Y-3745913D01*
X24773207Y-3654587D01*
X24800499Y-3552730D01*
X24800500Y-3552730D01*
X24800500Y-3447270D01*
X24800499Y-3447269D01*
X24788223Y-3401455D01*
X24773207Y-3345413D01*
X24773206Y-3345411D01*
X24773206Y-3345410D01*
X24720479Y-3254086D01*
X24645913Y-3179520D01*
X24554589Y-3126793D01*
X24554585Y-3126792D01*
X24452730Y-3099500D01*
X24452727Y-3099500D01*
X24347273Y-3099500D01*
X24347270Y-3099500D01*
X24245414Y-3126792D01*
X24245410Y-3126793D01*
X24154086Y-3179520D01*
X24154086Y-3179521D01*
X24079521Y-3254086D01*
X24079520Y-3254086D01*
X24026793Y-3345410D01*
X24026792Y-3345414D01*
X23999500Y-3447269D01*
X23999500Y-3552730D01*
X24026792Y-3654585D01*
X24026793Y-3654589D01*
X24079520Y-3745913D01*
X24154086Y-3820479D01*
X24155328Y-3821432D01*
X24155722Y-3822115D01*
X24156358Y-3822751D01*
X24156187Y-3822921D01*
X24174081Y-3853910D01*
X24174500Y-3860307D01*
X24174500Y-4837299D01*
X24160148Y-4871947D01*
X24125500Y-4886299D01*
X24090852Y-4871947D01*
X23298062Y-4079157D01*
X23298062Y-4079156D01*
X23227737Y-4008830D01*
X23203460Y-3998774D01*
X23144856Y-3974499D01*
X23144855Y-3974499D01*
X23055145Y-3974499D01*
X23049444Y-3974499D01*
X23049436Y-3974500D01*
X21813702Y-3974500D01*
X21779054Y-3960148D01*
X21414228Y-3595323D01*
X21399876Y-3560675D01*
X21400296Y-3554274D01*
X21400500Y-3552725D01*
X21400500Y-3447270D01*
X21400499Y-3447269D01*
X21388223Y-3401455D01*
X21373207Y-3345413D01*
X21373206Y-3345411D01*
X21373206Y-3345410D01*
X21320479Y-3254086D01*
X21245913Y-3179520D01*
X21154589Y-3126793D01*
X21154585Y-3126792D01*
X21052730Y-3099500D01*
X21052727Y-3099500D01*
X20947273Y-3099500D01*
X20947270Y-3099500D01*
X20845414Y-3126792D01*
X20845410Y-3126793D01*
X20754086Y-3179520D01*
X20754086Y-3179521D01*
X20679521Y-3254086D01*
X20679520Y-3254086D01*
X20626793Y-3345410D01*
X20626792Y-3345414D01*
X20599500Y-3447269D01*
X20599500Y-3552730D01*
X20626792Y-3654585D01*
X20626793Y-3654589D01*
X20661134Y-3714068D01*
X20679520Y-3745913D01*
X20754087Y-3820480D01*
X20781083Y-3836066D01*
X20845410Y-3873206D01*
X20845412Y-3873206D01*
X20845413Y-3873207D01*
X20924504Y-3894399D01*
X20947269Y-3900499D01*
X20947270Y-3900500D01*
X20947273Y-3900500D01*
X21052726Y-3900500D01*
X21052727Y-3900500D01*
X21052727Y-3900499D01*
X21054274Y-3900296D01*
X21055036Y-3900500D01*
X21055939Y-3900500D01*
X21055939Y-3900741D01*
X21090500Y-3909999D01*
X21095323Y-3914228D01*
X21508829Y-4327735D01*
X21508830Y-4327736D01*
X21572261Y-4391168D01*
X21572263Y-4391169D01*
X21572264Y-4391170D01*
X21655145Y-4425500D01*
X22986299Y-4425500D01*
X23020947Y-4439852D01*
X23860148Y-5279053D01*
X23874500Y-5313701D01*
X23874500Y-17351188D01*
X23874499Y-17351202D01*
X23874499Y-17444856D01*
X23891804Y-17486632D01*
X23908830Y-17527737D01*
X23908831Y-17527738D01*
X23979155Y-17598061D01*
X23979157Y-17598062D01*
X25831034Y-19449939D01*
X25831037Y-19449943D01*
X25897261Y-19516168D01*
X25897263Y-19516169D01*
X25897264Y-19516170D01*
X25921539Y-19526225D01*
X25980145Y-19550501D01*
X25980147Y-19550501D01*
X26075556Y-19550501D01*
X26075564Y-19550500D01*
X26796721Y-19550500D01*
X26831369Y-19564852D01*
X26845721Y-19599500D01*
X26839156Y-19623998D01*
X26836998Y-19627738D01*
X26826792Y-19645414D01*
X26799500Y-19747269D01*
X26799500Y-19852730D01*
X26826792Y-19954585D01*
X26826793Y-19954589D01*
X26879520Y-20045913D01*
X26924459Y-20090852D01*
X26938811Y-20125500D01*
X26924459Y-20160148D01*
X26889811Y-20174500D01*
X23810189Y-20174500D01*
X23775541Y-20160148D01*
X23761189Y-20125500D01*
X23775541Y-20090852D01*
X23820479Y-20045914D01*
X23820480Y-20045913D01*
X23873207Y-19954587D01*
X23900499Y-19852730D01*
X23900500Y-19852730D01*
X23900500Y-19747270D01*
X23900499Y-19747269D01*
X23885467Y-19691170D01*
X23873207Y-19645413D01*
X23873206Y-19645412D01*
X23873206Y-19645410D01*
X23822199Y-19557065D01*
X23820480Y-19554087D01*
X23745913Y-19479520D01*
X23654589Y-19426793D01*
X23654585Y-19426792D01*
X23552730Y-19399500D01*
X23552727Y-19399500D01*
X23447273Y-19399500D01*
X23447271Y-19399500D01*
X23445712Y-19399705D01*
X23444947Y-19399500D01*
X23444062Y-19399500D01*
X23444062Y-19399262D01*
X23409488Y-19389993D01*
X23404676Y-19385771D01*
X21839852Y-17820947D01*
X21825500Y-17786299D01*
X21825500Y-17253602D01*
X21839852Y-17218954D01*
X21874500Y-17204602D01*
X21909148Y-17218954D01*
X21915242Y-17226380D01*
X21922857Y-17237777D01*
X21922860Y-17237781D01*
X21922861Y-17237782D01*
X22062218Y-17377139D01*
X22226086Y-17486632D01*
X22408165Y-17562051D01*
X22601459Y-17600500D01*
X22798541Y-17600500D01*
X22991835Y-17562051D01*
X23173914Y-17486632D01*
X23337782Y-17377139D01*
X23477139Y-17237782D01*
X23586632Y-17073914D01*
X23662051Y-16891835D01*
X23700500Y-16698541D01*
X23700500Y-16501459D01*
X23662051Y-16308165D01*
X23586632Y-16126086D01*
X23477139Y-15962218D01*
X23337782Y-15822861D01*
X23304316Y-15800500D01*
X23249407Y-15763811D01*
X23173914Y-15713368D01*
X23173911Y-15713366D01*
X23173910Y-15713366D01*
X22991836Y-15637949D01*
X22991827Y-15637947D01*
X22798544Y-15599500D01*
X22798541Y-15599500D01*
X22601459Y-15599500D01*
X22601455Y-15599500D01*
X22408172Y-15637947D01*
X22408163Y-15637949D01*
X22226090Y-15713365D01*
X22226086Y-15713368D01*
X22203283Y-15728604D01*
X22189265Y-15731391D01*
X22176062Y-15736861D01*
X22171424Y-15734939D01*
X22166501Y-15735919D01*
X22141414Y-15722509D01*
X22139852Y-15720947D01*
X22125500Y-15686299D01*
X22125500Y-7226300D01*
X22125501Y-7226291D01*
X22125501Y-7130883D01*
X22125500Y-7130879D01*
X22091170Y-7048001D01*
X22091169Y-7047999D01*
X22024946Y-6981776D01*
X22024939Y-6981770D01*
X21435573Y-6392404D01*
X21421221Y-6357756D01*
X21427784Y-6333261D01*
X21473207Y-6254587D01*
X21500499Y-6152730D01*
X21500500Y-6152730D01*
X21500500Y-6047270D01*
X21500499Y-6047269D01*
X21473207Y-5945414D01*
X21473206Y-5945410D01*
X21420479Y-5854086D01*
X21345913Y-5779520D01*
X21254589Y-5726793D01*
X21254585Y-5726792D01*
X21152730Y-5699500D01*
X21152727Y-5699500D01*
X21047273Y-5699500D01*
X21047270Y-5699500D01*
X20945414Y-5726792D01*
X20945410Y-5726793D01*
X20854086Y-5779520D01*
X20854086Y-5779521D01*
X20779521Y-5854086D01*
X20779520Y-5854086D01*
X20726793Y-5945410D01*
X20726793Y-5945412D01*
X20714423Y-5991575D01*
X20691592Y-6021328D01*
X20654410Y-6026222D01*
X20632445Y-6013540D01*
X17998062Y-3379157D01*
X17991170Y-3372265D01*
X17991170Y-3372264D01*
X17985741Y-3366835D01*
X17985738Y-3366828D01*
X17974962Y-3348162D01*
X17974436Y-3348381D01*
X17973206Y-3345411D01*
X17920479Y-3254086D01*
X17845913Y-3179520D01*
X17754589Y-3126793D01*
X17754585Y-3126792D01*
X17652730Y-3099500D01*
X17652727Y-3099500D01*
X17547273Y-3099500D01*
X17547270Y-3099500D01*
X17445414Y-3126792D01*
X17445410Y-3126793D01*
X17354086Y-3179520D01*
X17354086Y-3179521D01*
X17279521Y-3254086D01*
X17279520Y-3254086D01*
X17226793Y-3345410D01*
X17226792Y-3345414D01*
X17199500Y-3447269D01*
X17199500Y-3552730D01*
X17226792Y-3654585D01*
X17226793Y-3654589D01*
X17279520Y-3745913D01*
X17324459Y-3790852D01*
X17338811Y-3825500D01*
X17324459Y-3860148D01*
X17289811Y-3874500D01*
X15013701Y-3874500D01*
X14979053Y-3860148D01*
X14714228Y-3595323D01*
X14699876Y-3560675D01*
X14700296Y-3554274D01*
X14700500Y-3552725D01*
X14700500Y-3447270D01*
X14700499Y-3447269D01*
X14688223Y-3401455D01*
X14673207Y-3345413D01*
X14673206Y-3345411D01*
X14673206Y-3345410D01*
X14620479Y-3254086D01*
X14545913Y-3179520D01*
X14454589Y-3126793D01*
X14454585Y-3126792D01*
X14352730Y-3099500D01*
X14352727Y-3099500D01*
X14247273Y-3099500D01*
X14247270Y-3099500D01*
X14145414Y-3126792D01*
X14145410Y-3126793D01*
X14054086Y-3179520D01*
X14054086Y-3179521D01*
X13979521Y-3254086D01*
X13979520Y-3254086D01*
X13926793Y-3345410D01*
X13926792Y-3345414D01*
X13899500Y-3447269D01*
X13899500Y-3552730D01*
X13926792Y-3654585D01*
X13926793Y-3654589D01*
X13961134Y-3714068D01*
X13979520Y-3745913D01*
X14054087Y-3820480D01*
X14081083Y-3836066D01*
X14145410Y-3873206D01*
X14145412Y-3873206D01*
X14145413Y-3873207D01*
X14224504Y-3894399D01*
X14247269Y-3900499D01*
X14247270Y-3900500D01*
X14247273Y-3900500D01*
X14352726Y-3900500D01*
X14352727Y-3900500D01*
X14352727Y-3900499D01*
X14354274Y-3900296D01*
X14355036Y-3900500D01*
X14355939Y-3900500D01*
X14355939Y-3900741D01*
X14390500Y-3909999D01*
X14395323Y-3914228D01*
X14706034Y-4224939D01*
X14706037Y-4224943D01*
X14772261Y-4291168D01*
X14772263Y-4291169D01*
X14772264Y-4291170D01*
X14855145Y-4325500D01*
X14944855Y-4325500D01*
X17862035Y-4325500D01*
X17896683Y-4339852D01*
X19247683Y-5690852D01*
X19262035Y-5725500D01*
X19247683Y-5760148D01*
X19213035Y-5774500D01*
X16460308Y-5774500D01*
X16425660Y-5760148D01*
X16421438Y-5755335D01*
X16420480Y-5754087D01*
X16345913Y-5679520D01*
X16254589Y-5626793D01*
X16254585Y-5626792D01*
X16152730Y-5599500D01*
X16152727Y-5599500D01*
X16047273Y-5599500D01*
X16047270Y-5599500D01*
X15945414Y-5626792D01*
X15945410Y-5626793D01*
X15854086Y-5679520D01*
X15854086Y-5679521D01*
X15779521Y-5754086D01*
X15779520Y-5754086D01*
X15726793Y-5845410D01*
X15726792Y-5845414D01*
X15699500Y-5947269D01*
X15699500Y-6052730D01*
X15726295Y-6152730D01*
X15726793Y-6154587D01*
X15739156Y-6176000D01*
X15744052Y-6213181D01*
X15721222Y-6242935D01*
X15696721Y-6249500D01*
X13789056Y-6249500D01*
X13754408Y-6235148D01*
X11556652Y-4037391D01*
X11542300Y-4002743D01*
X11550562Y-3975514D01*
X11551632Y-3973914D01*
X11627051Y-3791835D01*
X11665500Y-3598541D01*
X11665500Y-3401459D01*
X11627051Y-3208165D01*
X11551632Y-3026086D01*
X11442139Y-2862218D01*
X11302782Y-2722861D01*
X11286075Y-2711698D01*
X11228930Y-2673515D01*
X11171552Y-2635176D01*
X30299500Y-2635176D01*
X30299500Y-4364823D01*
X30308232Y-4408721D01*
X30341495Y-4458504D01*
X30391278Y-4491767D01*
X30435180Y-4500500D01*
X32164820Y-4500500D01*
X32208722Y-4491767D01*
X32258504Y-4458504D01*
X32291767Y-4408722D01*
X32300500Y-4364820D01*
X32300500Y-2635180D01*
X32291767Y-2591278D01*
X32283724Y-2579240D01*
X32258504Y-2541495D01*
X32208721Y-2508232D01*
X32164823Y-2499500D01*
X32164820Y-2499500D01*
X30435180Y-2499500D01*
X30435176Y-2499500D01*
X30391278Y-2508232D01*
X30341495Y-2541495D01*
X30308232Y-2591278D01*
X30299500Y-2635176D01*
X11171552Y-2635176D01*
X11138914Y-2613368D01*
X11138911Y-2613366D01*
X11138910Y-2613366D01*
X10956836Y-2537949D01*
X10956827Y-2537947D01*
X10763544Y-2499500D01*
X10763541Y-2499500D01*
X10566459Y-2499500D01*
X10566455Y-2499500D01*
X10373172Y-2537947D01*
X10373163Y-2537949D01*
X10191089Y-2613366D01*
X10027218Y-2722860D01*
X9887860Y-2862218D01*
X9778366Y-3026089D01*
X9702949Y-3208163D01*
X9702947Y-3208172D01*
X9664500Y-3401455D01*
X9664500Y-3598544D01*
X9702947Y-3791827D01*
X9702949Y-3791836D01*
X9772666Y-3960148D01*
X9778368Y-3973914D01*
X9887861Y-4137782D01*
X10027218Y-4277139D01*
X10191086Y-4386632D01*
X10373165Y-4462051D01*
X10566459Y-4500500D01*
X10763541Y-4500500D01*
X10956835Y-4462051D01*
X11138914Y-4386632D01*
X11140514Y-4385562D01*
X11177294Y-4378240D01*
X11202391Y-4391652D01*
X13449840Y-6639100D01*
X13449843Y-6639104D01*
X13523100Y-6712362D01*
X13523101Y-6712362D01*
X13523103Y-6712364D01*
X13542702Y-6720482D01*
X13615173Y-6750501D01*
X13615175Y-6750501D01*
X13720529Y-6750501D01*
X13720537Y-6750500D01*
X15436066Y-6750500D01*
X15452922Y-6757482D01*
X15469958Y-6764112D01*
X15470187Y-6764633D01*
X15470714Y-6764852D01*
X15477701Y-6781721D01*
X15485055Y-6798443D01*
X15484844Y-6798966D01*
X15485066Y-6799500D01*
X15471454Y-6833392D01*
X15471091Y-6833770D01*
X15410493Y-6894369D01*
X15406606Y-6901101D01*
X15402514Y-6905374D01*
X15390351Y-6910722D01*
X15379807Y-6918813D01*
X15368598Y-6920288D01*
X15368183Y-6920471D01*
X15367936Y-6920375D01*
X15367126Y-6920482D01*
X11920038Y-6920482D01*
X11885390Y-6906130D01*
X9139852Y-4160591D01*
X9125500Y-4125943D01*
X9125500Y-2635180D01*
X9125499Y-2635176D01*
X9116767Y-2591278D01*
X9083504Y-2541495D01*
X9033721Y-2508232D01*
X8989823Y-2499500D01*
X8989820Y-2499500D01*
X7260180Y-2499500D01*
X7260176Y-2499500D01*
X7216278Y-2508232D01*
X7166495Y-2541495D01*
X7133232Y-2591278D01*
X7124500Y-2635176D01*
X4868869Y-2635176D01*
X4867982Y-2628435D01*
X4867980Y-2628430D01*
X4867980Y-2628424D01*
X4803504Y-2387799D01*
X4803500Y-2387789D01*
X4803437Y-2387636D01*
X4708164Y-2157627D01*
X4583599Y-1941873D01*
X4583596Y-1941869D01*
X4583590Y-1941860D01*
X4431942Y-1744229D01*
X4431932Y-1744217D01*
X4255782Y-1568067D01*
X4255770Y-1568057D01*
X4058139Y-1416409D01*
X4058124Y-1416399D01*
X3842376Y-1291838D01*
X3842377Y-1291838D01*
X3842373Y-1291836D01*
X3668058Y-1219632D01*
X3612210Y-1196499D01*
X3612200Y-1196495D01*
X3371576Y-1132020D01*
X3371569Y-1132019D01*
X3371565Y-1132018D01*
X3124565Y-1099500D01*
X2875435Y-1099500D01*
X2628435Y-1132018D01*
X2628431Y-1132018D01*
X2628423Y-1132020D01*
X2387799Y-1196495D01*
X2387789Y-1196499D01*
X2236603Y-1259123D01*
X2157627Y-1291836D01*
X2157624Y-1291837D01*
X2157623Y-1291838D01*
X1941875Y-1416399D01*
X1941860Y-1416409D01*
X1744229Y-1568057D01*
X1744217Y-1568067D01*
X1568067Y-1744217D01*
X1568057Y-1744229D01*
X1416409Y-1941860D01*
X1416399Y-1941875D01*
X1291838Y-2157623D01*
X1196499Y-2387789D01*
X1196495Y-2387799D01*
X1132020Y-2628423D01*
X1132018Y-2628431D01*
X1132018Y-2628435D01*
X1099500Y-2875435D01*
X407495Y-2875435D01*
X416691Y-2711688D01*
X417303Y-2706247D01*
X465216Y-2424257D01*
X466434Y-2418919D01*
X545614Y-2144078D01*
X547429Y-2138895D01*
X656877Y-1874663D01*
X659261Y-1869712D01*
X797619Y-1619372D01*
X800513Y-1614764D01*
X966057Y-1381452D01*
X969448Y-1377202D01*
X1160052Y-1163916D01*
X1163916Y-1160052D01*
X1377202Y-969448D01*
X1381452Y-966057D01*
X1614764Y-800513D01*
X1619372Y-797619D01*
X1869716Y-659258D01*
X1874659Y-656878D01*
X2138897Y-547428D01*
X2144081Y-545614D01*
X2418919Y-466434D01*
X2424257Y-465216D01*
X2706247Y-417303D01*
X2711688Y-416691D01*
X2998629Y-400577D01*
X3001376Y-400500D01*
X3057583Y-400500D01*
X46942417Y-400500D01*
X46998624Y-400500D01*
X47001371Y-400577D01*
G37*
G04 #@! TD.AperFunction*
G04 #@! TD*
M02*
