M48
; DRILL file {KiCad 9.0.0} date 2025-06-18T17:45:24-0400
; FORMAT={-:-/ absolute / metric / decimal}
; #@! TF.CreationDate,2025-06-18T17:45:24-04:00
; #@! TF.GenerationSoftware,Kicad,Pcbnew,9.0.0
; #@! TF.FileFunction,Plated,1,2,PTH
FMAT,2
METRIC
; #@! TA.AperFunction,Plated,PTH,ViaDrill
T1C0.300
; #@! TA.AperFunction,Plated,PTH,ComponentDrill
T2C0.600
; #@! TA.AperFunction,Plated,PTH,ComponentDrill
T3C1.000
%
G90
G05
T1
X8.2Y-8.5
X8.21Y-10.49
X8.21Y-11.56
X8.7Y-15.3
X8.7Y-15.9
X8.8Y-8.5
X9.0Y-14.7
X9.425Y-8.5
X10.3Y-16.15
X10.3Y-16.775
X10.3Y-17.4
X10.8Y-9.3
X11.2Y-14.3
X11.3Y-9.8
X11.8Y-22.9
X12.4Y-10.2
X12.7Y-20.4
X12.775Y-13.3
X12.8Y-21.1
X12.9Y-10.7
X13.4Y-13.3
X13.7Y-17.8
X14.0Y-9.3
X14.075Y-13.3
X14.3Y-3.5
X14.3Y-10.525
X14.5Y-15.4
X14.52Y-8.953
X14.7Y-13.3
X15.3Y-12.8
X15.3Y-14.5
X15.6Y-17.9
X15.771Y-7.171
X15.9Y-9.0
X15.9Y-10.6
X16.1Y-6.0
X16.3Y-9.4
X16.5Y-21.325
X16.9Y-7.15
X16.9Y-12.8
X17.1Y-14.5
X17.6Y-3.5
X17.849Y-7.905
X17.863Y-8.53
X18.1Y-14.8
X18.3Y-11.7
X18.4Y-17.7
X18.4Y-21.2
X18.65Y-8.9
X18.725Y-8.175
X19.2Y-11.2
X19.2Y-14.5
X19.7Y-19.8
X20.8Y-17.7
X21.0Y-3.5
X21.1Y-6.1
X21.6Y-19.8
X23.0Y-6.4
X23.0Y-10.0
X23.0Y-14.5
X23.5Y-19.8
X23.5Y-22.0
X24.4Y-3.5
X25.3Y-22.0
X25.5Y-8.7
X25.6Y-9.4
X26.067Y-8.717
X26.2Y-6.4
X26.2Y-9.4
X26.2Y-14.5
X27.0Y-16.1
X27.1Y-22.0
X27.2Y-19.8
X27.8Y-3.5
X28.8Y-19.8
X28.8Y-22.1
X30.6Y-19.8
X32.4Y-19.8
X34.2Y-19.8
X34.5Y-5.5
X34.5Y-9.9
X34.5Y-14.2
X35.6Y-19.8
X35.9Y-21.4
X36.0Y-22.1
X36.75Y-13.45
X37.5Y-22.7
X38.6Y-20.5
X38.8Y-6.2
X39.4Y-6.2
X43.2Y-14.0
X44.0Y-14.0
T3
X2.535Y-17.9
X5.075Y-17.9
X8.125Y-3.5
X10.665Y-3.5
X12.54Y-16.6
X15.08Y-16.6
X17.62Y-16.6
X20.16Y-16.6
X22.7Y-16.6
X28.7Y-16.6
X31.24Y-16.6
X31.3Y-3.5
X33.78Y-16.6
X33.84Y-3.5
X36.32Y-16.6
X38.825Y-3.5
X41.365Y-3.5
T2
X2.92Y-6.38G85X2.12Y-6.38
G05
X2.92Y-15.02G85X2.12Y-15.02
G05
X7.25Y-6.38G85X6.15Y-6.38
G05
X7.25Y-15.02G85X6.15Y-15.02
G05
M30
