G04 #@! TF.GenerationSoftware,KiCad,Pcbnew,8.0.8*
G04 #@! TF.CreationDate,2025-02-16T13:24:11-05:00*
G04 #@! TF.ProjectId,rp24-usb-tester,72703234-2d75-4736-922d-746573746572,v0.2.0*
G04 #@! TF.SameCoordinates,Original*
G04 #@! TF.FileFunction,Copper,L1,Top*
G04 #@! TF.FilePolarity,Positive*
%FSLAX46Y46*%
G04 Gerber Fmt 4.6, Leading zero omitted, Abs format (unit mm)*
G04 Created by KiCad (PCBNEW 8.0.8) date 2025-02-16 13:24:11*
%MOMM*%
%LPD*%
G01*
G04 APERTURE LIST*
G04 Aperture macros list*
%AMRoundRect*
0 Rectangle with rounded corners*
0 $1 Rounding radius*
0 $2 $3 $4 $5 $6 $7 $8 $9 X,Y pos of 4 corners*
0 Add a 4 corners polygon primitive as box body*
4,1,4,$2,$3,$4,$5,$6,$7,$8,$9,$2,$3,0*
0 Add four circle primitives for the rounded corners*
1,1,$1+$1,$2,$3*
1,1,$1+$1,$4,$5*
1,1,$1+$1,$6,$7*
1,1,$1+$1,$8,$9*
0 Add four rect primitives between the rounded corners*
20,1,$1+$1,$2,$3,$4,$5,0*
20,1,$1+$1,$4,$5,$6,$7,0*
20,1,$1+$1,$6,$7,$8,$9,0*
20,1,$1+$1,$8,$9,$2,$3,0*%
G04 Aperture macros list end*
G04 #@! TA.AperFunction,ComponentPad*
%ADD10R,1.700000X1.700000*%
G04 #@! TD*
G04 #@! TA.AperFunction,ComponentPad*
%ADD11O,1.700000X1.700000*%
G04 #@! TD*
G04 #@! TA.AperFunction,SMDPad,CuDef*
%ADD12RoundRect,0.218750X0.256250X-0.218750X0.256250X0.218750X-0.256250X0.218750X-0.256250X-0.218750X0*%
G04 #@! TD*
G04 #@! TA.AperFunction,SMDPad,CuDef*
%ADD13R,0.485000X0.180000*%
G04 #@! TD*
G04 #@! TA.AperFunction,SMDPad,CuDef*
%ADD14R,0.535000X0.230000*%
G04 #@! TD*
G04 #@! TA.AperFunction,SMDPad,CuDef*
%ADD15RoundRect,0.150000X0.150000X-0.587500X0.150000X0.587500X-0.150000X0.587500X-0.150000X-0.587500X0*%
G04 #@! TD*
G04 #@! TA.AperFunction,SMDPad,CuDef*
%ADD16RoundRect,0.200000X-0.200000X-0.275000X0.200000X-0.275000X0.200000X0.275000X-0.200000X0.275000X0*%
G04 #@! TD*
G04 #@! TA.AperFunction,SMDPad,CuDef*
%ADD17R,0.500000X0.320000*%
G04 #@! TD*
G04 #@! TA.AperFunction,SMDPad,CuDef*
%ADD18RoundRect,0.250000X0.650000X-1.000000X0.650000X1.000000X-0.650000X1.000000X-0.650000X-1.000000X0*%
G04 #@! TD*
G04 #@! TA.AperFunction,SMDPad,CuDef*
%ADD19RoundRect,0.135000X0.185000X-0.135000X0.185000X0.135000X-0.185000X0.135000X-0.185000X-0.135000X0*%
G04 #@! TD*
G04 #@! TA.AperFunction,SMDPad,CuDef*
%ADD20RoundRect,0.150000X-0.512500X-0.150000X0.512500X-0.150000X0.512500X0.150000X-0.512500X0.150000X0*%
G04 #@! TD*
G04 #@! TA.AperFunction,SMDPad,CuDef*
%ADD21RoundRect,0.250000X-0.250000X-0.475000X0.250000X-0.475000X0.250000X0.475000X-0.250000X0.475000X0*%
G04 #@! TD*
G04 #@! TA.AperFunction,SMDPad,CuDef*
%ADD22RoundRect,0.140000X0.170000X-0.140000X0.170000X0.140000X-0.170000X0.140000X-0.170000X-0.140000X0*%
G04 #@! TD*
G04 #@! TA.AperFunction,SMDPad,CuDef*
%ADD23RoundRect,0.150000X-0.425000X0.150000X-0.425000X-0.150000X0.425000X-0.150000X0.425000X0.150000X0*%
G04 #@! TD*
G04 #@! TA.AperFunction,SMDPad,CuDef*
%ADD24RoundRect,0.075000X-0.500000X0.075000X-0.500000X-0.075000X0.500000X-0.075000X0.500000X0.075000X0*%
G04 #@! TD*
G04 #@! TA.AperFunction,HeatsinkPad*
%ADD25O,2.100000X1.000000*%
G04 #@! TD*
G04 #@! TA.AperFunction,HeatsinkPad*
%ADD26O,1.800000X1.000000*%
G04 #@! TD*
G04 #@! TA.AperFunction,SMDPad,CuDef*
%ADD27R,1.400000X1.900000*%
G04 #@! TD*
G04 #@! TA.AperFunction,SMDPad,CuDef*
%ADD28R,0.320000X0.500000*%
G04 #@! TD*
G04 #@! TA.AperFunction,SMDPad,CuDef*
%ADD29RoundRect,0.250000X-0.475000X0.250000X-0.475000X-0.250000X0.475000X-0.250000X0.475000X0.250000X0*%
G04 #@! TD*
G04 #@! TA.AperFunction,ViaPad*
%ADD30C,0.450000*%
G04 #@! TD*
G04 #@! TA.AperFunction,ViaPad*
%ADD31C,0.600000*%
G04 #@! TD*
G04 #@! TA.AperFunction,Conductor*
%ADD32C,0.200000*%
G04 #@! TD*
G04 #@! TA.AperFunction,Conductor*
%ADD33C,0.150000*%
G04 #@! TD*
G04 #@! TA.AperFunction,Conductor*
%ADD34C,0.160000*%
G04 #@! TD*
G04 #@! TA.AperFunction,Conductor*
%ADD35C,0.400000*%
G04 #@! TD*
G04 APERTURE END LIST*
D10*
G04 #@! TO.P,J6,1,Pin_1*
G04 #@! TO.N,/AUX3*
X12540000Y-16600000D03*
D11*
G04 #@! TO.P,J6,2,Pin_2*
G04 #@! TO.N,/AUX4*
X15080000Y-16600000D03*
G04 #@! TO.P,J6,3,Pin_3*
G04 #@! TO.N,/AUX10*
X17620000Y-16600000D03*
G04 #@! TO.P,J6,4,Pin_4*
G04 #@! TO.N,/AUX11*
X20160000Y-16600000D03*
G04 #@! TO.P,J6,5,Pin_5*
G04 #@! TO.N,/AUX12*
X22700000Y-16600000D03*
G04 #@! TD*
D12*
G04 #@! TO.P,D11,1,K*
G04 #@! TO.N,Net-(D11-K)*
X31462960Y-22062500D03*
G04 #@! TO.P,D11,2,A*
G04 #@! TO.N,Net-(D11-A)*
X31462960Y-20487500D03*
G04 #@! TD*
D13*
G04 #@! TO.P,J4,1,1*
G04 #@! TO.N,/D+*
X17007000Y-8075000D03*
G04 #@! TO.P,J4,2,2*
G04 #@! TO.N,/D-*
X17007000Y-8425000D03*
G04 #@! TO.P,J4,3,3*
G04 #@! TO.N,GND*
X17007000Y-8775000D03*
G04 #@! TO.P,J4,4,4*
G04 #@! TO.N,/MOTOR_B*
X17007000Y-9125000D03*
G04 #@! TO.P,J4,5,5*
X17007000Y-9475000D03*
G04 #@! TO.P,J4,6,6*
G04 #@! TO.N,/MOTOR_A*
X17007000Y-9825000D03*
G04 #@! TO.P,J4,7,7*
X17007000Y-10175000D03*
G04 #@! TO.P,J4,8,8*
G04 #@! TO.N,/CAP+*
X17007000Y-10525000D03*
G04 #@! TO.P,J4,9,9*
G04 #@! TO.N,/LAMP_FRONT*
X17007000Y-10875000D03*
G04 #@! TO.P,J4,10,10*
G04 #@! TO.N,/LAMP_REAR*
X17007000Y-11225000D03*
G04 #@! TO.P,J4,11,11*
G04 #@! TO.N,/AUX1*
X17007000Y-11575000D03*
G04 #@! TO.P,J4,12,12*
G04 #@! TO.N,/AUX2*
X17007000Y-11925000D03*
G04 #@! TO.P,J4,13,13*
G04 #@! TO.N,/AUX8*
X15192000Y-11925000D03*
G04 #@! TO.P,J4,14,14*
G04 #@! TO.N,/AUX7*
X15192000Y-11575000D03*
G04 #@! TO.P,J4,15,15*
G04 #@! TO.N,/AUX6*
X15192000Y-11225000D03*
G04 #@! TO.P,J4,16,16*
G04 #@! TO.N,/AUX5*
X15192000Y-10875000D03*
G04 #@! TO.P,J4,17,17*
G04 #@! TO.N,VDC*
X15192000Y-10525000D03*
G04 #@! TO.P,J4,18,18*
G04 #@! TO.N,VCC*
X15192000Y-10175000D03*
G04 #@! TO.P,J4,19,19*
G04 #@! TO.N,/AUX10*
X15192000Y-9825000D03*
G04 #@! TO.P,J4,20,20*
G04 #@! TO.N,/AUX4*
X15192000Y-9475000D03*
G04 #@! TO.P,J4,21,21*
G04 #@! TO.N,/AUX3*
X15192000Y-9125000D03*
G04 #@! TO.P,J4,22,22*
G04 #@! TO.N,GND*
X15192000Y-8775000D03*
G04 #@! TO.P,J4,23,23*
G04 #@! TO.N,/AUX11*
X15192000Y-8425000D03*
G04 #@! TO.P,J4,24,24*
G04 #@! TO.N,/AUX12*
X15192000Y-8075000D03*
D14*
G04 #@! TO.P,J4,X1A,X1A*
G04 #@! TO.N,/TRACK_LEFT*
X16868000Y-7700000D03*
G04 #@! TO.P,J4,X1B,X1B*
X15332000Y-7700000D03*
G04 #@! TO.P,J4,X2A,X2A*
G04 #@! TO.N,/TRACK_RIGHT*
X16868000Y-12300000D03*
G04 #@! TO.P,J4,X2B,X2B*
X15332000Y-12300000D03*
G04 #@! TD*
D15*
G04 #@! TO.P,Q1,1,B*
G04 #@! TO.N,/AUX3*
X13250000Y-4237500D03*
G04 #@! TO.P,Q1,2,E*
G04 #@! TO.N,GND*
X15150000Y-4237500D03*
G04 #@! TO.P,Q1,3,C*
G04 #@! TO.N,Net-(D5-K)*
X14200000Y-2362500D03*
G04 #@! TD*
D10*
G04 #@! TO.P,J5,1,Pin_1*
G04 #@! TO.N,/TRACK_LEFT*
X8125000Y-3500000D03*
D11*
G04 #@! TO.P,J5,2,Pin_2*
G04 #@! TO.N,/TRACK_RIGHT*
X10665000Y-3500000D03*
G04 #@! TD*
D10*
G04 #@! TO.P,J7,1,Pin_1*
G04 #@! TO.N,/MOTOR_A*
X38825000Y-3500000D03*
D11*
G04 #@! TO.P,J7,2,Pin_2*
G04 #@! TO.N,/MOTOR_B*
X41365000Y-3500000D03*
G04 #@! TD*
D12*
G04 #@! TO.P,D6,1,K*
G04 #@! TO.N,Net-(D6-K)*
X22556480Y-22062500D03*
G04 #@! TO.P,D6,2,A*
G04 #@! TO.N,Net-(D6-A)*
X22556480Y-20487500D03*
G04 #@! TD*
D16*
G04 #@! TO.P,R3,1*
G04 #@! TO.N,+5V*
X39275000Y-17700000D03*
G04 #@! TO.P,R3,2*
G04 #@! TO.N,Net-(U1-FB)*
X40925000Y-17700000D03*
G04 #@! TD*
D17*
G04 #@! TO.P,RN1,1,R1.1*
G04 #@! TO.N,+5V*
X11150000Y-20575000D03*
G04 #@! TO.P,RN1,2,R2.1*
X11150000Y-21075000D03*
G04 #@! TO.P,RN1,3,R3.1*
X11150000Y-21575000D03*
G04 #@! TO.P,RN1,4,R4.1*
X11150000Y-22075000D03*
G04 #@! TO.P,RN1,5,R4.2*
G04 #@! TO.N,Net-(D1-A)*
X12150000Y-22075000D03*
G04 #@! TO.P,RN1,6,R3.2*
G04 #@! TO.N,Net-(D2-A)*
X12150000Y-21575000D03*
G04 #@! TO.P,RN1,7,R2.2*
G04 #@! TO.N,Net-(D3-A)*
X12150000Y-21075000D03*
G04 #@! TO.P,RN1,8,R1.2*
G04 #@! TO.N,Net-(D4-A)*
X12150000Y-20575000D03*
G04 #@! TD*
D12*
G04 #@! TO.P,D5,1,K*
G04 #@! TO.N,Net-(D5-K)*
X20775184Y-22062500D03*
G04 #@! TO.P,D5,2,A*
G04 #@! TO.N,Net-(D5-A)*
X20775184Y-20487500D03*
G04 #@! TD*
G04 #@! TO.P,D12,1,K*
G04 #@! TO.N,Net-(D12-K)*
X33244256Y-22062500D03*
G04 #@! TO.P,D12,2,A*
G04 #@! TO.N,Net-(D12-A)*
X33244256Y-20487500D03*
G04 #@! TD*
D18*
G04 #@! TO.P,D13,1,K*
G04 #@! TO.N,VDC*
X8700000Y-21600000D03*
G04 #@! TO.P,D13,2,A*
G04 #@! TO.N,VBUS*
X8700000Y-17600000D03*
G04 #@! TD*
D15*
G04 #@! TO.P,Q4,1,B*
G04 #@! TO.N,/AUX11*
X23450000Y-4237500D03*
G04 #@! TO.P,Q4,2,E*
G04 #@! TO.N,GND*
X25350000Y-4237500D03*
G04 #@! TO.P,Q4,3,C*
G04 #@! TO.N,Net-(D12-K)*
X24400000Y-2362500D03*
G04 #@! TD*
D19*
G04 #@! TO.P,R2,1*
G04 #@! TO.N,VBUS*
X10000000Y-13310000D03*
G04 #@! TO.P,R2,2*
G04 #@! TO.N,Net-(P1-CC2)*
X10000000Y-12290000D03*
G04 #@! TD*
D15*
G04 #@! TO.P,Q2,1,B*
G04 #@! TO.N,/AUX4*
X16650000Y-4237500D03*
G04 #@! TO.P,Q2,2,E*
G04 #@! TO.N,GND*
X18550000Y-4237500D03*
G04 #@! TO.P,Q2,3,C*
G04 #@! TO.N,Net-(D6-K)*
X17600000Y-2362500D03*
G04 #@! TD*
G04 #@! TO.P,Q3,1,B*
G04 #@! TO.N,/AUX10*
X20050000Y-4237500D03*
G04 #@! TO.P,Q3,2,E*
G04 #@! TO.N,GND*
X21950000Y-4237500D03*
G04 #@! TO.P,Q3,3,C*
G04 #@! TO.N,Net-(D11-K)*
X21000000Y-2362500D03*
G04 #@! TD*
D12*
G04 #@! TO.P,D7,1,K*
G04 #@! TO.N,/AUX5*
X24337776Y-22062500D03*
G04 #@! TO.P,D7,2,A*
G04 #@! TO.N,Net-(D7-A)*
X24337776Y-20487500D03*
G04 #@! TD*
G04 #@! TO.P,D1,1,K*
G04 #@! TO.N,/LAMP_FRONT*
X13650000Y-22062500D03*
G04 #@! TO.P,D1,2,A*
G04 #@! TO.N,Net-(D1-A)*
X13650000Y-20487500D03*
G04 #@! TD*
D20*
G04 #@! TO.P,U1,1,BS*
G04 #@! TO.N,Net-(U1-BS)*
X39362500Y-14050000D03*
G04 #@! TO.P,U1,2,GND*
G04 #@! TO.N,GND*
X39362500Y-15000000D03*
G04 #@! TO.P,U1,3,FB*
G04 #@! TO.N,Net-(U1-FB)*
X39362500Y-15950000D03*
G04 #@! TO.P,U1,4,EN*
G04 #@! TO.N,VDC*
X41637500Y-15950000D03*
G04 #@! TO.P,U1,5,VIN*
X41637500Y-15000000D03*
G04 #@! TO.P,U1,6,SW*
G04 #@! TO.N,/SW*
X41637500Y-14050000D03*
G04 #@! TD*
D12*
G04 #@! TO.P,D4,1,K*
G04 #@! TO.N,/AUX2*
X18993888Y-22062500D03*
G04 #@! TO.P,D4,2,A*
G04 #@! TO.N,Net-(D4-A)*
X18993888Y-20487500D03*
G04 #@! TD*
D21*
G04 #@! TO.P,C3,1*
G04 #@! TO.N,+5V*
X39150000Y-7500000D03*
G04 #@! TO.P,C3,2*
G04 #@! TO.N,GND*
X41050000Y-7500000D03*
G04 #@! TD*
D19*
G04 #@! TO.P,R1,1*
G04 #@! TO.N,Net-(P1-CC1)*
X10000000Y-9310000D03*
G04 #@! TO.P,R1,2*
G04 #@! TO.N,VBUS*
X10000000Y-8290000D03*
G04 #@! TD*
D10*
G04 #@! TO.P,J1,1,Pin_1*
G04 #@! TO.N,/D+*
X5075000Y-17900000D03*
D11*
G04 #@! TO.P,J1,2,Pin_2*
G04 #@! TO.N,/D-*
X2535000Y-17900000D03*
G04 #@! TD*
D17*
G04 #@! TO.P,RN3,1,R1.1*
G04 #@! TO.N,+5V*
X37550000Y-22075000D03*
G04 #@! TO.P,RN3,2,R2.1*
X37550000Y-21575000D03*
G04 #@! TO.P,RN3,3,R3.1*
X37550000Y-21075000D03*
G04 #@! TO.P,RN3,4,R4.1*
X37550000Y-20575000D03*
G04 #@! TO.P,RN3,5,R4.2*
G04 #@! TO.N,Net-(D12-A)*
X36550000Y-20575000D03*
G04 #@! TO.P,RN3,6,R3.2*
G04 #@! TO.N,Net-(D11-A)*
X36550000Y-21075000D03*
G04 #@! TO.P,RN3,7,R2.2*
G04 #@! TO.N,Net-(D10-A)*
X36550000Y-21575000D03*
G04 #@! TO.P,RN3,8,R1.2*
G04 #@! TO.N,Net-(D9-A)*
X36550000Y-22075000D03*
G04 #@! TD*
D22*
G04 #@! TO.P,C2,1*
G04 #@! TO.N,Net-(U1-BS)*
X37941172Y-14296153D03*
G04 #@! TO.P,C2,2*
G04 #@! TO.N,/SW*
X37941172Y-13336153D03*
G04 #@! TD*
D12*
G04 #@! TO.P,D2,1,K*
G04 #@! TO.N,/LAMP_REAR*
X15431296Y-22062500D03*
G04 #@! TO.P,D2,2,A*
G04 #@! TO.N,Net-(D2-A)*
X15431296Y-20487500D03*
G04 #@! TD*
D23*
G04 #@! TO.P,P1,A1,GND*
G04 #@! TO.N,GND*
X7275000Y-7500000D03*
G04 #@! TO.P,P1,A4,VBUS*
G04 #@! TO.N,VBUS*
X7275000Y-8300000D03*
D24*
G04 #@! TO.P,P1,A5,CC1*
G04 #@! TO.N,Net-(P1-CC1)*
X7275000Y-9450000D03*
G04 #@! TO.P,P1,A6,D+*
G04 #@! TO.N,/D+*
X7275000Y-10450000D03*
G04 #@! TO.P,P1,A7,D-*
G04 #@! TO.N,/D-*
X7275000Y-10950000D03*
G04 #@! TO.P,P1,A8,SBU1*
G04 #@! TO.N,unconnected-(P1-SBU1-PadA8)*
X7275000Y-11950000D03*
D23*
G04 #@! TO.P,P1,A9,VBUS*
G04 #@! TO.N,VBUS*
X7275000Y-13100000D03*
G04 #@! TO.P,P1,A12,GND*
G04 #@! TO.N,GND*
X7275000Y-13900000D03*
G04 #@! TO.P,P1,B1,GND*
X7275000Y-13900000D03*
G04 #@! TO.P,P1,B4,VBUS*
G04 #@! TO.N,VBUS*
X7275000Y-13100000D03*
D24*
G04 #@! TO.P,P1,B5,CC2*
G04 #@! TO.N,Net-(P1-CC2)*
X7275000Y-12450000D03*
G04 #@! TO.P,P1,B6,D+*
G04 #@! TO.N,/D+*
X7275000Y-11450000D03*
G04 #@! TO.P,P1,B7,D-*
G04 #@! TO.N,/D-*
X7275000Y-9950000D03*
G04 #@! TO.P,P1,B8,SBU2*
G04 #@! TO.N,unconnected-(P1-SBU2-PadB8)*
X7275000Y-8950000D03*
D23*
G04 #@! TO.P,P1,B9,VBUS*
G04 #@! TO.N,VBUS*
X7275000Y-8300000D03*
G04 #@! TO.P,P1,B12,GND*
G04 #@! TO.N,GND*
X7275000Y-7500000D03*
D25*
G04 #@! TO.P,P1,S1,SHIELD*
X6700000Y-6380000D03*
D26*
X2520000Y-6380000D03*
D25*
X6700000Y-15020000D03*
D26*
X2520000Y-15020000D03*
G04 #@! TD*
D12*
G04 #@! TO.P,D3,1,K*
G04 #@! TO.N,/AUX1*
X17212592Y-22062500D03*
G04 #@! TO.P,D3,2,A*
G04 #@! TO.N,Net-(D3-A)*
X17212592Y-20487500D03*
G04 #@! TD*
D27*
G04 #@! TO.P,L1,1,1*
G04 #@! TO.N,/SW*
X43130000Y-10700000D03*
G04 #@! TO.P,L1,2,2*
G04 #@! TO.N,+5V*
X39070000Y-10700000D03*
G04 #@! TD*
D10*
G04 #@! TO.P,J3,1,Pin_1*
G04 #@! TO.N,/CAP+*
X31300000Y-3500000D03*
D11*
G04 #@! TO.P,J3,2,Pin_2*
G04 #@! TO.N,GND*
X33840000Y-3500000D03*
G04 #@! TD*
D15*
G04 #@! TO.P,Q5,1,B*
G04 #@! TO.N,/AUX12*
X26850000Y-4237500D03*
G04 #@! TO.P,Q5,2,E*
G04 #@! TO.N,GND*
X28750000Y-4237500D03*
G04 #@! TO.P,Q5,3,C*
G04 #@! TO.N,Net-(D14-K)*
X27800000Y-2362500D03*
G04 #@! TD*
D12*
G04 #@! TO.P,D14,1,K*
G04 #@! TO.N,Net-(D14-K)*
X35025556Y-22062500D03*
G04 #@! TO.P,D14,2,A*
G04 #@! TO.N,Net-(D14-A)*
X35025556Y-20487500D03*
G04 #@! TD*
D19*
G04 #@! TO.P,R5,1*
G04 #@! TO.N,+5V*
X38600000Y-22110000D03*
G04 #@! TO.P,R5,2*
G04 #@! TO.N,Net-(D14-A)*
X38600000Y-21090000D03*
G04 #@! TD*
D28*
G04 #@! TO.P,RN2,1,R1.1*
G04 #@! TO.N,+5V*
X26450000Y-16089478D03*
G04 #@! TO.P,RN2,2,R2.1*
X25950000Y-16089478D03*
G04 #@! TO.P,RN2,3,R3.1*
X25450000Y-16089478D03*
G04 #@! TO.P,RN2,4,R4.1*
X24950000Y-16089478D03*
G04 #@! TO.P,RN2,5,R4.2*
G04 #@! TO.N,Net-(D5-A)*
X24950000Y-17089478D03*
G04 #@! TO.P,RN2,6,R3.2*
G04 #@! TO.N,Net-(D6-A)*
X25450000Y-17089478D03*
G04 #@! TO.P,RN2,7,R2.2*
G04 #@! TO.N,Net-(D7-A)*
X25950000Y-17089478D03*
G04 #@! TO.P,RN2,8,R1.2*
G04 #@! TO.N,Net-(D8-A)*
X26450000Y-17089478D03*
G04 #@! TD*
D29*
G04 #@! TO.P,C1,1*
G04 #@! TO.N,VDC*
X43600000Y-15050000D03*
G04 #@! TO.P,C1,2*
G04 #@! TO.N,GND*
X43600000Y-16950000D03*
G04 #@! TD*
D12*
G04 #@! TO.P,D8,1,K*
G04 #@! TO.N,/AUX6*
X26119072Y-22062500D03*
G04 #@! TO.P,D8,2,A*
G04 #@! TO.N,Net-(D8-A)*
X26119072Y-20487500D03*
G04 #@! TD*
D16*
G04 #@! TO.P,R4,1*
G04 #@! TO.N,Net-(U1-FB)*
X39275000Y-19200000D03*
G04 #@! TO.P,R4,2*
G04 #@! TO.N,GND*
X40925000Y-19200000D03*
G04 #@! TD*
D12*
G04 #@! TO.P,D10,1,K*
G04 #@! TO.N,/AUX8*
X29681664Y-22062500D03*
G04 #@! TO.P,D10,2,A*
G04 #@! TO.N,Net-(D10-A)*
X29681664Y-20487500D03*
G04 #@! TD*
G04 #@! TO.P,D9,1,K*
G04 #@! TO.N,/AUX7*
X27900368Y-22062500D03*
G04 #@! TO.P,D9,2,A*
G04 #@! TO.N,Net-(D9-A)*
X27900368Y-20487500D03*
G04 #@! TD*
D10*
G04 #@! TO.P,J2,1,Pin_1*
G04 #@! TO.N,VDC*
X28700000Y-16600000D03*
D11*
G04 #@! TO.P,J2,2,Pin_2*
G04 #@! TO.N,GND*
X31240000Y-16600000D03*
G04 #@! TO.P,J2,3,Pin_3*
G04 #@! TO.N,VCC*
X33780000Y-16600000D03*
G04 #@! TO.P,J2,4,Pin_4*
G04 #@! TO.N,GND*
X36320000Y-16600000D03*
G04 #@! TD*
D30*
G04 #@! TO.N,VDC*
X18300000Y-11700000D03*
X44000000Y-14000000D03*
X43200000Y-14000000D03*
X10300000Y-16149994D03*
X10300000Y-17400000D03*
X14300000Y-10525000D03*
X10300000Y-16774997D03*
G04 #@! TO.N,+5V*
X38800000Y-6200000D03*
X27000000Y-16100000D03*
X37500000Y-22700000D03*
X36750000Y-13450000D03*
X11800000Y-22900000D03*
X39400000Y-6200000D03*
G04 #@! TO.N,Net-(D3-A)*
X12800000Y-21100000D03*
X16500000Y-21325000D03*
G04 #@! TO.N,Net-(D4-A)*
X12700000Y-20400000D03*
X18400000Y-21200000D03*
G04 #@! TO.N,/AUX2*
X18100000Y-14800000D03*
X19700000Y-19800000D03*
G04 #@! TO.N,/AUX5*
X12774997Y-13300000D03*
X23500000Y-22000000D03*
G04 #@! TO.N,/AUX6*
X25300000Y-22000000D03*
X13400000Y-13300000D03*
G04 #@! TO.N,/AUX7*
X27100000Y-22000000D03*
X14074997Y-13300000D03*
G04 #@! TO.N,Net-(D9-A)*
X36000000Y-22100000D03*
X27200000Y-19800000D03*
G04 #@! TO.N,/AUX8*
X14700000Y-13300000D03*
X28800000Y-22100000D03*
D31*
G04 #@! TO.N,/TRACK_LEFT*
X15770982Y-7170982D03*
X16550000Y-7150000D03*
D30*
G04 #@! TO.N,/TRACK_RIGHT*
X15300000Y-12800000D03*
X16900000Y-12800000D03*
G04 #@! TO.N,/D+*
X8300000Y-10200000D03*
X10800000Y-9300000D03*
X8300000Y-11300000D03*
X17848975Y-7905161D03*
G04 #@! TO.N,/D-*
X11300000Y-9800000D03*
X17863262Y-8530000D03*
G04 #@! TO.N,/AUX3*
X14520033Y-8953311D03*
X12400000Y-10200000D03*
G04 #@! TO.N,/MOTOR_B*
X25500000Y-8700000D03*
X26066661Y-8716786D03*
G04 #@! TO.N,GND*
X34500000Y-9900000D03*
X23000000Y-6400000D03*
X11200000Y-14300000D03*
X18650000Y-8900000D03*
X26200000Y-6400000D03*
X23000000Y-10000000D03*
X15600000Y-17900000D03*
X18725000Y-8175000D03*
X13700000Y-17800000D03*
X15900000Y-9000000D03*
X18400000Y-17700000D03*
X20800000Y-17700000D03*
X19200000Y-14500000D03*
X15300000Y-14500000D03*
X17100000Y-14500000D03*
X23000000Y-14500000D03*
X26200000Y-14500000D03*
X34500000Y-5500000D03*
X16300000Y-9400000D03*
X34500000Y-14200000D03*
G04 #@! TO.N,/MOTOR_A*
X25600000Y-9400000D03*
X26200000Y-9400000D03*
G04 #@! TO.N,VCC*
X15900000Y-10600000D03*
X19200000Y-11200000D03*
G04 #@! TO.N,/AUX10*
X14500000Y-15400000D03*
G04 #@! TO.N,/AUX12*
X21100000Y-6100000D03*
G04 #@! TO.N,/AUX11*
X16100000Y-6000000D03*
G04 #@! TO.N,/AUX4*
X12900000Y-10700000D03*
X14000000Y-9300000D03*
G04 #@! TO.N,Net-(D14-A)*
X38600000Y-20500000D03*
X35600000Y-19800000D03*
G04 #@! TO.N,Net-(D6-K)*
X23500000Y-19800000D03*
X17600000Y-3500000D03*
G04 #@! TO.N,Net-(D10-A)*
X28800000Y-19800000D03*
X35900000Y-21400000D03*
G04 #@! TO.N,Net-(D11-K)*
X21000000Y-3500000D03*
X30600000Y-19800000D03*
G04 #@! TO.N,Net-(D12-K)*
X32400000Y-19800000D03*
X24400000Y-3500000D03*
G04 #@! TO.N,Net-(D5-K)*
X14300000Y-3500000D03*
X21600000Y-19800000D03*
G04 #@! TO.N,VBUS*
X9000000Y-14700000D03*
X8700000Y-15900000D03*
X8200000Y-8500000D03*
X8800000Y-8500000D03*
X8700000Y-15300000D03*
X9425003Y-8500000D03*
G04 #@! TO.N,Net-(D14-K)*
X27800000Y-3500000D03*
X34200000Y-19800000D03*
G04 #@! TD*
D32*
G04 #@! TO.N,VDC*
X10300000Y-17400000D02*
X10300000Y-16774997D01*
X18500000Y-13000000D02*
X20600000Y-15100000D01*
X15192000Y-10525000D02*
X14300000Y-10525000D01*
X18300000Y-11700000D02*
X18500000Y-11900000D01*
X10300000Y-16774997D02*
X10300000Y-16149994D01*
X8700000Y-21600000D02*
X10300000Y-20000000D01*
X10300000Y-20000000D02*
X10300000Y-17400000D01*
D33*
X41637500Y-15950000D02*
X41637500Y-15000000D01*
D32*
X20600000Y-15100000D02*
X27200000Y-15100000D01*
X18500000Y-11900000D02*
X18500000Y-13000000D01*
X27200000Y-15100000D02*
X28700000Y-16600000D01*
G04 #@! TO.N,+5V*
X27000000Y-16100000D02*
X26460522Y-16100000D01*
X38565000Y-22075000D02*
X38600000Y-22110000D01*
D33*
X37850000Y-17700000D02*
X37550000Y-17400000D01*
D32*
X37500000Y-22700000D02*
X37550000Y-22650000D01*
D33*
X39275000Y-17700000D02*
X37850000Y-17700000D01*
D32*
X24950000Y-16089478D02*
X26450000Y-16089478D01*
X36750000Y-14810202D02*
X37550000Y-15610202D01*
X11150000Y-22075000D02*
X11150000Y-20575000D01*
X37550000Y-17400000D02*
X37550000Y-20575000D01*
X37550000Y-22650000D02*
X37550000Y-22075000D01*
X11150000Y-22075000D02*
X11150000Y-22250000D01*
X37550000Y-22075000D02*
X37550000Y-20575000D01*
X37550000Y-15610202D02*
X37550000Y-17400000D01*
X36750000Y-13450000D02*
X36750000Y-14810202D01*
X11150000Y-22250000D02*
X11800000Y-22900000D01*
X37550000Y-22075000D02*
X38565000Y-22075000D01*
D33*
G04 #@! TO.N,/LAMP_FRONT*
X16155000Y-18545000D02*
X14600000Y-20100000D01*
X15900000Y-11475736D02*
X15900000Y-13224264D01*
X17007000Y-10875000D02*
X16500736Y-10875000D01*
X16155000Y-13479264D02*
X16155000Y-18545000D01*
X16500736Y-10875000D02*
X15900000Y-11475736D01*
X13650000Y-21596118D02*
X13650000Y-22062500D01*
X15900000Y-13224264D02*
X16155000Y-13479264D01*
X14600000Y-20646118D02*
X13650000Y-21596118D01*
X14600000Y-20100000D02*
X14600000Y-20646118D01*
G04 #@! TO.N,Net-(D2-A)*
X12150000Y-21575000D02*
X12550000Y-21575000D01*
X13125000Y-22725000D02*
X14096118Y-22725000D01*
X12800000Y-21825000D02*
X12800000Y-22400000D01*
X14500000Y-22321118D02*
X14500000Y-21418796D01*
X12550000Y-21575000D02*
X12800000Y-21825000D01*
X12800000Y-22400000D02*
X13125000Y-22725000D01*
X14500000Y-21418796D02*
X15431296Y-20487500D01*
X14096118Y-22725000D02*
X14500000Y-22321118D01*
G04 #@! TO.N,Net-(D3-A)*
X12150000Y-21075000D02*
X12775000Y-21075000D01*
X16500000Y-21200092D02*
X17212592Y-20487500D01*
X12775000Y-21075000D02*
X12800000Y-21100000D01*
X16500000Y-21325000D02*
X16500000Y-21200092D01*
G04 #@! TO.N,/LAMP_REAR*
X15431296Y-21596118D02*
X15431296Y-22062500D01*
X17007000Y-11225000D02*
X16575000Y-11225000D01*
X16200000Y-11600000D02*
X16200000Y-13100000D01*
X16455000Y-13355000D02*
X16455000Y-20572414D01*
X16200000Y-13100000D02*
X16455000Y-13355000D01*
X16575000Y-11225000D02*
X16200000Y-11600000D01*
X16455000Y-20572414D02*
X15431296Y-21596118D01*
G04 #@! TO.N,/AUX1*
X17925000Y-21650092D02*
X17512592Y-22062500D01*
X17326623Y-11575000D02*
X17700000Y-11948377D01*
X17925000Y-20375000D02*
X17925000Y-21650092D01*
X19000000Y-15028248D02*
X19000000Y-19300000D01*
X17700000Y-11948377D02*
X17700000Y-13728248D01*
X17700000Y-13728248D02*
X19000000Y-15028248D01*
X17007000Y-11575000D02*
X17326623Y-11575000D01*
X19000000Y-19300000D02*
X17925000Y-20375000D01*
G04 #@! TO.N,Net-(D4-A)*
X12525000Y-20575000D02*
X12700000Y-20400000D01*
X18400000Y-21200000D02*
X18400000Y-21081388D01*
X18400000Y-21081388D02*
X18993888Y-20487500D01*
X12150000Y-20575000D02*
X12525000Y-20575000D01*
G04 #@! TO.N,Net-(D5-A)*
X21728248Y-19000000D02*
X24951472Y-19000000D01*
X24950000Y-17560000D02*
X24950000Y-17089478D01*
X25250000Y-18701472D02*
X25250000Y-17860000D01*
X20775184Y-19953064D02*
X21728248Y-19000000D01*
X20775184Y-20487500D02*
X20775184Y-19953064D01*
X25250000Y-17860000D02*
X24950000Y-17560000D01*
X24951472Y-19000000D02*
X25250000Y-18701472D01*
G04 #@! TO.N,/AUX2*
X19700000Y-21356388D02*
X18993888Y-22062500D01*
X18100000Y-14552512D02*
X17400000Y-13852512D01*
X19700000Y-19800000D02*
X19700000Y-21356388D01*
X18100000Y-14800000D02*
X18100000Y-14552512D01*
X17400000Y-13852512D02*
X17400000Y-12100000D01*
X17400000Y-12100000D02*
X17225000Y-11925000D01*
X17225000Y-11925000D02*
X17007000Y-11925000D01*
G04 #@! TO.N,/AUX5*
X12774997Y-13300000D02*
X12774997Y-13253251D01*
X12774997Y-13253251D02*
X13700000Y-12328248D01*
X14621752Y-10875000D02*
X15192000Y-10875000D01*
X13700000Y-11796752D02*
X14621752Y-10875000D01*
X13700000Y-12328248D02*
X13700000Y-11796752D01*
X23500000Y-22000000D02*
X24275276Y-22000000D01*
G04 #@! TO.N,/AUX6*
X14696016Y-11225000D02*
X15192000Y-11225000D01*
X14000000Y-11921016D02*
X14696016Y-11225000D01*
X25300000Y-22000000D02*
X26056572Y-22000000D01*
X14000000Y-12700000D02*
X14000000Y-11921016D01*
X13400000Y-13300000D02*
X14000000Y-12700000D01*
G04 #@! TO.N,Net-(D7-A)*
X24337776Y-20462224D02*
X25850000Y-18950000D01*
X25850000Y-18950000D02*
X25850000Y-17634869D01*
X25850000Y-17634869D02*
X25950000Y-17534869D01*
X25950000Y-17534869D02*
X25950000Y-17089478D01*
G04 #@! TO.N,/AUX7*
X14225000Y-13149997D02*
X14225000Y-13103248D01*
X14825000Y-11575000D02*
X15192000Y-11575000D01*
X14300000Y-12100000D02*
X14825000Y-11575000D01*
X27100000Y-22000000D02*
X27837868Y-22000000D01*
X14074997Y-13300000D02*
X14225000Y-13149997D01*
X14225000Y-13103248D02*
X14300000Y-13028248D01*
X14300000Y-13028248D02*
X14300000Y-12100000D01*
G04 #@! TO.N,Net-(D8-A)*
X26250000Y-17650000D02*
X26450000Y-17450000D01*
X26250000Y-17659133D02*
X26250000Y-17650000D01*
X26450000Y-17450000D02*
X26450000Y-17089478D01*
X25800000Y-19424264D02*
X26150000Y-19074264D01*
X26150000Y-19074264D02*
X26150000Y-17759133D01*
X25800000Y-20168428D02*
X25800000Y-19424264D01*
X26150000Y-17759133D02*
X26250000Y-17659133D01*
G04 #@! TO.N,Net-(D9-A)*
X36000000Y-22100000D02*
X36525000Y-22100000D01*
X27887500Y-20487500D02*
X27200000Y-19800000D01*
G04 #@! TO.N,/AUX8*
X14600000Y-12224264D02*
X14899264Y-11925000D01*
X14700000Y-13300000D02*
X14600000Y-13200000D01*
X14899264Y-11925000D02*
X15192000Y-11925000D01*
X29681664Y-22062500D02*
X28837500Y-22062500D01*
X14600000Y-13200000D02*
X14600000Y-12224264D01*
X28837500Y-22062500D02*
X28800000Y-22100000D01*
G04 #@! TO.N,Net-(D12-A)*
X36550000Y-19878248D02*
X35996752Y-19325000D01*
X34003248Y-19325000D02*
X33244256Y-20083992D01*
X33244256Y-20083992D02*
X33244256Y-20487500D01*
X36550000Y-20575000D02*
X36550000Y-19878248D01*
X35996752Y-19325000D02*
X34003248Y-19325000D01*
G04 #@! TO.N,Net-(U1-BS)*
X37941172Y-14296153D02*
X39116347Y-14296153D01*
X39116347Y-14296153D02*
X39362500Y-14050000D01*
D32*
G04 #@! TO.N,/TRACK_LEFT*
X16550000Y-7382000D02*
X16868000Y-7700000D01*
X15770982Y-7170982D02*
X15770982Y-7261018D01*
X15770982Y-7261018D02*
X15332000Y-7700000D01*
X16550000Y-7150000D02*
X16550000Y-7382000D01*
D33*
G04 #@! TO.N,/TRACK_RIGHT*
X16900000Y-12800000D02*
X16900000Y-12332000D01*
X15332000Y-12300000D02*
X15332000Y-12768000D01*
X15332000Y-12768000D02*
X15300000Y-12800000D01*
D34*
G04 #@! TO.N,/D+*
X10817990Y-9591091D02*
X9955413Y-10453668D01*
X8124420Y-10453668D02*
X8030752Y-10360000D01*
D33*
X8300000Y-11300000D02*
X8150000Y-11450000D01*
D34*
X17809278Y-7905161D02*
X17599439Y-8115000D01*
X17599439Y-8115000D02*
X17410751Y-8115000D01*
D33*
X5075000Y-17900000D02*
X5075000Y-12985001D01*
X8150000Y-11450000D02*
X7275000Y-11450000D01*
D34*
X17848975Y-7905161D02*
X17809278Y-7905161D01*
X8030752Y-10360000D02*
X7365000Y-10360000D01*
D33*
X8140000Y-10360000D02*
X8030752Y-10360000D01*
X5075000Y-12985001D02*
X6610001Y-11450000D01*
D34*
X10817990Y-9317990D02*
X10817990Y-9591091D01*
D33*
X6610001Y-11450000D02*
X7275000Y-11450000D01*
D34*
X9955413Y-10453668D02*
X8124420Y-10453668D01*
X7365000Y-10360000D02*
X7275000Y-10450000D01*
X17410751Y-8115000D02*
X17370751Y-8075000D01*
X17370751Y-8075000D02*
X17007000Y-8075000D01*
X10800000Y-9300000D02*
X10817990Y-9317990D01*
D33*
X8300000Y-10200000D02*
X8140000Y-10360000D01*
D34*
G04 #@! TO.N,/D-*
X10990919Y-9800000D02*
X10067251Y-10723668D01*
D33*
X6515000Y-11175226D02*
X6830226Y-10860000D01*
D34*
X8076332Y-10723668D02*
X7850000Y-10950000D01*
X17370751Y-8425000D02*
X17007000Y-8425000D01*
X17410751Y-8385000D02*
X17370751Y-8425000D01*
X11300000Y-9800000D02*
X10990919Y-9800000D01*
D33*
X2535000Y-17900000D02*
X2535000Y-17800000D01*
D34*
X10067251Y-10723668D02*
X8076332Y-10723668D01*
D33*
X6700001Y-9950000D02*
X6515000Y-10135001D01*
X4815000Y-15520000D02*
X4815000Y-12877305D01*
D34*
X17718262Y-8385000D02*
X17410751Y-8385000D01*
D33*
X6760000Y-10950000D02*
X7275000Y-10950000D01*
X7275000Y-9950000D02*
X6700001Y-9950000D01*
D34*
X17863262Y-8530000D02*
X17718262Y-8385000D01*
D33*
X6515000Y-10135001D02*
X6515000Y-10705000D01*
D34*
X7850000Y-10950000D02*
X7275000Y-10950000D01*
D33*
X2535000Y-17800000D02*
X4815000Y-15520000D01*
X6515000Y-10705000D02*
X6760000Y-10950000D01*
X6515000Y-11177305D02*
X6515000Y-11175226D01*
X4815000Y-12877305D02*
X6515000Y-11177305D01*
G04 #@! TO.N,/AUX3*
X12400000Y-10200000D02*
X12400000Y-8075736D01*
X12540000Y-14585283D02*
X12540000Y-16600000D01*
X12400000Y-10200000D02*
X12400000Y-12154717D01*
X11699997Y-13745280D02*
X12540000Y-14585283D01*
X12400000Y-8075736D02*
X13250000Y-7225736D01*
X13250000Y-7225736D02*
X13250000Y-4237500D01*
X14520033Y-8953311D02*
X14691722Y-9125000D01*
X12400000Y-12154717D02*
X11699997Y-12854720D01*
X14691722Y-9125000D02*
X15192000Y-9125000D01*
X11699997Y-12854720D02*
X11699997Y-13745280D01*
D32*
G04 #@! TO.N,/MOTOR_B*
X20678248Y-8850000D02*
X25350000Y-8850000D01*
D33*
X25500000Y-8700000D02*
X25516786Y-8716786D01*
D32*
X17007000Y-9475000D02*
X20053248Y-9475000D01*
X25516786Y-8716786D02*
X26066661Y-8716786D01*
X17007000Y-9125000D02*
X17007000Y-9475000D01*
X20053248Y-9475000D02*
X20678248Y-8850000D01*
X25350000Y-8850000D02*
X25500000Y-8700000D01*
G04 #@! TO.N,GND*
X17700000Y-9125000D02*
X17350000Y-8775000D01*
X15192000Y-8775000D02*
X16000000Y-8775000D01*
X16000000Y-8775000D02*
X16000000Y-8900000D01*
X18650000Y-8250000D02*
X18650000Y-8900000D01*
X16000000Y-8775000D02*
X16500000Y-8775000D01*
X16000000Y-8900000D02*
X15900000Y-9000000D01*
X17350000Y-8775000D02*
X17007000Y-8775000D01*
X16500000Y-8775000D02*
X16500000Y-9200000D01*
X18425000Y-9125000D02*
X17700000Y-9125000D01*
X16500000Y-9200000D02*
X16300000Y-9400000D01*
X18725000Y-8175000D02*
X18650000Y-8250000D01*
X18650000Y-8900000D02*
X18425000Y-9125000D01*
X16500000Y-8775000D02*
X17007000Y-8775000D01*
G04 #@! TO.N,/MOTOR_A*
X20198222Y-9825000D02*
X20823222Y-9200000D01*
X20823222Y-9200000D02*
X25400000Y-9200000D01*
X26200000Y-9400000D02*
X25600000Y-9400000D01*
X17007000Y-9825000D02*
X20198222Y-9825000D01*
X17007000Y-10175000D02*
X17007000Y-9825000D01*
X25400000Y-9200000D02*
X25600000Y-9400000D01*
D33*
G04 #@! TO.N,VCC*
X20278245Y-13775000D02*
X30755000Y-13775000D01*
X19200000Y-11200000D02*
X19200000Y-12696755D01*
X15900000Y-10450500D02*
X15624500Y-10175000D01*
X15624500Y-10175000D02*
X15192000Y-10175000D01*
X15900000Y-10600000D02*
X15900000Y-10450500D01*
X30755000Y-13775000D02*
X33580000Y-16600000D01*
X19200000Y-12696755D02*
X20278245Y-13775000D01*
D32*
G04 #@! TO.N,/CAP+*
X29600000Y-5200000D02*
X31300000Y-3500000D01*
X29600000Y-7307107D02*
X29600000Y-5200000D01*
X17007000Y-10525000D02*
X26382107Y-10525000D01*
X26382107Y-10525000D02*
X29600000Y-7307107D01*
D33*
G04 #@! TO.N,/AUX10*
X15192000Y-9825000D02*
X14275000Y-9825000D01*
X12578245Y-12825000D02*
X12778984Y-12825000D01*
X12299997Y-13103248D02*
X12578245Y-12825000D01*
X13400000Y-12203984D02*
X13400000Y-7950972D01*
X12778984Y-12825000D02*
X13400000Y-12203984D01*
X14275000Y-9825000D02*
X13400000Y-10700000D01*
X18987500Y-5300000D02*
X20050000Y-4237500D01*
X14500000Y-15400000D02*
X14203245Y-15400000D01*
X13400000Y-7950972D02*
X16050972Y-5300000D01*
X12299997Y-13496752D02*
X12299997Y-13103248D01*
X14203245Y-15400000D02*
X12299997Y-13496752D01*
X16050972Y-5300000D02*
X18987500Y-5300000D01*
G04 #@! TO.N,/AUX12*
X14600000Y-7599500D02*
X14600000Y-7900000D01*
X15724500Y-6475000D02*
X14600000Y-7599500D01*
X14600000Y-7900000D02*
X14775000Y-8075000D01*
X20900000Y-5900000D02*
X16900000Y-5900000D01*
X14775000Y-8075000D02*
X15192000Y-8075000D01*
X21100000Y-6100000D02*
X21300000Y-5900000D01*
X16900000Y-5900000D02*
X16325000Y-6475000D01*
X21300000Y-5900000D02*
X25187500Y-5900000D01*
X21100000Y-6100000D02*
X20900000Y-5900000D01*
X25187500Y-5900000D02*
X26850000Y-4237500D01*
X16325000Y-6475000D02*
X15724500Y-6475000D01*
G04 #@! TO.N,/AUX11*
X15600236Y-6175000D02*
X14300000Y-7475236D01*
X22087500Y-5600000D02*
X23450000Y-4237500D01*
X14700736Y-8425000D02*
X15192000Y-8425000D01*
X16500000Y-5600000D02*
X22087500Y-5600000D01*
X14300000Y-7475236D02*
X14300000Y-8024264D01*
X14300000Y-8024264D02*
X14700736Y-8425000D01*
X15925000Y-6175000D02*
X15600236Y-6175000D01*
X16100000Y-6000000D02*
X15925000Y-6175000D01*
X16100000Y-6000000D02*
X16500000Y-5600000D01*
G04 #@! TO.N,/AUX4*
X14000000Y-9300000D02*
X14175000Y-9475000D01*
X16650000Y-4250000D02*
X16650000Y-4237500D01*
X12900000Y-10700000D02*
X12900000Y-12078981D01*
X12900000Y-12078981D02*
X11999997Y-12978984D01*
X11999997Y-12978984D02*
X11999997Y-13621016D01*
X11999997Y-13621016D02*
X14978981Y-16600000D01*
X12900000Y-8000000D02*
X16650000Y-4250000D01*
X12900000Y-10700000D02*
X12900000Y-8000000D01*
X14175000Y-9475000D02*
X15192000Y-9475000D01*
G04 #@! TO.N,Net-(P1-CC2)*
X7275000Y-12450000D02*
X7365000Y-12360000D01*
X7365000Y-12360000D02*
X9715000Y-12360000D01*
G04 #@! TO.N,Net-(P1-CC1)*
X7275000Y-9450000D02*
X7365000Y-9360000D01*
X7365000Y-9360000D02*
X9765000Y-9360000D01*
G04 #@! TO.N,Net-(D14-A)*
X35025556Y-20374444D02*
X35600000Y-19800000D01*
X38600000Y-20500000D02*
X38600000Y-21090000D01*
G04 #@! TO.N,Net-(D1-A)*
X11675000Y-21960000D02*
X11675000Y-20190000D01*
X13062500Y-19900000D02*
X13437868Y-20275368D01*
X11965000Y-19900000D02*
X13062500Y-19900000D01*
X11675000Y-20190000D02*
X11965000Y-19900000D01*
X12150000Y-22075000D02*
X11790000Y-22075000D01*
X11790000Y-22075000D02*
X11675000Y-21960000D01*
G04 #@! TO.N,Net-(D6-K)*
X23500000Y-19800000D02*
X23500000Y-21118980D01*
X17600000Y-3500000D02*
X17600000Y-2362500D01*
X23500000Y-21118980D02*
X22768612Y-21850368D01*
G04 #@! TO.N,Net-(D10-A)*
X36075000Y-21575000D02*
X36550000Y-21575000D01*
X35900000Y-21400000D02*
X36075000Y-21575000D01*
X29487500Y-20487500D02*
X28800000Y-19800000D01*
G04 #@! TO.N,Net-(D11-K)*
X30600000Y-19800000D02*
X30600000Y-21199540D01*
X21000000Y-3500000D02*
X21000000Y-2362500D01*
X30600000Y-21199540D02*
X31462960Y-22062500D01*
G04 #@! TO.N,Net-(D12-K)*
X32400000Y-21218244D02*
X33244256Y-22062500D01*
X32400000Y-19800000D02*
X32400000Y-21218244D01*
X24400000Y-3500000D02*
X24400000Y-2362500D01*
G04 #@! TO.N,Net-(D5-K)*
X14300000Y-3500000D02*
X14300000Y-2462500D01*
X14300000Y-2462500D02*
X14200000Y-2362500D01*
X21600000Y-19800000D02*
X21500000Y-19900000D01*
X21500000Y-21337684D02*
X20987316Y-21850368D01*
X21500000Y-19900000D02*
X21500000Y-21337684D01*
G04 #@! TO.N,Net-(D6-A)*
X25550000Y-18825736D02*
X25075736Y-19300000D01*
X23028248Y-19300000D02*
X22556480Y-19771768D01*
X22556480Y-19771768D02*
X22556480Y-20487500D01*
X25450000Y-17525000D02*
X25550000Y-17625000D01*
X25450000Y-17089478D02*
X25450000Y-17525000D01*
X25550000Y-17625000D02*
X25550000Y-18825736D01*
X25075736Y-19300000D02*
X23028248Y-19300000D01*
G04 #@! TO.N,Net-(D11-A)*
X32503248Y-19025000D02*
X31462960Y-20065288D01*
X36121016Y-19025000D02*
X32503248Y-19025000D01*
X36550000Y-21075000D02*
X36825000Y-21075000D01*
X31462960Y-20065288D02*
X31462960Y-20487500D01*
X37075000Y-20825000D02*
X37075000Y-19978984D01*
X37075000Y-19978984D02*
X36121016Y-19025000D01*
X36825000Y-21075000D02*
X37075000Y-20825000D01*
D32*
G04 #@! TO.N,VBUS*
X8800000Y-8500000D02*
X8200000Y-8500000D01*
X9425003Y-8500000D02*
X8800000Y-8500000D01*
D35*
X9000000Y-14700000D02*
X9025000Y-14700000D01*
D32*
X10000000Y-13725000D02*
X9025000Y-14700000D01*
X7275000Y-8300000D02*
X8000000Y-8300000D01*
X9000000Y-14700000D02*
X8700000Y-15000000D01*
X8000000Y-8300000D02*
X8200000Y-8500000D01*
X9790000Y-13100000D02*
X10000000Y-13310000D01*
X10000000Y-13310000D02*
X10000000Y-13725000D01*
D33*
X9790000Y-8500000D02*
X10000000Y-8290000D01*
D32*
X8700000Y-15000000D02*
X8700000Y-17600000D01*
D33*
X9425003Y-8500000D02*
X9790000Y-8500000D01*
D32*
X7275000Y-13100000D02*
X9790000Y-13100000D01*
D33*
G04 #@! TO.N,/SW*
X37941172Y-13336153D02*
X40923653Y-13336153D01*
X40923653Y-13336153D02*
X41637500Y-14050000D01*
G04 #@! TO.N,Net-(D14-K)*
X34200000Y-19800000D02*
X34200000Y-21236944D01*
X27800000Y-3500000D02*
X27800000Y-2362500D01*
X34200000Y-21236944D02*
X35025556Y-22062500D01*
G04 #@! TO.N,Net-(U1-FB)*
X39450000Y-15950000D02*
X39362500Y-15950000D01*
X39275000Y-19200000D02*
X39425000Y-19200000D01*
X40925000Y-17425000D02*
X39450000Y-15950000D01*
X39425000Y-19200000D02*
X40925000Y-17700000D01*
X40925000Y-17700000D02*
X40925000Y-17425000D01*
G04 #@! TD*
G04 #@! TA.AperFunction,Conductor*
G04 #@! TO.N,VDC*
G36*
X44114193Y-13714193D02*
G01*
X44585648Y-14185648D01*
X44600000Y-14220296D01*
X44600000Y-15479704D01*
X44585648Y-15514352D01*
X44414352Y-15685648D01*
X44379704Y-15700000D01*
X42720296Y-15700000D01*
X42685648Y-15685648D01*
X42500000Y-15500000D01*
X40920296Y-15500000D01*
X40885648Y-15485648D01*
X40714352Y-15314352D01*
X40700000Y-15279704D01*
X40700000Y-14720296D01*
X40714352Y-14685648D01*
X40855397Y-14544603D01*
X40890045Y-14530251D01*
X40924693Y-14544603D01*
X40975695Y-14595605D01*
X41009173Y-14617973D01*
X41026140Y-14629311D01*
X41026141Y-14629311D01*
X41026142Y-14629312D01*
X41060785Y-14643662D01*
X41060786Y-14643662D01*
X41060788Y-14643663D01*
X41060790Y-14643663D01*
X41060796Y-14643665D01*
X41120290Y-14655499D01*
X41120296Y-14655500D01*
X42079704Y-14655500D01*
X42081209Y-14655200D01*
X42139203Y-14643665D01*
X42139205Y-14643664D01*
X42139212Y-14643663D01*
X42173860Y-14629311D01*
X42224307Y-14595603D01*
X42495603Y-14324307D01*
X42529311Y-14273860D01*
X42529315Y-14273849D01*
X42529518Y-14273471D01*
X42530056Y-14272744D01*
X42530649Y-14271858D01*
X42530692Y-14271886D01*
X42538087Y-14261912D01*
X43085662Y-13714337D01*
X43120301Y-13699986D01*
X44079545Y-13699846D01*
X44114193Y-13714193D01*
G37*
G04 #@! TD.AperFunction*
G04 #@! TD*
G04 #@! TA.AperFunction,Conductor*
G04 #@! TO.N,+5V*
G36*
X39614352Y-5814352D02*
G01*
X39985648Y-6185648D01*
X40000000Y-6220296D01*
X40000000Y-11479704D01*
X39985648Y-11514352D01*
X39714352Y-11785648D01*
X39679704Y-11800000D01*
X38520296Y-11800000D01*
X38485648Y-11785648D01*
X38214352Y-11514352D01*
X38200000Y-11479704D01*
X38200000Y-6220296D01*
X38214352Y-6185648D01*
X38585648Y-5814352D01*
X38620296Y-5800000D01*
X39579704Y-5800000D01*
X39614352Y-5814352D01*
G37*
G04 #@! TD.AperFunction*
G04 #@! TD*
G04 #@! TA.AperFunction,Conductor*
G04 #@! TO.N,/SW*
G36*
X43714352Y-9514352D02*
G01*
X44183217Y-9983217D01*
X44197569Y-10017691D01*
X44204893Y-12074636D01*
X44190664Y-12109335D01*
X42400000Y-13899999D01*
X42400000Y-14179704D01*
X42385648Y-14214352D01*
X42114352Y-14485648D01*
X42079704Y-14500000D01*
X41120296Y-14500000D01*
X41085648Y-14485648D01*
X40814352Y-14214352D01*
X40800000Y-14179704D01*
X40800000Y-13820296D01*
X40814352Y-13785648D01*
X41005492Y-13594508D01*
X42100000Y-12500000D01*
X42100000Y-10020296D01*
X42114352Y-9985648D01*
X42585648Y-9514352D01*
X42620296Y-9500000D01*
X43679704Y-9500000D01*
X43714352Y-9514352D01*
G37*
G04 #@! TD.AperFunction*
G04 #@! TD*
G04 #@! TA.AperFunction,Conductor*
G04 #@! TO.N,GND*
G36*
X17169159Y-13167341D02*
G01*
X17174500Y-13189587D01*
X17174500Y-13803700D01*
X17174499Y-13803714D01*
X17174499Y-13807657D01*
X17174499Y-13897367D01*
X17191067Y-13937364D01*
X17208830Y-13980248D01*
X17208831Y-13980249D01*
X17208831Y-13980250D01*
X17279155Y-14050573D01*
X17279157Y-14050574D01*
X17752950Y-14524367D01*
X17767302Y-14559015D01*
X17761961Y-14581260D01*
X17714355Y-14674690D01*
X17714355Y-14674692D01*
X17714354Y-14674694D01*
X17714354Y-14674696D01*
X17694508Y-14800000D01*
X17714354Y-14925304D01*
X17714354Y-14925305D01*
X17714355Y-14925307D01*
X17714355Y-14925309D01*
X17771945Y-15038335D01*
X17771950Y-15038342D01*
X17861657Y-15128049D01*
X17861664Y-15128054D01*
X17974691Y-15185644D01*
X17974692Y-15185644D01*
X17974696Y-15185646D01*
X18100000Y-15205492D01*
X18225304Y-15185646D01*
X18225308Y-15185644D01*
X18225309Y-15185644D01*
X18338335Y-15128054D01*
X18338337Y-15128052D01*
X18338342Y-15128050D01*
X18428050Y-15038342D01*
X18479007Y-14938335D01*
X18486252Y-14924115D01*
X18514769Y-14899758D01*
X18552156Y-14902701D01*
X18564559Y-14911712D01*
X18760148Y-15107301D01*
X18774500Y-15141949D01*
X18774500Y-19186298D01*
X18760148Y-19220946D01*
X17873380Y-20107713D01*
X17838732Y-20122065D01*
X17804084Y-20107713D01*
X17794711Y-20094585D01*
X17773513Y-20051224D01*
X17773512Y-20051222D01*
X17773511Y-20051220D01*
X17686372Y-19964081D01*
X17628137Y-19935612D01*
X17575662Y-19909958D01*
X17575660Y-19909957D01*
X17503888Y-19899500D01*
X16921295Y-19899500D01*
X16849525Y-19909956D01*
X16849524Y-19909956D01*
X16751021Y-19958112D01*
X16713590Y-19960436D01*
X16685479Y-19935612D01*
X16680500Y-19914091D01*
X16680500Y-17160352D01*
X16694852Y-17125704D01*
X16729500Y-17111352D01*
X16764148Y-17125704D01*
X16772712Y-17137251D01*
X16784090Y-17158538D01*
X16784091Y-17158540D01*
X16784094Y-17158544D01*
X16832959Y-17218085D01*
X16909117Y-17310883D01*
X16962022Y-17354301D01*
X17061455Y-17435905D01*
X17061458Y-17435907D01*
X17061462Y-17435910D01*
X17235273Y-17528814D01*
X17423868Y-17586024D01*
X17620000Y-17605341D01*
X17816132Y-17586024D01*
X18004727Y-17528814D01*
X18178538Y-17435910D01*
X18330883Y-17310883D01*
X18455910Y-17158538D01*
X18548814Y-16984727D01*
X18606024Y-16796132D01*
X18625341Y-16600000D01*
X18606024Y-16403868D01*
X18548814Y-16215273D01*
X18455910Y-16041462D01*
X18455907Y-16041458D01*
X18455905Y-16041455D01*
X18382623Y-15952162D01*
X18330883Y-15889117D01*
X18227662Y-15804405D01*
X18178544Y-15764094D01*
X18178541Y-15764092D01*
X18178539Y-15764091D01*
X18178538Y-15764090D01*
X18093451Y-15718610D01*
X18004726Y-15671185D01*
X17816132Y-15613976D01*
X17620000Y-15594659D01*
X17423867Y-15613976D01*
X17423866Y-15613976D01*
X17235273Y-15671185D01*
X17061458Y-15764092D01*
X17061455Y-15764094D01*
X16909117Y-15889117D01*
X16784094Y-16041455D01*
X16784092Y-16041458D01*
X16784090Y-16041462D01*
X16772713Y-16062746D01*
X16743724Y-16086537D01*
X16706401Y-16082861D01*
X16682610Y-16053871D01*
X16680500Y-16039647D01*
X16680500Y-13310147D01*
X16680500Y-13310145D01*
X16646170Y-13227264D01*
X16646169Y-13227263D01*
X16643487Y-13223248D01*
X16644465Y-13222594D01*
X16632209Y-13193006D01*
X16646561Y-13158358D01*
X16681209Y-13144006D01*
X16703455Y-13149347D01*
X16729264Y-13162497D01*
X16774696Y-13185646D01*
X16900000Y-13205492D01*
X17025304Y-13185646D01*
X17103254Y-13145927D01*
X17140641Y-13142985D01*
X17169159Y-13167341D01*
G37*
G04 #@! TD.AperFunction*
G04 #@! TA.AperFunction,Conductor*
G36*
X15660148Y-13075540D02*
G01*
X15674500Y-13110188D01*
X15674500Y-13175452D01*
X15674499Y-13175466D01*
X15674499Y-13269120D01*
X15697520Y-13324696D01*
X15708830Y-13352001D01*
X15779155Y-13422325D01*
X15779157Y-13422326D01*
X15915148Y-13558317D01*
X15929500Y-13592965D01*
X15929500Y-15921076D01*
X15915148Y-15955724D01*
X15880500Y-15970076D01*
X15845852Y-15955724D01*
X15842623Y-15952162D01*
X15817111Y-15921076D01*
X15790883Y-15889117D01*
X15687662Y-15804405D01*
X15638544Y-15764094D01*
X15638541Y-15764092D01*
X15638539Y-15764091D01*
X15638538Y-15764090D01*
X15553451Y-15718610D01*
X15464726Y-15671185D01*
X15276132Y-15613976D01*
X15080000Y-15594659D01*
X14927287Y-15609699D01*
X14891399Y-15598812D01*
X14873720Y-15565738D01*
X14878825Y-15538689D01*
X14885646Y-15525304D01*
X14905492Y-15400000D01*
X14885646Y-15274696D01*
X14885644Y-15274692D01*
X14885644Y-15274690D01*
X14828054Y-15161664D01*
X14828049Y-15161657D01*
X14738342Y-15071950D01*
X14738335Y-15071945D01*
X14625308Y-15014355D01*
X14625305Y-15014354D01*
X14625304Y-15014354D01*
X14500000Y-14994508D01*
X14374696Y-15014354D01*
X14374694Y-15014354D01*
X14374692Y-15014355D01*
X14374690Y-15014355D01*
X14261664Y-15071945D01*
X14258543Y-15074214D01*
X14257714Y-15073074D01*
X14227879Y-15085433D01*
X14193231Y-15071081D01*
X12886709Y-13764559D01*
X12872357Y-13729911D01*
X12886709Y-13695263D01*
X12899111Y-13686252D01*
X12900300Y-13685646D01*
X12900301Y-13685646D01*
X13013339Y-13628050D01*
X13052849Y-13588538D01*
X13087497Y-13574186D01*
X13122145Y-13588537D01*
X13161657Y-13628049D01*
X13161664Y-13628054D01*
X13274691Y-13685644D01*
X13274692Y-13685644D01*
X13274696Y-13685646D01*
X13400000Y-13705492D01*
X13525304Y-13685646D01*
X13525308Y-13685644D01*
X13525309Y-13685644D01*
X13638335Y-13628054D01*
X13638337Y-13628052D01*
X13638342Y-13628050D01*
X13702851Y-13563540D01*
X13737498Y-13549189D01*
X13772146Y-13563541D01*
X13836654Y-13628049D01*
X13836661Y-13628054D01*
X13949688Y-13685644D01*
X13949689Y-13685644D01*
X13949693Y-13685646D01*
X14074997Y-13705492D01*
X14200301Y-13685646D01*
X14313339Y-13628050D01*
X14352849Y-13588538D01*
X14387497Y-13574186D01*
X14422145Y-13588537D01*
X14461657Y-13628049D01*
X14461664Y-13628054D01*
X14574691Y-13685644D01*
X14574692Y-13685644D01*
X14574696Y-13685646D01*
X14700000Y-13705492D01*
X14825304Y-13685646D01*
X14825308Y-13685644D01*
X14825309Y-13685644D01*
X14938335Y-13628054D01*
X14938337Y-13628052D01*
X14938342Y-13628050D01*
X15028050Y-13538342D01*
X15028054Y-13538335D01*
X15085644Y-13425309D01*
X15085644Y-13425307D01*
X15085646Y-13425304D01*
X15105492Y-13300000D01*
X15094758Y-13232232D01*
X15103513Y-13195768D01*
X15135489Y-13176172D01*
X15165401Y-13180910D01*
X15174696Y-13185646D01*
X15300000Y-13205492D01*
X15425304Y-13185646D01*
X15425308Y-13185644D01*
X15425309Y-13185644D01*
X15538335Y-13128054D01*
X15538337Y-13128052D01*
X15538342Y-13128050D01*
X15590852Y-13075540D01*
X15625500Y-13061188D01*
X15660148Y-13075540D01*
G37*
G04 #@! TD.AperFunction*
G04 #@! TA.AperFunction,Conductor*
G36*
X47001371Y-400577D02*
G01*
X47288310Y-416691D01*
X47293754Y-417304D01*
X47575738Y-465215D01*
X47581084Y-466435D01*
X47766030Y-519717D01*
X47855918Y-545614D01*
X47861104Y-547429D01*
X48125336Y-656877D01*
X48130287Y-659261D01*
X48380619Y-797614D01*
X48385243Y-800519D01*
X48618538Y-966051D01*
X48622805Y-969455D01*
X48784596Y-1114040D01*
X48836072Y-1160042D01*
X48839955Y-1163925D01*
X49030542Y-1377192D01*
X49033950Y-1381463D01*
X49199477Y-1614752D01*
X49202390Y-1619389D01*
X49340738Y-1869712D01*
X49343122Y-1874663D01*
X49452570Y-2138895D01*
X49454385Y-2144081D01*
X49533562Y-2418910D01*
X49534785Y-2424267D01*
X49582694Y-2706237D01*
X49583309Y-2711697D01*
X49599423Y-2998627D01*
X49599500Y-3001375D01*
X49599500Y-21998624D01*
X49599423Y-22001372D01*
X49583309Y-22288302D01*
X49582694Y-22293762D01*
X49534785Y-22575732D01*
X49533562Y-22581089D01*
X49454385Y-22855918D01*
X49452570Y-22861104D01*
X49343122Y-23125336D01*
X49340738Y-23130287D01*
X49202390Y-23380610D01*
X49199471Y-23385255D01*
X49033956Y-23618527D01*
X49030537Y-23622814D01*
X48839957Y-23836072D01*
X48836072Y-23839957D01*
X48622814Y-24030537D01*
X48618527Y-24033956D01*
X48385255Y-24199471D01*
X48380610Y-24202390D01*
X48130287Y-24340738D01*
X48125336Y-24343122D01*
X47861104Y-24452570D01*
X47855918Y-24454385D01*
X47581089Y-24533562D01*
X47575732Y-24534785D01*
X47293762Y-24582694D01*
X47288302Y-24583309D01*
X47030529Y-24597785D01*
X47001370Y-24599423D01*
X46998624Y-24599500D01*
X3001376Y-24599500D01*
X2998629Y-24599423D01*
X2965650Y-24597570D01*
X2711697Y-24583309D01*
X2706237Y-24582694D01*
X2424267Y-24534785D01*
X2418910Y-24533562D01*
X2144081Y-24454385D01*
X2138895Y-24452570D01*
X1874663Y-24343122D01*
X1869712Y-24340738D01*
X1619389Y-24202390D01*
X1614752Y-24199477D01*
X1381463Y-24033950D01*
X1377192Y-24030542D01*
X1163925Y-23839955D01*
X1160042Y-23836072D01*
X1152985Y-23828175D01*
X969455Y-23622805D01*
X966051Y-23618538D01*
X800519Y-23385243D01*
X797614Y-23380619D01*
X659261Y-23130287D01*
X656877Y-23125336D01*
X547429Y-22861104D01*
X545614Y-22855918D01*
X486434Y-22650499D01*
X466435Y-22581084D01*
X465214Y-22575732D01*
X465038Y-22574696D01*
X417304Y-22293754D01*
X416691Y-22288310D01*
X400577Y-22001371D01*
X400539Y-21999998D01*
X1094645Y-21999998D01*
X1094645Y-22000001D01*
X1114038Y-22271153D01*
X1114040Y-22271168D01*
X1160308Y-22483858D01*
X1171825Y-22536801D01*
X1260554Y-22774692D01*
X1266830Y-22791518D01*
X1397109Y-23030108D01*
X1397112Y-23030112D01*
X1560026Y-23247740D01*
X1752259Y-23439973D01*
X1969887Y-23602887D01*
X1969891Y-23602890D01*
X2208481Y-23733169D01*
X2208482Y-23733169D01*
X2208487Y-23733172D01*
X2463199Y-23828175D01*
X2728840Y-23885961D01*
X2932210Y-23900506D01*
X2999998Y-23905355D01*
X3000000Y-23905355D01*
X3000002Y-23905355D01*
X3060257Y-23901045D01*
X3271160Y-23885961D01*
X3536801Y-23828175D01*
X3791513Y-23733172D01*
X3910813Y-23668029D01*
X4030108Y-23602890D01*
X4030109Y-23602889D01*
X4030113Y-23602887D01*
X4160297Y-23505431D01*
X4247740Y-23439973D01*
X4439973Y-23247740D01*
X4521867Y-23138342D01*
X4602887Y-23030113D01*
X4604012Y-23028054D01*
X4688804Y-22872767D01*
X4733172Y-22791513D01*
X4828175Y-22536801D01*
X4885961Y-22271160D01*
X4905355Y-22000000D01*
X4885961Y-21728840D01*
X4828175Y-21463199D01*
X4733172Y-21208487D01*
X4728538Y-21200000D01*
X4602890Y-20969891D01*
X4602887Y-20969887D01*
X4439973Y-20752259D01*
X4256196Y-20568482D01*
X7649500Y-20568482D01*
X7649500Y-22631517D01*
X7664353Y-22725303D01*
X7721945Y-22838335D01*
X7721950Y-22838342D01*
X7811657Y-22928049D01*
X7811664Y-22928054D01*
X7924691Y-22985644D01*
X7924692Y-22985644D01*
X7924696Y-22985646D01*
X8018481Y-23000500D01*
X9381518Y-23000499D01*
X9475304Y-22985646D01*
X9568157Y-22938335D01*
X9588335Y-22928054D01*
X9588337Y-22928052D01*
X9588342Y-22928050D01*
X9678050Y-22838342D01*
X9684692Y-22825307D01*
X9735644Y-22725309D01*
X9735644Y-22725307D01*
X9735646Y-22725304D01*
X9750500Y-22631519D01*
X9750499Y-20924055D01*
X9764850Y-20889409D01*
X10254082Y-20400176D01*
X10749500Y-20400176D01*
X10749500Y-20749823D01*
X10758232Y-20793721D01*
X10760944Y-20797780D01*
X10768258Y-20834563D01*
X10760944Y-20852220D01*
X10758232Y-20856278D01*
X10749500Y-20900176D01*
X10749500Y-21249823D01*
X10758232Y-21293721D01*
X10760944Y-21297780D01*
X10768258Y-21334563D01*
X10760944Y-21352220D01*
X10758232Y-21356278D01*
X10749500Y-21400176D01*
X10749500Y-21749823D01*
X10758232Y-21793721D01*
X10760944Y-21797780D01*
X10768258Y-21834563D01*
X10760944Y-21852220D01*
X10758232Y-21856278D01*
X10749500Y-21900176D01*
X10749500Y-22249823D01*
X10758232Y-22293721D01*
X10791495Y-22343504D01*
X10836671Y-22373689D01*
X10841278Y-22376767D01*
X10885180Y-22385500D01*
X10910943Y-22385500D01*
X10945591Y-22399852D01*
X11383858Y-22838119D01*
X11398210Y-22872767D01*
X11397606Y-22880431D01*
X11394508Y-22900000D01*
X11414354Y-23025304D01*
X11414354Y-23025305D01*
X11414355Y-23025307D01*
X11414355Y-23025309D01*
X11471945Y-23138335D01*
X11471950Y-23138342D01*
X11561657Y-23228049D01*
X11561664Y-23228054D01*
X11674691Y-23285644D01*
X11674692Y-23285644D01*
X11674696Y-23285646D01*
X11800000Y-23305492D01*
X11925304Y-23285646D01*
X11925308Y-23285644D01*
X11925309Y-23285644D01*
X12038335Y-23228054D01*
X12038337Y-23228052D01*
X12038342Y-23228050D01*
X12128050Y-23138342D01*
X12128054Y-23138335D01*
X12185644Y-23025309D01*
X12185644Y-23025307D01*
X12185646Y-23025304D01*
X12205492Y-22900000D01*
X12185646Y-22774696D01*
X12185644Y-22774692D01*
X12185644Y-22774690D01*
X12128054Y-22661664D01*
X12128049Y-22661657D01*
X12038342Y-22571950D01*
X12038335Y-22571945D01*
X11925308Y-22514355D01*
X11925305Y-22514354D01*
X11925304Y-22514354D01*
X11800000Y-22494508D01*
X11799999Y-22494508D01*
X11780431Y-22497607D01*
X11743965Y-22488851D01*
X11738119Y-22483858D01*
X11561318Y-22307057D01*
X11546966Y-22272409D01*
X11547904Y-22262868D01*
X11548444Y-22260154D01*
X11569270Y-22228970D01*
X11606051Y-22221645D01*
X11631151Y-22235058D01*
X11662261Y-22266168D01*
X11662263Y-22266169D01*
X11662264Y-22266170D01*
X11696595Y-22280390D01*
X11745146Y-22300501D01*
X11745149Y-22300501D01*
X11745555Y-22300582D01*
X11745903Y-22300814D01*
X11749605Y-22302348D01*
X11749300Y-22303084D01*
X11776738Y-22321416D01*
X11776739Y-22321418D01*
X11791495Y-22343503D01*
X11791500Y-22343508D01*
X11836671Y-22373689D01*
X11841278Y-22376767D01*
X11885180Y-22385500D01*
X12414820Y-22385500D01*
X12458722Y-22376767D01*
X12498276Y-22350337D01*
X12535059Y-22343022D01*
X12566241Y-22363857D01*
X12574499Y-22391080D01*
X12574499Y-22444856D01*
X12581460Y-22461658D01*
X12581752Y-22462364D01*
X12608830Y-22527736D01*
X12608831Y-22527737D01*
X12608831Y-22527738D01*
X12679155Y-22598061D01*
X12679157Y-22598062D01*
X12997261Y-22916168D01*
X12997263Y-22916169D01*
X12997264Y-22916170D01*
X13080145Y-22950500D01*
X13169854Y-22950500D01*
X14045554Y-22950500D01*
X14045562Y-22950501D01*
X14051263Y-22950501D01*
X14140971Y-22950501D01*
X14140973Y-22950501D01*
X14206242Y-22923465D01*
X14223854Y-22916170D01*
X14287288Y-22852736D01*
X14287288Y-22852735D01*
X14294177Y-22845846D01*
X14294178Y-22845843D01*
X14691170Y-22448854D01*
X14722155Y-22374047D01*
X14748672Y-22347530D01*
X14786175Y-22347530D01*
X14812694Y-22374048D01*
X14815911Y-22385730D01*
X14816251Y-22388062D01*
X14816252Y-22388067D01*
X14845970Y-22448854D01*
X14870377Y-22498780D01*
X14957516Y-22585919D01*
X15068229Y-22640043D01*
X15140001Y-22650500D01*
X15722590Y-22650499D01*
X15722592Y-22650499D01*
X15770438Y-22643528D01*
X15794363Y-22640043D01*
X15905076Y-22585919D01*
X15992215Y-22498780D01*
X16046339Y-22388067D01*
X16056796Y-22316295D01*
X16056795Y-21808706D01*
X16056794Y-21808701D01*
X16046339Y-21736933D01*
X16046339Y-21736932D01*
X16023151Y-21689501D01*
X15992215Y-21626220D01*
X15905076Y-21539081D01*
X15905073Y-21539079D01*
X15905069Y-21539077D01*
X15901014Y-21537094D01*
X15876192Y-21508982D01*
X15878519Y-21471551D01*
X15887887Y-21458430D01*
X16016501Y-21329816D01*
X16051148Y-21315465D01*
X16085796Y-21329817D01*
X16099544Y-21356798D01*
X16114354Y-21450304D01*
X16114354Y-21450305D01*
X16114355Y-21450307D01*
X16114355Y-21450309D01*
X16171945Y-21563335D01*
X16171950Y-21563342D01*
X16261657Y-21653049D01*
X16261664Y-21653054D01*
X16374691Y-21710644D01*
X16374692Y-21710644D01*
X16374696Y-21710646D01*
X16500000Y-21730492D01*
X16535062Y-21724938D01*
X16571528Y-21733693D01*
X16591124Y-21765669D01*
X16591215Y-21780399D01*
X16587092Y-21808701D01*
X16587092Y-22316296D01*
X16597548Y-22388066D01*
X16597548Y-22388067D01*
X16627266Y-22448854D01*
X16651673Y-22498780D01*
X16738812Y-22585919D01*
X16849525Y-22640043D01*
X16921297Y-22650500D01*
X17503886Y-22650499D01*
X17503888Y-22650499D01*
X17551734Y-22643528D01*
X17575659Y-22640043D01*
X17686372Y-22585919D01*
X17773511Y-22498780D01*
X17827635Y-22388067D01*
X17838092Y-22316295D01*
X17838091Y-22076199D01*
X17852442Y-22041553D01*
X18045843Y-21848153D01*
X18045846Y-21848151D01*
X18052735Y-21841262D01*
X18052736Y-21841262D01*
X18116170Y-21777828D01*
X18133751Y-21735384D01*
X18150501Y-21694947D01*
X18150501Y-21605237D01*
X18150501Y-21602326D01*
X18164853Y-21567678D01*
X18199501Y-21553326D01*
X18221746Y-21558666D01*
X18274696Y-21585646D01*
X18374539Y-21601459D01*
X18406514Y-21621053D01*
X18415269Y-21657520D01*
X18410893Y-21671375D01*
X18378847Y-21736926D01*
X18378845Y-21736931D01*
X18368388Y-21808703D01*
X18368388Y-22316296D01*
X18378844Y-22388066D01*
X18378844Y-22388067D01*
X18408562Y-22448854D01*
X18432969Y-22498780D01*
X18520108Y-22585919D01*
X18630821Y-22640043D01*
X18702593Y-22650500D01*
X19285182Y-22650499D01*
X19285184Y-22650499D01*
X19333030Y-22643528D01*
X19356955Y-22640043D01*
X19467668Y-22585919D01*
X19554807Y-22498780D01*
X19608931Y-22388067D01*
X19619388Y-22316295D01*
X19619387Y-21808706D01*
X19619386Y-21808701D01*
X19616217Y-21786946D01*
X19625423Y-21750591D01*
X19630050Y-21745241D01*
X19820843Y-21554449D01*
X19820846Y-21554447D01*
X19827735Y-21547558D01*
X19827736Y-21547558D01*
X19891170Y-21484124D01*
X19925500Y-21401243D01*
X19925500Y-20233703D01*
X20149684Y-20233703D01*
X20149684Y-20741296D01*
X20160140Y-20813066D01*
X20160140Y-20813067D01*
X20181265Y-20856278D01*
X20214265Y-20923780D01*
X20301404Y-21010919D01*
X20412117Y-21065043D01*
X20483889Y-21075500D01*
X21066478Y-21075499D01*
X21066480Y-21075499D01*
X21114326Y-21068528D01*
X21138251Y-21065043D01*
X21203980Y-21032909D01*
X21241410Y-21030586D01*
X21269521Y-21055410D01*
X21274500Y-21076931D01*
X21274500Y-21223982D01*
X21260148Y-21258630D01*
X21058630Y-21460148D01*
X21023982Y-21474500D01*
X20483887Y-21474500D01*
X20412117Y-21484956D01*
X20412116Y-21484956D01*
X20301406Y-21539080D01*
X20301402Y-21539082D01*
X20214266Y-21626218D01*
X20214264Y-21626222D01*
X20160142Y-21736929D01*
X20160141Y-21736931D01*
X20149684Y-21808703D01*
X20149684Y-22316296D01*
X20160140Y-22388066D01*
X20160140Y-22388067D01*
X20189858Y-22448854D01*
X20214265Y-22498780D01*
X20301404Y-22585919D01*
X20412117Y-22640043D01*
X20483889Y-22650500D01*
X21066478Y-22650499D01*
X21066480Y-22650499D01*
X21114326Y-22643528D01*
X21138251Y-22640043D01*
X21248964Y-22585919D01*
X21336103Y-22498780D01*
X21390227Y-22388067D01*
X21400684Y-22316295D01*
X21400683Y-21808706D01*
X21400682Y-21808701D01*
X21397513Y-21786946D01*
X21406719Y-21750591D01*
X21411346Y-21745241D01*
X21620843Y-21535745D01*
X21620846Y-21535743D01*
X21627735Y-21528854D01*
X21627736Y-21528854D01*
X21691170Y-21465420D01*
X21722116Y-21390710D01*
X21725501Y-21382538D01*
X21725501Y-21292829D01*
X21725501Y-21288886D01*
X21725500Y-21288872D01*
X21725500Y-20215573D01*
X21739852Y-20180925D01*
X21752255Y-20171914D01*
X21838335Y-20128054D01*
X21838335Y-20128053D01*
X21838342Y-20128050D01*
X21864815Y-20101576D01*
X21899460Y-20087226D01*
X21934109Y-20101577D01*
X21948461Y-20136225D01*
X21943484Y-20157743D01*
X21941438Y-20161927D01*
X21941437Y-20161931D01*
X21930980Y-20233703D01*
X21930980Y-20741296D01*
X21941436Y-20813066D01*
X21941436Y-20813067D01*
X21962561Y-20856278D01*
X21995561Y-20923780D01*
X22082700Y-21010919D01*
X22193413Y-21065043D01*
X22265185Y-21075500D01*
X22847774Y-21075499D01*
X22847776Y-21075499D01*
X22895622Y-21068528D01*
X22919547Y-21065043D01*
X23030260Y-21010919D01*
X23117399Y-20923780D01*
X23171523Y-20813067D01*
X23177012Y-20775391D01*
X23196209Y-20743175D01*
X23232565Y-20733969D01*
X23264782Y-20753166D01*
X23274500Y-20782457D01*
X23274500Y-21005278D01*
X23260148Y-21039926D01*
X22839925Y-21460148D01*
X22805277Y-21474500D01*
X22265183Y-21474500D01*
X22193413Y-21484956D01*
X22193412Y-21484956D01*
X22082702Y-21539080D01*
X22082698Y-21539082D01*
X21995562Y-21626218D01*
X21995560Y-21626222D01*
X21941438Y-21736929D01*
X21941437Y-21736931D01*
X21930980Y-21808703D01*
X21930980Y-22316296D01*
X21941436Y-22388066D01*
X21941436Y-22388067D01*
X21971154Y-22448854D01*
X21995561Y-22498780D01*
X22082700Y-22585919D01*
X22193413Y-22640043D01*
X22265185Y-22650500D01*
X22847774Y-22650499D01*
X22847776Y-22650499D01*
X22895622Y-22643528D01*
X22919547Y-22640043D01*
X23030260Y-22585919D01*
X23117399Y-22498780D01*
X23171523Y-22388067D01*
X23176537Y-22353647D01*
X23195734Y-22321432D01*
X23232089Y-22312225D01*
X23259673Y-22326065D01*
X23261657Y-22328049D01*
X23261664Y-22328054D01*
X23374691Y-22385644D01*
X23374692Y-22385644D01*
X23374696Y-22385646D01*
X23500000Y-22405492D01*
X23625304Y-22385646D01*
X23657969Y-22369001D01*
X23695355Y-22366059D01*
X23723873Y-22390414D01*
X23724235Y-22391140D01*
X23731340Y-22405673D01*
X23776857Y-22498780D01*
X23863996Y-22585919D01*
X23974709Y-22640043D01*
X24046481Y-22650500D01*
X24629070Y-22650499D01*
X24629072Y-22650499D01*
X24676918Y-22643528D01*
X24700843Y-22640043D01*
X24811556Y-22585919D01*
X24898695Y-22498780D01*
X24952819Y-22388067D01*
X24960212Y-22337322D01*
X24979409Y-22305106D01*
X25015765Y-22295900D01*
X25043348Y-22309740D01*
X25061657Y-22328049D01*
X25061664Y-22328054D01*
X25174691Y-22385644D01*
X25174692Y-22385644D01*
X25174696Y-22385646D01*
X25300000Y-22405492D01*
X25425304Y-22385646D01*
X25442994Y-22376631D01*
X25480380Y-22373689D01*
X25508899Y-22398044D01*
X25509261Y-22398770D01*
X25522191Y-22425218D01*
X25558153Y-22498780D01*
X25645292Y-22585919D01*
X25756005Y-22640043D01*
X25827777Y-22650500D01*
X26410366Y-22650499D01*
X26410368Y-22650499D01*
X26458214Y-22643528D01*
X26482139Y-22640043D01*
X26592852Y-22585919D01*
X26679991Y-22498780D01*
X26734115Y-22388067D01*
X26742859Y-22328050D01*
X26743887Y-22320998D01*
X26763085Y-22288781D01*
X26799440Y-22279575D01*
X26827023Y-22293415D01*
X26861657Y-22328049D01*
X26861664Y-22328054D01*
X26974691Y-22385644D01*
X26974692Y-22385644D01*
X26974696Y-22385646D01*
X27100000Y-22405492D01*
X27225304Y-22385646D01*
X27228018Y-22384262D01*
X27265405Y-22381318D01*
X27293924Y-22405673D01*
X27294287Y-22406400D01*
X27303487Y-22425218D01*
X27339449Y-22498780D01*
X27426588Y-22585919D01*
X27537301Y-22640043D01*
X27609073Y-22650500D01*
X28191662Y-22650499D01*
X28191664Y-22650499D01*
X28239510Y-22643528D01*
X28263435Y-22640043D01*
X28374148Y-22585919D01*
X28461287Y-22498780D01*
X28487485Y-22445189D01*
X28515595Y-22420365D01*
X28553026Y-22422689D01*
X28560315Y-22427074D01*
X28561662Y-22428053D01*
X28674691Y-22485644D01*
X28674692Y-22485644D01*
X28674696Y-22485646D01*
X28800000Y-22505492D01*
X28925304Y-22485646D01*
X29032242Y-22431157D01*
X29069628Y-22428215D01*
X29098146Y-22452571D01*
X29098508Y-22453296D01*
X29120742Y-22498776D01*
X29120744Y-22498779D01*
X29120745Y-22498780D01*
X29207884Y-22585919D01*
X29318597Y-22640043D01*
X29390369Y-22650500D01*
X29972958Y-22650499D01*
X29972960Y-22650499D01*
X30020806Y-22643528D01*
X30044731Y-22640043D01*
X30155444Y-22585919D01*
X30242583Y-22498780D01*
X30296707Y-22388067D01*
X30307164Y-22316295D01*
X30307163Y-21808706D01*
X30307162Y-21808701D01*
X30296707Y-21736933D01*
X30296707Y-21736932D01*
X30273519Y-21689501D01*
X30242583Y-21626220D01*
X30155444Y-21539081D01*
X30100087Y-21512019D01*
X30044734Y-21484958D01*
X30044732Y-21484957D01*
X29972960Y-21474500D01*
X29390367Y-21474500D01*
X29318597Y-21484956D01*
X29318596Y-21484956D01*
X29207886Y-21539080D01*
X29207882Y-21539082D01*
X29120746Y-21626218D01*
X29120744Y-21626222D01*
X29069156Y-21731747D01*
X29041045Y-21756571D01*
X29003614Y-21754247D01*
X29002890Y-21753885D01*
X28925308Y-21714355D01*
X28925305Y-21714354D01*
X28925304Y-21714354D01*
X28800000Y-21694508D01*
X28674696Y-21714354D01*
X28674694Y-21714354D01*
X28674692Y-21714355D01*
X28674690Y-21714355D01*
X28582725Y-21761214D01*
X28545338Y-21764157D01*
X28516821Y-21739800D01*
X28516459Y-21739076D01*
X28492223Y-21689501D01*
X28461287Y-21626220D01*
X28374148Y-21539081D01*
X28318791Y-21512019D01*
X28263438Y-21484958D01*
X28263436Y-21484957D01*
X28191664Y-21474500D01*
X27609071Y-21474500D01*
X27537301Y-21484956D01*
X27537300Y-21484956D01*
X27426590Y-21539080D01*
X27426586Y-21539082D01*
X27336578Y-21629091D01*
X27335779Y-21628292D01*
X27307907Y-21645680D01*
X27277610Y-21641005D01*
X27225306Y-21614355D01*
X27225307Y-21614355D01*
X27225305Y-21614354D01*
X27225304Y-21614354D01*
X27100000Y-21594508D01*
X26974696Y-21614354D01*
X26974694Y-21614354D01*
X26974692Y-21614355D01*
X26974690Y-21614355D01*
X26861664Y-21671945D01*
X26861660Y-21671948D01*
X26803184Y-21730424D01*
X26768536Y-21744775D01*
X26733887Y-21730423D01*
X26724515Y-21717296D01*
X26713588Y-21694944D01*
X26679991Y-21626220D01*
X26592852Y-21539081D01*
X26537495Y-21512019D01*
X26482142Y-21484958D01*
X26482140Y-21484957D01*
X26410368Y-21474500D01*
X25827775Y-21474500D01*
X25756005Y-21484956D01*
X25756004Y-21484956D01*
X25645294Y-21539080D01*
X25645290Y-21539082D01*
X25558154Y-21626218D01*
X25555791Y-21629528D01*
X25555004Y-21628966D01*
X25530063Y-21650983D01*
X25492633Y-21648652D01*
X25491917Y-21648295D01*
X25463443Y-21633787D01*
X25425304Y-21614354D01*
X25300000Y-21594508D01*
X25174696Y-21614354D01*
X25174694Y-21614354D01*
X25174692Y-21614355D01*
X25174690Y-21614355D01*
X25061664Y-21671945D01*
X25061660Y-21671948D01*
X25015746Y-21717861D01*
X24981097Y-21732212D01*
X24946449Y-21717860D01*
X24937077Y-21704732D01*
X24898697Y-21626224D01*
X24898696Y-21626222D01*
X24898695Y-21626220D01*
X24811556Y-21539081D01*
X24756199Y-21512019D01*
X24700846Y-21484958D01*
X24700844Y-21484957D01*
X24629072Y-21474500D01*
X24046479Y-21474500D01*
X23974709Y-21484956D01*
X23974708Y-21484956D01*
X23863998Y-21539080D01*
X23863994Y-21539082D01*
X23776858Y-21626218D01*
X23776857Y-21626220D01*
X23775454Y-21629091D01*
X23773158Y-21633787D01*
X23745046Y-21658610D01*
X23707615Y-21656286D01*
X23706892Y-21655924D01*
X23625308Y-21614355D01*
X23625305Y-21614354D01*
X23625304Y-21614354D01*
X23500000Y-21594508D01*
X23499999Y-21594508D01*
X23462849Y-21600392D01*
X23426382Y-21591637D01*
X23406787Y-21559660D01*
X23415542Y-21523193D01*
X23420530Y-21517353D01*
X23620843Y-21317041D01*
X23620846Y-21317039D01*
X23627735Y-21310150D01*
X23627736Y-21310150D01*
X23691170Y-21246716D01*
X23721543Y-21173389D01*
X23725501Y-21163834D01*
X23725501Y-21074125D01*
X23725501Y-21070182D01*
X23725500Y-21070168D01*
X23725500Y-20990719D01*
X23739852Y-20956071D01*
X23774500Y-20941719D01*
X23809148Y-20956071D01*
X23863996Y-21010919D01*
X23974709Y-21065043D01*
X24046481Y-21075500D01*
X24629070Y-21075499D01*
X24629072Y-21075499D01*
X24676918Y-21068528D01*
X24700843Y-21065043D01*
X24811556Y-21010919D01*
X24898695Y-20923780D01*
X24952819Y-20813067D01*
X24963276Y-20741295D01*
X24963275Y-20233706D01*
X24961169Y-20219253D01*
X24956891Y-20189884D01*
X24966098Y-20153529D01*
X24970724Y-20148179D01*
X25490853Y-19628051D01*
X25525500Y-19613700D01*
X25560148Y-19628052D01*
X25574500Y-19662700D01*
X25574500Y-20014577D01*
X25560148Y-20049225D01*
X25558154Y-20051218D01*
X25558152Y-20051222D01*
X25504030Y-20161929D01*
X25504029Y-20161931D01*
X25493572Y-20233703D01*
X25493572Y-20741296D01*
X25504028Y-20813066D01*
X25504028Y-20813067D01*
X25525153Y-20856278D01*
X25558153Y-20923780D01*
X25645292Y-21010919D01*
X25756005Y-21065043D01*
X25827777Y-21075500D01*
X26410366Y-21075499D01*
X26410368Y-21075499D01*
X26458214Y-21068528D01*
X26482139Y-21065043D01*
X26592852Y-21010919D01*
X26679991Y-20923780D01*
X26734115Y-20813067D01*
X26744572Y-20741295D01*
X26744571Y-20233706D01*
X26742465Y-20219253D01*
X26734115Y-20161933D01*
X26734115Y-20161932D01*
X26710439Y-20113503D01*
X26679991Y-20051220D01*
X26592852Y-19964081D01*
X26534617Y-19935612D01*
X26482142Y-19909958D01*
X26482140Y-19909957D01*
X26410369Y-19899500D01*
X26410367Y-19899500D01*
X26074500Y-19899500D01*
X26039852Y-19885148D01*
X26025500Y-19850500D01*
X26025500Y-19800000D01*
X26794508Y-19800000D01*
X26814354Y-19925304D01*
X26814354Y-19925305D01*
X26814355Y-19925307D01*
X26814355Y-19925309D01*
X26871945Y-20038335D01*
X26871950Y-20038342D01*
X26961657Y-20128049D01*
X26961664Y-20128054D01*
X27074691Y-20185644D01*
X27074692Y-20185644D01*
X27074696Y-20185646D01*
X27200000Y-20205492D01*
X27218204Y-20202608D01*
X27254668Y-20211362D01*
X27274265Y-20243338D01*
X27274868Y-20251005D01*
X27274868Y-20741296D01*
X27285324Y-20813066D01*
X27285324Y-20813067D01*
X27306449Y-20856278D01*
X27339449Y-20923780D01*
X27426588Y-21010919D01*
X27537301Y-21065043D01*
X27609073Y-21075500D01*
X28191662Y-21075499D01*
X28191664Y-21075499D01*
X28239510Y-21068528D01*
X28263435Y-21065043D01*
X28374148Y-21010919D01*
X28461287Y-20923780D01*
X28515411Y-20813067D01*
X28525868Y-20741295D01*
X28525867Y-20233706D01*
X28520024Y-20193600D01*
X28529230Y-20157246D01*
X28561447Y-20138049D01*
X28590757Y-20142878D01*
X28674691Y-20185644D01*
X28674692Y-20185644D01*
X28674696Y-20185646D01*
X28800000Y-20205492D01*
X28850089Y-20197558D01*
X28886555Y-20206313D01*
X28892402Y-20211307D01*
X29041812Y-20360717D01*
X29056164Y-20395365D01*
X29056164Y-20741296D01*
X29066620Y-20813066D01*
X29066620Y-20813067D01*
X29087745Y-20856278D01*
X29120745Y-20923780D01*
X29207884Y-21010919D01*
X29318597Y-21065043D01*
X29390369Y-21075500D01*
X29972958Y-21075499D01*
X29972960Y-21075499D01*
X30020806Y-21068528D01*
X30044731Y-21065043D01*
X30155444Y-21010919D01*
X30242583Y-20923780D01*
X30281479Y-20844217D01*
X30309590Y-20819393D01*
X30347021Y-20821717D01*
X30371845Y-20849828D01*
X30374500Y-20865738D01*
X30374500Y-21150728D01*
X30374499Y-21150742D01*
X30374499Y-21244396D01*
X30397739Y-21300500D01*
X30408830Y-21327276D01*
X30408831Y-21327278D01*
X30479155Y-21397601D01*
X30479157Y-21397602D01*
X30826789Y-21745234D01*
X30841141Y-21779882D01*
X30840629Y-21786945D01*
X30837460Y-21808700D01*
X30837460Y-22316296D01*
X30847916Y-22388066D01*
X30847916Y-22388067D01*
X30877634Y-22448854D01*
X30902041Y-22498780D01*
X30989180Y-22585919D01*
X31099893Y-22640043D01*
X31171665Y-22650500D01*
X31754254Y-22650499D01*
X31754256Y-22650499D01*
X31802102Y-22643528D01*
X31826027Y-22640043D01*
X31936740Y-22585919D01*
X32023879Y-22498780D01*
X32078003Y-22388067D01*
X32088460Y-22316295D01*
X32088459Y-21808706D01*
X32088458Y-21808701D01*
X32078003Y-21736933D01*
X32078003Y-21736932D01*
X32054815Y-21689501D01*
X32023879Y-21626220D01*
X31936740Y-21539081D01*
X31881383Y-21512019D01*
X31826030Y-21484958D01*
X31826028Y-21484957D01*
X31754257Y-21474500D01*
X31754255Y-21474500D01*
X31214161Y-21474500D01*
X31179513Y-21460148D01*
X30839852Y-21120487D01*
X30825500Y-21085839D01*
X30825500Y-20965535D01*
X30839852Y-20930887D01*
X30874500Y-20916535D01*
X30909148Y-20930887D01*
X30989180Y-21010919D01*
X31099893Y-21065043D01*
X31171665Y-21075500D01*
X31754254Y-21075499D01*
X31754256Y-21075499D01*
X31802102Y-21068528D01*
X31826027Y-21065043D01*
X31936740Y-21010919D01*
X32023879Y-20923780D01*
X32078003Y-20813067D01*
X32078003Y-20813060D01*
X32078682Y-20810868D01*
X32079648Y-20809702D01*
X32079675Y-20809648D01*
X32079688Y-20809654D01*
X32102619Y-20781998D01*
X32139960Y-20778510D01*
X32168830Y-20802447D01*
X32174500Y-20825328D01*
X32174500Y-21169432D01*
X32174499Y-21169446D01*
X32174499Y-21263100D01*
X32187184Y-21293722D01*
X32189992Y-21300501D01*
X32208830Y-21345980D01*
X32208831Y-21345981D01*
X32208831Y-21345982D01*
X32279155Y-21416305D01*
X32279157Y-21416306D01*
X32608085Y-21745234D01*
X32622437Y-21779882D01*
X32621925Y-21786945D01*
X32618756Y-21808700D01*
X32618756Y-22316296D01*
X32629212Y-22388066D01*
X32629212Y-22388067D01*
X32658930Y-22448854D01*
X32683337Y-22498780D01*
X32770476Y-22585919D01*
X32881189Y-22640043D01*
X32952961Y-22650500D01*
X33535550Y-22650499D01*
X33535552Y-22650499D01*
X33583398Y-22643528D01*
X33607323Y-22640043D01*
X33718036Y-22585919D01*
X33805175Y-22498780D01*
X33859299Y-22388067D01*
X33869756Y-22316295D01*
X33869755Y-21808706D01*
X33869754Y-21808701D01*
X33859299Y-21736933D01*
X33859299Y-21736932D01*
X33836111Y-21689501D01*
X33805175Y-21626220D01*
X33718036Y-21539081D01*
X33662679Y-21512019D01*
X33607326Y-21484958D01*
X33607324Y-21484957D01*
X33535553Y-21474500D01*
X33535551Y-21474500D01*
X32995458Y-21474500D01*
X32960810Y-21460148D01*
X32639852Y-21139190D01*
X32625500Y-21104542D01*
X32625500Y-20984239D01*
X32639852Y-20949591D01*
X32674500Y-20935239D01*
X32709148Y-20949591D01*
X32770476Y-21010919D01*
X32881189Y-21065043D01*
X32952961Y-21075500D01*
X33535550Y-21075499D01*
X33535552Y-21075499D01*
X33583398Y-21068528D01*
X33607323Y-21065043D01*
X33718036Y-21010919D01*
X33805175Y-20923780D01*
X33859299Y-20813067D01*
X33869756Y-20741295D01*
X33869755Y-20233706D01*
X33867649Y-20219253D01*
X33859299Y-20161933D01*
X33857957Y-20159187D01*
X33855633Y-20121756D01*
X33880457Y-20093645D01*
X33917888Y-20091321D01*
X33936626Y-20103018D01*
X33960148Y-20126540D01*
X33974500Y-20161188D01*
X33974500Y-21188132D01*
X33974499Y-21188146D01*
X33974499Y-21281800D01*
X33989098Y-21317043D01*
X33993337Y-21327276D01*
X34008830Y-21364680D01*
X34008831Y-21364681D01*
X34008831Y-21364682D01*
X34079155Y-21435005D01*
X34079157Y-21435006D01*
X34389385Y-21745234D01*
X34403737Y-21779882D01*
X34403225Y-21786945D01*
X34400056Y-21808700D01*
X34400056Y-22316296D01*
X34410512Y-22388066D01*
X34410512Y-22388067D01*
X34440230Y-22448854D01*
X34464637Y-22498780D01*
X34551776Y-22585919D01*
X34662489Y-22640043D01*
X34734261Y-22650500D01*
X35316850Y-22650499D01*
X35316852Y-22650499D01*
X35364698Y-22643528D01*
X35388623Y-22640043D01*
X35499336Y-22585919D01*
X35586475Y-22498780D01*
X35637079Y-22395266D01*
X35665190Y-22370443D01*
X35702621Y-22372767D01*
X35715748Y-22382140D01*
X35761657Y-22428049D01*
X35761664Y-22428054D01*
X35874691Y-22485644D01*
X35874692Y-22485644D01*
X35874696Y-22485646D01*
X36000000Y-22505492D01*
X36125304Y-22485646D01*
X36238342Y-22428050D01*
X36266539Y-22399851D01*
X36301187Y-22385500D01*
X36814820Y-22385500D01*
X36858722Y-22376767D01*
X36908504Y-22343504D01*
X36941767Y-22293722D01*
X36950500Y-22249820D01*
X36950500Y-21900180D01*
X36941767Y-21856278D01*
X36939058Y-21852225D01*
X36931740Y-21815444D01*
X36939059Y-21797774D01*
X36941767Y-21793722D01*
X36950500Y-21749820D01*
X36950500Y-21400180D01*
X36941767Y-21356278D01*
X36940150Y-21353858D01*
X36939057Y-21352222D01*
X36931740Y-21315440D01*
X36939059Y-21297774D01*
X36941767Y-21293722D01*
X36942983Y-21287603D01*
X36956394Y-21262512D01*
X36980869Y-21238037D01*
X37016170Y-21202736D01*
X37016170Y-21202735D01*
X37023057Y-21195848D01*
X37023058Y-21195845D01*
X37065854Y-21153050D01*
X37100501Y-21138700D01*
X37135149Y-21153052D01*
X37149500Y-21187700D01*
X37149500Y-21249823D01*
X37158232Y-21293721D01*
X37160944Y-21297780D01*
X37168258Y-21334563D01*
X37160944Y-21352220D01*
X37158232Y-21356278D01*
X37149500Y-21400176D01*
X37149500Y-21749823D01*
X37158232Y-21793721D01*
X37160944Y-21797780D01*
X37168258Y-21834563D01*
X37160944Y-21852220D01*
X37158232Y-21856278D01*
X37149500Y-21900176D01*
X37149500Y-22249823D01*
X37158232Y-22293721D01*
X37191494Y-22343502D01*
X37191495Y-22343502D01*
X37191496Y-22343504D01*
X37200961Y-22349828D01*
X37221797Y-22381011D01*
X37214482Y-22417793D01*
X37208388Y-22425218D01*
X37171951Y-22461656D01*
X37171945Y-22461664D01*
X37114355Y-22574690D01*
X37114355Y-22574692D01*
X37114354Y-22574694D01*
X37114354Y-22574696D01*
X37094508Y-22700000D01*
X37114354Y-22825304D01*
X37114354Y-22825305D01*
X37114355Y-22825307D01*
X37114355Y-22825309D01*
X37171945Y-22938335D01*
X37171950Y-22938342D01*
X37261657Y-23028049D01*
X37261664Y-23028054D01*
X37374691Y-23085644D01*
X37374692Y-23085644D01*
X37374696Y-23085646D01*
X37500000Y-23105492D01*
X37625304Y-23085646D01*
X37625308Y-23085644D01*
X37625309Y-23085644D01*
X37738335Y-23028054D01*
X37738337Y-23028052D01*
X37738342Y-23028050D01*
X37828050Y-22938342D01*
X37833292Y-22928054D01*
X37885644Y-22825309D01*
X37885644Y-22825307D01*
X37885646Y-22825304D01*
X37905492Y-22700000D01*
X37885646Y-22574696D01*
X37885644Y-22574692D01*
X37885644Y-22574690D01*
X37828054Y-22461664D01*
X37828049Y-22461657D01*
X37827154Y-22460762D01*
X37826829Y-22459979D01*
X37825786Y-22458543D01*
X37826130Y-22458292D01*
X37812802Y-22426114D01*
X37827154Y-22391466D01*
X37852242Y-22378055D01*
X37858722Y-22376767D01*
X37908504Y-22343504D01*
X37908505Y-22343503D01*
X37911917Y-22340092D01*
X37913854Y-22342029D01*
X37937115Y-22326452D01*
X37946725Y-22325500D01*
X38106524Y-22325500D01*
X38141172Y-22339852D01*
X38151349Y-22354708D01*
X38175384Y-22409142D01*
X38250857Y-22484615D01*
X38348499Y-22527729D01*
X38348505Y-22527731D01*
X38372359Y-22530498D01*
X38372360Y-22530498D01*
X38372377Y-22530500D01*
X38827622Y-22530499D01*
X38851498Y-22527730D01*
X38949141Y-22484616D01*
X39024616Y-22409141D01*
X39067730Y-22311498D01*
X39067730Y-22311496D01*
X39067731Y-22311494D01*
X39070498Y-22287640D01*
X39070497Y-22287640D01*
X39070500Y-22287623D01*
X39070499Y-21999998D01*
X45094645Y-21999998D01*
X45094645Y-22000001D01*
X45114038Y-22271153D01*
X45114040Y-22271168D01*
X45160308Y-22483858D01*
X45171825Y-22536801D01*
X45260554Y-22774692D01*
X45266830Y-22791518D01*
X45397109Y-23030108D01*
X45397112Y-23030112D01*
X45560026Y-23247740D01*
X45752259Y-23439973D01*
X45969887Y-23602887D01*
X45969891Y-23602890D01*
X46208481Y-23733169D01*
X46208482Y-23733169D01*
X46208487Y-23733172D01*
X46463199Y-23828175D01*
X46728840Y-23885961D01*
X46932210Y-23900506D01*
X46999998Y-23905355D01*
X47000000Y-23905355D01*
X47000002Y-23905355D01*
X47060257Y-23901045D01*
X47271160Y-23885961D01*
X47536801Y-23828175D01*
X47791513Y-23733172D01*
X47910813Y-23668029D01*
X48030108Y-23602890D01*
X48030109Y-23602889D01*
X48030113Y-23602887D01*
X48160297Y-23505431D01*
X48247740Y-23439973D01*
X48439973Y-23247740D01*
X48521867Y-23138342D01*
X48602887Y-23030113D01*
X48604012Y-23028054D01*
X48688804Y-22872767D01*
X48733172Y-22791513D01*
X48828175Y-22536801D01*
X48885961Y-22271160D01*
X48905355Y-22000000D01*
X48885961Y-21728840D01*
X48828175Y-21463199D01*
X48733172Y-21208487D01*
X48728538Y-21200000D01*
X48602890Y-20969891D01*
X48602887Y-20969887D01*
X48439973Y-20752259D01*
X48247740Y-20560026D01*
X48030112Y-20397112D01*
X48030108Y-20397109D01*
X47791518Y-20266830D01*
X47778842Y-20262102D01*
X47536801Y-20171825D01*
X47491323Y-20161932D01*
X47271168Y-20114040D01*
X47271153Y-20114038D01*
X47000002Y-20094645D01*
X46999998Y-20094645D01*
X46728846Y-20114038D01*
X46728831Y-20114040D01*
X46463203Y-20171824D01*
X46463202Y-20171824D01*
X46463199Y-20171825D01*
X46330182Y-20221438D01*
X46208481Y-20266830D01*
X45969891Y-20397109D01*
X45969887Y-20397112D01*
X45752259Y-20560026D01*
X45560026Y-20752259D01*
X45397112Y-20969887D01*
X45397109Y-20969891D01*
X45266830Y-21208481D01*
X45247886Y-21259272D01*
X45176634Y-21450307D01*
X45171824Y-21463203D01*
X45114040Y-21728831D01*
X45114038Y-21728846D01*
X45094645Y-21999998D01*
X39070499Y-21999998D01*
X39070499Y-21932378D01*
X39067730Y-21908502D01*
X39024616Y-21810859D01*
X39024615Y-21810858D01*
X39024615Y-21810857D01*
X38949142Y-21735384D01*
X38851500Y-21692270D01*
X38851494Y-21692268D01*
X38827640Y-21689501D01*
X38827625Y-21689500D01*
X38827623Y-21689500D01*
X38827620Y-21689500D01*
X38372382Y-21689500D01*
X38372373Y-21689501D01*
X38348500Y-21692270D01*
X38250857Y-21735384D01*
X38176094Y-21810148D01*
X38141446Y-21824500D01*
X37995352Y-21824500D01*
X37960704Y-21810148D01*
X37946352Y-21775500D01*
X37947293Y-21765941D01*
X37948145Y-21761658D01*
X37950500Y-21749820D01*
X37950500Y-21400180D01*
X37941767Y-21356278D01*
X37939058Y-21352225D01*
X37931740Y-21315444D01*
X37939059Y-21297774D01*
X37939060Y-21297773D01*
X37941767Y-21293722D01*
X37950500Y-21249820D01*
X37950500Y-20912379D01*
X38129500Y-20912379D01*
X38129500Y-21267617D01*
X38129501Y-21267626D01*
X38132270Y-21291499D01*
X38175384Y-21389142D01*
X38250857Y-21464615D01*
X38250858Y-21464615D01*
X38250859Y-21464616D01*
X38256263Y-21467002D01*
X38348499Y-21507729D01*
X38348505Y-21507731D01*
X38372359Y-21510498D01*
X38372360Y-21510498D01*
X38372377Y-21510500D01*
X38827622Y-21510499D01*
X38851498Y-21507730D01*
X38949141Y-21464616D01*
X39024616Y-21389141D01*
X39067730Y-21291498D01*
X39067730Y-21291496D01*
X39067731Y-21291494D01*
X39070498Y-21267640D01*
X39070497Y-21267640D01*
X39070500Y-21267623D01*
X39070499Y-20912378D01*
X39067730Y-20888502D01*
X39024616Y-20790859D01*
X38968090Y-20734333D01*
X38953739Y-20699686D01*
X38959080Y-20677441D01*
X38985646Y-20625304D01*
X39005492Y-20500000D01*
X38985646Y-20374696D01*
X38985644Y-20374692D01*
X38985644Y-20374690D01*
X38928054Y-20261664D01*
X38928049Y-20261657D01*
X38838342Y-20171950D01*
X38838335Y-20171945D01*
X38725308Y-20114355D01*
X38725305Y-20114354D01*
X38725304Y-20114354D01*
X38600000Y-20094508D01*
X38474696Y-20114354D01*
X38474694Y-20114354D01*
X38474692Y-20114355D01*
X38474690Y-20114355D01*
X38361664Y-20171945D01*
X38361657Y-20171950D01*
X38271950Y-20261657D01*
X38271945Y-20261664D01*
X38214355Y-20374690D01*
X38214355Y-20374692D01*
X38214354Y-20374694D01*
X38214354Y-20374696D01*
X38194508Y-20500000D01*
X38214354Y-20625304D01*
X38214354Y-20625305D01*
X38214355Y-20625307D01*
X38214355Y-20625309D01*
X38240918Y-20677441D01*
X38243861Y-20714828D01*
X38231908Y-20734334D01*
X38175383Y-20790859D01*
X38132270Y-20888499D01*
X38132268Y-20888505D01*
X38129501Y-20912359D01*
X38129500Y-20912379D01*
X37950500Y-20912379D01*
X37950500Y-20900180D01*
X37941767Y-20856278D01*
X37939058Y-20852225D01*
X37931740Y-20815444D01*
X37939059Y-20797774D01*
X37939126Y-20797674D01*
X37941767Y-20793722D01*
X37950500Y-20749820D01*
X37950500Y-20400180D01*
X37941767Y-20356278D01*
X37926991Y-20334164D01*
X37908504Y-20306495D01*
X37858721Y-20273232D01*
X37858722Y-20273232D01*
X37839939Y-20269496D01*
X37808757Y-20248660D01*
X37800500Y-20221438D01*
X37800500Y-17974501D01*
X37814852Y-17939853D01*
X37849500Y-17925501D01*
X37900556Y-17925501D01*
X37900564Y-17925500D01*
X38675500Y-17925500D01*
X38710148Y-17939852D01*
X38724500Y-17974500D01*
X38724500Y-18008261D01*
X38734427Y-18076394D01*
X38734428Y-18076396D01*
X38744077Y-18096133D01*
X38785802Y-18181483D01*
X38868517Y-18264198D01*
X38973607Y-18315573D01*
X39021884Y-18322606D01*
X39041738Y-18325500D01*
X39041740Y-18325500D01*
X39508262Y-18325500D01*
X39525590Y-18322974D01*
X39576393Y-18315573D01*
X39681483Y-18264198D01*
X39764198Y-18181483D01*
X39815573Y-18076393D01*
X39825500Y-18008260D01*
X39825500Y-17391740D01*
X39815573Y-17323607D01*
X39764198Y-17218517D01*
X39681483Y-17135802D01*
X39628938Y-17110114D01*
X39576396Y-17084428D01*
X39576394Y-17084427D01*
X39508262Y-17074500D01*
X39508260Y-17074500D01*
X39041740Y-17074500D01*
X39041738Y-17074500D01*
X38973605Y-17084427D01*
X38973603Y-17084428D01*
X38868519Y-17135801D01*
X38868515Y-17135803D01*
X38785803Y-17218515D01*
X38785801Y-17218519D01*
X38734428Y-17323603D01*
X38734427Y-17323605D01*
X38724500Y-17391738D01*
X38724500Y-17425500D01*
X38710148Y-17460148D01*
X38675500Y-17474500D01*
X37963701Y-17474500D01*
X37929053Y-17460148D01*
X37814852Y-17345947D01*
X37800500Y-17311299D01*
X37800500Y-15755134D01*
X38549500Y-15755134D01*
X38549500Y-16144858D01*
X38549501Y-16144868D01*
X38552415Y-16169992D01*
X38597794Y-16272766D01*
X38677233Y-16352205D01*
X38780006Y-16397584D01*
X38780009Y-16397585D01*
X38805135Y-16400500D01*
X39561298Y-16400499D01*
X39595946Y-16414851D01*
X40399180Y-17218085D01*
X40413532Y-17252733D01*
X40408553Y-17274253D01*
X40384429Y-17323600D01*
X40384427Y-17323605D01*
X40374500Y-17391738D01*
X40374500Y-17911298D01*
X40360148Y-17945946D01*
X39698705Y-18607388D01*
X39664057Y-18621740D01*
X39642537Y-18616761D01*
X39576399Y-18584429D01*
X39576394Y-18584427D01*
X39508262Y-18574500D01*
X39508260Y-18574500D01*
X39041740Y-18574500D01*
X39041738Y-18574500D01*
X38973605Y-18584427D01*
X38973603Y-18584428D01*
X38868519Y-18635801D01*
X38868515Y-18635803D01*
X38785803Y-18718515D01*
X38785801Y-18718519D01*
X38734428Y-18823603D01*
X38734427Y-18823605D01*
X38724500Y-18891738D01*
X38724500Y-19508261D01*
X38734427Y-19576394D01*
X38734428Y-19576396D01*
X38740724Y-19589274D01*
X38785802Y-19681483D01*
X38868517Y-19764198D01*
X38973607Y-19815573D01*
X39019935Y-19822323D01*
X39041738Y-19825500D01*
X39041740Y-19825500D01*
X39508262Y-19825500D01*
X39530065Y-19822323D01*
X39576393Y-19815573D01*
X39681483Y-19764198D01*
X39764198Y-19681483D01*
X39815573Y-19576393D01*
X39825500Y-19508260D01*
X39825500Y-19138700D01*
X39839851Y-19104053D01*
X40610346Y-18333557D01*
X40644993Y-18319206D01*
X40652059Y-18319718D01*
X40691738Y-18325500D01*
X40691740Y-18325500D01*
X41158262Y-18325500D01*
X41175590Y-18322974D01*
X41226393Y-18315573D01*
X41331483Y-18264198D01*
X41414198Y-18181483D01*
X41465573Y-18076393D01*
X41475500Y-18008260D01*
X41475500Y-17391740D01*
X41465573Y-17323607D01*
X41414198Y-17218517D01*
X41331483Y-17135802D01*
X41278938Y-17110114D01*
X41226396Y-17084428D01*
X41226394Y-17084427D01*
X41158262Y-17074500D01*
X41158260Y-17074500D01*
X40913701Y-17074500D01*
X40879053Y-17060148D01*
X40140056Y-16321151D01*
X40125704Y-16286503D01*
X40129879Y-16266711D01*
X40159555Y-16199501D01*
X40172585Y-16169991D01*
X40175500Y-16144865D01*
X40175499Y-15755136D01*
X40172585Y-15730009D01*
X40127206Y-15627235D01*
X40127205Y-15627234D01*
X40127205Y-15627233D01*
X40047766Y-15547794D01*
X40047767Y-15547794D01*
X39944993Y-15502415D01*
X39932428Y-15500957D01*
X39919865Y-15499500D01*
X39919863Y-15499500D01*
X38805141Y-15499500D01*
X38805131Y-15499501D01*
X38780007Y-15502415D01*
X38677233Y-15547794D01*
X38597794Y-15627233D01*
X38552415Y-15730006D01*
X38549500Y-15755134D01*
X37800500Y-15755134D01*
X37800500Y-15560376D01*
X37800499Y-15560372D01*
X37791734Y-15539212D01*
X37762364Y-15468305D01*
X37762362Y-15468303D01*
X37762362Y-15468302D01*
X37689107Y-15395048D01*
X37689100Y-15395042D01*
X37014852Y-14720793D01*
X37000500Y-14686145D01*
X37000500Y-13786188D01*
X37014852Y-13751540D01*
X37040942Y-13725450D01*
X37078050Y-13688342D01*
X37089552Y-13665769D01*
X37135644Y-13575309D01*
X37135644Y-13575307D01*
X37135646Y-13575304D01*
X37155492Y-13450000D01*
X37135646Y-13324696D01*
X37135644Y-13324692D01*
X37135644Y-13324690D01*
X37078054Y-13211664D01*
X37078049Y-13211657D01*
X37019174Y-13152782D01*
X37480672Y-13152782D01*
X37480672Y-13519520D01*
X37480673Y-13519529D01*
X37482485Y-13535148D01*
X37483490Y-13543815D01*
X37495825Y-13571752D01*
X37500000Y-13591542D01*
X37500000Y-14040762D01*
X37495825Y-14060554D01*
X37483489Y-14088492D01*
X37480673Y-14112762D01*
X37480672Y-14112782D01*
X37480672Y-14479520D01*
X37480673Y-14479527D01*
X37483490Y-14503816D01*
X37527359Y-14603170D01*
X37604154Y-14679965D01*
X37703507Y-14723834D01*
X37703513Y-14723836D01*
X37727781Y-14726651D01*
X37727782Y-14726651D01*
X37727799Y-14726653D01*
X38154544Y-14726652D01*
X38178834Y-14723835D01*
X38278188Y-14679966D01*
X38354985Y-14603169D01*
X38378081Y-14550860D01*
X38405205Y-14524962D01*
X38422906Y-14521653D01*
X39065783Y-14521653D01*
X39065791Y-14521654D01*
X39071492Y-14521654D01*
X39161201Y-14521654D01*
X39161202Y-14521654D01*
X39182596Y-14512791D01*
X39203268Y-14504229D01*
X39222020Y-14500499D01*
X39919858Y-14500499D01*
X39919864Y-14500499D01*
X39921356Y-14500325D01*
X39927000Y-14500000D01*
X40563300Y-14500000D01*
X40597948Y-14514352D01*
X40612300Y-14549000D01*
X40604042Y-14576223D01*
X40570687Y-14626142D01*
X40556337Y-14660785D01*
X40556334Y-14660796D01*
X40544500Y-14720290D01*
X40544500Y-15279709D01*
X40556334Y-15339203D01*
X40556337Y-15339214D01*
X40570687Y-15373857D01*
X40604394Y-15424304D01*
X40775694Y-15595604D01*
X40775699Y-15595608D01*
X40827225Y-15630036D01*
X40848061Y-15661218D01*
X40844828Y-15690569D01*
X40827415Y-15730006D01*
X40824500Y-15755134D01*
X40824500Y-16144858D01*
X40824501Y-16144868D01*
X40827415Y-16169992D01*
X40872794Y-16272766D01*
X40952233Y-16352205D01*
X41055006Y-16397584D01*
X41055009Y-16397585D01*
X41080135Y-16400500D01*
X42194864Y-16400499D01*
X42219991Y-16397585D01*
X42322765Y-16352206D01*
X42402206Y-16272765D01*
X42447585Y-16169991D01*
X42450500Y-16144865D01*
X42450499Y-15788704D01*
X42464851Y-15754057D01*
X42499499Y-15739705D01*
X42534147Y-15754057D01*
X42575695Y-15795605D01*
X42609173Y-15817973D01*
X42626140Y-15829311D01*
X42626141Y-15829311D01*
X42626142Y-15829312D01*
X42660785Y-15843662D01*
X42660786Y-15843662D01*
X42660788Y-15843663D01*
X42660790Y-15843663D01*
X42660796Y-15843665D01*
X42720290Y-15855499D01*
X42720296Y-15855500D01*
X44379704Y-15855500D01*
X44381209Y-15855200D01*
X44439203Y-15843665D01*
X44439205Y-15843664D01*
X44439212Y-15843663D01*
X44473860Y-15829311D01*
X44524307Y-15795603D01*
X44695603Y-15624307D01*
X44729311Y-15573860D01*
X44743663Y-15539212D01*
X44743768Y-15538687D01*
X44755499Y-15479709D01*
X44755500Y-15479704D01*
X44755500Y-14220296D01*
X44755499Y-14220290D01*
X44743665Y-14160796D01*
X44743662Y-14160785D01*
X44729312Y-14126142D01*
X44695605Y-14075695D01*
X44695604Y-14075694D01*
X44224152Y-13604241D01*
X44224148Y-13604238D01*
X44173684Y-13570523D01*
X44173677Y-13570520D01*
X44139039Y-13556177D01*
X44139037Y-13556176D01*
X44139036Y-13556176D01*
X44079522Y-13544346D01*
X43120282Y-13544485D01*
X43120281Y-13544485D01*
X43097882Y-13548943D01*
X43061099Y-13541629D01*
X43040261Y-13510448D01*
X43047575Y-13473665D01*
X43053666Y-13466242D01*
X44300619Y-12219290D01*
X44334537Y-12168333D01*
X44348766Y-12133634D01*
X44360392Y-12074082D01*
X44353068Y-10017137D01*
X44341125Y-9957926D01*
X44326773Y-9923452D01*
X44293172Y-9873262D01*
X44293171Y-9873260D01*
X43824305Y-9404395D01*
X43824304Y-9404394D01*
X43773857Y-9370687D01*
X43739214Y-9356337D01*
X43739203Y-9356334D01*
X43679709Y-9344500D01*
X43679704Y-9344500D01*
X42620296Y-9344500D01*
X42620290Y-9344500D01*
X42560796Y-9356334D01*
X42560785Y-9356337D01*
X42526142Y-9370687D01*
X42475695Y-9404394D01*
X42475694Y-9404395D01*
X42183648Y-9696442D01*
X42149000Y-9710794D01*
X42114352Y-9696442D01*
X42100000Y-9661794D01*
X42100000Y-8800000D01*
X40204500Y-8800000D01*
X40169852Y-8785648D01*
X40155500Y-8751000D01*
X40155500Y-6220296D01*
X40155499Y-6220290D01*
X40143665Y-6160796D01*
X40143662Y-6160785D01*
X40129312Y-6126142D01*
X40095605Y-6075695D01*
X39724304Y-5704394D01*
X39673857Y-5670687D01*
X39639214Y-5656337D01*
X39639203Y-5656334D01*
X39579709Y-5644500D01*
X39579704Y-5644500D01*
X38620296Y-5644500D01*
X38620290Y-5644500D01*
X38560796Y-5656334D01*
X38560785Y-5656337D01*
X38526142Y-5670687D01*
X38475695Y-5704394D01*
X38104394Y-6075695D01*
X38070687Y-6126142D01*
X38056337Y-6160785D01*
X38056334Y-6160796D01*
X38044500Y-6220290D01*
X38044500Y-11479709D01*
X38056334Y-11539203D01*
X38056337Y-11539214D01*
X38070687Y-11573857D01*
X38104394Y-11624304D01*
X38375695Y-11895605D01*
X38401807Y-11913052D01*
X38426140Y-11929311D01*
X38426141Y-11929311D01*
X38426142Y-11929312D01*
X38460785Y-11943662D01*
X38460786Y-11943662D01*
X38460788Y-11943663D01*
X38460790Y-11943663D01*
X38460796Y-11943665D01*
X38520290Y-11955499D01*
X38520296Y-11955500D01*
X39679704Y-11955500D01*
X39708219Y-11949828D01*
X39739203Y-11943665D01*
X39739205Y-11943664D01*
X39739212Y-11943663D01*
X39773860Y-11929311D01*
X39824307Y-11895603D01*
X40016352Y-11703558D01*
X40051000Y-11689206D01*
X40085648Y-11703558D01*
X40100000Y-11738206D01*
X40100000Y-11779704D01*
X40085648Y-11814352D01*
X39714352Y-12185648D01*
X39679704Y-12200000D01*
X38800000Y-12200000D01*
X38800000Y-13051000D01*
X38785648Y-13085648D01*
X38751000Y-13100000D01*
X38418203Y-13100000D01*
X38383555Y-13085648D01*
X38373378Y-13070792D01*
X38354984Y-13029135D01*
X38278189Y-12952340D01*
X38278190Y-12952340D01*
X38178836Y-12908471D01*
X38178830Y-12908469D01*
X38154562Y-12905654D01*
X38154547Y-12905653D01*
X38154545Y-12905653D01*
X38154542Y-12905653D01*
X37727804Y-12905653D01*
X37727797Y-12905654D01*
X37703508Y-12908471D01*
X37604154Y-12952340D01*
X37527359Y-13029135D01*
X37483490Y-13128488D01*
X37483488Y-13128494D01*
X37480673Y-13152762D01*
X37480672Y-13152782D01*
X37019174Y-13152782D01*
X36988342Y-13121950D01*
X36988335Y-13121945D01*
X36875308Y-13064355D01*
X36875305Y-13064354D01*
X36875304Y-13064354D01*
X36750000Y-13044508D01*
X36624696Y-13064354D01*
X36624694Y-13064354D01*
X36624692Y-13064355D01*
X36624690Y-13064355D01*
X36511664Y-13121945D01*
X36511657Y-13121950D01*
X36421950Y-13211657D01*
X36421945Y-13211664D01*
X36364355Y-13324690D01*
X36364355Y-13324692D01*
X36364354Y-13324694D01*
X36364354Y-13324696D01*
X36344508Y-13450000D01*
X36364354Y-13575304D01*
X36364354Y-13575305D01*
X36364355Y-13575307D01*
X36364355Y-13575309D01*
X36421945Y-13688335D01*
X36421950Y-13688342D01*
X36485148Y-13751540D01*
X36499500Y-13786188D01*
X36499500Y-14760374D01*
X36499500Y-14860030D01*
X36537636Y-14952099D01*
X36537637Y-14952100D01*
X36537637Y-14952101D01*
X37285148Y-15699610D01*
X37299500Y-15734258D01*
X37299500Y-19766281D01*
X37285148Y-19800929D01*
X37250500Y-19815281D01*
X37215853Y-19800930D01*
X37199944Y-19785022D01*
X37199939Y-19785018D01*
X36319078Y-18904157D01*
X36319078Y-18904156D01*
X36248754Y-18833831D01*
X36248752Y-18833830D01*
X36220829Y-18822264D01*
X36165872Y-18799499D01*
X36165871Y-18799499D01*
X36076161Y-18799499D01*
X36070460Y-18799499D01*
X36070452Y-18799500D01*
X32548102Y-18799500D01*
X32458393Y-18799500D01*
X32458391Y-18799500D01*
X32458389Y-18799501D01*
X32375511Y-18833830D01*
X32375509Y-18833831D01*
X31335225Y-19874117D01*
X31335222Y-19874118D01*
X31335223Y-19874119D01*
X31324191Y-19885150D01*
X31289544Y-19899500D01*
X31171662Y-19899500D01*
X31099893Y-19909956D01*
X31099889Y-19909957D01*
X31063350Y-19927820D01*
X31025919Y-19930144D01*
X30997809Y-19905319D01*
X30993433Y-19876136D01*
X31005492Y-19800000D01*
X30985646Y-19674696D01*
X30985644Y-19674692D01*
X30985644Y-19674690D01*
X30928054Y-19561664D01*
X30928049Y-19561657D01*
X30838342Y-19471950D01*
X30838335Y-19471945D01*
X30725308Y-19414355D01*
X30725305Y-19414354D01*
X30725304Y-19414354D01*
X30600000Y-19394508D01*
X30474696Y-19414354D01*
X30474694Y-19414354D01*
X30474692Y-19414355D01*
X30474690Y-19414355D01*
X30361664Y-19471945D01*
X30361657Y-19471950D01*
X30271950Y-19561657D01*
X30271945Y-19561664D01*
X30214355Y-19674690D01*
X30214355Y-19674692D01*
X30214354Y-19674694D01*
X30214354Y-19674696D01*
X30194508Y-19800000D01*
X30210823Y-19903013D01*
X30211214Y-19905478D01*
X30202459Y-19941945D01*
X30170482Y-19961540D01*
X30141296Y-19957164D01*
X30044734Y-19909958D01*
X30044732Y-19909957D01*
X29972960Y-19899500D01*
X29390367Y-19899500D01*
X29318598Y-19909956D01*
X29289754Y-19924056D01*
X29252323Y-19926378D01*
X29233587Y-19914682D01*
X29211307Y-19892402D01*
X29196955Y-19857754D01*
X29197557Y-19850097D01*
X29205492Y-19800000D01*
X29185646Y-19674696D01*
X29185644Y-19674692D01*
X29185644Y-19674690D01*
X29128054Y-19561664D01*
X29128049Y-19561657D01*
X29038342Y-19471950D01*
X29038335Y-19471945D01*
X28925308Y-19414355D01*
X28925305Y-19414354D01*
X28925304Y-19414354D01*
X28800000Y-19394508D01*
X28674696Y-19414354D01*
X28674694Y-19414354D01*
X28674692Y-19414355D01*
X28674690Y-19414355D01*
X28561664Y-19471945D01*
X28561657Y-19471950D01*
X28471950Y-19561657D01*
X28471945Y-19561664D01*
X28414355Y-19674690D01*
X28414355Y-19674692D01*
X28414354Y-19674694D01*
X28414354Y-19674696D01*
X28397809Y-19779156D01*
X28394508Y-19800000D01*
X28409644Y-19895567D01*
X28400889Y-19932034D01*
X28368912Y-19951629D01*
X28339726Y-19947253D01*
X28263438Y-19909958D01*
X28263436Y-19909957D01*
X28191665Y-19899500D01*
X28191663Y-19899500D01*
X27647104Y-19899500D01*
X27612456Y-19885148D01*
X27598104Y-19850500D01*
X27598706Y-19842842D01*
X27605492Y-19800000D01*
X27585646Y-19674696D01*
X27585644Y-19674692D01*
X27585644Y-19674690D01*
X27528054Y-19561664D01*
X27528049Y-19561657D01*
X27438342Y-19471950D01*
X27438335Y-19471945D01*
X27325308Y-19414355D01*
X27325305Y-19414354D01*
X27325304Y-19414354D01*
X27200000Y-19394508D01*
X27074696Y-19414354D01*
X27074694Y-19414354D01*
X27074692Y-19414355D01*
X27074690Y-19414355D01*
X26961664Y-19471945D01*
X26961657Y-19471950D01*
X26871950Y-19561657D01*
X26871945Y-19561664D01*
X26814355Y-19674690D01*
X26814355Y-19674692D01*
X26814354Y-19674694D01*
X26814354Y-19674696D01*
X26794508Y-19800000D01*
X26025500Y-19800000D01*
X26025500Y-19537964D01*
X26039851Y-19503317D01*
X26270843Y-19272324D01*
X26270846Y-19272323D01*
X26277735Y-19265434D01*
X26277736Y-19265434D01*
X26341170Y-19202000D01*
X26361576Y-19152735D01*
X26375501Y-19119118D01*
X26375501Y-19029409D01*
X26375501Y-19025466D01*
X26375500Y-19025452D01*
X26375500Y-17872834D01*
X26389852Y-17838186D01*
X26441170Y-17786869D01*
X26443898Y-17780280D01*
X26454518Y-17764385D01*
X26570843Y-17648061D01*
X26570846Y-17648059D01*
X26577735Y-17641170D01*
X26577736Y-17641170D01*
X26641170Y-17577736D01*
X26667096Y-17515145D01*
X26675501Y-17494854D01*
X26675501Y-17494849D01*
X26675702Y-17493842D01*
X26676276Y-17492982D01*
X26677348Y-17490395D01*
X26677862Y-17490608D01*
X26696536Y-17462659D01*
X26718504Y-17447982D01*
X26718506Y-17447977D01*
X26718508Y-17447977D01*
X26750564Y-17400000D01*
X26751767Y-17398200D01*
X26760500Y-17354298D01*
X26760500Y-16824658D01*
X26751767Y-16780756D01*
X26747919Y-16774997D01*
X26718504Y-16730973D01*
X26668721Y-16697710D01*
X26624823Y-16688978D01*
X26624820Y-16688978D01*
X26275180Y-16688978D01*
X26275176Y-16688978D01*
X26231278Y-16697710D01*
X26227220Y-16700422D01*
X26190437Y-16707736D01*
X26172780Y-16700422D01*
X26170499Y-16698898D01*
X26168722Y-16697711D01*
X26168721Y-16697710D01*
X26124823Y-16688978D01*
X26124820Y-16688978D01*
X25775180Y-16688978D01*
X25775176Y-16688978D01*
X25731278Y-16697710D01*
X25727220Y-16700422D01*
X25690437Y-16707736D01*
X25672780Y-16700422D01*
X25670499Y-16698898D01*
X25668722Y-16697711D01*
X25668721Y-16697710D01*
X25624823Y-16688978D01*
X25624820Y-16688978D01*
X25275180Y-16688978D01*
X25275176Y-16688978D01*
X25231278Y-16697710D01*
X25227220Y-16700422D01*
X25190437Y-16707736D01*
X25172780Y-16700422D01*
X25170499Y-16698898D01*
X25168722Y-16697711D01*
X25168721Y-16697710D01*
X25124823Y-16688978D01*
X25124820Y-16688978D01*
X24775180Y-16688978D01*
X24775176Y-16688978D01*
X24731278Y-16697710D01*
X24681495Y-16730973D01*
X24648232Y-16780756D01*
X24639500Y-16824654D01*
X24639500Y-17354301D01*
X24648232Y-17398199D01*
X24681494Y-17447980D01*
X24681495Y-17447980D01*
X24681496Y-17447982D01*
X24702722Y-17462165D01*
X24723558Y-17493346D01*
X24724500Y-17502907D01*
X24724500Y-17511188D01*
X24724499Y-17511202D01*
X24724499Y-17515145D01*
X24724499Y-17604855D01*
X24745331Y-17655146D01*
X24758830Y-17687736D01*
X24758831Y-17687737D01*
X24758831Y-17687738D01*
X24829155Y-17758061D01*
X24829157Y-17758062D01*
X25010148Y-17939053D01*
X25024500Y-17973701D01*
X25024500Y-18587770D01*
X25010148Y-18622418D01*
X24872419Y-18760148D01*
X24837771Y-18774500D01*
X21778812Y-18774500D01*
X21778804Y-18774499D01*
X21773103Y-18774499D01*
X21683393Y-18774499D01*
X21683391Y-18774499D01*
X21683388Y-18774500D01*
X21624787Y-18798773D01*
X21624787Y-18798774D01*
X21612649Y-18803802D01*
X21600511Y-18808830D01*
X20647448Y-19761894D01*
X20584015Y-19825325D01*
X20584014Y-19825328D01*
X20580673Y-19833394D01*
X20573758Y-19850088D01*
X20565819Y-19869253D01*
X20539299Y-19895771D01*
X20520550Y-19899500D01*
X20483887Y-19899500D01*
X20412117Y-19909956D01*
X20412116Y-19909956D01*
X20301406Y-19964080D01*
X20301402Y-19964082D01*
X20214266Y-20051218D01*
X20214264Y-20051222D01*
X20160142Y-20161929D01*
X20160141Y-20161931D01*
X20149684Y-20233703D01*
X19925500Y-20233703D01*
X19925500Y-20161188D01*
X19939852Y-20126540D01*
X19979166Y-20087226D01*
X20028050Y-20038342D01*
X20029818Y-20034873D01*
X20085644Y-19925309D01*
X20085644Y-19925307D01*
X20085646Y-19925304D01*
X20105492Y-19800000D01*
X20085646Y-19674696D01*
X20085644Y-19674692D01*
X20085644Y-19674690D01*
X20028054Y-19561664D01*
X20028049Y-19561657D01*
X19938342Y-19471950D01*
X19938335Y-19471945D01*
X19825308Y-19414355D01*
X19825305Y-19414354D01*
X19825304Y-19414354D01*
X19700000Y-19394508D01*
X19574696Y-19414354D01*
X19574694Y-19414354D01*
X19574692Y-19414355D01*
X19574690Y-19414355D01*
X19461664Y-19471945D01*
X19461657Y-19471950D01*
X19371950Y-19561657D01*
X19371945Y-19561664D01*
X19314355Y-19674690D01*
X19314355Y-19674692D01*
X19314354Y-19674694D01*
X19314354Y-19674696D01*
X19297809Y-19779156D01*
X19294508Y-19800000D01*
X19301292Y-19842835D01*
X19292536Y-19879302D01*
X19260560Y-19898897D01*
X19252895Y-19899500D01*
X18837700Y-19899500D01*
X18803052Y-19885148D01*
X18788700Y-19850500D01*
X18803052Y-19815852D01*
X18957862Y-19661042D01*
X19120843Y-19498061D01*
X19120846Y-19498059D01*
X19127735Y-19491170D01*
X19127736Y-19491170D01*
X19191170Y-19427736D01*
X19206316Y-19391170D01*
X19225501Y-19344854D01*
X19225501Y-19255145D01*
X19225501Y-19251202D01*
X19225500Y-19251188D01*
X19225500Y-17169706D01*
X19239852Y-17135058D01*
X19274500Y-17120706D01*
X19309148Y-17135058D01*
X19317710Y-17146603D01*
X19324090Y-17158538D01*
X19324092Y-17158541D01*
X19324094Y-17158544D01*
X19372959Y-17218085D01*
X19449117Y-17310883D01*
X19502022Y-17354301D01*
X19601455Y-17435905D01*
X19601458Y-17435907D01*
X19601462Y-17435910D01*
X19775273Y-17528814D01*
X19963868Y-17586024D01*
X20160000Y-17605341D01*
X20356132Y-17586024D01*
X20544727Y-17528814D01*
X20718538Y-17435910D01*
X20870883Y-17310883D01*
X20995910Y-17158538D01*
X21088814Y-16984727D01*
X21146024Y-16796132D01*
X21165341Y-16600000D01*
X21165341Y-16599999D01*
X21694659Y-16599999D01*
X21694659Y-16600000D01*
X21713976Y-16796132D01*
X21713976Y-16796133D01*
X21771185Y-16984726D01*
X21813609Y-17064094D01*
X21864089Y-17158537D01*
X21864092Y-17158541D01*
X21864094Y-17158544D01*
X21912959Y-17218085D01*
X21989117Y-17310883D01*
X22042022Y-17354301D01*
X22141455Y-17435905D01*
X22141458Y-17435907D01*
X22141462Y-17435910D01*
X22315273Y-17528814D01*
X22503868Y-17586024D01*
X22700000Y-17605341D01*
X22896132Y-17586024D01*
X23084727Y-17528814D01*
X23258538Y-17435910D01*
X23410883Y-17310883D01*
X23535910Y-17158538D01*
X23628814Y-16984727D01*
X23686024Y-16796132D01*
X23705341Y-16600000D01*
X23686024Y-16403868D01*
X23628814Y-16215273D01*
X23535910Y-16041462D01*
X23535907Y-16041458D01*
X23535905Y-16041455D01*
X23462623Y-15952162D01*
X23410883Y-15889117D01*
X23332335Y-15824654D01*
X24639500Y-15824654D01*
X24639500Y-16354301D01*
X24648232Y-16398199D01*
X24681495Y-16447982D01*
X24727225Y-16478537D01*
X24731278Y-16481245D01*
X24775180Y-16489978D01*
X25124820Y-16489978D01*
X25168722Y-16481245D01*
X25172774Y-16478536D01*
X25209556Y-16471218D01*
X25227224Y-16478536D01*
X25231278Y-16481245D01*
X25275180Y-16489978D01*
X25624820Y-16489978D01*
X25668722Y-16481245D01*
X25672774Y-16478536D01*
X25709556Y-16471218D01*
X25727224Y-16478536D01*
X25731278Y-16481245D01*
X25775180Y-16489978D01*
X26124820Y-16489978D01*
X26168722Y-16481245D01*
X26172774Y-16478536D01*
X26209556Y-16471218D01*
X26227224Y-16478536D01*
X26231278Y-16481245D01*
X26275180Y-16489978D01*
X26624820Y-16489978D01*
X26668722Y-16481245D01*
X26718504Y-16447982D01*
X26718506Y-16447978D01*
X26721094Y-16445391D01*
X26755740Y-16431033D01*
X26777994Y-16436374D01*
X26800782Y-16447985D01*
X26874696Y-16485646D01*
X27000000Y-16505492D01*
X27125304Y-16485646D01*
X27125308Y-16485644D01*
X27125309Y-16485644D01*
X27238335Y-16428054D01*
X27238337Y-16428052D01*
X27238342Y-16428050D01*
X27328050Y-16338342D01*
X27328054Y-16338335D01*
X27385644Y-16225309D01*
X27385644Y-16225307D01*
X27385646Y-16225304D01*
X27405492Y-16100000D01*
X27385646Y-15974696D01*
X27385644Y-15974692D01*
X27385644Y-15974690D01*
X27328054Y-15861664D01*
X27328049Y-15861657D01*
X27238342Y-15771950D01*
X27238335Y-15771945D01*
X27125308Y-15714355D01*
X27125305Y-15714354D01*
X27125304Y-15714354D01*
X27000000Y-15694508D01*
X26874694Y-15714354D01*
X26788685Y-15758178D01*
X26751298Y-15761120D01*
X26725698Y-15741740D01*
X26718504Y-15730974D01*
X26718502Y-15730973D01*
X26718502Y-15730972D01*
X26668721Y-15697710D01*
X26624823Y-15688978D01*
X26624820Y-15688978D01*
X26275180Y-15688978D01*
X26275176Y-15688978D01*
X26231278Y-15697710D01*
X26227220Y-15700422D01*
X26190437Y-15707736D01*
X26172780Y-15700422D01*
X26170499Y-15698898D01*
X26168722Y-15697711D01*
X26168721Y-15697710D01*
X26124823Y-15688978D01*
X26124820Y-15688978D01*
X25775180Y-15688978D01*
X25775176Y-15688978D01*
X25731278Y-15697710D01*
X25727220Y-15700422D01*
X25690437Y-15707736D01*
X25672780Y-15700422D01*
X25670499Y-15698898D01*
X25668722Y-15697711D01*
X25668721Y-15697710D01*
X25624823Y-15688978D01*
X25624820Y-15688978D01*
X25275180Y-15688978D01*
X25275176Y-15688978D01*
X25231278Y-15697710D01*
X25227220Y-15700422D01*
X25190437Y-15707736D01*
X25172780Y-15700422D01*
X25170499Y-15698898D01*
X25168722Y-15697711D01*
X25168721Y-15697710D01*
X25124823Y-15688978D01*
X25124820Y-15688978D01*
X24775180Y-15688978D01*
X24775176Y-15688978D01*
X24731278Y-15697710D01*
X24681495Y-15730973D01*
X24648232Y-15780756D01*
X24639500Y-15824654D01*
X23332335Y-15824654D01*
X23307662Y-15804405D01*
X23258544Y-15764094D01*
X23258541Y-15764092D01*
X23258539Y-15764091D01*
X23258538Y-15764090D01*
X23173451Y-15718610D01*
X23084726Y-15671185D01*
X22896132Y-15613976D01*
X22700000Y-15594659D01*
X22503867Y-15613976D01*
X22503866Y-15613976D01*
X22315273Y-15671185D01*
X22141458Y-15764092D01*
X22141455Y-15764094D01*
X21989117Y-15889117D01*
X21864094Y-16041455D01*
X21864092Y-16041458D01*
X21771185Y-16215273D01*
X21713976Y-16403866D01*
X21713976Y-16403867D01*
X21694659Y-16599999D01*
X21165341Y-16599999D01*
X21146024Y-16403868D01*
X21088814Y-16215273D01*
X20995910Y-16041462D01*
X20995907Y-16041458D01*
X20995905Y-16041455D01*
X20922623Y-15952162D01*
X20870883Y-15889117D01*
X20767662Y-15804405D01*
X20718544Y-15764094D01*
X20718541Y-15764092D01*
X20718539Y-15764091D01*
X20718538Y-15764090D01*
X20633451Y-15718610D01*
X20544726Y-15671185D01*
X20356132Y-15613976D01*
X20160000Y-15594659D01*
X19963867Y-15613976D01*
X19963866Y-15613976D01*
X19775273Y-15671185D01*
X19601458Y-15764092D01*
X19601455Y-15764094D01*
X19449117Y-15889117D01*
X19324094Y-16041455D01*
X19324089Y-16041462D01*
X19317713Y-16053392D01*
X19288722Y-16077183D01*
X19251400Y-16073505D01*
X19227609Y-16044514D01*
X19225500Y-16030292D01*
X19225500Y-15078812D01*
X19225501Y-15078803D01*
X19225501Y-14983396D01*
X19225500Y-14983392D01*
X19206839Y-14938342D01*
X19191170Y-14900513D01*
X19191170Y-14900512D01*
X19127736Y-14837078D01*
X19124946Y-14834288D01*
X19124939Y-14834282D01*
X17939852Y-13649195D01*
X17925500Y-13614547D01*
X17925500Y-12010188D01*
X17939852Y-11975540D01*
X17974500Y-11961188D01*
X18009148Y-11975540D01*
X18061657Y-12028049D01*
X18061664Y-12028054D01*
X18126938Y-12061312D01*
X18174696Y-12085646D01*
X18174694Y-12085646D01*
X18188393Y-12087815D01*
X18208165Y-12090946D01*
X18240141Y-12110540D01*
X18249500Y-12139343D01*
X18249500Y-13049829D01*
X18260150Y-13075540D01*
X18287636Y-13141897D01*
X18287637Y-13141898D01*
X18287637Y-13141899D01*
X20387636Y-15241897D01*
X20458100Y-15312362D01*
X20458101Y-15312362D01*
X20458103Y-15312364D01*
X20550172Y-15350500D01*
X27075943Y-15350500D01*
X27110591Y-15364852D01*
X27685148Y-15939409D01*
X27699500Y-15974057D01*
X27699500Y-17464823D01*
X27708232Y-17508721D01*
X27741495Y-17558504D01*
X27770279Y-17577736D01*
X27791278Y-17591767D01*
X27835180Y-17600500D01*
X29564820Y-17600500D01*
X29608722Y-17591767D01*
X29658504Y-17558504D01*
X29691767Y-17508722D01*
X29700500Y-17464820D01*
X29700500Y-15735180D01*
X29691767Y-15691278D01*
X29678342Y-15671186D01*
X29658504Y-15641495D01*
X29608721Y-15608232D01*
X29564823Y-15599500D01*
X29564820Y-15599500D01*
X28074057Y-15599500D01*
X28039409Y-15585148D01*
X27341899Y-14887637D01*
X27249829Y-14849500D01*
X27249828Y-14849500D01*
X20724057Y-14849500D01*
X20689409Y-14835148D01*
X18764852Y-12910591D01*
X18750500Y-12875943D01*
X18750500Y-11955537D01*
X18750501Y-11955528D01*
X18750501Y-11850175D01*
X18750500Y-11850171D01*
X18739494Y-11823600D01*
X18715504Y-11765684D01*
X18708634Y-11749098D01*
X18710522Y-11748315D01*
X18701789Y-11727232D01*
X18702393Y-11719565D01*
X18705492Y-11700002D01*
X18705492Y-11700001D01*
X18703524Y-11687577D01*
X18685646Y-11574696D01*
X18685644Y-11574692D01*
X18685644Y-11574690D01*
X18628054Y-11461664D01*
X18628049Y-11461657D01*
X18538342Y-11371950D01*
X18538335Y-11371945D01*
X18425308Y-11314355D01*
X18425305Y-11314354D01*
X18425304Y-11314354D01*
X18300000Y-11294508D01*
X18174696Y-11314354D01*
X18174694Y-11314354D01*
X18174692Y-11314355D01*
X18174690Y-11314355D01*
X18061664Y-11371945D01*
X18061657Y-11371950D01*
X17971950Y-11461657D01*
X17971945Y-11461664D01*
X17914355Y-11574690D01*
X17914355Y-11574692D01*
X17914354Y-11574694D01*
X17914354Y-11574696D01*
X17896476Y-11687577D01*
X17894508Y-11700001D01*
X17894508Y-11703856D01*
X17892930Y-11703856D01*
X17885494Y-11734830D01*
X17853517Y-11754425D01*
X17817050Y-11745670D01*
X17811204Y-11740676D01*
X17524685Y-11454157D01*
X17524685Y-11454156D01*
X17454361Y-11383831D01*
X17430248Y-11373843D01*
X17403730Y-11347324D01*
X17400000Y-11328573D01*
X17400000Y-11120180D01*
X17399999Y-11120176D01*
X17391267Y-11076278D01*
X17391264Y-11076274D01*
X17389420Y-11071819D01*
X17390717Y-11071281D01*
X17384580Y-11040448D01*
X17389625Y-11028266D01*
X17389420Y-11028181D01*
X17391263Y-11023726D01*
X17391267Y-11023722D01*
X17400000Y-10979820D01*
X17400000Y-10824500D01*
X17414352Y-10789852D01*
X17449000Y-10775500D01*
X18946851Y-10775500D01*
X18981499Y-10789852D01*
X18995851Y-10824500D01*
X18981499Y-10859148D01*
X18969096Y-10868159D01*
X18961664Y-10871945D01*
X18961657Y-10871950D01*
X18871950Y-10961657D01*
X18871945Y-10961664D01*
X18814355Y-11074690D01*
X18814355Y-11074692D01*
X18814354Y-11074694D01*
X18814354Y-11074696D01*
X18794508Y-11200000D01*
X18814354Y-11325304D01*
X18814354Y-11325305D01*
X18814355Y-11325307D01*
X18814355Y-11325309D01*
X18871945Y-11438335D01*
X18871950Y-11438342D01*
X18960148Y-11526540D01*
X18974500Y-11561188D01*
X18974500Y-12647943D01*
X18974499Y-12647957D01*
X18974499Y-12741611D01*
X18993564Y-12787636D01*
X19008830Y-12824492D01*
X19008831Y-12824493D01*
X19079155Y-12894816D01*
X19079157Y-12894817D01*
X20084279Y-13899939D01*
X20084282Y-13899943D01*
X20150505Y-13966167D01*
X20150507Y-13966168D01*
X20150509Y-13966170D01*
X20161635Y-13970778D01*
X20161638Y-13970781D01*
X20161639Y-13970780D01*
X20233391Y-14000501D01*
X20233393Y-14000501D01*
X20328801Y-14000501D01*
X20328809Y-14000500D01*
X30641299Y-14000500D01*
X30675947Y-14014852D01*
X32836279Y-16175185D01*
X32850631Y-16209833D01*
X32848521Y-16224057D01*
X32793976Y-16403866D01*
X32793976Y-16403867D01*
X32774659Y-16599999D01*
X32774659Y-16600000D01*
X32793976Y-16796132D01*
X32793976Y-16796133D01*
X32851185Y-16984726D01*
X32893609Y-17064094D01*
X32944089Y-17158537D01*
X32944092Y-17158541D01*
X32944094Y-17158544D01*
X32992959Y-17218085D01*
X33069117Y-17310883D01*
X33122022Y-17354301D01*
X33221455Y-17435905D01*
X33221458Y-17435907D01*
X33221462Y-17435910D01*
X33395273Y-17528814D01*
X33583868Y-17586024D01*
X33780000Y-17605341D01*
X33976132Y-17586024D01*
X34164727Y-17528814D01*
X34338538Y-17435910D01*
X34490883Y-17310883D01*
X34615910Y-17158538D01*
X34708814Y-16984727D01*
X34766024Y-16796132D01*
X34785341Y-16600000D01*
X34766024Y-16403868D01*
X34708814Y-16215273D01*
X34615910Y-16041462D01*
X34615907Y-16041458D01*
X34615905Y-16041455D01*
X34542623Y-15952162D01*
X34490883Y-15889117D01*
X34387662Y-15804405D01*
X34338544Y-15764094D01*
X34338541Y-15764092D01*
X34338539Y-15764091D01*
X34338538Y-15764090D01*
X34253451Y-15718610D01*
X34164726Y-15671185D01*
X33976132Y-15613976D01*
X33780000Y-15594659D01*
X33583867Y-15613976D01*
X33583866Y-15613976D01*
X33395273Y-15671185D01*
X33221460Y-15764091D01*
X33168754Y-15807345D01*
X33132865Y-15818231D01*
X33103021Y-15804115D01*
X30953062Y-13654157D01*
X30953062Y-13654156D01*
X30882738Y-13583831D01*
X30882736Y-13583830D01*
X30850610Y-13570523D01*
X30799856Y-13549499D01*
X30799855Y-13549499D01*
X30710145Y-13549499D01*
X30704444Y-13549499D01*
X30704436Y-13549500D01*
X20391946Y-13549500D01*
X20357298Y-13535148D01*
X19439852Y-12617702D01*
X19425500Y-12583054D01*
X19425500Y-11561188D01*
X19439852Y-11526540D01*
X19483342Y-11483050D01*
X19528050Y-11438342D01*
X19530237Y-11434050D01*
X19585644Y-11325309D01*
X19585644Y-11325307D01*
X19585646Y-11325304D01*
X19605492Y-11200000D01*
X19585646Y-11074696D01*
X19585644Y-11074692D01*
X19585644Y-11074690D01*
X19528054Y-10961664D01*
X19528049Y-10961657D01*
X19438342Y-10871950D01*
X19438335Y-10871945D01*
X19430904Y-10868159D01*
X19406547Y-10839642D01*
X19409490Y-10802255D01*
X19438007Y-10777898D01*
X19453149Y-10775500D01*
X26431933Y-10775500D01*
X26431935Y-10775500D01*
X26524004Y-10737364D01*
X29735004Y-7526361D01*
X29735007Y-7526360D01*
X29741896Y-7519471D01*
X29741897Y-7519471D01*
X29812364Y-7449004D01*
X29850500Y-7356935D01*
X29850500Y-5324057D01*
X29864852Y-5289409D01*
X30639409Y-4514852D01*
X30674057Y-4500500D01*
X32164820Y-4500500D01*
X32208722Y-4491767D01*
X32258504Y-4458504D01*
X32291767Y-4408722D01*
X32300500Y-4364820D01*
X32300500Y-2635180D01*
X32300499Y-2635176D01*
X37824500Y-2635176D01*
X37824500Y-4364823D01*
X37833232Y-4408721D01*
X37866495Y-4458504D01*
X37907681Y-4486023D01*
X37916278Y-4491767D01*
X37960180Y-4500500D01*
X39689820Y-4500500D01*
X39733722Y-4491767D01*
X39783504Y-4458504D01*
X39816767Y-4408722D01*
X39825500Y-4364820D01*
X39825500Y-3499999D01*
X40359659Y-3499999D01*
X40359659Y-3500000D01*
X40378976Y-3696132D01*
X40378976Y-3696133D01*
X40436185Y-3884726D01*
X40529092Y-4058541D01*
X40529094Y-4058544D01*
X40584408Y-4125943D01*
X40654117Y-4210883D01*
X40699030Y-4247742D01*
X40806455Y-4335905D01*
X40806458Y-4335907D01*
X40806462Y-4335910D01*
X40980273Y-4428814D01*
X41168868Y-4486024D01*
X41365000Y-4505341D01*
X41561132Y-4486024D01*
X41749727Y-4428814D01*
X41923538Y-4335910D01*
X42075883Y-4210883D01*
X42200910Y-4058538D01*
X42293814Y-3884727D01*
X42351024Y-3696132D01*
X42370341Y-3500000D01*
X42351024Y-3303868D01*
X42293814Y-3115273D01*
X42232198Y-2999998D01*
X45094645Y-2999998D01*
X45094645Y-3000001D01*
X45114038Y-3271153D01*
X45114040Y-3271168D01*
X45165705Y-3508668D01*
X45171825Y-3536801D01*
X45231253Y-3696132D01*
X45266830Y-3791518D01*
X45397109Y-4030108D01*
X45397112Y-4030112D01*
X45560026Y-4247740D01*
X45752259Y-4439973D01*
X45969887Y-4602887D01*
X45969891Y-4602890D01*
X46208481Y-4733169D01*
X46208482Y-4733169D01*
X46208487Y-4733172D01*
X46463199Y-4828175D01*
X46728840Y-4885961D01*
X46932210Y-4900506D01*
X46999998Y-4905355D01*
X47000000Y-4905355D01*
X47000002Y-4905355D01*
X47060257Y-4901045D01*
X47271160Y-4885961D01*
X47536801Y-4828175D01*
X47791513Y-4733172D01*
X48030113Y-4602887D01*
X48222985Y-4458504D01*
X48247740Y-4439973D01*
X48439973Y-4247740D01*
X48554455Y-4094810D01*
X48602887Y-4030113D01*
X48733172Y-3791513D01*
X48828175Y-3536801D01*
X48885961Y-3271160D01*
X48905355Y-3000000D01*
X48885961Y-2728840D01*
X48828175Y-2463199D01*
X48733172Y-2208487D01*
X48695172Y-2138895D01*
X48602890Y-1969891D01*
X48602887Y-1969887D01*
X48439973Y-1752259D01*
X48247740Y-1560026D01*
X48030112Y-1397112D01*
X48030108Y-1397109D01*
X47791518Y-1266830D01*
X47791513Y-1266828D01*
X47536801Y-1171825D01*
X47482635Y-1160042D01*
X47271168Y-1114040D01*
X47271153Y-1114038D01*
X47000002Y-1094645D01*
X46999998Y-1094645D01*
X46728846Y-1114038D01*
X46728831Y-1114040D01*
X46463203Y-1171824D01*
X46463202Y-1171824D01*
X46463199Y-1171825D01*
X46291510Y-1235861D01*
X46208481Y-1266830D01*
X45969891Y-1397109D01*
X45969887Y-1397112D01*
X45752259Y-1560026D01*
X45560026Y-1752259D01*
X45397112Y-1969887D01*
X45397109Y-1969891D01*
X45266830Y-2208481D01*
X45266828Y-2208487D01*
X45187495Y-2421188D01*
X45171824Y-2463203D01*
X45114040Y-2728831D01*
X45114038Y-2728846D01*
X45094645Y-2999998D01*
X42232198Y-2999998D01*
X42200910Y-2941462D01*
X42200907Y-2941458D01*
X42200905Y-2941455D01*
X42147537Y-2876427D01*
X42075883Y-2789117D01*
X42002425Y-2728831D01*
X41923544Y-2664094D01*
X41923541Y-2664092D01*
X41923539Y-2664091D01*
X41923538Y-2664090D01*
X41808901Y-2602815D01*
X41749726Y-2571185D01*
X41561132Y-2513976D01*
X41365000Y-2494659D01*
X41168867Y-2513976D01*
X41168866Y-2513976D01*
X40980273Y-2571185D01*
X40806458Y-2664092D01*
X40806455Y-2664094D01*
X40654117Y-2789117D01*
X40529094Y-2941455D01*
X40529092Y-2941458D01*
X40436185Y-3115273D01*
X40378976Y-3303866D01*
X40378976Y-3303867D01*
X40359659Y-3499999D01*
X39825500Y-3499999D01*
X39825500Y-2635180D01*
X39816767Y-2591278D01*
X39803342Y-2571186D01*
X39783504Y-2541495D01*
X39733721Y-2508232D01*
X39689823Y-2499500D01*
X39689820Y-2499500D01*
X37960180Y-2499500D01*
X37960176Y-2499500D01*
X37916278Y-2508232D01*
X37866495Y-2541495D01*
X37833232Y-2591278D01*
X37824500Y-2635176D01*
X32300499Y-2635176D01*
X32291767Y-2591278D01*
X32278342Y-2571186D01*
X32258504Y-2541495D01*
X32208721Y-2508232D01*
X32164823Y-2499500D01*
X32164820Y-2499500D01*
X30435180Y-2499500D01*
X30435176Y-2499500D01*
X30391278Y-2508232D01*
X30341495Y-2541495D01*
X30308232Y-2591278D01*
X30299500Y-2635176D01*
X30299500Y-4125943D01*
X30285148Y-4160591D01*
X29458103Y-4987636D01*
X29387637Y-5058100D01*
X29387637Y-5058101D01*
X29349500Y-5150170D01*
X29349500Y-7183050D01*
X29335148Y-7217698D01*
X26292698Y-10260148D01*
X26258050Y-10274500D01*
X17449000Y-10274500D01*
X17414352Y-10260148D01*
X17400000Y-10225500D01*
X17400000Y-10124500D01*
X17414352Y-10089852D01*
X17449000Y-10075500D01*
X20248048Y-10075500D01*
X20248050Y-10075500D01*
X20340119Y-10037364D01*
X20912631Y-9464852D01*
X20947279Y-9450500D01*
X25160656Y-9450500D01*
X25195304Y-9464852D01*
X25209052Y-9491833D01*
X25214354Y-9525304D01*
X25214354Y-9525305D01*
X25214355Y-9525307D01*
X25214355Y-9525309D01*
X25271945Y-9638335D01*
X25271950Y-9638342D01*
X25361657Y-9728049D01*
X25361664Y-9728054D01*
X25474691Y-9785644D01*
X25474692Y-9785644D01*
X25474696Y-9785646D01*
X25600000Y-9805492D01*
X25725304Y-9785646D01*
X25725308Y-9785644D01*
X25725309Y-9785644D01*
X25838335Y-9728054D01*
X25838337Y-9728052D01*
X25838342Y-9728050D01*
X25865352Y-9701040D01*
X25900000Y-9686688D01*
X25934648Y-9701040D01*
X25961657Y-9728049D01*
X25961664Y-9728054D01*
X26074691Y-9785644D01*
X26074692Y-9785644D01*
X26074696Y-9785646D01*
X26200000Y-9805492D01*
X26325304Y-9785646D01*
X26325308Y-9785644D01*
X26325309Y-9785644D01*
X26438335Y-9728054D01*
X26438337Y-9728052D01*
X26438342Y-9728050D01*
X26528050Y-9638342D01*
X26528054Y-9638335D01*
X26585644Y-9525309D01*
X26585644Y-9525307D01*
X26585646Y-9525304D01*
X26605492Y-9400000D01*
X26585646Y-9274696D01*
X26585644Y-9274692D01*
X26585644Y-9274690D01*
X26528054Y-9161664D01*
X26528049Y-9161657D01*
X26438345Y-9071953D01*
X26438342Y-9071950D01*
X26438340Y-9071949D01*
X26438339Y-9071948D01*
X26392139Y-9048408D01*
X26367783Y-9019890D01*
X26370726Y-8982503D01*
X26379736Y-8970101D01*
X26394711Y-8955128D01*
X26452307Y-8842090D01*
X26472153Y-8716786D01*
X26452307Y-8591482D01*
X26452305Y-8591478D01*
X26452305Y-8591476D01*
X26394715Y-8478450D01*
X26394710Y-8478443D01*
X26305003Y-8388736D01*
X26304996Y-8388731D01*
X26191969Y-8331141D01*
X26191966Y-8331140D01*
X26191965Y-8331140D01*
X26066661Y-8311294D01*
X25941357Y-8331140D01*
X25941355Y-8331140D01*
X25941353Y-8331141D01*
X25941351Y-8331141D01*
X25828325Y-8388731D01*
X25828319Y-8388735D01*
X25826368Y-8390687D01*
X25791718Y-8405035D01*
X25757075Y-8390683D01*
X25738342Y-8371950D01*
X25738335Y-8371945D01*
X25625308Y-8314355D01*
X25625305Y-8314354D01*
X25625304Y-8314354D01*
X25500000Y-8294508D01*
X25374696Y-8314354D01*
X25374694Y-8314354D01*
X25374692Y-8314355D01*
X25374690Y-8314355D01*
X25261664Y-8371945D01*
X25261657Y-8371950D01*
X25171950Y-8461657D01*
X25171946Y-8461662D01*
X25115347Y-8572746D01*
X25086830Y-8597102D01*
X25071688Y-8599500D01*
X20628418Y-8599500D01*
X20536349Y-8637637D01*
X20536348Y-8637637D01*
X19963839Y-9210148D01*
X19929191Y-9224500D01*
X17449000Y-9224500D01*
X17414352Y-9210148D01*
X17400000Y-9175500D01*
X17400000Y-9020180D01*
X17399999Y-9020176D01*
X17399524Y-9017790D01*
X17391267Y-8976278D01*
X17377135Y-8955128D01*
X17358004Y-8926495D01*
X17308221Y-8893232D01*
X17264323Y-8884500D01*
X17264320Y-8884500D01*
X17090717Y-8884500D01*
X17071965Y-8880770D01*
X17056829Y-8874500D01*
X17056828Y-8874500D01*
X16957172Y-8874500D01*
X16957170Y-8874500D01*
X16942035Y-8880770D01*
X16923283Y-8884500D01*
X16749676Y-8884500D01*
X16705778Y-8893232D01*
X16655995Y-8926495D01*
X16622732Y-8976278D01*
X16614000Y-9020176D01*
X16614000Y-9229823D01*
X16622732Y-9273721D01*
X16624579Y-9278179D01*
X16623284Y-9278715D01*
X16629415Y-9309570D01*
X16624375Y-9321736D01*
X16624579Y-9321821D01*
X16622732Y-9326278D01*
X16614000Y-9370176D01*
X16614000Y-9579823D01*
X16622732Y-9623721D01*
X16624579Y-9628179D01*
X16623284Y-9628715D01*
X16629415Y-9659570D01*
X16624375Y-9671736D01*
X16624579Y-9671821D01*
X16622732Y-9676278D01*
X16614000Y-9720176D01*
X16614000Y-9929823D01*
X16622732Y-9973721D01*
X16624579Y-9978179D01*
X16623284Y-9978715D01*
X16629415Y-10009570D01*
X16624375Y-10021736D01*
X16624579Y-10021821D01*
X16622732Y-10026278D01*
X16614000Y-10070176D01*
X16614000Y-10279823D01*
X16622732Y-10323721D01*
X16624579Y-10328179D01*
X16623284Y-10328715D01*
X16629415Y-10359570D01*
X16624375Y-10371736D01*
X16624579Y-10371821D01*
X16622732Y-10376278D01*
X16614000Y-10420176D01*
X16614000Y-10600500D01*
X16599648Y-10635148D01*
X16565000Y-10649500D01*
X16551300Y-10649500D01*
X16551292Y-10649499D01*
X16545591Y-10649499D01*
X16455881Y-10649499D01*
X16455879Y-10649499D01*
X16397403Y-10673722D01*
X16373000Y-10683830D01*
X16372999Y-10683830D01*
X16368542Y-10685677D01*
X16367673Y-10683580D01*
X16339001Y-10689275D01*
X16307824Y-10668430D01*
X16300177Y-10633555D01*
X16305492Y-10600000D01*
X16285646Y-10474696D01*
X16285644Y-10474692D01*
X16285644Y-10474690D01*
X16228054Y-10361664D01*
X16228049Y-10361657D01*
X16138342Y-10271950D01*
X16138335Y-10271945D01*
X16025309Y-10214355D01*
X16025302Y-10214353D01*
X15990474Y-10208836D01*
X15963493Y-10195088D01*
X15822562Y-10054157D01*
X15822562Y-10054156D01*
X15752238Y-9983831D01*
X15752236Y-9983830D01*
X15711356Y-9966897D01*
X15669356Y-9949499D01*
X15669355Y-9949499D01*
X15634000Y-9949499D01*
X15599352Y-9935147D01*
X15585000Y-9900499D01*
X15585000Y-9720180D01*
X15584999Y-9720176D01*
X15582078Y-9705492D01*
X15576267Y-9676278D01*
X15576264Y-9676274D01*
X15574420Y-9671819D01*
X15575717Y-9671281D01*
X15569580Y-9640448D01*
X15574625Y-9628266D01*
X15574420Y-9628181D01*
X15576263Y-9623726D01*
X15576267Y-9623722D01*
X15585000Y-9579820D01*
X15585000Y-9370180D01*
X15576267Y-9326278D01*
X15576264Y-9326274D01*
X15574420Y-9321819D01*
X15575717Y-9321281D01*
X15569580Y-9290448D01*
X15574625Y-9278266D01*
X15574420Y-9278181D01*
X15576263Y-9273726D01*
X15576267Y-9273722D01*
X15585000Y-9229820D01*
X15585000Y-9020180D01*
X15576267Y-8976278D01*
X15562135Y-8955128D01*
X15543004Y-8926495D01*
X15493221Y-8893232D01*
X15449323Y-8884500D01*
X15449320Y-8884500D01*
X14956476Y-8884500D01*
X14921828Y-8870148D01*
X14908080Y-8843167D01*
X14905679Y-8828007D01*
X14856131Y-8730765D01*
X14853189Y-8693378D01*
X14877545Y-8664861D01*
X14909351Y-8660462D01*
X14926802Y-8663932D01*
X14934680Y-8665500D01*
X15449320Y-8665500D01*
X15493222Y-8656767D01*
X15543004Y-8623504D01*
X15576267Y-8573722D01*
X15585000Y-8529820D01*
X15585000Y-8320180D01*
X15576267Y-8276278D01*
X15576264Y-8276274D01*
X15574420Y-8271819D01*
X15575717Y-8271281D01*
X15569580Y-8240448D01*
X15574625Y-8228266D01*
X15574420Y-8228181D01*
X15576263Y-8223726D01*
X15576267Y-8223722D01*
X15585000Y-8179820D01*
X15585000Y-8011545D01*
X15599352Y-7976897D01*
X15624438Y-7963487D01*
X15658222Y-7956767D01*
X15708004Y-7923504D01*
X15741267Y-7873722D01*
X15750000Y-7829820D01*
X15750000Y-7670482D01*
X15764352Y-7635834D01*
X15799000Y-7621482D01*
X15835754Y-7621482D01*
X15835758Y-7621481D01*
X15856306Y-7615447D01*
X15960051Y-7584986D01*
X16069031Y-7514949D01*
X16132550Y-7441642D01*
X16166085Y-7424856D01*
X16201669Y-7436699D01*
X16206610Y-7441640D01*
X16251951Y-7493967D01*
X16360931Y-7564004D01*
X16372730Y-7567468D01*
X16393571Y-7579832D01*
X16435648Y-7621909D01*
X16450000Y-7656555D01*
X16450000Y-7829823D01*
X16458732Y-7873721D01*
X16491995Y-7923504D01*
X16541776Y-7956766D01*
X16541778Y-7956767D01*
X16574560Y-7963288D01*
X16605742Y-7984123D01*
X16614000Y-8011346D01*
X16614000Y-8179823D01*
X16622732Y-8223721D01*
X16624579Y-8228179D01*
X16623284Y-8228715D01*
X16629415Y-8259570D01*
X16624375Y-8271736D01*
X16624579Y-8271821D01*
X16622732Y-8276278D01*
X16614000Y-8320176D01*
X16614000Y-8529823D01*
X16622732Y-8573721D01*
X16655995Y-8623504D01*
X16696399Y-8650500D01*
X16705778Y-8656767D01*
X16749680Y-8665500D01*
X17264320Y-8665500D01*
X17281956Y-8661991D01*
X17309854Y-8656443D01*
X17319414Y-8655501D01*
X17416600Y-8655501D01*
X17416601Y-8655501D01*
X17425214Y-8651932D01*
X17462716Y-8651929D01*
X17487628Y-8674955D01*
X17535208Y-8768337D01*
X17535212Y-8768342D01*
X17624919Y-8858049D01*
X17624926Y-8858054D01*
X17737953Y-8915644D01*
X17737954Y-8915644D01*
X17737958Y-8915646D01*
X17863262Y-8935492D01*
X17988566Y-8915646D01*
X17988570Y-8915644D01*
X17988571Y-8915644D01*
X18101597Y-8858054D01*
X18101599Y-8858052D01*
X18101604Y-8858050D01*
X18191312Y-8768342D01*
X18198676Y-8753890D01*
X18248906Y-8655309D01*
X18248906Y-8655307D01*
X18248908Y-8655304D01*
X18268754Y-8530000D01*
X18248908Y-8404696D01*
X18248906Y-8404692D01*
X18248906Y-8404690D01*
X18191316Y-8291664D01*
X18191311Y-8291657D01*
X18144739Y-8245085D01*
X18130387Y-8210437D01*
X18144739Y-8175789D01*
X18157163Y-8163365D01*
X18177025Y-8143503D01*
X18177029Y-8143496D01*
X18234619Y-8030470D01*
X18234619Y-8030468D01*
X18234621Y-8030465D01*
X18254467Y-7905161D01*
X18234621Y-7779857D01*
X18234619Y-7779853D01*
X18234619Y-7779851D01*
X18177029Y-7666825D01*
X18177024Y-7666818D01*
X18087317Y-7577111D01*
X18087310Y-7577106D01*
X17974283Y-7519516D01*
X17974280Y-7519515D01*
X17974279Y-7519515D01*
X17848975Y-7499669D01*
X17723671Y-7519515D01*
X17723669Y-7519515D01*
X17723667Y-7519516D01*
X17723665Y-7519516D01*
X17610639Y-7577106D01*
X17610632Y-7577111D01*
X17520925Y-7666818D01*
X17520920Y-7666825D01*
X17463330Y-7779851D01*
X17463330Y-7779853D01*
X17463329Y-7779855D01*
X17463329Y-7779857D01*
X17459637Y-7803166D01*
X17440042Y-7835141D01*
X17411241Y-7844499D01*
X17335000Y-7844499D01*
X17300352Y-7830147D01*
X17286000Y-7795499D01*
X17286000Y-7570180D01*
X17285999Y-7570176D01*
X17277267Y-7526278D01*
X17244004Y-7476495D01*
X17194221Y-7443232D01*
X17150323Y-7434500D01*
X17150320Y-7434500D01*
X16991574Y-7434500D01*
X16956926Y-7420148D01*
X16942574Y-7385500D01*
X16947002Y-7365144D01*
X16950753Y-7356932D01*
X16986697Y-7278226D01*
X16986697Y-7278224D01*
X16986698Y-7278223D01*
X17005133Y-7150002D01*
X17005133Y-7149997D01*
X16986698Y-7021776D01*
X16970952Y-6987298D01*
X16932882Y-6903937D01*
X16848049Y-6806033D01*
X16739069Y-6735996D01*
X16739066Y-6735995D01*
X16614776Y-6699500D01*
X16614772Y-6699500D01*
X16537702Y-6699500D01*
X16503054Y-6685148D01*
X16488702Y-6650500D01*
X16503054Y-6615852D01*
X16516170Y-6602736D01*
X16516170Y-6602735D01*
X16523059Y-6595846D01*
X16523060Y-6595843D01*
X16979053Y-6139852D01*
X17013701Y-6125500D01*
X20656697Y-6125500D01*
X20691345Y-6139852D01*
X20705093Y-6166834D01*
X20714354Y-6225304D01*
X20714354Y-6225305D01*
X20714355Y-6225306D01*
X20771945Y-6338335D01*
X20771950Y-6338342D01*
X20861657Y-6428049D01*
X20861664Y-6428054D01*
X20974691Y-6485644D01*
X20974692Y-6485644D01*
X20974696Y-6485646D01*
X21100000Y-6505492D01*
X21225304Y-6485646D01*
X21225308Y-6485644D01*
X21225309Y-6485644D01*
X21338335Y-6428054D01*
X21338337Y-6428052D01*
X21338342Y-6428050D01*
X21428050Y-6338342D01*
X21485646Y-6225304D01*
X21494906Y-6166834D01*
X21514502Y-6134858D01*
X21543303Y-6125500D01*
X25136936Y-6125500D01*
X25136944Y-6125501D01*
X25142645Y-6125501D01*
X25232353Y-6125501D01*
X25232355Y-6125501D01*
X25293918Y-6100000D01*
X25315236Y-6091170D01*
X25378670Y-6027736D01*
X25378670Y-6027735D01*
X25385559Y-6020846D01*
X25385561Y-6020843D01*
X26393568Y-5012836D01*
X26428216Y-4998484D01*
X26462864Y-5012836D01*
X26527233Y-5077205D01*
X26630006Y-5122584D01*
X26630009Y-5122585D01*
X26655135Y-5125500D01*
X27044864Y-5125499D01*
X27069991Y-5122585D01*
X27172765Y-5077206D01*
X27252206Y-4997765D01*
X27297585Y-4894991D01*
X27300500Y-4869865D01*
X27300499Y-3605136D01*
X27297585Y-3580009D01*
X27252206Y-3477235D01*
X27252205Y-3477234D01*
X27252205Y-3477233D01*
X27172766Y-3397794D01*
X27172767Y-3397794D01*
X27069993Y-3352415D01*
X27057428Y-3350957D01*
X27044865Y-3349500D01*
X27044863Y-3349500D01*
X26655141Y-3349500D01*
X26655131Y-3349501D01*
X26630007Y-3352415D01*
X26527233Y-3397794D01*
X26447794Y-3477233D01*
X26402415Y-3580006D01*
X26399500Y-3605134D01*
X26399500Y-4348798D01*
X26385148Y-4383446D01*
X25108447Y-5660148D01*
X25073799Y-5674500D01*
X22450201Y-5674500D01*
X22415553Y-5660148D01*
X22401201Y-5625500D01*
X22415553Y-5590852D01*
X22993568Y-5012836D01*
X23028216Y-4998484D01*
X23062864Y-5012836D01*
X23127233Y-5077205D01*
X23230006Y-5122584D01*
X23230009Y-5122585D01*
X23255135Y-5125500D01*
X23644864Y-5125499D01*
X23669991Y-5122585D01*
X23772765Y-5077206D01*
X23852206Y-4997765D01*
X23897585Y-4894991D01*
X23900500Y-4869865D01*
X23900499Y-3605136D01*
X23897585Y-3580009D01*
X23852206Y-3477235D01*
X23852205Y-3477234D01*
X23852205Y-3477233D01*
X23772766Y-3397794D01*
X23772767Y-3397794D01*
X23669993Y-3352415D01*
X23657428Y-3350957D01*
X23644865Y-3349500D01*
X23644863Y-3349500D01*
X23255141Y-3349500D01*
X23255131Y-3349501D01*
X23230007Y-3352415D01*
X23127233Y-3397794D01*
X23047794Y-3477233D01*
X23002415Y-3580006D01*
X22999500Y-3605134D01*
X22999500Y-4348798D01*
X22985148Y-4383446D01*
X22008447Y-5360148D01*
X21973799Y-5374500D01*
X19350201Y-5374500D01*
X19315553Y-5360148D01*
X19301201Y-5325500D01*
X19315553Y-5290852D01*
X19593568Y-5012836D01*
X19628216Y-4998484D01*
X19662864Y-5012836D01*
X19727233Y-5077205D01*
X19830006Y-5122584D01*
X19830009Y-5122585D01*
X19855135Y-5125500D01*
X20244864Y-5125499D01*
X20269991Y-5122585D01*
X20372765Y-5077206D01*
X20452206Y-4997765D01*
X20497585Y-4894991D01*
X20500500Y-4869865D01*
X20500499Y-3605136D01*
X20497585Y-3580009D01*
X20452206Y-3477235D01*
X20452205Y-3477234D01*
X20452205Y-3477233D01*
X20372766Y-3397794D01*
X20372767Y-3397794D01*
X20269993Y-3352415D01*
X20257428Y-3350957D01*
X20244865Y-3349500D01*
X20244863Y-3349500D01*
X19855141Y-3349500D01*
X19855131Y-3349501D01*
X19830007Y-3352415D01*
X19727233Y-3397794D01*
X19647794Y-3477233D01*
X19602415Y-3580006D01*
X19599500Y-3605134D01*
X19599500Y-4348798D01*
X19585148Y-4383446D01*
X18908447Y-5060148D01*
X18873799Y-5074500D01*
X17092602Y-5074500D01*
X17057954Y-5060148D01*
X17043602Y-5025500D01*
X17050839Y-5002125D01*
X17050372Y-5001919D01*
X17052150Y-4997891D01*
X17052175Y-4997812D01*
X17052204Y-4997769D01*
X17097584Y-4894993D01*
X17097583Y-4894993D01*
X17097585Y-4894991D01*
X17100500Y-4869865D01*
X17100499Y-3605136D01*
X17097585Y-3580009D01*
X17052206Y-3477235D01*
X17052205Y-3477234D01*
X17052205Y-3477233D01*
X16972766Y-3397794D01*
X16972767Y-3397794D01*
X16869993Y-3352415D01*
X16857428Y-3350957D01*
X16844865Y-3349500D01*
X16844863Y-3349500D01*
X16455141Y-3349500D01*
X16455131Y-3349501D01*
X16430007Y-3352415D01*
X16327233Y-3397794D01*
X16247794Y-3477233D01*
X16202415Y-3580006D01*
X16199500Y-3605134D01*
X16199500Y-4361298D01*
X16185148Y-4395946D01*
X13559148Y-7021946D01*
X13524500Y-7036298D01*
X13489852Y-7021946D01*
X13475500Y-6987298D01*
X13475500Y-5152080D01*
X13489852Y-5117432D01*
X13504709Y-5107255D01*
X13572765Y-5077206D01*
X13572766Y-5077206D01*
X13652205Y-4997766D01*
X13652206Y-4997765D01*
X13697585Y-4894991D01*
X13700500Y-4869865D01*
X13700499Y-3605136D01*
X13697585Y-3580009D01*
X13652206Y-3477235D01*
X13652205Y-3477234D01*
X13652205Y-3477233D01*
X13572766Y-3397794D01*
X13572767Y-3397794D01*
X13469993Y-3352415D01*
X13457428Y-3350957D01*
X13444865Y-3349500D01*
X13444863Y-3349500D01*
X13055141Y-3349500D01*
X13055131Y-3349501D01*
X13030007Y-3352415D01*
X12927233Y-3397794D01*
X12847794Y-3477233D01*
X12802415Y-3580006D01*
X12799500Y-3605134D01*
X12799500Y-4869858D01*
X12799501Y-4869868D01*
X12802415Y-4894992D01*
X12847794Y-4997766D01*
X12927234Y-5077206D01*
X12995291Y-5107255D01*
X13021191Y-5134378D01*
X13024500Y-5152080D01*
X13024500Y-7112034D01*
X13010148Y-7146682D01*
X12208832Y-7947997D01*
X12208829Y-7948002D01*
X12205200Y-7956765D01*
X12205199Y-7956767D01*
X12174499Y-8030879D01*
X12174499Y-8126291D01*
X12174500Y-8126300D01*
X12174500Y-9838811D01*
X12160148Y-9873459D01*
X12071951Y-9961656D01*
X12071945Y-9961664D01*
X12014355Y-10074690D01*
X12014355Y-10074692D01*
X12014354Y-10074694D01*
X12014354Y-10074696D01*
X11994508Y-10200000D01*
X12014354Y-10325304D01*
X12014354Y-10325305D01*
X12014355Y-10325307D01*
X12014355Y-10325309D01*
X12071945Y-10438335D01*
X12071950Y-10438342D01*
X12160148Y-10526540D01*
X12174500Y-10561188D01*
X12174500Y-12041015D01*
X12160148Y-12075663D01*
X11508827Y-12726983D01*
X11508827Y-12726985D01*
X11474496Y-12809863D01*
X11474496Y-12905275D01*
X11474497Y-12905284D01*
X11474497Y-13696468D01*
X11474496Y-13696482D01*
X11474496Y-13700425D01*
X11474496Y-13790135D01*
X11491013Y-13830009D01*
X11508827Y-13873016D01*
X11508828Y-13873017D01*
X11508828Y-13873018D01*
X11579152Y-13943341D01*
X11579154Y-13943342D01*
X12300148Y-14664336D01*
X12314500Y-14698984D01*
X12314500Y-15550500D01*
X12300148Y-15585148D01*
X12265500Y-15599500D01*
X11675176Y-15599500D01*
X11631278Y-15608232D01*
X11581495Y-15641495D01*
X11548232Y-15691278D01*
X11539500Y-15735176D01*
X11539500Y-17464823D01*
X11548232Y-17508721D01*
X11581495Y-17558504D01*
X11610279Y-17577736D01*
X11631278Y-17591767D01*
X11675180Y-17600500D01*
X13404820Y-17600500D01*
X13448722Y-17591767D01*
X13498504Y-17558504D01*
X13531767Y-17508722D01*
X13540500Y-17464820D01*
X13540500Y-15735180D01*
X13531767Y-15691278D01*
X13518342Y-15671186D01*
X13498504Y-15641495D01*
X13448721Y-15608232D01*
X13404823Y-15599500D01*
X13404820Y-15599500D01*
X12814500Y-15599500D01*
X12779852Y-15585148D01*
X12765500Y-15550500D01*
X12765500Y-14823720D01*
X12779852Y-14789072D01*
X12814500Y-14774720D01*
X12849148Y-14789072D01*
X14168738Y-16108662D01*
X14183090Y-16143310D01*
X14177304Y-16166408D01*
X14151186Y-16215271D01*
X14093976Y-16403866D01*
X14093976Y-16403867D01*
X14074659Y-16599999D01*
X14074659Y-16600000D01*
X14093976Y-16796132D01*
X14093976Y-16796133D01*
X14151185Y-16984726D01*
X14193609Y-17064094D01*
X14244089Y-17158537D01*
X14244092Y-17158541D01*
X14244094Y-17158544D01*
X14292959Y-17218085D01*
X14369117Y-17310883D01*
X14422022Y-17354301D01*
X14521455Y-17435905D01*
X14521458Y-17435907D01*
X14521462Y-17435910D01*
X14695273Y-17528814D01*
X14883868Y-17586024D01*
X15080000Y-17605341D01*
X15276132Y-17586024D01*
X15464727Y-17528814D01*
X15638538Y-17435910D01*
X15790883Y-17310883D01*
X15842623Y-17247837D01*
X15875697Y-17230159D01*
X15911585Y-17241045D01*
X15929264Y-17274120D01*
X15929500Y-17278923D01*
X15929500Y-18431298D01*
X15915148Y-18465946D01*
X14408830Y-19972263D01*
X14408830Y-19972265D01*
X14374499Y-20055143D01*
X14374499Y-20150555D01*
X14374500Y-20150564D01*
X14374500Y-20532416D01*
X14360148Y-20567064D01*
X14359147Y-20568065D01*
X14324499Y-20582417D01*
X14289851Y-20568065D01*
X14275499Y-20533417D01*
X14275499Y-20233703D01*
X14265043Y-20161933D01*
X14265043Y-20161932D01*
X14241367Y-20113503D01*
X14210919Y-20051220D01*
X14123780Y-19964081D01*
X14065545Y-19935612D01*
X14013070Y-19909958D01*
X14013068Y-19909957D01*
X13941297Y-19899500D01*
X13941295Y-19899500D01*
X13401201Y-19899500D01*
X13366553Y-19885148D01*
X13260562Y-19779157D01*
X13260562Y-19779156D01*
X13190237Y-19708830D01*
X13165960Y-19698774D01*
X13107356Y-19674499D01*
X13107355Y-19674499D01*
X13017645Y-19674499D01*
X13011944Y-19674499D01*
X13011936Y-19674500D01*
X12015564Y-19674500D01*
X12015556Y-19674499D01*
X12009855Y-19674499D01*
X11920145Y-19674499D01*
X11920143Y-19674499D01*
X11920140Y-19674500D01*
X11861539Y-19698773D01*
X11861539Y-19698774D01*
X11849401Y-19703802D01*
X11837263Y-19708830D01*
X11483830Y-20062263D01*
X11481011Y-20069070D01*
X11477764Y-20076910D01*
X11449499Y-20145143D01*
X11449499Y-20215500D01*
X11435147Y-20250148D01*
X11400499Y-20264500D01*
X10885176Y-20264500D01*
X10841278Y-20273232D01*
X10791495Y-20306495D01*
X10758232Y-20356278D01*
X10749500Y-20400176D01*
X10254082Y-20400176D01*
X10435004Y-20219254D01*
X10435007Y-20219253D01*
X10441896Y-20212364D01*
X10441897Y-20212364D01*
X10512364Y-20141897D01*
X10533376Y-20091170D01*
X10550501Y-20049827D01*
X10550501Y-19950172D01*
X10550501Y-19946229D01*
X10550500Y-19946215D01*
X10550500Y-17736188D01*
X10564852Y-17701540D01*
X10578656Y-17687736D01*
X10628050Y-17638342D01*
X10644865Y-17605341D01*
X10685644Y-17525309D01*
X10685644Y-17525307D01*
X10685646Y-17525304D01*
X10705492Y-17400000D01*
X10685646Y-17274696D01*
X10685644Y-17274692D01*
X10685644Y-17274690D01*
X10628054Y-17161664D01*
X10628049Y-17161657D01*
X10588538Y-17122146D01*
X10574186Y-17087498D01*
X10588538Y-17052850D01*
X10588539Y-17052849D01*
X10606209Y-17035180D01*
X10628050Y-17013339D01*
X10685646Y-16900301D01*
X10705492Y-16774997D01*
X10685646Y-16649693D01*
X10685644Y-16649689D01*
X10685644Y-16649687D01*
X10628054Y-16536661D01*
X10628049Y-16536654D01*
X10588538Y-16497143D01*
X10574186Y-16462495D01*
X10588538Y-16427847D01*
X10588539Y-16427846D01*
X10601535Y-16414851D01*
X10628050Y-16388336D01*
X10685646Y-16275298D01*
X10705492Y-16149994D01*
X10685646Y-16024690D01*
X10685644Y-16024686D01*
X10685644Y-16024684D01*
X10628054Y-15911658D01*
X10628049Y-15911651D01*
X10538342Y-15821944D01*
X10538335Y-15821939D01*
X10425308Y-15764349D01*
X10425305Y-15764348D01*
X10425304Y-15764348D01*
X10300000Y-15744502D01*
X10174696Y-15764348D01*
X10174694Y-15764348D01*
X10174692Y-15764349D01*
X10174690Y-15764349D01*
X10061664Y-15821939D01*
X10061657Y-15821944D01*
X9971950Y-15911651D01*
X9971945Y-15911658D01*
X9914355Y-16024684D01*
X9914355Y-16024686D01*
X9914354Y-16024688D01*
X9914354Y-16024690D01*
X9894508Y-16149994D01*
X9914354Y-16275298D01*
X9914354Y-16275299D01*
X9914355Y-16275301D01*
X9914355Y-16275303D01*
X9971945Y-16388329D01*
X9971950Y-16388336D01*
X10011461Y-16427847D01*
X10025813Y-16462495D01*
X10011462Y-16497142D01*
X10003114Y-16505491D01*
X9971948Y-16536657D01*
X9971945Y-16536661D01*
X9914355Y-16649687D01*
X9914355Y-16649689D01*
X9914354Y-16649691D01*
X9914354Y-16649693D01*
X9894508Y-16774997D01*
X9914354Y-16900301D01*
X9914354Y-16900302D01*
X9914355Y-16900304D01*
X9914355Y-16900306D01*
X9971945Y-17013332D01*
X9971950Y-17013339D01*
X10011461Y-17052850D01*
X10025813Y-17087498D01*
X10011462Y-17122145D01*
X10007904Y-17125704D01*
X9971948Y-17161660D01*
X9971945Y-17161664D01*
X9914355Y-17274690D01*
X9914355Y-17274692D01*
X9914354Y-17274694D01*
X9914354Y-17274696D01*
X9894508Y-17400000D01*
X9914354Y-17525304D01*
X9914354Y-17525305D01*
X9914355Y-17525307D01*
X9914355Y-17525309D01*
X9971945Y-17638335D01*
X9971950Y-17638342D01*
X10035148Y-17701540D01*
X10049500Y-17736188D01*
X10049500Y-19875942D01*
X10035148Y-19910590D01*
X9665713Y-20280025D01*
X9631065Y-20294377D01*
X9596417Y-20280025D01*
X9588342Y-20271950D01*
X9588335Y-20271945D01*
X9475308Y-20214355D01*
X9475305Y-20214354D01*
X9475304Y-20214354D01*
X9381519Y-20199500D01*
X9381517Y-20199500D01*
X8018482Y-20199500D01*
X7924696Y-20214353D01*
X7811664Y-20271945D01*
X7811657Y-20271950D01*
X7721950Y-20361657D01*
X7721945Y-20361664D01*
X7664355Y-20474690D01*
X7664355Y-20474692D01*
X7664354Y-20474694D01*
X7664354Y-20474696D01*
X7649566Y-20568065D01*
X7649500Y-20568482D01*
X4256196Y-20568482D01*
X4247740Y-20560026D01*
X4030112Y-20397112D01*
X4030108Y-20397109D01*
X3791518Y-20266830D01*
X3778842Y-20262102D01*
X3536801Y-20171825D01*
X3491323Y-20161932D01*
X3271168Y-20114040D01*
X3271153Y-20114038D01*
X3000002Y-20094645D01*
X2999998Y-20094645D01*
X2728846Y-20114038D01*
X2728831Y-20114040D01*
X2463203Y-20171824D01*
X2463202Y-20171824D01*
X2463199Y-20171825D01*
X2330182Y-20221438D01*
X2208481Y-20266830D01*
X1969891Y-20397109D01*
X1969887Y-20397112D01*
X1752259Y-20560026D01*
X1560026Y-20752259D01*
X1397112Y-20969887D01*
X1397109Y-20969891D01*
X1266830Y-21208481D01*
X1247886Y-21259272D01*
X1176634Y-21450307D01*
X1171824Y-21463203D01*
X1114040Y-21728831D01*
X1114038Y-21728846D01*
X1094645Y-21999998D01*
X400539Y-21999998D01*
X400500Y-21998624D01*
X400500Y-17899999D01*
X1529659Y-17899999D01*
X1529659Y-17900000D01*
X1548976Y-18096132D01*
X1548976Y-18096133D01*
X1606185Y-18284726D01*
X1699092Y-18458541D01*
X1699094Y-18458544D01*
X1765310Y-18539227D01*
X1824117Y-18610883D01*
X1911427Y-18682537D01*
X1976455Y-18735905D01*
X1976458Y-18735907D01*
X1976462Y-18735910D01*
X2150273Y-18828814D01*
X2338868Y-18886024D01*
X2535000Y-18905341D01*
X2731132Y-18886024D01*
X2919727Y-18828814D01*
X3093538Y-18735910D01*
X3245883Y-18610883D01*
X3370910Y-18458538D01*
X3463814Y-18284727D01*
X3521024Y-18096132D01*
X3540341Y-17900000D01*
X3521024Y-17703868D01*
X3463814Y-17515273D01*
X3450630Y-17490608D01*
X3370914Y-17341469D01*
X3370912Y-17341467D01*
X3370910Y-17341462D01*
X3370906Y-17341457D01*
X3369837Y-17339858D01*
X3362512Y-17303078D01*
X3375923Y-17277980D01*
X4765853Y-15888051D01*
X4800500Y-15873700D01*
X4835148Y-15888052D01*
X4849500Y-15922700D01*
X4849500Y-16850500D01*
X4835148Y-16885148D01*
X4800500Y-16899500D01*
X4210176Y-16899500D01*
X4166278Y-16908232D01*
X4116495Y-16941495D01*
X4083232Y-16991278D01*
X4074500Y-17035176D01*
X4074500Y-18764823D01*
X4083232Y-18808721D01*
X4116495Y-18858504D01*
X4157681Y-18886023D01*
X4166278Y-18891767D01*
X4210180Y-18900500D01*
X5939820Y-18900500D01*
X5983722Y-18891767D01*
X6033504Y-18858504D01*
X6066767Y-18808722D01*
X6075500Y-18764820D01*
X6075500Y-17035180D01*
X6066767Y-16991278D01*
X6053342Y-16971186D01*
X6033504Y-16941495D01*
X5983721Y-16908232D01*
X5939823Y-16899500D01*
X5939820Y-16899500D01*
X5349500Y-16899500D01*
X5314852Y-16885148D01*
X5300500Y-16850500D01*
X5300500Y-13098701D01*
X5314851Y-13064054D01*
X6465853Y-11913051D01*
X6500500Y-11898700D01*
X6535148Y-11913052D01*
X6549500Y-11947700D01*
X6549500Y-12047207D01*
X6562583Y-12112986D01*
X6562584Y-12112989D01*
X6602533Y-12172778D01*
X6609849Y-12209560D01*
X6602533Y-12227222D01*
X6562583Y-12287012D01*
X6549500Y-12352791D01*
X6549500Y-12547208D01*
X6562583Y-12612986D01*
X6612423Y-12687578D01*
X6615288Y-12690443D01*
X6629640Y-12725091D01*
X6615290Y-12759738D01*
X6597794Y-12777234D01*
X6597792Y-12777238D01*
X6552415Y-12880006D01*
X6549500Y-12905134D01*
X6549500Y-13042382D01*
X6535148Y-13077030D01*
X6500500Y-13091382D01*
X6476000Y-13084817D01*
X6422137Y-13053719D01*
X6422133Y-13053718D01*
X6275769Y-13014500D01*
X6275766Y-13014500D01*
X6124234Y-13014500D01*
X6124231Y-13014500D01*
X5977866Y-13053718D01*
X5977862Y-13053719D01*
X5846634Y-13129485D01*
X5846634Y-13129486D01*
X5739486Y-13236634D01*
X5739485Y-13236634D01*
X5663719Y-13367862D01*
X5663718Y-13367866D01*
X5624500Y-13514230D01*
X5624500Y-13665769D01*
X5663718Y-13812133D01*
X5663719Y-13812137D01*
X5735493Y-13936450D01*
X5739485Y-13943365D01*
X5846635Y-14050515D01*
X5847647Y-14051099D01*
X5977862Y-14126280D01*
X5977864Y-14126280D01*
X5977865Y-14126281D01*
X6093303Y-14157212D01*
X6124230Y-14165499D01*
X6124231Y-14165500D01*
X6124234Y-14165500D01*
X6275769Y-14165500D01*
X6275769Y-14165499D01*
X6422135Y-14126281D01*
X6553365Y-14050515D01*
X6660515Y-13943365D01*
X6736281Y-13812135D01*
X6775499Y-13665769D01*
X6775500Y-13665769D01*
X6775500Y-13599499D01*
X6789852Y-13564851D01*
X6824497Y-13550499D01*
X7744864Y-13550499D01*
X7769991Y-13547585D01*
X7872765Y-13502206D01*
X7952206Y-13422765D01*
X7961822Y-13400985D01*
X7971218Y-13379708D01*
X7998342Y-13353809D01*
X8016043Y-13350500D01*
X9480501Y-13350500D01*
X9515149Y-13364852D01*
X9529501Y-13399500D01*
X9529501Y-13487626D01*
X9532270Y-13511499D01*
X9575384Y-13609142D01*
X9633842Y-13667600D01*
X9648194Y-13702248D01*
X9633842Y-13736896D01*
X9083462Y-14287275D01*
X9048814Y-14301627D01*
X9041150Y-14301024D01*
X9000000Y-14294508D01*
X8874696Y-14314354D01*
X8874694Y-14314354D01*
X8874692Y-14314355D01*
X8874690Y-14314355D01*
X8761664Y-14371945D01*
X8761657Y-14371950D01*
X8671950Y-14461657D01*
X8671945Y-14461664D01*
X8614355Y-14574690D01*
X8614355Y-14574692D01*
X8614354Y-14574694D01*
X8614354Y-14574696D01*
X8597681Y-14679965D01*
X8594508Y-14700000D01*
X8594508Y-14700001D01*
X8597606Y-14719568D01*
X8588849Y-14756035D01*
X8583859Y-14761878D01*
X8558104Y-14787635D01*
X8558102Y-14787636D01*
X8487637Y-14858101D01*
X8487636Y-14858102D01*
X8487636Y-14858103D01*
X8481093Y-14873898D01*
X8449500Y-14950170D01*
X8449500Y-14963812D01*
X8435148Y-14998460D01*
X8371950Y-15061657D01*
X8371945Y-15061664D01*
X8314355Y-15174690D01*
X8314355Y-15174692D01*
X8314354Y-15174694D01*
X8314354Y-15174696D01*
X8294508Y-15300000D01*
X8314354Y-15425304D01*
X8314354Y-15425305D01*
X8314355Y-15425307D01*
X8314355Y-15425309D01*
X8371945Y-15538335D01*
X8371950Y-15538342D01*
X8398960Y-15565352D01*
X8413312Y-15600000D01*
X8398960Y-15634648D01*
X8371950Y-15661657D01*
X8371945Y-15661664D01*
X8314355Y-15774690D01*
X8314355Y-15774692D01*
X8314354Y-15774694D01*
X8314354Y-15774696D01*
X8294508Y-15900000D01*
X8314354Y-16025304D01*
X8314354Y-16025305D01*
X8314355Y-16025307D01*
X8314355Y-16025309D01*
X8366809Y-16128255D01*
X8369752Y-16165642D01*
X8345395Y-16194159D01*
X8323150Y-16199500D01*
X8018482Y-16199500D01*
X7924696Y-16214353D01*
X7811664Y-16271945D01*
X7811657Y-16271950D01*
X7721950Y-16361657D01*
X7721945Y-16361664D01*
X7664355Y-16474690D01*
X7664355Y-16474692D01*
X7664354Y-16474694D01*
X7664354Y-16474696D01*
X7654540Y-16536661D01*
X7649500Y-16568482D01*
X7649500Y-18631517D01*
X7664353Y-18725303D01*
X7721945Y-18838335D01*
X7721950Y-18838342D01*
X7811657Y-18928049D01*
X7811664Y-18928054D01*
X7924691Y-18985644D01*
X7924692Y-18985644D01*
X7924696Y-18985646D01*
X8018481Y-19000500D01*
X9381518Y-19000499D01*
X9475304Y-18985646D01*
X9536387Y-18954522D01*
X9588335Y-18928054D01*
X9588337Y-18928052D01*
X9588342Y-18928050D01*
X9678050Y-18838342D01*
X9678054Y-18838335D01*
X9735644Y-18725309D01*
X9735644Y-18725307D01*
X9735646Y-18725304D01*
X9750500Y-18631519D01*
X9750499Y-16568482D01*
X9735646Y-16474696D01*
X9722036Y-16447985D01*
X9678054Y-16361664D01*
X9678049Y-16361657D01*
X9588342Y-16271950D01*
X9588335Y-16271945D01*
X9475308Y-16214355D01*
X9475305Y-16214354D01*
X9475304Y-16214354D01*
X9381519Y-16199500D01*
X9381517Y-16199500D01*
X9076849Y-16199500D01*
X9042201Y-16185148D01*
X9027849Y-16150500D01*
X9033190Y-16128254D01*
X9071334Y-16053392D01*
X9085646Y-16025304D01*
X9105492Y-15900000D01*
X9085646Y-15774696D01*
X9085644Y-15774692D01*
X9085644Y-15774690D01*
X9028054Y-15661664D01*
X9028049Y-15661657D01*
X9001040Y-15634648D01*
X8986688Y-15600000D01*
X9001040Y-15565352D01*
X9006020Y-15560372D01*
X9028050Y-15538342D01*
X9034693Y-15525305D01*
X9085644Y-15425309D01*
X9085644Y-15425307D01*
X9085646Y-15425304D01*
X9105492Y-15300000D01*
X9085646Y-15174696D01*
X9077239Y-15158197D01*
X9074297Y-15120813D01*
X9098652Y-15092295D01*
X9113237Y-15087557D01*
X9125304Y-15085646D01*
X9218157Y-15038335D01*
X9238335Y-15028054D01*
X9238337Y-15028052D01*
X9238342Y-15028050D01*
X9328050Y-14938342D01*
X9334692Y-14925307D01*
X9385644Y-14825309D01*
X9385644Y-14825307D01*
X9385646Y-14825304D01*
X9405492Y-14700000D01*
X9405492Y-14699998D01*
X9405492Y-14696143D01*
X9407224Y-14696143D01*
X9414554Y-14665562D01*
X9419553Y-14659706D01*
X10212364Y-13866897D01*
X10250500Y-13774828D01*
X10250500Y-13760098D01*
X10264852Y-13725450D01*
X10279704Y-13715275D01*
X10349141Y-13684616D01*
X10424616Y-13609141D01*
X10467730Y-13511498D01*
X10467730Y-13511496D01*
X10467731Y-13511494D01*
X10470498Y-13487640D01*
X10470497Y-13487640D01*
X10470500Y-13487623D01*
X10470499Y-13132378D01*
X10467730Y-13108502D01*
X10424616Y-13010859D01*
X10424615Y-13010858D01*
X10424615Y-13010857D01*
X10349142Y-12935384D01*
X10251500Y-12892270D01*
X10251494Y-12892268D01*
X10227640Y-12889501D01*
X10227625Y-12889500D01*
X10227623Y-12889500D01*
X10227620Y-12889500D01*
X9946143Y-12889500D01*
X9927393Y-12885770D01*
X9882531Y-12867188D01*
X9839829Y-12849500D01*
X9839828Y-12849500D01*
X8016043Y-12849500D01*
X7981395Y-12835148D01*
X7971218Y-12820292D01*
X7952205Y-12777233D01*
X7934711Y-12759740D01*
X7920358Y-12725092D01*
X7934709Y-12690444D01*
X7934715Y-12690437D01*
X7937570Y-12687581D01*
X7937577Y-12687577D01*
X7987417Y-12612986D01*
X7987417Y-12612985D01*
X7990098Y-12608973D01*
X7991864Y-12610153D01*
X8012803Y-12589225D01*
X8031543Y-12585500D01*
X9551447Y-12585500D01*
X9586095Y-12599852D01*
X9650857Y-12664615D01*
X9650858Y-12664615D01*
X9650859Y-12664616D01*
X9673688Y-12674696D01*
X9748499Y-12707729D01*
X9748505Y-12707731D01*
X9772359Y-12710498D01*
X9772360Y-12710498D01*
X9772377Y-12710500D01*
X10227622Y-12710499D01*
X10251498Y-12707730D01*
X10349141Y-12664616D01*
X10424616Y-12589141D01*
X10467730Y-12491498D01*
X10467730Y-12491496D01*
X10467731Y-12491494D01*
X10470498Y-12467640D01*
X10470497Y-12467640D01*
X10470500Y-12467623D01*
X10470499Y-12112378D01*
X10467730Y-12088502D01*
X10424616Y-11990859D01*
X10424615Y-11990858D01*
X10424615Y-11990857D01*
X10349142Y-11915384D01*
X10251500Y-11872270D01*
X10251494Y-11872268D01*
X10227640Y-11869501D01*
X10227625Y-11869500D01*
X10227623Y-11869500D01*
X10227620Y-11869500D01*
X9772382Y-11869500D01*
X9772373Y-11869501D01*
X9748500Y-11872270D01*
X9650857Y-11915384D01*
X9575384Y-11990857D01*
X9532270Y-12088499D01*
X9532269Y-12088504D01*
X9531962Y-12091150D01*
X9513711Y-12123912D01*
X9483289Y-12134500D01*
X8042844Y-12134500D01*
X8008196Y-12120148D01*
X7993844Y-12085500D01*
X7994785Y-12075941D01*
X8000500Y-12047211D01*
X8000499Y-11852790D01*
X7987417Y-11787014D01*
X7963835Y-11751722D01*
X7956520Y-11714940D01*
X7977355Y-11683758D01*
X8004578Y-11675500D01*
X8099436Y-11675500D01*
X8099444Y-11675501D01*
X8105145Y-11675501D01*
X8143022Y-11675501D01*
X8165267Y-11680842D01*
X8174696Y-11685646D01*
X8300000Y-11705492D01*
X8425304Y-11685646D01*
X8425308Y-11685644D01*
X8425309Y-11685644D01*
X8538335Y-11628054D01*
X8538337Y-11628052D01*
X8538342Y-11628050D01*
X8628050Y-11538342D01*
X8628054Y-11538335D01*
X8685644Y-11425309D01*
X8685644Y-11425307D01*
X8685646Y-11425304D01*
X8705492Y-11300000D01*
X8685646Y-11174696D01*
X8685644Y-11174692D01*
X8685644Y-11174690D01*
X8628054Y-11061664D01*
X8628049Y-11061657D01*
X8604208Y-11037816D01*
X8589856Y-11003168D01*
X8604208Y-10968520D01*
X8638856Y-10954168D01*
X10015692Y-10954168D01*
X10015700Y-10954169D01*
X10021401Y-10954169D01*
X10113100Y-10954169D01*
X10113101Y-10954169D01*
X10162727Y-10933612D01*
X10197819Y-10919077D01*
X10262660Y-10854236D01*
X10262660Y-10854235D01*
X10269549Y-10847346D01*
X10269551Y-10847343D01*
X10990603Y-10126291D01*
X11025251Y-10111939D01*
X11059899Y-10126291D01*
X11061657Y-10128049D01*
X11061664Y-10128054D01*
X11174691Y-10185644D01*
X11174692Y-10185644D01*
X11174696Y-10185646D01*
X11300000Y-10205492D01*
X11425304Y-10185646D01*
X11425308Y-10185644D01*
X11425309Y-10185644D01*
X11538335Y-10128054D01*
X11538337Y-10128052D01*
X11538342Y-10128050D01*
X11628050Y-10038342D01*
X11628054Y-10038335D01*
X11685644Y-9925309D01*
X11685644Y-9925307D01*
X11685646Y-9925304D01*
X11705492Y-9800000D01*
X11685646Y-9674696D01*
X11685644Y-9674692D01*
X11685644Y-9674690D01*
X11628054Y-9561664D01*
X11628049Y-9561657D01*
X11538342Y-9471950D01*
X11538335Y-9471945D01*
X11425308Y-9414355D01*
X11425305Y-9414354D01*
X11425304Y-9414354D01*
X11300000Y-9394508D01*
X11299999Y-9394508D01*
X11254318Y-9401743D01*
X11217851Y-9392987D01*
X11198256Y-9361011D01*
X11198256Y-9345684D01*
X11205492Y-9300000D01*
X11185646Y-9174696D01*
X11185644Y-9174692D01*
X11185644Y-9174690D01*
X11128054Y-9061664D01*
X11128049Y-9061657D01*
X11038342Y-8971950D01*
X11038335Y-8971945D01*
X10925308Y-8914355D01*
X10925305Y-8914354D01*
X10925304Y-8914354D01*
X10800000Y-8894508D01*
X10674696Y-8914354D01*
X10674694Y-8914354D01*
X10674692Y-8914355D01*
X10674690Y-8914355D01*
X10561664Y-8971945D01*
X10561660Y-8971948D01*
X10505254Y-9028354D01*
X10470606Y-9042705D01*
X10435957Y-9028353D01*
X10425781Y-9013497D01*
X10424615Y-9010857D01*
X10349142Y-8935384D01*
X10251500Y-8892270D01*
X10251494Y-8892268D01*
X10227640Y-8889501D01*
X10227625Y-8889500D01*
X10227623Y-8889500D01*
X10227620Y-8889500D01*
X9772382Y-8889500D01*
X9772373Y-8889501D01*
X9748500Y-8892270D01*
X9748497Y-8892271D01*
X9720810Y-8904496D01*
X9683317Y-8905362D01*
X9656194Y-8879462D01*
X9655328Y-8841969D01*
X9666369Y-8825025D01*
X9751542Y-8739853D01*
X9786190Y-8725501D01*
X9834854Y-8725501D01*
X9834855Y-8725501D01*
X9862066Y-8714229D01*
X9880819Y-8710499D01*
X10227618Y-8710499D01*
X10227622Y-8710499D01*
X10251498Y-8707730D01*
X10349141Y-8664616D01*
X10424616Y-8589141D01*
X10467730Y-8491498D01*
X10467730Y-8491496D01*
X10467731Y-8491494D01*
X10470498Y-8467640D01*
X10470497Y-8467640D01*
X10470500Y-8467623D01*
X10470499Y-8112378D01*
X10467730Y-8088502D01*
X10424616Y-7990859D01*
X10424615Y-7990858D01*
X10424615Y-7990857D01*
X10349142Y-7915384D01*
X10251500Y-7872270D01*
X10251494Y-7872268D01*
X10227640Y-7869501D01*
X10227625Y-7869500D01*
X10227623Y-7869500D01*
X10227620Y-7869500D01*
X9772382Y-7869500D01*
X9772373Y-7869501D01*
X9748500Y-7872270D01*
X9650857Y-7915384D01*
X9575384Y-7990857D01*
X9538016Y-8075488D01*
X9510892Y-8101387D01*
X9485527Y-8104093D01*
X9425003Y-8094508D01*
X9299699Y-8114354D01*
X9299697Y-8114354D01*
X9299695Y-8114355D01*
X9299693Y-8114355D01*
X9186667Y-8171945D01*
X9186663Y-8171948D01*
X9186661Y-8171950D01*
X9147148Y-8211462D01*
X9112500Y-8225813D01*
X9077853Y-8211461D01*
X9038342Y-8171950D01*
X9038335Y-8171945D01*
X8925308Y-8114355D01*
X8925305Y-8114354D01*
X8925304Y-8114354D01*
X8800000Y-8094508D01*
X8674696Y-8114354D01*
X8674694Y-8114354D01*
X8674692Y-8114355D01*
X8674690Y-8114355D01*
X8561664Y-8171945D01*
X8561657Y-8171950D01*
X8534648Y-8198960D01*
X8500000Y-8213312D01*
X8465352Y-8198960D01*
X8438342Y-8171950D01*
X8438335Y-8171945D01*
X8325308Y-8114355D01*
X8325305Y-8114354D01*
X8325304Y-8114354D01*
X8200000Y-8094508D01*
X8199999Y-8094508D01*
X8180285Y-8097630D01*
X8145401Y-8089977D01*
X8141898Y-8087637D01*
X8141897Y-8087636D01*
X8086459Y-8064673D01*
X8049829Y-8049500D01*
X8049828Y-8049500D01*
X8016043Y-8049500D01*
X7981395Y-8035148D01*
X7971218Y-8020292D01*
X7952205Y-7977233D01*
X7872766Y-7897794D01*
X7872767Y-7897794D01*
X7769993Y-7852415D01*
X7744865Y-7849500D01*
X6824500Y-7849500D01*
X6789852Y-7835148D01*
X6775500Y-7800500D01*
X6775500Y-7734231D01*
X6775499Y-7734230D01*
X6754686Y-7656555D01*
X6736281Y-7587865D01*
X6736280Y-7587864D01*
X6736280Y-7587862D01*
X6660514Y-7456634D01*
X6553365Y-7349485D01*
X6422137Y-7273719D01*
X6422133Y-7273718D01*
X6275769Y-7234500D01*
X6275766Y-7234500D01*
X6124234Y-7234500D01*
X6124231Y-7234500D01*
X5977866Y-7273718D01*
X5977862Y-7273719D01*
X5846634Y-7349485D01*
X5846634Y-7349486D01*
X5739486Y-7456634D01*
X5739485Y-7456634D01*
X5663719Y-7587862D01*
X5663718Y-7587866D01*
X5624500Y-7734230D01*
X5624500Y-7885769D01*
X5663718Y-8032133D01*
X5663719Y-8032137D01*
X5739485Y-8163365D01*
X5846635Y-8270515D01*
X5883254Y-8291657D01*
X5977862Y-8346280D01*
X5977864Y-8346280D01*
X5977865Y-8346281D01*
X6073664Y-8371950D01*
X6124230Y-8385499D01*
X6124231Y-8385500D01*
X6124234Y-8385500D01*
X6275769Y-8385500D01*
X6275769Y-8385499D01*
X6422135Y-8346281D01*
X6476001Y-8315180D01*
X6513181Y-8310285D01*
X6542935Y-8333115D01*
X6549500Y-8357616D01*
X6549500Y-8494858D01*
X6549501Y-8494868D01*
X6552415Y-8519992D01*
X6597794Y-8622766D01*
X6615288Y-8640259D01*
X6629641Y-8674907D01*
X6615292Y-8709553D01*
X6612424Y-8712420D01*
X6562583Y-8787013D01*
X6560000Y-8800000D01*
X6550596Y-8847282D01*
X6549500Y-8852791D01*
X6549500Y-9047208D01*
X6562583Y-9112986D01*
X6562584Y-9112989D01*
X6602533Y-9172778D01*
X6609849Y-9209560D01*
X6602533Y-9227222D01*
X6562583Y-9287012D01*
X6549500Y-9352791D01*
X6549500Y-9547208D01*
X6562583Y-9612986D01*
X6602533Y-9672776D01*
X6609849Y-9709559D01*
X6602534Y-9727221D01*
X6593174Y-9741230D01*
X6575824Y-9755470D01*
X6576278Y-9756149D01*
X6572262Y-9758832D01*
X6387264Y-9943831D01*
X6323831Y-10007262D01*
X6323831Y-10007263D01*
X6317120Y-10023465D01*
X6289499Y-10090144D01*
X6289499Y-10185556D01*
X6289500Y-10185565D01*
X6289500Y-10656188D01*
X6289499Y-10656202D01*
X6289499Y-10749856D01*
X6313774Y-10808460D01*
X6323830Y-10832737D01*
X6387264Y-10896170D01*
X6387266Y-10896172D01*
X6396560Y-10905467D01*
X6410910Y-10940116D01*
X6396560Y-10974759D01*
X6387267Y-10984053D01*
X6387264Y-10984056D01*
X6323829Y-11047489D01*
X6322320Y-11049748D01*
X6316229Y-11057169D01*
X4687265Y-12686134D01*
X4687264Y-12686135D01*
X4623831Y-12749566D01*
X4619716Y-12759502D01*
X4589499Y-12832448D01*
X4589499Y-12927860D01*
X4589500Y-12927869D01*
X4589500Y-15406298D01*
X4575148Y-15440946D01*
X3027001Y-16989092D01*
X2992353Y-17003444D01*
X2969255Y-16997658D01*
X2919736Y-16971190D01*
X2919729Y-16971187D01*
X2919727Y-16971186D01*
X2821849Y-16941495D01*
X2731132Y-16913976D01*
X2535000Y-16894659D01*
X2338867Y-16913976D01*
X2338866Y-16913976D01*
X2150273Y-16971185D01*
X1976458Y-17064092D01*
X1976455Y-17064094D01*
X1824117Y-17189117D01*
X1699094Y-17341455D01*
X1699092Y-17341458D01*
X1606185Y-17515273D01*
X1548976Y-17703866D01*
X1548976Y-17703867D01*
X1529659Y-17899999D01*
X400500Y-17899999D01*
X400500Y-3001375D01*
X400539Y-2999998D01*
X1094645Y-2999998D01*
X1094645Y-3000001D01*
X1114038Y-3271153D01*
X1114040Y-3271168D01*
X1165705Y-3508668D01*
X1171825Y-3536801D01*
X1231253Y-3696132D01*
X1266830Y-3791518D01*
X1397109Y-4030108D01*
X1397112Y-4030112D01*
X1560026Y-4247740D01*
X1752259Y-4439973D01*
X1969887Y-4602887D01*
X1969891Y-4602890D01*
X2208481Y-4733169D01*
X2208482Y-4733169D01*
X2208487Y-4733172D01*
X2463199Y-4828175D01*
X2728840Y-4885961D01*
X2932210Y-4900506D01*
X2999998Y-4905355D01*
X3000000Y-4905355D01*
X3000002Y-4905355D01*
X3060257Y-4901045D01*
X3271160Y-4885961D01*
X3536801Y-4828175D01*
X3791513Y-4733172D01*
X4030113Y-4602887D01*
X4222985Y-4458504D01*
X4247740Y-4439973D01*
X4439973Y-4247740D01*
X4554455Y-4094810D01*
X4602887Y-4030113D01*
X4733172Y-3791513D01*
X4828175Y-3536801D01*
X4885961Y-3271160D01*
X4905355Y-3000000D01*
X4885961Y-2728840D01*
X4865586Y-2635176D01*
X7124500Y-2635176D01*
X7124500Y-4364823D01*
X7133232Y-4408721D01*
X7166495Y-4458504D01*
X7207681Y-4486023D01*
X7216278Y-4491767D01*
X7260180Y-4500500D01*
X8989820Y-4500500D01*
X9033722Y-4491767D01*
X9083504Y-4458504D01*
X9116767Y-4408722D01*
X9125500Y-4364820D01*
X9125500Y-3499999D01*
X9659659Y-3499999D01*
X9659659Y-3500000D01*
X9678976Y-3696132D01*
X9678976Y-3696133D01*
X9736185Y-3884726D01*
X9829092Y-4058541D01*
X9829094Y-4058544D01*
X9884408Y-4125943D01*
X9954117Y-4210883D01*
X9999030Y-4247742D01*
X10106455Y-4335905D01*
X10106458Y-4335907D01*
X10106462Y-4335910D01*
X10280273Y-4428814D01*
X10468868Y-4486024D01*
X10665000Y-4505341D01*
X10861132Y-4486024D01*
X11049727Y-4428814D01*
X11223538Y-4335910D01*
X11375883Y-4210883D01*
X11500910Y-4058538D01*
X11593814Y-3884727D01*
X11651024Y-3696132D01*
X11670341Y-3500000D01*
X11651024Y-3303868D01*
X11593814Y-3115273D01*
X11500910Y-2941462D01*
X11500907Y-2941458D01*
X11500905Y-2941455D01*
X11447537Y-2876427D01*
X11375883Y-2789117D01*
X11302425Y-2728831D01*
X11223544Y-2664094D01*
X11223541Y-2664092D01*
X11223539Y-2664091D01*
X11223538Y-2664090D01*
X11108901Y-2602815D01*
X11049726Y-2571185D01*
X10861132Y-2513976D01*
X10665000Y-2494659D01*
X10468867Y-2513976D01*
X10468866Y-2513976D01*
X10280273Y-2571185D01*
X10106458Y-2664092D01*
X10106455Y-2664094D01*
X9954117Y-2789117D01*
X9829094Y-2941455D01*
X9829092Y-2941458D01*
X9736185Y-3115273D01*
X9678976Y-3303866D01*
X9678976Y-3303867D01*
X9659659Y-3499999D01*
X9125500Y-3499999D01*
X9125500Y-2635180D01*
X9116767Y-2591278D01*
X9103342Y-2571186D01*
X9083504Y-2541495D01*
X9033721Y-2508232D01*
X8989823Y-2499500D01*
X8989820Y-2499500D01*
X7260180Y-2499500D01*
X7260176Y-2499500D01*
X7216278Y-2508232D01*
X7166495Y-2541495D01*
X7133232Y-2591278D01*
X7124500Y-2635176D01*
X4865586Y-2635176D01*
X4828175Y-2463199D01*
X4733172Y-2208487D01*
X4695172Y-2138895D01*
X4602890Y-1969891D01*
X4602887Y-1969887D01*
X4439973Y-1752259D01*
X4417848Y-1730134D01*
X13749500Y-1730134D01*
X13749500Y-2994858D01*
X13749501Y-2994868D01*
X13752415Y-3019992D01*
X13797794Y-3122766D01*
X13877233Y-3202205D01*
X13877234Y-3202205D01*
X13877235Y-3202206D01*
X13931901Y-3226343D01*
X13957800Y-3253467D01*
X13956934Y-3290960D01*
X13955769Y-3293413D01*
X13914354Y-3374694D01*
X13898114Y-3477233D01*
X13894508Y-3500000D01*
X13914354Y-3625304D01*
X13914354Y-3625305D01*
X13914355Y-3625307D01*
X13914355Y-3625309D01*
X13971945Y-3738335D01*
X13971950Y-3738342D01*
X14061657Y-3828049D01*
X14061664Y-3828054D01*
X14174691Y-3885644D01*
X14174692Y-3885644D01*
X14174696Y-3885646D01*
X14300000Y-3905492D01*
X14425304Y-3885646D01*
X14425308Y-3885644D01*
X14425309Y-3885644D01*
X14538335Y-3828054D01*
X14538337Y-3828052D01*
X14538342Y-3828050D01*
X14628050Y-3738342D01*
X14649557Y-3696133D01*
X14685644Y-3625309D01*
X14685644Y-3625307D01*
X14685646Y-3625304D01*
X14705492Y-3500000D01*
X14685646Y-3374696D01*
X14685644Y-3374692D01*
X14685644Y-3374690D01*
X14628054Y-3261664D01*
X14628049Y-3261657D01*
X14580329Y-3213937D01*
X14565977Y-3179289D01*
X14580328Y-3144642D01*
X14602206Y-3122765D01*
X14647585Y-3019991D01*
X14650500Y-2994865D01*
X14650499Y-1730136D01*
X14650499Y-1730134D01*
X17149500Y-1730134D01*
X17149500Y-2994858D01*
X17149501Y-2994868D01*
X17152415Y-3019992D01*
X17197794Y-3122766D01*
X17269669Y-3194641D01*
X17284021Y-3229289D01*
X17272466Y-3257273D01*
X17274214Y-3258543D01*
X17271945Y-3261664D01*
X17214355Y-3374690D01*
X17214355Y-3374692D01*
X17214354Y-3374694D01*
X17214354Y-3374696D01*
X17194508Y-3500000D01*
X17214354Y-3625304D01*
X17214354Y-3625305D01*
X17214355Y-3625307D01*
X17214355Y-3625309D01*
X17271945Y-3738335D01*
X17271950Y-3738342D01*
X17361657Y-3828049D01*
X17361664Y-3828054D01*
X17474691Y-3885644D01*
X17474692Y-3885644D01*
X17474696Y-3885646D01*
X17600000Y-3905492D01*
X17725304Y-3885646D01*
X17725308Y-3885644D01*
X17725309Y-3885644D01*
X17838335Y-3828054D01*
X17838337Y-3828052D01*
X17838342Y-3828050D01*
X17928050Y-3738342D01*
X17949557Y-3696133D01*
X17985644Y-3625309D01*
X17985644Y-3625307D01*
X17985646Y-3625304D01*
X18005492Y-3500000D01*
X17985646Y-3374696D01*
X17985644Y-3374692D01*
X17985644Y-3374690D01*
X17928054Y-3261664D01*
X17925786Y-3258543D01*
X17927560Y-3257253D01*
X17915978Y-3229290D01*
X17930330Y-3194642D01*
X18002205Y-3122766D01*
X18002206Y-3122765D01*
X18047585Y-3019991D01*
X18050500Y-2994865D01*
X18050499Y-1730136D01*
X18050499Y-1730134D01*
X20549500Y-1730134D01*
X20549500Y-2994858D01*
X20549501Y-2994868D01*
X20552415Y-3019992D01*
X20597794Y-3122766D01*
X20669669Y-3194641D01*
X20684021Y-3229289D01*
X20672466Y-3257273D01*
X20674214Y-3258543D01*
X20671945Y-3261664D01*
X20614355Y-3374690D01*
X20614355Y-3374692D01*
X20614354Y-3374694D01*
X20614354Y-3374696D01*
X20594508Y-3500000D01*
X20614354Y-3625304D01*
X20614354Y-3625305D01*
X20614355Y-3625307D01*
X20614355Y-3625309D01*
X20671945Y-3738335D01*
X20671950Y-3738342D01*
X20761657Y-3828049D01*
X20761664Y-3828054D01*
X20874691Y-3885644D01*
X20874692Y-3885644D01*
X20874696Y-3885646D01*
X21000000Y-3905492D01*
X21125304Y-3885646D01*
X21125308Y-3885644D01*
X21125309Y-3885644D01*
X21238335Y-3828054D01*
X21238337Y-3828052D01*
X21238342Y-3828050D01*
X21328050Y-3738342D01*
X21349557Y-3696133D01*
X21385644Y-3625309D01*
X21385644Y-3625307D01*
X21385646Y-3625304D01*
X21405492Y-3500000D01*
X21385646Y-3374696D01*
X21385644Y-3374692D01*
X21385644Y-3374690D01*
X21328054Y-3261664D01*
X21325786Y-3258543D01*
X21327560Y-3257253D01*
X21315978Y-3229290D01*
X21330330Y-3194642D01*
X21402205Y-3122766D01*
X21402206Y-3122765D01*
X21447585Y-3019991D01*
X21450500Y-2994865D01*
X21450499Y-1730136D01*
X21450499Y-1730134D01*
X23949500Y-1730134D01*
X23949500Y-2994858D01*
X23949501Y-2994868D01*
X23952415Y-3019992D01*
X23997794Y-3122766D01*
X24069669Y-3194641D01*
X24084021Y-3229289D01*
X24072466Y-3257273D01*
X24074214Y-3258543D01*
X24071945Y-3261664D01*
X24014355Y-3374690D01*
X24014355Y-3374692D01*
X24014354Y-3374694D01*
X24014354Y-3374696D01*
X23994508Y-3500000D01*
X24014354Y-3625304D01*
X24014354Y-3625305D01*
X24014355Y-3625307D01*
X24014355Y-3625309D01*
X24071945Y-3738335D01*
X24071950Y-3738342D01*
X24161657Y-3828049D01*
X24161664Y-3828054D01*
X24274691Y-3885644D01*
X24274692Y-3885644D01*
X24274696Y-3885646D01*
X24400000Y-3905492D01*
X24525304Y-3885646D01*
X24525308Y-3885644D01*
X24525309Y-3885644D01*
X24638335Y-3828054D01*
X24638337Y-3828052D01*
X24638342Y-3828050D01*
X24728050Y-3738342D01*
X24749557Y-3696133D01*
X24785644Y-3625309D01*
X24785644Y-3625307D01*
X24785646Y-3625304D01*
X24805492Y-3500000D01*
X24785646Y-3374696D01*
X24785644Y-3374692D01*
X24785644Y-3374690D01*
X24728054Y-3261664D01*
X24725786Y-3258543D01*
X24727560Y-3257253D01*
X24715978Y-3229290D01*
X24730330Y-3194642D01*
X24802205Y-3122766D01*
X24802206Y-3122765D01*
X24847585Y-3019991D01*
X24850500Y-2994865D01*
X24850499Y-1730136D01*
X24850499Y-1730134D01*
X27349500Y-1730134D01*
X27349500Y-2994858D01*
X27349501Y-2994868D01*
X27352415Y-3019992D01*
X27397794Y-3122766D01*
X27469669Y-3194641D01*
X27484021Y-3229289D01*
X27472466Y-3257273D01*
X27474214Y-3258543D01*
X27471945Y-3261664D01*
X27414355Y-3374690D01*
X27414355Y-3374692D01*
X27414354Y-3374694D01*
X27414354Y-3374696D01*
X27394508Y-3500000D01*
X27414354Y-3625304D01*
X27414354Y-3625305D01*
X27414355Y-3625307D01*
X27414355Y-3625309D01*
X27471945Y-3738335D01*
X27471950Y-3738342D01*
X27561657Y-3828049D01*
X27561664Y-3828054D01*
X27674691Y-3885644D01*
X27674692Y-3885644D01*
X27674696Y-3885646D01*
X27800000Y-3905492D01*
X27925304Y-3885646D01*
X27925308Y-3885644D01*
X27925309Y-3885644D01*
X28038335Y-3828054D01*
X28038337Y-3828052D01*
X28038342Y-3828050D01*
X28128050Y-3738342D01*
X28149557Y-3696133D01*
X28185644Y-3625309D01*
X28185644Y-3625307D01*
X28185646Y-3625304D01*
X28205492Y-3500000D01*
X28185646Y-3374696D01*
X28185644Y-3374692D01*
X28185644Y-3374690D01*
X28128054Y-3261664D01*
X28125786Y-3258543D01*
X28127560Y-3257253D01*
X28115978Y-3229290D01*
X28130330Y-3194642D01*
X28202205Y-3122766D01*
X28202206Y-3122765D01*
X28247585Y-3019991D01*
X28250500Y-2994865D01*
X28250499Y-1730136D01*
X28247585Y-1705009D01*
X28202206Y-1602235D01*
X28202205Y-1602234D01*
X28202205Y-1602233D01*
X28122766Y-1522794D01*
X28122767Y-1522794D01*
X28019993Y-1477415D01*
X28007428Y-1475957D01*
X27994865Y-1474500D01*
X27994863Y-1474500D01*
X27605141Y-1474500D01*
X27605131Y-1474501D01*
X27580007Y-1477415D01*
X27477233Y-1522794D01*
X27397794Y-1602233D01*
X27352415Y-1705006D01*
X27349500Y-1730134D01*
X24850499Y-1730134D01*
X24847585Y-1705009D01*
X24802206Y-1602235D01*
X24802205Y-1602234D01*
X24802205Y-1602233D01*
X24722766Y-1522794D01*
X24722767Y-1522794D01*
X24619993Y-1477415D01*
X24607428Y-1475957D01*
X24594865Y-1474500D01*
X24594863Y-1474500D01*
X24205141Y-1474500D01*
X24205131Y-1474501D01*
X24180007Y-1477415D01*
X24077233Y-1522794D01*
X23997794Y-1602233D01*
X23952415Y-1705006D01*
X23949500Y-1730134D01*
X21450499Y-1730134D01*
X21447585Y-1705009D01*
X21402206Y-1602235D01*
X21402205Y-1602234D01*
X21402205Y-1602233D01*
X21322766Y-1522794D01*
X21322767Y-1522794D01*
X21219993Y-1477415D01*
X21207428Y-1475957D01*
X21194865Y-1474500D01*
X21194863Y-1474500D01*
X20805141Y-1474500D01*
X20805131Y-1474501D01*
X20780007Y-1477415D01*
X20677233Y-1522794D01*
X20597794Y-1602233D01*
X20552415Y-1705006D01*
X20549500Y-1730134D01*
X18050499Y-1730134D01*
X18047585Y-1705009D01*
X18002206Y-1602235D01*
X18002205Y-1602234D01*
X18002205Y-1602233D01*
X17922766Y-1522794D01*
X17922767Y-1522794D01*
X17819993Y-1477415D01*
X17807428Y-1475957D01*
X17794865Y-1474500D01*
X17794863Y-1474500D01*
X17405141Y-1474500D01*
X17405131Y-1474501D01*
X17380007Y-1477415D01*
X17277233Y-1522794D01*
X17197794Y-1602233D01*
X17152415Y-1705006D01*
X17149500Y-1730134D01*
X14650499Y-1730134D01*
X14647585Y-1705009D01*
X14602206Y-1602235D01*
X14602205Y-1602234D01*
X14602205Y-1602233D01*
X14522766Y-1522794D01*
X14522767Y-1522794D01*
X14419993Y-1477415D01*
X14407428Y-1475957D01*
X14394865Y-1474500D01*
X14394863Y-1474500D01*
X14005141Y-1474500D01*
X14005131Y-1474501D01*
X13980007Y-1477415D01*
X13877233Y-1522794D01*
X13797794Y-1602233D01*
X13752415Y-1705006D01*
X13749500Y-1730134D01*
X4417848Y-1730134D01*
X4247740Y-1560026D01*
X4030112Y-1397112D01*
X4030108Y-1397109D01*
X3791518Y-1266830D01*
X3791513Y-1266828D01*
X3536801Y-1171825D01*
X3482635Y-1160042D01*
X3271168Y-1114040D01*
X3271153Y-1114038D01*
X3000002Y-1094645D01*
X2999998Y-1094645D01*
X2728846Y-1114038D01*
X2728831Y-1114040D01*
X2463203Y-1171824D01*
X2463202Y-1171824D01*
X2463199Y-1171825D01*
X2291510Y-1235861D01*
X2208481Y-1266830D01*
X1969891Y-1397109D01*
X1969887Y-1397112D01*
X1752259Y-1560026D01*
X1560026Y-1752259D01*
X1397112Y-1969887D01*
X1397109Y-1969891D01*
X1266830Y-2208481D01*
X1266828Y-2208487D01*
X1187495Y-2421188D01*
X1171824Y-2463203D01*
X1114040Y-2728831D01*
X1114038Y-2728846D01*
X1094645Y-2999998D01*
X400539Y-2999998D01*
X400577Y-2998628D01*
X403787Y-2941462D01*
X416691Y-2711688D01*
X417303Y-2706247D01*
X465216Y-2424257D01*
X466434Y-2418919D01*
X545614Y-2144078D01*
X547429Y-2138895D01*
X598430Y-2015768D01*
X656878Y-1874659D01*
X659261Y-1869712D01*
X797619Y-1619372D01*
X800513Y-1614764D01*
X966057Y-1381452D01*
X969448Y-1377202D01*
X1160052Y-1163916D01*
X1163916Y-1160052D01*
X1377202Y-969448D01*
X1381452Y-966057D01*
X1614764Y-800513D01*
X1619372Y-797619D01*
X1869716Y-659258D01*
X1874659Y-656878D01*
X2138897Y-547428D01*
X2144081Y-545614D01*
X2418919Y-466434D01*
X2424257Y-465216D01*
X2706247Y-417303D01*
X2711688Y-416691D01*
X2998629Y-400577D01*
X3001376Y-400500D01*
X3057583Y-400500D01*
X46942417Y-400500D01*
X46998624Y-400500D01*
X47001371Y-400577D01*
G37*
G04 #@! TD.AperFunction*
G04 #@! TD*
M02*
