G04 #@! TF.GenerationSoftware,KiCad,Pcbnew,9.0.0*
G04 #@! TF.CreationDate,2025-06-25T20:27:50-04:00*
G04 #@! TF.ProjectId,rp24-usb-tester,72703234-2d75-4736-922d-746573746572,v0.3.3*
G04 #@! TF.SameCoordinates,Original*
G04 #@! TF.FileFunction,Legend,Top*
G04 #@! TF.FilePolarity,Positive*
%FSLAX46Y46*%
G04 Gerber Fmt 4.6, Leading zero omitted, Abs format (unit mm)*
G04 Created by KiCad (PCBNEW 9.0.0) date 2025-06-25 20:27:50*
%MOMM*%
%LPD*%
G01*
G04 APERTURE LIST*
%ADD10C,0.150000*%
%ADD11C,0.200000*%
%ADD12C,0.120000*%
G04 APERTURE END LIST*
D10*
X14500000Y-5500000D02*
X34500000Y-5500000D01*
X34500000Y-14500000D01*
X14500000Y-14500000D01*
X14500000Y-5500000D01*
D11*
G36*
X30270595Y-1125882D02*
G01*
X30504213Y-1125882D01*
X30504213Y-867962D01*
X30694478Y-867962D01*
X30694478Y-1125882D01*
X30928096Y-1125882D01*
X30928096Y-1301737D01*
X30694478Y-1301737D01*
X30694478Y-1559658D01*
X30504213Y-1559658D01*
X30504213Y-1301737D01*
X30270595Y-1301737D01*
X30270595Y-1125882D01*
G37*
G36*
X31885406Y-1649539D02*
G01*
X31789382Y-1643514D01*
X31707280Y-1626505D01*
X31636979Y-1599669D01*
X31576712Y-1563530D01*
X31525148Y-1517953D01*
X31482548Y-1463902D01*
X31448534Y-1401015D01*
X31423171Y-1327944D01*
X31407075Y-1242984D01*
X31401378Y-1144139D01*
X31405821Y-1064594D01*
X31418600Y-993348D01*
X31439114Y-929328D01*
X31467958Y-868617D01*
X31502468Y-815677D01*
X31542672Y-769715D01*
X31589022Y-730000D01*
X31641036Y-697144D01*
X31699354Y-670980D01*
X31760826Y-652529D01*
X31826388Y-641249D01*
X31896641Y-637397D01*
X31956748Y-639782D01*
X32008566Y-646495D01*
X32096676Y-667500D01*
X32159630Y-691985D01*
X32196022Y-711585D01*
X32133069Y-886280D01*
X32085975Y-864747D01*
X32028838Y-845675D01*
X31967087Y-833300D01*
X31893833Y-828883D01*
X31844070Y-833095D01*
X31795159Y-845797D01*
X31749853Y-867666D01*
X31709796Y-899958D01*
X31677084Y-941605D01*
X31650323Y-996372D01*
X31633991Y-1059117D01*
X31627974Y-1139926D01*
X31631743Y-1206131D01*
X31642629Y-1265956D01*
X31662224Y-1321028D01*
X31690195Y-1366584D01*
X31727691Y-1404019D01*
X31776291Y-1433445D01*
X31832978Y-1451495D01*
X31905007Y-1458053D01*
X31990309Y-1452496D01*
X32057475Y-1439185D01*
X32109255Y-1421660D01*
X32149860Y-1403464D01*
X32210005Y-1576755D01*
X32158447Y-1601742D01*
X32079885Y-1627130D01*
X31992332Y-1643579D01*
X31885406Y-1649539D01*
G37*
G36*
X32979431Y-867107D02*
G01*
X33072427Y-1090162D01*
X33168292Y-1340511D01*
X33271790Y-1630000D01*
X33038171Y-1630000D01*
X33003855Y-1527051D01*
X32966853Y-1418974D01*
X32589070Y-1418974D01*
X32552006Y-1526929D01*
X32517751Y-1630000D01*
X32291094Y-1630000D01*
X32394653Y-1340511D01*
X32430428Y-1247027D01*
X32639445Y-1247027D01*
X32915073Y-1247027D01*
X32871659Y-1127103D01*
X32831786Y-1022445D01*
X32798936Y-938243D01*
X32776587Y-880479D01*
X32755582Y-937876D01*
X32723403Y-1022201D01*
X32683531Y-1126920D01*
X32639445Y-1247027D01*
X32430428Y-1247027D01*
X32490457Y-1090162D01*
X32582781Y-867107D01*
X32677242Y-660844D01*
X32885703Y-660844D01*
X32979431Y-867107D01*
G37*
G36*
X33800291Y-654825D02*
G01*
X33890606Y-670513D01*
X33963589Y-694437D01*
X34022165Y-725446D01*
X34062955Y-758802D01*
X34094735Y-799170D01*
X34118145Y-847557D01*
X34133001Y-905573D01*
X34138302Y-975307D01*
X34132953Y-1045523D01*
X34117946Y-1104075D01*
X34094269Y-1153037D01*
X34062093Y-1194005D01*
X34020760Y-1227976D01*
X33961431Y-1259577D01*
X33887715Y-1283917D01*
X33796707Y-1299855D01*
X33685049Y-1305645D01*
X33616477Y-1305645D01*
X33616477Y-1630000D01*
X33398246Y-1630000D01*
X33398246Y-840851D01*
X33616477Y-840851D01*
X33616477Y-1118066D01*
X33685049Y-1118066D01*
X33760703Y-1113961D01*
X33816094Y-1103188D01*
X33855713Y-1087597D01*
X33880144Y-1069726D01*
X33897757Y-1045848D01*
X33909001Y-1014640D01*
X33913110Y-973902D01*
X33909155Y-935966D01*
X33898395Y-907407D01*
X33880700Y-883760D01*
X33856446Y-865092D01*
X33827140Y-851907D01*
X33789951Y-842927D01*
X33703245Y-836699D01*
X33656350Y-838103D01*
X33616477Y-840851D01*
X33398246Y-840851D01*
X33398246Y-674277D01*
X33470750Y-662521D01*
X33549311Y-654738D01*
X33689262Y-649120D01*
X33800291Y-654825D01*
G37*
G36*
X34557179Y-1118066D02*
G01*
X34962866Y-1118066D01*
X34962866Y-1305645D01*
X34557179Y-1305645D01*
X34557179Y-1118066D01*
G37*
G36*
X32803664Y-23164054D02*
G01*
X32888294Y-23125280D01*
X32974329Y-23077287D01*
X33054807Y-23022271D01*
X33091663Y-22992166D01*
X33124049Y-22960844D01*
X33269557Y-22960844D01*
X33269557Y-23930000D01*
X33061096Y-23930000D01*
X33061096Y-23234396D01*
X33017400Y-23260467D01*
X32967368Y-23284893D01*
X32866617Y-23324277D01*
X32803664Y-23164054D01*
G37*
G36*
X33597942Y-23164054D02*
G01*
X33682572Y-23125280D01*
X33768606Y-23077287D01*
X33849084Y-23022271D01*
X33885941Y-22992166D01*
X33918327Y-22960844D01*
X34063835Y-22960844D01*
X34063835Y-23930000D01*
X33855374Y-23930000D01*
X33855374Y-23234396D01*
X33811677Y-23260467D01*
X33761645Y-23284893D01*
X33660895Y-23324277D01*
X33597942Y-23164054D01*
G37*
G36*
X33064803Y-18725882D02*
G01*
X33298421Y-18725882D01*
X33298421Y-18467962D01*
X33488686Y-18467962D01*
X33488686Y-18725882D01*
X33722304Y-18725882D01*
X33722304Y-18901737D01*
X33488686Y-18901737D01*
X33488686Y-19159658D01*
X33298421Y-19159658D01*
X33298421Y-18901737D01*
X33064803Y-18901737D01*
X33064803Y-18725882D01*
G37*
G36*
X34190640Y-19230000D02*
G01*
X34077250Y-18976536D01*
X33970944Y-18716113D01*
X33877948Y-18469794D01*
X33804492Y-18260844D01*
X34045132Y-18260844D01*
X34105949Y-18441095D01*
X34173116Y-18634841D01*
X34239611Y-18819610D01*
X34299756Y-18972568D01*
X34359168Y-18819183D01*
X34426334Y-18634841D01*
X34493501Y-18441095D01*
X34554379Y-18260844D01*
X34786593Y-18260844D01*
X34712465Y-18470038D01*
X34620141Y-18716113D01*
X34513773Y-18976536D01*
X34400506Y-19230000D01*
X34190640Y-19230000D01*
G37*
G36*
X35319531Y-19249539D02*
G01*
X35223507Y-19243514D01*
X35141404Y-19226505D01*
X35071103Y-19199669D01*
X35010836Y-19163530D01*
X34959272Y-19117953D01*
X34916672Y-19063902D01*
X34882658Y-19001015D01*
X34857296Y-18927944D01*
X34841199Y-18842984D01*
X34835502Y-18744139D01*
X34839945Y-18664594D01*
X34852724Y-18593348D01*
X34873238Y-18529328D01*
X34902082Y-18468617D01*
X34936593Y-18415677D01*
X34976797Y-18369715D01*
X35023146Y-18330000D01*
X35075161Y-18297144D01*
X35133479Y-18270980D01*
X35194950Y-18252529D01*
X35260512Y-18241249D01*
X35330766Y-18237397D01*
X35390872Y-18239782D01*
X35442690Y-18246495D01*
X35530801Y-18267500D01*
X35593754Y-18291985D01*
X35630146Y-18311585D01*
X35567193Y-18486280D01*
X35520099Y-18464747D01*
X35462962Y-18445675D01*
X35401212Y-18433300D01*
X35327957Y-18428883D01*
X35278194Y-18433095D01*
X35229283Y-18445797D01*
X35183977Y-18467666D01*
X35143920Y-18499958D01*
X35111209Y-18541605D01*
X35084447Y-18596372D01*
X35068115Y-18659117D01*
X35062099Y-18739926D01*
X35065868Y-18806131D01*
X35076753Y-18865956D01*
X35096348Y-18921028D01*
X35124319Y-18966584D01*
X35161816Y-19004019D01*
X35210415Y-19033445D01*
X35267102Y-19051495D01*
X35339131Y-19058053D01*
X35424433Y-19052496D01*
X35491600Y-19039185D01*
X35543379Y-19021660D01*
X35583984Y-19003464D01*
X35644129Y-19176755D01*
X35592571Y-19201742D01*
X35514009Y-19227130D01*
X35426456Y-19243579D01*
X35319531Y-19249539D01*
G37*
G36*
X36190989Y-19249539D02*
G01*
X36094965Y-19243514D01*
X36012863Y-19226505D01*
X35942561Y-19199669D01*
X35882294Y-19163530D01*
X35830731Y-19117953D01*
X35788131Y-19063902D01*
X35754117Y-19001015D01*
X35728754Y-18927944D01*
X35712658Y-18842984D01*
X35706961Y-18744139D01*
X35711404Y-18664594D01*
X35724182Y-18593348D01*
X35744696Y-18529328D01*
X35773540Y-18468617D01*
X35808051Y-18415677D01*
X35848255Y-18369715D01*
X35894604Y-18330000D01*
X35946619Y-18297144D01*
X36004937Y-18270980D01*
X36066409Y-18252529D01*
X36131970Y-18241249D01*
X36202224Y-18237397D01*
X36262330Y-18239782D01*
X36314148Y-18246495D01*
X36402259Y-18267500D01*
X36465213Y-18291985D01*
X36501605Y-18311585D01*
X36438651Y-18486280D01*
X36391558Y-18464747D01*
X36334421Y-18445675D01*
X36272670Y-18433300D01*
X36199415Y-18428883D01*
X36149653Y-18433095D01*
X36100741Y-18445797D01*
X36055436Y-18467666D01*
X36015378Y-18499958D01*
X35982667Y-18541605D01*
X35955905Y-18596372D01*
X35939573Y-18659117D01*
X35933557Y-18739926D01*
X35937326Y-18806131D01*
X35948212Y-18865956D01*
X35967807Y-18921028D01*
X35995778Y-18966584D01*
X36033274Y-19004019D01*
X36081874Y-19033445D01*
X36138560Y-19051495D01*
X36210589Y-19058053D01*
X36295891Y-19052496D01*
X36363058Y-19039185D01*
X36414838Y-19021660D01*
X36455443Y-19003464D01*
X36515588Y-19176755D01*
X36464030Y-19201742D01*
X36385467Y-19227130D01*
X36297915Y-19243579D01*
X36190989Y-19249539D01*
G37*
G36*
X36562971Y-18718066D02*
G01*
X36968658Y-18718066D01*
X36968658Y-18905645D01*
X36562971Y-18905645D01*
X36562971Y-18718066D01*
G37*
G36*
X11222540Y-18467107D02*
G01*
X11315535Y-18690162D01*
X11411401Y-18940511D01*
X11514898Y-19230000D01*
X11281280Y-19230000D01*
X11246964Y-19127051D01*
X11209961Y-19018974D01*
X10832179Y-19018974D01*
X10795115Y-19126929D01*
X10760860Y-19230000D01*
X10534202Y-19230000D01*
X10637761Y-18940511D01*
X10673536Y-18847027D01*
X10882554Y-18847027D01*
X11158182Y-18847027D01*
X11114768Y-18727103D01*
X11074895Y-18622445D01*
X11042044Y-18538243D01*
X11019696Y-18480479D01*
X10998691Y-18537876D01*
X10966512Y-18622201D01*
X10926640Y-18726920D01*
X10882554Y-18847027D01*
X10673536Y-18847027D01*
X10733566Y-18690162D01*
X10825889Y-18467107D01*
X10920350Y-18260844D01*
X11128812Y-18260844D01*
X11222540Y-18467107D01*
G37*
G36*
X11992149Y-19249539D02*
G01*
X11924463Y-19246070D01*
X11866126Y-19236278D01*
X11815867Y-19220901D01*
X11768354Y-19198752D01*
X11727809Y-19172166D01*
X11693440Y-19141156D01*
X11664272Y-19105235D01*
X11640531Y-19064872D01*
X11622121Y-19019523D01*
X11605010Y-18946547D01*
X11599040Y-18863574D01*
X11599040Y-18260844D01*
X11817271Y-18260844D01*
X11817271Y-18846294D01*
X11820853Y-18902718D01*
X11830521Y-18946434D01*
X11846790Y-18984824D01*
X11866913Y-19013661D01*
X11892483Y-19035888D01*
X11922906Y-19050786D01*
X11956802Y-19059082D01*
X11994958Y-19061960D01*
X12046107Y-19056195D01*
X12088593Y-19039790D01*
X12124345Y-19012929D01*
X12144308Y-18987205D01*
X12159814Y-18952529D01*
X12170186Y-18906536D01*
X12174049Y-18846294D01*
X12174049Y-18260844D01*
X12392280Y-18260844D01*
X12392280Y-18863574D01*
X12386139Y-18946602D01*
X12368466Y-19020195D01*
X12349579Y-19065990D01*
X12325368Y-19106590D01*
X12295743Y-19142561D01*
X12260896Y-19173462D01*
X12219678Y-19199809D01*
X12171240Y-19221573D01*
X12120136Y-19236584D01*
X12060857Y-19246150D01*
X11992149Y-19249539D01*
G37*
G36*
X13159508Y-19230000D02*
G01*
X13070664Y-19066601D01*
X13017767Y-18989148D01*
X12958374Y-18925795D01*
X12909098Y-18986673D01*
X12849380Y-19069471D01*
X12792960Y-19158497D01*
X12753759Y-19230000D01*
X12504754Y-19230000D01*
X12570458Y-19116982D01*
X12649468Y-18996015D01*
X12834970Y-18739132D01*
X12518737Y-18260844D01*
X12783191Y-18260844D01*
X12967899Y-18541479D01*
X13156699Y-18260844D01*
X13405704Y-18260844D01*
X13091059Y-18728569D01*
X13207750Y-18881592D01*
X13295185Y-19012929D01*
X13421092Y-19230000D01*
X13159508Y-19230000D01*
G37*
G36*
X13754483Y-19249539D02*
G01*
X13674738Y-19244654D01*
X13593588Y-19231526D01*
X13522269Y-19213574D01*
X13471894Y-19195561D01*
X13512439Y-19023309D01*
X13605495Y-19056221D01*
X13665763Y-19068907D01*
X13746118Y-19073684D01*
X13809739Y-19068811D01*
X13855357Y-19056020D01*
X13887412Y-19037170D01*
X13912190Y-19010149D01*
X13927003Y-18977934D01*
X13932170Y-18938862D01*
X13927916Y-18903062D01*
X13916050Y-18874993D01*
X13897151Y-18851599D01*
X13871964Y-18832861D01*
X13842157Y-18819420D01*
X13805530Y-18810390D01*
X13723709Y-18804040D01*
X13642559Y-18804040D01*
X13642559Y-18636001D01*
X13734883Y-18636001D01*
X13794356Y-18630383D01*
X13821839Y-18622720D01*
X13845403Y-18611516D01*
X13865472Y-18595798D01*
X13881062Y-18575062D01*
X13890811Y-18549963D01*
X13894373Y-18516933D01*
X13891448Y-18491591D01*
X13883138Y-18470710D01*
X13870305Y-18452721D01*
X13854501Y-18438469D01*
X13835892Y-18427539D01*
X13813956Y-18419541D01*
X13767062Y-18413251D01*
X13708481Y-18417918D01*
X13655870Y-18431448D01*
X13606589Y-18451973D01*
X13562814Y-18476205D01*
X13488686Y-18323920D01*
X13541137Y-18294672D01*
X13607571Y-18266706D01*
X13685240Y-18245762D01*
X13727242Y-18239536D01*
X13772679Y-18237397D01*
X13854799Y-18242837D01*
X13920263Y-18257730D01*
X13978233Y-18282907D01*
X14023089Y-18315249D01*
X14058494Y-18355689D01*
X14083234Y-18402199D01*
X14097818Y-18453609D01*
X14102835Y-18510887D01*
X14099347Y-18548351D01*
X14088783Y-18585333D01*
X14070656Y-18622384D01*
X14046538Y-18655694D01*
X14017779Y-18682851D01*
X13983949Y-18704389D01*
X14031378Y-18728723D01*
X14069935Y-18759094D01*
X14100759Y-18795736D01*
X14123294Y-18837887D01*
X14137188Y-18885995D01*
X14142036Y-18941427D01*
X14136300Y-19006468D01*
X14119626Y-19064830D01*
X14091127Y-19117220D01*
X14049712Y-19162405D01*
X13997217Y-19198157D01*
X13928689Y-19226519D01*
X13851460Y-19243373D01*
X13754483Y-19249539D01*
G37*
G36*
X15299433Y-23742421D02*
G01*
X15299433Y-23930000D01*
X14651701Y-23930000D01*
X14651701Y-22960844D01*
X14869932Y-22960844D01*
X14869932Y-23742421D01*
X15299433Y-23742421D01*
G37*
G36*
X15834909Y-22954918D02*
G01*
X15925668Y-22970851D01*
X15998870Y-22995135D01*
X16057502Y-23026606D01*
X16098811Y-23060503D01*
X16130683Y-23100462D01*
X16153905Y-23147286D01*
X16168483Y-23202312D01*
X16173639Y-23267308D01*
X16167922Y-23333755D01*
X16151961Y-23388078D01*
X16126744Y-23432660D01*
X16092096Y-23470915D01*
X16047636Y-23504179D01*
X15991739Y-23532433D01*
X16053288Y-23616025D01*
X16116914Y-23714394D01*
X16177791Y-23821128D01*
X16232379Y-23930000D01*
X15987526Y-23930000D01*
X15933670Y-23833035D01*
X15877678Y-23737475D01*
X15821013Y-23649609D01*
X15765082Y-23574382D01*
X15657371Y-23574382D01*
X15657371Y-23930000D01*
X15439140Y-23930000D01*
X15439140Y-23140912D01*
X15657371Y-23140912D01*
X15657371Y-23402435D01*
X15718920Y-23402435D01*
X15801536Y-23398122D01*
X15858067Y-23387142D01*
X15895202Y-23371844D01*
X15924209Y-23347304D01*
X15941942Y-23313582D01*
X15948386Y-23267491D01*
X15941951Y-23223341D01*
X15924094Y-23190694D01*
X15894531Y-23166618D01*
X15857240Y-23151246D01*
X15805643Y-23140700D01*
X15735712Y-23136699D01*
X15693030Y-23138103D01*
X15657371Y-23140912D01*
X15439140Y-23140912D01*
X15439140Y-22974277D01*
X15511281Y-22962460D01*
X15586723Y-22954738D01*
X15723133Y-22949120D01*
X15834909Y-22954918D01*
G37*
G36*
X24506490Y-23644785D02*
G01*
X24501816Y-23605963D01*
X24488294Y-23572672D01*
X24464691Y-23544787D01*
X24425341Y-23520099D01*
X24376327Y-23502486D01*
X24305051Y-23487920D01*
X24224648Y-23479794D01*
X24114786Y-23476685D01*
X24139943Y-23212475D01*
X24155330Y-22960844D01*
X24679964Y-22960844D01*
X24679964Y-23136699D01*
X24330208Y-23136699D01*
X24323919Y-23232198D01*
X24316225Y-23312554D01*
X24420567Y-23325402D01*
X24503141Y-23346629D01*
X24567770Y-23374635D01*
X24617682Y-23408480D01*
X24659710Y-23452697D01*
X24689758Y-23504258D01*
X24708393Y-23564626D01*
X24714952Y-23635931D01*
X24708883Y-23701300D01*
X24691138Y-23760556D01*
X24661525Y-23813976D01*
X24619819Y-23859963D01*
X24567474Y-23896635D01*
X24500201Y-23925725D01*
X24424642Y-23943210D01*
X24331612Y-23949539D01*
X24252600Y-23944654D01*
X24172855Y-23932015D01*
X24103612Y-23915956D01*
X24056045Y-23899164D01*
X24093781Y-23728927D01*
X24131785Y-23743301D01*
X24186105Y-23759030D01*
X24246403Y-23769727D01*
X24323247Y-23773684D01*
X24386640Y-23768543D01*
X24431703Y-23755067D01*
X24463076Y-23735155D01*
X24487702Y-23707232D01*
X24501791Y-23677457D01*
X24506490Y-23644785D01*
G37*
G36*
X30703664Y-23164054D02*
G01*
X30788294Y-23125280D01*
X30874329Y-23077287D01*
X30954807Y-23022271D01*
X30991663Y-22992166D01*
X31024049Y-22960844D01*
X31169557Y-22960844D01*
X31169557Y-23930000D01*
X30961096Y-23930000D01*
X30961096Y-23234396D01*
X30917400Y-23260467D01*
X30867368Y-23284893D01*
X30766617Y-23324277D01*
X30703664Y-23164054D01*
G37*
G36*
X31861335Y-22942874D02*
G01*
X31917816Y-22958671D01*
X31968155Y-22984424D01*
X32013369Y-23020571D01*
X32054022Y-23068311D01*
X32092062Y-23134813D01*
X32121187Y-23217156D01*
X32140188Y-23318559D01*
X32147078Y-23442796D01*
X32140174Y-23567785D01*
X32121152Y-23669630D01*
X32092023Y-23752171D01*
X32054022Y-23818686D01*
X32013372Y-23866400D01*
X31968161Y-23902530D01*
X31917821Y-23928273D01*
X31861338Y-23944063D01*
X31797322Y-23949539D01*
X31733308Y-23944064D01*
X31676818Y-23928274D01*
X31626465Y-23902532D01*
X31581235Y-23866401D01*
X31540562Y-23818686D01*
X31502587Y-23752175D01*
X31473477Y-23669636D01*
X31454466Y-23567789D01*
X31447567Y-23442796D01*
X31660241Y-23442796D01*
X31662067Y-23513922D01*
X31667202Y-23575542D01*
X31676895Y-23633272D01*
X31690283Y-23678979D01*
X31709586Y-23718558D01*
X31732293Y-23746024D01*
X31761045Y-23763672D01*
X31797322Y-23769776D01*
X31833712Y-23763695D01*
X31863024Y-23746024D01*
X31886156Y-23718464D01*
X31905033Y-23678979D01*
X31917907Y-23633309D01*
X31927382Y-23575542D01*
X31932562Y-23513921D01*
X31934404Y-23442796D01*
X31932556Y-23371706D01*
X31927382Y-23310722D01*
X31917922Y-23253555D01*
X31905033Y-23208018D01*
X31886152Y-23168481D01*
X31863024Y-23140912D01*
X31833712Y-23123241D01*
X31797322Y-23117159D01*
X31761045Y-23123263D01*
X31732293Y-23140912D01*
X31709590Y-23168386D01*
X31690283Y-23208018D01*
X31676879Y-23253593D01*
X31667202Y-23310722D01*
X31662073Y-23371706D01*
X31660241Y-23442796D01*
X31447567Y-23442796D01*
X31454058Y-23324784D01*
X31472052Y-23227191D01*
X31491533Y-23165956D01*
X31515184Y-23113579D01*
X31542699Y-23068982D01*
X31576066Y-23028873D01*
X31612817Y-22996433D01*
X31653219Y-22970980D01*
X31697217Y-22952522D01*
X31744997Y-22941260D01*
X31797322Y-22937397D01*
X31861335Y-22942874D01*
G37*
G36*
X6161960Y-22926682D02*
G01*
X6159846Y-22882555D01*
X6154328Y-22850479D01*
X6144801Y-22822340D01*
X6133384Y-22802180D01*
X6118632Y-22786556D01*
X6102060Y-22777023D01*
X6061577Y-22770001D01*
X6032237Y-22774810D01*
X6006378Y-22789216D01*
X5982869Y-22814758D01*
X5953448Y-22868425D01*
X5915092Y-22968631D01*
X5876624Y-23063764D01*
X5852013Y-23109108D01*
X5822096Y-23149127D01*
X5785987Y-23183199D01*
X5742412Y-23210676D01*
X5692227Y-23228113D01*
X5628351Y-23234428D01*
X5563599Y-23227948D01*
X5507329Y-23209271D01*
X5457518Y-23178829D01*
X5415737Y-23137891D01*
X5382838Y-23087819D01*
X5357669Y-23025967D01*
X5342700Y-22957724D01*
X5337397Y-22877712D01*
X5343034Y-22783378D01*
X5358401Y-22708451D01*
X5381474Y-22640696D01*
X5404563Y-22590909D01*
X5578098Y-22653863D01*
X5558698Y-22695911D01*
X5541095Y-22744111D01*
X5529320Y-22796540D01*
X5524975Y-22863668D01*
X5527990Y-22916039D01*
X5535709Y-22952217D01*
X5546591Y-22976325D01*
X5563406Y-22995242D01*
X5584949Y-23006564D01*
X5612780Y-23010580D01*
X5637706Y-23007288D01*
X5657416Y-22998001D01*
X5674235Y-22983279D01*
X5690205Y-22962342D01*
X5716706Y-22909219D01*
X5741191Y-22842724D01*
X5796451Y-22711260D01*
X5826704Y-22658937D01*
X5860076Y-22618204D01*
X5899533Y-22585879D01*
X5945378Y-22562944D01*
X5997284Y-22549650D01*
X6064202Y-22544748D01*
X6130380Y-22551124D01*
X6186266Y-22569257D01*
X6233932Y-22598596D01*
X6274740Y-22639880D01*
X6305086Y-22688536D01*
X6328486Y-22750483D01*
X6343898Y-22828688D01*
X6349539Y-22926682D01*
X6347509Y-22989481D01*
X6341845Y-23042820D01*
X6322978Y-23134411D01*
X6299164Y-23202982D01*
X6275350Y-23251220D01*
X6100411Y-23189671D01*
X6122123Y-23143330D01*
X6143093Y-23082692D01*
X6156824Y-23015227D01*
X6161960Y-22926682D01*
G37*
G36*
X5745523Y-21641575D02*
G01*
X5804075Y-21656582D01*
X5853037Y-21680259D01*
X5894005Y-21712435D01*
X5927976Y-21753767D01*
X5959577Y-21813096D01*
X5983917Y-21886813D01*
X5999855Y-21977821D01*
X6005645Y-22089479D01*
X6005645Y-22158050D01*
X6330000Y-22158050D01*
X6330000Y-22376281D01*
X5374277Y-22376281D01*
X5362521Y-22303777D01*
X5354738Y-22225217D01*
X5349120Y-22085266D01*
X5349838Y-22071283D01*
X5536699Y-22071283D01*
X5538103Y-22118177D01*
X5540851Y-22158050D01*
X5818066Y-22158050D01*
X5818066Y-22089479D01*
X5813961Y-22013825D01*
X5803188Y-21958434D01*
X5787597Y-21918814D01*
X5769726Y-21894383D01*
X5745848Y-21876771D01*
X5714640Y-21865527D01*
X5673902Y-21861417D01*
X5635966Y-21865373D01*
X5607407Y-21876133D01*
X5583760Y-21893827D01*
X5565092Y-21918081D01*
X5551907Y-21947388D01*
X5542927Y-21984577D01*
X5536699Y-22071283D01*
X5349838Y-22071283D01*
X5354825Y-21974237D01*
X5370513Y-21883921D01*
X5394437Y-21810939D01*
X5425446Y-21752363D01*
X5458802Y-21711572D01*
X5499170Y-21679793D01*
X5547557Y-21656382D01*
X5605573Y-21641526D01*
X5675307Y-21636225D01*
X5745523Y-21641575D01*
G37*
G36*
X6330000Y-20903314D02*
G01*
X6227845Y-20972556D01*
X6118241Y-21059324D01*
X6012240Y-21156532D01*
X5963311Y-21207677D01*
X5921748Y-21257282D01*
X6330000Y-21257282D01*
X6330000Y-21475513D01*
X5360844Y-21475513D01*
X5360844Y-21257282D01*
X5728551Y-21257282D01*
X5539446Y-21085885D01*
X5360844Y-20925723D01*
X5360844Y-20666886D01*
X5586769Y-20866250D01*
X5808297Y-21076787D01*
X5874824Y-21001884D01*
X5951007Y-20927064D01*
X6037580Y-20852267D01*
X6175701Y-20747258D01*
X6330000Y-20644477D01*
X6330000Y-20903314D01*
G37*
G36*
X6330000Y-19969695D02*
G01*
X6233035Y-20023551D01*
X6137475Y-20079543D01*
X6049609Y-20136208D01*
X5974382Y-20192139D01*
X5974382Y-20299851D01*
X6330000Y-20299851D01*
X6330000Y-20518081D01*
X5374277Y-20518081D01*
X5362460Y-20445941D01*
X5354738Y-20370498D01*
X5349120Y-20234088D01*
X5349772Y-20221510D01*
X5536699Y-20221510D01*
X5538103Y-20264191D01*
X5540912Y-20299851D01*
X5802435Y-20299851D01*
X5802435Y-20238301D01*
X5798122Y-20155685D01*
X5787142Y-20099154D01*
X5771844Y-20062019D01*
X5747304Y-20033012D01*
X5713582Y-20015279D01*
X5667491Y-20008835D01*
X5623341Y-20015270D01*
X5590694Y-20033127D01*
X5566618Y-20062691D01*
X5551246Y-20099981D01*
X5540700Y-20151578D01*
X5536699Y-20221510D01*
X5349772Y-20221510D01*
X5354918Y-20122312D01*
X5370851Y-20031553D01*
X5395135Y-19958351D01*
X5426606Y-19899720D01*
X5460503Y-19858410D01*
X5500462Y-19826538D01*
X5547286Y-19803316D01*
X5602312Y-19788739D01*
X5667308Y-19783582D01*
X5733755Y-19789299D01*
X5788078Y-19805260D01*
X5832660Y-19830477D01*
X5870915Y-19865125D01*
X5904179Y-19909585D01*
X5932433Y-19965482D01*
X6016025Y-19903933D01*
X6114394Y-19840308D01*
X6221128Y-19779430D01*
X6330000Y-19724842D01*
X6330000Y-19969695D01*
G37*
G36*
X29781884Y-22943957D02*
G01*
X29846363Y-22961943D01*
X29902974Y-22990565D01*
X29946380Y-23024408D01*
X29980435Y-23064988D01*
X30003045Y-23109282D01*
X30016271Y-23156531D01*
X30020569Y-23202583D01*
X30016599Y-23246447D01*
X30004777Y-23288070D01*
X29984849Y-23328124D01*
X29944372Y-23380690D01*
X29896066Y-23420020D01*
X29946962Y-23457364D01*
X29984170Y-23493391D01*
X30010067Y-23528342D01*
X30028802Y-23567333D01*
X30040325Y-23611004D01*
X30044322Y-23660355D01*
X30038765Y-23721303D01*
X30022645Y-23775577D01*
X29995655Y-23824484D01*
X29957554Y-23867107D01*
X29909862Y-23901272D01*
X29849172Y-23927923D01*
X29781172Y-23943826D01*
X29698779Y-23949539D01*
X29633745Y-23946147D01*
X29580012Y-23936753D01*
X29535808Y-23922306D01*
X29475637Y-23890831D01*
X29430906Y-23854590D01*
X29396426Y-23811544D01*
X29374241Y-23765868D01*
X29361401Y-23718246D01*
X29357450Y-23677147D01*
X29358059Y-23668538D01*
X29560293Y-23668538D01*
X29567987Y-23705479D01*
X29577815Y-23724623D01*
X29592472Y-23742482D01*
X29611174Y-23757479D01*
X29635826Y-23770387D01*
X29664070Y-23778523D01*
X29700184Y-23781500D01*
X29747417Y-23776993D01*
X29781783Y-23764965D01*
X29806490Y-23746634D01*
X29825517Y-23721836D01*
X29836445Y-23696054D01*
X29840074Y-23668538D01*
X29836306Y-23637877D01*
X29825358Y-23611385D01*
X29808255Y-23588074D01*
X29785485Y-23567482D01*
X29758694Y-23550045D01*
X29726073Y-23534021D01*
X29652617Y-23506788D01*
X29616470Y-23538667D01*
X29586855Y-23575115D01*
X29567173Y-23617146D01*
X29560293Y-23668538D01*
X29358059Y-23668538D01*
X29360337Y-23636312D01*
X29368624Y-23600272D01*
X29382007Y-23566705D01*
X29399398Y-23536707D01*
X29443484Y-23484317D01*
X29495935Y-23439621D01*
X29441724Y-23388763D01*
X29407092Y-23342840D01*
X29391753Y-23309842D01*
X29381926Y-23269681D01*
X29378394Y-23220779D01*
X29379429Y-23210887D01*
X29581237Y-23210887D01*
X29584758Y-23239716D01*
X29595448Y-23267599D01*
X29614088Y-23295212D01*
X29638509Y-23318177D01*
X29674930Y-23340757D01*
X29726745Y-23362684D01*
X29767126Y-23331688D01*
X29795316Y-23298021D01*
X29812869Y-23258391D01*
X29819130Y-23208079D01*
X29812841Y-23175045D01*
X29804617Y-23158266D01*
X29791836Y-23142011D01*
X29775534Y-23127990D01*
X29754711Y-23115999D01*
X29730824Y-23108258D01*
X29700184Y-23105436D01*
X29670727Y-23108039D01*
X29647000Y-23115266D01*
X29626257Y-23126865D01*
X29609875Y-23141278D01*
X29588198Y-23175717D01*
X29581237Y-23210887D01*
X29379429Y-23210887D01*
X29384147Y-23165798D01*
X29401475Y-23112763D01*
X29429259Y-23064208D01*
X29466504Y-23022271D01*
X29512171Y-22987966D01*
X29567926Y-22960539D01*
X29629652Y-22943372D01*
X29700184Y-22937397D01*
X29781884Y-22943957D01*
G37*
G36*
X20186567Y-8319902D02*
G01*
X20295478Y-8339021D01*
X20383320Y-8368162D01*
X20453678Y-8405928D01*
X20503249Y-8446603D01*
X20541496Y-8494555D01*
X20569362Y-8550743D01*
X20586855Y-8616774D01*
X20593043Y-8694769D01*
X20586183Y-8774506D01*
X20567029Y-8839693D01*
X20536769Y-8893192D01*
X20495192Y-8939098D01*
X20441839Y-8979014D01*
X20374763Y-9012920D01*
X20448622Y-9113230D01*
X20524972Y-9231273D01*
X20598025Y-9359354D01*
X20663531Y-9490000D01*
X20369707Y-9490000D01*
X20305080Y-9373642D01*
X20237889Y-9258970D01*
X20169892Y-9153531D01*
X20102774Y-9063258D01*
X19973521Y-9063258D01*
X19973521Y-9490000D01*
X19711644Y-9490000D01*
X19711644Y-8543094D01*
X19973521Y-8543094D01*
X19973521Y-8856922D01*
X20047380Y-8856922D01*
X20146520Y-8851746D01*
X20214356Y-8838570D01*
X20258919Y-8820212D01*
X20293727Y-8790765D01*
X20315007Y-8750298D01*
X20322739Y-8694989D01*
X20315017Y-8642010D01*
X20293589Y-8602833D01*
X20258113Y-8573942D01*
X20213365Y-8555495D01*
X20151448Y-8542840D01*
X20067530Y-8538039D01*
X20016312Y-8539724D01*
X19973521Y-8543094D01*
X19711644Y-8543094D01*
X19711644Y-8343133D01*
X19798213Y-8328952D01*
X19888744Y-8319685D01*
X20052436Y-8312944D01*
X20186567Y-8319902D01*
G37*
G36*
X21313706Y-8319790D02*
G01*
X21422085Y-8338616D01*
X21509664Y-8367324D01*
X21579955Y-8404535D01*
X21628904Y-8444562D01*
X21667039Y-8493004D01*
X21695132Y-8551069D01*
X21712958Y-8620687D01*
X21719320Y-8704368D01*
X21712901Y-8788627D01*
X21694892Y-8858890D01*
X21666480Y-8917645D01*
X21627868Y-8966806D01*
X21578270Y-9007571D01*
X21507075Y-9045493D01*
X21418615Y-9074700D01*
X21309405Y-9093826D01*
X21175415Y-9100774D01*
X21093130Y-9100774D01*
X21093130Y-9490000D01*
X20831253Y-9490000D01*
X20831253Y-8543021D01*
X21093130Y-8543021D01*
X21093130Y-8875680D01*
X21175415Y-8875680D01*
X21266201Y-8870753D01*
X21332670Y-8857826D01*
X21380213Y-8839117D01*
X21409530Y-8817671D01*
X21430665Y-8789018D01*
X21444158Y-8751569D01*
X21449090Y-8702683D01*
X21444343Y-8657159D01*
X21431431Y-8622889D01*
X21410197Y-8594512D01*
X21381092Y-8572110D01*
X21345925Y-8556288D01*
X21301298Y-8545512D01*
X21197251Y-8538039D01*
X21140977Y-8539724D01*
X21093130Y-8543021D01*
X20831253Y-8543021D01*
X20831253Y-8343133D01*
X20918257Y-8329025D01*
X21012530Y-8319685D01*
X21180471Y-8312944D01*
X21313706Y-8319790D01*
G37*
G36*
X22610538Y-8631168D02*
G01*
X22604241Y-8693647D01*
X22585332Y-8753681D01*
X22556640Y-8810979D01*
X22519899Y-8866960D01*
X22477349Y-8920128D01*
X22429187Y-8971887D01*
X22330196Y-9067508D01*
X22275607Y-9120411D01*
X22219407Y-9179982D01*
X22171560Y-9236182D01*
X22153500Y-9261691D01*
X22145548Y-9278974D01*
X22645855Y-9278974D01*
X22645855Y-9490000D01*
X21870189Y-9490000D01*
X21866818Y-9443032D01*
X21866818Y-9402732D01*
X21873503Y-9324475D01*
X21892830Y-9255013D01*
X21922922Y-9190089D01*
X21960900Y-9129937D01*
X22005487Y-9074009D01*
X22055716Y-9021639D01*
X22160642Y-8920889D01*
X22236187Y-8847836D01*
X22298322Y-8780718D01*
X22322692Y-8747295D01*
X22340307Y-8715212D01*
X22351694Y-8681966D01*
X22355401Y-8648900D01*
X22350028Y-8601644D01*
X22335688Y-8568185D01*
X22313416Y-8544853D01*
X22267599Y-8522512D01*
X22209295Y-8514591D01*
X22165072Y-8518229D01*
X22124519Y-8528879D01*
X22052345Y-8562512D01*
X21996071Y-8601127D01*
X21960827Y-8632121D01*
X21836630Y-8456706D01*
X21915891Y-8394378D01*
X22008674Y-8343353D01*
X22075404Y-8318746D01*
X22145399Y-8303901D01*
X22219407Y-8298876D01*
X22317835Y-8305191D01*
X22395628Y-8322397D01*
X22464421Y-8351467D01*
X22517335Y-8388635D01*
X22558806Y-8435933D01*
X22587823Y-8492683D01*
X22604618Y-8556483D01*
X22610538Y-8631168D01*
G37*
G36*
X23511647Y-9025743D02*
G01*
X23635918Y-9025743D01*
X23635918Y-9232079D01*
X23511647Y-9232079D01*
X23511647Y-9490000D01*
X23266549Y-9490000D01*
X23266549Y-9232079D01*
X22764557Y-9232079D01*
X22764557Y-9047578D01*
X22776618Y-9025743D01*
X23002987Y-9025743D01*
X23266549Y-9025743D01*
X23266549Y-8632561D01*
X23127184Y-8819113D01*
X23058725Y-8921945D01*
X23002987Y-9025743D01*
X22776618Y-9025743D01*
X22856881Y-8880443D01*
X22980272Y-8688981D01*
X23123814Y-8496713D01*
X23200562Y-8405895D01*
X23274903Y-8327013D01*
X23511647Y-8327013D01*
X23511647Y-9025743D01*
G37*
G36*
X24677434Y-8316895D02*
G01*
X24767523Y-8328278D01*
X24849316Y-8346503D01*
X24928055Y-8373770D01*
X24997350Y-8409052D01*
X25058291Y-8452236D01*
X25111548Y-8504222D01*
X25156234Y-8565354D01*
X25192600Y-8636737D01*
X25217834Y-8713094D01*
X25233926Y-8802399D01*
X25239641Y-8906821D01*
X25234012Y-9006682D01*
X25218001Y-9093909D01*
X25192600Y-9170237D01*
X25156368Y-9241766D01*
X25111969Y-9303510D01*
X25059170Y-9356496D01*
X24998651Y-9400767D01*
X24928815Y-9437730D01*
X24848437Y-9467212D01*
X24764861Y-9487210D01*
X24672327Y-9499719D01*
X24569780Y-9504068D01*
X24405210Y-9498206D01*
X24311844Y-9489167D01*
X24220562Y-9473879D01*
X24220562Y-8543094D01*
X24482439Y-8543094D01*
X24482439Y-9275603D01*
X24525231Y-9278168D01*
X24583189Y-9278974D01*
X24682052Y-9271754D01*
X24761177Y-9251887D01*
X24824333Y-9221218D01*
X24874449Y-9180348D01*
X24914633Y-9128471D01*
X24944110Y-9067076D01*
X24962725Y-8994296D01*
X24969337Y-8907700D01*
X24962778Y-8816070D01*
X24944608Y-8741500D01*
X24916381Y-8680878D01*
X24878625Y-8631755D01*
X24830812Y-8593276D01*
X24769321Y-8564105D01*
X24690930Y-8545025D01*
X24591542Y-8538039D01*
X24536148Y-8538918D01*
X24482439Y-8543094D01*
X24220562Y-8543094D01*
X24220562Y-8341448D01*
X24312324Y-8327489D01*
X24409386Y-8318806D01*
X24578134Y-8312944D01*
X24677434Y-8316895D01*
G37*
G36*
X25915615Y-8592781D02*
G01*
X25994456Y-8615055D01*
X26061969Y-8650778D01*
X26120014Y-8700265D01*
X26165376Y-8760565D01*
X26199366Y-8835040D01*
X26221277Y-8926707D01*
X26229191Y-9039371D01*
X26227505Y-9087292D01*
X26224135Y-9133600D01*
X25656710Y-9133600D01*
X25668527Y-9180583D01*
X25692210Y-9219998D01*
X25728884Y-9253401D01*
X25773554Y-9276984D01*
X25829685Y-9292202D01*
X25900122Y-9297732D01*
X25968457Y-9294566D01*
X26035238Y-9285129D01*
X26098213Y-9270264D01*
X26143535Y-9254061D01*
X26177094Y-9458053D01*
X26123385Y-9478203D01*
X26048646Y-9495788D01*
X25960499Y-9508391D01*
X25866490Y-9513447D01*
X25787606Y-9509220D01*
X25718971Y-9497228D01*
X25659201Y-9478276D01*
X25602678Y-9451279D01*
X25554275Y-9419158D01*
X25513095Y-9381922D01*
X25463002Y-9315495D01*
X25427512Y-9236915D01*
X25406904Y-9150809D01*
X25399815Y-9055858D01*
X25404123Y-8978266D01*
X25407403Y-8960090D01*
X25656710Y-8960090D01*
X25987390Y-8960090D01*
X25976473Y-8898248D01*
X25964647Y-8869697D01*
X25947896Y-8844759D01*
X25926352Y-8823674D01*
X25899243Y-8806364D01*
X25867603Y-8795317D01*
X25826263Y-8791270D01*
X25786166Y-8795032D01*
X25754016Y-8805484D01*
X25726103Y-8822183D01*
X25703678Y-8843147D01*
X25686008Y-8868202D01*
X25672683Y-8897442D01*
X25656710Y-8960090D01*
X25407403Y-8960090D01*
X25416389Y-8910286D01*
X25435866Y-8850621D01*
X25478448Y-8768716D01*
X25530754Y-8703928D01*
X25594012Y-8652317D01*
X25665869Y-8615122D01*
X25743520Y-8592445D01*
X25822893Y-8584933D01*
X25915615Y-8592781D01*
G37*
G36*
X26379913Y-9049190D02*
G01*
X26387790Y-8955737D01*
X26410981Y-8869012D01*
X26449211Y-8789401D01*
X26500740Y-8721514D01*
X26565254Y-8665535D01*
X26643475Y-8621789D01*
X26700554Y-8601720D01*
X26764009Y-8589260D01*
X26834864Y-8584933D01*
X26903743Y-8588214D01*
X26964117Y-8597536D01*
X27022029Y-8612810D01*
X27078277Y-8633586D01*
X27026253Y-8834207D01*
X26949023Y-8810760D01*
X26905656Y-8803299D01*
X26855014Y-8800648D01*
X26784375Y-8809025D01*
X26730618Y-8832109D01*
X26689637Y-8869085D01*
X26660274Y-8917404D01*
X26641754Y-8976519D01*
X26635122Y-9049190D01*
X26641589Y-9126654D01*
X26659193Y-9186548D01*
X26686267Y-9232665D01*
X26714082Y-9259311D01*
X26751386Y-9279498D01*
X26800623Y-9292804D01*
X26865053Y-9297732D01*
X26962432Y-9289378D01*
X27012993Y-9278266D01*
X27058127Y-9262487D01*
X27093444Y-9468091D01*
X27046778Y-9484567D01*
X26984268Y-9499965D01*
X26917016Y-9509930D01*
X26839920Y-9513447D01*
X26759868Y-9509085D01*
X26690978Y-9496768D01*
X26631679Y-9477397D01*
X26575838Y-9449836D01*
X26528299Y-9417160D01*
X26488137Y-9379357D01*
X26439768Y-9312214D01*
X26405925Y-9232739D01*
X26386595Y-9145789D01*
X26379913Y-9049190D01*
G37*
G36*
X27704711Y-8593532D02*
G01*
X27787338Y-8618492D01*
X27861792Y-8658933D01*
X27924212Y-8712355D01*
X27974474Y-8778117D01*
X28013165Y-8858168D01*
X28036866Y-8946696D01*
X28045112Y-9047505D01*
X28037306Y-9148507D01*
X28014850Y-9237721D01*
X27977464Y-9318555D01*
X27927582Y-9385219D01*
X27865107Y-9439300D01*
X27790709Y-9479961D01*
X27707656Y-9504791D01*
X27611923Y-9513447D01*
X27517715Y-9504832D01*
X27434822Y-9479961D01*
X27360486Y-9439305D01*
X27298022Y-9385219D01*
X27247746Y-9318614D01*
X27208995Y-9237721D01*
X27185331Y-9148434D01*
X27177122Y-9047505D01*
X27432331Y-9047505D01*
X27438214Y-9123027D01*
X27454359Y-9182868D01*
X27479299Y-9230174D01*
X27515020Y-9267765D01*
X27558384Y-9289986D01*
X27611923Y-9297732D01*
X27665471Y-9289964D01*
X27708543Y-9267732D01*
X27743741Y-9230174D01*
X27768229Y-9182928D01*
X27784111Y-9123088D01*
X27789903Y-9047505D01*
X27784074Y-8971918D01*
X27768166Y-8912710D01*
X27743741Y-8866521D01*
X27708672Y-8829995D01*
X27665606Y-8808264D01*
X27611923Y-8800648D01*
X27558251Y-8808242D01*
X27514892Y-8829962D01*
X27479299Y-8866521D01*
X27454423Y-8912771D01*
X27438250Y-8971980D01*
X27432331Y-9047505D01*
X27177122Y-9047505D01*
X27185569Y-8946734D01*
X27209875Y-8858168D01*
X27249417Y-8778147D01*
X27300513Y-8712355D01*
X27363640Y-8658887D01*
X27438193Y-8618492D01*
X27520602Y-8593495D01*
X27611923Y-8584933D01*
X27704711Y-8593532D01*
G37*
G36*
X29016856Y-9463035D02*
G01*
X28939627Y-9482379D01*
X28848109Y-9498279D01*
X28750729Y-9509197D01*
X28655914Y-9513447D01*
X28550508Y-9505120D01*
X28461155Y-9481573D01*
X28406265Y-9456759D01*
X28358400Y-9426246D01*
X28316808Y-9389982D01*
X28265382Y-9324721D01*
X28226975Y-9245561D01*
X28203984Y-9157349D01*
X28195907Y-9054905D01*
X28196644Y-9043914D01*
X28451117Y-9043914D01*
X28457515Y-9120077D01*
X28475277Y-9181637D01*
X28503141Y-9231493D01*
X28542569Y-9270306D01*
X28592887Y-9293969D01*
X28657600Y-9302421D01*
X28719662Y-9299930D01*
X28766703Y-9293995D01*
X28766703Y-8835893D01*
X28740964Y-8822623D01*
X28705374Y-8810760D01*
X28667365Y-8803169D01*
X28629023Y-8800648D01*
X28575363Y-8807216D01*
X28533388Y-8825554D01*
X28500269Y-8855391D01*
X28474798Y-8898788D01*
X28457620Y-8959785D01*
X28451117Y-9043914D01*
X28196644Y-9043914D01*
X28202906Y-8950569D01*
X28222725Y-8860952D01*
X28256158Y-8779651D01*
X28299955Y-8713967D01*
X28355926Y-8660668D01*
X28423346Y-8621570D01*
X28499923Y-8597941D01*
X28590408Y-8589623D01*
X28641012Y-8592289D01*
X28683612Y-8599734D01*
X28766703Y-8628237D01*
X28766703Y-8226629D01*
X29016856Y-8186329D01*
X29016856Y-9463035D01*
G37*
G36*
X29725804Y-8592781D02*
G01*
X29804644Y-8615055D01*
X29872158Y-8650778D01*
X29930203Y-8700265D01*
X29975565Y-8760565D01*
X30009554Y-8835040D01*
X30031465Y-8926707D01*
X30039379Y-9039371D01*
X30037694Y-9087292D01*
X30034323Y-9133600D01*
X29466898Y-9133600D01*
X29478716Y-9180583D01*
X29502398Y-9219998D01*
X29539072Y-9253401D01*
X29583742Y-9276984D01*
X29639873Y-9292202D01*
X29710311Y-9297732D01*
X29778646Y-9294566D01*
X29845426Y-9285129D01*
X29908401Y-9270264D01*
X29953723Y-9254061D01*
X29987282Y-9458053D01*
X29933573Y-9478203D01*
X29858835Y-9495788D01*
X29770688Y-9508391D01*
X29676679Y-9513447D01*
X29597794Y-9509220D01*
X29529159Y-9497228D01*
X29469390Y-9478276D01*
X29412867Y-9451279D01*
X29364463Y-9419158D01*
X29323284Y-9381922D01*
X29273191Y-9315495D01*
X29237701Y-9236915D01*
X29217093Y-9150809D01*
X29210004Y-9055858D01*
X29214312Y-8978266D01*
X29217591Y-8960090D01*
X29466898Y-8960090D01*
X29797579Y-8960090D01*
X29786661Y-8898248D01*
X29774836Y-8869697D01*
X29758085Y-8844759D01*
X29736540Y-8823674D01*
X29709431Y-8806364D01*
X29677792Y-8795317D01*
X29636452Y-8791270D01*
X29596355Y-8795032D01*
X29564205Y-8805484D01*
X29536291Y-8822183D01*
X29513866Y-8843147D01*
X29496197Y-8868202D01*
X29482872Y-8897442D01*
X29466898Y-8960090D01*
X29217591Y-8960090D01*
X29226577Y-8910286D01*
X29246054Y-8850621D01*
X29288637Y-8768716D01*
X29340942Y-8703928D01*
X29404201Y-8652317D01*
X29476057Y-8615122D01*
X29553708Y-8592445D01*
X29633081Y-8584933D01*
X29725804Y-8592781D01*
G37*
G36*
X30764268Y-8827540D02*
G01*
X30685353Y-8809881D01*
X30639101Y-8803027D01*
X30587973Y-8800648D01*
X30531773Y-8804825D01*
X30482240Y-8814057D01*
X30482240Y-9490000D01*
X30232087Y-9490000D01*
X30232087Y-8655129D01*
X30302468Y-8633048D01*
X30390722Y-8610652D01*
X30485107Y-8595128D01*
X30594714Y-8589623D01*
X30643367Y-8592187D01*
X30700447Y-8598855D01*
X30757526Y-8608967D01*
X30806253Y-8623182D01*
X30764268Y-8827540D01*
G37*
G36*
X20820140Y-10335790D02*
G01*
X20928519Y-10354616D01*
X21016097Y-10383324D01*
X21086389Y-10420535D01*
X21135337Y-10460562D01*
X21173473Y-10509004D01*
X21201565Y-10567069D01*
X21219392Y-10636687D01*
X21225754Y-10720368D01*
X21219334Y-10804627D01*
X21201326Y-10874890D01*
X21172913Y-10933645D01*
X21134302Y-10982806D01*
X21084703Y-11023571D01*
X21013509Y-11061493D01*
X20925049Y-11090700D01*
X20815839Y-11109826D01*
X20681849Y-11116774D01*
X20599564Y-11116774D01*
X20599564Y-11506000D01*
X20337687Y-11506000D01*
X20337687Y-10559021D01*
X20599564Y-10559021D01*
X20599564Y-10891680D01*
X20681849Y-10891680D01*
X20772634Y-10886753D01*
X20839103Y-10873826D01*
X20886647Y-10855117D01*
X20915964Y-10833671D01*
X20937099Y-10805018D01*
X20950592Y-10767569D01*
X20955523Y-10718683D01*
X20950777Y-10673159D01*
X20937865Y-10638889D01*
X20916631Y-10610512D01*
X20887526Y-10588110D01*
X20852358Y-10572288D01*
X20807732Y-10561512D01*
X20703685Y-10554039D01*
X20647411Y-10555724D01*
X20599564Y-10559021D01*
X20337687Y-10559021D01*
X20337687Y-10359133D01*
X20424691Y-10345025D01*
X20518964Y-10335685D01*
X20686905Y-10328944D01*
X20820140Y-10335790D01*
G37*
G36*
X21934009Y-10843540D02*
G01*
X21855094Y-10825881D01*
X21808843Y-10819027D01*
X21757715Y-10816648D01*
X21701514Y-10820825D01*
X21651982Y-10830057D01*
X21651982Y-11506000D01*
X21401828Y-11506000D01*
X21401828Y-10671129D01*
X21472209Y-10649048D01*
X21560464Y-10626652D01*
X21654848Y-10611128D01*
X21764456Y-10605623D01*
X21813109Y-10608187D01*
X21870188Y-10614855D01*
X21927268Y-10624967D01*
X21975994Y-10639182D01*
X21934009Y-10843540D01*
G37*
G36*
X22579128Y-10609532D02*
G01*
X22661755Y-10634492D01*
X22736209Y-10674933D01*
X22798629Y-10728355D01*
X22848891Y-10794117D01*
X22887582Y-10874168D01*
X22911283Y-10962696D01*
X22919529Y-11063505D01*
X22911723Y-11164507D01*
X22889267Y-11253721D01*
X22851881Y-11334555D01*
X22801999Y-11401219D01*
X22739524Y-11455300D01*
X22665126Y-11495961D01*
X22582073Y-11520791D01*
X22486340Y-11529447D01*
X22392132Y-11520832D01*
X22309239Y-11495961D01*
X22234903Y-11455305D01*
X22172439Y-11401219D01*
X22122163Y-11334614D01*
X22083412Y-11253721D01*
X22059748Y-11164434D01*
X22051539Y-11063505D01*
X22306748Y-11063505D01*
X22312631Y-11139027D01*
X22328776Y-11198868D01*
X22353716Y-11246174D01*
X22389437Y-11283765D01*
X22432801Y-11305986D01*
X22486340Y-11313732D01*
X22539888Y-11305964D01*
X22582960Y-11283732D01*
X22618158Y-11246174D01*
X22642646Y-11198928D01*
X22658528Y-11139088D01*
X22664320Y-11063505D01*
X22658491Y-10987918D01*
X22642583Y-10928710D01*
X22618158Y-10882521D01*
X22583089Y-10845995D01*
X22540023Y-10824264D01*
X22486340Y-10816648D01*
X22432668Y-10824242D01*
X22389309Y-10845962D01*
X22353716Y-10882521D01*
X22328840Y-10928771D01*
X22312667Y-10987980D01*
X22306748Y-11063505D01*
X22051539Y-11063505D01*
X22059986Y-10962734D01*
X22084292Y-10874168D01*
X22123834Y-10794147D01*
X22174930Y-10728355D01*
X22238057Y-10674887D01*
X22312610Y-10634492D01*
X22395019Y-10609495D01*
X22486340Y-10600933D01*
X22579128Y-10609532D01*
G37*
G36*
X23613423Y-10605183D02*
G01*
X23708238Y-10616101D01*
X23798070Y-10632001D01*
X23874494Y-10651345D01*
X23874494Y-11393599D01*
X23866463Y-11502535D01*
X23844345Y-11589849D01*
X23810153Y-11659670D01*
X23764511Y-11715193D01*
X23707083Y-11758243D01*
X23633856Y-11790970D01*
X23541203Y-11812372D01*
X23424599Y-11820193D01*
X23344147Y-11816635D01*
X23263398Y-11805905D01*
X23184615Y-11789077D01*
X23113995Y-11768170D01*
X23157592Y-11558756D01*
X23217512Y-11579655D01*
X23280984Y-11595685D01*
X23347902Y-11605599D01*
X23427896Y-11609168D01*
X23498080Y-11602839D01*
X23546820Y-11586331D01*
X23579864Y-11561833D01*
X23604215Y-11527989D01*
X23619111Y-11488016D01*
X23624341Y-11440200D01*
X23624341Y-11408107D01*
X23583355Y-11424284D01*
X23541249Y-11435804D01*
X23497388Y-11442645D01*
X23448046Y-11445036D01*
X23357393Y-11437491D01*
X23282272Y-11416324D01*
X23219756Y-11382791D01*
X23167704Y-11336812D01*
X23126863Y-11280394D01*
X23096553Y-11212692D01*
X23077231Y-11131468D01*
X23070324Y-11033903D01*
X23325534Y-11033903D01*
X23331456Y-11104889D01*
X23347221Y-11156950D01*
X23370913Y-11194588D01*
X23402266Y-11220951D01*
X23442705Y-11237428D01*
X23495087Y-11243390D01*
X23532869Y-11240820D01*
X23567261Y-11233351D01*
X23624341Y-11209757D01*
X23624341Y-10810933D01*
X23580670Y-10805071D01*
X23521905Y-10802580D01*
X23459153Y-10810479D01*
X23411114Y-10832396D01*
X23374187Y-10867939D01*
X23347854Y-10913789D01*
X23331377Y-10968404D01*
X23325534Y-11033903D01*
X23070324Y-11033903D01*
X23078121Y-10939544D01*
X23100513Y-10856875D01*
X23137937Y-10782417D01*
X23188660Y-10720075D01*
X23252279Y-10670030D01*
X23330516Y-10632001D01*
X23417963Y-10609029D01*
X23520293Y-10600933D01*
X23613423Y-10605183D01*
G37*
G36*
X24642174Y-10843540D02*
G01*
X24563259Y-10825881D01*
X24517007Y-10819027D01*
X24465879Y-10816648D01*
X24409679Y-10820825D01*
X24360147Y-10830057D01*
X24360147Y-11506000D01*
X24109993Y-11506000D01*
X24109993Y-10671129D01*
X24180374Y-10649048D01*
X24268629Y-10626652D01*
X24363013Y-10611128D01*
X24472620Y-10605623D01*
X24521274Y-10608187D01*
X24578353Y-10614855D01*
X24635433Y-10624967D01*
X24684159Y-10639182D01*
X24642174Y-10843540D01*
G37*
G36*
X25224835Y-10607813D02*
G01*
X25303681Y-10626066D01*
X25371584Y-10657510D01*
X25422017Y-10698166D01*
X25459710Y-10749646D01*
X25484958Y-10812179D01*
X25498610Y-10881424D01*
X25503423Y-10961362D01*
X25503423Y-11481087D01*
X25354020Y-11508784D01*
X25253349Y-11520403D01*
X25122331Y-11524757D01*
X25038887Y-11520803D01*
X24967066Y-11509663D01*
X24901042Y-11489252D01*
X24846971Y-11460131D01*
X24802540Y-11420506D01*
X24769742Y-11370298D01*
X24750101Y-11310949D01*
X24742924Y-11234304D01*
X24743573Y-11228515D01*
X24991392Y-11228515D01*
X24996293Y-11265421D01*
X25009551Y-11291577D01*
X25030813Y-11309848D01*
X25074713Y-11326197D01*
X25139110Y-11332489D01*
X25209599Y-11330804D01*
X25263381Y-11325822D01*
X25263381Y-11136191D01*
X25218025Y-11129524D01*
X25162631Y-11126153D01*
X25096319Y-11130330D01*
X25066537Y-11136588D01*
X25041731Y-11146303D01*
X25020597Y-11160287D01*
X25004801Y-11178177D01*
X24994940Y-11200077D01*
X24991392Y-11228515D01*
X24743573Y-11228515D01*
X24751128Y-11161142D01*
X24773992Y-11103365D01*
X24810384Y-11055027D01*
X24857083Y-11017782D01*
X24912025Y-10990601D01*
X24976225Y-10971621D01*
X25044255Y-10960948D01*
X25115663Y-10957332D01*
X25202052Y-10961509D01*
X25263381Y-10972427D01*
X25263381Y-10948833D01*
X25258803Y-10907730D01*
X25245850Y-10874009D01*
X25224766Y-10846031D01*
X25196247Y-10826159D01*
X25153285Y-10812543D01*
X25090457Y-10807270D01*
X24964501Y-10816502D01*
X24904771Y-10828071D01*
X24857083Y-10842514D01*
X24825209Y-10642845D01*
X24879724Y-10628630D01*
X24951092Y-10615221D01*
X25032498Y-10605110D01*
X25118960Y-10600933D01*
X25224835Y-10607813D01*
G37*
G36*
X26215342Y-11034855D02*
G01*
X26210933Y-10953331D01*
X26199765Y-10898266D01*
X26184274Y-10862664D01*
X26159640Y-10835250D01*
X26125272Y-10818214D01*
X26077735Y-10811959D01*
X26029009Y-10814524D01*
X25980356Y-10820385D01*
X25980356Y-11506000D01*
X25730202Y-11506000D01*
X25730202Y-10651345D01*
X25804867Y-10633686D01*
X25895579Y-10616907D01*
X25993765Y-10605183D01*
X26092830Y-10600933D01*
X26183534Y-10607689D01*
X26248095Y-10625333D01*
X26303931Y-10652827D01*
X26346354Y-10683219D01*
X26403309Y-10649165D01*
X26469745Y-10622769D01*
X26538480Y-10606090D01*
X26598119Y-10600933D01*
X26668411Y-10604638D01*
X26725626Y-10614829D01*
X26771923Y-10630389D01*
X26833644Y-10666445D01*
X26880220Y-10713700D01*
X26913818Y-10771618D01*
X26935614Y-10841488D01*
X26946751Y-10917725D01*
X26950708Y-11006352D01*
X26950708Y-11506000D01*
X26700555Y-11506000D01*
X26700555Y-11034855D01*
X26696145Y-10953331D01*
X26684977Y-10898266D01*
X26669487Y-10862664D01*
X26644851Y-10835254D01*
X26610461Y-10818216D01*
X26562875Y-10811959D01*
X26506602Y-10822071D01*
X26472547Y-10833856D01*
X26447031Y-10847203D01*
X26462125Y-10929122D01*
X26465495Y-11021226D01*
X26465495Y-11506000D01*
X26215342Y-11506000D01*
X26215342Y-11034855D01*
G37*
G36*
X27663214Y-11034855D02*
G01*
X27658804Y-10953331D01*
X27647636Y-10898266D01*
X27632146Y-10862664D01*
X27607512Y-10835250D01*
X27573143Y-10818214D01*
X27525607Y-10811959D01*
X27476881Y-10814524D01*
X27428227Y-10820385D01*
X27428227Y-11506000D01*
X27178074Y-11506000D01*
X27178074Y-10651345D01*
X27252739Y-10633686D01*
X27343451Y-10616907D01*
X27441636Y-10605183D01*
X27540701Y-10600933D01*
X27631406Y-10607689D01*
X27695966Y-10625333D01*
X27751803Y-10652827D01*
X27794225Y-10683219D01*
X27851181Y-10649165D01*
X27917617Y-10622769D01*
X27986352Y-10606090D01*
X28045991Y-10600933D01*
X28116282Y-10604638D01*
X28173498Y-10614829D01*
X28219794Y-10630389D01*
X28281516Y-10666445D01*
X28328091Y-10713700D01*
X28361689Y-10771618D01*
X28383486Y-10841488D01*
X28394623Y-10917725D01*
X28398580Y-11006352D01*
X28398580Y-11506000D01*
X28148426Y-11506000D01*
X28148426Y-11034855D01*
X28144017Y-10953331D01*
X28132849Y-10898266D01*
X28117359Y-10862664D01*
X28092722Y-10835254D01*
X28058332Y-10818216D01*
X28010747Y-10811959D01*
X27954473Y-10822071D01*
X27920419Y-10833856D01*
X27894902Y-10847203D01*
X27909996Y-10929122D01*
X27913367Y-11021226D01*
X27913367Y-11506000D01*
X27663214Y-11506000D01*
X27663214Y-11034855D01*
G37*
G36*
X29099760Y-10608781D02*
G01*
X29178601Y-10631055D01*
X29246114Y-10666778D01*
X29304159Y-10716265D01*
X29349521Y-10776565D01*
X29383511Y-10851040D01*
X29405422Y-10942707D01*
X29413336Y-11055371D01*
X29411650Y-11103292D01*
X29408280Y-11149600D01*
X28840855Y-11149600D01*
X28852672Y-11196583D01*
X28876355Y-11235998D01*
X28913029Y-11269401D01*
X28957699Y-11292984D01*
X29013830Y-11308202D01*
X29084267Y-11313732D01*
X29152602Y-11310566D01*
X29219382Y-11301129D01*
X29282358Y-11286264D01*
X29327680Y-11270061D01*
X29361239Y-11474053D01*
X29307530Y-11494203D01*
X29232791Y-11511788D01*
X29144644Y-11524391D01*
X29050635Y-11529447D01*
X28971751Y-11525220D01*
X28903116Y-11513228D01*
X28843346Y-11494276D01*
X28786823Y-11467279D01*
X28738420Y-11435158D01*
X28697240Y-11397922D01*
X28647147Y-11331495D01*
X28611657Y-11252915D01*
X28591049Y-11166809D01*
X28583960Y-11071858D01*
X28588268Y-10994266D01*
X28591547Y-10976090D01*
X28840855Y-10976090D01*
X29171535Y-10976090D01*
X29160618Y-10914248D01*
X29148792Y-10885697D01*
X29132041Y-10860759D01*
X29110497Y-10839674D01*
X29083388Y-10822364D01*
X29051748Y-10811317D01*
X29010408Y-10807270D01*
X28970311Y-10811032D01*
X28938161Y-10821484D01*
X28910248Y-10838183D01*
X28887823Y-10859147D01*
X28870153Y-10884202D01*
X28856828Y-10913442D01*
X28840855Y-10976090D01*
X28591547Y-10976090D01*
X28600533Y-10926286D01*
X28620010Y-10866621D01*
X28662593Y-10784716D01*
X28714899Y-10719928D01*
X28778157Y-10668317D01*
X28850014Y-10631122D01*
X28927665Y-10608445D01*
X29007038Y-10600933D01*
X29099760Y-10608781D01*
G37*
G36*
X30138224Y-10843540D02*
G01*
X30059309Y-10825881D01*
X30013058Y-10819027D01*
X29961929Y-10816648D01*
X29905729Y-10820825D01*
X29856197Y-10830057D01*
X29856197Y-11506000D01*
X29606043Y-11506000D01*
X29606043Y-10671129D01*
X29676424Y-10649048D01*
X29764679Y-10626652D01*
X29859063Y-10611128D01*
X29968671Y-10605623D01*
X30017324Y-10608187D01*
X30074403Y-10614855D01*
X30131483Y-10624967D01*
X30180209Y-10639182D01*
X30138224Y-10843540D01*
G37*
G36*
X13564402Y-23742421D02*
G01*
X13564402Y-23930000D01*
X12916670Y-23930000D01*
X12916670Y-22960844D01*
X13134901Y-22960844D01*
X13134901Y-23742421D01*
X13564402Y-23742421D01*
G37*
G36*
X13704109Y-23930000D02*
G01*
X13704109Y-22960844D01*
X14353245Y-22960844D01*
X14353245Y-23144515D01*
X13922340Y-23144515D01*
X13922340Y-23347725D01*
X14305679Y-23347725D01*
X14305679Y-23531395D01*
X13922340Y-23531395D01*
X13922340Y-23930000D01*
X13704109Y-23930000D01*
G37*
G36*
X6937116Y-1442421D02*
G01*
X6937116Y-1630000D01*
X6289384Y-1630000D01*
X6289384Y-660844D01*
X6507615Y-660844D01*
X6507615Y-1442421D01*
X6937116Y-1442421D01*
G37*
G36*
X7807693Y-654918D02*
G01*
X7898453Y-670851D01*
X7971654Y-695135D01*
X8030286Y-726606D01*
X8071595Y-760503D01*
X8103467Y-800462D01*
X8126689Y-847286D01*
X8141267Y-902312D01*
X8146423Y-967308D01*
X8140706Y-1033755D01*
X8124745Y-1088078D01*
X8099529Y-1132660D01*
X8064881Y-1170915D01*
X8020420Y-1204179D01*
X7964523Y-1232433D01*
X8026073Y-1316025D01*
X8089698Y-1414394D01*
X8150575Y-1521128D01*
X8205164Y-1630000D01*
X7960310Y-1630000D01*
X7906455Y-1533035D01*
X7850462Y-1437475D01*
X7793798Y-1349609D01*
X7737866Y-1274382D01*
X7630155Y-1274382D01*
X7630155Y-1630000D01*
X7411924Y-1630000D01*
X7411924Y-840912D01*
X7630155Y-840912D01*
X7630155Y-1102435D01*
X7691704Y-1102435D01*
X7774321Y-1098122D01*
X7830851Y-1087142D01*
X7867986Y-1071844D01*
X7896993Y-1047304D01*
X7914727Y-1013582D01*
X7921170Y-967491D01*
X7914735Y-923341D01*
X7896878Y-890694D01*
X7867315Y-866618D01*
X7830025Y-851246D01*
X7778428Y-840700D01*
X7708496Y-836699D01*
X7665814Y-838103D01*
X7630155Y-840912D01*
X7411924Y-840912D01*
X7411924Y-674277D01*
X7484065Y-662460D01*
X7559508Y-654738D01*
X7695917Y-649120D01*
X7807693Y-654918D01*
G37*
G36*
X8979291Y-867107D02*
G01*
X9072287Y-1090162D01*
X9168152Y-1340511D01*
X9271650Y-1630000D01*
X9038032Y-1630000D01*
X9003716Y-1527051D01*
X8966713Y-1418974D01*
X8588930Y-1418974D01*
X8551866Y-1526929D01*
X8517611Y-1630000D01*
X8290954Y-1630000D01*
X8394513Y-1340511D01*
X8430288Y-1247027D01*
X8639305Y-1247027D01*
X8914933Y-1247027D01*
X8871519Y-1127103D01*
X8831647Y-1022445D01*
X8798796Y-938243D01*
X8776448Y-880479D01*
X8755443Y-937876D01*
X8723264Y-1022201D01*
X8683391Y-1126920D01*
X8639305Y-1247027D01*
X8430288Y-1247027D01*
X8490317Y-1090162D01*
X8582641Y-867107D01*
X8677102Y-660844D01*
X8885563Y-660844D01*
X8979291Y-867107D01*
G37*
G36*
X9398107Y-660844D02*
G01*
X9616338Y-660844D01*
X9616338Y-1630000D01*
X9398107Y-1630000D01*
X9398107Y-660844D01*
G37*
G36*
X10487430Y-1442421D02*
G01*
X10487430Y-1630000D01*
X9839698Y-1630000D01*
X9839698Y-660844D01*
X10057929Y-660844D01*
X10057929Y-1442421D01*
X10487430Y-1442421D01*
G37*
G36*
X10915954Y-1461960D02*
G01*
X10960081Y-1459846D01*
X10992158Y-1454328D01*
X11020296Y-1444801D01*
X11040457Y-1433384D01*
X11056080Y-1418632D01*
X11065614Y-1402060D01*
X11072636Y-1361577D01*
X11067826Y-1332237D01*
X11053421Y-1306378D01*
X11027878Y-1282869D01*
X10974211Y-1253448D01*
X10874005Y-1215092D01*
X10778873Y-1176624D01*
X10733528Y-1152013D01*
X10693510Y-1122096D01*
X10659438Y-1085987D01*
X10631961Y-1042412D01*
X10614523Y-992227D01*
X10608208Y-928351D01*
X10614689Y-863599D01*
X10633365Y-807329D01*
X10663808Y-757518D01*
X10704745Y-715737D01*
X10754817Y-682838D01*
X10816669Y-657669D01*
X10884912Y-642700D01*
X10964925Y-637397D01*
X11059259Y-643034D01*
X11134185Y-658401D01*
X11201940Y-681474D01*
X11251727Y-704563D01*
X11188773Y-878098D01*
X11146725Y-858698D01*
X11098525Y-841095D01*
X11046096Y-829320D01*
X10978969Y-824975D01*
X10926597Y-827990D01*
X10890419Y-835709D01*
X10866312Y-846591D01*
X10847395Y-863406D01*
X10836072Y-884949D01*
X10832056Y-912780D01*
X10835349Y-937706D01*
X10844635Y-957416D01*
X10859357Y-974235D01*
X10880294Y-990205D01*
X10933417Y-1016706D01*
X10999912Y-1041191D01*
X11131376Y-1096451D01*
X11183700Y-1126704D01*
X11224433Y-1160076D01*
X11256757Y-1199533D01*
X11279693Y-1245378D01*
X11292987Y-1297284D01*
X11297889Y-1364202D01*
X11291512Y-1430380D01*
X11273380Y-1486266D01*
X11244040Y-1533932D01*
X11202756Y-1574740D01*
X11154100Y-1605086D01*
X11092153Y-1628486D01*
X11013948Y-1643898D01*
X10915954Y-1649539D01*
X10853155Y-1647509D01*
X10799816Y-1641845D01*
X10708225Y-1622978D01*
X10639654Y-1599164D01*
X10591416Y-1575350D01*
X10652965Y-1400411D01*
X10699306Y-1422123D01*
X10759944Y-1443093D01*
X10827409Y-1456824D01*
X10915954Y-1461960D01*
G37*
G36*
X12197226Y-654918D02*
G01*
X12287985Y-670851D01*
X12361187Y-695135D01*
X12419818Y-726606D01*
X12461128Y-760503D01*
X12493000Y-800462D01*
X12516222Y-847286D01*
X12530799Y-902312D01*
X12535956Y-967308D01*
X12530239Y-1033755D01*
X12514277Y-1088078D01*
X12489061Y-1132660D01*
X12454413Y-1170915D01*
X12409953Y-1204179D01*
X12354056Y-1232433D01*
X12415605Y-1316025D01*
X12479230Y-1414394D01*
X12540108Y-1521128D01*
X12594696Y-1630000D01*
X12349843Y-1630000D01*
X12295987Y-1533035D01*
X12239994Y-1437475D01*
X12183330Y-1349609D01*
X12127398Y-1274382D01*
X12019687Y-1274382D01*
X12019687Y-1630000D01*
X11801456Y-1630000D01*
X11801456Y-840912D01*
X12019687Y-840912D01*
X12019687Y-1102435D01*
X12081237Y-1102435D01*
X12163853Y-1098122D01*
X12220384Y-1087142D01*
X12257519Y-1071844D01*
X12286525Y-1047304D01*
X12304259Y-1013582D01*
X12310703Y-967491D01*
X12304268Y-923341D01*
X12286411Y-890694D01*
X12256847Y-866618D01*
X12219557Y-851246D01*
X12167960Y-840700D01*
X12098028Y-836699D01*
X12055347Y-838103D01*
X12019687Y-840912D01*
X11801456Y-840912D01*
X11801456Y-674277D01*
X11873597Y-662460D01*
X11949040Y-654738D01*
X12085450Y-649120D01*
X12197226Y-654918D01*
G37*
G36*
X26378559Y-23038330D02*
G01*
X26384177Y-23124975D01*
X26314116Y-23129105D01*
X26250576Y-23138286D01*
X26190351Y-23153768D01*
X26137247Y-23175411D01*
X26089329Y-23204398D01*
X26048404Y-23240502D01*
X26015236Y-23284105D01*
X25989664Y-23337711D01*
X26020920Y-23325794D01*
X26052617Y-23318171D01*
X26112762Y-23312554D01*
X26199738Y-23319141D01*
X26267307Y-23337039D01*
X26326225Y-23366480D01*
X26371537Y-23403351D01*
X26406511Y-23448701D01*
X26430339Y-23501170D01*
X26443912Y-23558298D01*
X26448535Y-23619872D01*
X26443597Y-23675704D01*
X26428263Y-23734422D01*
X26402790Y-23790220D01*
X26366714Y-23840607D01*
X26320594Y-23883316D01*
X26261750Y-23918825D01*
X26218310Y-23935440D01*
X26168550Y-23945873D01*
X26111358Y-23949539D01*
X26041107Y-23944587D01*
X25980849Y-23930553D01*
X25928968Y-23908239D01*
X25884170Y-23877845D01*
X25845560Y-23838958D01*
X25807567Y-23781819D01*
X25779223Y-23713449D01*
X25761114Y-23631675D01*
X25754641Y-23533838D01*
X25754644Y-23533777D01*
X25964507Y-23533777D01*
X25966294Y-23583207D01*
X25971468Y-23628543D01*
X25981216Y-23671262D01*
X25995281Y-23706578D01*
X26015154Y-23736665D01*
X26040039Y-23758785D01*
X26070536Y-23772623D01*
X26110014Y-23777592D01*
X26143092Y-23773754D01*
X26169426Y-23762998D01*
X26191899Y-23746350D01*
X26209971Y-23726057D01*
X26223946Y-23702627D01*
X26233784Y-23676598D01*
X26241478Y-23624330D01*
X26237031Y-23578289D01*
X26224836Y-23542635D01*
X26205758Y-23515031D01*
X26179274Y-23495078D01*
X26140844Y-23481757D01*
X26086201Y-23476685D01*
X26020377Y-23482302D01*
X25987565Y-23489386D01*
X25965850Y-23497568D01*
X25965178Y-23514298D01*
X25964507Y-23533777D01*
X25754644Y-23533777D01*
X25759778Y-23441305D01*
X25774488Y-23359185D01*
X25797994Y-23286114D01*
X25831508Y-23217287D01*
X25872722Y-23157176D01*
X25921825Y-23104886D01*
X25978270Y-23060410D01*
X26042751Y-23023093D01*
X26116243Y-22992962D01*
X26193196Y-22971884D01*
X26278436Y-22958364D01*
X26373003Y-22953028D01*
X26378559Y-23038330D01*
G37*
G36*
X34803664Y-23164054D02*
G01*
X34888294Y-23125280D01*
X34974329Y-23077287D01*
X35054807Y-23022271D01*
X35091663Y-22992166D01*
X35124049Y-22960844D01*
X35269557Y-22960844D01*
X35269557Y-23930000D01*
X35061096Y-23930000D01*
X35061096Y-23234396D01*
X35017400Y-23260467D01*
X34967368Y-23284893D01*
X34866617Y-23324277D01*
X34803664Y-23164054D01*
G37*
G36*
X36193894Y-23214307D02*
G01*
X36188647Y-23266373D01*
X36172889Y-23316400D01*
X36148980Y-23364149D01*
X36118362Y-23410800D01*
X36082903Y-23455107D01*
X36042769Y-23498239D01*
X35960276Y-23577923D01*
X35914786Y-23622009D01*
X35867952Y-23671652D01*
X35828079Y-23718485D01*
X35813030Y-23739742D01*
X35806403Y-23754145D01*
X36223325Y-23754145D01*
X36223325Y-23930000D01*
X35576937Y-23930000D01*
X35574128Y-23890860D01*
X35574128Y-23857276D01*
X35579699Y-23792062D01*
X35595804Y-23734178D01*
X35620882Y-23680074D01*
X35652530Y-23629947D01*
X35689685Y-23583340D01*
X35731542Y-23539699D01*
X35818981Y-23455741D01*
X35881935Y-23394863D01*
X35933714Y-23338932D01*
X35954023Y-23311079D01*
X35968702Y-23284344D01*
X35978191Y-23256638D01*
X35981281Y-23229084D01*
X35976803Y-23189704D01*
X35964853Y-23161821D01*
X35946293Y-23142377D01*
X35908112Y-23123760D01*
X35859526Y-23117159D01*
X35822673Y-23120191D01*
X35788878Y-23129066D01*
X35728734Y-23157093D01*
X35681839Y-23189272D01*
X35652469Y-23215101D01*
X35548971Y-23068921D01*
X35615022Y-23016981D01*
X35692341Y-22974460D01*
X35747950Y-22953955D01*
X35806279Y-22941584D01*
X35867952Y-22937397D01*
X35949976Y-22942659D01*
X36014803Y-22956997D01*
X36072130Y-22981222D01*
X36116225Y-23012196D01*
X36150784Y-23051611D01*
X36174965Y-23098902D01*
X36188962Y-23152069D01*
X36193894Y-23214307D01*
G37*
G36*
X27701553Y-23930000D02*
G01*
X27714239Y-23827149D01*
X27736480Y-23717325D01*
X27766085Y-23607787D01*
X27801571Y-23500498D01*
X27842678Y-23396273D01*
X27887605Y-23299731D01*
X27936975Y-23209296D01*
X27984142Y-23136699D01*
X27563006Y-23136699D01*
X27563006Y-22960844D01*
X28241574Y-22960844D01*
X28241574Y-23111664D01*
X28197277Y-23166191D01*
X28142900Y-23247096D01*
X28091520Y-23337368D01*
X28040745Y-23443346D01*
X27996101Y-23555680D01*
X27956787Y-23678674D01*
X27927855Y-23804887D01*
X27912762Y-23930000D01*
X27701553Y-23930000D01*
G37*
G36*
X36601160Y-1125882D02*
G01*
X36834778Y-1125882D01*
X36834778Y-867962D01*
X37025043Y-867962D01*
X37025043Y-1125882D01*
X37258661Y-1125882D01*
X37258661Y-1301737D01*
X37025043Y-1301737D01*
X37025043Y-1559658D01*
X36834778Y-1559658D01*
X36834778Y-1301737D01*
X36601160Y-1301737D01*
X36601160Y-1125882D01*
G37*
G36*
X38031324Y-660844D02*
G01*
X38089331Y-774966D01*
X38157903Y-922001D01*
X38228550Y-1083750D01*
X38294312Y-1239211D01*
X38360075Y-1083750D01*
X38430722Y-922001D01*
X38499293Y-774966D01*
X38557362Y-660844D01*
X38755992Y-660844D01*
X38781882Y-876938D01*
X38802826Y-1125882D01*
X38819617Y-1385268D01*
X38832929Y-1630000D01*
X38620315Y-1630000D01*
X38609080Y-1322376D01*
X38588136Y-986786D01*
X38532144Y-1117334D01*
X38471266Y-1260460D01*
X38413258Y-1397297D01*
X38365692Y-1508855D01*
X38213162Y-1508855D01*
X38165596Y-1397297D01*
X38107527Y-1260460D01*
X38046650Y-1117334D01*
X37990718Y-986786D01*
X37969713Y-1322376D01*
X37958539Y-1630000D01*
X37745926Y-1630000D01*
X37759237Y-1385268D01*
X37775968Y-1125882D01*
X37796973Y-876938D01*
X37822862Y-660844D01*
X38031324Y-660844D01*
G37*
G36*
X39535617Y-641053D02*
G01*
X39597941Y-651842D01*
X39657431Y-669637D01*
X39713979Y-694808D01*
X39765109Y-726925D01*
X39811366Y-766235D01*
X39851531Y-811752D01*
X39886024Y-864434D01*
X39914863Y-925115D01*
X39935308Y-989158D01*
X39948157Y-1061734D01*
X39952660Y-1144139D01*
X39948240Y-1226620D01*
X39935635Y-1299240D01*
X39915596Y-1363286D01*
X39887228Y-1423979D01*
X39853416Y-1476399D01*
X39814174Y-1521434D01*
X39768804Y-1560209D01*
X39717946Y-1592126D01*
X39660973Y-1617360D01*
X39600984Y-1635071D01*
X39537495Y-1645864D01*
X39469975Y-1649539D01*
X39404372Y-1645890D01*
X39342046Y-1635123D01*
X39282519Y-1617360D01*
X39225963Y-1592214D01*
X39174853Y-1560311D01*
X39128646Y-1521434D01*
X39088502Y-1476329D01*
X39053987Y-1423902D01*
X39025087Y-1363286D01*
X39004676Y-1299206D01*
X38991847Y-1226589D01*
X38987351Y-1144139D01*
X39212543Y-1144139D01*
X39217104Y-1213553D01*
X39230007Y-1273100D01*
X39251765Y-1327314D01*
X39280382Y-1371896D01*
X39316981Y-1408521D01*
X39360860Y-1435643D01*
X39410852Y-1452228D01*
X39469975Y-1458053D01*
X39527966Y-1452279D01*
X39578358Y-1435643D01*
X39622836Y-1408469D01*
X39659508Y-1371896D01*
X39688158Y-1327308D01*
X39709883Y-1273100D01*
X39722831Y-1213550D01*
X39727407Y-1144139D01*
X39722844Y-1074699D01*
X39709883Y-1014569D01*
X39688120Y-959731D01*
X39659508Y-915040D01*
X39622836Y-878466D01*
X39578358Y-851292D01*
X39527966Y-834657D01*
X39469975Y-828883D01*
X39410894Y-834889D01*
X39360860Y-852025D01*
X39316954Y-879672D01*
X39280382Y-916444D01*
X39251803Y-961129D01*
X39230007Y-1015973D01*
X39217067Y-1075934D01*
X39212543Y-1144139D01*
X38987351Y-1144139D01*
X38992007Y-1061798D01*
X39005303Y-989228D01*
X39026491Y-925115D01*
X39056233Y-864436D01*
X39091437Y-811748D01*
X39132126Y-766235D01*
X39178809Y-726852D01*
X39229956Y-694745D01*
X39286060Y-669637D01*
X39345088Y-651789D01*
X39406245Y-641027D01*
X39469975Y-637397D01*
X39535617Y-641053D01*
G37*
G36*
X40822104Y-660844D02*
G01*
X40822104Y-848422D01*
X40529684Y-848422D01*
X40529684Y-1630000D01*
X40311453Y-1630000D01*
X40311453Y-848422D01*
X40019033Y-848422D01*
X40019033Y-660844D01*
X40822104Y-660844D01*
G37*
G36*
X41435826Y-641053D02*
G01*
X41498150Y-651842D01*
X41557641Y-669637D01*
X41614188Y-694808D01*
X41665318Y-726925D01*
X41711575Y-766235D01*
X41751741Y-811752D01*
X41786233Y-864434D01*
X41815073Y-925115D01*
X41835517Y-989158D01*
X41848366Y-1061734D01*
X41852869Y-1144139D01*
X41848450Y-1226620D01*
X41835844Y-1299240D01*
X41815806Y-1363286D01*
X41787438Y-1423979D01*
X41753625Y-1476399D01*
X41714384Y-1521434D01*
X41669014Y-1560209D01*
X41618155Y-1592126D01*
X41561182Y-1617360D01*
X41501193Y-1635071D01*
X41437704Y-1645864D01*
X41370184Y-1649539D01*
X41304581Y-1645890D01*
X41242255Y-1635123D01*
X41182728Y-1617360D01*
X41126173Y-1592214D01*
X41075062Y-1560311D01*
X41028855Y-1521434D01*
X40988712Y-1476329D01*
X40954197Y-1423902D01*
X40925296Y-1363286D01*
X40904886Y-1299206D01*
X40892057Y-1226589D01*
X40887561Y-1144139D01*
X41112752Y-1144139D01*
X41117313Y-1213553D01*
X41130216Y-1273100D01*
X41151974Y-1327314D01*
X41180591Y-1371896D01*
X41217190Y-1408521D01*
X41261069Y-1435643D01*
X41311061Y-1452228D01*
X41370184Y-1458053D01*
X41428175Y-1452279D01*
X41478567Y-1435643D01*
X41523046Y-1408469D01*
X41559717Y-1371896D01*
X41588367Y-1327308D01*
X41610092Y-1273100D01*
X41623040Y-1213550D01*
X41627616Y-1144139D01*
X41623054Y-1074699D01*
X41610092Y-1014569D01*
X41588329Y-959731D01*
X41559717Y-915040D01*
X41523046Y-878466D01*
X41478567Y-851292D01*
X41428175Y-834657D01*
X41370184Y-828883D01*
X41311103Y-834889D01*
X41261069Y-852025D01*
X41217163Y-879672D01*
X41180591Y-916444D01*
X41152012Y-961129D01*
X41130216Y-1015973D01*
X41117276Y-1075934D01*
X41112752Y-1144139D01*
X40887561Y-1144139D01*
X40892216Y-1061798D01*
X40905512Y-989228D01*
X40926701Y-925115D01*
X40956442Y-864436D01*
X40991647Y-811748D01*
X41032336Y-766235D01*
X41079018Y-726852D01*
X41130166Y-694745D01*
X41186270Y-669637D01*
X41245297Y-651789D01*
X41306455Y-641027D01*
X41370184Y-637397D01*
X41435826Y-641053D01*
G37*
G36*
X42431210Y-654918D02*
G01*
X42521970Y-670851D01*
X42595171Y-695135D01*
X42653803Y-726606D01*
X42695112Y-760503D01*
X42726984Y-800462D01*
X42750206Y-847286D01*
X42764784Y-902312D01*
X42769940Y-967308D01*
X42764223Y-1033755D01*
X42748262Y-1088078D01*
X42723046Y-1132660D01*
X42688398Y-1170915D01*
X42643937Y-1204179D01*
X42588040Y-1232433D01*
X42649590Y-1316025D01*
X42713215Y-1414394D01*
X42774092Y-1521128D01*
X42828681Y-1630000D01*
X42583827Y-1630000D01*
X42529972Y-1533035D01*
X42473979Y-1437475D01*
X42417315Y-1349609D01*
X42361383Y-1274382D01*
X42253672Y-1274382D01*
X42253672Y-1630000D01*
X42035441Y-1630000D01*
X42035441Y-840912D01*
X42253672Y-840912D01*
X42253672Y-1102435D01*
X42315221Y-1102435D01*
X42397838Y-1098122D01*
X42454368Y-1087142D01*
X42491503Y-1071844D01*
X42520510Y-1047304D01*
X42538244Y-1013582D01*
X42544687Y-967491D01*
X42538252Y-923341D01*
X42520395Y-890694D01*
X42490832Y-866618D01*
X42453542Y-851246D01*
X42401945Y-840700D01*
X42332013Y-836699D01*
X42289331Y-838103D01*
X42253672Y-840912D01*
X42035441Y-840912D01*
X42035441Y-674277D01*
X42107582Y-662460D01*
X42183025Y-654738D01*
X42319434Y-649120D01*
X42431210Y-654918D01*
G37*
G36*
X43226613Y-1118066D02*
G01*
X43632301Y-1118066D01*
X43632301Y-1305645D01*
X43226613Y-1305645D01*
X43226613Y-1118066D01*
G37*
G36*
X19296755Y-23214307D02*
G01*
X19291508Y-23266373D01*
X19275751Y-23316400D01*
X19251841Y-23364149D01*
X19221223Y-23410800D01*
X19185765Y-23455107D01*
X19145630Y-23498239D01*
X19063137Y-23577923D01*
X19017647Y-23622009D01*
X18970813Y-23671652D01*
X18930941Y-23718485D01*
X18915891Y-23739742D01*
X18909264Y-23754145D01*
X19326187Y-23754145D01*
X19326187Y-23930000D01*
X18679798Y-23930000D01*
X18676989Y-23890860D01*
X18676989Y-23857276D01*
X18682560Y-23792062D01*
X18698666Y-23734178D01*
X18723743Y-23680074D01*
X18755391Y-23629947D01*
X18792547Y-23583340D01*
X18834404Y-23539699D01*
X18921843Y-23455741D01*
X18984796Y-23394863D01*
X19036576Y-23338932D01*
X19056884Y-23311079D01*
X19071564Y-23284344D01*
X19081053Y-23256638D01*
X19084142Y-23229084D01*
X19079664Y-23189704D01*
X19067714Y-23161821D01*
X19049154Y-23142377D01*
X19010973Y-23123760D01*
X18962387Y-23117159D01*
X18925534Y-23120191D01*
X18891740Y-23129066D01*
X18831595Y-23157093D01*
X18784700Y-23189272D01*
X18755330Y-23215101D01*
X18651832Y-23068921D01*
X18717883Y-23016981D01*
X18795203Y-22974460D01*
X18850811Y-22953955D01*
X18909140Y-22941584D01*
X18970813Y-22937397D01*
X19052837Y-22942659D01*
X19117664Y-22956997D01*
X19174992Y-22981222D01*
X19219086Y-23012196D01*
X19253646Y-23051611D01*
X19277827Y-23098902D01*
X19291823Y-23152069D01*
X19296755Y-23214307D01*
G37*
G36*
X27739611Y-18725882D02*
G01*
X27973229Y-18725882D01*
X27973229Y-18467962D01*
X28163494Y-18467962D01*
X28163494Y-18725882D01*
X28397112Y-18725882D01*
X28397112Y-18901737D01*
X28163494Y-18901737D01*
X28163494Y-19159658D01*
X27973229Y-19159658D01*
X27973229Y-18901737D01*
X27739611Y-18901737D01*
X27739611Y-18725882D01*
G37*
G36*
X28973011Y-18254918D02*
G01*
X29063770Y-18270851D01*
X29136972Y-18295135D01*
X29195603Y-18326606D01*
X29236913Y-18360503D01*
X29268785Y-18400462D01*
X29292007Y-18447286D01*
X29306584Y-18502312D01*
X29311741Y-18567308D01*
X29306024Y-18633755D01*
X29290063Y-18688078D01*
X29264846Y-18732660D01*
X29230198Y-18770915D01*
X29185738Y-18804179D01*
X29129841Y-18832433D01*
X29191390Y-18916025D01*
X29255015Y-19014394D01*
X29315893Y-19121128D01*
X29370481Y-19230000D01*
X29125628Y-19230000D01*
X29071772Y-19133035D01*
X29015780Y-19037475D01*
X28959115Y-18949609D01*
X28903184Y-18874382D01*
X28795473Y-18874382D01*
X28795473Y-19230000D01*
X28577242Y-19230000D01*
X28577242Y-18440912D01*
X28795473Y-18440912D01*
X28795473Y-18702435D01*
X28857022Y-18702435D01*
X28939638Y-18698122D01*
X28996169Y-18687142D01*
X29033304Y-18671844D01*
X29062311Y-18647304D01*
X29080044Y-18613582D01*
X29086488Y-18567491D01*
X29080053Y-18523341D01*
X29062196Y-18490694D01*
X29032632Y-18466618D01*
X28995342Y-18451246D01*
X28943745Y-18440700D01*
X28873813Y-18436699D01*
X28831132Y-18438103D01*
X28795473Y-18440912D01*
X28577242Y-18440912D01*
X28577242Y-18274277D01*
X28649382Y-18262460D01*
X28724825Y-18254738D01*
X28861235Y-18249120D01*
X28973011Y-18254918D01*
G37*
G36*
X30144609Y-18467107D02*
G01*
X30237604Y-18690162D01*
X30333470Y-18940511D01*
X30436968Y-19230000D01*
X30203349Y-19230000D01*
X30169033Y-19127051D01*
X30132030Y-19018974D01*
X29754248Y-19018974D01*
X29717184Y-19126929D01*
X29682929Y-19230000D01*
X29456272Y-19230000D01*
X29559830Y-18940511D01*
X29595605Y-18847027D01*
X29804623Y-18847027D01*
X30080251Y-18847027D01*
X30036837Y-18727103D01*
X29996964Y-18622445D01*
X29964113Y-18538243D01*
X29941765Y-18480479D01*
X29920760Y-18537876D01*
X29888581Y-18622201D01*
X29848709Y-18726920D01*
X29804623Y-18847027D01*
X29595605Y-18847027D01*
X29655635Y-18690162D01*
X29747959Y-18467107D01*
X29842419Y-18260844D01*
X30050881Y-18260844D01*
X30144609Y-18467107D01*
G37*
G36*
X30563424Y-18260844D02*
G01*
X30781655Y-18260844D01*
X30781655Y-19230000D01*
X30563424Y-19230000D01*
X30563424Y-18260844D01*
G37*
G36*
X31652747Y-19042421D02*
G01*
X31652747Y-19230000D01*
X31005015Y-19230000D01*
X31005015Y-18260844D01*
X31223246Y-18260844D01*
X31223246Y-19042421D01*
X31652747Y-19042421D01*
G37*
G36*
X31688163Y-18718066D02*
G01*
X32093850Y-18718066D01*
X32093850Y-18905645D01*
X31688163Y-18905645D01*
X31688163Y-18718066D01*
G37*
G36*
X15353402Y-18843119D02*
G01*
X15456961Y-18843119D01*
X15456961Y-19015066D01*
X15353402Y-19015066D01*
X15353402Y-19230000D01*
X15149154Y-19230000D01*
X15149154Y-19015066D01*
X14730827Y-19015066D01*
X14730827Y-18861315D01*
X14740878Y-18843119D01*
X14929519Y-18843119D01*
X15149154Y-18843119D01*
X15149154Y-18515467D01*
X15033017Y-18670928D01*
X14975968Y-18756621D01*
X14929519Y-18843119D01*
X14740878Y-18843119D01*
X14807764Y-18722035D01*
X14910590Y-18562484D01*
X15030208Y-18402260D01*
X15094165Y-18326579D01*
X15156115Y-18260844D01*
X15353402Y-18260844D01*
X15353402Y-18843119D01*
G37*
G36*
X20721843Y-23949539D02*
G01*
X20642097Y-23944654D01*
X20560948Y-23931526D01*
X20489629Y-23913574D01*
X20439254Y-23895561D01*
X20479798Y-23723309D01*
X20572855Y-23756221D01*
X20633122Y-23768907D01*
X20713477Y-23773684D01*
X20777098Y-23768811D01*
X20822717Y-23756020D01*
X20854772Y-23737170D01*
X20879550Y-23710149D01*
X20894363Y-23677934D01*
X20899529Y-23638862D01*
X20895275Y-23603062D01*
X20883409Y-23574993D01*
X20864510Y-23551599D01*
X20839323Y-23532861D01*
X20809517Y-23519420D01*
X20772889Y-23510390D01*
X20691068Y-23504040D01*
X20609918Y-23504040D01*
X20609918Y-23336001D01*
X20702242Y-23336001D01*
X20761715Y-23330383D01*
X20789198Y-23322720D01*
X20812762Y-23311516D01*
X20832831Y-23295798D01*
X20848422Y-23275062D01*
X20858170Y-23249963D01*
X20861733Y-23216933D01*
X20858807Y-23191591D01*
X20850498Y-23170710D01*
X20837665Y-23152721D01*
X20821860Y-23138469D01*
X20803251Y-23127539D01*
X20781316Y-23119541D01*
X20734421Y-23113251D01*
X20675840Y-23117918D01*
X20623230Y-23131448D01*
X20573948Y-23151973D01*
X20530173Y-23176205D01*
X20456045Y-23023920D01*
X20508497Y-22994672D01*
X20574931Y-22966706D01*
X20652600Y-22945762D01*
X20694602Y-22939536D01*
X20740039Y-22937397D01*
X20822158Y-22942837D01*
X20887622Y-22957730D01*
X20945592Y-22982907D01*
X20990449Y-23015249D01*
X21025854Y-23055689D01*
X21050594Y-23102199D01*
X21065177Y-23153609D01*
X21070194Y-23210887D01*
X21066706Y-23248351D01*
X21056142Y-23285333D01*
X21038015Y-23322384D01*
X21013897Y-23355694D01*
X20985138Y-23382851D01*
X20951309Y-23404389D01*
X20998738Y-23428723D01*
X21037295Y-23459094D01*
X21068118Y-23495736D01*
X21090653Y-23537887D01*
X21104547Y-23585995D01*
X21109395Y-23641427D01*
X21103659Y-23706468D01*
X21086986Y-23764830D01*
X21058486Y-23817220D01*
X21017071Y-23862405D01*
X20964577Y-23898157D01*
X20896049Y-23926519D01*
X20818820Y-23943373D01*
X20721843Y-23949539D01*
G37*
G36*
X16903664Y-18464054D02*
G01*
X16988294Y-18425280D01*
X17074329Y-18377287D01*
X17154807Y-18322271D01*
X17191663Y-18292166D01*
X17224049Y-18260844D01*
X17369557Y-18260844D01*
X17369557Y-19230000D01*
X17161096Y-19230000D01*
X17161096Y-18534396D01*
X17117400Y-18560467D01*
X17067368Y-18584893D01*
X16966617Y-18624277D01*
X16903664Y-18464054D01*
G37*
G36*
X18061335Y-18242874D02*
G01*
X18117816Y-18258671D01*
X18168155Y-18284424D01*
X18213369Y-18320571D01*
X18254022Y-18368311D01*
X18292062Y-18434813D01*
X18321187Y-18517156D01*
X18340188Y-18618559D01*
X18347078Y-18742796D01*
X18340174Y-18867785D01*
X18321152Y-18969630D01*
X18292023Y-19052171D01*
X18254022Y-19118686D01*
X18213372Y-19166400D01*
X18168161Y-19202530D01*
X18117821Y-19228273D01*
X18061338Y-19244063D01*
X17997322Y-19249539D01*
X17933308Y-19244064D01*
X17876818Y-19228274D01*
X17826465Y-19202532D01*
X17781235Y-19166401D01*
X17740562Y-19118686D01*
X17702587Y-19052175D01*
X17673477Y-18969636D01*
X17654466Y-18867789D01*
X17647567Y-18742796D01*
X17860241Y-18742796D01*
X17862067Y-18813922D01*
X17867202Y-18875542D01*
X17876895Y-18933272D01*
X17890283Y-18978979D01*
X17909586Y-19018558D01*
X17932293Y-19046024D01*
X17961045Y-19063672D01*
X17997322Y-19069776D01*
X18033712Y-19063695D01*
X18063024Y-19046024D01*
X18086156Y-19018464D01*
X18105033Y-18978979D01*
X18117907Y-18933309D01*
X18127382Y-18875542D01*
X18132562Y-18813921D01*
X18134404Y-18742796D01*
X18132556Y-18671706D01*
X18127382Y-18610722D01*
X18117922Y-18553555D01*
X18105033Y-18508018D01*
X18086152Y-18468481D01*
X18063024Y-18440912D01*
X18033712Y-18423241D01*
X17997322Y-18417159D01*
X17961045Y-18423263D01*
X17932293Y-18440912D01*
X17909590Y-18468386D01*
X17890283Y-18508018D01*
X17876879Y-18553593D01*
X17867202Y-18610722D01*
X17862073Y-18671706D01*
X17860241Y-18742796D01*
X17647567Y-18742796D01*
X17654058Y-18624784D01*
X17672052Y-18527191D01*
X17691533Y-18465956D01*
X17715184Y-18413579D01*
X17742699Y-18368982D01*
X17776066Y-18328873D01*
X17812817Y-18296433D01*
X17853219Y-18270980D01*
X17897217Y-18252522D01*
X17944997Y-18241260D01*
X17997322Y-18237397D01*
X18061335Y-18242874D01*
G37*
G36*
X16900803Y-23164054D02*
G01*
X16985433Y-23125280D01*
X17071468Y-23077287D01*
X17151946Y-23022271D01*
X17188802Y-22992166D01*
X17221188Y-22960844D01*
X17366696Y-22960844D01*
X17366696Y-23930000D01*
X17158235Y-23930000D01*
X17158235Y-23234396D01*
X17114539Y-23260467D01*
X17064507Y-23284893D01*
X16963756Y-23324277D01*
X16900803Y-23164054D01*
G37*
G36*
X19503664Y-18464054D02*
G01*
X19588294Y-18425280D01*
X19674329Y-18377287D01*
X19754807Y-18322271D01*
X19791663Y-18292166D01*
X19824049Y-18260844D01*
X19969557Y-18260844D01*
X19969557Y-19230000D01*
X19761096Y-19230000D01*
X19761096Y-18534396D01*
X19717400Y-18560467D01*
X19667368Y-18584893D01*
X19566617Y-18624277D01*
X19503664Y-18464054D01*
G37*
G36*
X20297942Y-18464054D02*
G01*
X20382572Y-18425280D01*
X20468606Y-18377287D01*
X20549084Y-18322271D01*
X20585941Y-18292166D01*
X20618327Y-18260844D01*
X20763835Y-18260844D01*
X20763835Y-19230000D01*
X20555374Y-19230000D01*
X20555374Y-18534396D01*
X20511677Y-18560467D01*
X20461645Y-18584893D01*
X20360895Y-18624277D01*
X20297942Y-18464054D01*
G37*
G36*
X22003664Y-18464054D02*
G01*
X22088294Y-18425280D01*
X22174329Y-18377287D01*
X22254807Y-18322271D01*
X22291663Y-18292166D01*
X22324049Y-18260844D01*
X22469557Y-18260844D01*
X22469557Y-19230000D01*
X22261096Y-19230000D01*
X22261096Y-18534396D01*
X22217400Y-18560467D01*
X22167368Y-18584893D01*
X22066617Y-18624277D01*
X22003664Y-18464054D01*
G37*
G36*
X23393894Y-18514307D02*
G01*
X23388647Y-18566373D01*
X23372889Y-18616400D01*
X23348980Y-18664149D01*
X23318362Y-18710800D01*
X23282903Y-18755107D01*
X23242769Y-18798239D01*
X23160276Y-18877923D01*
X23114786Y-18922009D01*
X23067952Y-18971652D01*
X23028079Y-19018485D01*
X23013030Y-19039742D01*
X23006403Y-19054145D01*
X23423325Y-19054145D01*
X23423325Y-19230000D01*
X22776937Y-19230000D01*
X22774128Y-19190860D01*
X22774128Y-19157276D01*
X22779699Y-19092062D01*
X22795804Y-19034178D01*
X22820882Y-18980074D01*
X22852530Y-18929947D01*
X22889685Y-18883340D01*
X22931542Y-18839699D01*
X23018981Y-18755741D01*
X23081935Y-18694863D01*
X23133714Y-18638932D01*
X23154023Y-18611079D01*
X23168702Y-18584344D01*
X23178191Y-18556638D01*
X23181281Y-18529084D01*
X23176803Y-18489704D01*
X23164853Y-18461821D01*
X23146293Y-18442377D01*
X23108112Y-18423760D01*
X23059526Y-18417159D01*
X23022673Y-18420191D01*
X22988878Y-18429066D01*
X22928734Y-18457093D01*
X22881839Y-18489272D01*
X22852469Y-18515101D01*
X22748971Y-18368921D01*
X22815022Y-18316981D01*
X22892341Y-18274460D01*
X22947950Y-18253955D01*
X23006279Y-18241584D01*
X23067952Y-18237397D01*
X23149976Y-18242659D01*
X23214803Y-18256997D01*
X23272130Y-18281222D01*
X23316225Y-18312196D01*
X23350784Y-18351611D01*
X23374965Y-18398902D01*
X23388962Y-18452069D01*
X23393894Y-18514307D01*
G37*
G36*
X22853402Y-23543119D02*
G01*
X22956961Y-23543119D01*
X22956961Y-23715066D01*
X22853402Y-23715066D01*
X22853402Y-23930000D01*
X22649154Y-23930000D01*
X22649154Y-23715066D01*
X22230827Y-23715066D01*
X22230827Y-23561315D01*
X22240878Y-23543119D01*
X22429519Y-23543119D01*
X22649154Y-23543119D01*
X22649154Y-23215467D01*
X22533017Y-23370928D01*
X22475968Y-23456621D01*
X22429519Y-23543119D01*
X22240878Y-23543119D01*
X22307764Y-23422035D01*
X22410590Y-23262484D01*
X22530208Y-23102260D01*
X22594165Y-23026579D01*
X22656115Y-22960844D01*
X22853402Y-22960844D01*
X22853402Y-23543119D01*
G37*
D12*
G04 #@! TO.C,J6*
X11210000Y-17930000D02*
X11210000Y-16600000D01*
X12540000Y-17930000D02*
X11210000Y-17930000D01*
X13810000Y-15270000D02*
X24030000Y-15270000D01*
X13810000Y-17930000D02*
X13810000Y-15270000D01*
X13810000Y-17930000D02*
X24030000Y-17930000D01*
X24030000Y-17930000D02*
X24030000Y-15270000D01*
G04 #@! TO.C,D11*
X30727960Y-20475000D02*
X30727960Y-22760000D01*
X30727960Y-22760000D02*
X32197960Y-22760000D01*
X32197960Y-22760000D02*
X32197960Y-20475000D01*
D10*
G04 #@! TO.C,J4*
X15500000Y-7280000D02*
X16700000Y-7280000D01*
X15500000Y-7410000D02*
X15500000Y-7280000D01*
X15500000Y-12830000D02*
X15500000Y-12600000D01*
X16700000Y-7280000D02*
X16700000Y-7410000D01*
X16700000Y-12600000D02*
X16700000Y-12830000D01*
X16700000Y-12830000D02*
X15500000Y-12830000D01*
X17275000Y-7180000D02*
G75*
G02*
X17125000Y-7180000I-75000J0D01*
G01*
X17125000Y-7180000D02*
G75*
G02*
X17275000Y-7180000I75000J0D01*
G01*
D12*
G04 #@! TO.C,Q1*
X12640000Y-3300000D02*
X12640000Y-2650000D01*
X12640000Y-3300000D02*
X12640000Y-3950000D01*
X15760000Y-3300000D02*
X15760000Y-2650000D01*
X15760000Y-3300000D02*
X15760000Y-3950000D01*
X12690000Y-4462500D02*
X12360000Y-4702500D01*
X12360000Y-4222500D01*
X12690000Y-4462500D01*
G36*
X12690000Y-4462500D02*
G01*
X12360000Y-4702500D01*
X12360000Y-4222500D01*
X12690000Y-4462500D01*
G37*
G04 #@! TO.C,J5*
X6795000Y-4830000D02*
X6795000Y-3500000D01*
X8125000Y-4830000D02*
X6795000Y-4830000D01*
X9395000Y-2170000D02*
X11995000Y-2170000D01*
X9395000Y-4830000D02*
X9395000Y-2170000D01*
X9395000Y-4830000D02*
X11995000Y-4830000D01*
X11995000Y-4830000D02*
X11995000Y-2170000D01*
G04 #@! TO.C,J7*
X37495000Y-4830000D02*
X37495000Y-3500000D01*
X38825000Y-4830000D02*
X37495000Y-4830000D01*
X40095000Y-2170000D02*
X42695000Y-2170000D01*
X40095000Y-4830000D02*
X40095000Y-2170000D01*
X40095000Y-4830000D02*
X42695000Y-4830000D01*
X42695000Y-4830000D02*
X42695000Y-2170000D01*
G04 #@! TO.C,D6*
X21821480Y-20475000D02*
X21821480Y-22760000D01*
X21821480Y-22760000D02*
X23291480Y-22760000D01*
X23291480Y-22760000D02*
X23291480Y-20475000D01*
G04 #@! TO.C,R3*
X39862742Y-17177500D02*
X40337258Y-17177500D01*
X39862742Y-18222500D02*
X40337258Y-18222500D01*
G04 #@! TO.C,RN1*
X11900000Y-20185000D02*
X11400000Y-20185000D01*
X11900000Y-22465000D02*
X11400000Y-22465000D01*
G04 #@! TO.C,D5*
X20040184Y-20475000D02*
X20040184Y-22760000D01*
X20040184Y-22760000D02*
X21510184Y-22760000D01*
X21510184Y-22760000D02*
X21510184Y-20475000D01*
G04 #@! TO.C,D12*
X32509256Y-20475000D02*
X32509256Y-22760000D01*
X32509256Y-22760000D02*
X33979256Y-22760000D01*
X33979256Y-22760000D02*
X33979256Y-20475000D01*
G04 #@! TO.C,D13*
X7050000Y-23110000D02*
X7050000Y-17600000D01*
X7050000Y-23110000D02*
X10350000Y-23110000D01*
X10350000Y-23110000D02*
X10350000Y-17600000D01*
G04 #@! TO.C,Q4*
X22840000Y-3300000D02*
X22840000Y-2650000D01*
X22840000Y-3300000D02*
X22840000Y-3950000D01*
X25960000Y-3300000D02*
X25960000Y-2650000D01*
X25960000Y-3300000D02*
X25960000Y-3950000D01*
X22890000Y-4462500D02*
X22560000Y-4702500D01*
X22560000Y-4222500D01*
X22890000Y-4462500D01*
G36*
X22890000Y-4462500D02*
G01*
X22560000Y-4702500D01*
X22560000Y-4222500D01*
X22890000Y-4462500D01*
G37*
G04 #@! TO.C,R2*
X9620000Y-12953641D02*
X9620000Y-12646359D01*
X10380000Y-12953641D02*
X10380000Y-12646359D01*
G04 #@! TO.C,Q2*
X16040000Y-3300000D02*
X16040000Y-2650000D01*
X16040000Y-3300000D02*
X16040000Y-3950000D01*
X19160000Y-3300000D02*
X19160000Y-2650000D01*
X19160000Y-3300000D02*
X19160000Y-3950000D01*
X16090000Y-4462500D02*
X15760000Y-4702500D01*
X15760000Y-4222500D01*
X16090000Y-4462500D01*
G36*
X16090000Y-4462500D02*
G01*
X15760000Y-4702500D01*
X15760000Y-4222500D01*
X16090000Y-4462500D01*
G37*
G04 #@! TO.C,Q3*
X19440000Y-3300000D02*
X19440000Y-2650000D01*
X19440000Y-3300000D02*
X19440000Y-3950000D01*
X22560000Y-3300000D02*
X22560000Y-2650000D01*
X22560000Y-3300000D02*
X22560000Y-3950000D01*
X19490000Y-4462500D02*
X19160000Y-4702500D01*
X19160000Y-4222500D01*
X19490000Y-4462500D01*
G36*
X19490000Y-4462500D02*
G01*
X19160000Y-4702500D01*
X19160000Y-4222500D01*
X19490000Y-4462500D01*
G37*
G04 #@! TO.C,D7*
X23602776Y-20475000D02*
X23602776Y-22760000D01*
X23602776Y-22760000D02*
X25072776Y-22760000D01*
X25072776Y-22760000D02*
X25072776Y-20475000D01*
G04 #@! TO.C,D1*
X12915000Y-20475000D02*
X12915000Y-22760000D01*
X12915000Y-22760000D02*
X14385000Y-22760000D01*
X14385000Y-22760000D02*
X14385000Y-20475000D01*
G04 #@! TO.C,U1*
X40500000Y-13440000D02*
X39700000Y-13440000D01*
X40500000Y-13440000D02*
X41300000Y-13440000D01*
X40500000Y-16560000D02*
X39700000Y-16560000D01*
X40500000Y-16560000D02*
X41300000Y-16560000D01*
X39200000Y-13490000D02*
X38960000Y-13160000D01*
X39440000Y-13160000D01*
X39200000Y-13490000D01*
G36*
X39200000Y-13490000D02*
G01*
X38960000Y-13160000D01*
X39440000Y-13160000D01*
X39200000Y-13490000D01*
G37*
G04 #@! TO.C,D4*
X18258888Y-20475000D02*
X18258888Y-22760000D01*
X18258888Y-22760000D02*
X19728888Y-22760000D01*
X19728888Y-22760000D02*
X19728888Y-20475000D01*
G04 #@! TO.C,C3*
X39838748Y-6765000D02*
X40361252Y-6765000D01*
X39838748Y-8235000D02*
X40361252Y-8235000D01*
G04 #@! TO.C,R1*
X9620000Y-8953641D02*
X9620000Y-8646359D01*
X10380000Y-8953641D02*
X10380000Y-8646359D01*
G04 #@! TO.C,J1*
X1205000Y-16570000D02*
X1205000Y-19230000D01*
X3805000Y-16570000D02*
X1205000Y-16570000D01*
X3805000Y-16570000D02*
X3805000Y-19230000D01*
X3805000Y-19230000D02*
X1205000Y-19230000D01*
X5075000Y-16570000D02*
X6405000Y-16570000D01*
X6405000Y-16570000D02*
X6405000Y-17900000D01*
G04 #@! TO.C,RN3*
X36800000Y-20185000D02*
X37300000Y-20185000D01*
X36800000Y-22465000D02*
X37300000Y-22465000D01*
G04 #@! TO.C,C2*
X37581172Y-13923989D02*
X37581172Y-13708317D01*
X38301172Y-13923989D02*
X38301172Y-13708317D01*
G04 #@! TO.C,D2*
X14696296Y-20475000D02*
X14696296Y-22760000D01*
X14696296Y-22760000D02*
X16166296Y-22760000D01*
X16166296Y-22760000D02*
X16166296Y-20475000D01*
G04 #@! TO.C,P1*
X3695000Y-6030000D02*
X5395000Y-6030000D01*
X3695000Y-15370000D02*
X5395000Y-15370000D01*
G04 #@! TO.C,D3*
X16477592Y-20475000D02*
X16477592Y-22760000D01*
X16477592Y-22760000D02*
X17947592Y-22760000D01*
X17947592Y-22760000D02*
X17947592Y-20475000D01*
D10*
G04 #@! TO.C,L1*
X38730000Y-8470000D02*
X43480000Y-8470000D01*
X38730000Y-9590000D02*
X38730000Y-8470000D01*
X38730000Y-11810000D02*
X38730000Y-12930000D01*
X38730000Y-12930000D02*
X43480000Y-12930000D01*
X43480000Y-8470000D02*
X43480000Y-9590000D01*
X43480000Y-12930000D02*
X43480000Y-11810000D01*
D12*
G04 #@! TO.C,J3*
X29970000Y-4830000D02*
X29970000Y-3500000D01*
X31300000Y-4830000D02*
X29970000Y-4830000D01*
X32570000Y-2170000D02*
X35170000Y-2170000D01*
X32570000Y-4830000D02*
X32570000Y-2170000D01*
X32570000Y-4830000D02*
X35170000Y-4830000D01*
X35170000Y-4830000D02*
X35170000Y-2170000D01*
G04 #@! TO.C,Q5*
X26240000Y-3300000D02*
X26240000Y-2650000D01*
X26240000Y-3300000D02*
X26240000Y-3950000D01*
X29360000Y-3300000D02*
X29360000Y-2650000D01*
X29360000Y-3300000D02*
X29360000Y-3950000D01*
X26290000Y-4462500D02*
X25960000Y-4702500D01*
X25960000Y-4222500D01*
X26290000Y-4462500D01*
G36*
X26290000Y-4462500D02*
G01*
X25960000Y-4702500D01*
X25960000Y-4222500D01*
X26290000Y-4462500D01*
G37*
G04 #@! TO.C,D14*
X34290556Y-20475000D02*
X34290556Y-22760000D01*
X34290556Y-22760000D02*
X35760556Y-22760000D01*
X35760556Y-22760000D02*
X35760556Y-20475000D01*
G04 #@! TO.C,R5*
X38220000Y-21753641D02*
X38220000Y-21446359D01*
X38980000Y-21753641D02*
X38980000Y-21446359D01*
G04 #@! TO.C,RN2*
X24560000Y-16839478D02*
X24560000Y-16339478D01*
X26840000Y-16839478D02*
X26840000Y-16339478D01*
G04 #@! TO.C,C1*
X42865000Y-15738748D02*
X42865000Y-16261252D01*
X44335000Y-15738748D02*
X44335000Y-16261252D01*
G04 #@! TO.C,D8*
X25384072Y-20475000D02*
X25384072Y-22760000D01*
X25384072Y-22760000D02*
X26854072Y-22760000D01*
X26854072Y-22760000D02*
X26854072Y-20475000D01*
G04 #@! TO.C,R4*
X39862742Y-18677500D02*
X40337258Y-18677500D01*
X39862742Y-19722500D02*
X40337258Y-19722500D01*
G04 #@! TO.C,D10*
X28946664Y-20475000D02*
X28946664Y-22760000D01*
X28946664Y-22760000D02*
X30416664Y-22760000D01*
X30416664Y-22760000D02*
X30416664Y-20475000D01*
G04 #@! TO.C,D9*
X27165368Y-20475000D02*
X27165368Y-22760000D01*
X27165368Y-22760000D02*
X28635368Y-22760000D01*
X28635368Y-22760000D02*
X28635368Y-20475000D01*
G04 #@! TO.C,J2*
X27370000Y-17930000D02*
X27370000Y-16600000D01*
X28700000Y-17930000D02*
X27370000Y-17930000D01*
X29970000Y-15270000D02*
X37650000Y-15270000D01*
X29970000Y-17930000D02*
X29970000Y-15270000D01*
X29970000Y-17930000D02*
X37650000Y-17930000D01*
X37650000Y-17930000D02*
X37650000Y-15270000D01*
G04 #@! TD*
M02*
