G04 #@! TF.GenerationSoftware,KiCad,Pcbnew,8.0.7*
G04 #@! TF.CreationDate,2025-01-11T17:18:14-05:00*
G04 #@! TF.ProjectId,panel,70616e65-6c2e-46b6-9963-61645f706362,rev?*
G04 #@! TF.SameCoordinates,Original*
G04 #@! TF.FileFunction,Legend,Top*
G04 #@! TF.FilePolarity,Positive*
%FSLAX46Y46*%
G04 Gerber Fmt 4.6, Leading zero omitted, Abs format (unit mm)*
G04 Created by KiCad (PCBNEW 8.0.7) date 2025-01-11 17:18:14*
%MOMM*%
%LPD*%
G01*
G04 APERTURE LIST*
%ADD10C,0.100000*%
%ADD11C,0.200000*%
%ADD12C,0.254000*%
%ADD13C,0.120000*%
G04 APERTURE END LIST*
D10*
X27900000Y-28700000D02*
X47400000Y-28700000D01*
X47400000Y-37300000D01*
X27900000Y-37300000D01*
X27900000Y-28700000D01*
D11*
X48147619Y-41967219D02*
X48480952Y-42967219D01*
X48480952Y-42967219D02*
X48814285Y-41967219D01*
X49147619Y-42586266D02*
X49909524Y-42586266D01*
X49528571Y-42967219D02*
X49528571Y-42205314D01*
X45547619Y-42967219D02*
X45547619Y-41967219D01*
X45547619Y-41967219D02*
X45880952Y-42681504D01*
X45880952Y-42681504D02*
X46214285Y-41967219D01*
X46214285Y-41967219D02*
X46214285Y-42967219D01*
X46690476Y-42586266D02*
X47452381Y-42586266D01*
X51190476Y-42871980D02*
X51142857Y-42919600D01*
X51142857Y-42919600D02*
X51000000Y-42967219D01*
X51000000Y-42967219D02*
X50904762Y-42967219D01*
X50904762Y-42967219D02*
X50761905Y-42919600D01*
X50761905Y-42919600D02*
X50666667Y-42824361D01*
X50666667Y-42824361D02*
X50619048Y-42729123D01*
X50619048Y-42729123D02*
X50571429Y-42538647D01*
X50571429Y-42538647D02*
X50571429Y-42395790D01*
X50571429Y-42395790D02*
X50619048Y-42205314D01*
X50619048Y-42205314D02*
X50666667Y-42110076D01*
X50666667Y-42110076D02*
X50761905Y-42014838D01*
X50761905Y-42014838D02*
X50904762Y-41967219D01*
X50904762Y-41967219D02*
X51000000Y-41967219D01*
X51000000Y-41967219D02*
X51142857Y-42014838D01*
X51142857Y-42014838D02*
X51190476Y-42062457D01*
X51619048Y-42586266D02*
X52380953Y-42586266D01*
X52000000Y-42967219D02*
X52000000Y-42205314D01*
X40030326Y-28430504D02*
X39596993Y-27811457D01*
X39287469Y-28430504D02*
X39287469Y-27130504D01*
X39287469Y-27130504D02*
X39782707Y-27130504D01*
X39782707Y-27130504D02*
X39906517Y-27192409D01*
X39906517Y-27192409D02*
X39968422Y-27254314D01*
X39968422Y-27254314D02*
X40030326Y-27378123D01*
X40030326Y-27378123D02*
X40030326Y-27563838D01*
X40030326Y-27563838D02*
X39968422Y-27687647D01*
X39968422Y-27687647D02*
X39906517Y-27749552D01*
X39906517Y-27749552D02*
X39782707Y-27811457D01*
X39782707Y-27811457D02*
X39287469Y-27811457D01*
X40587469Y-27749552D02*
X41020803Y-27749552D01*
X41206517Y-28430504D02*
X40587469Y-28430504D01*
X40587469Y-28430504D02*
X40587469Y-27130504D01*
X40587469Y-27130504D02*
X41206517Y-27130504D01*
X41701755Y-28059076D02*
X42320802Y-28059076D01*
X41577945Y-28430504D02*
X42011278Y-27130504D01*
X42011278Y-27130504D02*
X42444612Y-28430504D01*
X43620802Y-28430504D02*
X43187469Y-27811457D01*
X42877945Y-28430504D02*
X42877945Y-27130504D01*
X42877945Y-27130504D02*
X43373183Y-27130504D01*
X43373183Y-27130504D02*
X43496993Y-27192409D01*
X43496993Y-27192409D02*
X43558898Y-27254314D01*
X43558898Y-27254314D02*
X43620802Y-27378123D01*
X43620802Y-27378123D02*
X43620802Y-27563838D01*
X43620802Y-27563838D02*
X43558898Y-27687647D01*
X43558898Y-27687647D02*
X43496993Y-27749552D01*
X43496993Y-27749552D02*
X43373183Y-27811457D01*
X43373183Y-27811457D02*
X42877945Y-27811457D01*
X20666667Y-41967219D02*
X21285714Y-41967219D01*
X21285714Y-41967219D02*
X20952381Y-42348171D01*
X20952381Y-42348171D02*
X21095238Y-42348171D01*
X21095238Y-42348171D02*
X21190476Y-42395790D01*
X21190476Y-42395790D02*
X21238095Y-42443409D01*
X21238095Y-42443409D02*
X21285714Y-42538647D01*
X21285714Y-42538647D02*
X21285714Y-42776742D01*
X21285714Y-42776742D02*
X21238095Y-42871980D01*
X21238095Y-42871980D02*
X21190476Y-42919600D01*
X21190476Y-42919600D02*
X21095238Y-42967219D01*
X21095238Y-42967219D02*
X20809524Y-42967219D01*
X20809524Y-42967219D02*
X20714286Y-42919600D01*
X20714286Y-42919600D02*
X20666667Y-42871980D01*
X41109523Y-42967219D02*
X40538095Y-42967219D01*
X40823809Y-42967219D02*
X40823809Y-41967219D01*
X40823809Y-41967219D02*
X40728571Y-42110076D01*
X40728571Y-42110076D02*
X40633333Y-42205314D01*
X40633333Y-42205314D02*
X40538095Y-42252933D01*
X41490476Y-42062457D02*
X41538095Y-42014838D01*
X41538095Y-42014838D02*
X41633333Y-41967219D01*
X41633333Y-41967219D02*
X41871428Y-41967219D01*
X41871428Y-41967219D02*
X41966666Y-42014838D01*
X41966666Y-42014838D02*
X42014285Y-42062457D01*
X42014285Y-42062457D02*
X42061904Y-42157695D01*
X42061904Y-42157695D02*
X42061904Y-42252933D01*
X42061904Y-42252933D02*
X42014285Y-42395790D01*
X42014285Y-42395790D02*
X41442857Y-42967219D01*
X41442857Y-42967219D02*
X42061904Y-42967219D01*
X25814285Y-41967219D02*
X25338095Y-41967219D01*
X25338095Y-41967219D02*
X25290476Y-42443409D01*
X25290476Y-42443409D02*
X25338095Y-42395790D01*
X25338095Y-42395790D02*
X25433333Y-42348171D01*
X25433333Y-42348171D02*
X25671428Y-42348171D01*
X25671428Y-42348171D02*
X25766666Y-42395790D01*
X25766666Y-42395790D02*
X25814285Y-42443409D01*
X25814285Y-42443409D02*
X25861904Y-42538647D01*
X25861904Y-42538647D02*
X25861904Y-42776742D01*
X25861904Y-42776742D02*
X25814285Y-42871980D01*
X25814285Y-42871980D02*
X25766666Y-42919600D01*
X25766666Y-42919600D02*
X25671428Y-42967219D01*
X25671428Y-42967219D02*
X25433333Y-42967219D01*
X25433333Y-42967219D02*
X25338095Y-42919600D01*
X25338095Y-42919600D02*
X25290476Y-42871980D01*
X26290476Y-42967219D02*
X26290476Y-41967219D01*
X26290476Y-42443409D02*
X26861904Y-42443409D01*
X26861904Y-42967219D02*
X26861904Y-41967219D01*
X38609523Y-42967219D02*
X38038095Y-42967219D01*
X38323809Y-42967219D02*
X38323809Y-41967219D01*
X38323809Y-41967219D02*
X38228571Y-42110076D01*
X38228571Y-42110076D02*
X38133333Y-42205314D01*
X38133333Y-42205314D02*
X38038095Y-42252933D01*
X39561904Y-42967219D02*
X38990476Y-42967219D01*
X39276190Y-42967219D02*
X39276190Y-41967219D01*
X39276190Y-41967219D02*
X39180952Y-42110076D01*
X39180952Y-42110076D02*
X39085714Y-42205314D01*
X39085714Y-42205314D02*
X38990476Y-42252933D01*
X32074435Y-27749552D02*
X31641101Y-27749552D01*
X31641101Y-28430504D02*
X31641101Y-27130504D01*
X31641101Y-27130504D02*
X32260149Y-27130504D01*
X33498244Y-28430504D02*
X33064911Y-27811457D01*
X32755387Y-28430504D02*
X32755387Y-27130504D01*
X32755387Y-27130504D02*
X33250625Y-27130504D01*
X33250625Y-27130504D02*
X33374435Y-27192409D01*
X33374435Y-27192409D02*
X33436340Y-27254314D01*
X33436340Y-27254314D02*
X33498244Y-27378123D01*
X33498244Y-27378123D02*
X33498244Y-27563838D01*
X33498244Y-27563838D02*
X33436340Y-27687647D01*
X33436340Y-27687647D02*
X33374435Y-27749552D01*
X33374435Y-27749552D02*
X33250625Y-27811457D01*
X33250625Y-27811457D02*
X32755387Y-27811457D01*
X34303006Y-27130504D02*
X34550625Y-27130504D01*
X34550625Y-27130504D02*
X34674435Y-27192409D01*
X34674435Y-27192409D02*
X34798244Y-27316219D01*
X34798244Y-27316219D02*
X34860149Y-27563838D01*
X34860149Y-27563838D02*
X34860149Y-27997171D01*
X34860149Y-27997171D02*
X34798244Y-28244790D01*
X34798244Y-28244790D02*
X34674435Y-28368600D01*
X34674435Y-28368600D02*
X34550625Y-28430504D01*
X34550625Y-28430504D02*
X34303006Y-28430504D01*
X34303006Y-28430504D02*
X34179197Y-28368600D01*
X34179197Y-28368600D02*
X34055387Y-28244790D01*
X34055387Y-28244790D02*
X33993483Y-27997171D01*
X33993483Y-27997171D02*
X33993483Y-27563838D01*
X33993483Y-27563838D02*
X34055387Y-27316219D01*
X34055387Y-27316219D02*
X34179197Y-27192409D01*
X34179197Y-27192409D02*
X34303006Y-27130504D01*
X35417292Y-28430504D02*
X35417292Y-27130504D01*
X35417292Y-27130504D02*
X36160149Y-28430504D01*
X36160149Y-28430504D02*
X36160149Y-27130504D01*
X36593483Y-27130504D02*
X37336340Y-27130504D01*
X36964912Y-28430504D02*
X36964912Y-27130504D01*
X52772054Y-28469600D02*
X52914911Y-28517219D01*
X52914911Y-28517219D02*
X53153006Y-28517219D01*
X53153006Y-28517219D02*
X53248244Y-28469600D01*
X53248244Y-28469600D02*
X53295863Y-28421980D01*
X53295863Y-28421980D02*
X53343482Y-28326742D01*
X53343482Y-28326742D02*
X53343482Y-28231504D01*
X53343482Y-28231504D02*
X53295863Y-28136266D01*
X53295863Y-28136266D02*
X53248244Y-28088647D01*
X53248244Y-28088647D02*
X53153006Y-28041028D01*
X53153006Y-28041028D02*
X52962530Y-27993409D01*
X52962530Y-27993409D02*
X52867292Y-27945790D01*
X52867292Y-27945790D02*
X52819673Y-27898171D01*
X52819673Y-27898171D02*
X52772054Y-27802933D01*
X52772054Y-27802933D02*
X52772054Y-27707695D01*
X52772054Y-27707695D02*
X52819673Y-27612457D01*
X52819673Y-27612457D02*
X52867292Y-27564838D01*
X52867292Y-27564838D02*
X52962530Y-27517219D01*
X52962530Y-27517219D02*
X53200625Y-27517219D01*
X53200625Y-27517219D02*
X53343482Y-27564838D01*
X53676816Y-27517219D02*
X53914911Y-28517219D01*
X53914911Y-28517219D02*
X54105387Y-27802933D01*
X54105387Y-27802933D02*
X54295863Y-28517219D01*
X54295863Y-28517219D02*
X54533959Y-27517219D01*
X54914911Y-28517219D02*
X54914911Y-27517219D01*
X54914911Y-27517219D02*
X55153006Y-27517219D01*
X55153006Y-27517219D02*
X55295863Y-27564838D01*
X55295863Y-27564838D02*
X55391101Y-27660076D01*
X55391101Y-27660076D02*
X55438720Y-27755314D01*
X55438720Y-27755314D02*
X55486339Y-27945790D01*
X55486339Y-27945790D02*
X55486339Y-28088647D01*
X55486339Y-28088647D02*
X55438720Y-28279123D01*
X55438720Y-28279123D02*
X55391101Y-28374361D01*
X55391101Y-28374361D02*
X55295863Y-28469600D01*
X55295863Y-28469600D02*
X55153006Y-28517219D01*
X55153006Y-28517219D02*
X54914911Y-28517219D01*
X32773808Y-32707275D02*
X32440475Y-32231084D01*
X32202380Y-32707275D02*
X32202380Y-31707275D01*
X32202380Y-31707275D02*
X32583332Y-31707275D01*
X32583332Y-31707275D02*
X32678570Y-31754894D01*
X32678570Y-31754894D02*
X32726189Y-31802513D01*
X32726189Y-31802513D02*
X32773808Y-31897751D01*
X32773808Y-31897751D02*
X32773808Y-32040608D01*
X32773808Y-32040608D02*
X32726189Y-32135846D01*
X32726189Y-32135846D02*
X32678570Y-32183465D01*
X32678570Y-32183465D02*
X32583332Y-32231084D01*
X32583332Y-32231084D02*
X32202380Y-32231084D01*
X33202380Y-32707275D02*
X33202380Y-31707275D01*
X33202380Y-31707275D02*
X33583332Y-31707275D01*
X33583332Y-31707275D02*
X33678570Y-31754894D01*
X33678570Y-31754894D02*
X33726189Y-31802513D01*
X33726189Y-31802513D02*
X33773808Y-31897751D01*
X33773808Y-31897751D02*
X33773808Y-32040608D01*
X33773808Y-32040608D02*
X33726189Y-32135846D01*
X33726189Y-32135846D02*
X33678570Y-32183465D01*
X33678570Y-32183465D02*
X33583332Y-32231084D01*
X33583332Y-32231084D02*
X33202380Y-32231084D01*
X34154761Y-31802513D02*
X34202380Y-31754894D01*
X34202380Y-31754894D02*
X34297618Y-31707275D01*
X34297618Y-31707275D02*
X34535713Y-31707275D01*
X34535713Y-31707275D02*
X34630951Y-31754894D01*
X34630951Y-31754894D02*
X34678570Y-31802513D01*
X34678570Y-31802513D02*
X34726189Y-31897751D01*
X34726189Y-31897751D02*
X34726189Y-31992989D01*
X34726189Y-31992989D02*
X34678570Y-32135846D01*
X34678570Y-32135846D02*
X34107142Y-32707275D01*
X34107142Y-32707275D02*
X34726189Y-32707275D01*
X35345237Y-31707275D02*
X35440475Y-31707275D01*
X35440475Y-31707275D02*
X35535713Y-31754894D01*
X35535713Y-31754894D02*
X35583332Y-31802513D01*
X35583332Y-31802513D02*
X35630951Y-31897751D01*
X35630951Y-31897751D02*
X35678570Y-32088227D01*
X35678570Y-32088227D02*
X35678570Y-32326322D01*
X35678570Y-32326322D02*
X35630951Y-32516798D01*
X35630951Y-32516798D02*
X35583332Y-32612036D01*
X35583332Y-32612036D02*
X35535713Y-32659656D01*
X35535713Y-32659656D02*
X35440475Y-32707275D01*
X35440475Y-32707275D02*
X35345237Y-32707275D01*
X35345237Y-32707275D02*
X35249999Y-32659656D01*
X35249999Y-32659656D02*
X35202380Y-32612036D01*
X35202380Y-32612036D02*
X35154761Y-32516798D01*
X35154761Y-32516798D02*
X35107142Y-32326322D01*
X35107142Y-32326322D02*
X35107142Y-32088227D01*
X35107142Y-32088227D02*
X35154761Y-31897751D01*
X35154761Y-31897751D02*
X35202380Y-31802513D01*
X35202380Y-31802513D02*
X35249999Y-31754894D01*
X35249999Y-31754894D02*
X35345237Y-31707275D01*
X36535713Y-32040608D02*
X36535713Y-32707275D01*
X36297618Y-31659656D02*
X36059523Y-32373941D01*
X36059523Y-32373941D02*
X36678570Y-32373941D01*
X37249999Y-31707275D02*
X37345237Y-31707275D01*
X37345237Y-31707275D02*
X37440475Y-31754894D01*
X37440475Y-31754894D02*
X37488094Y-31802513D01*
X37488094Y-31802513D02*
X37535713Y-31897751D01*
X37535713Y-31897751D02*
X37583332Y-32088227D01*
X37583332Y-32088227D02*
X37583332Y-32326322D01*
X37583332Y-32326322D02*
X37535713Y-32516798D01*
X37535713Y-32516798D02*
X37488094Y-32612036D01*
X37488094Y-32612036D02*
X37440475Y-32659656D01*
X37440475Y-32659656D02*
X37345237Y-32707275D01*
X37345237Y-32707275D02*
X37249999Y-32707275D01*
X37249999Y-32707275D02*
X37154761Y-32659656D01*
X37154761Y-32659656D02*
X37107142Y-32612036D01*
X37107142Y-32612036D02*
X37059523Y-32516798D01*
X37059523Y-32516798D02*
X37011904Y-32326322D01*
X37011904Y-32326322D02*
X37011904Y-32088227D01*
X37011904Y-32088227D02*
X37059523Y-31897751D01*
X37059523Y-31897751D02*
X37107142Y-31802513D01*
X37107142Y-31802513D02*
X37154761Y-31754894D01*
X37154761Y-31754894D02*
X37249999Y-31707275D01*
X38773809Y-32707275D02*
X38773809Y-31707275D01*
X38773809Y-31707275D02*
X39011904Y-31707275D01*
X39011904Y-31707275D02*
X39154761Y-31754894D01*
X39154761Y-31754894D02*
X39249999Y-31850132D01*
X39249999Y-31850132D02*
X39297618Y-31945370D01*
X39297618Y-31945370D02*
X39345237Y-32135846D01*
X39345237Y-32135846D02*
X39345237Y-32278703D01*
X39345237Y-32278703D02*
X39297618Y-32469179D01*
X39297618Y-32469179D02*
X39249999Y-32564417D01*
X39249999Y-32564417D02*
X39154761Y-32659656D01*
X39154761Y-32659656D02*
X39011904Y-32707275D01*
X39011904Y-32707275D02*
X38773809Y-32707275D01*
X40154761Y-32659656D02*
X40059523Y-32707275D01*
X40059523Y-32707275D02*
X39869047Y-32707275D01*
X39869047Y-32707275D02*
X39773809Y-32659656D01*
X39773809Y-32659656D02*
X39726190Y-32564417D01*
X39726190Y-32564417D02*
X39726190Y-32183465D01*
X39726190Y-32183465D02*
X39773809Y-32088227D01*
X39773809Y-32088227D02*
X39869047Y-32040608D01*
X39869047Y-32040608D02*
X40059523Y-32040608D01*
X40059523Y-32040608D02*
X40154761Y-32088227D01*
X40154761Y-32088227D02*
X40202380Y-32183465D01*
X40202380Y-32183465D02*
X40202380Y-32278703D01*
X40202380Y-32278703D02*
X39726190Y-32373941D01*
X41059523Y-32659656D02*
X40964285Y-32707275D01*
X40964285Y-32707275D02*
X40773809Y-32707275D01*
X40773809Y-32707275D02*
X40678571Y-32659656D01*
X40678571Y-32659656D02*
X40630952Y-32612036D01*
X40630952Y-32612036D02*
X40583333Y-32516798D01*
X40583333Y-32516798D02*
X40583333Y-32231084D01*
X40583333Y-32231084D02*
X40630952Y-32135846D01*
X40630952Y-32135846D02*
X40678571Y-32088227D01*
X40678571Y-32088227D02*
X40773809Y-32040608D01*
X40773809Y-32040608D02*
X40964285Y-32040608D01*
X40964285Y-32040608D02*
X41059523Y-32088227D01*
X41630952Y-32707275D02*
X41535714Y-32659656D01*
X41535714Y-32659656D02*
X41488095Y-32612036D01*
X41488095Y-32612036D02*
X41440476Y-32516798D01*
X41440476Y-32516798D02*
X41440476Y-32231084D01*
X41440476Y-32231084D02*
X41488095Y-32135846D01*
X41488095Y-32135846D02*
X41535714Y-32088227D01*
X41535714Y-32088227D02*
X41630952Y-32040608D01*
X41630952Y-32040608D02*
X41773809Y-32040608D01*
X41773809Y-32040608D02*
X41869047Y-32088227D01*
X41869047Y-32088227D02*
X41916666Y-32135846D01*
X41916666Y-32135846D02*
X41964285Y-32231084D01*
X41964285Y-32231084D02*
X41964285Y-32516798D01*
X41964285Y-32516798D02*
X41916666Y-32612036D01*
X41916666Y-32612036D02*
X41869047Y-32659656D01*
X41869047Y-32659656D02*
X41773809Y-32707275D01*
X41773809Y-32707275D02*
X41630952Y-32707275D01*
X42821428Y-32707275D02*
X42821428Y-31707275D01*
X42821428Y-32659656D02*
X42726190Y-32707275D01*
X42726190Y-32707275D02*
X42535714Y-32707275D01*
X42535714Y-32707275D02*
X42440476Y-32659656D01*
X42440476Y-32659656D02*
X42392857Y-32612036D01*
X42392857Y-32612036D02*
X42345238Y-32516798D01*
X42345238Y-32516798D02*
X42345238Y-32231084D01*
X42345238Y-32231084D02*
X42392857Y-32135846D01*
X42392857Y-32135846D02*
X42440476Y-32088227D01*
X42440476Y-32088227D02*
X42535714Y-32040608D01*
X42535714Y-32040608D02*
X42726190Y-32040608D01*
X42726190Y-32040608D02*
X42821428Y-32088227D01*
X43678571Y-32659656D02*
X43583333Y-32707275D01*
X43583333Y-32707275D02*
X43392857Y-32707275D01*
X43392857Y-32707275D02*
X43297619Y-32659656D01*
X43297619Y-32659656D02*
X43250000Y-32564417D01*
X43250000Y-32564417D02*
X43250000Y-32183465D01*
X43250000Y-32183465D02*
X43297619Y-32088227D01*
X43297619Y-32088227D02*
X43392857Y-32040608D01*
X43392857Y-32040608D02*
X43583333Y-32040608D01*
X43583333Y-32040608D02*
X43678571Y-32088227D01*
X43678571Y-32088227D02*
X43726190Y-32183465D01*
X43726190Y-32183465D02*
X43726190Y-32278703D01*
X43726190Y-32278703D02*
X43250000Y-32373941D01*
X44154762Y-32707275D02*
X44154762Y-32040608D01*
X44154762Y-32231084D02*
X44202381Y-32135846D01*
X44202381Y-32135846D02*
X44250000Y-32088227D01*
X44250000Y-32088227D02*
X44345238Y-32040608D01*
X44345238Y-32040608D02*
X44440476Y-32040608D01*
X32583332Y-33793409D02*
X32916665Y-33793409D01*
X33059522Y-34317219D02*
X32583332Y-34317219D01*
X32583332Y-34317219D02*
X32583332Y-33317219D01*
X32583332Y-33317219D02*
X33059522Y-33317219D01*
X33440475Y-33412457D02*
X33488094Y-33364838D01*
X33488094Y-33364838D02*
X33583332Y-33317219D01*
X33583332Y-33317219D02*
X33821427Y-33317219D01*
X33821427Y-33317219D02*
X33916665Y-33364838D01*
X33916665Y-33364838D02*
X33964284Y-33412457D01*
X33964284Y-33412457D02*
X34011903Y-33507695D01*
X34011903Y-33507695D02*
X34011903Y-33602933D01*
X34011903Y-33602933D02*
X33964284Y-33745790D01*
X33964284Y-33745790D02*
X33392856Y-34317219D01*
X33392856Y-34317219D02*
X34011903Y-34317219D01*
X34869046Y-33650552D02*
X34869046Y-34317219D01*
X34630951Y-33269600D02*
X34392856Y-33983885D01*
X34392856Y-33983885D02*
X35011903Y-33983885D01*
X36154761Y-33317219D02*
X36154761Y-34126742D01*
X36154761Y-34126742D02*
X36202380Y-34221980D01*
X36202380Y-34221980D02*
X36249999Y-34269600D01*
X36249999Y-34269600D02*
X36345237Y-34317219D01*
X36345237Y-34317219D02*
X36535713Y-34317219D01*
X36535713Y-34317219D02*
X36630951Y-34269600D01*
X36630951Y-34269600D02*
X36678570Y-34221980D01*
X36678570Y-34221980D02*
X36726189Y-34126742D01*
X36726189Y-34126742D02*
X36726189Y-33317219D01*
X37154761Y-34269600D02*
X37297618Y-34317219D01*
X37297618Y-34317219D02*
X37535713Y-34317219D01*
X37535713Y-34317219D02*
X37630951Y-34269600D01*
X37630951Y-34269600D02*
X37678570Y-34221980D01*
X37678570Y-34221980D02*
X37726189Y-34126742D01*
X37726189Y-34126742D02*
X37726189Y-34031504D01*
X37726189Y-34031504D02*
X37678570Y-33936266D01*
X37678570Y-33936266D02*
X37630951Y-33888647D01*
X37630951Y-33888647D02*
X37535713Y-33841028D01*
X37535713Y-33841028D02*
X37345237Y-33793409D01*
X37345237Y-33793409D02*
X37249999Y-33745790D01*
X37249999Y-33745790D02*
X37202380Y-33698171D01*
X37202380Y-33698171D02*
X37154761Y-33602933D01*
X37154761Y-33602933D02*
X37154761Y-33507695D01*
X37154761Y-33507695D02*
X37202380Y-33412457D01*
X37202380Y-33412457D02*
X37249999Y-33364838D01*
X37249999Y-33364838D02*
X37345237Y-33317219D01*
X37345237Y-33317219D02*
X37583332Y-33317219D01*
X37583332Y-33317219D02*
X37726189Y-33364838D01*
X38488094Y-33793409D02*
X38630951Y-33841028D01*
X38630951Y-33841028D02*
X38678570Y-33888647D01*
X38678570Y-33888647D02*
X38726189Y-33983885D01*
X38726189Y-33983885D02*
X38726189Y-34126742D01*
X38726189Y-34126742D02*
X38678570Y-34221980D01*
X38678570Y-34221980D02*
X38630951Y-34269600D01*
X38630951Y-34269600D02*
X38535713Y-34317219D01*
X38535713Y-34317219D02*
X38154761Y-34317219D01*
X38154761Y-34317219D02*
X38154761Y-33317219D01*
X38154761Y-33317219D02*
X38488094Y-33317219D01*
X38488094Y-33317219D02*
X38583332Y-33364838D01*
X38583332Y-33364838D02*
X38630951Y-33412457D01*
X38630951Y-33412457D02*
X38678570Y-33507695D01*
X38678570Y-33507695D02*
X38678570Y-33602933D01*
X38678570Y-33602933D02*
X38630951Y-33698171D01*
X38630951Y-33698171D02*
X38583332Y-33745790D01*
X38583332Y-33745790D02*
X38488094Y-33793409D01*
X38488094Y-33793409D02*
X38154761Y-33793409D01*
X39773809Y-33317219D02*
X40345237Y-33317219D01*
X40059523Y-34317219D02*
X40059523Y-33317219D01*
X41059523Y-34269600D02*
X40964285Y-34317219D01*
X40964285Y-34317219D02*
X40773809Y-34317219D01*
X40773809Y-34317219D02*
X40678571Y-34269600D01*
X40678571Y-34269600D02*
X40630952Y-34174361D01*
X40630952Y-34174361D02*
X40630952Y-33793409D01*
X40630952Y-33793409D02*
X40678571Y-33698171D01*
X40678571Y-33698171D02*
X40773809Y-33650552D01*
X40773809Y-33650552D02*
X40964285Y-33650552D01*
X40964285Y-33650552D02*
X41059523Y-33698171D01*
X41059523Y-33698171D02*
X41107142Y-33793409D01*
X41107142Y-33793409D02*
X41107142Y-33888647D01*
X41107142Y-33888647D02*
X40630952Y-33983885D01*
X41488095Y-34269600D02*
X41583333Y-34317219D01*
X41583333Y-34317219D02*
X41773809Y-34317219D01*
X41773809Y-34317219D02*
X41869047Y-34269600D01*
X41869047Y-34269600D02*
X41916666Y-34174361D01*
X41916666Y-34174361D02*
X41916666Y-34126742D01*
X41916666Y-34126742D02*
X41869047Y-34031504D01*
X41869047Y-34031504D02*
X41773809Y-33983885D01*
X41773809Y-33983885D02*
X41630952Y-33983885D01*
X41630952Y-33983885D02*
X41535714Y-33936266D01*
X41535714Y-33936266D02*
X41488095Y-33841028D01*
X41488095Y-33841028D02*
X41488095Y-33793409D01*
X41488095Y-33793409D02*
X41535714Y-33698171D01*
X41535714Y-33698171D02*
X41630952Y-33650552D01*
X41630952Y-33650552D02*
X41773809Y-33650552D01*
X41773809Y-33650552D02*
X41869047Y-33698171D01*
X42202381Y-33650552D02*
X42583333Y-33650552D01*
X42345238Y-33317219D02*
X42345238Y-34174361D01*
X42345238Y-34174361D02*
X42392857Y-34269600D01*
X42392857Y-34269600D02*
X42488095Y-34317219D01*
X42488095Y-34317219D02*
X42583333Y-34317219D01*
X43297619Y-34269600D02*
X43202381Y-34317219D01*
X43202381Y-34317219D02*
X43011905Y-34317219D01*
X43011905Y-34317219D02*
X42916667Y-34269600D01*
X42916667Y-34269600D02*
X42869048Y-34174361D01*
X42869048Y-34174361D02*
X42869048Y-33793409D01*
X42869048Y-33793409D02*
X42916667Y-33698171D01*
X42916667Y-33698171D02*
X43011905Y-33650552D01*
X43011905Y-33650552D02*
X43202381Y-33650552D01*
X43202381Y-33650552D02*
X43297619Y-33698171D01*
X43297619Y-33698171D02*
X43345238Y-33793409D01*
X43345238Y-33793409D02*
X43345238Y-33888647D01*
X43345238Y-33888647D02*
X42869048Y-33983885D01*
X43773810Y-34317219D02*
X43773810Y-33650552D01*
X43773810Y-33841028D02*
X43821429Y-33745790D01*
X43821429Y-33745790D02*
X43869048Y-33698171D01*
X43869048Y-33698171D02*
X43964286Y-33650552D01*
X43964286Y-33650552D02*
X44059524Y-33650552D01*
X53441101Y-37921980D02*
X53393482Y-37969600D01*
X53393482Y-37969600D02*
X53250625Y-38017219D01*
X53250625Y-38017219D02*
X53155387Y-38017219D01*
X53155387Y-38017219D02*
X53012530Y-37969600D01*
X53012530Y-37969600D02*
X52917292Y-37874361D01*
X52917292Y-37874361D02*
X52869673Y-37779123D01*
X52869673Y-37779123D02*
X52822054Y-37588647D01*
X52822054Y-37588647D02*
X52822054Y-37445790D01*
X52822054Y-37445790D02*
X52869673Y-37255314D01*
X52869673Y-37255314D02*
X52917292Y-37160076D01*
X52917292Y-37160076D02*
X53012530Y-37064838D01*
X53012530Y-37064838D02*
X53155387Y-37017219D01*
X53155387Y-37017219D02*
X53250625Y-37017219D01*
X53250625Y-37017219D02*
X53393482Y-37064838D01*
X53393482Y-37064838D02*
X53441101Y-37112457D01*
X54345863Y-38017219D02*
X53869673Y-38017219D01*
X53869673Y-38017219D02*
X53869673Y-37017219D01*
X54679197Y-38017219D02*
X54679197Y-37017219D01*
X55250625Y-38017219D02*
X54822054Y-37445790D01*
X55250625Y-37017219D02*
X54679197Y-37588647D01*
X30342857Y-41967219D02*
X31009523Y-41967219D01*
X31009523Y-41967219D02*
X30580952Y-42967219D01*
X31390476Y-42967219D02*
X31390476Y-41967219D01*
X31390476Y-42443409D02*
X31961904Y-42443409D01*
X31961904Y-42967219D02*
X31961904Y-41967219D01*
X23690476Y-42300552D02*
X23690476Y-42967219D01*
X23452381Y-41919600D02*
X23214286Y-42633885D01*
X23214286Y-42633885D02*
X23833333Y-42633885D01*
X28266666Y-41967219D02*
X28076190Y-41967219D01*
X28076190Y-41967219D02*
X27980952Y-42014838D01*
X27980952Y-42014838D02*
X27933333Y-42062457D01*
X27933333Y-42062457D02*
X27838095Y-42205314D01*
X27838095Y-42205314D02*
X27790476Y-42395790D01*
X27790476Y-42395790D02*
X27790476Y-42776742D01*
X27790476Y-42776742D02*
X27838095Y-42871980D01*
X27838095Y-42871980D02*
X27885714Y-42919600D01*
X27885714Y-42919600D02*
X27980952Y-42967219D01*
X27980952Y-42967219D02*
X28171428Y-42967219D01*
X28171428Y-42967219D02*
X28266666Y-42919600D01*
X28266666Y-42919600D02*
X28314285Y-42871980D01*
X28314285Y-42871980D02*
X28361904Y-42776742D01*
X28361904Y-42776742D02*
X28361904Y-42538647D01*
X28361904Y-42538647D02*
X28314285Y-42443409D01*
X28314285Y-42443409D02*
X28266666Y-42395790D01*
X28266666Y-42395790D02*
X28171428Y-42348171D01*
X28171428Y-42348171D02*
X27980952Y-42348171D01*
X27980952Y-42348171D02*
X27885714Y-42395790D01*
X27885714Y-42395790D02*
X27838095Y-42443409D01*
X27838095Y-42443409D02*
X27790476Y-42538647D01*
X28790476Y-42967219D02*
X28790476Y-41967219D01*
X28790476Y-42443409D02*
X29361904Y-42443409D01*
X29361904Y-42967219D02*
X29361904Y-41967219D01*
X42947619Y-42967219D02*
X42947619Y-41967219D01*
X42947619Y-41967219D02*
X43280952Y-42681504D01*
X43280952Y-42681504D02*
X43614285Y-41967219D01*
X43614285Y-41967219D02*
X43614285Y-42967219D01*
X44090476Y-42586266D02*
X44852381Y-42586266D01*
X44471428Y-42967219D02*
X44471428Y-42205314D01*
X36009523Y-42967219D02*
X35438095Y-42967219D01*
X35723809Y-42967219D02*
X35723809Y-41967219D01*
X35723809Y-41967219D02*
X35628571Y-42110076D01*
X35628571Y-42110076D02*
X35533333Y-42205314D01*
X35533333Y-42205314D02*
X35438095Y-42252933D01*
X36628571Y-41967219D02*
X36723809Y-41967219D01*
X36723809Y-41967219D02*
X36819047Y-42014838D01*
X36819047Y-42014838D02*
X36866666Y-42062457D01*
X36866666Y-42062457D02*
X36914285Y-42157695D01*
X36914285Y-42157695D02*
X36961904Y-42348171D01*
X36961904Y-42348171D02*
X36961904Y-42586266D01*
X36961904Y-42586266D02*
X36914285Y-42776742D01*
X36914285Y-42776742D02*
X36866666Y-42871980D01*
X36866666Y-42871980D02*
X36819047Y-42919600D01*
X36819047Y-42919600D02*
X36723809Y-42967219D01*
X36723809Y-42967219D02*
X36628571Y-42967219D01*
X36628571Y-42967219D02*
X36533333Y-42919600D01*
X36533333Y-42919600D02*
X36485714Y-42871980D01*
X36485714Y-42871980D02*
X36438095Y-42776742D01*
X36438095Y-42776742D02*
X36390476Y-42586266D01*
X36390476Y-42586266D02*
X36390476Y-42348171D01*
X36390476Y-42348171D02*
X36438095Y-42157695D01*
X36438095Y-42157695D02*
X36485714Y-42062457D01*
X36485714Y-42062457D02*
X36533333Y-42014838D01*
X36533333Y-42014838D02*
X36628571Y-41967219D01*
X17690476Y-42062457D02*
X17738095Y-42014838D01*
X17738095Y-42014838D02*
X17833333Y-41967219D01*
X17833333Y-41967219D02*
X18071428Y-41967219D01*
X18071428Y-41967219D02*
X18166666Y-42014838D01*
X18166666Y-42014838D02*
X18214285Y-42062457D01*
X18214285Y-42062457D02*
X18261904Y-42157695D01*
X18261904Y-42157695D02*
X18261904Y-42252933D01*
X18261904Y-42252933D02*
X18214285Y-42395790D01*
X18214285Y-42395790D02*
X17642857Y-42967219D01*
X17642857Y-42967219D02*
X18261904Y-42967219D01*
X18690476Y-42967219D02*
X18690476Y-41967219D01*
X18690476Y-42443409D02*
X19261904Y-42443409D01*
X19261904Y-42967219D02*
X19261904Y-41967219D01*
X15661904Y-42967219D02*
X15090476Y-42967219D01*
X15376190Y-42967219D02*
X15376190Y-41967219D01*
X15376190Y-41967219D02*
X15280952Y-42110076D01*
X15280952Y-42110076D02*
X15185714Y-42205314D01*
X15185714Y-42205314D02*
X15090476Y-42252933D01*
X16090476Y-42967219D02*
X16090476Y-41967219D01*
X16090476Y-42443409D02*
X16661904Y-42443409D01*
X16661904Y-42967219D02*
X16661904Y-41967219D01*
X53538095Y-42014838D02*
X53442857Y-41967219D01*
X53442857Y-41967219D02*
X53300000Y-41967219D01*
X53300000Y-41967219D02*
X53157143Y-42014838D01*
X53157143Y-42014838D02*
X53061905Y-42110076D01*
X53061905Y-42110076D02*
X53014286Y-42205314D01*
X53014286Y-42205314D02*
X52966667Y-42395790D01*
X52966667Y-42395790D02*
X52966667Y-42538647D01*
X52966667Y-42538647D02*
X53014286Y-42729123D01*
X53014286Y-42729123D02*
X53061905Y-42824361D01*
X53061905Y-42824361D02*
X53157143Y-42919600D01*
X53157143Y-42919600D02*
X53300000Y-42967219D01*
X53300000Y-42967219D02*
X53395238Y-42967219D01*
X53395238Y-42967219D02*
X53538095Y-42919600D01*
X53538095Y-42919600D02*
X53585714Y-42871980D01*
X53585714Y-42871980D02*
X53585714Y-42538647D01*
X53585714Y-42538647D02*
X53395238Y-42538647D01*
X54014286Y-42967219D02*
X54014286Y-41967219D01*
X54014286Y-41967219D02*
X54585714Y-42967219D01*
X54585714Y-42967219D02*
X54585714Y-41967219D01*
X55061905Y-42967219D02*
X55061905Y-41967219D01*
X55061905Y-41967219D02*
X55300000Y-41967219D01*
X55300000Y-41967219D02*
X55442857Y-42014838D01*
X55442857Y-42014838D02*
X55538095Y-42110076D01*
X55538095Y-42110076D02*
X55585714Y-42205314D01*
X55585714Y-42205314D02*
X55633333Y-42395790D01*
X55633333Y-42395790D02*
X55633333Y-42538647D01*
X55633333Y-42538647D02*
X55585714Y-42729123D01*
X55585714Y-42729123D02*
X55538095Y-42824361D01*
X55538095Y-42824361D02*
X55442857Y-42919600D01*
X55442857Y-42919600D02*
X55300000Y-42967219D01*
X55300000Y-42967219D02*
X55061905Y-42967219D01*
X33080952Y-42395790D02*
X32985714Y-42348171D01*
X32985714Y-42348171D02*
X32938095Y-42300552D01*
X32938095Y-42300552D02*
X32890476Y-42205314D01*
X32890476Y-42205314D02*
X32890476Y-42157695D01*
X32890476Y-42157695D02*
X32938095Y-42062457D01*
X32938095Y-42062457D02*
X32985714Y-42014838D01*
X32985714Y-42014838D02*
X33080952Y-41967219D01*
X33080952Y-41967219D02*
X33271428Y-41967219D01*
X33271428Y-41967219D02*
X33366666Y-42014838D01*
X33366666Y-42014838D02*
X33414285Y-42062457D01*
X33414285Y-42062457D02*
X33461904Y-42157695D01*
X33461904Y-42157695D02*
X33461904Y-42205314D01*
X33461904Y-42205314D02*
X33414285Y-42300552D01*
X33414285Y-42300552D02*
X33366666Y-42348171D01*
X33366666Y-42348171D02*
X33271428Y-42395790D01*
X33271428Y-42395790D02*
X33080952Y-42395790D01*
X33080952Y-42395790D02*
X32985714Y-42443409D01*
X32985714Y-42443409D02*
X32938095Y-42491028D01*
X32938095Y-42491028D02*
X32890476Y-42586266D01*
X32890476Y-42586266D02*
X32890476Y-42776742D01*
X32890476Y-42776742D02*
X32938095Y-42871980D01*
X32938095Y-42871980D02*
X32985714Y-42919600D01*
X32985714Y-42919600D02*
X33080952Y-42967219D01*
X33080952Y-42967219D02*
X33271428Y-42967219D01*
X33271428Y-42967219D02*
X33366666Y-42919600D01*
X33366666Y-42919600D02*
X33414285Y-42871980D01*
X33414285Y-42871980D02*
X33461904Y-42776742D01*
X33461904Y-42776742D02*
X33461904Y-42586266D01*
X33461904Y-42586266D02*
X33414285Y-42491028D01*
X33414285Y-42491028D02*
X33366666Y-42443409D01*
X33366666Y-42443409D02*
X33271428Y-42395790D01*
X33890476Y-42967219D02*
X33890476Y-41967219D01*
X33890476Y-42443409D02*
X34461904Y-42443409D01*
X34461904Y-42967219D02*
X34461904Y-41967219D01*
D12*
X28803318Y-33423332D02*
X29710461Y-33423332D01*
X29710461Y-33423332D02*
X29891889Y-33483809D01*
X29891889Y-33483809D02*
X30012842Y-33604761D01*
X30012842Y-33604761D02*
X30073318Y-33786190D01*
X30073318Y-33786190D02*
X30073318Y-33907142D01*
X30073318Y-32153332D02*
X30073318Y-32879047D01*
X30073318Y-32516190D02*
X28803318Y-32516190D01*
X28803318Y-32516190D02*
X28984746Y-32637142D01*
X28984746Y-32637142D02*
X29105699Y-32758094D01*
X29105699Y-32758094D02*
X29166175Y-32879047D01*
D13*
G04 #@! TO.C,J3*
X49770000Y-30645000D02*
X51100000Y-30645000D01*
X49770000Y-31975000D02*
X49770000Y-30645000D01*
X49770000Y-33245000D02*
X49770000Y-35845000D01*
X49770000Y-33245000D02*
X52430000Y-33245000D01*
X49770000Y-35845000D02*
X52430000Y-35845000D01*
X52430000Y-33245000D02*
X52430000Y-35845000D01*
G04 #@! TO.C,J4*
X14570000Y-41630000D02*
X14570000Y-40300000D01*
X15900000Y-41630000D02*
X14570000Y-41630000D01*
X17170000Y-38970000D02*
X55330000Y-38970000D01*
X17170000Y-41630000D02*
X17170000Y-38970000D01*
X17170000Y-41630000D02*
X55330000Y-41630000D01*
X55330000Y-41630000D02*
X55330000Y-38970000D01*
G04 #@! TO.C,R1*
X22665000Y-30827064D02*
X22665000Y-30372936D01*
X24135000Y-30827064D02*
X24135000Y-30372936D01*
G04 #@! TO.C,R3*
X24072936Y-27065000D02*
X24527064Y-27065000D01*
X24072936Y-28535000D02*
X24527064Y-28535000D01*
G04 #@! TO.C,J2*
X52720000Y-34180000D02*
X52720000Y-29040000D01*
X55380000Y-29040000D02*
X52720000Y-29040000D01*
X55380000Y-34180000D02*
X52720000Y-34180000D01*
X55380000Y-34180000D02*
X55380000Y-29040000D01*
X55380000Y-35450000D02*
X55380000Y-36780000D01*
X55380000Y-36780000D02*
X54050000Y-36780000D01*
G04 #@! TO.C,R2*
X22665000Y-35677064D02*
X22665000Y-35222936D01*
X24135000Y-35677064D02*
X24135000Y-35222936D01*
G04 #@! TO.C,D1*
X25050000Y-35110000D02*
X25050000Y-31850000D01*
X25050000Y-35110000D02*
X26750000Y-35110000D01*
X26750000Y-35110000D02*
X26750000Y-31850000D01*
G04 #@! TO.C,D2*
X28800000Y-28535000D02*
X31260000Y-28535000D01*
X31260000Y-27065000D02*
X28800000Y-27065000D01*
X31260000Y-28535000D02*
X31260000Y-27065000D01*
G04 #@! TO.C,D3*
X44040000Y-27065000D02*
X44040000Y-28535000D01*
X44040000Y-28535000D02*
X46500000Y-28535000D01*
X46500000Y-27065000D02*
X44040000Y-27065000D01*
G04 #@! TO.C,P1*
X17750000Y-28330000D02*
X19450000Y-28330000D01*
X17750000Y-37670000D02*
X19450000Y-37670000D01*
D10*
G04 #@! TO.C,J1*
X30130000Y-30200000D02*
X28870000Y-30245000D01*
X30130000Y-35755000D02*
X28870000Y-35800000D01*
D13*
G04 #@! TO.C,R4*
X47765000Y-33127064D02*
X47765000Y-32672936D01*
X49235000Y-33127064D02*
X49235000Y-32672936D01*
G04 #@! TD*
M02*
