M48
; DRILL file {KiCad 8.0.7} date 2025-01-11T17:44:09-0500
; FORMAT={-:-/ absolute / metric / decimal}
; #@! TF.CreationDate,2025-01-11T17:44:09-05:00
; #@! TF.GenerationSoftware,Kicad,Pcbnew,8.0.7
; #@! TF.FileFunction,MixedPlating,1,2
FMAT,2
METRIC
; #@! TA.AperFunction,Plated,PTH,ViaDrill
T1C0.300
; #@! TA.AperFunction,Plated,PTH,ComponentDrill
T2C0.600
; #@! TA.AperFunction,Plated,PTH,ComponentDrill
T3C1.000
; #@! TA.AperFunction,NonPlated,NPTH,ComponentDrill
T4C0.300
; #@! TA.AperFunction,NonPlated,NPTH,ComponentDrill
T5C0.650
; #@! TA.AperFunction,NonPlated,NPTH,ComponentDrill
T6C1.152
%
G90
G05
T1
X24.5Y-35.94
X25.48Y-34.47
X25.967Y-34.078
X28.45Y-33.49
X29.29Y-30.46
X29.72Y-31.89
X30.12Y-30.08
X30.12Y-30.78
X30.69Y-36.34
X31.33Y-35.63
X31.365Y-36.35
X31.97Y-31.07
X31.98Y-31.74
X31.98Y-33.51
X31.99Y-32.71
X31.99Y-36.35
X32.7Y-36.34
X33.33Y-35.63
X33.54Y-33.01
X33.55Y-32.3
X33.61Y-36.31
X33.84Y-30.95
X33.846Y-35.278
X34.07Y-33.39
X34.15Y-34.73
X43.91Y-36.45
X44.535Y-36.45
X45.16Y-36.45
X45.785Y-36.44
X46.41Y-36.43
X49.5Y-30.67
X52.76Y-36.73
T3
X17.73Y-30.67
X20.27Y-30.67
X23.8Y-40.38
X26.34Y-40.38
X27.95Y-29.75
X27.95Y-36.25
X28.88Y-40.38
X31.42Y-40.38
X33.96Y-40.38
X36.5Y-40.38
X39.04Y-40.38
X41.58Y-40.38
X44.12Y-40.38
X46.66Y-40.38
X49.2Y-40.38
X51.25Y-29.75
X51.25Y-36.25
X51.74Y-40.38
X54.05Y-30.37
X54.05Y-32.91
X54.05Y-35.45
X54.28Y-40.38
T4
X0.0Y-26.6
X0.0Y-43.4
X0.611Y-26.6
X0.611Y-43.4
X1.222Y-26.6
X1.222Y-43.4
X1.833Y-26.6
X1.833Y-43.4
X2.444Y-26.6
X2.444Y-43.4
X3.056Y-26.6
X3.056Y-43.4
X3.667Y-26.6
X3.667Y-43.4
X4.278Y-26.6
X4.278Y-43.4
X4.889Y-26.6
X4.889Y-43.4
X5.5Y-26.6
X5.5Y-43.4
X6.111Y-26.6
X6.111Y-43.4
X6.722Y-26.6
X6.722Y-43.4
X7.333Y-26.6
X7.333Y-43.4
X7.944Y-26.6
X7.944Y-43.4
X8.556Y-26.6
X8.556Y-43.4
X9.167Y-26.6
X9.167Y-43.4
X9.778Y-26.6
X9.778Y-43.4
X10.389Y-26.6
X10.389Y-43.4
X11.0Y-26.6
X11.0Y-43.4
X13.97Y-34.0
X13.97Y-34.667
X13.97Y-35.333
X13.97Y-36.0
X14.0Y0.0
X14.0Y-0.605
X14.0Y-1.21
X14.0Y-1.815
X14.0Y-2.421
X14.0Y-3.026
X14.0Y-3.631
X14.0Y-4.236
X14.0Y-4.841
X14.0Y-5.446
X14.0Y-6.051
X14.0Y-6.656
X14.0Y-7.262
X14.0Y-7.867
X14.0Y-8.472
X14.0Y-9.077
X14.0Y-9.682
X14.0Y-10.287
X14.0Y-10.892
X14.0Y-11.497
X14.0Y-12.103
X14.0Y-12.708
X14.0Y-13.313
X14.0Y-13.918
X14.0Y-14.523
X14.0Y-15.128
X14.0Y-15.733
X14.0Y-16.338
X14.0Y-16.944
X14.0Y-17.549
X14.0Y-18.154
X14.0Y-18.759
X14.0Y-19.364
X14.0Y-19.969
X14.0Y-20.574
X14.0Y-21.179
X14.0Y-21.785
X14.0Y-22.39
X14.0Y-22.995
X14.0Y-23.6
X14.0Y-46.4
X14.0Y-47.005
X14.0Y-47.61
X14.0Y-48.215
X14.0Y-48.821
X14.0Y-49.426
X14.0Y-50.031
X14.0Y-50.636
X14.0Y-51.241
X14.0Y-51.846
X14.0Y-52.451
X14.0Y-53.056
X14.0Y-53.662
X14.0Y-54.267
X14.0Y-54.872
X14.0Y-55.477
X14.0Y-56.082
X14.0Y-56.687
X14.0Y-57.292
X14.0Y-57.897
X14.0Y-58.503
X14.0Y-59.108
X14.0Y-59.713
X14.0Y-60.318
X14.0Y-60.923
X14.0Y-61.528
X14.0Y-62.133
X14.0Y-62.738
X14.0Y-63.344
X14.0Y-63.949
X14.0Y-64.554
X14.0Y-65.159
X14.0Y-65.764
X14.0Y-66.369
X14.0Y-66.974
X14.0Y-67.579
X14.0Y-68.185
X14.0Y-68.79
X14.0Y-69.395
X14.0Y-70.0
X34.0Y-26.57
X34.0Y-43.43
X34.667Y-26.57
X34.667Y-43.43
X35.333Y-26.57
X35.333Y-43.43
X36.0Y-26.57
X36.0Y-43.43
X56.0Y0.0
X56.0Y-0.605
X56.0Y-1.21
X56.0Y-1.815
X56.0Y-2.421
X56.0Y-3.026
X56.0Y-3.631
X56.0Y-4.236
X56.0Y-4.841
X56.0Y-5.446
X56.0Y-6.051
X56.0Y-6.656
X56.0Y-7.262
X56.0Y-7.867
X56.0Y-8.472
X56.0Y-9.077
X56.0Y-9.682
X56.0Y-10.287
X56.0Y-10.892
X56.0Y-11.497
X56.0Y-12.103
X56.0Y-12.708
X56.0Y-13.313
X56.0Y-13.918
X56.0Y-14.523
X56.0Y-15.128
X56.0Y-15.733
X56.0Y-16.338
X56.0Y-16.944
X56.0Y-17.549
X56.0Y-18.154
X56.0Y-18.759
X56.0Y-19.364
X56.0Y-19.969
X56.0Y-20.574
X56.0Y-21.179
X56.0Y-21.785
X56.0Y-22.39
X56.0Y-22.995
X56.0Y-23.6
X56.0Y-46.4
X56.0Y-47.005
X56.0Y-47.61
X56.0Y-48.215
X56.0Y-48.821
X56.0Y-49.426
X56.0Y-50.031
X56.0Y-50.636
X56.0Y-51.241
X56.0Y-51.846
X56.0Y-52.451
X56.0Y-53.056
X56.0Y-53.662
X56.0Y-54.267
X56.0Y-54.872
X56.0Y-55.477
X56.0Y-56.082
X56.0Y-56.687
X56.0Y-57.292
X56.0Y-57.897
X56.0Y-58.503
X56.0Y-59.108
X56.0Y-59.713
X56.0Y-60.318
X56.0Y-60.923
X56.0Y-61.528
X56.0Y-62.133
X56.0Y-62.738
X56.0Y-63.344
X56.0Y-63.949
X56.0Y-64.554
X56.0Y-65.159
X56.0Y-65.764
X56.0Y-66.369
X56.0Y-66.974
X56.0Y-67.579
X56.0Y-68.185
X56.0Y-68.79
X56.0Y-69.395
X56.0Y-70.0
X56.03Y-34.0
X56.03Y-34.667
X56.03Y-35.333
X56.03Y-36.0
X59.0Y-26.6
X59.0Y-43.4
X59.611Y-26.6
X59.611Y-43.4
X60.222Y-26.6
X60.222Y-43.4
X60.833Y-26.6
X60.833Y-43.4
X61.444Y-26.6
X61.444Y-43.4
X62.056Y-26.6
X62.056Y-43.4
X62.667Y-26.6
X62.667Y-43.4
X63.278Y-26.6
X63.278Y-43.4
X63.889Y-26.6
X63.889Y-43.4
X64.5Y-26.6
X64.5Y-43.4
X65.111Y-26.6
X65.111Y-43.4
X65.722Y-26.6
X65.722Y-43.4
X66.333Y-26.6
X66.333Y-43.4
X66.944Y-26.6
X66.944Y-43.4
X67.556Y-26.6
X67.556Y-43.4
X68.167Y-26.6
X68.167Y-43.4
X68.778Y-26.6
X68.778Y-43.4
X69.389Y-26.6
X69.389Y-43.4
X70.0Y-26.6
X70.0Y-43.4
T5
X20.265Y-34.96
X20.265Y-40.74
T6
X2.0Y-2.0
X2.0Y-68.0
X68.0Y-2.0
T2
X16.985Y-33.53G85X16.185Y-33.53
G05
X16.985Y-42.17G85X16.185Y-42.17
G05
X21.315Y-33.53G85X20.215Y-33.53
G05
X21.315Y-42.17G85X20.215Y-42.17
G05
M30
