G04 #@! TF.GenerationSoftware,KiCad,Pcbnew,8.0.7*
G04 #@! TF.CreationDate,2025-01-11T17:18:14-05:00*
G04 #@! TF.ProjectId,panel,70616e65-6c2e-46b6-9963-61645f706362,rev?*
G04 #@! TF.SameCoordinates,Original*
G04 #@! TF.FileFunction,Legend,Bot*
G04 #@! TF.FilePolarity,Positive*
%FSLAX46Y46*%
G04 Gerber Fmt 4.6, Leading zero omitted, Abs format (unit mm)*
G04 Created by KiCad (PCBNEW 8.0.7) date 2025-01-11 17:18:14*
%MOMM*%
%LPD*%
G01*
G04 APERTURE LIST*
%ADD10C,0.300000*%
%ADD11C,0.120000*%
G04 APERTURE END LIST*
D10*
X38428571Y-31000828D02*
X39142857Y-31000828D01*
X39142857Y-31000828D02*
X39142857Y-29500828D01*
X37928571Y-30215114D02*
X37428571Y-30215114D01*
X37214285Y-31000828D02*
X37928571Y-31000828D01*
X37928571Y-31000828D02*
X37928571Y-29500828D01*
X37928571Y-29500828D02*
X37214285Y-29500828D01*
X36071428Y-30215114D02*
X36571428Y-30215114D01*
X36571428Y-31000828D02*
X36571428Y-29500828D01*
X36571428Y-29500828D02*
X35857142Y-29500828D01*
X35499999Y-29500828D02*
X34642857Y-29500828D01*
X35071428Y-31000828D02*
X35071428Y-29500828D01*
X39000000Y-36400828D02*
X39500000Y-35686542D01*
X39857143Y-36400828D02*
X39857143Y-34900828D01*
X39857143Y-34900828D02*
X39285714Y-34900828D01*
X39285714Y-34900828D02*
X39142857Y-34972257D01*
X39142857Y-34972257D02*
X39071428Y-35043685D01*
X39071428Y-35043685D02*
X39000000Y-35186542D01*
X39000000Y-35186542D02*
X39000000Y-35400828D01*
X39000000Y-35400828D02*
X39071428Y-35543685D01*
X39071428Y-35543685D02*
X39142857Y-35615114D01*
X39142857Y-35615114D02*
X39285714Y-35686542D01*
X39285714Y-35686542D02*
X39857143Y-35686542D01*
X38357143Y-36400828D02*
X38357143Y-34900828D01*
X36857142Y-34972257D02*
X37000000Y-34900828D01*
X37000000Y-34900828D02*
X37214285Y-34900828D01*
X37214285Y-34900828D02*
X37428571Y-34972257D01*
X37428571Y-34972257D02*
X37571428Y-35115114D01*
X37571428Y-35115114D02*
X37642857Y-35257971D01*
X37642857Y-35257971D02*
X37714285Y-35543685D01*
X37714285Y-35543685D02*
X37714285Y-35757971D01*
X37714285Y-35757971D02*
X37642857Y-36043685D01*
X37642857Y-36043685D02*
X37571428Y-36186542D01*
X37571428Y-36186542D02*
X37428571Y-36329400D01*
X37428571Y-36329400D02*
X37214285Y-36400828D01*
X37214285Y-36400828D02*
X37071428Y-36400828D01*
X37071428Y-36400828D02*
X36857142Y-36329400D01*
X36857142Y-36329400D02*
X36785714Y-36257971D01*
X36785714Y-36257971D02*
X36785714Y-35757971D01*
X36785714Y-35757971D02*
X37071428Y-35757971D01*
X36142857Y-36400828D02*
X36142857Y-34900828D01*
X36142857Y-35615114D02*
X35285714Y-35615114D01*
X35285714Y-36400828D02*
X35285714Y-34900828D01*
X34785713Y-34900828D02*
X33928571Y-34900828D01*
X34357142Y-36400828D02*
X34357142Y-34900828D01*
D11*
G04 #@! TO.C,TP1*
X16200000Y-31300000D02*
X19600000Y-31300000D01*
X16200000Y-34700000D02*
X16200000Y-31300000D01*
X19600000Y-31300000D02*
X19600000Y-34700000D01*
X19600000Y-34700000D02*
X16200000Y-34700000D01*
G04 #@! TD*
M02*
