G04 #@! TF.GenerationSoftware,KiCad,Pcbnew,8.0.7*
G04 #@! TF.CreationDate,2025-01-12T09:33:48-05:00*
G04 #@! TF.ProjectId,panel,70616e65-6c2e-46b6-9963-61645f706362,rev?*
G04 #@! TF.SameCoordinates,Original*
G04 #@! TF.FileFunction,Copper,L1,Top*
G04 #@! TF.FilePolarity,Positive*
%FSLAX46Y46*%
G04 Gerber Fmt 4.6, Leading zero omitted, Abs format (unit mm)*
G04 Created by KiCad (PCBNEW 8.0.7) date 2025-01-12 09:33:48*
%MOMM*%
%LPD*%
G01*
G04 APERTURE LIST*
G04 Aperture macros list*
%AMRoundRect*
0 Rectangle with rounded corners*
0 $1 Rounding radius*
0 $2 $3 $4 $5 $6 $7 $8 $9 X,Y pos of 4 corners*
0 Add a 4 corners polygon primitive as box body*
4,1,4,$2,$3,$4,$5,$6,$7,$8,$9,$2,$3,0*
0 Add four circle primitives for the rounded corners*
1,1,$1+$1,$2,$3*
1,1,$1+$1,$4,$5*
1,1,$1+$1,$6,$7*
1,1,$1+$1,$8,$9*
0 Add four rect primitives between the rounded corners*
20,1,$1+$1,$2,$3,$4,$5,0*
20,1,$1+$1,$4,$5,$6,$7,0*
20,1,$1+$1,$6,$7,$8,$9,0*
20,1,$1+$1,$8,$9,$2,$3,0*%
G04 Aperture macros list end*
G04 #@! TA.AperFunction,SMDPad,CuDef*
%ADD10C,1.000000*%
G04 #@! TD*
G04 #@! TA.AperFunction,SMDPad,CuDef*
%ADD11R,0.485000X0.180000*%
G04 #@! TD*
G04 #@! TA.AperFunction,SMDPad,CuDef*
%ADD12R,0.535000X0.230000*%
G04 #@! TD*
G04 #@! TA.AperFunction,SMDPad,CuDef*
%ADD13RoundRect,0.250000X0.250000X-0.250000X0.250000X0.250000X-0.250000X0.250000X-0.250000X-0.250000X0*%
G04 #@! TD*
G04 #@! TA.AperFunction,SMDPad,CuDef*
%ADD14RoundRect,0.250000X-0.350000X-0.450000X0.350000X-0.450000X0.350000X0.450000X-0.350000X0.450000X0*%
G04 #@! TD*
G04 #@! TA.AperFunction,SMDPad,CuDef*
%ADD15RoundRect,0.237500X-0.287500X-0.237500X0.287500X-0.237500X0.287500X0.237500X-0.287500X0.237500X0*%
G04 #@! TD*
G04 #@! TA.AperFunction,ComponentPad*
%ADD16R,1.700000X1.700000*%
G04 #@! TD*
G04 #@! TA.AperFunction,ComponentPad*
%ADD17O,1.700000X1.700000*%
G04 #@! TD*
G04 #@! TA.AperFunction,SMDPad,CuDef*
%ADD18RoundRect,0.237500X0.287500X0.237500X-0.287500X0.237500X-0.287500X-0.237500X0.287500X-0.237500X0*%
G04 #@! TD*
G04 #@! TA.AperFunction,SMDPad,CuDef*
%ADD19RoundRect,0.150000X-0.425000X0.150000X-0.425000X-0.150000X0.425000X-0.150000X0.425000X0.150000X0*%
G04 #@! TD*
G04 #@! TA.AperFunction,SMDPad,CuDef*
%ADD20RoundRect,0.075000X-0.500000X0.075000X-0.500000X-0.075000X0.500000X-0.075000X0.500000X0.075000X0*%
G04 #@! TD*
G04 #@! TA.AperFunction,ComponentPad*
%ADD21O,2.100000X1.000000*%
G04 #@! TD*
G04 #@! TA.AperFunction,ComponentPad*
%ADD22O,1.800000X1.000000*%
G04 #@! TD*
G04 #@! TA.AperFunction,SMDPad,CuDef*
%ADD23RoundRect,0.250000X0.450000X-0.350000X0.450000X0.350000X-0.450000X0.350000X-0.450000X-0.350000X0*%
G04 #@! TD*
G04 #@! TA.AperFunction,ViaPad*
%ADD24C,0.450000*%
G04 #@! TD*
G04 #@! TA.AperFunction,Conductor*
%ADD25C,0.200000*%
G04 #@! TD*
G04 #@! TA.AperFunction,Conductor*
%ADD26C,0.150000*%
G04 #@! TD*
G04 APERTURE END LIST*
D10*
G04 #@! TO.P,KiKit_FID_T_2,*
G04 #@! TO.N,*
X60000000Y-3850000D03*
G04 #@! TD*
G04 #@! TO.P,KiKit_FID_T_4,*
G04 #@! TO.N,*
X60000000Y-66150000D03*
G04 #@! TD*
D11*
G04 #@! TO.P,J1,1,1*
G04 #@! TO.N,Board_0-/D+*
X33007000Y-31075000D03*
G04 #@! TO.P,J1,2,2*
G04 #@! TO.N,Board_0-/D-*
X33007000Y-31425000D03*
G04 #@! TO.P,J1,3,3*
G04 #@! TO.N,Board_0-GND*
X33007000Y-31775000D03*
G04 #@! TO.P,J1,4,4*
G04 #@! TO.N,Board_0-/MOTOR_B*
X33007000Y-32125000D03*
G04 #@! TO.P,J1,5,5*
X33007000Y-32475000D03*
G04 #@! TO.P,J1,6,6*
G04 #@! TO.N,Board_0-/MOTOR_A*
X33007000Y-32825000D03*
G04 #@! TO.P,J1,7,7*
X33007000Y-33175000D03*
G04 #@! TO.P,J1,8,8*
G04 #@! TO.N,Board_0-/CAP+*
X33007000Y-33525000D03*
G04 #@! TO.P,J1,9,9*
G04 #@! TO.N,Board_0-/LAMP_FRONT*
X33007000Y-33875000D03*
G04 #@! TO.P,J1,10,10*
G04 #@! TO.N,Board_0-/LAMP_REAR*
X33007000Y-34225000D03*
G04 #@! TO.P,J1,11,11*
G04 #@! TO.N,Board_0-/AUX1 (VDC)*
X33007000Y-34575000D03*
G04 #@! TO.P,J1,12,12*
G04 #@! TO.N,Board_0-/AUX2 (VDC)*
X33007000Y-34925000D03*
G04 #@! TO.P,J1,13,13*
G04 #@! TO.N,Board_0-/AUX8 (VDC)*
X31192000Y-34925000D03*
G04 #@! TO.P,J1,14,14*
G04 #@! TO.N,Board_0-/AUX7 (VDC)*
X31192000Y-34575000D03*
G04 #@! TO.P,J1,15,15*
G04 #@! TO.N,Board_0-/AUX6 (VDC)*
X31192000Y-34225000D03*
G04 #@! TO.P,J1,16,16*
G04 #@! TO.N,Board_0-/AUX5 (VDC)*
X31192000Y-33875000D03*
G04 #@! TO.P,J1,17,17*
G04 #@! TO.N,Board_0-VDC*
X31192000Y-33525000D03*
G04 #@! TO.P,J1,18,18*
G04 #@! TO.N,Board_0-VCC*
X31192000Y-33175000D03*
G04 #@! TO.P,J1,19,19*
G04 #@! TO.N,Board_0-/AUX10*
X31192000Y-32825000D03*
G04 #@! TO.P,J1,20,20*
G04 #@! TO.N,Board_0-/AUX4*
X31192000Y-32475000D03*
G04 #@! TO.P,J1,21,21*
G04 #@! TO.N,Board_0-/AUX3*
X31192000Y-32125000D03*
G04 #@! TO.P,J1,22,22*
G04 #@! TO.N,Board_0-GND*
X31192000Y-31775000D03*
G04 #@! TO.P,J1,23,23*
G04 #@! TO.N,Board_0-/AUX11*
X31192000Y-31425000D03*
G04 #@! TO.P,J1,24,24*
G04 #@! TO.N,Board_0-/AUX12*
X31192000Y-31075000D03*
D12*
G04 #@! TO.P,J1,X1A,X1A*
G04 #@! TO.N,Board_0-/TRACK_LEFT*
X32868000Y-30700000D03*
G04 #@! TO.P,J1,X1B,X1B*
X31332000Y-30700000D03*
G04 #@! TO.P,J1,X2A,X2A*
G04 #@! TO.N,Board_0-/TRACK_RIGHT*
X32868000Y-35300000D03*
G04 #@! TO.P,J1,X2B,X2B*
X31332000Y-35300000D03*
G04 #@! TD*
D10*
G04 #@! TO.P,KiKit_FID_T_1,*
G04 #@! TO.N,*
X10000000Y-3850000D03*
G04 #@! TD*
D13*
G04 #@! TO.P,D1,1,K*
G04 #@! TO.N,Board_0-VDC*
X27950000Y-34230000D03*
G04 #@! TO.P,D1,2,A*
G04 #@! TO.N,Board_0-+5V*
X27950000Y-31730000D03*
G04 #@! TD*
D14*
G04 #@! TO.P,R3,1*
G04 #@! TO.N,Board_0-+5V*
X25950000Y-27790000D03*
G04 #@! TO.P,R3,2*
G04 #@! TO.N,Board_0-Net-(D2-A)*
X27950000Y-27790000D03*
G04 #@! TD*
D15*
G04 #@! TO.P,D3,1,K*
G04 #@! TO.N,Board_0-/LAMP_REAR*
X47225000Y-27800000D03*
G04 #@! TO.P,D3,2,A*
G04 #@! TO.N,Board_0-Net-(D3-A)*
X48975000Y-27800000D03*
G04 #@! TD*
D16*
G04 #@! TO.P,J2,1,Pin_1*
G04 #@! TO.N,Board_0-/AUX11*
X54050000Y-35450000D03*
D17*
G04 #@! TO.P,J2,2,Pin_2*
G04 #@! TO.N,Board_0-GND*
X54050000Y-32910000D03*
G04 #@! TO.P,J2,3,Pin_3*
G04 #@! TO.N,Board_0-/AUX12*
X54050000Y-30370000D03*
G04 #@! TD*
D16*
G04 #@! TO.P,J4,1,Pin_1*
G04 #@! TO.N,Board_0-/AUX1 (VDC)*
X23800000Y-40380000D03*
D17*
G04 #@! TO.P,J4,2,Pin_2*
G04 #@! TO.N,Board_0-/AUX2 (VDC)*
X26340000Y-40380000D03*
G04 #@! TO.P,J4,3,Pin_3*
G04 #@! TO.N,Board_0-/AUX3*
X28880000Y-40380000D03*
G04 #@! TO.P,J4,4,Pin_4*
G04 #@! TO.N,Board_0-/AUX4*
X31420000Y-40380000D03*
G04 #@! TO.P,J4,5,Pin_5*
G04 #@! TO.N,Board_0-/AUX10*
X33960000Y-40380000D03*
G04 #@! TO.P,J4,6,Pin_6*
G04 #@! TO.N,Board_0-/AUX11*
X36500000Y-40380000D03*
G04 #@! TO.P,J4,7,Pin_7*
G04 #@! TO.N,Board_0-/AUX12*
X39040000Y-40380000D03*
G04 #@! TO.P,J4,8,Pin_8*
G04 #@! TO.N,Board_0-/CAP+*
X41580000Y-40380000D03*
G04 #@! TO.P,J4,9,Pin_9*
G04 #@! TO.N,Board_0-/MOTOR_A*
X44120000Y-40380000D03*
G04 #@! TO.P,J4,10,Pin_10*
G04 #@! TO.N,Board_0-/MOTOR_B*
X46660000Y-40380000D03*
G04 #@! TO.P,J4,11,Pin_11*
G04 #@! TO.N,Board_0-VDC*
X49200000Y-40380000D03*
G04 #@! TO.P,J4,12,Pin_12*
G04 #@! TO.N,Board_0-VCC*
X51740000Y-40380000D03*
G04 #@! TO.P,J4,13,Pin_13*
G04 #@! TO.N,Board_0-GND*
X54280000Y-40380000D03*
G04 #@! TD*
D18*
G04 #@! TO.P,D2,1,K*
G04 #@! TO.N,Board_0-/LAMP_FRONT*
X32875000Y-27800000D03*
G04 #@! TO.P,D2,2,A*
G04 #@! TO.N,Board_0-Net-(D2-A)*
X31125000Y-27800000D03*
G04 #@! TD*
D19*
G04 #@! TO.P,P1,A1,GND*
G04 #@! TO.N,Board_0-GND*
X21340000Y-34650000D03*
G04 #@! TO.P,P1,A4,VBUS*
G04 #@! TO.N,Board_0-+5V*
X21340000Y-35450000D03*
D20*
G04 #@! TO.P,P1,A5,CC1*
G04 #@! TO.N,Board_0-Net-(P1-CC1)*
X21340000Y-36600000D03*
G04 #@! TO.P,P1,A6,D+*
G04 #@! TO.N,Board_0-/D+*
X21340000Y-37600000D03*
G04 #@! TO.P,P1,A7,D-*
G04 #@! TO.N,Board_0-/D-*
X21340000Y-38100000D03*
G04 #@! TO.P,P1,A8,SBU1*
G04 #@! TO.N,Board_0-unconnected-(P1-SBU1-PadA8)*
X21340000Y-39100000D03*
D19*
G04 #@! TO.P,P1,A9,VBUS*
G04 #@! TO.N,Board_0-+5V*
X21340000Y-40250000D03*
G04 #@! TO.P,P1,A12,GND*
G04 #@! TO.N,Board_0-GND*
X21340000Y-41050000D03*
G04 #@! TO.P,P1,B1,GND*
X21340000Y-41050000D03*
G04 #@! TO.P,P1,B4,VBUS*
G04 #@! TO.N,Board_0-+5V*
X21340000Y-40250000D03*
D20*
G04 #@! TO.P,P1,B5,CC2*
G04 #@! TO.N,Board_0-Net-(P1-CC2)*
X21340000Y-39600000D03*
G04 #@! TO.P,P1,B6,D+*
G04 #@! TO.N,Board_0-/D+*
X21340000Y-38600000D03*
G04 #@! TO.P,P1,B7,D-*
G04 #@! TO.N,Board_0-/D-*
X21340000Y-37100000D03*
G04 #@! TO.P,P1,B8,SBU2*
G04 #@! TO.N,Board_0-unconnected-(P1-SBU2-PadB8)*
X21340000Y-36100000D03*
D19*
G04 #@! TO.P,P1,B9,VBUS*
G04 #@! TO.N,Board_0-+5V*
X21340000Y-35450000D03*
G04 #@! TO.P,P1,B12,GND*
G04 #@! TO.N,Board_0-GND*
X21340000Y-34650000D03*
D21*
G04 #@! TO.P,P1,S1,SHIELD*
X20765000Y-33530000D03*
D22*
X16585000Y-33530000D03*
D21*
X20765000Y-42170000D03*
D22*
X16585000Y-42170000D03*
G04 #@! TD*
D23*
G04 #@! TO.P,R4,1*
G04 #@! TO.N,Board_0-+5V*
X51200000Y-34010000D03*
G04 #@! TO.P,R4,2*
G04 #@! TO.N,Board_0-Net-(D3-A)*
X51200000Y-32010000D03*
G04 #@! TD*
G04 #@! TO.P,R1,1*
G04 #@! TO.N,Board_0-Net-(P1-CC1)*
X25740000Y-32810000D03*
G04 #@! TO.P,R1,2*
G04 #@! TO.N,Board_0-GND*
X25740000Y-30810000D03*
G04 #@! TD*
D16*
G04 #@! TO.P,J3,1,Pin_1*
G04 #@! TO.N,Board_0-/D+*
X17730000Y-30670000D03*
D17*
G04 #@! TO.P,J3,2,Pin_2*
G04 #@! TO.N,Board_0-/D-*
X20270000Y-30670000D03*
G04 #@! TD*
D23*
G04 #@! TO.P,R2,1*
G04 #@! TO.N,Board_0-GND*
X25710000Y-37730000D03*
G04 #@! TO.P,R2,2*
G04 #@! TO.N,Board_0-Net-(P1-CC2)*
X25710000Y-35730000D03*
G04 #@! TD*
D10*
G04 #@! TO.P,KiKit_FID_T_3,*
G04 #@! TO.N,*
X10000000Y-66150000D03*
G04 #@! TD*
D16*
G04 #@! TO.P,J8,1,Pin_1*
G04 #@! TO.N,Board_0-/TRACK_LEFT*
X51250000Y-29750000D03*
X27950000Y-29750000D03*
G04 #@! TO.P,J8,2,Pin_2*
G04 #@! TO.N,Board_0-/TRACK_RIGHT*
X51250000Y-36250000D03*
X27950000Y-36250000D03*
G04 #@! TD*
D24*
G04 #@! TO.N,Board_0-+5V*
X49500000Y-30670000D03*
X29290000Y-30460000D03*
G04 #@! TO.N,Board_0-/AUX1 (VDC)*
X34150000Y-34730000D03*
G04 #@! TO.N,Board_0-/AUX11*
X30120000Y-30780000D03*
G04 #@! TO.N,Board_0-/AUX12*
X52760000Y-36730000D03*
X30120000Y-30080000D03*
G04 #@! TO.N,Board_0-/AUX2 (VDC)*
X33846481Y-35278041D03*
G04 #@! TO.N,Board_0-/AUX5 (VDC)*
X30690000Y-36340000D03*
G04 #@! TO.N,Board_0-/AUX6 (VDC)*
X31364997Y-36350000D03*
G04 #@! TO.N,Board_0-/AUX7 (VDC)*
X32700000Y-36340000D03*
G04 #@! TO.N,Board_0-/AUX8 (VDC)*
X31990000Y-36350000D03*
G04 #@! TO.N,Board_0-/CAP+*
X34070000Y-33390000D03*
X43910000Y-36450000D03*
G04 #@! TO.N,Board_0-/D+*
X31970000Y-31070000D03*
X25480000Y-34470000D03*
G04 #@! TO.N,Board_0-/D-*
X25966724Y-34077917D03*
X31980000Y-31740000D03*
G04 #@! TO.N,Board_0-/MOTOR_A*
X44535003Y-36450000D03*
X33540000Y-33010000D03*
G04 #@! TO.N,Board_0-/MOTOR_B*
X33550000Y-32300000D03*
X45160006Y-36450000D03*
G04 #@! TO.N,Board_0-/TRACK_RIGHT*
X31330000Y-35630000D03*
X33330000Y-35630000D03*
G04 #@! TO.N,Board_0-GND*
X33610000Y-36310000D03*
X24500000Y-35940000D03*
X33840000Y-30950000D03*
X29720000Y-31890000D03*
G04 #@! TO.N,Board_0-VCC*
X31990000Y-32710000D03*
X46409843Y-36429519D03*
G04 #@! TO.N,Board_0-VDC*
X31980000Y-33510000D03*
X45784922Y-36439585D03*
X28450000Y-33490000D03*
G04 #@! TD*
D25*
G04 #@! TO.N,Board_0-+5V*
X26790000Y-33820000D02*
X26790000Y-36290000D01*
X22340000Y-35450000D02*
X21340000Y-35450000D01*
X24700000Y-32330000D02*
X24700000Y-33090000D01*
D26*
X27950000Y-31730000D02*
X27780000Y-31730000D01*
D25*
X22665000Y-39124620D02*
X22665000Y-39504620D01*
D26*
X27780000Y-31730000D02*
X26810000Y-30760000D01*
D25*
X21919620Y-40250000D02*
X21340000Y-40250000D01*
X25079620Y-36710000D02*
X22665000Y-39124620D01*
X24700000Y-33090000D02*
X22340000Y-35450000D01*
X26790000Y-36290000D02*
X26370000Y-36710000D01*
D26*
X26810000Y-30760000D02*
X26810000Y-28650000D01*
D25*
X25210000Y-31820000D02*
X24700000Y-32330000D01*
D26*
X50000000Y-32810000D02*
X51200000Y-34010000D01*
D25*
X27950000Y-31730000D02*
X27950000Y-32660000D01*
X26370000Y-36710000D02*
X25079620Y-36710000D01*
X27950000Y-32660000D02*
X26790000Y-33820000D01*
X27950000Y-31730000D02*
X27860000Y-31820000D01*
D26*
X26810000Y-28650000D02*
X25950000Y-27790000D01*
X49500000Y-31149264D02*
X50000000Y-31649264D01*
D25*
X27860000Y-31820000D02*
X25210000Y-31820000D01*
D26*
X50000000Y-31649264D02*
X50000000Y-32810000D01*
X49500000Y-30670000D02*
X49500000Y-31149264D01*
X28020000Y-31730000D02*
X27950000Y-31730000D01*
D25*
X22665000Y-39504620D02*
X21919620Y-40250000D01*
D26*
X29290000Y-30460000D02*
X28020000Y-31730000D01*
G04 #@! TO.N,Board_0-/AUX1 (VDC)*
X33995000Y-34575000D02*
X33007000Y-34575000D01*
X34150000Y-34730000D02*
X33995000Y-34575000D01*
G04 #@! TO.N,Board_0-/AUX10*
X32650000Y-39070000D02*
X33960000Y-40380000D01*
X31192000Y-32825000D02*
X30409264Y-32825000D01*
X30409264Y-32825000D02*
X29920329Y-33313935D01*
X29920329Y-38271801D02*
X30718528Y-39070000D01*
X29920329Y-33313935D02*
X29920329Y-38271801D01*
X30718528Y-39070000D02*
X32650000Y-39070000D01*
G04 #@! TO.N,Board_0-/AUX11*
X30155236Y-30780000D02*
X30800236Y-31425000D01*
X30120000Y-30780000D02*
X30155236Y-30780000D01*
X30800236Y-31425000D02*
X31192000Y-31425000D01*
G04 #@! TO.N,Board_0-/AUX12*
X30191752Y-30080000D02*
X30600000Y-30488248D01*
X30600000Y-30488248D02*
X30600000Y-30800500D01*
X52760000Y-36730000D02*
X52760000Y-31660000D01*
X30874500Y-31075000D02*
X31192000Y-31075000D01*
X30120000Y-30080000D02*
X30191752Y-30080000D01*
X52760000Y-31660000D02*
X54050000Y-30370000D01*
X30600000Y-30800500D02*
X30874500Y-31075000D01*
G04 #@! TO.N,Board_0-/AUX2 (VDC)*
X33493440Y-34925000D02*
X33007000Y-34925000D01*
X33846481Y-35278041D02*
X33493440Y-34925000D01*
G04 #@! TO.N,Board_0-/AUX3*
X28880000Y-40380000D02*
X28880000Y-39130000D01*
X28880000Y-39130000D02*
X29256992Y-38753008D01*
X30260736Y-32125000D02*
X31192000Y-32125000D01*
X29256992Y-33128744D02*
X30260736Y-32125000D01*
X29256992Y-38753008D02*
X29256992Y-33128744D01*
G04 #@! TO.N,Board_0-/AUX4*
X31420000Y-40380000D02*
X29620329Y-38580329D01*
X30335000Y-32475000D02*
X31192000Y-32475000D01*
X29620329Y-38580329D02*
X29620329Y-33189671D01*
X29620329Y-33189671D02*
X30335000Y-32475000D01*
G04 #@! TO.N,Board_0-/AUX5 (VDC)*
X30220329Y-35946345D02*
X30220329Y-34435407D01*
X30780736Y-33875000D02*
X31192000Y-33875000D01*
X30220329Y-34435407D02*
X30780736Y-33875000D01*
X30613984Y-36340000D02*
X30220329Y-35946345D01*
X30690000Y-36340000D02*
X30613984Y-36340000D01*
G04 #@! TO.N,Board_0-/AUX6 (VDC)*
X30855000Y-34225000D02*
X31192000Y-34225000D01*
X30520329Y-34559671D02*
X30855000Y-34225000D01*
X30520329Y-35492081D02*
X30520329Y-34559671D01*
X31364997Y-36336749D02*
X30520329Y-35492081D01*
X31364997Y-36350000D02*
X31364997Y-36336749D01*
G04 #@! TO.N,Board_0-/AUX7 (VDC)*
X32375500Y-35640000D02*
X32375500Y-35201236D01*
X32375500Y-35201236D02*
X31749264Y-34575000D01*
X32380000Y-36020000D02*
X32380000Y-35644500D01*
X32380000Y-35644500D02*
X32375500Y-35640000D01*
X32700000Y-36340000D02*
X32380000Y-36020000D01*
X31749264Y-34575000D02*
X31192000Y-34575000D01*
G04 #@! TO.N,Board_0-/AUX8 (VDC)*
X31990000Y-35240000D02*
X31675000Y-34925000D01*
X31990000Y-36350000D02*
X31990000Y-35240000D01*
X31675000Y-34925000D02*
X31192000Y-34925000D01*
G04 #@! TO.N,Board_0-/CAP+*
X43810000Y-39300000D02*
X42670000Y-39300000D01*
X44210003Y-38899997D02*
X43810000Y-39300000D01*
X41590000Y-40380000D02*
X41580000Y-40380000D01*
X44210003Y-36796752D02*
X44210003Y-38899997D01*
X42670000Y-39300000D02*
X41590000Y-40380000D01*
X43910000Y-36496749D02*
X44210003Y-36796752D01*
X34070000Y-33390000D02*
X33935000Y-33525000D01*
X43910000Y-36450000D02*
X43910000Y-36496749D01*
X33935000Y-33525000D02*
X33007000Y-33525000D01*
G04 #@! TO.N,Board_0-/D+*
X22140000Y-37825001D02*
X22140000Y-38470000D01*
X31970000Y-31070000D02*
X33002000Y-31070000D01*
X25480000Y-34470000D02*
X25152512Y-34470000D01*
X18900000Y-31750000D02*
X18900000Y-36661344D01*
X22010000Y-38600000D02*
X21340000Y-38600000D01*
X17730000Y-30670000D02*
X17820000Y-30670000D01*
X21914999Y-37600000D02*
X22140000Y-37825001D01*
X18900000Y-36661344D02*
X20838656Y-38600000D01*
X21340000Y-37600000D02*
X21914999Y-37600000D01*
X20838656Y-38600000D02*
X21340000Y-38600000D01*
X17820000Y-30670000D02*
X18900000Y-31750000D01*
X33002000Y-31070000D02*
X33007000Y-31075000D01*
X22140000Y-38470000D02*
X22010000Y-38600000D01*
X22022512Y-37600000D02*
X21914999Y-37600000D01*
X25152512Y-34470000D02*
X22022512Y-37600000D01*
G04 #@! TO.N,Board_0-/D-*
X25883807Y-33995000D02*
X25203248Y-33995000D01*
X21340000Y-38100000D02*
X20765001Y-38100000D01*
X31980000Y-31740000D02*
X32377876Y-31740000D01*
X25966724Y-34077917D02*
X25883807Y-33995000D01*
X20540000Y-37320000D02*
X20760000Y-37100000D01*
X22098248Y-37100000D02*
X21340000Y-37100000D01*
X20765001Y-38100000D02*
X20540000Y-37874999D01*
X25203248Y-33995000D02*
X22098248Y-37100000D01*
X20762920Y-38100000D02*
X21340000Y-38100000D01*
X32692876Y-31425000D02*
X33007000Y-31425000D01*
X19200000Y-36537080D02*
X20762920Y-38100000D01*
X19200000Y-31740000D02*
X19200000Y-36537080D01*
X20540000Y-37874999D02*
X20540000Y-37320000D01*
X20270000Y-30670000D02*
X19200000Y-31740000D01*
X32377876Y-31740000D02*
X32692876Y-31425000D01*
X20760000Y-37100000D02*
X21340000Y-37100000D01*
G04 #@! TO.N,Board_0-/LAMP_FRONT*
X33007000Y-33875000D02*
X34256752Y-33875000D01*
X34610000Y-29520000D02*
X32890000Y-27800000D01*
X34256752Y-33875000D02*
X34610000Y-33521752D01*
X32890000Y-27800000D02*
X32875000Y-27800000D01*
X34610000Y-33521752D02*
X34610000Y-29520000D01*
G04 #@! TO.N,Board_0-/LAMP_REAR*
X34910000Y-29520000D02*
X35730000Y-28700000D01*
X33007000Y-34225000D02*
X34385000Y-34225000D01*
X46325000Y-28700000D02*
X47225000Y-27800000D01*
X34910000Y-33700000D02*
X34910000Y-29520000D01*
X34385000Y-34225000D02*
X34910000Y-33700000D01*
X35730000Y-28700000D02*
X46325000Y-28700000D01*
D25*
G04 #@! TO.N,Board_0-/MOTOR_A*
X33540000Y-33010000D02*
X33192000Y-33010000D01*
X33172000Y-33010000D02*
X33007000Y-33175000D01*
X33192000Y-33010000D02*
X33007000Y-32825000D01*
X44535003Y-39964997D02*
X44120000Y-40380000D01*
X44535003Y-36450000D02*
X44535003Y-39964997D01*
X33192000Y-33010000D02*
X33172000Y-33010000D01*
G04 #@! TO.N,Board_0-/MOTOR_B*
X33550000Y-32300000D02*
X33182000Y-32300000D01*
X44885003Y-36807107D02*
X44885003Y-39055003D01*
X33182000Y-32300000D02*
X33007000Y-32475000D01*
X44885003Y-39055003D02*
X46210000Y-40380000D01*
X33182000Y-32300000D02*
X33007000Y-32125000D01*
X45160006Y-36450000D02*
X45160006Y-36532104D01*
X46210000Y-40380000D02*
X46660000Y-40380000D01*
X45160006Y-36532104D02*
X44885003Y-36807107D01*
D26*
G04 #@! TO.N,Board_0-/TRACK_LEFT*
X31332000Y-30532000D02*
X31332000Y-30700000D01*
X30400000Y-29600000D02*
X31332000Y-30532000D01*
X32868000Y-30700000D02*
X32748000Y-30580000D01*
X31380000Y-30580000D02*
X30400000Y-29600000D01*
X32748000Y-30580000D02*
X31380000Y-30580000D01*
X27950000Y-29750000D02*
X28100000Y-29600000D01*
X28100000Y-29600000D02*
X30400000Y-29600000D01*
G04 #@! TO.N,Board_0-/TRACK_RIGHT*
X33330000Y-35630000D02*
X33000000Y-35300000D01*
X31330000Y-35630000D02*
X31332000Y-35628000D01*
X33000000Y-35300000D02*
X32868000Y-35300000D01*
X31332000Y-35628000D02*
X31332000Y-35300000D01*
G04 #@! TO.N,Board_0-GND*
X33840000Y-31390000D02*
X33455000Y-31775000D01*
X29835000Y-31775000D02*
X31192000Y-31775000D01*
X33840000Y-30950000D02*
X33840000Y-31390000D01*
X33455000Y-31775000D02*
X33007000Y-31775000D01*
X29720000Y-31890000D02*
X29835000Y-31775000D01*
G04 #@! TO.N,Board_0-Net-(D2-A)*
X27960000Y-27800000D02*
X31125000Y-27800000D01*
X27950000Y-27790000D02*
X27960000Y-27800000D01*
G04 #@! TO.N,Board_0-Net-(D3-A)*
X50000000Y-28825000D02*
X50000000Y-31225000D01*
X50000000Y-31225000D02*
X50785000Y-32010000D01*
X50785000Y-32010000D02*
X51200000Y-32010000D01*
X48975000Y-27800000D02*
X50000000Y-28825000D01*
G04 #@! TO.N,Board_0-Net-(P1-CC1)*
X25439620Y-32810000D02*
X25740000Y-32810000D01*
X22140000Y-36301344D02*
X22140000Y-36109620D01*
X21841344Y-36600000D02*
X22140000Y-36301344D01*
X21340000Y-36600000D02*
X21841344Y-36600000D01*
X22140000Y-36109620D02*
X25439620Y-32810000D01*
G04 #@! TO.N,Board_0-Net-(P1-CC2)*
X22340000Y-38990001D02*
X22490000Y-38840000D01*
X22490000Y-38840000D02*
X25600000Y-35730000D01*
X21340000Y-39600000D02*
X22110000Y-39600000D01*
X22110000Y-39600000D02*
X22340000Y-39370000D01*
X25600000Y-35730000D02*
X25710000Y-35730000D01*
X22340000Y-39370000D02*
X22340000Y-38990001D01*
G04 #@! TO.N,Board_0-VCC*
X50450000Y-39090000D02*
X51740000Y-40380000D01*
X31990000Y-32710000D02*
X31525000Y-33175000D01*
X45744264Y-39000000D02*
X48244264Y-39000000D01*
X48334264Y-39090000D02*
X50450000Y-39090000D01*
X48244264Y-39000000D02*
X48334264Y-39090000D01*
X45510003Y-38765739D02*
X45744264Y-39000000D01*
X45981674Y-36914585D02*
X45791437Y-36914585D01*
X46409843Y-36429519D02*
X46409843Y-36486416D01*
X45791437Y-36914585D02*
X45510003Y-37196019D01*
X45510003Y-37196019D02*
X45510003Y-38765739D01*
X31525000Y-33175000D02*
X31192000Y-33175000D01*
X46409843Y-36486416D02*
X45981674Y-36914585D01*
G04 #@! TO.N,Board_0-VDC*
X45210003Y-38890003D02*
X45620000Y-39300000D01*
X48120000Y-39300000D02*
X49200000Y-40380000D01*
X45784922Y-36496836D02*
X45210003Y-37071755D01*
X31980000Y-33510000D02*
X31965000Y-33525000D01*
X45784922Y-36439585D02*
X45784922Y-36496836D01*
X31965000Y-33525000D02*
X31192000Y-33525000D01*
X28450000Y-33490000D02*
X27950000Y-33990000D01*
X45620000Y-39300000D02*
X48120000Y-39300000D01*
X27950000Y-33990000D02*
X27950000Y-34230000D01*
X45210003Y-37071755D02*
X45210003Y-38890003D01*
G04 #@! TD*
G04 #@! TA.AperFunction,Conductor*
G04 #@! TO.N,Board_0-GND*
G36*
X25332138Y-27007529D02*
G01*
X25339167Y-27024500D01*
X25332138Y-27041469D01*
X25271950Y-27101658D01*
X25271947Y-27101661D01*
X25214354Y-27214693D01*
X25199500Y-27308483D01*
X25199500Y-28271515D01*
X25214354Y-28365306D01*
X25271947Y-28478338D01*
X25271948Y-28478339D01*
X25271950Y-28478342D01*
X25361658Y-28568050D01*
X25361660Y-28568051D01*
X25361661Y-28568052D01*
X25474693Y-28625645D01*
X25474694Y-28625645D01*
X25474696Y-28625646D01*
X25568481Y-28640500D01*
X26331518Y-28640499D01*
X26425304Y-28625646D01*
X26437217Y-28619576D01*
X26455529Y-28618134D01*
X26465084Y-28623989D01*
X26577471Y-28736376D01*
X26584500Y-28753347D01*
X26584500Y-30713203D01*
X26584499Y-30713217D01*
X26584499Y-30804855D01*
X26596779Y-30834500D01*
X26596779Y-30834501D01*
X26618828Y-30887733D01*
X26618829Y-30887734D01*
X26618830Y-30887736D01*
X26682264Y-30951170D01*
X26682265Y-30951170D01*
X27259624Y-31528529D01*
X27266653Y-31545500D01*
X27259624Y-31562471D01*
X27242653Y-31569500D01*
X25160170Y-31569500D01*
X25068104Y-31607634D01*
X24997635Y-31678102D01*
X24997636Y-31678103D01*
X24997635Y-31678104D01*
X24558103Y-32117635D01*
X24558103Y-32117636D01*
X24558102Y-32117635D01*
X24487634Y-32188104D01*
X24449500Y-32280170D01*
X24449500Y-32976297D01*
X24442471Y-32993268D01*
X22243268Y-35192471D01*
X22226297Y-35199500D01*
X22064752Y-35199500D01*
X22047781Y-35192471D01*
X22042797Y-35185194D01*
X22041446Y-35182135D01*
X22017206Y-35127235D01*
X21937765Y-35047794D01*
X21937763Y-35047793D01*
X21937762Y-35047792D01*
X21834991Y-35002415D01*
X21834990Y-35002414D01*
X21809865Y-34999500D01*
X20870137Y-34999500D01*
X20870135Y-34999501D01*
X20867259Y-34999834D01*
X20849593Y-34994802D01*
X20840659Y-34978752D01*
X20840500Y-34975993D01*
X20840500Y-34884235D01*
X20838158Y-34875492D01*
X20801281Y-34737865D01*
X20725515Y-34606635D01*
X20618365Y-34499485D01*
X20487135Y-34423719D01*
X20487134Y-34423718D01*
X20487133Y-34423718D01*
X20394338Y-34398854D01*
X20340766Y-34384500D01*
X20189234Y-34384500D01*
X20150016Y-34395008D01*
X20042866Y-34423718D01*
X19911635Y-34499485D01*
X19804485Y-34606635D01*
X19728718Y-34737866D01*
X19706664Y-34820175D01*
X19689500Y-34884234D01*
X19689500Y-35035766D01*
X19699670Y-35073722D01*
X19728436Y-35181082D01*
X19728719Y-35182135D01*
X19804485Y-35313365D01*
X19911635Y-35420515D01*
X20042865Y-35496281D01*
X20189234Y-35535500D01*
X20189235Y-35535500D01*
X20340765Y-35535500D01*
X20340766Y-35535500D01*
X20487135Y-35496281D01*
X20578501Y-35443529D01*
X20596711Y-35441133D01*
X20611285Y-35452315D01*
X20614500Y-35464315D01*
X20614500Y-35644862D01*
X20614501Y-35644867D01*
X20617414Y-35669989D01*
X20617415Y-35669991D01*
X20630886Y-35700500D01*
X20662793Y-35772764D01*
X20701720Y-35811692D01*
X20708749Y-35828662D01*
X20701719Y-35845633D01*
X20698084Y-35848617D01*
X20677424Y-35862422D01*
X20677421Y-35862425D01*
X20627583Y-35937012D01*
X20627582Y-35937014D01*
X20614500Y-36002784D01*
X20614500Y-36197209D01*
X20627582Y-36262985D01*
X20627583Y-36262987D01*
X20676814Y-36336666D01*
X20680398Y-36354682D01*
X20676814Y-36363334D01*
X20627583Y-36437012D01*
X20627582Y-36437014D01*
X20614500Y-36502784D01*
X20614500Y-36697209D01*
X20627582Y-36762985D01*
X20627583Y-36762987D01*
X20645018Y-36789080D01*
X20675708Y-36835011D01*
X20676814Y-36836665D01*
X20680398Y-36854681D01*
X20676814Y-36863333D01*
X20655874Y-36894672D01*
X20645104Y-36903511D01*
X20632263Y-36908830D01*
X20568829Y-36972263D01*
X20568830Y-36972264D01*
X20568829Y-36972265D01*
X20412265Y-37128829D01*
X20412264Y-37128830D01*
X20412263Y-37128829D01*
X20348828Y-37192265D01*
X20346781Y-37197209D01*
X20346781Y-37197211D01*
X20314498Y-37275145D01*
X20314038Y-37277461D01*
X20313419Y-37277338D01*
X20307470Y-37291703D01*
X20290499Y-37298732D01*
X20273528Y-37291703D01*
X19432529Y-36450704D01*
X19425500Y-36433733D01*
X19425500Y-31843346D01*
X19432528Y-31826376D01*
X19725942Y-31532961D01*
X19742912Y-31525933D01*
X19754221Y-31528765D01*
X19885273Y-31598814D01*
X20064830Y-31653282D01*
X20073871Y-31656025D01*
X20269995Y-31675341D01*
X20270000Y-31675341D01*
X20270005Y-31675341D01*
X20466128Y-31656025D01*
X20466130Y-31656024D01*
X20466132Y-31656024D01*
X20654727Y-31598814D01*
X20828538Y-31505910D01*
X20980883Y-31380883D01*
X21105910Y-31228538D01*
X21198814Y-31054727D01*
X21256024Y-30866132D01*
X21256024Y-30866130D01*
X21256025Y-30866128D01*
X21275341Y-30670004D01*
X21275341Y-30669995D01*
X21256025Y-30473871D01*
X21246731Y-30443233D01*
X21198814Y-30285273D01*
X21105910Y-30111462D01*
X21105903Y-30111453D01*
X20980890Y-29959125D01*
X20980887Y-29959122D01*
X20980883Y-29959117D01*
X20980877Y-29959112D01*
X20980874Y-29959109D01*
X20828546Y-29834096D01*
X20828542Y-29834094D01*
X20828538Y-29834090D01*
X20654727Y-29741186D01*
X20545185Y-29707956D01*
X20466128Y-29683974D01*
X20270005Y-29664659D01*
X20269995Y-29664659D01*
X20073871Y-29683974D01*
X19964326Y-29717205D01*
X19885273Y-29741186D01*
X19885269Y-29741187D01*
X19885269Y-29741188D01*
X19769399Y-29803122D01*
X19714383Y-29832529D01*
X19711464Y-29834089D01*
X19711453Y-29834096D01*
X19559125Y-29959109D01*
X19559109Y-29959125D01*
X19434096Y-30111453D01*
X19434091Y-30111460D01*
X19434090Y-30111462D01*
X19341186Y-30285273D01*
X19320186Y-30354499D01*
X19283974Y-30473871D01*
X19264659Y-30669995D01*
X19264659Y-30670004D01*
X19283974Y-30866128D01*
X19302909Y-30928546D01*
X19341186Y-31054727D01*
X19411231Y-31185773D01*
X19413032Y-31204053D01*
X19407036Y-31214057D01*
X19072265Y-31548829D01*
X19061971Y-31559123D01*
X19045000Y-31566152D01*
X19029048Y-31559545D01*
X19028939Y-31559691D01*
X19028935Y-31559688D01*
X19028515Y-31559324D01*
X19028029Y-31559123D01*
X19026371Y-31557465D01*
X19026364Y-31557459D01*
X18737529Y-31268624D01*
X18730500Y-31251653D01*
X18730500Y-29805183D01*
X18730499Y-29805175D01*
X18721767Y-29761277D01*
X18688505Y-29711498D01*
X18688504Y-29711496D01*
X18688277Y-29711344D01*
X18638722Y-29678232D01*
X18594824Y-29669500D01*
X18594820Y-29669500D01*
X16865180Y-29669500D01*
X16865175Y-29669500D01*
X16821277Y-29678232D01*
X16771498Y-29711494D01*
X16771494Y-29711498D01*
X16738232Y-29761277D01*
X16729500Y-29805175D01*
X16729500Y-31534824D01*
X16738232Y-31578722D01*
X16771344Y-31628277D01*
X16771496Y-31628504D01*
X16788165Y-31639642D01*
X16821277Y-31661767D01*
X16840039Y-31665499D01*
X16865180Y-31670500D01*
X18491653Y-31670500D01*
X18508624Y-31677529D01*
X18667471Y-31836376D01*
X18674500Y-31853347D01*
X18674500Y-36614547D01*
X18674499Y-36614561D01*
X18674499Y-36616489D01*
X18674499Y-36706199D01*
X18697853Y-36762580D01*
X18708830Y-36789080D01*
X18772264Y-36852514D01*
X18772265Y-36852514D01*
X20608743Y-38688992D01*
X20615311Y-38701282D01*
X20627582Y-38762984D01*
X20627583Y-38762987D01*
X20676814Y-38836666D01*
X20680398Y-38854682D01*
X20676814Y-38863334D01*
X20627583Y-38937012D01*
X20627582Y-38937014D01*
X20614500Y-39002784D01*
X20614500Y-39197209D01*
X20627582Y-39262985D01*
X20627583Y-39262987D01*
X20676814Y-39336666D01*
X20680398Y-39354682D01*
X20676814Y-39363334D01*
X20627583Y-39437012D01*
X20627582Y-39437014D01*
X20614500Y-39502784D01*
X20614500Y-39697209D01*
X20627582Y-39762985D01*
X20627583Y-39762987D01*
X20666649Y-39821453D01*
X20677423Y-39837577D01*
X20698084Y-39851382D01*
X20708289Y-39866655D01*
X20704705Y-39884671D01*
X20701721Y-39888307D01*
X20662793Y-39927235D01*
X20617415Y-40030008D01*
X20617414Y-40030009D01*
X20614500Y-40055133D01*
X20614500Y-40235683D01*
X20607471Y-40252654D01*
X20590500Y-40259683D01*
X20578500Y-40256468D01*
X20487133Y-40203718D01*
X20394338Y-40178854D01*
X20340766Y-40164500D01*
X20189234Y-40164500D01*
X20150016Y-40175008D01*
X20042866Y-40203718D01*
X19911635Y-40279485D01*
X19804485Y-40386635D01*
X19728718Y-40517866D01*
X19700008Y-40625016D01*
X19689500Y-40664234D01*
X19689500Y-40815766D01*
X19728719Y-40962135D01*
X19804485Y-41093365D01*
X19911635Y-41200515D01*
X20042865Y-41276281D01*
X20189234Y-41315500D01*
X20189235Y-41315500D01*
X20340765Y-41315500D01*
X20340766Y-41315500D01*
X20487135Y-41276281D01*
X20618365Y-41200515D01*
X20725515Y-41093365D01*
X20801281Y-40962135D01*
X20840500Y-40815766D01*
X20840500Y-40724007D01*
X20847529Y-40707036D01*
X20864500Y-40700007D01*
X20867262Y-40700166D01*
X20870135Y-40700500D01*
X21809864Y-40700499D01*
X21834991Y-40697585D01*
X21937765Y-40652206D01*
X22017206Y-40572765D01*
X22062585Y-40469991D01*
X22062763Y-40468453D01*
X22069631Y-40454248D01*
X22758529Y-39765351D01*
X22775500Y-39758322D01*
X22792471Y-39765351D01*
X22799500Y-39782322D01*
X22799500Y-41244824D01*
X22808232Y-41288722D01*
X22826125Y-41315500D01*
X22841496Y-41338504D01*
X22858165Y-41349642D01*
X22891277Y-41371767D01*
X22934015Y-41380268D01*
X22935180Y-41380500D01*
X22935184Y-41380500D01*
X24664816Y-41380500D01*
X24664820Y-41380500D01*
X24708722Y-41371767D01*
X24758504Y-41338504D01*
X24791767Y-41288722D01*
X24800500Y-41244820D01*
X24800500Y-40379995D01*
X25334659Y-40379995D01*
X25334659Y-40380004D01*
X25353974Y-40576128D01*
X25377053Y-40652206D01*
X25411186Y-40764727D01*
X25504090Y-40938538D01*
X25504094Y-40938542D01*
X25504096Y-40938546D01*
X25629109Y-41090874D01*
X25629112Y-41090877D01*
X25629117Y-41090883D01*
X25629122Y-41090887D01*
X25629125Y-41090890D01*
X25632140Y-41093364D01*
X25781462Y-41215910D01*
X25955273Y-41308814D01*
X26134830Y-41363282D01*
X26143871Y-41366025D01*
X26339995Y-41385341D01*
X26340000Y-41385341D01*
X26340005Y-41385341D01*
X26536128Y-41366025D01*
X26536130Y-41366024D01*
X26536132Y-41366024D01*
X26724727Y-41308814D01*
X26898538Y-41215910D01*
X27050883Y-41090883D01*
X27175910Y-40938538D01*
X27268814Y-40764727D01*
X27326024Y-40576132D01*
X27326024Y-40576130D01*
X27326025Y-40576128D01*
X27345341Y-40380004D01*
X27345341Y-40379995D01*
X27874659Y-40379995D01*
X27874659Y-40380004D01*
X27893974Y-40576128D01*
X27917053Y-40652206D01*
X27951186Y-40764727D01*
X28044090Y-40938538D01*
X28044094Y-40938542D01*
X28044096Y-40938546D01*
X28169109Y-41090874D01*
X28169112Y-41090877D01*
X28169117Y-41090883D01*
X28169122Y-41090887D01*
X28169125Y-41090890D01*
X28172140Y-41093364D01*
X28321462Y-41215910D01*
X28495273Y-41308814D01*
X28674830Y-41363282D01*
X28683871Y-41366025D01*
X28879995Y-41385341D01*
X28880000Y-41385341D01*
X28880005Y-41385341D01*
X29076128Y-41366025D01*
X29076130Y-41366024D01*
X29076132Y-41366024D01*
X29264727Y-41308814D01*
X29438538Y-41215910D01*
X29590883Y-41090883D01*
X29715910Y-40938538D01*
X29808814Y-40764727D01*
X29866024Y-40576132D01*
X29866024Y-40576130D01*
X29866025Y-40576128D01*
X29885341Y-40380004D01*
X29885341Y-40379995D01*
X29866025Y-40183871D01*
X29860149Y-40164500D01*
X29808814Y-39995273D01*
X29715910Y-39821462D01*
X29715903Y-39821453D01*
X29590890Y-39669125D01*
X29590885Y-39669120D01*
X29590883Y-39669117D01*
X29590877Y-39669112D01*
X29590874Y-39669109D01*
X29438546Y-39544096D01*
X29438542Y-39544094D01*
X29438538Y-39544090D01*
X29340408Y-39491638D01*
X29264726Y-39451185D01*
X29122533Y-39408050D01*
X29108334Y-39396397D01*
X29105500Y-39385084D01*
X29105500Y-39233346D01*
X29112528Y-39216376D01*
X29384726Y-38944178D01*
X29384728Y-38944178D01*
X29448162Y-38880744D01*
X29475965Y-38813621D01*
X29479427Y-38805263D01*
X29492415Y-38792274D01*
X29510784Y-38792274D01*
X29518571Y-38797476D01*
X30557036Y-39835941D01*
X30564065Y-39852912D01*
X30561231Y-39864225D01*
X30491188Y-39995266D01*
X30433974Y-40183871D01*
X30414659Y-40379995D01*
X30414659Y-40380004D01*
X30433974Y-40576128D01*
X30457053Y-40652206D01*
X30491186Y-40764727D01*
X30584090Y-40938538D01*
X30584094Y-40938542D01*
X30584096Y-40938546D01*
X30709109Y-41090874D01*
X30709112Y-41090877D01*
X30709117Y-41090883D01*
X30709122Y-41090887D01*
X30709125Y-41090890D01*
X30712140Y-41093364D01*
X30861462Y-41215910D01*
X31035273Y-41308814D01*
X31214830Y-41363282D01*
X31223871Y-41366025D01*
X31419995Y-41385341D01*
X31420000Y-41385341D01*
X31420005Y-41385341D01*
X31616128Y-41366025D01*
X31616130Y-41366024D01*
X31616132Y-41366024D01*
X31804727Y-41308814D01*
X31978538Y-41215910D01*
X32130883Y-41090883D01*
X32255910Y-40938538D01*
X32348814Y-40764727D01*
X32406024Y-40576132D01*
X32406024Y-40576130D01*
X32406025Y-40576128D01*
X32425341Y-40380004D01*
X32425341Y-40379995D01*
X32406025Y-40183871D01*
X32400149Y-40164500D01*
X32348814Y-39995273D01*
X32255910Y-39821462D01*
X32255903Y-39821453D01*
X32130890Y-39669125D01*
X32130885Y-39669120D01*
X32130883Y-39669117D01*
X32130877Y-39669112D01*
X32130874Y-39669109D01*
X31978546Y-39544096D01*
X31978542Y-39544094D01*
X31978538Y-39544090D01*
X31804727Y-39451186D01*
X31695185Y-39417956D01*
X31616128Y-39393974D01*
X31420005Y-39374659D01*
X31419995Y-39374659D01*
X31223871Y-39393974D01*
X31035266Y-39451188D01*
X30904225Y-39521231D01*
X30885945Y-39523032D01*
X30875941Y-39517036D01*
X30695377Y-39336472D01*
X30688348Y-39319501D01*
X30695377Y-39302530D01*
X30712348Y-39295501D01*
X30766173Y-39295501D01*
X30766181Y-39295500D01*
X32546653Y-39295500D01*
X32563624Y-39302529D01*
X33097036Y-39835941D01*
X33104065Y-39852912D01*
X33101231Y-39864225D01*
X33031188Y-39995266D01*
X32973974Y-40183871D01*
X32954659Y-40379995D01*
X32954659Y-40380004D01*
X32973974Y-40576128D01*
X32997053Y-40652206D01*
X33031186Y-40764727D01*
X33124090Y-40938538D01*
X33124094Y-40938542D01*
X33124096Y-40938546D01*
X33249109Y-41090874D01*
X33249112Y-41090877D01*
X33249117Y-41090883D01*
X33249122Y-41090887D01*
X33249125Y-41090890D01*
X33252140Y-41093364D01*
X33401462Y-41215910D01*
X33575273Y-41308814D01*
X33754830Y-41363282D01*
X33763871Y-41366025D01*
X33959995Y-41385341D01*
X33960000Y-41385341D01*
X33960005Y-41385341D01*
X34156128Y-41366025D01*
X34156130Y-41366024D01*
X34156132Y-41366024D01*
X34344727Y-41308814D01*
X34518538Y-41215910D01*
X34670883Y-41090883D01*
X34795910Y-40938538D01*
X34888814Y-40764727D01*
X34946024Y-40576132D01*
X34946024Y-40576130D01*
X34946025Y-40576128D01*
X34965341Y-40380004D01*
X34965341Y-40379995D01*
X35494659Y-40379995D01*
X35494659Y-40380004D01*
X35513974Y-40576128D01*
X35537053Y-40652206D01*
X35571186Y-40764727D01*
X35664090Y-40938538D01*
X35664094Y-40938542D01*
X35664096Y-40938546D01*
X35789109Y-41090874D01*
X35789112Y-41090877D01*
X35789117Y-41090883D01*
X35789122Y-41090887D01*
X35789125Y-41090890D01*
X35792140Y-41093364D01*
X35941462Y-41215910D01*
X36115273Y-41308814D01*
X36294830Y-41363282D01*
X36303871Y-41366025D01*
X36499995Y-41385341D01*
X36500000Y-41385341D01*
X36500005Y-41385341D01*
X36696128Y-41366025D01*
X36696130Y-41366024D01*
X36696132Y-41366024D01*
X36884727Y-41308814D01*
X37058538Y-41215910D01*
X37210883Y-41090883D01*
X37335910Y-40938538D01*
X37428814Y-40764727D01*
X37486024Y-40576132D01*
X37486024Y-40576130D01*
X37486025Y-40576128D01*
X37505341Y-40380004D01*
X37505341Y-40379995D01*
X38034659Y-40379995D01*
X38034659Y-40380004D01*
X38053974Y-40576128D01*
X38077053Y-40652206D01*
X38111186Y-40764727D01*
X38204090Y-40938538D01*
X38204094Y-40938542D01*
X38204096Y-40938546D01*
X38329109Y-41090874D01*
X38329112Y-41090877D01*
X38329117Y-41090883D01*
X38329122Y-41090887D01*
X38329125Y-41090890D01*
X38332140Y-41093364D01*
X38481462Y-41215910D01*
X38655273Y-41308814D01*
X38834830Y-41363282D01*
X38843871Y-41366025D01*
X39039995Y-41385341D01*
X39040000Y-41385341D01*
X39040005Y-41385341D01*
X39236128Y-41366025D01*
X39236130Y-41366024D01*
X39236132Y-41366024D01*
X39424727Y-41308814D01*
X39598538Y-41215910D01*
X39750883Y-41090883D01*
X39875910Y-40938538D01*
X39968814Y-40764727D01*
X40026024Y-40576132D01*
X40026024Y-40576130D01*
X40026025Y-40576128D01*
X40045341Y-40380004D01*
X40045341Y-40379995D01*
X40574659Y-40379995D01*
X40574659Y-40380004D01*
X40593974Y-40576128D01*
X40617053Y-40652206D01*
X40651186Y-40764727D01*
X40744090Y-40938538D01*
X40744094Y-40938542D01*
X40744096Y-40938546D01*
X40869109Y-41090874D01*
X40869112Y-41090877D01*
X40869117Y-41090883D01*
X40869122Y-41090887D01*
X40869125Y-41090890D01*
X40872140Y-41093364D01*
X41021462Y-41215910D01*
X41195273Y-41308814D01*
X41374830Y-41363282D01*
X41383871Y-41366025D01*
X41579995Y-41385341D01*
X41580000Y-41385341D01*
X41580005Y-41385341D01*
X41776128Y-41366025D01*
X41776130Y-41366024D01*
X41776132Y-41366024D01*
X41964727Y-41308814D01*
X42138538Y-41215910D01*
X42290883Y-41090883D01*
X42415910Y-40938538D01*
X42508814Y-40764727D01*
X42566024Y-40576132D01*
X42566024Y-40576130D01*
X42566025Y-40576128D01*
X42585341Y-40380004D01*
X42585341Y-40379995D01*
X42566025Y-40183871D01*
X42560149Y-40164500D01*
X42508814Y-39995273D01*
X42470398Y-39923403D01*
X42442251Y-39870742D01*
X42440450Y-39852461D01*
X42446444Y-39842459D01*
X42756376Y-39532529D01*
X42773347Y-39525500D01*
X43517039Y-39525500D01*
X43534010Y-39532529D01*
X43541039Y-39549500D01*
X43534010Y-39566471D01*
X43532264Y-39568052D01*
X43409125Y-39669109D01*
X43409109Y-39669125D01*
X43284096Y-39821453D01*
X43284091Y-39821460D01*
X43284090Y-39821462D01*
X43191186Y-39995273D01*
X43180649Y-40030009D01*
X43133974Y-40183871D01*
X43114659Y-40379995D01*
X43114659Y-40380004D01*
X43133974Y-40576128D01*
X43157053Y-40652206D01*
X43191186Y-40764727D01*
X43284090Y-40938538D01*
X43284094Y-40938542D01*
X43284096Y-40938546D01*
X43409109Y-41090874D01*
X43409112Y-41090877D01*
X43409117Y-41090883D01*
X43409122Y-41090887D01*
X43409125Y-41090890D01*
X43412140Y-41093364D01*
X43561462Y-41215910D01*
X43735273Y-41308814D01*
X43914830Y-41363282D01*
X43923871Y-41366025D01*
X44119995Y-41385341D01*
X44120000Y-41385341D01*
X44120005Y-41385341D01*
X44316128Y-41366025D01*
X44316130Y-41366024D01*
X44316132Y-41366024D01*
X44504727Y-41308814D01*
X44678538Y-41215910D01*
X44830883Y-41090883D01*
X44955910Y-40938538D01*
X45048814Y-40764727D01*
X45106024Y-40576132D01*
X45106024Y-40576130D01*
X45106025Y-40576128D01*
X45125341Y-40380004D01*
X45125341Y-40379995D01*
X45106025Y-40183871D01*
X45100149Y-40164500D01*
X45048814Y-39995273D01*
X44955910Y-39821462D01*
X44955903Y-39821453D01*
X44830890Y-39669125D01*
X44830885Y-39669120D01*
X44830883Y-39669117D01*
X44820867Y-39660897D01*
X44794277Y-39639074D01*
X44785619Y-39622874D01*
X44785503Y-39620522D01*
X44785503Y-39367705D01*
X44792532Y-39350734D01*
X44809503Y-39343705D01*
X44826473Y-39350733D01*
X45258061Y-39782322D01*
X45664661Y-40188922D01*
X45671690Y-40205893D01*
X45671574Y-40208245D01*
X45654659Y-40379995D01*
X45654659Y-40380004D01*
X45673974Y-40576128D01*
X45697053Y-40652206D01*
X45731186Y-40764727D01*
X45824090Y-40938538D01*
X45824094Y-40938542D01*
X45824096Y-40938546D01*
X45949109Y-41090874D01*
X45949112Y-41090877D01*
X45949117Y-41090883D01*
X45949122Y-41090887D01*
X45949125Y-41090890D01*
X45952140Y-41093364D01*
X46101462Y-41215910D01*
X46275273Y-41308814D01*
X46454830Y-41363282D01*
X46463871Y-41366025D01*
X46659995Y-41385341D01*
X46660000Y-41385341D01*
X46660005Y-41385341D01*
X46856128Y-41366025D01*
X46856130Y-41366024D01*
X46856132Y-41366024D01*
X47044727Y-41308814D01*
X47218538Y-41215910D01*
X47370883Y-41090883D01*
X47495910Y-40938538D01*
X47588814Y-40764727D01*
X47646024Y-40576132D01*
X47646024Y-40576130D01*
X47646025Y-40576128D01*
X47665341Y-40380004D01*
X47665341Y-40379995D01*
X47646025Y-40183871D01*
X47640149Y-40164500D01*
X47588814Y-39995273D01*
X47495910Y-39821462D01*
X47495903Y-39821453D01*
X47370890Y-39669125D01*
X47370885Y-39669120D01*
X47370883Y-39669117D01*
X47370877Y-39669112D01*
X47370874Y-39669109D01*
X47247736Y-39568052D01*
X47239077Y-39551852D01*
X47244409Y-39534275D01*
X47260609Y-39525616D01*
X47262961Y-39525500D01*
X48016653Y-39525500D01*
X48033624Y-39532529D01*
X48337036Y-39835941D01*
X48344065Y-39852912D01*
X48341231Y-39864225D01*
X48271188Y-39995266D01*
X48213974Y-40183871D01*
X48194659Y-40379995D01*
X48194659Y-40380004D01*
X48213974Y-40576128D01*
X48237053Y-40652206D01*
X48271186Y-40764727D01*
X48364090Y-40938538D01*
X48364094Y-40938542D01*
X48364096Y-40938546D01*
X48489109Y-41090874D01*
X48489112Y-41090877D01*
X48489117Y-41090883D01*
X48489122Y-41090887D01*
X48489125Y-41090890D01*
X48492140Y-41093364D01*
X48641462Y-41215910D01*
X48815273Y-41308814D01*
X48994830Y-41363282D01*
X49003871Y-41366025D01*
X49199995Y-41385341D01*
X49200000Y-41385341D01*
X49200005Y-41385341D01*
X49396128Y-41366025D01*
X49396130Y-41366024D01*
X49396132Y-41366024D01*
X49584727Y-41308814D01*
X49758538Y-41215910D01*
X49910883Y-41090883D01*
X50035910Y-40938538D01*
X50128814Y-40764727D01*
X50186024Y-40576132D01*
X50186024Y-40576130D01*
X50186025Y-40576128D01*
X50205341Y-40380004D01*
X50205341Y-40379995D01*
X50186025Y-40183871D01*
X50180149Y-40164500D01*
X50128814Y-39995273D01*
X50035910Y-39821462D01*
X50035903Y-39821453D01*
X49910890Y-39669125D01*
X49910885Y-39669120D01*
X49910883Y-39669117D01*
X49910877Y-39669112D01*
X49910874Y-39669109D01*
X49758546Y-39544096D01*
X49758542Y-39544094D01*
X49758538Y-39544090D01*
X49584727Y-39451186D01*
X49475185Y-39417956D01*
X49396128Y-39393974D01*
X49200005Y-39374659D01*
X49199995Y-39374659D01*
X49003871Y-39393974D01*
X48815266Y-39451188D01*
X48684225Y-39521231D01*
X48665945Y-39523032D01*
X48655941Y-39517036D01*
X48495376Y-39356471D01*
X48488347Y-39339500D01*
X48495376Y-39322529D01*
X48512347Y-39315500D01*
X50346653Y-39315500D01*
X50363624Y-39322529D01*
X50877036Y-39835942D01*
X50884065Y-39852913D01*
X50881231Y-39864226D01*
X50811188Y-39995266D01*
X50753974Y-40183871D01*
X50734659Y-40379995D01*
X50734659Y-40380004D01*
X50753974Y-40576128D01*
X50777053Y-40652206D01*
X50811186Y-40764727D01*
X50904090Y-40938538D01*
X50904094Y-40938542D01*
X50904096Y-40938546D01*
X51029109Y-41090874D01*
X51029112Y-41090877D01*
X51029117Y-41090883D01*
X51029122Y-41090887D01*
X51029125Y-41090890D01*
X51032140Y-41093364D01*
X51181462Y-41215910D01*
X51355273Y-41308814D01*
X51534830Y-41363282D01*
X51543871Y-41366025D01*
X51739995Y-41385341D01*
X51740000Y-41385341D01*
X51740005Y-41385341D01*
X51936128Y-41366025D01*
X51936130Y-41366024D01*
X51936132Y-41366024D01*
X52124727Y-41308814D01*
X52298538Y-41215910D01*
X52450883Y-41090883D01*
X52575910Y-40938538D01*
X52668814Y-40764727D01*
X52726024Y-40576132D01*
X52726024Y-40576130D01*
X52726025Y-40576128D01*
X52745341Y-40380004D01*
X52745341Y-40379995D01*
X52726025Y-40183871D01*
X52720149Y-40164500D01*
X52668814Y-39995273D01*
X52575910Y-39821462D01*
X52575903Y-39821453D01*
X52450890Y-39669125D01*
X52450885Y-39669120D01*
X52450883Y-39669117D01*
X52450877Y-39669112D01*
X52450874Y-39669109D01*
X52298546Y-39544096D01*
X52298542Y-39544094D01*
X52298538Y-39544090D01*
X52124727Y-39451186D01*
X52015185Y-39417956D01*
X51936128Y-39393974D01*
X51740005Y-39374659D01*
X51739995Y-39374659D01*
X51543871Y-39393974D01*
X51355266Y-39451188D01*
X51224226Y-39521231D01*
X51205946Y-39523032D01*
X51195942Y-39517036D01*
X50641170Y-38962265D01*
X50641170Y-38962264D01*
X50577736Y-38898830D01*
X50577734Y-38898829D01*
X50577733Y-38898828D01*
X50543995Y-38884854D01*
X50494856Y-38864499D01*
X50494855Y-38864499D01*
X50405145Y-38864499D01*
X50402355Y-38864499D01*
X50402347Y-38864500D01*
X48437612Y-38864500D01*
X48420642Y-38857471D01*
X48371999Y-38808828D01*
X48338959Y-38795144D01*
X48289120Y-38774499D01*
X48289119Y-38774499D01*
X48199409Y-38774499D01*
X48196619Y-38774499D01*
X48196611Y-38774500D01*
X45847611Y-38774500D01*
X45830640Y-38767471D01*
X45742532Y-38679363D01*
X45735503Y-38662392D01*
X45735503Y-37299366D01*
X45742532Y-37282395D01*
X45877813Y-37147114D01*
X45894784Y-37140085D01*
X45934021Y-37140085D01*
X45934029Y-37140086D01*
X45936819Y-37140086D01*
X46026530Y-37140086D01*
X46054613Y-37128452D01*
X46087525Y-37114820D01*
X46109410Y-37105755D01*
X46172844Y-37042321D01*
X46172844Y-37042319D01*
X46375566Y-36839596D01*
X46392536Y-36832568D01*
X46396285Y-36832863D01*
X46409843Y-36835011D01*
X46535147Y-36815165D01*
X46648185Y-36757569D01*
X46737893Y-36667861D01*
X46795489Y-36554823D01*
X46815335Y-36429519D01*
X46795489Y-36304215D01*
X46795488Y-36304213D01*
X46795488Y-36304212D01*
X46737895Y-36191180D01*
X46737894Y-36191179D01*
X46737893Y-36191177D01*
X46648185Y-36101469D01*
X46648182Y-36101467D01*
X46648181Y-36101466D01*
X46535149Y-36043873D01*
X46409843Y-36024027D01*
X46284536Y-36043873D01*
X46171502Y-36101467D01*
X46109319Y-36163649D01*
X46092349Y-36170678D01*
X46075379Y-36163649D01*
X46023262Y-36111533D01*
X46023263Y-36111533D01*
X45910228Y-36053939D01*
X45784922Y-36034093D01*
X45659615Y-36053939D01*
X45546581Y-36111533D01*
X45484226Y-36173887D01*
X45467256Y-36180916D01*
X45450286Y-36173887D01*
X45398346Y-36121948D01*
X45398347Y-36121948D01*
X45285312Y-36064354D01*
X45160006Y-36044508D01*
X45034699Y-36064354D01*
X44921664Y-36121948D01*
X44864474Y-36179138D01*
X44847504Y-36186167D01*
X44830534Y-36179138D01*
X44773343Y-36121948D01*
X44773344Y-36121948D01*
X44660309Y-36064354D01*
X44535003Y-36044508D01*
X44409696Y-36064354D01*
X44296661Y-36121948D01*
X44239471Y-36179138D01*
X44222501Y-36186167D01*
X44205531Y-36179138D01*
X44148340Y-36121948D01*
X44148341Y-36121948D01*
X44035306Y-36064354D01*
X43910000Y-36044508D01*
X43784693Y-36064354D01*
X43671661Y-36121947D01*
X43581947Y-36211661D01*
X43524354Y-36324693D01*
X43504508Y-36450000D01*
X43524354Y-36575306D01*
X43581947Y-36688338D01*
X43581948Y-36688339D01*
X43581950Y-36688342D01*
X43671658Y-36778050D01*
X43671660Y-36778051D01*
X43671661Y-36778052D01*
X43784693Y-36835645D01*
X43784694Y-36835645D01*
X43784696Y-36835646D01*
X43910000Y-36855492D01*
X43910000Y-36855491D01*
X43910002Y-36855492D01*
X43910003Y-36855492D01*
X43932312Y-36851958D01*
X43950173Y-36856245D01*
X43953025Y-36858680D01*
X43977474Y-36883129D01*
X43984503Y-36900098D01*
X43984503Y-38796650D01*
X43977474Y-38813621D01*
X43723624Y-39067471D01*
X43706653Y-39074500D01*
X42717653Y-39074500D01*
X42717645Y-39074499D01*
X42714855Y-39074499D01*
X42625146Y-39074499D01*
X42625145Y-39074499D01*
X42599445Y-39085145D01*
X42599444Y-39085145D01*
X42542265Y-39108828D01*
X42478829Y-39172263D01*
X42478830Y-39172264D01*
X42478829Y-39172265D01*
X42130574Y-39520519D01*
X42113603Y-39527548D01*
X42102290Y-39524714D01*
X41964733Y-39451188D01*
X41964727Y-39451186D01*
X41929625Y-39440538D01*
X41776128Y-39393974D01*
X41580005Y-39374659D01*
X41579995Y-39374659D01*
X41383871Y-39393974D01*
X41274326Y-39427205D01*
X41195273Y-39451186D01*
X41195269Y-39451187D01*
X41195269Y-39451188D01*
X41021464Y-39544089D01*
X41021453Y-39544096D01*
X40869125Y-39669109D01*
X40869109Y-39669125D01*
X40744096Y-39821453D01*
X40744091Y-39821460D01*
X40744090Y-39821462D01*
X40651186Y-39995273D01*
X40640649Y-40030009D01*
X40593974Y-40183871D01*
X40574659Y-40379995D01*
X40045341Y-40379995D01*
X40026025Y-40183871D01*
X40020149Y-40164500D01*
X39968814Y-39995273D01*
X39875910Y-39821462D01*
X39875903Y-39821453D01*
X39750890Y-39669125D01*
X39750885Y-39669120D01*
X39750883Y-39669117D01*
X39750877Y-39669112D01*
X39750874Y-39669109D01*
X39598546Y-39544096D01*
X39598542Y-39544094D01*
X39598538Y-39544090D01*
X39424727Y-39451186D01*
X39315185Y-39417956D01*
X39236128Y-39393974D01*
X39040005Y-39374659D01*
X39039995Y-39374659D01*
X38843871Y-39393974D01*
X38734326Y-39427205D01*
X38655273Y-39451186D01*
X38655269Y-39451187D01*
X38655269Y-39451188D01*
X38481464Y-39544089D01*
X38481453Y-39544096D01*
X38329125Y-39669109D01*
X38329109Y-39669125D01*
X38204096Y-39821453D01*
X38204091Y-39821460D01*
X38204090Y-39821462D01*
X38111186Y-39995273D01*
X38100649Y-40030009D01*
X38053974Y-40183871D01*
X38034659Y-40379995D01*
X37505341Y-40379995D01*
X37486025Y-40183871D01*
X37480149Y-40164500D01*
X37428814Y-39995273D01*
X37335910Y-39821462D01*
X37335903Y-39821453D01*
X37210890Y-39669125D01*
X37210885Y-39669120D01*
X37210883Y-39669117D01*
X37210877Y-39669112D01*
X37210874Y-39669109D01*
X37058546Y-39544096D01*
X37058542Y-39544094D01*
X37058538Y-39544090D01*
X36884727Y-39451186D01*
X36775185Y-39417956D01*
X36696128Y-39393974D01*
X36500005Y-39374659D01*
X36499995Y-39374659D01*
X36303871Y-39393974D01*
X36194326Y-39427205D01*
X36115273Y-39451186D01*
X36115269Y-39451187D01*
X36115269Y-39451188D01*
X35941464Y-39544089D01*
X35941453Y-39544096D01*
X35789125Y-39669109D01*
X35789109Y-39669125D01*
X35664096Y-39821453D01*
X35664091Y-39821460D01*
X35664090Y-39821462D01*
X35571186Y-39995273D01*
X35560649Y-40030009D01*
X35513974Y-40183871D01*
X35494659Y-40379995D01*
X34965341Y-40379995D01*
X34946025Y-40183871D01*
X34940149Y-40164500D01*
X34888814Y-39995273D01*
X34795910Y-39821462D01*
X34795903Y-39821453D01*
X34670890Y-39669125D01*
X34670885Y-39669120D01*
X34670883Y-39669117D01*
X34670877Y-39669112D01*
X34670874Y-39669109D01*
X34518546Y-39544096D01*
X34518542Y-39544094D01*
X34518538Y-39544090D01*
X34344727Y-39451186D01*
X34235185Y-39417956D01*
X34156128Y-39393974D01*
X33960005Y-39374659D01*
X33959995Y-39374659D01*
X33763871Y-39393974D01*
X33575266Y-39451188D01*
X33444225Y-39521231D01*
X33425945Y-39523032D01*
X33415941Y-39517036D01*
X32841170Y-38942265D01*
X32841170Y-38942264D01*
X32777736Y-38878830D01*
X32777734Y-38878829D01*
X32777733Y-38878828D01*
X32743140Y-38864500D01*
X32694856Y-38844499D01*
X32694855Y-38844499D01*
X32605145Y-38844499D01*
X32602355Y-38844499D01*
X32602347Y-38844500D01*
X30821875Y-38844500D01*
X30804904Y-38837471D01*
X30152858Y-38185425D01*
X30145829Y-38168454D01*
X30145829Y-36248692D01*
X30152858Y-36231721D01*
X30169829Y-36224692D01*
X30186800Y-36231721D01*
X30277479Y-36322400D01*
X30284009Y-36338167D01*
X30284213Y-36338135D01*
X30284347Y-36338983D01*
X30284508Y-36339371D01*
X30284508Y-36339997D01*
X30284508Y-36340000D01*
X30294320Y-36401950D01*
X30304354Y-36465306D01*
X30361947Y-36578338D01*
X30361948Y-36578339D01*
X30361950Y-36578342D01*
X30451658Y-36668050D01*
X30451660Y-36668051D01*
X30451661Y-36668052D01*
X30564693Y-36725645D01*
X30564694Y-36725645D01*
X30564696Y-36725646D01*
X30690000Y-36745492D01*
X30815304Y-36725646D01*
X30928342Y-36668050D01*
X31005528Y-36590863D01*
X31022498Y-36583834D01*
X31039468Y-36590863D01*
X31126655Y-36678050D01*
X31126657Y-36678051D01*
X31126658Y-36678052D01*
X31239690Y-36735645D01*
X31239691Y-36735645D01*
X31239693Y-36735646D01*
X31364997Y-36755492D01*
X31490301Y-36735646D01*
X31603339Y-36678050D01*
X31660528Y-36620860D01*
X31677497Y-36613831D01*
X31694467Y-36620860D01*
X31751659Y-36678051D01*
X31751658Y-36678051D01*
X31864693Y-36735645D01*
X31864694Y-36735645D01*
X31864696Y-36735646D01*
X31990000Y-36755492D01*
X32115304Y-36735646D01*
X32228342Y-36678050D01*
X32318050Y-36588342D01*
X32326163Y-36572417D01*
X32340129Y-36560489D01*
X32358442Y-36561929D01*
X32368931Y-36572418D01*
X32371947Y-36578338D01*
X32371948Y-36578339D01*
X32371950Y-36578342D01*
X32461658Y-36668050D01*
X32461660Y-36668051D01*
X32461661Y-36668052D01*
X32574693Y-36725645D01*
X32574694Y-36725645D01*
X32574696Y-36725646D01*
X32700000Y-36745492D01*
X32825304Y-36725646D01*
X32938342Y-36668050D01*
X33028050Y-36578342D01*
X33085646Y-36465304D01*
X33105492Y-36340000D01*
X33085646Y-36214696D01*
X33085645Y-36214694D01*
X33085645Y-36214693D01*
X33028052Y-36101661D01*
X33028051Y-36101660D01*
X33028050Y-36101658D01*
X32938342Y-36011950D01*
X32938339Y-36011948D01*
X32938338Y-36011947D01*
X32825306Y-35954354D01*
X32715822Y-35937014D01*
X32700000Y-35934508D01*
X32699999Y-35934508D01*
X32637330Y-35944433D01*
X32619469Y-35940144D01*
X32616605Y-35937699D01*
X32612529Y-35933623D01*
X32605500Y-35916652D01*
X32605500Y-35692153D01*
X32605501Y-35692144D01*
X32605501Y-35599644D01*
X32605104Y-35598686D01*
X32605103Y-35597647D01*
X32605040Y-35597326D01*
X32605103Y-35597313D01*
X32605102Y-35580317D01*
X32618090Y-35567328D01*
X32627276Y-35565500D01*
X32906623Y-35565500D01*
X32923594Y-35572529D01*
X32930623Y-35589500D01*
X32930328Y-35593254D01*
X32924508Y-35629999D01*
X32944354Y-35755306D01*
X33001947Y-35868338D01*
X33001948Y-35868339D01*
X33001950Y-35868342D01*
X33091658Y-35958050D01*
X33091660Y-35958051D01*
X33091661Y-35958052D01*
X33204693Y-36015645D01*
X33204694Y-36015645D01*
X33204696Y-36015646D01*
X33330000Y-36035492D01*
X33455304Y-36015646D01*
X33568342Y-35958050D01*
X33658050Y-35868342D01*
X33715646Y-35755304D01*
X33726182Y-35688777D01*
X33735779Y-35673117D01*
X33753639Y-35668828D01*
X33846481Y-35683533D01*
X33971785Y-35663687D01*
X34084823Y-35606091D01*
X34174531Y-35516383D01*
X34232127Y-35403345D01*
X34235005Y-35385175D01*
X50249500Y-35385175D01*
X50249500Y-35385180D01*
X50249500Y-37114820D01*
X50251985Y-37127313D01*
X50258232Y-37158722D01*
X50283949Y-37197209D01*
X50291496Y-37208504D01*
X50308165Y-37219642D01*
X50341277Y-37241767D01*
X50384015Y-37250268D01*
X50385180Y-37250500D01*
X50385184Y-37250500D01*
X52114816Y-37250500D01*
X52114820Y-37250500D01*
X52158722Y-37241767D01*
X52208504Y-37208504D01*
X52241767Y-37158722D01*
X52250500Y-37114820D01*
X52250500Y-36730000D01*
X52354508Y-36730000D01*
X52374354Y-36855306D01*
X52431947Y-36968338D01*
X52431948Y-36968339D01*
X52431950Y-36968342D01*
X52521658Y-37058050D01*
X52521660Y-37058051D01*
X52521661Y-37058052D01*
X52634693Y-37115645D01*
X52634694Y-37115645D01*
X52634696Y-37115646D01*
X52760000Y-37135492D01*
X52885304Y-37115646D01*
X52998342Y-37058050D01*
X53088050Y-36968342D01*
X53145646Y-36855304D01*
X53165492Y-36730000D01*
X53145646Y-36604696D01*
X53145645Y-36604694D01*
X53145645Y-36604693D01*
X53088052Y-36491661D01*
X53088051Y-36491660D01*
X53088050Y-36491658D01*
X52998342Y-36401950D01*
X52998339Y-36401948D01*
X52996815Y-36400841D01*
X52997147Y-36400382D01*
X52986671Y-36388103D01*
X52985500Y-36380699D01*
X52985500Y-34585175D01*
X53049500Y-34585175D01*
X53049500Y-36314824D01*
X53058232Y-36358722D01*
X53082744Y-36395406D01*
X53091496Y-36408504D01*
X53108165Y-36419642D01*
X53141277Y-36441767D01*
X53182666Y-36450000D01*
X53185180Y-36450500D01*
X53185184Y-36450500D01*
X54914816Y-36450500D01*
X54914820Y-36450500D01*
X54958722Y-36441767D01*
X55008504Y-36408504D01*
X55041767Y-36358722D01*
X55050500Y-36314820D01*
X55050500Y-34585180D01*
X55041767Y-34541278D01*
X55041767Y-34541277D01*
X55008505Y-34491498D01*
X55008504Y-34491496D01*
X54996401Y-34483409D01*
X54958722Y-34458232D01*
X54914824Y-34449500D01*
X54914820Y-34449500D01*
X53185180Y-34449500D01*
X53185175Y-34449500D01*
X53141277Y-34458232D01*
X53091498Y-34491494D01*
X53091494Y-34491498D01*
X53058232Y-34541277D01*
X53049500Y-34585175D01*
X52985500Y-34585175D01*
X52985500Y-31763347D01*
X52992529Y-31746376D01*
X53242616Y-31496289D01*
X53505942Y-31232962D01*
X53522912Y-31225934D01*
X53534226Y-31228768D01*
X53558342Y-31241658D01*
X53665273Y-31298814D01*
X53843086Y-31352753D01*
X53853871Y-31356025D01*
X54049995Y-31375341D01*
X54050000Y-31375341D01*
X54050005Y-31375341D01*
X54246128Y-31356025D01*
X54246130Y-31356024D01*
X54246132Y-31356024D01*
X54434727Y-31298814D01*
X54608538Y-31205910D01*
X54760883Y-31080883D01*
X54885910Y-30928538D01*
X54978814Y-30754727D01*
X55036024Y-30566132D01*
X55036024Y-30566130D01*
X55036025Y-30566128D01*
X55055341Y-30370004D01*
X55055341Y-30369995D01*
X55036025Y-30173871D01*
X55023307Y-30131947D01*
X54978814Y-29985273D01*
X54885910Y-29811462D01*
X54880757Y-29805183D01*
X54760890Y-29659125D01*
X54760887Y-29659122D01*
X54760883Y-29659117D01*
X54760877Y-29659112D01*
X54760874Y-29659109D01*
X54608546Y-29534096D01*
X54608542Y-29534094D01*
X54608538Y-29534090D01*
X54434727Y-29441186D01*
X54325185Y-29407956D01*
X54246128Y-29383974D01*
X54050005Y-29364659D01*
X54049995Y-29364659D01*
X53853871Y-29383974D01*
X53744326Y-29417205D01*
X53665273Y-29441186D01*
X53665269Y-29441187D01*
X53665269Y-29441188D01*
X53491464Y-29534089D01*
X53491453Y-29534096D01*
X53339125Y-29659109D01*
X53339109Y-29659125D01*
X53214096Y-29811453D01*
X53214091Y-29811460D01*
X53214090Y-29811462D01*
X53121186Y-29985273D01*
X53100184Y-30054508D01*
X53063974Y-30173871D01*
X53044659Y-30369995D01*
X53044659Y-30370004D01*
X53063974Y-30566128D01*
X53087956Y-30645185D01*
X53121186Y-30754727D01*
X53191231Y-30885772D01*
X53193032Y-30904052D01*
X53187036Y-30914056D01*
X52632265Y-31468829D01*
X52632264Y-31468830D01*
X52632263Y-31468829D01*
X52568833Y-31532260D01*
X52568831Y-31532262D01*
X52568830Y-31532264D01*
X52567770Y-31534824D01*
X52561968Y-31548830D01*
X52534499Y-31615144D01*
X52534499Y-31707644D01*
X52534500Y-31707653D01*
X52534500Y-36380699D01*
X52527471Y-36397670D01*
X52523158Y-36400804D01*
X52523185Y-36400841D01*
X52521660Y-36401948D01*
X52431947Y-36491661D01*
X52374354Y-36604693D01*
X52354508Y-36730000D01*
X52250500Y-36730000D01*
X52250500Y-35385180D01*
X52241767Y-35341278D01*
X52241767Y-35341277D01*
X52208505Y-35291498D01*
X52208504Y-35291496D01*
X52208277Y-35291344D01*
X52158722Y-35258232D01*
X52114824Y-35249500D01*
X52114820Y-35249500D01*
X50385180Y-35249500D01*
X50385175Y-35249500D01*
X50341277Y-35258232D01*
X50291498Y-35291494D01*
X50291494Y-35291498D01*
X50258232Y-35341277D01*
X50249500Y-35385175D01*
X34235005Y-35385175D01*
X34251973Y-35278041D01*
X34232127Y-35152737D01*
X34232125Y-35152733D01*
X34232125Y-35152732D01*
X34231543Y-35150938D01*
X34232590Y-35150597D01*
X34231402Y-35135914D01*
X34243301Y-35121920D01*
X34250485Y-35119576D01*
X34275304Y-35115646D01*
X34388342Y-35058050D01*
X34478050Y-34968342D01*
X34535646Y-34855304D01*
X34555492Y-34730000D01*
X34535646Y-34604696D01*
X34535645Y-34604694D01*
X34535645Y-34604693D01*
X34478052Y-34491661D01*
X34478051Y-34491660D01*
X34478050Y-34491658D01*
X34460227Y-34473835D01*
X34453199Y-34456866D01*
X34460228Y-34439895D01*
X34468011Y-34434695D01*
X34497630Y-34422427D01*
X34512736Y-34416170D01*
X34576170Y-34352736D01*
X34576170Y-34352734D01*
X35037734Y-33891170D01*
X35037736Y-33891170D01*
X35101170Y-33827736D01*
X35106104Y-33815823D01*
X35114526Y-33795493D01*
X35114526Y-33795492D01*
X35135501Y-33744855D01*
X35135501Y-33653217D01*
X35135500Y-33653203D01*
X35135500Y-29623347D01*
X35142529Y-29606376D01*
X35816376Y-28932529D01*
X35833347Y-28925500D01*
X46277347Y-28925500D01*
X46277355Y-28925501D01*
X46280145Y-28925501D01*
X46369856Y-28925501D01*
X46403954Y-28911376D01*
X46428460Y-28901225D01*
X46452736Y-28891170D01*
X46516170Y-28827736D01*
X46516170Y-28827734D01*
X46911376Y-28432528D01*
X46928347Y-28425499D01*
X47543029Y-28425499D01*
X47543032Y-28425499D01*
X47633893Y-28411109D01*
X47743403Y-28355311D01*
X47830311Y-28268403D01*
X47886109Y-28158893D01*
X47900500Y-28068033D01*
X47900499Y-27531969D01*
X48299500Y-27531969D01*
X48299500Y-28068029D01*
X48313891Y-28158895D01*
X48369686Y-28268399D01*
X48369687Y-28268400D01*
X48369689Y-28268403D01*
X48456597Y-28355311D01*
X48456599Y-28355312D01*
X48456600Y-28355313D01*
X48566104Y-28411108D01*
X48566105Y-28411108D01*
X48566107Y-28411109D01*
X48656967Y-28425500D01*
X49271652Y-28425499D01*
X49288623Y-28432528D01*
X49767471Y-28911376D01*
X49774500Y-28928347D01*
X49774500Y-30321208D01*
X49767471Y-30338179D01*
X49750500Y-30345208D01*
X49739604Y-30342592D01*
X49625306Y-30284354D01*
X49500000Y-30264508D01*
X49374693Y-30284354D01*
X49261661Y-30341947D01*
X49171947Y-30431661D01*
X49114354Y-30544693D01*
X49094508Y-30670000D01*
X49114354Y-30795306D01*
X49171947Y-30908338D01*
X49171948Y-30908339D01*
X49171950Y-30908342D01*
X49261658Y-30998050D01*
X49261662Y-30998052D01*
X49263187Y-30999160D01*
X49262850Y-30999623D01*
X49273323Y-31011877D01*
X49274500Y-31019300D01*
X49274500Y-31102467D01*
X49274499Y-31102481D01*
X49274499Y-31194119D01*
X49294191Y-31241658D01*
X49294191Y-31241659D01*
X49308828Y-31276997D01*
X49308829Y-31276998D01*
X49308830Y-31277000D01*
X49372264Y-31340434D01*
X49372265Y-31340434D01*
X49767471Y-31735640D01*
X49774500Y-31752611D01*
X49774500Y-32763203D01*
X49774499Y-32763217D01*
X49774499Y-32854855D01*
X49786860Y-32884696D01*
X49786860Y-32884697D01*
X49808828Y-32937733D01*
X49808829Y-32937734D01*
X49808830Y-32937736D01*
X49872264Y-33001170D01*
X49872265Y-33001170D01*
X50366010Y-33494915D01*
X50373039Y-33511886D01*
X50370424Y-33522780D01*
X50364355Y-33534692D01*
X50364354Y-33534696D01*
X50349500Y-33628483D01*
X50349500Y-34391515D01*
X50364354Y-34485306D01*
X50421947Y-34598338D01*
X50421948Y-34598339D01*
X50421950Y-34598342D01*
X50511658Y-34688050D01*
X50511660Y-34688051D01*
X50511661Y-34688052D01*
X50624693Y-34745645D01*
X50624694Y-34745645D01*
X50624696Y-34745646D01*
X50718481Y-34760500D01*
X51681518Y-34760499D01*
X51775304Y-34745646D01*
X51888342Y-34688050D01*
X51978050Y-34598342D01*
X52035646Y-34485304D01*
X52050500Y-34391519D01*
X52050499Y-33628482D01*
X52035646Y-33534696D01*
X52035645Y-33534694D01*
X52035645Y-33534693D01*
X51978052Y-33421661D01*
X51978051Y-33421660D01*
X51978050Y-33421658D01*
X51888342Y-33331950D01*
X51888339Y-33331948D01*
X51888338Y-33331947D01*
X51775306Y-33274354D01*
X51737790Y-33268412D01*
X51681519Y-33259500D01*
X51681516Y-33259500D01*
X50778347Y-33259500D01*
X50761376Y-33252471D01*
X50232529Y-32723624D01*
X50225500Y-32706653D01*
X50225500Y-31827347D01*
X50232529Y-31810376D01*
X50249500Y-31803347D01*
X50266471Y-31810376D01*
X50342471Y-31886376D01*
X50349500Y-31903347D01*
X50349500Y-32391515D01*
X50364354Y-32485306D01*
X50421947Y-32598338D01*
X50421948Y-32598339D01*
X50421950Y-32598342D01*
X50511658Y-32688050D01*
X50511660Y-32688051D01*
X50511661Y-32688052D01*
X50624693Y-32745645D01*
X50624694Y-32745645D01*
X50624696Y-32745646D01*
X50718481Y-32760500D01*
X51681518Y-32760499D01*
X51775304Y-32745646D01*
X51888342Y-32688050D01*
X51978050Y-32598342D01*
X52035646Y-32485304D01*
X52050500Y-32391519D01*
X52050499Y-31628482D01*
X52035646Y-31534696D01*
X52035645Y-31534694D01*
X52035645Y-31534693D01*
X51978052Y-31421661D01*
X51978051Y-31421660D01*
X51978050Y-31421658D01*
X51888342Y-31331950D01*
X51888339Y-31331948D01*
X51888338Y-31331947D01*
X51775306Y-31274354D01*
X51737790Y-31268412D01*
X51681519Y-31259500D01*
X51681516Y-31259500D01*
X50718484Y-31259500D01*
X50624693Y-31274354D01*
X50511658Y-31331948D01*
X50511658Y-31331949D01*
X50485726Y-31357880D01*
X50468755Y-31364909D01*
X50451785Y-31357880D01*
X50232529Y-31138624D01*
X50225500Y-31121653D01*
X50225500Y-30688851D01*
X50232529Y-30671880D01*
X50249500Y-30664851D01*
X50266471Y-30671880D01*
X50269454Y-30675516D01*
X50291496Y-30708504D01*
X50298529Y-30713203D01*
X50341277Y-30741767D01*
X50384015Y-30750268D01*
X50385180Y-30750500D01*
X50385184Y-30750500D01*
X52114816Y-30750500D01*
X52114820Y-30750500D01*
X52158722Y-30741767D01*
X52208504Y-30708504D01*
X52241767Y-30658722D01*
X52250500Y-30614820D01*
X52250500Y-28885180D01*
X52241767Y-28841278D01*
X52241767Y-28841277D01*
X52208505Y-28791498D01*
X52208504Y-28791496D01*
X52191516Y-28780145D01*
X52158722Y-28758232D01*
X52114824Y-28749500D01*
X52114820Y-28749500D01*
X50385180Y-28749500D01*
X50385175Y-28749500D01*
X50341277Y-28758232D01*
X50291498Y-28791494D01*
X50291494Y-28791498D01*
X50269456Y-28824481D01*
X50254183Y-28834686D01*
X50236167Y-28831102D01*
X50225962Y-28815829D01*
X50225501Y-28811147D01*
X50225501Y-28780144D01*
X50191170Y-28697265D01*
X50191170Y-28697264D01*
X50191169Y-28697263D01*
X50126379Y-28632472D01*
X50126364Y-28632459D01*
X49647036Y-28153131D01*
X49640007Y-28136160D01*
X49640303Y-28132405D01*
X49641760Y-28123211D01*
X49650500Y-28068033D01*
X49650499Y-27531968D01*
X49636109Y-27441107D01*
X49636108Y-27441105D01*
X49636108Y-27441104D01*
X49580313Y-27331600D01*
X49580312Y-27331599D01*
X49580311Y-27331597D01*
X49493403Y-27244689D01*
X49493400Y-27244687D01*
X49493399Y-27244686D01*
X49383895Y-27188891D01*
X49347549Y-27183134D01*
X49293033Y-27174500D01*
X49293030Y-27174500D01*
X48656970Y-27174500D01*
X48566104Y-27188891D01*
X48456600Y-27244686D01*
X48369686Y-27331600D01*
X48313891Y-27441104D01*
X48299500Y-27531969D01*
X47900499Y-27531969D01*
X47900499Y-27531968D01*
X47886109Y-27441107D01*
X47886108Y-27441105D01*
X47886108Y-27441104D01*
X47830313Y-27331600D01*
X47830312Y-27331599D01*
X47830311Y-27331597D01*
X47743403Y-27244689D01*
X47743400Y-27244687D01*
X47743399Y-27244686D01*
X47633895Y-27188891D01*
X47597549Y-27183134D01*
X47543033Y-27174500D01*
X47543030Y-27174500D01*
X46906970Y-27174500D01*
X46816104Y-27188891D01*
X46706600Y-27244686D01*
X46619686Y-27331600D01*
X46563891Y-27441104D01*
X46549500Y-27531969D01*
X46549500Y-28068029D01*
X46559696Y-28132406D01*
X46555407Y-28150267D01*
X46552962Y-28153131D01*
X46238624Y-28467471D01*
X46221653Y-28474500D01*
X35777653Y-28474500D01*
X35777645Y-28474499D01*
X35774855Y-28474499D01*
X35685145Y-28474499D01*
X35685144Y-28474499D01*
X35626538Y-28498773D01*
X35626539Y-28498774D01*
X35602263Y-28508830D01*
X35538829Y-28572263D01*
X35538830Y-28572264D01*
X34776971Y-29334123D01*
X34760000Y-29341152D01*
X34743029Y-29334123D01*
X34737735Y-29328829D01*
X33549087Y-28140182D01*
X33542058Y-28123211D01*
X33542354Y-28119456D01*
X33550499Y-28068038D01*
X33550500Y-28068033D01*
X33550499Y-27531968D01*
X33536109Y-27441107D01*
X33536108Y-27441105D01*
X33536108Y-27441104D01*
X33480313Y-27331600D01*
X33480312Y-27331599D01*
X33480311Y-27331597D01*
X33393403Y-27244689D01*
X33393400Y-27244687D01*
X33393399Y-27244686D01*
X33283895Y-27188891D01*
X33247549Y-27183134D01*
X33193033Y-27174500D01*
X33193030Y-27174500D01*
X32556970Y-27174500D01*
X32466104Y-27188891D01*
X32356600Y-27244686D01*
X32269686Y-27331600D01*
X32213891Y-27441104D01*
X32199500Y-27531969D01*
X32199500Y-28068029D01*
X32213891Y-28158895D01*
X32269686Y-28268399D01*
X32269687Y-28268400D01*
X32269689Y-28268403D01*
X32356597Y-28355311D01*
X32356599Y-28355312D01*
X32356600Y-28355313D01*
X32466104Y-28411108D01*
X32466105Y-28411108D01*
X32466107Y-28411109D01*
X32556967Y-28425500D01*
X33186651Y-28425499D01*
X33203622Y-28432528D01*
X34377471Y-29606376D01*
X34384500Y-29623347D01*
X34384500Y-33080166D01*
X34377471Y-33097137D01*
X34360500Y-33104166D01*
X34343530Y-33097137D01*
X34308340Y-33061948D01*
X34308341Y-33061948D01*
X34195306Y-33004354D01*
X34111768Y-32991123D01*
X34070000Y-32984508D01*
X34069999Y-32984508D01*
X34056368Y-32986667D01*
X33968303Y-33000614D01*
X33950443Y-32996326D01*
X33940845Y-32980665D01*
X33925646Y-32884696D01*
X33925645Y-32884694D01*
X33925645Y-32884693D01*
X33868052Y-32771661D01*
X33868051Y-32771660D01*
X33868050Y-32771658D01*
X33778342Y-32681950D01*
X33778339Y-32681948D01*
X33778338Y-32681947D01*
X33772418Y-32678931D01*
X33760489Y-32664963D01*
X33761930Y-32646651D01*
X33772417Y-32636163D01*
X33788342Y-32628050D01*
X33878050Y-32538342D01*
X33935646Y-32425304D01*
X33955492Y-32300000D01*
X33935646Y-32174696D01*
X33935645Y-32174694D01*
X33935645Y-32174693D01*
X33878052Y-32061661D01*
X33878051Y-32061660D01*
X33878050Y-32061658D01*
X33788342Y-31971950D01*
X33788339Y-31971948D01*
X33788338Y-31971947D01*
X33675306Y-31914354D01*
X33550000Y-31894508D01*
X33424696Y-31914354D01*
X33424695Y-31914354D01*
X33424691Y-31914355D01*
X33387891Y-31933105D01*
X33369579Y-31934546D01*
X33360313Y-31927529D01*
X33359675Y-31928168D01*
X33358005Y-31926498D01*
X33358004Y-31926496D01*
X33339834Y-31914355D01*
X33308222Y-31893232D01*
X33264324Y-31884500D01*
X33264320Y-31884500D01*
X33085744Y-31884500D01*
X33076559Y-31882673D01*
X33056829Y-31874500D01*
X33056828Y-31874500D01*
X32957172Y-31874500D01*
X32957171Y-31874500D01*
X32937441Y-31882673D01*
X32928256Y-31884500D01*
X32749675Y-31884500D01*
X32705777Y-31893232D01*
X32655998Y-31926494D01*
X32655994Y-31926498D01*
X32622732Y-31976277D01*
X32614000Y-32020175D01*
X32614000Y-32229824D01*
X32622732Y-32273721D01*
X32631382Y-32286667D01*
X32634965Y-32304683D01*
X32631382Y-32313333D01*
X32622732Y-32326278D01*
X32614000Y-32370175D01*
X32614000Y-32579824D01*
X32622732Y-32623721D01*
X32631382Y-32636667D01*
X32634965Y-32654683D01*
X32631382Y-32663333D01*
X32622732Y-32676278D01*
X32614000Y-32720175D01*
X32614000Y-32929824D01*
X32622732Y-32973721D01*
X32631382Y-32986667D01*
X32634965Y-33004683D01*
X32631382Y-33013333D01*
X32622732Y-33026278D01*
X32614000Y-33070175D01*
X32614000Y-33279824D01*
X32622732Y-33323721D01*
X32631382Y-33336667D01*
X32634965Y-33354683D01*
X32631382Y-33363333D01*
X32622732Y-33376278D01*
X32614000Y-33420175D01*
X32614000Y-33629824D01*
X32622732Y-33673721D01*
X32631382Y-33686667D01*
X32634965Y-33704683D01*
X32631382Y-33713333D01*
X32622732Y-33726278D01*
X32614000Y-33770175D01*
X32614000Y-33979824D01*
X32622732Y-34023721D01*
X32631382Y-34036667D01*
X32634965Y-34054683D01*
X32631382Y-34063333D01*
X32622732Y-34076278D01*
X32614000Y-34120175D01*
X32614000Y-34329824D01*
X32622732Y-34373721D01*
X32631382Y-34386667D01*
X32634965Y-34404683D01*
X32631382Y-34413333D01*
X32622732Y-34426278D01*
X32614000Y-34470175D01*
X32614000Y-34679824D01*
X32622732Y-34723721D01*
X32631382Y-34736667D01*
X32634965Y-34754683D01*
X32631382Y-34763333D01*
X32622732Y-34776278D01*
X32614000Y-34820175D01*
X32614000Y-35010500D01*
X32606971Y-35027471D01*
X32590000Y-35034500D01*
X32585676Y-35034500D01*
X32549877Y-35041622D01*
X32531862Y-35038038D01*
X32528224Y-35035054D01*
X32503235Y-35010065D01*
X31940434Y-34447265D01*
X31940434Y-34447264D01*
X31877000Y-34383830D01*
X31876998Y-34383829D01*
X31876997Y-34383828D01*
X31852597Y-34373722D01*
X31794120Y-34349499D01*
X31794119Y-34349499D01*
X31704409Y-34349499D01*
X31701619Y-34349499D01*
X31701611Y-34349500D01*
X31609000Y-34349500D01*
X31592029Y-34342471D01*
X31585000Y-34325500D01*
X31585000Y-34120183D01*
X31584999Y-34120175D01*
X31576267Y-34076280D01*
X31576267Y-34076278D01*
X31567616Y-34063331D01*
X31564033Y-34045319D01*
X31567614Y-34036670D01*
X31576267Y-34023722D01*
X31585000Y-33979820D01*
X31585000Y-33774500D01*
X31592029Y-33757529D01*
X31609000Y-33750500D01*
X31644166Y-33750500D01*
X31661136Y-33757529D01*
X31741658Y-33838050D01*
X31741658Y-33838051D01*
X31854693Y-33895645D01*
X31854694Y-33895645D01*
X31854696Y-33895646D01*
X31980000Y-33915492D01*
X32105304Y-33895646D01*
X32218342Y-33838050D01*
X32308050Y-33748342D01*
X32365646Y-33635304D01*
X32385492Y-33510000D01*
X32365646Y-33384696D01*
X32365645Y-33384694D01*
X32365645Y-33384693D01*
X32308052Y-33271661D01*
X32308051Y-33271660D01*
X32308050Y-33271658D01*
X32218342Y-33181950D01*
X32218339Y-33181948D01*
X32218338Y-33181947D01*
X32124102Y-33133931D01*
X32112173Y-33119963D01*
X32113614Y-33101651D01*
X32124102Y-33091163D01*
X32165284Y-33070180D01*
X32228342Y-33038050D01*
X32318050Y-32948342D01*
X32375646Y-32835304D01*
X32395492Y-32710000D01*
X32375646Y-32584696D01*
X32375645Y-32584694D01*
X32375645Y-32584693D01*
X32318052Y-32471661D01*
X32318051Y-32471660D01*
X32318050Y-32471658D01*
X32228342Y-32381950D01*
X32228339Y-32381948D01*
X32228338Y-32381947D01*
X32115306Y-32324354D01*
X31990000Y-32304508D01*
X31864693Y-32324354D01*
X31751661Y-32381947D01*
X31661947Y-32471661D01*
X31630384Y-32533608D01*
X31616416Y-32545537D01*
X31598104Y-32544096D01*
X31586175Y-32530128D01*
X31585000Y-32522712D01*
X31585000Y-32370183D01*
X31584999Y-32370175D01*
X31584098Y-32365645D01*
X31576267Y-32326278D01*
X31567616Y-32313331D01*
X31564033Y-32295319D01*
X31567614Y-32286670D01*
X31576267Y-32273722D01*
X31585000Y-32229820D01*
X31585000Y-32020180D01*
X31576678Y-31978342D01*
X31576267Y-31976277D01*
X31543005Y-31926498D01*
X31543004Y-31926496D01*
X31524834Y-31914355D01*
X31493222Y-31893232D01*
X31449324Y-31884500D01*
X31449320Y-31884500D01*
X30934680Y-31884500D01*
X30934675Y-31884500D01*
X30890780Y-31893232D01*
X30890778Y-31893232D01*
X30890778Y-31893233D01*
X30887450Y-31895456D01*
X30874119Y-31899500D01*
X30215880Y-31899500D01*
X30133002Y-31933828D01*
X30133000Y-31933830D01*
X29129257Y-32937573D01*
X29129256Y-32937574D01*
X29129255Y-32937573D01*
X29065821Y-33001008D01*
X29059542Y-33016169D01*
X29059542Y-33016170D01*
X29031491Y-33083888D01*
X29031491Y-33176388D01*
X29031492Y-33176397D01*
X29031492Y-38649660D01*
X29024463Y-38666631D01*
X28752264Y-38938830D01*
X28752263Y-38938829D01*
X28688830Y-39002263D01*
X28678774Y-39026539D01*
X28654499Y-39085144D01*
X28654499Y-39177644D01*
X28654500Y-39177653D01*
X28654500Y-39385084D01*
X28647471Y-39402055D01*
X28637467Y-39408050D01*
X28495273Y-39451185D01*
X28321464Y-39544089D01*
X28321453Y-39544096D01*
X28169125Y-39669109D01*
X28169109Y-39669125D01*
X28044096Y-39821453D01*
X28044091Y-39821460D01*
X28044090Y-39821462D01*
X27951186Y-39995273D01*
X27940649Y-40030009D01*
X27893974Y-40183871D01*
X27874659Y-40379995D01*
X27345341Y-40379995D01*
X27326025Y-40183871D01*
X27320149Y-40164500D01*
X27268814Y-39995273D01*
X27175910Y-39821462D01*
X27175903Y-39821453D01*
X27050890Y-39669125D01*
X27050885Y-39669120D01*
X27050883Y-39669117D01*
X27050877Y-39669112D01*
X27050874Y-39669109D01*
X26898546Y-39544096D01*
X26898542Y-39544094D01*
X26898538Y-39544090D01*
X26724727Y-39451186D01*
X26615185Y-39417956D01*
X26536128Y-39393974D01*
X26340005Y-39374659D01*
X26339995Y-39374659D01*
X26143871Y-39393974D01*
X26034326Y-39427205D01*
X25955273Y-39451186D01*
X25955269Y-39451187D01*
X25955269Y-39451188D01*
X25781464Y-39544089D01*
X25781453Y-39544096D01*
X25629125Y-39669109D01*
X25629109Y-39669125D01*
X25504096Y-39821453D01*
X25504091Y-39821460D01*
X25504090Y-39821462D01*
X25411186Y-39995273D01*
X25400649Y-40030009D01*
X25353974Y-40183871D01*
X25334659Y-40379995D01*
X24800500Y-40379995D01*
X24800500Y-39515180D01*
X24791767Y-39471278D01*
X24791767Y-39471277D01*
X24758505Y-39421498D01*
X24758504Y-39421496D01*
X24758277Y-39421344D01*
X24708722Y-39388232D01*
X24664824Y-39379500D01*
X24664820Y-39379500D01*
X22939500Y-39379500D01*
X22922529Y-39372471D01*
X22915500Y-39355500D01*
X22915500Y-39238323D01*
X22922529Y-39221352D01*
X25176352Y-36967529D01*
X25193323Y-36960500D01*
X26419829Y-36960500D01*
X26477885Y-36936451D01*
X26511897Y-36922364D01*
X26908529Y-36525729D01*
X26925500Y-36518701D01*
X26942471Y-36525730D01*
X26949500Y-36542701D01*
X26949500Y-37114820D01*
X26951985Y-37127313D01*
X26958232Y-37158722D01*
X26983949Y-37197209D01*
X26991496Y-37208504D01*
X27008165Y-37219642D01*
X27041277Y-37241767D01*
X27084015Y-37250268D01*
X27085180Y-37250500D01*
X27085184Y-37250500D01*
X28814816Y-37250500D01*
X28814820Y-37250500D01*
X28858722Y-37241767D01*
X28908504Y-37208504D01*
X28941767Y-37158722D01*
X28950500Y-37114820D01*
X28950500Y-35385180D01*
X28941767Y-35341278D01*
X28941767Y-35341277D01*
X28908505Y-35291498D01*
X28908504Y-35291496D01*
X28908277Y-35291344D01*
X28858722Y-35258232D01*
X28814824Y-35249500D01*
X28814820Y-35249500D01*
X27085180Y-35249500D01*
X27085175Y-35249500D01*
X27069182Y-35252682D01*
X27051166Y-35249098D01*
X27040961Y-35233825D01*
X27040500Y-35229143D01*
X27040500Y-33948483D01*
X27299500Y-33948483D01*
X27299500Y-34511515D01*
X27314354Y-34605306D01*
X27371947Y-34718338D01*
X27371948Y-34718339D01*
X27371950Y-34718342D01*
X27461658Y-34808050D01*
X27461660Y-34808051D01*
X27461661Y-34808052D01*
X27574693Y-34865645D01*
X27574694Y-34865645D01*
X27574696Y-34865646D01*
X27668481Y-34880500D01*
X28231518Y-34880499D01*
X28325304Y-34865646D01*
X28438342Y-34808050D01*
X28528050Y-34718342D01*
X28585646Y-34605304D01*
X28600500Y-34511519D01*
X28600499Y-33948482D01*
X28590670Y-33886424D01*
X28594959Y-33868565D01*
X28603478Y-33861289D01*
X28669338Y-33827733D01*
X28688337Y-33818053D01*
X28688337Y-33818052D01*
X28688342Y-33818050D01*
X28778050Y-33728342D01*
X28835646Y-33615304D01*
X28855492Y-33490000D01*
X28835646Y-33364696D01*
X28835645Y-33364694D01*
X28835645Y-33364693D01*
X28778052Y-33251661D01*
X28778051Y-33251660D01*
X28778050Y-33251658D01*
X28688342Y-33161950D01*
X28688339Y-33161948D01*
X28688338Y-33161947D01*
X28575306Y-33104354D01*
X28450000Y-33084508D01*
X28324693Y-33104354D01*
X28211661Y-33161947D01*
X28121947Y-33251661D01*
X28064354Y-33364693D01*
X28044508Y-33490000D01*
X28054286Y-33551746D01*
X28049997Y-33569607D01*
X28034335Y-33579205D01*
X28030581Y-33579500D01*
X27668484Y-33579500D01*
X27574693Y-33594354D01*
X27461661Y-33651947D01*
X27371947Y-33741661D01*
X27314354Y-33854693D01*
X27307868Y-33895645D01*
X27303416Y-33923760D01*
X27299500Y-33948483D01*
X27040500Y-33948483D01*
X27040500Y-33933701D01*
X27047528Y-33916731D01*
X28091895Y-32872364D01*
X28091897Y-32872364D01*
X28162364Y-32801897D01*
X28179512Y-32760499D01*
X28200501Y-32709828D01*
X28200501Y-32610172D01*
X28200501Y-32608244D01*
X28200500Y-32608230D01*
X28200500Y-32404499D01*
X28207529Y-32387528D01*
X28224500Y-32380499D01*
X28231515Y-32380499D01*
X28231518Y-32380499D01*
X28325304Y-32365646D01*
X28438342Y-32308050D01*
X28528050Y-32218342D01*
X28585646Y-32105304D01*
X28600500Y-32011519D01*
X28600499Y-31478345D01*
X28607527Y-31461376D01*
X29206605Y-30862298D01*
X29223575Y-30855270D01*
X29227328Y-30855565D01*
X29239367Y-30857472D01*
X29289997Y-30865492D01*
X29289998Y-30865492D01*
X29289998Y-30865491D01*
X29290000Y-30865492D01*
X29415304Y-30845646D01*
X29528342Y-30788050D01*
X29618050Y-30698342D01*
X29675646Y-30585304D01*
X29695492Y-30460000D01*
X29675646Y-30334696D01*
X29675645Y-30334694D01*
X29675645Y-30334693D01*
X29618052Y-30221661D01*
X29618051Y-30221660D01*
X29618050Y-30221658D01*
X29528342Y-30131950D01*
X29528339Y-30131948D01*
X29528338Y-30131947D01*
X29415306Y-30074354D01*
X29290000Y-30054508D01*
X29164693Y-30074354D01*
X29051661Y-30131947D01*
X29051658Y-30131949D01*
X29051658Y-30131950D01*
X28991469Y-30192138D01*
X28974500Y-30199167D01*
X28957529Y-30192138D01*
X28950500Y-30175167D01*
X28950500Y-29849500D01*
X28957529Y-29832529D01*
X28974500Y-29825500D01*
X29761018Y-29825500D01*
X29777989Y-29832529D01*
X29785018Y-29849500D01*
X29782402Y-29860396D01*
X29734354Y-29954693D01*
X29714508Y-30080000D01*
X29734354Y-30205306D01*
X29791947Y-30318338D01*
X29791948Y-30318339D01*
X29791950Y-30318342D01*
X29881658Y-30408050D01*
X29881660Y-30408051D01*
X29881661Y-30408052D01*
X29882769Y-30408617D01*
X29894697Y-30422586D01*
X29893254Y-30440898D01*
X29882769Y-30451383D01*
X29881661Y-30451947D01*
X29791947Y-30541661D01*
X29734354Y-30654693D01*
X29714508Y-30780000D01*
X29734354Y-30905306D01*
X29791947Y-31018338D01*
X29791948Y-31018339D01*
X29791950Y-31018342D01*
X29881658Y-31108050D01*
X29881660Y-31108051D01*
X29881661Y-31108052D01*
X29994693Y-31165645D01*
X29994694Y-31165645D01*
X29994696Y-31165646D01*
X30120000Y-31185492D01*
X30213088Y-31170748D01*
X30230949Y-31175037D01*
X30233813Y-31177482D01*
X30607695Y-31551364D01*
X30607708Y-31551379D01*
X30655141Y-31598811D01*
X30672500Y-31616170D01*
X30702222Y-31628481D01*
X30755381Y-31650501D01*
X30755382Y-31650501D01*
X30847881Y-31650501D01*
X30847889Y-31650500D01*
X30874119Y-31650500D01*
X30887450Y-31654543D01*
X30890778Y-31656767D01*
X30934680Y-31665500D01*
X30934684Y-31665500D01*
X31449316Y-31665500D01*
X31449320Y-31665500D01*
X31493222Y-31656767D01*
X31543004Y-31623504D01*
X31547707Y-31616464D01*
X31562977Y-31606259D01*
X31580993Y-31609840D01*
X31591200Y-31625112D01*
X31591367Y-31633551D01*
X31574508Y-31739999D01*
X31594354Y-31865306D01*
X31651947Y-31978338D01*
X31651948Y-31978339D01*
X31651950Y-31978342D01*
X31741658Y-32068050D01*
X31741660Y-32068051D01*
X31741661Y-32068052D01*
X31854693Y-32125645D01*
X31854694Y-32125645D01*
X31854696Y-32125646D01*
X31980000Y-32145492D01*
X32105304Y-32125646D01*
X32218342Y-32068050D01*
X32308050Y-31978342D01*
X32308054Y-31978334D01*
X32309160Y-31976813D01*
X32309623Y-31977149D01*
X32321877Y-31966677D01*
X32329300Y-31965500D01*
X32330223Y-31965500D01*
X32330231Y-31965501D01*
X32333021Y-31965501D01*
X32422732Y-31965501D01*
X32477563Y-31942788D01*
X32488094Y-31938426D01*
X32505612Y-31931170D01*
X32569046Y-31867736D01*
X32569046Y-31867734D01*
X32572422Y-31864358D01*
X32764253Y-31672529D01*
X32781223Y-31665500D01*
X33264316Y-31665500D01*
X33264320Y-31665500D01*
X33308222Y-31656767D01*
X33358004Y-31623504D01*
X33391267Y-31573722D01*
X33400000Y-31529820D01*
X33400000Y-31320180D01*
X33391267Y-31276278D01*
X33382616Y-31263331D01*
X33379033Y-31245319D01*
X33382614Y-31236670D01*
X33391267Y-31223722D01*
X33400000Y-31179820D01*
X33400000Y-30970180D01*
X33391267Y-30926278D01*
X33391267Y-30926277D01*
X33358005Y-30876498D01*
X33358004Y-30876496D01*
X33358000Y-30876493D01*
X33357999Y-30876492D01*
X33308221Y-30843232D01*
X33308222Y-30843232D01*
X33305317Y-30842655D01*
X33290045Y-30832449D01*
X33286000Y-30819116D01*
X33286000Y-30570183D01*
X33285999Y-30570175D01*
X33277267Y-30526277D01*
X33244005Y-30476498D01*
X33244004Y-30476496D01*
X33240071Y-30473868D01*
X33194222Y-30443232D01*
X33150324Y-30434500D01*
X33150320Y-30434500D01*
X32931348Y-30434500D01*
X32914378Y-30427471D01*
X32875736Y-30388830D01*
X32875737Y-30388830D01*
X32851460Y-30378774D01*
X32792856Y-30354499D01*
X32792855Y-30354499D01*
X32703145Y-30354499D01*
X32700355Y-30354499D01*
X32700347Y-30354500D01*
X31483348Y-30354500D01*
X31466377Y-30347471D01*
X30591170Y-29472265D01*
X30591170Y-29472264D01*
X30527736Y-29408830D01*
X30527734Y-29408829D01*
X30527733Y-29408828D01*
X30493152Y-29394505D01*
X30444856Y-29374499D01*
X30444855Y-29374499D01*
X30355145Y-29374499D01*
X30352355Y-29374499D01*
X30352347Y-29374500D01*
X28974500Y-29374500D01*
X28957529Y-29367471D01*
X28950500Y-29350500D01*
X28950500Y-28885183D01*
X28950499Y-28885175D01*
X28941767Y-28841277D01*
X28908505Y-28791498D01*
X28908504Y-28791496D01*
X28891516Y-28780145D01*
X28858722Y-28758232D01*
X28814824Y-28749500D01*
X28814820Y-28749500D01*
X27085180Y-28749500D01*
X27085173Y-28749500D01*
X27064181Y-28753676D01*
X27046166Y-28750092D01*
X27035961Y-28734818D01*
X27035500Y-28730137D01*
X27035500Y-28697653D01*
X27035501Y-28697644D01*
X27035501Y-28605145D01*
X27001170Y-28522265D01*
X27001170Y-28522264D01*
X27001169Y-28522263D01*
X26936379Y-28457472D01*
X26936364Y-28457459D01*
X26707528Y-28228623D01*
X26700499Y-28211652D01*
X26700499Y-27308484D01*
X26690396Y-27244689D01*
X26685646Y-27214696D01*
X26685645Y-27214694D01*
X26685645Y-27214693D01*
X26628052Y-27101661D01*
X26628051Y-27101660D01*
X26628050Y-27101658D01*
X26567861Y-27041469D01*
X26560833Y-27024500D01*
X26567862Y-27007529D01*
X26584833Y-27000500D01*
X27315167Y-27000500D01*
X27332138Y-27007529D01*
X27339167Y-27024500D01*
X27332138Y-27041469D01*
X27271950Y-27101658D01*
X27271947Y-27101661D01*
X27214354Y-27214693D01*
X27199500Y-27308483D01*
X27199500Y-28271515D01*
X27214354Y-28365306D01*
X27271947Y-28478338D01*
X27271948Y-28478339D01*
X27271950Y-28478342D01*
X27361658Y-28568050D01*
X27361660Y-28568051D01*
X27361661Y-28568052D01*
X27474693Y-28625645D01*
X27474694Y-28625645D01*
X27474696Y-28625646D01*
X27568481Y-28640500D01*
X28331518Y-28640499D01*
X28425304Y-28625646D01*
X28538342Y-28568050D01*
X28628050Y-28478342D01*
X28685646Y-28365304D01*
X28700500Y-28271519D01*
X28700500Y-28049500D01*
X28707529Y-28032529D01*
X28724500Y-28025500D01*
X30425501Y-28025500D01*
X30442472Y-28032529D01*
X30449501Y-28049500D01*
X30449501Y-28068032D01*
X30449502Y-28068038D01*
X30463891Y-28158895D01*
X30519686Y-28268399D01*
X30519687Y-28268400D01*
X30519689Y-28268403D01*
X30606597Y-28355311D01*
X30606599Y-28355312D01*
X30606600Y-28355313D01*
X30716104Y-28411108D01*
X30716105Y-28411108D01*
X30716107Y-28411109D01*
X30806967Y-28425500D01*
X31443032Y-28425499D01*
X31533893Y-28411109D01*
X31643403Y-28355311D01*
X31730311Y-28268403D01*
X31786109Y-28158893D01*
X31800500Y-28068033D01*
X31800499Y-27531968D01*
X31786109Y-27441107D01*
X31786108Y-27441105D01*
X31786108Y-27441104D01*
X31730313Y-27331600D01*
X31730312Y-27331599D01*
X31730311Y-27331597D01*
X31643403Y-27244689D01*
X31643400Y-27244687D01*
X31643399Y-27244686D01*
X31533895Y-27188891D01*
X31497549Y-27183134D01*
X31443033Y-27174500D01*
X31443030Y-27174500D01*
X30806970Y-27174500D01*
X30716104Y-27188891D01*
X30606600Y-27244686D01*
X30519686Y-27331600D01*
X30463891Y-27441104D01*
X30449500Y-27531969D01*
X30449500Y-27550500D01*
X30442471Y-27567471D01*
X30425500Y-27574500D01*
X28724499Y-27574500D01*
X28707528Y-27567471D01*
X28700499Y-27550500D01*
X28700499Y-27308484D01*
X28690396Y-27244689D01*
X28685646Y-27214696D01*
X28685645Y-27214694D01*
X28685645Y-27214693D01*
X28628052Y-27101661D01*
X28628051Y-27101660D01*
X28628050Y-27101658D01*
X28567861Y-27041469D01*
X28560833Y-27024500D01*
X28567862Y-27007529D01*
X28584833Y-27000500D01*
X55575500Y-27000500D01*
X55592471Y-27007529D01*
X55599500Y-27024500D01*
X55599500Y-42975500D01*
X55592471Y-42992471D01*
X55575500Y-42999500D01*
X14424500Y-42999500D01*
X14407529Y-42992471D01*
X14400500Y-42975500D01*
X14400500Y-27024500D01*
X14407529Y-27007529D01*
X14424500Y-27000500D01*
X25315167Y-27000500D01*
X25332138Y-27007529D01*
G37*
G04 #@! TD.AperFunction*
G04 #@! TA.AperFunction,Conductor*
G36*
X27305315Y-32077529D02*
G01*
X27312048Y-32090744D01*
X27313547Y-32100210D01*
X27314354Y-32105306D01*
X27371947Y-32218338D01*
X27371948Y-32218339D01*
X27371950Y-32218342D01*
X27461658Y-32308050D01*
X27461660Y-32308051D01*
X27461661Y-32308052D01*
X27574693Y-32365645D01*
X27574694Y-32365645D01*
X27574696Y-32365646D01*
X27668481Y-32380500D01*
X27675498Y-32380499D01*
X27692468Y-32387526D01*
X27699500Y-32404496D01*
X27699500Y-32546297D01*
X27692471Y-32563267D01*
X26648103Y-33607635D01*
X26648103Y-33607636D01*
X26648102Y-33607635D01*
X26577634Y-33678104D01*
X26539500Y-33770170D01*
X26539500Y-35142666D01*
X26532471Y-35159637D01*
X26515500Y-35166666D01*
X26498529Y-35159637D01*
X26494116Y-35153562D01*
X26488052Y-35141661D01*
X26488051Y-35141660D01*
X26488050Y-35141658D01*
X26398342Y-35051950D01*
X26398339Y-35051948D01*
X26398338Y-35051947D01*
X26285306Y-34994354D01*
X26247790Y-34988412D01*
X26191519Y-34979500D01*
X26191516Y-34979500D01*
X25228484Y-34979500D01*
X25134693Y-34994354D01*
X25021661Y-35051947D01*
X24931947Y-35141661D01*
X24874354Y-35254693D01*
X24859500Y-35348483D01*
X24859500Y-36111515D01*
X24863067Y-36134035D01*
X24858778Y-36151896D01*
X24856333Y-36154760D01*
X23374309Y-37636785D01*
X22362265Y-38648829D01*
X22362264Y-38648830D01*
X22212264Y-38798830D01*
X22212264Y-38798831D01*
X22212263Y-38798830D01*
X22148829Y-38862265D01*
X22141177Y-38880741D01*
X22139473Y-38884855D01*
X22117869Y-38937012D01*
X22114499Y-38945147D01*
X22114500Y-38991240D01*
X22114500Y-39266653D01*
X22107471Y-39283624D01*
X22107470Y-39283624D01*
X22072305Y-39318788D01*
X22055335Y-39325817D01*
X22038364Y-39318787D01*
X22031335Y-39301817D01*
X22035380Y-39288483D01*
X22043324Y-39276595D01*
X22052417Y-39262986D01*
X22065500Y-39197211D01*
X22065499Y-39002790D01*
X22052417Y-38937014D01*
X22003184Y-38863332D01*
X21999601Y-38845318D01*
X22003192Y-38836655D01*
X22003530Y-38836149D01*
X22018811Y-38825958D01*
X22023474Y-38825501D01*
X22054856Y-38825501D01*
X22128139Y-38795145D01*
X22128141Y-38795144D01*
X22137736Y-38791170D01*
X22201170Y-38727736D01*
X22201170Y-38727734D01*
X22267734Y-38661170D01*
X22267736Y-38661170D01*
X22331170Y-38597736D01*
X22354986Y-38540238D01*
X22365501Y-38514854D01*
X22365501Y-38425145D01*
X22365501Y-38423217D01*
X22365500Y-38423203D01*
X22365500Y-37780145D01*
X22331171Y-37697267D01*
X22331170Y-37697266D01*
X22331170Y-37697265D01*
X22304630Y-37670725D01*
X22297602Y-37653756D01*
X22304630Y-37636786D01*
X25175542Y-34765873D01*
X25192512Y-34758845D01*
X25209481Y-34765873D01*
X25241658Y-34798050D01*
X25241660Y-34798051D01*
X25241661Y-34798052D01*
X25354693Y-34855645D01*
X25354694Y-34855645D01*
X25354696Y-34855646D01*
X25480000Y-34875492D01*
X25605304Y-34855646D01*
X25718342Y-34798050D01*
X25808050Y-34708342D01*
X25865646Y-34595304D01*
X25881653Y-34494231D01*
X25891251Y-34478571D01*
X25909108Y-34474282D01*
X25944185Y-34479839D01*
X25966721Y-34483409D01*
X25966722Y-34483409D01*
X25966723Y-34483408D01*
X25966724Y-34483409D01*
X26092028Y-34463563D01*
X26205066Y-34405967D01*
X26294774Y-34316259D01*
X26352370Y-34203221D01*
X26372216Y-34077917D01*
X26352370Y-33952613D01*
X26352369Y-33952611D01*
X26352369Y-33952610D01*
X26294776Y-33839578D01*
X26294775Y-33839577D01*
X26294774Y-33839575D01*
X26205066Y-33749867D01*
X26205063Y-33749865D01*
X26205062Y-33749864D01*
X26092030Y-33692271D01*
X25966724Y-33672425D01*
X25841417Y-33692271D01*
X25728382Y-33749865D01*
X25728382Y-33749866D01*
X25715777Y-33762471D01*
X25698807Y-33769500D01*
X25250901Y-33769500D01*
X25250893Y-33769499D01*
X25248103Y-33769499D01*
X25158393Y-33769499D01*
X25158392Y-33769499D01*
X25099786Y-33793773D01*
X25099787Y-33793774D01*
X25075511Y-33803830D01*
X25012077Y-33867263D01*
X25012078Y-33867264D01*
X25012077Y-33867265D01*
X22092486Y-36786855D01*
X22075515Y-36793884D01*
X22058544Y-36786855D01*
X22051515Y-36769884D01*
X22051976Y-36765202D01*
X22052417Y-36762985D01*
X22064691Y-36701273D01*
X22071257Y-36688990D01*
X22331170Y-36429080D01*
X22342408Y-36401950D01*
X22365500Y-36346199D01*
X22365500Y-36212967D01*
X22372529Y-36195996D01*
X23713221Y-34855304D01*
X25058419Y-33510105D01*
X25075389Y-33503077D01*
X25086283Y-33505692D01*
X25119819Y-33522780D01*
X25164693Y-33545645D01*
X25164694Y-33545645D01*
X25164696Y-33545646D01*
X25258481Y-33560500D01*
X26221518Y-33560499D01*
X26315304Y-33545646D01*
X26336795Y-33534696D01*
X26428338Y-33488052D01*
X26428337Y-33488052D01*
X26428342Y-33488050D01*
X26518050Y-33398342D01*
X26575646Y-33285304D01*
X26590500Y-33191519D01*
X26590499Y-32428482D01*
X26575646Y-32334696D01*
X26575645Y-32334694D01*
X26575645Y-32334693D01*
X26518052Y-32221661D01*
X26518051Y-32221660D01*
X26518050Y-32221658D01*
X26428342Y-32131950D01*
X26428339Y-32131948D01*
X26428338Y-32131947D01*
X26396812Y-32115884D01*
X26384883Y-32101916D01*
X26386324Y-32083604D01*
X26400292Y-32071675D01*
X26407708Y-32070500D01*
X27288344Y-32070500D01*
X27305315Y-32077529D01*
G37*
G04 #@! TD.AperFunction*
G04 #@! TD*
M02*
