G04 #@! TF.GenerationSoftware,KiCad,Pcbnew,8.0.7*
G04 #@! TF.CreationDate,2025-01-11T17:18:14-05:00*
G04 #@! TF.ProjectId,panel,70616e65-6c2e-46b6-9963-61645f706362,rev?*
G04 #@! TF.SameCoordinates,Original*
G04 #@! TF.FileFunction,Copper,L2,Bot*
G04 #@! TF.FilePolarity,Positive*
%FSLAX46Y46*%
G04 Gerber Fmt 4.6, Leading zero omitted, Abs format (unit mm)*
G04 Created by KiCad (PCBNEW 8.0.7) date 2025-01-11 17:18:14*
%MOMM*%
%LPD*%
G01*
G04 APERTURE LIST*
G04 Aperture macros list*
%AMFreePoly0*
4,1,5,12.500000,-1.000000,-12.500000,-1.000000,-12.500000,1.000000,12.500000,1.000000,12.500000,-1.000000,12.500000,-1.000000,$1*%
G04 Aperture macros list end*
G04 #@! TA.AperFunction,ComponentPad*
%ADD10R,1.700000X1.700000*%
G04 #@! TD*
G04 #@! TA.AperFunction,ComponentPad*
%ADD11O,1.700000X1.700000*%
G04 #@! TD*
G04 #@! TA.AperFunction,ComponentPad*
%ADD12O,2.100000X1.000000*%
G04 #@! TD*
G04 #@! TA.AperFunction,ComponentPad*
%ADD13O,1.800000X1.000000*%
G04 #@! TD*
G04 #@! TA.AperFunction,SMDPad,CuDef*
%ADD14R,3.000000X3.000000*%
G04 #@! TD*
G04 #@! TA.AperFunction,SMDPad,CuDef*
%ADD15FreePoly0,180.000000*%
G04 #@! TD*
G04 #@! TA.AperFunction,SMDPad,CuDef*
%ADD16C,1.000000*%
G04 #@! TD*
G04 #@! TA.AperFunction,ViaPad*
%ADD17C,0.450000*%
G04 #@! TD*
G04 #@! TA.AperFunction,ViaPad*
%ADD18C,0.600000*%
G04 #@! TD*
G04 #@! TA.AperFunction,Conductor*
%ADD19C,0.150000*%
G04 #@! TD*
G04 #@! TA.AperFunction,Conductor*
%ADD20C,0.200000*%
G04 #@! TD*
G04 APERTURE END LIST*
D10*
G04 #@! TO.P,J3,1,Pin_1*
G04 #@! TO.N,Board_0-/D+*
X51100000Y-31975000D03*
D11*
G04 #@! TO.P,J3,2,Pin_2*
G04 #@! TO.N,Board_0-/D-*
X51100000Y-34515000D03*
G04 #@! TD*
D10*
G04 #@! TO.P,J4,1,Pin_1*
G04 #@! TO.N,Board_0-/AUX1 (VDC)*
X15900000Y-40300000D03*
D11*
G04 #@! TO.P,J4,2,Pin_2*
G04 #@! TO.N,Board_0-/AUX2 (VDC)*
X18440000Y-40300000D03*
G04 #@! TO.P,J4,3,Pin_3*
G04 #@! TO.N,Board_0-/AUX3*
X20980000Y-40300000D03*
G04 #@! TO.P,J4,4,Pin_4*
G04 #@! TO.N,Board_0-/AUX4*
X23520000Y-40300000D03*
G04 #@! TO.P,J4,5,Pin_5*
G04 #@! TO.N,Board_0-/AUX5 (VDC)*
X26060000Y-40300000D03*
G04 #@! TO.P,J4,6,Pin_6*
G04 #@! TO.N,Board_0-/AUX6 (VDC)*
X28600000Y-40300000D03*
G04 #@! TO.P,J4,7,Pin_7*
G04 #@! TO.N,Board_0-/AUX7 (VDC)*
X31140000Y-40300000D03*
G04 #@! TO.P,J4,8,Pin_8*
G04 #@! TO.N,Board_0-/AUX8 (VDC)*
X33680000Y-40300000D03*
G04 #@! TO.P,J4,9,Pin_9*
G04 #@! TO.N,Board_0-/AUX10*
X36220000Y-40300000D03*
G04 #@! TO.P,J4,10,Pin_10*
G04 #@! TO.N,Board_0-/AUX11*
X38760000Y-40300000D03*
G04 #@! TO.P,J4,11,Pin_11*
G04 #@! TO.N,Board_0-/AUX12*
X41300000Y-40300000D03*
G04 #@! TO.P,J4,12,Pin_12*
G04 #@! TO.N,Board_0-/CAP+*
X43840000Y-40300000D03*
G04 #@! TO.P,J4,13,Pin_13*
G04 #@! TO.N,Board_0-/MOTOR_A*
X46380000Y-40300000D03*
G04 #@! TO.P,J4,14,Pin_14*
G04 #@! TO.N,Board_0-/MOTOR_B*
X48920000Y-40300000D03*
G04 #@! TO.P,J4,15,Pin_15*
G04 #@! TO.N,Board_0-VDC*
X51460000Y-40300000D03*
G04 #@! TO.P,J4,16,Pin_16*
G04 #@! TO.N,Board_0-GND*
X54000000Y-40300000D03*
G04 #@! TD*
D10*
G04 #@! TO.P,J2,1,Pin_1*
G04 #@! TO.N,Board_0-/AUX11*
X54050000Y-35450000D03*
D11*
G04 #@! TO.P,J2,2,Pin_2*
G04 #@! TO.N,Board_0-GND*
X54050000Y-32910000D03*
G04 #@! TO.P,J2,3,Pin_3*
G04 #@! TO.N,Board_0-/AUX12*
X54050000Y-30370000D03*
G04 #@! TD*
D12*
G04 #@! TO.P,P1,S1,SHIELD*
G04 #@! TO.N,Board_0-GND*
X20755000Y-28680000D03*
D13*
X16575000Y-28680000D03*
D12*
X20755000Y-37320000D03*
D13*
X16575000Y-37320000D03*
G04 #@! TD*
D14*
G04 #@! TO.P,TP1,1,1*
G04 #@! TO.N,Board_0-VCC*
X17900000Y-33000000D03*
G04 #@! TD*
D10*
G04 #@! TO.P,J8,1,Pin_1*
G04 #@! TO.N,Board_0-/TRACK_LEFT*
X48650000Y-29750000D03*
D15*
X37000000Y-28000000D03*
D10*
X25350000Y-29750000D03*
G04 #@! TO.P,J8,2,Pin_2*
G04 #@! TO.N,Board_0-/TRACK_RIGHT*
X48650000Y-36250000D03*
D15*
X37000000Y-38000000D03*
D10*
X25350000Y-36250000D03*
G04 #@! TD*
D16*
G04 #@! TO.P,KiKit_FID_B_2,*
G04 #@! TO.N,*
X60000000Y-3850000D03*
G04 #@! TD*
G04 #@! TO.P,KiKit_FID_B_3,*
G04 #@! TO.N,*
X10000000Y-66150000D03*
G04 #@! TD*
G04 #@! TO.P,KiKit_FID_B_4,*
G04 #@! TO.N,*
X60000000Y-66150000D03*
G04 #@! TD*
G04 #@! TO.P,KiKit_FID_B_1,*
G04 #@! TO.N,*
X10000000Y-3850000D03*
G04 #@! TD*
D17*
G04 #@! TO.N,Board_0-+5V*
X22550000Y-30600000D03*
X45650000Y-30300000D03*
G04 #@! TO.N,Board_0-/AUX1 (VDC)*
X31600000Y-34750000D03*
G04 #@! TO.N,Board_0-/AUX11*
X29500000Y-30330000D03*
G04 #@! TO.N,Board_0-/AUX12*
X27946498Y-30740000D03*
X52600000Y-38450000D03*
G04 #@! TO.N,Board_0-/AUX2 (VDC)*
X31098447Y-35217235D03*
G04 #@! TO.N,Board_0-/CAP+*
X31500000Y-33350000D03*
X43775114Y-36451262D03*
D18*
G04 #@! TO.N,Board_0-/D+*
X20150000Y-33250000D03*
D17*
X31075000Y-30575000D03*
G04 #@! TO.N,Board_0-/D-*
X29800000Y-31450000D03*
D18*
X22400000Y-32750000D03*
D17*
G04 #@! TO.N,Board_0-/MOTOR_A*
X44400106Y-36447755D03*
X30900000Y-33000000D03*
G04 #@! TO.N,Board_0-/MOTOR_B*
X45025038Y-36457117D03*
X30900000Y-32300000D03*
G04 #@! TO.N,Board_0-/TRACK_RIGHT*
X28700000Y-35700000D03*
X30500000Y-35700000D03*
G04 #@! TO.N,Board_0-GND*
X45650000Y-29550000D03*
D18*
X46480000Y-31675000D03*
D17*
X29650000Y-36200000D03*
D18*
X22300000Y-29700000D03*
D17*
X31518981Y-31050000D03*
D18*
X22300000Y-36300000D03*
D17*
X27350000Y-31100000D03*
G04 #@! TO.N,Board_0-VCC*
X29250000Y-33300000D03*
G04 #@! TO.N,Board_0-VDC*
X26000000Y-33450000D03*
X45650000Y-36450000D03*
X27850000Y-33450000D03*
G04 #@! TD*
D19*
G04 #@! TO.N,Board_0-+5V*
X44524264Y-29400000D02*
X45424264Y-30300000D01*
X26825000Y-30825000D02*
X28250000Y-29400000D01*
X22775000Y-30825000D02*
X26825000Y-30825000D01*
X28250000Y-29400000D02*
X44524264Y-29400000D01*
X45424264Y-30300000D02*
X45650000Y-30300000D01*
X22550000Y-30600000D02*
X22775000Y-30825000D01*
G04 #@! TO.N,Board_0-/AUX1 (VDC)*
X22825000Y-36825305D02*
X21605305Y-38045000D01*
X21605305Y-38045000D02*
X18155000Y-38045000D01*
X31600000Y-34750000D02*
X31450000Y-34600000D01*
X18155000Y-38045000D02*
X15900000Y-40300000D01*
X31450000Y-34600000D02*
X23750000Y-34600000D01*
X22825000Y-35525000D02*
X22825000Y-36825305D01*
X23750000Y-34600000D02*
X22825000Y-35525000D01*
G04 #@! TO.N,Board_0-/AUX11*
X52925000Y-40975000D02*
X52225000Y-41675000D01*
X52050000Y-30800000D02*
X52700000Y-31450000D01*
X54100000Y-35500000D02*
X54100000Y-38679720D01*
X50174264Y-30800000D02*
X52050000Y-30800000D01*
X54100000Y-38679720D02*
X52925000Y-39854720D01*
X52925000Y-39854720D02*
X52925000Y-40975000D01*
X29500000Y-30330000D02*
X29830000Y-30000000D01*
X40135000Y-41675000D02*
X38760000Y-40300000D01*
X52700000Y-31450000D02*
X52700000Y-34100000D01*
X45403984Y-31150000D02*
X49824264Y-31150000D01*
X52225000Y-41675000D02*
X40135000Y-41675000D01*
X52700000Y-34100000D02*
X54100000Y-35500000D01*
X44253984Y-30000000D02*
X45403984Y-31150000D01*
X49824264Y-31150000D02*
X50174264Y-30800000D01*
X29830000Y-30000000D02*
X44253984Y-30000000D01*
G04 #@! TO.N,Board_0-/AUX12*
X54050000Y-30370000D02*
X54030000Y-30350000D01*
X54030000Y-30350000D02*
X50200000Y-30350000D01*
X28986498Y-29700000D02*
X27946498Y-30740000D01*
X52600000Y-40850000D02*
X52075000Y-41375000D01*
X49725000Y-30825000D02*
X45503248Y-30825000D01*
X52075000Y-41375000D02*
X42375000Y-41375000D01*
X50200000Y-30350000D02*
X49725000Y-30825000D01*
X52600000Y-38450000D02*
X52600000Y-40850000D01*
X45503248Y-30825000D02*
X44378248Y-29700000D01*
X44378248Y-29700000D02*
X28986498Y-29700000D01*
X42375000Y-41375000D02*
X41300000Y-40300000D01*
G04 #@! TO.N,Board_0-/AUX2 (VDC)*
X31098447Y-35198447D02*
X30850000Y-34950000D01*
X23150000Y-35650000D02*
X23150000Y-36924569D01*
X31098447Y-35217235D02*
X31098447Y-35198447D01*
X23850000Y-34950000D02*
X23150000Y-35650000D01*
X19590000Y-39150000D02*
X18440000Y-40300000D01*
X30850000Y-34950000D02*
X23850000Y-34950000D01*
X23150000Y-36924569D02*
X20924569Y-39150000D01*
X20924569Y-39150000D02*
X19590000Y-39150000D01*
G04 #@! TO.N,Board_0-/CAP+*
X31725000Y-33125000D02*
X40960786Y-33125000D01*
X43775114Y-35939328D02*
X43775114Y-36451262D01*
X40960786Y-33125000D02*
X43775114Y-35939328D01*
X31500000Y-33350000D02*
X31725000Y-33125000D01*
G04 #@! TO.N,Board_0-/D+*
X45174264Y-32200000D02*
X50875000Y-32200000D01*
X28900000Y-31600000D02*
X21800000Y-31600000D01*
X31075000Y-30575000D02*
X31070000Y-30570000D01*
X31715733Y-30575000D02*
X32365733Y-31225000D01*
X44199264Y-31225000D02*
X45174264Y-32200000D01*
X31075000Y-30575000D02*
X31715733Y-30575000D01*
X21800000Y-31600000D02*
X20150000Y-33250000D01*
X32365733Y-31225000D02*
X44199264Y-31225000D01*
X31070000Y-30570000D02*
X29931752Y-30570000D01*
X50875000Y-32200000D02*
X51100000Y-31975000D01*
X29931752Y-30570000D02*
X29696752Y-30805000D01*
X29695000Y-30805000D02*
X28900000Y-31600000D01*
X29696752Y-30805000D02*
X29695000Y-30805000D01*
G04 #@! TO.N,Board_0-/D-*
X29350000Y-31900000D02*
X29800000Y-31450000D01*
X44075000Y-31525000D02*
X47065000Y-34515000D01*
X29800000Y-31450000D02*
X29875000Y-31525000D01*
X29875000Y-31525000D02*
X44075000Y-31525000D01*
X23250000Y-31900000D02*
X29350000Y-31900000D01*
X47065000Y-34515000D02*
X51100000Y-34515000D01*
X22400000Y-32750000D02*
X23250000Y-31900000D01*
D20*
G04 #@! TO.N,Board_0-/MOTOR_A*
X41095406Y-32800000D02*
X44400106Y-36104700D01*
X31100000Y-32800000D02*
X41095406Y-32800000D01*
X30900000Y-33000000D02*
X31100000Y-32800000D01*
X44400106Y-36104700D02*
X44400106Y-36447755D01*
G04 #@! TO.N,Board_0-/MOTOR_B*
X30900000Y-32300000D02*
X31050000Y-32450000D01*
X41240380Y-32450000D02*
X45025038Y-36234658D01*
X45025038Y-36234658D02*
X45025038Y-36457117D01*
X31050000Y-32450000D02*
X41240380Y-32450000D01*
D19*
G04 #@! TO.N,Board_0-/TRACK_RIGHT*
X26200000Y-35700000D02*
X25650000Y-36250000D01*
X28875000Y-35525000D02*
X28700000Y-35700000D01*
X30325000Y-35525000D02*
X28875000Y-35525000D01*
X28700000Y-35700000D02*
X26200000Y-35700000D01*
X30500000Y-35700000D02*
X30325000Y-35525000D01*
G04 #@! TO.N,Board_0-VCC*
X29250000Y-33300000D02*
X28950000Y-33300000D01*
X28950000Y-33300000D02*
X28000000Y-34250000D01*
X19150000Y-34250000D02*
X17900000Y-33000000D01*
X28000000Y-34250000D02*
X19150000Y-34250000D01*
G04 #@! TO.N,Board_0-VDC*
X27850000Y-33450000D02*
X26000000Y-33450000D01*
X27850000Y-33450000D02*
X27850000Y-33400000D01*
X28750000Y-32500000D02*
X30000000Y-32500000D01*
X31396752Y-32125000D02*
X41375000Y-32125000D01*
X30000000Y-32500000D02*
X30675000Y-31825000D01*
X27850000Y-33400000D02*
X28750000Y-32500000D01*
X31096752Y-31825000D02*
X31396752Y-32125000D01*
X45650000Y-36400000D02*
X45650000Y-36450000D01*
X41375000Y-32125000D02*
X45650000Y-36400000D01*
X30675000Y-31825000D02*
X31096752Y-31825000D01*
G04 #@! TD*
G04 #@! TA.AperFunction,Conductor*
G04 #@! TO.N,Board_0-GND*
G36*
X24337471Y-27007529D02*
G01*
X24344500Y-27024500D01*
X24344500Y-28999999D01*
X24348682Y-29015608D01*
X24349500Y-29021819D01*
X24349500Y-30575500D01*
X24342471Y-30592471D01*
X24325500Y-30599500D01*
X22975911Y-30599500D01*
X22958940Y-30592471D01*
X22952206Y-30579254D01*
X22935646Y-30474696D01*
X22935645Y-30474694D01*
X22935645Y-30474693D01*
X22878052Y-30361661D01*
X22878051Y-30361660D01*
X22878050Y-30361658D01*
X22788342Y-30271950D01*
X22788339Y-30271948D01*
X22788338Y-30271947D01*
X22675306Y-30214354D01*
X22550000Y-30194508D01*
X22424693Y-30214354D01*
X22311661Y-30271947D01*
X22221947Y-30361661D01*
X22164354Y-30474693D01*
X22144508Y-30600000D01*
X22164354Y-30725306D01*
X22221947Y-30838338D01*
X22221948Y-30838339D01*
X22221950Y-30838342D01*
X22311658Y-30928050D01*
X22311660Y-30928051D01*
X22311661Y-30928052D01*
X22424693Y-30985645D01*
X22424694Y-30985645D01*
X22424696Y-30985646D01*
X22550000Y-31005492D01*
X22612669Y-30995566D01*
X22630530Y-30999855D01*
X22633393Y-31002300D01*
X22647263Y-31016169D01*
X22647264Y-31016170D01*
X22661979Y-31022265D01*
X22730144Y-31050501D01*
X22730145Y-31050501D01*
X22822645Y-31050501D01*
X22822653Y-31050500D01*
X26777347Y-31050500D01*
X26777355Y-31050501D01*
X26780145Y-31050501D01*
X26869856Y-31050501D01*
X26912837Y-31032696D01*
X26938021Y-31022265D01*
X26952736Y-31016170D01*
X27016170Y-30952736D01*
X27016170Y-30952734D01*
X28336377Y-29632529D01*
X28353348Y-29625500D01*
X28684151Y-29625500D01*
X28701122Y-29632529D01*
X28708151Y-29649500D01*
X28701122Y-29666471D01*
X28029892Y-30337699D01*
X28012921Y-30344728D01*
X28009167Y-30344433D01*
X27946498Y-30334508D01*
X27821191Y-30354354D01*
X27708159Y-30411947D01*
X27618445Y-30501661D01*
X27560852Y-30614693D01*
X27541006Y-30740000D01*
X27560852Y-30865306D01*
X27618445Y-30978338D01*
X27618446Y-30978339D01*
X27618448Y-30978342D01*
X27708156Y-31068050D01*
X27708158Y-31068051D01*
X27708159Y-31068052D01*
X27821191Y-31125645D01*
X27821192Y-31125645D01*
X27821194Y-31125646D01*
X27946498Y-31145492D01*
X28071802Y-31125646D01*
X28184840Y-31068050D01*
X28274548Y-30978342D01*
X28332144Y-30865304D01*
X28351990Y-30740000D01*
X28349662Y-30725304D01*
X28342064Y-30677330D01*
X28346351Y-30659468D01*
X28348791Y-30656610D01*
X29072874Y-29932529D01*
X29089845Y-29925500D01*
X29311731Y-29925500D01*
X29328702Y-29932529D01*
X29335731Y-29949500D01*
X29328702Y-29966471D01*
X29322627Y-29970884D01*
X29261661Y-30001947D01*
X29171947Y-30091661D01*
X29114354Y-30204693D01*
X29094508Y-30330000D01*
X29114354Y-30455306D01*
X29171947Y-30568338D01*
X29171948Y-30568339D01*
X29171950Y-30568342D01*
X29261658Y-30658050D01*
X29261660Y-30658051D01*
X29261661Y-30658052D01*
X29374693Y-30715645D01*
X29374694Y-30715645D01*
X29374696Y-30715646D01*
X29406515Y-30720685D01*
X29422177Y-30730283D01*
X29426466Y-30748144D01*
X29419732Y-30761361D01*
X28813624Y-31367471D01*
X28796653Y-31374500D01*
X21755144Y-31374500D01*
X21672266Y-31408828D01*
X20276495Y-32804598D01*
X20259524Y-32811627D01*
X20252763Y-32810655D01*
X20214772Y-32799500D01*
X20085228Y-32799500D01*
X20033573Y-32814667D01*
X19960933Y-32835995D01*
X19960926Y-32835998D01*
X19851950Y-32906033D01*
X19851948Y-32906034D01*
X19767118Y-33003936D01*
X19719214Y-33108830D01*
X19713303Y-33121774D01*
X19694867Y-33250000D01*
X19713303Y-33378226D01*
X19757637Y-33475303D01*
X19767118Y-33496063D01*
X19851948Y-33593965D01*
X19851950Y-33593966D01*
X19851951Y-33593967D01*
X19960931Y-33664004D01*
X20085228Y-33700500D01*
X20085230Y-33700500D01*
X20214770Y-33700500D01*
X20214772Y-33700500D01*
X20339069Y-33664004D01*
X20448049Y-33593967D01*
X20452927Y-33588338D01*
X20465928Y-33573332D01*
X20532882Y-33496063D01*
X20586697Y-33378226D01*
X20605133Y-33250000D01*
X20589717Y-33142785D01*
X20594260Y-33124990D01*
X20596495Y-33122408D01*
X21886377Y-31832529D01*
X21903348Y-31825500D01*
X22947653Y-31825500D01*
X22964624Y-31832529D01*
X22971653Y-31849500D01*
X22964624Y-31866471D01*
X22526495Y-32304598D01*
X22509524Y-32311627D01*
X22502763Y-32310655D01*
X22464772Y-32299500D01*
X22335228Y-32299500D01*
X22283573Y-32314667D01*
X22210933Y-32335995D01*
X22210926Y-32335998D01*
X22101950Y-32406033D01*
X22101948Y-32406034D01*
X22017118Y-32503936D01*
X21963304Y-32621771D01*
X21963303Y-32621774D01*
X21944867Y-32750000D01*
X21963303Y-32878226D01*
X21963304Y-32878228D01*
X22017118Y-32996063D01*
X22101948Y-33093965D01*
X22101950Y-33093966D01*
X22101951Y-33093967D01*
X22210931Y-33164004D01*
X22335228Y-33200500D01*
X22335230Y-33200500D01*
X22464770Y-33200500D01*
X22464772Y-33200500D01*
X22589069Y-33164004D01*
X22698049Y-33093967D01*
X22782882Y-32996063D01*
X22836697Y-32878226D01*
X22855133Y-32750000D01*
X22839717Y-32642785D01*
X22844260Y-32624990D01*
X22846495Y-32622408D01*
X23336376Y-32132529D01*
X23353347Y-32125500D01*
X29302347Y-32125500D01*
X29302355Y-32125501D01*
X29305145Y-32125501D01*
X29394856Y-32125501D01*
X29421837Y-32114323D01*
X29453460Y-32101225D01*
X29477736Y-32091170D01*
X29541170Y-32027736D01*
X29541170Y-32027734D01*
X29716605Y-31852298D01*
X29733575Y-31845270D01*
X29737328Y-31845565D01*
X29749367Y-31847472D01*
X29799997Y-31855492D01*
X29799998Y-31855492D01*
X29799998Y-31855491D01*
X29800000Y-31855492D01*
X29925304Y-31835646D01*
X29925306Y-31835645D01*
X30038341Y-31778051D01*
X30058864Y-31757529D01*
X30075834Y-31750500D01*
X30372653Y-31750500D01*
X30389624Y-31757529D01*
X30396653Y-31774500D01*
X30389624Y-31791471D01*
X29913624Y-32267471D01*
X29896653Y-32274500D01*
X28705144Y-32274500D01*
X28622265Y-32308828D01*
X28558829Y-32372263D01*
X28558830Y-32372264D01*
X28558829Y-32372265D01*
X27890230Y-33040863D01*
X27873259Y-33047892D01*
X27869505Y-33047597D01*
X27850000Y-33044508D01*
X27724693Y-33064354D01*
X27611661Y-33121947D01*
X27521950Y-33211658D01*
X27520840Y-33213187D01*
X27520376Y-33212850D01*
X27508123Y-33223323D01*
X27500700Y-33224500D01*
X26349300Y-33224500D01*
X26332329Y-33217471D01*
X26329198Y-33213159D01*
X26329160Y-33213187D01*
X26328052Y-33211662D01*
X26328050Y-33211658D01*
X26238342Y-33121950D01*
X26238339Y-33121948D01*
X26238338Y-33121947D01*
X26125306Y-33064354D01*
X26000000Y-33044508D01*
X25874693Y-33064354D01*
X25761661Y-33121947D01*
X25671947Y-33211661D01*
X25614354Y-33324693D01*
X25594508Y-33450000D01*
X25614354Y-33575306D01*
X25671947Y-33688338D01*
X25671948Y-33688339D01*
X25671950Y-33688342D01*
X25761658Y-33778050D01*
X25761660Y-33778051D01*
X25761661Y-33778052D01*
X25874693Y-33835645D01*
X25874694Y-33835645D01*
X25874696Y-33835646D01*
X26000000Y-33855492D01*
X26125304Y-33835646D01*
X26238342Y-33778050D01*
X26328050Y-33688342D01*
X26328054Y-33688334D01*
X26329160Y-33686813D01*
X26329623Y-33687149D01*
X26341877Y-33676677D01*
X26349300Y-33675500D01*
X27500700Y-33675500D01*
X27517671Y-33682529D01*
X27520801Y-33686840D01*
X27520840Y-33686813D01*
X27521948Y-33688338D01*
X27521950Y-33688342D01*
X27611658Y-33778050D01*
X27611660Y-33778051D01*
X27611661Y-33778052D01*
X27724693Y-33835645D01*
X27724694Y-33835645D01*
X27724696Y-33835646D01*
X27850000Y-33855492D01*
X27975304Y-33835646D01*
X28085243Y-33779628D01*
X28103555Y-33778188D01*
X28117523Y-33790117D01*
X28118964Y-33808429D01*
X28113110Y-33817984D01*
X27913624Y-34017471D01*
X27896653Y-34024500D01*
X19574500Y-34024500D01*
X19557529Y-34017471D01*
X19550500Y-34000500D01*
X19550500Y-31485183D01*
X19550499Y-31485175D01*
X19541767Y-31441277D01*
X19508505Y-31391498D01*
X19508504Y-31391496D01*
X19484566Y-31375501D01*
X19458722Y-31358232D01*
X19414824Y-31349500D01*
X19414820Y-31349500D01*
X16385180Y-31349500D01*
X16385175Y-31349500D01*
X16341277Y-31358232D01*
X16291498Y-31391494D01*
X16291494Y-31391498D01*
X16258232Y-31441277D01*
X16249500Y-31485175D01*
X16249500Y-34514824D01*
X16258232Y-34558722D01*
X16291344Y-34608277D01*
X16291496Y-34608504D01*
X16308165Y-34619642D01*
X16341277Y-34641767D01*
X16384015Y-34650268D01*
X16385180Y-34650500D01*
X16385184Y-34650500D01*
X19414816Y-34650500D01*
X19414820Y-34650500D01*
X19458722Y-34641767D01*
X19508504Y-34608504D01*
X19541767Y-34558722D01*
X19550500Y-34514820D01*
X19550500Y-34499500D01*
X19557529Y-34482529D01*
X19574500Y-34475500D01*
X23497653Y-34475500D01*
X23514624Y-34482529D01*
X23521653Y-34499500D01*
X23514624Y-34516471D01*
X22697265Y-35333829D01*
X22697264Y-35333830D01*
X22697263Y-35333829D01*
X22633830Y-35397263D01*
X22623774Y-35421539D01*
X22599499Y-35480144D01*
X22599499Y-35572644D01*
X22599500Y-35572653D01*
X22599500Y-36721958D01*
X22592471Y-36738929D01*
X21518929Y-37812471D01*
X21501958Y-37819500D01*
X18202653Y-37819500D01*
X18202645Y-37819499D01*
X18199855Y-37819499D01*
X18110146Y-37819499D01*
X18110145Y-37819499D01*
X18061595Y-37839608D01*
X18061595Y-37839609D01*
X18044429Y-37846719D01*
X18027263Y-37853830D01*
X17963829Y-37917263D01*
X17963830Y-37917264D01*
X17963829Y-37917265D01*
X16588624Y-39292471D01*
X16571653Y-39299500D01*
X15035175Y-39299500D01*
X14991277Y-39308232D01*
X14941498Y-39341494D01*
X14941494Y-39341498D01*
X14908232Y-39391277D01*
X14899500Y-39435175D01*
X14899500Y-41164824D01*
X14908232Y-41208722D01*
X14941344Y-41258277D01*
X14941496Y-41258504D01*
X14958165Y-41269642D01*
X14991277Y-41291767D01*
X15034015Y-41300268D01*
X15035180Y-41300500D01*
X15035184Y-41300500D01*
X16764816Y-41300500D01*
X16764820Y-41300500D01*
X16808722Y-41291767D01*
X16858504Y-41258504D01*
X16891767Y-41208722D01*
X16900500Y-41164820D01*
X16900500Y-39628347D01*
X16907529Y-39611376D01*
X18241376Y-38277529D01*
X18258347Y-38270500D01*
X21427222Y-38270500D01*
X21444193Y-38277529D01*
X21451222Y-38294500D01*
X21444193Y-38311471D01*
X20838193Y-38917471D01*
X20821222Y-38924500D01*
X19637653Y-38924500D01*
X19637645Y-38924499D01*
X19634855Y-38924499D01*
X19545146Y-38924499D01*
X19545145Y-38924499D01*
X19496595Y-38944608D01*
X19496595Y-38944609D01*
X19479429Y-38951719D01*
X19462263Y-38958830D01*
X19398829Y-39022263D01*
X19398830Y-39022264D01*
X19398829Y-39022265D01*
X18984057Y-39437036D01*
X18967086Y-39444065D01*
X18955774Y-39441231D01*
X18824727Y-39371186D01*
X18726846Y-39341494D01*
X18636128Y-39313974D01*
X18440005Y-39294659D01*
X18439995Y-39294659D01*
X18243871Y-39313974D01*
X18134326Y-39347205D01*
X18055273Y-39371186D01*
X18055269Y-39371187D01*
X18055269Y-39371188D01*
X17881464Y-39464089D01*
X17881453Y-39464096D01*
X17729125Y-39589109D01*
X17729109Y-39589125D01*
X17604096Y-39741453D01*
X17604091Y-39741460D01*
X17604090Y-39741462D01*
X17511186Y-39915273D01*
X17498205Y-39958066D01*
X17453974Y-40103871D01*
X17434659Y-40299995D01*
X17434659Y-40300004D01*
X17453974Y-40496128D01*
X17477956Y-40575185D01*
X17511186Y-40684727D01*
X17604090Y-40858538D01*
X17604094Y-40858542D01*
X17604096Y-40858546D01*
X17729109Y-41010874D01*
X17729112Y-41010877D01*
X17729117Y-41010883D01*
X17729122Y-41010887D01*
X17729125Y-41010890D01*
X17868777Y-41125500D01*
X17881462Y-41135910D01*
X18055273Y-41228814D01*
X18234830Y-41283282D01*
X18243871Y-41286025D01*
X18439995Y-41305341D01*
X18440000Y-41305341D01*
X18440005Y-41305341D01*
X18636128Y-41286025D01*
X18636130Y-41286024D01*
X18636132Y-41286024D01*
X18824727Y-41228814D01*
X18998538Y-41135910D01*
X19150883Y-41010883D01*
X19275910Y-40858538D01*
X19368814Y-40684727D01*
X19426024Y-40496132D01*
X19426024Y-40496130D01*
X19426025Y-40496128D01*
X19445341Y-40300004D01*
X19445341Y-40299995D01*
X19426025Y-40103871D01*
X19423282Y-40094830D01*
X19368814Y-39915273D01*
X19298766Y-39784223D01*
X19296966Y-39765945D01*
X19302960Y-39755943D01*
X19676376Y-39382529D01*
X19693347Y-39375500D01*
X20491389Y-39375500D01*
X20508360Y-39382529D01*
X20515389Y-39399500D01*
X20508360Y-39416471D01*
X20502704Y-39420664D01*
X20464228Y-39441231D01*
X20421464Y-39464089D01*
X20421453Y-39464096D01*
X20269125Y-39589109D01*
X20269109Y-39589125D01*
X20144096Y-39741453D01*
X20144091Y-39741460D01*
X20144090Y-39741462D01*
X20051186Y-39915273D01*
X20038205Y-39958066D01*
X19993974Y-40103871D01*
X19974659Y-40299995D01*
X19974659Y-40300004D01*
X19993974Y-40496128D01*
X20017956Y-40575185D01*
X20051186Y-40684727D01*
X20144090Y-40858538D01*
X20144094Y-40858542D01*
X20144096Y-40858546D01*
X20269109Y-41010874D01*
X20269112Y-41010877D01*
X20269117Y-41010883D01*
X20269122Y-41010887D01*
X20269125Y-41010890D01*
X20408777Y-41125500D01*
X20421462Y-41135910D01*
X20595273Y-41228814D01*
X20774830Y-41283282D01*
X20783871Y-41286025D01*
X20979995Y-41305341D01*
X20980000Y-41305341D01*
X20980005Y-41305341D01*
X21176128Y-41286025D01*
X21176130Y-41286024D01*
X21176132Y-41286024D01*
X21364727Y-41228814D01*
X21538538Y-41135910D01*
X21690883Y-41010883D01*
X21815910Y-40858538D01*
X21908814Y-40684727D01*
X21966024Y-40496132D01*
X21966024Y-40496130D01*
X21966025Y-40496128D01*
X21985341Y-40300004D01*
X21985341Y-40299995D01*
X22514659Y-40299995D01*
X22514659Y-40300004D01*
X22533974Y-40496128D01*
X22557956Y-40575185D01*
X22591186Y-40684727D01*
X22684090Y-40858538D01*
X22684094Y-40858542D01*
X22684096Y-40858546D01*
X22809109Y-41010874D01*
X22809112Y-41010877D01*
X22809117Y-41010883D01*
X22809122Y-41010887D01*
X22809125Y-41010890D01*
X22948777Y-41125500D01*
X22961462Y-41135910D01*
X23135273Y-41228814D01*
X23314830Y-41283282D01*
X23323871Y-41286025D01*
X23519995Y-41305341D01*
X23520000Y-41305341D01*
X23520005Y-41305341D01*
X23716128Y-41286025D01*
X23716130Y-41286024D01*
X23716132Y-41286024D01*
X23904727Y-41228814D01*
X24078538Y-41135910D01*
X24230883Y-41010883D01*
X24355910Y-40858538D01*
X24448814Y-40684727D01*
X24506024Y-40496132D01*
X24506024Y-40496130D01*
X24506025Y-40496128D01*
X24525341Y-40300004D01*
X24525341Y-40299995D01*
X25054659Y-40299995D01*
X25054659Y-40300004D01*
X25073974Y-40496128D01*
X25097956Y-40575185D01*
X25131186Y-40684727D01*
X25224090Y-40858538D01*
X25224094Y-40858542D01*
X25224096Y-40858546D01*
X25349109Y-41010874D01*
X25349112Y-41010877D01*
X25349117Y-41010883D01*
X25349122Y-41010887D01*
X25349125Y-41010890D01*
X25488777Y-41125500D01*
X25501462Y-41135910D01*
X25675273Y-41228814D01*
X25854830Y-41283282D01*
X25863871Y-41286025D01*
X26059995Y-41305341D01*
X26060000Y-41305341D01*
X26060005Y-41305341D01*
X26256128Y-41286025D01*
X26256130Y-41286024D01*
X26256132Y-41286024D01*
X26444727Y-41228814D01*
X26618538Y-41135910D01*
X26770883Y-41010883D01*
X26895910Y-40858538D01*
X26988814Y-40684727D01*
X27046024Y-40496132D01*
X27046024Y-40496130D01*
X27046025Y-40496128D01*
X27065341Y-40300004D01*
X27065341Y-40299995D01*
X27594659Y-40299995D01*
X27594659Y-40300004D01*
X27613974Y-40496128D01*
X27637956Y-40575185D01*
X27671186Y-40684727D01*
X27764090Y-40858538D01*
X27764094Y-40858542D01*
X27764096Y-40858546D01*
X27889109Y-41010874D01*
X27889112Y-41010877D01*
X27889117Y-41010883D01*
X27889122Y-41010887D01*
X27889125Y-41010890D01*
X28028777Y-41125500D01*
X28041462Y-41135910D01*
X28215273Y-41228814D01*
X28394830Y-41283282D01*
X28403871Y-41286025D01*
X28599995Y-41305341D01*
X28600000Y-41305341D01*
X28600005Y-41305341D01*
X28796128Y-41286025D01*
X28796130Y-41286024D01*
X28796132Y-41286024D01*
X28984727Y-41228814D01*
X29158538Y-41135910D01*
X29310883Y-41010883D01*
X29435910Y-40858538D01*
X29528814Y-40684727D01*
X29586024Y-40496132D01*
X29586024Y-40496130D01*
X29586025Y-40496128D01*
X29605341Y-40300004D01*
X29605341Y-40299995D01*
X30134659Y-40299995D01*
X30134659Y-40300004D01*
X30153974Y-40496128D01*
X30177956Y-40575185D01*
X30211186Y-40684727D01*
X30304090Y-40858538D01*
X30304094Y-40858542D01*
X30304096Y-40858546D01*
X30429109Y-41010874D01*
X30429112Y-41010877D01*
X30429117Y-41010883D01*
X30429122Y-41010887D01*
X30429125Y-41010890D01*
X30568777Y-41125500D01*
X30581462Y-41135910D01*
X30755273Y-41228814D01*
X30934830Y-41283282D01*
X30943871Y-41286025D01*
X31139995Y-41305341D01*
X31140000Y-41305341D01*
X31140005Y-41305341D01*
X31336128Y-41286025D01*
X31336130Y-41286024D01*
X31336132Y-41286024D01*
X31524727Y-41228814D01*
X31698538Y-41135910D01*
X31850883Y-41010883D01*
X31975910Y-40858538D01*
X32068814Y-40684727D01*
X32126024Y-40496132D01*
X32126024Y-40496130D01*
X32126025Y-40496128D01*
X32145341Y-40300004D01*
X32145341Y-40299995D01*
X32674659Y-40299995D01*
X32674659Y-40300004D01*
X32693974Y-40496128D01*
X32717956Y-40575185D01*
X32751186Y-40684727D01*
X32844090Y-40858538D01*
X32844094Y-40858542D01*
X32844096Y-40858546D01*
X32969109Y-41010874D01*
X32969112Y-41010877D01*
X32969117Y-41010883D01*
X32969122Y-41010887D01*
X32969125Y-41010890D01*
X33108777Y-41125500D01*
X33121462Y-41135910D01*
X33295273Y-41228814D01*
X33474830Y-41283282D01*
X33483871Y-41286025D01*
X33679995Y-41305341D01*
X33680000Y-41305341D01*
X33680005Y-41305341D01*
X33876128Y-41286025D01*
X33876130Y-41286024D01*
X33876132Y-41286024D01*
X34064727Y-41228814D01*
X34238538Y-41135910D01*
X34390883Y-41010883D01*
X34515910Y-40858538D01*
X34608814Y-40684727D01*
X34666024Y-40496132D01*
X34666024Y-40496130D01*
X34666025Y-40496128D01*
X34685341Y-40300004D01*
X34685341Y-40299995D01*
X35214659Y-40299995D01*
X35214659Y-40300004D01*
X35233974Y-40496128D01*
X35257956Y-40575185D01*
X35291186Y-40684727D01*
X35384090Y-40858538D01*
X35384094Y-40858542D01*
X35384096Y-40858546D01*
X35509109Y-41010874D01*
X35509112Y-41010877D01*
X35509117Y-41010883D01*
X35509122Y-41010887D01*
X35509125Y-41010890D01*
X35648777Y-41125500D01*
X35661462Y-41135910D01*
X35835273Y-41228814D01*
X36014830Y-41283282D01*
X36023871Y-41286025D01*
X36219995Y-41305341D01*
X36220000Y-41305341D01*
X36220005Y-41305341D01*
X36416128Y-41286025D01*
X36416130Y-41286024D01*
X36416132Y-41286024D01*
X36604727Y-41228814D01*
X36778538Y-41135910D01*
X36930883Y-41010883D01*
X37055910Y-40858538D01*
X37148814Y-40684727D01*
X37206024Y-40496132D01*
X37206024Y-40496130D01*
X37206025Y-40496128D01*
X37225341Y-40300004D01*
X37225341Y-40299995D01*
X37206025Y-40103871D01*
X37203282Y-40094830D01*
X37148814Y-39915273D01*
X37055910Y-39741462D01*
X36968797Y-39635315D01*
X36930890Y-39589125D01*
X36930887Y-39589122D01*
X36930883Y-39589117D01*
X36930877Y-39589112D01*
X36930874Y-39589109D01*
X36778546Y-39464096D01*
X36778542Y-39464094D01*
X36778538Y-39464090D01*
X36604727Y-39371186D01*
X36495185Y-39337956D01*
X36416128Y-39313974D01*
X36220005Y-39294659D01*
X36219995Y-39294659D01*
X36023871Y-39313974D01*
X35914326Y-39347205D01*
X35835273Y-39371186D01*
X35835269Y-39371187D01*
X35835269Y-39371188D01*
X35661464Y-39464089D01*
X35661453Y-39464096D01*
X35509125Y-39589109D01*
X35509109Y-39589125D01*
X35384096Y-39741453D01*
X35384091Y-39741460D01*
X35384090Y-39741462D01*
X35291186Y-39915273D01*
X35278205Y-39958066D01*
X35233974Y-40103871D01*
X35214659Y-40299995D01*
X34685341Y-40299995D01*
X34666025Y-40103871D01*
X34663282Y-40094830D01*
X34608814Y-39915273D01*
X34515910Y-39741462D01*
X34428797Y-39635315D01*
X34390890Y-39589125D01*
X34390887Y-39589122D01*
X34390883Y-39589117D01*
X34390877Y-39589112D01*
X34390874Y-39589109D01*
X34238546Y-39464096D01*
X34238542Y-39464094D01*
X34238538Y-39464090D01*
X34064727Y-39371186D01*
X33955185Y-39337956D01*
X33876128Y-39313974D01*
X33680005Y-39294659D01*
X33679995Y-39294659D01*
X33483871Y-39313974D01*
X33374326Y-39347205D01*
X33295273Y-39371186D01*
X33295269Y-39371187D01*
X33295269Y-39371188D01*
X33121464Y-39464089D01*
X33121453Y-39464096D01*
X32969125Y-39589109D01*
X32969109Y-39589125D01*
X32844096Y-39741453D01*
X32844091Y-39741460D01*
X32844090Y-39741462D01*
X32751186Y-39915273D01*
X32738205Y-39958066D01*
X32693974Y-40103871D01*
X32674659Y-40299995D01*
X32145341Y-40299995D01*
X32126025Y-40103871D01*
X32123282Y-40094830D01*
X32068814Y-39915273D01*
X31975910Y-39741462D01*
X31888797Y-39635315D01*
X31850890Y-39589125D01*
X31850887Y-39589122D01*
X31850883Y-39589117D01*
X31850877Y-39589112D01*
X31850874Y-39589109D01*
X31698546Y-39464096D01*
X31698542Y-39464094D01*
X31698538Y-39464090D01*
X31524727Y-39371186D01*
X31415185Y-39337956D01*
X31336128Y-39313974D01*
X31140005Y-39294659D01*
X31139995Y-39294659D01*
X30943871Y-39313974D01*
X30834326Y-39347205D01*
X30755273Y-39371186D01*
X30755269Y-39371187D01*
X30755269Y-39371188D01*
X30581464Y-39464089D01*
X30581453Y-39464096D01*
X30429125Y-39589109D01*
X30429109Y-39589125D01*
X30304096Y-39741453D01*
X30304091Y-39741460D01*
X30304090Y-39741462D01*
X30211186Y-39915273D01*
X30198205Y-39958066D01*
X30153974Y-40103871D01*
X30134659Y-40299995D01*
X29605341Y-40299995D01*
X29586025Y-40103871D01*
X29583282Y-40094830D01*
X29528814Y-39915273D01*
X29435910Y-39741462D01*
X29348797Y-39635315D01*
X29310890Y-39589125D01*
X29310887Y-39589122D01*
X29310883Y-39589117D01*
X29310877Y-39589112D01*
X29310874Y-39589109D01*
X29158546Y-39464096D01*
X29158542Y-39464094D01*
X29158538Y-39464090D01*
X28984727Y-39371186D01*
X28875185Y-39337956D01*
X28796128Y-39313974D01*
X28600005Y-39294659D01*
X28599995Y-39294659D01*
X28403871Y-39313974D01*
X28294326Y-39347205D01*
X28215273Y-39371186D01*
X28215269Y-39371187D01*
X28215269Y-39371188D01*
X28041464Y-39464089D01*
X28041453Y-39464096D01*
X27889125Y-39589109D01*
X27889109Y-39589125D01*
X27764096Y-39741453D01*
X27764091Y-39741460D01*
X27764090Y-39741462D01*
X27671186Y-39915273D01*
X27658205Y-39958066D01*
X27613974Y-40103871D01*
X27594659Y-40299995D01*
X27065341Y-40299995D01*
X27046025Y-40103871D01*
X27043282Y-40094830D01*
X26988814Y-39915273D01*
X26895910Y-39741462D01*
X26808797Y-39635315D01*
X26770890Y-39589125D01*
X26770887Y-39589122D01*
X26770883Y-39589117D01*
X26770877Y-39589112D01*
X26770874Y-39589109D01*
X26618546Y-39464096D01*
X26618542Y-39464094D01*
X26618538Y-39464090D01*
X26444727Y-39371186D01*
X26335185Y-39337956D01*
X26256128Y-39313974D01*
X26060005Y-39294659D01*
X26059995Y-39294659D01*
X25863871Y-39313974D01*
X25754326Y-39347205D01*
X25675273Y-39371186D01*
X25675269Y-39371187D01*
X25675269Y-39371188D01*
X25501464Y-39464089D01*
X25501453Y-39464096D01*
X25349125Y-39589109D01*
X25349109Y-39589125D01*
X25224096Y-39741453D01*
X25224091Y-39741460D01*
X25224090Y-39741462D01*
X25131186Y-39915273D01*
X25118205Y-39958066D01*
X25073974Y-40103871D01*
X25054659Y-40299995D01*
X24525341Y-40299995D01*
X24506025Y-40103871D01*
X24503282Y-40094830D01*
X24448814Y-39915273D01*
X24355910Y-39741462D01*
X24268797Y-39635315D01*
X24230890Y-39589125D01*
X24230887Y-39589122D01*
X24230883Y-39589117D01*
X24230877Y-39589112D01*
X24230874Y-39589109D01*
X24078546Y-39464096D01*
X24078542Y-39464094D01*
X24078538Y-39464090D01*
X23904727Y-39371186D01*
X23795185Y-39337956D01*
X23716128Y-39313974D01*
X23520005Y-39294659D01*
X23519995Y-39294659D01*
X23323871Y-39313974D01*
X23214326Y-39347205D01*
X23135273Y-39371186D01*
X23135269Y-39371187D01*
X23135269Y-39371188D01*
X22961464Y-39464089D01*
X22961453Y-39464096D01*
X22809125Y-39589109D01*
X22809109Y-39589125D01*
X22684096Y-39741453D01*
X22684091Y-39741460D01*
X22684090Y-39741462D01*
X22591186Y-39915273D01*
X22578205Y-39958066D01*
X22533974Y-40103871D01*
X22514659Y-40299995D01*
X21985341Y-40299995D01*
X21966025Y-40103871D01*
X21963282Y-40094830D01*
X21908814Y-39915273D01*
X21815910Y-39741462D01*
X21728797Y-39635315D01*
X21690890Y-39589125D01*
X21690887Y-39589122D01*
X21690883Y-39589117D01*
X21690877Y-39589112D01*
X21690874Y-39589109D01*
X21538546Y-39464096D01*
X21538542Y-39464094D01*
X21538538Y-39464090D01*
X21364727Y-39371186D01*
X21176132Y-39313976D01*
X21176130Y-39313975D01*
X21176128Y-39313975D01*
X21138661Y-39310284D01*
X21122461Y-39301625D01*
X21117130Y-39284047D01*
X21124042Y-39269430D01*
X23277734Y-37115739D01*
X23277736Y-37115739D01*
X23341170Y-37052305D01*
X23374575Y-36971658D01*
X23375501Y-36969423D01*
X23375501Y-36879714D01*
X23375501Y-36877786D01*
X23375500Y-36877772D01*
X23375500Y-35753347D01*
X23382529Y-35736376D01*
X23936377Y-35182529D01*
X23953348Y-35175500D01*
X30671465Y-35175500D01*
X30688436Y-35182529D01*
X30695465Y-35199500D01*
X30695169Y-35203255D01*
X30692955Y-35217235D01*
X30708257Y-35313853D01*
X30703969Y-35331713D01*
X30688307Y-35341311D01*
X30673657Y-35338990D01*
X30625306Y-35314354D01*
X30541768Y-35301123D01*
X30500000Y-35294508D01*
X30499999Y-35294508D01*
X30403819Y-35309740D01*
X30390881Y-35308208D01*
X30369856Y-35299499D01*
X30369855Y-35299499D01*
X30280145Y-35299499D01*
X30277355Y-35299499D01*
X30277347Y-35299500D01*
X28830145Y-35299500D01*
X28809117Y-35308209D01*
X28796180Y-35309740D01*
X28700000Y-35294508D01*
X28574693Y-35314354D01*
X28461661Y-35371947D01*
X28371950Y-35461658D01*
X28370840Y-35463187D01*
X28370376Y-35462850D01*
X28358123Y-35473323D01*
X28350700Y-35474500D01*
X26374500Y-35474500D01*
X26357529Y-35467471D01*
X26350500Y-35450500D01*
X26350500Y-35385183D01*
X26350499Y-35385175D01*
X26341767Y-35341277D01*
X26313851Y-35299499D01*
X26308504Y-35291496D01*
X26308277Y-35291344D01*
X26258722Y-35258232D01*
X26214824Y-35249500D01*
X26214820Y-35249500D01*
X24485180Y-35249500D01*
X24485175Y-35249500D01*
X24441277Y-35258232D01*
X24391498Y-35291494D01*
X24391494Y-35291498D01*
X24358232Y-35341277D01*
X24349500Y-35385175D01*
X24349500Y-36978180D01*
X24348682Y-36984391D01*
X24344500Y-37000000D01*
X24344500Y-39000000D01*
X24365333Y-39077750D01*
X24422250Y-39134667D01*
X24500000Y-39155500D01*
X24500001Y-39155500D01*
X49499999Y-39155500D01*
X49500000Y-39155500D01*
X49577750Y-39134667D01*
X49634667Y-39077750D01*
X49655500Y-39000000D01*
X49655500Y-37000000D01*
X49651318Y-36984391D01*
X49650500Y-36978180D01*
X49650500Y-35385183D01*
X49650499Y-35385175D01*
X49641767Y-35341277D01*
X49613851Y-35299499D01*
X49608504Y-35291496D01*
X49608277Y-35291344D01*
X49558722Y-35258232D01*
X49514824Y-35249500D01*
X49514820Y-35249500D01*
X47785180Y-35249500D01*
X47785175Y-35249500D01*
X47741277Y-35258232D01*
X47691498Y-35291494D01*
X47691494Y-35291498D01*
X47658232Y-35341277D01*
X47649500Y-35385175D01*
X47649500Y-36820500D01*
X47642471Y-36837471D01*
X47625500Y-36844500D01*
X45857895Y-36844500D01*
X45840924Y-36837471D01*
X45833895Y-36820500D01*
X45840924Y-36803529D01*
X45846999Y-36799116D01*
X45888338Y-36778052D01*
X45888337Y-36778052D01*
X45888342Y-36778050D01*
X45978050Y-36688342D01*
X46035646Y-36575304D01*
X46055492Y-36450000D01*
X46035646Y-36324696D01*
X46035645Y-36324694D01*
X46035645Y-36324693D01*
X45978052Y-36211661D01*
X45978051Y-36211660D01*
X45978050Y-36211658D01*
X45888342Y-36121950D01*
X45888339Y-36121948D01*
X45888338Y-36121947D01*
X45775306Y-36064354D01*
X45691768Y-36051123D01*
X45650000Y-36044508D01*
X45649999Y-36044508D01*
X45630492Y-36047597D01*
X45612631Y-36043308D01*
X45609768Y-36040863D01*
X41566170Y-31997265D01*
X41566170Y-31997264D01*
X41502736Y-31933830D01*
X41502734Y-31933829D01*
X41502733Y-31933828D01*
X41468910Y-31919819D01*
X41419856Y-31899499D01*
X41419855Y-31899499D01*
X41330145Y-31899499D01*
X41327355Y-31899499D01*
X41327347Y-31899500D01*
X31500099Y-31899500D01*
X31483128Y-31892471D01*
X31382128Y-31791471D01*
X31375099Y-31774500D01*
X31382128Y-31757529D01*
X31399099Y-31750500D01*
X43971653Y-31750500D01*
X43988624Y-31757529D01*
X46872459Y-34641364D01*
X46872472Y-34641379D01*
X46937264Y-34706170D01*
X46971595Y-34720390D01*
X47020145Y-34740501D01*
X47020146Y-34740501D01*
X47112645Y-34740501D01*
X47112653Y-34740500D01*
X50105085Y-34740500D01*
X50122056Y-34747529D01*
X50128051Y-34757532D01*
X50171186Y-34899727D01*
X50264090Y-35073538D01*
X50264094Y-35073542D01*
X50264096Y-35073546D01*
X50389109Y-35225874D01*
X50389112Y-35225877D01*
X50389117Y-35225883D01*
X50389122Y-35225887D01*
X50389125Y-35225890D01*
X50531264Y-35342541D01*
X50541462Y-35350910D01*
X50715273Y-35443814D01*
X50894830Y-35498282D01*
X50903871Y-35501025D01*
X51099995Y-35520341D01*
X51100000Y-35520341D01*
X51100005Y-35520341D01*
X51296128Y-35501025D01*
X51296130Y-35501024D01*
X51296132Y-35501024D01*
X51484727Y-35443814D01*
X51658538Y-35350910D01*
X51810883Y-35225883D01*
X51935910Y-35073538D01*
X52028814Y-34899727D01*
X52086024Y-34711132D01*
X52086024Y-34711130D01*
X52086025Y-34711128D01*
X52105341Y-34515004D01*
X52105341Y-34514995D01*
X52086025Y-34318871D01*
X52077115Y-34289500D01*
X52028814Y-34130273D01*
X51935910Y-33956462D01*
X51853045Y-33855491D01*
X51810890Y-33804125D01*
X51810887Y-33804122D01*
X51810883Y-33804117D01*
X51810877Y-33804112D01*
X51810874Y-33804109D01*
X51658546Y-33679096D01*
X51658542Y-33679094D01*
X51658538Y-33679090D01*
X51484727Y-33586186D01*
X51375185Y-33552956D01*
X51296128Y-33528974D01*
X51100005Y-33509659D01*
X51099995Y-33509659D01*
X50903871Y-33528974D01*
X50794326Y-33562205D01*
X50715273Y-33586186D01*
X50715269Y-33586187D01*
X50715269Y-33586188D01*
X50700716Y-33593967D01*
X50545977Y-33676677D01*
X50541464Y-33679089D01*
X50541453Y-33679096D01*
X50389125Y-33804109D01*
X50389109Y-33804125D01*
X50264096Y-33956453D01*
X50264091Y-33956460D01*
X50264090Y-33956462D01*
X50171186Y-34130273D01*
X50166763Y-34144855D01*
X50128052Y-34272467D01*
X50116398Y-34286666D01*
X50105085Y-34289500D01*
X47168347Y-34289500D01*
X47151376Y-34282471D01*
X45335376Y-32466471D01*
X45328347Y-32449500D01*
X45335376Y-32432529D01*
X45352347Y-32425500D01*
X50075500Y-32425500D01*
X50092471Y-32432529D01*
X50099500Y-32449500D01*
X50099500Y-32839824D01*
X50108232Y-32883722D01*
X50123141Y-32906034D01*
X50141496Y-32933504D01*
X50158165Y-32944642D01*
X50191277Y-32966767D01*
X50234015Y-32975268D01*
X50235180Y-32975500D01*
X50235184Y-32975500D01*
X51964816Y-32975500D01*
X51964820Y-32975500D01*
X52008722Y-32966767D01*
X52058504Y-32933504D01*
X52091767Y-32883722D01*
X52100500Y-32839820D01*
X52100500Y-31227347D01*
X52107529Y-31210376D01*
X52124500Y-31203347D01*
X52141471Y-31210376D01*
X52467471Y-31536376D01*
X52474500Y-31553347D01*
X52474500Y-34053203D01*
X52474499Y-34053217D01*
X52474499Y-34055145D01*
X52474499Y-34144855D01*
X52498774Y-34203460D01*
X52508830Y-34227736D01*
X52572264Y-34291170D01*
X52572265Y-34291170D01*
X53042471Y-34761376D01*
X53049500Y-34778347D01*
X53049500Y-36314824D01*
X53058232Y-36358722D01*
X53091344Y-36408277D01*
X53091496Y-36408504D01*
X53108165Y-36419642D01*
X53141277Y-36441767D01*
X53182666Y-36450000D01*
X53185180Y-36450500D01*
X53850500Y-36450500D01*
X53867471Y-36457529D01*
X53874500Y-36474500D01*
X53874500Y-38576373D01*
X53867471Y-38593344D01*
X52866471Y-39594344D01*
X52849500Y-39601373D01*
X52832529Y-39594344D01*
X52825500Y-39577373D01*
X52825500Y-38799300D01*
X52832529Y-38782329D01*
X52836840Y-38779198D01*
X52836813Y-38779160D01*
X52838334Y-38778054D01*
X52838342Y-38778050D01*
X52928050Y-38688342D01*
X52985646Y-38575304D01*
X53005492Y-38450000D01*
X52985646Y-38324696D01*
X52985645Y-38324694D01*
X52985645Y-38324693D01*
X52928052Y-38211661D01*
X52928051Y-38211660D01*
X52928050Y-38211658D01*
X52838342Y-38121950D01*
X52838339Y-38121948D01*
X52838338Y-38121947D01*
X52725306Y-38064354D01*
X52600000Y-38044508D01*
X52474693Y-38064354D01*
X52361661Y-38121947D01*
X52271947Y-38211661D01*
X52214354Y-38324693D01*
X52194508Y-38450000D01*
X52214354Y-38575306D01*
X52271947Y-38688338D01*
X52271948Y-38688339D01*
X52271950Y-38688342D01*
X52361658Y-38778050D01*
X52361662Y-38778052D01*
X52363187Y-38779160D01*
X52362850Y-38779623D01*
X52373323Y-38791877D01*
X52374500Y-38799300D01*
X52374500Y-39792680D01*
X52367471Y-39809651D01*
X52350500Y-39816680D01*
X52333529Y-39809651D01*
X52329334Y-39803994D01*
X52295910Y-39741462D01*
X52208797Y-39635315D01*
X52170890Y-39589125D01*
X52170887Y-39589122D01*
X52170883Y-39589117D01*
X52170877Y-39589112D01*
X52170874Y-39589109D01*
X52018546Y-39464096D01*
X52018542Y-39464094D01*
X52018538Y-39464090D01*
X51844727Y-39371186D01*
X51735185Y-39337956D01*
X51656128Y-39313974D01*
X51460005Y-39294659D01*
X51459995Y-39294659D01*
X51263871Y-39313974D01*
X51154326Y-39347205D01*
X51075273Y-39371186D01*
X51075269Y-39371187D01*
X51075269Y-39371188D01*
X50901464Y-39464089D01*
X50901453Y-39464096D01*
X50749125Y-39589109D01*
X50749109Y-39589125D01*
X50624096Y-39741453D01*
X50624091Y-39741460D01*
X50624090Y-39741462D01*
X50531186Y-39915273D01*
X50518205Y-39958066D01*
X50473974Y-40103871D01*
X50454659Y-40299995D01*
X50454659Y-40300004D01*
X50473974Y-40496128D01*
X50497956Y-40575185D01*
X50531186Y-40684727D01*
X50624090Y-40858538D01*
X50624094Y-40858542D01*
X50624096Y-40858546D01*
X50749109Y-41010874D01*
X50749112Y-41010877D01*
X50749117Y-41010883D01*
X50861036Y-41102733D01*
X50866172Y-41106948D01*
X50874830Y-41123148D01*
X50869498Y-41140726D01*
X50853298Y-41149384D01*
X50850946Y-41149500D01*
X49529054Y-41149500D01*
X49512083Y-41142471D01*
X49505054Y-41125500D01*
X49512083Y-41108529D01*
X49513828Y-41106948D01*
X49518964Y-41102733D01*
X49630883Y-41010883D01*
X49755910Y-40858538D01*
X49848814Y-40684727D01*
X49906024Y-40496132D01*
X49906024Y-40496130D01*
X49906025Y-40496128D01*
X49925341Y-40300004D01*
X49925341Y-40299995D01*
X49906025Y-40103871D01*
X49903282Y-40094830D01*
X49848814Y-39915273D01*
X49755910Y-39741462D01*
X49668797Y-39635315D01*
X49630890Y-39589125D01*
X49630887Y-39589122D01*
X49630883Y-39589117D01*
X49630877Y-39589112D01*
X49630874Y-39589109D01*
X49478546Y-39464096D01*
X49478542Y-39464094D01*
X49478538Y-39464090D01*
X49304727Y-39371186D01*
X49195185Y-39337956D01*
X49116128Y-39313974D01*
X48920005Y-39294659D01*
X48919995Y-39294659D01*
X48723871Y-39313974D01*
X48614326Y-39347205D01*
X48535273Y-39371186D01*
X48535269Y-39371187D01*
X48535269Y-39371188D01*
X48361464Y-39464089D01*
X48361453Y-39464096D01*
X48209125Y-39589109D01*
X48209109Y-39589125D01*
X48084096Y-39741453D01*
X48084091Y-39741460D01*
X48084090Y-39741462D01*
X47991186Y-39915273D01*
X47978205Y-39958066D01*
X47933974Y-40103871D01*
X47914659Y-40299995D01*
X47914659Y-40300004D01*
X47933974Y-40496128D01*
X47957956Y-40575185D01*
X47991186Y-40684727D01*
X48084090Y-40858538D01*
X48084094Y-40858542D01*
X48084096Y-40858546D01*
X48209109Y-41010874D01*
X48209112Y-41010877D01*
X48209117Y-41010883D01*
X48321036Y-41102733D01*
X48326172Y-41106948D01*
X48334830Y-41123148D01*
X48329498Y-41140726D01*
X48313298Y-41149384D01*
X48310946Y-41149500D01*
X46989054Y-41149500D01*
X46972083Y-41142471D01*
X46965054Y-41125500D01*
X46972083Y-41108529D01*
X46973828Y-41106948D01*
X46978964Y-41102733D01*
X47090883Y-41010883D01*
X47215910Y-40858538D01*
X47308814Y-40684727D01*
X47366024Y-40496132D01*
X47366024Y-40496130D01*
X47366025Y-40496128D01*
X47385341Y-40300004D01*
X47385341Y-40299995D01*
X47366025Y-40103871D01*
X47363282Y-40094830D01*
X47308814Y-39915273D01*
X47215910Y-39741462D01*
X47128797Y-39635315D01*
X47090890Y-39589125D01*
X47090887Y-39589122D01*
X47090883Y-39589117D01*
X47090877Y-39589112D01*
X47090874Y-39589109D01*
X46938546Y-39464096D01*
X46938542Y-39464094D01*
X46938538Y-39464090D01*
X46764727Y-39371186D01*
X46655185Y-39337956D01*
X46576128Y-39313974D01*
X46380005Y-39294659D01*
X46379995Y-39294659D01*
X46183871Y-39313974D01*
X46074326Y-39347205D01*
X45995273Y-39371186D01*
X45995269Y-39371187D01*
X45995269Y-39371188D01*
X45821464Y-39464089D01*
X45821453Y-39464096D01*
X45669125Y-39589109D01*
X45669109Y-39589125D01*
X45544096Y-39741453D01*
X45544091Y-39741460D01*
X45544090Y-39741462D01*
X45451186Y-39915273D01*
X45438205Y-39958066D01*
X45393974Y-40103871D01*
X45374659Y-40299995D01*
X45374659Y-40300004D01*
X45393974Y-40496128D01*
X45417956Y-40575185D01*
X45451186Y-40684727D01*
X45544090Y-40858538D01*
X45544094Y-40858542D01*
X45544096Y-40858546D01*
X45669109Y-41010874D01*
X45669112Y-41010877D01*
X45669117Y-41010883D01*
X45781036Y-41102733D01*
X45786172Y-41106948D01*
X45794830Y-41123148D01*
X45789498Y-41140726D01*
X45773298Y-41149384D01*
X45770946Y-41149500D01*
X44449054Y-41149500D01*
X44432083Y-41142471D01*
X44425054Y-41125500D01*
X44432083Y-41108529D01*
X44433828Y-41106948D01*
X44438964Y-41102733D01*
X44550883Y-41010883D01*
X44675910Y-40858538D01*
X44768814Y-40684727D01*
X44826024Y-40496132D01*
X44826024Y-40496130D01*
X44826025Y-40496128D01*
X44845341Y-40300004D01*
X44845341Y-40299995D01*
X44826025Y-40103871D01*
X44823282Y-40094830D01*
X44768814Y-39915273D01*
X44675910Y-39741462D01*
X44588797Y-39635315D01*
X44550890Y-39589125D01*
X44550887Y-39589122D01*
X44550883Y-39589117D01*
X44550877Y-39589112D01*
X44550874Y-39589109D01*
X44398546Y-39464096D01*
X44398542Y-39464094D01*
X44398538Y-39464090D01*
X44224727Y-39371186D01*
X44115185Y-39337956D01*
X44036128Y-39313974D01*
X43840005Y-39294659D01*
X43839995Y-39294659D01*
X43643871Y-39313974D01*
X43534326Y-39347205D01*
X43455273Y-39371186D01*
X43455269Y-39371187D01*
X43455269Y-39371188D01*
X43281464Y-39464089D01*
X43281453Y-39464096D01*
X43129125Y-39589109D01*
X43129109Y-39589125D01*
X43004096Y-39741453D01*
X43004091Y-39741460D01*
X43004090Y-39741462D01*
X42911186Y-39915273D01*
X42898205Y-39958066D01*
X42853974Y-40103871D01*
X42834659Y-40299995D01*
X42834659Y-40300004D01*
X42853974Y-40496128D01*
X42877956Y-40575185D01*
X42911186Y-40684727D01*
X43004090Y-40858538D01*
X43004094Y-40858542D01*
X43004096Y-40858546D01*
X43129109Y-41010874D01*
X43129112Y-41010877D01*
X43129117Y-41010883D01*
X43241036Y-41102733D01*
X43246172Y-41106948D01*
X43254830Y-41123148D01*
X43249498Y-41140726D01*
X43233298Y-41149384D01*
X43230946Y-41149500D01*
X42478347Y-41149500D01*
X42461376Y-41142471D01*
X42162963Y-40844058D01*
X42155934Y-40827087D01*
X42158768Y-40815773D01*
X42228814Y-40684727D01*
X42286024Y-40496132D01*
X42286024Y-40496130D01*
X42286025Y-40496128D01*
X42305341Y-40300004D01*
X42305341Y-40299995D01*
X42286025Y-40103871D01*
X42283282Y-40094830D01*
X42228814Y-39915273D01*
X42135910Y-39741462D01*
X42048797Y-39635315D01*
X42010890Y-39589125D01*
X42010887Y-39589122D01*
X42010883Y-39589117D01*
X42010877Y-39589112D01*
X42010874Y-39589109D01*
X41858546Y-39464096D01*
X41858542Y-39464094D01*
X41858538Y-39464090D01*
X41684727Y-39371186D01*
X41575185Y-39337956D01*
X41496128Y-39313974D01*
X41300005Y-39294659D01*
X41299995Y-39294659D01*
X41103871Y-39313974D01*
X40994326Y-39347205D01*
X40915273Y-39371186D01*
X40915269Y-39371187D01*
X40915269Y-39371188D01*
X40741464Y-39464089D01*
X40741453Y-39464096D01*
X40589125Y-39589109D01*
X40589109Y-39589125D01*
X40464096Y-39741453D01*
X40464091Y-39741460D01*
X40464090Y-39741462D01*
X40371186Y-39915273D01*
X40358205Y-39958066D01*
X40313974Y-40103871D01*
X40294659Y-40299995D01*
X40294659Y-40300004D01*
X40313974Y-40496128D01*
X40337956Y-40575185D01*
X40371186Y-40684727D01*
X40464090Y-40858538D01*
X40464094Y-40858542D01*
X40464096Y-40858546D01*
X40589109Y-41010874D01*
X40589112Y-41010877D01*
X40589117Y-41010883D01*
X40589122Y-41010887D01*
X40589125Y-41010890D01*
X40728777Y-41125500D01*
X40741462Y-41135910D01*
X40915273Y-41228814D01*
X41094830Y-41283282D01*
X41103871Y-41286025D01*
X41299995Y-41305341D01*
X41300000Y-41305341D01*
X41300005Y-41305341D01*
X41496128Y-41286025D01*
X41496130Y-41286024D01*
X41496132Y-41286024D01*
X41684727Y-41228814D01*
X41815773Y-41158767D01*
X41834054Y-41156967D01*
X41844058Y-41162963D01*
X42089624Y-41408529D01*
X42096653Y-41425500D01*
X42089624Y-41442471D01*
X42072653Y-41449500D01*
X40238347Y-41449500D01*
X40221376Y-41442471D01*
X39622963Y-40844058D01*
X39615934Y-40827087D01*
X39618768Y-40815773D01*
X39688814Y-40684727D01*
X39746024Y-40496132D01*
X39746024Y-40496130D01*
X39746025Y-40496128D01*
X39765341Y-40300004D01*
X39765341Y-40299995D01*
X39746025Y-40103871D01*
X39743282Y-40094830D01*
X39688814Y-39915273D01*
X39595910Y-39741462D01*
X39508797Y-39635315D01*
X39470890Y-39589125D01*
X39470887Y-39589122D01*
X39470883Y-39589117D01*
X39470877Y-39589112D01*
X39470874Y-39589109D01*
X39318546Y-39464096D01*
X39318542Y-39464094D01*
X39318538Y-39464090D01*
X39144727Y-39371186D01*
X39035185Y-39337956D01*
X38956128Y-39313974D01*
X38760005Y-39294659D01*
X38759995Y-39294659D01*
X38563871Y-39313974D01*
X38454326Y-39347205D01*
X38375273Y-39371186D01*
X38375269Y-39371187D01*
X38375269Y-39371188D01*
X38201464Y-39464089D01*
X38201453Y-39464096D01*
X38049125Y-39589109D01*
X38049109Y-39589125D01*
X37924096Y-39741453D01*
X37924091Y-39741460D01*
X37924090Y-39741462D01*
X37831186Y-39915273D01*
X37818205Y-39958066D01*
X37773974Y-40103871D01*
X37754659Y-40299995D01*
X37754659Y-40300004D01*
X37773974Y-40496128D01*
X37797956Y-40575185D01*
X37831186Y-40684727D01*
X37924090Y-40858538D01*
X37924094Y-40858542D01*
X37924096Y-40858546D01*
X38049109Y-41010874D01*
X38049112Y-41010877D01*
X38049117Y-41010883D01*
X38049122Y-41010887D01*
X38049125Y-41010890D01*
X38188777Y-41125500D01*
X38201462Y-41135910D01*
X38375273Y-41228814D01*
X38554830Y-41283282D01*
X38563871Y-41286025D01*
X38759995Y-41305341D01*
X38760000Y-41305341D01*
X38760005Y-41305341D01*
X38956128Y-41286025D01*
X38956130Y-41286024D01*
X38956132Y-41286024D01*
X39144727Y-41228814D01*
X39275773Y-41158767D01*
X39294054Y-41156967D01*
X39304058Y-41162963D01*
X39942459Y-41801364D01*
X39942472Y-41801379D01*
X40007264Y-41866170D01*
X40041595Y-41880390D01*
X40090145Y-41900501D01*
X40090146Y-41900501D01*
X40182645Y-41900501D01*
X40182653Y-41900500D01*
X52177347Y-41900500D01*
X52177355Y-41900501D01*
X52180145Y-41900501D01*
X52269856Y-41900501D01*
X52296837Y-41889323D01*
X52328460Y-41876225D01*
X52352736Y-41866170D01*
X52416170Y-41802736D01*
X52416170Y-41802734D01*
X53116170Y-41102736D01*
X53150500Y-41019855D01*
X53150500Y-40930146D01*
X53150500Y-39958066D01*
X53157528Y-39941096D01*
X54227734Y-38870890D01*
X54227736Y-38870890D01*
X54291170Y-38807456D01*
X54302875Y-38779198D01*
X54311832Y-38757574D01*
X54311832Y-38757573D01*
X54325501Y-38724575D01*
X54325501Y-38632937D01*
X54325500Y-38632923D01*
X54325500Y-36474500D01*
X54332529Y-36457529D01*
X54349500Y-36450500D01*
X54914816Y-36450500D01*
X54914820Y-36450500D01*
X54958722Y-36441767D01*
X55008504Y-36408504D01*
X55041767Y-36358722D01*
X55050500Y-36314820D01*
X55050500Y-34585180D01*
X55041767Y-34541278D01*
X55041767Y-34541277D01*
X55008505Y-34491498D01*
X55008504Y-34491496D01*
X54995084Y-34482529D01*
X54958722Y-34458232D01*
X54914824Y-34449500D01*
X54914820Y-34449500D01*
X53378347Y-34449500D01*
X53361376Y-34442471D01*
X52932529Y-34013624D01*
X52925500Y-33996653D01*
X52925500Y-31497653D01*
X52925501Y-31497644D01*
X52925501Y-31405145D01*
X52902451Y-31349500D01*
X52899001Y-31341170D01*
X52891170Y-31322264D01*
X52861377Y-31292471D01*
X52826379Y-31257472D01*
X52826364Y-31257459D01*
X52241170Y-30672265D01*
X52241170Y-30672264D01*
X52185375Y-30616469D01*
X52178347Y-30599500D01*
X52185376Y-30582529D01*
X52202347Y-30575500D01*
X53049018Y-30575500D01*
X53065989Y-30582529D01*
X53071984Y-30592532D01*
X53121186Y-30754727D01*
X53214090Y-30928538D01*
X53214094Y-30928542D01*
X53214096Y-30928546D01*
X53339109Y-31080874D01*
X53339112Y-31080877D01*
X53339117Y-31080883D01*
X53339122Y-31080887D01*
X53339125Y-31080890D01*
X53476546Y-31193669D01*
X53491462Y-31205910D01*
X53665273Y-31298814D01*
X53832368Y-31349502D01*
X53853871Y-31356025D01*
X54049995Y-31375341D01*
X54050000Y-31375341D01*
X54050005Y-31375341D01*
X54246128Y-31356025D01*
X54246130Y-31356024D01*
X54246132Y-31356024D01*
X54434727Y-31298814D01*
X54608538Y-31205910D01*
X54760883Y-31080883D01*
X54885910Y-30928538D01*
X54978814Y-30754727D01*
X55036024Y-30566132D01*
X55036024Y-30566130D01*
X55036025Y-30566128D01*
X55055341Y-30370000D01*
X55055341Y-30369995D01*
X55036025Y-30173871D01*
X55021048Y-30124500D01*
X54978814Y-29985273D01*
X54885910Y-29811462D01*
X54885903Y-29811453D01*
X54760890Y-29659125D01*
X54760887Y-29659122D01*
X54760883Y-29659117D01*
X54760877Y-29659112D01*
X54760874Y-29659109D01*
X54608546Y-29534096D01*
X54608542Y-29534094D01*
X54608538Y-29534090D01*
X54434727Y-29441186D01*
X54325185Y-29407956D01*
X54246128Y-29383974D01*
X54050005Y-29364659D01*
X54049995Y-29364659D01*
X53853871Y-29383974D01*
X53744326Y-29417205D01*
X53665273Y-29441186D01*
X53665269Y-29441187D01*
X53665269Y-29441188D01*
X53491464Y-29534089D01*
X53491453Y-29534096D01*
X53339125Y-29659109D01*
X53339109Y-29659125D01*
X53214096Y-29811453D01*
X53214091Y-29811460D01*
X53214090Y-29811462D01*
X53121186Y-29985273D01*
X53106334Y-30034234D01*
X53084119Y-30107467D01*
X53072465Y-30121666D01*
X53061152Y-30124500D01*
X50155144Y-30124500D01*
X50072266Y-30158828D01*
X49691471Y-30539623D01*
X49674500Y-30546652D01*
X49657529Y-30539623D01*
X49650500Y-30522652D01*
X49650500Y-29021819D01*
X49651318Y-29015608D01*
X49655500Y-28999999D01*
X49655500Y-27024500D01*
X49662529Y-27007529D01*
X49679500Y-27000500D01*
X55575500Y-27000500D01*
X55592471Y-27007529D01*
X55599500Y-27024500D01*
X55599500Y-42975500D01*
X55592471Y-42992471D01*
X55575500Y-42999500D01*
X14424500Y-42999500D01*
X14407529Y-42992471D01*
X14400500Y-42975500D01*
X14400500Y-35814234D01*
X19679500Y-35814234D01*
X19679500Y-35965766D01*
X19695560Y-36025704D01*
X19716938Y-36105491D01*
X19718719Y-36112135D01*
X19794485Y-36243365D01*
X19901635Y-36350515D01*
X20032865Y-36426281D01*
X20179234Y-36465500D01*
X20179235Y-36465500D01*
X20330765Y-36465500D01*
X20330766Y-36465500D01*
X20477135Y-36426281D01*
X20608365Y-36350515D01*
X20715515Y-36243365D01*
X20791281Y-36112135D01*
X20830500Y-35965766D01*
X20830500Y-35814234D01*
X20791281Y-35667865D01*
X20715515Y-35536635D01*
X20608365Y-35429485D01*
X20477135Y-35353719D01*
X20477134Y-35353718D01*
X20477133Y-35353718D01*
X20384338Y-35328854D01*
X20330766Y-35314500D01*
X20179234Y-35314500D01*
X20140016Y-35325008D01*
X20032866Y-35353718D01*
X19901635Y-35429485D01*
X19794485Y-35536635D01*
X19718718Y-35667866D01*
X19698478Y-35743405D01*
X19679500Y-35814234D01*
X14400500Y-35814234D01*
X14400500Y-30034234D01*
X19679500Y-30034234D01*
X19679500Y-30185766D01*
X19687160Y-30214354D01*
X19718146Y-30330000D01*
X19718719Y-30332135D01*
X19794485Y-30463365D01*
X19901635Y-30570515D01*
X20032865Y-30646281D01*
X20179234Y-30685500D01*
X20179235Y-30685500D01*
X20330765Y-30685500D01*
X20330766Y-30685500D01*
X20477135Y-30646281D01*
X20608365Y-30570515D01*
X20715515Y-30463365D01*
X20791281Y-30332135D01*
X20830500Y-30185766D01*
X20830500Y-30034234D01*
X20791281Y-29887865D01*
X20715515Y-29756635D01*
X20608365Y-29649485D01*
X20477135Y-29573719D01*
X20477134Y-29573718D01*
X20477133Y-29573718D01*
X20384338Y-29548854D01*
X20330766Y-29534500D01*
X20179234Y-29534500D01*
X20140016Y-29545008D01*
X20032866Y-29573718D01*
X19901635Y-29649485D01*
X19794485Y-29756635D01*
X19718718Y-29887866D01*
X19696189Y-29971950D01*
X19679500Y-30034234D01*
X14400500Y-30034234D01*
X14400500Y-27024500D01*
X14407529Y-27007529D01*
X14424500Y-27000500D01*
X24320500Y-27000500D01*
X24337471Y-27007529D01*
G37*
G04 #@! TD.AperFunction*
G04 #@! TA.AperFunction,Conductor*
G36*
X30498478Y-32354367D02*
G01*
X30505211Y-32367583D01*
X30514353Y-32425303D01*
X30514353Y-32425304D01*
X30571947Y-32538338D01*
X30571948Y-32538339D01*
X30571950Y-32538342D01*
X30661658Y-32628050D01*
X30661660Y-32628051D01*
X30661661Y-32628052D01*
X30662769Y-32628617D01*
X30674697Y-32642586D01*
X30673254Y-32660898D01*
X30662769Y-32671383D01*
X30661661Y-32671947D01*
X30571947Y-32761661D01*
X30514354Y-32874693D01*
X30494508Y-33000000D01*
X30514354Y-33125306D01*
X30571947Y-33238338D01*
X30571948Y-33238339D01*
X30571950Y-33238342D01*
X30661658Y-33328050D01*
X30661660Y-33328051D01*
X30661661Y-33328052D01*
X30774693Y-33385645D01*
X30774694Y-33385645D01*
X30774696Y-33385646D01*
X30900000Y-33405492D01*
X31025304Y-33385646D01*
X31065132Y-33365351D01*
X31083441Y-33363910D01*
X31097410Y-33375839D01*
X31099730Y-33382981D01*
X31114353Y-33475303D01*
X31114353Y-33475304D01*
X31171947Y-33588338D01*
X31171948Y-33588339D01*
X31171950Y-33588342D01*
X31261658Y-33678050D01*
X31261660Y-33678051D01*
X31261661Y-33678052D01*
X31374693Y-33735645D01*
X31374694Y-33735645D01*
X31374696Y-33735646D01*
X31500000Y-33755492D01*
X31625304Y-33735646D01*
X31738342Y-33678050D01*
X31828050Y-33588342D01*
X31885646Y-33475304D01*
X31902206Y-33370745D01*
X31911804Y-33355084D01*
X31925911Y-33350500D01*
X40857439Y-33350500D01*
X40874410Y-33357529D01*
X43542585Y-36025704D01*
X43549614Y-36042675D01*
X43549614Y-36101961D01*
X43542585Y-36118932D01*
X43538272Y-36122066D01*
X43538299Y-36122103D01*
X43536774Y-36123210D01*
X43447061Y-36212923D01*
X43389468Y-36325955D01*
X43369622Y-36451262D01*
X43389468Y-36576568D01*
X43447061Y-36689600D01*
X43447062Y-36689601D01*
X43447064Y-36689604D01*
X43536772Y-36779312D01*
X43536774Y-36779313D01*
X43536775Y-36779314D01*
X43575638Y-36799116D01*
X43587567Y-36813084D01*
X43586126Y-36831396D01*
X43572158Y-36843325D01*
X43564742Y-36844500D01*
X26374500Y-36844500D01*
X26357529Y-36837471D01*
X26350500Y-36820500D01*
X26350500Y-35949500D01*
X26357529Y-35932529D01*
X26374500Y-35925500D01*
X28350700Y-35925500D01*
X28367671Y-35932529D01*
X28370801Y-35936840D01*
X28370840Y-35936813D01*
X28371948Y-35938338D01*
X28371950Y-35938342D01*
X28461658Y-36028050D01*
X28461660Y-36028051D01*
X28461661Y-36028052D01*
X28574693Y-36085645D01*
X28574694Y-36085645D01*
X28574696Y-36085646D01*
X28700000Y-36105492D01*
X28825304Y-36085646D01*
X28938342Y-36028050D01*
X29028050Y-35938342D01*
X29085646Y-35825304D01*
X29087578Y-35813103D01*
X29094288Y-35770745D01*
X29103885Y-35755084D01*
X29117992Y-35750500D01*
X30082008Y-35750500D01*
X30098979Y-35757529D01*
X30105712Y-35770745D01*
X30114353Y-35825303D01*
X30114353Y-35825304D01*
X30171947Y-35938338D01*
X30171948Y-35938339D01*
X30171950Y-35938342D01*
X30261658Y-36028050D01*
X30261660Y-36028051D01*
X30261661Y-36028052D01*
X30374693Y-36085645D01*
X30374694Y-36085645D01*
X30374696Y-36085646D01*
X30500000Y-36105492D01*
X30625304Y-36085646D01*
X30738342Y-36028050D01*
X30828050Y-35938342D01*
X30885646Y-35825304D01*
X30905492Y-35700000D01*
X30900402Y-35667865D01*
X30893253Y-35622726D01*
X30890189Y-35603381D01*
X30894476Y-35585521D01*
X30910138Y-35575924D01*
X30924789Y-35578244D01*
X30973140Y-35602880D01*
X30973141Y-35602880D01*
X30973143Y-35602881D01*
X31098447Y-35622727D01*
X31223751Y-35602881D01*
X31336789Y-35545285D01*
X31426497Y-35455577D01*
X31484093Y-35342539D01*
X31503939Y-35217235D01*
X31496604Y-35170924D01*
X31500891Y-35153062D01*
X31516553Y-35143465D01*
X31524058Y-35143464D01*
X31600000Y-35155492D01*
X31725304Y-35135646D01*
X31838342Y-35078050D01*
X31928050Y-34988342D01*
X31985646Y-34875304D01*
X32005492Y-34750000D01*
X31985646Y-34624696D01*
X31985645Y-34624694D01*
X31985645Y-34624693D01*
X31928052Y-34511661D01*
X31928051Y-34511660D01*
X31928050Y-34511658D01*
X31838342Y-34421950D01*
X31838339Y-34421948D01*
X31838338Y-34421947D01*
X31725306Y-34364354D01*
X31600000Y-34344508D01*
X31474693Y-34364354D01*
X31459919Y-34371883D01*
X31449023Y-34374499D01*
X31402355Y-34374499D01*
X31402347Y-34374500D01*
X28252347Y-34374500D01*
X28235376Y-34367471D01*
X28228347Y-34350500D01*
X28235376Y-34333529D01*
X28365445Y-34203460D01*
X28959286Y-33609617D01*
X28976256Y-33602589D01*
X28993225Y-33609617D01*
X29011658Y-33628050D01*
X29011660Y-33628051D01*
X29011661Y-33628052D01*
X29124693Y-33685645D01*
X29124694Y-33685645D01*
X29124696Y-33685646D01*
X29250000Y-33705492D01*
X29375304Y-33685646D01*
X29488342Y-33628050D01*
X29578050Y-33538342D01*
X29635646Y-33425304D01*
X29655492Y-33300000D01*
X29635646Y-33174696D01*
X29635645Y-33174694D01*
X29635645Y-33174693D01*
X29578052Y-33061661D01*
X29578051Y-33061660D01*
X29578050Y-33061658D01*
X29488342Y-32971950D01*
X29488339Y-32971948D01*
X29488338Y-32971947D01*
X29375306Y-32914354D01*
X29250000Y-32894508D01*
X29124693Y-32914354D01*
X29011661Y-32971947D01*
X28921946Y-33061662D01*
X28921946Y-33061663D01*
X28921843Y-33061865D01*
X28921727Y-33061963D01*
X28920837Y-33063189D01*
X28920542Y-33062974D01*
X28907870Y-33073788D01*
X28905153Y-33074496D01*
X28905149Y-33074496D01*
X28846538Y-33098773D01*
X28846539Y-33098774D01*
X28822263Y-33108830D01*
X28758829Y-33172263D01*
X28758830Y-33172264D01*
X28217984Y-33713110D01*
X28201013Y-33720139D01*
X28184042Y-33713110D01*
X28177013Y-33696139D01*
X28179629Y-33685243D01*
X28235645Y-33575306D01*
X28235645Y-33575305D01*
X28235646Y-33575304D01*
X28255492Y-33450000D01*
X28238729Y-33344165D01*
X28243018Y-33326304D01*
X28245457Y-33323446D01*
X28836376Y-32732529D01*
X28853347Y-32725500D01*
X29952347Y-32725500D01*
X29952355Y-32725501D01*
X29955145Y-32725501D01*
X30044856Y-32725501D01*
X30072644Y-32713989D01*
X30105211Y-32700500D01*
X30127736Y-32691170D01*
X30191170Y-32627736D01*
X30191170Y-32627734D01*
X30464537Y-32354366D01*
X30481507Y-32347338D01*
X30498478Y-32354367D01*
G37*
G04 #@! TD.AperFunction*
G04 #@! TA.AperFunction,Conductor*
G36*
X44167608Y-30232529D02*
G01*
X45211443Y-31276364D01*
X45211456Y-31276379D01*
X45257342Y-31322264D01*
X45276248Y-31341170D01*
X45296359Y-31349500D01*
X45359129Y-31375501D01*
X45359130Y-31375501D01*
X45451629Y-31375501D01*
X45451637Y-31375500D01*
X49776611Y-31375500D01*
X49776619Y-31375501D01*
X49779409Y-31375501D01*
X49869120Y-31375501D01*
X49910806Y-31358233D01*
X49931889Y-31349500D01*
X49952000Y-31341170D01*
X50015434Y-31277736D01*
X50015434Y-31277734D01*
X50018809Y-31274360D01*
X50018809Y-31274358D01*
X50058530Y-31234637D01*
X50075500Y-31227609D01*
X50092471Y-31234639D01*
X50099500Y-31251609D01*
X50099500Y-31950500D01*
X50092471Y-31967471D01*
X50075500Y-31974500D01*
X45277611Y-31974500D01*
X45260640Y-31967471D01*
X44390434Y-31097265D01*
X44390434Y-31097264D01*
X44327000Y-31033830D01*
X44326998Y-31033829D01*
X44326997Y-31033828D01*
X44299077Y-31022264D01*
X44244120Y-30999499D01*
X44244119Y-30999499D01*
X44154409Y-30999499D01*
X44151619Y-30999499D01*
X44151611Y-30999500D01*
X32469080Y-30999500D01*
X32452109Y-30992471D01*
X31906903Y-30447265D01*
X31906903Y-30447264D01*
X31843469Y-30383830D01*
X31843467Y-30383829D01*
X31843466Y-30383828D01*
X31810080Y-30370000D01*
X31760589Y-30349499D01*
X31760588Y-30349499D01*
X31670878Y-30349499D01*
X31668088Y-30349499D01*
X31668080Y-30349500D01*
X31424300Y-30349500D01*
X31407329Y-30342471D01*
X31404198Y-30338159D01*
X31404160Y-30338187D01*
X31403052Y-30336662D01*
X31403050Y-30336658D01*
X31332861Y-30266469D01*
X31325833Y-30249500D01*
X31332862Y-30232529D01*
X31349833Y-30225500D01*
X44150637Y-30225500D01*
X44167608Y-30232529D01*
G37*
G04 #@! TD.AperFunction*
G04 #@! TA.AperFunction,Conductor*
G36*
X30740122Y-30802529D02*
G01*
X30744535Y-30808603D01*
X30746950Y-30813342D01*
X30836658Y-30903050D01*
X30836660Y-30903051D01*
X30836661Y-30903052D01*
X30949693Y-30960645D01*
X30949694Y-30960645D01*
X30949696Y-30960646D01*
X31075000Y-30980492D01*
X31200304Y-30960646D01*
X31313342Y-30903050D01*
X31403050Y-30813342D01*
X31403054Y-30813334D01*
X31404160Y-30811813D01*
X31404623Y-30812149D01*
X31416877Y-30801677D01*
X31424300Y-30800500D01*
X31612386Y-30800500D01*
X31629357Y-30807529D01*
X32080357Y-31258529D01*
X32087386Y-31275500D01*
X32080357Y-31292471D01*
X32063386Y-31299500D01*
X30187515Y-31299500D01*
X30170544Y-31292471D01*
X30166131Y-31286396D01*
X30161019Y-31276364D01*
X30157464Y-31269386D01*
X30128052Y-31211661D01*
X30128051Y-31211660D01*
X30128050Y-31211658D01*
X30038342Y-31121950D01*
X30038339Y-31121948D01*
X30038338Y-31121947D01*
X29925306Y-31064354D01*
X29872785Y-31056035D01*
X29824419Y-31048375D01*
X29808758Y-31038778D01*
X29804469Y-31020917D01*
X29811201Y-31007702D01*
X29818122Y-31000781D01*
X29822690Y-30997733D01*
X29822523Y-30997483D01*
X29824483Y-30996173D01*
X29824484Y-30996171D01*
X29824488Y-30996170D01*
X29887922Y-30932736D01*
X29887922Y-30932734D01*
X29891298Y-30929358D01*
X30018129Y-30802529D01*
X30035099Y-30795500D01*
X30723151Y-30795500D01*
X30740122Y-30802529D01*
G37*
G04 #@! TD.AperFunction*
G04 #@! TA.AperFunction,Conductor*
G36*
X47642471Y-29162529D02*
G01*
X47649500Y-29179500D01*
X47649500Y-30575500D01*
X47642471Y-30592471D01*
X47625500Y-30599500D01*
X45974833Y-30599500D01*
X45957862Y-30592471D01*
X45950833Y-30575500D01*
X45957861Y-30558530D01*
X45978050Y-30538342D01*
X46035646Y-30425304D01*
X46055492Y-30300000D01*
X46035646Y-30174696D01*
X46035645Y-30174694D01*
X46035645Y-30174693D01*
X45978052Y-30061661D01*
X45978051Y-30061660D01*
X45978050Y-30061658D01*
X45888342Y-29971950D01*
X45888339Y-29971948D01*
X45888338Y-29971947D01*
X45775306Y-29914354D01*
X45650000Y-29894508D01*
X45524693Y-29914354D01*
X45429487Y-29962864D01*
X45411174Y-29964305D01*
X45401620Y-29958451D01*
X44715434Y-29272265D01*
X44715434Y-29272264D01*
X44652000Y-29208830D01*
X44651995Y-29208828D01*
X44634722Y-29201673D01*
X44621734Y-29188684D01*
X44621734Y-29170315D01*
X44634723Y-29157327D01*
X44643907Y-29155500D01*
X47625500Y-29155500D01*
X47642471Y-29162529D01*
G37*
G04 #@! TD.AperFunction*
G04 #@! TD*
M02*
