G04 #@! TF.GenerationSoftware,KiCad,Pcbnew,8.0.7*
G04 #@! TF.CreationDate,2025-01-11T17:44:09-05:00*
G04 #@! TF.ProjectId,panel,70616e65-6c2e-46b6-9963-61645f706362,rev?*
G04 #@! TF.SameCoordinates,Original*
G04 #@! TF.FileFunction,Copper,L2,Bot*
G04 #@! TF.FilePolarity,Positive*
%FSLAX46Y46*%
G04 Gerber Fmt 4.6, Leading zero omitted, Abs format (unit mm)*
G04 Created by KiCad (PCBNEW 8.0.7) date 2025-01-11 17:44:09*
%MOMM*%
%LPD*%
G01*
G04 APERTURE LIST*
G04 Aperture macros list*
%AMFreePoly0*
4,1,5,12.500000,-1.000000,-12.500000,-1.000000,-12.500000,1.000000,12.500000,1.000000,12.500000,-1.000000,12.500000,-1.000000,$1*%
G04 Aperture macros list end*
G04 #@! TA.AperFunction,ComponentPad*
%ADD10R,1.700000X1.700000*%
G04 #@! TD*
G04 #@! TA.AperFunction,ComponentPad*
%ADD11O,1.700000X1.700000*%
G04 #@! TD*
G04 #@! TA.AperFunction,ComponentPad*
%ADD12O,2.100000X1.000000*%
G04 #@! TD*
G04 #@! TA.AperFunction,ComponentPad*
%ADD13O,1.800000X1.000000*%
G04 #@! TD*
G04 #@! TA.AperFunction,SMDPad,CuDef*
%ADD14FreePoly0,180.000000*%
G04 #@! TD*
G04 #@! TA.AperFunction,SMDPad,CuDef*
%ADD15C,1.000000*%
G04 #@! TD*
G04 #@! TA.AperFunction,ViaPad*
%ADD16C,0.450000*%
G04 #@! TD*
G04 #@! TA.AperFunction,Conductor*
%ADD17C,0.150000*%
G04 #@! TD*
G04 #@! TA.AperFunction,Conductor*
%ADD18C,0.200000*%
G04 #@! TD*
G04 APERTURE END LIST*
D10*
G04 #@! TO.P,J3,1,Pin_1*
G04 #@! TO.N,Board_0-/D+*
X17730000Y-30670000D03*
D11*
G04 #@! TO.P,J3,2,Pin_2*
G04 #@! TO.N,Board_0-/D-*
X20270000Y-30670000D03*
G04 #@! TD*
D12*
G04 #@! TO.P,P1,S1,SHIELD*
G04 #@! TO.N,Board_0-GND*
X20765000Y-33530000D03*
D13*
X16585000Y-33530000D03*
D12*
X20765000Y-42170000D03*
D13*
X16585000Y-42170000D03*
G04 #@! TD*
D10*
G04 #@! TO.P,J4,1,Pin_1*
G04 #@! TO.N,Board_0-/AUX1 (VDC)*
X23800000Y-40380000D03*
D11*
G04 #@! TO.P,J4,2,Pin_2*
G04 #@! TO.N,Board_0-/AUX2 (VDC)*
X26340000Y-40380000D03*
G04 #@! TO.P,J4,3,Pin_3*
G04 #@! TO.N,Board_0-/AUX3*
X28880000Y-40380000D03*
G04 #@! TO.P,J4,4,Pin_4*
G04 #@! TO.N,Board_0-/AUX4*
X31420000Y-40380000D03*
G04 #@! TO.P,J4,5,Pin_5*
G04 #@! TO.N,Board_0-/AUX10*
X33960000Y-40380000D03*
G04 #@! TO.P,J4,6,Pin_6*
G04 #@! TO.N,Board_0-/AUX11*
X36500000Y-40380000D03*
G04 #@! TO.P,J4,7,Pin_7*
G04 #@! TO.N,Board_0-/AUX12*
X39040000Y-40380000D03*
G04 #@! TO.P,J4,8,Pin_8*
G04 #@! TO.N,Board_0-/CAP+*
X41580000Y-40380000D03*
G04 #@! TO.P,J4,9,Pin_9*
G04 #@! TO.N,Board_0-/MOTOR_A*
X44120000Y-40380000D03*
G04 #@! TO.P,J4,10,Pin_10*
G04 #@! TO.N,Board_0-/MOTOR_B*
X46660000Y-40380000D03*
G04 #@! TO.P,J4,11,Pin_11*
G04 #@! TO.N,Board_0-VDC*
X49200000Y-40380000D03*
G04 #@! TO.P,J4,12,Pin_12*
G04 #@! TO.N,Board_0-VCC*
X51740000Y-40380000D03*
G04 #@! TO.P,J4,13,Pin_13*
G04 #@! TO.N,Board_0-GND*
X54280000Y-40380000D03*
G04 #@! TD*
D10*
G04 #@! TO.P,J2,1,Pin_1*
G04 #@! TO.N,Board_0-/AUX11*
X54050000Y-35450000D03*
D11*
G04 #@! TO.P,J2,2,Pin_2*
G04 #@! TO.N,Board_0-GND*
X54050000Y-32910000D03*
G04 #@! TO.P,J2,3,Pin_3*
G04 #@! TO.N,Board_0-/AUX12*
X54050000Y-30370000D03*
G04 #@! TD*
D10*
G04 #@! TO.P,J8,1,Pin_1*
G04 #@! TO.N,Board_0-/TRACK_LEFT*
X51250000Y-29750000D03*
D14*
X39600000Y-28000000D03*
D10*
X27950000Y-29750000D03*
G04 #@! TO.P,J8,2,Pin_2*
G04 #@! TO.N,Board_0-/TRACK_RIGHT*
X51250000Y-36250000D03*
D14*
X39600000Y-38000000D03*
D10*
X27950000Y-36250000D03*
G04 #@! TD*
D15*
G04 #@! TO.P,KiKit_FID_B_3,*
G04 #@! TO.N,*
X10000000Y-66150000D03*
G04 #@! TD*
G04 #@! TO.P,KiKit_FID_B_4,*
G04 #@! TO.N,*
X60000000Y-66150000D03*
G04 #@! TD*
G04 #@! TO.P,KiKit_FID_B_2,*
G04 #@! TO.N,*
X60000000Y-3850000D03*
G04 #@! TD*
G04 #@! TO.P,KiKit_FID_B_1,*
G04 #@! TO.N,*
X10000000Y-3850000D03*
G04 #@! TD*
D16*
G04 #@! TO.N,Board_0-+5V*
X29290000Y-30460000D03*
X49500000Y-30670000D03*
G04 #@! TO.N,Board_0-/AUX1 (VDC)*
X34150000Y-34730000D03*
G04 #@! TO.N,Board_0-/AUX11*
X30120000Y-30780000D03*
G04 #@! TO.N,Board_0-/AUX12*
X52760000Y-36730000D03*
X30120000Y-30080000D03*
G04 #@! TO.N,Board_0-/AUX2 (VDC)*
X33846481Y-35278041D03*
G04 #@! TO.N,Board_0-/AUX5 (VDC)*
X30690000Y-36340000D03*
G04 #@! TO.N,Board_0-/AUX6 (VDC)*
X31364997Y-36350000D03*
G04 #@! TO.N,Board_0-/AUX7 (VDC)*
X32700000Y-36340000D03*
G04 #@! TO.N,Board_0-/AUX8 (VDC)*
X31990000Y-36350000D03*
G04 #@! TO.N,Board_0-/CAP+*
X34070000Y-33390000D03*
X43910000Y-36450000D03*
G04 #@! TO.N,Board_0-/D+*
X31970000Y-31070000D03*
X25480000Y-34470000D03*
G04 #@! TO.N,Board_0-/D-*
X25966724Y-34077917D03*
X31980000Y-31740000D03*
G04 #@! TO.N,Board_0-/MOTOR_A*
X33540000Y-33010000D03*
X44535003Y-36450000D03*
G04 #@! TO.N,Board_0-/MOTOR_B*
X45160006Y-36450000D03*
X33550000Y-32300000D03*
G04 #@! TO.N,Board_0-/TRACK_RIGHT*
X33330000Y-35630000D03*
X31330000Y-35630000D03*
G04 #@! TO.N,Board_0-GND*
X24500000Y-35940000D03*
X33840000Y-30950000D03*
X33610000Y-36310000D03*
X29720000Y-31890000D03*
G04 #@! TO.N,Board_0-VCC*
X31990000Y-32710000D03*
X46409843Y-36429519D03*
G04 #@! TO.N,Board_0-VDC*
X28450000Y-33490000D03*
X45784922Y-36439585D03*
X31980000Y-33510000D03*
G04 #@! TD*
D17*
G04 #@! TO.N,Board_0-+5V*
X29290000Y-30230000D02*
X29290000Y-30460000D01*
X44729264Y-29605000D02*
X29915000Y-29605000D01*
X29915000Y-29605000D02*
X29290000Y-30230000D01*
X49325000Y-30845000D02*
X45969264Y-30845000D01*
X49500000Y-30670000D02*
X49325000Y-30845000D01*
X45969264Y-30845000D02*
X44729264Y-29605000D01*
G04 #@! TO.N,Board_0-/AUX1 (VDC)*
X26040000Y-35365736D02*
X26040000Y-38140000D01*
X34070000Y-34650000D02*
X26755736Y-34650000D01*
X34150000Y-34730000D02*
X34070000Y-34650000D01*
X26755736Y-34650000D02*
X26040000Y-35365736D01*
X26040000Y-38140000D02*
X23800000Y-40380000D01*
G04 #@! TO.N,Board_0-/AUX11*
X55125000Y-32425000D02*
X55125000Y-34375000D01*
X54100000Y-36100000D02*
X53115000Y-37085000D01*
X53115000Y-40949544D02*
X52309544Y-41755000D01*
X45698984Y-31445000D02*
X54145000Y-31445000D01*
X55125000Y-34375000D02*
X54050000Y-35450000D01*
X53115000Y-37085000D02*
X53115000Y-40949544D01*
X37875000Y-41755000D02*
X36500000Y-40380000D01*
X52309544Y-41755000D02*
X37875000Y-41755000D01*
X44458984Y-30205000D02*
X45698984Y-31445000D01*
X30695000Y-30205000D02*
X44458984Y-30205000D01*
X54100000Y-35500000D02*
X54100000Y-36100000D01*
X30120000Y-30780000D02*
X30695000Y-30205000D01*
X54145000Y-31445000D02*
X55125000Y-32425000D01*
G04 #@! TO.N,Board_0-/AUX12*
X52815000Y-36785000D02*
X52815000Y-40825280D01*
X52815000Y-40825280D02*
X52185280Y-41455000D01*
X52760000Y-36730000D02*
X52815000Y-36785000D01*
X52185280Y-41455000D02*
X40115000Y-41455000D01*
X40115000Y-41455000D02*
X39040000Y-40380000D01*
X44583248Y-29905000D02*
X45823248Y-31145000D01*
X30120000Y-30080000D02*
X30295000Y-29905000D01*
X53275000Y-31145000D02*
X54050000Y-30370000D01*
X30295000Y-29905000D02*
X44583248Y-29905000D01*
X45823248Y-31145000D02*
X53275000Y-31145000D01*
G04 #@! TO.N,Board_0-/AUX2 (VDC)*
X33518440Y-34950000D02*
X26880000Y-34950000D01*
X26340000Y-35490000D02*
X26340000Y-40380000D01*
X33846481Y-35278041D02*
X33518440Y-34950000D01*
X26880000Y-34950000D02*
X26340000Y-35490000D01*
G04 #@! TO.N,Board_0-/CAP+*
X43910000Y-35942456D02*
X41112544Y-33145000D01*
X43910000Y-36450000D02*
X43910000Y-35942456D01*
X41112544Y-33145000D02*
X34315000Y-33145000D01*
X34315000Y-33145000D02*
X34070000Y-33390000D01*
G04 #@! TO.N,Board_0-/D+*
X25480000Y-34470000D02*
X25480000Y-33828248D01*
X25480000Y-33828248D02*
X25793248Y-33515000D01*
X25795000Y-33515000D02*
X26860000Y-32450000D01*
X26860000Y-32450000D02*
X30590000Y-32450000D01*
X30590000Y-32450000D02*
X31970000Y-31070000D01*
X25793248Y-33515000D02*
X25795000Y-33515000D01*
G04 #@! TO.N,Board_0-/D-*
X25966724Y-34077917D02*
X25966724Y-33853276D01*
X25966724Y-33853276D02*
X27070000Y-32750000D01*
X27070000Y-32750000D02*
X30714264Y-32750000D01*
X30714264Y-32750000D02*
X31724264Y-31740000D01*
X31724264Y-31740000D02*
X31980000Y-31740000D01*
D18*
G04 #@! TO.N,Board_0-/MOTOR_A*
X33730000Y-32820000D02*
X33540000Y-33010000D01*
X41247164Y-32820000D02*
X33730000Y-32820000D01*
X44535003Y-36450000D02*
X44535003Y-36107839D01*
X44535003Y-36107839D02*
X41247164Y-32820000D01*
G04 #@! TO.N,Board_0-/MOTOR_B*
X45160006Y-36450000D02*
X45160006Y-36237868D01*
X41392138Y-32470000D02*
X33720000Y-32470000D01*
X33720000Y-32470000D02*
X33550000Y-32300000D01*
X45160006Y-36237868D02*
X41392138Y-32470000D01*
D17*
G04 #@! TO.N,Board_0-/TRACK_RIGHT*
X28570000Y-35630000D02*
X27950000Y-36250000D01*
X31330000Y-35630000D02*
X33330000Y-35630000D01*
X31330000Y-35630000D02*
X28570000Y-35630000D01*
G04 #@! TO.N,Board_0-VCC*
X45770607Y-35964585D02*
X45981674Y-35964585D01*
X45981674Y-35964585D02*
X46409843Y-36392754D01*
X32006992Y-32710000D02*
X33191992Y-31525000D01*
X31990000Y-32710000D02*
X32006992Y-32710000D01*
X34191016Y-31845000D02*
X41651022Y-31845000D01*
X41651022Y-31845000D02*
X45770607Y-35964585D01*
X33191992Y-31525000D02*
X33871016Y-31525000D01*
X46409843Y-36392754D02*
X46409843Y-36429519D01*
X33871016Y-31525000D02*
X34191016Y-31845000D01*
G04 #@! TO.N,Board_0-VDC*
X33353248Y-31825000D02*
X33746752Y-31825000D01*
X41526758Y-32145000D02*
X45784922Y-36403164D01*
X33746752Y-31825000D02*
X34025000Y-32103248D01*
X31980000Y-33510000D02*
X31960000Y-33530000D01*
X31960000Y-33530000D02*
X28490000Y-33530000D01*
X33075000Y-32103248D02*
X33353248Y-31825000D01*
X33075000Y-32415000D02*
X33075000Y-32103248D01*
X34055000Y-32145000D02*
X41526758Y-32145000D01*
X34025000Y-32103248D02*
X34025000Y-32115000D01*
X31980000Y-33510000D02*
X33075000Y-32415000D01*
X28490000Y-33530000D02*
X28450000Y-33490000D01*
X31970000Y-33500000D02*
X31950000Y-33500000D01*
X34025000Y-32115000D02*
X34055000Y-32145000D01*
X31980000Y-33510000D02*
X31970000Y-33500000D01*
X45784922Y-36403164D02*
X45784922Y-36439585D01*
G04 #@! TD*
G04 #@! TA.AperFunction,Conductor*
G04 #@! TO.N,Board_0-GND*
G36*
X26937471Y-27007529D02*
G01*
X26944500Y-27024500D01*
X26944500Y-28999999D01*
X26948682Y-29015608D01*
X26949500Y-29021819D01*
X26949500Y-30614824D01*
X26958232Y-30658722D01*
X26983545Y-30696604D01*
X26991496Y-30708504D01*
X27004705Y-30717330D01*
X27041277Y-30741767D01*
X27084015Y-30750268D01*
X27085180Y-30750500D01*
X27085184Y-30750500D01*
X28814816Y-30750500D01*
X28814820Y-30750500D01*
X28858722Y-30741767D01*
X28908504Y-30708504D01*
X28919015Y-30692772D01*
X28934287Y-30682567D01*
X28952303Y-30686150D01*
X28960355Y-30695212D01*
X28961947Y-30698338D01*
X28961950Y-30698342D01*
X29051658Y-30788050D01*
X29051660Y-30788051D01*
X29051661Y-30788052D01*
X29164693Y-30845645D01*
X29164694Y-30845645D01*
X29164696Y-30845646D01*
X29290000Y-30865492D01*
X29415304Y-30845646D01*
X29528342Y-30788050D01*
X29618050Y-30698342D01*
X29675646Y-30585304D01*
X29695492Y-30460000D01*
X29675646Y-30334696D01*
X29675645Y-30334694D01*
X29675645Y-30334693D01*
X29625695Y-30236661D01*
X29624254Y-30218349D01*
X29630104Y-30208799D01*
X29687274Y-30151630D01*
X29704241Y-30144603D01*
X29721212Y-30151632D01*
X29727945Y-30164848D01*
X29734353Y-30205303D01*
X29734353Y-30205304D01*
X29791947Y-30318338D01*
X29791948Y-30318339D01*
X29791950Y-30318342D01*
X29881658Y-30408050D01*
X29881660Y-30408051D01*
X29881661Y-30408052D01*
X29882769Y-30408617D01*
X29894697Y-30422586D01*
X29893254Y-30440898D01*
X29882769Y-30451383D01*
X29881661Y-30451947D01*
X29791947Y-30541661D01*
X29734354Y-30654693D01*
X29714508Y-30780000D01*
X29734354Y-30905306D01*
X29791947Y-31018338D01*
X29791948Y-31018339D01*
X29791950Y-31018342D01*
X29881658Y-31108050D01*
X29881660Y-31108051D01*
X29881661Y-31108052D01*
X29994693Y-31165645D01*
X29994694Y-31165645D01*
X29994696Y-31165646D01*
X30120000Y-31185492D01*
X30245304Y-31165646D01*
X30358342Y-31108050D01*
X30448050Y-31018342D01*
X30505646Y-30905304D01*
X30525492Y-30780000D01*
X30515566Y-30717329D01*
X30519853Y-30699468D01*
X30522300Y-30696604D01*
X30781377Y-30437529D01*
X30798347Y-30430500D01*
X44355637Y-30430500D01*
X44372608Y-30437529D01*
X45506443Y-31571364D01*
X45506456Y-31571379D01*
X45547549Y-31612471D01*
X45571248Y-31636170D01*
X45605579Y-31650390D01*
X45654129Y-31670501D01*
X45654130Y-31670501D01*
X45746629Y-31670501D01*
X45746637Y-31670500D01*
X54041653Y-31670500D01*
X54058624Y-31677529D01*
X54892471Y-32511376D01*
X54899500Y-32528347D01*
X54899500Y-34271653D01*
X54892471Y-34288624D01*
X54738624Y-34442471D01*
X54721653Y-34449500D01*
X53185175Y-34449500D01*
X53141277Y-34458232D01*
X53091498Y-34491494D01*
X53091494Y-34491498D01*
X53058232Y-34541277D01*
X53049500Y-34585175D01*
X53049500Y-36314824D01*
X53058232Y-36358722D01*
X53087115Y-36401947D01*
X53091496Y-36408504D01*
X53108165Y-36419642D01*
X53141277Y-36441767D01*
X53182666Y-36450000D01*
X53185180Y-36450500D01*
X53372653Y-36450500D01*
X53389624Y-36457529D01*
X53396653Y-36474500D01*
X53389624Y-36491471D01*
X53389623Y-36491471D01*
X53196829Y-36684263D01*
X53179859Y-36691292D01*
X53162888Y-36684262D01*
X53156154Y-36671046D01*
X53155680Y-36668051D01*
X53145646Y-36604696D01*
X53145645Y-36604694D01*
X53145645Y-36604693D01*
X53088052Y-36491661D01*
X53088051Y-36491660D01*
X53088050Y-36491658D01*
X52998342Y-36401950D01*
X52998339Y-36401948D01*
X52998338Y-36401947D01*
X52885306Y-36344354D01*
X52760000Y-36324508D01*
X52634693Y-36344354D01*
X52521661Y-36401947D01*
X52431947Y-36491661D01*
X52374354Y-36604693D01*
X52354508Y-36730000D01*
X52374354Y-36855306D01*
X52431947Y-36968338D01*
X52431948Y-36968339D01*
X52431950Y-36968342D01*
X52521658Y-37058050D01*
X52521660Y-37058051D01*
X52521662Y-37058053D01*
X52576395Y-37085940D01*
X52588325Y-37099907D01*
X52589500Y-37107324D01*
X52589500Y-39770946D01*
X52582471Y-39787917D01*
X52565500Y-39794946D01*
X52548529Y-39787917D01*
X52546948Y-39786172D01*
X52474919Y-39698405D01*
X52450883Y-39669117D01*
X52450877Y-39669112D01*
X52450874Y-39669109D01*
X52298546Y-39544096D01*
X52298542Y-39544094D01*
X52298538Y-39544090D01*
X52124727Y-39451186D01*
X52015185Y-39417956D01*
X51936128Y-39393974D01*
X51740005Y-39374659D01*
X51739995Y-39374659D01*
X51543871Y-39393974D01*
X51434326Y-39427205D01*
X51355273Y-39451186D01*
X51355269Y-39451187D01*
X51355269Y-39451188D01*
X51181464Y-39544089D01*
X51181453Y-39544096D01*
X51029125Y-39669109D01*
X51029109Y-39669125D01*
X50904096Y-39821453D01*
X50904091Y-39821460D01*
X50904090Y-39821462D01*
X50811186Y-39995273D01*
X50787205Y-40074326D01*
X50753974Y-40183871D01*
X50734659Y-40379995D01*
X50734659Y-40380004D01*
X50753974Y-40576128D01*
X50777956Y-40655185D01*
X50811186Y-40764727D01*
X50904090Y-40938538D01*
X50904094Y-40938542D01*
X50904096Y-40938546D01*
X51029109Y-41090874D01*
X51029112Y-41090877D01*
X51029117Y-41090883D01*
X51146172Y-41186948D01*
X51154830Y-41203148D01*
X51149498Y-41220726D01*
X51133298Y-41229384D01*
X51130946Y-41229500D01*
X49809054Y-41229500D01*
X49792083Y-41222471D01*
X49785054Y-41205500D01*
X49792083Y-41188529D01*
X49793828Y-41186948D01*
X49910883Y-41090883D01*
X50035910Y-40938538D01*
X50128814Y-40764727D01*
X50186024Y-40576132D01*
X50186024Y-40576130D01*
X50186025Y-40576128D01*
X50205341Y-40380004D01*
X50205341Y-40379995D01*
X50186025Y-40183871D01*
X50180149Y-40164500D01*
X50128814Y-39995273D01*
X50035910Y-39821462D01*
X50014149Y-39794946D01*
X49910890Y-39669125D01*
X49910885Y-39669120D01*
X49910883Y-39669117D01*
X49910877Y-39669112D01*
X49910874Y-39669109D01*
X49758546Y-39544096D01*
X49758542Y-39544094D01*
X49758538Y-39544090D01*
X49584727Y-39451186D01*
X49475185Y-39417956D01*
X49396128Y-39393974D01*
X49200005Y-39374659D01*
X49199995Y-39374659D01*
X49003871Y-39393974D01*
X48894326Y-39427205D01*
X48815273Y-39451186D01*
X48815269Y-39451187D01*
X48815269Y-39451188D01*
X48641464Y-39544089D01*
X48641453Y-39544096D01*
X48489125Y-39669109D01*
X48489109Y-39669125D01*
X48364096Y-39821453D01*
X48364091Y-39821460D01*
X48364090Y-39821462D01*
X48271186Y-39995273D01*
X48247205Y-40074326D01*
X48213974Y-40183871D01*
X48194659Y-40379995D01*
X48194659Y-40380004D01*
X48213974Y-40576128D01*
X48237956Y-40655185D01*
X48271186Y-40764727D01*
X48364090Y-40938538D01*
X48364094Y-40938542D01*
X48364096Y-40938546D01*
X48489109Y-41090874D01*
X48489112Y-41090877D01*
X48489117Y-41090883D01*
X48606172Y-41186948D01*
X48614830Y-41203148D01*
X48609498Y-41220726D01*
X48593298Y-41229384D01*
X48590946Y-41229500D01*
X47269054Y-41229500D01*
X47252083Y-41222471D01*
X47245054Y-41205500D01*
X47252083Y-41188529D01*
X47253828Y-41186948D01*
X47370883Y-41090883D01*
X47495910Y-40938538D01*
X47588814Y-40764727D01*
X47646024Y-40576132D01*
X47646024Y-40576130D01*
X47646025Y-40576128D01*
X47665341Y-40380004D01*
X47665341Y-40379995D01*
X47646025Y-40183871D01*
X47640149Y-40164500D01*
X47588814Y-39995273D01*
X47495910Y-39821462D01*
X47474149Y-39794946D01*
X47370890Y-39669125D01*
X47370885Y-39669120D01*
X47370883Y-39669117D01*
X47370877Y-39669112D01*
X47370874Y-39669109D01*
X47218546Y-39544096D01*
X47218542Y-39544094D01*
X47218538Y-39544090D01*
X47044727Y-39451186D01*
X46935185Y-39417956D01*
X46856128Y-39393974D01*
X46660005Y-39374659D01*
X46659995Y-39374659D01*
X46463871Y-39393974D01*
X46354326Y-39427205D01*
X46275273Y-39451186D01*
X46275269Y-39451187D01*
X46275269Y-39451188D01*
X46101464Y-39544089D01*
X46101453Y-39544096D01*
X45949125Y-39669109D01*
X45949109Y-39669125D01*
X45824096Y-39821453D01*
X45824091Y-39821460D01*
X45824090Y-39821462D01*
X45731186Y-39995273D01*
X45707205Y-40074326D01*
X45673974Y-40183871D01*
X45654659Y-40379995D01*
X45654659Y-40380004D01*
X45673974Y-40576128D01*
X45697956Y-40655185D01*
X45731186Y-40764727D01*
X45824090Y-40938538D01*
X45824094Y-40938542D01*
X45824096Y-40938546D01*
X45949109Y-41090874D01*
X45949112Y-41090877D01*
X45949117Y-41090883D01*
X46066172Y-41186948D01*
X46074830Y-41203148D01*
X46069498Y-41220726D01*
X46053298Y-41229384D01*
X46050946Y-41229500D01*
X44729054Y-41229500D01*
X44712083Y-41222471D01*
X44705054Y-41205500D01*
X44712083Y-41188529D01*
X44713828Y-41186948D01*
X44830883Y-41090883D01*
X44955910Y-40938538D01*
X45048814Y-40764727D01*
X45106024Y-40576132D01*
X45106024Y-40576130D01*
X45106025Y-40576128D01*
X45125341Y-40380004D01*
X45125341Y-40379995D01*
X45106025Y-40183871D01*
X45100149Y-40164500D01*
X45048814Y-39995273D01*
X44955910Y-39821462D01*
X44934149Y-39794946D01*
X44830890Y-39669125D01*
X44830885Y-39669120D01*
X44830883Y-39669117D01*
X44830877Y-39669112D01*
X44830874Y-39669109D01*
X44678546Y-39544096D01*
X44678542Y-39544094D01*
X44678538Y-39544090D01*
X44504727Y-39451186D01*
X44395185Y-39417956D01*
X44316128Y-39393974D01*
X44120005Y-39374659D01*
X44119995Y-39374659D01*
X43923871Y-39393974D01*
X43814326Y-39427205D01*
X43735273Y-39451186D01*
X43735269Y-39451187D01*
X43735269Y-39451188D01*
X43561464Y-39544089D01*
X43561453Y-39544096D01*
X43409125Y-39669109D01*
X43409109Y-39669125D01*
X43284096Y-39821453D01*
X43284091Y-39821460D01*
X43284090Y-39821462D01*
X43191186Y-39995273D01*
X43167205Y-40074326D01*
X43133974Y-40183871D01*
X43114659Y-40379995D01*
X43114659Y-40380004D01*
X43133974Y-40576128D01*
X43157956Y-40655185D01*
X43191186Y-40764727D01*
X43284090Y-40938538D01*
X43284094Y-40938542D01*
X43284096Y-40938546D01*
X43409109Y-41090874D01*
X43409112Y-41090877D01*
X43409117Y-41090883D01*
X43526172Y-41186948D01*
X43534830Y-41203148D01*
X43529498Y-41220726D01*
X43513298Y-41229384D01*
X43510946Y-41229500D01*
X42189054Y-41229500D01*
X42172083Y-41222471D01*
X42165054Y-41205500D01*
X42172083Y-41188529D01*
X42173828Y-41186948D01*
X42290883Y-41090883D01*
X42415910Y-40938538D01*
X42508814Y-40764727D01*
X42566024Y-40576132D01*
X42566024Y-40576130D01*
X42566025Y-40576128D01*
X42585341Y-40380004D01*
X42585341Y-40379995D01*
X42566025Y-40183871D01*
X42560149Y-40164500D01*
X42508814Y-39995273D01*
X42415910Y-39821462D01*
X42394149Y-39794946D01*
X42290890Y-39669125D01*
X42290885Y-39669120D01*
X42290883Y-39669117D01*
X42290877Y-39669112D01*
X42290874Y-39669109D01*
X42138546Y-39544096D01*
X42138542Y-39544094D01*
X42138538Y-39544090D01*
X41964727Y-39451186D01*
X41855185Y-39417956D01*
X41776128Y-39393974D01*
X41580005Y-39374659D01*
X41579995Y-39374659D01*
X41383871Y-39393974D01*
X41274326Y-39427205D01*
X41195273Y-39451186D01*
X41195269Y-39451187D01*
X41195269Y-39451188D01*
X41021464Y-39544089D01*
X41021453Y-39544096D01*
X40869125Y-39669109D01*
X40869109Y-39669125D01*
X40744096Y-39821453D01*
X40744091Y-39821460D01*
X40744090Y-39821462D01*
X40651186Y-39995273D01*
X40627205Y-40074326D01*
X40593974Y-40183871D01*
X40574659Y-40379995D01*
X40574659Y-40380004D01*
X40593974Y-40576128D01*
X40617956Y-40655185D01*
X40651186Y-40764727D01*
X40744090Y-40938538D01*
X40744094Y-40938542D01*
X40744096Y-40938546D01*
X40869109Y-41090874D01*
X40869112Y-41090877D01*
X40869117Y-41090883D01*
X40986172Y-41186948D01*
X40994830Y-41203148D01*
X40989498Y-41220726D01*
X40973298Y-41229384D01*
X40970946Y-41229500D01*
X40218347Y-41229500D01*
X40201376Y-41222471D01*
X39902963Y-40924058D01*
X39895934Y-40907087D01*
X39898768Y-40895773D01*
X39968814Y-40764727D01*
X40026024Y-40576132D01*
X40026024Y-40576130D01*
X40026025Y-40576128D01*
X40045341Y-40380004D01*
X40045341Y-40379995D01*
X40026025Y-40183871D01*
X40020149Y-40164500D01*
X39968814Y-39995273D01*
X39875910Y-39821462D01*
X39854149Y-39794946D01*
X39750890Y-39669125D01*
X39750885Y-39669120D01*
X39750883Y-39669117D01*
X39750877Y-39669112D01*
X39750874Y-39669109D01*
X39598546Y-39544096D01*
X39598542Y-39544094D01*
X39598538Y-39544090D01*
X39424727Y-39451186D01*
X39315185Y-39417956D01*
X39236128Y-39393974D01*
X39040005Y-39374659D01*
X39039995Y-39374659D01*
X38843871Y-39393974D01*
X38734326Y-39427205D01*
X38655273Y-39451186D01*
X38655269Y-39451187D01*
X38655269Y-39451188D01*
X38481464Y-39544089D01*
X38481453Y-39544096D01*
X38329125Y-39669109D01*
X38329109Y-39669125D01*
X38204096Y-39821453D01*
X38204091Y-39821460D01*
X38204090Y-39821462D01*
X38111186Y-39995273D01*
X38087205Y-40074326D01*
X38053974Y-40183871D01*
X38034659Y-40379995D01*
X38034659Y-40380004D01*
X38053974Y-40576128D01*
X38077956Y-40655185D01*
X38111186Y-40764727D01*
X38204090Y-40938538D01*
X38204094Y-40938542D01*
X38204096Y-40938546D01*
X38329109Y-41090874D01*
X38329112Y-41090877D01*
X38329117Y-41090883D01*
X38329122Y-41090887D01*
X38329125Y-41090890D01*
X38468777Y-41205500D01*
X38481462Y-41215910D01*
X38655273Y-41308814D01*
X38834830Y-41363282D01*
X38843871Y-41366025D01*
X39039995Y-41385341D01*
X39040000Y-41385341D01*
X39040005Y-41385341D01*
X39236128Y-41366025D01*
X39236130Y-41366024D01*
X39236132Y-41366024D01*
X39424727Y-41308814D01*
X39555773Y-41238767D01*
X39574054Y-41236967D01*
X39584058Y-41242963D01*
X39829624Y-41488529D01*
X39836653Y-41505500D01*
X39829624Y-41522471D01*
X39812653Y-41529500D01*
X37978347Y-41529500D01*
X37961376Y-41522471D01*
X37362963Y-40924058D01*
X37355934Y-40907087D01*
X37358768Y-40895773D01*
X37428814Y-40764727D01*
X37486024Y-40576132D01*
X37486024Y-40576130D01*
X37486025Y-40576128D01*
X37505341Y-40380004D01*
X37505341Y-40379995D01*
X37486025Y-40183871D01*
X37480149Y-40164500D01*
X37428814Y-39995273D01*
X37335910Y-39821462D01*
X37314149Y-39794946D01*
X37210890Y-39669125D01*
X37210885Y-39669120D01*
X37210883Y-39669117D01*
X37210877Y-39669112D01*
X37210874Y-39669109D01*
X37058546Y-39544096D01*
X37058542Y-39544094D01*
X37058538Y-39544090D01*
X36884727Y-39451186D01*
X36775185Y-39417956D01*
X36696128Y-39393974D01*
X36500005Y-39374659D01*
X36499995Y-39374659D01*
X36303871Y-39393974D01*
X36194326Y-39427205D01*
X36115273Y-39451186D01*
X36115269Y-39451187D01*
X36115269Y-39451188D01*
X35941464Y-39544089D01*
X35941453Y-39544096D01*
X35789125Y-39669109D01*
X35789109Y-39669125D01*
X35664096Y-39821453D01*
X35664091Y-39821460D01*
X35664090Y-39821462D01*
X35571186Y-39995273D01*
X35547205Y-40074326D01*
X35513974Y-40183871D01*
X35494659Y-40379995D01*
X35494659Y-40380004D01*
X35513974Y-40576128D01*
X35537956Y-40655185D01*
X35571186Y-40764727D01*
X35664090Y-40938538D01*
X35664094Y-40938542D01*
X35664096Y-40938546D01*
X35789109Y-41090874D01*
X35789112Y-41090877D01*
X35789117Y-41090883D01*
X35789122Y-41090887D01*
X35789125Y-41090890D01*
X35928777Y-41205500D01*
X35941462Y-41215910D01*
X36115273Y-41308814D01*
X36294830Y-41363282D01*
X36303871Y-41366025D01*
X36499995Y-41385341D01*
X36500000Y-41385341D01*
X36500005Y-41385341D01*
X36696128Y-41366025D01*
X36696130Y-41366024D01*
X36696132Y-41366024D01*
X36884727Y-41308814D01*
X37015773Y-41238767D01*
X37034054Y-41236967D01*
X37044058Y-41242963D01*
X37682459Y-41881364D01*
X37682472Y-41881379D01*
X37747264Y-41946170D01*
X37781595Y-41960390D01*
X37830145Y-41980501D01*
X37830146Y-41980501D01*
X37922645Y-41980501D01*
X37922653Y-41980500D01*
X52261891Y-41980500D01*
X52261899Y-41980501D01*
X52264689Y-41980501D01*
X52354400Y-41980501D01*
X52381381Y-41969323D01*
X52413004Y-41956225D01*
X52437280Y-41946170D01*
X52500714Y-41882736D01*
X52500714Y-41882734D01*
X53242734Y-41140714D01*
X53242736Y-41140714D01*
X53306170Y-41077280D01*
X53320390Y-41042949D01*
X53340501Y-40994398D01*
X53340501Y-40904689D01*
X53340501Y-40902761D01*
X53340500Y-40902747D01*
X53340500Y-37188347D01*
X53347529Y-37171376D01*
X54061377Y-36457529D01*
X54078348Y-36450500D01*
X54914816Y-36450500D01*
X54914820Y-36450500D01*
X54958722Y-36441767D01*
X55008504Y-36408504D01*
X55041767Y-36358722D01*
X55050500Y-36314820D01*
X55050500Y-34778346D01*
X55057528Y-34761376D01*
X55252734Y-34566170D01*
X55252736Y-34566170D01*
X55316170Y-34502736D01*
X55334604Y-34458233D01*
X55350501Y-34419854D01*
X55350501Y-34330145D01*
X55350501Y-34328217D01*
X55350500Y-34328203D01*
X55350500Y-32380144D01*
X55316171Y-32297265D01*
X55252736Y-32233829D01*
X55252736Y-32233830D01*
X54373266Y-31354360D01*
X54366237Y-31337389D01*
X54373266Y-31320418D01*
X54383265Y-31314424D01*
X54434727Y-31298814D01*
X54608538Y-31205910D01*
X54760883Y-31080883D01*
X54885910Y-30928538D01*
X54978814Y-30754727D01*
X55036024Y-30566132D01*
X55036024Y-30566130D01*
X55036025Y-30566128D01*
X55055341Y-30370004D01*
X55055341Y-30369995D01*
X55036025Y-30173871D01*
X55029279Y-30151632D01*
X54978814Y-29985273D01*
X54885910Y-29811462D01*
X54880757Y-29805183D01*
X54760890Y-29659125D01*
X54760887Y-29659122D01*
X54760883Y-29659117D01*
X54760877Y-29659112D01*
X54760874Y-29659109D01*
X54608546Y-29534096D01*
X54608542Y-29534094D01*
X54608538Y-29534090D01*
X54434727Y-29441186D01*
X54311397Y-29403774D01*
X54246128Y-29383974D01*
X54050005Y-29364659D01*
X54049995Y-29364659D01*
X53853871Y-29383974D01*
X53755456Y-29413829D01*
X53665273Y-29441186D01*
X53665269Y-29441187D01*
X53665269Y-29441188D01*
X53491464Y-29534089D01*
X53491453Y-29534096D01*
X53339125Y-29659109D01*
X53339109Y-29659125D01*
X53214096Y-29811453D01*
X53214091Y-29811460D01*
X53214090Y-29811462D01*
X53121186Y-29985273D01*
X53104940Y-30038829D01*
X53063974Y-30173871D01*
X53044659Y-30369995D01*
X53044659Y-30370004D01*
X53063974Y-30566128D01*
X53080165Y-30619500D01*
X53121186Y-30754727D01*
X53180730Y-30866128D01*
X53190383Y-30884186D01*
X53192184Y-30902467D01*
X53180531Y-30916666D01*
X53169217Y-30919500D01*
X49861530Y-30919500D01*
X49844559Y-30912471D01*
X49837530Y-30895500D01*
X49840146Y-30884604D01*
X49885645Y-30795306D01*
X49885645Y-30795305D01*
X49885646Y-30795304D01*
X49905492Y-30670000D01*
X49885646Y-30544696D01*
X49885645Y-30544694D01*
X49885645Y-30544693D01*
X49828052Y-30431661D01*
X49828051Y-30431660D01*
X49828050Y-30431658D01*
X49738342Y-30341950D01*
X49738339Y-30341948D01*
X49738338Y-30341947D01*
X49625306Y-30284354D01*
X49500000Y-30264508D01*
X49374693Y-30284354D01*
X49261661Y-30341947D01*
X49171947Y-30431661D01*
X49114353Y-30544695D01*
X49114353Y-30544696D01*
X49105712Y-30599255D01*
X49096115Y-30614916D01*
X49082008Y-30619500D01*
X46072611Y-30619500D01*
X46055640Y-30612471D01*
X44920434Y-29477265D01*
X44920434Y-29477264D01*
X44857000Y-29413830D01*
X44856995Y-29413828D01*
X44832724Y-29403774D01*
X44774120Y-29379499D01*
X44774119Y-29379499D01*
X44684409Y-29379499D01*
X44681619Y-29379499D01*
X44681611Y-29379500D01*
X29870144Y-29379500D01*
X29787266Y-29413828D01*
X29787264Y-29413830D01*
X29162265Y-30038829D01*
X29162264Y-30038830D01*
X29162263Y-30038829D01*
X29095455Y-30105639D01*
X29095317Y-30105501D01*
X29087976Y-30113443D01*
X29051658Y-30131950D01*
X28991469Y-30192138D01*
X28974500Y-30199167D01*
X28957529Y-30192138D01*
X28950500Y-30175167D01*
X28950500Y-29179500D01*
X28957529Y-29162529D01*
X28974500Y-29155500D01*
X50225500Y-29155500D01*
X50242471Y-29162529D01*
X50249500Y-29179500D01*
X50249500Y-30614824D01*
X50258232Y-30658722D01*
X50283545Y-30696604D01*
X50291496Y-30708504D01*
X50304705Y-30717330D01*
X50341277Y-30741767D01*
X50384015Y-30750268D01*
X50385180Y-30750500D01*
X50385184Y-30750500D01*
X52114816Y-30750500D01*
X52114820Y-30750500D01*
X52158722Y-30741767D01*
X52208504Y-30708504D01*
X52241767Y-30658722D01*
X52250500Y-30614820D01*
X52250500Y-29021819D01*
X52251318Y-29015608D01*
X52255500Y-28999999D01*
X52255500Y-27024500D01*
X52262529Y-27007529D01*
X52279500Y-27000500D01*
X55575500Y-27000500D01*
X55592471Y-27007529D01*
X55599500Y-27024500D01*
X55599500Y-42975500D01*
X55592471Y-42992471D01*
X55575500Y-42999500D01*
X14424500Y-42999500D01*
X14407529Y-42992471D01*
X14400500Y-42975500D01*
X14400500Y-40664234D01*
X19689500Y-40664234D01*
X19689500Y-40815766D01*
X19710516Y-40894202D01*
X19713326Y-40904689D01*
X19728719Y-40962135D01*
X19804485Y-41093365D01*
X19911635Y-41200515D01*
X20042865Y-41276281D01*
X20189234Y-41315500D01*
X20189235Y-41315500D01*
X20340765Y-41315500D01*
X20340766Y-41315500D01*
X20487135Y-41276281D01*
X20618365Y-41200515D01*
X20725515Y-41093365D01*
X20801281Y-40962135D01*
X20840500Y-40815766D01*
X20840500Y-40664234D01*
X20801281Y-40517865D01*
X20725515Y-40386635D01*
X20618365Y-40279485D01*
X20487135Y-40203719D01*
X20487134Y-40203718D01*
X20487133Y-40203718D01*
X20394338Y-40178854D01*
X20340766Y-40164500D01*
X20189234Y-40164500D01*
X20150016Y-40175008D01*
X20042866Y-40203718D01*
X19911635Y-40279485D01*
X19804485Y-40386635D01*
X19728718Y-40517866D01*
X19700008Y-40625016D01*
X19689500Y-40664234D01*
X14400500Y-40664234D01*
X14400500Y-39515175D01*
X22799500Y-39515175D01*
X22799500Y-41244824D01*
X22808232Y-41288722D01*
X22826125Y-41315500D01*
X22841496Y-41338504D01*
X22858165Y-41349642D01*
X22891277Y-41371767D01*
X22934015Y-41380268D01*
X22935180Y-41380500D01*
X22935184Y-41380500D01*
X24664816Y-41380500D01*
X24664820Y-41380500D01*
X24708722Y-41371767D01*
X24758504Y-41338504D01*
X24791767Y-41288722D01*
X24800500Y-41244820D01*
X24800500Y-39708347D01*
X24807529Y-39691376D01*
X26073529Y-38425376D01*
X26090500Y-38418347D01*
X26107471Y-38425376D01*
X26114500Y-38442347D01*
X26114500Y-39385084D01*
X26107471Y-39402055D01*
X26097467Y-39408050D01*
X25955273Y-39451185D01*
X25781464Y-39544089D01*
X25781453Y-39544096D01*
X25629125Y-39669109D01*
X25629109Y-39669125D01*
X25504096Y-39821453D01*
X25504091Y-39821460D01*
X25504090Y-39821462D01*
X25411186Y-39995273D01*
X25387205Y-40074326D01*
X25353974Y-40183871D01*
X25334659Y-40379995D01*
X25334659Y-40380004D01*
X25353974Y-40576128D01*
X25377956Y-40655185D01*
X25411186Y-40764727D01*
X25504090Y-40938538D01*
X25504094Y-40938542D01*
X25504096Y-40938546D01*
X25629109Y-41090874D01*
X25629112Y-41090877D01*
X25629117Y-41090883D01*
X25629122Y-41090887D01*
X25629125Y-41090890D01*
X25768777Y-41205500D01*
X25781462Y-41215910D01*
X25955273Y-41308814D01*
X26134830Y-41363282D01*
X26143871Y-41366025D01*
X26339995Y-41385341D01*
X26340000Y-41385341D01*
X26340005Y-41385341D01*
X26536128Y-41366025D01*
X26536130Y-41366024D01*
X26536132Y-41366024D01*
X26724727Y-41308814D01*
X26898538Y-41215910D01*
X27050883Y-41090883D01*
X27175910Y-40938538D01*
X27268814Y-40764727D01*
X27326024Y-40576132D01*
X27326024Y-40576130D01*
X27326025Y-40576128D01*
X27345341Y-40380004D01*
X27345341Y-40379995D01*
X27874659Y-40379995D01*
X27874659Y-40380004D01*
X27893974Y-40576128D01*
X27917956Y-40655185D01*
X27951186Y-40764727D01*
X28044090Y-40938538D01*
X28044094Y-40938542D01*
X28044096Y-40938546D01*
X28169109Y-41090874D01*
X28169112Y-41090877D01*
X28169117Y-41090883D01*
X28169122Y-41090887D01*
X28169125Y-41090890D01*
X28308777Y-41205500D01*
X28321462Y-41215910D01*
X28495273Y-41308814D01*
X28674830Y-41363282D01*
X28683871Y-41366025D01*
X28879995Y-41385341D01*
X28880000Y-41385341D01*
X28880005Y-41385341D01*
X29076128Y-41366025D01*
X29076130Y-41366024D01*
X29076132Y-41366024D01*
X29264727Y-41308814D01*
X29438538Y-41215910D01*
X29590883Y-41090883D01*
X29715910Y-40938538D01*
X29808814Y-40764727D01*
X29866024Y-40576132D01*
X29866024Y-40576130D01*
X29866025Y-40576128D01*
X29885341Y-40380004D01*
X29885341Y-40379995D01*
X30414659Y-40379995D01*
X30414659Y-40380004D01*
X30433974Y-40576128D01*
X30457956Y-40655185D01*
X30491186Y-40764727D01*
X30584090Y-40938538D01*
X30584094Y-40938542D01*
X30584096Y-40938546D01*
X30709109Y-41090874D01*
X30709112Y-41090877D01*
X30709117Y-41090883D01*
X30709122Y-41090887D01*
X30709125Y-41090890D01*
X30848777Y-41205500D01*
X30861462Y-41215910D01*
X31035273Y-41308814D01*
X31214830Y-41363282D01*
X31223871Y-41366025D01*
X31419995Y-41385341D01*
X31420000Y-41385341D01*
X31420005Y-41385341D01*
X31616128Y-41366025D01*
X31616130Y-41366024D01*
X31616132Y-41366024D01*
X31804727Y-41308814D01*
X31978538Y-41215910D01*
X32130883Y-41090883D01*
X32255910Y-40938538D01*
X32348814Y-40764727D01*
X32406024Y-40576132D01*
X32406024Y-40576130D01*
X32406025Y-40576128D01*
X32425341Y-40380004D01*
X32425341Y-40379995D01*
X32954659Y-40379995D01*
X32954659Y-40380004D01*
X32973974Y-40576128D01*
X32997956Y-40655185D01*
X33031186Y-40764727D01*
X33124090Y-40938538D01*
X33124094Y-40938542D01*
X33124096Y-40938546D01*
X33249109Y-41090874D01*
X33249112Y-41090877D01*
X33249117Y-41090883D01*
X33249122Y-41090887D01*
X33249125Y-41090890D01*
X33388777Y-41205500D01*
X33401462Y-41215910D01*
X33575273Y-41308814D01*
X33754830Y-41363282D01*
X33763871Y-41366025D01*
X33959995Y-41385341D01*
X33960000Y-41385341D01*
X33960005Y-41385341D01*
X34156128Y-41366025D01*
X34156130Y-41366024D01*
X34156132Y-41366024D01*
X34344727Y-41308814D01*
X34518538Y-41215910D01*
X34670883Y-41090883D01*
X34795910Y-40938538D01*
X34888814Y-40764727D01*
X34946024Y-40576132D01*
X34946024Y-40576130D01*
X34946025Y-40576128D01*
X34965341Y-40380004D01*
X34965341Y-40379995D01*
X34946025Y-40183871D01*
X34940149Y-40164500D01*
X34888814Y-39995273D01*
X34795910Y-39821462D01*
X34774149Y-39794946D01*
X34670890Y-39669125D01*
X34670885Y-39669120D01*
X34670883Y-39669117D01*
X34670877Y-39669112D01*
X34670874Y-39669109D01*
X34518546Y-39544096D01*
X34518542Y-39544094D01*
X34518538Y-39544090D01*
X34344727Y-39451186D01*
X34235185Y-39417956D01*
X34156128Y-39393974D01*
X33960005Y-39374659D01*
X33959995Y-39374659D01*
X33763871Y-39393974D01*
X33654326Y-39427205D01*
X33575273Y-39451186D01*
X33575269Y-39451187D01*
X33575269Y-39451188D01*
X33401464Y-39544089D01*
X33401453Y-39544096D01*
X33249125Y-39669109D01*
X33249109Y-39669125D01*
X33124096Y-39821453D01*
X33124091Y-39821460D01*
X33124090Y-39821462D01*
X33031186Y-39995273D01*
X33007205Y-40074326D01*
X32973974Y-40183871D01*
X32954659Y-40379995D01*
X32425341Y-40379995D01*
X32406025Y-40183871D01*
X32400149Y-40164500D01*
X32348814Y-39995273D01*
X32255910Y-39821462D01*
X32234149Y-39794946D01*
X32130890Y-39669125D01*
X32130885Y-39669120D01*
X32130883Y-39669117D01*
X32130877Y-39669112D01*
X32130874Y-39669109D01*
X31978546Y-39544096D01*
X31978542Y-39544094D01*
X31978538Y-39544090D01*
X31804727Y-39451186D01*
X31695185Y-39417956D01*
X31616128Y-39393974D01*
X31420005Y-39374659D01*
X31419995Y-39374659D01*
X31223871Y-39393974D01*
X31114326Y-39427205D01*
X31035273Y-39451186D01*
X31035269Y-39451187D01*
X31035269Y-39451188D01*
X30861464Y-39544089D01*
X30861453Y-39544096D01*
X30709125Y-39669109D01*
X30709109Y-39669125D01*
X30584096Y-39821453D01*
X30584091Y-39821460D01*
X30584090Y-39821462D01*
X30491186Y-39995273D01*
X30467205Y-40074326D01*
X30433974Y-40183871D01*
X30414659Y-40379995D01*
X29885341Y-40379995D01*
X29866025Y-40183871D01*
X29860149Y-40164500D01*
X29808814Y-39995273D01*
X29715910Y-39821462D01*
X29694149Y-39794946D01*
X29590890Y-39669125D01*
X29590885Y-39669120D01*
X29590883Y-39669117D01*
X29590877Y-39669112D01*
X29590874Y-39669109D01*
X29438546Y-39544096D01*
X29438542Y-39544094D01*
X29438538Y-39544090D01*
X29264727Y-39451186D01*
X29155185Y-39417956D01*
X29076128Y-39393974D01*
X28880005Y-39374659D01*
X28879995Y-39374659D01*
X28683871Y-39393974D01*
X28574326Y-39427205D01*
X28495273Y-39451186D01*
X28495269Y-39451187D01*
X28495269Y-39451188D01*
X28321464Y-39544089D01*
X28321453Y-39544096D01*
X28169125Y-39669109D01*
X28169109Y-39669125D01*
X28044096Y-39821453D01*
X28044091Y-39821460D01*
X28044090Y-39821462D01*
X27951186Y-39995273D01*
X27927205Y-40074326D01*
X27893974Y-40183871D01*
X27874659Y-40379995D01*
X27345341Y-40379995D01*
X27326025Y-40183871D01*
X27320149Y-40164500D01*
X27268814Y-39995273D01*
X27175910Y-39821462D01*
X27154149Y-39794946D01*
X27050890Y-39669125D01*
X27050885Y-39669120D01*
X27050883Y-39669117D01*
X27050877Y-39669112D01*
X27050874Y-39669109D01*
X26898546Y-39544096D01*
X26898542Y-39544094D01*
X26898538Y-39544090D01*
X26800408Y-39491638D01*
X26724726Y-39451185D01*
X26582533Y-39408050D01*
X26568334Y-39396397D01*
X26565500Y-39385084D01*
X26565500Y-35593347D01*
X26572529Y-35576376D01*
X26966377Y-35182529D01*
X26983348Y-35175500D01*
X33415093Y-35175500D01*
X33432064Y-35182529D01*
X33444180Y-35194645D01*
X33451209Y-35211616D01*
X33450914Y-35215370D01*
X33450298Y-35219260D01*
X33440700Y-35234922D01*
X33422839Y-35239211D01*
X33330000Y-35224508D01*
X33204693Y-35244354D01*
X33091661Y-35301947D01*
X33001950Y-35391658D01*
X33000840Y-35393187D01*
X33000376Y-35392850D01*
X32988123Y-35403323D01*
X32980700Y-35404500D01*
X31679300Y-35404500D01*
X31662329Y-35397471D01*
X31659198Y-35393159D01*
X31659160Y-35393187D01*
X31658052Y-35391662D01*
X31658050Y-35391658D01*
X31568342Y-35301950D01*
X31568339Y-35301948D01*
X31568338Y-35301947D01*
X31455306Y-35244354D01*
X31330000Y-35224508D01*
X31204693Y-35244354D01*
X31091661Y-35301947D01*
X31001950Y-35391658D01*
X31000840Y-35393187D01*
X31000376Y-35392850D01*
X30988123Y-35403323D01*
X30980700Y-35404500D01*
X28974039Y-35404500D01*
X28957068Y-35397471D01*
X28950500Y-35385182D01*
X28941767Y-35341277D01*
X28908505Y-35291498D01*
X28908504Y-35291496D01*
X28908277Y-35291344D01*
X28858722Y-35258232D01*
X28814824Y-35249500D01*
X28814820Y-35249500D01*
X27085180Y-35249500D01*
X27085175Y-35249500D01*
X27041277Y-35258232D01*
X26991498Y-35291494D01*
X26991494Y-35291498D01*
X26958232Y-35341277D01*
X26949500Y-35385175D01*
X26949500Y-36978180D01*
X26948682Y-36984391D01*
X26944500Y-37000000D01*
X26944500Y-39000000D01*
X26965333Y-39077750D01*
X27022250Y-39134667D01*
X27100000Y-39155500D01*
X27100001Y-39155500D01*
X52099999Y-39155500D01*
X52100000Y-39155500D01*
X52177750Y-39134667D01*
X52234667Y-39077750D01*
X52255500Y-39000000D01*
X52255500Y-37000000D01*
X52251318Y-36984391D01*
X52250500Y-36978180D01*
X52250500Y-35385182D01*
X52250499Y-35385175D01*
X52241767Y-35341277D01*
X52208505Y-35291498D01*
X52208504Y-35291496D01*
X52208277Y-35291344D01*
X52158722Y-35258232D01*
X52114824Y-35249500D01*
X52114820Y-35249500D01*
X50385180Y-35249500D01*
X50385175Y-35249500D01*
X50341277Y-35258232D01*
X50291498Y-35291494D01*
X50291494Y-35291498D01*
X50258232Y-35341277D01*
X50249500Y-35385175D01*
X50249500Y-36820500D01*
X50242471Y-36837471D01*
X50225500Y-36844500D01*
X46577542Y-36844500D01*
X46560571Y-36837471D01*
X46553542Y-36820500D01*
X46560571Y-36803529D01*
X46566646Y-36799116D01*
X46648181Y-36757571D01*
X46648180Y-36757571D01*
X46648185Y-36757569D01*
X46737893Y-36667861D01*
X46795489Y-36554823D01*
X46815335Y-36429519D01*
X46795489Y-36304215D01*
X46795488Y-36304213D01*
X46795488Y-36304212D01*
X46737895Y-36191180D01*
X46737894Y-36191179D01*
X46737893Y-36191177D01*
X46648185Y-36101469D01*
X46648182Y-36101467D01*
X46648181Y-36101466D01*
X46535149Y-36043873D01*
X46440181Y-36028832D01*
X46409843Y-36024027D01*
X46409842Y-36024027D01*
X46378910Y-36028925D01*
X46361049Y-36024636D01*
X46358186Y-36022191D01*
X46172844Y-35836850D01*
X46172844Y-35836849D01*
X46109410Y-35773415D01*
X46085134Y-35763359D01*
X46026530Y-35739084D01*
X46026529Y-35739084D01*
X45936819Y-35739084D01*
X45934029Y-35739084D01*
X45934021Y-35739085D01*
X45873954Y-35739085D01*
X45856983Y-35732056D01*
X41842192Y-31717265D01*
X41842192Y-31717264D01*
X41778758Y-31653830D01*
X41754482Y-31643774D01*
X41695878Y-31619499D01*
X41695877Y-31619499D01*
X41606167Y-31619499D01*
X41603377Y-31619499D01*
X41603369Y-31619500D01*
X34294364Y-31619500D01*
X34277393Y-31612471D01*
X34062186Y-31397265D01*
X34062186Y-31397264D01*
X33998752Y-31333830D01*
X33974476Y-31323774D01*
X33966374Y-31320418D01*
X33915872Y-31299499D01*
X33915871Y-31299499D01*
X33826161Y-31299499D01*
X33823371Y-31299499D01*
X33823363Y-31299500D01*
X33239645Y-31299500D01*
X33239637Y-31299499D01*
X33236847Y-31299499D01*
X33147137Y-31299499D01*
X33147136Y-31299499D01*
X33088530Y-31323773D01*
X33088531Y-31323774D01*
X33064255Y-31333830D01*
X33000821Y-31397263D01*
X33000822Y-31397264D01*
X33000821Y-31397265D01*
X32088062Y-32310023D01*
X32071091Y-32317052D01*
X32067338Y-32316757D01*
X31990000Y-32304508D01*
X31864693Y-32324354D01*
X31751661Y-32381947D01*
X31661947Y-32471661D01*
X31604354Y-32584693D01*
X31584508Y-32710000D01*
X31604354Y-32835306D01*
X31661947Y-32948338D01*
X31661948Y-32948339D01*
X31661950Y-32948342D01*
X31751658Y-33038050D01*
X31751660Y-33038051D01*
X31751661Y-33038052D01*
X31845897Y-33086068D01*
X31857826Y-33100036D01*
X31856385Y-33118348D01*
X31845897Y-33128836D01*
X31741661Y-33181947D01*
X31651946Y-33271662D01*
X31641893Y-33291395D01*
X31627926Y-33303325D01*
X31620509Y-33304500D01*
X28819681Y-33304500D01*
X28802710Y-33297471D01*
X28798297Y-33291395D01*
X28778053Y-33251662D01*
X28778051Y-33251660D01*
X28778050Y-33251658D01*
X28688342Y-33161950D01*
X28688339Y-33161948D01*
X28688338Y-33161947D01*
X28575306Y-33104354D01*
X28450000Y-33084508D01*
X28324693Y-33104354D01*
X28211661Y-33161947D01*
X28121947Y-33251661D01*
X28064354Y-33364693D01*
X28044508Y-33490000D01*
X28064354Y-33615306D01*
X28121947Y-33728338D01*
X28121948Y-33728339D01*
X28121950Y-33728342D01*
X28211658Y-33818050D01*
X28211660Y-33818051D01*
X28211661Y-33818052D01*
X28324693Y-33875645D01*
X28324694Y-33875645D01*
X28324696Y-33875646D01*
X28450000Y-33895492D01*
X28575304Y-33875646D01*
X28688342Y-33818050D01*
X28723000Y-33783392D01*
X28743864Y-33762529D01*
X28760834Y-33755500D01*
X31649166Y-33755500D01*
X31666136Y-33762529D01*
X31741659Y-33838051D01*
X31741658Y-33838051D01*
X31854693Y-33895645D01*
X31854694Y-33895645D01*
X31854696Y-33895646D01*
X31980000Y-33915492D01*
X32105304Y-33895646D01*
X32218342Y-33838050D01*
X32308050Y-33748342D01*
X32365646Y-33635304D01*
X32385492Y-33510000D01*
X32382324Y-33490000D01*
X32375566Y-33447330D01*
X32379853Y-33429468D01*
X32382293Y-33426610D01*
X33199360Y-32609543D01*
X33199363Y-32609542D01*
X33202735Y-32606170D01*
X33202736Y-32606170D01*
X33229286Y-32579619D01*
X33246256Y-32572590D01*
X33263226Y-32579619D01*
X33311659Y-32628051D01*
X33317580Y-32631068D01*
X33329509Y-32645036D01*
X33328068Y-32663348D01*
X33317581Y-32673836D01*
X33301660Y-32681948D01*
X33211947Y-32771661D01*
X33154354Y-32884693D01*
X33134508Y-33010000D01*
X33154354Y-33135306D01*
X33211947Y-33248338D01*
X33211948Y-33248339D01*
X33211950Y-33248342D01*
X33301658Y-33338050D01*
X33301660Y-33338051D01*
X33301661Y-33338052D01*
X33414693Y-33395645D01*
X33414694Y-33395645D01*
X33414696Y-33395646D01*
X33540000Y-33415492D01*
X33641695Y-33399385D01*
X33659555Y-33403674D01*
X33669152Y-33419335D01*
X33684353Y-33515303D01*
X33684353Y-33515304D01*
X33741947Y-33628338D01*
X33741948Y-33628339D01*
X33741950Y-33628342D01*
X33831658Y-33718050D01*
X33831660Y-33718051D01*
X33831661Y-33718052D01*
X33944693Y-33775645D01*
X33944694Y-33775645D01*
X33944696Y-33775646D01*
X34070000Y-33795492D01*
X34195304Y-33775646D01*
X34308342Y-33718050D01*
X34398050Y-33628342D01*
X34455646Y-33515304D01*
X34475374Y-33390744D01*
X34484971Y-33375084D01*
X34499078Y-33370500D01*
X41009197Y-33370500D01*
X41026168Y-33377529D01*
X43677471Y-36028832D01*
X43684500Y-36045803D01*
X43684500Y-36100699D01*
X43677471Y-36117670D01*
X43673158Y-36120804D01*
X43673185Y-36120841D01*
X43671660Y-36121948D01*
X43581947Y-36211661D01*
X43524354Y-36324693D01*
X43504508Y-36450000D01*
X43524354Y-36575306D01*
X43581947Y-36688338D01*
X43581948Y-36688339D01*
X43581950Y-36688342D01*
X43671658Y-36778050D01*
X43671660Y-36778051D01*
X43671661Y-36778052D01*
X43713001Y-36799116D01*
X43724930Y-36813084D01*
X43723489Y-36831396D01*
X43709521Y-36843325D01*
X43702105Y-36844500D01*
X28974500Y-36844500D01*
X28957529Y-36837471D01*
X28950500Y-36820500D01*
X28950500Y-35879500D01*
X28957529Y-35862529D01*
X28974500Y-35855500D01*
X30980700Y-35855500D01*
X30997671Y-35862529D01*
X31000801Y-35866840D01*
X31000840Y-35866813D01*
X31001948Y-35868338D01*
X31001950Y-35868342D01*
X31091658Y-35958050D01*
X31091660Y-35958051D01*
X31091661Y-35958052D01*
X31129893Y-35977532D01*
X31141822Y-35991499D01*
X31140381Y-36009812D01*
X31129895Y-36020299D01*
X31126654Y-36021950D01*
X31049468Y-36099136D01*
X31032498Y-36106165D01*
X31015528Y-36099136D01*
X30928342Y-36011950D01*
X30928339Y-36011948D01*
X30928338Y-36011947D01*
X30815306Y-35954354D01*
X30690000Y-35934508D01*
X30564693Y-35954354D01*
X30451661Y-36011947D01*
X30361947Y-36101661D01*
X30304354Y-36214693D01*
X30284508Y-36340000D01*
X30304354Y-36465306D01*
X30361947Y-36578338D01*
X30361948Y-36578339D01*
X30361950Y-36578342D01*
X30451658Y-36668050D01*
X30451660Y-36668051D01*
X30451661Y-36668052D01*
X30564693Y-36725645D01*
X30564694Y-36725645D01*
X30564696Y-36725646D01*
X30690000Y-36745492D01*
X30815304Y-36725646D01*
X30928342Y-36668050D01*
X31005528Y-36590863D01*
X31022498Y-36583834D01*
X31039468Y-36590863D01*
X31126655Y-36678050D01*
X31126657Y-36678051D01*
X31126658Y-36678052D01*
X31239690Y-36735645D01*
X31239691Y-36735645D01*
X31239693Y-36735646D01*
X31364997Y-36755492D01*
X31490301Y-36735646D01*
X31603339Y-36678050D01*
X31660528Y-36620860D01*
X31677497Y-36613831D01*
X31694467Y-36620860D01*
X31751659Y-36678051D01*
X31751658Y-36678051D01*
X31864693Y-36735645D01*
X31864694Y-36735645D01*
X31864696Y-36735646D01*
X31990000Y-36755492D01*
X32115304Y-36735646D01*
X32228342Y-36678050D01*
X32318050Y-36588342D01*
X32326163Y-36572417D01*
X32340129Y-36560489D01*
X32358442Y-36561929D01*
X32368931Y-36572418D01*
X32371947Y-36578338D01*
X32371948Y-36578339D01*
X32371950Y-36578342D01*
X32461658Y-36668050D01*
X32461660Y-36668051D01*
X32461661Y-36668052D01*
X32574693Y-36725645D01*
X32574694Y-36725645D01*
X32574696Y-36725646D01*
X32700000Y-36745492D01*
X32825304Y-36725646D01*
X32938342Y-36668050D01*
X33028050Y-36578342D01*
X33085646Y-36465304D01*
X33105492Y-36340000D01*
X33085646Y-36214696D01*
X33085645Y-36214694D01*
X33085645Y-36214693D01*
X33028052Y-36101661D01*
X33028051Y-36101660D01*
X33028050Y-36101658D01*
X32938342Y-36011950D01*
X32938339Y-36011948D01*
X32938338Y-36011947D01*
X32825306Y-35954354D01*
X32700000Y-35934508D01*
X32574693Y-35954354D01*
X32461661Y-36011947D01*
X32371948Y-36101660D01*
X32363836Y-36117581D01*
X32349868Y-36129510D01*
X32331555Y-36128068D01*
X32321068Y-36117580D01*
X32318052Y-36111661D01*
X32318051Y-36111660D01*
X32318050Y-36111658D01*
X32228342Y-36021950D01*
X32228339Y-36021948D01*
X32228338Y-36021947D01*
X32115306Y-35964354D01*
X31990000Y-35944508D01*
X31864693Y-35964354D01*
X31751658Y-36021948D01*
X31694468Y-36079138D01*
X31677498Y-36086167D01*
X31660528Y-36079138D01*
X31603337Y-36021948D01*
X31565104Y-36002468D01*
X31553175Y-35988501D01*
X31554616Y-35970188D01*
X31565106Y-35959699D01*
X31565940Y-35959273D01*
X31568342Y-35958050D01*
X31658050Y-35868342D01*
X31658054Y-35868334D01*
X31659160Y-35866813D01*
X31659623Y-35867149D01*
X31671877Y-35856677D01*
X31679300Y-35855500D01*
X32980700Y-35855500D01*
X32997671Y-35862529D01*
X33000801Y-35866840D01*
X33000840Y-35866813D01*
X33001948Y-35868338D01*
X33001950Y-35868342D01*
X33091658Y-35958050D01*
X33091660Y-35958051D01*
X33091661Y-35958052D01*
X33204693Y-36015645D01*
X33204694Y-36015645D01*
X33204696Y-36015646D01*
X33330000Y-36035492D01*
X33455304Y-36015646D01*
X33568342Y-35958050D01*
X33658050Y-35868342D01*
X33715646Y-35755304D01*
X33726182Y-35688777D01*
X33735779Y-35673117D01*
X33753639Y-35668828D01*
X33846481Y-35683533D01*
X33971785Y-35663687D01*
X34084823Y-35606091D01*
X34174531Y-35516383D01*
X34228435Y-35410591D01*
X34232126Y-35403347D01*
X34232126Y-35403346D01*
X34232127Y-35403345D01*
X34251973Y-35278041D01*
X34232127Y-35152737D01*
X34232125Y-35152733D01*
X34232125Y-35152732D01*
X34231543Y-35150938D01*
X34232590Y-35150597D01*
X34231402Y-35135914D01*
X34243301Y-35121920D01*
X34250485Y-35119576D01*
X34275304Y-35115646D01*
X34388342Y-35058050D01*
X34478050Y-34968342D01*
X34535646Y-34855304D01*
X34555492Y-34730000D01*
X34535646Y-34604696D01*
X34535645Y-34604694D01*
X34535645Y-34604693D01*
X34478052Y-34491661D01*
X34478051Y-34491660D01*
X34478050Y-34491658D01*
X34388342Y-34401950D01*
X34388339Y-34401948D01*
X34388338Y-34401947D01*
X34275306Y-34344354D01*
X34150000Y-34324508D01*
X34024693Y-34344354D01*
X33911658Y-34401948D01*
X33911658Y-34401949D01*
X33896136Y-34417471D01*
X33879166Y-34424500D01*
X26803389Y-34424500D01*
X26803381Y-34424499D01*
X26800591Y-34424499D01*
X26710882Y-34424499D01*
X26710881Y-34424499D01*
X26674689Y-34439491D01*
X26674688Y-34439491D01*
X26628001Y-34458828D01*
X26564565Y-34522263D01*
X26564566Y-34522264D01*
X26564565Y-34522265D01*
X25912265Y-35174565D01*
X25912264Y-35174566D01*
X25912263Y-35174565D01*
X25848833Y-35237996D01*
X25848831Y-35237998D01*
X25848830Y-35238000D01*
X25840449Y-35258232D01*
X25840449Y-35258233D01*
X25814499Y-35320880D01*
X25814499Y-35413380D01*
X25814500Y-35413389D01*
X25814500Y-38036652D01*
X25807471Y-38053623D01*
X24488624Y-39372471D01*
X24471653Y-39379500D01*
X22935175Y-39379500D01*
X22891277Y-39388232D01*
X22841498Y-39421494D01*
X22841494Y-39421498D01*
X22808232Y-39471277D01*
X22799500Y-39515175D01*
X14400500Y-39515175D01*
X14400500Y-34884234D01*
X19689500Y-34884234D01*
X19689500Y-35035766D01*
X19710516Y-35114202D01*
X19726690Y-35174565D01*
X19728719Y-35182135D01*
X19804485Y-35313365D01*
X19911635Y-35420515D01*
X20042865Y-35496281D01*
X20189234Y-35535500D01*
X20189235Y-35535500D01*
X20340765Y-35535500D01*
X20340766Y-35535500D01*
X20487135Y-35496281D01*
X20618365Y-35420515D01*
X20725515Y-35313365D01*
X20801281Y-35182135D01*
X20840500Y-35035766D01*
X20840500Y-34884234D01*
X20801281Y-34737865D01*
X20725515Y-34606635D01*
X20618365Y-34499485D01*
X20567296Y-34470000D01*
X25074508Y-34470000D01*
X25094354Y-34595306D01*
X25151947Y-34708338D01*
X25151948Y-34708339D01*
X25151950Y-34708342D01*
X25241658Y-34798050D01*
X25241660Y-34798051D01*
X25241661Y-34798052D01*
X25354693Y-34855645D01*
X25354694Y-34855645D01*
X25354696Y-34855646D01*
X25480000Y-34875492D01*
X25605304Y-34855646D01*
X25718342Y-34798050D01*
X25808050Y-34708342D01*
X25865646Y-34595304D01*
X25881653Y-34494231D01*
X25891251Y-34478571D01*
X25909108Y-34474282D01*
X25944185Y-34479839D01*
X25966721Y-34483409D01*
X25966722Y-34483409D01*
X25966723Y-34483408D01*
X25966724Y-34483409D01*
X26092028Y-34463563D01*
X26205066Y-34405967D01*
X26294774Y-34316259D01*
X26352370Y-34203221D01*
X26372216Y-34077917D01*
X26352370Y-33952613D01*
X26352369Y-33952611D01*
X26352369Y-33952610D01*
X26323264Y-33895491D01*
X26304226Y-33858128D01*
X26302786Y-33839818D01*
X26308638Y-33830265D01*
X27156376Y-32982529D01*
X27173347Y-32975500D01*
X30666611Y-32975500D01*
X30666619Y-32975501D01*
X30669409Y-32975501D01*
X30759120Y-32975501D01*
X30789307Y-32962996D01*
X30824685Y-32948342D01*
X30842000Y-32941170D01*
X30905434Y-32877736D01*
X30905434Y-32877734D01*
X31711792Y-32071375D01*
X31728762Y-32064347D01*
X31739628Y-32067873D01*
X31739975Y-32067193D01*
X31854693Y-32125645D01*
X31854694Y-32125645D01*
X31854696Y-32125646D01*
X31980000Y-32145492D01*
X32105304Y-32125646D01*
X32218342Y-32068050D01*
X32308050Y-31978342D01*
X32365646Y-31865304D01*
X32385492Y-31740000D01*
X32365646Y-31614696D01*
X32365645Y-31614694D01*
X32365645Y-31614693D01*
X32308052Y-31501661D01*
X32308051Y-31501660D01*
X32308050Y-31501658D01*
X32223361Y-31416969D01*
X32216333Y-31400000D01*
X32223361Y-31383030D01*
X32298050Y-31308342D01*
X32355646Y-31195304D01*
X32375492Y-31070000D01*
X32355646Y-30944696D01*
X32355645Y-30944694D01*
X32355645Y-30944693D01*
X32298052Y-30831661D01*
X32298051Y-30831660D01*
X32298050Y-30831658D01*
X32208342Y-30741950D01*
X32208339Y-30741948D01*
X32208338Y-30741947D01*
X32095306Y-30684354D01*
X31970000Y-30664508D01*
X31844693Y-30684354D01*
X31731661Y-30741947D01*
X31641947Y-30831661D01*
X31584354Y-30944693D01*
X31564508Y-31070000D01*
X31574433Y-31132669D01*
X31570144Y-31150530D01*
X31567699Y-31153394D01*
X30503624Y-32217471D01*
X30486653Y-32224500D01*
X26815144Y-32224500D01*
X26732266Y-32258828D01*
X25671877Y-33319216D01*
X25667312Y-33322270D01*
X25667477Y-33322517D01*
X25665510Y-33323831D01*
X25602077Y-33387263D01*
X25602078Y-33387264D01*
X25602077Y-33387265D01*
X25352265Y-33637077D01*
X25352264Y-33637078D01*
X25352263Y-33637077D01*
X25288829Y-33700512D01*
X25283465Y-33713464D01*
X25283465Y-33713465D01*
X25254499Y-33783392D01*
X25254499Y-33875892D01*
X25254500Y-33875901D01*
X25254500Y-34120699D01*
X25247471Y-34137670D01*
X25243158Y-34140804D01*
X25243185Y-34140841D01*
X25241660Y-34141948D01*
X25151947Y-34231661D01*
X25094354Y-34344693D01*
X25074508Y-34470000D01*
X20567296Y-34470000D01*
X20487135Y-34423719D01*
X20487134Y-34423718D01*
X20487133Y-34423718D01*
X20394338Y-34398854D01*
X20340766Y-34384500D01*
X20189234Y-34384500D01*
X20150016Y-34395008D01*
X20042866Y-34423718D01*
X19911635Y-34499485D01*
X19804485Y-34606635D01*
X19728718Y-34737866D01*
X19712592Y-34798052D01*
X19689500Y-34884234D01*
X14400500Y-34884234D01*
X14400500Y-29805175D01*
X16729500Y-29805175D01*
X16729500Y-31534824D01*
X16738232Y-31578722D01*
X16760783Y-31612471D01*
X16771496Y-31628504D01*
X16782969Y-31636170D01*
X16821277Y-31661767D01*
X16864015Y-31670268D01*
X16865180Y-31670500D01*
X16865184Y-31670500D01*
X18594816Y-31670500D01*
X18594820Y-31670500D01*
X18638722Y-31661767D01*
X18688504Y-31628504D01*
X18721767Y-31578722D01*
X18730500Y-31534820D01*
X18730500Y-30669995D01*
X19264659Y-30669995D01*
X19264659Y-30670004D01*
X19283974Y-30866128D01*
X19295859Y-30905306D01*
X19341186Y-31054727D01*
X19434090Y-31228538D01*
X19434094Y-31228542D01*
X19434096Y-31228546D01*
X19559109Y-31380874D01*
X19559112Y-31380877D01*
X19559117Y-31380883D01*
X19559122Y-31380887D01*
X19559125Y-31380890D01*
X19711453Y-31505903D01*
X19711462Y-31505910D01*
X19885273Y-31598814D01*
X20064830Y-31653282D01*
X20073871Y-31656025D01*
X20269995Y-31675341D01*
X20270000Y-31675341D01*
X20270005Y-31675341D01*
X20466128Y-31656025D01*
X20466130Y-31656024D01*
X20466132Y-31656024D01*
X20654727Y-31598814D01*
X20828538Y-31505910D01*
X20980883Y-31380883D01*
X21105910Y-31228538D01*
X21198814Y-31054727D01*
X21256024Y-30866132D01*
X21256024Y-30866130D01*
X21256025Y-30866128D01*
X21275341Y-30670004D01*
X21275341Y-30669995D01*
X21256025Y-30473871D01*
X21249203Y-30451383D01*
X21198814Y-30285273D01*
X21105910Y-30111462D01*
X21105903Y-30111453D01*
X20980890Y-29959125D01*
X20980887Y-29959122D01*
X20980883Y-29959117D01*
X20980877Y-29959112D01*
X20980874Y-29959109D01*
X20828546Y-29834096D01*
X20828542Y-29834094D01*
X20828538Y-29834090D01*
X20654727Y-29741186D01*
X20545185Y-29707956D01*
X20466128Y-29683974D01*
X20270005Y-29664659D01*
X20269995Y-29664659D01*
X20073871Y-29683974D01*
X19964326Y-29717205D01*
X19885273Y-29741186D01*
X19885269Y-29741187D01*
X19885269Y-29741188D01*
X19711464Y-29834089D01*
X19711453Y-29834096D01*
X19559125Y-29959109D01*
X19559109Y-29959125D01*
X19434096Y-30111453D01*
X19434091Y-30111460D01*
X19434090Y-30111462D01*
X19341186Y-30285273D01*
X19331156Y-30318338D01*
X19283974Y-30473871D01*
X19264659Y-30669995D01*
X18730500Y-30669995D01*
X18730500Y-29805180D01*
X18721767Y-29761278D01*
X18721767Y-29761277D01*
X18688505Y-29711498D01*
X18688504Y-29711496D01*
X18688277Y-29711344D01*
X18638722Y-29678232D01*
X18594824Y-29669500D01*
X18594820Y-29669500D01*
X16865180Y-29669500D01*
X16865175Y-29669500D01*
X16821277Y-29678232D01*
X16771498Y-29711494D01*
X16771494Y-29711498D01*
X16738232Y-29761277D01*
X16729500Y-29805175D01*
X14400500Y-29805175D01*
X14400500Y-27024500D01*
X14407529Y-27007529D01*
X14424500Y-27000500D01*
X26920500Y-27000500D01*
X26937471Y-27007529D01*
G37*
G04 #@! TD.AperFunction*
G04 #@! TD*
M02*
