G04 #@! TF.GenerationSoftware,KiCad,Pcbnew,8.0.7*
G04 #@! TF.CreationDate,2025-01-12T09:33:48-05:00*
G04 #@! TF.ProjectId,panel,70616e65-6c2e-46b6-9963-61645f706362,rev?*
G04 #@! TF.SameCoordinates,Original*
G04 #@! TF.FileFunction,Profile,NP*
%FSLAX46Y46*%
G04 Gerber Fmt 4.6, Leading zero omitted, Abs format (unit mm)*
G04 Created by KiCad (PCBNEW 8.0.7) date 2025-01-12 09:33:48*
%MOMM*%
%LPD*%
G01*
G04 APERTURE LIST*
G04 #@! TA.AperFunction,Profile*
%ADD10C,0.100000*%
G04 #@! TD*
G04 APERTURE END LIST*
D10*
X59000000Y-24599012D02*
X59000000Y-33000987D01*
X11117960Y-33471925D02*
X11095914Y-33428127D01*
X36117960Y-43928074D02*
X36142129Y-43885411D01*
X33290994Y-43443016D02*
X33337552Y-43458397D01*
X56043016Y-33290994D02*
X56029939Y-33243737D01*
X58741209Y-46071887D02*
X58707399Y-46107399D01*
X11403896Y-33803404D02*
X11365241Y-33773237D01*
X33831637Y-45956014D02*
X33803404Y-45996103D01*
X69195055Y-69980484D02*
X69206971Y-69977808D01*
X36258790Y-43728112D02*
X36292600Y-43692600D01*
X36756262Y-43429939D02*
X36804104Y-43419195D01*
X58195895Y-36019195D02*
X58243737Y-36029939D01*
X5117Y-69098012D02*
X6612Y-69110132D01*
X33000987Y-23600000D02*
X33050018Y-23601203D01*
X47194Y-69301839D02*
X71985Y-69371128D01*
X36000000Y-44399012D02*
X36001203Y-44349981D01*
X709826Y-69956658D02*
X721596Y-69959916D01*
X11142129Y-24085411D02*
X11168362Y-24043985D01*
X13147583Y-33989187D02*
X13098919Y-33995189D01*
X11095914Y-36571872D02*
X11117960Y-36528074D01*
X33050018Y-23601203D02*
X33098919Y-23604810D01*
X987766Y-69999398D02*
X1012247Y-69999999D01*
X36043016Y-24309005D02*
X36058397Y-24262447D01*
X13634758Y-36226762D02*
X13671887Y-36258790D01*
X33050018Y-43401203D02*
X33098919Y-43404810D01*
X36571872Y-46304085D02*
X36528074Y-46282039D01*
X58514588Y-36142129D02*
X58556014Y-36168362D01*
X36528074Y-46282039D02*
X36485411Y-46257870D01*
X33857870Y-24085411D02*
X33882039Y-24128074D01*
X36292600Y-26307399D02*
X36258790Y-26271887D01*
X13831637Y-36443985D02*
X13857870Y-36485411D01*
X69643468Y-235214D02*
X69634220Y-227238D01*
X58956983Y-33290994D02*
X58941602Y-33337552D01*
X58741209Y-36328112D02*
X58773237Y-36365241D01*
X11000000Y-24599012D02*
X11001203Y-24549981D01*
X36443985Y-26431637D02*
X36403896Y-26403404D01*
X36029939Y-25843737D02*
X36019195Y-25795895D01*
X33956983Y-24309005D02*
X33970060Y-24356262D01*
X36043016Y-45690994D02*
X36029939Y-45643737D01*
X69994887Y-69097963D02*
X69995785Y-69085783D01*
X11756262Y-46370060D02*
X11709005Y-46356983D01*
X58243737Y-36029939D02*
X58290994Y-36043016D01*
X69995785Y-914216D02*
X69994887Y-902036D01*
X33383300Y-46323955D02*
X33337552Y-46341602D01*
X36709005Y-43443016D02*
X36756262Y-43429939D01*
X539697Y-69887168D02*
X606222Y-69918632D01*
X13741209Y-33671887D02*
X13707399Y-33707399D01*
X444576Y-168794D02*
X434592Y-175826D01*
X11528074Y-23717960D02*
X11571872Y-23695914D01*
X69460302Y-112831D02*
X69393777Y-81367D01*
X11029939Y-45643737D02*
X11019195Y-45595895D01*
X11999012Y-34000000D02*
X11949981Y-33998796D01*
X13556014Y-36168362D02*
X13596103Y-36196595D01*
X58243737Y-33970060D02*
X58195895Y-33980804D01*
X33904085Y-24171872D02*
X33923955Y-24216699D01*
X13803404Y-33596103D02*
X13773237Y-33634758D01*
X36004810Y-45498919D02*
X36001203Y-45450018D01*
X36485411Y-23742129D02*
X36528074Y-23717960D01*
X33995189Y-24501080D02*
X33998796Y-24549981D01*
X56095914Y-33428127D02*
X56076044Y-33383300D01*
X33428127Y-23695914D02*
X33471925Y-23717960D01*
X69371151Y-69928005D02*
X69382545Y-69923610D01*
X11328112Y-33741209D02*
X11292600Y-33707399D01*
X13337552Y-33941602D02*
X13290994Y-33956983D01*
X889867Y-69993387D02*
X901987Y-69994882D01*
X58995189Y-33098919D02*
X58989187Y-33147583D01*
X11043016Y-45690994D02*
X11029939Y-45643737D01*
X58337552Y-23658397D02*
X58383300Y-23676044D01*
X13596103Y-36196595D02*
X13634758Y-36226762D01*
X58904085Y-45828127D02*
X58882039Y-45871925D01*
X69634182Y-227207D02*
X69624555Y-219693D01*
X56117960Y-33471925D02*
X56095914Y-33428127D01*
X58941602Y-24262447D02*
X58956983Y-24309005D01*
X69959922Y-69278380D02*
X69977803Y-69206994D01*
X11117960Y-36528074D02*
X11142129Y-36485411D01*
X36852416Y-26589187D02*
X36804104Y-26580804D01*
X56804104Y-33980804D02*
X56756262Y-33970060D01*
X33556014Y-26431637D02*
X33514588Y-26457870D01*
X69923591Y-617409D02*
X69918642Y-606244D01*
X56485411Y-33857870D02*
X56443985Y-33831637D01*
X13000987Y-34000000D02*
X11999012Y-34000000D01*
X58000987Y-36000000D02*
X58050018Y-36001203D01*
X58995189Y-24501080D02*
X58998796Y-24549981D01*
X56901080Y-36004810D02*
X56949981Y-36001203D01*
X58290994Y-33956983D02*
X58243737Y-33970060D01*
X36076044Y-24216699D02*
X36095914Y-24171872D01*
X56001203Y-33050018D02*
X56000000Y-33000987D01*
X11226762Y-33634758D02*
X11196595Y-33596103D01*
X168794Y-69555423D02*
X175826Y-69565407D01*
X444617Y-69831232D02*
X454935Y-69837766D01*
X58989187Y-24452416D02*
X58995189Y-24501080D01*
X793005Y-22196D02*
X721619Y-40077D01*
X11142129Y-36485411D02*
X11168362Y-36443985D01*
X13707399Y-36292600D02*
X13741209Y-36328112D01*
X33243737Y-46370060D02*
X33195895Y-46380804D01*
X56365241Y-33773237D02*
X56328112Y-33741209D01*
X69098012Y-69994882D02*
X69110132Y-69993387D01*
X36662447Y-46341602D02*
X36616699Y-46323955D01*
X33904085Y-26028127D02*
X33882039Y-26071925D01*
X36095914Y-43971872D02*
X36117960Y-43928074D01*
X33147583Y-43410812D02*
X33195895Y-43419195D01*
X36196595Y-26196103D02*
X36168362Y-26156014D01*
X33970060Y-25843737D02*
X33956983Y-25890994D01*
X55998754Y-26600270D02*
X55987752Y-26600000D01*
X58956983Y-45690994D02*
X58941602Y-45737552D01*
X33989187Y-24452416D02*
X33995189Y-24501080D01*
X58337552Y-33941602D02*
X58290994Y-33956983D01*
X58970060Y-33243737D02*
X58956983Y-33290994D01*
X11043016Y-33290994D02*
X11029939Y-33243737D01*
X36000000Y-45400987D02*
X36000000Y-44399012D01*
X11142129Y-33514588D02*
X11117960Y-33471925D01*
X58773237Y-36365241D02*
X58803404Y-36403896D01*
X11196595Y-24003896D02*
X11226762Y-23965241D01*
X33989187Y-44252416D02*
X33995189Y-44301080D01*
X36095914Y-45828127D02*
X36076044Y-45783300D01*
X36756262Y-46370060D02*
X36709005Y-46356983D01*
X33050018Y-26598796D02*
X33000987Y-26600000D01*
X33596103Y-26403404D02*
X33556014Y-26431637D01*
X69471276Y-69881643D02*
X69481901Y-69875624D01*
X43341Y-709826D02*
X40083Y-721596D01*
X33998796Y-45450018D02*
X33995189Y-45498919D01*
X162221Y-454956D02*
X124388Y-518076D01*
X58857870Y-36485411D02*
X58882039Y-36528074D01*
X36662447Y-26541602D02*
X36616699Y-26523955D01*
X36949981Y-26598796D02*
X36901080Y-26595189D01*
X69206994Y-69977803D02*
X69278380Y-69959922D01*
X56528074Y-36117960D02*
X56571872Y-36095914D01*
X33998796Y-44349981D02*
X34000000Y-44399012D01*
X11328112Y-36258790D02*
X11365241Y-36226762D01*
X13998796Y-33050018D02*
X13995189Y-33098919D01*
X69481901Y-124375D02*
X69471276Y-118356D01*
X69999999Y-1012247D02*
X69999398Y-987766D01*
X36058397Y-24262447D02*
X36076044Y-24216699D01*
X58337552Y-46341602D02*
X58290994Y-46356983D01*
X58707399Y-23892600D02*
X58741209Y-23928112D01*
X914240Y-69995786D02*
X987742Y-69999397D01*
X58147583Y-23610812D02*
X58195895Y-23619195D01*
X13923955Y-33383300D02*
X13904085Y-33428127D01*
X58383300Y-23676044D02*
X58428127Y-23695914D01*
X56000000Y-36999012D02*
X56001203Y-36949981D01*
X36168362Y-26156014D02*
X36142129Y-26114588D01*
X56616699Y-33923955D02*
X56571872Y-33904085D01*
X14012272Y-43400000D02*
X33000987Y-43400000D01*
X36616699Y-26523955D02*
X36571872Y-26504085D01*
X33741209Y-43728112D02*
X33773237Y-43765241D01*
X58596103Y-23796595D02*
X58634758Y-23826762D01*
X33857870Y-43885411D02*
X33882039Y-43928074D01*
X56999012Y-34000000D02*
X56949981Y-33998796D01*
X58596103Y-46203404D02*
X58556014Y-46231637D01*
X56528074Y-33882039D02*
X56485411Y-33857870D01*
X33000987Y-26600000D02*
X14012272Y-26600000D01*
X36258790Y-23928112D02*
X36292600Y-23892600D01*
X58970060Y-45643737D02*
X58956983Y-45690994D01*
X56258790Y-36328112D02*
X56292600Y-36292600D01*
X33671887Y-43658790D02*
X33707399Y-43692600D01*
X33998796Y-24549981D02*
X34000000Y-24599012D01*
X68987752Y-69999999D02*
X69012233Y-69999398D01*
X58980804Y-24404104D02*
X58989187Y-24452416D01*
X36804104Y-46380804D02*
X36756262Y-46370060D01*
X11443985Y-46231637D02*
X11403896Y-46203404D01*
X235214Y-356531D02*
X227238Y-365779D01*
X56804104Y-36019195D02*
X56852416Y-36010812D01*
X33831637Y-26156014D02*
X33803404Y-26196103D01*
X33383300Y-43476044D02*
X33428127Y-43495914D01*
X58707399Y-46107399D02*
X58671887Y-46141209D01*
X58923955Y-45783300D02*
X58904085Y-45828127D01*
X36000000Y-24599012D02*
X36001203Y-24549981D01*
X36709005Y-26556983D02*
X36662447Y-26541602D01*
X36076044Y-25983300D02*
X36058397Y-25937552D01*
X56058397Y-33337552D02*
X56043016Y-33290994D01*
X69471232Y-118333D02*
X69460324Y-112842D01*
X14000270Y-26601245D02*
X14000000Y-26612247D01*
X13098919Y-36004810D02*
X13147583Y-36010812D01*
X175826Y-434592D02*
X168794Y-444576D01*
X0Y-68987752D02*
X601Y-69012233D01*
X36852416Y-46389187D02*
X36804104Y-46380804D01*
X11999012Y-36000000D02*
X13000987Y-36000000D01*
X33941602Y-24262447D02*
X33956983Y-24309005D01*
X58671887Y-33741209D02*
X58634758Y-33773237D01*
X11142129Y-45914588D02*
X11117960Y-45871925D01*
X58290994Y-36043016D02*
X58337552Y-36058397D01*
X47186Y-698183D02*
X43355Y-709779D01*
X33098919Y-26595189D02*
X33050018Y-26598796D01*
X69371128Y-71985D02*
X69301839Y-47194D01*
X33882039Y-26071925D02*
X33857870Y-26114588D01*
X11443985Y-23768362D02*
X11485411Y-23742129D01*
X33980804Y-25795895D02*
X33970060Y-25843737D01*
X33471925Y-23717960D02*
X33514588Y-23742129D01*
X11010812Y-45547583D02*
X11004810Y-45498919D01*
X13514588Y-36142129D02*
X13556014Y-36168362D01*
X58428127Y-33904085D02*
X58383300Y-33923955D01*
X11571872Y-33904085D02*
X11528074Y-33882039D01*
X518076Y-124388D02*
X454956Y-162221D01*
X69928005Y-628848D02*
X69923610Y-617454D01*
X58980804Y-45595895D02*
X58970060Y-45643737D01*
X168767Y-444617D02*
X162233Y-454935D01*
X11000000Y-45400987D02*
X11000000Y-36999012D01*
X59000000Y-36999012D02*
X59000000Y-45400987D01*
X606244Y-69918642D02*
X617409Y-69923591D01*
X58831637Y-45956014D02*
X58803404Y-45996103D01*
X36949981Y-23601203D02*
X36999012Y-23600000D01*
X36901080Y-26595189D02*
X36852416Y-26589187D01*
X11226762Y-36365241D02*
X11258790Y-36328112D01*
X11058397Y-33337552D02*
X11043016Y-33290994D01*
X11443985Y-36168362D02*
X11485411Y-36142129D01*
X69565427Y-69824158D02*
X69624535Y-69780321D01*
X33904085Y-45828127D02*
X33882039Y-45871925D01*
X33995189Y-44301080D02*
X33998796Y-44349981D01*
X69301839Y-69952805D02*
X69371128Y-69928014D01*
X58989187Y-45547583D02*
X58980804Y-45595895D01*
X58634758Y-46173237D02*
X58596103Y-46203404D01*
X56999012Y-36000000D02*
X58000987Y-36000000D01*
X11019195Y-33195895D02*
X11010812Y-33147583D01*
X69382545Y-76389D02*
X69371151Y-71994D01*
X33803404Y-26196103D02*
X33773237Y-26234758D01*
X33098919Y-43404810D02*
X33147583Y-43410812D01*
X709779Y-43355D02*
X698183Y-47186D01*
X56852416Y-36010812D02*
X56901080Y-36004810D01*
X11616699Y-33923955D02*
X11571872Y-33904085D01*
X235231Y-69643486D02*
X284651Y-69698013D01*
X112831Y-539697D02*
X81367Y-606222D01*
X11365241Y-33773237D02*
X11328112Y-33741209D01*
X13243737Y-36029939D02*
X13290994Y-36043016D01*
X56000000Y-33000987D02*
X56000000Y-26612272D01*
X58050018Y-23601203D02*
X58098919Y-23604810D01*
X69977803Y-793005D02*
X69959922Y-721619D01*
X36019195Y-45595895D02*
X36010812Y-45547583D01*
X365779Y-227238D02*
X356531Y-235214D01*
X11852416Y-36010812D02*
X11901080Y-36004810D01*
X11292600Y-23892600D02*
X11328112Y-23858790D01*
X539675Y-112842D02*
X528767Y-118333D01*
X13773237Y-36365241D02*
X13803404Y-36403896D01*
X33383300Y-23676044D02*
X33428127Y-23695914D01*
X58857870Y-33514588D02*
X58831637Y-33556014D01*
X56709005Y-33956983D02*
X56662447Y-33941602D01*
X36029939Y-24356262D02*
X36043016Y-24309005D01*
X33941602Y-44062447D02*
X33956983Y-44109005D01*
X33970060Y-24356262D02*
X33980804Y-24404104D01*
X69999398Y-69012233D02*
X69999999Y-68987752D01*
X13980804Y-33195895D02*
X13970060Y-33243737D01*
X11528074Y-46282039D02*
X11485411Y-46257870D01*
X33634758Y-23826762D02*
X33671887Y-23858790D01*
X33941602Y-45737552D02*
X33923955Y-45783300D01*
X56043016Y-36709005D02*
X56058397Y-36662447D01*
X36292600Y-46107399D02*
X36258790Y-46071887D01*
X58050018Y-36001203D02*
X58098919Y-36004810D01*
X36226762Y-26234758D02*
X36196595Y-26196103D01*
X33243737Y-26570060D02*
X33195895Y-26580804D01*
X13471925Y-36117960D02*
X13514588Y-36142129D01*
X81357Y-606244D02*
X76408Y-617409D01*
X301986Y-69715348D02*
X356513Y-69764768D01*
X58471925Y-36117960D02*
X58514588Y-36142129D01*
X69994882Y-901987D02*
X69993387Y-889867D01*
X11328112Y-23858790D02*
X11365241Y-23826762D01*
X56571872Y-33904085D02*
X56528074Y-33882039D01*
X58998796Y-24549981D02*
X59000000Y-24599012D01*
X36756262Y-26570060D02*
X36709005Y-26556983D01*
X19505Y-804992D02*
X17417Y-817025D01*
X13195895Y-36019195D02*
X13243737Y-36029939D01*
X71985Y-628871D02*
X47194Y-698160D01*
X36258790Y-46071887D02*
X36226762Y-46034758D01*
X33995189Y-25698919D02*
X33989187Y-25747583D01*
X36095914Y-24171872D02*
X36117960Y-24128074D01*
X36662447Y-23658397D02*
X36709005Y-23643016D01*
X33773237Y-46034758D02*
X33741209Y-46071887D01*
X33428127Y-43495914D02*
X33471925Y-43517960D01*
X36196595Y-45996103D02*
X36168362Y-45956014D01*
X56004810Y-33098919D02*
X56001203Y-33050018D01*
X36076044Y-44016699D02*
X36095914Y-43971872D01*
X58556014Y-36168362D02*
X58596103Y-36196595D01*
X56019195Y-33195895D02*
X56010812Y-33147583D01*
X69555382Y-168767D02*
X69545064Y-162233D01*
X33803404Y-24003896D02*
X33831637Y-24043985D01*
X69624535Y-219678D02*
X69565427Y-175841D01*
X601Y-987766D02*
X0Y-1012247D01*
X69206971Y-22191D02*
X69195055Y-19515D01*
X33904085Y-43971872D02*
X33923955Y-44016699D01*
X219678Y-375464D02*
X175841Y-434572D01*
X11019195Y-36804104D02*
X11029939Y-36756262D01*
X11010812Y-33147583D02*
X11004810Y-33098919D01*
X36226762Y-43765241D02*
X36258790Y-43728112D01*
X11403896Y-23796595D02*
X11443985Y-23768362D01*
X69624555Y-69780306D02*
X69634182Y-69772792D01*
X13707399Y-33707399D02*
X13671887Y-33741209D01*
X69195007Y-19505D02*
X69182974Y-17417D01*
X11852416Y-33989187D02*
X11804104Y-33980804D01*
X13634758Y-33773237D02*
X13596103Y-33803404D01*
X13773237Y-33634758D02*
X13741209Y-33671887D01*
X69698031Y-69715331D02*
X69706876Y-69706910D01*
X36001203Y-24549981D02*
X36004810Y-24501080D01*
X58195895Y-23619195D02*
X58243737Y-23629939D01*
X36616699Y-43476044D02*
X36662447Y-43458397D01*
X33956983Y-45690994D02*
X33941602Y-45737552D01*
X11709005Y-36043016D02*
X11756262Y-36029939D01*
X11010812Y-24452416D02*
X11019195Y-24404104D01*
X33337552Y-43458397D02*
X33383300Y-43476044D01*
X13290994Y-33956983D02*
X13243737Y-33970060D01*
X58471925Y-23717960D02*
X58514588Y-23742129D01*
X33882039Y-45871925D02*
X33857870Y-45914588D01*
X36058397Y-44062447D02*
X36076044Y-44016699D01*
X33383300Y-26523955D02*
X33337552Y-26541602D01*
X69715331Y-301968D02*
X69706910Y-293123D01*
X69698013Y-284651D02*
X69643486Y-235231D01*
X58803404Y-33596103D02*
X58773237Y-33634758D01*
X56403896Y-36196595D02*
X56443985Y-36168362D01*
X36142129Y-43885411D02*
X36168362Y-43843985D01*
X81367Y-69393777D02*
X112831Y-69460302D01*
X36528074Y-26482039D02*
X36485411Y-26457870D01*
X69923610Y-69382545D02*
X69928005Y-69371151D01*
X33243737Y-43429939D02*
X33290994Y-43443016D01*
X11999012Y-46400000D02*
X11949981Y-46398796D01*
X69643486Y-69764768D02*
X69698013Y-69715348D01*
X58243737Y-23629939D02*
X58290994Y-23643016D01*
X55987727Y-26600000D02*
X36999012Y-26600000D01*
X36662447Y-43458397D02*
X36709005Y-43443016D01*
X43355Y-69290220D02*
X47186Y-69301816D01*
X11852416Y-23610812D02*
X11901080Y-23604810D01*
X698183Y-69952813D02*
X709779Y-69956644D01*
X69555423Y-69831205D02*
X69565407Y-69824173D01*
X11365241Y-23826762D02*
X11403896Y-23796595D01*
X13514588Y-33857870D02*
X13471925Y-33882039D01*
X11004810Y-36901080D02*
X11010812Y-36852416D01*
X293123Y-69706910D02*
X301968Y-69715331D01*
X69980484Y-804944D02*
X69977808Y-793028D01*
X36616699Y-46323955D02*
X36571872Y-46304085D01*
X36010812Y-25747583D02*
X36004810Y-25698919D01*
X56004810Y-36901080D02*
X56010812Y-36852416D01*
X11616699Y-23676044D02*
X11662447Y-23658397D01*
X13556014Y-33831637D02*
X13514588Y-33857870D01*
X36001203Y-45450018D02*
X36000000Y-45400987D01*
X56196595Y-33596103D02*
X56168362Y-33556014D01*
X58831637Y-24043985D02*
X58857870Y-24085411D01*
X11485411Y-23742129D02*
X11528074Y-23717960D01*
X11804104Y-23619195D02*
X11852416Y-23610812D01*
X33707399Y-46107399D02*
X33671887Y-46141209D01*
X33195895Y-23619195D02*
X33243737Y-23629939D01*
X36043016Y-44109005D02*
X36058397Y-44062447D01*
X58773237Y-23965241D02*
X58803404Y-24003896D01*
X58857870Y-45914588D02*
X58831637Y-45956014D01*
X36403896Y-46203404D02*
X36365241Y-46173237D01*
X36019195Y-24404104D02*
X36029939Y-24356262D01*
X58773237Y-46034758D02*
X58741209Y-46071887D01*
X13050018Y-36001203D02*
X13098919Y-36004810D01*
X36999012Y-26600000D02*
X36949981Y-26598796D01*
X11058397Y-45737552D02*
X11043016Y-45690994D01*
X36196595Y-43803896D02*
X36226762Y-43765241D01*
X36949981Y-46398796D02*
X36901080Y-46395189D01*
X356513Y-235231D02*
X301986Y-284651D01*
X69545043Y-162221D02*
X69481923Y-124388D01*
X70000000Y-68987727D02*
X70000000Y-1012272D01*
X58803404Y-36403896D02*
X58831637Y-36443985D01*
X11117960Y-45871925D02*
X11095914Y-45828127D01*
X58970060Y-24356262D02*
X58980804Y-24404104D01*
X33195895Y-46380804D02*
X33147583Y-46389187D01*
X69952813Y-69301816D02*
X69956644Y-69290220D01*
X56029939Y-36756262D02*
X56043016Y-36709005D01*
X11571872Y-23695914D02*
X11616699Y-23676044D01*
X58941602Y-45737552D02*
X58923955Y-45783300D01*
X804944Y-19515D02*
X793028Y-22191D01*
X33741209Y-46071887D02*
X33707399Y-46107399D01*
X6612Y-889867D02*
X5117Y-901987D01*
X56662447Y-36058397D02*
X56709005Y-36043016D01*
X13882039Y-33471925D02*
X13857870Y-33514588D01*
X721619Y-69959922D02*
X793005Y-69977803D01*
X36001203Y-25650018D02*
X36000000Y-25600987D01*
X58634758Y-33773237D02*
X58596103Y-33803404D01*
X11019195Y-24404104D02*
X11029939Y-24356262D01*
X59000000Y-45400987D02*
X58998796Y-45450018D01*
X11804104Y-46380804D02*
X11756262Y-46370060D01*
X69887157Y-539675D02*
X69881666Y-528767D01*
X606222Y-81367D02*
X539697Y-112831D01*
X118356Y-69471276D02*
X124375Y-69481901D01*
X58707399Y-36292600D02*
X58741209Y-36328112D01*
X58998796Y-36949981D02*
X59000000Y-36999012D01*
X56058397Y-36662447D02*
X56076044Y-36616699D01*
X56029939Y-33243737D02*
X56019195Y-33195895D01*
X33290994Y-26556983D02*
X33243737Y-26570060D01*
X69706876Y-293089D02*
X69698031Y-284668D01*
X58514588Y-33857870D02*
X58471925Y-33882039D01*
X11709005Y-23643016D02*
X11756262Y-23629939D01*
X59000000Y-33000987D02*
X58998796Y-33050018D01*
X518098Y-69875624D02*
X528723Y-69881643D01*
X58995189Y-36901080D02*
X58998796Y-36949981D01*
X11258790Y-23928112D02*
X11292600Y-23892600D01*
X58290994Y-23643016D02*
X58337552Y-23658397D01*
X58998796Y-33050018D02*
X58995189Y-33098919D01*
X11901080Y-36004810D02*
X11949981Y-36001203D01*
X13989187Y-36852416D02*
X13995189Y-36901080D01*
X11168362Y-33556014D02*
X11142129Y-33514588D01*
X11196595Y-45996103D02*
X11168362Y-45956014D01*
X11226762Y-23965241D02*
X11258790Y-23928112D01*
X56168362Y-36443985D02*
X56196595Y-36403896D01*
X11292600Y-36292600D02*
X11328112Y-36258790D01*
X58000987Y-23600000D02*
X58050018Y-23601203D01*
X36076044Y-45783300D02*
X36058397Y-45737552D01*
X34000000Y-45400987D02*
X33998796Y-45450018D01*
X58741209Y-33671887D02*
X58707399Y-33707399D01*
X33147583Y-46389187D02*
X33098919Y-46395189D01*
X40077Y-721619D02*
X22196Y-793005D01*
X55999729Y-43398754D02*
X55999999Y-43387752D01*
X33195895Y-43419195D02*
X33243737Y-43429939D01*
X58831637Y-33556014D02*
X58803404Y-33596103D01*
X58882039Y-33471925D02*
X58857870Y-33514588D01*
X11901080Y-33995189D02*
X11852416Y-33989187D01*
X13741209Y-36328112D02*
X13773237Y-36365241D01*
X11029939Y-24356262D02*
X11043016Y-24309005D01*
X33290994Y-23643016D02*
X33337552Y-23658397D01*
X56756262Y-36029939D02*
X56804104Y-36019195D01*
X33989187Y-25747583D02*
X33980804Y-25795895D01*
X58904085Y-36571872D02*
X58923955Y-36616699D01*
X56226762Y-33634758D02*
X56196595Y-33596103D01*
X56443985Y-36168362D02*
X56485411Y-36142129D01*
X58989187Y-33147583D02*
X58980804Y-33195895D01*
X69999397Y-987742D02*
X69995786Y-914240D01*
X34000000Y-25600987D02*
X33998796Y-25650018D01*
X58998796Y-45450018D02*
X58995189Y-45498919D01*
X58741209Y-23928112D02*
X58773237Y-23965241D01*
X11010812Y-36852416D02*
X11019195Y-36804104D01*
X11000000Y-36999012D02*
X11001203Y-36949981D01*
X69085759Y-4213D02*
X69012257Y-602D01*
X58556014Y-46231637D02*
X58514588Y-46257870D01*
X11804104Y-33980804D02*
X11756262Y-33970060D01*
X11528074Y-36117960D02*
X11571872Y-36095914D01*
X33989187Y-45547583D02*
X33980804Y-45595895D01*
X69545064Y-69837766D02*
X69555382Y-69831232D01*
X33882039Y-43928074D02*
X33904085Y-43971872D01*
X33514588Y-26457870D02*
X33471925Y-26482039D01*
X36258790Y-26271887D02*
X36226762Y-26234758D01*
X36226762Y-46034758D02*
X36196595Y-45996103D01*
X36196595Y-24003896D02*
X36226762Y-23965241D01*
X58098919Y-36004810D02*
X58147583Y-36010812D01*
X33773237Y-26234758D02*
X33741209Y-26271887D01*
X76389Y-617454D02*
X71994Y-628848D01*
X36168362Y-24043985D02*
X36196595Y-24003896D01*
X33831637Y-24043985D02*
X33857870Y-24085411D01*
X58904085Y-24171872D02*
X58923955Y-24216699D01*
X58671887Y-36258790D02*
X58707399Y-36292600D01*
X58471925Y-33882039D02*
X58428127Y-33904085D01*
X11328112Y-46141209D02*
X11292600Y-46107399D01*
X36804104Y-26580804D02*
X36756262Y-26570060D01*
X17417Y-69182974D02*
X19505Y-69195007D01*
X14012247Y-26600000D02*
X14001245Y-26600270D01*
X13147583Y-36010812D02*
X13195895Y-36019195D01*
X914216Y-4214D02*
X902036Y-5112D01*
X36528074Y-43517960D02*
X36571872Y-43495914D01*
X56328112Y-33741209D02*
X56292600Y-33707399D01*
X11756262Y-33970060D02*
X11709005Y-33956983D01*
X33000987Y-46400000D02*
X11999012Y-46400000D01*
X56616699Y-36076044D02*
X56662447Y-36058397D01*
X56196595Y-36403896D02*
X56226762Y-36365241D01*
X14000000Y-33000987D02*
X13998796Y-33050018D01*
X14000000Y-43387752D02*
X14000270Y-43398754D01*
X56019195Y-36804104D02*
X56029939Y-36756262D01*
X33857870Y-45914588D02*
X33831637Y-45956014D01*
X33634758Y-46173237D02*
X33596103Y-46203404D01*
X34000000Y-24599012D02*
X34000000Y-25600987D01*
X11616699Y-36076044D02*
X11662447Y-36058397D01*
X36901080Y-46395189D02*
X36852416Y-46389187D01*
X11901080Y-23604810D02*
X11949981Y-23601203D01*
X33471925Y-26482039D02*
X33428127Y-26504085D01*
X40083Y-69278403D02*
X43341Y-69290173D01*
X36004810Y-25698919D02*
X36001203Y-25650018D01*
X36117960Y-45871925D02*
X36095914Y-45828127D01*
X628848Y-71994D02*
X617454Y-76389D01*
X11901080Y-46395189D02*
X11852416Y-46389187D01*
X33428127Y-26504085D02*
X33383300Y-26523955D01*
X58098919Y-33995189D02*
X58050018Y-33998796D01*
X36004810Y-44301080D02*
X36010812Y-44252416D01*
X56010812Y-33147583D02*
X56004810Y-33098919D01*
X13383300Y-33923955D02*
X13337552Y-33941602D01*
X721596Y-40083D02*
X709826Y-43341D01*
X58831637Y-36443985D02*
X58857870Y-36485411D01*
X69393777Y-69918632D02*
X69460302Y-69887168D01*
X13941602Y-36662447D02*
X13956983Y-36709005D01*
X365817Y-69772792D02*
X375444Y-69780306D01*
X112842Y-69460324D02*
X118333Y-69471232D01*
X36949981Y-43401203D02*
X36999012Y-43400000D01*
X36756262Y-23629939D02*
X36804104Y-23619195D01*
X58428127Y-36095914D02*
X58471925Y-36117960D01*
X58803404Y-24003896D02*
X58831637Y-24043985D01*
X69837766Y-454935D02*
X69831232Y-444617D01*
X11058397Y-36662447D02*
X11076044Y-36616699D01*
X36365241Y-43626762D02*
X36403896Y-43596595D01*
X14000000Y-36999012D02*
X14000000Y-43387727D01*
X11196595Y-33596103D02*
X11168362Y-33556014D01*
X13671887Y-36258790D02*
X13707399Y-36292600D01*
X11616699Y-46323955D02*
X11571872Y-46304085D01*
X69481923Y-69875611D02*
X69545043Y-69837778D01*
X36058397Y-25937552D02*
X36043016Y-25890994D01*
X69565407Y-175826D02*
X69555423Y-168794D01*
X11403896Y-46203404D02*
X11365241Y-46173237D01*
X58634758Y-23826762D02*
X58671887Y-23858790D01*
X804992Y-69980494D02*
X817025Y-69982582D01*
X36292600Y-43692600D02*
X36328112Y-43658790D01*
X13995189Y-36901080D02*
X13998796Y-36949981D01*
X36443985Y-23768362D02*
X36485411Y-23742129D01*
X56226762Y-36365241D02*
X56258790Y-36328112D01*
X11662447Y-36058397D02*
X11709005Y-36043016D01*
X11029939Y-33243737D02*
X11019195Y-33195895D01*
X33596103Y-46203404D02*
X33556014Y-46231637D01*
X58995189Y-45498919D02*
X58989187Y-45547583D01*
X58243737Y-46370060D02*
X58195895Y-46380804D01*
X13596103Y-33803404D02*
X13556014Y-33831637D01*
X13882039Y-36528074D02*
X13904085Y-36571872D01*
X36117960Y-26071925D02*
X36095914Y-26028127D01*
X11043016Y-24309005D02*
X11058397Y-24262447D01*
X11485411Y-33857870D02*
X11443985Y-33831637D01*
X11000000Y-33000987D02*
X11000000Y-24599012D01*
X33998796Y-25650018D02*
X33995189Y-25698919D01*
X69110132Y-6612D02*
X69098012Y-5117D01*
X36328112Y-46141209D02*
X36292600Y-46107399D01*
X58428127Y-46304085D02*
X58383300Y-46323955D01*
X36852416Y-43410812D02*
X36901080Y-43404810D01*
X375464Y-69780321D02*
X434572Y-69824158D01*
X11709005Y-33956983D02*
X11662447Y-33941602D01*
X33923955Y-25983300D02*
X33904085Y-26028127D01*
X13904085Y-33428127D02*
X13882039Y-33471925D01*
X36226762Y-23965241D02*
X36258790Y-23928112D01*
X33098919Y-46395189D02*
X33050018Y-46398796D01*
X33514588Y-43542129D02*
X33556014Y-43568362D01*
X58923955Y-24216699D02*
X58941602Y-24262447D01*
X434572Y-175841D02*
X375464Y-219678D01*
X13989187Y-33147583D02*
X13980804Y-33195895D01*
X434592Y-69824173D02*
X444576Y-69831205D01*
X55987752Y-43399999D02*
X55998754Y-43399729D01*
X33773237Y-23965241D02*
X33803404Y-24003896D01*
X33741209Y-26271887D02*
X33707399Y-26307399D01*
X14000000Y-26612272D02*
X14000000Y-33000987D01*
X33970060Y-45643737D02*
X33956983Y-45690994D01*
X36168362Y-45956014D02*
X36142129Y-45914588D01*
X11756262Y-23629939D02*
X11804104Y-23619195D01*
X69182950Y-17413D02*
X69110156Y-6616D01*
X528723Y-118356D02*
X518098Y-124375D01*
X11852416Y-46389187D02*
X11804104Y-46380804D01*
X33471925Y-46282039D02*
X33428127Y-46304085D01*
X11571872Y-46304085D02*
X11528074Y-46282039D01*
X11095914Y-33428127D02*
X11076044Y-33383300D01*
X33337552Y-46341602D02*
X33290994Y-46356983D01*
X58337552Y-36058397D02*
X58383300Y-36076044D01*
X58882039Y-36528074D02*
X58904085Y-36571872D01*
X56365241Y-36226762D02*
X56403896Y-36196595D01*
X617409Y-76408D02*
X606244Y-81357D01*
X56443985Y-33831637D02*
X56403896Y-33803404D01*
X5112Y-902036D02*
X4214Y-914216D01*
X11019195Y-45595895D02*
X11010812Y-45547583D01*
X69012257Y-69999397D02*
X69085759Y-69995786D01*
X33707399Y-43692600D02*
X33741209Y-43728112D01*
X56142129Y-33514588D02*
X56117960Y-33471925D01*
X69824173Y-69565407D02*
X69831205Y-69555423D01*
X13428127Y-33904085D02*
X13383300Y-33923955D01*
X1012247Y0D02*
X987766Y-601D01*
X33831637Y-43843985D02*
X33857870Y-43885411D01*
X11196595Y-36403896D02*
X11226762Y-36365241D01*
X33243737Y-23629939D02*
X33290994Y-23643016D01*
X33337552Y-23658397D02*
X33383300Y-23676044D01*
X13050018Y-33998796D02*
X13000987Y-34000000D01*
X33634758Y-26373237D02*
X33596103Y-26403404D01*
X36804104Y-23619195D02*
X36852416Y-23610812D01*
X36058397Y-45737552D02*
X36043016Y-45690994D01*
X36485411Y-26457870D02*
X36443985Y-26431637D01*
X11258790Y-33671887D02*
X11226762Y-33634758D01*
X56292600Y-36292600D02*
X56328112Y-36258790D01*
X11258790Y-46071887D02*
X11226762Y-46034758D01*
X36999012Y-23600000D02*
X58000987Y-23600000D01*
X36852416Y-23610812D02*
X36901080Y-23604810D01*
X36019195Y-44204104D02*
X36029939Y-44156262D01*
X11004810Y-45498919D02*
X11001203Y-45450018D01*
X11365241Y-36226762D02*
X11403896Y-36196595D01*
X36010812Y-44252416D02*
X36019195Y-44204104D01*
X13803404Y-36403896D02*
X13831637Y-36443985D01*
X11095914Y-24171872D02*
X11117960Y-24128074D01*
X33803404Y-45996103D02*
X33773237Y-46034758D01*
X602Y-69012257D02*
X4213Y-69085759D01*
X56949981Y-33998796D02*
X56901080Y-33995189D01*
X33956983Y-25890994D02*
X33941602Y-25937552D01*
X33803404Y-43803896D02*
X33831637Y-43843985D01*
X11949981Y-46398796D02*
X11901080Y-46395189D01*
X33980804Y-44204104D02*
X33989187Y-44252416D01*
X36019195Y-25795895D02*
X36010812Y-25747583D01*
X36709005Y-23643016D02*
X36756262Y-23629939D01*
X33195895Y-26580804D02*
X33147583Y-26589187D01*
X69764785Y-69643468D02*
X69772761Y-69634220D01*
X13923955Y-36616699D02*
X13941602Y-36662447D01*
X69278403Y-69959916D02*
X69290173Y-69956658D01*
X11168362Y-45956014D02*
X11142129Y-45914588D01*
X33147583Y-23610812D02*
X33195895Y-23619195D01*
X36403896Y-43596595D02*
X36443985Y-43568362D01*
X11226762Y-46034758D02*
X11196595Y-45996103D01*
X69918642Y-69393755D02*
X69923591Y-69382590D01*
X58970060Y-36756262D02*
X58980804Y-36804104D01*
X58941602Y-33337552D02*
X58923955Y-33383300D01*
X36571872Y-26504085D02*
X36528074Y-26482039D01*
X124388Y-69481923D02*
X162221Y-69545043D01*
X11949981Y-36001203D02*
X11999012Y-36000000D01*
X58471925Y-46282039D02*
X58428127Y-46304085D01*
X36999012Y-46400000D02*
X36949981Y-46398796D01*
X69706910Y-69706876D02*
X69715331Y-69698031D01*
X11709005Y-46356983D02*
X11662447Y-46341602D01*
X219693Y-69624555D02*
X227207Y-69634182D01*
X11485411Y-46257870D02*
X11443985Y-46231637D01*
X11076044Y-36616699D02*
X11095914Y-36571872D01*
X33671887Y-23858790D02*
X33707399Y-23892600D01*
X11029939Y-36756262D02*
X11043016Y-36709005D01*
X33707399Y-26307399D02*
X33671887Y-26341209D01*
X58989187Y-36852416D02*
X58995189Y-36901080D01*
X33337552Y-26541602D02*
X33290994Y-26556983D01*
X58428127Y-23695914D02*
X58471925Y-23717960D01*
X69634220Y-69772761D02*
X69643468Y-69764785D01*
X11258790Y-36328112D02*
X11292600Y-36292600D01*
X34000000Y-44399012D02*
X34000000Y-45400987D01*
X33980804Y-45595895D02*
X33970060Y-45643737D01*
X11292600Y-46107399D02*
X11258790Y-46071887D01*
X36328112Y-23858790D02*
X36365241Y-23826762D01*
X58857870Y-24085411D02*
X58882039Y-24128074D01*
X13195895Y-33980804D02*
X13147583Y-33989187D01*
X13243737Y-33970060D02*
X13195895Y-33980804D01*
X33995189Y-45498919D02*
X33989187Y-45547583D01*
X58383300Y-33923955D02*
X58337552Y-33941602D01*
X69875624Y-69481901D02*
X69881643Y-69471276D01*
X58923955Y-36616699D02*
X58941602Y-36662447D01*
X36403896Y-26403404D02*
X36365241Y-26373237D01*
X58773237Y-33634758D02*
X58741209Y-33671887D01*
X69881666Y-69471232D02*
X69887157Y-69460324D01*
X69993383Y-889843D02*
X69982586Y-817049D01*
X13956983Y-36709005D02*
X13970060Y-36756262D01*
X68987727Y0D02*
X1012272Y0D01*
X58671887Y-23858790D02*
X58707399Y-23892600D01*
X175841Y-69565427D02*
X219678Y-69624535D01*
X36365241Y-46173237D02*
X36328112Y-46141209D01*
X4214Y-69085783D02*
X5112Y-69097963D01*
X69959916Y-721596D02*
X69956658Y-709826D01*
X33741209Y-23928112D02*
X33773237Y-23965241D01*
X4213Y-914240D02*
X602Y-987742D01*
X13995189Y-33098919D02*
X13989187Y-33147583D01*
X56076044Y-33383300D02*
X56058397Y-33337552D01*
X56001203Y-36949981D02*
X56004810Y-36901080D01*
X58707399Y-33707399D02*
X58671887Y-33741209D01*
X11999012Y-23600000D02*
X33000987Y-23600000D01*
X33556014Y-23768362D02*
X33596103Y-23796595D01*
X69097963Y-5112D02*
X69085783Y-4214D01*
X33050018Y-46398796D02*
X33000987Y-46400000D01*
X284668Y-69698031D02*
X293089Y-69706876D01*
X58556014Y-23768362D02*
X58596103Y-23796595D01*
X13831637Y-33556014D02*
X13803404Y-33596103D01*
X56571872Y-36095914D02*
X56616699Y-36076044D01*
X11662447Y-33941602D02*
X11616699Y-33923955D01*
X56168362Y-33556014D02*
X56142129Y-33514588D01*
X36001203Y-44349981D02*
X36004810Y-44301080D01*
X36043016Y-25890994D02*
X36029939Y-25843737D01*
X56010812Y-36852416D02*
X56019195Y-36804104D01*
X13857870Y-36485411D02*
X13882039Y-36528074D01*
X987742Y-602D02*
X914240Y-4213D01*
X69772761Y-365779D02*
X69764785Y-356531D01*
X33428127Y-46304085D02*
X33383300Y-46323955D01*
X14001245Y-43399729D02*
X14012247Y-43399999D01*
X793028Y-69977808D02*
X804944Y-69980484D01*
X13970060Y-36756262D02*
X13980804Y-36804104D01*
X33596103Y-43596595D02*
X33634758Y-43626762D01*
X293089Y-293123D02*
X284668Y-301968D01*
X69956658Y-69290173D02*
X69959916Y-69278403D01*
X33147583Y-26589187D02*
X33098919Y-26595189D01*
X33923955Y-44016699D02*
X33941602Y-44062447D01*
X71994Y-69371151D02*
X76389Y-69382545D01*
X69881643Y-528723D02*
X69875624Y-518098D01*
X69824158Y-434572D02*
X69780321Y-375464D01*
X13383300Y-36076044D02*
X13428127Y-36095914D01*
X69290173Y-43341D02*
X69278403Y-40083D01*
X13998796Y-36949981D02*
X14000000Y-36999012D01*
X22191Y-793028D02*
X19515Y-804944D01*
X56403896Y-33803404D02*
X56365241Y-33773237D01*
X36999012Y-43400000D02*
X55987727Y-43400000D01*
X124375Y-518098D02*
X118356Y-528723D01*
X375444Y-219693D02*
X365817Y-227207D01*
X11168362Y-36443985D02*
X11196595Y-36403896D01*
X11292600Y-33707399D02*
X11258790Y-33671887D01*
X36571872Y-43495914D02*
X36616699Y-43476044D01*
X817025Y-17417D02*
X804992Y-19505D01*
X76408Y-69382590D02*
X81357Y-69393755D01*
X36528074Y-23717960D02*
X36571872Y-23695914D01*
X36901080Y-23604810D02*
X36949981Y-23601203D01*
X36403896Y-23796595D02*
X36443985Y-23768362D01*
X13671887Y-33741209D02*
X13634758Y-33773237D01*
X36142129Y-24085411D02*
X36168362Y-24043985D01*
X13471925Y-33882039D02*
X13428127Y-33904085D01*
X58195895Y-33980804D02*
X58147583Y-33989187D01*
X6616Y-69110156D02*
X17413Y-69182950D01*
X69012233Y-601D02*
X68987752Y0D01*
X13290994Y-36043016D02*
X13337552Y-36058397D01*
X69831205Y-444576D02*
X69824173Y-434592D01*
X56901080Y-33995189D02*
X56852416Y-33989187D01*
X19515Y-69195055D02*
X22191Y-69206971D01*
X17413Y-817049D02*
X6616Y-889843D01*
X58514588Y-46257870D02*
X58471925Y-46282039D01*
X58882039Y-24128074D02*
X58904085Y-24171872D01*
X11571872Y-36095914D02*
X11616699Y-36076044D01*
X36328112Y-26341209D02*
X36292600Y-26307399D01*
X36029939Y-45643737D02*
X36019195Y-45595895D01*
X69382590Y-69923591D02*
X69393755Y-69918642D01*
X33671887Y-46141209D02*
X33634758Y-46173237D01*
X58195895Y-46380804D02*
X58147583Y-46389187D01*
X36901080Y-43404810D02*
X36949981Y-43401203D01*
X11058397Y-24262447D02*
X11076044Y-24216699D01*
X13980804Y-36804104D02*
X13989187Y-36852416D01*
X284651Y-301986D02*
X235231Y-356513D01*
X36571872Y-23695914D02*
X36616699Y-23676044D01*
X33556014Y-46231637D02*
X33514588Y-46257870D01*
X33634758Y-43626762D02*
X33671887Y-43658790D01*
X58634758Y-36226762D02*
X58671887Y-36258790D01*
X58514588Y-23742129D02*
X58556014Y-23768362D01*
X58941602Y-36662447D02*
X58956983Y-36709005D01*
X33941602Y-25937552D02*
X33923955Y-25983300D01*
X56142129Y-36485411D02*
X56168362Y-36443985D01*
X11949981Y-33998796D02*
X11901080Y-33995189D01*
X162233Y-69545064D02*
X168767Y-69555382D01*
X58147583Y-46389187D02*
X58098919Y-46395189D01*
X889843Y-6616D02*
X817049Y-17413D01*
X36443985Y-46231637D02*
X36403896Y-46203404D01*
X36168362Y-43843985D02*
X36196595Y-43803896D01*
X36804104Y-43419195D02*
X36852416Y-43410812D01*
X11001203Y-36949981D02*
X11004810Y-36901080D01*
X58803404Y-45996103D02*
X58773237Y-46034758D01*
X227238Y-69634220D02*
X235214Y-69643468D01*
X698160Y-47194D02*
X628871Y-71985D01*
X13337552Y-36058397D02*
X13383300Y-36076044D01*
X58147583Y-33989187D02*
X58098919Y-33995189D01*
X56485411Y-36142129D02*
X56528074Y-36117960D01*
X11043016Y-36709005D02*
X11058397Y-36662447D01*
X11095914Y-45828127D02*
X11076044Y-45783300D01*
X69952805Y-698160D02*
X69928014Y-628871D01*
X11443985Y-33831637D02*
X11403896Y-33803404D01*
X356531Y-69764785D02*
X365779Y-69772761D01*
X13000987Y-36000000D02*
X13050018Y-36001203D01*
X33000987Y-43400000D02*
X33050018Y-43401203D01*
X58956983Y-24309005D02*
X58970060Y-24356262D01*
X56949981Y-36001203D02*
X56999012Y-36000000D01*
X69977808Y-69206971D02*
X69980484Y-69195055D01*
X69993387Y-69110132D02*
X69994882Y-69098012D01*
X11076044Y-45783300D02*
X11058397Y-45737552D01*
X33970060Y-44156262D02*
X33980804Y-44204104D01*
X33471925Y-43517960D02*
X33514588Y-43542129D01*
X56000000Y-43387727D02*
X56000000Y-36999012D01*
X11117960Y-24128074D02*
X11142129Y-24085411D01*
X33923955Y-45783300D02*
X33904085Y-45828127D01*
X11804104Y-36019195D02*
X11852416Y-36010812D01*
X69875611Y-518076D02*
X69837778Y-454956D01*
X36616699Y-23676044D02*
X36662447Y-23658397D01*
X58980804Y-36804104D02*
X58989187Y-36852416D01*
X36365241Y-26373237D02*
X36328112Y-26341209D01*
X36095914Y-26028127D02*
X36076044Y-25983300D01*
X33671887Y-26341209D02*
X33634758Y-26373237D01*
X58980804Y-33195895D02*
X58970060Y-33243737D01*
X301968Y-284668D02*
X293123Y-293089D01*
X11485411Y-36142129D02*
X11528074Y-36117960D01*
X69085783Y-69995785D02*
X69097963Y-69994887D01*
X69956644Y-709779D02*
X69952813Y-698183D01*
X36328112Y-43658790D02*
X36365241Y-43626762D01*
X56709005Y-36043016D02*
X56756262Y-36029939D01*
X11001203Y-45450018D02*
X11000000Y-45400987D01*
X33857870Y-26114588D02*
X33831637Y-26156014D01*
X69772792Y-69634182D02*
X69780306Y-69624555D01*
X58000987Y-34000000D02*
X56999012Y-34000000D01*
X11004810Y-24501080D02*
X11010812Y-24452416D01*
X56076044Y-36616699D02*
X56095914Y-36571872D01*
X454956Y-69837778D02*
X518076Y-69875611D01*
X69780321Y-69624535D02*
X69824158Y-69565427D01*
X11756262Y-36029939D02*
X11804104Y-36019195D01*
X11168362Y-24043985D02*
X11196595Y-24003896D01*
X33980804Y-24404104D02*
X33989187Y-24452416D01*
X0Y-1012272D02*
X0Y-68987727D01*
X11001203Y-33050018D02*
X11000000Y-33000987D01*
X69831232Y-69555382D02*
X69837766Y-69545064D01*
X69764768Y-356513D02*
X69715348Y-301986D01*
X33098919Y-23604810D02*
X33147583Y-23610812D01*
X33923955Y-24216699D02*
X33941602Y-24262447D01*
X617454Y-69923610D02*
X628848Y-69928005D01*
X1012272Y-70000000D02*
X68987727Y-70000000D01*
X13941602Y-33337552D02*
X13923955Y-33383300D01*
X11076044Y-33383300D02*
X11058397Y-33337552D01*
X33773237Y-43765241D02*
X33803404Y-43803896D01*
X902036Y-69994887D02*
X914216Y-69995785D01*
X13857870Y-33514588D02*
X13831637Y-33556014D01*
X58882039Y-45871925D02*
X58857870Y-45914588D01*
X69393755Y-81357D02*
X69382590Y-76408D01*
X36443985Y-43568362D02*
X36485411Y-43542129D01*
X33290994Y-46356983D02*
X33243737Y-46370060D01*
X58556014Y-33831637D02*
X58514588Y-33857870D01*
X56258790Y-33671887D02*
X56226762Y-33634758D01*
X69278380Y-40077D02*
X69206994Y-22196D01*
X11662447Y-46341602D02*
X11616699Y-46323955D01*
X58050018Y-33998796D02*
X58000987Y-34000000D01*
X58098919Y-46395189D02*
X58050018Y-46398796D01*
X69982582Y-817025D02*
X69980494Y-804992D01*
X58000987Y-46400000D02*
X36999012Y-46400000D01*
X56756262Y-33970060D02*
X56709005Y-33956983D01*
X69715348Y-69698013D02*
X69764768Y-69643486D01*
X11076044Y-24216699D02*
X11095914Y-24171872D01*
X56328112Y-36258790D02*
X56365241Y-36226762D01*
X11403896Y-36196595D02*
X11443985Y-36168362D01*
X11001203Y-24549981D02*
X11004810Y-24501080D01*
X58383300Y-46323955D02*
X58337552Y-46341602D01*
X58596103Y-36196595D02*
X58634758Y-36226762D01*
X11004810Y-33098919D02*
X11001203Y-33050018D01*
X118333Y-528767D02*
X112842Y-539675D01*
X69982586Y-69182950D02*
X69993383Y-69110156D01*
X901987Y-5117D02*
X889867Y-6612D01*
X36010812Y-45547583D02*
X36004810Y-45498919D01*
X11365241Y-46173237D02*
X11328112Y-46141209D01*
X36142129Y-26114588D02*
X36117960Y-26071925D01*
X69110156Y-69993383D02*
X69182950Y-69982586D01*
X69301816Y-47186D02*
X69290220Y-43355D01*
X36004810Y-24501080D02*
X36010812Y-24452416D01*
X69918632Y-606222D02*
X69887168Y-539697D01*
X69290220Y-69956644D02*
X69301816Y-69952813D01*
X33956983Y-44109005D02*
X33970060Y-44156262D01*
X36117960Y-24128074D02*
X36142129Y-24085411D01*
X11949981Y-23601203D02*
X11999012Y-23600000D01*
X33707399Y-23892600D02*
X33741209Y-23928112D01*
X33556014Y-43568362D02*
X33596103Y-43596595D01*
X227207Y-365817D02*
X219693Y-375444D01*
X55999999Y-26612247D02*
X55999729Y-26601245D01*
X56117960Y-36528074D02*
X56142129Y-36485411D01*
X33514588Y-46257870D02*
X33471925Y-46282039D01*
X817049Y-69982586D02*
X889843Y-69993383D01*
X13098919Y-33995189D02*
X13050018Y-33998796D01*
X33514588Y-23742129D02*
X33556014Y-23768362D01*
X36485411Y-46257870D02*
X36443985Y-46231637D01*
X13904085Y-36571872D02*
X13923955Y-36616699D01*
X11528074Y-33882039D02*
X11485411Y-33857870D01*
X628871Y-69928014D02*
X698160Y-69952805D01*
X58290994Y-46356983D02*
X58243737Y-46370060D01*
X69780306Y-375444D02*
X69772792Y-365817D01*
X58050018Y-46398796D02*
X58000987Y-46400000D01*
X58098919Y-23604810D02*
X58147583Y-23610812D01*
X36485411Y-43542129D02*
X36528074Y-43517960D01*
X58383300Y-36076044D02*
X58428127Y-36095914D01*
X13956983Y-33290994D02*
X13941602Y-33337552D01*
X56662447Y-33941602D02*
X56616699Y-33923955D01*
X33596103Y-23796595D02*
X33634758Y-23826762D01*
X69928014Y-69371128D02*
X69952805Y-69301839D01*
X58147583Y-36010812D02*
X58195895Y-36019195D01*
X36010812Y-24452416D02*
X36019195Y-24404104D01*
X13428127Y-36095914D02*
X13471925Y-36117960D01*
X454935Y-162233D02*
X444617Y-168767D01*
X69995786Y-69085759D02*
X69999397Y-69012257D01*
X56292600Y-33707399D02*
X56258790Y-33671887D01*
X69980494Y-69195007D02*
X69982582Y-69182974D01*
X13970060Y-33243737D02*
X13956983Y-33290994D01*
X11662447Y-23658397D02*
X11709005Y-23643016D01*
X69887168Y-69460302D02*
X69918632Y-69393777D01*
X33882039Y-24128074D02*
X33904085Y-24171872D01*
X58956983Y-36709005D02*
X58970060Y-36756262D01*
X528767Y-69881666D02*
X539675Y-69887157D01*
X56095914Y-36571872D02*
X56117960Y-36528074D01*
X69182974Y-69982582D02*
X69195007Y-69980494D01*
X58904085Y-33428127D02*
X58882039Y-33471925D01*
X36292600Y-23892600D02*
X36328112Y-23858790D01*
X22196Y-69206994D02*
X40077Y-69278380D01*
X58923955Y-33383300D02*
X58904085Y-33428127D01*
X58596103Y-33803404D02*
X58556014Y-33831637D01*
X69460324Y-69887157D02*
X69471232Y-69881666D01*
X36709005Y-46356983D02*
X36662447Y-46341602D01*
X58671887Y-46141209D02*
X58634758Y-46173237D01*
X36365241Y-23826762D02*
X36403896Y-23796595D01*
X36000000Y-25600987D02*
X36000000Y-24599012D01*
X36029939Y-44156262D02*
X36043016Y-44109005D01*
X69837778Y-69545043D02*
X69875611Y-69481923D01*
X56852416Y-33989187D02*
X56804104Y-33980804D01*
X36142129Y-45914588D02*
X36117960Y-45871925D01*
M02*
