M48
; DRILL file {KiCad 8.0.7} date 2025-01-11T17:18:14-0500
; FORMAT={-:-/ absolute / metric / decimal}
; #@! TF.CreationDate,2025-01-11T17:18:14-05:00
; #@! TF.GenerationSoftware,Kicad,Pcbnew,8.0.7
; #@! TF.FileFunction,MixedPlating,1,2
FMAT,2
METRIC
; #@! TA.AperFunction,Plated,PTH,ViaDrill
T1C0.300
; #@! TA.AperFunction,Plated,PTH,ComponentDrill
T2C0.600
; #@! TA.AperFunction,Plated,PTH,ComponentDrill
T3C1.000
; #@! TA.AperFunction,NonPlated,NPTH,ComponentDrill
T4C0.300
; #@! TA.AperFunction,NonPlated,NPTH,ComponentDrill
T5C0.650
; #@! TA.AperFunction,NonPlated,NPTH,ComponentDrill
T6C1.152
%
G90
G05
T1
X20.15Y-33.25
X22.3Y-29.7
X22.3Y-36.3
X22.4Y-32.75
X22.55Y-30.6
X26.0Y-33.45
X27.35Y-31.1
X27.85Y-33.45
X27.946Y-30.74
X28.7Y-35.7
X29.25Y-33.3
X29.5Y-30.33
X29.65Y-36.2
X29.8Y-31.45
X30.5Y-35.7
X30.9Y-32.3
X30.9Y-33.0
X31.075Y-30.575
X31.098Y-35.217
X31.5Y-33.35
X31.519Y-31.05
X31.6Y-34.75
X43.775Y-36.451
X44.4Y-36.448
X45.025Y-36.457
X45.65Y-29.55
X45.65Y-30.3
X45.65Y-36.45
X46.48Y-31.675
X52.6Y-38.45
T3
X15.9Y-40.3
X18.44Y-40.3
X20.98Y-40.3
X23.52Y-40.3
X25.35Y-29.75
X25.35Y-36.25
X26.06Y-40.3
X28.6Y-40.3
X31.14Y-40.3
X33.68Y-40.3
X36.22Y-40.3
X38.76Y-40.3
X41.3Y-40.3
X43.84Y-40.3
X46.38Y-40.3
X48.65Y-29.75
X48.65Y-36.25
X48.92Y-40.3
X51.1Y-31.975
X51.1Y-34.515
X51.46Y-40.3
X54.0Y-40.3
X54.05Y-30.37
X54.05Y-32.91
X54.05Y-35.45
T4
X0.0Y-26.6
X0.0Y-43.4
X0.611Y-26.6
X0.611Y-43.4
X1.222Y-26.6
X1.222Y-43.4
X1.833Y-26.6
X1.833Y-43.4
X2.444Y-26.6
X2.444Y-43.4
X3.056Y-26.6
X3.056Y-43.4
X3.667Y-26.6
X3.667Y-43.4
X4.278Y-26.6
X4.278Y-43.4
X4.889Y-26.6
X4.889Y-43.4
X5.5Y-26.6
X5.5Y-43.4
X6.111Y-26.6
X6.111Y-43.4
X6.722Y-26.6
X6.722Y-43.4
X7.333Y-26.6
X7.333Y-43.4
X7.944Y-26.6
X7.944Y-43.4
X8.556Y-26.6
X8.556Y-43.4
X9.167Y-26.6
X9.167Y-43.4
X9.778Y-26.6
X9.778Y-43.4
X10.389Y-26.6
X10.389Y-43.4
X11.0Y-26.6
X11.0Y-43.4
X13.97Y-34.0
X13.97Y-34.667
X13.97Y-35.333
X13.97Y-36.0
X14.0Y0.0
X14.0Y-0.605
X14.0Y-1.21
X14.0Y-1.815
X14.0Y-2.421
X14.0Y-3.026
X14.0Y-3.631
X14.0Y-4.236
X14.0Y-4.841
X14.0Y-5.446
X14.0Y-6.051
X14.0Y-6.656
X14.0Y-7.262
X14.0Y-7.867
X14.0Y-8.472
X14.0Y-9.077
X14.0Y-9.682
X14.0Y-10.287
X14.0Y-10.892
X14.0Y-11.497
X14.0Y-12.103
X14.0Y-12.708
X14.0Y-13.313
X14.0Y-13.918
X14.0Y-14.523
X14.0Y-15.128
X14.0Y-15.733
X14.0Y-16.338
X14.0Y-16.944
X14.0Y-17.549
X14.0Y-18.154
X14.0Y-18.759
X14.0Y-19.364
X14.0Y-19.969
X14.0Y-20.574
X14.0Y-21.179
X14.0Y-21.785
X14.0Y-22.39
X14.0Y-22.995
X14.0Y-23.6
X14.0Y-46.4
X14.0Y-47.005
X14.0Y-47.61
X14.0Y-48.215
X14.0Y-48.821
X14.0Y-49.426
X14.0Y-50.031
X14.0Y-50.636
X14.0Y-51.241
X14.0Y-51.846
X14.0Y-52.451
X14.0Y-53.056
X14.0Y-53.662
X14.0Y-54.267
X14.0Y-54.872
X14.0Y-55.477
X14.0Y-56.082
X14.0Y-56.687
X14.0Y-57.292
X14.0Y-57.897
X14.0Y-58.503
X14.0Y-59.108
X14.0Y-59.713
X14.0Y-60.318
X14.0Y-60.923
X14.0Y-61.528
X14.0Y-62.133
X14.0Y-62.738
X14.0Y-63.344
X14.0Y-63.949
X14.0Y-64.554
X14.0Y-65.159
X14.0Y-65.764
X14.0Y-66.369
X14.0Y-66.974
X14.0Y-67.579
X14.0Y-68.185
X14.0Y-68.79
X14.0Y-69.395
X14.0Y-70.0
X34.0Y-26.57
X34.0Y-43.43
X34.667Y-26.57
X34.667Y-43.43
X35.333Y-26.57
X35.333Y-43.43
X36.0Y-26.57
X36.0Y-43.43
X56.0Y0.0
X56.0Y-0.605
X56.0Y-1.21
X56.0Y-1.815
X56.0Y-2.421
X56.0Y-3.026
X56.0Y-3.631
X56.0Y-4.236
X56.0Y-4.841
X56.0Y-5.446
X56.0Y-6.051
X56.0Y-6.656
X56.0Y-7.262
X56.0Y-7.867
X56.0Y-8.472
X56.0Y-9.077
X56.0Y-9.682
X56.0Y-10.287
X56.0Y-10.892
X56.0Y-11.497
X56.0Y-12.103
X56.0Y-12.708
X56.0Y-13.313
X56.0Y-13.918
X56.0Y-14.523
X56.0Y-15.128
X56.0Y-15.733
X56.0Y-16.338
X56.0Y-16.944
X56.0Y-17.549
X56.0Y-18.154
X56.0Y-18.759
X56.0Y-19.364
X56.0Y-19.969
X56.0Y-20.574
X56.0Y-21.179
X56.0Y-21.785
X56.0Y-22.39
X56.0Y-22.995
X56.0Y-23.6
X56.0Y-46.4
X56.0Y-47.005
X56.0Y-47.61
X56.0Y-48.215
X56.0Y-48.821
X56.0Y-49.426
X56.0Y-50.031
X56.0Y-50.636
X56.0Y-51.241
X56.0Y-51.846
X56.0Y-52.451
X56.0Y-53.056
X56.0Y-53.662
X56.0Y-54.267
X56.0Y-54.872
X56.0Y-55.477
X56.0Y-56.082
X56.0Y-56.687
X56.0Y-57.292
X56.0Y-57.897
X56.0Y-58.503
X56.0Y-59.108
X56.0Y-59.713
X56.0Y-60.318
X56.0Y-60.923
X56.0Y-61.528
X56.0Y-62.133
X56.0Y-62.738
X56.0Y-63.344
X56.0Y-63.949
X56.0Y-64.554
X56.0Y-65.159
X56.0Y-65.764
X56.0Y-66.369
X56.0Y-66.974
X56.0Y-67.579
X56.0Y-68.185
X56.0Y-68.79
X56.0Y-69.395
X56.0Y-70.0
X56.03Y-34.0
X56.03Y-34.667
X56.03Y-35.333
X56.03Y-36.0
X59.0Y-26.6
X59.0Y-43.4
X59.611Y-26.6
X59.611Y-43.4
X60.222Y-26.6
X60.222Y-43.4
X60.833Y-26.6
X60.833Y-43.4
X61.444Y-26.6
X61.444Y-43.4
X62.056Y-26.6
X62.056Y-43.4
X62.667Y-26.6
X62.667Y-43.4
X63.278Y-26.6
X63.278Y-43.4
X63.889Y-26.6
X63.889Y-43.4
X64.5Y-26.6
X64.5Y-43.4
X65.111Y-26.6
X65.111Y-43.4
X65.722Y-26.6
X65.722Y-43.4
X66.333Y-26.6
X66.333Y-43.4
X66.944Y-26.6
X66.944Y-43.4
X67.556Y-26.6
X67.556Y-43.4
X68.167Y-26.6
X68.167Y-43.4
X68.778Y-26.6
X68.778Y-43.4
X69.389Y-26.6
X69.389Y-43.4
X70.0Y-26.6
X70.0Y-43.4
T5
X20.255Y-30.11
X20.255Y-35.89
T6
X2.0Y-2.0
X2.0Y-68.0
X68.0Y-2.0
T2
X16.975Y-28.68G85X16.175Y-28.68
G05
X16.975Y-37.32G85X16.175Y-37.32
G05
X21.305Y-28.68G85X20.205Y-28.68
G05
X21.305Y-37.32G85X20.205Y-37.32
G05
M30
