G04 #@! TF.GenerationSoftware,KiCad,Pcbnew,8.0.7*
G04 #@! TF.CreationDate,2025-01-15T21:24:22-05:00*
G04 #@! TF.ProjectId,panel,70616e65-6c2e-46b6-9963-61645f706362,rev?*
G04 #@! TF.SameCoordinates,Original*
G04 #@! TF.FileFunction,Soldermask,Top*
G04 #@! TF.FilePolarity,Negative*
%FSLAX46Y46*%
G04 Gerber Fmt 4.6, Leading zero omitted, Abs format (unit mm)*
G04 Created by KiCad (PCBNEW 8.0.7) date 2025-01-15 21:24:22*
%MOMM*%
%LPD*%
G01*
G04 APERTURE LIST*
G04 Aperture macros list*
%AMRoundRect*
0 Rectangle with rounded corners*
0 $1 Rounding radius*
0 $2 $3 $4 $5 $6 $7 $8 $9 X,Y pos of 4 corners*
0 Add a 4 corners polygon primitive as box body*
4,1,4,$2,$3,$4,$5,$6,$7,$8,$9,$2,$3,0*
0 Add four circle primitives for the rounded corners*
1,1,$1+$1,$2,$3*
1,1,$1+$1,$4,$5*
1,1,$1+$1,$6,$7*
1,1,$1+$1,$8,$9*
0 Add four rect primitives between the rounded corners*
20,1,$1+$1,$2,$3,$4,$5,0*
20,1,$1+$1,$4,$5,$6,$7,0*
20,1,$1+$1,$6,$7,$8,$9,0*
20,1,$1+$1,$8,$9,$2,$3,0*%
G04 Aperture macros list end*
%ADD10RoundRect,0.250000X-0.375000X-0.850000X0.375000X-0.850000X0.375000X0.850000X-0.375000X0.850000X0*%
%ADD11C,0.300000*%
%ADD12RoundRect,0.100000X0.100000X-0.130000X0.100000X0.130000X-0.100000X0.130000X-0.100000X-0.130000X0*%
%ADD13RoundRect,0.225000X0.225000X0.250000X-0.225000X0.250000X-0.225000X-0.250000X0.225000X-0.250000X0*%
%ADD14R,0.400000X0.250000*%
%ADD15R,0.400000X0.700000*%
%ADD16RoundRect,0.147500X0.147500X0.172500X-0.147500X0.172500X-0.147500X-0.172500X0.147500X-0.172500X0*%
%ADD17R,1.000000X1.400000*%
%ADD18R,0.550000X0.500000*%
%ADD19R,2.020000X1.200000*%
%ADD20R,0.630000X0.550000*%
%ADD21R,0.870000X1.400000*%
%ADD22RoundRect,0.100000X-0.100000X0.130000X-0.100000X-0.130000X0.100000X-0.130000X0.100000X0.130000X0*%
%ADD23RoundRect,0.062500X-0.300000X-0.062500X0.300000X-0.062500X0.300000X0.062500X-0.300000X0.062500X0*%
%ADD24R,0.900000X1.600000*%
%ADD25RoundRect,0.100000X-0.130000X-0.100000X0.130000X-0.100000X0.130000X0.100000X-0.130000X0.100000X0*%
%ADD26R,1.800000X1.350000*%
%ADD27RoundRect,0.100000X0.130000X0.100000X-0.130000X0.100000X-0.130000X-0.100000X0.130000X-0.100000X0*%
%ADD28C,1.152000*%
%ADD29R,0.250000X0.400000*%
%ADD30R,0.700000X0.400000*%
%ADD31RoundRect,0.147500X0.172500X-0.147500X0.172500X0.147500X-0.172500X0.147500X-0.172500X-0.147500X0*%
%ADD32RoundRect,0.250000X0.925000X-0.412500X0.925000X0.412500X-0.925000X0.412500X-0.925000X-0.412500X0*%
%ADD33C,2.000000*%
%ADD34RoundRect,0.147500X-0.147500X-0.172500X0.147500X-0.172500X0.147500X0.172500X-0.147500X0.172500X0*%
%ADD35RoundRect,0.150000X0.512500X0.150000X-0.512500X0.150000X-0.512500X-0.150000X0.512500X-0.150000X0*%
G04 APERTURE END LIST*
D10*
G04 #@! TO.C,L1*
X37351357Y-30757478D03*
X39501357Y-30757478D03*
G04 #@! TD*
D11*
G04 #@! TO.C,KiKit_MB_24_35*
X68200000Y-55200000D03*
G04 #@! TD*
G04 #@! TO.C,KiKit_MB_18_15*
X44800000Y-8694737D03*
G04 #@! TD*
G04 #@! TO.C,KiKit_MB_18_7*
X44800000Y-3726316D03*
G04 #@! TD*
D12*
G04 #@! TO.C,R13*
X31770000Y-33520000D03*
X31770000Y-32880000D03*
G04 #@! TD*
D11*
G04 #@! TO.C,KiKit_MB_22_24*
X13800000Y-55200000D03*
G04 #@! TD*
D13*
G04 #@! TO.C,C18*
X31835000Y-50160000D03*
X30285000Y-50160000D03*
G04 #@! TD*
D11*
G04 #@! TO.C,KiKit_MB_21_34*
X19800000Y-14800000D03*
G04 #@! TD*
G04 #@! TO.C,KiKit_MB_17_2*
X25200000Y-621053D03*
G04 #@! TD*
D14*
G04 #@! TO.C,Q1*
X26330000Y-27285000D03*
X26330000Y-27735000D03*
D15*
X27030000Y-27510000D03*
G04 #@! TD*
D16*
G04 #@! TO.C,D2*
X42125000Y-36820000D03*
X41155000Y-36820000D03*
G04 #@! TD*
D11*
G04 #@! TO.C,KiKit_MB_24_7*
X51400000Y-55200000D03*
G04 #@! TD*
G04 #@! TO.C,KiKit_MB_12_3*
X34666667Y-44630000D03*
G04 #@! TD*
D12*
G04 #@! TO.C,C20*
X29620000Y-15920000D03*
X29620000Y-15280000D03*
G04 #@! TD*
D11*
G04 #@! TO.C,KiKit_MB_23_32*
X66400000Y-14800000D03*
G04 #@! TD*
G04 #@! TO.C,KiKit_MB_20_12*
X44800000Y-65031578D03*
G04 #@! TD*
G04 #@! TO.C,KiKit_MB_15_1*
X34000000Y-46570000D03*
G04 #@! TD*
D13*
G04 #@! TO.C,C9*
X39405000Y-22240000D03*
X37855000Y-22240000D03*
G04 #@! TD*
D11*
G04 #@! TO.C,KiKit_MB_21_7*
X3600000Y-14800000D03*
G04 #@! TD*
D12*
G04 #@! TO.C,C22*
X28920000Y-47720000D03*
X28920000Y-47080000D03*
G04 #@! TD*
D11*
G04 #@! TO.C,KiKit_MB_21_3*
X1200000Y-14800000D03*
G04 #@! TD*
G04 #@! TO.C,KiKit_MB_24_20*
X59200000Y-55200000D03*
G04 #@! TD*
G04 #@! TO.C,KiKit_MB_22_30*
X17400000Y-55200000D03*
G04 #@! TD*
G04 #@! TO.C,KiKit_MB_21_23*
X13200000Y-14800000D03*
G04 #@! TD*
D17*
G04 #@! TO.C,D1*
X27780000Y-31200000D03*
D18*
X28530000Y-31150000D03*
X28530000Y-29850000D03*
D19*
X27270000Y-29750000D03*
D20*
X25795000Y-29850000D03*
D21*
X26650000Y-31200000D03*
D20*
X25795000Y-31150000D03*
G04 #@! TD*
D11*
G04 #@! TO.C,KiKit_MB_4_1*
X36000000Y-23430000D03*
G04 #@! TD*
G04 #@! TO.C,KiKit_MB_13_1*
X25170000Y-51900000D03*
G04 #@! TD*
G04 #@! TO.C,KiKit_MB_15_2*
X34666667Y-46570000D03*
G04 #@! TD*
D22*
G04 #@! TO.C,R4*
X44120000Y-16030000D03*
X44120000Y-16670000D03*
G04 #@! TD*
D11*
G04 #@! TO.C,KiKit_MB_24_22*
X60400000Y-55200000D03*
G04 #@! TD*
G04 #@! TO.C,KiKit_MB_21_17*
X9600000Y-14800000D03*
G04 #@! TD*
D14*
G04 #@! TO.C,Q6*
X28630000Y-33595000D03*
X28630000Y-33145000D03*
D15*
X27930000Y-33370000D03*
G04 #@! TD*
D11*
G04 #@! TO.C,KiKit_MB_23_21*
X59800000Y-14800000D03*
G04 #@! TD*
G04 #@! TO.C,KiKit_MB_8_2*
X35333333Y-34030000D03*
G04 #@! TD*
G04 #@! TO.C,KiKit_MB_17_4*
X25200000Y-1863158D03*
G04 #@! TD*
G04 #@! TO.C,KiKit_MB_21_37*
X21600000Y-14800000D03*
G04 #@! TD*
G04 #@! TO.C,KiKit_MB_18_16*
X44800000Y-9315790D03*
G04 #@! TD*
G04 #@! TO.C,KiKit_MB_23_18*
X58000000Y-14800000D03*
G04 #@! TD*
G04 #@! TO.C,KiKit_MB_21_9*
X4800000Y-14800000D03*
G04 #@! TD*
G04 #@! TO.C,KiKit_MB_23_10*
X53200000Y-14800000D03*
G04 #@! TD*
G04 #@! TO.C,KiKit_MB_7_2*
X34666667Y-25370000D03*
G04 #@! TD*
D12*
G04 #@! TO.C,C2*
X42220000Y-27710000D03*
X42220000Y-27070000D03*
G04 #@! TD*
D11*
G04 #@! TO.C,KiKit_MB_2_2*
X44830000Y-18766667D03*
G04 #@! TD*
D12*
G04 #@! TO.C,R12*
X30370000Y-33520000D03*
X30370000Y-32880000D03*
G04 #@! TD*
D11*
G04 #@! TO.C,KiKit_MB_21_29*
X16800000Y-14800000D03*
G04 #@! TD*
G04 #@! TO.C,KiKit_MB_23_22*
X60400000Y-14800000D03*
G04 #@! TD*
G04 #@! TO.C,KiKit_MB_3_1*
X34000000Y-14770000D03*
G04 #@! TD*
G04 #@! TO.C,KiKit_MB_19_15*
X25200000Y-66894736D03*
G04 #@! TD*
G04 #@! TO.C,KiKit_MB_19_6*
X25200000Y-61305263D03*
G04 #@! TD*
G04 #@! TO.C,KiKit_MB_21_6*
X3000000Y-14800000D03*
G04 #@! TD*
G04 #@! TO.C,KiKit_MB_14_3*
X44830000Y-51233333D03*
G04 #@! TD*
G04 #@! TO.C,KiKit_MB_4_3*
X34666667Y-23430000D03*
G04 #@! TD*
D13*
G04 #@! TO.C,C9*
X39405000Y-32840000D03*
X37855000Y-32840000D03*
G04 #@! TD*
D11*
G04 #@! TO.C,KiKit_MB_18_10*
X44800000Y-5589474D03*
G04 #@! TD*
G04 #@! TO.C,KiKit_MB_18_6*
X44800000Y-3105264D03*
G04 #@! TD*
D23*
G04 #@! TO.C,U4*
X30207500Y-30360000D03*
X30207500Y-30860000D03*
X30207500Y-31360000D03*
X30207500Y-31860000D03*
X32232500Y-31860000D03*
X32232500Y-31360000D03*
X32232500Y-30860000D03*
X32232500Y-30360000D03*
D24*
X31220000Y-31110000D03*
G04 #@! TD*
D11*
G04 #@! TO.C,KiKit_MB_5_3*
X25170000Y-29366666D03*
G04 #@! TD*
D22*
G04 #@! TO.C,R4*
X44120000Y-37230000D03*
X44120000Y-37870000D03*
G04 #@! TD*
D12*
G04 #@! TO.C,R14*
X31070000Y-54720000D03*
X31070000Y-54080000D03*
G04 #@! TD*
G04 #@! TO.C,C2*
X42220000Y-48910000D03*
X42220000Y-48270000D03*
G04 #@! TD*
D11*
G04 #@! TO.C,KiKit_MB_13_2*
X25170000Y-51233333D03*
G04 #@! TD*
G04 #@! TO.C,KiKit_MB_24_3*
X49000000Y-55200000D03*
G04 #@! TD*
D22*
G04 #@! TO.C,R9*
X41520000Y-27070000D03*
X41520000Y-27710000D03*
G04 #@! TD*
D14*
G04 #@! TO.C,Q3*
X26390000Y-54800000D03*
X26390000Y-54350000D03*
D15*
X25690000Y-54575000D03*
G04 #@! TD*
D12*
G04 #@! TO.C,R11*
X29670000Y-22920000D03*
X29670000Y-22280000D03*
G04 #@! TD*
D11*
G04 #@! TO.C,KiKit_MB_21_19*
X10800000Y-14800000D03*
G04 #@! TD*
G04 #@! TO.C,KiKit_MB_24_5*
X50200000Y-55200000D03*
G04 #@! TD*
G04 #@! TO.C,KiKit_MB_18_19*
X44800000Y-11178948D03*
G04 #@! TD*
G04 #@! TO.C,KiKit_MB_22_12*
X6600000Y-55200000D03*
G04 #@! TD*
G04 #@! TO.C,KiKit_MB_23_38*
X70000000Y-14800000D03*
G04 #@! TD*
G04 #@! TO.C,KiKit_MB_19_5*
X25200000Y-60684210D03*
G04 #@! TD*
G04 #@! TO.C,KiKit_MB_10_3*
X44830000Y-40633333D03*
G04 #@! TD*
G04 #@! TO.C,KiKit_MB_23_2*
X48400000Y-14800000D03*
G04 #@! TD*
D13*
G04 #@! TO.C,C18*
X31835000Y-18360000D03*
X30285000Y-18360000D03*
G04 #@! TD*
D25*
G04 #@! TO.C,C21*
X30630000Y-25880000D03*
X31270000Y-25880000D03*
G04 #@! TD*
D11*
G04 #@! TO.C,KiKit_MB_24_10*
X53200000Y-55200000D03*
G04 #@! TD*
D26*
G04 #@! TO.C,SW1*
X43210000Y-33075000D03*
X43210000Y-28925000D03*
G04 #@! TD*
D11*
G04 #@! TO.C,KiKit_MB_20_8*
X44800000Y-62547368D03*
G04 #@! TD*
G04 #@! TO.C,KiKit_MB_20_11*
X44800000Y-64410526D03*
G04 #@! TD*
G04 #@! TO.C,KiKit_MB_15_4*
X36000000Y-46570000D03*
G04 #@! TD*
G04 #@! TO.C,KiKit_MB_10_2*
X44830000Y-39966666D03*
G04 #@! TD*
D25*
G04 #@! TO.C,R8*
X40490000Y-22620000D03*
X41130000Y-22620000D03*
G04 #@! TD*
D27*
G04 #@! TO.C,R1*
X26910000Y-25860000D03*
X26270000Y-25860000D03*
G04 #@! TD*
D11*
G04 #@! TO.C,KiKit_MB_19_9*
X25200000Y-63168421D03*
G04 #@! TD*
D14*
G04 #@! TO.C,Q3*
X26390000Y-23000000D03*
X26390000Y-22550000D03*
D15*
X25690000Y-22775000D03*
G04 #@! TD*
D25*
G04 #@! TO.C,C19*
X34060000Y-20880000D03*
X34700000Y-20880000D03*
G04 #@! TD*
D11*
G04 #@! TO.C,KiKit_MB_22_29*
X16800000Y-55200000D03*
G04 #@! TD*
G04 #@! TO.C,KiKit_MB_18_13*
X44800000Y-7452632D03*
G04 #@! TD*
G04 #@! TO.C,KiKit_MB_24_30*
X65200000Y-55200000D03*
G04 #@! TD*
G04 #@! TO.C,KiKit_MB_23_23*
X61000000Y-14800000D03*
G04 #@! TD*
G04 #@! TO.C,KiKit_MB_24_13*
X55000000Y-55200000D03*
G04 #@! TD*
G04 #@! TO.C,KiKit_MB_12_4*
X34000000Y-44630000D03*
G04 #@! TD*
G04 #@! TO.C,KiKit_MB_24_15*
X56200000Y-55200000D03*
G04 #@! TD*
G04 #@! TO.C,KiKit_MB_23_20*
X59200000Y-14800000D03*
G04 #@! TD*
G04 #@! TO.C,KiKit_MB_17_6*
X25200000Y-3105264D03*
G04 #@! TD*
G04 #@! TO.C,KiKit_MB_13_3*
X25170000Y-50566666D03*
G04 #@! TD*
D14*
G04 #@! TO.C,Q1*
X26330000Y-37885000D03*
X26330000Y-38335000D03*
D15*
X27030000Y-38110000D03*
G04 #@! TD*
D11*
G04 #@! TO.C,KiKit_MB_24_16*
X56800000Y-55200000D03*
G04 #@! TD*
G04 #@! TO.C,KiKit_MB_24_26*
X62800000Y-55200000D03*
G04 #@! TD*
G04 #@! TO.C,KiKit_MB_23_14*
X55600000Y-14800000D03*
G04 #@! TD*
D28*
G04 #@! TO.C,KiKit_TO_2*
X68000000Y-2000000D03*
G04 #@! TD*
D11*
G04 #@! TO.C,KiKit_MB_23_9*
X52600000Y-14800000D03*
G04 #@! TD*
D12*
G04 #@! TO.C,C22*
X28920000Y-37120000D03*
X28920000Y-36480000D03*
G04 #@! TD*
D11*
G04 #@! TO.C,KiKit_MB_1_4*
X25170000Y-18100000D03*
G04 #@! TD*
D12*
G04 #@! TO.C,R12*
X30370000Y-22920000D03*
X30370000Y-22280000D03*
G04 #@! TD*
D11*
G04 #@! TO.C,KiKit_MB_24_19*
X58600000Y-55200000D03*
G04 #@! TD*
G04 #@! TO.C,KiKit_MB_9_4*
X25170000Y-39300000D03*
G04 #@! TD*
G04 #@! TO.C,KiKit_MB_9_3*
X25170000Y-39966666D03*
G04 #@! TD*
D27*
G04 #@! TO.C,R2*
X26940000Y-37160000D03*
X26300000Y-37160000D03*
G04 #@! TD*
D11*
G04 #@! TO.C,KiKit_MB_18_9*
X44800000Y-4968422D03*
G04 #@! TD*
G04 #@! TO.C,KiKit_MB_22_8*
X4200000Y-55200000D03*
G04 #@! TD*
G04 #@! TO.C,KiKit_MB_20_4*
X44800000Y-60063157D03*
G04 #@! TD*
G04 #@! TO.C,KiKit_MB_22_31*
X18000000Y-55200000D03*
G04 #@! TD*
G04 #@! TO.C,KiKit_MB_22_36*
X21000000Y-55200000D03*
G04 #@! TD*
G04 #@! TO.C,KiKit_MB_13_4*
X25170000Y-49900000D03*
G04 #@! TD*
D13*
G04 #@! TO.C,C18*
X31835000Y-39560000D03*
X30285000Y-39560000D03*
G04 #@! TD*
D11*
G04 #@! TO.C,KiKit_MB_24_8*
X52000000Y-55200000D03*
G04 #@! TD*
G04 #@! TO.C,KiKit_MB_6_1*
X44830000Y-28700000D03*
G04 #@! TD*
G04 #@! TO.C,KiKit_MB_18_8*
X44800000Y-4347369D03*
G04 #@! TD*
D27*
G04 #@! TO.C,C6*
X36100000Y-52360000D03*
X35460000Y-52360000D03*
G04 #@! TD*
D11*
G04 #@! TO.C,KiKit_MB_20_6*
X44800000Y-61305263D03*
G04 #@! TD*
D14*
G04 #@! TO.C,Q6*
X28630000Y-54795000D03*
X28630000Y-54345000D03*
D15*
X27930000Y-54570000D03*
G04 #@! TD*
D11*
G04 #@! TO.C,KiKit_MB_23_30*
X65200000Y-14800000D03*
G04 #@! TD*
G04 #@! TO.C,KiKit_MB_5_4*
X25170000Y-28700000D03*
G04 #@! TD*
G04 #@! TO.C,KiKit_MB_21_33*
X19200000Y-14800000D03*
G04 #@! TD*
G04 #@! TO.C,KiKit_MB_22_28*
X16200000Y-55200000D03*
G04 #@! TD*
G04 #@! TO.C,KiKit_MB_22_19*
X10800000Y-55200000D03*
G04 #@! TD*
G04 #@! TO.C,KiKit_MB_24_37*
X69400000Y-55200000D03*
G04 #@! TD*
G04 #@! TO.C,KiKit_MB_22_22*
X12600000Y-55200000D03*
G04 #@! TD*
D12*
G04 #@! TO.C,C13*
X41150000Y-30060000D03*
X41150000Y-29420000D03*
G04 #@! TD*
D29*
G04 #@! TO.C,Q2*
X32945000Y-54020000D03*
X32495000Y-54020000D03*
D30*
X32720000Y-54720000D03*
G04 #@! TD*
D11*
G04 #@! TO.C,KiKit_MB_17_1*
X25200000Y0D03*
G04 #@! TD*
D14*
G04 #@! TO.C,Q3*
X26390000Y-44200000D03*
X26390000Y-43750000D03*
D15*
X25690000Y-43975000D03*
G04 #@! TD*
D11*
G04 #@! TO.C,KiKit_MB_22_33*
X19200000Y-55200000D03*
G04 #@! TD*
G04 #@! TO.C,KiKit_MB_18_17*
X44800000Y-9936843D03*
G04 #@! TD*
G04 #@! TO.C,KiKit_MB_17_15*
X25200000Y-8694737D03*
G04 #@! TD*
G04 #@! TO.C,KiKit_MB_14_4*
X44830000Y-51900000D03*
G04 #@! TD*
D25*
G04 #@! TO.C,C19*
X34060000Y-52680000D03*
X34700000Y-52680000D03*
G04 #@! TD*
D11*
G04 #@! TO.C,KiKit_MB_19_14*
X25200000Y-66273684D03*
G04 #@! TD*
G04 #@! TO.C,KiKit_MB_19_7*
X25200000Y-61926315D03*
G04 #@! TD*
G04 #@! TO.C,KiKit_MB_19_12*
X25200000Y-65031578D03*
G04 #@! TD*
D12*
G04 #@! TO.C,R12*
X30370000Y-54720000D03*
X30370000Y-54080000D03*
G04 #@! TD*
D27*
G04 #@! TO.C,C16*
X32670000Y-15280000D03*
X32030000Y-15280000D03*
G04 #@! TD*
D31*
G04 #@! TO.C,FB1*
X28100000Y-16435000D03*
X28100000Y-15465000D03*
G04 #@! TD*
D11*
G04 #@! TO.C,KiKit_MB_21_38*
X22200000Y-14800000D03*
G04 #@! TD*
G04 #@! TO.C,KiKit_MB_24_1*
X47800000Y-55200000D03*
G04 #@! TD*
D27*
G04 #@! TO.C,R7*
X41130000Y-43110000D03*
X40490000Y-43110000D03*
G04 #@! TD*
D11*
G04 #@! TO.C,KiKit_MB_17_10*
X25200000Y-5589474D03*
G04 #@! TD*
D12*
G04 #@! TO.C,R14*
X31070000Y-22920000D03*
X31070000Y-22280000D03*
G04 #@! TD*
D11*
G04 #@! TO.C,KiKit_MB_21_36*
X21000000Y-14800000D03*
G04 #@! TD*
D29*
G04 #@! TO.C,Q2*
X32945000Y-22220000D03*
X32495000Y-22220000D03*
D30*
X32720000Y-22920000D03*
G04 #@! TD*
D11*
G04 #@! TO.C,KiKit_MB_17_14*
X25200000Y-8073685D03*
G04 #@! TD*
G04 #@! TO.C,KiKit_MB_20_13*
X44800000Y-65652631D03*
G04 #@! TD*
G04 #@! TO.C,KiKit_MB_22_7*
X3600000Y-55200000D03*
G04 #@! TD*
G04 #@! TO.C,KiKit_MB_22_21*
X12000000Y-55200000D03*
G04 #@! TD*
D12*
G04 #@! TO.C,R14*
X31070000Y-44120000D03*
X31070000Y-43480000D03*
G04 #@! TD*
D16*
G04 #@! TO.C,D2*
X42125000Y-26220000D03*
X41155000Y-26220000D03*
G04 #@! TD*
D11*
G04 #@! TO.C,KiKit_MB_20_7*
X44800000Y-61926315D03*
G04 #@! TD*
G04 #@! TO.C,KiKit_MB_21_30*
X17400000Y-14800000D03*
G04 #@! TD*
D13*
G04 #@! TO.C,C9*
X39405000Y-54040000D03*
X37855000Y-54040000D03*
G04 #@! TD*
D11*
G04 #@! TO.C,KiKit_MB_5_1*
X25170000Y-30700000D03*
G04 #@! TD*
G04 #@! TO.C,KiKit_MB_24_29*
X64600000Y-55200000D03*
G04 #@! TD*
D16*
G04 #@! TO.C,D2*
X42125000Y-47420000D03*
X41155000Y-47420000D03*
G04 #@! TD*
D12*
G04 #@! TO.C,C20*
X29620000Y-37120000D03*
X29620000Y-36480000D03*
G04 #@! TD*
D11*
G04 #@! TO.C,KiKit_MB_23_28*
X64000000Y-14800000D03*
G04 #@! TD*
G04 #@! TO.C,KiKit_MB_11_1*
X34000000Y-35970000D03*
G04 #@! TD*
G04 #@! TO.C,KiKit_MB_17_16*
X25200000Y-9315790D03*
G04 #@! TD*
G04 #@! TO.C,KiKit_MB_18_14*
X44800000Y-8073685D03*
G04 #@! TD*
G04 #@! TO.C,KiKit_MB_24_12*
X54400000Y-55200000D03*
G04 #@! TD*
G04 #@! TO.C,KiKit_MB_23_17*
X57400000Y-14800000D03*
G04 #@! TD*
G04 #@! TO.C,KiKit_MB_24_31*
X65800000Y-55200000D03*
G04 #@! TD*
D32*
G04 #@! TO.C,C4*
X34700000Y-51057500D03*
X34700000Y-47982500D03*
G04 #@! TD*
D11*
G04 #@! TO.C,KiKit_MB_24_4*
X49600000Y-55200000D03*
G04 #@! TD*
G04 #@! TO.C,KiKit_MB_17_17*
X25200000Y-9936843D03*
G04 #@! TD*
G04 #@! TO.C,KiKit_MB_7_1*
X34000000Y-25370000D03*
G04 #@! TD*
G04 #@! TO.C,KiKit_MB_23_37*
X69400000Y-14800000D03*
G04 #@! TD*
G04 #@! TO.C,KiKit_MB_17_5*
X25200000Y-2484211D03*
G04 #@! TD*
D33*
G04 #@! TO.C,KiKit_FID_T_2*
X60000000Y-3850000D03*
G04 #@! TD*
D11*
G04 #@! TO.C,KiKit_MB_23_7*
X51400000Y-14800000D03*
G04 #@! TD*
D28*
G04 #@! TO.C,KiKit_TO_3*
X2000000Y-68000000D03*
G04 #@! TD*
D11*
G04 #@! TO.C,KiKit_MB_1_1*
X25170000Y-20100000D03*
G04 #@! TD*
G04 #@! TO.C,KiKit_MB_21_32*
X18600000Y-14800000D03*
G04 #@! TD*
G04 #@! TO.C,KiKit_MB_22_26*
X15000000Y-55200000D03*
G04 #@! TD*
G04 #@! TO.C,KiKit_MB_11_2*
X34666667Y-35970000D03*
G04 #@! TD*
D25*
G04 #@! TO.C,C19*
X34060000Y-31480000D03*
X34700000Y-31480000D03*
G04 #@! TD*
D33*
G04 #@! TO.C,KiKit_FID_T_3*
X10000000Y-66150000D03*
G04 #@! TD*
D11*
G04 #@! TO.C,KiKit_MB_8_3*
X34666667Y-34030000D03*
G04 #@! TD*
G04 #@! TO.C,KiKit_MB_22_15*
X8400000Y-55200000D03*
G04 #@! TD*
G04 #@! TO.C,KiKit_MB_24_9*
X52600000Y-55200000D03*
G04 #@! TD*
G04 #@! TO.C,KiKit_MB_18_5*
X44800000Y-2484211D03*
G04 #@! TD*
G04 #@! TO.C,KiKit_MB_22_5*
X2400000Y-55200000D03*
G04 #@! TD*
D22*
G04 #@! TO.C,R4*
X44120000Y-47830000D03*
X44120000Y-48470000D03*
G04 #@! TD*
D11*
G04 #@! TO.C,KiKit_MB_21_22*
X12600000Y-14800000D03*
G04 #@! TD*
G04 #@! TO.C,KiKit_MB_21_24*
X13800000Y-14800000D03*
G04 #@! TD*
D25*
G04 #@! TO.C,C19*
X34060000Y-42080000D03*
X34700000Y-42080000D03*
G04 #@! TD*
D11*
G04 #@! TO.C,KiKit_MB_22_14*
X7800000Y-55200000D03*
G04 #@! TD*
D12*
G04 #@! TO.C,R13*
X31770000Y-54720000D03*
X31770000Y-54080000D03*
G04 #@! TD*
D11*
G04 #@! TO.C,KiKit_MB_7_4*
X36000000Y-25370000D03*
G04 #@! TD*
G04 #@! TO.C,KiKit_MB_22_38*
X22200000Y-55200000D03*
G04 #@! TD*
G04 #@! TO.C,KiKit_MB_21_16*
X9000000Y-14800000D03*
G04 #@! TD*
D28*
G04 #@! TO.C,KiKit_TO_1*
X2000000Y-2000000D03*
G04 #@! TD*
D11*
G04 #@! TO.C,KiKit_MB_18_1*
X44800000Y0D03*
G04 #@! TD*
G04 #@! TO.C,KiKit_MB_8_1*
X36000000Y-34030000D03*
G04 #@! TD*
D14*
G04 #@! TO.C,Q3*
X26390000Y-33600000D03*
X26390000Y-33150000D03*
D15*
X25690000Y-33375000D03*
G04 #@! TD*
D11*
G04 #@! TO.C,KiKit_MB_21_28*
X16200000Y-14800000D03*
G04 #@! TD*
D25*
G04 #@! TO.C,R8*
X40490000Y-33220000D03*
X41130000Y-33220000D03*
G04 #@! TD*
D27*
G04 #@! TO.C,C6*
X36100000Y-20560000D03*
X35460000Y-20560000D03*
G04 #@! TD*
D11*
G04 #@! TO.C,KiKit_MB_22_13*
X7200000Y-55200000D03*
G04 #@! TD*
G04 #@! TO.C,KiKit_MB_18_3*
X44800000Y-1242106D03*
G04 #@! TD*
G04 #@! TO.C,KiKit_MB_3_3*
X35333333Y-14770000D03*
G04 #@! TD*
G04 #@! TO.C,KiKit_MB_2_1*
X44830000Y-18100000D03*
G04 #@! TD*
G04 #@! TO.C,KiKit_MB_6_3*
X44830000Y-30033333D03*
G04 #@! TD*
D14*
G04 #@! TO.C,Q1*
X26330000Y-48485000D03*
X26330000Y-48935000D03*
D15*
X27030000Y-48710000D03*
G04 #@! TD*
D27*
G04 #@! TO.C,R2*
X26940000Y-26560000D03*
X26300000Y-26560000D03*
G04 #@! TD*
D26*
G04 #@! TO.C,SW1*
X43210000Y-22475000D03*
X43210000Y-18325000D03*
G04 #@! TD*
D11*
G04 #@! TO.C,KiKit_MB_19_11*
X25200000Y-64410526D03*
G04 #@! TD*
G04 #@! TO.C,KiKit_MB_6_4*
X44830000Y-30700000D03*
G04 #@! TD*
D32*
G04 #@! TO.C,C4*
X34700000Y-19257500D03*
X34700000Y-16182500D03*
G04 #@! TD*
D11*
G04 #@! TO.C,KiKit_MB_22_4*
X1800000Y-55200000D03*
G04 #@! TD*
G04 #@! TO.C,KiKit_MB_21_15*
X8400000Y-14800000D03*
G04 #@! TD*
G04 #@! TO.C,KiKit_MB_19_17*
X25200000Y-68136842D03*
G04 #@! TD*
G04 #@! TO.C,KiKit_MB_17_11*
X25200000Y-6210527D03*
G04 #@! TD*
G04 #@! TO.C,KiKit_MB_21_21*
X12000000Y-14800000D03*
G04 #@! TD*
G04 #@! TO.C,KiKit_MB_18_11*
X44800000Y-6210527D03*
G04 #@! TD*
G04 #@! TO.C,KiKit_MB_20_10*
X44800000Y-63789473D03*
G04 #@! TD*
D12*
G04 #@! TO.C,C20*
X29620000Y-26520000D03*
X29620000Y-25880000D03*
G04 #@! TD*
D11*
G04 #@! TO.C,KiKit_MB_19_1*
X25200000Y-58200000D03*
G04 #@! TD*
D27*
G04 #@! TO.C,R7*
X41130000Y-21910000D03*
X40490000Y-21910000D03*
G04 #@! TD*
D11*
G04 #@! TO.C,KiKit_MB_16_3*
X34666667Y-55230000D03*
G04 #@! TD*
G04 #@! TO.C,KiKit_MB_11_3*
X35333333Y-35970000D03*
G04 #@! TD*
G04 #@! TO.C,KiKit_MB_22_9*
X4800000Y-55200000D03*
G04 #@! TD*
D34*
G04 #@! TO.C,FB2*
X29015000Y-48780000D03*
X29985000Y-48780000D03*
G04 #@! TD*
D11*
G04 #@! TO.C,KiKit_MB_21_26*
X15000000Y-14800000D03*
G04 #@! TD*
D14*
G04 #@! TO.C,Q1*
X26330000Y-16685000D03*
X26330000Y-17135000D03*
D15*
X27030000Y-16910000D03*
G04 #@! TD*
D11*
G04 #@! TO.C,KiKit_MB_3_2*
X34666667Y-14770000D03*
G04 #@! TD*
G04 #@! TO.C,KiKit_MB_20_3*
X44800000Y-59442105D03*
G04 #@! TD*
G04 #@! TO.C,KiKit_MB_21_1*
X0Y-14800000D03*
G04 #@! TD*
D12*
G04 #@! TO.C,C13*
X41150000Y-19460000D03*
X41150000Y-18820000D03*
G04 #@! TD*
D11*
G04 #@! TO.C,KiKit_MB_19_3*
X25200000Y-59442105D03*
G04 #@! TD*
G04 #@! TO.C,KiKit_MB_9_2*
X25170000Y-40633333D03*
G04 #@! TD*
G04 #@! TO.C,KiKit_MB_24_36*
X68800000Y-55200000D03*
G04 #@! TD*
G04 #@! TO.C,KiKit_MB_22_37*
X21600000Y-55200000D03*
G04 #@! TD*
G04 #@! TO.C,KiKit_MB_24_14*
X55600000Y-55200000D03*
G04 #@! TD*
G04 #@! TO.C,KiKit_MB_17_8*
X25200000Y-4347369D03*
G04 #@! TD*
G04 #@! TO.C,KiKit_MB_19_4*
X25200000Y-60063157D03*
G04 #@! TD*
D12*
G04 #@! TO.C,R13*
X31770000Y-22920000D03*
X31770000Y-22280000D03*
G04 #@! TD*
D17*
G04 #@! TO.C,D1*
X27780000Y-52400000D03*
D18*
X28530000Y-52350000D03*
X28530000Y-51050000D03*
D19*
X27270000Y-50950000D03*
D20*
X25795000Y-51050000D03*
D21*
X26650000Y-52400000D03*
D20*
X25795000Y-52350000D03*
G04 #@! TD*
D11*
G04 #@! TO.C,KiKit_MB_21_8*
X4200000Y-14800000D03*
G04 #@! TD*
G04 #@! TO.C,KiKit_MB_22_16*
X9000000Y-55200000D03*
G04 #@! TD*
G04 #@! TO.C,KiKit_MB_5_2*
X25170000Y-30033333D03*
G04 #@! TD*
G04 #@! TO.C,KiKit_MB_24_2*
X48400000Y-55200000D03*
G04 #@! TD*
G04 #@! TO.C,KiKit_MB_11_4*
X36000000Y-35970000D03*
G04 #@! TD*
D22*
G04 #@! TO.C,R9*
X41520000Y-48270000D03*
X41520000Y-48910000D03*
G04 #@! TD*
D11*
G04 #@! TO.C,KiKit_MB_19_16*
X25200000Y-67515789D03*
G04 #@! TD*
D32*
G04 #@! TO.C,C4*
X34700000Y-29857500D03*
X34700000Y-26782500D03*
G04 #@! TD*
D11*
G04 #@! TO.C,KiKit_MB_10_4*
X44830000Y-41300000D03*
G04 #@! TD*
G04 #@! TO.C,KiKit_MB_17_19*
X25200000Y-11178948D03*
G04 #@! TD*
G04 #@! TO.C,KiKit_MB_22_6*
X3000000Y-55200000D03*
G04 #@! TD*
D12*
G04 #@! TO.C,R13*
X31770000Y-44120000D03*
X31770000Y-43480000D03*
G04 #@! TD*
D13*
G04 #@! TO.C,C18*
X31835000Y-28960000D03*
X30285000Y-28960000D03*
G04 #@! TD*
D11*
G04 #@! TO.C,KiKit_MB_24_38*
X70000000Y-55200000D03*
G04 #@! TD*
D33*
G04 #@! TO.C,KiKit_FID_T_1*
X10000000Y-3850000D03*
G04 #@! TD*
D11*
G04 #@! TO.C,KiKit_MB_12_2*
X35333333Y-44630000D03*
G04 #@! TD*
G04 #@! TO.C,KiKit_MB_21_11*
X6000000Y-14800000D03*
G04 #@! TD*
D12*
G04 #@! TO.C,C2*
X42220000Y-17110000D03*
X42220000Y-16470000D03*
G04 #@! TD*
D11*
G04 #@! TO.C,KiKit_MB_7_3*
X35333333Y-25370000D03*
G04 #@! TD*
G04 #@! TO.C,KiKit_MB_22_23*
X13200000Y-55200000D03*
G04 #@! TD*
G04 #@! TO.C,KiKit_MB_23_27*
X63400000Y-14800000D03*
G04 #@! TD*
G04 #@! TO.C,KiKit_MB_17_3*
X25200000Y-1242106D03*
G04 #@! TD*
G04 #@! TO.C,KiKit_MB_20_16*
X44800000Y-67515789D03*
G04 #@! TD*
D25*
G04 #@! TO.C,C21*
X30630000Y-47080000D03*
X31270000Y-47080000D03*
G04 #@! TD*
D14*
G04 #@! TO.C,Q6*
X28630000Y-44195000D03*
X28630000Y-43745000D03*
D15*
X27930000Y-43970000D03*
G04 #@! TD*
D11*
G04 #@! TO.C,KiKit_MB_14_1*
X44830000Y-49900000D03*
G04 #@! TD*
D12*
G04 #@! TO.C,C13*
X41150000Y-51260000D03*
X41150000Y-50620000D03*
G04 #@! TD*
D11*
G04 #@! TO.C,KiKit_MB_24_33*
X67000000Y-55200000D03*
G04 #@! TD*
G04 #@! TO.C,KiKit_MB_20_5*
X44800000Y-60684210D03*
G04 #@! TD*
D27*
G04 #@! TO.C,R7*
X41130000Y-32510000D03*
X40490000Y-32510000D03*
G04 #@! TD*
D11*
G04 #@! TO.C,KiKit_MB_18_12*
X44800000Y-6831579D03*
G04 #@! TD*
G04 #@! TO.C,KiKit_MB_17_20*
X25200000Y-11800000D03*
G04 #@! TD*
G04 #@! TO.C,KiKit_MB_23_34*
X67600000Y-14800000D03*
G04 #@! TD*
D34*
G04 #@! TO.C,FB2*
X29015000Y-38180000D03*
X29985000Y-38180000D03*
G04 #@! TD*
D29*
G04 #@! TO.C,Q2*
X32945000Y-32820000D03*
X32495000Y-32820000D03*
D30*
X32720000Y-33520000D03*
G04 #@! TD*
D11*
G04 #@! TO.C,KiKit_MB_23_15*
X56200000Y-14800000D03*
G04 #@! TD*
G04 #@! TO.C,KiKit_MB_1_2*
X25170000Y-19433333D03*
G04 #@! TD*
G04 #@! TO.C,KiKit_MB_1_3*
X25170000Y-18766667D03*
G04 #@! TD*
D27*
G04 #@! TO.C,R2*
X26940000Y-15960000D03*
X26300000Y-15960000D03*
G04 #@! TD*
D11*
G04 #@! TO.C,KiKit_MB_19_13*
X25200000Y-65652631D03*
G04 #@! TD*
D12*
G04 #@! TO.C,R12*
X30370000Y-44120000D03*
X30370000Y-43480000D03*
G04 #@! TD*
D11*
G04 #@! TO.C,KiKit_MB_23_13*
X55000000Y-14800000D03*
G04 #@! TD*
G04 #@! TO.C,KiKit_MB_23_33*
X67000000Y-14800000D03*
G04 #@! TD*
G04 #@! TO.C,KiKit_MB_24_21*
X59800000Y-55200000D03*
G04 #@! TD*
G04 #@! TO.C,KiKit_MB_22_25*
X14400000Y-55200000D03*
G04 #@! TD*
G04 #@! TO.C,KiKit_MB_19_8*
X25200000Y-62547368D03*
G04 #@! TD*
D23*
G04 #@! TO.C,U4*
X30207500Y-51560000D03*
X30207500Y-52060000D03*
X30207500Y-52560000D03*
X30207500Y-53060000D03*
X32232500Y-53060000D03*
X32232500Y-52560000D03*
X32232500Y-52060000D03*
X32232500Y-51560000D03*
D24*
X31220000Y-52310000D03*
G04 #@! TD*
D31*
G04 #@! TO.C,FB1*
X28100000Y-37635000D03*
X28100000Y-36665000D03*
G04 #@! TD*
D11*
G04 #@! TO.C,KiKit_MB_12_1*
X36000000Y-44630000D03*
G04 #@! TD*
D27*
G04 #@! TO.C,R1*
X26910000Y-47060000D03*
X26270000Y-47060000D03*
G04 #@! TD*
D11*
G04 #@! TO.C,KiKit_MB_20_19*
X44800000Y-69378947D03*
G04 #@! TD*
G04 #@! TO.C,KiKit_MB_16_2*
X35333333Y-55230000D03*
G04 #@! TD*
D22*
G04 #@! TO.C,R4*
X44120000Y-26630000D03*
X44120000Y-27270000D03*
G04 #@! TD*
D33*
G04 #@! TO.C,KiKit_FID_T_4*
X60000000Y-66150000D03*
G04 #@! TD*
D11*
G04 #@! TO.C,KiKit_MB_23_25*
X62200000Y-14800000D03*
G04 #@! TD*
G04 #@! TO.C,KiKit_MB_23_16*
X56800000Y-14800000D03*
G04 #@! TD*
G04 #@! TO.C,KiKit_MB_19_2*
X25200000Y-58821052D03*
G04 #@! TD*
G04 #@! TO.C,KiKit_MB_20_17*
X44800000Y-68136842D03*
G04 #@! TD*
G04 #@! TO.C,KiKit_MB_23_24*
X61600000Y-14800000D03*
G04 #@! TD*
D27*
G04 #@! TO.C,C16*
X32670000Y-47080000D03*
X32030000Y-47080000D03*
G04 #@! TD*
D11*
G04 #@! TO.C,KiKit_MB_17_18*
X25200000Y-10557895D03*
G04 #@! TD*
D35*
G04 #@! TO.C,U2*
X39597500Y-28660000D03*
X39597500Y-27710000D03*
X39597500Y-26760000D03*
X37322500Y-26760000D03*
X37322500Y-27710000D03*
X37322500Y-28660000D03*
G04 #@! TD*
D14*
G04 #@! TO.C,Q6*
X28630000Y-22995000D03*
X28630000Y-22545000D03*
D15*
X27930000Y-22770000D03*
G04 #@! TD*
D25*
G04 #@! TO.C,R8*
X40490000Y-54420000D03*
X41130000Y-54420000D03*
G04 #@! TD*
D11*
G04 #@! TO.C,KiKit_MB_20_2*
X44800000Y-58821052D03*
G04 #@! TD*
G04 #@! TO.C,KiKit_MB_24_18*
X58000000Y-55200000D03*
G04 #@! TD*
G04 #@! TO.C,KiKit_MB_8_4*
X34000000Y-34030000D03*
G04 #@! TD*
G04 #@! TO.C,KiKit_MB_22_32*
X18600000Y-55200000D03*
G04 #@! TD*
D12*
G04 #@! TO.C,C22*
X28920000Y-15920000D03*
X28920000Y-15280000D03*
G04 #@! TD*
D11*
G04 #@! TO.C,KiKit_MB_23_11*
X53800000Y-14800000D03*
G04 #@! TD*
G04 #@! TO.C,KiKit_MB_22_18*
X10200000Y-55200000D03*
G04 #@! TD*
G04 #@! TO.C,KiKit_MB_23_35*
X68200000Y-14800000D03*
G04 #@! TD*
G04 #@! TO.C,KiKit_MB_20_9*
X44800000Y-63168421D03*
G04 #@! TD*
G04 #@! TO.C,KiKit_MB_20_20*
X44800000Y-70000000D03*
G04 #@! TD*
G04 #@! TO.C,KiKit_MB_9_1*
X25170000Y-41300000D03*
G04 #@! TD*
D25*
G04 #@! TO.C,R8*
X40490000Y-43820000D03*
X41130000Y-43820000D03*
G04 #@! TD*
D10*
G04 #@! TO.C,L1*
X37351357Y-20157478D03*
X39501357Y-20157478D03*
G04 #@! TD*
D11*
G04 #@! TO.C,KiKit_MB_21_5*
X2400000Y-14800000D03*
G04 #@! TD*
D22*
G04 #@! TO.C,R9*
X41520000Y-16470000D03*
X41520000Y-17110000D03*
G04 #@! TD*
D11*
G04 #@! TO.C,KiKit_MB_17_9*
X25200000Y-4968422D03*
G04 #@! TD*
G04 #@! TO.C,KiKit_MB_23_19*
X58600000Y-14800000D03*
G04 #@! TD*
G04 #@! TO.C,KiKit_MB_23_1*
X47800000Y-14800000D03*
G04 #@! TD*
G04 #@! TO.C,KiKit_MB_23_3*
X49000000Y-14800000D03*
G04 #@! TD*
G04 #@! TO.C,KiKit_MB_22_3*
X1200000Y-55200000D03*
G04 #@! TD*
G04 #@! TO.C,KiKit_MB_19_10*
X25200000Y-63789473D03*
G04 #@! TD*
G04 #@! TO.C,KiKit_MB_16_1*
X36000000Y-55230000D03*
G04 #@! TD*
D17*
G04 #@! TO.C,D1*
X27780000Y-20600000D03*
D18*
X28530000Y-20550000D03*
X28530000Y-19250000D03*
D19*
X27270000Y-19150000D03*
D20*
X25795000Y-19250000D03*
D21*
X26650000Y-20600000D03*
D20*
X25795000Y-20550000D03*
G04 #@! TD*
D25*
G04 #@! TO.C,C21*
X30630000Y-36480000D03*
X31270000Y-36480000D03*
G04 #@! TD*
D34*
G04 #@! TO.C,FB2*
X29015000Y-16980000D03*
X29985000Y-16980000D03*
G04 #@! TD*
D11*
G04 #@! TO.C,KiKit_MB_22_34*
X19800000Y-55200000D03*
G04 #@! TD*
G04 #@! TO.C,KiKit_MB_22_20*
X11400000Y-55200000D03*
G04 #@! TD*
G04 #@! TO.C,KiKit_MB_21_27*
X15600000Y-14800000D03*
G04 #@! TD*
G04 #@! TO.C,KiKit_MB_23_12*
X54400000Y-14800000D03*
G04 #@! TD*
D32*
G04 #@! TO.C,C4*
X34700000Y-40457500D03*
X34700000Y-37382500D03*
G04 #@! TD*
D11*
G04 #@! TO.C,KiKit_MB_21_25*
X14400000Y-14800000D03*
G04 #@! TD*
G04 #@! TO.C,KiKit_MB_23_36*
X68800000Y-14800000D03*
G04 #@! TD*
G04 #@! TO.C,KiKit_MB_23_26*
X62800000Y-14800000D03*
G04 #@! TD*
D27*
G04 #@! TO.C,C6*
X36100000Y-31160000D03*
X35460000Y-31160000D03*
G04 #@! TD*
D11*
G04 #@! TO.C,KiKit_MB_23_31*
X65800000Y-14800000D03*
G04 #@! TD*
G04 #@! TO.C,KiKit_MB_24_32*
X66400000Y-55200000D03*
G04 #@! TD*
G04 #@! TO.C,KiKit_MB_19_18*
X25200000Y-68757894D03*
G04 #@! TD*
D31*
G04 #@! TO.C,FB1*
X28100000Y-48235000D03*
X28100000Y-47265000D03*
G04 #@! TD*
D11*
G04 #@! TO.C,KiKit_MB_24_34*
X67600000Y-55200000D03*
G04 #@! TD*
G04 #@! TO.C,KiKit_MB_22_27*
X15600000Y-55200000D03*
G04 #@! TD*
D16*
G04 #@! TO.C,D2*
X42125000Y-15620000D03*
X41155000Y-15620000D03*
G04 #@! TD*
D11*
G04 #@! TO.C,KiKit_MB_14_2*
X44830000Y-50566666D03*
G04 #@! TD*
D26*
G04 #@! TO.C,SW1*
X43210000Y-43675000D03*
X43210000Y-39525000D03*
G04 #@! TD*
D29*
G04 #@! TO.C,Q2*
X32945000Y-43420000D03*
X32495000Y-43420000D03*
D30*
X32720000Y-44120000D03*
G04 #@! TD*
D12*
G04 #@! TO.C,C2*
X42220000Y-38310000D03*
X42220000Y-37670000D03*
G04 #@! TD*
D11*
G04 #@! TO.C,KiKit_MB_6_2*
X44830000Y-29366666D03*
G04 #@! TD*
G04 #@! TO.C,KiKit_MB_23_8*
X52000000Y-14800000D03*
G04 #@! TD*
G04 #@! TO.C,KiKit_MB_16_4*
X34000000Y-55230000D03*
G04 #@! TD*
D34*
G04 #@! TO.C,FB2*
X29015000Y-27580000D03*
X29985000Y-27580000D03*
G04 #@! TD*
D11*
G04 #@! TO.C,KiKit_MB_21_35*
X20400000Y-14800000D03*
G04 #@! TD*
G04 #@! TO.C,KiKit_MB_22_2*
X600000Y-55200000D03*
G04 #@! TD*
D22*
G04 #@! TO.C,R9*
X41520000Y-37670000D03*
X41520000Y-38310000D03*
G04 #@! TD*
D12*
G04 #@! TO.C,C22*
X28920000Y-26520000D03*
X28920000Y-25880000D03*
G04 #@! TD*
D11*
G04 #@! TO.C,KiKit_MB_21_20*
X11400000Y-14800000D03*
G04 #@! TD*
G04 #@! TO.C,KiKit_MB_21_12*
X6600000Y-14800000D03*
G04 #@! TD*
D27*
G04 #@! TO.C,R1*
X26910000Y-36460000D03*
X26270000Y-36460000D03*
G04 #@! TD*
D23*
G04 #@! TO.C,U4*
X30207500Y-40960000D03*
X30207500Y-41460000D03*
X30207500Y-41960000D03*
X30207500Y-42460000D03*
X32232500Y-42460000D03*
X32232500Y-41960000D03*
X32232500Y-41460000D03*
X32232500Y-40960000D03*
D24*
X31220000Y-41710000D03*
G04 #@! TD*
D11*
G04 #@! TO.C,KiKit_MB_24_24*
X61600000Y-55200000D03*
G04 #@! TD*
D35*
G04 #@! TO.C,U2*
X39597500Y-39260000D03*
X39597500Y-38310000D03*
X39597500Y-37360000D03*
X37322500Y-37360000D03*
X37322500Y-38310000D03*
X37322500Y-39260000D03*
G04 #@! TD*
D12*
G04 #@! TO.C,R11*
X29670000Y-33520000D03*
X29670000Y-32880000D03*
G04 #@! TD*
D11*
G04 #@! TO.C,KiKit_MB_21_13*
X7200000Y-14800000D03*
G04 #@! TD*
G04 #@! TO.C,KiKit_MB_2_4*
X44830000Y-20100000D03*
G04 #@! TD*
D26*
G04 #@! TO.C,SW1*
X43210000Y-54275000D03*
X43210000Y-50125000D03*
G04 #@! TD*
D27*
G04 #@! TO.C,C6*
X36100000Y-41760000D03*
X35460000Y-41760000D03*
G04 #@! TD*
D13*
G04 #@! TO.C,C9*
X39405000Y-43440000D03*
X37855000Y-43440000D03*
G04 #@! TD*
D11*
G04 #@! TO.C,KiKit_MB_4_4*
X34000000Y-23430000D03*
G04 #@! TD*
G04 #@! TO.C,KiKit_MB_20_15*
X44800000Y-66894736D03*
G04 #@! TD*
D25*
G04 #@! TO.C,C21*
X30630000Y-15280000D03*
X31270000Y-15280000D03*
G04 #@! TD*
D11*
G04 #@! TO.C,KiKit_MB_22_35*
X20400000Y-55200000D03*
G04 #@! TD*
D27*
G04 #@! TO.C,C16*
X32670000Y-25880000D03*
X32030000Y-25880000D03*
G04 #@! TD*
D11*
G04 #@! TO.C,KiKit_MB_22_11*
X6000000Y-55200000D03*
G04 #@! TD*
D12*
G04 #@! TO.C,C13*
X41150000Y-40660000D03*
X41150000Y-40020000D03*
G04 #@! TD*
D27*
G04 #@! TO.C,R7*
X41130000Y-53710000D03*
X40490000Y-53710000D03*
G04 #@! TD*
D11*
G04 #@! TO.C,KiKit_MB_4_2*
X35333333Y-23430000D03*
G04 #@! TD*
G04 #@! TO.C,KiKit_MB_21_4*
X1800000Y-14800000D03*
G04 #@! TD*
G04 #@! TO.C,KiKit_MB_24_6*
X50800000Y-55200000D03*
G04 #@! TD*
D12*
G04 #@! TO.C,R11*
X29670000Y-54720000D03*
X29670000Y-54080000D03*
G04 #@! TD*
D11*
G04 #@! TO.C,KiKit_MB_20_14*
X44800000Y-66273684D03*
G04 #@! TD*
D27*
G04 #@! TO.C,C16*
X32670000Y-36480000D03*
X32030000Y-36480000D03*
G04 #@! TD*
D11*
G04 #@! TO.C,KiKit_MB_21_31*
X18000000Y-14800000D03*
G04 #@! TD*
G04 #@! TO.C,KiKit_MB_10_1*
X44830000Y-39300000D03*
G04 #@! TD*
D35*
G04 #@! TO.C,U2*
X39597500Y-18060000D03*
X39597500Y-17110000D03*
X39597500Y-16160000D03*
X37322500Y-16160000D03*
X37322500Y-17110000D03*
X37322500Y-18060000D03*
G04 #@! TD*
D11*
G04 #@! TO.C,KiKit_MB_20_18*
X44800000Y-68757894D03*
G04 #@! TD*
G04 #@! TO.C,KiKit_MB_18_2*
X44800000Y-621053D03*
G04 #@! TD*
G04 #@! TO.C,KiKit_MB_23_4*
X49600000Y-14800000D03*
G04 #@! TD*
D12*
G04 #@! TO.C,R14*
X31070000Y-33520000D03*
X31070000Y-32880000D03*
G04 #@! TD*
D10*
G04 #@! TO.C,L1*
X37351357Y-51957478D03*
X39501357Y-51957478D03*
G04 #@! TD*
D11*
G04 #@! TO.C,KiKit_MB_24_11*
X53800000Y-55200000D03*
G04 #@! TD*
D35*
G04 #@! TO.C,U2*
X39597500Y-49860000D03*
X39597500Y-48910000D03*
X39597500Y-47960000D03*
X37322500Y-47960000D03*
X37322500Y-48910000D03*
X37322500Y-49860000D03*
G04 #@! TD*
D11*
G04 #@! TO.C,KiKit_MB_20_1*
X44800000Y-58200000D03*
G04 #@! TD*
G04 #@! TO.C,KiKit_MB_24_17*
X57400000Y-55200000D03*
G04 #@! TD*
G04 #@! TO.C,KiKit_MB_17_13*
X25200000Y-7452632D03*
G04 #@! TD*
G04 #@! TO.C,KiKit_MB_21_18*
X10200000Y-14800000D03*
G04 #@! TD*
G04 #@! TO.C,KiKit_MB_21_14*
X7800000Y-14800000D03*
G04 #@! TD*
G04 #@! TO.C,KiKit_MB_23_5*
X50200000Y-14800000D03*
G04 #@! TD*
G04 #@! TO.C,KiKit_MB_19_20*
X25200000Y-70000000D03*
G04 #@! TD*
D10*
G04 #@! TO.C,L1*
X37351357Y-41357478D03*
X39501357Y-41357478D03*
G04 #@! TD*
D11*
G04 #@! TO.C,KiKit_MB_22_10*
X5400000Y-55200000D03*
G04 #@! TD*
G04 #@! TO.C,KiKit_MB_22_1*
X0Y-55200000D03*
G04 #@! TD*
D12*
G04 #@! TO.C,R11*
X29670000Y-44120000D03*
X29670000Y-43480000D03*
G04 #@! TD*
D11*
G04 #@! TO.C,KiKit_MB_17_12*
X25200000Y-6831579D03*
G04 #@! TD*
G04 #@! TO.C,KiKit_MB_23_29*
X64600000Y-14800000D03*
G04 #@! TD*
G04 #@! TO.C,KiKit_MB_18_18*
X44800000Y-10557895D03*
G04 #@! TD*
G04 #@! TO.C,KiKit_MB_22_17*
X9600000Y-55200000D03*
G04 #@! TD*
G04 #@! TO.C,KiKit_MB_21_2*
X600000Y-14800000D03*
G04 #@! TD*
D23*
G04 #@! TO.C,U4*
X30207500Y-19760000D03*
X30207500Y-20260000D03*
X30207500Y-20760000D03*
X30207500Y-21260000D03*
X32232500Y-21260000D03*
X32232500Y-20760000D03*
X32232500Y-20260000D03*
X32232500Y-19760000D03*
D24*
X31220000Y-20510000D03*
G04 #@! TD*
D11*
G04 #@! TO.C,KiKit_MB_2_3*
X44830000Y-19433333D03*
G04 #@! TD*
G04 #@! TO.C,KiKit_MB_23_6*
X50800000Y-14800000D03*
G04 #@! TD*
D17*
G04 #@! TO.C,D1*
X27780000Y-41800000D03*
D18*
X28530000Y-41750000D03*
X28530000Y-40450000D03*
D19*
X27270000Y-40350000D03*
D20*
X25795000Y-40450000D03*
D21*
X26650000Y-41800000D03*
D20*
X25795000Y-41750000D03*
G04 #@! TD*
D11*
G04 #@! TO.C,KiKit_MB_24_25*
X62200000Y-55200000D03*
G04 #@! TD*
G04 #@! TO.C,KiKit_MB_21_10*
X5400000Y-14800000D03*
G04 #@! TD*
G04 #@! TO.C,KiKit_MB_17_7*
X25200000Y-3726316D03*
G04 #@! TD*
G04 #@! TO.C,KiKit_MB_19_19*
X25200000Y-69378947D03*
G04 #@! TD*
G04 #@! TO.C,KiKit_MB_18_20*
X44800000Y-11800000D03*
G04 #@! TD*
G04 #@! TO.C,KiKit_MB_24_28*
X64000000Y-55200000D03*
G04 #@! TD*
D31*
G04 #@! TO.C,FB1*
X28100000Y-27035000D03*
X28100000Y-26065000D03*
G04 #@! TD*
D11*
G04 #@! TO.C,KiKit_MB_15_3*
X35333333Y-46570000D03*
G04 #@! TD*
D12*
G04 #@! TO.C,C20*
X29620000Y-47720000D03*
X29620000Y-47080000D03*
G04 #@! TD*
D27*
G04 #@! TO.C,R1*
X26910000Y-15260000D03*
X26270000Y-15260000D03*
G04 #@! TD*
D11*
G04 #@! TO.C,KiKit_MB_3_4*
X36000000Y-14770000D03*
G04 #@! TD*
G04 #@! TO.C,KiKit_MB_18_4*
X44800000Y-1863158D03*
G04 #@! TD*
G04 #@! TO.C,KiKit_MB_24_23*
X61000000Y-55200000D03*
G04 #@! TD*
G04 #@! TO.C,KiKit_MB_24_27*
X63400000Y-55200000D03*
G04 #@! TD*
D27*
G04 #@! TO.C,R2*
X26940000Y-47760000D03*
X26300000Y-47760000D03*
G04 #@! TD*
M02*
