M48
; DRILL file {KiCad 8.0.7} date 2025-01-15T21:24:22-0500
; FORMAT={-:-/ absolute / metric / decimal}
; #@! TF.CreationDate,2025-01-15T21:24:22-05:00
; #@! TF.GenerationSoftware,Kicad,Pcbnew,8.0.7
; #@! TF.FileFunction,MixedPlating,1,4
FMAT,2
METRIC
; #@! TA.AperFunction,Plated,PTH,ViaDrill
T1C0.200
; #@! TA.AperFunction,Plated,PTH,ViaDrill
T2C0.300
; #@! TA.AperFunction,NonPlated,NPTH,ComponentDrill
T3C0.300
; #@! TA.AperFunction,NonPlated,NPTH,ComponentDrill
T4C1.152
%
G90
G05
T1
X25.69Y-22.775
X25.69Y-33.375
X25.69Y-43.975
X25.69Y-54.575
X26.217Y-17.575
X26.217Y-28.175
X26.217Y-38.775
X26.217Y-49.375
X26.42Y-19.61
X26.42Y-30.21
X26.42Y-40.81
X26.42Y-51.41
X26.585Y-18.265
X26.585Y-28.865
X26.585Y-39.465
X26.585Y-50.065
X26.97Y-22.96
X26.97Y-33.56
X26.97Y-44.16
X26.97Y-54.76
X27.055Y-17.211
X27.055Y-18.265
X27.055Y-27.811
X27.055Y-28.865
X27.055Y-38.411
X27.055Y-39.465
X27.055Y-49.011
X27.055Y-50.065
X27.425Y-15.36
X27.425Y-25.96
X27.425Y-36.56
X27.425Y-47.16
X27.489Y-16.44
X27.489Y-27.04
X27.489Y-37.64
X27.489Y-48.24
X27.88Y-22.66
X27.88Y-33.26
X27.88Y-43.86
X27.88Y-54.46
X28.1Y-15.46
X28.1Y-26.06
X28.1Y-36.66
X28.1Y-47.26
X28.218Y-17.165
X28.218Y-27.765
X28.218Y-38.365
X28.218Y-48.965
X28.5Y-17.62
X28.5Y-28.22
X28.5Y-38.82
X28.5Y-49.42
X28.63Y-22.975
X28.63Y-33.575
X28.63Y-44.175
X28.63Y-54.775
X30.11Y-15.8
X30.11Y-26.4
X30.11Y-37.0
X30.11Y-47.6
X30.26Y-16.39
X30.26Y-26.99
X30.26Y-37.59
X30.26Y-48.19
X30.44Y-22.97
X30.44Y-33.57
X30.44Y-44.17
X30.44Y-54.77
X30.452Y-22.184
X30.452Y-32.784
X30.452Y-43.384
X30.452Y-53.984
X30.65Y-15.25
X30.65Y-25.85
X30.65Y-36.45
X30.65Y-47.05
X30.716Y-16.453
X30.716Y-27.053
X30.716Y-37.653
X30.716Y-48.253
X31.159Y-15.808
X31.159Y-26.408
X31.159Y-37.008
X31.159Y-47.608
X31.18Y-22.31
X31.18Y-32.91
X31.18Y-43.51
X31.18Y-54.11
X31.614Y-15.878
X31.614Y-26.478
X31.614Y-37.078
X31.614Y-47.678
X32.605Y-22.715
X32.605Y-33.315
X32.605Y-43.915
X32.605Y-54.515
X32.67Y-17.08
X32.67Y-17.87
X32.67Y-18.68
X32.67Y-27.68
X32.67Y-28.47
X32.67Y-29.28
X32.67Y-38.28
X32.67Y-39.07
X32.67Y-39.88
X32.67Y-48.88
X32.67Y-49.67
X32.67Y-50.48
X32.914Y-18.286
X32.914Y-28.886
X32.914Y-39.486
X32.914Y-50.086
X32.938Y-16.675
X32.938Y-17.475
X32.938Y-27.275
X32.938Y-28.075
X32.938Y-37.875
X32.938Y-38.675
X32.938Y-48.475
X32.938Y-49.275
X33.39Y-22.26
X33.39Y-32.86
X33.39Y-43.46
X33.39Y-54.06
X33.876Y-15.225
X33.876Y-25.825
X33.876Y-36.425
X33.876Y-47.025
X33.978Y-17.13
X33.978Y-27.73
X33.978Y-38.33
X33.978Y-48.93
X34.18Y-22.15
X34.18Y-32.75
X34.18Y-43.35
X34.18Y-53.95
X34.438Y-17.13
X34.438Y-27.73
X34.438Y-38.33
X34.438Y-48.93
X34.575Y-21.9
X34.575Y-32.5
X34.575Y-43.1
X34.575Y-53.7
X34.898Y-17.13
X34.898Y-27.73
X34.898Y-38.33
X34.898Y-48.93
X34.98Y-22.15
X34.98Y-32.75
X34.98Y-43.35
X34.98Y-53.95
X35.358Y-17.13
X35.358Y-27.73
X35.358Y-38.33
X35.358Y-48.93
X35.375Y-21.9
X35.375Y-32.5
X35.375Y-43.1
X35.375Y-53.7
X35.77Y-21.66
X35.77Y-22.15
X35.77Y-32.26
X35.77Y-32.75
X35.77Y-42.86
X35.77Y-43.35
X35.77Y-53.46
X35.77Y-53.95
X35.818Y-17.13
X35.818Y-27.73
X35.818Y-38.33
X35.818Y-48.93
X36.138Y-15.329
X36.138Y-25.929
X36.138Y-36.529
X36.138Y-47.129
X36.18Y-21.9
X36.18Y-32.5
X36.18Y-43.1
X36.18Y-53.7
X36.565Y-15.5
X36.565Y-26.1
X36.565Y-36.7
X36.565Y-47.3
X36.575Y-22.15
X36.575Y-32.75
X36.575Y-43.35
X36.575Y-53.95
X36.97Y-22.39
X36.97Y-32.99
X36.97Y-43.59
X36.97Y-54.19
X36.993Y-15.33
X36.993Y-25.93
X36.993Y-36.53
X36.993Y-47.13
X37.39Y-22.975
X37.39Y-33.575
X37.39Y-44.175
X37.39Y-54.775
X37.94Y-17.39
X37.94Y-27.99
X37.94Y-38.59
X37.94Y-49.19
X38.31Y-17.68
X38.31Y-28.28
X38.31Y-38.88
X38.31Y-49.48
X38.38Y-21.96
X38.38Y-32.56
X38.38Y-43.16
X38.38Y-53.76
X38.463Y-21.469
X38.463Y-32.069
X38.463Y-42.669
X38.463Y-53.269
X38.972Y-18.64
X38.972Y-29.24
X38.972Y-39.84
X38.972Y-50.44
X39.6Y-15.66
X39.6Y-26.26
X39.6Y-36.86
X39.6Y-47.46
X40.0Y-15.28
X40.0Y-25.88
X40.0Y-36.48
X40.0Y-47.08
X40.503Y-17.68
X40.503Y-28.28
X40.503Y-38.88
X40.503Y-49.48
X40.85Y-18.13
X40.85Y-28.73
X40.85Y-39.33
X40.85Y-49.93
X40.878Y-19.497
X40.878Y-30.097
X40.878Y-40.697
X40.878Y-51.297
X41.525Y-17.415
X41.525Y-28.015
X41.525Y-38.615
X41.525Y-49.215
X42.156Y-17.41
X42.156Y-28.01
X42.156Y-38.61
X42.156Y-49.21
X42.924Y-17.03
X42.924Y-27.63
X42.924Y-38.23
X42.924Y-48.83
X42.956Y-15.805
X42.956Y-16.53
X42.956Y-26.405
X42.956Y-27.13
X42.956Y-37.005
X42.956Y-37.73
X42.956Y-47.605
X42.956Y-48.33
X43.454Y-16.525
X43.454Y-27.125
X43.454Y-37.725
X43.454Y-48.325
X43.644Y-16.944
X43.644Y-27.544
X43.644Y-38.144
X43.644Y-48.744
X43.83Y-17.365
X43.83Y-27.965
X43.83Y-38.565
X43.83Y-49.165
X44.12Y-16.03
X44.12Y-26.63
X44.12Y-37.23
X44.12Y-47.83
T2
X25.741Y-16.272
X25.741Y-26.872
X25.741Y-37.472
X25.741Y-48.072
X25.76Y-21.57
X25.76Y-32.17
X25.76Y-42.77
X25.76Y-53.37
X25.77Y-15.66
X25.77Y-26.26
X25.77Y-36.86
X25.77Y-47.46
X26.72Y-20.5
X26.72Y-31.1
X26.72Y-41.7
X26.72Y-52.3
X26.73Y-21.191
X26.73Y-31.791
X26.73Y-42.391
X26.73Y-52.991
X26.78Y-17.72
X26.78Y-28.32
X26.78Y-38.92
X26.78Y-49.52
X26.878Y-22.254
X26.878Y-32.854
X26.878Y-43.454
X26.878Y-54.054
X27.38Y-22.25
X27.38Y-32.85
X27.38Y-43.45
X27.38Y-54.05
X28.53Y-18.31
X28.53Y-28.91
X28.53Y-39.51
X28.53Y-50.11
X28.67Y-21.135
X28.67Y-31.735
X28.67Y-42.335
X28.67Y-52.935
X29.14Y-20.26
X29.14Y-30.86
X29.14Y-41.46
X29.14Y-52.06
X29.25Y-15.31
X29.25Y-25.91
X29.25Y-36.51
X29.25Y-47.11
X29.56Y-20.76
X29.56Y-31.36
X29.56Y-41.96
X29.56Y-52.56
X30.539Y-18.025
X30.539Y-28.625
X30.539Y-39.225
X30.539Y-49.825
X30.96Y-20.62
X30.96Y-31.22
X30.96Y-41.82
X30.96Y-52.42
X31.066Y-18.744
X31.066Y-29.344
X31.066Y-39.944
X31.066Y-50.544
X31.24Y-21.14
X31.24Y-31.74
X31.24Y-42.34
X31.24Y-52.94
X32.105Y-15.28
X32.105Y-25.88
X32.105Y-36.48
X32.105Y-47.08
X32.166Y-17.553
X32.166Y-28.153
X32.166Y-38.753
X32.166Y-49.353
X32.233Y-19.76
X32.233Y-30.36
X32.233Y-40.96
X32.233Y-51.56
X33.71Y-20.294
X33.71Y-30.894
X33.71Y-41.494
X33.71Y-52.094
X34.149Y-20.666
X34.149Y-31.266
X34.149Y-41.866
X34.149Y-52.466
X34.811Y-20.66
X34.811Y-31.26
X34.811Y-41.86
X34.811Y-52.46
X36.34Y-19.765
X36.34Y-30.365
X36.34Y-40.965
X36.34Y-51.565
X36.35Y-19.26
X36.35Y-29.86
X36.35Y-40.46
X36.35Y-51.06
X37.38Y-21.914
X37.38Y-32.514
X37.38Y-43.114
X37.38Y-53.714
X38.986Y-20.944
X38.986Y-31.544
X38.986Y-42.144
X38.986Y-52.744
X38.99Y-21.59
X38.99Y-32.19
X38.99Y-42.79
X38.99Y-53.39
X40.396Y-15.61
X40.396Y-26.21
X40.396Y-36.81
X40.396Y-47.41
X40.86Y-20.22
X40.86Y-30.82
X40.86Y-41.42
X40.86Y-52.02
X42.045Y-22.65
X42.045Y-33.25
X42.045Y-43.85
X42.045Y-54.45
X42.13Y-15.34
X42.13Y-25.94
X42.13Y-36.54
X42.13Y-47.14
X43.795Y-21.25
X43.795Y-31.85
X43.795Y-42.45
X43.795Y-53.05
T3
X0.0Y-14.8
X0.0Y-55.2
X0.6Y-14.8
X0.6Y-55.2
X1.2Y-14.8
X1.2Y-55.2
X1.8Y-14.8
X1.8Y-55.2
X2.4Y-14.8
X2.4Y-55.2
X3.0Y-14.8
X3.0Y-55.2
X3.6Y-14.8
X3.6Y-55.2
X4.2Y-14.8
X4.2Y-55.2
X4.8Y-14.8
X4.8Y-55.2
X5.4Y-14.8
X5.4Y-55.2
X6.0Y-14.8
X6.0Y-55.2
X6.6Y-14.8
X6.6Y-55.2
X7.2Y-14.8
X7.2Y-55.2
X7.8Y-14.8
X7.8Y-55.2
X8.4Y-14.8
X8.4Y-55.2
X9.0Y-14.8
X9.0Y-55.2
X9.6Y-14.8
X9.6Y-55.2
X10.2Y-14.8
X10.2Y-55.2
X10.8Y-14.8
X10.8Y-55.2
X11.4Y-14.8
X11.4Y-55.2
X12.0Y-14.8
X12.0Y-55.2
X12.6Y-14.8
X12.6Y-55.2
X13.2Y-14.8
X13.2Y-55.2
X13.8Y-14.8
X13.8Y-55.2
X14.4Y-14.8
X14.4Y-55.2
X15.0Y-14.8
X15.0Y-55.2
X15.6Y-14.8
X15.6Y-55.2
X16.2Y-14.8
X16.2Y-55.2
X16.8Y-14.8
X16.8Y-55.2
X17.4Y-14.8
X17.4Y-55.2
X18.0Y-14.8
X18.0Y-55.2
X18.6Y-14.8
X18.6Y-55.2
X19.2Y-14.8
X19.2Y-55.2
X19.8Y-14.8
X19.8Y-55.2
X20.4Y-14.8
X20.4Y-55.2
X21.0Y-14.8
X21.0Y-55.2
X21.6Y-14.8
X21.6Y-55.2
X22.2Y-14.8
X22.2Y-55.2
X25.17Y-18.1
X25.17Y-18.767
X25.17Y-19.433
X25.17Y-20.1
X25.17Y-28.7
X25.17Y-29.367
X25.17Y-30.033
X25.17Y-30.7
X25.17Y-39.3
X25.17Y-39.967
X25.17Y-40.633
X25.17Y-41.3
X25.17Y-49.9
X25.17Y-50.567
X25.17Y-51.233
X25.17Y-51.9
X25.2Y0.0
X25.2Y-0.621
X25.2Y-1.242
X25.2Y-1.863
X25.2Y-2.484
X25.2Y-3.105
X25.2Y-3.726
X25.2Y-4.347
X25.2Y-4.968
X25.2Y-5.589
X25.2Y-6.211
X25.2Y-6.832
X25.2Y-7.453
X25.2Y-8.074
X25.2Y-8.695
X25.2Y-9.316
X25.2Y-9.937
X25.2Y-10.558
X25.2Y-11.179
X25.2Y-11.8
X25.2Y-58.2
X25.2Y-58.821
X25.2Y-59.442
X25.2Y-60.063
X25.2Y-60.684
X25.2Y-61.305
X25.2Y-61.926
X25.2Y-62.547
X25.2Y-63.168
X25.2Y-63.789
X25.2Y-64.411
X25.2Y-65.032
X25.2Y-65.653
X25.2Y-66.274
X25.2Y-66.895
X25.2Y-67.516
X25.2Y-68.137
X25.2Y-68.758
X25.2Y-69.379
X25.2Y-70.0
X34.0Y-14.77
X34.0Y-23.43
X34.0Y-25.37
X34.0Y-34.03
X34.0Y-35.97
X34.0Y-44.63
X34.0Y-46.57
X34.0Y-55.23
X34.667Y-14.77
X34.667Y-23.43
X34.667Y-25.37
X34.667Y-34.03
X34.667Y-35.97
X34.667Y-44.63
X34.667Y-46.57
X34.667Y-55.23
X35.333Y-14.77
X35.333Y-23.43
X35.333Y-25.37
X35.333Y-34.03
X35.333Y-35.97
X35.333Y-44.63
X35.333Y-46.57
X35.333Y-55.23
X36.0Y-14.77
X36.0Y-23.43
X36.0Y-25.37
X36.0Y-34.03
X36.0Y-35.97
X36.0Y-44.63
X36.0Y-46.57
X36.0Y-55.23
X44.8Y0.0
X44.8Y-0.621
X44.8Y-1.242
X44.8Y-1.863
X44.8Y-2.484
X44.8Y-3.105
X44.8Y-3.726
X44.8Y-4.347
X44.8Y-4.968
X44.8Y-5.589
X44.8Y-6.211
X44.8Y-6.832
X44.8Y-7.453
X44.8Y-8.074
X44.8Y-8.695
X44.8Y-9.316
X44.8Y-9.937
X44.8Y-10.558
X44.8Y-11.179
X44.8Y-11.8
X44.8Y-58.2
X44.8Y-58.821
X44.8Y-59.442
X44.8Y-60.063
X44.8Y-60.684
X44.8Y-61.305
X44.8Y-61.926
X44.8Y-62.547
X44.8Y-63.168
X44.8Y-63.789
X44.8Y-64.411
X44.8Y-65.032
X44.8Y-65.653
X44.8Y-66.274
X44.8Y-66.895
X44.8Y-67.516
X44.8Y-68.137
X44.8Y-68.758
X44.8Y-69.379
X44.8Y-70.0
X44.83Y-18.1
X44.83Y-18.767
X44.83Y-19.433
X44.83Y-20.1
X44.83Y-28.7
X44.83Y-29.367
X44.83Y-30.033
X44.83Y-30.7
X44.83Y-39.3
X44.83Y-39.967
X44.83Y-40.633
X44.83Y-41.3
X44.83Y-49.9
X44.83Y-50.567
X44.83Y-51.233
X44.83Y-51.9
X47.8Y-14.8
X47.8Y-55.2
X48.4Y-14.8
X48.4Y-55.2
X49.0Y-14.8
X49.0Y-55.2
X49.6Y-14.8
X49.6Y-55.2
X50.2Y-14.8
X50.2Y-55.2
X50.8Y-14.8
X50.8Y-55.2
X51.4Y-14.8
X51.4Y-55.2
X52.0Y-14.8
X52.0Y-55.2
X52.6Y-14.8
X52.6Y-55.2
X53.2Y-14.8
X53.2Y-55.2
X53.8Y-14.8
X53.8Y-55.2
X54.4Y-14.8
X54.4Y-55.2
X55.0Y-14.8
X55.0Y-55.2
X55.6Y-14.8
X55.6Y-55.2
X56.2Y-14.8
X56.2Y-55.2
X56.8Y-14.8
X56.8Y-55.2
X57.4Y-14.8
X57.4Y-55.2
X58.0Y-14.8
X58.0Y-55.2
X58.6Y-14.8
X58.6Y-55.2
X59.2Y-14.8
X59.2Y-55.2
X59.8Y-14.8
X59.8Y-55.2
X60.4Y-14.8
X60.4Y-55.2
X61.0Y-14.8
X61.0Y-55.2
X61.6Y-14.8
X61.6Y-55.2
X62.2Y-14.8
X62.2Y-55.2
X62.8Y-14.8
X62.8Y-55.2
X63.4Y-14.8
X63.4Y-55.2
X64.0Y-14.8
X64.0Y-55.2
X64.6Y-14.8
X64.6Y-55.2
X65.2Y-14.8
X65.2Y-55.2
X65.8Y-14.8
X65.8Y-55.2
X66.4Y-14.8
X66.4Y-55.2
X67.0Y-14.8
X67.0Y-55.2
X67.6Y-14.8
X67.6Y-55.2
X68.2Y-14.8
X68.2Y-55.2
X68.8Y-14.8
X68.8Y-55.2
X69.4Y-14.8
X69.4Y-55.2
X70.0Y-14.8
X70.0Y-55.2
T4
X2.0Y-2.0
X2.0Y-68.0
X68.0Y-2.0
M30
