G04 #@! TF.GenerationSoftware,KiCad,Pcbnew,8.0.7*
G04 #@! TF.CreationDate,2025-01-10T19:59:24-05:00*
G04 #@! TF.ProjectId,panel,70616e65-6c2e-46b6-9963-61645f706362,rev?*
G04 #@! TF.SameCoordinates,Original*
G04 #@! TF.FileFunction,Legend,Bot*
G04 #@! TF.FilePolarity,Positive*
%FSLAX46Y46*%
G04 Gerber Fmt 4.6, Leading zero omitted, Abs format (unit mm)*
G04 Created by KiCad (PCBNEW 8.0.7) date 2025-01-10 19:59:24*
%MOMM*%
%LPD*%
G01*
G04 APERTURE LIST*
%ADD10C,0.150000*%
%ADD11C,0.125000*%
%ADD12C,0.120000*%
G04 APERTURE END LIST*
D10*
G04 #@! TO.C,U5*
X29670000Y-36180000D02*
X31250000Y-36180000D01*
X29670000Y-37880000D02*
X29670000Y-36180000D01*
X29670000Y-37880000D02*
X31570000Y-37880000D01*
X31570000Y-37880000D02*
X31570000Y-36500000D01*
D11*
X31582500Y-36230000D02*
G75*
G02*
X31457500Y-36230000I-62500J0D01*
G01*
X31457500Y-36230000D02*
G75*
G02*
X31582500Y-36230000I62500J0D01*
G01*
D10*
G04 #@! TO.C,J4*
X25850000Y-37850000D02*
X25850000Y-37025000D01*
X25850000Y-43675000D02*
X25850000Y-42850000D01*
X27850000Y-37145000D02*
X27850000Y-37850000D01*
X27850000Y-43555000D02*
X27850000Y-42850000D01*
D12*
G04 #@! TO.C,C14*
X29829464Y-31367208D02*
X30045136Y-31367208D01*
X29829464Y-32087208D02*
X30045136Y-32087208D01*
G04 #@! TO.C,Q6*
D10*
X30266565Y-44297394D02*
G75*
G02*
X30116565Y-44297394I-75000J0D01*
G01*
X30116565Y-44297394D02*
G75*
G02*
X30266565Y-44297394I75000J0D01*
G01*
G04 #@! TO.C,Q2*
D11*
X32312500Y-43680000D02*
G75*
G02*
X32187500Y-43680000I-62500J0D01*
G01*
X32187500Y-43680000D02*
G75*
G02*
X32312500Y-43680000I62500J0D01*
G01*
D12*
G04 #@! TO.C,Y1*
X40925000Y-39925000D02*
X40925000Y-43225000D01*
X40925000Y-43225000D02*
X43725000Y-43225000D01*
G04 #@! TO.C,U3*
X32765000Y-37165000D02*
X32765000Y-37515000D01*
X32765000Y-44085000D02*
X32765000Y-43435000D01*
X33005000Y-36865000D02*
X33415000Y-36865000D01*
X33415000Y-44085000D02*
X32765000Y-44085000D01*
X39335000Y-36865000D02*
X39985000Y-36865000D01*
X39335000Y-44085000D02*
X39985000Y-44085000D01*
X39985000Y-36865000D02*
X39985000Y-37515000D01*
X39985000Y-44085000D02*
X39985000Y-43435000D01*
X32765000Y-36865000D02*
X32435000Y-37105000D01*
X32435000Y-36625000D01*
X32765000Y-36865000D01*
G36*
X32765000Y-36865000D02*
G01*
X32435000Y-37105000D01*
X32435000Y-36625000D01*
X32765000Y-36865000D01*
G37*
G04 #@! TO.C,C10*
X30490000Y-49892164D02*
X30490000Y-50107836D01*
X31210000Y-49892164D02*
X31210000Y-50107836D01*
G04 #@! TO.C,U1*
X41150000Y-36790000D02*
X44050000Y-36790000D01*
X41150000Y-39060000D02*
X44150000Y-39060000D01*
X44550000Y-36875000D02*
X44270000Y-36875000D01*
X44270000Y-36595000D01*
X44550000Y-36875000D01*
G36*
X44550000Y-36875000D02*
G01*
X44270000Y-36875000D01*
X44270000Y-36595000D01*
X44550000Y-36875000D01*
G37*
X41150000Y-26190000D02*
X44050000Y-26190000D01*
X41150000Y-28460000D02*
X44150000Y-28460000D01*
X44550000Y-26275000D02*
X44270000Y-26275000D01*
X44270000Y-25995000D01*
X44550000Y-26275000D01*
G36*
X44550000Y-26275000D02*
G01*
X44270000Y-26275000D01*
X44270000Y-25995000D01*
X44550000Y-26275000D01*
G37*
G04 #@! TO.C,U3*
X32765000Y-26565000D02*
X32765000Y-26915000D01*
X32765000Y-33485000D02*
X32765000Y-32835000D01*
X33005000Y-26265000D02*
X33415000Y-26265000D01*
X33415000Y-33485000D02*
X32765000Y-33485000D01*
X39335000Y-26265000D02*
X39985000Y-26265000D01*
X39335000Y-33485000D02*
X39985000Y-33485000D01*
X39985000Y-26265000D02*
X39985000Y-26915000D01*
X39985000Y-33485000D02*
X39985000Y-32835000D01*
X32765000Y-26265000D02*
X32435000Y-26505000D01*
X32435000Y-26025000D01*
X32765000Y-26265000D01*
G36*
X32765000Y-26265000D02*
G01*
X32435000Y-26505000D01*
X32435000Y-26025000D01*
X32765000Y-26265000D01*
G37*
G04 #@! TO.C,C8*
X31415000Y-49892164D02*
X31415000Y-50107836D01*
X32135000Y-49892164D02*
X32135000Y-50107836D01*
G04 #@! TO.C,C14*
X29829464Y-52567208D02*
X30045136Y-52567208D01*
X29829464Y-53287208D02*
X30045136Y-53287208D01*
G04 #@! TO.C,Q2*
D11*
X32312500Y-33080000D02*
G75*
G02*
X32187500Y-33080000I-62500J0D01*
G01*
X32187500Y-33080000D02*
G75*
G02*
X32312500Y-33080000I62500J0D01*
G01*
D12*
G04 #@! TO.C,U3*
X32765000Y-15965000D02*
X32765000Y-16315000D01*
X32765000Y-22885000D02*
X32765000Y-22235000D01*
X33005000Y-15665000D02*
X33415000Y-15665000D01*
X33415000Y-22885000D02*
X32765000Y-22885000D01*
X39335000Y-15665000D02*
X39985000Y-15665000D01*
X39335000Y-22885000D02*
X39985000Y-22885000D01*
X39985000Y-15665000D02*
X39985000Y-16315000D01*
X39985000Y-22885000D02*
X39985000Y-22235000D01*
X32765000Y-15665000D02*
X32435000Y-15905000D01*
X32435000Y-15425000D01*
X32765000Y-15665000D01*
G36*
X32765000Y-15665000D02*
G01*
X32435000Y-15905000D01*
X32435000Y-15425000D01*
X32765000Y-15665000D01*
G37*
G04 #@! TO.C,C10*
X30490000Y-39292164D02*
X30490000Y-39507836D01*
X31210000Y-39292164D02*
X31210000Y-39507836D01*
G04 #@! TO.C,C8*
X31415000Y-39292164D02*
X31415000Y-39507836D01*
X32135000Y-39292164D02*
X32135000Y-39507836D01*
G04 #@! TO.C,C14*
X29829464Y-41967208D02*
X30045136Y-41967208D01*
X29829464Y-42687208D02*
X30045136Y-42687208D01*
G04 #@! TO.C,Q6*
D10*
X30266565Y-54897394D02*
G75*
G02*
X30116565Y-54897394I-75000J0D01*
G01*
X30116565Y-54897394D02*
G75*
G02*
X30266565Y-54897394I75000J0D01*
G01*
X30266565Y-33697394D02*
G75*
G02*
X30116565Y-33697394I-75000J0D01*
G01*
X30116565Y-33697394D02*
G75*
G02*
X30266565Y-33697394I75000J0D01*
G01*
D12*
G04 #@! TO.C,C8*
X31415000Y-28692164D02*
X31415000Y-28907836D01*
X32135000Y-28692164D02*
X32135000Y-28907836D01*
G04 #@! TO.C,Q2*
D11*
X32312500Y-22480000D02*
G75*
G02*
X32187500Y-22480000I-62500J0D01*
G01*
X32187500Y-22480000D02*
G75*
G02*
X32312500Y-22480000I62500J0D01*
G01*
X32312500Y-54280000D02*
G75*
G02*
X32187500Y-54280000I-62500J0D01*
G01*
X32187500Y-54280000D02*
G75*
G02*
X32312500Y-54280000I62500J0D01*
G01*
D12*
G04 #@! TO.C,C14*
X29829464Y-20767208D02*
X30045136Y-20767208D01*
X29829464Y-21487208D02*
X30045136Y-21487208D01*
D10*
G04 #@! TO.C,U5*
X29670000Y-46780000D02*
X31250000Y-46780000D01*
X29670000Y-48480000D02*
X29670000Y-46780000D01*
X29670000Y-48480000D02*
X31570000Y-48480000D01*
X31570000Y-48480000D02*
X31570000Y-47100000D01*
D11*
X31582500Y-46830000D02*
G75*
G02*
X31457500Y-46830000I-62500J0D01*
G01*
X31457500Y-46830000D02*
G75*
G02*
X31582500Y-46830000I62500J0D01*
G01*
D10*
X29670000Y-25580000D02*
X31250000Y-25580000D01*
X29670000Y-27280000D02*
X29670000Y-25580000D01*
X29670000Y-27280000D02*
X31570000Y-27280000D01*
X31570000Y-27280000D02*
X31570000Y-25900000D01*
D11*
X31582500Y-25630000D02*
G75*
G02*
X31457500Y-25630000I-62500J0D01*
G01*
X31457500Y-25630000D02*
G75*
G02*
X31582500Y-25630000I62500J0D01*
G01*
D12*
G04 #@! TO.C,U3*
X32765000Y-47765000D02*
X32765000Y-48115000D01*
X32765000Y-54685000D02*
X32765000Y-54035000D01*
X33005000Y-47465000D02*
X33415000Y-47465000D01*
X33415000Y-54685000D02*
X32765000Y-54685000D01*
X39335000Y-47465000D02*
X39985000Y-47465000D01*
X39335000Y-54685000D02*
X39985000Y-54685000D01*
X39985000Y-47465000D02*
X39985000Y-48115000D01*
X39985000Y-54685000D02*
X39985000Y-54035000D01*
X32765000Y-47465000D02*
X32435000Y-47705000D01*
X32435000Y-47225000D01*
X32765000Y-47465000D01*
G36*
X32765000Y-47465000D02*
G01*
X32435000Y-47705000D01*
X32435000Y-47225000D01*
X32765000Y-47465000D01*
G37*
G04 #@! TO.C,Q6*
D10*
X30266565Y-23097394D02*
G75*
G02*
X30116565Y-23097394I-75000J0D01*
G01*
X30116565Y-23097394D02*
G75*
G02*
X30266565Y-23097394I75000J0D01*
G01*
D12*
G04 #@! TO.C,C8*
X31415000Y-18092164D02*
X31415000Y-18307836D01*
X32135000Y-18092164D02*
X32135000Y-18307836D01*
D10*
G04 #@! TO.C,J4*
X25850000Y-16650000D02*
X25850000Y-15825000D01*
X25850000Y-22475000D02*
X25850000Y-21650000D01*
X27850000Y-15945000D02*
X27850000Y-16650000D01*
X27850000Y-22355000D02*
X27850000Y-21650000D01*
X25850000Y-27250000D02*
X25850000Y-26425000D01*
X25850000Y-33075000D02*
X25850000Y-32250000D01*
X27850000Y-26545000D02*
X27850000Y-27250000D01*
X27850000Y-32955000D02*
X27850000Y-32250000D01*
X25850000Y-48450000D02*
X25850000Y-47625000D01*
X25850000Y-54275000D02*
X25850000Y-53450000D01*
X27850000Y-47745000D02*
X27850000Y-48450000D01*
X27850000Y-54155000D02*
X27850000Y-53450000D01*
D12*
G04 #@! TO.C,C10*
X30490000Y-28692164D02*
X30490000Y-28907836D01*
X31210000Y-28692164D02*
X31210000Y-28907836D01*
G04 #@! TO.C,Y1*
X40925000Y-29325000D02*
X40925000Y-32625000D01*
X40925000Y-32625000D02*
X43725000Y-32625000D01*
G04 #@! TO.C,U1*
X41150000Y-15590000D02*
X44050000Y-15590000D01*
X41150000Y-17860000D02*
X44150000Y-17860000D01*
X44550000Y-15675000D02*
X44270000Y-15675000D01*
X44270000Y-15395000D01*
X44550000Y-15675000D01*
G36*
X44550000Y-15675000D02*
G01*
X44270000Y-15675000D01*
X44270000Y-15395000D01*
X44550000Y-15675000D01*
G37*
X41150000Y-47390000D02*
X44050000Y-47390000D01*
X41150000Y-49660000D02*
X44150000Y-49660000D01*
X44550000Y-47475000D02*
X44270000Y-47475000D01*
X44270000Y-47195000D01*
X44550000Y-47475000D01*
G36*
X44550000Y-47475000D02*
G01*
X44270000Y-47475000D01*
X44270000Y-47195000D01*
X44550000Y-47475000D01*
G37*
G04 #@! TO.C,Y1*
X40925000Y-50525000D02*
X40925000Y-53825000D01*
X40925000Y-53825000D02*
X43725000Y-53825000D01*
X40925000Y-18725000D02*
X40925000Y-22025000D01*
X40925000Y-22025000D02*
X43725000Y-22025000D01*
D10*
G04 #@! TO.C,U5*
X29670000Y-14980000D02*
X31250000Y-14980000D01*
X29670000Y-16680000D02*
X29670000Y-14980000D01*
X29670000Y-16680000D02*
X31570000Y-16680000D01*
X31570000Y-16680000D02*
X31570000Y-15300000D01*
D11*
X31582500Y-15030000D02*
G75*
G02*
X31457500Y-15030000I-62500J0D01*
G01*
X31457500Y-15030000D02*
G75*
G02*
X31582500Y-15030000I62500J0D01*
G01*
D12*
G04 #@! TO.C,C10*
X30490000Y-18092164D02*
X30490000Y-18307836D01*
X31210000Y-18092164D02*
X31210000Y-18307836D01*
G04 #@! TD*
M02*
