M48
; DRILL file {KiCad 8.0.8} date 2025-01-25T12:51:19-0500
; FORMAT={-:-/ absolute / metric / decimal}
; #@! TF.CreationDate,2025-01-25T12:51:19-05:00
; #@! TF.GenerationSoftware,Kicad,Pcbnew,8.0.8
; #@! TF.FileFunction,MixedPlating,1,4
FMAT,2
METRIC
; #@! TA.AperFunction,Plated,PTH,ViaDrill
T1C0.200
; #@! TA.AperFunction,Plated,PTH,ViaDrill
T2C0.300
; #@! TA.AperFunction,NonPlated,NPTH,ComponentDrill
T3C0.300
; #@! TA.AperFunction,NonPlated,NPTH,ComponentDrill
T4C1.152
%
G90
G05
T1
X32.84Y-15.25
X32.84Y-25.85
X32.84Y-36.45
X32.84Y-47.05
X33.49Y-15.25
X33.49Y-25.85
X33.49Y-36.45
X33.49Y-47.05
T2
X25.675Y-15.62
X25.675Y-16.19
X25.675Y-26.22
X25.675Y-26.79
X25.675Y-36.82
X25.675Y-37.39
X25.675Y-47.42
X25.675Y-47.99
X25.69Y-22.775
X25.69Y-33.375
X25.69Y-43.975
X25.69Y-54.575
X25.76Y-21.57
X25.76Y-32.17
X25.76Y-42.77
X25.76Y-53.37
X26.388Y-18.404
X26.388Y-29.004
X26.388Y-39.604
X26.388Y-50.204
X26.485Y-19.695
X26.485Y-30.295
X26.485Y-40.895
X26.485Y-51.495
X26.523Y-16.768
X26.523Y-27.368
X26.523Y-37.968
X26.523Y-48.568
X26.619Y-17.949
X26.619Y-28.549
X26.619Y-39.149
X26.619Y-49.749
X26.72Y-20.63
X26.72Y-31.23
X26.72Y-41.83
X26.72Y-52.43
X26.73Y-21.191
X26.73Y-31.791
X26.73Y-42.391
X26.73Y-52.991
X26.878Y-22.254
X26.878Y-32.854
X26.878Y-43.454
X26.878Y-54.054
X26.898Y-18.41
X26.898Y-29.01
X26.898Y-39.61
X26.898Y-50.21
X26.95Y-22.925
X26.95Y-33.525
X26.95Y-44.125
X26.95Y-54.725
X27.29Y-17.581
X27.29Y-28.181
X27.29Y-38.781
X27.29Y-49.381
X27.297Y-17.069
X27.297Y-27.669
X27.297Y-38.269
X27.297Y-48.869
X27.302Y-16.559
X27.302Y-27.159
X27.302Y-37.759
X27.302Y-48.359
X27.38Y-22.25
X27.38Y-32.85
X27.38Y-43.45
X27.38Y-54.05
X27.43Y-15.445
X27.43Y-26.045
X27.43Y-36.645
X27.43Y-47.245
X27.951Y-22.911
X27.951Y-33.511
X27.951Y-44.111
X27.951Y-54.711
X28.04Y-15.345
X28.04Y-25.945
X28.04Y-36.545
X28.04Y-47.145
X28.179Y-17.17
X28.179Y-27.77
X28.179Y-38.37
X28.179Y-48.97
X28.421Y-17.655
X28.421Y-28.255
X28.421Y-38.855
X28.421Y-49.455
X28.57Y-18.211
X28.57Y-28.811
X28.57Y-39.411
X28.57Y-50.011
X28.62Y-20.005
X28.62Y-30.605
X28.62Y-41.205
X28.62Y-51.805
X28.87Y-15.28
X28.87Y-25.88
X28.87Y-36.48
X28.87Y-47.08
X28.882Y-22.085
X28.882Y-32.685
X28.882Y-43.285
X28.882Y-53.885
X28.97Y-22.95
X28.97Y-33.55
X28.97Y-44.15
X28.97Y-54.75
X29.07Y-21.465
X29.07Y-32.065
X29.07Y-42.665
X29.07Y-53.265
X29.75Y-16.52
X29.75Y-27.12
X29.75Y-37.72
X29.75Y-48.32
X29.903Y-21.928
X29.903Y-32.528
X29.903Y-43.128
X29.903Y-53.728
X29.91Y-20.845
X29.91Y-31.445
X29.91Y-42.045
X29.91Y-52.645
X29.99Y-22.95
X29.99Y-33.55
X29.99Y-44.15
X29.99Y-54.75
X30.198Y-16.276
X30.198Y-26.876
X30.198Y-37.476
X30.198Y-48.076
X30.59Y-19.856
X30.59Y-30.456
X30.59Y-41.056
X30.59Y-51.656
X30.68Y-16.45
X30.68Y-27.05
X30.68Y-37.65
X30.68Y-48.25
X30.696Y-22.049
X30.696Y-32.649
X30.696Y-43.249
X30.696Y-53.849
X30.73Y-20.85
X30.73Y-31.45
X30.73Y-42.05
X30.73Y-52.65
X30.74Y-15.275
X30.74Y-25.875
X30.74Y-36.475
X30.74Y-47.075
X31.2Y-16.28
X31.2Y-26.88
X31.2Y-37.48
X31.2Y-48.08
X31.21Y-22.535
X31.21Y-33.135
X31.21Y-43.735
X31.21Y-54.335
X31.27Y-15.77
X31.27Y-26.37
X31.27Y-36.97
X31.27Y-47.57
X31.544Y-18.278
X31.544Y-28.878
X31.544Y-39.478
X31.544Y-50.078
X32.09Y-17.475
X32.09Y-28.075
X32.09Y-38.675
X32.09Y-49.275
X32.19Y-18.32
X32.19Y-28.92
X32.19Y-39.52
X32.19Y-50.12
X32.399Y-22.56
X32.399Y-33.16
X32.399Y-43.76
X32.399Y-54.36
X32.418Y-17.085
X32.418Y-27.685
X32.418Y-38.285
X32.418Y-48.885
X32.42Y-17.864
X32.42Y-28.464
X32.42Y-39.064
X32.42Y-49.664
X32.81Y-22.285
X32.81Y-32.885
X32.81Y-43.485
X32.81Y-54.085
X33.053Y-16.21
X33.053Y-26.81
X33.053Y-37.41
X33.053Y-48.01
X33.103Y-22.72
X33.103Y-33.32
X33.103Y-43.92
X33.103Y-54.52
X33.37Y-22.285
X33.37Y-32.885
X33.37Y-43.485
X33.37Y-54.085
X33.413Y-17.476
X33.413Y-28.076
X33.413Y-38.676
X33.413Y-49.276
X33.719Y-20.295
X33.719Y-30.895
X33.719Y-41.495
X33.719Y-52.095
X33.923Y-17.476
X33.923Y-28.076
X33.923Y-38.676
X33.923Y-49.276
X34.1Y-22.044
X34.1Y-32.644
X34.1Y-43.244
X34.1Y-53.844
X34.228Y-16.67
X34.228Y-27.27
X34.228Y-37.87
X34.228Y-48.47
X34.465Y-20.779
X34.465Y-31.379
X34.465Y-41.979
X34.465Y-52.579
X34.472Y-21.288
X34.472Y-31.888
X34.472Y-42.488
X34.472Y-53.088
X34.577Y-22.232
X34.577Y-32.832
X34.577Y-43.432
X34.577Y-54.032
X34.695Y-16.875
X34.695Y-27.475
X34.695Y-38.075
X34.695Y-48.675
X35.17Y-16.69
X35.17Y-27.29
X35.17Y-37.89
X35.17Y-48.49
X35.17Y-21.997
X35.17Y-32.597
X35.17Y-43.197
X35.17Y-53.797
X35.564Y-21.666
X35.564Y-32.266
X35.564Y-42.866
X35.564Y-53.466
X35.635Y-16.9
X35.635Y-27.5
X35.635Y-38.1
X35.635Y-48.7
X35.69Y-17.87
X35.69Y-28.47
X35.69Y-39.07
X35.69Y-49.67
X35.935Y-22.016
X35.935Y-32.616
X35.935Y-43.216
X35.935Y-53.816
X36.04Y-16.59
X36.04Y-27.19
X36.04Y-37.79
X36.04Y-48.39
X36.403Y-21.702
X36.403Y-32.302
X36.403Y-42.902
X36.403Y-53.502
X36.445Y-16.9
X36.445Y-27.5
X36.445Y-38.1
X36.445Y-48.7
X36.86Y-16.603
X36.86Y-27.203
X36.86Y-37.803
X36.86Y-48.403
X36.9Y-20.68
X36.9Y-31.28
X36.9Y-41.88
X36.9Y-52.48
X37.303Y-16.9
X37.303Y-27.5
X37.303Y-38.1
X37.303Y-48.7
X37.4Y-21.7
X37.4Y-32.3
X37.4Y-42.9
X37.4Y-53.5
X37.6Y-21.204
X37.6Y-31.804
X37.6Y-42.404
X37.6Y-53.004
X37.704Y-16.585
X37.704Y-27.185
X37.704Y-37.785
X37.704Y-48.385
X38.11Y-21.2
X38.11Y-31.8
X38.11Y-42.4
X38.11Y-53.0
X38.29Y-20.18
X38.29Y-30.78
X38.29Y-41.38
X38.29Y-51.98
X38.3Y-17.46
X38.3Y-28.06
X38.3Y-38.66
X38.3Y-49.26
X38.617Y-20.622
X38.617Y-31.222
X38.617Y-41.822
X38.617Y-52.422
X39.369Y-15.275
X39.369Y-25.875
X39.369Y-36.475
X39.369Y-47.075
X39.41Y-15.92
X39.41Y-26.52
X39.41Y-37.12
X39.41Y-47.72
X40.02Y-15.97
X40.02Y-26.57
X40.02Y-37.17
X40.02Y-47.77
X40.439Y-22.228
X40.439Y-32.828
X40.439Y-43.428
X40.439Y-54.028
X41.03Y-22.21
X41.03Y-32.81
X41.03Y-43.41
X41.03Y-54.01
X41.45Y-17.958
X41.45Y-28.558
X41.45Y-39.158
X41.45Y-49.758
X41.535Y-19.57
X41.535Y-30.17
X41.535Y-40.77
X41.535Y-51.37
X41.63Y-22.21
X41.63Y-32.81
X41.63Y-43.41
X41.63Y-54.01
X41.844Y-17.564
X41.844Y-28.164
X41.844Y-38.764
X41.844Y-49.364
X42.293Y-18.239
X42.293Y-28.839
X42.293Y-39.439
X42.293Y-50.039
X42.42Y-22.195
X42.42Y-32.795
X42.42Y-43.395
X42.42Y-53.995
X42.422Y-19.209
X42.422Y-29.809
X42.422Y-40.409
X42.422Y-51.009
X42.73Y-17.885
X42.73Y-28.485
X42.73Y-39.085
X42.73Y-49.685
X42.84Y-19.92
X42.84Y-30.52
X42.84Y-41.12
X42.84Y-51.72
X42.98Y-22.195
X42.98Y-32.795
X42.98Y-43.395
X42.98Y-53.995
X43.29Y-17.89
X43.29Y-28.49
X43.29Y-39.09
X43.29Y-49.69
X43.34Y-18.995
X43.34Y-29.595
X43.34Y-40.195
X43.34Y-50.795
X43.967Y-22.618
X43.967Y-33.218
X43.967Y-43.818
X43.967Y-54.418
X44.16Y-17.9
X44.16Y-28.5
X44.16Y-39.1
X44.16Y-49.7
X44.325Y-16.14
X44.325Y-16.78
X44.325Y-26.74
X44.325Y-27.38
X44.325Y-37.34
X44.325Y-37.98
X44.325Y-47.94
X44.325Y-48.58
T3
X0.0Y-14.8
X0.0Y-55.2
X0.6Y-14.8
X0.6Y-55.2
X1.2Y-14.8
X1.2Y-55.2
X1.8Y-14.8
X1.8Y-55.2
X2.4Y-14.8
X2.4Y-55.2
X3.0Y-14.8
X3.0Y-55.2
X3.6Y-14.8
X3.6Y-55.2
X4.2Y-14.8
X4.2Y-55.2
X4.8Y-14.8
X4.8Y-55.2
X5.4Y-14.8
X5.4Y-55.2
X6.0Y-14.8
X6.0Y-55.2
X6.6Y-14.8
X6.6Y-55.2
X7.2Y-14.8
X7.2Y-55.2
X7.8Y-14.8
X7.8Y-55.2
X8.4Y-14.8
X8.4Y-55.2
X9.0Y-14.8
X9.0Y-55.2
X9.6Y-14.8
X9.6Y-55.2
X10.2Y-14.8
X10.2Y-55.2
X10.8Y-14.8
X10.8Y-55.2
X11.4Y-14.8
X11.4Y-55.2
X12.0Y-14.8
X12.0Y-55.2
X12.6Y-14.8
X12.6Y-55.2
X13.2Y-14.8
X13.2Y-55.2
X13.8Y-14.8
X13.8Y-55.2
X14.4Y-14.8
X14.4Y-55.2
X15.0Y-14.8
X15.0Y-55.2
X15.6Y-14.8
X15.6Y-55.2
X16.2Y-14.8
X16.2Y-55.2
X16.8Y-14.8
X16.8Y-55.2
X17.4Y-14.8
X17.4Y-55.2
X18.0Y-14.8
X18.0Y-55.2
X18.6Y-14.8
X18.6Y-55.2
X19.2Y-14.8
X19.2Y-55.2
X19.8Y-14.8
X19.8Y-55.2
X20.4Y-14.8
X20.4Y-55.2
X21.0Y-14.8
X21.0Y-55.2
X21.6Y-14.8
X21.6Y-55.2
X22.2Y-14.8
X22.2Y-55.2
X25.17Y-18.1
X25.17Y-18.767
X25.17Y-19.433
X25.17Y-20.1
X25.17Y-28.7
X25.17Y-29.367
X25.17Y-30.033
X25.17Y-30.7
X25.17Y-39.3
X25.17Y-39.967
X25.17Y-40.633
X25.17Y-41.3
X25.17Y-49.9
X25.17Y-50.567
X25.17Y-51.233
X25.17Y-51.9
X25.2Y0.0
X25.2Y-0.621
X25.2Y-1.242
X25.2Y-1.863
X25.2Y-2.484
X25.2Y-3.105
X25.2Y-3.726
X25.2Y-4.347
X25.2Y-4.968
X25.2Y-5.589
X25.2Y-6.211
X25.2Y-6.832
X25.2Y-7.453
X25.2Y-8.074
X25.2Y-8.695
X25.2Y-9.316
X25.2Y-9.937
X25.2Y-10.558
X25.2Y-11.179
X25.2Y-11.8
X25.2Y-58.2
X25.2Y-58.821
X25.2Y-59.442
X25.2Y-60.063
X25.2Y-60.684
X25.2Y-61.305
X25.2Y-61.926
X25.2Y-62.547
X25.2Y-63.168
X25.2Y-63.789
X25.2Y-64.411
X25.2Y-65.032
X25.2Y-65.653
X25.2Y-66.274
X25.2Y-66.895
X25.2Y-67.516
X25.2Y-68.137
X25.2Y-68.758
X25.2Y-69.379
X25.2Y-70.0
X34.0Y-14.77
X34.0Y-23.43
X34.0Y-25.37
X34.0Y-34.03
X34.0Y-35.97
X34.0Y-44.63
X34.0Y-46.57
X34.0Y-55.23
X34.667Y-14.77
X34.667Y-23.43
X34.667Y-25.37
X34.667Y-34.03
X34.667Y-35.97
X34.667Y-44.63
X34.667Y-46.57
X34.667Y-55.23
X35.333Y-14.77
X35.333Y-23.43
X35.333Y-25.37
X35.333Y-34.03
X35.333Y-35.97
X35.333Y-44.63
X35.333Y-46.57
X35.333Y-55.23
X36.0Y-14.77
X36.0Y-23.43
X36.0Y-25.37
X36.0Y-34.03
X36.0Y-35.97
X36.0Y-44.63
X36.0Y-46.57
X36.0Y-55.23
X44.8Y0.0
X44.8Y-0.621
X44.8Y-1.242
X44.8Y-1.863
X44.8Y-2.484
X44.8Y-3.105
X44.8Y-3.726
X44.8Y-4.347
X44.8Y-4.968
X44.8Y-5.589
X44.8Y-6.211
X44.8Y-6.832
X44.8Y-7.453
X44.8Y-8.074
X44.8Y-8.695
X44.8Y-9.316
X44.8Y-9.937
X44.8Y-10.558
X44.8Y-11.179
X44.8Y-11.8
X44.8Y-58.2
X44.8Y-58.821
X44.8Y-59.442
X44.8Y-60.063
X44.8Y-60.684
X44.8Y-61.305
X44.8Y-61.926
X44.8Y-62.547
X44.8Y-63.168
X44.8Y-63.789
X44.8Y-64.411
X44.8Y-65.032
X44.8Y-65.653
X44.8Y-66.274
X44.8Y-66.895
X44.8Y-67.516
X44.8Y-68.137
X44.8Y-68.758
X44.8Y-69.379
X44.8Y-70.0
X44.83Y-18.1
X44.83Y-18.767
X44.83Y-19.433
X44.83Y-20.1
X44.83Y-28.7
X44.83Y-29.367
X44.83Y-30.033
X44.83Y-30.7
X44.83Y-39.3
X44.83Y-39.967
X44.83Y-40.633
X44.83Y-41.3
X44.83Y-49.9
X44.83Y-50.567
X44.83Y-51.233
X44.83Y-51.9
X47.8Y-14.8
X47.8Y-55.2
X48.4Y-14.8
X48.4Y-55.2
X49.0Y-14.8
X49.0Y-55.2
X49.6Y-14.8
X49.6Y-55.2
X50.2Y-14.8
X50.2Y-55.2
X50.8Y-14.8
X50.8Y-55.2
X51.4Y-14.8
X51.4Y-55.2
X52.0Y-14.8
X52.0Y-55.2
X52.6Y-14.8
X52.6Y-55.2
X53.2Y-14.8
X53.2Y-55.2
X53.8Y-14.8
X53.8Y-55.2
X54.4Y-14.8
X54.4Y-55.2
X55.0Y-14.8
X55.0Y-55.2
X55.6Y-14.8
X55.6Y-55.2
X56.2Y-14.8
X56.2Y-55.2
X56.8Y-14.8
X56.8Y-55.2
X57.4Y-14.8
X57.4Y-55.2
X58.0Y-14.8
X58.0Y-55.2
X58.6Y-14.8
X58.6Y-55.2
X59.2Y-14.8
X59.2Y-55.2
X59.8Y-14.8
X59.8Y-55.2
X60.4Y-14.8
X60.4Y-55.2
X61.0Y-14.8
X61.0Y-55.2
X61.6Y-14.8
X61.6Y-55.2
X62.2Y-14.8
X62.2Y-55.2
X62.8Y-14.8
X62.8Y-55.2
X63.4Y-14.8
X63.4Y-55.2
X64.0Y-14.8
X64.0Y-55.2
X64.6Y-14.8
X64.6Y-55.2
X65.2Y-14.8
X65.2Y-55.2
X65.8Y-14.8
X65.8Y-55.2
X66.4Y-14.8
X66.4Y-55.2
X67.0Y-14.8
X67.0Y-55.2
X67.6Y-14.8
X67.6Y-55.2
X68.2Y-14.8
X68.2Y-55.2
X68.8Y-14.8
X68.8Y-55.2
X69.4Y-14.8
X69.4Y-55.2
X70.0Y-14.8
X70.0Y-55.2
T4
X2.0Y-2.0
X2.0Y-68.0
X68.0Y-2.0
M30
