G04 #@! TF.GenerationSoftware,KiCad,Pcbnew,8.0.7*
G04 #@! TF.CreationDate,2025-01-10T19:59:24-05:00*
G04 #@! TF.ProjectId,panel,70616e65-6c2e-46b6-9963-61645f706362,rev?*
G04 #@! TF.SameCoordinates,Original*
G04 #@! TF.FileFunction,Paste,Bot*
G04 #@! TF.FilePolarity,Positive*
%FSLAX46Y46*%
G04 Gerber Fmt 4.6, Leading zero omitted, Abs format (unit mm)*
G04 Created by KiCad (PCBNEW 8.0.7) date 2025-01-10 19:59:24*
%MOMM*%
%LPD*%
G01*
G04 APERTURE LIST*
G04 Aperture macros list*
%AMRoundRect*
0 Rectangle with rounded corners*
0 $1 Rounding radius*
0 $2 $3 $4 $5 $6 $7 $8 $9 X,Y pos of 4 corners*
0 Add a 4 corners polygon primitive as box body*
4,1,4,$2,$3,$4,$5,$6,$7,$8,$9,$2,$3,0*
0 Add four circle primitives for the rounded corners*
1,1,$1+$1,$2,$3*
1,1,$1+$1,$4,$5*
1,1,$1+$1,$6,$7*
1,1,$1+$1,$8,$9*
0 Add four rect primitives between the rounded corners*
20,1,$1+$1,$2,$3,$4,$5,0*
20,1,$1+$1,$4,$5,$6,$7,0*
20,1,$1+$1,$6,$7,$8,$9,0*
20,1,$1+$1,$8,$9,$2,$3,0*%
G04 Aperture macros list end*
%ADD10C,0.250000*%
%ADD11R,0.400000X0.180000*%
%ADD12R,0.385000X0.400000*%
%ADD13RoundRect,0.079500X0.079500X0.100500X-0.079500X0.100500X-0.079500X-0.100500X0.079500X-0.100500X0*%
%ADD14RoundRect,0.140000X0.140000X0.170000X-0.140000X0.170000X-0.140000X-0.170000X0.140000X-0.170000X0*%
%ADD15R,0.250000X0.400000*%
%ADD16R,0.700000X0.400000*%
%ADD17R,0.400000X0.250000*%
%ADD18R,0.400000X0.700000*%
%ADD19R,1.000000X1.150000*%
%ADD20RoundRect,0.249999X-0.395001X0.395001X-0.395001X-0.395001X0.395001X-0.395001X0.395001X0.395001X0*%
%ADD21RoundRect,0.050000X-0.050000X0.387500X-0.050000X-0.387500X0.050000X-0.387500X0.050000X0.387500X0*%
%ADD22RoundRect,0.050000X-0.387500X0.050000X-0.387500X-0.050000X0.387500X-0.050000X0.387500X0.050000X0*%
%ADD23RoundRect,0.140000X0.170000X-0.140000X0.170000X0.140000X-0.170000X0.140000X-0.170000X-0.140000X0*%
%ADD24RoundRect,0.040000X0.040000X0.605000X-0.040000X0.605000X-0.040000X-0.605000X0.040000X-0.605000X0*%
%ADD25RoundRect,0.062500X0.387500X0.062500X-0.387500X0.062500X-0.387500X-0.062500X0.387500X-0.062500X0*%
%ADD26RoundRect,0.079500X-0.100500X0.079500X-0.100500X-0.079500X0.100500X-0.079500X0.100500X0.079500X0*%
%ADD27RoundRect,0.079500X-0.079500X-0.100500X0.079500X-0.100500X0.079500X0.100500X-0.079500X0.100500X0*%
%ADD28RoundRect,0.079500X0.100500X-0.079500X0.100500X0.079500X-0.100500X0.079500X-0.100500X-0.079500X0*%
G04 APERTURE END LIST*
D10*
G04 #@! TO.C,U5*
X31020000Y-36630000D03*
X30620000Y-36630000D03*
X30220000Y-36630000D03*
X31020000Y-37030000D03*
X30620000Y-37030000D03*
X30220000Y-37030000D03*
X31020000Y-37430000D03*
X30620000Y-37430000D03*
X30220000Y-37430000D03*
G04 #@! TD*
D11*
G04 #@! TO.C,J4*
X27800000Y-38425000D03*
X27800000Y-38775000D03*
X27800000Y-39125000D03*
X27800000Y-39475000D03*
X27800000Y-39825000D03*
X27800000Y-40175000D03*
X27800000Y-40525000D03*
X27800000Y-40875000D03*
X27800000Y-41225000D03*
X27800000Y-41575000D03*
X27800000Y-41925000D03*
X27800000Y-42275000D03*
X25900000Y-42275000D03*
X25900000Y-41925000D03*
X25900000Y-41575000D03*
X25900000Y-41225000D03*
X25900000Y-40875000D03*
X25900000Y-40525000D03*
X25900000Y-40175000D03*
X25900000Y-39825000D03*
X25900000Y-39475000D03*
X25900000Y-39125000D03*
X25900000Y-38775000D03*
X25900000Y-38425000D03*
D12*
X27332000Y-37155000D03*
X26368000Y-37145000D03*
X27332000Y-43555000D03*
X26368000Y-43555000D03*
G04 #@! TD*
D13*
G04 #@! TO.C,R10*
X31885000Y-43025000D03*
X31195000Y-43025000D03*
G04 #@! TD*
G04 #@! TO.C,R10*
X31885000Y-32425000D03*
X31195000Y-32425000D03*
G04 #@! TD*
D14*
G04 #@! TO.C,C14*
X30417300Y-31727208D03*
X29457300Y-31727208D03*
G04 #@! TD*
D15*
G04 #@! TO.C,Q6*
X29816565Y-44147394D03*
X29366565Y-44147394D03*
D16*
X29591565Y-43447394D03*
G04 #@! TD*
D17*
G04 #@! TO.C,Q2*
X31800000Y-43755000D03*
X31800000Y-44205000D03*
D18*
X31100000Y-43980000D03*
G04 #@! TD*
D19*
G04 #@! TO.C,Y1*
X41625000Y-42450000D03*
X41625000Y-40700000D03*
X43025000Y-40700000D03*
X43025000Y-42450000D03*
G04 #@! TD*
D20*
G04 #@! TO.C,U3*
X37175000Y-39675000D03*
X35575000Y-39675000D03*
X37175000Y-41275000D03*
X35575000Y-41275000D03*
D21*
X33775000Y-37037500D03*
X34175000Y-37037500D03*
X34575000Y-37037500D03*
X34975000Y-37037500D03*
X35375000Y-37037500D03*
X35775000Y-37037500D03*
X36175000Y-37037500D03*
X36575000Y-37037500D03*
X36975000Y-37037500D03*
X37375000Y-37037500D03*
X37775000Y-37037500D03*
X38175000Y-37037500D03*
X38575000Y-37037500D03*
X38975000Y-37037500D03*
D22*
X39812500Y-37875000D03*
X39812500Y-38275000D03*
X39812500Y-38675000D03*
X39812500Y-39075000D03*
X39812500Y-39475000D03*
X39812500Y-39875000D03*
X39812500Y-40275000D03*
X39812500Y-40675000D03*
X39812500Y-41075000D03*
X39812500Y-41475000D03*
X39812500Y-41875000D03*
X39812500Y-42275000D03*
X39812500Y-42675000D03*
X39812500Y-43075000D03*
D21*
X38975000Y-43912500D03*
X38575000Y-43912500D03*
X38175000Y-43912500D03*
X37775000Y-43912500D03*
X37375000Y-43912500D03*
X36975000Y-43912500D03*
X36575000Y-43912500D03*
X36175000Y-43912500D03*
X35775000Y-43912500D03*
X35375000Y-43912500D03*
X34975000Y-43912500D03*
X34575000Y-43912500D03*
X34175000Y-43912500D03*
X33775000Y-43912500D03*
D22*
X32937500Y-43075000D03*
X32937500Y-42675000D03*
X32937500Y-42275000D03*
X32937500Y-41875000D03*
X32937500Y-41475000D03*
X32937500Y-41075000D03*
X32937500Y-40675000D03*
X32937500Y-40275000D03*
X32937500Y-39875000D03*
X32937500Y-39475000D03*
X32937500Y-39075000D03*
X32937500Y-38675000D03*
X32937500Y-38275000D03*
X32937500Y-37875000D03*
G04 #@! TD*
D23*
G04 #@! TO.C,C10*
X30850000Y-50480000D03*
X30850000Y-49520000D03*
G04 #@! TD*
D24*
G04 #@! TO.C,U1*
X42650000Y-37925000D03*
D25*
X44075000Y-37175000D03*
X44075000Y-37675000D03*
X44075000Y-38175000D03*
X44075000Y-38675000D03*
X41225000Y-38675000D03*
X41225000Y-38175000D03*
X41225000Y-37675000D03*
X41225000Y-37175000D03*
G04 #@! TD*
D24*
G04 #@! TO.C,U1*
X42650000Y-27325000D03*
D25*
X44075000Y-26575000D03*
X44075000Y-27075000D03*
X44075000Y-27575000D03*
X44075000Y-28075000D03*
X41225000Y-28075000D03*
X41225000Y-27575000D03*
X41225000Y-27075000D03*
X41225000Y-26575000D03*
G04 #@! TD*
D20*
G04 #@! TO.C,U3*
X37175000Y-29075000D03*
X35575000Y-29075000D03*
X37175000Y-30675000D03*
X35575000Y-30675000D03*
D21*
X33775000Y-26437500D03*
X34175000Y-26437500D03*
X34575000Y-26437500D03*
X34975000Y-26437500D03*
X35375000Y-26437500D03*
X35775000Y-26437500D03*
X36175000Y-26437500D03*
X36575000Y-26437500D03*
X36975000Y-26437500D03*
X37375000Y-26437500D03*
X37775000Y-26437500D03*
X38175000Y-26437500D03*
X38575000Y-26437500D03*
X38975000Y-26437500D03*
D22*
X39812500Y-27275000D03*
X39812500Y-27675000D03*
X39812500Y-28075000D03*
X39812500Y-28475000D03*
X39812500Y-28875000D03*
X39812500Y-29275000D03*
X39812500Y-29675000D03*
X39812500Y-30075000D03*
X39812500Y-30475000D03*
X39812500Y-30875000D03*
X39812500Y-31275000D03*
X39812500Y-31675000D03*
X39812500Y-32075000D03*
X39812500Y-32475000D03*
D21*
X38975000Y-33312500D03*
X38575000Y-33312500D03*
X38175000Y-33312500D03*
X37775000Y-33312500D03*
X37375000Y-33312500D03*
X36975000Y-33312500D03*
X36575000Y-33312500D03*
X36175000Y-33312500D03*
X35775000Y-33312500D03*
X35375000Y-33312500D03*
X34975000Y-33312500D03*
X34575000Y-33312500D03*
X34175000Y-33312500D03*
X33775000Y-33312500D03*
D22*
X32937500Y-32475000D03*
X32937500Y-32075000D03*
X32937500Y-31675000D03*
X32937500Y-31275000D03*
X32937500Y-30875000D03*
X32937500Y-30475000D03*
X32937500Y-30075000D03*
X32937500Y-29675000D03*
X32937500Y-29275000D03*
X32937500Y-28875000D03*
X32937500Y-28475000D03*
X32937500Y-28075000D03*
X32937500Y-27675000D03*
X32937500Y-27275000D03*
G04 #@! TD*
D26*
G04 #@! TO.C,C1*
X44175000Y-29630000D03*
X44175000Y-30320000D03*
G04 #@! TD*
D23*
G04 #@! TO.C,C8*
X31775000Y-50480000D03*
X31775000Y-49520000D03*
G04 #@! TD*
D14*
G04 #@! TO.C,C14*
X30417300Y-52927208D03*
X29457300Y-52927208D03*
G04 #@! TD*
D27*
G04 #@! TO.C,R6*
X42255000Y-54250000D03*
X42945000Y-54250000D03*
G04 #@! TD*
G04 #@! TO.C,R6*
X42255000Y-43650000D03*
X42945000Y-43650000D03*
G04 #@! TD*
D13*
G04 #@! TO.C,R4*
X44345000Y-39525000D03*
X43655000Y-39525000D03*
G04 #@! TD*
D26*
G04 #@! TO.C,C1*
X44175000Y-40230000D03*
X44175000Y-40920000D03*
G04 #@! TD*
D17*
G04 #@! TO.C,Q2*
X31800000Y-33155000D03*
X31800000Y-33605000D03*
D18*
X31100000Y-33380000D03*
G04 #@! TD*
D20*
G04 #@! TO.C,U3*
X37175000Y-18475000D03*
X35575000Y-18475000D03*
X37175000Y-20075000D03*
X35575000Y-20075000D03*
D21*
X33775000Y-15837500D03*
X34175000Y-15837500D03*
X34575000Y-15837500D03*
X34975000Y-15837500D03*
X35375000Y-15837500D03*
X35775000Y-15837500D03*
X36175000Y-15837500D03*
X36575000Y-15837500D03*
X36975000Y-15837500D03*
X37375000Y-15837500D03*
X37775000Y-15837500D03*
X38175000Y-15837500D03*
X38575000Y-15837500D03*
X38975000Y-15837500D03*
D22*
X39812500Y-16675000D03*
X39812500Y-17075000D03*
X39812500Y-17475000D03*
X39812500Y-17875000D03*
X39812500Y-18275000D03*
X39812500Y-18675000D03*
X39812500Y-19075000D03*
X39812500Y-19475000D03*
X39812500Y-19875000D03*
X39812500Y-20275000D03*
X39812500Y-20675000D03*
X39812500Y-21075000D03*
X39812500Y-21475000D03*
X39812500Y-21875000D03*
D21*
X38975000Y-22712500D03*
X38575000Y-22712500D03*
X38175000Y-22712500D03*
X37775000Y-22712500D03*
X37375000Y-22712500D03*
X36975000Y-22712500D03*
X36575000Y-22712500D03*
X36175000Y-22712500D03*
X35775000Y-22712500D03*
X35375000Y-22712500D03*
X34975000Y-22712500D03*
X34575000Y-22712500D03*
X34175000Y-22712500D03*
X33775000Y-22712500D03*
D22*
X32937500Y-21875000D03*
X32937500Y-21475000D03*
X32937500Y-21075000D03*
X32937500Y-20675000D03*
X32937500Y-20275000D03*
X32937500Y-19875000D03*
X32937500Y-19475000D03*
X32937500Y-19075000D03*
X32937500Y-18675000D03*
X32937500Y-18275000D03*
X32937500Y-17875000D03*
X32937500Y-17475000D03*
X32937500Y-17075000D03*
X32937500Y-16675000D03*
G04 #@! TD*
D13*
G04 #@! TO.C,R4*
X44345000Y-50125000D03*
X43655000Y-50125000D03*
G04 #@! TD*
D23*
G04 #@! TO.C,C10*
X30850000Y-39880000D03*
X30850000Y-38920000D03*
G04 #@! TD*
D28*
G04 #@! TO.C,C12*
X30025000Y-39520000D03*
X30025000Y-38830000D03*
G04 #@! TD*
D23*
G04 #@! TO.C,C8*
X31775000Y-39880000D03*
X31775000Y-38920000D03*
G04 #@! TD*
D27*
G04 #@! TO.C,R6*
X42255000Y-33050000D03*
X42945000Y-33050000D03*
G04 #@! TD*
G04 #@! TO.C,C3*
X43655000Y-43650000D03*
X44345000Y-43650000D03*
G04 #@! TD*
D13*
G04 #@! TO.C,R4*
X44345000Y-18325000D03*
X43655000Y-18325000D03*
G04 #@! TD*
D28*
G04 #@! TO.C,C12*
X30025000Y-28920000D03*
X30025000Y-28230000D03*
G04 #@! TD*
D14*
G04 #@! TO.C,C14*
X30417300Y-42327208D03*
X29457300Y-42327208D03*
G04 #@! TD*
D15*
G04 #@! TO.C,Q6*
X29816565Y-54747394D03*
X29366565Y-54747394D03*
D16*
X29591565Y-54047394D03*
G04 #@! TD*
D15*
G04 #@! TO.C,Q6*
X29816565Y-33547394D03*
X29366565Y-33547394D03*
D16*
X29591565Y-32847394D03*
G04 #@! TD*
D13*
G04 #@! TO.C,C11*
X31891526Y-52928507D03*
X31201526Y-52928507D03*
G04 #@! TD*
G04 #@! TO.C,R5*
X41655000Y-28925000D03*
X40965000Y-28925000D03*
G04 #@! TD*
D23*
G04 #@! TO.C,C8*
X31775000Y-29280000D03*
X31775000Y-28320000D03*
G04 #@! TD*
D27*
G04 #@! TO.C,C3*
X43655000Y-22450000D03*
X44345000Y-22450000D03*
G04 #@! TD*
D17*
G04 #@! TO.C,Q2*
X31800000Y-22555000D03*
X31800000Y-23005000D03*
D18*
X31100000Y-22780000D03*
G04 #@! TD*
D17*
G04 #@! TO.C,Q2*
X31800000Y-54355000D03*
X31800000Y-54805000D03*
D18*
X31100000Y-54580000D03*
G04 #@! TD*
D14*
G04 #@! TO.C,C14*
X30417300Y-21127208D03*
X29457300Y-21127208D03*
G04 #@! TD*
D27*
G04 #@! TO.C,C3*
X43655000Y-54250000D03*
X44345000Y-54250000D03*
G04 #@! TD*
D10*
G04 #@! TO.C,U5*
X31020000Y-47230000D03*
X30620000Y-47230000D03*
X30220000Y-47230000D03*
X31020000Y-47630000D03*
X30620000Y-47630000D03*
X30220000Y-47630000D03*
X31020000Y-48030000D03*
X30620000Y-48030000D03*
X30220000Y-48030000D03*
G04 #@! TD*
G04 #@! TO.C,U5*
X31020000Y-26030000D03*
X30620000Y-26030000D03*
X30220000Y-26030000D03*
X31020000Y-26430000D03*
X30620000Y-26430000D03*
X30220000Y-26430000D03*
X31020000Y-26830000D03*
X30620000Y-26830000D03*
X30220000Y-26830000D03*
G04 #@! TD*
D20*
G04 #@! TO.C,U3*
X37175000Y-50275000D03*
X35575000Y-50275000D03*
X37175000Y-51875000D03*
X35575000Y-51875000D03*
D21*
X33775000Y-47637500D03*
X34175000Y-47637500D03*
X34575000Y-47637500D03*
X34975000Y-47637500D03*
X35375000Y-47637500D03*
X35775000Y-47637500D03*
X36175000Y-47637500D03*
X36575000Y-47637500D03*
X36975000Y-47637500D03*
X37375000Y-47637500D03*
X37775000Y-47637500D03*
X38175000Y-47637500D03*
X38575000Y-47637500D03*
X38975000Y-47637500D03*
D22*
X39812500Y-48475000D03*
X39812500Y-48875000D03*
X39812500Y-49275000D03*
X39812500Y-49675000D03*
X39812500Y-50075000D03*
X39812500Y-50475000D03*
X39812500Y-50875000D03*
X39812500Y-51275000D03*
X39812500Y-51675000D03*
X39812500Y-52075000D03*
X39812500Y-52475000D03*
X39812500Y-52875000D03*
X39812500Y-53275000D03*
X39812500Y-53675000D03*
D21*
X38975000Y-54512500D03*
X38575000Y-54512500D03*
X38175000Y-54512500D03*
X37775000Y-54512500D03*
X37375000Y-54512500D03*
X36975000Y-54512500D03*
X36575000Y-54512500D03*
X36175000Y-54512500D03*
X35775000Y-54512500D03*
X35375000Y-54512500D03*
X34975000Y-54512500D03*
X34575000Y-54512500D03*
X34175000Y-54512500D03*
X33775000Y-54512500D03*
D22*
X32937500Y-53675000D03*
X32937500Y-53275000D03*
X32937500Y-52875000D03*
X32937500Y-52475000D03*
X32937500Y-52075000D03*
X32937500Y-51675000D03*
X32937500Y-51275000D03*
X32937500Y-50875000D03*
X32937500Y-50475000D03*
X32937500Y-50075000D03*
X32937500Y-49675000D03*
X32937500Y-49275000D03*
X32937500Y-48875000D03*
X32937500Y-48475000D03*
G04 #@! TD*
D13*
G04 #@! TO.C,R10*
X31885000Y-53625000D03*
X31195000Y-53625000D03*
G04 #@! TD*
G04 #@! TO.C,C11*
X31891526Y-21128507D03*
X31201526Y-21128507D03*
G04 #@! TD*
D15*
G04 #@! TO.C,Q6*
X29816565Y-22947394D03*
X29366565Y-22947394D03*
D16*
X29591565Y-22247394D03*
G04 #@! TD*
D13*
G04 #@! TO.C,R5*
X41655000Y-18325000D03*
X40965000Y-18325000D03*
G04 #@! TD*
D27*
G04 #@! TO.C,R6*
X42255000Y-22450000D03*
X42945000Y-22450000D03*
G04 #@! TD*
D23*
G04 #@! TO.C,C8*
X31775000Y-18680000D03*
X31775000Y-17720000D03*
G04 #@! TD*
D13*
G04 #@! TO.C,R10*
X31885000Y-21825000D03*
X31195000Y-21825000D03*
G04 #@! TD*
D26*
G04 #@! TO.C,C1*
X44175000Y-50830000D03*
X44175000Y-51520000D03*
G04 #@! TD*
D27*
G04 #@! TO.C,C3*
X43655000Y-33050000D03*
X44345000Y-33050000D03*
G04 #@! TD*
D11*
G04 #@! TO.C,J4*
X27800000Y-17225000D03*
X27800000Y-17575000D03*
X27800000Y-17925000D03*
X27800000Y-18275000D03*
X27800000Y-18625000D03*
X27800000Y-18975000D03*
X27800000Y-19325000D03*
X27800000Y-19675000D03*
X27800000Y-20025000D03*
X27800000Y-20375000D03*
X27800000Y-20725000D03*
X27800000Y-21075000D03*
X25900000Y-21075000D03*
X25900000Y-20725000D03*
X25900000Y-20375000D03*
X25900000Y-20025000D03*
X25900000Y-19675000D03*
X25900000Y-19325000D03*
X25900000Y-18975000D03*
X25900000Y-18625000D03*
X25900000Y-18275000D03*
X25900000Y-17925000D03*
X25900000Y-17575000D03*
X25900000Y-17225000D03*
D12*
X27332000Y-15955000D03*
X26368000Y-15945000D03*
X27332000Y-22355000D03*
X26368000Y-22355000D03*
G04 #@! TD*
D11*
G04 #@! TO.C,J4*
X27800000Y-27825000D03*
X27800000Y-28175000D03*
X27800000Y-28525000D03*
X27800000Y-28875000D03*
X27800000Y-29225000D03*
X27800000Y-29575000D03*
X27800000Y-29925000D03*
X27800000Y-30275000D03*
X27800000Y-30625000D03*
X27800000Y-30975000D03*
X27800000Y-31325000D03*
X27800000Y-31675000D03*
X25900000Y-31675000D03*
X25900000Y-31325000D03*
X25900000Y-30975000D03*
X25900000Y-30625000D03*
X25900000Y-30275000D03*
X25900000Y-29925000D03*
X25900000Y-29575000D03*
X25900000Y-29225000D03*
X25900000Y-28875000D03*
X25900000Y-28525000D03*
X25900000Y-28175000D03*
X25900000Y-27825000D03*
D12*
X27332000Y-26555000D03*
X26368000Y-26545000D03*
X27332000Y-32955000D03*
X26368000Y-32955000D03*
G04 #@! TD*
D13*
G04 #@! TO.C,R5*
X41655000Y-39525000D03*
X40965000Y-39525000D03*
G04 #@! TD*
D11*
G04 #@! TO.C,J4*
X27800000Y-49025000D03*
X27800000Y-49375000D03*
X27800000Y-49725000D03*
X27800000Y-50075000D03*
X27800000Y-50425000D03*
X27800000Y-50775000D03*
X27800000Y-51125000D03*
X27800000Y-51475000D03*
X27800000Y-51825000D03*
X27800000Y-52175000D03*
X27800000Y-52525000D03*
X27800000Y-52875000D03*
X25900000Y-52875000D03*
X25900000Y-52525000D03*
X25900000Y-52175000D03*
X25900000Y-51825000D03*
X25900000Y-51475000D03*
X25900000Y-51125000D03*
X25900000Y-50775000D03*
X25900000Y-50425000D03*
X25900000Y-50075000D03*
X25900000Y-49725000D03*
X25900000Y-49375000D03*
X25900000Y-49025000D03*
D12*
X27332000Y-47755000D03*
X26368000Y-47745000D03*
X27332000Y-54155000D03*
X26368000Y-54155000D03*
G04 #@! TD*
D23*
G04 #@! TO.C,C10*
X30850000Y-29280000D03*
X30850000Y-28320000D03*
G04 #@! TD*
D13*
G04 #@! TO.C,C11*
X31891526Y-31728507D03*
X31201526Y-31728507D03*
G04 #@! TD*
D19*
G04 #@! TO.C,Y1*
X41625000Y-31850000D03*
X41625000Y-30100000D03*
X43025000Y-30100000D03*
X43025000Y-31850000D03*
G04 #@! TD*
D24*
G04 #@! TO.C,U1*
X42650000Y-16725000D03*
D25*
X44075000Y-15975000D03*
X44075000Y-16475000D03*
X44075000Y-16975000D03*
X44075000Y-17475000D03*
X41225000Y-17475000D03*
X41225000Y-16975000D03*
X41225000Y-16475000D03*
X41225000Y-15975000D03*
G04 #@! TD*
D13*
G04 #@! TO.C,R5*
X41655000Y-50125000D03*
X40965000Y-50125000D03*
G04 #@! TD*
D24*
G04 #@! TO.C,U1*
X42650000Y-48525000D03*
D25*
X44075000Y-47775000D03*
X44075000Y-48275000D03*
X44075000Y-48775000D03*
X44075000Y-49275000D03*
X41225000Y-49275000D03*
X41225000Y-48775000D03*
X41225000Y-48275000D03*
X41225000Y-47775000D03*
G04 #@! TD*
D13*
G04 #@! TO.C,C11*
X31891526Y-42328507D03*
X31201526Y-42328507D03*
G04 #@! TD*
D26*
G04 #@! TO.C,C1*
X44175000Y-19030000D03*
X44175000Y-19720000D03*
G04 #@! TD*
D19*
G04 #@! TO.C,Y1*
X41625000Y-53050000D03*
X41625000Y-51300000D03*
X43025000Y-51300000D03*
X43025000Y-53050000D03*
G04 #@! TD*
G04 #@! TO.C,Y1*
X41625000Y-21250000D03*
X41625000Y-19500000D03*
X43025000Y-19500000D03*
X43025000Y-21250000D03*
G04 #@! TD*
D10*
G04 #@! TO.C,U5*
X31020000Y-15430000D03*
X30620000Y-15430000D03*
X30220000Y-15430000D03*
X31020000Y-15830000D03*
X30620000Y-15830000D03*
X30220000Y-15830000D03*
X31020000Y-16230000D03*
X30620000Y-16230000D03*
X30220000Y-16230000D03*
G04 #@! TD*
D28*
G04 #@! TO.C,C12*
X30025000Y-50120000D03*
X30025000Y-49430000D03*
G04 #@! TD*
D13*
G04 #@! TO.C,R4*
X44345000Y-28925000D03*
X43655000Y-28925000D03*
G04 #@! TD*
D28*
G04 #@! TO.C,C12*
X30025000Y-18320000D03*
X30025000Y-17630000D03*
G04 #@! TD*
D23*
G04 #@! TO.C,C10*
X30850000Y-18680000D03*
X30850000Y-17720000D03*
G04 #@! TD*
M02*
