G04 #@! TF.GenerationSoftware,KiCad,Pcbnew,8.0.7*
G04 #@! TF.CreationDate,2025-01-10T19:59:24-05:00*
G04 #@! TF.ProjectId,panel,70616e65-6c2e-46b6-9963-61645f706362,rev?*
G04 #@! TF.SameCoordinates,Original*
G04 #@! TF.FileFunction,Soldermask,Bot*
G04 #@! TF.FilePolarity,Negative*
%FSLAX46Y46*%
G04 Gerber Fmt 4.6, Leading zero omitted, Abs format (unit mm)*
G04 Created by KiCad (PCBNEW 8.0.7) date 2025-01-10 19:59:24*
%MOMM*%
%LPD*%
G01*
G04 APERTURE LIST*
G04 Aperture macros list*
%AMRoundRect*
0 Rectangle with rounded corners*
0 $1 Rounding radius*
0 $2 $3 $4 $5 $6 $7 $8 $9 X,Y pos of 4 corners*
0 Add a 4 corners polygon primitive as box body*
4,1,4,$2,$3,$4,$5,$6,$7,$8,$9,$2,$3,0*
0 Add four circle primitives for the rounded corners*
1,1,$1+$1,$2,$3*
1,1,$1+$1,$4,$5*
1,1,$1+$1,$6,$7*
1,1,$1+$1,$8,$9*
0 Add four rect primitives between the rounded corners*
20,1,$1+$1,$2,$3,$4,$5,0*
20,1,$1+$1,$4,$5,$6,$7,0*
20,1,$1+$1,$6,$7,$8,$9,0*
20,1,$1+$1,$8,$9,$2,$3,0*%
G04 Aperture macros list end*
%ADD10C,0.300000*%
%ADD11C,1.152000*%
%ADD12C,0.250000*%
%ADD13R,0.400000X0.180000*%
%ADD14R,0.385000X0.400000*%
%ADD15RoundRect,0.100000X0.130000X0.100000X-0.130000X0.100000X-0.130000X-0.100000X0.130000X-0.100000X0*%
%ADD16RoundRect,0.140000X0.140000X0.170000X-0.140000X0.170000X-0.140000X-0.170000X0.140000X-0.170000X0*%
%ADD17R,0.250000X0.400000*%
%ADD18R,0.700000X0.400000*%
%ADD19R,0.400000X0.250000*%
%ADD20R,0.400000X0.700000*%
%ADD21R,1.000000X1.150000*%
%ADD22RoundRect,0.050000X-0.050000X0.387500X-0.050000X-0.387500X0.050000X-0.387500X0.050000X0.387500X0*%
%ADD23RoundRect,0.050000X-0.387500X0.050000X-0.387500X-0.050000X0.387500X-0.050000X0.387500X0.050000X0*%
%ADD24R,3.200000X3.200000*%
%ADD25RoundRect,0.140000X0.170000X-0.140000X0.170000X0.140000X-0.170000X0.140000X-0.170000X-0.140000X0*%
%ADD26RoundRect,0.062500X0.387500X0.062500X-0.387500X0.062500X-0.387500X-0.062500X0.387500X-0.062500X0*%
%ADD27R,0.200000X1.600000*%
%ADD28C,2.000000*%
%ADD29RoundRect,0.100000X-0.100000X0.130000X-0.100000X-0.130000X0.100000X-0.130000X0.100000X0.130000X0*%
%ADD30RoundRect,0.100000X-0.130000X-0.100000X0.130000X-0.100000X0.130000X0.100000X-0.130000X0.100000X0*%
%ADD31RoundRect,0.100000X0.100000X-0.130000X0.100000X0.130000X-0.100000X0.130000X-0.100000X-0.130000X0*%
G04 APERTURE END LIST*
D10*
G04 #@! TO.C,KiKit_MB_23_27*
X63400000Y-14800000D03*
G04 #@! TD*
G04 #@! TO.C,KiKit_MB_24_6*
X50800000Y-55200000D03*
G04 #@! TD*
G04 #@! TO.C,KiKit_MB_23_23*
X61000000Y-14800000D03*
G04 #@! TD*
G04 #@! TO.C,KiKit_MB_23_3*
X49000000Y-14800000D03*
G04 #@! TD*
G04 #@! TO.C,KiKit_MB_16_4*
X34000000Y-55230000D03*
G04 #@! TD*
G04 #@! TO.C,KiKit_MB_19_9*
X25200000Y-63168421D03*
G04 #@! TD*
G04 #@! TO.C,KiKit_MB_20_9*
X44800000Y-63168421D03*
G04 #@! TD*
G04 #@! TO.C,KiKit_MB_18_9*
X44800000Y-4968422D03*
G04 #@! TD*
G04 #@! TO.C,KiKit_MB_12_4*
X34000000Y-44630000D03*
G04 #@! TD*
G04 #@! TO.C,KiKit_MB_19_4*
X25200000Y-60063157D03*
G04 #@! TD*
G04 #@! TO.C,KiKit_MB_21_15*
X8400000Y-14800000D03*
G04 #@! TD*
G04 #@! TO.C,KiKit_MB_1_1*
X25170000Y-20100000D03*
G04 #@! TD*
G04 #@! TO.C,KiKit_MB_22_31*
X18000000Y-55200000D03*
G04 #@! TD*
G04 #@! TO.C,KiKit_MB_19_2*
X25200000Y-58821052D03*
G04 #@! TD*
G04 #@! TO.C,KiKit_MB_23_35*
X68200000Y-14800000D03*
G04 #@! TD*
G04 #@! TO.C,KiKit_MB_19_10*
X25200000Y-63789473D03*
G04 #@! TD*
G04 #@! TO.C,KiKit_MB_18_18*
X44800000Y-10557895D03*
G04 #@! TD*
G04 #@! TO.C,KiKit_MB_17_7*
X25200000Y-3726316D03*
G04 #@! TD*
G04 #@! TO.C,KiKit_MB_1_4*
X25170000Y-18100000D03*
G04 #@! TD*
G04 #@! TO.C,KiKit_MB_23_28*
X64000000Y-14800000D03*
G04 #@! TD*
G04 #@! TO.C,KiKit_MB_2_2*
X44830000Y-18766667D03*
G04 #@! TD*
G04 #@! TO.C,KiKit_MB_24_5*
X50200000Y-55200000D03*
G04 #@! TD*
G04 #@! TO.C,KiKit_MB_24_34*
X67600000Y-55200000D03*
G04 #@! TD*
G04 #@! TO.C,KiKit_MB_2_3*
X44830000Y-19433333D03*
G04 #@! TD*
G04 #@! TO.C,KiKit_MB_23_16*
X56800000Y-14800000D03*
G04 #@! TD*
G04 #@! TO.C,KiKit_MB_21_13*
X7200000Y-14800000D03*
G04 #@! TD*
G04 #@! TO.C,KiKit_MB_22_27*
X15600000Y-55200000D03*
G04 #@! TD*
G04 #@! TO.C,KiKit_MB_14_3*
X44830000Y-51233333D03*
G04 #@! TD*
G04 #@! TO.C,KiKit_MB_3_3*
X35333333Y-14770000D03*
G04 #@! TD*
G04 #@! TO.C,KiKit_MB_18_12*
X44800000Y-6831579D03*
G04 #@! TD*
G04 #@! TO.C,KiKit_MB_10_3*
X44830000Y-40633333D03*
G04 #@! TD*
G04 #@! TO.C,KiKit_MB_17_5*
X25200000Y-2484211D03*
G04 #@! TD*
G04 #@! TO.C,KiKit_MB_22_20*
X11400000Y-55200000D03*
G04 #@! TD*
G04 #@! TO.C,KiKit_MB_5_3*
X25170000Y-29366666D03*
G04 #@! TD*
G04 #@! TO.C,KiKit_MB_22_25*
X14400000Y-55200000D03*
G04 #@! TD*
G04 #@! TO.C,KiKit_MB_20_4*
X44800000Y-60063157D03*
G04 #@! TD*
G04 #@! TO.C,KiKit_MB_23_14*
X55600000Y-14800000D03*
G04 #@! TD*
G04 #@! TO.C,KiKit_MB_24_36*
X68800000Y-55200000D03*
G04 #@! TD*
G04 #@! TO.C,KiKit_MB_17_10*
X25200000Y-5589474D03*
G04 #@! TD*
G04 #@! TO.C,KiKit_MB_7_1*
X34000000Y-25370000D03*
G04 #@! TD*
G04 #@! TO.C,KiKit_MB_5_4*
X25170000Y-28700000D03*
G04 #@! TD*
G04 #@! TO.C,KiKit_MB_11_1*
X34000000Y-35970000D03*
G04 #@! TD*
G04 #@! TO.C,KiKit_MB_21_37*
X21600000Y-14800000D03*
G04 #@! TD*
G04 #@! TO.C,KiKit_MB_9_3*
X25170000Y-39966666D03*
G04 #@! TD*
G04 #@! TO.C,KiKit_MB_24_37*
X69400000Y-55200000D03*
G04 #@! TD*
G04 #@! TO.C,KiKit_MB_23_17*
X57400000Y-14800000D03*
G04 #@! TD*
G04 #@! TO.C,KiKit_MB_21_33*
X19200000Y-14800000D03*
G04 #@! TD*
G04 #@! TO.C,KiKit_MB_24_1*
X47800000Y-55200000D03*
G04 #@! TD*
G04 #@! TO.C,KiKit_MB_21_6*
X3000000Y-14800000D03*
G04 #@! TD*
G04 #@! TO.C,KiKit_MB_24_38*
X70000000Y-55200000D03*
G04 #@! TD*
G04 #@! TO.C,KiKit_MB_21_20*
X11400000Y-14800000D03*
G04 #@! TD*
G04 #@! TO.C,KiKit_MB_17_8*
X25200000Y-4347369D03*
G04 #@! TD*
G04 #@! TO.C,KiKit_MB_21_16*
X9000000Y-14800000D03*
G04 #@! TD*
G04 #@! TO.C,KiKit_MB_19_6*
X25200000Y-61305263D03*
G04 #@! TD*
G04 #@! TO.C,KiKit_MB_24_9*
X52600000Y-55200000D03*
G04 #@! TD*
G04 #@! TO.C,KiKit_MB_23_31*
X65800000Y-14800000D03*
G04 #@! TD*
G04 #@! TO.C,KiKit_MB_21_7*
X3600000Y-14800000D03*
G04 #@! TD*
G04 #@! TO.C,KiKit_MB_16_2*
X35333333Y-55230000D03*
G04 #@! TD*
G04 #@! TO.C,KiKit_MB_23_22*
X60400000Y-14800000D03*
G04 #@! TD*
G04 #@! TO.C,KiKit_MB_17_11*
X25200000Y-6210527D03*
G04 #@! TD*
G04 #@! TO.C,KiKit_MB_24_13*
X55000000Y-55200000D03*
G04 #@! TD*
G04 #@! TO.C,KiKit_MB_17_19*
X25200000Y-11178948D03*
G04 #@! TD*
G04 #@! TO.C,KiKit_MB_23_15*
X56200000Y-14800000D03*
G04 #@! TD*
G04 #@! TO.C,KiKit_MB_20_12*
X44800000Y-65031578D03*
G04 #@! TD*
G04 #@! TO.C,KiKit_MB_17_17*
X25200000Y-9936843D03*
G04 #@! TD*
G04 #@! TO.C,KiKit_MB_24_18*
X58000000Y-55200000D03*
G04 #@! TD*
G04 #@! TO.C,KiKit_MB_22_38*
X22200000Y-55200000D03*
G04 #@! TD*
G04 #@! TO.C,KiKit_MB_13_4*
X25170000Y-49900000D03*
G04 #@! TD*
G04 #@! TO.C,KiKit_MB_5_2*
X25170000Y-30033333D03*
G04 #@! TD*
G04 #@! TO.C,KiKit_MB_9_2*
X25170000Y-40633333D03*
G04 #@! TD*
G04 #@! TO.C,KiKit_MB_14_4*
X44830000Y-51900000D03*
G04 #@! TD*
G04 #@! TO.C,KiKit_MB_19_17*
X25200000Y-68136842D03*
G04 #@! TD*
G04 #@! TO.C,KiKit_MB_3_1*
X34000000Y-14770000D03*
G04 #@! TD*
G04 #@! TO.C,KiKit_MB_22_4*
X1800000Y-55200000D03*
G04 #@! TD*
G04 #@! TO.C,KiKit_MB_21_10*
X5400000Y-14800000D03*
G04 #@! TD*
G04 #@! TO.C,KiKit_MB_24_22*
X60400000Y-55200000D03*
G04 #@! TD*
G04 #@! TO.C,KiKit_MB_12_1*
X36000000Y-44630000D03*
G04 #@! TD*
G04 #@! TO.C,KiKit_MB_7_2*
X34666667Y-25370000D03*
G04 #@! TD*
G04 #@! TO.C,KiKit_MB_6_3*
X44830000Y-30033333D03*
G04 #@! TD*
G04 #@! TO.C,KiKit_MB_18_17*
X44800000Y-9936843D03*
G04 #@! TD*
G04 #@! TO.C,KiKit_MB_22_18*
X10200000Y-55200000D03*
G04 #@! TD*
G04 #@! TO.C,KiKit_MB_17_4*
X25200000Y-1863158D03*
G04 #@! TD*
G04 #@! TO.C,KiKit_MB_18_7*
X44800000Y-3726316D03*
G04 #@! TD*
G04 #@! TO.C,KiKit_MB_21_28*
X16200000Y-14800000D03*
G04 #@! TD*
G04 #@! TO.C,KiKit_MB_23_7*
X51400000Y-14800000D03*
G04 #@! TD*
G04 #@! TO.C,KiKit_MB_23_34*
X67600000Y-14800000D03*
G04 #@! TD*
G04 #@! TO.C,KiKit_MB_17_9*
X25200000Y-4968422D03*
G04 #@! TD*
G04 #@! TO.C,KiKit_MB_23_30*
X65200000Y-14800000D03*
G04 #@! TD*
G04 #@! TO.C,KiKit_MB_23_1*
X47800000Y-14800000D03*
G04 #@! TD*
G04 #@! TO.C,KiKit_MB_24_27*
X63400000Y-55200000D03*
G04 #@! TD*
G04 #@! TO.C,KiKit_MB_17_18*
X25200000Y-10557895D03*
G04 #@! TD*
G04 #@! TO.C,KiKit_MB_24_11*
X53800000Y-55200000D03*
G04 #@! TD*
G04 #@! TO.C,KiKit_MB_22_3*
X1200000Y-55200000D03*
G04 #@! TD*
G04 #@! TO.C,KiKit_MB_18_1*
X44800000Y0D03*
G04 #@! TD*
G04 #@! TO.C,KiKit_MB_22_2*
X600000Y-55200000D03*
G04 #@! TD*
G04 #@! TO.C,KiKit_MB_22_1*
X0Y-55200000D03*
G04 #@! TD*
G04 #@! TO.C,KiKit_MB_18_19*
X44800000Y-11178948D03*
G04 #@! TD*
G04 #@! TO.C,KiKit_MB_21_25*
X14400000Y-14800000D03*
G04 #@! TD*
G04 #@! TO.C,KiKit_MB_22_9*
X4800000Y-55200000D03*
G04 #@! TD*
G04 #@! TO.C,KiKit_MB_21_8*
X4200000Y-14800000D03*
G04 #@! TD*
G04 #@! TO.C,KiKit_MB_23_19*
X58600000Y-14800000D03*
G04 #@! TD*
G04 #@! TO.C,KiKit_MB_21_24*
X13800000Y-14800000D03*
G04 #@! TD*
G04 #@! TO.C,KiKit_MB_21_29*
X16800000Y-14800000D03*
G04 #@! TD*
G04 #@! TO.C,KiKit_MB_4_3*
X34666667Y-23430000D03*
G04 #@! TD*
G04 #@! TO.C,KiKit_MB_8_2*
X35333333Y-34030000D03*
G04 #@! TD*
G04 #@! TO.C,KiKit_MB_21_26*
X15000000Y-14800000D03*
G04 #@! TD*
G04 #@! TO.C,KiKit_MB_19_7*
X25200000Y-61926315D03*
G04 #@! TD*
G04 #@! TO.C,KiKit_MB_10_4*
X44830000Y-41300000D03*
G04 #@! TD*
G04 #@! TO.C,KiKit_MB_4_2*
X35333333Y-23430000D03*
G04 #@! TD*
G04 #@! TO.C,KiKit_MB_24_10*
X53200000Y-55200000D03*
G04 #@! TD*
G04 #@! TO.C,KiKit_MB_24_17*
X57400000Y-55200000D03*
G04 #@! TD*
G04 #@! TO.C,KiKit_MB_20_5*
X44800000Y-60684210D03*
G04 #@! TD*
G04 #@! TO.C,KiKit_MB_18_3*
X44800000Y-1242106D03*
G04 #@! TD*
G04 #@! TO.C,KiKit_MB_18_6*
X44800000Y-3105264D03*
G04 #@! TD*
G04 #@! TO.C,KiKit_MB_20_6*
X44800000Y-61305263D03*
G04 #@! TD*
G04 #@! TO.C,KiKit_MB_19_15*
X25200000Y-66894736D03*
G04 #@! TD*
G04 #@! TO.C,KiKit_MB_22_15*
X8400000Y-55200000D03*
G04 #@! TD*
G04 #@! TO.C,KiKit_MB_17_3*
X25200000Y-1242106D03*
G04 #@! TD*
G04 #@! TO.C,KiKit_MB_22_36*
X21000000Y-55200000D03*
G04 #@! TD*
G04 #@! TO.C,KiKit_MB_18_8*
X44800000Y-4347369D03*
G04 #@! TD*
G04 #@! TO.C,KiKit_MB_17_14*
X25200000Y-8073685D03*
G04 #@! TD*
G04 #@! TO.C,KiKit_MB_1_2*
X25170000Y-19433333D03*
G04 #@! TD*
G04 #@! TO.C,KiKit_MB_3_4*
X36000000Y-14770000D03*
G04 #@! TD*
G04 #@! TO.C,KiKit_MB_21_31*
X18000000Y-14800000D03*
G04 #@! TD*
G04 #@! TO.C,KiKit_MB_23_12*
X54400000Y-14800000D03*
G04 #@! TD*
G04 #@! TO.C,KiKit_MB_18_13*
X44800000Y-7452632D03*
G04 #@! TD*
G04 #@! TO.C,KiKit_MB_23_8*
X52000000Y-14800000D03*
G04 #@! TD*
G04 #@! TO.C,KiKit_MB_12_2*
X35333333Y-44630000D03*
G04 #@! TD*
G04 #@! TO.C,KiKit_MB_20_14*
X44800000Y-66273684D03*
G04 #@! TD*
G04 #@! TO.C,KiKit_MB_17_12*
X25200000Y-6831579D03*
G04 #@! TD*
G04 #@! TO.C,KiKit_MB_23_6*
X50800000Y-14800000D03*
G04 #@! TD*
G04 #@! TO.C,KiKit_MB_19_1*
X25200000Y-58200000D03*
G04 #@! TD*
G04 #@! TO.C,KiKit_MB_16_3*
X34666667Y-55230000D03*
G04 #@! TD*
G04 #@! TO.C,KiKit_MB_22_11*
X6000000Y-55200000D03*
G04 #@! TD*
G04 #@! TO.C,KiKit_MB_22_5*
X2400000Y-55200000D03*
G04 #@! TD*
G04 #@! TO.C,KiKit_MB_17_6*
X25200000Y-3105264D03*
G04 #@! TD*
G04 #@! TO.C,KiKit_MB_17_20*
X25200000Y-11800000D03*
G04 #@! TD*
G04 #@! TO.C,KiKit_MB_23_20*
X59200000Y-14800000D03*
G04 #@! TD*
D11*
G04 #@! TO.C,KiKit_TO_1*
X2000000Y-2000000D03*
G04 #@! TD*
D10*
G04 #@! TO.C,KiKit_MB_22_32*
X18600000Y-55200000D03*
G04 #@! TD*
G04 #@! TO.C,KiKit_MB_18_2*
X44800000Y-621053D03*
G04 #@! TD*
G04 #@! TO.C,KiKit_MB_20_2*
X44800000Y-58821052D03*
G04 #@! TD*
G04 #@! TO.C,KiKit_MB_20_1*
X44800000Y-58200000D03*
G04 #@! TD*
G04 #@! TO.C,KiKit_MB_19_8*
X25200000Y-62547368D03*
G04 #@! TD*
G04 #@! TO.C,KiKit_MB_20_13*
X44800000Y-65652631D03*
G04 #@! TD*
G04 #@! TO.C,KiKit_MB_20_3*
X44800000Y-59442105D03*
G04 #@! TD*
G04 #@! TO.C,KiKit_MB_21_27*
X15600000Y-14800000D03*
G04 #@! TD*
G04 #@! TO.C,KiKit_MB_19_16*
X25200000Y-67515789D03*
G04 #@! TD*
G04 #@! TO.C,KiKit_MB_22_19*
X10800000Y-55200000D03*
G04 #@! TD*
G04 #@! TO.C,KiKit_MB_23_11*
X53800000Y-14800000D03*
G04 #@! TD*
G04 #@! TO.C,KiKit_MB_22_34*
X19800000Y-55200000D03*
G04 #@! TD*
G04 #@! TO.C,KiKit_MB_6_1*
X44830000Y-28700000D03*
G04 #@! TD*
G04 #@! TO.C,KiKit_MB_24_33*
X67000000Y-55200000D03*
G04 #@! TD*
G04 #@! TO.C,KiKit_MB_19_3*
X25200000Y-59442105D03*
G04 #@! TD*
G04 #@! TO.C,KiKit_MB_8_4*
X34000000Y-34030000D03*
G04 #@! TD*
G04 #@! TO.C,KiKit_MB_23_4*
X49600000Y-14800000D03*
G04 #@! TD*
G04 #@! TO.C,KiKit_MB_21_23*
X13200000Y-14800000D03*
G04 #@! TD*
G04 #@! TO.C,KiKit_MB_6_2*
X44830000Y-29366666D03*
G04 #@! TD*
G04 #@! TO.C,KiKit_MB_15_4*
X36000000Y-46570000D03*
G04 #@! TD*
G04 #@! TO.C,KiKit_MB_23_10*
X53200000Y-14800000D03*
G04 #@! TD*
G04 #@! TO.C,KiKit_MB_22_7*
X3600000Y-55200000D03*
G04 #@! TD*
G04 #@! TO.C,KiKit_MB_21_38*
X22200000Y-14800000D03*
G04 #@! TD*
G04 #@! TO.C,KiKit_MB_21_35*
X20400000Y-14800000D03*
G04 #@! TD*
G04 #@! TO.C,KiKit_MB_23_32*
X66400000Y-14800000D03*
G04 #@! TD*
G04 #@! TO.C,KiKit_MB_20_18*
X44800000Y-68757894D03*
G04 #@! TD*
G04 #@! TO.C,KiKit_MB_18_11*
X44800000Y-6210527D03*
G04 #@! TD*
G04 #@! TO.C,KiKit_MB_17_13*
X25200000Y-7452632D03*
G04 #@! TD*
D11*
G04 #@! TO.C,KiKit_TO_3*
X2000000Y-68000000D03*
G04 #@! TD*
D10*
G04 #@! TO.C,KiKit_MB_24_21*
X59800000Y-55200000D03*
G04 #@! TD*
G04 #@! TO.C,KiKit_MB_4_1*
X36000000Y-23430000D03*
G04 #@! TD*
G04 #@! TO.C,KiKit_MB_24_32*
X66400000Y-55200000D03*
G04 #@! TD*
G04 #@! TO.C,KiKit_MB_22_33*
X19200000Y-55200000D03*
G04 #@! TD*
G04 #@! TO.C,KiKit_MB_22_24*
X13800000Y-55200000D03*
G04 #@! TD*
G04 #@! TO.C,KiKit_MB_24_25*
X62200000Y-55200000D03*
G04 #@! TD*
G04 #@! TO.C,KiKit_MB_13_3*
X25170000Y-50566666D03*
G04 #@! TD*
G04 #@! TO.C,KiKit_MB_21_3*
X1200000Y-14800000D03*
G04 #@! TD*
G04 #@! TO.C,KiKit_MB_22_14*
X7800000Y-55200000D03*
G04 #@! TD*
G04 #@! TO.C,KiKit_MB_21_11*
X6000000Y-14800000D03*
G04 #@! TD*
G04 #@! TO.C,KiKit_MB_20_20*
X44800000Y-70000000D03*
G04 #@! TD*
G04 #@! TO.C,KiKit_MB_20_7*
X44800000Y-61926315D03*
G04 #@! TD*
G04 #@! TO.C,KiKit_MB_15_3*
X35333333Y-46570000D03*
G04 #@! TD*
G04 #@! TO.C,KiKit_MB_24_15*
X56200000Y-55200000D03*
G04 #@! TD*
G04 #@! TO.C,KiKit_MB_22_16*
X9000000Y-55200000D03*
G04 #@! TD*
G04 #@! TO.C,KiKit_MB_24_19*
X58600000Y-55200000D03*
G04 #@! TD*
G04 #@! TO.C,KiKit_MB_21_22*
X12600000Y-14800000D03*
G04 #@! TD*
G04 #@! TO.C,KiKit_MB_24_26*
X62800000Y-55200000D03*
G04 #@! TD*
G04 #@! TO.C,KiKit_MB_21_17*
X9600000Y-14800000D03*
G04 #@! TD*
G04 #@! TO.C,KiKit_MB_10_1*
X44830000Y-39300000D03*
G04 #@! TD*
G04 #@! TO.C,KiKit_MB_24_35*
X68200000Y-55200000D03*
G04 #@! TD*
G04 #@! TO.C,KiKit_MB_23_18*
X58000000Y-14800000D03*
G04 #@! TD*
G04 #@! TO.C,KiKit_MB_24_7*
X51400000Y-55200000D03*
G04 #@! TD*
G04 #@! TO.C,KiKit_MB_22_21*
X12000000Y-55200000D03*
G04 #@! TD*
G04 #@! TO.C,KiKit_MB_23_25*
X62200000Y-14800000D03*
G04 #@! TD*
G04 #@! TO.C,KiKit_MB_19_12*
X25200000Y-65031578D03*
G04 #@! TD*
G04 #@! TO.C,KiKit_MB_23_21*
X59800000Y-14800000D03*
G04 #@! TD*
G04 #@! TO.C,KiKit_MB_21_14*
X7800000Y-14800000D03*
G04 #@! TD*
G04 #@! TO.C,KiKit_MB_23_5*
X50200000Y-14800000D03*
G04 #@! TD*
G04 #@! TO.C,KiKit_MB_18_4*
X44800000Y-1863158D03*
G04 #@! TD*
G04 #@! TO.C,KiKit_MB_19_14*
X25200000Y-66273684D03*
G04 #@! TD*
G04 #@! TO.C,KiKit_MB_24_12*
X54400000Y-55200000D03*
G04 #@! TD*
G04 #@! TO.C,KiKit_MB_17_1*
X25200000Y0D03*
G04 #@! TD*
G04 #@! TO.C,KiKit_MB_19_19*
X25200000Y-69378947D03*
G04 #@! TD*
G04 #@! TO.C,KiKit_MB_11_3*
X35333333Y-35970000D03*
G04 #@! TD*
G04 #@! TO.C,KiKit_MB_5_1*
X25170000Y-30700000D03*
G04 #@! TD*
G04 #@! TO.C,KiKit_MB_23_9*
X52600000Y-14800000D03*
G04 #@! TD*
G04 #@! TO.C,KiKit_MB_17_15*
X25200000Y-8694737D03*
G04 #@! TD*
G04 #@! TO.C,KiKit_MB_20_8*
X44800000Y-62547368D03*
G04 #@! TD*
G04 #@! TO.C,KiKit_MB_17_16*
X25200000Y-9315790D03*
G04 #@! TD*
G04 #@! TO.C,KiKit_MB_23_29*
X64600000Y-14800000D03*
G04 #@! TD*
G04 #@! TO.C,KiKit_MB_7_3*
X35333333Y-25370000D03*
G04 #@! TD*
G04 #@! TO.C,KiKit_MB_17_2*
X25200000Y-621053D03*
G04 #@! TD*
G04 #@! TO.C,KiKit_MB_15_1*
X34000000Y-46570000D03*
G04 #@! TD*
G04 #@! TO.C,KiKit_MB_22_17*
X9600000Y-55200000D03*
G04 #@! TD*
G04 #@! TO.C,KiKit_MB_24_29*
X64600000Y-55200000D03*
G04 #@! TD*
G04 #@! TO.C,KiKit_MB_24_2*
X48400000Y-55200000D03*
G04 #@! TD*
G04 #@! TO.C,KiKit_MB_22_28*
X16200000Y-55200000D03*
G04 #@! TD*
G04 #@! TO.C,KiKit_MB_21_12*
X6600000Y-14800000D03*
G04 #@! TD*
G04 #@! TO.C,KiKit_MB_14_1*
X44830000Y-49900000D03*
G04 #@! TD*
G04 #@! TO.C,KiKit_MB_11_4*
X36000000Y-35970000D03*
G04 #@! TD*
G04 #@! TO.C,KiKit_MB_1_3*
X25170000Y-18766667D03*
G04 #@! TD*
G04 #@! TO.C,KiKit_MB_24_30*
X65200000Y-55200000D03*
G04 #@! TD*
G04 #@! TO.C,KiKit_MB_21_34*
X19800000Y-14800000D03*
G04 #@! TD*
G04 #@! TO.C,KiKit_MB_23_2*
X48400000Y-14800000D03*
G04 #@! TD*
G04 #@! TO.C,KiKit_MB_22_37*
X21600000Y-55200000D03*
G04 #@! TD*
G04 #@! TO.C,KiKit_MB_22_8*
X4200000Y-55200000D03*
G04 #@! TD*
G04 #@! TO.C,KiKit_MB_22_13*
X7200000Y-55200000D03*
G04 #@! TD*
G04 #@! TO.C,KiKit_MB_23_26*
X62800000Y-14800000D03*
G04 #@! TD*
G04 #@! TO.C,KiKit_MB_23_33*
X67000000Y-14800000D03*
G04 #@! TD*
G04 #@! TO.C,KiKit_MB_22_35*
X20400000Y-55200000D03*
G04 #@! TD*
G04 #@! TO.C,KiKit_MB_14_2*
X44830000Y-50566666D03*
G04 #@! TD*
G04 #@! TO.C,KiKit_MB_20_10*
X44800000Y-63789473D03*
G04 #@! TD*
G04 #@! TO.C,KiKit_MB_6_4*
X44830000Y-30700000D03*
G04 #@! TD*
G04 #@! TO.C,KiKit_MB_20_15*
X44800000Y-66894736D03*
G04 #@! TD*
G04 #@! TO.C,KiKit_MB_22_10*
X5400000Y-55200000D03*
G04 #@! TD*
G04 #@! TO.C,KiKit_MB_20_17*
X44800000Y-68136842D03*
G04 #@! TD*
G04 #@! TO.C,KiKit_MB_19_13*
X25200000Y-65652631D03*
G04 #@! TD*
G04 #@! TO.C,KiKit_MB_24_23*
X61000000Y-55200000D03*
G04 #@! TD*
G04 #@! TO.C,KiKit_MB_18_15*
X44800000Y-8694737D03*
G04 #@! TD*
G04 #@! TO.C,KiKit_MB_21_19*
X10800000Y-14800000D03*
G04 #@! TD*
D11*
G04 #@! TO.C,KiKit_TO_2*
X68000000Y-2000000D03*
G04 #@! TD*
D10*
G04 #@! TO.C,KiKit_MB_19_11*
X25200000Y-64410526D03*
G04 #@! TD*
G04 #@! TO.C,KiKit_MB_18_20*
X44800000Y-11800000D03*
G04 #@! TD*
G04 #@! TO.C,KiKit_MB_21_4*
X1800000Y-14800000D03*
G04 #@! TD*
G04 #@! TO.C,KiKit_MB_24_3*
X49000000Y-55200000D03*
G04 #@! TD*
G04 #@! TO.C,KiKit_MB_18_10*
X44800000Y-5589474D03*
G04 #@! TD*
G04 #@! TO.C,KiKit_MB_21_36*
X21000000Y-14800000D03*
G04 #@! TD*
G04 #@! TO.C,KiKit_MB_11_2*
X34666667Y-35970000D03*
G04 #@! TD*
G04 #@! TO.C,KiKit_MB_21_5*
X2400000Y-14800000D03*
G04 #@! TD*
G04 #@! TO.C,KiKit_MB_24_14*
X55600000Y-55200000D03*
G04 #@! TD*
G04 #@! TO.C,KiKit_MB_22_22*
X12600000Y-55200000D03*
G04 #@! TD*
G04 #@! TO.C,KiKit_MB_18_14*
X44800000Y-8073685D03*
G04 #@! TD*
G04 #@! TO.C,KiKit_MB_21_9*
X4800000Y-14800000D03*
G04 #@! TD*
G04 #@! TO.C,KiKit_MB_18_16*
X44800000Y-9315790D03*
G04 #@! TD*
G04 #@! TO.C,KiKit_MB_24_16*
X56800000Y-55200000D03*
G04 #@! TD*
G04 #@! TO.C,KiKit_MB_20_19*
X44800000Y-69378947D03*
G04 #@! TD*
G04 #@! TO.C,KiKit_MB_22_29*
X16800000Y-55200000D03*
G04 #@! TD*
G04 #@! TO.C,KiKit_MB_23_13*
X55000000Y-14800000D03*
G04 #@! TD*
G04 #@! TO.C,KiKit_MB_21_1*
X0Y-14800000D03*
G04 #@! TD*
G04 #@! TO.C,KiKit_MB_12_3*
X34666667Y-44630000D03*
G04 #@! TD*
G04 #@! TO.C,KiKit_MB_21_2*
X600000Y-14800000D03*
G04 #@! TD*
G04 #@! TO.C,KiKit_MB_22_30*
X17400000Y-55200000D03*
G04 #@! TD*
G04 #@! TO.C,KiKit_MB_18_5*
X44800000Y-2484211D03*
G04 #@! TD*
G04 #@! TO.C,KiKit_MB_21_18*
X10200000Y-14800000D03*
G04 #@! TD*
G04 #@! TO.C,KiKit_MB_21_32*
X18600000Y-14800000D03*
G04 #@! TD*
G04 #@! TO.C,KiKit_MB_24_28*
X64000000Y-55200000D03*
G04 #@! TD*
G04 #@! TO.C,KiKit_MB_24_4*
X49600000Y-55200000D03*
G04 #@! TD*
G04 #@! TO.C,KiKit_MB_23_36*
X68800000Y-14800000D03*
G04 #@! TD*
G04 #@! TO.C,KiKit_MB_9_4*
X25170000Y-39300000D03*
G04 #@! TD*
G04 #@! TO.C,KiKit_MB_4_4*
X34000000Y-23430000D03*
G04 #@! TD*
G04 #@! TO.C,KiKit_MB_22_23*
X13200000Y-55200000D03*
G04 #@! TD*
G04 #@! TO.C,KiKit_MB_23_38*
X70000000Y-14800000D03*
G04 #@! TD*
G04 #@! TO.C,KiKit_MB_24_20*
X59200000Y-55200000D03*
G04 #@! TD*
G04 #@! TO.C,KiKit_MB_21_30*
X17400000Y-14800000D03*
G04 #@! TD*
G04 #@! TO.C,KiKit_MB_2_1*
X44830000Y-18100000D03*
G04 #@! TD*
G04 #@! TO.C,KiKit_MB_2_4*
X44830000Y-20100000D03*
G04 #@! TD*
G04 #@! TO.C,KiKit_MB_22_26*
X15000000Y-55200000D03*
G04 #@! TD*
G04 #@! TO.C,KiKit_MB_8_3*
X34666667Y-34030000D03*
G04 #@! TD*
G04 #@! TO.C,KiKit_MB_13_2*
X25170000Y-51233333D03*
G04 #@! TD*
G04 #@! TO.C,KiKit_MB_24_24*
X61600000Y-55200000D03*
G04 #@! TD*
G04 #@! TO.C,KiKit_MB_16_1*
X36000000Y-55230000D03*
G04 #@! TD*
G04 #@! TO.C,KiKit_MB_24_8*
X52000000Y-55200000D03*
G04 #@! TD*
G04 #@! TO.C,KiKit_MB_7_4*
X36000000Y-25370000D03*
G04 #@! TD*
G04 #@! TO.C,KiKit_MB_20_11*
X44800000Y-64410526D03*
G04 #@! TD*
G04 #@! TO.C,KiKit_MB_23_37*
X69400000Y-14800000D03*
G04 #@! TD*
G04 #@! TO.C,KiKit_MB_19_5*
X25200000Y-60684210D03*
G04 #@! TD*
G04 #@! TO.C,KiKit_MB_19_18*
X25200000Y-68757894D03*
G04 #@! TD*
G04 #@! TO.C,KiKit_MB_20_16*
X44800000Y-67515789D03*
G04 #@! TD*
G04 #@! TO.C,KiKit_MB_19_20*
X25200000Y-70000000D03*
G04 #@! TD*
G04 #@! TO.C,KiKit_MB_15_2*
X34666667Y-46570000D03*
G04 #@! TD*
G04 #@! TO.C,KiKit_MB_22_6*
X3000000Y-55200000D03*
G04 #@! TD*
G04 #@! TO.C,KiKit_MB_10_2*
X44830000Y-39966666D03*
G04 #@! TD*
G04 #@! TO.C,KiKit_MB_3_2*
X34666667Y-14770000D03*
G04 #@! TD*
G04 #@! TO.C,KiKit_MB_21_21*
X12000000Y-14800000D03*
G04 #@! TD*
G04 #@! TO.C,KiKit_MB_24_31*
X65800000Y-55200000D03*
G04 #@! TD*
G04 #@! TO.C,KiKit_MB_8_1*
X36000000Y-34030000D03*
G04 #@! TD*
G04 #@! TO.C,KiKit_MB_23_24*
X61600000Y-14800000D03*
G04 #@! TD*
G04 #@! TO.C,KiKit_MB_22_12*
X6600000Y-55200000D03*
G04 #@! TD*
G04 #@! TO.C,KiKit_MB_9_1*
X25170000Y-41300000D03*
G04 #@! TD*
G04 #@! TO.C,KiKit_MB_13_1*
X25170000Y-51900000D03*
G04 #@! TD*
D12*
G04 #@! TO.C,U5*
X31020000Y-36630000D03*
X30620000Y-36630000D03*
X30220000Y-36630000D03*
X31020000Y-37030000D03*
X30620000Y-37030000D03*
X30220000Y-37030000D03*
X31020000Y-37430000D03*
X30620000Y-37430000D03*
X30220000Y-37430000D03*
G04 #@! TD*
D13*
G04 #@! TO.C,J4*
X27800000Y-38425000D03*
X27800000Y-38775000D03*
X27800000Y-39125000D03*
X27800000Y-39475000D03*
X27800000Y-39825000D03*
X27800000Y-40175000D03*
X27800000Y-40525000D03*
X27800000Y-40875000D03*
X27800000Y-41225000D03*
X27800000Y-41575000D03*
X27800000Y-41925000D03*
X27800000Y-42275000D03*
X25900000Y-42275000D03*
X25900000Y-41925000D03*
X25900000Y-41575000D03*
X25900000Y-41225000D03*
X25900000Y-40875000D03*
X25900000Y-40525000D03*
X25900000Y-40175000D03*
X25900000Y-39825000D03*
X25900000Y-39475000D03*
X25900000Y-39125000D03*
X25900000Y-38775000D03*
X25900000Y-38425000D03*
D14*
X27332000Y-37155000D03*
X26368000Y-37145000D03*
X27332000Y-43555000D03*
X26368000Y-43555000D03*
G04 #@! TD*
D15*
G04 #@! TO.C,R10*
X31860000Y-43025000D03*
X31220000Y-43025000D03*
G04 #@! TD*
G04 #@! TO.C,R10*
X31860000Y-32425000D03*
X31220000Y-32425000D03*
G04 #@! TD*
D16*
G04 #@! TO.C,C14*
X30417300Y-31727208D03*
X29457300Y-31727208D03*
G04 #@! TD*
D17*
G04 #@! TO.C,Q6*
X29816565Y-44147394D03*
X29366565Y-44147394D03*
D18*
X29591565Y-43447394D03*
G04 #@! TD*
D19*
G04 #@! TO.C,Q2*
X31800000Y-43755000D03*
X31800000Y-44205000D03*
D20*
X31100000Y-43980000D03*
G04 #@! TD*
D21*
G04 #@! TO.C,Y1*
X41625000Y-42450000D03*
X41625000Y-40700000D03*
X43025000Y-40700000D03*
X43025000Y-42450000D03*
G04 #@! TD*
D22*
G04 #@! TO.C,U3*
X33775000Y-37037500D03*
X34175000Y-37037500D03*
X34575000Y-37037500D03*
X34975000Y-37037500D03*
X35375000Y-37037500D03*
X35775000Y-37037500D03*
X36175000Y-37037500D03*
X36575000Y-37037500D03*
X36975000Y-37037500D03*
X37375000Y-37037500D03*
X37775000Y-37037500D03*
X38175000Y-37037500D03*
X38575000Y-37037500D03*
X38975000Y-37037500D03*
D23*
X39812500Y-37875000D03*
X39812500Y-38275000D03*
X39812500Y-38675000D03*
X39812500Y-39075000D03*
X39812500Y-39475000D03*
X39812500Y-39875000D03*
X39812500Y-40275000D03*
X39812500Y-40675000D03*
X39812500Y-41075000D03*
X39812500Y-41475000D03*
X39812500Y-41875000D03*
X39812500Y-42275000D03*
X39812500Y-42675000D03*
X39812500Y-43075000D03*
D22*
X38975000Y-43912500D03*
X38575000Y-43912500D03*
X38175000Y-43912500D03*
X37775000Y-43912500D03*
X37375000Y-43912500D03*
X36975000Y-43912500D03*
X36575000Y-43912500D03*
X36175000Y-43912500D03*
X35775000Y-43912500D03*
X35375000Y-43912500D03*
X34975000Y-43912500D03*
X34575000Y-43912500D03*
X34175000Y-43912500D03*
X33775000Y-43912500D03*
D23*
X32937500Y-43075000D03*
X32937500Y-42675000D03*
X32937500Y-42275000D03*
X32937500Y-41875000D03*
X32937500Y-41475000D03*
X32937500Y-41075000D03*
X32937500Y-40675000D03*
X32937500Y-40275000D03*
X32937500Y-39875000D03*
X32937500Y-39475000D03*
X32937500Y-39075000D03*
X32937500Y-38675000D03*
X32937500Y-38275000D03*
X32937500Y-37875000D03*
D24*
X36375000Y-40475000D03*
G04 #@! TD*
D25*
G04 #@! TO.C,C10*
X30850000Y-50480000D03*
X30850000Y-49520000D03*
G04 #@! TD*
D26*
G04 #@! TO.C,U1*
X44075000Y-37175000D03*
X44075000Y-37675000D03*
X44075000Y-38175000D03*
X44075000Y-38675000D03*
X41225000Y-38675000D03*
X41225000Y-38175000D03*
X41225000Y-37675000D03*
X41225000Y-37175000D03*
D27*
X42650000Y-37925000D03*
G04 #@! TD*
D26*
G04 #@! TO.C,U1*
X44075000Y-26575000D03*
X44075000Y-27075000D03*
X44075000Y-27575000D03*
X44075000Y-28075000D03*
X41225000Y-28075000D03*
X41225000Y-27575000D03*
X41225000Y-27075000D03*
X41225000Y-26575000D03*
D27*
X42650000Y-27325000D03*
G04 #@! TD*
D28*
G04 #@! TO.C,KiKit_FID_B_2*
X60000000Y-3850000D03*
G04 #@! TD*
D22*
G04 #@! TO.C,U3*
X33775000Y-26437500D03*
X34175000Y-26437500D03*
X34575000Y-26437500D03*
X34975000Y-26437500D03*
X35375000Y-26437500D03*
X35775000Y-26437500D03*
X36175000Y-26437500D03*
X36575000Y-26437500D03*
X36975000Y-26437500D03*
X37375000Y-26437500D03*
X37775000Y-26437500D03*
X38175000Y-26437500D03*
X38575000Y-26437500D03*
X38975000Y-26437500D03*
D23*
X39812500Y-27275000D03*
X39812500Y-27675000D03*
X39812500Y-28075000D03*
X39812500Y-28475000D03*
X39812500Y-28875000D03*
X39812500Y-29275000D03*
X39812500Y-29675000D03*
X39812500Y-30075000D03*
X39812500Y-30475000D03*
X39812500Y-30875000D03*
X39812500Y-31275000D03*
X39812500Y-31675000D03*
X39812500Y-32075000D03*
X39812500Y-32475000D03*
D22*
X38975000Y-33312500D03*
X38575000Y-33312500D03*
X38175000Y-33312500D03*
X37775000Y-33312500D03*
X37375000Y-33312500D03*
X36975000Y-33312500D03*
X36575000Y-33312500D03*
X36175000Y-33312500D03*
X35775000Y-33312500D03*
X35375000Y-33312500D03*
X34975000Y-33312500D03*
X34575000Y-33312500D03*
X34175000Y-33312500D03*
X33775000Y-33312500D03*
D23*
X32937500Y-32475000D03*
X32937500Y-32075000D03*
X32937500Y-31675000D03*
X32937500Y-31275000D03*
X32937500Y-30875000D03*
X32937500Y-30475000D03*
X32937500Y-30075000D03*
X32937500Y-29675000D03*
X32937500Y-29275000D03*
X32937500Y-28875000D03*
X32937500Y-28475000D03*
X32937500Y-28075000D03*
X32937500Y-27675000D03*
X32937500Y-27275000D03*
D24*
X36375000Y-29875000D03*
G04 #@! TD*
D29*
G04 #@! TO.C,C1*
X44175000Y-29655000D03*
X44175000Y-30295000D03*
G04 #@! TD*
D25*
G04 #@! TO.C,C8*
X31775000Y-50480000D03*
X31775000Y-49520000D03*
G04 #@! TD*
D16*
G04 #@! TO.C,C14*
X30417300Y-52927208D03*
X29457300Y-52927208D03*
G04 #@! TD*
D30*
G04 #@! TO.C,R6*
X42280000Y-54250000D03*
X42920000Y-54250000D03*
G04 #@! TD*
G04 #@! TO.C,R6*
X42280000Y-43650000D03*
X42920000Y-43650000D03*
G04 #@! TD*
D15*
G04 #@! TO.C,R4*
X44320000Y-39525000D03*
X43680000Y-39525000D03*
G04 #@! TD*
D29*
G04 #@! TO.C,C1*
X44175000Y-40255000D03*
X44175000Y-40895000D03*
G04 #@! TD*
D19*
G04 #@! TO.C,Q2*
X31800000Y-33155000D03*
X31800000Y-33605000D03*
D20*
X31100000Y-33380000D03*
G04 #@! TD*
D22*
G04 #@! TO.C,U3*
X33775000Y-15837500D03*
X34175000Y-15837500D03*
X34575000Y-15837500D03*
X34975000Y-15837500D03*
X35375000Y-15837500D03*
X35775000Y-15837500D03*
X36175000Y-15837500D03*
X36575000Y-15837500D03*
X36975000Y-15837500D03*
X37375000Y-15837500D03*
X37775000Y-15837500D03*
X38175000Y-15837500D03*
X38575000Y-15837500D03*
X38975000Y-15837500D03*
D23*
X39812500Y-16675000D03*
X39812500Y-17075000D03*
X39812500Y-17475000D03*
X39812500Y-17875000D03*
X39812500Y-18275000D03*
X39812500Y-18675000D03*
X39812500Y-19075000D03*
X39812500Y-19475000D03*
X39812500Y-19875000D03*
X39812500Y-20275000D03*
X39812500Y-20675000D03*
X39812500Y-21075000D03*
X39812500Y-21475000D03*
X39812500Y-21875000D03*
D22*
X38975000Y-22712500D03*
X38575000Y-22712500D03*
X38175000Y-22712500D03*
X37775000Y-22712500D03*
X37375000Y-22712500D03*
X36975000Y-22712500D03*
X36575000Y-22712500D03*
X36175000Y-22712500D03*
X35775000Y-22712500D03*
X35375000Y-22712500D03*
X34975000Y-22712500D03*
X34575000Y-22712500D03*
X34175000Y-22712500D03*
X33775000Y-22712500D03*
D23*
X32937500Y-21875000D03*
X32937500Y-21475000D03*
X32937500Y-21075000D03*
X32937500Y-20675000D03*
X32937500Y-20275000D03*
X32937500Y-19875000D03*
X32937500Y-19475000D03*
X32937500Y-19075000D03*
X32937500Y-18675000D03*
X32937500Y-18275000D03*
X32937500Y-17875000D03*
X32937500Y-17475000D03*
X32937500Y-17075000D03*
X32937500Y-16675000D03*
D24*
X36375000Y-19275000D03*
G04 #@! TD*
D15*
G04 #@! TO.C,R4*
X44320000Y-50125000D03*
X43680000Y-50125000D03*
G04 #@! TD*
D25*
G04 #@! TO.C,C10*
X30850000Y-39880000D03*
X30850000Y-38920000D03*
G04 #@! TD*
D31*
G04 #@! TO.C,C12*
X30025000Y-39495000D03*
X30025000Y-38855000D03*
G04 #@! TD*
D25*
G04 #@! TO.C,C8*
X31775000Y-39880000D03*
X31775000Y-38920000D03*
G04 #@! TD*
D30*
G04 #@! TO.C,R6*
X42280000Y-33050000D03*
X42920000Y-33050000D03*
G04 #@! TD*
G04 #@! TO.C,C3*
X43680000Y-43650000D03*
X44320000Y-43650000D03*
G04 #@! TD*
D15*
G04 #@! TO.C,R4*
X44320000Y-18325000D03*
X43680000Y-18325000D03*
G04 #@! TD*
D31*
G04 #@! TO.C,C12*
X30025000Y-28895000D03*
X30025000Y-28255000D03*
G04 #@! TD*
D16*
G04 #@! TO.C,C14*
X30417300Y-42327208D03*
X29457300Y-42327208D03*
G04 #@! TD*
D17*
G04 #@! TO.C,Q6*
X29816565Y-54747394D03*
X29366565Y-54747394D03*
D18*
X29591565Y-54047394D03*
G04 #@! TD*
D17*
G04 #@! TO.C,Q6*
X29816565Y-33547394D03*
X29366565Y-33547394D03*
D18*
X29591565Y-32847394D03*
G04 #@! TD*
D15*
G04 #@! TO.C,C11*
X31866526Y-52928507D03*
X31226526Y-52928507D03*
G04 #@! TD*
G04 #@! TO.C,R5*
X41630000Y-28925000D03*
X40990000Y-28925000D03*
G04 #@! TD*
D25*
G04 #@! TO.C,C8*
X31775000Y-29280000D03*
X31775000Y-28320000D03*
G04 #@! TD*
D30*
G04 #@! TO.C,C3*
X43680000Y-22450000D03*
X44320000Y-22450000D03*
G04 #@! TD*
D19*
G04 #@! TO.C,Q2*
X31800000Y-22555000D03*
X31800000Y-23005000D03*
D20*
X31100000Y-22780000D03*
G04 #@! TD*
D19*
G04 #@! TO.C,Q2*
X31800000Y-54355000D03*
X31800000Y-54805000D03*
D20*
X31100000Y-54580000D03*
G04 #@! TD*
D16*
G04 #@! TO.C,C14*
X30417300Y-21127208D03*
X29457300Y-21127208D03*
G04 #@! TD*
D30*
G04 #@! TO.C,C3*
X43680000Y-54250000D03*
X44320000Y-54250000D03*
G04 #@! TD*
D12*
G04 #@! TO.C,U5*
X31020000Y-47230000D03*
X30620000Y-47230000D03*
X30220000Y-47230000D03*
X31020000Y-47630000D03*
X30620000Y-47630000D03*
X30220000Y-47630000D03*
X31020000Y-48030000D03*
X30620000Y-48030000D03*
X30220000Y-48030000D03*
G04 #@! TD*
G04 #@! TO.C,U5*
X31020000Y-26030000D03*
X30620000Y-26030000D03*
X30220000Y-26030000D03*
X31020000Y-26430000D03*
X30620000Y-26430000D03*
X30220000Y-26430000D03*
X31020000Y-26830000D03*
X30620000Y-26830000D03*
X30220000Y-26830000D03*
G04 #@! TD*
D22*
G04 #@! TO.C,U3*
X33775000Y-47637500D03*
X34175000Y-47637500D03*
X34575000Y-47637500D03*
X34975000Y-47637500D03*
X35375000Y-47637500D03*
X35775000Y-47637500D03*
X36175000Y-47637500D03*
X36575000Y-47637500D03*
X36975000Y-47637500D03*
X37375000Y-47637500D03*
X37775000Y-47637500D03*
X38175000Y-47637500D03*
X38575000Y-47637500D03*
X38975000Y-47637500D03*
D23*
X39812500Y-48475000D03*
X39812500Y-48875000D03*
X39812500Y-49275000D03*
X39812500Y-49675000D03*
X39812500Y-50075000D03*
X39812500Y-50475000D03*
X39812500Y-50875000D03*
X39812500Y-51275000D03*
X39812500Y-51675000D03*
X39812500Y-52075000D03*
X39812500Y-52475000D03*
X39812500Y-52875000D03*
X39812500Y-53275000D03*
X39812500Y-53675000D03*
D22*
X38975000Y-54512500D03*
X38575000Y-54512500D03*
X38175000Y-54512500D03*
X37775000Y-54512500D03*
X37375000Y-54512500D03*
X36975000Y-54512500D03*
X36575000Y-54512500D03*
X36175000Y-54512500D03*
X35775000Y-54512500D03*
X35375000Y-54512500D03*
X34975000Y-54512500D03*
X34575000Y-54512500D03*
X34175000Y-54512500D03*
X33775000Y-54512500D03*
D23*
X32937500Y-53675000D03*
X32937500Y-53275000D03*
X32937500Y-52875000D03*
X32937500Y-52475000D03*
X32937500Y-52075000D03*
X32937500Y-51675000D03*
X32937500Y-51275000D03*
X32937500Y-50875000D03*
X32937500Y-50475000D03*
X32937500Y-50075000D03*
X32937500Y-49675000D03*
X32937500Y-49275000D03*
X32937500Y-48875000D03*
X32937500Y-48475000D03*
D24*
X36375000Y-51075000D03*
G04 #@! TD*
D15*
G04 #@! TO.C,R10*
X31860000Y-53625000D03*
X31220000Y-53625000D03*
G04 #@! TD*
G04 #@! TO.C,C11*
X31866526Y-21128507D03*
X31226526Y-21128507D03*
G04 #@! TD*
D17*
G04 #@! TO.C,Q6*
X29816565Y-22947394D03*
X29366565Y-22947394D03*
D18*
X29591565Y-22247394D03*
G04 #@! TD*
D15*
G04 #@! TO.C,R5*
X41630000Y-18325000D03*
X40990000Y-18325000D03*
G04 #@! TD*
D30*
G04 #@! TO.C,R6*
X42280000Y-22450000D03*
X42920000Y-22450000D03*
G04 #@! TD*
D25*
G04 #@! TO.C,C8*
X31775000Y-18680000D03*
X31775000Y-17720000D03*
G04 #@! TD*
D15*
G04 #@! TO.C,R10*
X31860000Y-21825000D03*
X31220000Y-21825000D03*
G04 #@! TD*
D29*
G04 #@! TO.C,C1*
X44175000Y-50855000D03*
X44175000Y-51495000D03*
G04 #@! TD*
D28*
G04 #@! TO.C,KiKit_FID_B_4*
X60000000Y-66150000D03*
G04 #@! TD*
D30*
G04 #@! TO.C,C3*
X43680000Y-33050000D03*
X44320000Y-33050000D03*
G04 #@! TD*
D13*
G04 #@! TO.C,J4*
X27800000Y-17225000D03*
X27800000Y-17575000D03*
X27800000Y-17925000D03*
X27800000Y-18275000D03*
X27800000Y-18625000D03*
X27800000Y-18975000D03*
X27800000Y-19325000D03*
X27800000Y-19675000D03*
X27800000Y-20025000D03*
X27800000Y-20375000D03*
X27800000Y-20725000D03*
X27800000Y-21075000D03*
X25900000Y-21075000D03*
X25900000Y-20725000D03*
X25900000Y-20375000D03*
X25900000Y-20025000D03*
X25900000Y-19675000D03*
X25900000Y-19325000D03*
X25900000Y-18975000D03*
X25900000Y-18625000D03*
X25900000Y-18275000D03*
X25900000Y-17925000D03*
X25900000Y-17575000D03*
X25900000Y-17225000D03*
D14*
X27332000Y-15955000D03*
X26368000Y-15945000D03*
X27332000Y-22355000D03*
X26368000Y-22355000D03*
G04 #@! TD*
D13*
G04 #@! TO.C,J4*
X27800000Y-27825000D03*
X27800000Y-28175000D03*
X27800000Y-28525000D03*
X27800000Y-28875000D03*
X27800000Y-29225000D03*
X27800000Y-29575000D03*
X27800000Y-29925000D03*
X27800000Y-30275000D03*
X27800000Y-30625000D03*
X27800000Y-30975000D03*
X27800000Y-31325000D03*
X27800000Y-31675000D03*
X25900000Y-31675000D03*
X25900000Y-31325000D03*
X25900000Y-30975000D03*
X25900000Y-30625000D03*
X25900000Y-30275000D03*
X25900000Y-29925000D03*
X25900000Y-29575000D03*
X25900000Y-29225000D03*
X25900000Y-28875000D03*
X25900000Y-28525000D03*
X25900000Y-28175000D03*
X25900000Y-27825000D03*
D14*
X27332000Y-26555000D03*
X26368000Y-26545000D03*
X27332000Y-32955000D03*
X26368000Y-32955000D03*
G04 #@! TD*
D15*
G04 #@! TO.C,R5*
X41630000Y-39525000D03*
X40990000Y-39525000D03*
G04 #@! TD*
D13*
G04 #@! TO.C,J4*
X27800000Y-49025000D03*
X27800000Y-49375000D03*
X27800000Y-49725000D03*
X27800000Y-50075000D03*
X27800000Y-50425000D03*
X27800000Y-50775000D03*
X27800000Y-51125000D03*
X27800000Y-51475000D03*
X27800000Y-51825000D03*
X27800000Y-52175000D03*
X27800000Y-52525000D03*
X27800000Y-52875000D03*
X25900000Y-52875000D03*
X25900000Y-52525000D03*
X25900000Y-52175000D03*
X25900000Y-51825000D03*
X25900000Y-51475000D03*
X25900000Y-51125000D03*
X25900000Y-50775000D03*
X25900000Y-50425000D03*
X25900000Y-50075000D03*
X25900000Y-49725000D03*
X25900000Y-49375000D03*
X25900000Y-49025000D03*
D14*
X27332000Y-47755000D03*
X26368000Y-47745000D03*
X27332000Y-54155000D03*
X26368000Y-54155000D03*
G04 #@! TD*
D25*
G04 #@! TO.C,C10*
X30850000Y-29280000D03*
X30850000Y-28320000D03*
G04 #@! TD*
D15*
G04 #@! TO.C,C11*
X31866526Y-31728507D03*
X31226526Y-31728507D03*
G04 #@! TD*
D21*
G04 #@! TO.C,Y1*
X41625000Y-31850000D03*
X41625000Y-30100000D03*
X43025000Y-30100000D03*
X43025000Y-31850000D03*
G04 #@! TD*
D26*
G04 #@! TO.C,U1*
X44075000Y-15975000D03*
X44075000Y-16475000D03*
X44075000Y-16975000D03*
X44075000Y-17475000D03*
X41225000Y-17475000D03*
X41225000Y-16975000D03*
X41225000Y-16475000D03*
X41225000Y-15975000D03*
D27*
X42650000Y-16725000D03*
G04 #@! TD*
D15*
G04 #@! TO.C,R5*
X41630000Y-50125000D03*
X40990000Y-50125000D03*
G04 #@! TD*
D26*
G04 #@! TO.C,U1*
X44075000Y-47775000D03*
X44075000Y-48275000D03*
X44075000Y-48775000D03*
X44075000Y-49275000D03*
X41225000Y-49275000D03*
X41225000Y-48775000D03*
X41225000Y-48275000D03*
X41225000Y-47775000D03*
D27*
X42650000Y-48525000D03*
G04 #@! TD*
D15*
G04 #@! TO.C,C11*
X31866526Y-42328507D03*
X31226526Y-42328507D03*
G04 #@! TD*
D29*
G04 #@! TO.C,C1*
X44175000Y-19055000D03*
X44175000Y-19695000D03*
G04 #@! TD*
D21*
G04 #@! TO.C,Y1*
X41625000Y-53050000D03*
X41625000Y-51300000D03*
X43025000Y-51300000D03*
X43025000Y-53050000D03*
G04 #@! TD*
G04 #@! TO.C,Y1*
X41625000Y-21250000D03*
X41625000Y-19500000D03*
X43025000Y-19500000D03*
X43025000Y-21250000D03*
G04 #@! TD*
D12*
G04 #@! TO.C,U5*
X31020000Y-15430000D03*
X30620000Y-15430000D03*
X30220000Y-15430000D03*
X31020000Y-15830000D03*
X30620000Y-15830000D03*
X30220000Y-15830000D03*
X31020000Y-16230000D03*
X30620000Y-16230000D03*
X30220000Y-16230000D03*
G04 #@! TD*
D31*
G04 #@! TO.C,C12*
X30025000Y-50095000D03*
X30025000Y-49455000D03*
G04 #@! TD*
D28*
G04 #@! TO.C,KiKit_FID_B_3*
X10000000Y-66150000D03*
G04 #@! TD*
D15*
G04 #@! TO.C,R4*
X44320000Y-28925000D03*
X43680000Y-28925000D03*
G04 #@! TD*
D31*
G04 #@! TO.C,C12*
X30025000Y-18295000D03*
X30025000Y-17655000D03*
G04 #@! TD*
D28*
G04 #@! TO.C,KiKit_FID_B_1*
X10000000Y-3850000D03*
G04 #@! TD*
D25*
G04 #@! TO.C,C10*
X30850000Y-18680000D03*
X30850000Y-17720000D03*
G04 #@! TD*
M02*
