G04 #@! TF.GenerationSoftware,KiCad,Pcbnew,8.0.8*
G04 #@! TF.CreationDate,2025-01-26T12:39:59-05:00*
G04 #@! TF.ProjectId,panel,70616e65-6c2e-46b6-9963-61645f706362,rev?*
G04 #@! TF.SameCoordinates,Original*
G04 #@! TF.FileFunction,Profile,NP*
%FSLAX46Y46*%
G04 Gerber Fmt 4.6, Leading zero omitted, Abs format (unit mm)*
G04 Created by KiCad (PCBNEW 8.0.8) date 2025-01-26 12:39:59*
%MOMM*%
%LPD*%
G01*
G04 APERTURE LIST*
G04 #@! TA.AperFunction,Profile*
%ADD10C,0.100000*%
G04 #@! TD*
G04 APERTURE END LIST*
D10*
X36403896Y-34196595D02*
X36443985Y-34168362D01*
X69706910Y-69706876D02*
X69715331Y-69698031D01*
X44829939Y-49143737D02*
X44819195Y-49095895D01*
X33970060Y-34756262D02*
X33980804Y-34804104D01*
X36095914Y-57628127D02*
X36076044Y-57583300D01*
X36292600Y-46307399D02*
X36258790Y-46271887D01*
X47396103Y-28503404D02*
X47356014Y-28531637D01*
X44996595Y-52303896D02*
X45026762Y-52265241D01*
X47631637Y-49456014D02*
X47603404Y-49496103D01*
X33904085Y-35428127D02*
X33882039Y-35471925D01*
X22426762Y-38934758D02*
X22396595Y-38896103D01*
X45092600Y-52192600D02*
X45128112Y-52158790D01*
X25123955Y-17483300D02*
X25104085Y-17528127D01*
X47183300Y-39223955D02*
X47137552Y-39241602D01*
X45058790Y-38971887D02*
X45026762Y-38934758D01*
X36852416Y-14789187D02*
X36804104Y-14780804D01*
X22396595Y-28296103D02*
X22368362Y-28256014D01*
X44876044Y-52516699D02*
X44895914Y-52471872D01*
X22528112Y-30958790D02*
X22565241Y-30926762D01*
X33556014Y-23568362D02*
X33596103Y-23596595D01*
X36019195Y-13995895D02*
X36010812Y-13947583D01*
X36117960Y-57671925D02*
X36095914Y-57628127D01*
X1012272Y-70000000D02*
X68987727Y-70000000D01*
X22276044Y-38683300D02*
X22258397Y-38637552D01*
X33707399Y-34292600D02*
X33741209Y-34328112D01*
X25170060Y-20856262D02*
X25180804Y-20904104D01*
X175841Y-69565427D02*
X219678Y-69624535D01*
X24347583Y-18089187D02*
X24298919Y-18095189D01*
X23052416Y-58189187D02*
X23004104Y-58180804D01*
X25198796Y-31649981D02*
X25200000Y-31699012D01*
X25200270Y-25401245D02*
X25200000Y-25412247D01*
X365817Y-69772792D02*
X375444Y-69780306D01*
X36949981Y-46598796D02*
X36901080Y-46595189D01*
X47228127Y-51995914D02*
X47271925Y-52017960D01*
X36019195Y-35195895D02*
X36010812Y-35147583D01*
X22862447Y-39241602D02*
X22816699Y-39223955D01*
X47043737Y-18070060D02*
X46995895Y-18080804D01*
X235231Y-69643486D02*
X284651Y-69698013D01*
X47800000Y-17100987D02*
X47798796Y-17150018D01*
X33428127Y-11895914D02*
X33471925Y-11917960D01*
X33882039Y-14271925D02*
X33857870Y-14314588D01*
X44800000Y-42299012D02*
X44801203Y-42249981D01*
X46800987Y-11800000D02*
X46850018Y-11801203D01*
X23101080Y-58195189D02*
X23052416Y-58189187D01*
X45509005Y-39256983D02*
X45462447Y-39241602D01*
X22396595Y-20503896D02*
X22426762Y-20465241D01*
X36142129Y-14314588D02*
X36117960Y-14271925D01*
X47314588Y-52042129D02*
X47356014Y-52068362D01*
X46800987Y-49900000D02*
X45799012Y-49900000D01*
X36999012Y-55200000D02*
X44787727Y-55200000D01*
X45652416Y-28689187D02*
X45604104Y-28680804D01*
X33995189Y-45698919D02*
X33989187Y-45747583D01*
X33857870Y-55685411D02*
X33882039Y-55728074D01*
X33857870Y-23885411D02*
X33882039Y-23928074D01*
X33980804Y-56004104D02*
X33989187Y-56052416D01*
X33337552Y-23458397D02*
X33383300Y-23476044D01*
X45243985Y-41468362D02*
X45285411Y-41442129D01*
X36443985Y-14631637D02*
X36403896Y-14603404D01*
X25189187Y-17247583D02*
X25180804Y-17295895D01*
X69831232Y-69555382D02*
X69837766Y-69545064D01*
X33337552Y-11858397D02*
X33383300Y-11876044D01*
X46995895Y-11819195D02*
X47043737Y-11829939D01*
X45092600Y-20392600D02*
X45128112Y-20358790D01*
X36485411Y-23542129D02*
X36528074Y-23517960D01*
X33741209Y-14471887D02*
X33707399Y-14507399D01*
X47186Y-698183D02*
X43355Y-709779D01*
X45509005Y-41343016D02*
X45556262Y-41329939D01*
X44895914Y-49328127D02*
X44876044Y-49283300D01*
X44800000Y-55187727D02*
X44800000Y-52899012D01*
X69837766Y-454935D02*
X69831232Y-444617D01*
X45556262Y-41329939D02*
X45604104Y-41319195D01*
X22219195Y-12604104D02*
X22229939Y-12556262D01*
X47657870Y-57714588D02*
X47631637Y-57756014D01*
X36142129Y-45085411D02*
X36168362Y-45043985D01*
X47090994Y-41343016D02*
X47137552Y-41358397D01*
X44876044Y-38683300D02*
X44858397Y-38637552D01*
X25082039Y-20628074D02*
X25104085Y-20671872D01*
X33671887Y-35741209D02*
X33634758Y-35773237D01*
X22643985Y-52068362D02*
X22685411Y-52042129D01*
X46898919Y-11804810D02*
X46947583Y-11810812D01*
X47356014Y-52068362D02*
X47396103Y-52096595D01*
X36999012Y-11800000D02*
X46800987Y-11800000D01*
X47137552Y-11858397D02*
X47183300Y-11876044D01*
X45328074Y-17982039D02*
X45285411Y-17957870D01*
X22956262Y-30729939D02*
X23004104Y-30719195D01*
X47756983Y-27990994D02*
X47741602Y-28037552D01*
X45371872Y-30795914D02*
X45416699Y-30776044D01*
X22243016Y-31409005D02*
X22258397Y-31362447D01*
X47789187Y-38447583D02*
X47780804Y-38495895D01*
X22229939Y-27943737D02*
X22219195Y-27895895D01*
X22603896Y-49703404D02*
X22565241Y-49673237D01*
X22728074Y-17982039D02*
X22685411Y-17957870D01*
X44968362Y-52343985D02*
X44996595Y-52303896D01*
X36142129Y-57714588D02*
X36117960Y-57671925D01*
X22243016Y-20809005D02*
X22258397Y-20762447D01*
X36196595Y-12203896D02*
X36226762Y-12165241D01*
X25189187Y-49047583D02*
X25180804Y-49095895D01*
X33773237Y-46234758D02*
X33741209Y-46271887D01*
X33337552Y-34058397D02*
X33383300Y-34076044D01*
X33556014Y-58031637D02*
X33514588Y-58057870D01*
X36029939Y-34756262D02*
X36043016Y-34709005D01*
X47396103Y-30896595D02*
X47434758Y-30926762D01*
X36804104Y-34019195D02*
X36852416Y-34010812D01*
X45371872Y-49804085D02*
X45328074Y-49782039D01*
X33831637Y-55643985D02*
X33857870Y-55685411D01*
X36852416Y-55210812D02*
X36901080Y-55204810D01*
X33634758Y-25173237D02*
X33596103Y-25203404D01*
X24628127Y-28604085D02*
X24583300Y-28623955D01*
X36443985Y-34168362D02*
X36485411Y-34142129D01*
X444617Y-69831232D02*
X454935Y-69837766D01*
X33882039Y-55728074D02*
X33904085Y-55771872D01*
X47228127Y-49804085D02*
X47183300Y-49823955D01*
X22295914Y-57628127D02*
X22276044Y-57583300D01*
X69471276Y-69881643D02*
X69481901Y-69875624D01*
X44819195Y-49095895D02*
X44810812Y-49047583D01*
X24395895Y-30719195D02*
X24443737Y-30729939D01*
X25201245Y-44599729D02*
X25212247Y-44599999D01*
X33050018Y-14798796D02*
X33000987Y-14800000D01*
X69837778Y-69545043D02*
X69875611Y-69481923D01*
X36058397Y-35337552D02*
X36043016Y-35290994D01*
X33857870Y-34485411D02*
X33882039Y-34528074D01*
X47396103Y-41496595D02*
X47434758Y-41526762D01*
X47271925Y-49782039D02*
X47228127Y-49804085D01*
X36292600Y-55492600D02*
X36328112Y-55458790D01*
X33803404Y-45003896D02*
X33831637Y-45043985D01*
X22492600Y-30992600D02*
X22528112Y-30958790D01*
X45701080Y-28695189D02*
X45652416Y-28689187D01*
X25200000Y-27700987D02*
X25198796Y-27750018D01*
X46898919Y-30704810D02*
X46947583Y-30710812D01*
X34000000Y-45599012D02*
X34000000Y-45600987D01*
X47043737Y-41329939D02*
X47090994Y-41343016D01*
X33773237Y-14434758D02*
X33741209Y-14471887D01*
X22685411Y-58057870D02*
X22643985Y-58031637D01*
X45165241Y-39073237D02*
X45128112Y-39041209D01*
X33989187Y-35147583D02*
X33980804Y-35195895D01*
X33741209Y-44928112D02*
X33773237Y-44965241D01*
X36076044Y-24016699D02*
X36095914Y-23971872D01*
X235214Y-356531D02*
X227238Y-365779D01*
X25195189Y-31601080D02*
X25198796Y-31649981D01*
X36403896Y-46403404D02*
X36365241Y-46373237D01*
X33596103Y-55396595D02*
X33634758Y-55426762D01*
X25031637Y-17656014D02*
X25003404Y-17696103D01*
X47770060Y-31456262D02*
X47780804Y-31504104D01*
X22862447Y-51958397D02*
X22909005Y-51943016D01*
X36010812Y-57347583D02*
X36004810Y-57298919D01*
X36010812Y-13947583D02*
X36004810Y-13898919D01*
X45799012Y-41300000D02*
X46800987Y-41300000D01*
X47704085Y-41871872D02*
X47723955Y-41916699D01*
X24583300Y-20176044D02*
X24628127Y-20195914D01*
X36528074Y-14682039D02*
X36485411Y-14657870D01*
X46800987Y-30700000D02*
X46850018Y-30701203D01*
X33956983Y-14090994D02*
X33941602Y-14137552D01*
X23101080Y-11804810D02*
X23149981Y-11801203D01*
X22771872Y-18004085D02*
X22728074Y-17982039D01*
X22458790Y-20428112D02*
X22492600Y-20392600D01*
X22728074Y-39182039D02*
X22685411Y-39157870D01*
X25189187Y-52752416D02*
X25195189Y-52801080D01*
X19505Y-804992D02*
X17417Y-817025D01*
X36076044Y-24783300D02*
X36058397Y-24737552D01*
X36292600Y-44892600D02*
X36328112Y-44858790D01*
X22317960Y-38771925D02*
X22295914Y-38728127D01*
X817025Y-17417D02*
X804992Y-19505D01*
X24347583Y-41310812D02*
X24395895Y-41319195D01*
X44895914Y-52471872D02*
X44917960Y-52428074D01*
X47723955Y-17483300D02*
X47704085Y-17528127D01*
X45285411Y-17957870D02*
X45243985Y-17931637D01*
X47741602Y-49237552D02*
X47723955Y-49283300D01*
X25104085Y-41871872D02*
X25123955Y-41916699D01*
X528767Y-69881666D02*
X539675Y-69887157D01*
X47183300Y-20176044D02*
X47228127Y-20195914D01*
X45416699Y-49823955D02*
X45371872Y-49804085D01*
X25198796Y-52849981D02*
X25200000Y-52899012D01*
X47090994Y-39256983D02*
X47043737Y-39270060D01*
X33195895Y-25380804D02*
X33147583Y-25389187D01*
X47314588Y-39157870D02*
X47271925Y-39182039D01*
X33923955Y-24016699D02*
X33941602Y-24062447D01*
X22565241Y-41526762D02*
X22603896Y-41496595D01*
X47434758Y-28473237D02*
X47396103Y-28503404D01*
X25180804Y-38495895D02*
X25170060Y-38543737D01*
X33098919Y-35995189D02*
X33050018Y-35998796D01*
X22210812Y-57347583D02*
X22204810Y-57298919D01*
X44843016Y-49190994D02*
X44829939Y-49143737D01*
X45604104Y-28680804D02*
X45556262Y-28670060D01*
X22201203Y-12749981D02*
X22204810Y-12701080D01*
X36019195Y-24595895D02*
X36010812Y-24547583D01*
X36852416Y-46589187D02*
X36804104Y-46580804D01*
X45203896Y-28503404D02*
X45165241Y-28473237D01*
X33995189Y-57298919D02*
X33989187Y-57347583D01*
X22317960Y-20628074D02*
X22342129Y-20585411D01*
X81367Y-69393777D02*
X112831Y-69460302D01*
X47770060Y-17343737D02*
X47756983Y-17390994D01*
X36029939Y-57443737D02*
X36019195Y-57395895D01*
X22276044Y-31316699D02*
X22295914Y-31271872D01*
X25201245Y-33999729D02*
X25212247Y-33999999D01*
X25180804Y-49095895D02*
X25170060Y-49143737D01*
X45285411Y-28557870D02*
X45243985Y-28531637D01*
X36709005Y-55243016D02*
X36756262Y-55229939D01*
X33000987Y-44600000D02*
X33050018Y-44601203D01*
X22317960Y-12328074D02*
X22342129Y-12285411D01*
X33980804Y-57395895D02*
X33970060Y-57443737D01*
X44804810Y-52801080D02*
X44810812Y-52752416D01*
X69098012Y-69994882D02*
X69110132Y-69993387D01*
X36328112Y-44858790D02*
X36365241Y-44826762D01*
X33195895Y-55219195D02*
X33243737Y-55229939D01*
X25201245Y-23399729D02*
X25212247Y-23399999D01*
X33596103Y-25203404D02*
X33556014Y-25231637D01*
X36168362Y-45043985D02*
X36196595Y-45003896D01*
X24250018Y-51901203D02*
X24298919Y-51904810D01*
X22276044Y-17483300D02*
X22258397Y-17437552D01*
X25212247Y-46600000D02*
X25201245Y-46600270D01*
X45509005Y-51943016D02*
X45556262Y-51929939D01*
X23101080Y-39295189D02*
X23052416Y-39289187D01*
X33000987Y-36000000D02*
X25212272Y-36000000D01*
X36258790Y-55528112D02*
X36292600Y-55492600D01*
X33671887Y-12058790D02*
X33707399Y-12092600D01*
X47228127Y-58104085D02*
X47183300Y-58123955D01*
X33956983Y-24109005D02*
X33970060Y-24156262D01*
X47631637Y-38856014D02*
X47603404Y-38896103D01*
X24714588Y-28557870D02*
X24671925Y-28582039D01*
X47800000Y-42299012D02*
X47800000Y-48900987D01*
X33290994Y-34043016D02*
X33337552Y-34058397D01*
X47541209Y-57871887D02*
X47507399Y-57907399D01*
X23004104Y-28680804D02*
X22956262Y-28670060D01*
X23199012Y-39300000D02*
X23149981Y-39298796D01*
X40083Y-69278403D02*
X43341Y-69290173D01*
X602Y-69012257D02*
X4213Y-69085759D01*
X33998796Y-13850018D02*
X33995189Y-13898919D01*
X44843016Y-20809005D02*
X44858397Y-20762447D01*
X25212272Y-23400000D02*
X33000987Y-23400000D01*
X36095914Y-55771872D02*
X36117960Y-55728074D01*
X454956Y-69837778D02*
X518076Y-69875611D01*
X44858397Y-17437552D02*
X44843016Y-17390994D01*
X25195189Y-27798919D02*
X25189187Y-27847583D01*
X24298919Y-28695189D02*
X24250018Y-28698796D01*
X36571872Y-23495914D02*
X36616699Y-23476044D01*
X69301816Y-47186D02*
X69290220Y-43355D01*
X33428127Y-14704085D02*
X33383300Y-14723955D01*
X33634758Y-14573237D02*
X33596103Y-14603404D01*
X25195189Y-52801080D02*
X25198796Y-52849981D01*
X69956644Y-709779D02*
X69952813Y-698183D01*
X33147583Y-46589187D02*
X33098919Y-46595189D01*
X33514588Y-46457870D02*
X33471925Y-46482039D01*
X22771872Y-11895914D02*
X22816699Y-11876044D01*
X45328074Y-30817960D02*
X45371872Y-30795914D01*
X47137552Y-30758397D02*
X47183300Y-30776044D01*
X22210812Y-12652416D02*
X22219195Y-12604104D01*
X22295914Y-17528127D02*
X22276044Y-17483300D01*
X47795189Y-52801080D02*
X47798796Y-52849981D01*
X45799012Y-28700000D02*
X45749981Y-28698796D01*
X25180804Y-52704104D02*
X25189187Y-52752416D01*
X47043737Y-28670060D02*
X46995895Y-28680804D01*
X6616Y-69110156D02*
X17413Y-69182950D01*
X24796103Y-30896595D02*
X24834758Y-30926762D01*
X44829939Y-42056262D02*
X44843016Y-42009005D01*
X36852416Y-11810812D02*
X36901080Y-11804810D01*
X47631637Y-52343985D02*
X47657870Y-52385411D01*
X47798796Y-38350018D02*
X47795189Y-38398919D01*
X24395895Y-20119195D02*
X24443737Y-20129939D01*
X45604104Y-51919195D02*
X45652416Y-51910812D01*
X23052416Y-28689187D02*
X23004104Y-28680804D01*
X24907399Y-20392600D02*
X24941209Y-20428112D01*
X33383300Y-55276044D02*
X33428127Y-55295914D01*
X24490994Y-30743016D02*
X24537552Y-30758397D01*
X36328112Y-25141209D02*
X36292600Y-25107399D01*
X47356014Y-41468362D02*
X47396103Y-41496595D01*
X69481923Y-69875611D02*
X69545043Y-69837778D01*
X36019195Y-57395895D02*
X36010812Y-57347583D01*
X22219195Y-17295895D02*
X22210812Y-17247583D01*
X36709005Y-58156983D02*
X36662447Y-58141602D01*
X45701080Y-51904810D02*
X45749981Y-51901203D01*
X40077Y-721619D02*
X22196Y-793005D01*
X47798796Y-12749981D02*
X47800000Y-12799012D01*
X709826Y-69956658D02*
X721596Y-69959916D01*
X22909005Y-28656983D02*
X22862447Y-28641602D01*
X33980804Y-13995895D02*
X33970060Y-14043737D01*
X44968362Y-28256014D02*
X44942129Y-28214588D01*
X45285411Y-49757870D02*
X45243985Y-49731637D01*
X33980804Y-12604104D02*
X33989187Y-12652416D01*
X33831637Y-24956014D02*
X33803404Y-24996103D01*
X47798796Y-21049981D02*
X47800000Y-21099012D01*
X33923955Y-14183300D02*
X33904085Y-14228127D01*
X47183300Y-51976044D02*
X47228127Y-51995914D01*
X22909005Y-30743016D02*
X22956262Y-30729939D01*
X47657870Y-28214588D02*
X47631637Y-28256014D01*
X47603404Y-41703896D02*
X47631637Y-41743985D01*
X44858397Y-31362447D02*
X44876044Y-31316699D01*
X33290994Y-58156983D02*
X33243737Y-58170060D01*
X44876044Y-28083300D02*
X44858397Y-28037552D01*
X24250018Y-20101203D02*
X24298919Y-20104810D01*
X817049Y-69982586D02*
X889843Y-69993383D01*
X25180804Y-31504104D02*
X25189187Y-31552416D01*
X69624555Y-69780306D02*
X69634182Y-69772792D01*
X24973237Y-17734758D02*
X24941209Y-17771887D01*
X33471925Y-23517960D02*
X33514588Y-23542129D01*
X22204810Y-38398919D02*
X22201203Y-38350018D01*
X36365241Y-23626762D02*
X36403896Y-23596595D01*
X36196595Y-24996103D02*
X36168362Y-24956014D01*
X25200000Y-44587752D02*
X25200270Y-44598754D01*
X22862447Y-20158397D02*
X22909005Y-20143016D01*
X24871887Y-17841209D02*
X24834758Y-17873237D01*
X69831205Y-444576D02*
X69824173Y-434592D01*
X33634758Y-34226762D02*
X33671887Y-34258790D01*
X69959916Y-721596D02*
X69956658Y-709826D01*
X69460302Y-112831D02*
X69393777Y-81367D01*
X36043016Y-35290994D02*
X36029939Y-35243737D01*
X46850018Y-11801203D02*
X46898919Y-11804810D01*
X46850018Y-39298796D02*
X46800987Y-39300000D01*
X36058397Y-24062447D02*
X36076044Y-24016699D01*
X36196595Y-55603896D02*
X36226762Y-55565241D01*
X45165241Y-20326762D02*
X45203896Y-20296595D01*
X69982582Y-817025D02*
X69980494Y-804992D01*
X25031637Y-28256014D02*
X25003404Y-28296103D01*
X22458790Y-28371887D02*
X22426762Y-28334758D01*
X24714588Y-52042129D02*
X24756014Y-52068362D01*
X33098919Y-25395189D02*
X33050018Y-25398796D01*
X33596103Y-58003404D02*
X33556014Y-58031637D01*
X22210812Y-38447583D02*
X22204810Y-38398919D01*
X22643985Y-11968362D02*
X22685411Y-11942129D01*
X47043737Y-58170060D02*
X46995895Y-58180804D01*
X25057870Y-17614588D02*
X25031637Y-17656014D01*
X45203896Y-20296595D02*
X45243985Y-20268362D01*
X22643985Y-49731637D02*
X22603896Y-49703404D01*
X47043737Y-39270060D02*
X46995895Y-39280804D01*
X47631637Y-17656014D02*
X47603404Y-17696103D01*
X36010812Y-45452416D02*
X36019195Y-45404104D01*
X22204810Y-27798919D02*
X22201203Y-27750018D01*
X25104085Y-20671872D02*
X25123955Y-20716699D01*
X69977808Y-69206971D02*
X69980484Y-69195055D01*
X601Y-987766D02*
X0Y-1012247D01*
X33098919Y-46595189D02*
X33050018Y-46598796D01*
X36142129Y-35514588D02*
X36117960Y-35471925D01*
X22229939Y-31456262D02*
X22243016Y-31409005D01*
X24796103Y-52096595D02*
X24834758Y-52126762D01*
X36999012Y-34000000D02*
X44787727Y-34000000D01*
X47798796Y-48950018D02*
X47795189Y-48998919D01*
X44804810Y-48998919D02*
X44801203Y-48950018D01*
X46850018Y-41301203D02*
X46898919Y-41304810D01*
X47780804Y-49095895D02*
X47770060Y-49143737D01*
X33741209Y-57871887D02*
X33707399Y-57907399D01*
X47183300Y-18023955D02*
X47137552Y-18041602D01*
X33147583Y-34010812D02*
X33195895Y-34019195D01*
X23052416Y-39289187D02*
X23004104Y-39280804D01*
X33773237Y-44965241D02*
X33803404Y-45003896D01*
X47770060Y-12556262D02*
X47780804Y-12604104D01*
X45203896Y-41496595D02*
X45243985Y-41468362D01*
X24871887Y-52158790D02*
X24907399Y-52192600D01*
X45058790Y-49571887D02*
X45026762Y-49534758D01*
X33098919Y-11804810D02*
X33147583Y-11810812D01*
X24714588Y-30842129D02*
X24756014Y-30868362D01*
X33803404Y-46196103D02*
X33773237Y-46234758D01*
X36196595Y-23803896D02*
X36226762Y-23765241D01*
X44895914Y-38728127D02*
X44876044Y-38683300D01*
X33741209Y-35671887D02*
X33707399Y-35707399D01*
X45128112Y-41558790D02*
X45165241Y-41526762D01*
X33243737Y-35970060D02*
X33195895Y-35980804D01*
X33147583Y-14789187D02*
X33098919Y-14795189D01*
X23052416Y-11810812D02*
X23101080Y-11804810D01*
X44800000Y-33987727D02*
X44800000Y-31699012D01*
X47723955Y-57583300D02*
X47704085Y-57628127D01*
X47471887Y-12058790D02*
X47507399Y-12092600D01*
X36095914Y-46028127D02*
X36076044Y-45983300D01*
X22909005Y-20143016D02*
X22956262Y-20129939D01*
X24298919Y-30704810D02*
X24347583Y-30710812D01*
X47682039Y-41828074D02*
X47704085Y-41871872D01*
X22728074Y-30817960D02*
X22771872Y-30795914D01*
X33882039Y-23928074D02*
X33904085Y-23971872D01*
X33707399Y-23692600D02*
X33741209Y-23728112D01*
X33831637Y-23843985D02*
X33857870Y-23885411D01*
X45026762Y-20465241D02*
X45058790Y-20428112D01*
X46995895Y-41319195D02*
X47043737Y-41329939D01*
X22685411Y-17957870D02*
X22643985Y-17931637D01*
X24443737Y-20129939D02*
X24490994Y-20143016D01*
X24796103Y-17903404D02*
X24756014Y-17931637D01*
X25200270Y-36001245D02*
X25200000Y-36012247D01*
X22219195Y-20904104D02*
X22229939Y-20856262D01*
X33147583Y-11810812D02*
X33195895Y-11819195D01*
X33923955Y-57583300D02*
X33904085Y-57628127D01*
X36000000Y-45600987D02*
X36000000Y-45599012D01*
X24583300Y-39223955D02*
X24537552Y-39241602D01*
X33980804Y-45404104D02*
X33989187Y-45452416D01*
X44843016Y-38590994D02*
X44829939Y-38543737D01*
X24973237Y-31065241D02*
X25003404Y-31103896D01*
X22426762Y-49534758D02*
X22396595Y-49496103D01*
X168794Y-69555423D02*
X175826Y-69565407D01*
X24756014Y-28531637D02*
X24714588Y-28557870D01*
X45462447Y-39241602D02*
X45416699Y-39223955D01*
X47271925Y-52017960D02*
X47314588Y-52042129D01*
X33998796Y-45650018D02*
X33995189Y-45698919D01*
X24490994Y-51943016D02*
X24537552Y-51958397D01*
X22528112Y-52158790D02*
X22565241Y-52126762D01*
X606244Y-69918642D02*
X617409Y-69923591D01*
X46947583Y-39289187D02*
X46898919Y-39295189D01*
X44843016Y-52609005D02*
X44858397Y-52562447D01*
X22243016Y-27990994D02*
X22229939Y-27943737D01*
X606222Y-81367D02*
X539697Y-112831D01*
X45604104Y-49880804D02*
X45556262Y-49870060D01*
X22258397Y-20762447D02*
X22276044Y-20716699D01*
X24941209Y-31028112D02*
X24973237Y-31065241D01*
X793028Y-69977808D02*
X804944Y-69980484D01*
X33773237Y-25034758D02*
X33741209Y-25071887D01*
X24200987Y-28700000D02*
X23199012Y-28700000D01*
X44787752Y-33999999D02*
X44798754Y-33999729D01*
X44801203Y-21049981D02*
X44804810Y-21001080D01*
X47356014Y-17931637D02*
X47314588Y-17957870D01*
X47183300Y-11876044D02*
X47228127Y-11895914D01*
X47183300Y-58123955D02*
X47137552Y-58141602D01*
X69980494Y-69195007D02*
X69982582Y-69182974D01*
X47770060Y-20856262D02*
X47780804Y-20904104D01*
X36196595Y-14396103D02*
X36168362Y-14356014D01*
X25003404Y-20503896D02*
X25031637Y-20543985D01*
X987742Y-602D02*
X914240Y-4213D01*
X45092600Y-41592600D02*
X45128112Y-41558790D01*
X36095914Y-45171872D02*
X36117960Y-45128074D01*
X33803404Y-12203896D02*
X33831637Y-12243985D01*
X33634758Y-44826762D02*
X33671887Y-44858790D01*
X36485411Y-44742129D02*
X36528074Y-44717960D01*
X36662447Y-35941602D02*
X36616699Y-35923955D01*
X33803404Y-34403896D02*
X33831637Y-34443985D01*
X36443985Y-11968362D02*
X36485411Y-11942129D01*
X22862447Y-49841602D02*
X22816699Y-49823955D01*
X22276044Y-12416699D02*
X22295914Y-12371872D01*
X45243985Y-20268362D02*
X45285411Y-20242129D01*
X45416699Y-30776044D02*
X45462447Y-30758397D01*
X36117960Y-45128074D02*
X36142129Y-45085411D01*
X45604104Y-41319195D02*
X45652416Y-41310812D01*
X24250018Y-39298796D02*
X24200987Y-39300000D01*
X47507399Y-49607399D02*
X47471887Y-49641209D01*
X23004104Y-49880804D02*
X22956262Y-49870060D01*
X36019195Y-56004104D02*
X36029939Y-55956262D01*
X47756983Y-49190994D02*
X47741602Y-49237552D01*
X33707399Y-55492600D02*
X33741209Y-55528112D01*
X33803404Y-14396103D02*
X33773237Y-14434758D01*
X22258397Y-38637552D02*
X22243016Y-38590994D01*
X22295914Y-38728127D02*
X22276044Y-38683300D01*
X47573237Y-38934758D02*
X47541209Y-38971887D01*
X69097963Y-5112D02*
X69085783Y-4214D01*
X36901080Y-44604810D02*
X36949981Y-44601203D01*
X23052416Y-18089187D02*
X23004104Y-18080804D01*
X47271925Y-11917960D02*
X47314588Y-11942129D01*
X69206994Y-69977803D02*
X69278380Y-69959922D01*
X36095914Y-35428127D02*
X36076044Y-35383300D01*
X44829939Y-20856262D02*
X44843016Y-20809005D01*
X22317960Y-17571925D02*
X22295914Y-17528127D01*
X46898919Y-41304810D02*
X46947583Y-41310812D01*
X47507399Y-57907399D02*
X47471887Y-57941209D01*
X33989187Y-45452416D02*
X33995189Y-45501080D01*
X69780306Y-375444D02*
X69772792Y-365817D01*
X24907399Y-41592600D02*
X24941209Y-41628112D01*
X24443737Y-30729939D02*
X24490994Y-30743016D01*
X36004810Y-45698919D02*
X36001203Y-45650018D01*
X902036Y-69994887D02*
X914216Y-69995785D01*
X24941209Y-38971887D02*
X24907399Y-39007399D01*
X69824173Y-69565407D02*
X69831205Y-69555423D01*
X36485411Y-35857870D02*
X36443985Y-35831637D01*
X33980804Y-24595895D02*
X33970060Y-24643737D01*
X44829939Y-31456262D02*
X44843016Y-31409005D01*
X36365241Y-34226762D02*
X36403896Y-34196595D01*
X36196595Y-45003896D02*
X36226762Y-44965241D01*
X914240Y-69995786D02*
X987742Y-69999397D01*
X24490994Y-39256983D02*
X24443737Y-39270060D01*
X24298919Y-39295189D02*
X24250018Y-39298796D01*
X69698013Y-284651D02*
X69643486Y-235231D01*
X44829939Y-38543737D02*
X44819195Y-38495895D01*
X45026762Y-41665241D02*
X45058790Y-41628112D01*
X33383300Y-23476044D02*
X33428127Y-23495914D01*
X528723Y-118356D02*
X518098Y-124375D01*
X44804810Y-27798919D02*
X44801203Y-27750018D01*
X36010812Y-24252416D02*
X36019195Y-24204104D01*
X45462447Y-51958397D02*
X45509005Y-51943016D01*
X47780804Y-17295895D02*
X47770060Y-17343737D01*
X36043016Y-14090994D02*
X36029939Y-14043737D01*
X69698031Y-69715331D02*
X69706876Y-69706910D01*
X22862447Y-58141602D02*
X22816699Y-58123955D01*
X47434758Y-12026762D02*
X47471887Y-12058790D01*
X22492600Y-39007399D02*
X22458790Y-38971887D01*
X47090994Y-49856983D02*
X47043737Y-49870060D01*
X47657870Y-38814588D02*
X47631637Y-38856014D01*
X33050018Y-34001203D02*
X33098919Y-34004810D01*
X22603896Y-17903404D02*
X22565241Y-17873237D01*
X45058790Y-28371887D02*
X45026762Y-28334758D01*
X33995189Y-24498919D02*
X33989187Y-24547583D01*
X23149981Y-58198796D02*
X23101080Y-58195189D01*
X47770060Y-27943737D02*
X47756983Y-27990994D01*
X33956983Y-57490994D02*
X33941602Y-57537552D01*
X33707399Y-25107399D02*
X33671887Y-25141209D01*
X36004810Y-45501080D02*
X36010812Y-45452416D01*
X47314588Y-41442129D02*
X47356014Y-41468362D01*
X22200000Y-57200987D02*
X22200000Y-52899012D01*
X33000987Y-34000000D02*
X33050018Y-34001203D01*
X25141602Y-20762447D02*
X25156983Y-20809005D01*
X36901080Y-34004810D02*
X36949981Y-34001203D01*
X22643985Y-17931637D02*
X22603896Y-17903404D01*
X25156983Y-38590994D02*
X25141602Y-38637552D01*
X24973237Y-41665241D02*
X25003404Y-41703896D01*
X22862447Y-30758397D02*
X22909005Y-30743016D01*
X33671887Y-34258790D02*
X33707399Y-34292600D01*
X36485411Y-14657870D02*
X36443985Y-14631637D01*
X23149981Y-28698796D02*
X23101080Y-28695189D01*
X43341Y-709826D02*
X40083Y-721596D01*
X46898919Y-51904810D02*
X46947583Y-51910812D01*
X44819195Y-52704104D02*
X44829939Y-52656262D01*
X44810812Y-20952416D02*
X44819195Y-20904104D01*
X69928005Y-628848D02*
X69923610Y-617454D01*
X47795189Y-21001080D02*
X47798796Y-21049981D01*
X24796103Y-41496595D02*
X24834758Y-41526762D01*
X47798796Y-17150018D02*
X47795189Y-17198919D01*
X47795189Y-48998919D02*
X47789187Y-49047583D01*
X24583300Y-30776044D02*
X24628127Y-30795914D01*
X36010812Y-56052416D02*
X36019195Y-56004104D01*
X24834758Y-41526762D02*
X24871887Y-41558790D01*
X36142129Y-24914588D02*
X36117960Y-24871925D01*
X22728074Y-20217960D02*
X22771872Y-20195914D01*
X45749981Y-28698796D02*
X45701080Y-28695189D01*
X33556014Y-35831637D02*
X33514588Y-35857870D01*
X22342129Y-31185411D02*
X22368362Y-31143985D01*
X45556262Y-39270060D02*
X45509005Y-39256983D01*
X33290994Y-44643016D02*
X33337552Y-44658397D01*
X25170060Y-38543737D02*
X25156983Y-38590994D01*
X33000987Y-55200000D02*
X33050018Y-55201203D01*
X36709005Y-23443016D02*
X36756262Y-23429939D01*
X44798754Y-46600270D02*
X44787752Y-46600000D01*
X36001203Y-35050018D02*
X36000000Y-35000987D01*
X36901080Y-55204810D02*
X36949981Y-55201203D01*
X36001203Y-34949981D02*
X36004810Y-34901080D01*
X44799729Y-44598754D02*
X44799999Y-44587752D01*
X45371872Y-28604085D02*
X45328074Y-28582039D01*
X47800000Y-27700987D02*
X47798796Y-27750018D01*
X33050018Y-23401203D02*
X33098919Y-23404810D01*
X25189187Y-42152416D02*
X25195189Y-42201080D01*
X46850018Y-18098796D02*
X46800987Y-18100000D01*
X44798754Y-25400270D02*
X44787752Y-25400000D01*
X69278403Y-69959916D02*
X69290173Y-69956658D01*
X46995895Y-51919195D02*
X47043737Y-51929939D01*
X698160Y-47194D02*
X628871Y-71985D01*
X22396595Y-31103896D02*
X22426762Y-31065241D01*
X47573237Y-41665241D02*
X47603404Y-41703896D01*
X24907399Y-30992600D02*
X24941209Y-31028112D01*
X44858397Y-41962447D02*
X44876044Y-41916699D01*
X47800000Y-52899012D02*
X47800000Y-57200987D01*
X47541209Y-38971887D02*
X47507399Y-39007399D01*
X33337552Y-58141602D02*
X33290994Y-58156983D01*
X24671925Y-20217960D02*
X24714588Y-20242129D01*
X47228127Y-28604085D02*
X47183300Y-28623955D01*
X24628127Y-39204085D02*
X24583300Y-39223955D01*
X22204810Y-21001080D02*
X22210812Y-20952416D01*
X33741209Y-34328112D02*
X33773237Y-34365241D01*
X47682039Y-49371925D02*
X47657870Y-49414588D01*
X36485411Y-34142129D02*
X36528074Y-34117960D01*
X69634182Y-227207D02*
X69624555Y-219693D01*
X45701080Y-39295189D02*
X45652416Y-39289187D01*
X22219195Y-42104104D02*
X22229939Y-42056262D01*
X46947583Y-41310812D02*
X46995895Y-41319195D01*
X47741602Y-31362447D02*
X47756983Y-31409005D01*
X45701080Y-30704810D02*
X45749981Y-30701203D01*
X47780804Y-27895895D02*
X47770060Y-27943737D01*
X22492600Y-20392600D02*
X22528112Y-20358790D01*
X36756262Y-46570060D02*
X36709005Y-46556983D01*
X25200000Y-17100987D02*
X25198796Y-17150018D01*
X45799012Y-51900000D02*
X46800987Y-51900000D01*
X22643985Y-30868362D02*
X22685411Y-30842129D01*
X47043737Y-30729939D02*
X47090994Y-30743016D01*
X33195895Y-35980804D02*
X33147583Y-35989187D01*
X47471887Y-20358790D02*
X47507399Y-20392600D01*
X69875624Y-69481901D02*
X69881643Y-69471276D01*
X23149981Y-20101203D02*
X23199012Y-20100000D01*
X33147583Y-55210812D02*
X33195895Y-55219195D01*
X36058397Y-45937552D02*
X36043016Y-45890994D01*
X22342129Y-49414588D02*
X22317960Y-49371925D01*
X36804104Y-11819195D02*
X36852416Y-11810812D01*
X24200987Y-18100000D02*
X23199012Y-18100000D01*
X356513Y-235231D02*
X301986Y-284651D01*
X219693Y-69624555D02*
X227207Y-69634182D01*
X33596103Y-14603404D02*
X33556014Y-14631637D01*
X22771872Y-49804085D02*
X22728074Y-49782039D01*
X36117960Y-46071925D02*
X36095914Y-46028127D01*
X33707399Y-44892600D02*
X33741209Y-44928112D01*
X36365241Y-35773237D02*
X36328112Y-35741209D01*
X22219195Y-49095895D02*
X22210812Y-49047583D01*
X46995895Y-58180804D02*
X46947583Y-58189187D01*
X69393777Y-69918632D02*
X69460302Y-69887168D01*
X793005Y-22196D02*
X721619Y-40077D01*
X36095914Y-12371872D02*
X36117960Y-12328074D01*
X69634220Y-69772761D02*
X69643468Y-69764785D01*
X24583300Y-41376044D02*
X24628127Y-41395914D01*
X33471925Y-14682039D02*
X33428127Y-14704085D01*
X33514588Y-34142129D02*
X33556014Y-34168362D01*
X44968362Y-41743985D02*
X44996595Y-41703896D01*
X47800000Y-31699012D02*
X47800000Y-38300987D01*
X33904085Y-23971872D02*
X33923955Y-24016699D01*
X47434758Y-57973237D02*
X47396103Y-58003404D01*
X33428127Y-23495914D02*
X33471925Y-23517960D01*
X44799999Y-36012247D02*
X44799729Y-36001245D01*
X22210812Y-31552416D02*
X22219195Y-31504104D01*
X47770060Y-42056262D02*
X47780804Y-42104104D01*
X33882039Y-35471925D02*
X33857870Y-35514588D01*
X36528074Y-46482039D02*
X36485411Y-46457870D01*
X69278380Y-40077D02*
X69206994Y-22196D01*
X22643985Y-58031637D02*
X22603896Y-58003404D01*
X36616699Y-46523955D02*
X36571872Y-46504085D01*
X25104085Y-17528127D02*
X25082039Y-17571925D01*
X69923591Y-617409D02*
X69918642Y-606244D01*
X47271925Y-28582039D02*
X47228127Y-28604085D01*
X33671887Y-25141209D02*
X33634758Y-25173237D01*
X22956262Y-49870060D02*
X22909005Y-49856983D01*
X22243016Y-42009005D02*
X22258397Y-41962447D01*
X36443985Y-46431637D02*
X36403896Y-46403404D01*
X44858397Y-49237552D02*
X44843016Y-49190994D01*
X617454Y-69923610D02*
X628848Y-69928005D01*
X33634758Y-57973237D02*
X33596103Y-58003404D01*
X46850018Y-30701203D02*
X46898919Y-30704810D01*
X36709005Y-25356983D02*
X36662447Y-25341602D01*
X23199012Y-20100000D02*
X24200987Y-20100000D01*
X43355Y-69290220D02*
X47186Y-69301816D01*
X25200000Y-14812272D02*
X25200000Y-17100987D01*
X44895914Y-20671872D02*
X44917960Y-20628074D01*
X25180804Y-20904104D02*
X25189187Y-20952416D01*
X24834758Y-20326762D02*
X24871887Y-20358790D01*
X24537552Y-51958397D02*
X24583300Y-51976044D01*
X24628127Y-30795914D02*
X24671925Y-30817960D01*
X36949981Y-34001203D02*
X36999012Y-34000000D01*
X25141602Y-38637552D02*
X25123955Y-38683300D01*
X44858397Y-28037552D02*
X44843016Y-27990994D01*
X24537552Y-41358397D02*
X24583300Y-41376044D01*
X47541209Y-49571887D02*
X47507399Y-49607399D01*
X24907399Y-17807399D02*
X24871887Y-17841209D01*
X22342129Y-41785411D02*
X22368362Y-41743985D01*
X23052416Y-49889187D02*
X23004104Y-49880804D01*
X25195189Y-38398919D02*
X25189187Y-38447583D01*
X22426762Y-31065241D02*
X22458790Y-31028112D01*
X33634758Y-46373237D02*
X33596103Y-46403404D01*
X33980804Y-34804104D02*
X33989187Y-34852416D01*
X23149981Y-30701203D02*
X23199012Y-30700000D01*
X47741602Y-38637552D02*
X47723955Y-38683300D01*
X45799012Y-30700000D02*
X46800987Y-30700000D01*
X36019195Y-34804104D02*
X36029939Y-34756262D01*
X47723955Y-38683300D02*
X47704085Y-38728127D01*
X22229939Y-52656262D02*
X22243016Y-52609005D01*
X24583300Y-18023955D02*
X24537552Y-18041602D01*
X47603404Y-52303896D02*
X47631637Y-52343985D01*
X33941602Y-35337552D02*
X33923955Y-35383300D01*
X33050018Y-11801203D02*
X33098919Y-11804810D01*
X45371872Y-41395914D02*
X45416699Y-41376044D01*
X69471232Y-118333D02*
X69460324Y-112842D01*
X44858397Y-20762447D02*
X44876044Y-20716699D01*
X44876044Y-49283300D02*
X44858397Y-49237552D01*
X69706876Y-293089D02*
X69698031Y-284668D01*
X47573237Y-31065241D02*
X47603404Y-31103896D01*
X47704085Y-12371872D02*
X47723955Y-12416699D01*
X22258397Y-12462447D02*
X22276044Y-12416699D01*
X36365241Y-14573237D02*
X36328112Y-14541209D01*
X44810812Y-49047583D02*
X44804810Y-48998919D01*
X36258790Y-12128112D02*
X36292600Y-12092600D01*
X44968362Y-49456014D02*
X44942129Y-49414588D01*
X33989187Y-13947583D02*
X33980804Y-13995895D01*
X36226762Y-35634758D02*
X36196595Y-35596103D01*
X36029939Y-55956262D02*
X36043016Y-55909005D01*
X33980804Y-45795895D02*
X33970060Y-45843737D01*
X22816699Y-41376044D02*
X22862447Y-41358397D01*
X23199012Y-18100000D02*
X23149981Y-18098796D01*
X33596103Y-11996595D02*
X33634758Y-12026762D01*
X22204810Y-17198919D02*
X22201203Y-17150018D01*
X47271925Y-17982039D02*
X47228127Y-18004085D01*
X24583300Y-49823955D02*
X24537552Y-49841602D01*
X44800000Y-38300987D02*
X44800000Y-36012272D01*
X47704085Y-49328127D02*
X47682039Y-49371925D01*
X69881643Y-528723D02*
X69875624Y-518098D01*
X44810812Y-42152416D02*
X44819195Y-42104104D01*
X36010812Y-45747583D02*
X36004810Y-45698919D01*
X47756983Y-31409005D02*
X47770060Y-31456262D01*
X36292600Y-23692600D02*
X36328112Y-23658790D01*
X33995189Y-56101080D02*
X33998796Y-56149981D01*
X24671925Y-39182039D02*
X24628127Y-39204085D01*
X47090994Y-20143016D02*
X47137552Y-20158397D01*
X36571872Y-34095914D02*
X36616699Y-34076044D01*
X47800000Y-48900987D02*
X47798796Y-48950018D01*
X47471887Y-49641209D02*
X47434758Y-49673237D01*
X36000000Y-56199012D02*
X36001203Y-56149981D01*
X47704085Y-31271872D02*
X47723955Y-31316699D01*
X45243985Y-49731637D02*
X45203896Y-49703404D01*
X33471925Y-34117960D02*
X33514588Y-34142129D01*
X36117960Y-55728074D02*
X36142129Y-55685411D01*
X24537552Y-20158397D02*
X24583300Y-20176044D01*
X23149981Y-39298796D02*
X23101080Y-39295189D01*
X24796103Y-20296595D02*
X24834758Y-20326762D01*
X69994887Y-69097963D02*
X69995785Y-69085783D01*
X36076044Y-57583300D02*
X36058397Y-57537552D01*
X33773237Y-57834758D02*
X33741209Y-57871887D01*
X24395895Y-51919195D02*
X24443737Y-51929939D01*
X69918632Y-606222D02*
X69887168Y-539697D01*
X33995189Y-45501080D02*
X33998796Y-45549981D01*
X24756014Y-17931637D02*
X24714588Y-17957870D01*
X22342129Y-17614588D02*
X22317960Y-17571925D01*
X36528074Y-35882039D02*
X36485411Y-35857870D01*
X33000987Y-11800000D02*
X33050018Y-11801203D01*
X36949981Y-58198796D02*
X36901080Y-58195189D01*
X44876044Y-20716699D02*
X44895914Y-20671872D01*
X47507399Y-41592600D02*
X47541209Y-41628112D01*
X33671887Y-46341209D02*
X33634758Y-46373237D01*
X162221Y-454956D02*
X124388Y-518076D01*
X47137552Y-41358397D02*
X47183300Y-41376044D01*
X25104085Y-52471872D02*
X25123955Y-52516699D01*
X69956658Y-69290173D02*
X69959916Y-69278403D01*
X901987Y-5117D02*
X889867Y-6612D01*
X45799012Y-49900000D02*
X45749981Y-49898796D01*
X36328112Y-14541209D02*
X36292600Y-14507399D01*
X22229939Y-57443737D02*
X22219195Y-57395895D01*
X24395895Y-49880804D02*
X24347583Y-49889187D01*
X44804810Y-38398919D02*
X44801203Y-38350018D01*
X24395895Y-41319195D02*
X24443737Y-41329939D01*
X33941602Y-45937552D02*
X33923955Y-45983300D01*
X47780804Y-57395895D02*
X47770060Y-57443737D01*
X47682039Y-12328074D02*
X47704085Y-12371872D01*
X33000987Y-14800000D02*
X25212272Y-14800000D01*
X24490994Y-49856983D02*
X24443737Y-49870060D01*
X22956262Y-11829939D02*
X23004104Y-11819195D01*
X36403896Y-25203404D02*
X36365241Y-25173237D01*
X33989187Y-24547583D02*
X33980804Y-24595895D01*
X33383300Y-58123955D02*
X33337552Y-58141602D01*
X47682039Y-17571925D02*
X47657870Y-17614588D01*
X539675Y-112842D02*
X528767Y-118333D01*
X24200987Y-39300000D02*
X23199012Y-39300000D01*
X24941209Y-17771887D02*
X24907399Y-17807399D01*
X45328074Y-49782039D02*
X45285411Y-49757870D01*
X25200000Y-36012272D02*
X25200000Y-38300987D01*
X33803404Y-24996103D02*
X33773237Y-25034758D01*
X36852416Y-25389187D02*
X36804104Y-25380804D01*
X45165241Y-30926762D02*
X45203896Y-30896595D01*
X23004104Y-30719195D02*
X23052416Y-30710812D01*
X33383300Y-14723955D02*
X33337552Y-14741602D01*
X33337552Y-14741602D02*
X33290994Y-14756983D01*
X36001203Y-13850018D02*
X36000000Y-13800987D01*
X24756014Y-49731637D02*
X24714588Y-49757870D01*
X4214Y-69085783D02*
X5112Y-69097963D01*
X69393755Y-81357D02*
X69382590Y-76408D01*
X47603404Y-28296103D02*
X47573237Y-28334758D01*
X33741209Y-23728112D02*
X33773237Y-23765241D01*
X33970060Y-35243737D02*
X33956983Y-35290994D01*
X22201203Y-27750018D02*
X22200000Y-27700987D01*
X69999398Y-69012233D02*
X69999999Y-68987752D01*
X24628127Y-41395914D02*
X24671925Y-41417960D01*
X45701080Y-20104810D02*
X45749981Y-20101203D01*
X36076044Y-34616699D02*
X36095914Y-34571872D01*
X36949981Y-23401203D02*
X36999012Y-23400000D01*
X33147583Y-35989187D02*
X33098919Y-35995189D01*
X33050018Y-55201203D02*
X33098919Y-55204810D01*
X36029939Y-45843737D02*
X36019195Y-45795895D01*
X25141602Y-28037552D02*
X25123955Y-28083300D01*
X36662447Y-34058397D02*
X36709005Y-34043016D01*
X33904085Y-55771872D02*
X33923955Y-55816699D01*
X36168362Y-35556014D02*
X36142129Y-35514588D01*
X22342129Y-20585411D02*
X22368362Y-20543985D01*
X33050018Y-25398796D02*
X33000987Y-25400000D01*
X518076Y-124388D02*
X454956Y-162221D01*
X33956983Y-45309005D02*
X33970060Y-45356262D01*
X36328112Y-35741209D02*
X36292600Y-35707399D01*
X24200987Y-49900000D02*
X23199012Y-49900000D01*
X33923955Y-55816699D02*
X33941602Y-55862447D01*
X36662447Y-11858397D02*
X36709005Y-11843016D01*
X36328112Y-57941209D02*
X36292600Y-57907399D01*
X33970060Y-24156262D02*
X33980804Y-24204104D01*
X24871887Y-41558790D02*
X24907399Y-41592600D01*
X33831637Y-57756014D02*
X33803404Y-57796103D01*
X22219195Y-31504104D02*
X22229939Y-31456262D01*
X69012233Y-601D02*
X68987752Y0D01*
X45604104Y-39280804D02*
X45556262Y-39270060D01*
X36949981Y-11801203D02*
X36999012Y-11800000D01*
X69195007Y-19505D02*
X69182974Y-17417D01*
X24834758Y-28473237D02*
X24796103Y-28503404D01*
X45128112Y-39041209D02*
X45092600Y-39007399D01*
X46850018Y-51901203D02*
X46898919Y-51904810D01*
X23004104Y-39280804D02*
X22956262Y-39270060D01*
X46850018Y-28698796D02*
X46800987Y-28700000D01*
X45285411Y-30842129D02*
X45328074Y-30817960D01*
X47356014Y-20268362D02*
X47396103Y-20296595D01*
X36485411Y-58057870D02*
X36443985Y-58031637D01*
X22295914Y-28128127D02*
X22276044Y-28083300D01*
X33857870Y-24914588D02*
X33831637Y-24956014D01*
X33428127Y-35904085D02*
X33383300Y-35923955D01*
X25123955Y-38683300D02*
X25104085Y-38728127D01*
X22771872Y-51995914D02*
X22816699Y-51976044D01*
X36226762Y-12165241D02*
X36258790Y-12128112D01*
X36058397Y-12462447D02*
X36076044Y-12416699D01*
X45462447Y-28641602D02*
X45416699Y-28623955D01*
X24395895Y-28680804D02*
X24347583Y-28689187D01*
X22219195Y-38495895D02*
X22210812Y-38447583D01*
X25104085Y-31271872D02*
X25123955Y-31316699D01*
X46800987Y-41300000D02*
X46850018Y-41301203D01*
X47603404Y-17696103D02*
X47573237Y-17734758D01*
X33195895Y-14780804D02*
X33147583Y-14789187D01*
X45026762Y-52265241D02*
X45058790Y-52228112D01*
X36004810Y-24301080D02*
X36010812Y-24252416D01*
X33741209Y-12128112D02*
X33773237Y-12165241D01*
X24250018Y-18098796D02*
X24200987Y-18100000D01*
X33195895Y-11819195D02*
X33243737Y-11829939D01*
X36756262Y-35970060D02*
X36709005Y-35956983D01*
X69460324Y-69887157D02*
X69471232Y-69881666D01*
X36709005Y-35956983D02*
X36662447Y-35941602D01*
X33428127Y-44695914D02*
X33471925Y-44717960D01*
X36709005Y-11843016D02*
X36756262Y-11829939D01*
X44819195Y-20904104D02*
X44829939Y-20856262D01*
X227207Y-365817D02*
X219693Y-375444D01*
X46947583Y-49889187D02*
X46898919Y-49895189D01*
X44829939Y-17343737D02*
X44819195Y-17295895D01*
X47137552Y-58141602D02*
X47090994Y-58156983D01*
X45749981Y-39298796D02*
X45701080Y-39295189D01*
X33904085Y-57628127D02*
X33882039Y-57671925D01*
X168767Y-444617D02*
X162233Y-454935D01*
X22426762Y-17734758D02*
X22396595Y-17696103D01*
X69085759Y-4213D02*
X69012257Y-602D01*
X47507399Y-28407399D02*
X47471887Y-28441209D01*
X47396103Y-52096595D02*
X47434758Y-52126762D01*
X36528074Y-11917960D02*
X36571872Y-11895914D01*
X36999012Y-14800000D02*
X36949981Y-14798796D01*
X22368362Y-41743985D02*
X22396595Y-41703896D01*
X36004810Y-13898919D02*
X36001203Y-13850018D01*
X36804104Y-14780804D02*
X36756262Y-14770060D01*
X45243985Y-28531637D02*
X45203896Y-28503404D01*
X24973237Y-38934758D02*
X24941209Y-38971887D01*
X434592Y-69824173D02*
X444576Y-69831205D01*
X44876044Y-31316699D02*
X44895914Y-31271872D01*
X24298919Y-51904810D02*
X24347583Y-51910812D01*
X22956262Y-39270060D02*
X22909005Y-39256983D01*
X36029939Y-14043737D02*
X36019195Y-13995895D01*
X33428127Y-55295914D02*
X33471925Y-55317960D01*
X36901080Y-23404810D02*
X36949981Y-23401203D01*
X25198796Y-48950018D02*
X25195189Y-48998919D01*
X47780804Y-31504104D02*
X47789187Y-31552416D01*
X22643985Y-41468362D02*
X22685411Y-41442129D01*
X36901080Y-35995189D02*
X36852416Y-35989187D01*
X33998796Y-56149981D02*
X34000000Y-56199012D01*
X36616699Y-34076044D02*
X36662447Y-34058397D01*
X33941602Y-12462447D02*
X33956983Y-12509005D01*
X69959922Y-69278380D02*
X69977803Y-69206994D01*
X36019195Y-24204104D02*
X36029939Y-24156262D01*
X33923955Y-12416699D02*
X33941602Y-12462447D01*
X45165241Y-17873237D02*
X45128112Y-17841209D01*
X33998796Y-57250018D02*
X33995189Y-57298919D01*
X47396103Y-20296595D02*
X47434758Y-20326762D01*
X71985Y-628871D02*
X47194Y-698160D01*
X46995895Y-39280804D02*
X46947583Y-39289187D01*
X36528074Y-23517960D02*
X36571872Y-23495914D01*
X45092600Y-28407399D02*
X45058790Y-28371887D01*
X356531Y-69764785D02*
X365779Y-69772761D01*
X36168362Y-14356014D02*
X36142129Y-14314588D01*
X24443737Y-18070060D02*
X24395895Y-18080804D01*
X33882039Y-46071925D02*
X33857870Y-46114588D01*
X36403896Y-44796595D02*
X36443985Y-44768362D01*
X22243016Y-17390994D02*
X22229939Y-17343737D01*
X47137552Y-51958397D02*
X47183300Y-51976044D01*
X45652416Y-41310812D02*
X45701080Y-41304810D01*
X33050018Y-44601203D02*
X33098919Y-44604810D01*
X36076044Y-35383300D02*
X36058397Y-35337552D01*
X47271925Y-58082039D02*
X47228127Y-58104085D01*
X24834758Y-30926762D02*
X24871887Y-30958790D01*
X33980804Y-24204104D02*
X33989187Y-24252416D01*
X36168362Y-24956014D02*
X36142129Y-24914588D01*
X22210812Y-17247583D02*
X22204810Y-17198919D01*
X22492600Y-12092600D02*
X22528112Y-12058790D01*
X33147583Y-58189187D02*
X33098919Y-58195189D01*
X45416699Y-41376044D02*
X45462447Y-41358397D01*
X33383300Y-44676044D02*
X33428127Y-44695914D01*
X47723955Y-49283300D02*
X47704085Y-49328127D01*
X47541209Y-17771887D02*
X47507399Y-17807399D01*
X301968Y-284668D02*
X293123Y-293089D01*
X25123955Y-52516699D02*
X25141602Y-52562447D01*
X47631637Y-57756014D02*
X47603404Y-57796103D01*
X36001203Y-57250018D02*
X36000000Y-57200987D01*
X33831637Y-35556014D02*
X33803404Y-35596103D01*
X36000000Y-24400987D02*
X36000000Y-24399012D01*
X69824158Y-434572D02*
X69780321Y-375464D01*
X22528112Y-12058790D02*
X22565241Y-12026762D01*
X36010812Y-34852416D02*
X36019195Y-34804104D01*
X33514588Y-23542129D02*
X33556014Y-23568362D01*
X45416699Y-18023955D02*
X45371872Y-18004085D01*
X804944Y-19515D02*
X793028Y-22191D01*
X36804104Y-23419195D02*
X36852416Y-23410812D01*
X33956983Y-24690994D02*
X33941602Y-24737552D01*
X47789187Y-17247583D02*
X47780804Y-17295895D01*
X47789187Y-49047583D02*
X47780804Y-49095895D01*
X44858397Y-52562447D02*
X44876044Y-52516699D01*
X23101080Y-49895189D02*
X23052416Y-49889187D01*
X47800000Y-57200987D02*
X47798796Y-57250018D01*
X47434758Y-41526762D02*
X47471887Y-41558790D01*
X47043737Y-49870060D02*
X46995895Y-49880804D01*
X33243737Y-14770060D02*
X33195895Y-14780804D01*
X33514588Y-35857870D02*
X33471925Y-35882039D01*
X33596103Y-46403404D02*
X33556014Y-46431637D01*
X25104085Y-28128127D02*
X25082039Y-28171925D01*
X33195895Y-23419195D02*
X33243737Y-23429939D01*
X22458790Y-52228112D02*
X22492600Y-52192600D01*
X33998796Y-45549981D02*
X34000000Y-45599012D01*
X25200000Y-31699012D02*
X25200000Y-33987727D01*
X36095914Y-24828127D02*
X36076044Y-24783300D01*
X47789187Y-27847583D02*
X47780804Y-27895895D01*
X46850018Y-20101203D02*
X46898919Y-20104810D01*
X47314588Y-20242129D02*
X47356014Y-20268362D01*
X24537552Y-30758397D02*
X24583300Y-30776044D01*
X118333Y-528767D02*
X112842Y-539675D01*
X33941602Y-24737552D02*
X33923955Y-24783300D01*
X44843016Y-27990994D02*
X44829939Y-27943737D01*
X22492600Y-41592600D02*
X22528112Y-41558790D01*
X47795189Y-27798919D02*
X47789187Y-27847583D01*
X33904085Y-12371872D02*
X33923955Y-12416699D01*
X25189187Y-20952416D02*
X25195189Y-21001080D01*
X36571872Y-11895914D02*
X36616699Y-11876044D01*
X46947583Y-20110812D02*
X46995895Y-20119195D01*
X365779Y-227238D02*
X356531Y-235214D01*
X36443985Y-58031637D02*
X36403896Y-58003404D01*
X24347583Y-20110812D02*
X24395895Y-20119195D01*
X22816699Y-49823955D02*
X22771872Y-49804085D01*
X33956983Y-34709005D02*
X33970060Y-34756262D01*
X69565427Y-69824158D02*
X69624535Y-69780321D01*
X45328074Y-41417960D02*
X45371872Y-41395914D01*
X36443985Y-23568362D02*
X36485411Y-23542129D01*
X24671925Y-52017960D02*
X24714588Y-52042129D01*
X22816699Y-30776044D02*
X22862447Y-30758397D01*
X45749981Y-20101203D02*
X45799012Y-20100000D01*
X33857870Y-12285411D02*
X33882039Y-12328074D01*
X45243985Y-30868362D02*
X45285411Y-30842129D01*
X22243016Y-38590994D02*
X22229939Y-38543737D01*
X454935Y-162233D02*
X444617Y-168767D01*
X33098919Y-44604810D02*
X33147583Y-44610812D01*
X47471887Y-52158790D02*
X47507399Y-52192600D01*
X44843016Y-42009005D02*
X44858397Y-41962447D01*
X25189187Y-27847583D02*
X25180804Y-27895895D01*
X36365241Y-55426762D02*
X36403896Y-55396595D01*
X33882039Y-34528074D02*
X33904085Y-34571872D01*
X36076044Y-45983300D02*
X36058397Y-45937552D01*
X33941602Y-14137552D02*
X33923955Y-14183300D01*
X70000000Y-68987727D02*
X70000000Y-1012272D01*
X44810812Y-38447583D02*
X44804810Y-38398919D01*
X36019195Y-12604104D02*
X36029939Y-12556262D01*
X22528112Y-20358790D02*
X22565241Y-20326762D01*
X24490994Y-28656983D02*
X24443737Y-28670060D01*
X24200987Y-30700000D02*
X24250018Y-30701203D01*
X36058397Y-57537552D02*
X36043016Y-57490994D01*
X22229939Y-38543737D02*
X22219195Y-38495895D01*
X36196595Y-34403896D02*
X36226762Y-34365241D01*
X36043016Y-24690994D02*
X36029939Y-24643737D01*
X44800000Y-23387727D02*
X44800000Y-21099012D01*
X33671887Y-55458790D02*
X33707399Y-55492600D01*
X47043737Y-51929939D02*
X47090994Y-51943016D01*
X36756262Y-25370060D02*
X36709005Y-25356983D01*
X69715331Y-301968D02*
X69706910Y-293123D01*
X47314588Y-28557870D02*
X47271925Y-28582039D01*
X33471925Y-11917960D02*
X33514588Y-11942129D01*
X33741209Y-25071887D02*
X33707399Y-25107399D01*
X47756983Y-17390994D02*
X47741602Y-17437552D01*
X44819195Y-31504104D02*
X44829939Y-31456262D01*
X81357Y-606244D02*
X76408Y-617409D01*
X24796103Y-39103404D02*
X24756014Y-39131637D01*
X69624535Y-219678D02*
X69565427Y-175841D01*
X69772761Y-365779D02*
X69764785Y-356531D01*
X23004104Y-18080804D02*
X22956262Y-18070060D01*
X44917960Y-17571925D02*
X44895914Y-17528127D01*
X36117960Y-24871925D02*
X36095914Y-24828127D01*
X44800000Y-44587727D02*
X44800000Y-42299012D01*
X25082039Y-52428074D02*
X25104085Y-52471872D01*
X36226762Y-14434758D02*
X36196595Y-14396103D01*
X47471887Y-41558790D02*
X47507399Y-41592600D01*
X46995895Y-30719195D02*
X47043737Y-30729939D01*
X46995895Y-20119195D02*
X47043737Y-20129939D01*
X47471887Y-30958790D02*
X47507399Y-30992600D01*
X47228127Y-18004085D02*
X47183300Y-18023955D01*
X68987752Y-69999999D02*
X69012233Y-69999398D01*
X23052416Y-51910812D02*
X23101080Y-51904810D01*
X47603404Y-38896103D02*
X47573237Y-38934758D01*
X69110156Y-69993383D02*
X69182950Y-69982586D01*
X22204810Y-57298919D02*
X22201203Y-57250018D01*
X47314588Y-58057870D02*
X47271925Y-58082039D01*
X22685411Y-11942129D02*
X22728074Y-11917960D01*
X36328112Y-46341209D02*
X36292600Y-46307399D01*
X47789187Y-12652416D02*
X47795189Y-12701080D01*
X33000987Y-25400000D02*
X25212272Y-25400000D01*
X47789187Y-57347583D02*
X47780804Y-57395895D01*
X33956983Y-55909005D02*
X33970060Y-55956262D01*
X69923610Y-69382545D02*
X69928005Y-69371151D01*
X22528112Y-49641209D02*
X22492600Y-49607399D01*
X24871887Y-20358790D02*
X24907399Y-20392600D01*
X22956262Y-28670060D02*
X22909005Y-28656983D01*
X24871887Y-30958790D02*
X24907399Y-30992600D01*
X45749981Y-51901203D02*
X45799012Y-51900000D01*
X36616699Y-44676044D02*
X36662447Y-44658397D01*
X46898919Y-28695189D02*
X46850018Y-28698796D01*
X22201203Y-48950018D02*
X22200000Y-48900987D01*
X36328112Y-23658790D02*
X36365241Y-23626762D01*
X22728074Y-28582039D02*
X22685411Y-28557870D01*
X44968362Y-20543985D02*
X44996595Y-20503896D01*
X45604104Y-20119195D02*
X45652416Y-20110812D01*
X47137552Y-18041602D02*
X47090994Y-18056983D01*
X47756983Y-42009005D02*
X47770060Y-42056262D01*
X22685411Y-39157870D02*
X22643985Y-39131637D01*
X69643486Y-69764768D02*
X69698013Y-69715348D01*
X22276044Y-49283300D02*
X22258397Y-49237552D01*
X45701080Y-18095189D02*
X45652416Y-18089187D01*
X33428127Y-46504085D02*
X33383300Y-46523955D01*
X25031637Y-41743985D02*
X25057870Y-41785411D01*
X44798754Y-36000270D02*
X44787752Y-36000000D01*
X24871887Y-49641209D02*
X24834758Y-49673237D01*
X33471925Y-58082039D02*
X33428127Y-58104085D01*
X25031637Y-20543985D02*
X25057870Y-20585411D01*
X36226762Y-34365241D02*
X36258790Y-34328112D01*
X25195189Y-17198919D02*
X25189187Y-17247583D01*
X23149981Y-49898796D02*
X23101080Y-49895189D01*
X45328074Y-28582039D02*
X45285411Y-28557870D01*
X24490994Y-20143016D02*
X24537552Y-20158397D01*
X46898919Y-49895189D02*
X46850018Y-49898796D01*
X22295914Y-52471872D02*
X22317960Y-52428074D01*
X22204810Y-48998919D02*
X22201203Y-48950018D01*
X23199012Y-51900000D02*
X24200987Y-51900000D01*
X33941602Y-57537552D02*
X33923955Y-57583300D01*
X23052416Y-20110812D02*
X23101080Y-20104810D01*
X24834758Y-49673237D02*
X24796103Y-49703404D01*
X47603404Y-49496103D02*
X47573237Y-49534758D01*
X36292600Y-35707399D02*
X36258790Y-35671887D01*
X36029939Y-12556262D02*
X36043016Y-12509005D01*
X47137552Y-28641602D02*
X47090994Y-28656983D01*
X444576Y-168794D02*
X434592Y-175826D01*
X33970060Y-55956262D02*
X33980804Y-56004104D01*
X22565241Y-52126762D02*
X22603896Y-52096595D01*
X33556014Y-46431637D02*
X33514588Y-46457870D01*
X45165241Y-41526762D02*
X45203896Y-41496595D01*
X44810812Y-27847583D02*
X44804810Y-27798919D01*
X22771872Y-58104085D02*
X22728074Y-58082039D01*
X47704085Y-17528127D02*
X47682039Y-17571925D01*
X44968362Y-17656014D02*
X44942129Y-17614588D01*
X22258397Y-41962447D02*
X22276044Y-41916699D01*
X33989187Y-24252416D02*
X33995189Y-24301080D01*
X47507399Y-20392600D02*
X47541209Y-20428112D01*
X23101080Y-18095189D02*
X23052416Y-18089187D01*
X36292600Y-57907399D02*
X36258790Y-57871887D01*
X987766Y-69999398D02*
X1012247Y-69999999D01*
X25057870Y-49414588D02*
X25031637Y-49456014D01*
X0Y-1012272D02*
X0Y-68987727D01*
X36168362Y-46156014D02*
X36142129Y-46114588D01*
X24834758Y-17873237D02*
X24796103Y-17903404D01*
X22728074Y-11917960D02*
X22771872Y-11895914D01*
X23199012Y-41300000D02*
X24200987Y-41300000D01*
X36292600Y-12092600D02*
X36328112Y-12058790D01*
X45652416Y-30710812D02*
X45701080Y-30704810D01*
X36756262Y-14770060D02*
X36709005Y-14756983D01*
X47741602Y-20762447D02*
X47756983Y-20809005D01*
X44801203Y-38350018D02*
X44800000Y-38300987D01*
X24395895Y-39280804D02*
X24347583Y-39289187D01*
X22200000Y-42299012D02*
X22201203Y-42249981D01*
X44917960Y-49371925D02*
X44895914Y-49328127D01*
X36999012Y-25400000D02*
X36949981Y-25398796D01*
X47183300Y-41376044D02*
X47228127Y-41395914D01*
X47541209Y-52228112D02*
X47573237Y-52265241D01*
X33556014Y-11968362D02*
X33596103Y-11996595D01*
X47434758Y-20326762D02*
X47471887Y-20358790D01*
X44858397Y-38637552D02*
X44843016Y-38590994D01*
X47434758Y-17873237D02*
X47396103Y-17903404D01*
X22204810Y-42201080D02*
X22210812Y-42152416D01*
X69995785Y-914216D02*
X69994887Y-902036D01*
X22201203Y-57250018D02*
X22200000Y-57200987D01*
X22816699Y-51976044D02*
X22862447Y-51958397D01*
X44942129Y-28214588D02*
X44917960Y-28171925D01*
X25003404Y-28296103D02*
X24973237Y-28334758D01*
X25141602Y-49237552D02*
X25123955Y-49283300D01*
X33514588Y-55342129D02*
X33556014Y-55368362D01*
X34000000Y-24399012D02*
X34000000Y-24400987D01*
X25031637Y-38856014D02*
X25003404Y-38896103D01*
X25003404Y-38896103D02*
X24973237Y-38934758D01*
X33989187Y-45747583D02*
X33980804Y-45795895D01*
X36058397Y-34662447D02*
X36076044Y-34616699D01*
X22492600Y-49607399D02*
X22458790Y-49571887D01*
X47631637Y-41743985D02*
X47657870Y-41785411D01*
X25141602Y-17437552D02*
X25123955Y-17483300D01*
X25141602Y-41962447D02*
X25156983Y-42009005D01*
X47356014Y-39131637D02*
X47314588Y-39157870D01*
X36662447Y-46541602D02*
X36616699Y-46523955D01*
X47228127Y-41395914D02*
X47271925Y-41417960D01*
X44800000Y-21099012D02*
X44801203Y-21049981D01*
X69085783Y-69995785D02*
X69097963Y-69994887D01*
X25156983Y-27990994D02*
X25141602Y-28037552D01*
X47356014Y-30868362D02*
X47396103Y-30896595D01*
X45371872Y-39204085D02*
X45328074Y-39182039D01*
X46947583Y-51910812D02*
X46995895Y-51919195D01*
X44798754Y-14800270D02*
X44787752Y-14800000D01*
X47471887Y-17841209D02*
X47434758Y-17873237D01*
X22685411Y-52042129D02*
X22728074Y-52017960D01*
X33904085Y-45171872D02*
X33923955Y-45216699D01*
X47396103Y-17903404D02*
X47356014Y-17931637D01*
X47137552Y-20158397D02*
X47183300Y-20176044D01*
X45799012Y-18100000D02*
X45749981Y-18098796D01*
X25156983Y-17390994D02*
X25141602Y-17437552D01*
X33383300Y-11876044D02*
X33428127Y-11895914D01*
X22219195Y-57395895D02*
X22210812Y-57347583D01*
X36043016Y-55909005D02*
X36058397Y-55862447D01*
X33383300Y-46523955D02*
X33337552Y-46541602D01*
X33290994Y-25356983D02*
X33243737Y-25370060D01*
X36258790Y-34328112D02*
X36292600Y-34292600D01*
X45462447Y-30758397D02*
X45509005Y-30743016D01*
X23199012Y-49900000D02*
X23149981Y-49898796D01*
X44996595Y-41703896D02*
X45026762Y-41665241D01*
X22368362Y-52343985D02*
X22396595Y-52303896D01*
X36043016Y-34709005D02*
X36058397Y-34662447D01*
X22565241Y-49673237D02*
X22528112Y-49641209D01*
X45285411Y-52042129D02*
X45328074Y-52017960D01*
X25082039Y-38771925D02*
X25057870Y-38814588D01*
X804992Y-69980494D02*
X817025Y-69982582D01*
X36058397Y-14137552D02*
X36043016Y-14090994D01*
X22317960Y-57671925D02*
X22295914Y-57628127D01*
X22565241Y-20326762D02*
X22603896Y-20296595D01*
X22342129Y-52385411D02*
X22368362Y-52343985D01*
X44996595Y-31103896D02*
X45026762Y-31065241D01*
X36528074Y-55317960D02*
X36571872Y-55295914D01*
X22295914Y-41871872D02*
X22317960Y-41828074D01*
X44801203Y-48950018D02*
X44800000Y-48900987D01*
X22909005Y-58156983D02*
X22862447Y-58141602D01*
X1012247Y0D02*
X987766Y-601D01*
X33989187Y-57347583D02*
X33980804Y-57395895D01*
X36709005Y-44643016D02*
X36756262Y-44629939D01*
X34000000Y-13800987D02*
X33998796Y-13850018D01*
X45165241Y-49673237D02*
X45128112Y-49641209D01*
X47704085Y-28128127D02*
X47682039Y-28171925D01*
X24628127Y-18004085D02*
X24583300Y-18023955D01*
X25170060Y-42056262D02*
X25180804Y-42104104D01*
X45026762Y-38934758D02*
X44996595Y-38896103D01*
X33707399Y-12092600D02*
X33741209Y-12128112D01*
X22458790Y-38971887D02*
X22426762Y-38934758D01*
X45243985Y-17931637D02*
X45203896Y-17903404D01*
X25195189Y-21001080D02*
X25198796Y-21049981D01*
X44799999Y-46612247D02*
X44799729Y-46601245D01*
X47800000Y-21099012D02*
X47800000Y-27700987D01*
X22771872Y-41395914D02*
X22816699Y-41376044D01*
X36043016Y-45309005D02*
X36058397Y-45262447D01*
X33773237Y-55565241D02*
X33803404Y-55603896D01*
X69371128Y-71985D02*
X69301839Y-47194D01*
X45203896Y-39103404D02*
X45165241Y-39073237D01*
X47770060Y-38543737D02*
X47756983Y-38590994D01*
X25031637Y-49456014D02*
X25003404Y-49496103D01*
X25057870Y-38814588D02*
X25031637Y-38856014D01*
X24250018Y-49898796D02*
X24200987Y-49900000D01*
X25003404Y-52303896D02*
X25031637Y-52343985D01*
X47541209Y-31028112D02*
X47573237Y-31065241D01*
X36949981Y-35998796D02*
X36901080Y-35995189D01*
X162233Y-69545064D02*
X168767Y-69555382D01*
X23149981Y-18098796D02*
X23101080Y-18095189D01*
X175826Y-434592D02*
X168794Y-444576D01*
X44942129Y-38814588D02*
X44917960Y-38771925D01*
X76389Y-617454D02*
X71994Y-628848D01*
X36365241Y-46373237D02*
X36328112Y-46341209D01*
X33882039Y-12328074D02*
X33904085Y-12371872D01*
X24200987Y-20100000D02*
X24250018Y-20101203D01*
X45509005Y-28656983D02*
X45462447Y-28641602D01*
X22956262Y-41329939D02*
X23004104Y-41319195D01*
X47573237Y-17734758D02*
X47541209Y-17771887D01*
X44787727Y-25400000D02*
X36999012Y-25400000D01*
X36804104Y-44619195D02*
X36852416Y-44610812D01*
X36901080Y-25395189D02*
X36852416Y-25389187D01*
X45092600Y-39007399D02*
X45058790Y-38971887D01*
X33050018Y-46598796D02*
X33000987Y-46600000D01*
X22201203Y-52849981D02*
X22204810Y-52801080D01*
X24443737Y-41329939D02*
X24490994Y-41343016D01*
X22458790Y-41628112D02*
X22492600Y-41592600D01*
X33471925Y-25282039D02*
X33428127Y-25304085D01*
X45556262Y-28670060D02*
X45509005Y-28656983D01*
X22728074Y-58082039D02*
X22685411Y-58057870D01*
X45556262Y-30729939D02*
X45604104Y-30719195D01*
X25212247Y-36000000D02*
X25201245Y-36000270D01*
X33634758Y-35773237D02*
X33596103Y-35803404D01*
X25180804Y-27895895D02*
X25170060Y-27943737D01*
X25156983Y-20809005D02*
X25170060Y-20856262D01*
X24347583Y-49889187D02*
X24298919Y-49895189D01*
X22771872Y-28604085D02*
X22728074Y-28582039D01*
X69999397Y-987742D02*
X69995786Y-914240D01*
X47789187Y-31552416D02*
X47795189Y-31601080D01*
X36095914Y-14228127D02*
X36076044Y-14183300D01*
X45416699Y-39223955D02*
X45371872Y-39204085D01*
X45058790Y-31028112D02*
X45092600Y-30992600D01*
X44968362Y-38856014D02*
X44942129Y-38814588D01*
X22862447Y-41358397D02*
X22909005Y-41343016D01*
X22909005Y-39256983D02*
X22862447Y-39241602D01*
X22191Y-793028D02*
X19515Y-804944D01*
X23101080Y-30704810D02*
X23149981Y-30701203D01*
X45604104Y-18080804D02*
X45556262Y-18070060D01*
X23004104Y-41319195D02*
X23052416Y-41310812D01*
X47194Y-69301839D02*
X71985Y-69371128D01*
X22528112Y-39041209D02*
X22492600Y-39007399D01*
X24200987Y-41300000D02*
X24250018Y-41301203D01*
X33000987Y-58200000D02*
X23199012Y-58200000D01*
X44810812Y-17247583D02*
X44804810Y-17198919D01*
X47228127Y-39204085D02*
X47183300Y-39223955D01*
X36000000Y-57200987D02*
X36000000Y-56199012D01*
X47795189Y-17198919D02*
X47789187Y-17247583D01*
X22862447Y-18041602D02*
X22816699Y-18023955D01*
X25200000Y-46612272D02*
X25200000Y-48900987D01*
X36999012Y-46600000D02*
X36949981Y-46598796D01*
X47756983Y-52609005D02*
X47770060Y-52656262D01*
X22210812Y-42152416D02*
X22219195Y-42104104D01*
X124375Y-518098D02*
X118356Y-528723D01*
X46800987Y-39300000D02*
X45799012Y-39300000D01*
X44787727Y-14800000D02*
X36999012Y-14800000D01*
X33941602Y-45262447D02*
X33956983Y-45309005D01*
X227238Y-69634220D02*
X235214Y-69643468D01*
X36004810Y-34901080D02*
X36010812Y-34852416D01*
X36756262Y-55229939D02*
X36804104Y-55219195D01*
X47507399Y-17807399D02*
X47471887Y-17841209D01*
X45026762Y-17734758D02*
X44996595Y-17696103D01*
X44787752Y-23399999D02*
X44798754Y-23399729D01*
X47356014Y-28531637D02*
X47314588Y-28557870D01*
X25003404Y-17696103D02*
X24973237Y-17734758D01*
X47631637Y-31143985D02*
X47657870Y-31185411D01*
X24941209Y-52228112D02*
X24973237Y-52265241D01*
X47795189Y-38398919D02*
X47789187Y-38447583D01*
X47800000Y-12799012D02*
X47800000Y-17100987D01*
X69780321Y-69624535D02*
X69824158Y-69565427D01*
X22565241Y-28473237D02*
X22528112Y-28441209D01*
X24537552Y-39241602D02*
X24490994Y-39256983D01*
X25200000Y-55187752D02*
X25200270Y-55198754D01*
X45371872Y-51995914D02*
X45416699Y-51976044D01*
X36043016Y-12509005D02*
X36058397Y-12462447D01*
X24973237Y-20465241D02*
X25003404Y-20503896D01*
X47271925Y-20217960D02*
X47314588Y-20242129D01*
X22816699Y-18023955D02*
X22771872Y-18004085D01*
X36443985Y-44768362D02*
X36485411Y-44742129D01*
X36852416Y-34010812D02*
X36901080Y-34004810D01*
X24973237Y-49534758D02*
X24941209Y-49571887D01*
X33831637Y-46156014D02*
X33803404Y-46196103D01*
X33634758Y-23626762D02*
X33671887Y-23658790D01*
X47789187Y-52752416D02*
X47795189Y-52801080D01*
X44800000Y-17100987D02*
X44800000Y-14812272D01*
X22956262Y-51929939D02*
X23004104Y-51919195D01*
X23052416Y-41310812D02*
X23101080Y-41304810D01*
X47090994Y-18056983D02*
X47043737Y-18070060D01*
X44804810Y-42201080D02*
X44810812Y-42152416D01*
X47631637Y-28256014D02*
X47603404Y-28296103D01*
X22258397Y-28037552D02*
X22243016Y-27990994D01*
X36142129Y-34485411D02*
X36168362Y-34443985D01*
X33831637Y-45043985D02*
X33857870Y-45085411D01*
X24200987Y-51900000D02*
X24250018Y-51901203D01*
X45092600Y-30992600D02*
X45128112Y-30958790D01*
X25200000Y-42299012D02*
X25200000Y-44587727D01*
X44942129Y-31185411D02*
X44968362Y-31143985D01*
X22219195Y-52704104D02*
X22229939Y-52656262D01*
X22368362Y-17656014D02*
X22342129Y-17614588D01*
X36756262Y-58170060D02*
X36709005Y-58156983D01*
X22685411Y-20242129D02*
X22728074Y-20217960D01*
X36571872Y-58104085D02*
X36528074Y-58082039D01*
X22210812Y-27847583D02*
X22204810Y-27798919D01*
X33596103Y-34196595D02*
X33634758Y-34226762D01*
X22643985Y-39131637D02*
X22603896Y-39103404D01*
X45285411Y-20242129D02*
X45328074Y-20217960D01*
X5112Y-902036D02*
X4214Y-914216D01*
X23004104Y-11819195D02*
X23052416Y-11810812D01*
X36001203Y-24450018D02*
X36000000Y-24400987D01*
X45058790Y-52228112D02*
X45092600Y-52192600D01*
X36403896Y-11996595D02*
X36443985Y-11968362D01*
X36485411Y-46457870D02*
X36443985Y-46431637D01*
X24907399Y-49607399D02*
X24871887Y-49641209D01*
X33243737Y-11829939D02*
X33290994Y-11843016D01*
X22295914Y-49328127D02*
X22276044Y-49283300D01*
X45556262Y-51929939D02*
X45604104Y-51919195D01*
X47704085Y-57628127D02*
X47682039Y-57671925D01*
X22200000Y-31699012D02*
X22201203Y-31649981D01*
X47356014Y-49731637D02*
X47314588Y-49757870D01*
X301986Y-69715348D02*
X356513Y-69764768D01*
X25003404Y-49496103D02*
X24973237Y-49534758D01*
X22317960Y-41828074D02*
X22342129Y-41785411D01*
X22565241Y-57973237D02*
X22528112Y-57941209D01*
X36949981Y-25398796D02*
X36901080Y-25395189D01*
X33803404Y-57796103D02*
X33773237Y-57834758D01*
X33998796Y-24349981D02*
X34000000Y-24399012D01*
X33243737Y-55229939D02*
X33290994Y-55243016D01*
X36485411Y-11942129D02*
X36528074Y-11917960D01*
X22204810Y-12701080D02*
X22210812Y-12652416D01*
X24756014Y-30868362D02*
X24796103Y-30896595D01*
X44996595Y-49496103D02*
X44968362Y-49456014D01*
X47396103Y-58003404D02*
X47356014Y-58031637D01*
X47723955Y-28083300D02*
X47704085Y-28128127D01*
X36029939Y-35243737D02*
X36019195Y-35195895D01*
X47741602Y-17437552D02*
X47723955Y-17483300D01*
X33000987Y-46600000D02*
X25212272Y-46600000D01*
X69301839Y-69952805D02*
X69371128Y-69928014D01*
X47723955Y-12416699D02*
X47741602Y-12462447D01*
X69764785Y-69643468D02*
X69772761Y-69634220D01*
X23149981Y-11801203D02*
X23199012Y-11800000D01*
X36804104Y-35980804D02*
X36756262Y-35970060D01*
X25156983Y-49190994D02*
X25141602Y-49237552D01*
X33195895Y-58180804D02*
X33147583Y-58189187D01*
X47471887Y-28441209D02*
X47434758Y-28473237D01*
X47314588Y-49757870D02*
X47271925Y-49782039D01*
X44787752Y-44599999D02*
X44798754Y-44599729D01*
X23101080Y-51904810D02*
X23149981Y-51901203D01*
X44917960Y-31228074D02*
X44942129Y-31185411D01*
X45799012Y-20100000D02*
X46800987Y-20100000D01*
X47271925Y-30817960D02*
X47314588Y-30842129D01*
X22276044Y-57583300D02*
X22258397Y-57537552D01*
X44917960Y-41828074D02*
X44942129Y-41785411D01*
X33998796Y-12749981D02*
X34000000Y-12799012D01*
X47314588Y-30842129D02*
X47356014Y-30868362D01*
X69994882Y-901987D02*
X69993387Y-889867D01*
X44917960Y-28171925D02*
X44895914Y-28128127D01*
X44829939Y-27943737D02*
X44819195Y-27895895D01*
X24671925Y-28582039D02*
X24628127Y-28604085D01*
X22258397Y-49237552D02*
X22243016Y-49190994D01*
X33956983Y-35290994D02*
X33941602Y-35337552D01*
X47657870Y-17614588D02*
X47631637Y-17656014D01*
X47137552Y-49841602D02*
X47090994Y-49856983D01*
X36571872Y-35904085D02*
X36528074Y-35882039D01*
X33956983Y-45890994D02*
X33941602Y-45937552D01*
X36804104Y-46580804D02*
X36756262Y-46570060D01*
X25212272Y-34000000D02*
X33000987Y-34000000D01*
X22458790Y-17771887D02*
X22426762Y-17734758D01*
X69012257Y-69999397D02*
X69085759Y-69995786D01*
X33707399Y-35707399D02*
X33671887Y-35741209D01*
X33671887Y-14541209D02*
X33634758Y-14573237D01*
X6612Y-889867D02*
X5117Y-901987D01*
X36058397Y-45262447D02*
X36076044Y-45216699D01*
X36616699Y-14723955D02*
X36571872Y-14704085D01*
X34000000Y-24400987D02*
X33998796Y-24450018D01*
X22243016Y-52609005D02*
X22258397Y-52562447D01*
X22276044Y-41916699D02*
X22295914Y-41871872D01*
X44996595Y-17696103D02*
X44968362Y-17656014D01*
X22201203Y-21049981D02*
X22204810Y-21001080D01*
X33857870Y-14314588D02*
X33831637Y-14356014D01*
X22200000Y-52899012D02*
X22201203Y-52849981D01*
X36365241Y-12026762D02*
X36403896Y-11996595D01*
X0Y-68987752D02*
X601Y-69012233D01*
X36004810Y-57298919D02*
X36001203Y-57250018D01*
X33857870Y-46114588D02*
X33831637Y-46156014D01*
X45328074Y-39182039D02*
X45285411Y-39157870D01*
X36443985Y-35831637D02*
X36403896Y-35803404D01*
X69772792Y-69634182D02*
X69780306Y-69624555D01*
X22771872Y-39204085D02*
X22728074Y-39182039D01*
X33923955Y-45983300D02*
X33904085Y-46028127D01*
X36999012Y-36000000D02*
X36949981Y-35998796D01*
X721619Y-69959922D02*
X793005Y-69977803D01*
X22956262Y-20129939D02*
X23004104Y-20119195D01*
X47756983Y-57490994D02*
X47741602Y-57537552D01*
X22643985Y-28531637D02*
X22603896Y-28503404D01*
X22396595Y-41703896D02*
X22426762Y-41665241D01*
X44917960Y-38771925D02*
X44895914Y-38728127D01*
X69206971Y-22191D02*
X69195055Y-19515D01*
X47780804Y-12604104D02*
X47789187Y-12652416D01*
X22368362Y-12243985D02*
X22396595Y-12203896D01*
X25082039Y-49371925D02*
X25057870Y-49414588D01*
X22201203Y-38350018D02*
X22200000Y-38300987D01*
X69545043Y-162221D02*
X69481923Y-124388D01*
X47043737Y-11829939D02*
X47090994Y-11843016D01*
X22200000Y-17100987D02*
X22200000Y-12799012D01*
X25082039Y-17571925D02*
X25057870Y-17614588D01*
X24628127Y-51995914D02*
X24671925Y-52017960D01*
X33383300Y-25323955D02*
X33337552Y-25341602D01*
X36168362Y-57756014D02*
X36142129Y-57714588D01*
X46898919Y-20104810D02*
X46947583Y-20110812D01*
X24298919Y-18095189D02*
X24250018Y-18098796D01*
X36058397Y-24737552D02*
X36043016Y-24690994D01*
X24714588Y-41442129D02*
X24756014Y-41468362D01*
X47682039Y-31228074D02*
X47704085Y-31271872D01*
X36043016Y-57490994D02*
X36029939Y-57443737D01*
X47789187Y-42152416D02*
X47795189Y-42201080D01*
X33050018Y-35998796D02*
X33000987Y-36000000D01*
X36142129Y-55685411D02*
X36168362Y-55643985D01*
X47090994Y-51943016D02*
X47137552Y-51958397D01*
X45165241Y-52126762D02*
X45203896Y-52096595D01*
X47541209Y-41628112D02*
X47573237Y-41665241D01*
X45652416Y-49889187D02*
X45604104Y-49880804D01*
X47657870Y-52385411D02*
X47682039Y-52428074D01*
X22210812Y-49047583D02*
X22204810Y-48998919D01*
X33970060Y-24643737D02*
X33956983Y-24690994D01*
X47723955Y-41916699D02*
X47741602Y-41962447D01*
X47396103Y-49703404D02*
X47356014Y-49731637D01*
X45749981Y-41301203D02*
X45799012Y-41300000D01*
X22396595Y-38896103D02*
X22368362Y-38856014D01*
X36662447Y-25341602D02*
X36616699Y-25323955D01*
X47314588Y-11942129D02*
X47356014Y-11968362D01*
X47507399Y-30992600D02*
X47541209Y-31028112D01*
X36019195Y-45404104D02*
X36029939Y-45356262D01*
X45462447Y-49841602D02*
X45416699Y-49823955D01*
X33773237Y-34365241D02*
X33803404Y-34403896D01*
X33147583Y-25389187D02*
X33098919Y-25395189D01*
X36095914Y-23971872D02*
X36117960Y-23928074D01*
X22317960Y-31228074D02*
X22342129Y-31185411D01*
X33904085Y-14228127D02*
X33882039Y-14271925D01*
X36528074Y-44717960D02*
X36571872Y-44695914D01*
X24443737Y-28670060D02*
X24395895Y-28680804D01*
X22396595Y-52303896D02*
X22426762Y-52265241D01*
X46947583Y-28689187D02*
X46898919Y-28695189D01*
X36001203Y-12749981D02*
X36004810Y-12701080D01*
X24298919Y-49895189D02*
X24250018Y-49898796D01*
X628871Y-69928014D02*
X698160Y-69952805D01*
X36000000Y-12799012D02*
X36001203Y-12749981D01*
X69555382Y-168767D02*
X69545064Y-162233D01*
X44787752Y-55199999D02*
X44798754Y-55199729D01*
X36292600Y-34292600D02*
X36328112Y-34258790D01*
X25198796Y-17150018D02*
X25195189Y-17198919D01*
X25212247Y-14800000D02*
X25201245Y-14800270D01*
X22317960Y-49371925D02*
X22295914Y-49328127D01*
X47507399Y-39007399D02*
X47471887Y-39041209D01*
X25141602Y-31362447D02*
X25156983Y-31409005D01*
X45128112Y-49641209D02*
X45092600Y-49607399D01*
X22229939Y-20856262D02*
X22243016Y-20809005D01*
X4213Y-914240D02*
X602Y-987742D01*
X36403896Y-14603404D02*
X36365241Y-14573237D01*
X36168362Y-23843985D02*
X36196595Y-23803896D01*
X36804104Y-58180804D02*
X36756262Y-58170060D01*
X33428127Y-58104085D02*
X33383300Y-58123955D01*
X25057870Y-52385411D02*
X25082039Y-52428074D01*
X69643468Y-235214D02*
X69634220Y-227238D01*
X69182974Y-69982582D02*
X69195007Y-69980494D01*
X44942129Y-52385411D02*
X44968362Y-52343985D01*
X24871887Y-39041209D02*
X24834758Y-39073237D01*
X69995786Y-69085759D02*
X69999397Y-69012257D01*
X22342129Y-38814588D02*
X22317960Y-38771925D01*
X22243016Y-49190994D02*
X22229939Y-49143737D01*
X22200000Y-38300987D02*
X22200000Y-31699012D01*
X46995895Y-18080804D02*
X46947583Y-18089187D01*
X44799999Y-14812247D02*
X44799729Y-14801245D01*
X36999012Y-44600000D02*
X44787727Y-44600000D01*
X44801203Y-27750018D02*
X44800000Y-27700987D01*
X44801203Y-52849981D02*
X44804810Y-52801080D01*
X36142129Y-12285411D02*
X36168362Y-12243985D01*
X25170060Y-49143737D02*
X25156983Y-49190994D01*
X69999999Y-1012247D02*
X69999398Y-987766D01*
X25156983Y-42009005D02*
X25170060Y-42056262D01*
X36010812Y-24547583D02*
X36004810Y-24498919D01*
X33857870Y-45085411D02*
X33882039Y-45128074D01*
X22909005Y-11843016D02*
X22956262Y-11829939D01*
X25057870Y-41785411D02*
X25082039Y-41828074D01*
X36571872Y-55295914D02*
X36616699Y-55276044D01*
X22219195Y-27895895D02*
X22210812Y-27847583D01*
X23004104Y-58180804D02*
X22956262Y-58170060D01*
X33514588Y-25257870D02*
X33471925Y-25282039D01*
X25200000Y-23387752D02*
X25200270Y-23398754D01*
X22368362Y-49456014D02*
X22342129Y-49414588D01*
X47541209Y-20428112D02*
X47573237Y-20465241D01*
X69887157Y-539675D02*
X69881666Y-528767D01*
X45509005Y-20143016D02*
X45556262Y-20129939D01*
X47770060Y-52656262D02*
X47780804Y-52704104D01*
X47603404Y-20503896D02*
X47631637Y-20543985D01*
X47780804Y-38495895D02*
X47770060Y-38543737D01*
X47314588Y-17957870D02*
X47271925Y-17982039D01*
X36999012Y-58200000D02*
X36949981Y-58198796D01*
X36365241Y-44826762D02*
X36403896Y-44796595D01*
X47507399Y-12092600D02*
X47541209Y-12128112D01*
X22492600Y-28407399D02*
X22458790Y-28371887D01*
X44942129Y-49414588D02*
X44917960Y-49371925D01*
X25180804Y-42104104D02*
X25189187Y-42152416D01*
X33098919Y-34004810D02*
X33147583Y-34010812D01*
X33923955Y-45216699D02*
X33941602Y-45262447D01*
X36949981Y-14798796D02*
X36901080Y-14795189D01*
X22258397Y-31362447D02*
X22276044Y-31316699D01*
X25082039Y-41828074D02*
X25104085Y-41871872D01*
X25170060Y-52656262D02*
X25180804Y-52704104D01*
X36001203Y-45549981D02*
X36004810Y-45501080D01*
X44801203Y-31649981D02*
X44804810Y-31601080D01*
X47780804Y-42104104D02*
X47789187Y-42152416D01*
X33000987Y-23400000D02*
X33050018Y-23401203D01*
X47137552Y-39241602D02*
X47090994Y-39256983D01*
X36328112Y-12058790D02*
X36365241Y-12026762D01*
X22396595Y-49496103D02*
X22368362Y-49456014D01*
X22528112Y-57941209D02*
X22492600Y-57907399D01*
X44819195Y-42104104D02*
X44829939Y-42056262D01*
X33556014Y-34168362D02*
X33596103Y-34196595D01*
X44895914Y-28128127D02*
X44876044Y-28083300D01*
X33383300Y-34076044D02*
X33428127Y-34095914D01*
X23149981Y-41301203D02*
X23199012Y-41300000D01*
X24443737Y-49870060D02*
X24395895Y-49880804D01*
X33596103Y-44796595D02*
X33634758Y-44826762D01*
X44800000Y-48900987D02*
X44800000Y-46612272D01*
X25123955Y-20716699D02*
X25141602Y-20762447D01*
X22603896Y-30896595D02*
X22643985Y-30868362D01*
X22258397Y-17437552D02*
X22243016Y-17390994D01*
X24671925Y-30817960D02*
X24714588Y-30842129D01*
X22229939Y-17343737D02*
X22219195Y-17295895D01*
X45652416Y-20110812D02*
X45701080Y-20104810D01*
X45285411Y-41442129D02*
X45328074Y-41417960D01*
X36852416Y-44610812D02*
X36901080Y-44604810D01*
X69980484Y-804944D02*
X69977808Y-793028D01*
X25141602Y-52562447D02*
X25156983Y-52609005D01*
X25031637Y-52343985D02*
X25057870Y-52385411D01*
X46800987Y-18100000D02*
X45799012Y-18100000D01*
X46947583Y-18089187D02*
X46898919Y-18095189D01*
X44917960Y-52428074D02*
X44942129Y-52385411D01*
X36709005Y-14756983D02*
X36662447Y-14741602D01*
X22243016Y-57490994D02*
X22229939Y-57443737D01*
X721596Y-40083D02*
X709826Y-43341D01*
X22771872Y-20195914D02*
X22816699Y-20176044D01*
X22728074Y-41417960D02*
X22771872Y-41395914D01*
X22342129Y-57714588D02*
X22317960Y-57671925D01*
X24583300Y-51976044D02*
X24628127Y-51995914D01*
X46947583Y-58189187D02*
X46898919Y-58195189D01*
X34000000Y-12799012D02*
X34000000Y-13800987D01*
X22204810Y-31601080D02*
X22210812Y-31552416D01*
X22603896Y-11996595D02*
X22643985Y-11968362D01*
X33634758Y-12026762D02*
X33671887Y-12058790D01*
X22816699Y-11876044D02*
X22862447Y-11858397D01*
X44804810Y-31601080D02*
X44810812Y-31552416D01*
X23149981Y-51901203D02*
X23199012Y-51900000D01*
X44800000Y-27700987D02*
X44800000Y-25412272D01*
X44799729Y-23398754D02*
X44799999Y-23387752D01*
X69565407Y-175826D02*
X69555423Y-168794D01*
X34000000Y-35000987D02*
X33998796Y-35050018D01*
X25189187Y-31552416D02*
X25195189Y-31601080D01*
X22862447Y-11858397D02*
X22909005Y-11843016D01*
X47798796Y-52849981D02*
X47800000Y-52899012D01*
X44800000Y-31699012D02*
X44801203Y-31649981D01*
X33803404Y-35596103D02*
X33773237Y-35634758D01*
X22458790Y-31028112D02*
X22492600Y-30992600D01*
X44843016Y-31409005D02*
X44858397Y-31362447D01*
X36571872Y-14704085D02*
X36528074Y-14682039D01*
X22492600Y-17807399D02*
X22458790Y-17771887D01*
X36196595Y-46196103D02*
X36168362Y-46156014D01*
X22426762Y-41665241D02*
X22458790Y-41628112D01*
X76408Y-69382590D02*
X81357Y-69393755D01*
X33857870Y-57714588D02*
X33831637Y-57756014D01*
X47271925Y-39182039D02*
X47228127Y-39204085D01*
X36001203Y-45650018D02*
X36000000Y-45600987D01*
X36076044Y-45216699D02*
X36095914Y-45171872D01*
X22492600Y-57907399D02*
X22458790Y-57871887D01*
X33970060Y-12556262D02*
X33980804Y-12604104D01*
X24671925Y-17982039D02*
X24628127Y-18004085D01*
X47434758Y-39073237D02*
X47396103Y-39103404D01*
X36443985Y-55368362D02*
X36485411Y-55342129D01*
X33773237Y-35634758D02*
X33741209Y-35671887D01*
X22458790Y-57871887D02*
X22426762Y-57834758D01*
X22643985Y-20268362D02*
X22685411Y-20242129D01*
X69545064Y-69837766D02*
X69555382Y-69831232D01*
X69993383Y-889843D02*
X69982586Y-817049D01*
X47798796Y-27750018D02*
X47795189Y-27798919D01*
X46800987Y-51900000D02*
X46850018Y-51901203D01*
X33998796Y-24450018D02*
X33995189Y-24498919D01*
X33147583Y-44610812D02*
X33195895Y-44619195D01*
X36949981Y-55201203D02*
X36999012Y-55200000D01*
X22565241Y-12026762D02*
X22603896Y-11996595D01*
X25156983Y-31409005D02*
X25170060Y-31456262D01*
X45416699Y-51976044D02*
X45462447Y-51958397D01*
X36804104Y-55219195D02*
X36852416Y-55210812D01*
X47183300Y-30776044D02*
X47228127Y-30795914D01*
X25195189Y-42201080D02*
X25198796Y-42249981D01*
X124388Y-69481923D02*
X162221Y-69545043D01*
X25123955Y-49283300D02*
X25104085Y-49328127D01*
X22201203Y-31649981D02*
X22204810Y-31601080D01*
X69555423Y-69831205D02*
X69565407Y-69824173D01*
X47657870Y-20585411D02*
X47682039Y-20628074D01*
X47657870Y-31185411D02*
X47682039Y-31228074D01*
X33195895Y-44619195D02*
X33243737Y-44629939D01*
X22956262Y-58170060D02*
X22909005Y-58156983D01*
X33243737Y-44629939D02*
X33290994Y-44643016D01*
X889843Y-6616D02*
X817049Y-17413D01*
X22243016Y-12509005D02*
X22258397Y-12462447D01*
X45128112Y-17841209D02*
X45092600Y-17807399D01*
X36010812Y-12652416D02*
X36019195Y-12604104D01*
X33970060Y-57443737D02*
X33956983Y-57490994D01*
X22603896Y-52096595D02*
X22643985Y-52068362D01*
X33998796Y-35050018D02*
X33995189Y-35098919D01*
X45462447Y-20158397D02*
X45509005Y-20143016D01*
X47789187Y-20952416D02*
X47795189Y-21001080D01*
X45128112Y-52158790D02*
X45165241Y-52126762D01*
X23101080Y-20104810D02*
X23149981Y-20101203D01*
X33514588Y-58057870D02*
X33471925Y-58082039D01*
X22295914Y-12371872D02*
X22317960Y-12328074D01*
X36117960Y-14271925D02*
X36095914Y-14228127D01*
X22728074Y-52017960D02*
X22771872Y-51995914D01*
X293123Y-69706910D02*
X301968Y-69715331D01*
X33290994Y-23443016D02*
X33337552Y-23458397D01*
X36095914Y-34571872D02*
X36117960Y-34528074D01*
X69952813Y-69301816D02*
X69956644Y-69290220D01*
X36949981Y-44601203D02*
X36999012Y-44600000D01*
X22258397Y-52562447D02*
X22276044Y-52516699D01*
X47356014Y-58031637D02*
X47314588Y-58057870D01*
X36616699Y-23476044D02*
X36662447Y-23458397D01*
X45092600Y-17807399D02*
X45058790Y-17771887D01*
X22204810Y-52801080D02*
X22210812Y-52752416D01*
X33741209Y-46271887D02*
X33707399Y-46307399D01*
X22816699Y-58123955D02*
X22771872Y-58104085D01*
X47573237Y-49534758D02*
X47541209Y-49571887D01*
X47682039Y-28171925D02*
X47657870Y-28214588D01*
X518098Y-69875624D02*
X528723Y-69881643D01*
X44801203Y-42249981D02*
X44804810Y-42201080D01*
X45058790Y-20428112D02*
X45092600Y-20392600D01*
X45509005Y-30743016D02*
X45556262Y-30729939D01*
X46800987Y-58200000D02*
X36999012Y-58200000D01*
X25180804Y-17295895D02*
X25170060Y-17343737D01*
X36616699Y-55276044D02*
X36662447Y-55258397D01*
X36616699Y-11876044D02*
X36662447Y-11858397D01*
X36000000Y-13800987D02*
X36000000Y-12799012D01*
X36852416Y-35989187D02*
X36804104Y-35980804D01*
X47631637Y-20543985D02*
X47657870Y-20585411D01*
X33989187Y-34852416D02*
X33995189Y-34901080D01*
X33904085Y-34571872D02*
X33923955Y-34616699D01*
X47183300Y-49823955D02*
X47137552Y-49841602D01*
X24796103Y-28503404D02*
X24756014Y-28531637D01*
X36709005Y-34043016D02*
X36756262Y-34029939D01*
X24941209Y-20428112D02*
X24973237Y-20465241D01*
X33195895Y-34019195D02*
X33243737Y-34029939D01*
X24714588Y-17957870D02*
X24671925Y-17982039D01*
X33098919Y-23404810D02*
X33147583Y-23410812D01*
X22685411Y-49757870D02*
X22643985Y-49731637D01*
X25123955Y-31316699D02*
X25141602Y-31362447D01*
X47682039Y-57671925D02*
X47657870Y-57714588D01*
X36901080Y-46595189D02*
X36852416Y-46589187D01*
X23199012Y-28700000D02*
X23149981Y-28698796D01*
X45026762Y-28334758D02*
X44996595Y-28296103D01*
X47507399Y-52192600D02*
X47541209Y-52228112D01*
X33831637Y-12243985D02*
X33857870Y-12285411D01*
X36258790Y-14471887D02*
X36226762Y-14434758D01*
X44799999Y-25412247D02*
X44799729Y-25401245D01*
X33243737Y-34029939D02*
X33290994Y-34043016D01*
X36852416Y-23410812D02*
X36901080Y-23404810D01*
X22276044Y-28083300D02*
X22258397Y-28037552D01*
X47800000Y-38300987D02*
X47798796Y-38350018D01*
X25057870Y-20585411D02*
X25082039Y-20628074D01*
X293089Y-293123D02*
X284668Y-301968D01*
X47573237Y-28334758D02*
X47541209Y-28371887D01*
X24907399Y-39007399D02*
X24871887Y-39041209D01*
X36010812Y-35147583D02*
X36004810Y-35098919D01*
X22603896Y-41496595D02*
X22643985Y-41468362D01*
X22603896Y-39103404D02*
X22565241Y-39073237D01*
X33923955Y-35383300D02*
X33904085Y-35428127D01*
X46898919Y-18095189D02*
X46850018Y-18098796D01*
X47741602Y-52562447D02*
X47756983Y-52609005D01*
X47756983Y-38590994D02*
X47741602Y-38637552D01*
X47434758Y-30926762D02*
X47471887Y-30958790D01*
X24871887Y-28441209D02*
X24834758Y-28473237D01*
X22229939Y-49143737D02*
X22219195Y-49095895D01*
X44819195Y-27895895D02*
X44810812Y-27847583D01*
X36001203Y-56149981D02*
X36004810Y-56101080D01*
X47756983Y-12509005D02*
X47770060Y-12556262D01*
X44876044Y-17483300D02*
X44858397Y-17437552D01*
X24443737Y-51929939D02*
X24490994Y-51943016D01*
X69918642Y-69393755D02*
X69923591Y-69382590D01*
X36142129Y-46114588D02*
X36117960Y-46071925D01*
X36258790Y-46271887D02*
X36226762Y-46234758D01*
X33514588Y-14657870D02*
X33471925Y-14682039D01*
X33471925Y-35882039D02*
X33428127Y-35904085D01*
X46995895Y-49880804D02*
X46947583Y-49889187D01*
X36226762Y-57834758D02*
X36196595Y-57796103D01*
X47798796Y-42249981D02*
X47800000Y-42299012D01*
X24973237Y-52265241D02*
X25003404Y-52303896D01*
X33671887Y-57941209D02*
X33634758Y-57973237D01*
X33970060Y-45356262D02*
X33980804Y-45404104D01*
X47795189Y-31601080D02*
X47798796Y-31649981D01*
X36258790Y-23728112D02*
X36292600Y-23692600D01*
X45203896Y-17903404D02*
X45165241Y-17873237D01*
X45604104Y-30719195D02*
X45652416Y-30710812D01*
X24907399Y-28407399D02*
X24871887Y-28441209D01*
X33923955Y-24783300D02*
X33904085Y-24828127D01*
X25200000Y-21099012D02*
X25200000Y-23387727D01*
X25031637Y-31143985D02*
X25057870Y-31185411D01*
X36043016Y-24109005D02*
X36058397Y-24062447D01*
X36901080Y-58195189D02*
X36852416Y-58189187D01*
X24347583Y-28689187D02*
X24298919Y-28695189D01*
X33337552Y-44658397D02*
X33383300Y-44676044D01*
X36403896Y-58003404D02*
X36365241Y-57973237D01*
X22426762Y-57834758D02*
X22396595Y-57796103D01*
X24298919Y-41304810D02*
X24347583Y-41310812D01*
X34000000Y-56199012D02*
X34000000Y-57200987D01*
X69887168Y-69460302D02*
X69918632Y-69393777D01*
X22200000Y-48900987D02*
X22200000Y-42299012D01*
X25170060Y-31456262D02*
X25180804Y-31504104D01*
X22816699Y-39223955D02*
X22771872Y-39204085D01*
X36058397Y-55862447D02*
X36076044Y-55816699D01*
X33556014Y-25231637D02*
X33514588Y-25257870D01*
X45203896Y-30896595D02*
X45243985Y-30868362D01*
X889867Y-69993387D02*
X901987Y-69994882D01*
X33941602Y-24062447D02*
X33956983Y-24109005D01*
X36076044Y-55816699D02*
X36095914Y-55771872D01*
X45203896Y-49703404D02*
X45165241Y-49673237D01*
X22317960Y-28171925D02*
X22295914Y-28128127D01*
X33803404Y-55603896D02*
X33831637Y-55643985D01*
X47603404Y-57796103D02*
X47573237Y-57834758D01*
X22396595Y-12203896D02*
X22426762Y-12165241D01*
X36292600Y-14507399D02*
X36258790Y-14471887D01*
X219678Y-375464D02*
X175841Y-434572D01*
X36168362Y-55643985D02*
X36196595Y-55603896D01*
X22368362Y-31143985D02*
X22396595Y-31103896D01*
X36000000Y-34999012D02*
X36001203Y-34949981D01*
X33995189Y-13898919D02*
X33989187Y-13947583D01*
X25003404Y-41703896D02*
X25031637Y-41743985D01*
X25198796Y-38350018D02*
X25195189Y-38398919D01*
X112831Y-539697D02*
X81367Y-606222D01*
X33707399Y-46307399D02*
X33671887Y-46341209D01*
X22426762Y-20465241D02*
X22458790Y-20428112D01*
X47770060Y-49143737D02*
X47756983Y-49190994D01*
X33098919Y-55204810D02*
X33147583Y-55210812D01*
X44787727Y-46600000D02*
X36999012Y-46600000D01*
X36196595Y-57796103D02*
X36168362Y-57756014D01*
X22342129Y-28214588D02*
X22317960Y-28171925D01*
X22229939Y-42056262D02*
X22243016Y-42009005D01*
X45026762Y-31065241D02*
X45058790Y-31028112D01*
X47741602Y-12462447D02*
X47756983Y-12509005D01*
X33995189Y-12701080D02*
X33998796Y-12749981D01*
X24537552Y-18041602D02*
X24490994Y-18056983D01*
X24714588Y-39157870D02*
X24671925Y-39182039D01*
X36226762Y-55565241D02*
X36258790Y-55528112D01*
X47090994Y-28656983D02*
X47043737Y-28670060D01*
X69715348Y-69698013D02*
X69764768Y-69643486D01*
X22492600Y-52192600D02*
X22528112Y-52158790D01*
X46898919Y-39295189D02*
X46850018Y-39298796D01*
X45371872Y-20195914D02*
X45416699Y-20176044D01*
X69290220Y-69956644D02*
X69301816Y-69952813D01*
X33941602Y-34662447D02*
X33956983Y-34709005D01*
X22368362Y-38856014D02*
X22342129Y-38814588D01*
X25170060Y-27943737D02*
X25156983Y-27990994D01*
X36528074Y-25282039D02*
X36485411Y-25257870D01*
X68987727Y0D02*
X1012272Y0D01*
X44804810Y-17198919D02*
X44801203Y-17150018D01*
X22565241Y-39073237D02*
X22528112Y-39041209D01*
X36168362Y-34443985D02*
X36196595Y-34403896D01*
X23199012Y-58200000D02*
X23149981Y-58198796D01*
X25057870Y-28214588D02*
X25031637Y-28256014D01*
X33596103Y-23596595D02*
X33634758Y-23626762D01*
X36485411Y-25257870D02*
X36443985Y-25231637D01*
X22771872Y-30795914D02*
X22816699Y-30776044D01*
X33383300Y-35923955D02*
X33337552Y-35941602D01*
X47090994Y-11843016D02*
X47137552Y-11858397D01*
X25212247Y-25400000D02*
X25201245Y-25400270D01*
X36403896Y-23596595D02*
X36443985Y-23568362D01*
X47798796Y-31649981D02*
X47800000Y-31699012D01*
X24796103Y-49703404D02*
X24756014Y-49731637D01*
X44819195Y-38495895D02*
X44810812Y-38447583D01*
X22685411Y-28557870D02*
X22643985Y-28531637D01*
X45128112Y-20358790D02*
X45165241Y-20326762D01*
X44968362Y-31143985D02*
X44996595Y-31103896D01*
X23199012Y-30700000D02*
X24200987Y-30700000D01*
X36662447Y-14741602D02*
X36616699Y-14723955D01*
X33428127Y-25304085D02*
X33383300Y-25323955D01*
X25123955Y-41916699D02*
X25141602Y-41962447D01*
X69182950Y-17413D02*
X69110156Y-6616D01*
X33290994Y-55243016D02*
X33337552Y-55258397D01*
X36365241Y-25173237D02*
X36328112Y-25141209D01*
X22295914Y-31271872D02*
X22317960Y-31228074D01*
X36076044Y-14183300D02*
X36058397Y-14137552D01*
X33556014Y-44768362D02*
X33596103Y-44796595D01*
X118356Y-69471276D02*
X124375Y-69481901D01*
X34000000Y-57200987D02*
X33998796Y-57250018D01*
X47228127Y-30795914D02*
X47271925Y-30817960D01*
X22909005Y-51943016D02*
X22956262Y-51929939D01*
X25104085Y-49328127D02*
X25082039Y-49371925D01*
X47780804Y-20904104D02*
X47789187Y-20952416D01*
X36901080Y-14795189D02*
X36852416Y-14789187D01*
X25200270Y-46601245D02*
X25200000Y-46612247D01*
X45556262Y-20129939D02*
X45604104Y-20119195D01*
X69382590Y-69923591D02*
X69393755Y-69918642D01*
X36756262Y-34029939D02*
X36804104Y-34019195D01*
X24347583Y-39289187D02*
X24298919Y-39295189D01*
X36000000Y-24399012D02*
X36001203Y-24349981D01*
X44799729Y-55198754D02*
X44799999Y-55187752D01*
X36000000Y-35000987D02*
X36000000Y-34999012D01*
X36709005Y-46556983D02*
X36662447Y-46541602D01*
X375444Y-219693D02*
X365817Y-227207D01*
X25189187Y-38447583D02*
X25180804Y-38495895D01*
X36616699Y-58123955D02*
X36571872Y-58104085D01*
X33243737Y-58170060D02*
X33195895Y-58180804D01*
X22458790Y-49571887D02*
X22426762Y-49534758D01*
X22603896Y-20296595D02*
X22643985Y-20268362D01*
X45556262Y-18070060D02*
X45509005Y-18056983D01*
X33904085Y-46028127D02*
X33882039Y-46071925D01*
X25198796Y-27750018D02*
X25195189Y-27798919D01*
X45243985Y-39131637D02*
X45203896Y-39103404D01*
X46800987Y-20100000D02*
X46850018Y-20101203D01*
X23101080Y-28695189D02*
X23052416Y-28689187D01*
X36117960Y-23928074D02*
X36142129Y-23885411D01*
X24907399Y-52192600D02*
X24941209Y-52228112D01*
X36662447Y-44658397D02*
X36709005Y-44643016D01*
X22528112Y-17841209D02*
X22492600Y-17807399D01*
X45328074Y-52017960D02*
X45371872Y-51995914D01*
X33195895Y-46580804D02*
X33147583Y-46589187D01*
X25057870Y-31185411D02*
X25082039Y-31228074D01*
X45026762Y-49534758D02*
X44996595Y-49496103D01*
X22565241Y-17873237D02*
X22528112Y-17841209D01*
X25212272Y-44600000D02*
X33000987Y-44600000D01*
X36403896Y-35803404D02*
X36365241Y-35773237D01*
X33741209Y-55528112D02*
X33773237Y-55565241D01*
X22200000Y-21099012D02*
X22201203Y-21049981D01*
X47090994Y-30743016D02*
X47137552Y-30758397D01*
X44996595Y-20503896D02*
X45026762Y-20465241D01*
X709779Y-43355D02*
X698183Y-47186D01*
X46947583Y-11810812D02*
X46995895Y-11819195D01*
X33831637Y-34443985D02*
X33857870Y-34485411D01*
X47396103Y-11996595D02*
X47434758Y-12026762D01*
X47434758Y-52126762D02*
X47471887Y-52158790D01*
X47090994Y-58156983D02*
X47043737Y-58170060D01*
X44996595Y-38896103D02*
X44968362Y-38856014D01*
X34000000Y-45600987D02*
X33998796Y-45650018D01*
X36616699Y-25323955D02*
X36571872Y-25304085D01*
X45285411Y-39157870D02*
X45243985Y-39131637D01*
X45328074Y-20217960D02*
X45371872Y-20195914D01*
X33147583Y-23410812D02*
X33195895Y-23419195D01*
X33707399Y-57907399D02*
X33671887Y-57941209D01*
X47271925Y-41417960D02*
X47314588Y-41442129D01*
X47756983Y-20809005D02*
X47770060Y-20856262D01*
X36029939Y-24643737D02*
X36019195Y-24595895D01*
X22201203Y-42249981D02*
X22204810Y-42201080D01*
X33831637Y-14356014D02*
X33803404Y-14396103D01*
X69195055Y-69980484D02*
X69206971Y-69977808D01*
X22909005Y-49856983D02*
X22862447Y-49841602D01*
X47043737Y-20129939D02*
X47090994Y-20143016D01*
X33596103Y-35803404D02*
X33556014Y-35831637D01*
X22276044Y-52516699D02*
X22295914Y-52471872D01*
X36328112Y-55458790D02*
X36365241Y-55426762D01*
X69481901Y-124375D02*
X69471276Y-118356D01*
X24490994Y-18056983D02*
X24443737Y-18070060D01*
X47704085Y-20671872D02*
X47723955Y-20716699D01*
X33471925Y-46482039D02*
X33428127Y-46504085D01*
X5117Y-69098012D02*
X6612Y-69110132D01*
X36258790Y-44928112D02*
X36292600Y-44892600D01*
X47356014Y-11968362D02*
X47396103Y-11996595D01*
X69875611Y-518076D02*
X69837778Y-454956D01*
X45652416Y-18089187D02*
X45604104Y-18080804D01*
X36403896Y-55396595D02*
X36443985Y-55368362D01*
X33337552Y-55258397D02*
X33383300Y-55276044D01*
X46995895Y-28680804D02*
X46947583Y-28689187D01*
X36226762Y-46234758D02*
X36196595Y-46196103D01*
X69110132Y-6612D02*
X69098012Y-5117D01*
X25200000Y-48900987D02*
X25198796Y-48950018D01*
X36804104Y-25380804D02*
X36756262Y-25370060D01*
X33773237Y-23765241D02*
X33803404Y-23803896D01*
X33514588Y-44742129D02*
X33556014Y-44768362D01*
X36528074Y-58082039D02*
X36485411Y-58057870D01*
X33098919Y-14795189D02*
X33050018Y-14798796D01*
X24714588Y-49757870D02*
X24671925Y-49782039D01*
X45128112Y-28441209D02*
X45092600Y-28407399D01*
X25195189Y-48998919D02*
X25189187Y-49047583D01*
X22396595Y-57796103D02*
X22368362Y-57756014D01*
X22295914Y-20671872D02*
X22317960Y-20628074D01*
X47723955Y-52516699D02*
X47741602Y-52562447D01*
X44895914Y-31271872D02*
X44917960Y-31228074D01*
X45165241Y-28473237D02*
X45128112Y-28441209D01*
X47770060Y-57443737D02*
X47756983Y-57490994D01*
X36616699Y-35923955D02*
X36571872Y-35904085D01*
X36756262Y-11829939D02*
X36804104Y-11819195D01*
X47228127Y-11895914D02*
X47271925Y-11917960D01*
X47741602Y-57537552D02*
X47723955Y-57583300D01*
X33995189Y-35098919D02*
X33989187Y-35147583D01*
X24756014Y-41468362D02*
X24796103Y-41496595D01*
X24298919Y-20104810D02*
X24347583Y-20110812D01*
X33998796Y-34949981D02*
X34000000Y-34999012D01*
X45749981Y-30701203D02*
X45799012Y-30700000D01*
X69290173Y-43341D02*
X69278403Y-40083D01*
X33989187Y-12652416D02*
X33995189Y-12701080D01*
X434572Y-175841D02*
X375464Y-219678D01*
X22458790Y-12128112D02*
X22492600Y-12092600D01*
X47573237Y-57834758D02*
X47541209Y-57871887D01*
X24395895Y-18080804D02*
X24347583Y-18089187D01*
X33243737Y-25370060D02*
X33195895Y-25380804D01*
X24537552Y-28641602D02*
X24490994Y-28656983D01*
X22276044Y-20716699D02*
X22295914Y-20671872D01*
X47780804Y-52704104D02*
X47789187Y-52752416D01*
X45509005Y-49856983D02*
X45462447Y-49841602D01*
X34000000Y-34999012D02*
X34000000Y-35000987D01*
X22603896Y-28503404D02*
X22565241Y-28473237D01*
X36365241Y-57973237D02*
X36328112Y-57941209D01*
X36019195Y-45795895D02*
X36010812Y-45747583D01*
X44942129Y-41785411D02*
X44968362Y-41743985D01*
X628848Y-71994D02*
X617454Y-76389D01*
X22317960Y-52428074D02*
X22342129Y-52385411D01*
X44895914Y-41871872D02*
X44917960Y-41828074D01*
X284651Y-301986D02*
X235231Y-356513D01*
X46947583Y-30710812D02*
X46995895Y-30719195D01*
X539697Y-69887168D02*
X606222Y-69918632D01*
X44810812Y-31552416D02*
X44819195Y-31504104D01*
X36258790Y-25071887D02*
X36226762Y-25034758D01*
X24756014Y-39131637D02*
X24714588Y-39157870D01*
X33857870Y-35514588D02*
X33831637Y-35556014D01*
X36000000Y-45599012D02*
X36001203Y-45549981D01*
X24583300Y-28623955D02*
X24537552Y-28641602D01*
X25200000Y-38300987D02*
X25198796Y-38350018D01*
X17413Y-817049D02*
X6616Y-889843D01*
X33970060Y-14043737D02*
X33956983Y-14090994D01*
X69371151Y-69928005D02*
X69382545Y-69923610D01*
X33337552Y-35941602D02*
X33290994Y-35956983D01*
X22528112Y-28441209D02*
X22492600Y-28407399D01*
X45462447Y-18041602D02*
X45416699Y-18023955D01*
X33634758Y-55426762D02*
X33671887Y-55458790D01*
X36142129Y-23885411D02*
X36168362Y-23843985D01*
X36004810Y-12701080D02*
X36010812Y-12652416D01*
X22200000Y-27700987D02*
X22200000Y-21099012D01*
X36076044Y-12416699D02*
X36095914Y-12371872D01*
X698183Y-69952813D02*
X709779Y-69956644D01*
X36662447Y-55258397D02*
X36709005Y-55243016D01*
X36196595Y-35596103D02*
X36168362Y-35556014D01*
X22426762Y-12165241D02*
X22458790Y-12128112D01*
X36292600Y-25107399D02*
X36258790Y-25071887D01*
X24756014Y-52068362D02*
X24796103Y-52096595D01*
X36117960Y-35471925D02*
X36095914Y-35428127D01*
X24714588Y-20242129D02*
X24756014Y-20268362D01*
X69382545Y-76389D02*
X69371151Y-71994D01*
X36117960Y-34528074D02*
X36142129Y-34485411D01*
X23101080Y-41304810D02*
X23149981Y-41301203D01*
X47723955Y-31316699D02*
X47741602Y-31362447D01*
X25003404Y-31103896D02*
X25031637Y-31143985D01*
X22210812Y-52752416D02*
X22219195Y-52704104D01*
X17417Y-69182974D02*
X19505Y-69195007D01*
X33904085Y-24828127D02*
X33882039Y-24871925D01*
X47741602Y-41962447D02*
X47756983Y-42009005D01*
X44843016Y-17390994D02*
X44829939Y-17343737D01*
X44801203Y-17150018D02*
X44800000Y-17100987D01*
X25200000Y-25412272D02*
X25200000Y-27700987D01*
X112842Y-69460324D02*
X118333Y-69471232D01*
X47183300Y-28623955D02*
X47137552Y-28641602D01*
X45092600Y-49607399D02*
X45058790Y-49571887D01*
X36004810Y-24498919D02*
X36001203Y-24450018D01*
X33671887Y-44858790D02*
X33707399Y-44892600D01*
X914216Y-4214D02*
X902036Y-5112D01*
X33428127Y-34095914D02*
X33471925Y-34117960D01*
X47798796Y-57250018D02*
X47795189Y-57298919D01*
X47228127Y-20195914D02*
X47271925Y-20217960D01*
X47682039Y-52428074D02*
X47704085Y-52471872D01*
X33941602Y-55862447D02*
X33956983Y-55909005D01*
X47704085Y-52471872D02*
X47723955Y-52516699D01*
X36571872Y-25304085D02*
X36528074Y-25282039D01*
X44876044Y-41916699D02*
X44895914Y-41871872D01*
X47603404Y-31103896D02*
X47631637Y-31143985D01*
X47434758Y-49673237D02*
X47396103Y-49703404D01*
X36528074Y-34117960D02*
X36571872Y-34095914D01*
X24250018Y-41301203D02*
X24298919Y-41304810D01*
X47741602Y-28037552D02*
X47723955Y-28083300D01*
X44810812Y-52752416D02*
X44819195Y-52704104D01*
X25200000Y-52899012D02*
X25200000Y-55187727D01*
X33098919Y-58195189D02*
X33050018Y-58198796D01*
X44804810Y-21001080D02*
X44810812Y-20952416D01*
X22685411Y-30842129D02*
X22728074Y-30817960D01*
X69993387Y-69110132D02*
X69994882Y-69098012D01*
X69764768Y-356513D02*
X69715348Y-301986D01*
X22201203Y-17150018D02*
X22200000Y-17100987D01*
X25198796Y-42249981D02*
X25200000Y-42299012D01*
X25212272Y-55200000D02*
X33000987Y-55200000D01*
X22565241Y-30926762D02*
X22603896Y-30896595D01*
X24537552Y-49841602D02*
X24490994Y-49856983D01*
X33671887Y-23658790D02*
X33707399Y-23692600D01*
X22258397Y-57537552D02*
X22243016Y-57490994D01*
X22816699Y-20176044D02*
X22862447Y-20158397D01*
X22862447Y-28641602D02*
X22816699Y-28623955D01*
X36004810Y-56101080D02*
X36010812Y-56052416D01*
X47795189Y-42201080D02*
X47798796Y-42249981D01*
X33989187Y-56052416D02*
X33995189Y-56101080D01*
X22685411Y-41442129D02*
X22728074Y-41417960D01*
X45652416Y-39289187D02*
X45604104Y-39280804D01*
X24756014Y-20268362D02*
X24796103Y-20296595D01*
X47682039Y-38771925D02*
X47657870Y-38814588D01*
X47541209Y-28371887D02*
X47507399Y-28407399D01*
X44895914Y-17528127D02*
X44876044Y-17483300D01*
X36001203Y-24349981D02*
X36004810Y-24301080D01*
X36571872Y-44695914D02*
X36616699Y-44676044D01*
X47704085Y-38728127D02*
X47682039Y-38771925D01*
X22342129Y-12285411D02*
X22368362Y-12243985D01*
X33290994Y-46556983D02*
X33243737Y-46570060D01*
X45128112Y-30958790D02*
X45165241Y-30926762D01*
X25123955Y-28083300D02*
X25104085Y-28128127D01*
X24628127Y-20195914D02*
X24671925Y-20217960D01*
X36999012Y-23400000D02*
X44787727Y-23400000D01*
X33243737Y-46570060D02*
X33195895Y-46580804D01*
X45058790Y-17771887D02*
X45026762Y-17734758D01*
X36756262Y-44629939D02*
X36804104Y-44619195D01*
X24671925Y-41417960D02*
X24714588Y-41442129D01*
X33980804Y-35195895D02*
X33970060Y-35243737D01*
X24347583Y-51910812D02*
X24395895Y-51919195D01*
X44787727Y-36000000D02*
X36999012Y-36000000D01*
X22368362Y-57756014D02*
X22342129Y-57714588D01*
X33995189Y-24301080D02*
X33998796Y-24349981D01*
X22528112Y-41558790D02*
X22565241Y-41526762D01*
X69881666Y-69471232D02*
X69887157Y-69460324D01*
X33471925Y-44717960D02*
X33514588Y-44742129D01*
X45416699Y-20176044D02*
X45462447Y-20158397D01*
X25156983Y-52609005D02*
X25170060Y-52656262D01*
X33471925Y-55317960D02*
X33514588Y-55342129D01*
X36328112Y-34258790D02*
X36365241Y-34226762D01*
X47657870Y-41785411D02*
X47682039Y-41828074D01*
X33290994Y-35956983D02*
X33243737Y-35970060D01*
X45462447Y-41358397D02*
X45509005Y-41343016D01*
X47603404Y-12203896D02*
X47631637Y-12243985D01*
X33707399Y-14507399D02*
X33671887Y-14541209D01*
X24443737Y-39270060D02*
X24395895Y-39280804D01*
X45509005Y-18056983D02*
X45462447Y-18041602D01*
X33956983Y-12509005D02*
X33970060Y-12556262D01*
X47631637Y-12243985D02*
X47657870Y-12285411D01*
X71994Y-69371151D02*
X76389Y-69382545D01*
X45749981Y-18098796D02*
X45701080Y-18095189D01*
X36443985Y-25231637D02*
X36403896Y-25203404D01*
X617409Y-76408D02*
X606244Y-81357D01*
X33556014Y-55368362D02*
X33596103Y-55396595D01*
X22196Y-69206994D02*
X40077Y-69278380D01*
X24250018Y-28698796D02*
X24200987Y-28700000D01*
X33970060Y-45843737D02*
X33956983Y-45890994D01*
X45799012Y-39300000D02*
X45749981Y-39298796D01*
X44917960Y-20628074D02*
X44942129Y-20585411D01*
X44829939Y-52656262D02*
X44843016Y-52609005D01*
X47573237Y-12165241D02*
X47603404Y-12203896D01*
X33050018Y-58198796D02*
X33000987Y-58200000D01*
X24834758Y-39073237D02*
X24796103Y-39103404D01*
X44800000Y-52899012D02*
X44801203Y-52849981D01*
X23004104Y-51919195D02*
X23052416Y-51910812D01*
X24628127Y-49804085D02*
X24583300Y-49823955D01*
X22229939Y-12556262D02*
X22243016Y-12509005D01*
X45243985Y-52068362D02*
X45285411Y-52042129D01*
X47682039Y-20628074D02*
X47704085Y-20671872D01*
X45203896Y-52096595D02*
X45243985Y-52068362D01*
X45416699Y-28623955D02*
X45371872Y-28604085D01*
X36258790Y-35671887D02*
X36226762Y-35634758D01*
X24834758Y-52126762D02*
X24871887Y-52158790D01*
X36226762Y-23765241D02*
X36258790Y-23728112D01*
X33995189Y-34901080D02*
X33998796Y-34949981D01*
X44799729Y-33998754D02*
X44799999Y-33987752D01*
X47573237Y-20465241D02*
X47603404Y-20503896D01*
X69982586Y-69182950D02*
X69993383Y-69110156D01*
X19515Y-69195055D02*
X22191Y-69206971D01*
X33803404Y-23803896D02*
X33831637Y-23843985D01*
X25082039Y-28171925D02*
X25057870Y-28214588D01*
X47471887Y-39041209D02*
X47434758Y-39073237D01*
X46850018Y-49898796D02*
X46800987Y-49900000D01*
X33556014Y-14631637D02*
X33514588Y-14657870D01*
X47795189Y-12701080D02*
X47798796Y-12749981D01*
X24941209Y-49571887D02*
X24907399Y-49607399D01*
X69977803Y-793005D02*
X69959922Y-721619D01*
X24671925Y-49782039D02*
X24628127Y-49804085D01*
X47573237Y-52265241D02*
X47603404Y-52303896D01*
X25200000Y-33987752D02*
X25200270Y-33998754D01*
X47657870Y-49414588D02*
X47631637Y-49456014D01*
X22816699Y-28623955D02*
X22771872Y-28604085D01*
X22956262Y-18070060D02*
X22909005Y-18056983D01*
X36571872Y-46504085D02*
X36528074Y-46482039D01*
X45556262Y-49870060D02*
X45509005Y-49856983D01*
X36662447Y-58141602D02*
X36616699Y-58123955D01*
X36756262Y-23429939D02*
X36804104Y-23419195D01*
X45701080Y-49895189D02*
X45652416Y-49889187D01*
X25104085Y-38728127D02*
X25082039Y-38771925D01*
X44942129Y-17614588D02*
X44917960Y-17571925D01*
X47795189Y-57298919D02*
X47789187Y-57347583D01*
X33337552Y-46541602D02*
X33290994Y-46556983D01*
X47541209Y-12128112D02*
X47573237Y-12165241D01*
X44942129Y-20585411D02*
X44968362Y-20543985D01*
X33882039Y-45128074D02*
X33904085Y-45171872D01*
X36004810Y-35098919D02*
X36001203Y-35050018D01*
X33882039Y-57671925D02*
X33857870Y-57714588D01*
X45701080Y-41304810D02*
X45749981Y-41301203D01*
X47396103Y-39103404D02*
X47356014Y-39131637D01*
X24973237Y-28334758D02*
X24941209Y-28371887D01*
X36029939Y-24156262D02*
X36043016Y-24109005D01*
X33882039Y-24871925D02*
X33857870Y-24914588D01*
X33773237Y-12165241D02*
X33803404Y-12203896D01*
X22200000Y-12799012D02*
X22201203Y-12749981D01*
X47471887Y-57941209D02*
X47434758Y-57973237D01*
X47723955Y-20716699D02*
X47741602Y-20762447D01*
X23052416Y-30710812D02*
X23101080Y-30704810D01*
X284668Y-69698031D02*
X293089Y-69706876D01*
X25198796Y-21049981D02*
X25200000Y-21099012D01*
X33337552Y-25341602D02*
X33290994Y-25356983D01*
X36258790Y-57871887D02*
X36226762Y-57834758D01*
X47657870Y-12285411D02*
X47682039Y-12328074D01*
X69952805Y-698160D02*
X69928014Y-628871D01*
X24347583Y-30710812D02*
X24395895Y-30719195D01*
X45058790Y-41628112D02*
X45092600Y-41592600D01*
X33514588Y-11942129D02*
X33556014Y-11968362D01*
X22909005Y-41343016D02*
X22956262Y-41329939D01*
X46800987Y-28700000D02*
X45799012Y-28700000D01*
X22426762Y-52265241D02*
X22458790Y-52228112D01*
X23004104Y-20119195D02*
X23052416Y-20110812D01*
X69928014Y-69371128D02*
X69952805Y-69301839D01*
X33290994Y-14756983D02*
X33243737Y-14770060D01*
X46850018Y-58198796D02*
X46800987Y-58200000D01*
X22368362Y-20543985D02*
X22396595Y-20503896D01*
X22909005Y-18056983D02*
X22862447Y-18041602D01*
X375464Y-69780321D02*
X434572Y-69824158D01*
X33923955Y-34616699D02*
X33941602Y-34662447D01*
X45652416Y-51910812D02*
X45701080Y-51904810D01*
X44819195Y-17295895D02*
X44810812Y-17247583D01*
X36168362Y-12243985D02*
X36196595Y-12203896D01*
X33243737Y-23429939D02*
X33290994Y-23443016D01*
X36852416Y-58189187D02*
X36804104Y-58180804D01*
X33290994Y-11843016D02*
X33337552Y-11858397D01*
X22603896Y-58003404D02*
X22565241Y-57973237D01*
X36901080Y-11804810D02*
X36949981Y-11801203D01*
X25082039Y-31228074D02*
X25104085Y-31271872D01*
X24941209Y-41628112D02*
X24973237Y-41665241D01*
X25201245Y-55199729D02*
X25212247Y-55199999D01*
X36117960Y-12328074D02*
X36142129Y-12285411D01*
X24250018Y-30701203D02*
X24298919Y-30704810D01*
X44996595Y-28296103D02*
X44968362Y-28256014D01*
X46898919Y-58195189D02*
X46850018Y-58198796D01*
X36043016Y-45890994D02*
X36029939Y-45843737D01*
X22368362Y-28256014D02*
X22342129Y-28214588D01*
X45749981Y-49898796D02*
X45701080Y-49895189D01*
X36485411Y-55342129D02*
X36528074Y-55317960D01*
X45371872Y-18004085D02*
X45328074Y-17982039D01*
X25170060Y-17343737D02*
X25156983Y-17390994D01*
X22728074Y-49782039D02*
X22685411Y-49757870D01*
X36226762Y-44965241D02*
X36258790Y-44928112D01*
X24941209Y-28371887D02*
X24907399Y-28407399D01*
X22396595Y-17696103D02*
X22368362Y-17656014D01*
X23199012Y-11800000D02*
X33000987Y-11800000D01*
X24490994Y-41343016D02*
X24537552Y-41358397D01*
X36029939Y-45356262D02*
X36043016Y-45309005D01*
X22210812Y-20952416D02*
X22219195Y-20904104D01*
X25200270Y-14801245D02*
X25200000Y-14812247D01*
X36226762Y-25034758D02*
X36196595Y-24996103D01*
X36662447Y-23458397D02*
X36709005Y-23443016D01*
X22426762Y-28334758D02*
X22396595Y-28296103D01*
M02*
