G04 #@! TF.GenerationSoftware,KiCad,Pcbnew,8.0.8*
G04 #@! TF.CreationDate,2025-01-22T19:28:49-05:00*
G04 #@! TF.ProjectId,panel,70616e65-6c2e-46b6-9963-61645f706362,rev?*
G04 #@! TF.SameCoordinates,Original*
G04 #@! TF.FileFunction,Copper,L3,Inr*
G04 #@! TF.FilePolarity,Positive*
%FSLAX46Y46*%
G04 Gerber Fmt 4.6, Leading zero omitted, Abs format (unit mm)*
G04 Created by KiCad (PCBNEW 8.0.8) date 2025-01-22 19:28:49*
%MOMM*%
%LPD*%
G01*
G04 APERTURE LIST*
G04 #@! TA.AperFunction,ViaPad*
%ADD10C,0.450000*%
G04 #@! TD*
G04 #@! TA.AperFunction,ViaPad*
%ADD11C,0.350000*%
G04 #@! TD*
G04 #@! TA.AperFunction,Conductor*
%ADD12C,0.350000*%
G04 #@! TD*
G04 #@! TA.AperFunction,Conductor*
%ADD13C,0.200000*%
G04 #@! TD*
G04 #@! TA.AperFunction,Conductor*
%ADD14C,0.150000*%
G04 #@! TD*
G04 APERTURE END LIST*
D10*
G04 #@! TO.N,Board_0-+1V1*
X31650000Y-18220000D03*
X40438678Y-22227818D03*
D11*
G04 #@! TO.N,Board_0-+3.3V*
X37390000Y-22975000D03*
X40980000Y-22210000D03*
D10*
X33725000Y-20360170D03*
D11*
X39580000Y-15300000D03*
D10*
X43290000Y-17889994D03*
X25760000Y-21570000D03*
D11*
X41680000Y-22255002D03*
X32080000Y-21900000D03*
D10*
X42730000Y-17885002D03*
D11*
X37614700Y-16561949D03*
X38651593Y-20498407D03*
X30630003Y-15273512D03*
X33490000Y-15249997D03*
G04 #@! TO.N,Board_0-/ADC_EMF_A*
X29920000Y-21946135D03*
X34175000Y-22455000D03*
G04 #@! TO.N,Board_0-/ADC_EMF_B*
X30630095Y-22105405D03*
X34555388Y-22196336D03*
G04 #@! TO.N,Board_0-/AUX1 (VDC)*
X29050000Y-22230000D03*
X31112361Y-22715000D03*
G04 #@! TO.N,Board_0-/AUX10*
X32249333Y-17274619D03*
X27314998Y-17510000D03*
G04 #@! TO.N,Board_0-/AUX11*
X34550000Y-17010000D03*
X27431496Y-16899858D03*
G04 #@! TO.N,Board_0-/AUX12*
X34935000Y-16710000D03*
X27420000Y-16439999D03*
G04 #@! TO.N,Board_0-/AUX3*
X35413785Y-16870000D03*
X26510000Y-18264998D03*
G04 #@! TO.N,Board_0-/AUX4*
X26970002Y-18264230D03*
X35791778Y-16607848D03*
G04 #@! TO.N,Board_0-/BOOT*
X34142715Y-16796175D03*
X42240000Y-18060001D03*
D10*
G04 #@! TO.N,Board_0-/CAP+*
X28615002Y-19964998D03*
D11*
G04 #@! TO.N,Board_0-/CAP_ENABLE*
X38441343Y-17125469D03*
X30465113Y-19904963D03*
X38280001Y-20197414D03*
G04 #@! TO.N,Board_0-/GPIO21*
X26910907Y-17090907D03*
X37580000Y-21160002D03*
G04 #@! TO.N,Board_0-/GPIO22*
X34490000Y-21300000D03*
G04 #@! TO.N,Board_0-/GPIO23*
X34489998Y-20780000D03*
G04 #@! TO.N,Board_0-/GPIO24*
X36200000Y-22210000D03*
G04 #@! TO.N,Board_0-/GPIO25*
X33360000Y-22715000D03*
X35770000Y-22560000D03*
G04 #@! TO.N,Board_0-/GPIO26*
X35375000Y-22210000D03*
X26970000Y-22960000D03*
G04 #@! TO.N,Board_0-/GPIO27*
X34960000Y-22455000D03*
X28630000Y-22975000D03*
G04 #@! TO.N,Board_0-/I2S_BCLK*
X36707564Y-16670000D03*
X31104996Y-16204816D03*
G04 #@! TO.N,Board_0-/I2S_DIN*
X37167567Y-16670000D03*
X31231473Y-15762546D03*
G04 #@! TO.N,Board_0-/I2S_LRCLK*
X30263312Y-16393134D03*
X36247562Y-16670001D03*
G04 #@! TO.N,Board_0-/LAMP_FRONT*
X25690000Y-22775000D03*
G04 #@! TO.N,Board_0-/LAMP_REAR*
X27930000Y-22940000D03*
D10*
G04 #@! TO.N,Board_0-/MOTOR_A*
X29880000Y-20910000D03*
G04 #@! TO.N,Board_0-/MOTOR_B*
X30465000Y-20875000D03*
D11*
G04 #@! TO.N,Board_0-/SPEAKER_N*
X28466031Y-17651301D03*
G04 #@! TO.N,Board_0-/SPEAKER_P*
X28179116Y-17170001D03*
D10*
G04 #@! TO.N,Board_0-/TRACK_LEFT*
X25770000Y-15660000D03*
X25740838Y-16272157D03*
G04 #@! TO.N,Board_0-/TRACK_RIGHT*
X26877865Y-22253652D03*
X27380000Y-22250000D03*
G04 #@! TO.N,Board_0-GND*
X36520000Y-20680000D03*
D11*
X30719108Y-16455201D03*
X32080000Y-15250000D03*
D10*
X28920000Y-15280000D03*
X26549580Y-17720247D03*
D11*
X41520000Y-17680000D03*
D10*
X43090000Y-19900000D03*
D11*
X39580000Y-15940000D03*
D10*
X28460574Y-18210504D03*
D11*
X29945002Y-22975000D03*
D10*
X26720000Y-20500000D03*
D11*
X33728136Y-17149687D03*
D10*
X28817298Y-21450000D03*
X26730000Y-21191190D03*
X41948440Y-19654065D03*
X44325000Y-16130000D03*
D11*
X41987176Y-17675707D03*
D10*
X37530000Y-21740000D03*
D11*
X27425000Y-15360000D03*
X32840000Y-15249997D03*
G04 #@! TO.N,Board_0-Net-(C3-Pad1)*
X44330000Y-16770000D03*
G04 #@! TO.N,Board_0-Net-(U1-CLK)*
X32791571Y-17882851D03*
X43150000Y-22460000D03*
G04 #@! TO.N,Board_0-Net-(U1-DI(IO0))*
X43945009Y-22475000D03*
X32750916Y-17090001D03*
G04 #@! TO.N,Board_0-Net-(U1-DO(IO1))*
X33030884Y-17490000D03*
X42419161Y-19035839D03*
G04 #@! TO.N,Board_0-Net-(U1-IO2)*
X43150000Y-19040000D03*
X32215007Y-17818061D03*
G04 #@! TO.N,Board_0-Net-(U1-IO3)*
X42400000Y-22460000D03*
X33040000Y-18270000D03*
G04 #@! TO.N,Board_0-Net-(U3-GPIO12)*
X43816288Y-17835002D03*
X40031702Y-16340000D03*
G04 #@! TO.N,Board_0-Net-(U5-OUTN)*
X30104999Y-15787138D03*
G04 #@! TO.N,Board_0-Net-(U5-OUTP)*
X28100000Y-15345000D03*
G04 #@! TO.N,Board_0-VDC*
X26420000Y-19610000D03*
D10*
G04 #@! TO.N,Board_1-+1V1*
X40438678Y-32827818D03*
X31650000Y-28820000D03*
D11*
G04 #@! TO.N,Board_1-+3.3V*
X41680000Y-32855002D03*
X40980000Y-32810000D03*
X38651593Y-31098407D03*
X39580000Y-25900000D03*
D10*
X25760000Y-32170000D03*
X33725000Y-30960170D03*
D11*
X37614700Y-27161949D03*
D10*
X42730000Y-28485002D03*
D11*
X33490000Y-25849997D03*
X37390000Y-33575000D03*
X30630003Y-25873512D03*
D10*
X43290000Y-28489994D03*
D11*
X32080000Y-32500000D03*
G04 #@! TO.N,Board_1-/ADC_EMF_A*
X29920000Y-32546135D03*
X34175000Y-33055000D03*
G04 #@! TO.N,Board_1-/ADC_EMF_B*
X30630095Y-32705405D03*
X34555388Y-32796336D03*
G04 #@! TO.N,Board_1-/AUX1 (VDC)*
X29050000Y-32830000D03*
X31112361Y-33315000D03*
G04 #@! TO.N,Board_1-/AUX10*
X32249333Y-27874619D03*
X27314998Y-28110000D03*
G04 #@! TO.N,Board_1-/AUX11*
X34550000Y-27610000D03*
X27431496Y-27499858D03*
G04 #@! TO.N,Board_1-/AUX12*
X27420000Y-27039999D03*
X34935000Y-27310000D03*
G04 #@! TO.N,Board_1-/AUX3*
X26510000Y-28864998D03*
X35413785Y-27470000D03*
G04 #@! TO.N,Board_1-/AUX4*
X26970002Y-28864230D03*
X35791778Y-27207848D03*
G04 #@! TO.N,Board_1-/BOOT*
X42240000Y-28660001D03*
X34142715Y-27396175D03*
D10*
G04 #@! TO.N,Board_1-/CAP+*
X28615002Y-30564998D03*
D11*
G04 #@! TO.N,Board_1-/CAP_ENABLE*
X38280001Y-30797414D03*
X38441343Y-27725469D03*
X30465113Y-30504963D03*
G04 #@! TO.N,Board_1-/GPIO21*
X26910907Y-27690907D03*
X37580000Y-31760002D03*
G04 #@! TO.N,Board_1-/GPIO22*
X34490000Y-31900000D03*
G04 #@! TO.N,Board_1-/GPIO23*
X34489998Y-31380000D03*
G04 #@! TO.N,Board_1-/GPIO24*
X36200000Y-32810000D03*
G04 #@! TO.N,Board_1-/GPIO25*
X33360000Y-33315000D03*
X35770000Y-33160000D03*
G04 #@! TO.N,Board_1-/GPIO26*
X26970000Y-33560000D03*
X35375000Y-32810000D03*
G04 #@! TO.N,Board_1-/GPIO27*
X34960000Y-33055000D03*
X28630000Y-33575000D03*
G04 #@! TO.N,Board_1-/I2S_BCLK*
X36707564Y-27270000D03*
X31104996Y-26804816D03*
G04 #@! TO.N,Board_1-/I2S_DIN*
X37167567Y-27270000D03*
X31231473Y-26362546D03*
G04 #@! TO.N,Board_1-/I2S_LRCLK*
X30263312Y-26993134D03*
X36247562Y-27270001D03*
G04 #@! TO.N,Board_1-/LAMP_FRONT*
X25690000Y-33375000D03*
G04 #@! TO.N,Board_1-/LAMP_REAR*
X27930000Y-33540000D03*
D10*
G04 #@! TO.N,Board_1-/MOTOR_A*
X29880000Y-31510000D03*
G04 #@! TO.N,Board_1-/MOTOR_B*
X30465000Y-31475000D03*
D11*
G04 #@! TO.N,Board_1-/SPEAKER_N*
X28466031Y-28251301D03*
G04 #@! TO.N,Board_1-/SPEAKER_P*
X28179116Y-27770001D03*
D10*
G04 #@! TO.N,Board_1-/TRACK_LEFT*
X25770000Y-26260000D03*
X25740838Y-26872157D03*
G04 #@! TO.N,Board_1-/TRACK_RIGHT*
X26877865Y-32853652D03*
X27380000Y-32850000D03*
G04 #@! TO.N,Board_1-GND*
X43090000Y-30500000D03*
X28817298Y-32050000D03*
D11*
X39580000Y-26540000D03*
D10*
X36520000Y-31280000D03*
X28460574Y-28810504D03*
D11*
X41987176Y-28275707D03*
D10*
X26549580Y-28320247D03*
D11*
X32840000Y-25849997D03*
X33728136Y-27749687D03*
X32080000Y-25850000D03*
X41520000Y-28280000D03*
D10*
X28920000Y-25880000D03*
X26720000Y-31100000D03*
X41948440Y-30254065D03*
X37530000Y-32340000D03*
D11*
X27425000Y-25960000D03*
X29945002Y-33575000D03*
D10*
X44325000Y-26730000D03*
X26730000Y-31791190D03*
D11*
X30719108Y-27055201D03*
G04 #@! TO.N,Board_1-Net-(C3-Pad1)*
X44330000Y-27370000D03*
G04 #@! TO.N,Board_1-Net-(U1-CLK)*
X32791571Y-28482851D03*
X43150000Y-33060000D03*
G04 #@! TO.N,Board_1-Net-(U1-DI(IO0))*
X32750916Y-27690001D03*
X43945009Y-33075000D03*
G04 #@! TO.N,Board_1-Net-(U1-DO(IO1))*
X42419161Y-29635839D03*
X33030884Y-28090000D03*
G04 #@! TO.N,Board_1-Net-(U1-IO2)*
X32215007Y-28418061D03*
X43150000Y-29640000D03*
G04 #@! TO.N,Board_1-Net-(U1-IO3)*
X42400000Y-33060000D03*
X33040000Y-28870000D03*
G04 #@! TO.N,Board_1-Net-(U3-GPIO12)*
X40031702Y-26940000D03*
X43816288Y-28435002D03*
G04 #@! TO.N,Board_1-Net-(U5-OUTN)*
X30104999Y-26387138D03*
G04 #@! TO.N,Board_1-Net-(U5-OUTP)*
X28100000Y-25945000D03*
G04 #@! TO.N,Board_1-VDC*
X26420000Y-30210000D03*
D10*
G04 #@! TO.N,Board_2-+1V1*
X40438678Y-43427818D03*
X31650000Y-39420000D03*
G04 #@! TO.N,Board_2-+3.3V*
X43290000Y-39089994D03*
D11*
X33490000Y-36449997D03*
X39580000Y-36500000D03*
D10*
X25760000Y-42770000D03*
X33725000Y-41560170D03*
D11*
X37390000Y-44175000D03*
X32080000Y-43100000D03*
X30630003Y-36473512D03*
X37614700Y-37761949D03*
X40980000Y-43410000D03*
X38651593Y-41698407D03*
D10*
X42730000Y-39085002D03*
D11*
X41680000Y-43455002D03*
G04 #@! TO.N,Board_2-/ADC_EMF_A*
X34175000Y-43655000D03*
X29920000Y-43146135D03*
G04 #@! TO.N,Board_2-/ADC_EMF_B*
X34555388Y-43396336D03*
X30630095Y-43305405D03*
G04 #@! TO.N,Board_2-/AUX1 (VDC)*
X29050000Y-43430000D03*
X31112361Y-43915000D03*
G04 #@! TO.N,Board_2-/AUX10*
X32249333Y-38474619D03*
X27314998Y-38710000D03*
G04 #@! TO.N,Board_2-/AUX11*
X34550000Y-38210000D03*
X27431496Y-38099858D03*
G04 #@! TO.N,Board_2-/AUX12*
X27420000Y-37639999D03*
X34935000Y-37910000D03*
G04 #@! TO.N,Board_2-/AUX3*
X35413785Y-38070000D03*
X26510000Y-39464998D03*
G04 #@! TO.N,Board_2-/AUX4*
X26970002Y-39464230D03*
X35791778Y-37807848D03*
G04 #@! TO.N,Board_2-/BOOT*
X42240000Y-39260001D03*
X34142715Y-37996175D03*
D10*
G04 #@! TO.N,Board_2-/CAP+*
X28615002Y-41164998D03*
D11*
G04 #@! TO.N,Board_2-/CAP_ENABLE*
X38280001Y-41397414D03*
X30465113Y-41104963D03*
X38441343Y-38325469D03*
G04 #@! TO.N,Board_2-/GPIO21*
X37580000Y-42360002D03*
X26910907Y-38290907D03*
G04 #@! TO.N,Board_2-/GPIO22*
X34490000Y-42500000D03*
G04 #@! TO.N,Board_2-/GPIO23*
X34489998Y-41980000D03*
G04 #@! TO.N,Board_2-/GPIO24*
X36200000Y-43410000D03*
G04 #@! TO.N,Board_2-/GPIO25*
X35770000Y-43760000D03*
X33360000Y-43915000D03*
G04 #@! TO.N,Board_2-/GPIO26*
X26970000Y-44160000D03*
X35375000Y-43410000D03*
G04 #@! TO.N,Board_2-/GPIO27*
X34960000Y-43655000D03*
X28630000Y-44175000D03*
G04 #@! TO.N,Board_2-/I2S_BCLK*
X36707564Y-37870000D03*
X31104996Y-37404816D03*
G04 #@! TO.N,Board_2-/I2S_DIN*
X37167567Y-37870000D03*
X31231473Y-36962546D03*
G04 #@! TO.N,Board_2-/I2S_LRCLK*
X30263312Y-37593134D03*
X36247562Y-37870001D03*
G04 #@! TO.N,Board_2-/LAMP_FRONT*
X25690000Y-43975000D03*
G04 #@! TO.N,Board_2-/LAMP_REAR*
X27930000Y-44140000D03*
D10*
G04 #@! TO.N,Board_2-/MOTOR_A*
X29880000Y-42110000D03*
G04 #@! TO.N,Board_2-/MOTOR_B*
X30465000Y-42075000D03*
D11*
G04 #@! TO.N,Board_2-/SPEAKER_N*
X28466031Y-38851301D03*
G04 #@! TO.N,Board_2-/SPEAKER_P*
X28179116Y-38370001D03*
D10*
G04 #@! TO.N,Board_2-/TRACK_LEFT*
X25770000Y-36860000D03*
X25740838Y-37472157D03*
G04 #@! TO.N,Board_2-/TRACK_RIGHT*
X27380000Y-43450000D03*
X26877865Y-43453652D03*
G04 #@! TO.N,Board_2-GND*
X28920000Y-36480000D03*
D11*
X32080000Y-36450000D03*
D10*
X28460574Y-39410504D03*
X43090000Y-41100000D03*
D11*
X33728136Y-38349687D03*
D10*
X37530000Y-42940000D03*
D11*
X41520000Y-38880000D03*
X29945002Y-44175000D03*
D10*
X44325000Y-37330000D03*
X26720000Y-41700000D03*
D11*
X32840000Y-36449997D03*
X27425000Y-36560000D03*
X41987176Y-38875707D03*
D10*
X28817298Y-42650000D03*
X36520000Y-41880000D03*
D11*
X39580000Y-37140000D03*
D10*
X26730000Y-42391190D03*
D11*
X30719108Y-37655201D03*
D10*
X26549580Y-38920247D03*
X41948440Y-40854065D03*
D11*
G04 #@! TO.N,Board_2-Net-(C3-Pad1)*
X44330000Y-37970000D03*
G04 #@! TO.N,Board_2-Net-(U1-CLK)*
X43150000Y-43660000D03*
X32791571Y-39082851D03*
G04 #@! TO.N,Board_2-Net-(U1-DI(IO0))*
X32750916Y-38290001D03*
X43945009Y-43675000D03*
G04 #@! TO.N,Board_2-Net-(U1-DO(IO1))*
X42419161Y-40235839D03*
X33030884Y-38690000D03*
G04 #@! TO.N,Board_2-Net-(U1-IO2)*
X32215007Y-39018061D03*
X43150000Y-40240000D03*
G04 #@! TO.N,Board_2-Net-(U1-IO3)*
X42400000Y-43660000D03*
X33040000Y-39470000D03*
G04 #@! TO.N,Board_2-Net-(U3-GPIO12)*
X40031702Y-37540000D03*
X43816288Y-39035002D03*
G04 #@! TO.N,Board_2-Net-(U5-OUTN)*
X30104999Y-36987138D03*
G04 #@! TO.N,Board_2-Net-(U5-OUTP)*
X28100000Y-36545000D03*
G04 #@! TO.N,Board_2-VDC*
X26420000Y-40810000D03*
D10*
G04 #@! TO.N,Board_3-+1V1*
X40438678Y-54027818D03*
X31650000Y-50020000D03*
D11*
G04 #@! TO.N,Board_3-+3.3V*
X33490000Y-47049997D03*
D10*
X25760000Y-53370000D03*
X43290000Y-49689994D03*
D11*
X40980000Y-54010000D03*
D10*
X33725000Y-52160170D03*
D11*
X41680000Y-54055002D03*
X38651593Y-52298407D03*
X37614700Y-48361949D03*
D10*
X42730000Y-49685002D03*
D11*
X39580000Y-47100000D03*
X30630003Y-47073512D03*
X37390000Y-54775000D03*
X32080000Y-53700000D03*
G04 #@! TO.N,Board_3-/ADC_EMF_A*
X34175000Y-54255000D03*
X29920000Y-53746135D03*
G04 #@! TO.N,Board_3-/ADC_EMF_B*
X30630095Y-53905405D03*
X34555388Y-53996336D03*
G04 #@! TO.N,Board_3-/AUX1 (VDC)*
X31112361Y-54515000D03*
X29050000Y-54030000D03*
G04 #@! TO.N,Board_3-/AUX10*
X27314998Y-49310000D03*
X32249333Y-49074619D03*
G04 #@! TO.N,Board_3-/AUX11*
X27431496Y-48699858D03*
X34550000Y-48810000D03*
G04 #@! TO.N,Board_3-/AUX12*
X27420000Y-48239999D03*
X34935000Y-48510000D03*
G04 #@! TO.N,Board_3-/AUX3*
X35413785Y-48670000D03*
X26510000Y-50064998D03*
G04 #@! TO.N,Board_3-/AUX4*
X26970002Y-50064230D03*
X35791778Y-48407848D03*
G04 #@! TO.N,Board_3-/BOOT*
X42240000Y-49860001D03*
X34142715Y-48596175D03*
D10*
G04 #@! TO.N,Board_3-/CAP+*
X28615002Y-51764998D03*
D11*
G04 #@! TO.N,Board_3-/CAP_ENABLE*
X38441343Y-48925469D03*
X30465113Y-51704963D03*
X38280001Y-51997414D03*
G04 #@! TO.N,Board_3-/GPIO21*
X37580000Y-52960002D03*
X26910907Y-48890907D03*
G04 #@! TO.N,Board_3-/GPIO22*
X34490000Y-53100000D03*
G04 #@! TO.N,Board_3-/GPIO23*
X34489998Y-52580000D03*
G04 #@! TO.N,Board_3-/GPIO24*
X36200000Y-54010000D03*
G04 #@! TO.N,Board_3-/GPIO25*
X35770000Y-54360000D03*
X33360000Y-54515000D03*
G04 #@! TO.N,Board_3-/GPIO26*
X35375000Y-54010000D03*
X26970000Y-54760000D03*
G04 #@! TO.N,Board_3-/GPIO27*
X28630000Y-54775000D03*
X34960000Y-54255000D03*
G04 #@! TO.N,Board_3-/I2S_BCLK*
X36707564Y-48470000D03*
X31104996Y-48004816D03*
G04 #@! TO.N,Board_3-/I2S_DIN*
X31231473Y-47562546D03*
X37167567Y-48470000D03*
G04 #@! TO.N,Board_3-/I2S_LRCLK*
X30263312Y-48193134D03*
X36247562Y-48470001D03*
G04 #@! TO.N,Board_3-/LAMP_FRONT*
X25690000Y-54575000D03*
G04 #@! TO.N,Board_3-/LAMP_REAR*
X27930000Y-54740000D03*
D10*
G04 #@! TO.N,Board_3-/MOTOR_A*
X29880000Y-52710000D03*
G04 #@! TO.N,Board_3-/MOTOR_B*
X30465000Y-52675000D03*
D11*
G04 #@! TO.N,Board_3-/SPEAKER_N*
X28466031Y-49451301D03*
G04 #@! TO.N,Board_3-/SPEAKER_P*
X28179116Y-48970001D03*
D10*
G04 #@! TO.N,Board_3-/TRACK_LEFT*
X25770000Y-47460000D03*
X25740838Y-48072157D03*
G04 #@! TO.N,Board_3-/TRACK_RIGHT*
X26877865Y-54053652D03*
X27380000Y-54050000D03*
D11*
G04 #@! TO.N,Board_3-GND*
X39580000Y-47740000D03*
D10*
X44325000Y-47930000D03*
X43090000Y-51700000D03*
D11*
X32840000Y-47049997D03*
D10*
X28817298Y-53250000D03*
X36520000Y-52480000D03*
X37530000Y-53540000D03*
X26730000Y-52991190D03*
D11*
X41987176Y-49475707D03*
X33728136Y-48949687D03*
X29945002Y-54775000D03*
D10*
X28920000Y-47080000D03*
D11*
X41520000Y-49480000D03*
D10*
X26720000Y-52300000D03*
X41948440Y-51454065D03*
D11*
X27425000Y-47160000D03*
D10*
X26549580Y-49520247D03*
D11*
X30719108Y-48255201D03*
X32080000Y-47050000D03*
D10*
X28460574Y-50010504D03*
D11*
G04 #@! TO.N,Board_3-Net-(C3-Pad1)*
X44330000Y-48570000D03*
G04 #@! TO.N,Board_3-Net-(U1-CLK)*
X43150000Y-54260000D03*
X32791571Y-49682851D03*
G04 #@! TO.N,Board_3-Net-(U1-DI(IO0))*
X32750916Y-48890001D03*
X43945009Y-54275000D03*
G04 #@! TO.N,Board_3-Net-(U1-DO(IO1))*
X33030884Y-49290000D03*
X42419161Y-50835839D03*
G04 #@! TO.N,Board_3-Net-(U1-IO2)*
X43150000Y-50840000D03*
X32215007Y-49618061D03*
G04 #@! TO.N,Board_3-Net-(U1-IO3)*
X42400000Y-54260000D03*
X33040000Y-50070000D03*
G04 #@! TO.N,Board_3-Net-(U3-GPIO12)*
X43816288Y-49635002D03*
X40031702Y-48140000D03*
G04 #@! TO.N,Board_3-Net-(U5-OUTN)*
X30104999Y-47587138D03*
G04 #@! TO.N,Board_3-Net-(U5-OUTP)*
X28100000Y-47145000D03*
G04 #@! TO.N,Board_3-VDC*
X26420000Y-51410000D03*
G04 #@! TD*
D12*
G04 #@! TO.N,Board_0-+1V1*
X31650000Y-18220000D02*
X31890884Y-18220000D01*
X31890884Y-18220000D02*
X32816353Y-19145469D01*
X40438678Y-20208678D02*
X40438678Y-22227818D01*
X39375469Y-19145469D02*
X40438678Y-20208678D01*
X32816353Y-19145469D02*
X39375469Y-19145469D01*
D13*
G04 #@! TO.N,Board_0-+3.3V*
X33725000Y-20360170D02*
X33840170Y-20245000D01*
X37783114Y-20245000D02*
X38120528Y-20582414D01*
X33840170Y-20245000D02*
X37783114Y-20245000D01*
X38567586Y-20582414D02*
X38651593Y-20498407D01*
X38120528Y-20582414D02*
X38567586Y-20582414D01*
D14*
G04 #@! TO.N,Board_0-/ADC_EMF_A*
X30121208Y-21744927D02*
X29920000Y-21946135D01*
X32637304Y-22555000D02*
X31829174Y-22555000D01*
X33815000Y-22095000D02*
X33097304Y-22095000D01*
X34175000Y-22455000D02*
X33815000Y-22095000D01*
X33097304Y-22095000D02*
X32637304Y-22555000D01*
X31829174Y-22555000D02*
X31019101Y-21744927D01*
X31019101Y-21744927D02*
X30121208Y-21744927D01*
G04 #@! TO.N,Board_0-/ADC_EMF_B*
X31715000Y-22815000D02*
X31472361Y-22572361D01*
X33210883Y-22355000D02*
X32750883Y-22815000D01*
X33515000Y-22355000D02*
X33210883Y-22355000D01*
X31472361Y-22572361D02*
X31472361Y-22565883D01*
X34377304Y-22815000D02*
X33975000Y-22815000D01*
X34555388Y-22196336D02*
X34555388Y-22636916D01*
X33975000Y-22815000D02*
X33515000Y-22355000D01*
X31011883Y-22105405D02*
X30630095Y-22105405D01*
X31472361Y-22565883D02*
X31011883Y-22105405D01*
X34555388Y-22636916D02*
X34377304Y-22815000D01*
X32750883Y-22815000D02*
X31715000Y-22815000D01*
G04 #@! TO.N,Board_0-/AUX1 (VDC)*
X31112361Y-22715000D02*
X31012361Y-22815000D01*
X31012361Y-22815000D02*
X30662696Y-22815000D01*
X30662696Y-22815000D02*
X30202695Y-22354999D01*
X30202695Y-22354999D02*
X29174999Y-22354999D01*
X29174999Y-22354999D02*
X29050000Y-22230000D01*
G04 #@! TO.N,Board_0-/AUX10*
X32016165Y-17274619D02*
X31435580Y-17855204D01*
X31435580Y-17855204D02*
X29617508Y-17855204D01*
X28080000Y-16760000D02*
X27330000Y-17510000D01*
X32249333Y-17274619D02*
X32016165Y-17274619D01*
X28522304Y-16760000D02*
X28080000Y-16760000D01*
X27330000Y-17510000D02*
X27314998Y-17510000D01*
X29617508Y-17855204D02*
X28522304Y-16760000D01*
G04 #@! TO.N,Board_0-/AUX11*
X34550000Y-17010000D02*
X34575000Y-16985000D01*
X34575000Y-16985000D02*
X34575000Y-16548088D01*
X34416910Y-16389998D02*
X32533090Y-16389998D01*
X32533090Y-16389998D02*
X31327885Y-17595203D01*
X28630000Y-16500000D02*
X27870000Y-16500000D01*
X27470142Y-16899858D02*
X27431496Y-16899858D01*
X27870000Y-16500000D02*
X27470142Y-16899858D01*
X31327885Y-17595203D02*
X29725203Y-17595203D01*
X34575000Y-16548088D02*
X34416910Y-16389998D01*
X29725203Y-17595203D02*
X28630000Y-16500000D01*
G04 #@! TO.N,Board_0-/AUX12*
X32425394Y-16129998D02*
X31220189Y-17335203D01*
X29869811Y-17335203D02*
X28774608Y-16240000D01*
X31220189Y-17335203D02*
X29869811Y-17335203D01*
X32425394Y-16129998D02*
X34524607Y-16129999D01*
X27619999Y-16240000D02*
X27420000Y-16439999D01*
X28774608Y-16240000D02*
X27619999Y-16240000D01*
X34935000Y-16710000D02*
X34935000Y-16540392D01*
X34935000Y-16540392D02*
X34524607Y-16129999D01*
G04 #@! TO.N,Board_0-/AUX3*
X35413785Y-16619668D02*
X34664115Y-15869998D01*
X26139580Y-17211302D02*
X26139580Y-17894578D01*
X35413785Y-16870000D02*
X35413785Y-16619668D01*
X29977506Y-17075202D02*
X28882304Y-15980000D01*
X27370882Y-15980000D02*
X26139580Y-17211302D01*
X26139580Y-17894578D02*
X26510000Y-18264998D01*
X31112494Y-17075202D02*
X29977506Y-17075202D01*
X28882304Y-15980000D02*
X27370882Y-15980000D01*
X32317699Y-15869997D02*
X31112494Y-17075202D01*
X32317699Y-15869997D02*
X34664115Y-15869998D01*
G04 #@! TO.N,Board_0-/AUX4*
X26835002Y-18624998D02*
X26970002Y-18489998D01*
X25879579Y-17103607D02*
X25879579Y-18143694D01*
X26970002Y-18489998D02*
X26970002Y-18264230D01*
X27263187Y-15719999D02*
X28990000Y-15720000D01*
X27263187Y-15719999D02*
X25879579Y-17103607D01*
X34771810Y-15609997D02*
X32208932Y-15609997D01*
X25879579Y-18143694D02*
X26360883Y-18624998D01*
X26360883Y-18624998D02*
X26835002Y-18624998D01*
X30085201Y-16815201D02*
X28990000Y-15720000D01*
X32208932Y-15609997D02*
X31003728Y-16815201D01*
X35769661Y-16607848D02*
X34771810Y-15609997D01*
X35791778Y-16607848D02*
X35769661Y-16607848D01*
X31003728Y-16815201D02*
X30085201Y-16815201D01*
G04 #@! TO.N,Board_0-/BOOT*
X34142715Y-16796175D02*
X34142715Y-17111832D01*
X42130001Y-18170000D02*
X42240000Y-18060001D01*
X34516353Y-17485470D02*
X40063066Y-17485470D01*
X40747596Y-18170000D02*
X42130001Y-18170000D01*
X34142715Y-17111832D02*
X34516353Y-17485470D01*
X40063066Y-17485470D02*
X40747596Y-18170000D01*
G04 #@! TO.N,Board_0-/CAP_ENABLE*
X37992587Y-19910000D02*
X30470150Y-19910000D01*
X30470150Y-19910000D02*
X30465113Y-19904963D01*
X38280001Y-20197414D02*
X37992587Y-19910000D01*
G04 #@! TO.N,Board_0-/GPIO21*
X39011593Y-20349290D02*
X38167772Y-19505469D01*
X26910907Y-17090907D02*
X26956617Y-17136617D01*
X32667237Y-19505469D02*
X31791768Y-18630000D01*
X31791768Y-18630000D02*
X27925881Y-18630000D01*
X38167772Y-19505469D02*
X32667237Y-19505469D01*
X37580000Y-21160002D02*
X38499115Y-21160002D01*
X39011593Y-20647524D02*
X39011593Y-20349290D01*
X26954998Y-17659117D02*
X26954998Y-17134998D01*
X38499115Y-21160002D02*
X39011593Y-20647524D01*
X26954998Y-17134998D02*
X26910907Y-17090907D01*
X27925881Y-18630000D02*
X26954998Y-17659117D01*
G04 #@! TO.N,Board_0-/GPIO26*
X29497018Y-21860000D02*
X28500883Y-21860000D01*
X28500883Y-21860000D02*
X27400883Y-22960000D01*
X32994608Y-21830000D02*
X32529608Y-22295000D01*
X30814927Y-21484927D02*
X29872092Y-21484926D01*
X35375000Y-22210000D02*
X34995000Y-21830000D01*
X32529608Y-22295000D02*
X31936870Y-22295000D01*
X27400883Y-22960000D02*
X26970000Y-22960000D01*
X31126797Y-21484927D02*
X30814927Y-21484927D01*
X31936870Y-22295000D02*
X31126797Y-21484927D01*
X34995000Y-21830000D02*
X32994608Y-21830000D01*
X29872092Y-21484926D02*
X29497018Y-21860000D01*
G04 #@! TO.N,Board_0-/GPIO27*
X34485000Y-23075000D02*
X30555000Y-23075000D01*
X34960000Y-22600000D02*
X34485000Y-23075000D01*
X30555000Y-23075000D02*
X30095000Y-22615000D01*
X28990000Y-22615000D02*
X28630000Y-22975000D01*
X30095000Y-22615000D02*
X28990000Y-22615000D01*
X34960000Y-22455000D02*
X34960000Y-22600000D01*
G04 #@! TO.N,Board_0-Net-(U1-CLK)*
X33580078Y-18265470D02*
X33197459Y-17882851D01*
X33197459Y-17882851D02*
X32791571Y-17882851D01*
X42670000Y-21980000D02*
X42670000Y-21192304D01*
X40427698Y-18950002D02*
X40424510Y-18950002D01*
X39739978Y-18265470D02*
X33580078Y-18265470D01*
X43150000Y-22460000D02*
X42670000Y-21980000D01*
X42670000Y-21192304D02*
X40427698Y-18950002D01*
X40424510Y-18950002D02*
X39739978Y-18265470D01*
G04 #@! TO.N,Board_0-Net-(U1-DI(IO0))*
X43460000Y-18430000D02*
X40639900Y-18430000D01*
X33795470Y-17745470D02*
X33140001Y-17090001D01*
X40639900Y-18430000D02*
X39955370Y-17745470D01*
X43940000Y-22469991D02*
X43940000Y-18910000D01*
X33140001Y-17090001D02*
X32750916Y-17090001D01*
X43945009Y-22475000D02*
X43940000Y-22469991D01*
X39955370Y-17745470D02*
X33795470Y-17745470D01*
X43940000Y-18910000D02*
X43460000Y-18430000D01*
G04 #@! TO.N,Board_0-Net-(U1-DO(IO1))*
X33172304Y-17490000D02*
X33030884Y-17490000D01*
X39847674Y-18005470D02*
X33687774Y-18005470D01*
X40532204Y-18690000D02*
X39847674Y-18005470D01*
X42419161Y-19035839D02*
X42073322Y-18690000D01*
X33687774Y-18005470D02*
X33172304Y-17490000D01*
X42073322Y-18690000D02*
X40532204Y-18690000D01*
G04 #@! TO.N,Board_0-Net-(U1-IO2)*
X32215007Y-18035007D02*
X32215007Y-17818061D01*
X43510000Y-22609117D02*
X43299117Y-22820000D01*
X42040000Y-21300884D02*
X39524585Y-18785469D01*
X39524585Y-18785469D02*
X32965469Y-18785469D01*
X43150000Y-19040000D02*
X43510000Y-19400000D01*
X43299117Y-22820000D02*
X42250883Y-22820000D01*
X32965469Y-18785469D02*
X32215007Y-18035007D01*
X42250883Y-22820000D02*
X42040000Y-22609117D01*
X43510000Y-19400000D02*
X43510000Y-22609117D01*
X42040000Y-22609117D02*
X42040000Y-21300884D01*
G04 #@! TO.N,Board_0-Net-(U1-IO3)*
X40316815Y-19210003D02*
X39632282Y-18525470D01*
X42400000Y-22460000D02*
X42410000Y-22450000D01*
X40320003Y-19210003D02*
X40316815Y-19210003D01*
X42410000Y-22450000D02*
X42410000Y-21300000D01*
X42410000Y-21300000D02*
X40320003Y-19210003D01*
X33295470Y-18525470D02*
X33040000Y-18270000D01*
X39632282Y-18525470D02*
X33295470Y-18525470D01*
G04 #@! TO.N,Board_0-Net-(U3-GPIO12)*
X43600000Y-17620000D02*
X43601286Y-17620000D01*
X43601286Y-17620000D02*
X43816288Y-17835002D01*
X42320000Y-16340000D02*
X43600000Y-17620000D01*
X40031702Y-16340000D02*
X42320000Y-16340000D01*
D12*
G04 #@! TO.N,Board_1-+1V1*
X31890884Y-28820000D02*
X32816353Y-29745469D01*
X32816353Y-29745469D02*
X39375469Y-29745469D01*
X31650000Y-28820000D02*
X31890884Y-28820000D01*
X40438678Y-30808678D02*
X40438678Y-32827818D01*
X39375469Y-29745469D02*
X40438678Y-30808678D01*
D13*
G04 #@! TO.N,Board_1-+3.3V*
X38567586Y-31182414D02*
X38651593Y-31098407D01*
X38120528Y-31182414D02*
X38567586Y-31182414D01*
X33840170Y-30845000D02*
X37783114Y-30845000D01*
X37783114Y-30845000D02*
X38120528Y-31182414D01*
X33725000Y-30960170D02*
X33840170Y-30845000D01*
D14*
G04 #@! TO.N,Board_1-/ADC_EMF_A*
X33815000Y-32695000D02*
X33097304Y-32695000D01*
X31019101Y-32344927D02*
X30121208Y-32344927D01*
X33097304Y-32695000D02*
X32637304Y-33155000D01*
X34175000Y-33055000D02*
X33815000Y-32695000D01*
X32637304Y-33155000D02*
X31829174Y-33155000D01*
X30121208Y-32344927D02*
X29920000Y-32546135D01*
X31829174Y-33155000D02*
X31019101Y-32344927D01*
G04 #@! TO.N,Board_1-/ADC_EMF_B*
X32750883Y-33415000D02*
X31715000Y-33415000D01*
X33210883Y-32955000D02*
X32750883Y-33415000D01*
X31715000Y-33415000D02*
X31472361Y-33172361D01*
X33515000Y-32955000D02*
X33210883Y-32955000D01*
X34555388Y-32796336D02*
X34555388Y-33236916D01*
X31472361Y-33172361D02*
X31472361Y-33165883D01*
X33975000Y-33415000D02*
X33515000Y-32955000D01*
X31472361Y-33165883D02*
X31011883Y-32705405D01*
X34377304Y-33415000D02*
X33975000Y-33415000D01*
X34555388Y-33236916D02*
X34377304Y-33415000D01*
X31011883Y-32705405D02*
X30630095Y-32705405D01*
G04 #@! TO.N,Board_1-/AUX1 (VDC)*
X31012361Y-33415000D02*
X30662696Y-33415000D01*
X31112361Y-33315000D02*
X31012361Y-33415000D01*
X30202695Y-32954999D02*
X29174999Y-32954999D01*
X30662696Y-33415000D02*
X30202695Y-32954999D01*
X29174999Y-32954999D02*
X29050000Y-32830000D01*
G04 #@! TO.N,Board_1-/AUX10*
X29617508Y-28455204D02*
X28522304Y-27360000D01*
X28080000Y-27360000D02*
X27330000Y-28110000D01*
X27330000Y-28110000D02*
X27314998Y-28110000D01*
X28522304Y-27360000D02*
X28080000Y-27360000D01*
X32249333Y-27874619D02*
X32016165Y-27874619D01*
X32016165Y-27874619D02*
X31435580Y-28455204D01*
X31435580Y-28455204D02*
X29617508Y-28455204D01*
G04 #@! TO.N,Board_1-/AUX11*
X34416910Y-26989998D02*
X32533090Y-26989998D01*
X34575000Y-27585000D02*
X34575000Y-27148088D01*
X28630000Y-27100000D02*
X27870000Y-27100000D01*
X31327885Y-28195203D02*
X29725203Y-28195203D01*
X34550000Y-27610000D02*
X34575000Y-27585000D01*
X27870000Y-27100000D02*
X27470142Y-27499858D01*
X34575000Y-27148088D02*
X34416910Y-26989998D01*
X29725203Y-28195203D02*
X28630000Y-27100000D01*
X32533090Y-26989998D02*
X31327885Y-28195203D01*
X27470142Y-27499858D02*
X27431496Y-27499858D01*
G04 #@! TO.N,Board_1-/AUX12*
X28774608Y-26840000D02*
X27619999Y-26840000D01*
X32425394Y-26729998D02*
X31220189Y-27935203D01*
X32425394Y-26729998D02*
X34524607Y-26729999D01*
X31220189Y-27935203D02*
X29869811Y-27935203D01*
X34935000Y-27140392D02*
X34524607Y-26729999D01*
X29869811Y-27935203D02*
X28774608Y-26840000D01*
X27619999Y-26840000D02*
X27420000Y-27039999D01*
X34935000Y-27310000D02*
X34935000Y-27140392D01*
G04 #@! TO.N,Board_1-/AUX3*
X31112494Y-27675202D02*
X29977506Y-27675202D01*
X26139580Y-28494578D02*
X26510000Y-28864998D01*
X27370882Y-26580000D02*
X26139580Y-27811302D01*
X28882304Y-26580000D02*
X27370882Y-26580000D01*
X26139580Y-27811302D02*
X26139580Y-28494578D01*
X35413785Y-27219668D02*
X34664115Y-26469998D01*
X35413785Y-27470000D02*
X35413785Y-27219668D01*
X32317699Y-26469997D02*
X31112494Y-27675202D01*
X32317699Y-26469997D02*
X34664115Y-26469998D01*
X29977506Y-27675202D02*
X28882304Y-26580000D01*
G04 #@! TO.N,Board_1-/AUX4*
X25879579Y-28743694D02*
X26360883Y-29224998D01*
X31003728Y-27415201D02*
X30085201Y-27415201D01*
X26970002Y-29089998D02*
X26970002Y-28864230D01*
X30085201Y-27415201D02*
X28990000Y-26320000D01*
X32208932Y-26209997D02*
X31003728Y-27415201D01*
X35769661Y-27207848D02*
X34771810Y-26209997D01*
X27263187Y-26319999D02*
X25879579Y-27703607D01*
X35791778Y-27207848D02*
X35769661Y-27207848D01*
X26835002Y-29224998D02*
X26970002Y-29089998D01*
X34771810Y-26209997D02*
X32208932Y-26209997D01*
X27263187Y-26319999D02*
X28990000Y-26320000D01*
X25879579Y-27703607D02*
X25879579Y-28743694D01*
X26360883Y-29224998D02*
X26835002Y-29224998D01*
G04 #@! TO.N,Board_1-/BOOT*
X40063066Y-28085470D02*
X40747596Y-28770000D01*
X34142715Y-27396175D02*
X34142715Y-27711832D01*
X42130001Y-28770000D02*
X42240000Y-28660001D01*
X34516353Y-28085470D02*
X40063066Y-28085470D01*
X34142715Y-27711832D02*
X34516353Y-28085470D01*
X40747596Y-28770000D02*
X42130001Y-28770000D01*
G04 #@! TO.N,Board_1-/CAP_ENABLE*
X38280001Y-30797414D02*
X37992587Y-30510000D01*
X30470150Y-30510000D02*
X30465113Y-30504963D01*
X37992587Y-30510000D02*
X30470150Y-30510000D01*
G04 #@! TO.N,Board_1-/GPIO21*
X39011593Y-30949290D02*
X38167772Y-30105469D01*
X27925881Y-29230000D02*
X26954998Y-28259117D01*
X26910907Y-27690907D02*
X26956617Y-27736617D01*
X26954998Y-28259117D02*
X26954998Y-27734998D01*
X32667237Y-30105469D02*
X31791768Y-29230000D01*
X37580000Y-31760002D02*
X38499115Y-31760002D01*
X31791768Y-29230000D02*
X27925881Y-29230000D01*
X39011593Y-31247524D02*
X39011593Y-30949290D01*
X38499115Y-31760002D02*
X39011593Y-31247524D01*
X38167772Y-30105469D02*
X32667237Y-30105469D01*
X26954998Y-27734998D02*
X26910907Y-27690907D01*
G04 #@! TO.N,Board_1-/GPIO26*
X27400883Y-33560000D02*
X26970000Y-33560000D01*
X29497018Y-32460000D02*
X28500883Y-32460000D01*
X31936870Y-32895000D02*
X31126797Y-32084927D01*
X29872092Y-32084926D02*
X29497018Y-32460000D01*
X32529608Y-32895000D02*
X31936870Y-32895000D01*
X28500883Y-32460000D02*
X27400883Y-33560000D01*
X34995000Y-32430000D02*
X32994608Y-32430000D01*
X31126797Y-32084927D02*
X30814927Y-32084927D01*
X35375000Y-32810000D02*
X34995000Y-32430000D01*
X32994608Y-32430000D02*
X32529608Y-32895000D01*
X30814927Y-32084927D02*
X29872092Y-32084926D01*
G04 #@! TO.N,Board_1-/GPIO27*
X30555000Y-33675000D02*
X30095000Y-33215000D01*
X34960000Y-33055000D02*
X34960000Y-33200000D01*
X30095000Y-33215000D02*
X28990000Y-33215000D01*
X34960000Y-33200000D02*
X34485000Y-33675000D01*
X34485000Y-33675000D02*
X30555000Y-33675000D01*
X28990000Y-33215000D02*
X28630000Y-33575000D01*
G04 #@! TO.N,Board_1-Net-(U1-CLK)*
X39739978Y-28865470D02*
X33580078Y-28865470D01*
X40424510Y-29550002D02*
X39739978Y-28865470D01*
X42670000Y-31792304D02*
X40427698Y-29550002D01*
X33197459Y-28482851D02*
X32791571Y-28482851D01*
X40427698Y-29550002D02*
X40424510Y-29550002D01*
X43150000Y-33060000D02*
X42670000Y-32580000D01*
X33580078Y-28865470D02*
X33197459Y-28482851D01*
X42670000Y-32580000D02*
X42670000Y-31792304D01*
G04 #@! TO.N,Board_1-Net-(U1-DI(IO0))*
X40639900Y-29030000D02*
X39955370Y-28345470D01*
X43945009Y-33075000D02*
X43940000Y-33069991D01*
X43940000Y-29510000D02*
X43460000Y-29030000D01*
X33140001Y-27690001D02*
X32750916Y-27690001D01*
X43940000Y-33069991D02*
X43940000Y-29510000D01*
X39955370Y-28345470D02*
X33795470Y-28345470D01*
X33795470Y-28345470D02*
X33140001Y-27690001D01*
X43460000Y-29030000D02*
X40639900Y-29030000D01*
G04 #@! TO.N,Board_1-Net-(U1-DO(IO1))*
X40532204Y-29290000D02*
X39847674Y-28605470D01*
X39847674Y-28605470D02*
X33687774Y-28605470D01*
X42419161Y-29635839D02*
X42073322Y-29290000D01*
X33172304Y-28090000D02*
X33030884Y-28090000D01*
X42073322Y-29290000D02*
X40532204Y-29290000D01*
X33687774Y-28605470D02*
X33172304Y-28090000D01*
G04 #@! TO.N,Board_1-Net-(U1-IO2)*
X32215007Y-28635007D02*
X32215007Y-28418061D01*
X43510000Y-33209117D02*
X43299117Y-33420000D01*
X42250883Y-33420000D02*
X42040000Y-33209117D01*
X32965469Y-29385469D02*
X32215007Y-28635007D01*
X39524585Y-29385469D02*
X32965469Y-29385469D01*
X43150000Y-29640000D02*
X43510000Y-30000000D01*
X42040000Y-31900884D02*
X39524585Y-29385469D01*
X42040000Y-33209117D02*
X42040000Y-31900884D01*
X43510000Y-30000000D02*
X43510000Y-33209117D01*
X43299117Y-33420000D02*
X42250883Y-33420000D01*
G04 #@! TO.N,Board_1-Net-(U1-IO3)*
X39632282Y-29125470D02*
X33295470Y-29125470D01*
X42410000Y-31900000D02*
X40320003Y-29810003D01*
X42400000Y-33060000D02*
X42410000Y-33050000D01*
X42410000Y-33050000D02*
X42410000Y-31900000D01*
X40316815Y-29810003D02*
X39632282Y-29125470D01*
X33295470Y-29125470D02*
X33040000Y-28870000D01*
X40320003Y-29810003D02*
X40316815Y-29810003D01*
G04 #@! TO.N,Board_1-Net-(U3-GPIO12)*
X43601286Y-28220000D02*
X43816288Y-28435002D01*
X42320000Y-26940000D02*
X43600000Y-28220000D01*
X43600000Y-28220000D02*
X43601286Y-28220000D01*
X40031702Y-26940000D02*
X42320000Y-26940000D01*
D12*
G04 #@! TO.N,Board_2-+1V1*
X31890884Y-39420000D02*
X32816353Y-40345469D01*
X40438678Y-41408678D02*
X40438678Y-43427818D01*
X31650000Y-39420000D02*
X31890884Y-39420000D01*
X39375469Y-40345469D02*
X40438678Y-41408678D01*
X32816353Y-40345469D02*
X39375469Y-40345469D01*
D13*
G04 #@! TO.N,Board_2-+3.3V*
X37783114Y-41445000D02*
X38120528Y-41782414D01*
X33725000Y-41560170D02*
X33840170Y-41445000D01*
X33840170Y-41445000D02*
X37783114Y-41445000D01*
X38567586Y-41782414D02*
X38651593Y-41698407D01*
X38120528Y-41782414D02*
X38567586Y-41782414D01*
D14*
G04 #@! TO.N,Board_2-/ADC_EMF_A*
X33097304Y-43295000D02*
X32637304Y-43755000D01*
X31829174Y-43755000D02*
X31019101Y-42944927D01*
X30121208Y-42944927D02*
X29920000Y-43146135D01*
X34175000Y-43655000D02*
X33815000Y-43295000D01*
X31019101Y-42944927D02*
X30121208Y-42944927D01*
X32637304Y-43755000D02*
X31829174Y-43755000D01*
X33815000Y-43295000D02*
X33097304Y-43295000D01*
G04 #@! TO.N,Board_2-/ADC_EMF_B*
X33210883Y-43555000D02*
X32750883Y-44015000D01*
X31715000Y-44015000D02*
X31472361Y-43772361D01*
X34555388Y-43396336D02*
X34555388Y-43836916D01*
X32750883Y-44015000D02*
X31715000Y-44015000D01*
X34377304Y-44015000D02*
X33975000Y-44015000D01*
X31472361Y-43765883D02*
X31011883Y-43305405D01*
X34555388Y-43836916D02*
X34377304Y-44015000D01*
X33515000Y-43555000D02*
X33210883Y-43555000D01*
X33975000Y-44015000D02*
X33515000Y-43555000D01*
X31011883Y-43305405D02*
X30630095Y-43305405D01*
X31472361Y-43772361D02*
X31472361Y-43765883D01*
G04 #@! TO.N,Board_2-/AUX1 (VDC)*
X30202695Y-43554999D02*
X29174999Y-43554999D01*
X31012361Y-44015000D02*
X30662696Y-44015000D01*
X29174999Y-43554999D02*
X29050000Y-43430000D01*
X31112361Y-43915000D02*
X31012361Y-44015000D01*
X30662696Y-44015000D02*
X30202695Y-43554999D01*
G04 #@! TO.N,Board_2-/AUX10*
X31435580Y-39055204D02*
X29617508Y-39055204D01*
X29617508Y-39055204D02*
X28522304Y-37960000D01*
X32249333Y-38474619D02*
X32016165Y-38474619D01*
X28522304Y-37960000D02*
X28080000Y-37960000D01*
X27330000Y-38710000D02*
X27314998Y-38710000D01*
X32016165Y-38474619D02*
X31435580Y-39055204D01*
X28080000Y-37960000D02*
X27330000Y-38710000D01*
G04 #@! TO.N,Board_2-/AUX11*
X34575000Y-37748088D02*
X34416910Y-37589998D01*
X27470142Y-38099858D02*
X27431496Y-38099858D01*
X31327885Y-38795203D02*
X29725203Y-38795203D01*
X29725203Y-38795203D02*
X28630000Y-37700000D01*
X34550000Y-38210000D02*
X34575000Y-38185000D01*
X28630000Y-37700000D02*
X27870000Y-37700000D01*
X34575000Y-38185000D02*
X34575000Y-37748088D01*
X27870000Y-37700000D02*
X27470142Y-38099858D01*
X34416910Y-37589998D02*
X32533090Y-37589998D01*
X32533090Y-37589998D02*
X31327885Y-38795203D01*
G04 #@! TO.N,Board_2-/AUX12*
X28774608Y-37440000D02*
X27619999Y-37440000D01*
X32425394Y-37329998D02*
X34524607Y-37329999D01*
X29869811Y-38535203D02*
X28774608Y-37440000D01*
X34935000Y-37740392D02*
X34524607Y-37329999D01*
X31220189Y-38535203D02*
X29869811Y-38535203D01*
X27619999Y-37440000D02*
X27420000Y-37639999D01*
X32425394Y-37329998D02*
X31220189Y-38535203D01*
X34935000Y-37910000D02*
X34935000Y-37740392D01*
G04 #@! TO.N,Board_2-/AUX3*
X26139580Y-38411302D02*
X26139580Y-39094578D01*
X32317699Y-37069997D02*
X31112494Y-38275202D01*
X35413785Y-38070000D02*
X35413785Y-37819668D01*
X27370882Y-37180000D02*
X26139580Y-38411302D01*
X31112494Y-38275202D02*
X29977506Y-38275202D01*
X26139580Y-39094578D02*
X26510000Y-39464998D01*
X35413785Y-37819668D02*
X34664115Y-37069998D01*
X29977506Y-38275202D02*
X28882304Y-37180000D01*
X28882304Y-37180000D02*
X27370882Y-37180000D01*
X32317699Y-37069997D02*
X34664115Y-37069998D01*
G04 #@! TO.N,Board_2-/AUX4*
X30085201Y-38015201D02*
X28990000Y-36920000D01*
X25879579Y-38303607D02*
X25879579Y-39343694D01*
X27263187Y-36919999D02*
X28990000Y-36920000D01*
X26835002Y-39824998D02*
X26970002Y-39689998D01*
X32208932Y-36809997D02*
X31003728Y-38015201D01*
X35769661Y-37807848D02*
X34771810Y-36809997D01*
X34771810Y-36809997D02*
X32208932Y-36809997D01*
X26360883Y-39824998D02*
X26835002Y-39824998D01*
X31003728Y-38015201D02*
X30085201Y-38015201D01*
X25879579Y-39343694D02*
X26360883Y-39824998D01*
X35791778Y-37807848D02*
X35769661Y-37807848D01*
X27263187Y-36919999D02*
X25879579Y-38303607D01*
X26970002Y-39689998D02*
X26970002Y-39464230D01*
G04 #@! TO.N,Board_2-/BOOT*
X34142715Y-38311832D02*
X34516353Y-38685470D01*
X40063066Y-38685470D02*
X40747596Y-39370000D01*
X34516353Y-38685470D02*
X40063066Y-38685470D01*
X42130001Y-39370000D02*
X42240000Y-39260001D01*
X40747596Y-39370000D02*
X42130001Y-39370000D01*
X34142715Y-37996175D02*
X34142715Y-38311832D01*
G04 #@! TO.N,Board_2-/CAP_ENABLE*
X30470150Y-41110000D02*
X30465113Y-41104963D01*
X38280001Y-41397414D02*
X37992587Y-41110000D01*
X37992587Y-41110000D02*
X30470150Y-41110000D01*
G04 #@! TO.N,Board_2-/GPIO21*
X26910907Y-38290907D02*
X26956617Y-38336617D01*
X31791768Y-39830000D02*
X27925881Y-39830000D01*
X26954998Y-38859117D02*
X26954998Y-38334998D01*
X32667237Y-40705469D02*
X31791768Y-39830000D01*
X37580000Y-42360002D02*
X38499115Y-42360002D01*
X38499115Y-42360002D02*
X39011593Y-41847524D01*
X26954998Y-38334998D02*
X26910907Y-38290907D01*
X38167772Y-40705469D02*
X32667237Y-40705469D01*
X39011593Y-41549290D02*
X38167772Y-40705469D01*
X39011593Y-41847524D02*
X39011593Y-41549290D01*
X27925881Y-39830000D02*
X26954998Y-38859117D01*
G04 #@! TO.N,Board_2-/GPIO26*
X34995000Y-43030000D02*
X32994608Y-43030000D01*
X28500883Y-43060000D02*
X27400883Y-44160000D01*
X35375000Y-43410000D02*
X34995000Y-43030000D01*
X31936870Y-43495000D02*
X31126797Y-42684927D01*
X27400883Y-44160000D02*
X26970000Y-44160000D01*
X30814927Y-42684927D02*
X29872092Y-42684926D01*
X32994608Y-43030000D02*
X32529608Y-43495000D01*
X29872092Y-42684926D02*
X29497018Y-43060000D01*
X29497018Y-43060000D02*
X28500883Y-43060000D01*
X31126797Y-42684927D02*
X30814927Y-42684927D01*
X32529608Y-43495000D02*
X31936870Y-43495000D01*
G04 #@! TO.N,Board_2-/GPIO27*
X34960000Y-43655000D02*
X34960000Y-43800000D01*
X30095000Y-43815000D02*
X28990000Y-43815000D01*
X34485000Y-44275000D02*
X30555000Y-44275000D01*
X30555000Y-44275000D02*
X30095000Y-43815000D01*
X28990000Y-43815000D02*
X28630000Y-44175000D01*
X34960000Y-43800000D02*
X34485000Y-44275000D01*
G04 #@! TO.N,Board_2-Net-(U1-CLK)*
X43150000Y-43660000D02*
X42670000Y-43180000D01*
X33197459Y-39082851D02*
X32791571Y-39082851D01*
X40427698Y-40150002D02*
X40424510Y-40150002D01*
X40424510Y-40150002D02*
X39739978Y-39465470D01*
X39739978Y-39465470D02*
X33580078Y-39465470D01*
X33580078Y-39465470D02*
X33197459Y-39082851D01*
X42670000Y-43180000D02*
X42670000Y-42392304D01*
X42670000Y-42392304D02*
X40427698Y-40150002D01*
G04 #@! TO.N,Board_2-Net-(U1-DI(IO0))*
X43940000Y-40110000D02*
X43460000Y-39630000D01*
X39955370Y-38945470D02*
X33795470Y-38945470D01*
X43460000Y-39630000D02*
X40639900Y-39630000D01*
X43940000Y-43669991D02*
X43940000Y-40110000D01*
X43945009Y-43675000D02*
X43940000Y-43669991D01*
X33140001Y-38290001D02*
X32750916Y-38290001D01*
X33795470Y-38945470D02*
X33140001Y-38290001D01*
X40639900Y-39630000D02*
X39955370Y-38945470D01*
G04 #@! TO.N,Board_2-Net-(U1-DO(IO1))*
X39847674Y-39205470D02*
X33687774Y-39205470D01*
X42419161Y-40235839D02*
X42073322Y-39890000D01*
X33687774Y-39205470D02*
X33172304Y-38690000D01*
X33172304Y-38690000D02*
X33030884Y-38690000D01*
X42073322Y-39890000D02*
X40532204Y-39890000D01*
X40532204Y-39890000D02*
X39847674Y-39205470D01*
G04 #@! TO.N,Board_2-Net-(U1-IO2)*
X32965469Y-39985469D02*
X32215007Y-39235007D01*
X43510000Y-40600000D02*
X43510000Y-43809117D01*
X42040000Y-42500884D02*
X39524585Y-39985469D01*
X43299117Y-44020000D02*
X42250883Y-44020000D01*
X43150000Y-40240000D02*
X43510000Y-40600000D01*
X43510000Y-43809117D02*
X43299117Y-44020000D01*
X32215007Y-39235007D02*
X32215007Y-39018061D01*
X42040000Y-43809117D02*
X42040000Y-42500884D01*
X42250883Y-44020000D02*
X42040000Y-43809117D01*
X39524585Y-39985469D02*
X32965469Y-39985469D01*
G04 #@! TO.N,Board_2-Net-(U1-IO3)*
X39632282Y-39725470D02*
X33295470Y-39725470D01*
X40320003Y-40410003D02*
X40316815Y-40410003D01*
X40316815Y-40410003D02*
X39632282Y-39725470D01*
X42410000Y-43650000D02*
X42410000Y-42500000D01*
X42400000Y-43660000D02*
X42410000Y-43650000D01*
X33295470Y-39725470D02*
X33040000Y-39470000D01*
X42410000Y-42500000D02*
X40320003Y-40410003D01*
G04 #@! TO.N,Board_2-Net-(U3-GPIO12)*
X42320000Y-37540000D02*
X43600000Y-38820000D01*
X43601286Y-38820000D02*
X43816288Y-39035002D01*
X40031702Y-37540000D02*
X42320000Y-37540000D01*
X43600000Y-38820000D02*
X43601286Y-38820000D01*
D12*
G04 #@! TO.N,Board_3-+1V1*
X39375469Y-50945469D02*
X40438678Y-52008678D01*
X40438678Y-52008678D02*
X40438678Y-54027818D01*
X31890884Y-50020000D02*
X32816353Y-50945469D01*
X32816353Y-50945469D02*
X39375469Y-50945469D01*
X31650000Y-50020000D02*
X31890884Y-50020000D01*
D13*
G04 #@! TO.N,Board_3-+3.3V*
X37783114Y-52045000D02*
X38120528Y-52382414D01*
X33725000Y-52160170D02*
X33840170Y-52045000D01*
X33840170Y-52045000D02*
X37783114Y-52045000D01*
X38567586Y-52382414D02*
X38651593Y-52298407D01*
X38120528Y-52382414D02*
X38567586Y-52382414D01*
D14*
G04 #@! TO.N,Board_3-/ADC_EMF_A*
X34175000Y-54255000D02*
X33815000Y-53895000D01*
X33097304Y-53895000D02*
X32637304Y-54355000D01*
X30121208Y-53544927D02*
X29920000Y-53746135D01*
X33815000Y-53895000D02*
X33097304Y-53895000D01*
X31019101Y-53544927D02*
X30121208Y-53544927D01*
X31829174Y-54355000D02*
X31019101Y-53544927D01*
X32637304Y-54355000D02*
X31829174Y-54355000D01*
G04 #@! TO.N,Board_3-/ADC_EMF_B*
X31472361Y-54365883D02*
X31011883Y-53905405D01*
X31715000Y-54615000D02*
X31472361Y-54372361D01*
X34555388Y-53996336D02*
X34555388Y-54436916D01*
X31472361Y-54372361D02*
X31472361Y-54365883D01*
X33515000Y-54155000D02*
X33210883Y-54155000D01*
X31011883Y-53905405D02*
X30630095Y-53905405D01*
X33975000Y-54615000D02*
X33515000Y-54155000D01*
X34555388Y-54436916D02*
X34377304Y-54615000D01*
X34377304Y-54615000D02*
X33975000Y-54615000D01*
X32750883Y-54615000D02*
X31715000Y-54615000D01*
X33210883Y-54155000D02*
X32750883Y-54615000D01*
G04 #@! TO.N,Board_3-/AUX1 (VDC)*
X30202695Y-54154999D02*
X29174999Y-54154999D01*
X31012361Y-54615000D02*
X30662696Y-54615000D01*
X29174999Y-54154999D02*
X29050000Y-54030000D01*
X30662696Y-54615000D02*
X30202695Y-54154999D01*
X31112361Y-54515000D02*
X31012361Y-54615000D01*
G04 #@! TO.N,Board_3-/AUX10*
X31435580Y-49655204D02*
X29617508Y-49655204D01*
X29617508Y-49655204D02*
X28522304Y-48560000D01*
X32016165Y-49074619D02*
X31435580Y-49655204D01*
X28080000Y-48560000D02*
X27330000Y-49310000D01*
X28522304Y-48560000D02*
X28080000Y-48560000D01*
X32249333Y-49074619D02*
X32016165Y-49074619D01*
X27330000Y-49310000D02*
X27314998Y-49310000D01*
G04 #@! TO.N,Board_3-/AUX11*
X34575000Y-48785000D02*
X34575000Y-48348088D01*
X34550000Y-48810000D02*
X34575000Y-48785000D01*
X27470142Y-48699858D02*
X27431496Y-48699858D01*
X27870000Y-48300000D02*
X27470142Y-48699858D01*
X29725203Y-49395203D02*
X28630000Y-48300000D01*
X34416910Y-48189998D02*
X32533090Y-48189998D01*
X32533090Y-48189998D02*
X31327885Y-49395203D01*
X28630000Y-48300000D02*
X27870000Y-48300000D01*
X34575000Y-48348088D02*
X34416910Y-48189998D01*
X31327885Y-49395203D02*
X29725203Y-49395203D01*
G04 #@! TO.N,Board_3-/AUX12*
X32425394Y-47929998D02*
X31220189Y-49135203D01*
X32425394Y-47929998D02*
X34524607Y-47929999D01*
X27619999Y-48040000D02*
X27420000Y-48239999D01*
X29869811Y-49135203D02*
X28774608Y-48040000D01*
X34935000Y-48510000D02*
X34935000Y-48340392D01*
X34935000Y-48340392D02*
X34524607Y-47929999D01*
X28774608Y-48040000D02*
X27619999Y-48040000D01*
X31220189Y-49135203D02*
X29869811Y-49135203D01*
G04 #@! TO.N,Board_3-/AUX3*
X32317699Y-47669997D02*
X34664115Y-47669998D01*
X35413785Y-48670000D02*
X35413785Y-48419668D01*
X29977506Y-48875202D02*
X28882304Y-47780000D01*
X27370882Y-47780000D02*
X26139580Y-49011302D01*
X35413785Y-48419668D02*
X34664115Y-47669998D01*
X32317699Y-47669997D02*
X31112494Y-48875202D01*
X31112494Y-48875202D02*
X29977506Y-48875202D01*
X26139580Y-49694578D02*
X26510000Y-50064998D01*
X26139580Y-49011302D02*
X26139580Y-49694578D01*
X28882304Y-47780000D02*
X27370882Y-47780000D01*
G04 #@! TO.N,Board_3-/AUX4*
X26360883Y-50424998D02*
X26835002Y-50424998D01*
X25879579Y-49943694D02*
X26360883Y-50424998D01*
X25879579Y-48903607D02*
X25879579Y-49943694D01*
X34771810Y-47409997D02*
X32208932Y-47409997D01*
X32208932Y-47409997D02*
X31003728Y-48615201D01*
X31003728Y-48615201D02*
X30085201Y-48615201D01*
X27263187Y-47519999D02*
X28990000Y-47520000D01*
X35769661Y-48407848D02*
X34771810Y-47409997D01*
X35791778Y-48407848D02*
X35769661Y-48407848D01*
X27263187Y-47519999D02*
X25879579Y-48903607D01*
X26970002Y-50289998D02*
X26970002Y-50064230D01*
X26835002Y-50424998D02*
X26970002Y-50289998D01*
X30085201Y-48615201D02*
X28990000Y-47520000D01*
G04 #@! TO.N,Board_3-/BOOT*
X40063066Y-49285470D02*
X40747596Y-49970000D01*
X34142715Y-48911832D02*
X34516353Y-49285470D01*
X42130001Y-49970000D02*
X42240000Y-49860001D01*
X40747596Y-49970000D02*
X42130001Y-49970000D01*
X34516353Y-49285470D02*
X40063066Y-49285470D01*
X34142715Y-48596175D02*
X34142715Y-48911832D01*
G04 #@! TO.N,Board_3-/CAP_ENABLE*
X30470150Y-51710000D02*
X30465113Y-51704963D01*
X38280001Y-51997414D02*
X37992587Y-51710000D01*
X37992587Y-51710000D02*
X30470150Y-51710000D01*
G04 #@! TO.N,Board_3-/GPIO21*
X38167772Y-51305469D02*
X32667237Y-51305469D01*
X26910907Y-48890907D02*
X26956617Y-48936617D01*
X26954998Y-48934998D02*
X26910907Y-48890907D01*
X26954998Y-49459117D02*
X26954998Y-48934998D01*
X27925881Y-50430000D02*
X26954998Y-49459117D01*
X32667237Y-51305469D02*
X31791768Y-50430000D01*
X31791768Y-50430000D02*
X27925881Y-50430000D01*
X39011593Y-52149290D02*
X38167772Y-51305469D01*
X37580000Y-52960002D02*
X38499115Y-52960002D01*
X39011593Y-52447524D02*
X39011593Y-52149290D01*
X38499115Y-52960002D02*
X39011593Y-52447524D01*
G04 #@! TO.N,Board_3-/GPIO26*
X29872092Y-53284926D02*
X29497018Y-53660000D01*
X32529608Y-54095000D02*
X31936870Y-54095000D01*
X31936870Y-54095000D02*
X31126797Y-53284927D01*
X31126797Y-53284927D02*
X30814927Y-53284927D01*
X32994608Y-53630000D02*
X32529608Y-54095000D01*
X30814927Y-53284927D02*
X29872092Y-53284926D01*
X35375000Y-54010000D02*
X34995000Y-53630000D01*
X28500883Y-53660000D02*
X27400883Y-54760000D01*
X34995000Y-53630000D02*
X32994608Y-53630000D01*
X29497018Y-53660000D02*
X28500883Y-53660000D01*
X27400883Y-54760000D02*
X26970000Y-54760000D01*
G04 #@! TO.N,Board_3-/GPIO27*
X30095000Y-54415000D02*
X28990000Y-54415000D01*
X34485000Y-54875000D02*
X30555000Y-54875000D01*
X28990000Y-54415000D02*
X28630000Y-54775000D01*
X34960000Y-54400000D02*
X34485000Y-54875000D01*
X34960000Y-54255000D02*
X34960000Y-54400000D01*
X30555000Y-54875000D02*
X30095000Y-54415000D01*
G04 #@! TO.N,Board_3-Net-(U1-CLK)*
X39739978Y-50065470D02*
X33580078Y-50065470D01*
X40427698Y-50750002D02*
X40424510Y-50750002D01*
X42670000Y-53780000D02*
X42670000Y-52992304D01*
X33197459Y-49682851D02*
X32791571Y-49682851D01*
X40424510Y-50750002D02*
X39739978Y-50065470D01*
X43150000Y-54260000D02*
X42670000Y-53780000D01*
X42670000Y-52992304D02*
X40427698Y-50750002D01*
X33580078Y-50065470D02*
X33197459Y-49682851D01*
G04 #@! TO.N,Board_3-Net-(U1-DI(IO0))*
X43940000Y-54269991D02*
X43940000Y-50710000D01*
X33795470Y-49545470D02*
X33140001Y-48890001D01*
X40639900Y-50230000D02*
X39955370Y-49545470D01*
X43940000Y-50710000D02*
X43460000Y-50230000D01*
X33140001Y-48890001D02*
X32750916Y-48890001D01*
X43460000Y-50230000D02*
X40639900Y-50230000D01*
X39955370Y-49545470D02*
X33795470Y-49545470D01*
X43945009Y-54275000D02*
X43940000Y-54269991D01*
G04 #@! TO.N,Board_3-Net-(U1-DO(IO1))*
X33172304Y-49290000D02*
X33030884Y-49290000D01*
X42073322Y-50490000D02*
X40532204Y-50490000D01*
X40532204Y-50490000D02*
X39847674Y-49805470D01*
X42419161Y-50835839D02*
X42073322Y-50490000D01*
X39847674Y-49805470D02*
X33687774Y-49805470D01*
X33687774Y-49805470D02*
X33172304Y-49290000D01*
G04 #@! TO.N,Board_3-Net-(U1-IO2)*
X39524585Y-50585469D02*
X32965469Y-50585469D01*
X32215007Y-49835007D02*
X32215007Y-49618061D01*
X42250883Y-54620000D02*
X42040000Y-54409117D01*
X43150000Y-50840000D02*
X43510000Y-51200000D01*
X43510000Y-54409117D02*
X43299117Y-54620000D01*
X42040000Y-54409117D02*
X42040000Y-53100884D01*
X43510000Y-51200000D02*
X43510000Y-54409117D01*
X43299117Y-54620000D02*
X42250883Y-54620000D01*
X42040000Y-53100884D02*
X39524585Y-50585469D01*
X32965469Y-50585469D02*
X32215007Y-49835007D01*
G04 #@! TO.N,Board_3-Net-(U1-IO3)*
X42400000Y-54260000D02*
X42410000Y-54250000D01*
X42410000Y-53100000D02*
X40320003Y-51010003D01*
X40316815Y-51010003D02*
X39632282Y-50325470D01*
X40320003Y-51010003D02*
X40316815Y-51010003D01*
X42410000Y-54250000D02*
X42410000Y-53100000D01*
X33295470Y-50325470D02*
X33040000Y-50070000D01*
X39632282Y-50325470D02*
X33295470Y-50325470D01*
G04 #@! TO.N,Board_3-Net-(U3-GPIO12)*
X43601286Y-49420000D02*
X43816288Y-49635002D01*
X40031702Y-48140000D02*
X42320000Y-48140000D01*
X43600000Y-49420000D02*
X43601286Y-49420000D01*
X42320000Y-48140000D02*
X43600000Y-49420000D01*
G04 #@! TD*
G04 #@! TA.AperFunction,Conductor*
G04 #@! TO.N,Board_1-+3.3V*
G36*
X27249710Y-25664852D02*
G01*
X27264062Y-25699500D01*
X27249710Y-25734148D01*
X27246559Y-25737036D01*
X27202919Y-25773654D01*
X27152580Y-25860843D01*
X27152579Y-25860846D01*
X27152579Y-25860847D01*
X27137741Y-25945000D01*
X27135096Y-25960000D01*
X27152579Y-26059155D01*
X27174328Y-26096824D01*
X27179223Y-26134006D01*
X27161264Y-26159070D01*
X27161521Y-26159327D01*
X27159966Y-26160881D01*
X27159120Y-26162063D01*
X27158109Y-26162738D01*
X25999091Y-27321759D01*
X25774502Y-27546348D01*
X25761252Y-27559598D01*
X25722320Y-27598529D01*
X25694079Y-27666707D01*
X25694079Y-27666709D01*
X25694079Y-28706796D01*
X25694079Y-28780592D01*
X25722320Y-28848771D01*
X25722321Y-28848772D01*
X25722321Y-28848773D01*
X26203624Y-29330075D01*
X26255806Y-29382257D01*
X26323985Y-29410498D01*
X26323987Y-29410498D01*
X26871898Y-29410498D01*
X26871900Y-29410498D01*
X26940079Y-29382257D01*
X26940081Y-29382255D01*
X26940082Y-29382255D01*
X27127259Y-29195078D01*
X27127259Y-29195077D01*
X27127261Y-29195075D01*
X27155502Y-29126896D01*
X27155502Y-29104118D01*
X27169854Y-29069470D01*
X27172997Y-29066590D01*
X27192081Y-29050577D01*
X27242423Y-28963383D01*
X27249237Y-28924733D01*
X27269388Y-28893106D01*
X27306002Y-28884988D01*
X27332141Y-28898596D01*
X27820801Y-29387257D01*
X27820802Y-29387257D01*
X27820804Y-29387259D01*
X27888983Y-29415500D01*
X27962779Y-29415500D01*
X31694636Y-29415500D01*
X31729284Y-29429852D01*
X32540282Y-30240852D01*
X32554634Y-30275500D01*
X32540282Y-30310148D01*
X32505634Y-30324500D01*
X30712040Y-30324500D01*
X30680544Y-30313036D01*
X30610069Y-30253901D01*
X30610063Y-30253898D01*
X30515454Y-30219463D01*
X30414772Y-30219463D01*
X30320162Y-30253898D01*
X30320160Y-30253899D01*
X30243032Y-30318617D01*
X30192693Y-30405806D01*
X30192692Y-30405809D01*
X30192692Y-30405810D01*
X30175209Y-30504963D01*
X30190126Y-30589565D01*
X30192693Y-30604119D01*
X30243032Y-30691308D01*
X30243033Y-30691309D01*
X30243034Y-30691310D01*
X30320161Y-30756027D01*
X30414772Y-30790463D01*
X30515454Y-30790463D01*
X30610065Y-30756027D01*
X30654214Y-30718982D01*
X30668537Y-30706964D01*
X30700033Y-30695500D01*
X37895455Y-30695500D01*
X37930103Y-30709852D01*
X37976192Y-30755941D01*
X37990544Y-30790589D01*
X37990097Y-30795707D01*
X37990097Y-30797411D01*
X37990097Y-30797412D01*
X37990097Y-30797414D01*
X38004839Y-30881019D01*
X38007581Y-30896570D01*
X38057920Y-30983759D01*
X38057921Y-30983760D01*
X38057922Y-30983761D01*
X38135049Y-31048478D01*
X38229660Y-31082914D01*
X38330342Y-31082914D01*
X38424953Y-31048478D01*
X38502080Y-30983761D01*
X38524748Y-30944500D01*
X38552421Y-30896570D01*
X38555163Y-30881019D01*
X38557678Y-30866753D01*
X38577828Y-30835125D01*
X38614442Y-30827007D01*
X38640582Y-30840615D01*
X38811741Y-31011774D01*
X38826093Y-31046422D01*
X38826093Y-31150391D01*
X38811741Y-31185039D01*
X38436631Y-31560150D01*
X38401983Y-31574502D01*
X37820924Y-31574502D01*
X37789428Y-31563038D01*
X37724956Y-31508940D01*
X37724950Y-31508937D01*
X37630341Y-31474502D01*
X37529659Y-31474502D01*
X37435049Y-31508937D01*
X37435047Y-31508938D01*
X37357919Y-31573656D01*
X37307580Y-31660845D01*
X37307579Y-31660848D01*
X37307579Y-31660849D01*
X37290096Y-31760002D01*
X37305171Y-31845500D01*
X37307580Y-31859158D01*
X37350490Y-31933479D01*
X37357921Y-31946349D01*
X37375404Y-31961018D01*
X37392720Y-31994282D01*
X37381444Y-32030050D01*
X37363326Y-32042738D01*
X37363375Y-32042822D01*
X37362423Y-32043371D01*
X37360675Y-32044596D01*
X37359666Y-32044963D01*
X37359661Y-32044966D01*
X37269027Y-32121016D01*
X37269025Y-32121019D01*
X37209869Y-32223479D01*
X37189324Y-32340000D01*
X37209869Y-32456520D01*
X37269025Y-32558980D01*
X37269027Y-32558983D01*
X37325360Y-32606251D01*
X37359662Y-32635034D01*
X37470842Y-32675500D01*
X37589158Y-32675500D01*
X37700338Y-32635034D01*
X37790973Y-32558982D01*
X37850131Y-32456518D01*
X37870676Y-32340000D01*
X37850131Y-32223482D01*
X37850130Y-32223480D01*
X37850130Y-32223479D01*
X37790974Y-32121019D01*
X37790972Y-32121016D01*
X37737178Y-32075878D01*
X37719861Y-32042613D01*
X37731139Y-32006845D01*
X37737170Y-32000813D01*
X37773680Y-31970177D01*
X37789428Y-31956965D01*
X37820924Y-31945502D01*
X38536011Y-31945502D01*
X38536013Y-31945502D01*
X38604192Y-31917261D01*
X39168852Y-31352602D01*
X39181449Y-31322190D01*
X39197093Y-31284422D01*
X39197093Y-30912392D01*
X39168852Y-30844213D01*
X39168852Y-30844212D01*
X38439255Y-30114616D01*
X38424904Y-30079969D01*
X38439256Y-30045321D01*
X38473904Y-30030969D01*
X39236915Y-30030969D01*
X39271563Y-30045321D01*
X40138826Y-30912584D01*
X40153178Y-30947232D01*
X40153178Y-32638187D01*
X40146613Y-32662687D01*
X40118548Y-32711297D01*
X40118547Y-32711298D01*
X40118547Y-32711300D01*
X40103134Y-32798711D01*
X40098002Y-32827818D01*
X40118547Y-32944338D01*
X40177703Y-33046798D01*
X40177705Y-33046801D01*
X40234277Y-33094270D01*
X40268340Y-33122852D01*
X40379520Y-33163318D01*
X40497836Y-33163318D01*
X40609016Y-33122852D01*
X40699651Y-33046800D01*
X40742831Y-32972011D01*
X40758808Y-32944338D01*
X40758808Y-32944337D01*
X40758809Y-32944336D01*
X40779354Y-32827818D01*
X40758809Y-32711300D01*
X40738140Y-32675500D01*
X40730743Y-32662687D01*
X40724178Y-32638187D01*
X40724178Y-30965694D01*
X40738530Y-30931046D01*
X40773178Y-30916694D01*
X40807826Y-30931046D01*
X41840148Y-31963368D01*
X41854500Y-31998016D01*
X41854500Y-33246016D01*
X41859942Y-33259153D01*
X41882741Y-33314194D01*
X41882742Y-33314195D01*
X41882742Y-33314196D01*
X42093624Y-33525077D01*
X42145806Y-33577259D01*
X42213985Y-33605500D01*
X42213987Y-33605500D01*
X43336013Y-33605500D01*
X43336015Y-33605500D01*
X43404194Y-33577259D01*
X43404196Y-33577257D01*
X43404197Y-33577257D01*
X43667257Y-33314197D01*
X43667257Y-33314196D01*
X43667259Y-33314194D01*
X43672288Y-33302052D01*
X43698803Y-33275535D01*
X43736306Y-33275533D01*
X43749054Y-33283268D01*
X43779647Y-33308938D01*
X43800057Y-33326064D01*
X43894668Y-33360500D01*
X43995350Y-33360500D01*
X44089961Y-33326064D01*
X44167088Y-33261347D01*
X44217430Y-33174153D01*
X44234913Y-33075000D01*
X44217430Y-32975847D01*
X44215758Y-32972951D01*
X44167089Y-32888654D01*
X44143003Y-32868443D01*
X44125686Y-32835177D01*
X44125500Y-32830907D01*
X44125500Y-29473104D01*
X44125499Y-29473100D01*
X44117444Y-29453653D01*
X44097259Y-29404923D01*
X44045077Y-29352741D01*
X43819229Y-29126893D01*
X43565079Y-28872742D01*
X43558459Y-28870000D01*
X43544530Y-28864230D01*
X43496899Y-28844500D01*
X43496898Y-28844500D01*
X42548017Y-28844500D01*
X42513369Y-28830148D01*
X42499017Y-28795500D01*
X42505582Y-28771000D01*
X42512420Y-28759156D01*
X42512420Y-28759155D01*
X42512421Y-28759154D01*
X42529904Y-28660001D01*
X42512421Y-28560848D01*
X42497209Y-28534500D01*
X42462080Y-28473655D01*
X42448254Y-28462054D01*
X42384952Y-28408937D01*
X42384951Y-28408936D01*
X42303122Y-28379153D01*
X42300145Y-28378069D01*
X42272496Y-28352733D01*
X42268650Y-28323516D01*
X42277080Y-28275709D01*
X42277080Y-28275707D01*
X42259597Y-28176554D01*
X42259595Y-28176550D01*
X42209256Y-28089361D01*
X42177531Y-28062741D01*
X42132128Y-28024643D01*
X42132126Y-28024642D01*
X42037517Y-27990207D01*
X41936835Y-27990207D01*
X41842225Y-28024642D01*
X41842220Y-28024645D01*
X41782526Y-28074734D01*
X41746759Y-28086012D01*
X41719534Y-28074734D01*
X41664956Y-28028938D01*
X41664950Y-28028935D01*
X41570341Y-27994500D01*
X41469659Y-27994500D01*
X41375049Y-28028935D01*
X41375047Y-28028936D01*
X41297919Y-28093654D01*
X41247580Y-28180843D01*
X41247579Y-28180846D01*
X41247579Y-28180847D01*
X41230096Y-28280000D01*
X41247405Y-28378169D01*
X41247580Y-28379156D01*
X41297919Y-28466345D01*
X41297920Y-28466346D01*
X41297921Y-28466347D01*
X41317590Y-28482851D01*
X41335601Y-28497964D01*
X41352918Y-28531229D01*
X41341640Y-28566997D01*
X41308375Y-28584314D01*
X41304104Y-28584500D01*
X40844728Y-28584500D01*
X40810080Y-28570148D01*
X40168145Y-27928212D01*
X40166573Y-27927561D01*
X40140597Y-27916801D01*
X40099965Y-27899970D01*
X40099964Y-27899970D01*
X38755133Y-27899970D01*
X38720485Y-27885618D01*
X38706133Y-27850970D01*
X38712698Y-27826470D01*
X38713762Y-27824625D01*
X38713761Y-27824625D01*
X38713764Y-27824622D01*
X38731247Y-27725469D01*
X38713764Y-27626316D01*
X38710144Y-27620046D01*
X38663423Y-27539123D01*
X38655818Y-27532742D01*
X38586295Y-27474405D01*
X38586293Y-27474404D01*
X38491684Y-27439969D01*
X38391002Y-27439969D01*
X38296392Y-27474404D01*
X38296390Y-27474405D01*
X38219262Y-27539123D01*
X38168923Y-27626312D01*
X38168922Y-27626315D01*
X38168922Y-27626316D01*
X38151439Y-27725469D01*
X38168900Y-27824500D01*
X38168923Y-27824625D01*
X38169988Y-27826470D01*
X38170211Y-27828165D01*
X38170389Y-27828654D01*
X38170280Y-27828693D01*
X38174883Y-27863653D01*
X38152053Y-27893405D01*
X38127553Y-27899970D01*
X34783212Y-27899970D01*
X34748564Y-27885618D01*
X34734212Y-27850970D01*
X34748564Y-27816322D01*
X34751716Y-27813434D01*
X34772078Y-27796348D01*
X34772080Y-27796345D01*
X34775709Y-27790060D01*
X34822421Y-27709153D01*
X34835321Y-27635990D01*
X34855472Y-27604362D01*
X34883577Y-27595500D01*
X34985341Y-27595500D01*
X35079944Y-27561067D01*
X35079944Y-27561066D01*
X35079952Y-27561064D01*
X35079958Y-27561058D01*
X35080059Y-27561001D01*
X35080164Y-27560987D01*
X35083981Y-27559598D01*
X35084288Y-27560442D01*
X35117239Y-27556095D01*
X35147000Y-27578916D01*
X35147007Y-27578929D01*
X35191704Y-27656345D01*
X35191705Y-27656346D01*
X35191706Y-27656347D01*
X35268833Y-27721064D01*
X35363444Y-27755500D01*
X35464126Y-27755500D01*
X35558737Y-27721064D01*
X35635864Y-27656347D01*
X35686206Y-27569153D01*
X35692432Y-27533838D01*
X35712583Y-27502210D01*
X35740688Y-27493348D01*
X35842119Y-27493348D01*
X35936730Y-27458912D01*
X35952780Y-27445443D01*
X35988547Y-27434165D01*
X36021813Y-27451481D01*
X36023902Y-27454465D01*
X36025481Y-27456346D01*
X36025482Y-27456347D01*
X36025483Y-27456348D01*
X36102610Y-27521065D01*
X36197221Y-27555501D01*
X36297903Y-27555501D01*
X36392514Y-27521065D01*
X36446067Y-27476128D01*
X36481833Y-27464851D01*
X36509060Y-27476129D01*
X36535868Y-27498623D01*
X36562612Y-27521064D01*
X36657223Y-27555500D01*
X36757905Y-27555500D01*
X36852516Y-27521064D01*
X36906069Y-27476127D01*
X36941835Y-27464850D01*
X36969062Y-27476128D01*
X37022615Y-27521064D01*
X37117226Y-27555500D01*
X37217908Y-27555500D01*
X37312519Y-27521064D01*
X37389646Y-27456347D01*
X37439988Y-27369153D01*
X37457471Y-27270000D01*
X37439988Y-27170847D01*
X37430466Y-27154354D01*
X37389647Y-27083654D01*
X37381309Y-27076658D01*
X37312519Y-27018936D01*
X37312517Y-27018935D01*
X37217908Y-26984500D01*
X37117226Y-26984500D01*
X37022616Y-27018935D01*
X37022610Y-27018938D01*
X36969061Y-27063871D01*
X36933294Y-27075149D01*
X36906068Y-27063871D01*
X36852516Y-27018936D01*
X36852514Y-27018935D01*
X36757905Y-26984500D01*
X36657223Y-26984500D01*
X36562613Y-27018935D01*
X36562607Y-27018938D01*
X36509058Y-27063871D01*
X36473291Y-27075149D01*
X36446065Y-27063871D01*
X36392514Y-27018937D01*
X36392512Y-27018936D01*
X36297903Y-26984501D01*
X36197221Y-26984501D01*
X36102612Y-27018936D01*
X36102610Y-27018937D01*
X36086556Y-27032407D01*
X36050788Y-27043682D01*
X36017523Y-27026364D01*
X36015439Y-27023387D01*
X36013854Y-27021497D01*
X35936733Y-26956786D01*
X35936728Y-26956783D01*
X35842119Y-26922348D01*
X35766794Y-26922348D01*
X35732146Y-26907996D01*
X35364150Y-26540000D01*
X39290096Y-26540000D01*
X39307411Y-26638202D01*
X39307580Y-26639156D01*
X39357919Y-26726345D01*
X39357920Y-26726346D01*
X39357921Y-26726347D01*
X39435048Y-26791064D01*
X39529659Y-26825500D01*
X39630341Y-26825500D01*
X39691263Y-26803326D01*
X39728730Y-26804962D01*
X39754067Y-26832612D01*
X39756277Y-26857878D01*
X39741798Y-26940000D01*
X39758052Y-27032185D01*
X39759282Y-27039156D01*
X39809621Y-27126345D01*
X39809622Y-27126346D01*
X39809623Y-27126347D01*
X39886750Y-27191064D01*
X39981361Y-27225500D01*
X40082043Y-27225500D01*
X40176654Y-27191064D01*
X40178101Y-27189850D01*
X40241130Y-27136964D01*
X40272626Y-27125500D01*
X42222868Y-27125500D01*
X42257516Y-27139852D01*
X43495030Y-28377368D01*
X43502214Y-28383264D01*
X43512479Y-28393529D01*
X43526831Y-28428177D01*
X43526384Y-28433295D01*
X43526384Y-28434999D01*
X43526384Y-28435000D01*
X43526384Y-28435002D01*
X43543754Y-28533513D01*
X43543868Y-28534158D01*
X43594207Y-28621347D01*
X43594208Y-28621348D01*
X43594209Y-28621349D01*
X43671336Y-28686066D01*
X43765947Y-28720502D01*
X43866629Y-28720502D01*
X43961240Y-28686066D01*
X44038367Y-28621349D01*
X44088709Y-28534155D01*
X44106192Y-28435002D01*
X44088709Y-28335849D01*
X44088707Y-28335845D01*
X44038368Y-28248656D01*
X44018178Y-28231715D01*
X43961240Y-28183938D01*
X43961238Y-28183937D01*
X43866629Y-28149502D01*
X43813420Y-28149502D01*
X43778772Y-28135150D01*
X43706249Y-28062627D01*
X43699076Y-28056739D01*
X42425080Y-26782743D01*
X42425078Y-26782742D01*
X42425077Y-26782741D01*
X42374860Y-26761940D01*
X42356899Y-26754500D01*
X42356898Y-26754500D01*
X40272626Y-26754500D01*
X40241130Y-26743036D01*
X40176658Y-26688938D01*
X40176652Y-26688935D01*
X40082043Y-26654500D01*
X39981361Y-26654500D01*
X39981360Y-26654500D01*
X39920437Y-26676673D01*
X39882970Y-26675037D01*
X39857634Y-26647386D01*
X39855423Y-26622124D01*
X39869904Y-26540000D01*
X39852421Y-26440847D01*
X39846589Y-26430745D01*
X39802080Y-26353654D01*
X39724952Y-26288936D01*
X39724950Y-26288935D01*
X39630341Y-26254500D01*
X39529659Y-26254500D01*
X39435049Y-26288935D01*
X39435047Y-26288936D01*
X39357919Y-26353654D01*
X39307580Y-26440843D01*
X39307579Y-26440846D01*
X39307579Y-26440847D01*
X39290096Y-26540000D01*
X35364150Y-26540000D01*
X34876890Y-26052740D01*
X34876888Y-26052739D01*
X34876887Y-26052738D01*
X34831312Y-26033860D01*
X34808709Y-26024497D01*
X34808708Y-26024497D01*
X33153790Y-26024497D01*
X33119142Y-26010145D01*
X33104790Y-25975497D01*
X33111355Y-25950997D01*
X33112420Y-25949152D01*
X33112420Y-25949151D01*
X33112421Y-25949150D01*
X33129904Y-25849997D01*
X33112421Y-25750844D01*
X33102781Y-25734148D01*
X33096923Y-25724001D01*
X33092027Y-25686818D01*
X33114857Y-25657065D01*
X33139358Y-25650500D01*
X44500500Y-25650500D01*
X44535148Y-25664852D01*
X44549500Y-25699500D01*
X44549500Y-26384700D01*
X44535148Y-26419348D01*
X44500500Y-26433700D01*
X44483741Y-26430745D01*
X44384158Y-26394500D01*
X44265842Y-26394500D01*
X44154661Y-26434966D01*
X44064027Y-26511016D01*
X44064025Y-26511019D01*
X44004869Y-26613479D01*
X43984324Y-26730000D01*
X44004869Y-26846520D01*
X44064025Y-26948980D01*
X44064027Y-26948983D01*
X44154661Y-27025034D01*
X44174309Y-27032185D01*
X44201960Y-27057521D01*
X44203596Y-27094988D01*
X44187078Y-27114685D01*
X44188332Y-27116180D01*
X44107919Y-27183654D01*
X44057580Y-27270843D01*
X44057579Y-27270846D01*
X44057579Y-27270847D01*
X44040096Y-27370000D01*
X44057505Y-27468734D01*
X44057580Y-27469156D01*
X44107919Y-27556345D01*
X44107920Y-27556346D01*
X44107921Y-27556347D01*
X44185048Y-27621064D01*
X44279659Y-27655500D01*
X44380341Y-27655500D01*
X44474952Y-27621064D01*
X44474954Y-27621062D01*
X44475995Y-27620462D01*
X44476954Y-27620335D01*
X44478981Y-27619598D01*
X44479144Y-27620046D01*
X44513176Y-27615562D01*
X44542932Y-27638389D01*
X44549500Y-27662894D01*
X44549500Y-33700500D01*
X44535148Y-33735148D01*
X44500500Y-33749500D01*
X34791132Y-33749500D01*
X34756484Y-33735148D01*
X34742132Y-33700500D01*
X34756484Y-33665852D01*
X34891163Y-33531173D01*
X35117259Y-33305078D01*
X35118598Y-33301845D01*
X35132372Y-33283054D01*
X35182079Y-33241347D01*
X35232421Y-33154153D01*
X35237561Y-33124997D01*
X35257709Y-33093369D01*
X35294323Y-33085251D01*
X35302575Y-33087462D01*
X35324659Y-33095500D01*
X35429628Y-33095500D01*
X35429628Y-33096716D01*
X35461287Y-33103733D01*
X35481438Y-33135362D01*
X35481439Y-33152379D01*
X35480096Y-33159997D01*
X35480096Y-33159998D01*
X35480096Y-33160000D01*
X35496759Y-33254500D01*
X35497580Y-33259156D01*
X35547919Y-33346345D01*
X35547920Y-33346346D01*
X35547921Y-33346347D01*
X35625048Y-33411064D01*
X35719659Y-33445500D01*
X35820341Y-33445500D01*
X35914952Y-33411064D01*
X35992079Y-33346347D01*
X36042421Y-33259153D01*
X36059904Y-33160000D01*
X36056333Y-33139748D01*
X36064449Y-33103136D01*
X36096078Y-33082985D01*
X36121346Y-33085194D01*
X36149659Y-33095500D01*
X36250341Y-33095500D01*
X36344952Y-33061064D01*
X36422079Y-32996347D01*
X36472421Y-32909153D01*
X36489904Y-32810000D01*
X36472421Y-32710847D01*
X36472419Y-32710843D01*
X36422080Y-32623654D01*
X36412362Y-32615500D01*
X36344952Y-32558936D01*
X36344950Y-32558935D01*
X36250341Y-32524500D01*
X36149659Y-32524500D01*
X36055049Y-32558935D01*
X36055047Y-32558936D01*
X35977919Y-32623654D01*
X35927580Y-32710843D01*
X35927579Y-32710846D01*
X35927579Y-32710847D01*
X35910096Y-32810000D01*
X35913622Y-32830000D01*
X35913667Y-32830250D01*
X35905549Y-32866864D01*
X35873920Y-32887015D01*
X35848653Y-32884804D01*
X35820342Y-32874500D01*
X35820341Y-32874500D01*
X35719659Y-32874500D01*
X35715372Y-32874500D01*
X35715372Y-32873284D01*
X35683711Y-32866265D01*
X35663560Y-32834636D01*
X35663561Y-32817617D01*
X35663706Y-32816789D01*
X35664904Y-32810000D01*
X35647421Y-32710847D01*
X35647419Y-32710843D01*
X35597080Y-32623654D01*
X35587362Y-32615500D01*
X35519952Y-32558936D01*
X35519950Y-32558935D01*
X35425341Y-32524500D01*
X35372133Y-32524500D01*
X35337485Y-32510148D01*
X35100080Y-32272743D01*
X35100078Y-32272742D01*
X35100077Y-32272741D01*
X35060140Y-32256198D01*
X35031899Y-32244500D01*
X35031898Y-32244500D01*
X34655988Y-32244500D01*
X34621340Y-32230148D01*
X34606988Y-32195500D01*
X34621340Y-32160852D01*
X34631486Y-32153066D01*
X34634950Y-32151065D01*
X34634950Y-32151064D01*
X34634952Y-32151064D01*
X34712079Y-32086347D01*
X34762421Y-31999153D01*
X34779904Y-31900000D01*
X34762421Y-31800847D01*
X34762419Y-31800843D01*
X34712080Y-31713654D01*
X34669035Y-31677534D01*
X34651718Y-31644268D01*
X34662996Y-31608501D01*
X34669026Y-31602470D01*
X34712077Y-31566347D01*
X34762419Y-31479153D01*
X34779902Y-31380000D01*
X34762419Y-31280847D01*
X34761930Y-31280000D01*
X36179324Y-31280000D01*
X36199869Y-31396520D01*
X36259025Y-31498980D01*
X36259027Y-31498983D01*
X36331924Y-31560150D01*
X36349662Y-31575034D01*
X36460842Y-31615500D01*
X36579158Y-31615500D01*
X36690338Y-31575034D01*
X36780973Y-31498982D01*
X36840131Y-31396518D01*
X36860676Y-31280000D01*
X36840131Y-31163482D01*
X36840130Y-31163480D01*
X36840130Y-31163479D01*
X36780974Y-31061019D01*
X36780972Y-31061016D01*
X36690338Y-30984966D01*
X36579158Y-30944500D01*
X36460842Y-30944500D01*
X36349661Y-30984966D01*
X36259027Y-31061016D01*
X36259025Y-31061019D01*
X36199869Y-31163479D01*
X36179324Y-31280000D01*
X34761930Y-31280000D01*
X34760602Y-31277700D01*
X34712078Y-31193654D01*
X34634950Y-31128936D01*
X34634948Y-31128935D01*
X34540339Y-31094500D01*
X34439657Y-31094500D01*
X34345047Y-31128935D01*
X34345045Y-31128936D01*
X34267917Y-31193654D01*
X34217578Y-31280843D01*
X34217577Y-31280846D01*
X34217577Y-31280847D01*
X34200094Y-31380000D01*
X34214990Y-31464483D01*
X34217578Y-31479156D01*
X34267917Y-31566345D01*
X34267918Y-31566346D01*
X34267919Y-31566347D01*
X34276630Y-31573656D01*
X34310962Y-31602464D01*
X34328279Y-31635729D01*
X34317001Y-31671497D01*
X34310962Y-31677536D01*
X34267919Y-31713654D01*
X34217580Y-31800843D01*
X34217579Y-31800846D01*
X34217579Y-31800847D01*
X34200096Y-31900000D01*
X34216720Y-31994282D01*
X34217580Y-31999156D01*
X34267919Y-32086345D01*
X34267920Y-32086346D01*
X34267921Y-32086347D01*
X34309242Y-32121019D01*
X34345049Y-32151065D01*
X34348514Y-32153066D01*
X34371343Y-32182820D01*
X34366446Y-32220002D01*
X34336692Y-32242831D01*
X34324012Y-32244500D01*
X32957710Y-32244500D01*
X32909498Y-32264468D01*
X32909499Y-32264469D01*
X32889528Y-32272741D01*
X32467124Y-32695148D01*
X32432476Y-32709500D01*
X32034003Y-32709500D01*
X31999355Y-32695148D01*
X31231877Y-31927670D01*
X31231875Y-31927669D01*
X31231874Y-31927668D01*
X31183687Y-31907708D01*
X31163696Y-31899427D01*
X31163695Y-31899427D01*
X30851825Y-31899427D01*
X30557726Y-31899426D01*
X30523078Y-31885074D01*
X30508726Y-31850426D01*
X30523078Y-31815778D01*
X30540965Y-31804382D01*
X30635338Y-31770034D01*
X30702530Y-31713653D01*
X30725972Y-31693983D01*
X30725974Y-31693980D01*
X30729874Y-31687226D01*
X30762299Y-31631064D01*
X30785130Y-31591520D01*
X30785130Y-31591519D01*
X30785131Y-31591518D01*
X30805676Y-31475000D01*
X30785131Y-31358482D01*
X30785130Y-31358480D01*
X30785130Y-31358479D01*
X30725974Y-31256019D01*
X30725972Y-31256016D01*
X30635338Y-31179966D01*
X30524158Y-31139500D01*
X30405842Y-31139500D01*
X30294661Y-31179966D01*
X30204027Y-31256016D01*
X30204023Y-31256021D01*
X30199033Y-31264665D01*
X30169280Y-31287495D01*
X30132098Y-31282598D01*
X30125102Y-31277700D01*
X30050338Y-31214966D01*
X29939158Y-31174500D01*
X29820842Y-31174500D01*
X29709661Y-31214966D01*
X29619027Y-31291016D01*
X29619025Y-31291019D01*
X29559869Y-31393479D01*
X29539324Y-31510000D01*
X29559869Y-31626520D01*
X29619025Y-31728980D01*
X29619027Y-31728983D01*
X29693163Y-31791190D01*
X29709662Y-31805034D01*
X29775335Y-31828937D01*
X29779374Y-31830407D01*
X29807024Y-31855744D01*
X29808660Y-31893211D01*
X29783323Y-31920861D01*
X29781378Y-31921717D01*
X29773709Y-31924894D01*
X29767012Y-31927668D01*
X29434534Y-32260148D01*
X29399886Y-32274500D01*
X29159956Y-32274500D01*
X29125308Y-32260148D01*
X29110956Y-32225500D01*
X29117521Y-32201000D01*
X29137428Y-32166520D01*
X29137428Y-32166519D01*
X29137429Y-32166518D01*
X29157974Y-32050000D01*
X29137429Y-31933482D01*
X29137428Y-31933480D01*
X29137428Y-31933479D01*
X29078272Y-31831019D01*
X29078270Y-31831016D01*
X28987636Y-31754966D01*
X28876456Y-31714500D01*
X28758140Y-31714500D01*
X28646959Y-31754966D01*
X28556325Y-31831016D01*
X28556323Y-31831019D01*
X28497167Y-31933479D01*
X28476622Y-32050000D01*
X28497167Y-32166520D01*
X28517075Y-32201000D01*
X28521970Y-32238182D01*
X28499140Y-32267935D01*
X28474640Y-32274500D01*
X28463983Y-32274500D01*
X28395804Y-32302742D01*
X28395802Y-32302743D01*
X27803192Y-32895353D01*
X27768544Y-32909705D01*
X27733896Y-32895353D01*
X27719544Y-32860705D01*
X27720289Y-32852194D01*
X27720438Y-32851350D01*
X27720676Y-32850000D01*
X27700131Y-32733482D01*
X27700130Y-32733480D01*
X27700130Y-32733479D01*
X27640974Y-32631019D01*
X27640972Y-32631016D01*
X27550338Y-32554966D01*
X27439158Y-32514500D01*
X27320842Y-32514500D01*
X27209661Y-32554966D01*
X27158253Y-32598103D01*
X27122485Y-32609381D01*
X27095259Y-32598103D01*
X27062861Y-32570918D01*
X27048203Y-32558618D01*
X26937023Y-32518152D01*
X26818707Y-32518152D01*
X26707526Y-32558618D01*
X26616892Y-32634668D01*
X26616890Y-32634671D01*
X26557734Y-32737131D01*
X26537189Y-32853652D01*
X26557734Y-32970172D01*
X26616890Y-33072632D01*
X26616892Y-33072635D01*
X26691648Y-33135362D01*
X26707527Y-33148686D01*
X26818707Y-33189152D01*
X26876258Y-33189152D01*
X26910906Y-33203504D01*
X26925258Y-33238152D01*
X26910906Y-33272800D01*
X26893017Y-33284197D01*
X26825049Y-33308935D01*
X26825047Y-33308936D01*
X26747919Y-33373654D01*
X26697580Y-33460843D01*
X26697579Y-33460846D01*
X26697579Y-33460847D01*
X26680096Y-33560000D01*
X26696284Y-33651810D01*
X26697580Y-33659156D01*
X26707305Y-33676000D01*
X26712200Y-33713182D01*
X26689370Y-33742935D01*
X26664870Y-33749500D01*
X25773708Y-33749500D01*
X25739060Y-33735148D01*
X25724708Y-33700500D01*
X25739060Y-33665852D01*
X25756949Y-33654455D01*
X25764216Y-33651810D01*
X25834952Y-33626064D01*
X25912079Y-33561347D01*
X25962421Y-33474153D01*
X25979904Y-33375000D01*
X25962421Y-33275847D01*
X25962240Y-33275533D01*
X25912080Y-33188654D01*
X25894798Y-33174153D01*
X25834952Y-33123936D01*
X25834950Y-33123935D01*
X25740341Y-33089500D01*
X25639659Y-33089500D01*
X25545049Y-33123935D01*
X25545047Y-33123936D01*
X25530996Y-33135726D01*
X25495228Y-33147002D01*
X25461963Y-33129685D01*
X25450500Y-33098189D01*
X25450500Y-31100000D01*
X26379324Y-31100000D01*
X26399869Y-31216520D01*
X26459025Y-31318980D01*
X26459027Y-31318983D01*
X26549661Y-31395034D01*
X26557069Y-31397730D01*
X26567068Y-31401369D01*
X26594718Y-31426704D01*
X26596355Y-31464172D01*
X26571020Y-31491822D01*
X26567073Y-31493458D01*
X26559661Y-31496156D01*
X26469027Y-31572206D01*
X26469025Y-31572209D01*
X26409869Y-31674669D01*
X26389324Y-31791190D01*
X26409869Y-31907710D01*
X26469025Y-32010170D01*
X26469027Y-32010173D01*
X26516492Y-32050000D01*
X26559662Y-32086224D01*
X26670842Y-32126690D01*
X26789158Y-32126690D01*
X26900338Y-32086224D01*
X26990973Y-32010172D01*
X27021692Y-31956965D01*
X27050130Y-31907710D01*
X27050130Y-31907709D01*
X27050131Y-31907708D01*
X27070676Y-31791190D01*
X27050131Y-31674672D01*
X27050130Y-31674670D01*
X27050130Y-31674669D01*
X26990974Y-31572209D01*
X26990972Y-31572206D01*
X26900338Y-31496156D01*
X26882930Y-31489820D01*
X26855280Y-31464483D01*
X26853644Y-31427016D01*
X26878981Y-31399366D01*
X26882931Y-31397730D01*
X26890338Y-31395034D01*
X26980972Y-31318983D01*
X26980974Y-31318980D01*
X26997118Y-31291019D01*
X27040131Y-31216518D01*
X27060676Y-31100000D01*
X27040131Y-30983482D01*
X27040130Y-30983480D01*
X27040130Y-30983479D01*
X26980974Y-30881019D01*
X26980972Y-30881016D01*
X26890338Y-30804966D01*
X26779158Y-30764500D01*
X26660842Y-30764500D01*
X26549661Y-30804966D01*
X26459027Y-30881016D01*
X26459025Y-30881019D01*
X26399869Y-30983479D01*
X26379324Y-31100000D01*
X25450500Y-31100000D01*
X25450500Y-30564998D01*
X28274326Y-30564998D01*
X28294871Y-30681518D01*
X28354027Y-30783978D01*
X28354029Y-30783981D01*
X28425812Y-30844213D01*
X28444664Y-30860032D01*
X28555844Y-30900498D01*
X28674160Y-30900498D01*
X28785340Y-30860032D01*
X28875975Y-30783980D01*
X28918773Y-30709852D01*
X28935132Y-30681518D01*
X28935132Y-30681517D01*
X28935133Y-30681516D01*
X28955678Y-30564998D01*
X28935133Y-30448480D01*
X28935132Y-30448478D01*
X28935132Y-30448477D01*
X28875976Y-30346017D01*
X28875974Y-30346014D01*
X28785340Y-30269964D01*
X28674160Y-30229498D01*
X28555844Y-30229498D01*
X28444663Y-30269964D01*
X28354029Y-30346014D01*
X28354027Y-30346017D01*
X28294871Y-30448477D01*
X28274326Y-30564998D01*
X25450500Y-30564998D01*
X25450500Y-30210000D01*
X26130096Y-30210000D01*
X26142618Y-30281019D01*
X26147580Y-30309156D01*
X26197919Y-30396345D01*
X26197920Y-30396346D01*
X26197921Y-30396347D01*
X26275048Y-30461064D01*
X26369659Y-30495500D01*
X26470341Y-30495500D01*
X26564952Y-30461064D01*
X26642079Y-30396347D01*
X26692421Y-30309153D01*
X26709904Y-30210000D01*
X26692421Y-30110847D01*
X26684503Y-30097132D01*
X26642080Y-30023654D01*
X26564952Y-29958936D01*
X26564950Y-29958935D01*
X26470341Y-29924500D01*
X26369659Y-29924500D01*
X26275049Y-29958935D01*
X26275047Y-29958936D01*
X26197919Y-30023654D01*
X26147580Y-30110843D01*
X26147579Y-30110846D01*
X26147579Y-30110847D01*
X26130096Y-30210000D01*
X25450500Y-30210000D01*
X25450500Y-27171580D01*
X25464852Y-27136932D01*
X25499500Y-27122580D01*
X25530997Y-27134044D01*
X25537919Y-27139852D01*
X25570500Y-27167191D01*
X25681680Y-27207657D01*
X25799996Y-27207657D01*
X25911176Y-27167191D01*
X25994379Y-27097375D01*
X26001810Y-27091140D01*
X26001812Y-27091137D01*
X26060968Y-26988677D01*
X26060968Y-26988676D01*
X26060969Y-26988675D01*
X26081514Y-26872157D01*
X26060969Y-26755639D01*
X26060968Y-26755637D01*
X26060968Y-26755636D01*
X26001812Y-26653176D01*
X26001808Y-26653171D01*
X25957329Y-26615849D01*
X25940011Y-26582584D01*
X25951289Y-26546817D01*
X25957329Y-26540777D01*
X26030970Y-26478985D01*
X26030971Y-26478983D01*
X26030973Y-26478982D01*
X26090131Y-26376518D01*
X26110676Y-26260000D01*
X26090131Y-26143482D01*
X26090130Y-26143480D01*
X26090130Y-26143479D01*
X26030974Y-26041019D01*
X26030972Y-26041016D01*
X25940338Y-25964966D01*
X25829158Y-25924500D01*
X25710842Y-25924500D01*
X25599659Y-25964966D01*
X25530996Y-26022582D01*
X25495229Y-26033860D01*
X25461964Y-26016542D01*
X25450500Y-25985046D01*
X25450500Y-25699500D01*
X25464852Y-25664852D01*
X25499500Y-25650500D01*
X27215062Y-25650500D01*
X27249710Y-25664852D01*
G37*
G04 #@! TD.AperFunction*
G04 #@! TA.AperFunction,Conductor*
G36*
X31815291Y-25664852D02*
G01*
X31829643Y-25699500D01*
X31823078Y-25724000D01*
X31807580Y-25750843D01*
X31807579Y-25750846D01*
X31807579Y-25750847D01*
X31790096Y-25850000D01*
X31807578Y-25949150D01*
X31807580Y-25949156D01*
X31857919Y-26036345D01*
X31857920Y-26036346D01*
X31857921Y-26036347D01*
X31935047Y-26101063D01*
X31935050Y-26101065D01*
X31951101Y-26106907D01*
X31978752Y-26132243D01*
X31980388Y-26169710D01*
X31968991Y-26187600D01*
X31449478Y-26707113D01*
X31414830Y-26721465D01*
X31380182Y-26707113D01*
X31372394Y-26696963D01*
X31361808Y-26678626D01*
X31356914Y-26641444D01*
X31374717Y-26618244D01*
X31373141Y-26616366D01*
X31453551Y-26548894D01*
X31453553Y-26548891D01*
X31503894Y-26461699D01*
X31521377Y-26362546D01*
X31503894Y-26263393D01*
X31467751Y-26200792D01*
X31453553Y-26176200D01*
X31405731Y-26136073D01*
X31376425Y-26111482D01*
X31376423Y-26111481D01*
X31281814Y-26077046D01*
X31181132Y-26077046D01*
X31086522Y-26111481D01*
X31086520Y-26111482D01*
X31009392Y-26176200D01*
X30959053Y-26263389D01*
X30959052Y-26263392D01*
X30959052Y-26263393D01*
X30941569Y-26362546D01*
X30959052Y-26461699D01*
X30959052Y-26461700D01*
X30959053Y-26461701D01*
X30974659Y-26488732D01*
X30979554Y-26525914D01*
X30961770Y-26549140D01*
X30963328Y-26550996D01*
X30882915Y-26618470D01*
X30832575Y-26705660D01*
X30832574Y-26705663D01*
X30828228Y-26730311D01*
X30808077Y-26761940D01*
X30773736Y-26769552D01*
X30773736Y-26769701D01*
X30773065Y-26769701D01*
X30771463Y-26770056D01*
X30771462Y-26770056D01*
X30769449Y-26769701D01*
X30668767Y-26769701D01*
X30574158Y-26804136D01*
X30574153Y-26804139D01*
X30558061Y-26817641D01*
X30522294Y-26828917D01*
X30489029Y-26811599D01*
X30487013Y-26808719D01*
X30485392Y-26806788D01*
X30482231Y-26804136D01*
X30408264Y-26742070D01*
X30408262Y-26742069D01*
X30313653Y-26707634D01*
X30301832Y-26707634D01*
X30267184Y-26693282D01*
X30252832Y-26658634D01*
X30267184Y-26623986D01*
X30270335Y-26621098D01*
X30279415Y-26613479D01*
X30327078Y-26573485D01*
X30377420Y-26486291D01*
X30394903Y-26387138D01*
X30377420Y-26287985D01*
X30363222Y-26263393D01*
X30327079Y-26200792D01*
X30311357Y-26187600D01*
X30249951Y-26136074D01*
X30249949Y-26136073D01*
X30155340Y-26101638D01*
X30054658Y-26101638D01*
X29960048Y-26136073D01*
X29960046Y-26136074D01*
X29882918Y-26200792D01*
X29832579Y-26287981D01*
X29832578Y-26287984D01*
X29832578Y-26287985D01*
X29815095Y-26387138D01*
X29831289Y-26478982D01*
X29832579Y-26486294D01*
X29882918Y-26573483D01*
X29882919Y-26573484D01*
X29882920Y-26573485D01*
X29960047Y-26638202D01*
X30054658Y-26672638D01*
X30066479Y-26672638D01*
X30101127Y-26686990D01*
X30115479Y-26721638D01*
X30101127Y-26756286D01*
X30097976Y-26759174D01*
X30041231Y-26806788D01*
X29990891Y-26893978D01*
X29990890Y-26893982D01*
X29982566Y-26941188D01*
X29962416Y-26972818D01*
X29925802Y-26980934D01*
X29899663Y-26967327D01*
X29137411Y-26205075D01*
X29123059Y-26170427D01*
X29137411Y-26135779D01*
X29140563Y-26132891D01*
X29180970Y-26098985D01*
X29180971Y-26098983D01*
X29180973Y-26098982D01*
X29228570Y-26016542D01*
X29240130Y-25996520D01*
X29240130Y-25996519D01*
X29240131Y-25996518D01*
X29260676Y-25880000D01*
X29240131Y-25763482D01*
X29240130Y-25763480D01*
X29240130Y-25763479D01*
X29217336Y-25724000D01*
X29212441Y-25686818D01*
X29235271Y-25657065D01*
X29259771Y-25650500D01*
X31780643Y-25650500D01*
X31815291Y-25664852D01*
G37*
G04 #@! TD.AperFunction*
G04 #@! TD*
G04 #@! TA.AperFunction,Conductor*
G04 #@! TO.N,Board_0-+3.3V*
G36*
X27249710Y-15064852D02*
G01*
X27264062Y-15099500D01*
X27249710Y-15134148D01*
X27246559Y-15137036D01*
X27202919Y-15173654D01*
X27152580Y-15260843D01*
X27152579Y-15260846D01*
X27152579Y-15260847D01*
X27137741Y-15345000D01*
X27135096Y-15360000D01*
X27152579Y-15459155D01*
X27174328Y-15496824D01*
X27179223Y-15534006D01*
X27161264Y-15559070D01*
X27161521Y-15559327D01*
X27159966Y-15560881D01*
X27159120Y-15562063D01*
X27158109Y-15562738D01*
X25999091Y-16721759D01*
X25774502Y-16946348D01*
X25761252Y-16959598D01*
X25722320Y-16998529D01*
X25694079Y-17066707D01*
X25694079Y-17066709D01*
X25694079Y-18106796D01*
X25694079Y-18180592D01*
X25722320Y-18248771D01*
X25722321Y-18248772D01*
X25722321Y-18248773D01*
X26203624Y-18730075D01*
X26255806Y-18782257D01*
X26323985Y-18810498D01*
X26323987Y-18810498D01*
X26871898Y-18810498D01*
X26871900Y-18810498D01*
X26940079Y-18782257D01*
X26940081Y-18782255D01*
X26940082Y-18782255D01*
X27127259Y-18595078D01*
X27127259Y-18595077D01*
X27127261Y-18595075D01*
X27155502Y-18526896D01*
X27155502Y-18504118D01*
X27169854Y-18469470D01*
X27172997Y-18466590D01*
X27192081Y-18450577D01*
X27242423Y-18363383D01*
X27249237Y-18324733D01*
X27269388Y-18293106D01*
X27306002Y-18284988D01*
X27332141Y-18298596D01*
X27820801Y-18787257D01*
X27820802Y-18787257D01*
X27820804Y-18787259D01*
X27888983Y-18815500D01*
X27962779Y-18815500D01*
X31694636Y-18815500D01*
X31729284Y-18829852D01*
X32540282Y-19640852D01*
X32554634Y-19675500D01*
X32540282Y-19710148D01*
X32505634Y-19724500D01*
X30712040Y-19724500D01*
X30680544Y-19713036D01*
X30610069Y-19653901D01*
X30610063Y-19653898D01*
X30515454Y-19619463D01*
X30414772Y-19619463D01*
X30320162Y-19653898D01*
X30320160Y-19653899D01*
X30243032Y-19718617D01*
X30192693Y-19805806D01*
X30192692Y-19805809D01*
X30192692Y-19805810D01*
X30175209Y-19904963D01*
X30190126Y-19989565D01*
X30192693Y-20004119D01*
X30243032Y-20091308D01*
X30243033Y-20091309D01*
X30243034Y-20091310D01*
X30320161Y-20156027D01*
X30414772Y-20190463D01*
X30515454Y-20190463D01*
X30610065Y-20156027D01*
X30654214Y-20118982D01*
X30668537Y-20106964D01*
X30700033Y-20095500D01*
X37895455Y-20095500D01*
X37930103Y-20109852D01*
X37976192Y-20155941D01*
X37990544Y-20190589D01*
X37990097Y-20195707D01*
X37990097Y-20197411D01*
X37990097Y-20197412D01*
X37990097Y-20197414D01*
X38004839Y-20281019D01*
X38007581Y-20296570D01*
X38057920Y-20383759D01*
X38057921Y-20383760D01*
X38057922Y-20383761D01*
X38135049Y-20448478D01*
X38229660Y-20482914D01*
X38330342Y-20482914D01*
X38424953Y-20448478D01*
X38502080Y-20383761D01*
X38524748Y-20344500D01*
X38552421Y-20296570D01*
X38555163Y-20281019D01*
X38557678Y-20266753D01*
X38577828Y-20235125D01*
X38614442Y-20227007D01*
X38640582Y-20240615D01*
X38811741Y-20411774D01*
X38826093Y-20446422D01*
X38826093Y-20550391D01*
X38811741Y-20585039D01*
X38436631Y-20960150D01*
X38401983Y-20974502D01*
X37820924Y-20974502D01*
X37789428Y-20963038D01*
X37724956Y-20908940D01*
X37724950Y-20908937D01*
X37630341Y-20874502D01*
X37529659Y-20874502D01*
X37435049Y-20908937D01*
X37435047Y-20908938D01*
X37357919Y-20973656D01*
X37307580Y-21060845D01*
X37307579Y-21060848D01*
X37307579Y-21060849D01*
X37290096Y-21160002D01*
X37305171Y-21245500D01*
X37307580Y-21259158D01*
X37350490Y-21333479D01*
X37357921Y-21346349D01*
X37375404Y-21361018D01*
X37392720Y-21394282D01*
X37381444Y-21430050D01*
X37363326Y-21442738D01*
X37363375Y-21442822D01*
X37362423Y-21443371D01*
X37360675Y-21444596D01*
X37359666Y-21444963D01*
X37359661Y-21444966D01*
X37269027Y-21521016D01*
X37269025Y-21521019D01*
X37209869Y-21623479D01*
X37189324Y-21740000D01*
X37209869Y-21856520D01*
X37269025Y-21958980D01*
X37269027Y-21958983D01*
X37325360Y-22006251D01*
X37359662Y-22035034D01*
X37470842Y-22075500D01*
X37589158Y-22075500D01*
X37700338Y-22035034D01*
X37790973Y-21958982D01*
X37850131Y-21856518D01*
X37870676Y-21740000D01*
X37850131Y-21623482D01*
X37850130Y-21623480D01*
X37850130Y-21623479D01*
X37790974Y-21521019D01*
X37790972Y-21521016D01*
X37737178Y-21475878D01*
X37719861Y-21442613D01*
X37731139Y-21406845D01*
X37737170Y-21400813D01*
X37773680Y-21370177D01*
X37789428Y-21356965D01*
X37820924Y-21345502D01*
X38536011Y-21345502D01*
X38536013Y-21345502D01*
X38604192Y-21317261D01*
X39168852Y-20752602D01*
X39181449Y-20722190D01*
X39197093Y-20684422D01*
X39197093Y-20312392D01*
X39168852Y-20244213D01*
X39168852Y-20244212D01*
X38439255Y-19514616D01*
X38424904Y-19479969D01*
X38439256Y-19445321D01*
X38473904Y-19430969D01*
X39236915Y-19430969D01*
X39271563Y-19445321D01*
X40138826Y-20312584D01*
X40153178Y-20347232D01*
X40153178Y-22038187D01*
X40146613Y-22062687D01*
X40118548Y-22111297D01*
X40118547Y-22111298D01*
X40118547Y-22111300D01*
X40103134Y-22198711D01*
X40098002Y-22227818D01*
X40118547Y-22344338D01*
X40177703Y-22446798D01*
X40177705Y-22446801D01*
X40234277Y-22494270D01*
X40268340Y-22522852D01*
X40379520Y-22563318D01*
X40497836Y-22563318D01*
X40609016Y-22522852D01*
X40699651Y-22446800D01*
X40742831Y-22372011D01*
X40758808Y-22344338D01*
X40758808Y-22344337D01*
X40758809Y-22344336D01*
X40779354Y-22227818D01*
X40758809Y-22111300D01*
X40738140Y-22075500D01*
X40730743Y-22062687D01*
X40724178Y-22038187D01*
X40724178Y-20365694D01*
X40738530Y-20331046D01*
X40773178Y-20316694D01*
X40807826Y-20331046D01*
X41840148Y-21363368D01*
X41854500Y-21398016D01*
X41854500Y-22646016D01*
X41859942Y-22659153D01*
X41882741Y-22714194D01*
X41882742Y-22714195D01*
X41882742Y-22714196D01*
X42093624Y-22925077D01*
X42145806Y-22977259D01*
X42213985Y-23005500D01*
X42213987Y-23005500D01*
X43336013Y-23005500D01*
X43336015Y-23005500D01*
X43404194Y-22977259D01*
X43404196Y-22977257D01*
X43404197Y-22977257D01*
X43667257Y-22714197D01*
X43667257Y-22714196D01*
X43667259Y-22714194D01*
X43672288Y-22702052D01*
X43698803Y-22675535D01*
X43736306Y-22675533D01*
X43749054Y-22683268D01*
X43779647Y-22708938D01*
X43800057Y-22726064D01*
X43894668Y-22760500D01*
X43995350Y-22760500D01*
X44089961Y-22726064D01*
X44167088Y-22661347D01*
X44217430Y-22574153D01*
X44234913Y-22475000D01*
X44217430Y-22375847D01*
X44215758Y-22372951D01*
X44167089Y-22288654D01*
X44143003Y-22268443D01*
X44125686Y-22235177D01*
X44125500Y-22230907D01*
X44125500Y-18873104D01*
X44125499Y-18873100D01*
X44117444Y-18853653D01*
X44097259Y-18804923D01*
X44045077Y-18752741D01*
X43819229Y-18526893D01*
X43565079Y-18272742D01*
X43558459Y-18270000D01*
X43544530Y-18264230D01*
X43496899Y-18244500D01*
X43496898Y-18244500D01*
X42548017Y-18244500D01*
X42513369Y-18230148D01*
X42499017Y-18195500D01*
X42505582Y-18171000D01*
X42512420Y-18159156D01*
X42512420Y-18159155D01*
X42512421Y-18159154D01*
X42529904Y-18060001D01*
X42512421Y-17960848D01*
X42497209Y-17934500D01*
X42462080Y-17873655D01*
X42448254Y-17862054D01*
X42384952Y-17808937D01*
X42384951Y-17808936D01*
X42303122Y-17779153D01*
X42300145Y-17778069D01*
X42272496Y-17752733D01*
X42268650Y-17723516D01*
X42277080Y-17675709D01*
X42277080Y-17675707D01*
X42259597Y-17576554D01*
X42259595Y-17576550D01*
X42209256Y-17489361D01*
X42177531Y-17462741D01*
X42132128Y-17424643D01*
X42132126Y-17424642D01*
X42037517Y-17390207D01*
X41936835Y-17390207D01*
X41842225Y-17424642D01*
X41842220Y-17424645D01*
X41782526Y-17474734D01*
X41746759Y-17486012D01*
X41719534Y-17474734D01*
X41664956Y-17428938D01*
X41664950Y-17428935D01*
X41570341Y-17394500D01*
X41469659Y-17394500D01*
X41375049Y-17428935D01*
X41375047Y-17428936D01*
X41297919Y-17493654D01*
X41247580Y-17580843D01*
X41247579Y-17580846D01*
X41247579Y-17580847D01*
X41230096Y-17680000D01*
X41247405Y-17778169D01*
X41247580Y-17779156D01*
X41297919Y-17866345D01*
X41297920Y-17866346D01*
X41297921Y-17866347D01*
X41317590Y-17882851D01*
X41335601Y-17897964D01*
X41352918Y-17931229D01*
X41341640Y-17966997D01*
X41308375Y-17984314D01*
X41304104Y-17984500D01*
X40844728Y-17984500D01*
X40810080Y-17970148D01*
X40168145Y-17328212D01*
X40166573Y-17327561D01*
X40140597Y-17316801D01*
X40099965Y-17299970D01*
X40099964Y-17299970D01*
X38755133Y-17299970D01*
X38720485Y-17285618D01*
X38706133Y-17250970D01*
X38712698Y-17226470D01*
X38713762Y-17224625D01*
X38713761Y-17224625D01*
X38713764Y-17224622D01*
X38731247Y-17125469D01*
X38713764Y-17026316D01*
X38710144Y-17020046D01*
X38663423Y-16939123D01*
X38655818Y-16932742D01*
X38586295Y-16874405D01*
X38586293Y-16874404D01*
X38491684Y-16839969D01*
X38391002Y-16839969D01*
X38296392Y-16874404D01*
X38296390Y-16874405D01*
X38219262Y-16939123D01*
X38168923Y-17026312D01*
X38168922Y-17026315D01*
X38168922Y-17026316D01*
X38151439Y-17125469D01*
X38168900Y-17224500D01*
X38168923Y-17224625D01*
X38169988Y-17226470D01*
X38170211Y-17228165D01*
X38170389Y-17228654D01*
X38170280Y-17228693D01*
X38174883Y-17263653D01*
X38152053Y-17293405D01*
X38127553Y-17299970D01*
X34783212Y-17299970D01*
X34748564Y-17285618D01*
X34734212Y-17250970D01*
X34748564Y-17216322D01*
X34751716Y-17213434D01*
X34772078Y-17196348D01*
X34772080Y-17196345D01*
X34775709Y-17190060D01*
X34822421Y-17109153D01*
X34835321Y-17035990D01*
X34855472Y-17004362D01*
X34883577Y-16995500D01*
X34985341Y-16995500D01*
X35079944Y-16961067D01*
X35079944Y-16961066D01*
X35079952Y-16961064D01*
X35079958Y-16961058D01*
X35080059Y-16961001D01*
X35080164Y-16960987D01*
X35083981Y-16959598D01*
X35084288Y-16960442D01*
X35117239Y-16956095D01*
X35147000Y-16978916D01*
X35147007Y-16978929D01*
X35191704Y-17056345D01*
X35191705Y-17056346D01*
X35191706Y-17056347D01*
X35268833Y-17121064D01*
X35363444Y-17155500D01*
X35464126Y-17155500D01*
X35558737Y-17121064D01*
X35635864Y-17056347D01*
X35686206Y-16969153D01*
X35692432Y-16933838D01*
X35712583Y-16902210D01*
X35740688Y-16893348D01*
X35842119Y-16893348D01*
X35936730Y-16858912D01*
X35952780Y-16845443D01*
X35988547Y-16834165D01*
X36021813Y-16851481D01*
X36023902Y-16854465D01*
X36025481Y-16856346D01*
X36025482Y-16856347D01*
X36025483Y-16856348D01*
X36102610Y-16921065D01*
X36197221Y-16955501D01*
X36297903Y-16955501D01*
X36392514Y-16921065D01*
X36446067Y-16876128D01*
X36481833Y-16864851D01*
X36509060Y-16876129D01*
X36535868Y-16898623D01*
X36562612Y-16921064D01*
X36657223Y-16955500D01*
X36757905Y-16955500D01*
X36852516Y-16921064D01*
X36906069Y-16876127D01*
X36941835Y-16864850D01*
X36969062Y-16876128D01*
X37022615Y-16921064D01*
X37117226Y-16955500D01*
X37217908Y-16955500D01*
X37312519Y-16921064D01*
X37389646Y-16856347D01*
X37439988Y-16769153D01*
X37457471Y-16670000D01*
X37439988Y-16570847D01*
X37430466Y-16554354D01*
X37389647Y-16483654D01*
X37381309Y-16476658D01*
X37312519Y-16418936D01*
X37312517Y-16418935D01*
X37217908Y-16384500D01*
X37117226Y-16384500D01*
X37022616Y-16418935D01*
X37022610Y-16418938D01*
X36969061Y-16463871D01*
X36933294Y-16475149D01*
X36906068Y-16463871D01*
X36852516Y-16418936D01*
X36852514Y-16418935D01*
X36757905Y-16384500D01*
X36657223Y-16384500D01*
X36562613Y-16418935D01*
X36562607Y-16418938D01*
X36509058Y-16463871D01*
X36473291Y-16475149D01*
X36446065Y-16463871D01*
X36392514Y-16418937D01*
X36392512Y-16418936D01*
X36297903Y-16384501D01*
X36197221Y-16384501D01*
X36102612Y-16418936D01*
X36102610Y-16418937D01*
X36086556Y-16432407D01*
X36050788Y-16443682D01*
X36017523Y-16426364D01*
X36015439Y-16423387D01*
X36013854Y-16421497D01*
X35936733Y-16356786D01*
X35936728Y-16356783D01*
X35842119Y-16322348D01*
X35766794Y-16322348D01*
X35732146Y-16307996D01*
X35364150Y-15940000D01*
X39290096Y-15940000D01*
X39307411Y-16038202D01*
X39307580Y-16039156D01*
X39357919Y-16126345D01*
X39357920Y-16126346D01*
X39357921Y-16126347D01*
X39435048Y-16191064D01*
X39529659Y-16225500D01*
X39630341Y-16225500D01*
X39691263Y-16203326D01*
X39728730Y-16204962D01*
X39754067Y-16232612D01*
X39756277Y-16257878D01*
X39741798Y-16340000D01*
X39758052Y-16432185D01*
X39759282Y-16439156D01*
X39809621Y-16526345D01*
X39809622Y-16526346D01*
X39809623Y-16526347D01*
X39886750Y-16591064D01*
X39981361Y-16625500D01*
X40082043Y-16625500D01*
X40176654Y-16591064D01*
X40178101Y-16589850D01*
X40241130Y-16536964D01*
X40272626Y-16525500D01*
X42222868Y-16525500D01*
X42257516Y-16539852D01*
X43495030Y-17777368D01*
X43502214Y-17783264D01*
X43512479Y-17793529D01*
X43526831Y-17828177D01*
X43526384Y-17833295D01*
X43526384Y-17834999D01*
X43526384Y-17835000D01*
X43526384Y-17835002D01*
X43543754Y-17933513D01*
X43543868Y-17934158D01*
X43594207Y-18021347D01*
X43594208Y-18021348D01*
X43594209Y-18021349D01*
X43671336Y-18086066D01*
X43765947Y-18120502D01*
X43866629Y-18120502D01*
X43961240Y-18086066D01*
X44038367Y-18021349D01*
X44088709Y-17934155D01*
X44106192Y-17835002D01*
X44088709Y-17735849D01*
X44088707Y-17735845D01*
X44038368Y-17648656D01*
X44018178Y-17631715D01*
X43961240Y-17583938D01*
X43961238Y-17583937D01*
X43866629Y-17549502D01*
X43813420Y-17549502D01*
X43778772Y-17535150D01*
X43706249Y-17462627D01*
X43699076Y-17456739D01*
X42425080Y-16182743D01*
X42425078Y-16182742D01*
X42425077Y-16182741D01*
X42374860Y-16161940D01*
X42356899Y-16154500D01*
X42356898Y-16154500D01*
X40272626Y-16154500D01*
X40241130Y-16143036D01*
X40176658Y-16088938D01*
X40176652Y-16088935D01*
X40082043Y-16054500D01*
X39981361Y-16054500D01*
X39981360Y-16054500D01*
X39920437Y-16076673D01*
X39882970Y-16075037D01*
X39857634Y-16047386D01*
X39855423Y-16022124D01*
X39869904Y-15940000D01*
X39852421Y-15840847D01*
X39846589Y-15830745D01*
X39802080Y-15753654D01*
X39724952Y-15688936D01*
X39724950Y-15688935D01*
X39630341Y-15654500D01*
X39529659Y-15654500D01*
X39435049Y-15688935D01*
X39435047Y-15688936D01*
X39357919Y-15753654D01*
X39307580Y-15840843D01*
X39307579Y-15840846D01*
X39307579Y-15840847D01*
X39290096Y-15940000D01*
X35364150Y-15940000D01*
X34876890Y-15452740D01*
X34876888Y-15452739D01*
X34876887Y-15452738D01*
X34831312Y-15433860D01*
X34808709Y-15424497D01*
X34808708Y-15424497D01*
X33153790Y-15424497D01*
X33119142Y-15410145D01*
X33104790Y-15375497D01*
X33111355Y-15350997D01*
X33112420Y-15349152D01*
X33112420Y-15349151D01*
X33112421Y-15349150D01*
X33129904Y-15249997D01*
X33112421Y-15150844D01*
X33102781Y-15134148D01*
X33096923Y-15124001D01*
X33092027Y-15086818D01*
X33114857Y-15057065D01*
X33139358Y-15050500D01*
X44500500Y-15050500D01*
X44535148Y-15064852D01*
X44549500Y-15099500D01*
X44549500Y-15784700D01*
X44535148Y-15819348D01*
X44500500Y-15833700D01*
X44483741Y-15830745D01*
X44384158Y-15794500D01*
X44265842Y-15794500D01*
X44154661Y-15834966D01*
X44064027Y-15911016D01*
X44064025Y-15911019D01*
X44004869Y-16013479D01*
X43984324Y-16130000D01*
X44004869Y-16246520D01*
X44064025Y-16348980D01*
X44064027Y-16348983D01*
X44154661Y-16425034D01*
X44174309Y-16432185D01*
X44201960Y-16457521D01*
X44203596Y-16494988D01*
X44187078Y-16514685D01*
X44188332Y-16516180D01*
X44107919Y-16583654D01*
X44057580Y-16670843D01*
X44057579Y-16670846D01*
X44057579Y-16670847D01*
X44040096Y-16770000D01*
X44057505Y-16868734D01*
X44057580Y-16869156D01*
X44107919Y-16956345D01*
X44107920Y-16956346D01*
X44107921Y-16956347D01*
X44185048Y-17021064D01*
X44279659Y-17055500D01*
X44380341Y-17055500D01*
X44474952Y-17021064D01*
X44474954Y-17021062D01*
X44475995Y-17020462D01*
X44476954Y-17020335D01*
X44478981Y-17019598D01*
X44479144Y-17020046D01*
X44513176Y-17015562D01*
X44542932Y-17038389D01*
X44549500Y-17062894D01*
X44549500Y-23100500D01*
X44535148Y-23135148D01*
X44500500Y-23149500D01*
X34791132Y-23149500D01*
X34756484Y-23135148D01*
X34742132Y-23100500D01*
X34756484Y-23065852D01*
X34891163Y-22931173D01*
X35117259Y-22705078D01*
X35118598Y-22701845D01*
X35132372Y-22683054D01*
X35182079Y-22641347D01*
X35232421Y-22554153D01*
X35237561Y-22524997D01*
X35257709Y-22493369D01*
X35294323Y-22485251D01*
X35302575Y-22487462D01*
X35324659Y-22495500D01*
X35429628Y-22495500D01*
X35429628Y-22496716D01*
X35461287Y-22503733D01*
X35481438Y-22535362D01*
X35481439Y-22552379D01*
X35480096Y-22559997D01*
X35480096Y-22559998D01*
X35480096Y-22560000D01*
X35496759Y-22654500D01*
X35497580Y-22659156D01*
X35547919Y-22746345D01*
X35547920Y-22746346D01*
X35547921Y-22746347D01*
X35625048Y-22811064D01*
X35719659Y-22845500D01*
X35820341Y-22845500D01*
X35914952Y-22811064D01*
X35992079Y-22746347D01*
X36042421Y-22659153D01*
X36059904Y-22560000D01*
X36056333Y-22539748D01*
X36064449Y-22503136D01*
X36096078Y-22482985D01*
X36121346Y-22485194D01*
X36149659Y-22495500D01*
X36250341Y-22495500D01*
X36344952Y-22461064D01*
X36422079Y-22396347D01*
X36472421Y-22309153D01*
X36489904Y-22210000D01*
X36472421Y-22110847D01*
X36472419Y-22110843D01*
X36422080Y-22023654D01*
X36412362Y-22015500D01*
X36344952Y-21958936D01*
X36344950Y-21958935D01*
X36250341Y-21924500D01*
X36149659Y-21924500D01*
X36055049Y-21958935D01*
X36055047Y-21958936D01*
X35977919Y-22023654D01*
X35927580Y-22110843D01*
X35927579Y-22110846D01*
X35927579Y-22110847D01*
X35910096Y-22210000D01*
X35913622Y-22230000D01*
X35913667Y-22230250D01*
X35905549Y-22266864D01*
X35873920Y-22287015D01*
X35848653Y-22284804D01*
X35820342Y-22274500D01*
X35820341Y-22274500D01*
X35719659Y-22274500D01*
X35715372Y-22274500D01*
X35715372Y-22273284D01*
X35683711Y-22266265D01*
X35663560Y-22234636D01*
X35663561Y-22217617D01*
X35663706Y-22216789D01*
X35664904Y-22210000D01*
X35647421Y-22110847D01*
X35647419Y-22110843D01*
X35597080Y-22023654D01*
X35587362Y-22015500D01*
X35519952Y-21958936D01*
X35519950Y-21958935D01*
X35425341Y-21924500D01*
X35372133Y-21924500D01*
X35337485Y-21910148D01*
X35100080Y-21672743D01*
X35100078Y-21672742D01*
X35100077Y-21672741D01*
X35060140Y-21656198D01*
X35031899Y-21644500D01*
X35031898Y-21644500D01*
X34655988Y-21644500D01*
X34621340Y-21630148D01*
X34606988Y-21595500D01*
X34621340Y-21560852D01*
X34631486Y-21553066D01*
X34634950Y-21551065D01*
X34634950Y-21551064D01*
X34634952Y-21551064D01*
X34712079Y-21486347D01*
X34762421Y-21399153D01*
X34779904Y-21300000D01*
X34762421Y-21200847D01*
X34762419Y-21200843D01*
X34712080Y-21113654D01*
X34669035Y-21077534D01*
X34651718Y-21044268D01*
X34662996Y-21008501D01*
X34669026Y-21002470D01*
X34712077Y-20966347D01*
X34762419Y-20879153D01*
X34779902Y-20780000D01*
X34762419Y-20680847D01*
X34761930Y-20680000D01*
X36179324Y-20680000D01*
X36199869Y-20796520D01*
X36259025Y-20898980D01*
X36259027Y-20898983D01*
X36331924Y-20960150D01*
X36349662Y-20975034D01*
X36460842Y-21015500D01*
X36579158Y-21015500D01*
X36690338Y-20975034D01*
X36780973Y-20898982D01*
X36840131Y-20796518D01*
X36860676Y-20680000D01*
X36840131Y-20563482D01*
X36840130Y-20563480D01*
X36840130Y-20563479D01*
X36780974Y-20461019D01*
X36780972Y-20461016D01*
X36690338Y-20384966D01*
X36579158Y-20344500D01*
X36460842Y-20344500D01*
X36349661Y-20384966D01*
X36259027Y-20461016D01*
X36259025Y-20461019D01*
X36199869Y-20563479D01*
X36179324Y-20680000D01*
X34761930Y-20680000D01*
X34760602Y-20677700D01*
X34712078Y-20593654D01*
X34634950Y-20528936D01*
X34634948Y-20528935D01*
X34540339Y-20494500D01*
X34439657Y-20494500D01*
X34345047Y-20528935D01*
X34345045Y-20528936D01*
X34267917Y-20593654D01*
X34217578Y-20680843D01*
X34217577Y-20680846D01*
X34217577Y-20680847D01*
X34200094Y-20780000D01*
X34214990Y-20864483D01*
X34217578Y-20879156D01*
X34267917Y-20966345D01*
X34267918Y-20966346D01*
X34267919Y-20966347D01*
X34276630Y-20973656D01*
X34310962Y-21002464D01*
X34328279Y-21035729D01*
X34317001Y-21071497D01*
X34310962Y-21077536D01*
X34267919Y-21113654D01*
X34217580Y-21200843D01*
X34217579Y-21200846D01*
X34217579Y-21200847D01*
X34200096Y-21300000D01*
X34216720Y-21394282D01*
X34217580Y-21399156D01*
X34267919Y-21486345D01*
X34267920Y-21486346D01*
X34267921Y-21486347D01*
X34309242Y-21521019D01*
X34345049Y-21551065D01*
X34348514Y-21553066D01*
X34371343Y-21582820D01*
X34366446Y-21620002D01*
X34336692Y-21642831D01*
X34324012Y-21644500D01*
X32957710Y-21644500D01*
X32909498Y-21664468D01*
X32909499Y-21664469D01*
X32889528Y-21672741D01*
X32467124Y-22095148D01*
X32432476Y-22109500D01*
X32034003Y-22109500D01*
X31999355Y-22095148D01*
X31231877Y-21327670D01*
X31231875Y-21327669D01*
X31231874Y-21327668D01*
X31183687Y-21307708D01*
X31163696Y-21299427D01*
X31163695Y-21299427D01*
X30851825Y-21299427D01*
X30557726Y-21299426D01*
X30523078Y-21285074D01*
X30508726Y-21250426D01*
X30523078Y-21215778D01*
X30540965Y-21204382D01*
X30635338Y-21170034D01*
X30702530Y-21113653D01*
X30725972Y-21093983D01*
X30725974Y-21093980D01*
X30729874Y-21087226D01*
X30762299Y-21031064D01*
X30785130Y-20991520D01*
X30785130Y-20991519D01*
X30785131Y-20991518D01*
X30805676Y-20875000D01*
X30785131Y-20758482D01*
X30785130Y-20758480D01*
X30785130Y-20758479D01*
X30725974Y-20656019D01*
X30725972Y-20656016D01*
X30635338Y-20579966D01*
X30524158Y-20539500D01*
X30405842Y-20539500D01*
X30294661Y-20579966D01*
X30204027Y-20656016D01*
X30204023Y-20656021D01*
X30199033Y-20664665D01*
X30169280Y-20687495D01*
X30132098Y-20682598D01*
X30125102Y-20677700D01*
X30050338Y-20614966D01*
X29939158Y-20574500D01*
X29820842Y-20574500D01*
X29709661Y-20614966D01*
X29619027Y-20691016D01*
X29619025Y-20691019D01*
X29559869Y-20793479D01*
X29539324Y-20910000D01*
X29559869Y-21026520D01*
X29619025Y-21128980D01*
X29619027Y-21128983D01*
X29693163Y-21191190D01*
X29709662Y-21205034D01*
X29775335Y-21228937D01*
X29779374Y-21230407D01*
X29807024Y-21255744D01*
X29808660Y-21293211D01*
X29783323Y-21320861D01*
X29781378Y-21321717D01*
X29773709Y-21324894D01*
X29767012Y-21327668D01*
X29434534Y-21660148D01*
X29399886Y-21674500D01*
X29159956Y-21674500D01*
X29125308Y-21660148D01*
X29110956Y-21625500D01*
X29117521Y-21601000D01*
X29137428Y-21566520D01*
X29137428Y-21566519D01*
X29137429Y-21566518D01*
X29157974Y-21450000D01*
X29137429Y-21333482D01*
X29137428Y-21333480D01*
X29137428Y-21333479D01*
X29078272Y-21231019D01*
X29078270Y-21231016D01*
X28987636Y-21154966D01*
X28876456Y-21114500D01*
X28758140Y-21114500D01*
X28646959Y-21154966D01*
X28556325Y-21231016D01*
X28556323Y-21231019D01*
X28497167Y-21333479D01*
X28476622Y-21450000D01*
X28497167Y-21566520D01*
X28517075Y-21601000D01*
X28521970Y-21638182D01*
X28499140Y-21667935D01*
X28474640Y-21674500D01*
X28463983Y-21674500D01*
X28395804Y-21702742D01*
X28395802Y-21702743D01*
X27803192Y-22295353D01*
X27768544Y-22309705D01*
X27733896Y-22295353D01*
X27719544Y-22260705D01*
X27720289Y-22252194D01*
X27720438Y-22251350D01*
X27720676Y-22250000D01*
X27700131Y-22133482D01*
X27700130Y-22133480D01*
X27700130Y-22133479D01*
X27640974Y-22031019D01*
X27640972Y-22031016D01*
X27550338Y-21954966D01*
X27439158Y-21914500D01*
X27320842Y-21914500D01*
X27209661Y-21954966D01*
X27158253Y-21998103D01*
X27122485Y-22009381D01*
X27095259Y-21998103D01*
X27062861Y-21970918D01*
X27048203Y-21958618D01*
X26937023Y-21918152D01*
X26818707Y-21918152D01*
X26707526Y-21958618D01*
X26616892Y-22034668D01*
X26616890Y-22034671D01*
X26557734Y-22137131D01*
X26537189Y-22253652D01*
X26557734Y-22370172D01*
X26616890Y-22472632D01*
X26616892Y-22472635D01*
X26691648Y-22535362D01*
X26707527Y-22548686D01*
X26818707Y-22589152D01*
X26876258Y-22589152D01*
X26910906Y-22603504D01*
X26925258Y-22638152D01*
X26910906Y-22672800D01*
X26893017Y-22684197D01*
X26825049Y-22708935D01*
X26825047Y-22708936D01*
X26747919Y-22773654D01*
X26697580Y-22860843D01*
X26697579Y-22860846D01*
X26697579Y-22860847D01*
X26680096Y-22960000D01*
X26696284Y-23051810D01*
X26697580Y-23059156D01*
X26707305Y-23076000D01*
X26712200Y-23113182D01*
X26689370Y-23142935D01*
X26664870Y-23149500D01*
X25773708Y-23149500D01*
X25739060Y-23135148D01*
X25724708Y-23100500D01*
X25739060Y-23065852D01*
X25756949Y-23054455D01*
X25764216Y-23051810D01*
X25834952Y-23026064D01*
X25912079Y-22961347D01*
X25962421Y-22874153D01*
X25979904Y-22775000D01*
X25962421Y-22675847D01*
X25962240Y-22675533D01*
X25912080Y-22588654D01*
X25894798Y-22574153D01*
X25834952Y-22523936D01*
X25834950Y-22523935D01*
X25740341Y-22489500D01*
X25639659Y-22489500D01*
X25545049Y-22523935D01*
X25545047Y-22523936D01*
X25530996Y-22535726D01*
X25495228Y-22547002D01*
X25461963Y-22529685D01*
X25450500Y-22498189D01*
X25450500Y-20500000D01*
X26379324Y-20500000D01*
X26399869Y-20616520D01*
X26459025Y-20718980D01*
X26459027Y-20718983D01*
X26549661Y-20795034D01*
X26557069Y-20797730D01*
X26567068Y-20801369D01*
X26594718Y-20826704D01*
X26596355Y-20864172D01*
X26571020Y-20891822D01*
X26567073Y-20893458D01*
X26559661Y-20896156D01*
X26469027Y-20972206D01*
X26469025Y-20972209D01*
X26409869Y-21074669D01*
X26389324Y-21191190D01*
X26409869Y-21307710D01*
X26469025Y-21410170D01*
X26469027Y-21410173D01*
X26516492Y-21450000D01*
X26559662Y-21486224D01*
X26670842Y-21526690D01*
X26789158Y-21526690D01*
X26900338Y-21486224D01*
X26990973Y-21410172D01*
X27021692Y-21356965D01*
X27050130Y-21307710D01*
X27050130Y-21307709D01*
X27050131Y-21307708D01*
X27070676Y-21191190D01*
X27050131Y-21074672D01*
X27050130Y-21074670D01*
X27050130Y-21074669D01*
X26990974Y-20972209D01*
X26990972Y-20972206D01*
X26900338Y-20896156D01*
X26882930Y-20889820D01*
X26855280Y-20864483D01*
X26853644Y-20827016D01*
X26878981Y-20799366D01*
X26882931Y-20797730D01*
X26890338Y-20795034D01*
X26980972Y-20718983D01*
X26980974Y-20718980D01*
X26997118Y-20691019D01*
X27040131Y-20616518D01*
X27060676Y-20500000D01*
X27040131Y-20383482D01*
X27040130Y-20383480D01*
X27040130Y-20383479D01*
X26980974Y-20281019D01*
X26980972Y-20281016D01*
X26890338Y-20204966D01*
X26779158Y-20164500D01*
X26660842Y-20164500D01*
X26549661Y-20204966D01*
X26459027Y-20281016D01*
X26459025Y-20281019D01*
X26399869Y-20383479D01*
X26379324Y-20500000D01*
X25450500Y-20500000D01*
X25450500Y-19964998D01*
X28274326Y-19964998D01*
X28294871Y-20081518D01*
X28354027Y-20183978D01*
X28354029Y-20183981D01*
X28425812Y-20244213D01*
X28444664Y-20260032D01*
X28555844Y-20300498D01*
X28674160Y-20300498D01*
X28785340Y-20260032D01*
X28875975Y-20183980D01*
X28918773Y-20109852D01*
X28935132Y-20081518D01*
X28935132Y-20081517D01*
X28935133Y-20081516D01*
X28955678Y-19964998D01*
X28935133Y-19848480D01*
X28935132Y-19848478D01*
X28935132Y-19848477D01*
X28875976Y-19746017D01*
X28875974Y-19746014D01*
X28785340Y-19669964D01*
X28674160Y-19629498D01*
X28555844Y-19629498D01*
X28444663Y-19669964D01*
X28354029Y-19746014D01*
X28354027Y-19746017D01*
X28294871Y-19848477D01*
X28274326Y-19964998D01*
X25450500Y-19964998D01*
X25450500Y-19610000D01*
X26130096Y-19610000D01*
X26142618Y-19681019D01*
X26147580Y-19709156D01*
X26197919Y-19796345D01*
X26197920Y-19796346D01*
X26197921Y-19796347D01*
X26275048Y-19861064D01*
X26369659Y-19895500D01*
X26470341Y-19895500D01*
X26564952Y-19861064D01*
X26642079Y-19796347D01*
X26692421Y-19709153D01*
X26709904Y-19610000D01*
X26692421Y-19510847D01*
X26684503Y-19497132D01*
X26642080Y-19423654D01*
X26564952Y-19358936D01*
X26564950Y-19358935D01*
X26470341Y-19324500D01*
X26369659Y-19324500D01*
X26275049Y-19358935D01*
X26275047Y-19358936D01*
X26197919Y-19423654D01*
X26147580Y-19510843D01*
X26147579Y-19510846D01*
X26147579Y-19510847D01*
X26130096Y-19610000D01*
X25450500Y-19610000D01*
X25450500Y-16571580D01*
X25464852Y-16536932D01*
X25499500Y-16522580D01*
X25530997Y-16534044D01*
X25537919Y-16539852D01*
X25570500Y-16567191D01*
X25681680Y-16607657D01*
X25799996Y-16607657D01*
X25911176Y-16567191D01*
X25994379Y-16497375D01*
X26001810Y-16491140D01*
X26001812Y-16491137D01*
X26060968Y-16388677D01*
X26060968Y-16388676D01*
X26060969Y-16388675D01*
X26081514Y-16272157D01*
X26060969Y-16155639D01*
X26060968Y-16155637D01*
X26060968Y-16155636D01*
X26001812Y-16053176D01*
X26001808Y-16053171D01*
X25957329Y-16015849D01*
X25940011Y-15982584D01*
X25951289Y-15946817D01*
X25957329Y-15940777D01*
X26030970Y-15878985D01*
X26030971Y-15878983D01*
X26030973Y-15878982D01*
X26090131Y-15776518D01*
X26110676Y-15660000D01*
X26090131Y-15543482D01*
X26090130Y-15543480D01*
X26090130Y-15543479D01*
X26030974Y-15441019D01*
X26030972Y-15441016D01*
X25940338Y-15364966D01*
X25829158Y-15324500D01*
X25710842Y-15324500D01*
X25599659Y-15364966D01*
X25530996Y-15422582D01*
X25495229Y-15433860D01*
X25461964Y-15416542D01*
X25450500Y-15385046D01*
X25450500Y-15099500D01*
X25464852Y-15064852D01*
X25499500Y-15050500D01*
X27215062Y-15050500D01*
X27249710Y-15064852D01*
G37*
G04 #@! TD.AperFunction*
G04 #@! TA.AperFunction,Conductor*
G36*
X31815291Y-15064852D02*
G01*
X31829643Y-15099500D01*
X31823078Y-15124000D01*
X31807580Y-15150843D01*
X31807579Y-15150846D01*
X31807579Y-15150847D01*
X31790096Y-15250000D01*
X31807578Y-15349150D01*
X31807580Y-15349156D01*
X31857919Y-15436345D01*
X31857920Y-15436346D01*
X31857921Y-15436347D01*
X31935047Y-15501063D01*
X31935050Y-15501065D01*
X31951101Y-15506907D01*
X31978752Y-15532243D01*
X31980388Y-15569710D01*
X31968991Y-15587600D01*
X31449478Y-16107113D01*
X31414830Y-16121465D01*
X31380182Y-16107113D01*
X31372394Y-16096963D01*
X31361808Y-16078626D01*
X31356914Y-16041444D01*
X31374717Y-16018244D01*
X31373141Y-16016366D01*
X31453551Y-15948894D01*
X31453553Y-15948891D01*
X31503894Y-15861699D01*
X31521377Y-15762546D01*
X31503894Y-15663393D01*
X31467751Y-15600792D01*
X31453553Y-15576200D01*
X31405731Y-15536073D01*
X31376425Y-15511482D01*
X31376423Y-15511481D01*
X31281814Y-15477046D01*
X31181132Y-15477046D01*
X31086522Y-15511481D01*
X31086520Y-15511482D01*
X31009392Y-15576200D01*
X30959053Y-15663389D01*
X30959052Y-15663392D01*
X30959052Y-15663393D01*
X30941569Y-15762546D01*
X30959052Y-15861699D01*
X30959052Y-15861700D01*
X30959053Y-15861701D01*
X30974659Y-15888732D01*
X30979554Y-15925914D01*
X30961770Y-15949140D01*
X30963328Y-15950996D01*
X30882915Y-16018470D01*
X30832575Y-16105660D01*
X30832574Y-16105663D01*
X30828228Y-16130311D01*
X30808077Y-16161940D01*
X30773736Y-16169552D01*
X30773736Y-16169701D01*
X30773065Y-16169701D01*
X30771463Y-16170056D01*
X30771462Y-16170056D01*
X30769449Y-16169701D01*
X30668767Y-16169701D01*
X30574158Y-16204136D01*
X30574153Y-16204139D01*
X30558061Y-16217641D01*
X30522294Y-16228917D01*
X30489029Y-16211599D01*
X30487013Y-16208719D01*
X30485392Y-16206788D01*
X30482231Y-16204136D01*
X30408264Y-16142070D01*
X30408262Y-16142069D01*
X30313653Y-16107634D01*
X30301832Y-16107634D01*
X30267184Y-16093282D01*
X30252832Y-16058634D01*
X30267184Y-16023986D01*
X30270335Y-16021098D01*
X30279415Y-16013479D01*
X30327078Y-15973485D01*
X30377420Y-15886291D01*
X30394903Y-15787138D01*
X30377420Y-15687985D01*
X30363222Y-15663393D01*
X30327079Y-15600792D01*
X30311357Y-15587600D01*
X30249951Y-15536074D01*
X30249949Y-15536073D01*
X30155340Y-15501638D01*
X30054658Y-15501638D01*
X29960048Y-15536073D01*
X29960046Y-15536074D01*
X29882918Y-15600792D01*
X29832579Y-15687981D01*
X29832578Y-15687984D01*
X29832578Y-15687985D01*
X29815095Y-15787138D01*
X29831289Y-15878982D01*
X29832579Y-15886294D01*
X29882918Y-15973483D01*
X29882919Y-15973484D01*
X29882920Y-15973485D01*
X29960047Y-16038202D01*
X30054658Y-16072638D01*
X30066479Y-16072638D01*
X30101127Y-16086990D01*
X30115479Y-16121638D01*
X30101127Y-16156286D01*
X30097976Y-16159174D01*
X30041231Y-16206788D01*
X29990891Y-16293978D01*
X29990890Y-16293982D01*
X29982566Y-16341188D01*
X29962416Y-16372818D01*
X29925802Y-16380934D01*
X29899663Y-16367327D01*
X29137411Y-15605075D01*
X29123059Y-15570427D01*
X29137411Y-15535779D01*
X29140563Y-15532891D01*
X29180970Y-15498985D01*
X29180971Y-15498983D01*
X29180973Y-15498982D01*
X29228570Y-15416542D01*
X29240130Y-15396520D01*
X29240130Y-15396519D01*
X29240131Y-15396518D01*
X29260676Y-15280000D01*
X29240131Y-15163482D01*
X29240130Y-15163480D01*
X29240130Y-15163479D01*
X29217336Y-15124000D01*
X29212441Y-15086818D01*
X29235271Y-15057065D01*
X29259771Y-15050500D01*
X31780643Y-15050500D01*
X31815291Y-15064852D01*
G37*
G04 #@! TD.AperFunction*
G04 #@! TD*
G04 #@! TA.AperFunction,Conductor*
G04 #@! TO.N,Board_3-+3.3V*
G36*
X27249710Y-46864852D02*
G01*
X27264062Y-46899500D01*
X27249710Y-46934148D01*
X27246559Y-46937036D01*
X27202919Y-46973654D01*
X27152580Y-47060843D01*
X27152579Y-47060846D01*
X27152579Y-47060847D01*
X27137741Y-47145000D01*
X27135096Y-47160000D01*
X27152579Y-47259155D01*
X27174328Y-47296824D01*
X27179223Y-47334006D01*
X27161264Y-47359070D01*
X27161521Y-47359327D01*
X27159966Y-47360881D01*
X27159120Y-47362063D01*
X27158109Y-47362738D01*
X25999091Y-48521759D01*
X25774502Y-48746348D01*
X25761252Y-48759598D01*
X25722320Y-48798529D01*
X25694079Y-48866707D01*
X25694079Y-48866709D01*
X25694079Y-49906796D01*
X25694079Y-49980592D01*
X25722320Y-50048771D01*
X25722321Y-50048772D01*
X25722321Y-50048773D01*
X26203624Y-50530075D01*
X26255806Y-50582257D01*
X26323985Y-50610498D01*
X26323987Y-50610498D01*
X26871898Y-50610498D01*
X26871900Y-50610498D01*
X26940079Y-50582257D01*
X26940081Y-50582255D01*
X26940082Y-50582255D01*
X27127259Y-50395078D01*
X27127259Y-50395077D01*
X27127261Y-50395075D01*
X27155502Y-50326896D01*
X27155502Y-50304118D01*
X27169854Y-50269470D01*
X27172997Y-50266590D01*
X27192081Y-50250577D01*
X27242423Y-50163383D01*
X27249237Y-50124733D01*
X27269388Y-50093106D01*
X27306002Y-50084988D01*
X27332141Y-50098596D01*
X27820801Y-50587257D01*
X27820802Y-50587257D01*
X27820804Y-50587259D01*
X27888983Y-50615500D01*
X27962779Y-50615500D01*
X31694636Y-50615500D01*
X31729284Y-50629852D01*
X32540282Y-51440852D01*
X32554634Y-51475500D01*
X32540282Y-51510148D01*
X32505634Y-51524500D01*
X30712040Y-51524500D01*
X30680544Y-51513036D01*
X30610069Y-51453901D01*
X30610063Y-51453898D01*
X30515454Y-51419463D01*
X30414772Y-51419463D01*
X30320162Y-51453898D01*
X30320160Y-51453899D01*
X30243032Y-51518617D01*
X30192693Y-51605806D01*
X30192692Y-51605809D01*
X30192692Y-51605810D01*
X30175209Y-51704963D01*
X30190126Y-51789565D01*
X30192693Y-51804119D01*
X30243032Y-51891308D01*
X30243033Y-51891309D01*
X30243034Y-51891310D01*
X30320161Y-51956027D01*
X30414772Y-51990463D01*
X30515454Y-51990463D01*
X30610065Y-51956027D01*
X30654214Y-51918982D01*
X30668537Y-51906964D01*
X30700033Y-51895500D01*
X37895455Y-51895500D01*
X37930103Y-51909852D01*
X37976192Y-51955941D01*
X37990544Y-51990589D01*
X37990097Y-51995707D01*
X37990097Y-51997411D01*
X37990097Y-51997412D01*
X37990097Y-51997414D01*
X38004839Y-52081019D01*
X38007581Y-52096570D01*
X38057920Y-52183759D01*
X38057921Y-52183760D01*
X38057922Y-52183761D01*
X38135049Y-52248478D01*
X38229660Y-52282914D01*
X38330342Y-52282914D01*
X38424953Y-52248478D01*
X38502080Y-52183761D01*
X38524748Y-52144500D01*
X38552421Y-52096570D01*
X38555163Y-52081019D01*
X38557678Y-52066753D01*
X38577828Y-52035125D01*
X38614442Y-52027007D01*
X38640582Y-52040615D01*
X38811741Y-52211774D01*
X38826093Y-52246422D01*
X38826093Y-52350391D01*
X38811741Y-52385039D01*
X38436631Y-52760150D01*
X38401983Y-52774502D01*
X37820924Y-52774502D01*
X37789428Y-52763038D01*
X37724956Y-52708940D01*
X37724950Y-52708937D01*
X37630341Y-52674502D01*
X37529659Y-52674502D01*
X37435049Y-52708937D01*
X37435047Y-52708938D01*
X37357919Y-52773656D01*
X37307580Y-52860845D01*
X37307579Y-52860848D01*
X37307579Y-52860849D01*
X37290096Y-52960002D01*
X37305171Y-53045500D01*
X37307580Y-53059158D01*
X37350490Y-53133479D01*
X37357921Y-53146349D01*
X37375404Y-53161018D01*
X37392720Y-53194282D01*
X37381444Y-53230050D01*
X37363326Y-53242738D01*
X37363375Y-53242822D01*
X37362423Y-53243371D01*
X37360675Y-53244596D01*
X37359666Y-53244963D01*
X37359661Y-53244966D01*
X37269027Y-53321016D01*
X37269025Y-53321019D01*
X37209869Y-53423479D01*
X37189324Y-53540000D01*
X37209869Y-53656520D01*
X37269025Y-53758980D01*
X37269027Y-53758983D01*
X37325360Y-53806251D01*
X37359662Y-53835034D01*
X37470842Y-53875500D01*
X37589158Y-53875500D01*
X37700338Y-53835034D01*
X37790973Y-53758982D01*
X37850131Y-53656518D01*
X37870676Y-53540000D01*
X37850131Y-53423482D01*
X37850130Y-53423480D01*
X37850130Y-53423479D01*
X37790974Y-53321019D01*
X37790972Y-53321016D01*
X37737178Y-53275878D01*
X37719861Y-53242613D01*
X37731139Y-53206845D01*
X37737170Y-53200813D01*
X37773680Y-53170177D01*
X37789428Y-53156965D01*
X37820924Y-53145502D01*
X38536011Y-53145502D01*
X38536013Y-53145502D01*
X38604192Y-53117261D01*
X39168852Y-52552602D01*
X39181449Y-52522190D01*
X39197093Y-52484422D01*
X39197093Y-52112392D01*
X39168852Y-52044213D01*
X39168852Y-52044212D01*
X38439255Y-51314616D01*
X38424904Y-51279969D01*
X38439256Y-51245321D01*
X38473904Y-51230969D01*
X39236915Y-51230969D01*
X39271563Y-51245321D01*
X40138826Y-52112584D01*
X40153178Y-52147232D01*
X40153178Y-53838187D01*
X40146613Y-53862687D01*
X40118548Y-53911297D01*
X40118547Y-53911298D01*
X40118547Y-53911300D01*
X40103134Y-53998711D01*
X40098002Y-54027818D01*
X40118547Y-54144338D01*
X40177703Y-54246798D01*
X40177705Y-54246801D01*
X40234277Y-54294270D01*
X40268340Y-54322852D01*
X40379520Y-54363318D01*
X40497836Y-54363318D01*
X40609016Y-54322852D01*
X40699651Y-54246800D01*
X40742831Y-54172011D01*
X40758808Y-54144338D01*
X40758808Y-54144337D01*
X40758809Y-54144336D01*
X40779354Y-54027818D01*
X40758809Y-53911300D01*
X40738140Y-53875500D01*
X40730743Y-53862687D01*
X40724178Y-53838187D01*
X40724178Y-52165694D01*
X40738530Y-52131046D01*
X40773178Y-52116694D01*
X40807826Y-52131046D01*
X41840148Y-53163368D01*
X41854500Y-53198016D01*
X41854500Y-54446016D01*
X41859942Y-54459153D01*
X41882741Y-54514194D01*
X41882742Y-54514195D01*
X41882742Y-54514196D01*
X42093624Y-54725077D01*
X42145806Y-54777259D01*
X42213985Y-54805500D01*
X42213987Y-54805500D01*
X43336013Y-54805500D01*
X43336015Y-54805500D01*
X43404194Y-54777259D01*
X43404196Y-54777257D01*
X43404197Y-54777257D01*
X43667257Y-54514197D01*
X43667257Y-54514196D01*
X43667259Y-54514194D01*
X43672288Y-54502052D01*
X43698803Y-54475535D01*
X43736306Y-54475533D01*
X43749054Y-54483268D01*
X43779647Y-54508938D01*
X43800057Y-54526064D01*
X43894668Y-54560500D01*
X43995350Y-54560500D01*
X44089961Y-54526064D01*
X44167088Y-54461347D01*
X44217430Y-54374153D01*
X44234913Y-54275000D01*
X44217430Y-54175847D01*
X44215758Y-54172951D01*
X44167089Y-54088654D01*
X44143003Y-54068443D01*
X44125686Y-54035177D01*
X44125500Y-54030907D01*
X44125500Y-50673104D01*
X44125499Y-50673100D01*
X44117444Y-50653653D01*
X44097259Y-50604923D01*
X44045077Y-50552741D01*
X43819229Y-50326893D01*
X43565079Y-50072742D01*
X43558459Y-50070000D01*
X43544530Y-50064230D01*
X43496899Y-50044500D01*
X43496898Y-50044500D01*
X42548017Y-50044500D01*
X42513369Y-50030148D01*
X42499017Y-49995500D01*
X42505582Y-49971000D01*
X42512420Y-49959156D01*
X42512420Y-49959155D01*
X42512421Y-49959154D01*
X42529904Y-49860001D01*
X42512421Y-49760848D01*
X42497209Y-49734500D01*
X42462080Y-49673655D01*
X42448254Y-49662054D01*
X42384952Y-49608937D01*
X42384951Y-49608936D01*
X42303122Y-49579153D01*
X42300145Y-49578069D01*
X42272496Y-49552733D01*
X42268650Y-49523516D01*
X42277080Y-49475709D01*
X42277080Y-49475707D01*
X42259597Y-49376554D01*
X42259595Y-49376550D01*
X42209256Y-49289361D01*
X42177531Y-49262741D01*
X42132128Y-49224643D01*
X42132126Y-49224642D01*
X42037517Y-49190207D01*
X41936835Y-49190207D01*
X41842225Y-49224642D01*
X41842220Y-49224645D01*
X41782526Y-49274734D01*
X41746759Y-49286012D01*
X41719534Y-49274734D01*
X41664956Y-49228938D01*
X41664950Y-49228935D01*
X41570341Y-49194500D01*
X41469659Y-49194500D01*
X41375049Y-49228935D01*
X41375047Y-49228936D01*
X41297919Y-49293654D01*
X41247580Y-49380843D01*
X41247579Y-49380846D01*
X41247579Y-49380847D01*
X41230096Y-49480000D01*
X41247405Y-49578169D01*
X41247580Y-49579156D01*
X41297919Y-49666345D01*
X41297920Y-49666346D01*
X41297921Y-49666347D01*
X41317590Y-49682851D01*
X41335601Y-49697964D01*
X41352918Y-49731229D01*
X41341640Y-49766997D01*
X41308375Y-49784314D01*
X41304104Y-49784500D01*
X40844728Y-49784500D01*
X40810080Y-49770148D01*
X40168145Y-49128212D01*
X40166573Y-49127561D01*
X40140597Y-49116801D01*
X40099965Y-49099970D01*
X40099964Y-49099970D01*
X38755133Y-49099970D01*
X38720485Y-49085618D01*
X38706133Y-49050970D01*
X38712698Y-49026470D01*
X38713762Y-49024625D01*
X38713761Y-49024625D01*
X38713764Y-49024622D01*
X38731247Y-48925469D01*
X38713764Y-48826316D01*
X38710144Y-48820046D01*
X38663423Y-48739123D01*
X38655818Y-48732742D01*
X38586295Y-48674405D01*
X38586293Y-48674404D01*
X38491684Y-48639969D01*
X38391002Y-48639969D01*
X38296392Y-48674404D01*
X38296390Y-48674405D01*
X38219262Y-48739123D01*
X38168923Y-48826312D01*
X38168922Y-48826315D01*
X38168922Y-48826316D01*
X38151439Y-48925469D01*
X38168900Y-49024500D01*
X38168923Y-49024625D01*
X38169988Y-49026470D01*
X38170211Y-49028165D01*
X38170389Y-49028654D01*
X38170280Y-49028693D01*
X38174883Y-49063653D01*
X38152053Y-49093405D01*
X38127553Y-49099970D01*
X34783212Y-49099970D01*
X34748564Y-49085618D01*
X34734212Y-49050970D01*
X34748564Y-49016322D01*
X34751716Y-49013434D01*
X34772078Y-48996348D01*
X34772080Y-48996345D01*
X34775709Y-48990060D01*
X34822421Y-48909153D01*
X34835321Y-48835990D01*
X34855472Y-48804362D01*
X34883577Y-48795500D01*
X34985341Y-48795500D01*
X35079944Y-48761067D01*
X35079944Y-48761066D01*
X35079952Y-48761064D01*
X35079958Y-48761058D01*
X35080059Y-48761001D01*
X35080164Y-48760987D01*
X35083981Y-48759598D01*
X35084288Y-48760442D01*
X35117239Y-48756095D01*
X35147000Y-48778916D01*
X35147007Y-48778929D01*
X35191704Y-48856345D01*
X35191705Y-48856346D01*
X35191706Y-48856347D01*
X35268833Y-48921064D01*
X35363444Y-48955500D01*
X35464126Y-48955500D01*
X35558737Y-48921064D01*
X35635864Y-48856347D01*
X35686206Y-48769153D01*
X35692432Y-48733838D01*
X35712583Y-48702210D01*
X35740688Y-48693348D01*
X35842119Y-48693348D01*
X35936730Y-48658912D01*
X35952780Y-48645443D01*
X35988547Y-48634165D01*
X36021813Y-48651481D01*
X36023902Y-48654465D01*
X36025481Y-48656346D01*
X36025482Y-48656347D01*
X36025483Y-48656348D01*
X36102610Y-48721065D01*
X36197221Y-48755501D01*
X36297903Y-48755501D01*
X36392514Y-48721065D01*
X36446067Y-48676128D01*
X36481833Y-48664851D01*
X36509060Y-48676129D01*
X36535868Y-48698623D01*
X36562612Y-48721064D01*
X36657223Y-48755500D01*
X36757905Y-48755500D01*
X36852516Y-48721064D01*
X36906069Y-48676127D01*
X36941835Y-48664850D01*
X36969062Y-48676128D01*
X37022615Y-48721064D01*
X37117226Y-48755500D01*
X37217908Y-48755500D01*
X37312519Y-48721064D01*
X37389646Y-48656347D01*
X37439988Y-48569153D01*
X37457471Y-48470000D01*
X37439988Y-48370847D01*
X37430466Y-48354354D01*
X37389647Y-48283654D01*
X37381309Y-48276658D01*
X37312519Y-48218936D01*
X37312517Y-48218935D01*
X37217908Y-48184500D01*
X37117226Y-48184500D01*
X37022616Y-48218935D01*
X37022610Y-48218938D01*
X36969061Y-48263871D01*
X36933294Y-48275149D01*
X36906068Y-48263871D01*
X36852516Y-48218936D01*
X36852514Y-48218935D01*
X36757905Y-48184500D01*
X36657223Y-48184500D01*
X36562613Y-48218935D01*
X36562607Y-48218938D01*
X36509058Y-48263871D01*
X36473291Y-48275149D01*
X36446065Y-48263871D01*
X36392514Y-48218937D01*
X36392512Y-48218936D01*
X36297903Y-48184501D01*
X36197221Y-48184501D01*
X36102612Y-48218936D01*
X36102610Y-48218937D01*
X36086556Y-48232407D01*
X36050788Y-48243682D01*
X36017523Y-48226364D01*
X36015439Y-48223387D01*
X36013854Y-48221497D01*
X35936733Y-48156786D01*
X35936728Y-48156783D01*
X35842119Y-48122348D01*
X35766794Y-48122348D01*
X35732146Y-48107996D01*
X35364150Y-47740000D01*
X39290096Y-47740000D01*
X39307411Y-47838202D01*
X39307580Y-47839156D01*
X39357919Y-47926345D01*
X39357920Y-47926346D01*
X39357921Y-47926347D01*
X39435048Y-47991064D01*
X39529659Y-48025500D01*
X39630341Y-48025500D01*
X39691263Y-48003326D01*
X39728730Y-48004962D01*
X39754067Y-48032612D01*
X39756277Y-48057878D01*
X39741798Y-48140000D01*
X39758052Y-48232185D01*
X39759282Y-48239156D01*
X39809621Y-48326345D01*
X39809622Y-48326346D01*
X39809623Y-48326347D01*
X39886750Y-48391064D01*
X39981361Y-48425500D01*
X40082043Y-48425500D01*
X40176654Y-48391064D01*
X40178101Y-48389850D01*
X40241130Y-48336964D01*
X40272626Y-48325500D01*
X42222868Y-48325500D01*
X42257516Y-48339852D01*
X43495030Y-49577368D01*
X43502214Y-49583264D01*
X43512479Y-49593529D01*
X43526831Y-49628177D01*
X43526384Y-49633295D01*
X43526384Y-49634999D01*
X43526384Y-49635000D01*
X43526384Y-49635002D01*
X43543754Y-49733513D01*
X43543868Y-49734158D01*
X43594207Y-49821347D01*
X43594208Y-49821348D01*
X43594209Y-49821349D01*
X43671336Y-49886066D01*
X43765947Y-49920502D01*
X43866629Y-49920502D01*
X43961240Y-49886066D01*
X44038367Y-49821349D01*
X44088709Y-49734155D01*
X44106192Y-49635002D01*
X44088709Y-49535849D01*
X44088707Y-49535845D01*
X44038368Y-49448656D01*
X44018178Y-49431715D01*
X43961240Y-49383938D01*
X43961238Y-49383937D01*
X43866629Y-49349502D01*
X43813420Y-49349502D01*
X43778772Y-49335150D01*
X43706249Y-49262627D01*
X43699076Y-49256739D01*
X42425080Y-47982743D01*
X42425078Y-47982742D01*
X42425077Y-47982741D01*
X42374860Y-47961940D01*
X42356899Y-47954500D01*
X42356898Y-47954500D01*
X40272626Y-47954500D01*
X40241130Y-47943036D01*
X40176658Y-47888938D01*
X40176652Y-47888935D01*
X40082043Y-47854500D01*
X39981361Y-47854500D01*
X39981360Y-47854500D01*
X39920437Y-47876673D01*
X39882970Y-47875037D01*
X39857634Y-47847386D01*
X39855423Y-47822124D01*
X39869904Y-47740000D01*
X39852421Y-47640847D01*
X39846589Y-47630745D01*
X39802080Y-47553654D01*
X39724952Y-47488936D01*
X39724950Y-47488935D01*
X39630341Y-47454500D01*
X39529659Y-47454500D01*
X39435049Y-47488935D01*
X39435047Y-47488936D01*
X39357919Y-47553654D01*
X39307580Y-47640843D01*
X39307579Y-47640846D01*
X39307579Y-47640847D01*
X39290096Y-47740000D01*
X35364150Y-47740000D01*
X34876890Y-47252740D01*
X34876888Y-47252739D01*
X34876887Y-47252738D01*
X34831312Y-47233860D01*
X34808709Y-47224497D01*
X34808708Y-47224497D01*
X33153790Y-47224497D01*
X33119142Y-47210145D01*
X33104790Y-47175497D01*
X33111355Y-47150997D01*
X33112420Y-47149152D01*
X33112420Y-47149151D01*
X33112421Y-47149150D01*
X33129904Y-47049997D01*
X33112421Y-46950844D01*
X33102781Y-46934148D01*
X33096923Y-46924001D01*
X33092027Y-46886818D01*
X33114857Y-46857065D01*
X33139358Y-46850500D01*
X44500500Y-46850500D01*
X44535148Y-46864852D01*
X44549500Y-46899500D01*
X44549500Y-47584700D01*
X44535148Y-47619348D01*
X44500500Y-47633700D01*
X44483741Y-47630745D01*
X44384158Y-47594500D01*
X44265842Y-47594500D01*
X44154661Y-47634966D01*
X44064027Y-47711016D01*
X44064025Y-47711019D01*
X44004869Y-47813479D01*
X43984324Y-47930000D01*
X44004869Y-48046520D01*
X44064025Y-48148980D01*
X44064027Y-48148983D01*
X44154661Y-48225034D01*
X44174309Y-48232185D01*
X44201960Y-48257521D01*
X44203596Y-48294988D01*
X44187078Y-48314685D01*
X44188332Y-48316180D01*
X44107919Y-48383654D01*
X44057580Y-48470843D01*
X44057579Y-48470846D01*
X44057579Y-48470847D01*
X44040096Y-48570000D01*
X44057505Y-48668734D01*
X44057580Y-48669156D01*
X44107919Y-48756345D01*
X44107920Y-48756346D01*
X44107921Y-48756347D01*
X44185048Y-48821064D01*
X44279659Y-48855500D01*
X44380341Y-48855500D01*
X44474952Y-48821064D01*
X44474954Y-48821062D01*
X44475995Y-48820462D01*
X44476954Y-48820335D01*
X44478981Y-48819598D01*
X44479144Y-48820046D01*
X44513176Y-48815562D01*
X44542932Y-48838389D01*
X44549500Y-48862894D01*
X44549500Y-54900500D01*
X44535148Y-54935148D01*
X44500500Y-54949500D01*
X34791132Y-54949500D01*
X34756484Y-54935148D01*
X34742132Y-54900500D01*
X34756484Y-54865852D01*
X34891163Y-54731173D01*
X35117259Y-54505078D01*
X35118598Y-54501845D01*
X35132372Y-54483054D01*
X35182079Y-54441347D01*
X35232421Y-54354153D01*
X35237561Y-54324997D01*
X35257709Y-54293369D01*
X35294323Y-54285251D01*
X35302575Y-54287462D01*
X35324659Y-54295500D01*
X35429628Y-54295500D01*
X35429628Y-54296716D01*
X35461287Y-54303733D01*
X35481438Y-54335362D01*
X35481439Y-54352379D01*
X35480096Y-54359997D01*
X35480096Y-54359998D01*
X35480096Y-54360000D01*
X35496759Y-54454500D01*
X35497580Y-54459156D01*
X35547919Y-54546345D01*
X35547920Y-54546346D01*
X35547921Y-54546347D01*
X35625048Y-54611064D01*
X35719659Y-54645500D01*
X35820341Y-54645500D01*
X35914952Y-54611064D01*
X35992079Y-54546347D01*
X36042421Y-54459153D01*
X36059904Y-54360000D01*
X36056333Y-54339748D01*
X36064449Y-54303136D01*
X36096078Y-54282985D01*
X36121346Y-54285194D01*
X36149659Y-54295500D01*
X36250341Y-54295500D01*
X36344952Y-54261064D01*
X36422079Y-54196347D01*
X36472421Y-54109153D01*
X36489904Y-54010000D01*
X36472421Y-53910847D01*
X36472419Y-53910843D01*
X36422080Y-53823654D01*
X36412362Y-53815500D01*
X36344952Y-53758936D01*
X36344950Y-53758935D01*
X36250341Y-53724500D01*
X36149659Y-53724500D01*
X36055049Y-53758935D01*
X36055047Y-53758936D01*
X35977919Y-53823654D01*
X35927580Y-53910843D01*
X35927579Y-53910846D01*
X35927579Y-53910847D01*
X35910096Y-54010000D01*
X35913622Y-54030000D01*
X35913667Y-54030250D01*
X35905549Y-54066864D01*
X35873920Y-54087015D01*
X35848653Y-54084804D01*
X35820342Y-54074500D01*
X35820341Y-54074500D01*
X35719659Y-54074500D01*
X35715372Y-54074500D01*
X35715372Y-54073284D01*
X35683711Y-54066265D01*
X35663560Y-54034636D01*
X35663561Y-54017617D01*
X35663706Y-54016789D01*
X35664904Y-54010000D01*
X35647421Y-53910847D01*
X35647419Y-53910843D01*
X35597080Y-53823654D01*
X35587362Y-53815500D01*
X35519952Y-53758936D01*
X35519950Y-53758935D01*
X35425341Y-53724500D01*
X35372133Y-53724500D01*
X35337485Y-53710148D01*
X35100080Y-53472743D01*
X35100078Y-53472742D01*
X35100077Y-53472741D01*
X35060140Y-53456198D01*
X35031899Y-53444500D01*
X35031898Y-53444500D01*
X34655988Y-53444500D01*
X34621340Y-53430148D01*
X34606988Y-53395500D01*
X34621340Y-53360852D01*
X34631486Y-53353066D01*
X34634950Y-53351065D01*
X34634950Y-53351064D01*
X34634952Y-53351064D01*
X34712079Y-53286347D01*
X34762421Y-53199153D01*
X34779904Y-53100000D01*
X34762421Y-53000847D01*
X34762419Y-53000843D01*
X34712080Y-52913654D01*
X34669035Y-52877534D01*
X34651718Y-52844268D01*
X34662996Y-52808501D01*
X34669026Y-52802470D01*
X34712077Y-52766347D01*
X34762419Y-52679153D01*
X34779902Y-52580000D01*
X34762419Y-52480847D01*
X34761930Y-52480000D01*
X36179324Y-52480000D01*
X36199869Y-52596520D01*
X36259025Y-52698980D01*
X36259027Y-52698983D01*
X36331924Y-52760150D01*
X36349662Y-52775034D01*
X36460842Y-52815500D01*
X36579158Y-52815500D01*
X36690338Y-52775034D01*
X36780973Y-52698982D01*
X36840131Y-52596518D01*
X36860676Y-52480000D01*
X36840131Y-52363482D01*
X36840130Y-52363480D01*
X36840130Y-52363479D01*
X36780974Y-52261019D01*
X36780972Y-52261016D01*
X36690338Y-52184966D01*
X36579158Y-52144500D01*
X36460842Y-52144500D01*
X36349661Y-52184966D01*
X36259027Y-52261016D01*
X36259025Y-52261019D01*
X36199869Y-52363479D01*
X36179324Y-52480000D01*
X34761930Y-52480000D01*
X34760602Y-52477700D01*
X34712078Y-52393654D01*
X34634950Y-52328936D01*
X34634948Y-52328935D01*
X34540339Y-52294500D01*
X34439657Y-52294500D01*
X34345047Y-52328935D01*
X34345045Y-52328936D01*
X34267917Y-52393654D01*
X34217578Y-52480843D01*
X34217577Y-52480846D01*
X34217577Y-52480847D01*
X34200094Y-52580000D01*
X34214990Y-52664483D01*
X34217578Y-52679156D01*
X34267917Y-52766345D01*
X34267918Y-52766346D01*
X34267919Y-52766347D01*
X34276630Y-52773656D01*
X34310962Y-52802464D01*
X34328279Y-52835729D01*
X34317001Y-52871497D01*
X34310962Y-52877536D01*
X34267919Y-52913654D01*
X34217580Y-53000843D01*
X34217579Y-53000846D01*
X34217579Y-53000847D01*
X34200096Y-53100000D01*
X34216720Y-53194282D01*
X34217580Y-53199156D01*
X34267919Y-53286345D01*
X34267920Y-53286346D01*
X34267921Y-53286347D01*
X34309242Y-53321019D01*
X34345049Y-53351065D01*
X34348514Y-53353066D01*
X34371343Y-53382820D01*
X34366446Y-53420002D01*
X34336692Y-53442831D01*
X34324012Y-53444500D01*
X32957710Y-53444500D01*
X32909498Y-53464468D01*
X32909499Y-53464469D01*
X32889528Y-53472741D01*
X32467124Y-53895148D01*
X32432476Y-53909500D01*
X32034003Y-53909500D01*
X31999355Y-53895148D01*
X31231877Y-53127670D01*
X31231875Y-53127669D01*
X31231874Y-53127668D01*
X31183687Y-53107708D01*
X31163696Y-53099427D01*
X31163695Y-53099427D01*
X30851825Y-53099427D01*
X30557726Y-53099426D01*
X30523078Y-53085074D01*
X30508726Y-53050426D01*
X30523078Y-53015778D01*
X30540965Y-53004382D01*
X30635338Y-52970034D01*
X30702530Y-52913653D01*
X30725972Y-52893983D01*
X30725974Y-52893980D01*
X30729874Y-52887226D01*
X30762299Y-52831064D01*
X30785130Y-52791520D01*
X30785130Y-52791519D01*
X30785131Y-52791518D01*
X30805676Y-52675000D01*
X30785131Y-52558482D01*
X30785130Y-52558480D01*
X30785130Y-52558479D01*
X30725974Y-52456019D01*
X30725972Y-52456016D01*
X30635338Y-52379966D01*
X30524158Y-52339500D01*
X30405842Y-52339500D01*
X30294661Y-52379966D01*
X30204027Y-52456016D01*
X30204023Y-52456021D01*
X30199033Y-52464665D01*
X30169280Y-52487495D01*
X30132098Y-52482598D01*
X30125102Y-52477700D01*
X30050338Y-52414966D01*
X29939158Y-52374500D01*
X29820842Y-52374500D01*
X29709661Y-52414966D01*
X29619027Y-52491016D01*
X29619025Y-52491019D01*
X29559869Y-52593479D01*
X29539324Y-52710000D01*
X29559869Y-52826520D01*
X29619025Y-52928980D01*
X29619027Y-52928983D01*
X29693163Y-52991190D01*
X29709662Y-53005034D01*
X29775335Y-53028937D01*
X29779374Y-53030407D01*
X29807024Y-53055744D01*
X29808660Y-53093211D01*
X29783323Y-53120861D01*
X29781378Y-53121717D01*
X29773709Y-53124894D01*
X29767012Y-53127668D01*
X29434534Y-53460148D01*
X29399886Y-53474500D01*
X29159956Y-53474500D01*
X29125308Y-53460148D01*
X29110956Y-53425500D01*
X29117521Y-53401000D01*
X29137428Y-53366520D01*
X29137428Y-53366519D01*
X29137429Y-53366518D01*
X29157974Y-53250000D01*
X29137429Y-53133482D01*
X29137428Y-53133480D01*
X29137428Y-53133479D01*
X29078272Y-53031019D01*
X29078270Y-53031016D01*
X28987636Y-52954966D01*
X28876456Y-52914500D01*
X28758140Y-52914500D01*
X28646959Y-52954966D01*
X28556325Y-53031016D01*
X28556323Y-53031019D01*
X28497167Y-53133479D01*
X28476622Y-53250000D01*
X28497167Y-53366520D01*
X28517075Y-53401000D01*
X28521970Y-53438182D01*
X28499140Y-53467935D01*
X28474640Y-53474500D01*
X28463983Y-53474500D01*
X28395804Y-53502742D01*
X28395802Y-53502743D01*
X27803192Y-54095353D01*
X27768544Y-54109705D01*
X27733896Y-54095353D01*
X27719544Y-54060705D01*
X27720289Y-54052194D01*
X27720438Y-54051350D01*
X27720676Y-54050000D01*
X27700131Y-53933482D01*
X27700130Y-53933480D01*
X27700130Y-53933479D01*
X27640974Y-53831019D01*
X27640972Y-53831016D01*
X27550338Y-53754966D01*
X27439158Y-53714500D01*
X27320842Y-53714500D01*
X27209661Y-53754966D01*
X27158253Y-53798103D01*
X27122485Y-53809381D01*
X27095259Y-53798103D01*
X27062861Y-53770918D01*
X27048203Y-53758618D01*
X26937023Y-53718152D01*
X26818707Y-53718152D01*
X26707526Y-53758618D01*
X26616892Y-53834668D01*
X26616890Y-53834671D01*
X26557734Y-53937131D01*
X26537189Y-54053652D01*
X26557734Y-54170172D01*
X26616890Y-54272632D01*
X26616892Y-54272635D01*
X26691648Y-54335362D01*
X26707527Y-54348686D01*
X26818707Y-54389152D01*
X26876258Y-54389152D01*
X26910906Y-54403504D01*
X26925258Y-54438152D01*
X26910906Y-54472800D01*
X26893017Y-54484197D01*
X26825049Y-54508935D01*
X26825047Y-54508936D01*
X26747919Y-54573654D01*
X26697580Y-54660843D01*
X26697579Y-54660846D01*
X26697579Y-54660847D01*
X26680096Y-54760000D01*
X26696284Y-54851810D01*
X26697580Y-54859156D01*
X26707305Y-54876000D01*
X26712200Y-54913182D01*
X26689370Y-54942935D01*
X26664870Y-54949500D01*
X25773708Y-54949500D01*
X25739060Y-54935148D01*
X25724708Y-54900500D01*
X25739060Y-54865852D01*
X25756949Y-54854455D01*
X25764216Y-54851810D01*
X25834952Y-54826064D01*
X25912079Y-54761347D01*
X25962421Y-54674153D01*
X25979904Y-54575000D01*
X25962421Y-54475847D01*
X25962240Y-54475533D01*
X25912080Y-54388654D01*
X25894798Y-54374153D01*
X25834952Y-54323936D01*
X25834950Y-54323935D01*
X25740341Y-54289500D01*
X25639659Y-54289500D01*
X25545049Y-54323935D01*
X25545047Y-54323936D01*
X25530996Y-54335726D01*
X25495228Y-54347002D01*
X25461963Y-54329685D01*
X25450500Y-54298189D01*
X25450500Y-52300000D01*
X26379324Y-52300000D01*
X26399869Y-52416520D01*
X26459025Y-52518980D01*
X26459027Y-52518983D01*
X26549661Y-52595034D01*
X26557069Y-52597730D01*
X26567068Y-52601369D01*
X26594718Y-52626704D01*
X26596355Y-52664172D01*
X26571020Y-52691822D01*
X26567073Y-52693458D01*
X26559661Y-52696156D01*
X26469027Y-52772206D01*
X26469025Y-52772209D01*
X26409869Y-52874669D01*
X26389324Y-52991190D01*
X26409869Y-53107710D01*
X26469025Y-53210170D01*
X26469027Y-53210173D01*
X26516492Y-53250000D01*
X26559662Y-53286224D01*
X26670842Y-53326690D01*
X26789158Y-53326690D01*
X26900338Y-53286224D01*
X26990973Y-53210172D01*
X27021692Y-53156965D01*
X27050130Y-53107710D01*
X27050130Y-53107709D01*
X27050131Y-53107708D01*
X27070676Y-52991190D01*
X27050131Y-52874672D01*
X27050130Y-52874670D01*
X27050130Y-52874669D01*
X26990974Y-52772209D01*
X26990972Y-52772206D01*
X26900338Y-52696156D01*
X26882930Y-52689820D01*
X26855280Y-52664483D01*
X26853644Y-52627016D01*
X26878981Y-52599366D01*
X26882931Y-52597730D01*
X26890338Y-52595034D01*
X26980972Y-52518983D01*
X26980974Y-52518980D01*
X26997118Y-52491019D01*
X27040131Y-52416518D01*
X27060676Y-52300000D01*
X27040131Y-52183482D01*
X27040130Y-52183480D01*
X27040130Y-52183479D01*
X26980974Y-52081019D01*
X26980972Y-52081016D01*
X26890338Y-52004966D01*
X26779158Y-51964500D01*
X26660842Y-51964500D01*
X26549661Y-52004966D01*
X26459027Y-52081016D01*
X26459025Y-52081019D01*
X26399869Y-52183479D01*
X26379324Y-52300000D01*
X25450500Y-52300000D01*
X25450500Y-51764998D01*
X28274326Y-51764998D01*
X28294871Y-51881518D01*
X28354027Y-51983978D01*
X28354029Y-51983981D01*
X28425812Y-52044213D01*
X28444664Y-52060032D01*
X28555844Y-52100498D01*
X28674160Y-52100498D01*
X28785340Y-52060032D01*
X28875975Y-51983980D01*
X28918773Y-51909852D01*
X28935132Y-51881518D01*
X28935132Y-51881517D01*
X28935133Y-51881516D01*
X28955678Y-51764998D01*
X28935133Y-51648480D01*
X28935132Y-51648478D01*
X28935132Y-51648477D01*
X28875976Y-51546017D01*
X28875974Y-51546014D01*
X28785340Y-51469964D01*
X28674160Y-51429498D01*
X28555844Y-51429498D01*
X28444663Y-51469964D01*
X28354029Y-51546014D01*
X28354027Y-51546017D01*
X28294871Y-51648477D01*
X28274326Y-51764998D01*
X25450500Y-51764998D01*
X25450500Y-51410000D01*
X26130096Y-51410000D01*
X26142618Y-51481019D01*
X26147580Y-51509156D01*
X26197919Y-51596345D01*
X26197920Y-51596346D01*
X26197921Y-51596347D01*
X26275048Y-51661064D01*
X26369659Y-51695500D01*
X26470341Y-51695500D01*
X26564952Y-51661064D01*
X26642079Y-51596347D01*
X26692421Y-51509153D01*
X26709904Y-51410000D01*
X26692421Y-51310847D01*
X26684503Y-51297132D01*
X26642080Y-51223654D01*
X26564952Y-51158936D01*
X26564950Y-51158935D01*
X26470341Y-51124500D01*
X26369659Y-51124500D01*
X26275049Y-51158935D01*
X26275047Y-51158936D01*
X26197919Y-51223654D01*
X26147580Y-51310843D01*
X26147579Y-51310846D01*
X26147579Y-51310847D01*
X26130096Y-51410000D01*
X25450500Y-51410000D01*
X25450500Y-48371580D01*
X25464852Y-48336932D01*
X25499500Y-48322580D01*
X25530997Y-48334044D01*
X25537919Y-48339852D01*
X25570500Y-48367191D01*
X25681680Y-48407657D01*
X25799996Y-48407657D01*
X25911176Y-48367191D01*
X25994379Y-48297375D01*
X26001810Y-48291140D01*
X26001812Y-48291137D01*
X26060968Y-48188677D01*
X26060968Y-48188676D01*
X26060969Y-48188675D01*
X26081514Y-48072157D01*
X26060969Y-47955639D01*
X26060968Y-47955637D01*
X26060968Y-47955636D01*
X26001812Y-47853176D01*
X26001808Y-47853171D01*
X25957329Y-47815849D01*
X25940011Y-47782584D01*
X25951289Y-47746817D01*
X25957329Y-47740777D01*
X26030970Y-47678985D01*
X26030971Y-47678983D01*
X26030973Y-47678982D01*
X26090131Y-47576518D01*
X26110676Y-47460000D01*
X26090131Y-47343482D01*
X26090130Y-47343480D01*
X26090130Y-47343479D01*
X26030974Y-47241019D01*
X26030972Y-47241016D01*
X25940338Y-47164966D01*
X25829158Y-47124500D01*
X25710842Y-47124500D01*
X25599659Y-47164966D01*
X25530996Y-47222582D01*
X25495229Y-47233860D01*
X25461964Y-47216542D01*
X25450500Y-47185046D01*
X25450500Y-46899500D01*
X25464852Y-46864852D01*
X25499500Y-46850500D01*
X27215062Y-46850500D01*
X27249710Y-46864852D01*
G37*
G04 #@! TD.AperFunction*
G04 #@! TA.AperFunction,Conductor*
G36*
X31815291Y-46864852D02*
G01*
X31829643Y-46899500D01*
X31823078Y-46924000D01*
X31807580Y-46950843D01*
X31807579Y-46950846D01*
X31807579Y-46950847D01*
X31790096Y-47050000D01*
X31807578Y-47149150D01*
X31807580Y-47149156D01*
X31857919Y-47236345D01*
X31857920Y-47236346D01*
X31857921Y-47236347D01*
X31935047Y-47301063D01*
X31935050Y-47301065D01*
X31951101Y-47306907D01*
X31978752Y-47332243D01*
X31980388Y-47369710D01*
X31968991Y-47387600D01*
X31449478Y-47907113D01*
X31414830Y-47921465D01*
X31380182Y-47907113D01*
X31372394Y-47896963D01*
X31361808Y-47878626D01*
X31356914Y-47841444D01*
X31374717Y-47818244D01*
X31373141Y-47816366D01*
X31453551Y-47748894D01*
X31453553Y-47748891D01*
X31503894Y-47661699D01*
X31521377Y-47562546D01*
X31503894Y-47463393D01*
X31467751Y-47400792D01*
X31453553Y-47376200D01*
X31405731Y-47336073D01*
X31376425Y-47311482D01*
X31376423Y-47311481D01*
X31281814Y-47277046D01*
X31181132Y-47277046D01*
X31086522Y-47311481D01*
X31086520Y-47311482D01*
X31009392Y-47376200D01*
X30959053Y-47463389D01*
X30959052Y-47463392D01*
X30959052Y-47463393D01*
X30941569Y-47562546D01*
X30959052Y-47661699D01*
X30959052Y-47661700D01*
X30959053Y-47661701D01*
X30974659Y-47688732D01*
X30979554Y-47725914D01*
X30961770Y-47749140D01*
X30963328Y-47750996D01*
X30882915Y-47818470D01*
X30832575Y-47905660D01*
X30832574Y-47905663D01*
X30828228Y-47930311D01*
X30808077Y-47961940D01*
X30773736Y-47969552D01*
X30773736Y-47969701D01*
X30773065Y-47969701D01*
X30771463Y-47970056D01*
X30771462Y-47970056D01*
X30769449Y-47969701D01*
X30668767Y-47969701D01*
X30574158Y-48004136D01*
X30574153Y-48004139D01*
X30558061Y-48017641D01*
X30522294Y-48028917D01*
X30489029Y-48011599D01*
X30487013Y-48008719D01*
X30485392Y-48006788D01*
X30482231Y-48004136D01*
X30408264Y-47942070D01*
X30408262Y-47942069D01*
X30313653Y-47907634D01*
X30301832Y-47907634D01*
X30267184Y-47893282D01*
X30252832Y-47858634D01*
X30267184Y-47823986D01*
X30270335Y-47821098D01*
X30279415Y-47813479D01*
X30327078Y-47773485D01*
X30377420Y-47686291D01*
X30394903Y-47587138D01*
X30377420Y-47487985D01*
X30363222Y-47463393D01*
X30327079Y-47400792D01*
X30311357Y-47387600D01*
X30249951Y-47336074D01*
X30249949Y-47336073D01*
X30155340Y-47301638D01*
X30054658Y-47301638D01*
X29960048Y-47336073D01*
X29960046Y-47336074D01*
X29882918Y-47400792D01*
X29832579Y-47487981D01*
X29832578Y-47487984D01*
X29832578Y-47487985D01*
X29815095Y-47587138D01*
X29831289Y-47678982D01*
X29832579Y-47686294D01*
X29882918Y-47773483D01*
X29882919Y-47773484D01*
X29882920Y-47773485D01*
X29960047Y-47838202D01*
X30054658Y-47872638D01*
X30066479Y-47872638D01*
X30101127Y-47886990D01*
X30115479Y-47921638D01*
X30101127Y-47956286D01*
X30097976Y-47959174D01*
X30041231Y-48006788D01*
X29990891Y-48093978D01*
X29990890Y-48093982D01*
X29982566Y-48141188D01*
X29962416Y-48172818D01*
X29925802Y-48180934D01*
X29899663Y-48167327D01*
X29137411Y-47405075D01*
X29123059Y-47370427D01*
X29137411Y-47335779D01*
X29140563Y-47332891D01*
X29180970Y-47298985D01*
X29180971Y-47298983D01*
X29180973Y-47298982D01*
X29228570Y-47216542D01*
X29240130Y-47196520D01*
X29240130Y-47196519D01*
X29240131Y-47196518D01*
X29260676Y-47080000D01*
X29240131Y-46963482D01*
X29240130Y-46963480D01*
X29240130Y-46963479D01*
X29217336Y-46924000D01*
X29212441Y-46886818D01*
X29235271Y-46857065D01*
X29259771Y-46850500D01*
X31780643Y-46850500D01*
X31815291Y-46864852D01*
G37*
G04 #@! TD.AperFunction*
G04 #@! TD*
G04 #@! TA.AperFunction,Conductor*
G04 #@! TO.N,Board_2-+3.3V*
G36*
X27249710Y-36264852D02*
G01*
X27264062Y-36299500D01*
X27249710Y-36334148D01*
X27246559Y-36337036D01*
X27202919Y-36373654D01*
X27152580Y-36460843D01*
X27152579Y-36460846D01*
X27152579Y-36460847D01*
X27137741Y-36545000D01*
X27135096Y-36560000D01*
X27152579Y-36659155D01*
X27174328Y-36696824D01*
X27179223Y-36734006D01*
X27161264Y-36759070D01*
X27161521Y-36759327D01*
X27159966Y-36760881D01*
X27159120Y-36762063D01*
X27158109Y-36762738D01*
X25999091Y-37921759D01*
X25774502Y-38146348D01*
X25761252Y-38159598D01*
X25722320Y-38198529D01*
X25694079Y-38266707D01*
X25694079Y-38266709D01*
X25694079Y-39306796D01*
X25694079Y-39380592D01*
X25722320Y-39448771D01*
X25722321Y-39448772D01*
X25722321Y-39448773D01*
X26203624Y-39930075D01*
X26255806Y-39982257D01*
X26323985Y-40010498D01*
X26323987Y-40010498D01*
X26871898Y-40010498D01*
X26871900Y-40010498D01*
X26940079Y-39982257D01*
X26940081Y-39982255D01*
X26940082Y-39982255D01*
X27127259Y-39795078D01*
X27127259Y-39795077D01*
X27127261Y-39795075D01*
X27155502Y-39726896D01*
X27155502Y-39704118D01*
X27169854Y-39669470D01*
X27172997Y-39666590D01*
X27192081Y-39650577D01*
X27242423Y-39563383D01*
X27249237Y-39524733D01*
X27269388Y-39493106D01*
X27306002Y-39484988D01*
X27332141Y-39498596D01*
X27820801Y-39987257D01*
X27820802Y-39987257D01*
X27820804Y-39987259D01*
X27888983Y-40015500D01*
X27962779Y-40015500D01*
X31694636Y-40015500D01*
X31729284Y-40029852D01*
X32540282Y-40840852D01*
X32554634Y-40875500D01*
X32540282Y-40910148D01*
X32505634Y-40924500D01*
X30712040Y-40924500D01*
X30680544Y-40913036D01*
X30610069Y-40853901D01*
X30610063Y-40853898D01*
X30515454Y-40819463D01*
X30414772Y-40819463D01*
X30320162Y-40853898D01*
X30320160Y-40853899D01*
X30243032Y-40918617D01*
X30192693Y-41005806D01*
X30192692Y-41005809D01*
X30192692Y-41005810D01*
X30175209Y-41104963D01*
X30190126Y-41189565D01*
X30192693Y-41204119D01*
X30243032Y-41291308D01*
X30243033Y-41291309D01*
X30243034Y-41291310D01*
X30320161Y-41356027D01*
X30414772Y-41390463D01*
X30515454Y-41390463D01*
X30610065Y-41356027D01*
X30654214Y-41318982D01*
X30668537Y-41306964D01*
X30700033Y-41295500D01*
X37895455Y-41295500D01*
X37930103Y-41309852D01*
X37976192Y-41355941D01*
X37990544Y-41390589D01*
X37990097Y-41395707D01*
X37990097Y-41397411D01*
X37990097Y-41397412D01*
X37990097Y-41397414D01*
X38004839Y-41481019D01*
X38007581Y-41496570D01*
X38057920Y-41583759D01*
X38057921Y-41583760D01*
X38057922Y-41583761D01*
X38135049Y-41648478D01*
X38229660Y-41682914D01*
X38330342Y-41682914D01*
X38424953Y-41648478D01*
X38502080Y-41583761D01*
X38524748Y-41544500D01*
X38552421Y-41496570D01*
X38555163Y-41481019D01*
X38557678Y-41466753D01*
X38577828Y-41435125D01*
X38614442Y-41427007D01*
X38640582Y-41440615D01*
X38811741Y-41611774D01*
X38826093Y-41646422D01*
X38826093Y-41750391D01*
X38811741Y-41785039D01*
X38436631Y-42160150D01*
X38401983Y-42174502D01*
X37820924Y-42174502D01*
X37789428Y-42163038D01*
X37724956Y-42108940D01*
X37724950Y-42108937D01*
X37630341Y-42074502D01*
X37529659Y-42074502D01*
X37435049Y-42108937D01*
X37435047Y-42108938D01*
X37357919Y-42173656D01*
X37307580Y-42260845D01*
X37307579Y-42260848D01*
X37307579Y-42260849D01*
X37290096Y-42360002D01*
X37305171Y-42445500D01*
X37307580Y-42459158D01*
X37350490Y-42533479D01*
X37357921Y-42546349D01*
X37375404Y-42561018D01*
X37392720Y-42594282D01*
X37381444Y-42630050D01*
X37363326Y-42642738D01*
X37363375Y-42642822D01*
X37362423Y-42643371D01*
X37360675Y-42644596D01*
X37359666Y-42644963D01*
X37359661Y-42644966D01*
X37269027Y-42721016D01*
X37269025Y-42721019D01*
X37209869Y-42823479D01*
X37189324Y-42940000D01*
X37209869Y-43056520D01*
X37269025Y-43158980D01*
X37269027Y-43158983D01*
X37325360Y-43206251D01*
X37359662Y-43235034D01*
X37470842Y-43275500D01*
X37589158Y-43275500D01*
X37700338Y-43235034D01*
X37790973Y-43158982D01*
X37850131Y-43056518D01*
X37870676Y-42940000D01*
X37850131Y-42823482D01*
X37850130Y-42823480D01*
X37850130Y-42823479D01*
X37790974Y-42721019D01*
X37790972Y-42721016D01*
X37737178Y-42675878D01*
X37719861Y-42642613D01*
X37731139Y-42606845D01*
X37737170Y-42600813D01*
X37773680Y-42570177D01*
X37789428Y-42556965D01*
X37820924Y-42545502D01*
X38536011Y-42545502D01*
X38536013Y-42545502D01*
X38604192Y-42517261D01*
X39168852Y-41952602D01*
X39181449Y-41922190D01*
X39197093Y-41884422D01*
X39197093Y-41512392D01*
X39168852Y-41444213D01*
X39168852Y-41444212D01*
X38439255Y-40714616D01*
X38424904Y-40679969D01*
X38439256Y-40645321D01*
X38473904Y-40630969D01*
X39236915Y-40630969D01*
X39271563Y-40645321D01*
X40138826Y-41512584D01*
X40153178Y-41547232D01*
X40153178Y-43238187D01*
X40146613Y-43262687D01*
X40118548Y-43311297D01*
X40118547Y-43311298D01*
X40118547Y-43311300D01*
X40103134Y-43398711D01*
X40098002Y-43427818D01*
X40118547Y-43544338D01*
X40177703Y-43646798D01*
X40177705Y-43646801D01*
X40234277Y-43694270D01*
X40268340Y-43722852D01*
X40379520Y-43763318D01*
X40497836Y-43763318D01*
X40609016Y-43722852D01*
X40699651Y-43646800D01*
X40742831Y-43572011D01*
X40758808Y-43544338D01*
X40758808Y-43544337D01*
X40758809Y-43544336D01*
X40779354Y-43427818D01*
X40758809Y-43311300D01*
X40738140Y-43275500D01*
X40730743Y-43262687D01*
X40724178Y-43238187D01*
X40724178Y-41565694D01*
X40738530Y-41531046D01*
X40773178Y-41516694D01*
X40807826Y-41531046D01*
X41840148Y-42563368D01*
X41854500Y-42598016D01*
X41854500Y-43846016D01*
X41859942Y-43859153D01*
X41882741Y-43914194D01*
X41882742Y-43914195D01*
X41882742Y-43914196D01*
X42093624Y-44125077D01*
X42145806Y-44177259D01*
X42213985Y-44205500D01*
X42213987Y-44205500D01*
X43336013Y-44205500D01*
X43336015Y-44205500D01*
X43404194Y-44177259D01*
X43404196Y-44177257D01*
X43404197Y-44177257D01*
X43667257Y-43914197D01*
X43667257Y-43914196D01*
X43667259Y-43914194D01*
X43672288Y-43902052D01*
X43698803Y-43875535D01*
X43736306Y-43875533D01*
X43749054Y-43883268D01*
X43779647Y-43908938D01*
X43800057Y-43926064D01*
X43894668Y-43960500D01*
X43995350Y-43960500D01*
X44089961Y-43926064D01*
X44167088Y-43861347D01*
X44217430Y-43774153D01*
X44234913Y-43675000D01*
X44217430Y-43575847D01*
X44215758Y-43572951D01*
X44167089Y-43488654D01*
X44143003Y-43468443D01*
X44125686Y-43435177D01*
X44125500Y-43430907D01*
X44125500Y-40073104D01*
X44125499Y-40073100D01*
X44117444Y-40053653D01*
X44097259Y-40004923D01*
X44045077Y-39952741D01*
X43819229Y-39726893D01*
X43565079Y-39472742D01*
X43558459Y-39470000D01*
X43544530Y-39464230D01*
X43496899Y-39444500D01*
X43496898Y-39444500D01*
X42548017Y-39444500D01*
X42513369Y-39430148D01*
X42499017Y-39395500D01*
X42505582Y-39371000D01*
X42512420Y-39359156D01*
X42512420Y-39359155D01*
X42512421Y-39359154D01*
X42529904Y-39260001D01*
X42512421Y-39160848D01*
X42497209Y-39134500D01*
X42462080Y-39073655D01*
X42448254Y-39062054D01*
X42384952Y-39008937D01*
X42384951Y-39008936D01*
X42303122Y-38979153D01*
X42300145Y-38978069D01*
X42272496Y-38952733D01*
X42268650Y-38923516D01*
X42277080Y-38875709D01*
X42277080Y-38875707D01*
X42259597Y-38776554D01*
X42259595Y-38776550D01*
X42209256Y-38689361D01*
X42177531Y-38662741D01*
X42132128Y-38624643D01*
X42132126Y-38624642D01*
X42037517Y-38590207D01*
X41936835Y-38590207D01*
X41842225Y-38624642D01*
X41842220Y-38624645D01*
X41782526Y-38674734D01*
X41746759Y-38686012D01*
X41719534Y-38674734D01*
X41664956Y-38628938D01*
X41664950Y-38628935D01*
X41570341Y-38594500D01*
X41469659Y-38594500D01*
X41375049Y-38628935D01*
X41375047Y-38628936D01*
X41297919Y-38693654D01*
X41247580Y-38780843D01*
X41247579Y-38780846D01*
X41247579Y-38780847D01*
X41230096Y-38880000D01*
X41247405Y-38978169D01*
X41247580Y-38979156D01*
X41297919Y-39066345D01*
X41297920Y-39066346D01*
X41297921Y-39066347D01*
X41317590Y-39082851D01*
X41335601Y-39097964D01*
X41352918Y-39131229D01*
X41341640Y-39166997D01*
X41308375Y-39184314D01*
X41304104Y-39184500D01*
X40844728Y-39184500D01*
X40810080Y-39170148D01*
X40168145Y-38528212D01*
X40166573Y-38527561D01*
X40140597Y-38516801D01*
X40099965Y-38499970D01*
X40099964Y-38499970D01*
X38755133Y-38499970D01*
X38720485Y-38485618D01*
X38706133Y-38450970D01*
X38712698Y-38426470D01*
X38713762Y-38424625D01*
X38713761Y-38424625D01*
X38713764Y-38424622D01*
X38731247Y-38325469D01*
X38713764Y-38226316D01*
X38710144Y-38220046D01*
X38663423Y-38139123D01*
X38655818Y-38132742D01*
X38586295Y-38074405D01*
X38586293Y-38074404D01*
X38491684Y-38039969D01*
X38391002Y-38039969D01*
X38296392Y-38074404D01*
X38296390Y-38074405D01*
X38219262Y-38139123D01*
X38168923Y-38226312D01*
X38168922Y-38226315D01*
X38168922Y-38226316D01*
X38151439Y-38325469D01*
X38168900Y-38424500D01*
X38168923Y-38424625D01*
X38169988Y-38426470D01*
X38170211Y-38428165D01*
X38170389Y-38428654D01*
X38170280Y-38428693D01*
X38174883Y-38463653D01*
X38152053Y-38493405D01*
X38127553Y-38499970D01*
X34783212Y-38499970D01*
X34748564Y-38485618D01*
X34734212Y-38450970D01*
X34748564Y-38416322D01*
X34751716Y-38413434D01*
X34772078Y-38396348D01*
X34772080Y-38396345D01*
X34775709Y-38390060D01*
X34822421Y-38309153D01*
X34835321Y-38235990D01*
X34855472Y-38204362D01*
X34883577Y-38195500D01*
X34985341Y-38195500D01*
X35079944Y-38161067D01*
X35079944Y-38161066D01*
X35079952Y-38161064D01*
X35079958Y-38161058D01*
X35080059Y-38161001D01*
X35080164Y-38160987D01*
X35083981Y-38159598D01*
X35084288Y-38160442D01*
X35117239Y-38156095D01*
X35147000Y-38178916D01*
X35147007Y-38178929D01*
X35191704Y-38256345D01*
X35191705Y-38256346D01*
X35191706Y-38256347D01*
X35268833Y-38321064D01*
X35363444Y-38355500D01*
X35464126Y-38355500D01*
X35558737Y-38321064D01*
X35635864Y-38256347D01*
X35686206Y-38169153D01*
X35692432Y-38133838D01*
X35712583Y-38102210D01*
X35740688Y-38093348D01*
X35842119Y-38093348D01*
X35936730Y-38058912D01*
X35952780Y-38045443D01*
X35988547Y-38034165D01*
X36021813Y-38051481D01*
X36023902Y-38054465D01*
X36025481Y-38056346D01*
X36025482Y-38056347D01*
X36025483Y-38056348D01*
X36102610Y-38121065D01*
X36197221Y-38155501D01*
X36297903Y-38155501D01*
X36392514Y-38121065D01*
X36446067Y-38076128D01*
X36481833Y-38064851D01*
X36509060Y-38076129D01*
X36535868Y-38098623D01*
X36562612Y-38121064D01*
X36657223Y-38155500D01*
X36757905Y-38155500D01*
X36852516Y-38121064D01*
X36906069Y-38076127D01*
X36941835Y-38064850D01*
X36969062Y-38076128D01*
X37022615Y-38121064D01*
X37117226Y-38155500D01*
X37217908Y-38155500D01*
X37312519Y-38121064D01*
X37389646Y-38056347D01*
X37439988Y-37969153D01*
X37457471Y-37870000D01*
X37439988Y-37770847D01*
X37430466Y-37754354D01*
X37389647Y-37683654D01*
X37381309Y-37676658D01*
X37312519Y-37618936D01*
X37312517Y-37618935D01*
X37217908Y-37584500D01*
X37117226Y-37584500D01*
X37022616Y-37618935D01*
X37022610Y-37618938D01*
X36969061Y-37663871D01*
X36933294Y-37675149D01*
X36906068Y-37663871D01*
X36852516Y-37618936D01*
X36852514Y-37618935D01*
X36757905Y-37584500D01*
X36657223Y-37584500D01*
X36562613Y-37618935D01*
X36562607Y-37618938D01*
X36509058Y-37663871D01*
X36473291Y-37675149D01*
X36446065Y-37663871D01*
X36392514Y-37618937D01*
X36392512Y-37618936D01*
X36297903Y-37584501D01*
X36197221Y-37584501D01*
X36102612Y-37618936D01*
X36102610Y-37618937D01*
X36086556Y-37632407D01*
X36050788Y-37643682D01*
X36017523Y-37626364D01*
X36015439Y-37623387D01*
X36013854Y-37621497D01*
X35936733Y-37556786D01*
X35936728Y-37556783D01*
X35842119Y-37522348D01*
X35766794Y-37522348D01*
X35732146Y-37507996D01*
X35364150Y-37140000D01*
X39290096Y-37140000D01*
X39307411Y-37238202D01*
X39307580Y-37239156D01*
X39357919Y-37326345D01*
X39357920Y-37326346D01*
X39357921Y-37326347D01*
X39435048Y-37391064D01*
X39529659Y-37425500D01*
X39630341Y-37425500D01*
X39691263Y-37403326D01*
X39728730Y-37404962D01*
X39754067Y-37432612D01*
X39756277Y-37457878D01*
X39741798Y-37540000D01*
X39758052Y-37632185D01*
X39759282Y-37639156D01*
X39809621Y-37726345D01*
X39809622Y-37726346D01*
X39809623Y-37726347D01*
X39886750Y-37791064D01*
X39981361Y-37825500D01*
X40082043Y-37825500D01*
X40176654Y-37791064D01*
X40178101Y-37789850D01*
X40241130Y-37736964D01*
X40272626Y-37725500D01*
X42222868Y-37725500D01*
X42257516Y-37739852D01*
X43495030Y-38977368D01*
X43502214Y-38983264D01*
X43512479Y-38993529D01*
X43526831Y-39028177D01*
X43526384Y-39033295D01*
X43526384Y-39034999D01*
X43526384Y-39035000D01*
X43526384Y-39035002D01*
X43543754Y-39133513D01*
X43543868Y-39134158D01*
X43594207Y-39221347D01*
X43594208Y-39221348D01*
X43594209Y-39221349D01*
X43671336Y-39286066D01*
X43765947Y-39320502D01*
X43866629Y-39320502D01*
X43961240Y-39286066D01*
X44038367Y-39221349D01*
X44088709Y-39134155D01*
X44106192Y-39035002D01*
X44088709Y-38935849D01*
X44088707Y-38935845D01*
X44038368Y-38848656D01*
X44018178Y-38831715D01*
X43961240Y-38783938D01*
X43961238Y-38783937D01*
X43866629Y-38749502D01*
X43813420Y-38749502D01*
X43778772Y-38735150D01*
X43706249Y-38662627D01*
X43699076Y-38656739D01*
X42425080Y-37382743D01*
X42425078Y-37382742D01*
X42425077Y-37382741D01*
X42374860Y-37361940D01*
X42356899Y-37354500D01*
X42356898Y-37354500D01*
X40272626Y-37354500D01*
X40241130Y-37343036D01*
X40176658Y-37288938D01*
X40176652Y-37288935D01*
X40082043Y-37254500D01*
X39981361Y-37254500D01*
X39981360Y-37254500D01*
X39920437Y-37276673D01*
X39882970Y-37275037D01*
X39857634Y-37247386D01*
X39855423Y-37222124D01*
X39869904Y-37140000D01*
X39852421Y-37040847D01*
X39846589Y-37030745D01*
X39802080Y-36953654D01*
X39724952Y-36888936D01*
X39724950Y-36888935D01*
X39630341Y-36854500D01*
X39529659Y-36854500D01*
X39435049Y-36888935D01*
X39435047Y-36888936D01*
X39357919Y-36953654D01*
X39307580Y-37040843D01*
X39307579Y-37040846D01*
X39307579Y-37040847D01*
X39290096Y-37140000D01*
X35364150Y-37140000D01*
X34876890Y-36652740D01*
X34876888Y-36652739D01*
X34876887Y-36652738D01*
X34831312Y-36633860D01*
X34808709Y-36624497D01*
X34808708Y-36624497D01*
X33153790Y-36624497D01*
X33119142Y-36610145D01*
X33104790Y-36575497D01*
X33111355Y-36550997D01*
X33112420Y-36549152D01*
X33112420Y-36549151D01*
X33112421Y-36549150D01*
X33129904Y-36449997D01*
X33112421Y-36350844D01*
X33102781Y-36334148D01*
X33096923Y-36324001D01*
X33092027Y-36286818D01*
X33114857Y-36257065D01*
X33139358Y-36250500D01*
X44500500Y-36250500D01*
X44535148Y-36264852D01*
X44549500Y-36299500D01*
X44549500Y-36984700D01*
X44535148Y-37019348D01*
X44500500Y-37033700D01*
X44483741Y-37030745D01*
X44384158Y-36994500D01*
X44265842Y-36994500D01*
X44154661Y-37034966D01*
X44064027Y-37111016D01*
X44064025Y-37111019D01*
X44004869Y-37213479D01*
X43984324Y-37330000D01*
X44004869Y-37446520D01*
X44064025Y-37548980D01*
X44064027Y-37548983D01*
X44154661Y-37625034D01*
X44174309Y-37632185D01*
X44201960Y-37657521D01*
X44203596Y-37694988D01*
X44187078Y-37714685D01*
X44188332Y-37716180D01*
X44107919Y-37783654D01*
X44057580Y-37870843D01*
X44057579Y-37870846D01*
X44057579Y-37870847D01*
X44040096Y-37970000D01*
X44057505Y-38068734D01*
X44057580Y-38069156D01*
X44107919Y-38156345D01*
X44107920Y-38156346D01*
X44107921Y-38156347D01*
X44185048Y-38221064D01*
X44279659Y-38255500D01*
X44380341Y-38255500D01*
X44474952Y-38221064D01*
X44474954Y-38221062D01*
X44475995Y-38220462D01*
X44476954Y-38220335D01*
X44478981Y-38219598D01*
X44479144Y-38220046D01*
X44513176Y-38215562D01*
X44542932Y-38238389D01*
X44549500Y-38262894D01*
X44549500Y-44300500D01*
X44535148Y-44335148D01*
X44500500Y-44349500D01*
X34791132Y-44349500D01*
X34756484Y-44335148D01*
X34742132Y-44300500D01*
X34756484Y-44265852D01*
X34891163Y-44131173D01*
X35117259Y-43905078D01*
X35118598Y-43901845D01*
X35132372Y-43883054D01*
X35182079Y-43841347D01*
X35232421Y-43754153D01*
X35237561Y-43724997D01*
X35257709Y-43693369D01*
X35294323Y-43685251D01*
X35302575Y-43687462D01*
X35324659Y-43695500D01*
X35429628Y-43695500D01*
X35429628Y-43696716D01*
X35461287Y-43703733D01*
X35481438Y-43735362D01*
X35481439Y-43752379D01*
X35480096Y-43759997D01*
X35480096Y-43759998D01*
X35480096Y-43760000D01*
X35496759Y-43854500D01*
X35497580Y-43859156D01*
X35547919Y-43946345D01*
X35547920Y-43946346D01*
X35547921Y-43946347D01*
X35625048Y-44011064D01*
X35719659Y-44045500D01*
X35820341Y-44045500D01*
X35914952Y-44011064D01*
X35992079Y-43946347D01*
X36042421Y-43859153D01*
X36059904Y-43760000D01*
X36056333Y-43739748D01*
X36064449Y-43703136D01*
X36096078Y-43682985D01*
X36121346Y-43685194D01*
X36149659Y-43695500D01*
X36250341Y-43695500D01*
X36344952Y-43661064D01*
X36422079Y-43596347D01*
X36472421Y-43509153D01*
X36489904Y-43410000D01*
X36472421Y-43310847D01*
X36472419Y-43310843D01*
X36422080Y-43223654D01*
X36412362Y-43215500D01*
X36344952Y-43158936D01*
X36344950Y-43158935D01*
X36250341Y-43124500D01*
X36149659Y-43124500D01*
X36055049Y-43158935D01*
X36055047Y-43158936D01*
X35977919Y-43223654D01*
X35927580Y-43310843D01*
X35927579Y-43310846D01*
X35927579Y-43310847D01*
X35910096Y-43410000D01*
X35913622Y-43430000D01*
X35913667Y-43430250D01*
X35905549Y-43466864D01*
X35873920Y-43487015D01*
X35848653Y-43484804D01*
X35820342Y-43474500D01*
X35820341Y-43474500D01*
X35719659Y-43474500D01*
X35715372Y-43474500D01*
X35715372Y-43473284D01*
X35683711Y-43466265D01*
X35663560Y-43434636D01*
X35663561Y-43417617D01*
X35663706Y-43416789D01*
X35664904Y-43410000D01*
X35647421Y-43310847D01*
X35647419Y-43310843D01*
X35597080Y-43223654D01*
X35587362Y-43215500D01*
X35519952Y-43158936D01*
X35519950Y-43158935D01*
X35425341Y-43124500D01*
X35372133Y-43124500D01*
X35337485Y-43110148D01*
X35100080Y-42872743D01*
X35100078Y-42872742D01*
X35100077Y-42872741D01*
X35060140Y-42856198D01*
X35031899Y-42844500D01*
X35031898Y-42844500D01*
X34655988Y-42844500D01*
X34621340Y-42830148D01*
X34606988Y-42795500D01*
X34621340Y-42760852D01*
X34631486Y-42753066D01*
X34634950Y-42751065D01*
X34634950Y-42751064D01*
X34634952Y-42751064D01*
X34712079Y-42686347D01*
X34762421Y-42599153D01*
X34779904Y-42500000D01*
X34762421Y-42400847D01*
X34762419Y-42400843D01*
X34712080Y-42313654D01*
X34669035Y-42277534D01*
X34651718Y-42244268D01*
X34662996Y-42208501D01*
X34669026Y-42202470D01*
X34712077Y-42166347D01*
X34762419Y-42079153D01*
X34779902Y-41980000D01*
X34762419Y-41880847D01*
X34761930Y-41880000D01*
X36179324Y-41880000D01*
X36199869Y-41996520D01*
X36259025Y-42098980D01*
X36259027Y-42098983D01*
X36331924Y-42160150D01*
X36349662Y-42175034D01*
X36460842Y-42215500D01*
X36579158Y-42215500D01*
X36690338Y-42175034D01*
X36780973Y-42098982D01*
X36840131Y-41996518D01*
X36860676Y-41880000D01*
X36840131Y-41763482D01*
X36840130Y-41763480D01*
X36840130Y-41763479D01*
X36780974Y-41661019D01*
X36780972Y-41661016D01*
X36690338Y-41584966D01*
X36579158Y-41544500D01*
X36460842Y-41544500D01*
X36349661Y-41584966D01*
X36259027Y-41661016D01*
X36259025Y-41661019D01*
X36199869Y-41763479D01*
X36179324Y-41880000D01*
X34761930Y-41880000D01*
X34760602Y-41877700D01*
X34712078Y-41793654D01*
X34634950Y-41728936D01*
X34634948Y-41728935D01*
X34540339Y-41694500D01*
X34439657Y-41694500D01*
X34345047Y-41728935D01*
X34345045Y-41728936D01*
X34267917Y-41793654D01*
X34217578Y-41880843D01*
X34217577Y-41880846D01*
X34217577Y-41880847D01*
X34200094Y-41980000D01*
X34214990Y-42064483D01*
X34217578Y-42079156D01*
X34267917Y-42166345D01*
X34267918Y-42166346D01*
X34267919Y-42166347D01*
X34276630Y-42173656D01*
X34310962Y-42202464D01*
X34328279Y-42235729D01*
X34317001Y-42271497D01*
X34310962Y-42277536D01*
X34267919Y-42313654D01*
X34217580Y-42400843D01*
X34217579Y-42400846D01*
X34217579Y-42400847D01*
X34200096Y-42500000D01*
X34216720Y-42594282D01*
X34217580Y-42599156D01*
X34267919Y-42686345D01*
X34267920Y-42686346D01*
X34267921Y-42686347D01*
X34309242Y-42721019D01*
X34345049Y-42751065D01*
X34348514Y-42753066D01*
X34371343Y-42782820D01*
X34366446Y-42820002D01*
X34336692Y-42842831D01*
X34324012Y-42844500D01*
X32957710Y-42844500D01*
X32909498Y-42864468D01*
X32909499Y-42864469D01*
X32889528Y-42872741D01*
X32467124Y-43295148D01*
X32432476Y-43309500D01*
X32034003Y-43309500D01*
X31999355Y-43295148D01*
X31231877Y-42527670D01*
X31231875Y-42527669D01*
X31231874Y-42527668D01*
X31183687Y-42507708D01*
X31163696Y-42499427D01*
X31163695Y-42499427D01*
X30851825Y-42499427D01*
X30557726Y-42499426D01*
X30523078Y-42485074D01*
X30508726Y-42450426D01*
X30523078Y-42415778D01*
X30540965Y-42404382D01*
X30635338Y-42370034D01*
X30702530Y-42313653D01*
X30725972Y-42293983D01*
X30725974Y-42293980D01*
X30729874Y-42287226D01*
X30762299Y-42231064D01*
X30785130Y-42191520D01*
X30785130Y-42191519D01*
X30785131Y-42191518D01*
X30805676Y-42075000D01*
X30785131Y-41958482D01*
X30785130Y-41958480D01*
X30785130Y-41958479D01*
X30725974Y-41856019D01*
X30725972Y-41856016D01*
X30635338Y-41779966D01*
X30524158Y-41739500D01*
X30405842Y-41739500D01*
X30294661Y-41779966D01*
X30204027Y-41856016D01*
X30204023Y-41856021D01*
X30199033Y-41864665D01*
X30169280Y-41887495D01*
X30132098Y-41882598D01*
X30125102Y-41877700D01*
X30050338Y-41814966D01*
X29939158Y-41774500D01*
X29820842Y-41774500D01*
X29709661Y-41814966D01*
X29619027Y-41891016D01*
X29619025Y-41891019D01*
X29559869Y-41993479D01*
X29539324Y-42110000D01*
X29559869Y-42226520D01*
X29619025Y-42328980D01*
X29619027Y-42328983D01*
X29693163Y-42391190D01*
X29709662Y-42405034D01*
X29775335Y-42428937D01*
X29779374Y-42430407D01*
X29807024Y-42455744D01*
X29808660Y-42493211D01*
X29783323Y-42520861D01*
X29781378Y-42521717D01*
X29773709Y-42524894D01*
X29767012Y-42527668D01*
X29434534Y-42860148D01*
X29399886Y-42874500D01*
X29159956Y-42874500D01*
X29125308Y-42860148D01*
X29110956Y-42825500D01*
X29117521Y-42801000D01*
X29137428Y-42766520D01*
X29137428Y-42766519D01*
X29137429Y-42766518D01*
X29157974Y-42650000D01*
X29137429Y-42533482D01*
X29137428Y-42533480D01*
X29137428Y-42533479D01*
X29078272Y-42431019D01*
X29078270Y-42431016D01*
X28987636Y-42354966D01*
X28876456Y-42314500D01*
X28758140Y-42314500D01*
X28646959Y-42354966D01*
X28556325Y-42431016D01*
X28556323Y-42431019D01*
X28497167Y-42533479D01*
X28476622Y-42650000D01*
X28497167Y-42766520D01*
X28517075Y-42801000D01*
X28521970Y-42838182D01*
X28499140Y-42867935D01*
X28474640Y-42874500D01*
X28463983Y-42874500D01*
X28395804Y-42902742D01*
X28395802Y-42902743D01*
X27803192Y-43495353D01*
X27768544Y-43509705D01*
X27733896Y-43495353D01*
X27719544Y-43460705D01*
X27720289Y-43452194D01*
X27720438Y-43451350D01*
X27720676Y-43450000D01*
X27700131Y-43333482D01*
X27700130Y-43333480D01*
X27700130Y-43333479D01*
X27640974Y-43231019D01*
X27640972Y-43231016D01*
X27550338Y-43154966D01*
X27439158Y-43114500D01*
X27320842Y-43114500D01*
X27209661Y-43154966D01*
X27158253Y-43198103D01*
X27122485Y-43209381D01*
X27095259Y-43198103D01*
X27062861Y-43170918D01*
X27048203Y-43158618D01*
X26937023Y-43118152D01*
X26818707Y-43118152D01*
X26707526Y-43158618D01*
X26616892Y-43234668D01*
X26616890Y-43234671D01*
X26557734Y-43337131D01*
X26537189Y-43453652D01*
X26557734Y-43570172D01*
X26616890Y-43672632D01*
X26616892Y-43672635D01*
X26691648Y-43735362D01*
X26707527Y-43748686D01*
X26818707Y-43789152D01*
X26876258Y-43789152D01*
X26910906Y-43803504D01*
X26925258Y-43838152D01*
X26910906Y-43872800D01*
X26893017Y-43884197D01*
X26825049Y-43908935D01*
X26825047Y-43908936D01*
X26747919Y-43973654D01*
X26697580Y-44060843D01*
X26697579Y-44060846D01*
X26697579Y-44060847D01*
X26680096Y-44160000D01*
X26696284Y-44251810D01*
X26697580Y-44259156D01*
X26707305Y-44276000D01*
X26712200Y-44313182D01*
X26689370Y-44342935D01*
X26664870Y-44349500D01*
X25773708Y-44349500D01*
X25739060Y-44335148D01*
X25724708Y-44300500D01*
X25739060Y-44265852D01*
X25756949Y-44254455D01*
X25764216Y-44251810D01*
X25834952Y-44226064D01*
X25912079Y-44161347D01*
X25962421Y-44074153D01*
X25979904Y-43975000D01*
X25962421Y-43875847D01*
X25962240Y-43875533D01*
X25912080Y-43788654D01*
X25894798Y-43774153D01*
X25834952Y-43723936D01*
X25834950Y-43723935D01*
X25740341Y-43689500D01*
X25639659Y-43689500D01*
X25545049Y-43723935D01*
X25545047Y-43723936D01*
X25530996Y-43735726D01*
X25495228Y-43747002D01*
X25461963Y-43729685D01*
X25450500Y-43698189D01*
X25450500Y-41700000D01*
X26379324Y-41700000D01*
X26399869Y-41816520D01*
X26459025Y-41918980D01*
X26459027Y-41918983D01*
X26549661Y-41995034D01*
X26557069Y-41997730D01*
X26567068Y-42001369D01*
X26594718Y-42026704D01*
X26596355Y-42064172D01*
X26571020Y-42091822D01*
X26567073Y-42093458D01*
X26559661Y-42096156D01*
X26469027Y-42172206D01*
X26469025Y-42172209D01*
X26409869Y-42274669D01*
X26389324Y-42391190D01*
X26409869Y-42507710D01*
X26469025Y-42610170D01*
X26469027Y-42610173D01*
X26516492Y-42650000D01*
X26559662Y-42686224D01*
X26670842Y-42726690D01*
X26789158Y-42726690D01*
X26900338Y-42686224D01*
X26990973Y-42610172D01*
X27021692Y-42556965D01*
X27050130Y-42507710D01*
X27050130Y-42507709D01*
X27050131Y-42507708D01*
X27070676Y-42391190D01*
X27050131Y-42274672D01*
X27050130Y-42274670D01*
X27050130Y-42274669D01*
X26990974Y-42172209D01*
X26990972Y-42172206D01*
X26900338Y-42096156D01*
X26882930Y-42089820D01*
X26855280Y-42064483D01*
X26853644Y-42027016D01*
X26878981Y-41999366D01*
X26882931Y-41997730D01*
X26890338Y-41995034D01*
X26980972Y-41918983D01*
X26980974Y-41918980D01*
X26997118Y-41891019D01*
X27040131Y-41816518D01*
X27060676Y-41700000D01*
X27040131Y-41583482D01*
X27040130Y-41583480D01*
X27040130Y-41583479D01*
X26980974Y-41481019D01*
X26980972Y-41481016D01*
X26890338Y-41404966D01*
X26779158Y-41364500D01*
X26660842Y-41364500D01*
X26549661Y-41404966D01*
X26459027Y-41481016D01*
X26459025Y-41481019D01*
X26399869Y-41583479D01*
X26379324Y-41700000D01*
X25450500Y-41700000D01*
X25450500Y-41164998D01*
X28274326Y-41164998D01*
X28294871Y-41281518D01*
X28354027Y-41383978D01*
X28354029Y-41383981D01*
X28425812Y-41444213D01*
X28444664Y-41460032D01*
X28555844Y-41500498D01*
X28674160Y-41500498D01*
X28785340Y-41460032D01*
X28875975Y-41383980D01*
X28918773Y-41309852D01*
X28935132Y-41281518D01*
X28935132Y-41281517D01*
X28935133Y-41281516D01*
X28955678Y-41164998D01*
X28935133Y-41048480D01*
X28935132Y-41048478D01*
X28935132Y-41048477D01*
X28875976Y-40946017D01*
X28875974Y-40946014D01*
X28785340Y-40869964D01*
X28674160Y-40829498D01*
X28555844Y-40829498D01*
X28444663Y-40869964D01*
X28354029Y-40946014D01*
X28354027Y-40946017D01*
X28294871Y-41048477D01*
X28274326Y-41164998D01*
X25450500Y-41164998D01*
X25450500Y-40810000D01*
X26130096Y-40810000D01*
X26142618Y-40881019D01*
X26147580Y-40909156D01*
X26197919Y-40996345D01*
X26197920Y-40996346D01*
X26197921Y-40996347D01*
X26275048Y-41061064D01*
X26369659Y-41095500D01*
X26470341Y-41095500D01*
X26564952Y-41061064D01*
X26642079Y-40996347D01*
X26692421Y-40909153D01*
X26709904Y-40810000D01*
X26692421Y-40710847D01*
X26684503Y-40697132D01*
X26642080Y-40623654D01*
X26564952Y-40558936D01*
X26564950Y-40558935D01*
X26470341Y-40524500D01*
X26369659Y-40524500D01*
X26275049Y-40558935D01*
X26275047Y-40558936D01*
X26197919Y-40623654D01*
X26147580Y-40710843D01*
X26147579Y-40710846D01*
X26147579Y-40710847D01*
X26130096Y-40810000D01*
X25450500Y-40810000D01*
X25450500Y-37771580D01*
X25464852Y-37736932D01*
X25499500Y-37722580D01*
X25530997Y-37734044D01*
X25537919Y-37739852D01*
X25570500Y-37767191D01*
X25681680Y-37807657D01*
X25799996Y-37807657D01*
X25911176Y-37767191D01*
X25994379Y-37697375D01*
X26001810Y-37691140D01*
X26001812Y-37691137D01*
X26060968Y-37588677D01*
X26060968Y-37588676D01*
X26060969Y-37588675D01*
X26081514Y-37472157D01*
X26060969Y-37355639D01*
X26060968Y-37355637D01*
X26060968Y-37355636D01*
X26001812Y-37253176D01*
X26001808Y-37253171D01*
X25957329Y-37215849D01*
X25940011Y-37182584D01*
X25951289Y-37146817D01*
X25957329Y-37140777D01*
X26030970Y-37078985D01*
X26030971Y-37078983D01*
X26030973Y-37078982D01*
X26090131Y-36976518D01*
X26110676Y-36860000D01*
X26090131Y-36743482D01*
X26090130Y-36743480D01*
X26090130Y-36743479D01*
X26030974Y-36641019D01*
X26030972Y-36641016D01*
X25940338Y-36564966D01*
X25829158Y-36524500D01*
X25710842Y-36524500D01*
X25599659Y-36564966D01*
X25530996Y-36622582D01*
X25495229Y-36633860D01*
X25461964Y-36616542D01*
X25450500Y-36585046D01*
X25450500Y-36299500D01*
X25464852Y-36264852D01*
X25499500Y-36250500D01*
X27215062Y-36250500D01*
X27249710Y-36264852D01*
G37*
G04 #@! TD.AperFunction*
G04 #@! TA.AperFunction,Conductor*
G36*
X31815291Y-36264852D02*
G01*
X31829643Y-36299500D01*
X31823078Y-36324000D01*
X31807580Y-36350843D01*
X31807579Y-36350846D01*
X31807579Y-36350847D01*
X31790096Y-36450000D01*
X31807578Y-36549150D01*
X31807580Y-36549156D01*
X31857919Y-36636345D01*
X31857920Y-36636346D01*
X31857921Y-36636347D01*
X31935047Y-36701063D01*
X31935050Y-36701065D01*
X31951101Y-36706907D01*
X31978752Y-36732243D01*
X31980388Y-36769710D01*
X31968991Y-36787600D01*
X31449478Y-37307113D01*
X31414830Y-37321465D01*
X31380182Y-37307113D01*
X31372394Y-37296963D01*
X31361808Y-37278626D01*
X31356914Y-37241444D01*
X31374717Y-37218244D01*
X31373141Y-37216366D01*
X31453551Y-37148894D01*
X31453553Y-37148891D01*
X31503894Y-37061699D01*
X31521377Y-36962546D01*
X31503894Y-36863393D01*
X31467751Y-36800792D01*
X31453553Y-36776200D01*
X31405731Y-36736073D01*
X31376425Y-36711482D01*
X31376423Y-36711481D01*
X31281814Y-36677046D01*
X31181132Y-36677046D01*
X31086522Y-36711481D01*
X31086520Y-36711482D01*
X31009392Y-36776200D01*
X30959053Y-36863389D01*
X30959052Y-36863392D01*
X30959052Y-36863393D01*
X30941569Y-36962546D01*
X30959052Y-37061699D01*
X30959052Y-37061700D01*
X30959053Y-37061701D01*
X30974659Y-37088732D01*
X30979554Y-37125914D01*
X30961770Y-37149140D01*
X30963328Y-37150996D01*
X30882915Y-37218470D01*
X30832575Y-37305660D01*
X30832574Y-37305663D01*
X30828228Y-37330311D01*
X30808077Y-37361940D01*
X30773736Y-37369552D01*
X30773736Y-37369701D01*
X30773065Y-37369701D01*
X30771463Y-37370056D01*
X30771462Y-37370056D01*
X30769449Y-37369701D01*
X30668767Y-37369701D01*
X30574158Y-37404136D01*
X30574153Y-37404139D01*
X30558061Y-37417641D01*
X30522294Y-37428917D01*
X30489029Y-37411599D01*
X30487013Y-37408719D01*
X30485392Y-37406788D01*
X30482231Y-37404136D01*
X30408264Y-37342070D01*
X30408262Y-37342069D01*
X30313653Y-37307634D01*
X30301832Y-37307634D01*
X30267184Y-37293282D01*
X30252832Y-37258634D01*
X30267184Y-37223986D01*
X30270335Y-37221098D01*
X30279415Y-37213479D01*
X30327078Y-37173485D01*
X30377420Y-37086291D01*
X30394903Y-36987138D01*
X30377420Y-36887985D01*
X30363222Y-36863393D01*
X30327079Y-36800792D01*
X30311357Y-36787600D01*
X30249951Y-36736074D01*
X30249949Y-36736073D01*
X30155340Y-36701638D01*
X30054658Y-36701638D01*
X29960048Y-36736073D01*
X29960046Y-36736074D01*
X29882918Y-36800792D01*
X29832579Y-36887981D01*
X29832578Y-36887984D01*
X29832578Y-36887985D01*
X29815095Y-36987138D01*
X29831289Y-37078982D01*
X29832579Y-37086294D01*
X29882918Y-37173483D01*
X29882919Y-37173484D01*
X29882920Y-37173485D01*
X29960047Y-37238202D01*
X30054658Y-37272638D01*
X30066479Y-37272638D01*
X30101127Y-37286990D01*
X30115479Y-37321638D01*
X30101127Y-37356286D01*
X30097976Y-37359174D01*
X30041231Y-37406788D01*
X29990891Y-37493978D01*
X29990890Y-37493982D01*
X29982566Y-37541188D01*
X29962416Y-37572818D01*
X29925802Y-37580934D01*
X29899663Y-37567327D01*
X29137411Y-36805075D01*
X29123059Y-36770427D01*
X29137411Y-36735779D01*
X29140563Y-36732891D01*
X29180970Y-36698985D01*
X29180971Y-36698983D01*
X29180973Y-36698982D01*
X29228570Y-36616542D01*
X29240130Y-36596520D01*
X29240130Y-36596519D01*
X29240131Y-36596518D01*
X29260676Y-36480000D01*
X29240131Y-36363482D01*
X29240130Y-36363480D01*
X29240130Y-36363479D01*
X29217336Y-36324000D01*
X29212441Y-36286818D01*
X29235271Y-36257065D01*
X29259771Y-36250500D01*
X31780643Y-36250500D01*
X31815291Y-36264852D01*
G37*
G04 #@! TD.AperFunction*
G04 #@! TD*
M02*
