G04 #@! TF.GenerationSoftware,KiCad,Pcbnew,8.0.8*
G04 #@! TF.CreationDate,2025-01-23T17:47:37-05:00*
G04 #@! TF.ProjectId,panel,70616e65-6c2e-46b6-9963-61645f706362,rev?*
G04 #@! TF.SameCoordinates,Original*
G04 #@! TF.FileFunction,Paste,Top*
G04 #@! TF.FilePolarity,Positive*
%FSLAX46Y46*%
G04 Gerber Fmt 4.6, Leading zero omitted, Abs format (unit mm)*
G04 Created by KiCad (PCBNEW 8.0.8) date 2025-01-23 17:47:37*
%MOMM*%
%LPD*%
G01*
G04 APERTURE LIST*
G04 Aperture macros list*
%AMRoundRect*
0 Rectangle with rounded corners*
0 $1 Rounding radius*
0 $2 $3 $4 $5 $6 $7 $8 $9 X,Y pos of 4 corners*
0 Add a 4 corners polygon primitive as box body*
4,1,4,$2,$3,$4,$5,$6,$7,$8,$9,$2,$3,0*
0 Add four circle primitives for the rounded corners*
1,1,$1+$1,$2,$3*
1,1,$1+$1,$4,$5*
1,1,$1+$1,$6,$7*
1,1,$1+$1,$8,$9*
0 Add four rect primitives between the rounded corners*
20,1,$1+$1,$2,$3,$4,$5,0*
20,1,$1+$1,$4,$5,$6,$7,0*
20,1,$1+$1,$6,$7,$8,$9,0*
20,1,$1+$1,$8,$9,$2,$3,0*%
G04 Aperture macros list end*
%ADD10R,0.700000X0.300000*%
%ADD11R,1.000000X1.700000*%
%ADD12RoundRect,0.079500X0.100500X-0.079500X0.100500X0.079500X-0.100500X0.079500X-0.100500X-0.079500X0*%
%ADD13RoundRect,0.079500X-0.100500X0.079500X-0.100500X-0.079500X0.100500X-0.079500X0.100500X0.079500X0*%
%ADD14R,0.400000X0.250000*%
%ADD15R,0.400000X0.700000*%
%ADD16RoundRect,0.225000X-0.250000X0.225000X-0.250000X-0.225000X0.250000X-0.225000X0.250000X0.225000X0*%
%ADD17RoundRect,0.079500X-0.079500X-0.100500X0.079500X-0.100500X0.079500X0.100500X-0.079500X0.100500X0*%
%ADD18RoundRect,0.150000X0.150000X-0.512500X0.150000X0.512500X-0.150000X0.512500X-0.150000X-0.512500X0*%
%ADD19RoundRect,0.250000X-0.375000X-0.850000X0.375000X-0.850000X0.375000X0.850000X-0.375000X0.850000X0*%
%ADD20R,0.250000X0.400000*%
%ADD21R,0.700000X0.400000*%
%ADD22RoundRect,0.147500X-0.147500X-0.172500X0.147500X-0.172500X0.147500X0.172500X-0.147500X0.172500X0*%
%ADD23RoundRect,0.100000X-0.100000X0.225000X-0.100000X-0.225000X0.100000X-0.225000X0.100000X0.225000X0*%
%ADD24RoundRect,0.079500X0.079500X0.100500X-0.079500X0.100500X-0.079500X-0.100500X0.079500X-0.100500X0*%
%ADD25RoundRect,0.147500X0.172500X-0.147500X0.172500X0.147500X-0.172500X0.147500X-0.172500X-0.147500X0*%
%ADD26RoundRect,0.250000X-0.650000X0.325000X-0.650000X-0.325000X0.650000X-0.325000X0.650000X0.325000X0*%
%ADD27RoundRect,0.050000X-0.250000X0.100000X-0.250000X-0.100000X0.250000X-0.100000X0.250000X0.100000X0*%
%ADD28R,1.000000X1.400000*%
%ADD29R,0.550000X0.500000*%
%ADD30R,2.020000X1.200000*%
%ADD31R,0.630000X0.550000*%
%ADD32R,0.870000X1.400000*%
%ADD33RoundRect,0.050000X0.250000X-0.100000X0.250000X0.100000X-0.250000X0.100000X-0.250000X-0.100000X0*%
G04 APERTURE END LIST*
D10*
G04 #@! TO.C,U4*
X31670000Y-41210000D03*
X31670000Y-41710000D03*
X31670000Y-42210000D03*
X31670000Y-42710000D03*
X33770000Y-42710000D03*
X33770000Y-42210000D03*
X33770000Y-41710000D03*
X33770000Y-41210000D03*
D11*
X32720000Y-41960000D03*
G04 #@! TD*
D12*
G04 #@! TO.C,R9*
X44160000Y-39775000D03*
X44160000Y-39085000D03*
G04 #@! TD*
D13*
G04 #@! TO.C,C13*
X40980000Y-32785000D03*
X40980000Y-33475000D03*
G04 #@! TD*
D14*
G04 #@! TO.C,Q6*
X28630000Y-44195000D03*
X28630000Y-43745000D03*
D15*
X27930000Y-43970000D03*
G04 #@! TD*
D16*
G04 #@! TO.C,C9*
X43080000Y-50035000D03*
X43080000Y-51585000D03*
G04 #@! TD*
D12*
G04 #@! TO.C,C20*
X29580000Y-26545000D03*
X29580000Y-25855000D03*
G04 #@! TD*
D14*
G04 #@! TO.C,Q4*
X33120000Y-37455000D03*
X33120000Y-37905000D03*
D15*
X33820000Y-37680000D03*
G04 #@! TD*
D17*
G04 #@! TO.C,C21*
X30715000Y-25850000D03*
X31405000Y-25850000D03*
G04 #@! TD*
D12*
G04 #@! TO.C,C6*
X39730000Y-17365000D03*
X39730000Y-16675000D03*
G04 #@! TD*
G04 #@! TO.C,R14*
X30630000Y-22945000D03*
X30630000Y-22255000D03*
G04 #@! TD*
D17*
G04 #@! TO.C,C21*
X30715000Y-36450000D03*
X31405000Y-36450000D03*
G04 #@! TD*
D18*
G04 #@! TO.C,U2*
X39670000Y-52717500D03*
X40620000Y-52717500D03*
X41570000Y-52717500D03*
X41570000Y-50442500D03*
X40620000Y-50442500D03*
X39670000Y-50442500D03*
G04 #@! TD*
D19*
G04 #@! TO.C,L1*
X40955000Y-16180000D03*
X43105000Y-16180000D03*
G04 #@! TD*
D12*
G04 #@! TO.C,R12*
X29930000Y-33545000D03*
X29930000Y-32855000D03*
G04 #@! TD*
D20*
G04 #@! TO.C,Q1*
X26265000Y-38740000D03*
X26715000Y-38740000D03*
D21*
X26490000Y-38040000D03*
G04 #@! TD*
D22*
G04 #@! TO.C,FB2*
X29015000Y-48780000D03*
X29985000Y-48780000D03*
G04 #@! TD*
D13*
G04 #@! TO.C,C13*
X40980000Y-53985000D03*
X40980000Y-54675000D03*
G04 #@! TD*
D12*
G04 #@! TO.C,R17*
X35330000Y-26545000D03*
X35330000Y-25855000D03*
G04 #@! TD*
G04 #@! TO.C,C3*
X44350000Y-48605000D03*
X44350000Y-47915000D03*
G04 #@! TD*
D14*
G04 #@! TO.C,Q2*
X32130000Y-33625000D03*
X32130000Y-33175000D03*
D15*
X31430000Y-33400000D03*
G04 #@! TD*
D12*
G04 #@! TO.C,R13*
X30630000Y-53325000D03*
X30630000Y-52635000D03*
G04 #@! TD*
G04 #@! TO.C,R11*
X29920000Y-42725000D03*
X29920000Y-42035000D03*
G04 #@! TD*
D23*
G04 #@! TO.C,U6*
X37730000Y-36840000D03*
X37080000Y-36840000D03*
X36430000Y-36840000D03*
X36430000Y-38740000D03*
X37730000Y-38740000D03*
G04 #@! TD*
D16*
G04 #@! TO.C,C9*
X43080000Y-39435000D03*
X43080000Y-40985000D03*
G04 #@! TD*
D20*
G04 #@! TO.C,Q7*
X29965000Y-51000000D03*
X30415000Y-51000000D03*
D21*
X30190000Y-50300000D03*
G04 #@! TD*
D13*
G04 #@! TO.C,C17*
X39030000Y-47065000D03*
X39030000Y-47755000D03*
G04 #@! TD*
D24*
G04 #@! TO.C,R1*
X26915000Y-15320000D03*
X26225000Y-15320000D03*
G04 #@! TD*
D13*
G04 #@! TO.C,R16*
X34630000Y-15255000D03*
X34630000Y-15945000D03*
G04 #@! TD*
D10*
G04 #@! TO.C,U4*
X31670000Y-30610000D03*
X31670000Y-31110000D03*
X31670000Y-31610000D03*
X31670000Y-32110000D03*
X33770000Y-32110000D03*
X33770000Y-31610000D03*
X33770000Y-31110000D03*
X33770000Y-30610000D03*
D11*
X32720000Y-31360000D03*
G04 #@! TD*
D19*
G04 #@! TO.C,L1*
X40955000Y-47980000D03*
X43105000Y-47980000D03*
G04 #@! TD*
D12*
G04 #@! TO.C,R12*
X29930000Y-44145000D03*
X29930000Y-43455000D03*
G04 #@! TD*
D13*
G04 #@! TO.C,C2*
X41680000Y-43385000D03*
X41680000Y-44075000D03*
G04 #@! TD*
D12*
G04 #@! TO.C,R17*
X35330000Y-47745000D03*
X35330000Y-47055000D03*
G04 #@! TD*
G04 #@! TO.C,R14*
X30630000Y-54745000D03*
X30630000Y-54055000D03*
G04 #@! TD*
G04 #@! TO.C,R13*
X30630000Y-42725000D03*
X30630000Y-42035000D03*
G04 #@! TD*
D16*
G04 #@! TO.C,C9*
X43080000Y-28835000D03*
X43080000Y-30385000D03*
G04 #@! TD*
D13*
G04 #@! TO.C,R15*
X42680000Y-42045000D03*
X42680000Y-42735000D03*
G04 #@! TD*
D19*
G04 #@! TO.C,L1*
X40955000Y-37380000D03*
X43105000Y-37380000D03*
G04 #@! TD*
D13*
G04 #@! TO.C,R15*
X42680000Y-31445000D03*
X42680000Y-32135000D03*
G04 #@! TD*
G04 #@! TO.C,C19*
X35020000Y-31275000D03*
X35020000Y-31965000D03*
G04 #@! TD*
D14*
G04 #@! TO.C,Q2*
X32130000Y-54825000D03*
X32130000Y-54375000D03*
D15*
X31430000Y-54600000D03*
G04 #@! TD*
D13*
G04 #@! TO.C,C5*
X39030000Y-16665000D03*
X39030000Y-17355000D03*
G04 #@! TD*
D25*
G04 #@! TO.C,FB1*
X28060000Y-37518126D03*
X28060000Y-36548126D03*
G04 #@! TD*
D24*
G04 #@! TO.C,C16*
X33505000Y-47050000D03*
X32815000Y-47050000D03*
G04 #@! TD*
D13*
G04 #@! TO.C,C13*
X40980000Y-22185000D03*
X40980000Y-22875000D03*
G04 #@! TD*
G04 #@! TO.C,C13*
X40980000Y-43385000D03*
X40980000Y-44075000D03*
G04 #@! TD*
D24*
G04 #@! TO.C,C16*
X33505000Y-15250000D03*
X32815000Y-15250000D03*
G04 #@! TD*
D14*
G04 #@! TO.C,Q3*
X26390000Y-54800000D03*
X26390000Y-54350000D03*
D15*
X25690000Y-54575000D03*
G04 #@! TD*
D12*
G04 #@! TO.C,R4*
X32110000Y-26545000D03*
X32110000Y-25855000D03*
G04 #@! TD*
D14*
G04 #@! TO.C,Q3*
X26390000Y-23000000D03*
X26390000Y-22550000D03*
D15*
X25690000Y-22775000D03*
G04 #@! TD*
D10*
G04 #@! TO.C,U4*
X31670000Y-51810000D03*
X31670000Y-52310000D03*
X31670000Y-52810000D03*
X31670000Y-53310000D03*
X33770000Y-53310000D03*
X33770000Y-52810000D03*
X33770000Y-52310000D03*
X33770000Y-51810000D03*
D11*
X32720000Y-52560000D03*
G04 #@! TD*
D26*
G04 #@! TO.C,C18*
X37770000Y-50945000D03*
X37770000Y-53895000D03*
G04 #@! TD*
D27*
G04 #@! TO.C,D4*
X33110000Y-18010000D03*
X33110000Y-18710000D03*
G04 #@! TD*
D10*
G04 #@! TO.C,U4*
X31670000Y-20010000D03*
X31670000Y-20510000D03*
X31670000Y-21010000D03*
X31670000Y-21510000D03*
X33770000Y-21510000D03*
X33770000Y-21010000D03*
X33770000Y-20510000D03*
X33770000Y-20010000D03*
D11*
X32720000Y-20760000D03*
G04 #@! TD*
D24*
G04 #@! TO.C,C15*
X30615000Y-30600000D03*
X29925000Y-30600000D03*
G04 #@! TD*
G04 #@! TO.C,R1*
X26915000Y-36520000D03*
X26225000Y-36520000D03*
G04 #@! TD*
D25*
G04 #@! TO.C,FB1*
X28060000Y-48118126D03*
X28060000Y-47148126D03*
G04 #@! TD*
D13*
G04 #@! TO.C,C2*
X41680000Y-53985000D03*
X41680000Y-54675000D03*
G04 #@! TD*
D23*
G04 #@! TO.C,U6*
X37730000Y-26240000D03*
X37080000Y-26240000D03*
X36430000Y-26240000D03*
X36430000Y-28140000D03*
X37730000Y-28140000D03*
G04 #@! TD*
D18*
G04 #@! TO.C,U2*
X39670000Y-42117500D03*
X40620000Y-42117500D03*
X41570000Y-42117500D03*
X41570000Y-39842500D03*
X40620000Y-39842500D03*
X39670000Y-39842500D03*
G04 #@! TD*
D14*
G04 #@! TO.C,Q2*
X32130000Y-23025000D03*
X32130000Y-22575000D03*
D15*
X31430000Y-22800000D03*
G04 #@! TD*
D28*
G04 #@! TO.C,D1*
X27770000Y-20770000D03*
D29*
X28520000Y-20720000D03*
X28520000Y-19420000D03*
D30*
X27260000Y-19320000D03*
D31*
X25785000Y-19420000D03*
D32*
X26640000Y-20770000D03*
D31*
X25785000Y-20720000D03*
G04 #@! TD*
D24*
G04 #@! TO.C,C16*
X33505000Y-25850000D03*
X32815000Y-25850000D03*
G04 #@! TD*
D13*
G04 #@! TO.C,C5*
X39030000Y-48465000D03*
X39030000Y-49155000D03*
G04 #@! TD*
D16*
G04 #@! TO.C,C9*
X43080000Y-18235000D03*
X43080000Y-19785000D03*
G04 #@! TD*
D26*
G04 #@! TO.C,C18*
X37770000Y-19145000D03*
X37770000Y-22095000D03*
G04 #@! TD*
D13*
G04 #@! TO.C,C17*
X39030000Y-15265000D03*
X39030000Y-15955000D03*
G04 #@! TD*
D12*
G04 #@! TO.C,C22*
X28880000Y-47745000D03*
X28880000Y-47055000D03*
G04 #@! TD*
D17*
G04 #@! TO.C,C21*
X30715000Y-47050000D03*
X31405000Y-47050000D03*
G04 #@! TD*
D19*
G04 #@! TO.C,L1*
X40955000Y-26780000D03*
X43105000Y-26780000D03*
G04 #@! TD*
D12*
G04 #@! TO.C,C6*
X39730000Y-38565000D03*
X39730000Y-37875000D03*
G04 #@! TD*
G04 #@! TO.C,C3*
X44350000Y-16805000D03*
X44350000Y-16115000D03*
G04 #@! TD*
D13*
G04 #@! TO.C,C5*
X39030000Y-37865000D03*
X39030000Y-38555000D03*
G04 #@! TD*
D12*
G04 #@! TO.C,R3*
X30920000Y-38885000D03*
X30920000Y-38195000D03*
G04 #@! TD*
D13*
G04 #@! TO.C,R15*
X42680000Y-20845000D03*
X42680000Y-21535000D03*
G04 #@! TD*
D12*
G04 #@! TO.C,C3*
X44350000Y-38005000D03*
X44350000Y-37315000D03*
G04 #@! TD*
D22*
G04 #@! TO.C,FB2*
X29015000Y-38180000D03*
X29985000Y-38180000D03*
G04 #@! TD*
D12*
G04 #@! TO.C,C20*
X29580000Y-15945000D03*
X29580000Y-15255000D03*
G04 #@! TD*
D13*
G04 #@! TO.C,C7*
X40280000Y-43385000D03*
X40280000Y-44075000D03*
G04 #@! TD*
D28*
G04 #@! TO.C,D1*
X27770000Y-41970000D03*
D29*
X28520000Y-41920000D03*
X28520000Y-40620000D03*
D30*
X27260000Y-40520000D03*
D31*
X25785000Y-40620000D03*
D32*
X26640000Y-41970000D03*
D31*
X25785000Y-41920000D03*
G04 #@! TD*
D24*
G04 #@! TO.C,R2*
X26935000Y-37220000D03*
X26245000Y-37220000D03*
G04 #@! TD*
D25*
G04 #@! TO.C,D2*
X44020000Y-32505000D03*
X44020000Y-31535000D03*
G04 #@! TD*
D14*
G04 #@! TO.C,Q3*
X26390000Y-33600000D03*
X26390000Y-33150000D03*
D15*
X25690000Y-33375000D03*
G04 #@! TD*
D13*
G04 #@! TO.C,C17*
X39030000Y-25865000D03*
X39030000Y-26555000D03*
G04 #@! TD*
D12*
G04 #@! TO.C,R12*
X29930000Y-54745000D03*
X29930000Y-54055000D03*
G04 #@! TD*
D13*
G04 #@! TO.C,C19*
X35020000Y-52475000D03*
X35020000Y-53165000D03*
G04 #@! TD*
G04 #@! TO.C,R16*
X34630000Y-36455000D03*
X34630000Y-37145000D03*
G04 #@! TD*
D26*
G04 #@! TO.C,C18*
X37770000Y-29745000D03*
X37770000Y-32695000D03*
G04 #@! TD*
D14*
G04 #@! TO.C,Q4*
X33120000Y-48055000D03*
X33120000Y-48505000D03*
D15*
X33820000Y-48280000D03*
G04 #@! TD*
D12*
G04 #@! TO.C,R9*
X44160000Y-50375000D03*
X44160000Y-49685000D03*
G04 #@! TD*
G04 #@! TO.C,R9*
X44160000Y-18575000D03*
X44160000Y-17885000D03*
G04 #@! TD*
D24*
G04 #@! TO.C,C15*
X30615000Y-41200000D03*
X29925000Y-41200000D03*
G04 #@! TD*
D12*
G04 #@! TO.C,R11*
X29920000Y-53325000D03*
X29920000Y-52635000D03*
G04 #@! TD*
G04 #@! TO.C,R14*
X30630000Y-44145000D03*
X30630000Y-43455000D03*
G04 #@! TD*
G04 #@! TO.C,C22*
X28880000Y-37145000D03*
X28880000Y-36455000D03*
G04 #@! TD*
D25*
G04 #@! TO.C,FB1*
X28060000Y-26918126D03*
X28060000Y-25948126D03*
G04 #@! TD*
D24*
G04 #@! TO.C,R1*
X26915000Y-25920000D03*
X26225000Y-25920000D03*
G04 #@! TD*
D26*
G04 #@! TO.C,C18*
X37770000Y-40345000D03*
X37770000Y-43295000D03*
G04 #@! TD*
D12*
G04 #@! TO.C,R17*
X35330000Y-37145000D03*
X35330000Y-36455000D03*
G04 #@! TD*
D13*
G04 #@! TO.C,C19*
X35020000Y-41875000D03*
X35020000Y-42565000D03*
G04 #@! TD*
D23*
G04 #@! TO.C,U6*
X37730000Y-15640000D03*
X37080000Y-15640000D03*
X36430000Y-15640000D03*
X36430000Y-17540000D03*
X37730000Y-17540000D03*
G04 #@! TD*
D13*
G04 #@! TO.C,C7*
X40280000Y-22185000D03*
X40280000Y-22875000D03*
G04 #@! TD*
G04 #@! TO.C,C7*
X40280000Y-32785000D03*
X40280000Y-33475000D03*
G04 #@! TD*
D25*
G04 #@! TO.C,D2*
X44020000Y-21905000D03*
X44020000Y-20935000D03*
G04 #@! TD*
D13*
G04 #@! TO.C,C19*
X35020000Y-20675000D03*
X35020000Y-21365000D03*
G04 #@! TD*
D20*
G04 #@! TO.C,Q7*
X29965000Y-40400000D03*
X30415000Y-40400000D03*
D21*
X30190000Y-39700000D03*
G04 #@! TD*
D14*
G04 #@! TO.C,Q3*
X26390000Y-44200000D03*
X26390000Y-43750000D03*
D15*
X25690000Y-43975000D03*
G04 #@! TD*
D20*
G04 #@! TO.C,Q7*
X29965000Y-29800000D03*
X30415000Y-29800000D03*
D21*
X30190000Y-29100000D03*
G04 #@! TD*
D33*
G04 #@! TO.C,D3*
X34630000Y-51309999D03*
X34630000Y-50610001D03*
G04 #@! TD*
D14*
G04 #@! TO.C,Q4*
X33120000Y-26855000D03*
X33120000Y-27305000D03*
D15*
X33820000Y-27080000D03*
G04 #@! TD*
D12*
G04 #@! TO.C,R3*
X30920000Y-28285000D03*
X30920000Y-27595000D03*
G04 #@! TD*
D23*
G04 #@! TO.C,U6*
X37730000Y-47440000D03*
X37080000Y-47440000D03*
X36430000Y-47440000D03*
X36430000Y-49340000D03*
X37730000Y-49340000D03*
G04 #@! TD*
D13*
G04 #@! TO.C,C7*
X40280000Y-53985000D03*
X40280000Y-54675000D03*
G04 #@! TD*
G04 #@! TO.C,C2*
X41680000Y-32785000D03*
X41680000Y-33475000D03*
G04 #@! TD*
D27*
G04 #@! TO.C,D4*
X33110000Y-39210000D03*
X33110000Y-39910000D03*
G04 #@! TD*
D12*
G04 #@! TO.C,C20*
X29580000Y-37145000D03*
X29580000Y-36455000D03*
G04 #@! TD*
D20*
G04 #@! TO.C,Q1*
X26265000Y-17540000D03*
X26715000Y-17540000D03*
D21*
X26490000Y-16840000D03*
G04 #@! TD*
D13*
G04 #@! TO.C,C17*
X39030000Y-36465000D03*
X39030000Y-37155000D03*
G04 #@! TD*
D24*
G04 #@! TO.C,C16*
X33505000Y-36450000D03*
X32815000Y-36450000D03*
G04 #@! TD*
D28*
G04 #@! TO.C,D1*
X27770000Y-31370000D03*
D29*
X28520000Y-31320000D03*
X28520000Y-30020000D03*
D30*
X27260000Y-29920000D03*
D31*
X25785000Y-30020000D03*
D32*
X26640000Y-31370000D03*
D31*
X25785000Y-31320000D03*
G04 #@! TD*
D20*
G04 #@! TO.C,Q1*
X26265000Y-49340000D03*
X26715000Y-49340000D03*
D21*
X26490000Y-48640000D03*
G04 #@! TD*
D25*
G04 #@! TO.C,FB1*
X28060000Y-16318126D03*
X28060000Y-15348126D03*
G04 #@! TD*
D22*
G04 #@! TO.C,FB2*
X29015000Y-27580000D03*
X29985000Y-27580000D03*
G04 #@! TD*
D12*
G04 #@! TO.C,R13*
X30630000Y-21525000D03*
X30630000Y-20835000D03*
G04 #@! TD*
D20*
G04 #@! TO.C,Q1*
X26265000Y-28140000D03*
X26715000Y-28140000D03*
D21*
X26490000Y-27440000D03*
G04 #@! TD*
D12*
G04 #@! TO.C,C22*
X28880000Y-15945000D03*
X28880000Y-15255000D03*
G04 #@! TD*
D33*
G04 #@! TO.C,D3*
X34630000Y-40709999D03*
X34630000Y-40010001D03*
G04 #@! TD*
D24*
G04 #@! TO.C,R2*
X26935000Y-26620000D03*
X26245000Y-26620000D03*
G04 #@! TD*
D12*
G04 #@! TO.C,R11*
X29920000Y-21525000D03*
X29920000Y-20835000D03*
G04 #@! TD*
G04 #@! TO.C,C20*
X29580000Y-47745000D03*
X29580000Y-47055000D03*
G04 #@! TD*
D13*
G04 #@! TO.C,C5*
X39030000Y-27265000D03*
X39030000Y-27955000D03*
G04 #@! TD*
D25*
G04 #@! TO.C,D2*
X44020000Y-43105000D03*
X44020000Y-42135000D03*
G04 #@! TD*
D20*
G04 #@! TO.C,Q7*
X29965000Y-19200000D03*
X30415000Y-19200000D03*
D21*
X30190000Y-18500000D03*
G04 #@! TD*
D33*
G04 #@! TO.C,D3*
X34630000Y-19509999D03*
X34630000Y-18810001D03*
G04 #@! TD*
D12*
G04 #@! TO.C,R3*
X30920000Y-49485000D03*
X30920000Y-48795000D03*
G04 #@! TD*
G04 #@! TO.C,R4*
X32110000Y-15945000D03*
X32110000Y-15255000D03*
G04 #@! TD*
G04 #@! TO.C,R13*
X30630000Y-32125000D03*
X30630000Y-31435000D03*
G04 #@! TD*
D14*
G04 #@! TO.C,Q6*
X28630000Y-33595000D03*
X28630000Y-33145000D03*
D15*
X27930000Y-33370000D03*
G04 #@! TD*
D13*
G04 #@! TO.C,C2*
X41680000Y-22185000D03*
X41680000Y-22875000D03*
G04 #@! TD*
D12*
G04 #@! TO.C,R11*
X29920000Y-32125000D03*
X29920000Y-31435000D03*
G04 #@! TD*
D25*
G04 #@! TO.C,D2*
X44020000Y-53705000D03*
X44020000Y-52735000D03*
G04 #@! TD*
D12*
G04 #@! TO.C,R9*
X44160000Y-29175000D03*
X44160000Y-28485000D03*
G04 #@! TD*
G04 #@! TO.C,C3*
X44350000Y-27405000D03*
X44350000Y-26715000D03*
G04 #@! TD*
G04 #@! TO.C,C6*
X39730000Y-49165000D03*
X39730000Y-48475000D03*
G04 #@! TD*
D17*
G04 #@! TO.C,C21*
X30715000Y-15250000D03*
X31405000Y-15250000D03*
G04 #@! TD*
D14*
G04 #@! TO.C,Q6*
X28630000Y-54795000D03*
X28630000Y-54345000D03*
D15*
X27930000Y-54570000D03*
G04 #@! TD*
D14*
G04 #@! TO.C,Q6*
X28630000Y-22995000D03*
X28630000Y-22545000D03*
D15*
X27930000Y-22770000D03*
G04 #@! TD*
D27*
G04 #@! TO.C,D4*
X33110000Y-28610000D03*
X33110000Y-29310000D03*
G04 #@! TD*
D18*
G04 #@! TO.C,U2*
X39670000Y-20917500D03*
X40620000Y-20917500D03*
X41570000Y-20917500D03*
X41570000Y-18642500D03*
X40620000Y-18642500D03*
X39670000Y-18642500D03*
G04 #@! TD*
D12*
G04 #@! TO.C,R4*
X32110000Y-47745000D03*
X32110000Y-47055000D03*
G04 #@! TD*
D24*
G04 #@! TO.C,R2*
X26935000Y-47820000D03*
X26245000Y-47820000D03*
G04 #@! TD*
D14*
G04 #@! TO.C,Q4*
X33120000Y-16255000D03*
X33120000Y-16705000D03*
D15*
X33820000Y-16480000D03*
G04 #@! TD*
D13*
G04 #@! TO.C,R16*
X34630000Y-47055000D03*
X34630000Y-47745000D03*
G04 #@! TD*
D27*
G04 #@! TO.C,D4*
X33110000Y-49810000D03*
X33110000Y-50510000D03*
G04 #@! TD*
D18*
G04 #@! TO.C,U2*
X39670000Y-31517500D03*
X40620000Y-31517500D03*
X41570000Y-31517500D03*
X41570000Y-29242500D03*
X40620000Y-29242500D03*
X39670000Y-29242500D03*
G04 #@! TD*
D33*
G04 #@! TO.C,D3*
X34630000Y-30109999D03*
X34630000Y-29410001D03*
G04 #@! TD*
D12*
G04 #@! TO.C,R3*
X30920000Y-17685000D03*
X30920000Y-16995000D03*
G04 #@! TD*
D13*
G04 #@! TO.C,R15*
X42680000Y-52645000D03*
X42680000Y-53335000D03*
G04 #@! TD*
D24*
G04 #@! TO.C,R2*
X26935000Y-16020000D03*
X26245000Y-16020000D03*
G04 #@! TD*
D12*
G04 #@! TO.C,R12*
X29930000Y-22945000D03*
X29930000Y-22255000D03*
G04 #@! TD*
D28*
G04 #@! TO.C,D1*
X27770000Y-52570000D03*
D29*
X28520000Y-52520000D03*
X28520000Y-51220000D03*
D30*
X27260000Y-51120000D03*
D31*
X25785000Y-51220000D03*
D32*
X26640000Y-52570000D03*
D31*
X25785000Y-52520000D03*
G04 #@! TD*
D13*
G04 #@! TO.C,R16*
X34630000Y-25855000D03*
X34630000Y-26545000D03*
G04 #@! TD*
D24*
G04 #@! TO.C,R1*
X26915000Y-47120000D03*
X26225000Y-47120000D03*
G04 #@! TD*
D22*
G04 #@! TO.C,FB2*
X29015000Y-16980000D03*
X29985000Y-16980000D03*
G04 #@! TD*
D12*
G04 #@! TO.C,C22*
X28880000Y-26545000D03*
X28880000Y-25855000D03*
G04 #@! TD*
D24*
G04 #@! TO.C,C15*
X30615000Y-20000000D03*
X29925000Y-20000000D03*
G04 #@! TD*
D12*
G04 #@! TO.C,R17*
X35330000Y-15945000D03*
X35330000Y-15255000D03*
G04 #@! TD*
D24*
G04 #@! TO.C,C15*
X30615000Y-51800000D03*
X29925000Y-51800000D03*
G04 #@! TD*
D12*
G04 #@! TO.C,C6*
X39730000Y-27965000D03*
X39730000Y-27275000D03*
G04 #@! TD*
G04 #@! TO.C,R4*
X32110000Y-37145000D03*
X32110000Y-36455000D03*
G04 #@! TD*
D14*
G04 #@! TO.C,Q2*
X32130000Y-44225000D03*
X32130000Y-43775000D03*
D15*
X31430000Y-44000000D03*
G04 #@! TD*
D12*
G04 #@! TO.C,R14*
X30630000Y-33545000D03*
X30630000Y-32855000D03*
G04 #@! TD*
M02*
