M48
; DRILL file {KiCad 8.0.8} date 2025-01-20T02:03:43-0500
; FORMAT={-:-/ absolute / metric / decimal}
; #@! TF.CreationDate,2025-01-20T02:03:43-05:00
; #@! TF.GenerationSoftware,Kicad,Pcbnew,8.0.8
; #@! TF.FileFunction,MixedPlating,1,4
FMAT,2
METRIC
; #@! TA.AperFunction,Plated,PTH,ViaDrill
T1C0.200
; #@! TA.AperFunction,Plated,PTH,ViaDrill
T2C0.300
; #@! TA.AperFunction,NonPlated,NPTH,ComponentDrill
T3C0.300
; #@! TA.AperFunction,NonPlated,NPTH,ComponentDrill
T4C1.152
%
G90
G05
T1
X25.69Y-22.775
X25.69Y-33.375
X25.69Y-43.975
X25.69Y-54.575
X26.42Y-19.61
X26.42Y-30.21
X26.42Y-40.81
X26.42Y-51.41
X26.51Y-18.265
X26.51Y-28.865
X26.51Y-39.465
X26.51Y-50.065
X26.911Y-17.091
X26.911Y-27.691
X26.911Y-38.291
X26.911Y-48.891
X26.97Y-22.96
X26.97Y-33.56
X26.97Y-44.16
X26.97Y-54.76
X26.97Y-18.264
X26.97Y-28.864
X26.97Y-39.464
X26.97Y-50.064
X27.315Y-17.51
X27.315Y-28.11
X27.315Y-38.71
X27.315Y-49.31
X27.42Y-16.44
X27.42Y-27.04
X27.42Y-37.64
X27.42Y-48.24
X27.425Y-15.36
X27.425Y-25.96
X27.425Y-36.56
X27.425Y-47.16
X27.431Y-16.9
X27.431Y-27.5
X27.431Y-38.1
X27.431Y-48.7
X27.93Y-22.94
X27.93Y-33.54
X27.93Y-44.14
X27.93Y-54.74
X28.1Y-15.345
X28.1Y-25.945
X28.1Y-36.545
X28.1Y-47.145
X28.218Y-17.165
X28.218Y-27.765
X28.218Y-38.365
X28.218Y-48.965
X28.5Y-17.62
X28.5Y-28.22
X28.5Y-38.82
X28.5Y-49.42
X28.63Y-22.975
X28.63Y-33.575
X28.63Y-44.175
X28.63Y-54.775
X29.05Y-22.23
X29.05Y-32.83
X29.05Y-43.43
X29.05Y-54.03
X29.92Y-21.946
X29.92Y-32.546
X29.92Y-43.146
X29.92Y-53.746
X29.945Y-22.975
X29.945Y-33.575
X29.945Y-44.175
X29.945Y-54.775
X30.105Y-15.787
X30.105Y-26.387
X30.105Y-36.987
X30.105Y-47.587
X30.263Y-16.393
X30.263Y-26.993
X30.263Y-37.593
X30.263Y-48.193
X30.465Y-19.905
X30.465Y-30.505
X30.465Y-41.105
X30.465Y-51.705
X30.63Y-15.274
X30.63Y-25.874
X30.63Y-36.474
X30.63Y-47.074
X30.63Y-22.105
X30.63Y-32.705
X30.63Y-43.305
X30.63Y-53.905
X30.719Y-16.455
X30.719Y-27.055
X30.719Y-37.655
X30.719Y-48.255
X31.105Y-16.205
X31.105Y-26.805
X31.105Y-37.405
X31.105Y-48.005
X31.15Y-22.715
X31.15Y-33.315
X31.15Y-43.915
X31.15Y-54.515
X31.231Y-15.763
X31.231Y-26.363
X31.231Y-36.963
X31.231Y-47.563
X32.08Y-15.25
X32.08Y-25.85
X32.08Y-36.45
X32.08Y-47.05
X32.12Y-21.85
X32.12Y-32.45
X32.12Y-43.05
X32.12Y-53.65
X32.215Y-17.818
X32.215Y-28.418
X32.215Y-39.018
X32.215Y-49.618
X32.249Y-17.275
X32.249Y-27.875
X32.249Y-38.475
X32.249Y-49.075
X32.751Y-17.09
X32.751Y-27.69
X32.751Y-38.29
X32.751Y-48.89
X32.792Y-17.883
X32.792Y-28.483
X32.792Y-39.083
X32.792Y-49.683
X32.84Y-15.25
X32.84Y-25.85
X32.84Y-36.45
X32.84Y-47.05
X33.031Y-17.49
X33.031Y-28.09
X33.031Y-38.69
X33.031Y-49.29
X33.04Y-18.27
X33.04Y-28.87
X33.04Y-39.47
X33.04Y-50.07
X33.36Y-22.715
X33.36Y-33.315
X33.36Y-43.915
X33.36Y-54.515
X33.49Y-15.25
X33.49Y-25.85
X33.49Y-36.45
X33.49Y-47.05
X33.728Y-17.15
X33.728Y-27.75
X33.728Y-38.35
X33.728Y-48.95
X34.143Y-16.796
X34.143Y-27.396
X34.143Y-37.996
X34.143Y-48.596
X34.175Y-22.09
X34.175Y-32.69
X34.175Y-43.29
X34.175Y-53.89
X34.49Y-20.78
X34.49Y-31.38
X34.49Y-41.98
X34.49Y-52.58
X34.49Y-21.3
X34.49Y-31.9
X34.49Y-42.5
X34.49Y-53.1
X34.55Y-17.01
X34.55Y-27.61
X34.55Y-38.21
X34.55Y-48.81
X34.57Y-22.4
X34.57Y-33.0
X34.57Y-43.6
X34.57Y-54.2
X34.935Y-16.71
X34.935Y-27.31
X34.935Y-37.91
X34.935Y-48.51
X34.98Y-22.15
X34.98Y-32.75
X34.98Y-43.35
X34.98Y-53.95
X35.375Y-21.9
X35.375Y-32.5
X35.375Y-43.1
X35.375Y-53.7
X35.414Y-16.87
X35.414Y-27.47
X35.414Y-38.07
X35.414Y-48.67
X35.77Y-22.15
X35.77Y-32.75
X35.77Y-43.35
X35.77Y-53.95
X35.792Y-16.608
X35.792Y-27.208
X35.792Y-37.808
X35.792Y-48.408
X36.18Y-21.9
X36.18Y-32.5
X36.18Y-43.1
X36.18Y-53.7
X36.248Y-16.67
X36.248Y-27.27
X36.248Y-37.87
X36.248Y-48.47
X36.708Y-16.67
X36.708Y-27.27
X36.708Y-37.87
X36.708Y-48.47
X37.168Y-16.67
X37.168Y-27.27
X37.168Y-37.87
X37.168Y-48.47
X37.39Y-22.975
X37.39Y-33.575
X37.39Y-44.175
X37.39Y-54.775
X37.615Y-16.562
X37.615Y-27.162
X37.615Y-37.762
X37.615Y-48.362
X38.276Y-21.84
X38.276Y-32.44
X38.276Y-43.04
X38.276Y-53.64
X38.28Y-20.197
X38.28Y-30.797
X38.28Y-41.397
X38.28Y-51.997
X38.441Y-17.125
X38.441Y-27.725
X38.441Y-38.325
X38.441Y-48.925
X39.09Y-21.035
X39.09Y-31.635
X39.09Y-42.235
X39.09Y-52.835
X39.245Y-16.543
X39.245Y-27.143
X39.245Y-37.743
X39.245Y-48.343
X39.73Y-15.28
X39.73Y-15.92
X39.73Y-25.88
X39.73Y-26.52
X39.73Y-36.48
X39.73Y-37.12
X39.73Y-47.08
X39.73Y-47.72
X40.98Y-22.21
X40.98Y-32.81
X40.98Y-43.41
X40.98Y-54.01
X41.65Y-17.54
X41.65Y-28.14
X41.65Y-38.74
X41.65Y-49.34
X41.68Y-22.255
X41.68Y-32.855
X41.68Y-43.455
X41.68Y-54.055
X42.165Y-17.555
X42.165Y-28.155
X42.165Y-38.755
X42.165Y-49.355
X42.24Y-18.06
X42.24Y-28.66
X42.24Y-39.26
X42.24Y-49.86
X42.42Y-22.4
X42.42Y-33.0
X42.42Y-43.6
X42.42Y-54.2
X42.738Y-18.96
X42.738Y-29.56
X42.738Y-40.16
X42.738Y-50.76
X43.198Y-18.96
X43.198Y-29.56
X43.198Y-40.16
X43.198Y-50.76
X43.21Y-22.43
X43.21Y-33.03
X43.21Y-43.63
X43.21Y-54.23
X43.816Y-17.835
X43.816Y-28.435
X43.816Y-39.035
X43.816Y-49.635
X44.022Y-22.475
X44.022Y-33.075
X44.022Y-43.675
X44.022Y-54.275
X44.33Y-16.77
X44.33Y-27.37
X44.33Y-37.97
X44.33Y-48.57
T2
X25.741Y-16.272
X25.741Y-26.872
X25.741Y-37.472
X25.741Y-48.072
X25.76Y-21.57
X25.76Y-32.17
X25.76Y-42.77
X25.76Y-53.37
X25.77Y-15.66
X25.77Y-26.26
X25.77Y-36.86
X25.77Y-47.46
X26.55Y-17.72
X26.55Y-28.32
X26.55Y-38.92
X26.55Y-49.52
X26.72Y-20.5
X26.72Y-31.1
X26.72Y-41.7
X26.72Y-52.3
X26.73Y-21.191
X26.73Y-31.791
X26.73Y-42.391
X26.73Y-52.991
X26.878Y-22.254
X26.878Y-32.854
X26.878Y-43.454
X26.878Y-54.054
X27.38Y-22.25
X27.38Y-32.85
X27.38Y-43.45
X27.38Y-54.05
X28.333Y-18.111
X28.333Y-28.711
X28.333Y-39.311
X28.333Y-49.911
X28.615Y-19.965
X28.615Y-30.565
X28.615Y-41.165
X28.615Y-51.765
X28.817Y-21.45
X28.817Y-32.05
X28.817Y-42.65
X28.817Y-53.25
X28.92Y-15.28
X28.92Y-25.88
X28.92Y-36.48
X28.92Y-47.08
X29.88Y-20.91
X29.88Y-31.51
X29.88Y-42.11
X29.88Y-52.71
X30.465Y-20.875
X30.465Y-31.475
X30.465Y-42.075
X30.465Y-52.675
X31.782Y-18.088
X31.782Y-28.688
X31.782Y-39.288
X31.782Y-49.888
X33.724Y-20.226
X33.724Y-30.826
X33.724Y-41.426
X33.724Y-52.026
X36.56Y-20.51
X36.56Y-31.11
X36.56Y-41.71
X36.56Y-52.31
X37.63Y-21.195
X37.63Y-31.795
X37.63Y-42.395
X37.63Y-52.995
X40.439Y-22.228
X40.439Y-32.828
X40.439Y-43.428
X40.439Y-54.028
X42.01Y-19.563
X42.01Y-30.163
X42.01Y-40.763
X42.01Y-51.363
X42.73Y-17.885
X42.73Y-28.485
X42.73Y-39.085
X42.73Y-49.685
X43.08Y-19.775
X43.08Y-30.375
X43.08Y-40.975
X43.08Y-51.575
X43.29Y-17.89
X43.29Y-28.49
X43.29Y-39.09
X43.29Y-49.69
X44.325Y-16.13
X44.325Y-26.73
X44.325Y-37.33
X44.325Y-47.93
T3
X0.0Y-14.8
X0.0Y-55.2
X0.6Y-14.8
X0.6Y-55.2
X1.2Y-14.8
X1.2Y-55.2
X1.8Y-14.8
X1.8Y-55.2
X2.4Y-14.8
X2.4Y-55.2
X3.0Y-14.8
X3.0Y-55.2
X3.6Y-14.8
X3.6Y-55.2
X4.2Y-14.8
X4.2Y-55.2
X4.8Y-14.8
X4.8Y-55.2
X5.4Y-14.8
X5.4Y-55.2
X6.0Y-14.8
X6.0Y-55.2
X6.6Y-14.8
X6.6Y-55.2
X7.2Y-14.8
X7.2Y-55.2
X7.8Y-14.8
X7.8Y-55.2
X8.4Y-14.8
X8.4Y-55.2
X9.0Y-14.8
X9.0Y-55.2
X9.6Y-14.8
X9.6Y-55.2
X10.2Y-14.8
X10.2Y-55.2
X10.8Y-14.8
X10.8Y-55.2
X11.4Y-14.8
X11.4Y-55.2
X12.0Y-14.8
X12.0Y-55.2
X12.6Y-14.8
X12.6Y-55.2
X13.2Y-14.8
X13.2Y-55.2
X13.8Y-14.8
X13.8Y-55.2
X14.4Y-14.8
X14.4Y-55.2
X15.0Y-14.8
X15.0Y-55.2
X15.6Y-14.8
X15.6Y-55.2
X16.2Y-14.8
X16.2Y-55.2
X16.8Y-14.8
X16.8Y-55.2
X17.4Y-14.8
X17.4Y-55.2
X18.0Y-14.8
X18.0Y-55.2
X18.6Y-14.8
X18.6Y-55.2
X19.2Y-14.8
X19.2Y-55.2
X19.8Y-14.8
X19.8Y-55.2
X20.4Y-14.8
X20.4Y-55.2
X21.0Y-14.8
X21.0Y-55.2
X21.6Y-14.8
X21.6Y-55.2
X22.2Y-14.8
X22.2Y-55.2
X25.17Y-18.1
X25.17Y-18.767
X25.17Y-19.433
X25.17Y-20.1
X25.17Y-28.7
X25.17Y-29.367
X25.17Y-30.033
X25.17Y-30.7
X25.17Y-39.3
X25.17Y-39.967
X25.17Y-40.633
X25.17Y-41.3
X25.17Y-49.9
X25.17Y-50.567
X25.17Y-51.233
X25.17Y-51.9
X25.2Y0.0
X25.2Y-0.621
X25.2Y-1.242
X25.2Y-1.863
X25.2Y-2.484
X25.2Y-3.105
X25.2Y-3.726
X25.2Y-4.347
X25.2Y-4.968
X25.2Y-5.589
X25.2Y-6.211
X25.2Y-6.832
X25.2Y-7.453
X25.2Y-8.074
X25.2Y-8.695
X25.2Y-9.316
X25.2Y-9.937
X25.2Y-10.558
X25.2Y-11.179
X25.2Y-11.8
X25.2Y-58.2
X25.2Y-58.821
X25.2Y-59.442
X25.2Y-60.063
X25.2Y-60.684
X25.2Y-61.305
X25.2Y-61.926
X25.2Y-62.547
X25.2Y-63.168
X25.2Y-63.789
X25.2Y-64.411
X25.2Y-65.032
X25.2Y-65.653
X25.2Y-66.274
X25.2Y-66.895
X25.2Y-67.516
X25.2Y-68.137
X25.2Y-68.758
X25.2Y-69.379
X25.2Y-70.0
X34.0Y-14.77
X34.0Y-23.43
X34.0Y-25.37
X34.0Y-34.03
X34.0Y-35.97
X34.0Y-44.63
X34.0Y-46.57
X34.0Y-55.23
X34.667Y-14.77
X34.667Y-23.43
X34.667Y-25.37
X34.667Y-34.03
X34.667Y-35.97
X34.667Y-44.63
X34.667Y-46.57
X34.667Y-55.23
X35.333Y-14.77
X35.333Y-23.43
X35.333Y-25.37
X35.333Y-34.03
X35.333Y-35.97
X35.333Y-44.63
X35.333Y-46.57
X35.333Y-55.23
X36.0Y-14.77
X36.0Y-23.43
X36.0Y-25.37
X36.0Y-34.03
X36.0Y-35.97
X36.0Y-44.63
X36.0Y-46.57
X36.0Y-55.23
X44.8Y0.0
X44.8Y-0.621
X44.8Y-1.242
X44.8Y-1.863
X44.8Y-2.484
X44.8Y-3.105
X44.8Y-3.726
X44.8Y-4.347
X44.8Y-4.968
X44.8Y-5.589
X44.8Y-6.211
X44.8Y-6.832
X44.8Y-7.453
X44.8Y-8.074
X44.8Y-8.695
X44.8Y-9.316
X44.8Y-9.937
X44.8Y-10.558
X44.8Y-11.179
X44.8Y-11.8
X44.8Y-58.2
X44.8Y-58.821
X44.8Y-59.442
X44.8Y-60.063
X44.8Y-60.684
X44.8Y-61.305
X44.8Y-61.926
X44.8Y-62.547
X44.8Y-63.168
X44.8Y-63.789
X44.8Y-64.411
X44.8Y-65.032
X44.8Y-65.653
X44.8Y-66.274
X44.8Y-66.895
X44.8Y-67.516
X44.8Y-68.137
X44.8Y-68.758
X44.8Y-69.379
X44.8Y-70.0
X44.83Y-18.1
X44.83Y-18.767
X44.83Y-19.433
X44.83Y-20.1
X44.83Y-28.7
X44.83Y-29.367
X44.83Y-30.033
X44.83Y-30.7
X44.83Y-39.3
X44.83Y-39.967
X44.83Y-40.633
X44.83Y-41.3
X44.83Y-49.9
X44.83Y-50.567
X44.83Y-51.233
X44.83Y-51.9
X47.8Y-14.8
X47.8Y-55.2
X48.4Y-14.8
X48.4Y-55.2
X49.0Y-14.8
X49.0Y-55.2
X49.6Y-14.8
X49.6Y-55.2
X50.2Y-14.8
X50.2Y-55.2
X50.8Y-14.8
X50.8Y-55.2
X51.4Y-14.8
X51.4Y-55.2
X52.0Y-14.8
X52.0Y-55.2
X52.6Y-14.8
X52.6Y-55.2
X53.2Y-14.8
X53.2Y-55.2
X53.8Y-14.8
X53.8Y-55.2
X54.4Y-14.8
X54.4Y-55.2
X55.0Y-14.8
X55.0Y-55.2
X55.6Y-14.8
X55.6Y-55.2
X56.2Y-14.8
X56.2Y-55.2
X56.8Y-14.8
X56.8Y-55.2
X57.4Y-14.8
X57.4Y-55.2
X58.0Y-14.8
X58.0Y-55.2
X58.6Y-14.8
X58.6Y-55.2
X59.2Y-14.8
X59.2Y-55.2
X59.8Y-14.8
X59.8Y-55.2
X60.4Y-14.8
X60.4Y-55.2
X61.0Y-14.8
X61.0Y-55.2
X61.6Y-14.8
X61.6Y-55.2
X62.2Y-14.8
X62.2Y-55.2
X62.8Y-14.8
X62.8Y-55.2
X63.4Y-14.8
X63.4Y-55.2
X64.0Y-14.8
X64.0Y-55.2
X64.6Y-14.8
X64.6Y-55.2
X65.2Y-14.8
X65.2Y-55.2
X65.8Y-14.8
X65.8Y-55.2
X66.4Y-14.8
X66.4Y-55.2
X67.0Y-14.8
X67.0Y-55.2
X67.6Y-14.8
X67.6Y-55.2
X68.2Y-14.8
X68.2Y-55.2
X68.8Y-14.8
X68.8Y-55.2
X69.4Y-14.8
X69.4Y-55.2
X70.0Y-14.8
X70.0Y-55.2
T4
X2.0Y-2.0
X2.0Y-68.0
X68.0Y-2.0
M30
