M48
; DRILL file {KiCad 8.0.7} date 2025-01-10T19:59:24-0500
; FORMAT={-:-/ absolute / metric / decimal}
; #@! TF.CreationDate,2025-01-10T19:59:24-05:00
; #@! TF.GenerationSoftware,Kicad,Pcbnew,8.0.7
; #@! TF.FileFunction,MixedPlating,1,4
FMAT,2
METRIC
; #@! TA.AperFunction,Plated,PTH,ViaDrill
T1C0.200
; #@! TA.AperFunction,Plated,PTH,ViaDrill
T2C0.300
; #@! TA.AperFunction,NonPlated,NPTH,ComponentDrill
T3C0.300
; #@! TA.AperFunction,NonPlated,NPTH,ComponentDrill
T4C1.152
%
G90
G05
T1
X25.65Y-19.325
X25.65Y-29.925
X25.65Y-40.525
X25.65Y-51.125
X25.88Y-22.37
X25.88Y-32.97
X25.88Y-43.57
X25.88Y-54.17
X25.9Y-19.675
X25.9Y-30.275
X25.9Y-40.875
X25.9Y-51.475
X26.132Y-18.264
X26.132Y-28.864
X26.132Y-39.464
X26.132Y-50.064
X26.34Y-22.85
X26.34Y-33.45
X26.34Y-44.05
X26.34Y-54.65
X26.54Y-18.24
X26.54Y-28.84
X26.54Y-39.44
X26.54Y-50.04
X27.336Y-19.066
X27.336Y-29.666
X27.336Y-40.266
X27.336Y-50.866
X28.26Y-19.97
X28.26Y-30.57
X28.26Y-41.17
X28.26Y-51.77
X28.33Y-15.71
X28.33Y-26.31
X28.33Y-36.91
X28.33Y-47.51
X28.36Y-17.13
X28.36Y-27.73
X28.36Y-38.33
X28.36Y-48.93
X28.47Y-17.56
X28.47Y-28.16
X28.47Y-38.76
X28.47Y-49.36
X28.64Y-21.39
X28.64Y-31.99
X28.64Y-42.59
X28.64Y-53.19
X28.67Y-19.87
X28.67Y-20.31
X28.67Y-30.47
X28.67Y-30.91
X28.67Y-41.07
X28.67Y-41.51
X28.67Y-51.67
X28.67Y-52.11
X29.01Y-22.6
X29.01Y-33.2
X29.01Y-43.8
X29.01Y-54.4
X30.21Y-22.236
X30.21Y-32.836
X30.21Y-43.436
X30.21Y-54.036
X30.236Y-16.257
X30.236Y-26.857
X30.236Y-37.457
X30.236Y-48.057
X30.238Y-15.848
X30.238Y-26.448
X30.238Y-37.048
X30.238Y-47.648
X30.58Y-22.59
X30.58Y-23.0
X30.58Y-33.19
X30.58Y-33.6
X30.58Y-43.79
X30.58Y-44.2
X30.58Y-54.39
X30.58Y-54.8
X30.637Y-16.259
X30.637Y-26.859
X30.637Y-37.459
X30.637Y-48.059
X30.72Y-15.46
X30.72Y-26.06
X30.72Y-36.66
X30.72Y-47.26
X30.93Y-18.5
X30.93Y-29.1
X30.93Y-39.7
X30.93Y-50.3
X31.02Y-15.83
X31.02Y-26.43
X31.02Y-37.03
X31.02Y-47.63
X31.36Y-21.844
X31.36Y-32.444
X31.36Y-43.044
X31.36Y-53.644
X31.551Y-22.998
X31.551Y-33.598
X31.551Y-44.198
X31.551Y-54.798
X31.63Y-16.606
X31.63Y-27.206
X31.63Y-37.806
X31.63Y-48.406
X31.895Y-15.718
X31.895Y-26.318
X31.895Y-36.918
X31.895Y-47.518
X31.93Y-18.149
X31.93Y-28.749
X31.93Y-39.349
X31.93Y-49.949
X32.14Y-21.43
X32.14Y-32.03
X32.14Y-42.63
X32.14Y-53.23
X32.24Y-16.98
X32.24Y-27.58
X32.24Y-38.18
X32.24Y-48.78
X32.37Y-22.498
X32.37Y-33.098
X32.37Y-43.698
X32.37Y-54.298
X32.58Y-21.826
X32.58Y-32.426
X32.58Y-43.026
X32.58Y-53.626
X32.82Y-18.25
X32.82Y-28.85
X32.82Y-39.45
X32.82Y-50.05
X32.87Y-22.498
X32.87Y-33.098
X32.87Y-43.698
X32.87Y-54.298
X33.364Y-16.701
X33.364Y-27.301
X33.364Y-37.901
X33.364Y-48.501
X33.57Y-17.46
X33.57Y-28.06
X33.57Y-38.66
X33.57Y-49.26
X33.75Y-23.0
X33.75Y-33.6
X33.75Y-44.2
X33.75Y-54.8
X33.78Y-15.451
X33.78Y-26.051
X33.78Y-36.651
X33.78Y-47.251
X34.17Y-21.744
X34.17Y-32.344
X34.17Y-42.944
X34.17Y-53.544
X34.182Y-16.636
X34.182Y-27.236
X34.182Y-37.836
X34.182Y-48.436
X34.307Y-20.921
X34.307Y-31.521
X34.307Y-42.121
X34.307Y-52.721
X34.575Y-21.75
X34.575Y-32.35
X34.575Y-42.95
X34.575Y-53.55
X34.92Y-16.606
X34.92Y-27.206
X34.92Y-37.806
X34.92Y-48.406
X34.97Y-15.53
X34.97Y-26.13
X34.97Y-36.73
X34.97Y-47.33
X34.975Y-22.05
X34.975Y-32.65
X34.975Y-43.25
X34.975Y-53.85
X35.375Y-21.75
X35.375Y-32.35
X35.375Y-42.95
X35.375Y-53.55
X35.697Y-16.606
X35.697Y-27.206
X35.697Y-37.806
X35.697Y-48.406
X35.78Y-22.05
X35.78Y-32.65
X35.78Y-43.25
X35.78Y-53.85
X36.008Y-15.2
X36.008Y-25.8
X36.008Y-36.4
X36.008Y-47.0
X36.18Y-21.75
X36.18Y-32.35
X36.18Y-42.95
X36.18Y-53.55
X36.259Y-16.604
X36.259Y-27.204
X36.259Y-37.804
X36.259Y-48.404
X36.417Y-15.2
X36.417Y-25.8
X36.417Y-36.4
X36.417Y-47.0
X36.575Y-22.05
X36.575Y-32.65
X36.575Y-43.25
X36.575Y-53.85
X36.83Y-15.2
X36.83Y-25.8
X36.83Y-36.4
X36.83Y-47.0
X36.975Y-21.75
X36.975Y-32.35
X36.975Y-42.95
X36.975Y-53.55
X37.38Y-22.64
X37.38Y-33.24
X37.38Y-43.84
X37.38Y-54.44
X37.58Y-21.67
X37.58Y-32.27
X37.58Y-42.87
X37.58Y-53.47
X38.226Y-19.72
X38.226Y-30.32
X38.226Y-40.92
X38.226Y-51.52
X38.229Y-18.212
X38.229Y-28.812
X38.229Y-39.412
X38.229Y-50.012
X38.314Y-21.333
X38.314Y-31.933
X38.314Y-42.533
X38.314Y-53.133
X39.096Y-16.689
X39.096Y-27.289
X39.096Y-37.889
X39.096Y-48.489
X39.125Y-17.35
X39.125Y-27.95
X39.125Y-38.55
X39.125Y-49.15
X39.126Y-17.998
X39.126Y-28.598
X39.126Y-39.198
X39.126Y-49.798
X40.51Y-18.18
X40.51Y-28.78
X40.51Y-39.38
X40.51Y-49.98
X40.6Y-19.47
X40.6Y-30.07
X40.6Y-40.67
X40.6Y-51.27
X40.61Y-21.39
X40.61Y-31.99
X40.61Y-42.59
X40.61Y-53.19
X40.64Y-22.03
X40.64Y-32.63
X40.64Y-43.23
X40.64Y-53.83
X40.955Y-18.325
X40.955Y-28.925
X40.955Y-39.525
X40.955Y-50.125
X41.5Y-16.475
X41.5Y-16.975
X41.5Y-17.463
X41.5Y-27.075
X41.5Y-27.575
X41.5Y-28.063
X41.5Y-37.675
X41.5Y-38.175
X41.5Y-38.663
X41.5Y-48.275
X41.5Y-48.775
X41.5Y-49.263
X41.88Y-15.3
X41.88Y-25.9
X41.88Y-36.5
X41.88Y-47.1
X42.242Y-16.479
X42.242Y-27.079
X42.242Y-37.679
X42.242Y-48.279
X43.675Y-18.325
X43.675Y-28.925
X43.675Y-39.525
X43.675Y-50.125
X43.83Y-17.39
X43.83Y-27.99
X43.83Y-38.59
X43.83Y-49.19
X44.075Y-15.975
X44.075Y-16.475
X44.075Y-16.975
X44.075Y-26.575
X44.075Y-27.075
X44.075Y-27.575
X44.075Y-37.175
X44.075Y-37.675
X44.075Y-38.175
X44.075Y-47.775
X44.075Y-48.275
X44.075Y-48.775
T2
X25.92Y-15.72
X25.92Y-26.32
X25.92Y-36.92
X25.92Y-47.52
X26.252Y-21.477
X26.252Y-32.077
X26.252Y-42.677
X26.252Y-53.277
X26.43Y-15.71
X26.43Y-26.31
X26.43Y-36.91
X26.43Y-47.51
X26.434Y-19.79
X26.434Y-30.39
X26.434Y-40.99
X26.434Y-51.59
X26.48Y-19.25
X26.48Y-29.85
X26.48Y-40.45
X26.48Y-51.05
X26.51Y-17.72
X26.51Y-28.32
X26.51Y-38.92
X26.51Y-49.52
X26.725Y-20.987
X26.725Y-31.587
X26.725Y-42.187
X26.725Y-52.787
X26.86Y-20.16
X26.86Y-30.76
X26.86Y-41.36
X26.86Y-51.96
X26.88Y-18.93
X26.88Y-29.53
X26.88Y-40.13
X26.88Y-50.73
X26.93Y-22.856
X26.93Y-33.456
X26.93Y-44.056
X26.93Y-54.656
X27.32Y-17.91
X27.32Y-28.51
X27.32Y-39.11
X27.32Y-49.71
X27.774Y-22.86
X27.774Y-33.46
X27.774Y-44.06
X27.774Y-54.66
X28.25Y-22.86
X28.25Y-33.46
X28.25Y-44.06
X28.25Y-54.66
X29.19Y-15.54
X29.19Y-26.14
X29.19Y-36.74
X29.19Y-47.34
X29.211Y-20.659
X29.211Y-31.259
X29.211Y-41.859
X29.211Y-52.459
X29.65Y-21.14
X29.65Y-31.74
X29.65Y-42.34
X29.65Y-52.94
X30.025Y-17.655
X30.025Y-28.255
X30.025Y-38.855
X30.025Y-49.455
X30.272Y-19.048
X30.272Y-29.648
X30.272Y-40.248
X30.272Y-50.848
X31.025Y-19.375
X31.025Y-29.975
X31.025Y-40.575
X31.025Y-51.175
X31.5Y-15.501
X31.5Y-26.101
X31.5Y-36.701
X31.5Y-47.301
X32.156Y-18.648
X32.156Y-29.248
X32.156Y-39.848
X32.156Y-50.448
X33.87Y-18.7
X33.87Y-29.3
X33.87Y-39.9
X33.87Y-50.5
X34.435Y-18.095
X34.435Y-28.695
X34.435Y-39.295
X34.435Y-49.895
X34.449Y-18.69
X34.449Y-29.29
X34.449Y-39.89
X34.449Y-50.49
X35.44Y-17.94
X35.44Y-28.54
X35.44Y-39.14
X35.44Y-49.74
X36.13Y-17.94
X36.13Y-28.54
X36.13Y-39.14
X36.13Y-49.74
X39.03Y-21.912
X39.03Y-32.512
X39.03Y-43.112
X39.03Y-53.712
X39.03Y-21.34
X39.03Y-31.94
X39.03Y-42.54
X39.03Y-53.14
X40.554Y-20.04
X40.554Y-30.64
X40.554Y-41.24
X40.554Y-51.84
X41.75Y-19.525
X41.75Y-30.125
X41.75Y-40.725
X41.75Y-51.325
X42.65Y-16.725
X42.65Y-27.325
X42.65Y-37.925
X42.65Y-48.525
X43.025Y-21.25
X43.025Y-31.85
X43.025Y-42.45
X43.025Y-53.05
T3
X0.0Y-14.8
X0.0Y-55.2
X0.6Y-14.8
X0.6Y-55.2
X1.2Y-14.8
X1.2Y-55.2
X1.8Y-14.8
X1.8Y-55.2
X2.4Y-14.8
X2.4Y-55.2
X3.0Y-14.8
X3.0Y-55.2
X3.6Y-14.8
X3.6Y-55.2
X4.2Y-14.8
X4.2Y-55.2
X4.8Y-14.8
X4.8Y-55.2
X5.4Y-14.8
X5.4Y-55.2
X6.0Y-14.8
X6.0Y-55.2
X6.6Y-14.8
X6.6Y-55.2
X7.2Y-14.8
X7.2Y-55.2
X7.8Y-14.8
X7.8Y-55.2
X8.4Y-14.8
X8.4Y-55.2
X9.0Y-14.8
X9.0Y-55.2
X9.6Y-14.8
X9.6Y-55.2
X10.2Y-14.8
X10.2Y-55.2
X10.8Y-14.8
X10.8Y-55.2
X11.4Y-14.8
X11.4Y-55.2
X12.0Y-14.8
X12.0Y-55.2
X12.6Y-14.8
X12.6Y-55.2
X13.2Y-14.8
X13.2Y-55.2
X13.8Y-14.8
X13.8Y-55.2
X14.4Y-14.8
X14.4Y-55.2
X15.0Y-14.8
X15.0Y-55.2
X15.6Y-14.8
X15.6Y-55.2
X16.2Y-14.8
X16.2Y-55.2
X16.8Y-14.8
X16.8Y-55.2
X17.4Y-14.8
X17.4Y-55.2
X18.0Y-14.8
X18.0Y-55.2
X18.6Y-14.8
X18.6Y-55.2
X19.2Y-14.8
X19.2Y-55.2
X19.8Y-14.8
X19.8Y-55.2
X20.4Y-14.8
X20.4Y-55.2
X21.0Y-14.8
X21.0Y-55.2
X21.6Y-14.8
X21.6Y-55.2
X22.2Y-14.8
X22.2Y-55.2
X25.17Y-18.1
X25.17Y-18.767
X25.17Y-19.433
X25.17Y-20.1
X25.17Y-28.7
X25.17Y-29.367
X25.17Y-30.033
X25.17Y-30.7
X25.17Y-39.3
X25.17Y-39.967
X25.17Y-40.633
X25.17Y-41.3
X25.17Y-49.9
X25.17Y-50.567
X25.17Y-51.233
X25.17Y-51.9
X25.2Y0.0
X25.2Y-0.621
X25.2Y-1.242
X25.2Y-1.863
X25.2Y-2.484
X25.2Y-3.105
X25.2Y-3.726
X25.2Y-4.347
X25.2Y-4.968
X25.2Y-5.589
X25.2Y-6.211
X25.2Y-6.832
X25.2Y-7.453
X25.2Y-8.074
X25.2Y-8.695
X25.2Y-9.316
X25.2Y-9.937
X25.2Y-10.558
X25.2Y-11.179
X25.2Y-11.8
X25.2Y-58.2
X25.2Y-58.821
X25.2Y-59.442
X25.2Y-60.063
X25.2Y-60.684
X25.2Y-61.305
X25.2Y-61.926
X25.2Y-62.547
X25.2Y-63.168
X25.2Y-63.789
X25.2Y-64.411
X25.2Y-65.032
X25.2Y-65.653
X25.2Y-66.274
X25.2Y-66.895
X25.2Y-67.516
X25.2Y-68.137
X25.2Y-68.758
X25.2Y-69.379
X25.2Y-70.0
X34.0Y-14.77
X34.0Y-23.43
X34.0Y-25.37
X34.0Y-34.03
X34.0Y-35.97
X34.0Y-44.63
X34.0Y-46.57
X34.0Y-55.23
X34.667Y-14.77
X34.667Y-23.43
X34.667Y-25.37
X34.667Y-34.03
X34.667Y-35.97
X34.667Y-44.63
X34.667Y-46.57
X34.667Y-55.23
X35.333Y-14.77
X35.333Y-23.43
X35.333Y-25.37
X35.333Y-34.03
X35.333Y-35.97
X35.333Y-44.63
X35.333Y-46.57
X35.333Y-55.23
X36.0Y-14.77
X36.0Y-23.43
X36.0Y-25.37
X36.0Y-34.03
X36.0Y-35.97
X36.0Y-44.63
X36.0Y-46.57
X36.0Y-55.23
X44.8Y0.0
X44.8Y-0.621
X44.8Y-1.242
X44.8Y-1.863
X44.8Y-2.484
X44.8Y-3.105
X44.8Y-3.726
X44.8Y-4.347
X44.8Y-4.968
X44.8Y-5.589
X44.8Y-6.211
X44.8Y-6.832
X44.8Y-7.453
X44.8Y-8.074
X44.8Y-8.695
X44.8Y-9.316
X44.8Y-9.937
X44.8Y-10.558
X44.8Y-11.179
X44.8Y-11.8
X44.8Y-58.2
X44.8Y-58.821
X44.8Y-59.442
X44.8Y-60.063
X44.8Y-60.684
X44.8Y-61.305
X44.8Y-61.926
X44.8Y-62.547
X44.8Y-63.168
X44.8Y-63.789
X44.8Y-64.411
X44.8Y-65.032
X44.8Y-65.653
X44.8Y-66.274
X44.8Y-66.895
X44.8Y-67.516
X44.8Y-68.137
X44.8Y-68.758
X44.8Y-69.379
X44.8Y-70.0
X44.83Y-18.1
X44.83Y-18.767
X44.83Y-19.433
X44.83Y-20.1
X44.83Y-28.7
X44.83Y-29.367
X44.83Y-30.033
X44.83Y-30.7
X44.83Y-39.3
X44.83Y-39.967
X44.83Y-40.633
X44.83Y-41.3
X44.83Y-49.9
X44.83Y-50.567
X44.83Y-51.233
X44.83Y-51.9
X47.8Y-14.8
X47.8Y-55.2
X48.4Y-14.8
X48.4Y-55.2
X49.0Y-14.8
X49.0Y-55.2
X49.6Y-14.8
X49.6Y-55.2
X50.2Y-14.8
X50.2Y-55.2
X50.8Y-14.8
X50.8Y-55.2
X51.4Y-14.8
X51.4Y-55.2
X52.0Y-14.8
X52.0Y-55.2
X52.6Y-14.8
X52.6Y-55.2
X53.2Y-14.8
X53.2Y-55.2
X53.8Y-14.8
X53.8Y-55.2
X54.4Y-14.8
X54.4Y-55.2
X55.0Y-14.8
X55.0Y-55.2
X55.6Y-14.8
X55.6Y-55.2
X56.2Y-14.8
X56.2Y-55.2
X56.8Y-14.8
X56.8Y-55.2
X57.4Y-14.8
X57.4Y-55.2
X58.0Y-14.8
X58.0Y-55.2
X58.6Y-14.8
X58.6Y-55.2
X59.2Y-14.8
X59.2Y-55.2
X59.8Y-14.8
X59.8Y-55.2
X60.4Y-14.8
X60.4Y-55.2
X61.0Y-14.8
X61.0Y-55.2
X61.6Y-14.8
X61.6Y-55.2
X62.2Y-14.8
X62.2Y-55.2
X62.8Y-14.8
X62.8Y-55.2
X63.4Y-14.8
X63.4Y-55.2
X64.0Y-14.8
X64.0Y-55.2
X64.6Y-14.8
X64.6Y-55.2
X65.2Y-14.8
X65.2Y-55.2
X65.8Y-14.8
X65.8Y-55.2
X66.4Y-14.8
X66.4Y-55.2
X67.0Y-14.8
X67.0Y-55.2
X67.6Y-14.8
X67.6Y-55.2
X68.2Y-14.8
X68.2Y-55.2
X68.8Y-14.8
X68.8Y-55.2
X69.4Y-14.8
X69.4Y-55.2
X70.0Y-14.8
X70.0Y-55.2
T4
X2.0Y-2.0
X2.0Y-68.0
X68.0Y-2.0
M30
