G04 #@! TF.GenerationSoftware,KiCad,Pcbnew,8.0.7*
G04 #@! TF.CreationDate,2025-01-15T21:24:22-05:00*
G04 #@! TF.ProjectId,panel,70616e65-6c2e-46b6-9963-61645f706362,rev?*
G04 #@! TF.SameCoordinates,Original*
G04 #@! TF.FileFunction,Legend,Top*
G04 #@! TF.FilePolarity,Positive*
%FSLAX46Y46*%
G04 Gerber Fmt 4.6, Leading zero omitted, Abs format (unit mm)*
G04 Created by KiCad (PCBNEW 8.0.7) date 2025-01-15 21:24:22*
%MOMM*%
%LPD*%
G01*
G04 APERTURE LIST*
%ADD10C,0.200000*%
%ADD11C,0.120000*%
%ADD12C,0.150000*%
%ADD13C,0.100000*%
%ADD14C,0.125000*%
G04 APERTURE END LIST*
D10*
X34141101Y-33147219D02*
X33807768Y-32671028D01*
X33569673Y-33147219D02*
X33569673Y-32147219D01*
X33569673Y-32147219D02*
X33950625Y-32147219D01*
X33950625Y-32147219D02*
X34045863Y-32194838D01*
X34045863Y-32194838D02*
X34093482Y-32242457D01*
X34093482Y-32242457D02*
X34141101Y-32337695D01*
X34141101Y-32337695D02*
X34141101Y-32480552D01*
X34141101Y-32480552D02*
X34093482Y-32575790D01*
X34093482Y-32575790D02*
X34045863Y-32623409D01*
X34045863Y-32623409D02*
X33950625Y-32671028D01*
X33950625Y-32671028D02*
X33569673Y-32671028D01*
X34569673Y-33147219D02*
X34569673Y-32147219D01*
X34569673Y-32147219D02*
X34950625Y-32147219D01*
X34950625Y-32147219D02*
X35045863Y-32194838D01*
X35045863Y-32194838D02*
X35093482Y-32242457D01*
X35093482Y-32242457D02*
X35141101Y-32337695D01*
X35141101Y-32337695D02*
X35141101Y-32480552D01*
X35141101Y-32480552D02*
X35093482Y-32575790D01*
X35093482Y-32575790D02*
X35045863Y-32623409D01*
X35045863Y-32623409D02*
X34950625Y-32671028D01*
X34950625Y-32671028D02*
X34569673Y-32671028D01*
X35522054Y-32242457D02*
X35569673Y-32194838D01*
X35569673Y-32194838D02*
X35664911Y-32147219D01*
X35664911Y-32147219D02*
X35903006Y-32147219D01*
X35903006Y-32147219D02*
X35998244Y-32194838D01*
X35998244Y-32194838D02*
X36045863Y-32242457D01*
X36045863Y-32242457D02*
X36093482Y-32337695D01*
X36093482Y-32337695D02*
X36093482Y-32432933D01*
X36093482Y-32432933D02*
X36045863Y-32575790D01*
X36045863Y-32575790D02*
X35474435Y-33147219D01*
X35474435Y-33147219D02*
X36093482Y-33147219D01*
X36950625Y-32480552D02*
X36950625Y-33147219D01*
X36712530Y-32099600D02*
X36474435Y-32813885D01*
X36474435Y-32813885D02*
X37093482Y-32813885D01*
X31043755Y-28380171D02*
X30543755Y-27514146D01*
X30543755Y-27514146D02*
X30749952Y-27395098D01*
X30749952Y-27395098D02*
X30897479Y-27364909D01*
X30897479Y-27364909D02*
X31027577Y-27399768D01*
X31027577Y-27399768D02*
X31116435Y-27458438D01*
X31116435Y-27458438D02*
X31252913Y-27599585D01*
X31252913Y-27599585D02*
X31324341Y-27723303D01*
X31324341Y-27723303D02*
X31378340Y-27912070D01*
X31378340Y-27912070D02*
X31384720Y-28018358D01*
X31384720Y-28018358D02*
X31349860Y-28148456D01*
X31349860Y-28148456D02*
X31249952Y-28261124D01*
X31249952Y-28261124D02*
X31043755Y-28380171D01*
X32357033Y-27511978D02*
X32339604Y-27577027D01*
X32339604Y-27577027D02*
X32239695Y-27689695D01*
X32239695Y-27689695D02*
X32157217Y-27737314D01*
X32157217Y-27737314D02*
X32009689Y-27767503D01*
X32009689Y-27767503D02*
X31879592Y-27732644D01*
X31879592Y-27732644D02*
X31790733Y-27673975D01*
X31790733Y-27673975D02*
X31654256Y-27532827D01*
X31654256Y-27532827D02*
X31582827Y-27409109D01*
X31582827Y-27409109D02*
X31528828Y-27220342D01*
X31528828Y-27220342D02*
X31522449Y-27114054D01*
X31522449Y-27114054D02*
X31557308Y-26983957D01*
X31557308Y-26983957D02*
X31657217Y-26871289D01*
X31657217Y-26871289D02*
X31739695Y-26823670D01*
X31739695Y-26823670D02*
X31887223Y-26793480D01*
X31887223Y-26793480D02*
X31952272Y-26810910D01*
X33223059Y-27011978D02*
X33205629Y-27077027D01*
X33205629Y-27077027D02*
X33105721Y-27189695D01*
X33105721Y-27189695D02*
X33023242Y-27237314D01*
X33023242Y-27237314D02*
X32875715Y-27267503D01*
X32875715Y-27267503D02*
X32745617Y-27232644D01*
X32745617Y-27232644D02*
X32656759Y-27173975D01*
X32656759Y-27173975D02*
X32520281Y-27032827D01*
X32520281Y-27032827D02*
X32448853Y-26909109D01*
X32448853Y-26909109D02*
X32394854Y-26720342D01*
X32394854Y-26720342D02*
X32388474Y-26614054D01*
X32388474Y-26614054D02*
X32423334Y-26483957D01*
X32423334Y-26483957D02*
X32523242Y-26371289D01*
X32523242Y-26371289D02*
X32605721Y-26323670D01*
X32605721Y-26323670D02*
X32753248Y-26293480D01*
X32753248Y-26293480D02*
X32818297Y-26310910D01*
X34141101Y-22547219D02*
X33807768Y-22071028D01*
X33569673Y-22547219D02*
X33569673Y-21547219D01*
X33569673Y-21547219D02*
X33950625Y-21547219D01*
X33950625Y-21547219D02*
X34045863Y-21594838D01*
X34045863Y-21594838D02*
X34093482Y-21642457D01*
X34093482Y-21642457D02*
X34141101Y-21737695D01*
X34141101Y-21737695D02*
X34141101Y-21880552D01*
X34141101Y-21880552D02*
X34093482Y-21975790D01*
X34093482Y-21975790D02*
X34045863Y-22023409D01*
X34045863Y-22023409D02*
X33950625Y-22071028D01*
X33950625Y-22071028D02*
X33569673Y-22071028D01*
X34569673Y-22547219D02*
X34569673Y-21547219D01*
X34569673Y-21547219D02*
X34950625Y-21547219D01*
X34950625Y-21547219D02*
X35045863Y-21594838D01*
X35045863Y-21594838D02*
X35093482Y-21642457D01*
X35093482Y-21642457D02*
X35141101Y-21737695D01*
X35141101Y-21737695D02*
X35141101Y-21880552D01*
X35141101Y-21880552D02*
X35093482Y-21975790D01*
X35093482Y-21975790D02*
X35045863Y-22023409D01*
X35045863Y-22023409D02*
X34950625Y-22071028D01*
X34950625Y-22071028D02*
X34569673Y-22071028D01*
X35522054Y-21642457D02*
X35569673Y-21594838D01*
X35569673Y-21594838D02*
X35664911Y-21547219D01*
X35664911Y-21547219D02*
X35903006Y-21547219D01*
X35903006Y-21547219D02*
X35998244Y-21594838D01*
X35998244Y-21594838D02*
X36045863Y-21642457D01*
X36045863Y-21642457D02*
X36093482Y-21737695D01*
X36093482Y-21737695D02*
X36093482Y-21832933D01*
X36093482Y-21832933D02*
X36045863Y-21975790D01*
X36045863Y-21975790D02*
X35474435Y-22547219D01*
X35474435Y-22547219D02*
X36093482Y-22547219D01*
X36950625Y-21880552D02*
X36950625Y-22547219D01*
X36712530Y-21499600D02*
X36474435Y-22213885D01*
X36474435Y-22213885D02*
X37093482Y-22213885D01*
X34141101Y-54347219D02*
X33807768Y-53871028D01*
X33569673Y-54347219D02*
X33569673Y-53347219D01*
X33569673Y-53347219D02*
X33950625Y-53347219D01*
X33950625Y-53347219D02*
X34045863Y-53394838D01*
X34045863Y-53394838D02*
X34093482Y-53442457D01*
X34093482Y-53442457D02*
X34141101Y-53537695D01*
X34141101Y-53537695D02*
X34141101Y-53680552D01*
X34141101Y-53680552D02*
X34093482Y-53775790D01*
X34093482Y-53775790D02*
X34045863Y-53823409D01*
X34045863Y-53823409D02*
X33950625Y-53871028D01*
X33950625Y-53871028D02*
X33569673Y-53871028D01*
X34569673Y-54347219D02*
X34569673Y-53347219D01*
X34569673Y-53347219D02*
X34950625Y-53347219D01*
X34950625Y-53347219D02*
X35045863Y-53394838D01*
X35045863Y-53394838D02*
X35093482Y-53442457D01*
X35093482Y-53442457D02*
X35141101Y-53537695D01*
X35141101Y-53537695D02*
X35141101Y-53680552D01*
X35141101Y-53680552D02*
X35093482Y-53775790D01*
X35093482Y-53775790D02*
X35045863Y-53823409D01*
X35045863Y-53823409D02*
X34950625Y-53871028D01*
X34950625Y-53871028D02*
X34569673Y-53871028D01*
X35522054Y-53442457D02*
X35569673Y-53394838D01*
X35569673Y-53394838D02*
X35664911Y-53347219D01*
X35664911Y-53347219D02*
X35903006Y-53347219D01*
X35903006Y-53347219D02*
X35998244Y-53394838D01*
X35998244Y-53394838D02*
X36045863Y-53442457D01*
X36045863Y-53442457D02*
X36093482Y-53537695D01*
X36093482Y-53537695D02*
X36093482Y-53632933D01*
X36093482Y-53632933D02*
X36045863Y-53775790D01*
X36045863Y-53775790D02*
X35474435Y-54347219D01*
X35474435Y-54347219D02*
X36093482Y-54347219D01*
X36950625Y-53680552D02*
X36950625Y-54347219D01*
X36712530Y-53299600D02*
X36474435Y-54013885D01*
X36474435Y-54013885D02*
X37093482Y-54013885D01*
X31043755Y-49580171D02*
X30543755Y-48714146D01*
X30543755Y-48714146D02*
X30749952Y-48595098D01*
X30749952Y-48595098D02*
X30897479Y-48564909D01*
X30897479Y-48564909D02*
X31027577Y-48599768D01*
X31027577Y-48599768D02*
X31116435Y-48658438D01*
X31116435Y-48658438D02*
X31252913Y-48799585D01*
X31252913Y-48799585D02*
X31324341Y-48923303D01*
X31324341Y-48923303D02*
X31378340Y-49112070D01*
X31378340Y-49112070D02*
X31384720Y-49218358D01*
X31384720Y-49218358D02*
X31349860Y-49348456D01*
X31349860Y-49348456D02*
X31249952Y-49461124D01*
X31249952Y-49461124D02*
X31043755Y-49580171D01*
X32357033Y-48711978D02*
X32339604Y-48777027D01*
X32339604Y-48777027D02*
X32239695Y-48889695D01*
X32239695Y-48889695D02*
X32157217Y-48937314D01*
X32157217Y-48937314D02*
X32009689Y-48967503D01*
X32009689Y-48967503D02*
X31879592Y-48932644D01*
X31879592Y-48932644D02*
X31790733Y-48873975D01*
X31790733Y-48873975D02*
X31654256Y-48732827D01*
X31654256Y-48732827D02*
X31582827Y-48609109D01*
X31582827Y-48609109D02*
X31528828Y-48420342D01*
X31528828Y-48420342D02*
X31522449Y-48314054D01*
X31522449Y-48314054D02*
X31557308Y-48183957D01*
X31557308Y-48183957D02*
X31657217Y-48071289D01*
X31657217Y-48071289D02*
X31739695Y-48023670D01*
X31739695Y-48023670D02*
X31887223Y-47993480D01*
X31887223Y-47993480D02*
X31952272Y-48010910D01*
X33223059Y-48211978D02*
X33205629Y-48277027D01*
X33205629Y-48277027D02*
X33105721Y-48389695D01*
X33105721Y-48389695D02*
X33023242Y-48437314D01*
X33023242Y-48437314D02*
X32875715Y-48467503D01*
X32875715Y-48467503D02*
X32745617Y-48432644D01*
X32745617Y-48432644D02*
X32656759Y-48373975D01*
X32656759Y-48373975D02*
X32520281Y-48232827D01*
X32520281Y-48232827D02*
X32448853Y-48109109D01*
X32448853Y-48109109D02*
X32394854Y-47920342D01*
X32394854Y-47920342D02*
X32388474Y-47814054D01*
X32388474Y-47814054D02*
X32423334Y-47683957D01*
X32423334Y-47683957D02*
X32523242Y-47571289D01*
X32523242Y-47571289D02*
X32605721Y-47523670D01*
X32605721Y-47523670D02*
X32753248Y-47493480D01*
X32753248Y-47493480D02*
X32818297Y-47510910D01*
X31043755Y-38980171D02*
X30543755Y-38114146D01*
X30543755Y-38114146D02*
X30749952Y-37995098D01*
X30749952Y-37995098D02*
X30897479Y-37964909D01*
X30897479Y-37964909D02*
X31027577Y-37999768D01*
X31027577Y-37999768D02*
X31116435Y-38058438D01*
X31116435Y-38058438D02*
X31252913Y-38199585D01*
X31252913Y-38199585D02*
X31324341Y-38323303D01*
X31324341Y-38323303D02*
X31378340Y-38512070D01*
X31378340Y-38512070D02*
X31384720Y-38618358D01*
X31384720Y-38618358D02*
X31349860Y-38748456D01*
X31349860Y-38748456D02*
X31249952Y-38861124D01*
X31249952Y-38861124D02*
X31043755Y-38980171D01*
X32357033Y-38111978D02*
X32339604Y-38177027D01*
X32339604Y-38177027D02*
X32239695Y-38289695D01*
X32239695Y-38289695D02*
X32157217Y-38337314D01*
X32157217Y-38337314D02*
X32009689Y-38367503D01*
X32009689Y-38367503D02*
X31879592Y-38332644D01*
X31879592Y-38332644D02*
X31790733Y-38273975D01*
X31790733Y-38273975D02*
X31654256Y-38132827D01*
X31654256Y-38132827D02*
X31582827Y-38009109D01*
X31582827Y-38009109D02*
X31528828Y-37820342D01*
X31528828Y-37820342D02*
X31522449Y-37714054D01*
X31522449Y-37714054D02*
X31557308Y-37583957D01*
X31557308Y-37583957D02*
X31657217Y-37471289D01*
X31657217Y-37471289D02*
X31739695Y-37423670D01*
X31739695Y-37423670D02*
X31887223Y-37393480D01*
X31887223Y-37393480D02*
X31952272Y-37410910D01*
X33223059Y-37611978D02*
X33205629Y-37677027D01*
X33205629Y-37677027D02*
X33105721Y-37789695D01*
X33105721Y-37789695D02*
X33023242Y-37837314D01*
X33023242Y-37837314D02*
X32875715Y-37867503D01*
X32875715Y-37867503D02*
X32745617Y-37832644D01*
X32745617Y-37832644D02*
X32656759Y-37773975D01*
X32656759Y-37773975D02*
X32520281Y-37632827D01*
X32520281Y-37632827D02*
X32448853Y-37509109D01*
X32448853Y-37509109D02*
X32394854Y-37320342D01*
X32394854Y-37320342D02*
X32388474Y-37214054D01*
X32388474Y-37214054D02*
X32423334Y-37083957D01*
X32423334Y-37083957D02*
X32523242Y-36971289D01*
X32523242Y-36971289D02*
X32605721Y-36923670D01*
X32605721Y-36923670D02*
X32753248Y-36893480D01*
X32753248Y-36893480D02*
X32818297Y-36910910D01*
X31043755Y-17780171D02*
X30543755Y-16914146D01*
X30543755Y-16914146D02*
X30749952Y-16795098D01*
X30749952Y-16795098D02*
X30897479Y-16764909D01*
X30897479Y-16764909D02*
X31027577Y-16799768D01*
X31027577Y-16799768D02*
X31116435Y-16858438D01*
X31116435Y-16858438D02*
X31252913Y-16999585D01*
X31252913Y-16999585D02*
X31324341Y-17123303D01*
X31324341Y-17123303D02*
X31378340Y-17312070D01*
X31378340Y-17312070D02*
X31384720Y-17418358D01*
X31384720Y-17418358D02*
X31349860Y-17548456D01*
X31349860Y-17548456D02*
X31249952Y-17661124D01*
X31249952Y-17661124D02*
X31043755Y-17780171D01*
X32357033Y-16911978D02*
X32339604Y-16977027D01*
X32339604Y-16977027D02*
X32239695Y-17089695D01*
X32239695Y-17089695D02*
X32157217Y-17137314D01*
X32157217Y-17137314D02*
X32009689Y-17167503D01*
X32009689Y-17167503D02*
X31879592Y-17132644D01*
X31879592Y-17132644D02*
X31790733Y-17073975D01*
X31790733Y-17073975D02*
X31654256Y-16932827D01*
X31654256Y-16932827D02*
X31582827Y-16809109D01*
X31582827Y-16809109D02*
X31528828Y-16620342D01*
X31528828Y-16620342D02*
X31522449Y-16514054D01*
X31522449Y-16514054D02*
X31557308Y-16383957D01*
X31557308Y-16383957D02*
X31657217Y-16271289D01*
X31657217Y-16271289D02*
X31739695Y-16223670D01*
X31739695Y-16223670D02*
X31887223Y-16193480D01*
X31887223Y-16193480D02*
X31952272Y-16210910D01*
X33223059Y-16411978D02*
X33205629Y-16477027D01*
X33205629Y-16477027D02*
X33105721Y-16589695D01*
X33105721Y-16589695D02*
X33023242Y-16637314D01*
X33023242Y-16637314D02*
X32875715Y-16667503D01*
X32875715Y-16667503D02*
X32745617Y-16632644D01*
X32745617Y-16632644D02*
X32656759Y-16573975D01*
X32656759Y-16573975D02*
X32520281Y-16432827D01*
X32520281Y-16432827D02*
X32448853Y-16309109D01*
X32448853Y-16309109D02*
X32394854Y-16120342D01*
X32394854Y-16120342D02*
X32388474Y-16014054D01*
X32388474Y-16014054D02*
X32423334Y-15883957D01*
X32423334Y-15883957D02*
X32523242Y-15771289D01*
X32523242Y-15771289D02*
X32605721Y-15723670D01*
X32605721Y-15723670D02*
X32753248Y-15693480D01*
X32753248Y-15693480D02*
X32818297Y-15710910D01*
X34141101Y-43747219D02*
X33807768Y-43271028D01*
X33569673Y-43747219D02*
X33569673Y-42747219D01*
X33569673Y-42747219D02*
X33950625Y-42747219D01*
X33950625Y-42747219D02*
X34045863Y-42794838D01*
X34045863Y-42794838D02*
X34093482Y-42842457D01*
X34093482Y-42842457D02*
X34141101Y-42937695D01*
X34141101Y-42937695D02*
X34141101Y-43080552D01*
X34141101Y-43080552D02*
X34093482Y-43175790D01*
X34093482Y-43175790D02*
X34045863Y-43223409D01*
X34045863Y-43223409D02*
X33950625Y-43271028D01*
X33950625Y-43271028D02*
X33569673Y-43271028D01*
X34569673Y-43747219D02*
X34569673Y-42747219D01*
X34569673Y-42747219D02*
X34950625Y-42747219D01*
X34950625Y-42747219D02*
X35045863Y-42794838D01*
X35045863Y-42794838D02*
X35093482Y-42842457D01*
X35093482Y-42842457D02*
X35141101Y-42937695D01*
X35141101Y-42937695D02*
X35141101Y-43080552D01*
X35141101Y-43080552D02*
X35093482Y-43175790D01*
X35093482Y-43175790D02*
X35045863Y-43223409D01*
X35045863Y-43223409D02*
X34950625Y-43271028D01*
X34950625Y-43271028D02*
X34569673Y-43271028D01*
X35522054Y-42842457D02*
X35569673Y-42794838D01*
X35569673Y-42794838D02*
X35664911Y-42747219D01*
X35664911Y-42747219D02*
X35903006Y-42747219D01*
X35903006Y-42747219D02*
X35998244Y-42794838D01*
X35998244Y-42794838D02*
X36045863Y-42842457D01*
X36045863Y-42842457D02*
X36093482Y-42937695D01*
X36093482Y-42937695D02*
X36093482Y-43032933D01*
X36093482Y-43032933D02*
X36045863Y-43175790D01*
X36045863Y-43175790D02*
X35474435Y-43747219D01*
X35474435Y-43747219D02*
X36093482Y-43747219D01*
X36950625Y-43080552D02*
X36950625Y-43747219D01*
X36712530Y-42699600D02*
X36474435Y-43413885D01*
X36474435Y-43413885D02*
X37093482Y-43413885D01*
D11*
G04 #@! TO.C,L1*
X38165105Y-29647478D02*
X38687609Y-29647478D01*
X38165105Y-31867478D02*
X38687609Y-31867478D01*
G04 #@! TO.C,C18*
X31200580Y-49650000D02*
X30919420Y-49650000D01*
X31200580Y-50670000D02*
X30919420Y-50670000D01*
G04 #@! TO.C,Q1*
D12*
X25955000Y-27010000D02*
G75*
G02*
X25805000Y-27010000I-75000J0D01*
G01*
X25805000Y-27010000D02*
G75*
G02*
X25955000Y-27010000I75000J0D01*
G01*
D13*
G04 #@! TO.C,D2*
X42780000Y-36820000D02*
G75*
G02*
X42680000Y-36820000I-50000J0D01*
G01*
X42680000Y-36820000D02*
G75*
G02*
X42780000Y-36820000I50000J0D01*
G01*
D11*
G04 #@! TO.C,C9*
X38770580Y-21730000D02*
X38489420Y-21730000D01*
X38770580Y-22750000D02*
X38489420Y-22750000D01*
D12*
G04 #@! TO.C,D1*
X25530000Y-28900000D02*
X28730000Y-28900000D01*
X25530000Y-29300000D02*
X25530000Y-28900000D01*
X25530000Y-30300000D02*
X25530000Y-30700000D01*
X25530000Y-32100000D02*
X25530000Y-31700000D01*
X25930000Y-32100000D02*
X25530000Y-32100000D01*
X28530000Y-32100000D02*
X28730000Y-32100000D01*
X28730000Y-29300000D02*
X28730000Y-28900000D01*
X28730000Y-32100000D02*
X28730000Y-31700000D01*
D13*
X29030000Y-31100000D02*
X29030000Y-31100000D01*
X29030000Y-31200000D02*
X29030000Y-31200000D01*
X29030000Y-31100000D02*
G75*
G02*
X29030000Y-31200000I0J-50000D01*
G01*
X29030000Y-31200000D02*
G75*
G02*
X29030000Y-31100000I0J50000D01*
G01*
G04 #@! TO.C,Q6*
D12*
X29155000Y-33670000D02*
G75*
G02*
X29005000Y-33670000I-75000J0D01*
G01*
X29005000Y-33670000D02*
G75*
G02*
X29155000Y-33670000I75000J0D01*
G01*
D11*
G04 #@! TO.C,C9*
X38770580Y-32330000D02*
X38489420Y-32330000D01*
X38770580Y-33350000D02*
X38489420Y-33350000D01*
G04 #@! TO.C,U4*
X30220000Y-29975000D02*
X32220000Y-29975000D01*
X30220000Y-32245000D02*
X32220000Y-32245000D01*
X29670000Y-30060000D02*
X29390000Y-30060000D01*
X29670000Y-29780000D01*
X29670000Y-30060000D01*
G36*
X29670000Y-30060000D02*
G01*
X29390000Y-30060000D01*
X29670000Y-29780000D01*
X29670000Y-30060000D01*
G37*
G04 #@! TO.C,Q3*
D12*
X26915000Y-54875000D02*
G75*
G02*
X26765000Y-54875000I-75000J0D01*
G01*
X26765000Y-54875000D02*
G75*
G02*
X26915000Y-54875000I75000J0D01*
G01*
D11*
G04 #@! TO.C,C18*
X31200580Y-17850000D02*
X30919420Y-17850000D01*
X31200580Y-18870000D02*
X30919420Y-18870000D01*
D12*
G04 #@! TO.C,SW1*
X41660000Y-28500000D02*
X41660000Y-33500000D01*
X41660000Y-28500000D02*
X42160000Y-28500000D01*
X42160000Y-33500000D02*
X41660000Y-33500000D01*
X44260000Y-28500000D02*
X44660000Y-28500000D01*
X44660000Y-33500000D02*
X44260000Y-33500000D01*
G04 #@! TO.C,Q3*
X26915000Y-23075000D02*
G75*
G02*
X26765000Y-23075000I-75000J0D01*
G01*
X26765000Y-23075000D02*
G75*
G02*
X26915000Y-23075000I75000J0D01*
G01*
G04 #@! TO.C,Q1*
X25955000Y-37610000D02*
G75*
G02*
X25805000Y-37610000I-75000J0D01*
G01*
X25805000Y-37610000D02*
G75*
G02*
X25955000Y-37610000I75000J0D01*
G01*
D11*
G04 #@! TO.C,C18*
X31200580Y-39050000D02*
X30919420Y-39050000D01*
X31200580Y-40070000D02*
X30919420Y-40070000D01*
G04 #@! TO.C,Q6*
D12*
X29155000Y-54870000D02*
G75*
G02*
X29005000Y-54870000I-75000J0D01*
G01*
X29005000Y-54870000D02*
G75*
G02*
X29155000Y-54870000I75000J0D01*
G01*
G04 #@! TO.C,Q2*
D14*
X33082500Y-53570000D02*
G75*
G02*
X32957500Y-53570000I-62500J0D01*
G01*
X32957500Y-53570000D02*
G75*
G02*
X33082500Y-53570000I62500J0D01*
G01*
G04 #@! TO.C,Q3*
D12*
X26915000Y-44275000D02*
G75*
G02*
X26765000Y-44275000I-75000J0D01*
G01*
X26765000Y-44275000D02*
G75*
G02*
X26915000Y-44275000I75000J0D01*
G01*
G04 #@! TO.C,Q2*
D14*
X33082500Y-21770000D02*
G75*
G02*
X32957500Y-21770000I-62500J0D01*
G01*
X32957500Y-21770000D02*
G75*
G02*
X33082500Y-21770000I62500J0D01*
G01*
D13*
G04 #@! TO.C,D2*
X42780000Y-26220000D02*
G75*
G02*
X42680000Y-26220000I-50000J0D01*
G01*
X42680000Y-26220000D02*
G75*
G02*
X42780000Y-26220000I50000J0D01*
G01*
D11*
G04 #@! TO.C,C9*
X38770580Y-53530000D02*
X38489420Y-53530000D01*
X38770580Y-54550000D02*
X38489420Y-54550000D01*
D13*
G04 #@! TO.C,D2*
X42780000Y-47420000D02*
G75*
G02*
X42680000Y-47420000I-50000J0D01*
G01*
X42680000Y-47420000D02*
G75*
G02*
X42780000Y-47420000I50000J0D01*
G01*
D11*
G04 #@! TO.C,C4*
X33190000Y-47770000D02*
X33190000Y-51980000D01*
X33190000Y-51980000D02*
X36210000Y-51980000D01*
X36210000Y-51980000D02*
X36210000Y-47770000D01*
G04 #@! TO.C,Q3*
D12*
X26915000Y-33675000D02*
G75*
G02*
X26765000Y-33675000I-75000J0D01*
G01*
X26765000Y-33675000D02*
G75*
G02*
X26915000Y-33675000I75000J0D01*
G01*
G04 #@! TO.C,Q1*
X25955000Y-48210000D02*
G75*
G02*
X25805000Y-48210000I-75000J0D01*
G01*
X25805000Y-48210000D02*
G75*
G02*
X25955000Y-48210000I75000J0D01*
G01*
G04 #@! TO.C,SW1*
X41660000Y-17900000D02*
X41660000Y-22900000D01*
X41660000Y-17900000D02*
X42160000Y-17900000D01*
X42160000Y-22900000D02*
X41660000Y-22900000D01*
X44260000Y-17900000D02*
X44660000Y-17900000D01*
X44660000Y-22900000D02*
X44260000Y-22900000D01*
D11*
G04 #@! TO.C,C4*
X33190000Y-15970000D02*
X33190000Y-20180000D01*
X33190000Y-20180000D02*
X36210000Y-20180000D01*
X36210000Y-20180000D02*
X36210000Y-15970000D01*
G04 #@! TO.C,Q1*
D12*
X25955000Y-16410000D02*
G75*
G02*
X25805000Y-16410000I-75000J0D01*
G01*
X25805000Y-16410000D02*
G75*
G02*
X25955000Y-16410000I75000J0D01*
G01*
G04 #@! TO.C,D1*
X25530000Y-50100000D02*
X28730000Y-50100000D01*
X25530000Y-50500000D02*
X25530000Y-50100000D01*
X25530000Y-51500000D02*
X25530000Y-51900000D01*
X25530000Y-53300000D02*
X25530000Y-52900000D01*
X25930000Y-53300000D02*
X25530000Y-53300000D01*
X28530000Y-53300000D02*
X28730000Y-53300000D01*
X28730000Y-50500000D02*
X28730000Y-50100000D01*
X28730000Y-53300000D02*
X28730000Y-52900000D01*
D13*
X29030000Y-52300000D02*
X29030000Y-52300000D01*
X29030000Y-52400000D02*
X29030000Y-52400000D01*
X29030000Y-52300000D02*
G75*
G02*
X29030000Y-52400000I0J-50000D01*
G01*
X29030000Y-52400000D02*
G75*
G02*
X29030000Y-52300000I0J50000D01*
G01*
D11*
G04 #@! TO.C,C4*
X33190000Y-26570000D02*
X33190000Y-30780000D01*
X33190000Y-30780000D02*
X36210000Y-30780000D01*
X36210000Y-30780000D02*
X36210000Y-26570000D01*
G04 #@! TO.C,C18*
X31200580Y-28450000D02*
X30919420Y-28450000D01*
X31200580Y-29470000D02*
X30919420Y-29470000D01*
G04 #@! TO.C,Q6*
D12*
X29155000Y-44270000D02*
G75*
G02*
X29005000Y-44270000I-75000J0D01*
G01*
X29005000Y-44270000D02*
G75*
G02*
X29155000Y-44270000I75000J0D01*
G01*
G04 #@! TO.C,Q2*
D14*
X33082500Y-32370000D02*
G75*
G02*
X32957500Y-32370000I-62500J0D01*
G01*
X32957500Y-32370000D02*
G75*
G02*
X33082500Y-32370000I62500J0D01*
G01*
D11*
G04 #@! TO.C,U4*
X30220000Y-51175000D02*
X32220000Y-51175000D01*
X30220000Y-53445000D02*
X32220000Y-53445000D01*
X29670000Y-51260000D02*
X29390000Y-51260000D01*
X29670000Y-50980000D01*
X29670000Y-51260000D01*
G36*
X29670000Y-51260000D02*
G01*
X29390000Y-51260000D01*
X29670000Y-50980000D01*
X29670000Y-51260000D01*
G37*
G04 #@! TO.C,U2*
X38460000Y-26150000D02*
X37660000Y-26150000D01*
X38460000Y-26150000D02*
X39260000Y-26150000D01*
X38460000Y-29270000D02*
X37660000Y-29270000D01*
X38460000Y-29270000D02*
X39260000Y-29270000D01*
D12*
X40535000Y-29110000D02*
G75*
G02*
X40385000Y-29110000I-75000J0D01*
G01*
X40385000Y-29110000D02*
G75*
G02*
X40535000Y-29110000I75000J0D01*
G01*
G04 #@! TO.C,Q6*
X29155000Y-23070000D02*
G75*
G02*
X29005000Y-23070000I-75000J0D01*
G01*
X29005000Y-23070000D02*
G75*
G02*
X29155000Y-23070000I75000J0D01*
G01*
D11*
G04 #@! TO.C,L1*
X38165105Y-19047478D02*
X38687609Y-19047478D01*
X38165105Y-21267478D02*
X38687609Y-21267478D01*
D12*
G04 #@! TO.C,D1*
X25530000Y-18300000D02*
X28730000Y-18300000D01*
X25530000Y-18700000D02*
X25530000Y-18300000D01*
X25530000Y-19700000D02*
X25530000Y-20100000D01*
X25530000Y-21500000D02*
X25530000Y-21100000D01*
X25930000Y-21500000D02*
X25530000Y-21500000D01*
X28530000Y-21500000D02*
X28730000Y-21500000D01*
X28730000Y-18700000D02*
X28730000Y-18300000D01*
X28730000Y-21500000D02*
X28730000Y-21100000D01*
D13*
X29030000Y-20500000D02*
X29030000Y-20500000D01*
X29030000Y-20600000D02*
X29030000Y-20600000D01*
X29030000Y-20500000D02*
G75*
G02*
X29030000Y-20600000I0J-50000D01*
G01*
X29030000Y-20600000D02*
G75*
G02*
X29030000Y-20500000I0J50000D01*
G01*
D11*
G04 #@! TO.C,C4*
X33190000Y-37170000D02*
X33190000Y-41380000D01*
X33190000Y-41380000D02*
X36210000Y-41380000D01*
X36210000Y-41380000D02*
X36210000Y-37170000D01*
D13*
G04 #@! TO.C,D2*
X42780000Y-15620000D02*
G75*
G02*
X42680000Y-15620000I-50000J0D01*
G01*
X42680000Y-15620000D02*
G75*
G02*
X42780000Y-15620000I50000J0D01*
G01*
D12*
G04 #@! TO.C,SW1*
X41660000Y-39100000D02*
X41660000Y-44100000D01*
X41660000Y-39100000D02*
X42160000Y-39100000D01*
X42160000Y-44100000D02*
X41660000Y-44100000D01*
X44260000Y-39100000D02*
X44660000Y-39100000D01*
X44660000Y-44100000D02*
X44260000Y-44100000D01*
G04 #@! TO.C,Q2*
D14*
X33082500Y-42970000D02*
G75*
G02*
X32957500Y-42970000I-62500J0D01*
G01*
X32957500Y-42970000D02*
G75*
G02*
X33082500Y-42970000I62500J0D01*
G01*
D11*
G04 #@! TO.C,U4*
X30220000Y-40575000D02*
X32220000Y-40575000D01*
X30220000Y-42845000D02*
X32220000Y-42845000D01*
X29670000Y-40660000D02*
X29390000Y-40660000D01*
X29670000Y-40380000D01*
X29670000Y-40660000D01*
G36*
X29670000Y-40660000D02*
G01*
X29390000Y-40660000D01*
X29670000Y-40380000D01*
X29670000Y-40660000D01*
G37*
G04 #@! TO.C,U2*
X38460000Y-36750000D02*
X37660000Y-36750000D01*
X38460000Y-36750000D02*
X39260000Y-36750000D01*
X38460000Y-39870000D02*
X37660000Y-39870000D01*
X38460000Y-39870000D02*
X39260000Y-39870000D01*
D12*
X40535000Y-39710000D02*
G75*
G02*
X40385000Y-39710000I-75000J0D01*
G01*
X40385000Y-39710000D02*
G75*
G02*
X40535000Y-39710000I75000J0D01*
G01*
G04 #@! TO.C,SW1*
X41660000Y-49700000D02*
X41660000Y-54700000D01*
X41660000Y-49700000D02*
X42160000Y-49700000D01*
X42160000Y-54700000D02*
X41660000Y-54700000D01*
X44260000Y-49700000D02*
X44660000Y-49700000D01*
X44660000Y-54700000D02*
X44260000Y-54700000D01*
D11*
G04 #@! TO.C,C9*
X38770580Y-42930000D02*
X38489420Y-42930000D01*
X38770580Y-43950000D02*
X38489420Y-43950000D01*
G04 #@! TO.C,U2*
X38460000Y-15550000D02*
X37660000Y-15550000D01*
X38460000Y-15550000D02*
X39260000Y-15550000D01*
X38460000Y-18670000D02*
X37660000Y-18670000D01*
X38460000Y-18670000D02*
X39260000Y-18670000D01*
D12*
X40535000Y-18510000D02*
G75*
G02*
X40385000Y-18510000I-75000J0D01*
G01*
X40385000Y-18510000D02*
G75*
G02*
X40535000Y-18510000I75000J0D01*
G01*
D11*
G04 #@! TO.C,L1*
X38165105Y-50847478D02*
X38687609Y-50847478D01*
X38165105Y-53067478D02*
X38687609Y-53067478D01*
G04 #@! TO.C,U2*
X38460000Y-47350000D02*
X37660000Y-47350000D01*
X38460000Y-47350000D02*
X39260000Y-47350000D01*
X38460000Y-50470000D02*
X37660000Y-50470000D01*
X38460000Y-50470000D02*
X39260000Y-50470000D01*
D12*
X40535000Y-50310000D02*
G75*
G02*
X40385000Y-50310000I-75000J0D01*
G01*
X40385000Y-50310000D02*
G75*
G02*
X40535000Y-50310000I75000J0D01*
G01*
D11*
G04 #@! TO.C,L1*
X38165105Y-40247478D02*
X38687609Y-40247478D01*
X38165105Y-42467478D02*
X38687609Y-42467478D01*
G04 #@! TO.C,U4*
X30220000Y-19375000D02*
X32220000Y-19375000D01*
X30220000Y-21645000D02*
X32220000Y-21645000D01*
X29670000Y-19460000D02*
X29390000Y-19460000D01*
X29670000Y-19180000D01*
X29670000Y-19460000D01*
G36*
X29670000Y-19460000D02*
G01*
X29390000Y-19460000D01*
X29670000Y-19180000D01*
X29670000Y-19460000D01*
G37*
D12*
G04 #@! TO.C,D1*
X25530000Y-39500000D02*
X28730000Y-39500000D01*
X25530000Y-39900000D02*
X25530000Y-39500000D01*
X25530000Y-40900000D02*
X25530000Y-41300000D01*
X25530000Y-42700000D02*
X25530000Y-42300000D01*
X25930000Y-42700000D02*
X25530000Y-42700000D01*
X28530000Y-42700000D02*
X28730000Y-42700000D01*
X28730000Y-39900000D02*
X28730000Y-39500000D01*
X28730000Y-42700000D02*
X28730000Y-42300000D01*
D13*
X29030000Y-41700000D02*
X29030000Y-41700000D01*
X29030000Y-41800000D02*
X29030000Y-41800000D01*
X29030000Y-41700000D02*
G75*
G02*
X29030000Y-41800000I0J-50000D01*
G01*
X29030000Y-41800000D02*
G75*
G02*
X29030000Y-41700000I0J50000D01*
G01*
G04 #@! TD*
M02*
