G04 #@! TF.GenerationSoftware,KiCad,Pcbnew,8.0.8*
G04 #@! TF.CreationDate,2025-01-19T19:44:08-05:00*
G04 #@! TF.ProjectId,panel,70616e65-6c2e-46b6-9963-61645f706362,rev?*
G04 #@! TF.SameCoordinates,Original*
G04 #@! TF.FileFunction,Paste,Bot*
G04 #@! TF.FilePolarity,Positive*
%FSLAX46Y46*%
G04 Gerber Fmt 4.6, Leading zero omitted, Abs format (unit mm)*
G04 Created by KiCad (PCBNEW 8.0.8) date 2025-01-19 19:44:08*
%MOMM*%
%LPD*%
G01*
G04 APERTURE LIST*
G04 Aperture macros list*
%AMRoundRect*
0 Rectangle with rounded corners*
0 $1 Rounding radius*
0 $2 $3 $4 $5 $6 $7 $8 $9 X,Y pos of 4 corners*
0 Add a 4 corners polygon primitive as box body*
4,1,4,$2,$3,$4,$5,$6,$7,$8,$9,$2,$3,0*
0 Add four circle primitives for the rounded corners*
1,1,$1+$1,$2,$3*
1,1,$1+$1,$4,$5*
1,1,$1+$1,$6,$7*
1,1,$1+$1,$8,$9*
0 Add four rect primitives between the rounded corners*
20,1,$1+$1,$2,$3,$4,$5,0*
20,1,$1+$1,$4,$5,$6,$7,0*
20,1,$1+$1,$6,$7,$8,$9,0*
20,1,$1+$1,$8,$9,$2,$3,0*%
G04 Aperture macros list end*
%ADD10RoundRect,0.079500X0.079500X0.100500X-0.079500X0.100500X-0.079500X-0.100500X0.079500X-0.100500X0*%
%ADD11C,0.250000*%
%ADD12RoundRect,0.079500X0.100500X-0.079500X0.100500X0.079500X-0.100500X0.079500X-0.100500X-0.079500X0*%
%ADD13RoundRect,0.140000X0.170000X-0.140000X0.170000X0.140000X-0.170000X0.140000X-0.170000X-0.140000X0*%
%ADD14R,1.150000X1.000000*%
%ADD15RoundRect,0.140000X0.140000X0.170000X-0.140000X0.170000X-0.140000X-0.170000X0.140000X-0.170000X0*%
%ADD16R,0.350000X0.850000*%
%ADD17R,3.100000X2.400000*%
%ADD18RoundRect,0.249999X-0.395001X0.395001X-0.395001X-0.395001X0.395001X-0.395001X0.395001X0.395001X0*%
%ADD19RoundRect,0.050000X-0.050000X0.387500X-0.050000X-0.387500X0.050000X-0.387500X0.050000X0.387500X0*%
%ADD20RoundRect,0.050000X-0.387500X0.050000X-0.387500X-0.050000X0.387500X-0.050000X0.387500X0.050000X0*%
%ADD21R,0.400000X0.250000*%
%ADD22R,0.400000X0.700000*%
%ADD23R,0.400000X0.180000*%
%ADD24R,0.385000X0.400000*%
G04 APERTURE END LIST*
D10*
G04 #@! TO.C,R10*
X31885000Y-43020000D03*
X31195000Y-43020000D03*
G04 #@! TD*
D11*
G04 #@! TO.C,U5*
X31040000Y-15400000D03*
X30640000Y-15400000D03*
X30240000Y-15400000D03*
X31040000Y-15800000D03*
X30640000Y-15800000D03*
X30240000Y-15800000D03*
X31040000Y-16200000D03*
X30640000Y-16200000D03*
X30240000Y-16200000D03*
G04 #@! TD*
D12*
G04 #@! TO.C,C12*
X30020000Y-18045000D03*
X30020000Y-17355000D03*
G04 #@! TD*
D13*
G04 #@! TO.C,C8*
X31760000Y-18710000D03*
X31760000Y-17750000D03*
G04 #@! TD*
D12*
G04 #@! TO.C,C12*
X30020000Y-39245000D03*
X30020000Y-38555000D03*
G04 #@! TD*
D14*
G04 #@! TO.C,Y1*
X43965000Y-27650000D03*
X42215000Y-27650000D03*
X42215000Y-26250000D03*
X43965000Y-26250000D03*
G04 #@! TD*
D13*
G04 #@! TO.C,C8*
X31760000Y-50510000D03*
X31760000Y-49550000D03*
G04 #@! TD*
G04 #@! TO.C,C10*
X30840000Y-28990000D03*
X30840000Y-28030000D03*
G04 #@! TD*
D15*
G04 #@! TO.C,C14*
X30400000Y-32120000D03*
X29440000Y-32120000D03*
G04 #@! TD*
D11*
G04 #@! TO.C,U5*
X31040000Y-26000000D03*
X30640000Y-26000000D03*
X30240000Y-26000000D03*
X31040000Y-26400000D03*
X30640000Y-26400000D03*
X30240000Y-26400000D03*
X31040000Y-26800000D03*
X30640000Y-26800000D03*
X30240000Y-26800000D03*
G04 #@! TD*
D15*
G04 #@! TO.C,C14*
X30400000Y-42720000D03*
X29440000Y-42720000D03*
G04 #@! TD*
D13*
G04 #@! TO.C,C10*
X30840000Y-39590000D03*
X30840000Y-38630000D03*
G04 #@! TD*
D16*
G04 #@! TO.C,U1*
X41600000Y-50620000D03*
X42400000Y-50620000D03*
X43200000Y-50620000D03*
X44000000Y-50620000D03*
X44000000Y-54520000D03*
X43200000Y-54520000D03*
X42400000Y-54520000D03*
X41600000Y-54520000D03*
D17*
X42800000Y-52570000D03*
G04 #@! TD*
D18*
G04 #@! TO.C,U3*
X37175000Y-39675000D03*
X35575000Y-39675000D03*
X37175000Y-41275000D03*
X35575000Y-41275000D03*
D19*
X33775000Y-37037500D03*
X34175000Y-37037500D03*
X34575000Y-37037500D03*
X34975000Y-37037500D03*
X35375000Y-37037500D03*
X35775000Y-37037500D03*
X36175000Y-37037500D03*
X36575000Y-37037500D03*
X36975000Y-37037500D03*
X37375000Y-37037500D03*
X37775000Y-37037500D03*
X38175000Y-37037500D03*
X38575000Y-37037500D03*
X38975000Y-37037500D03*
D20*
X39812500Y-37875000D03*
X39812500Y-38275000D03*
X39812500Y-38675000D03*
X39812500Y-39075000D03*
X39812500Y-39475000D03*
X39812500Y-39875000D03*
X39812500Y-40275000D03*
X39812500Y-40675000D03*
X39812500Y-41075000D03*
X39812500Y-41475000D03*
X39812500Y-41875000D03*
X39812500Y-42275000D03*
X39812500Y-42675000D03*
X39812500Y-43075000D03*
D19*
X38975000Y-43912500D03*
X38575000Y-43912500D03*
X38175000Y-43912500D03*
X37775000Y-43912500D03*
X37375000Y-43912500D03*
X36975000Y-43912500D03*
X36575000Y-43912500D03*
X36175000Y-43912500D03*
X35775000Y-43912500D03*
X35375000Y-43912500D03*
X34975000Y-43912500D03*
X34575000Y-43912500D03*
X34175000Y-43912500D03*
X33775000Y-43912500D03*
D20*
X32937500Y-43075000D03*
X32937500Y-42675000D03*
X32937500Y-42275000D03*
X32937500Y-41875000D03*
X32937500Y-41475000D03*
X32937500Y-41075000D03*
X32937500Y-40675000D03*
X32937500Y-40275000D03*
X32937500Y-39875000D03*
X32937500Y-39475000D03*
X32937500Y-39075000D03*
X32937500Y-38675000D03*
X32937500Y-38275000D03*
X32937500Y-37875000D03*
G04 #@! TD*
D12*
G04 #@! TO.C,C12*
X30020000Y-28645000D03*
X30020000Y-27955000D03*
G04 #@! TD*
D21*
G04 #@! TO.C,Q5*
X30160000Y-43755000D03*
X30160000Y-44205000D03*
D22*
X29460000Y-43980000D03*
G04 #@! TD*
D13*
G04 #@! TO.C,C10*
X30840000Y-18390000D03*
X30840000Y-17430000D03*
G04 #@! TD*
G04 #@! TO.C,C8*
X31760000Y-29310000D03*
X31760000Y-28350000D03*
G04 #@! TD*
D18*
G04 #@! TO.C,U3*
X37175000Y-18475000D03*
X35575000Y-18475000D03*
X37175000Y-20075000D03*
X35575000Y-20075000D03*
D19*
X33775000Y-15837500D03*
X34175000Y-15837500D03*
X34575000Y-15837500D03*
X34975000Y-15837500D03*
X35375000Y-15837500D03*
X35775000Y-15837500D03*
X36175000Y-15837500D03*
X36575000Y-15837500D03*
X36975000Y-15837500D03*
X37375000Y-15837500D03*
X37775000Y-15837500D03*
X38175000Y-15837500D03*
X38575000Y-15837500D03*
X38975000Y-15837500D03*
D20*
X39812500Y-16675000D03*
X39812500Y-17075000D03*
X39812500Y-17475000D03*
X39812500Y-17875000D03*
X39812500Y-18275000D03*
X39812500Y-18675000D03*
X39812500Y-19075000D03*
X39812500Y-19475000D03*
X39812500Y-19875000D03*
X39812500Y-20275000D03*
X39812500Y-20675000D03*
X39812500Y-21075000D03*
X39812500Y-21475000D03*
X39812500Y-21875000D03*
D19*
X38975000Y-22712500D03*
X38575000Y-22712500D03*
X38175000Y-22712500D03*
X37775000Y-22712500D03*
X37375000Y-22712500D03*
X36975000Y-22712500D03*
X36575000Y-22712500D03*
X36175000Y-22712500D03*
X35775000Y-22712500D03*
X35375000Y-22712500D03*
X34975000Y-22712500D03*
X34575000Y-22712500D03*
X34175000Y-22712500D03*
X33775000Y-22712500D03*
D20*
X32937500Y-21875000D03*
X32937500Y-21475000D03*
X32937500Y-21075000D03*
X32937500Y-20675000D03*
X32937500Y-20275000D03*
X32937500Y-19875000D03*
X32937500Y-19475000D03*
X32937500Y-19075000D03*
X32937500Y-18675000D03*
X32937500Y-18275000D03*
X32937500Y-17875000D03*
X32937500Y-17475000D03*
X32937500Y-17075000D03*
X32937500Y-16675000D03*
G04 #@! TD*
D10*
G04 #@! TO.C,C11*
X31891526Y-31728507D03*
X31201526Y-31728507D03*
G04 #@! TD*
D12*
G04 #@! TO.C,C1*
X40990000Y-47755000D03*
X40990000Y-47065000D03*
G04 #@! TD*
G04 #@! TO.C,R6*
X41040000Y-38555000D03*
X41040000Y-37865000D03*
G04 #@! TD*
D18*
G04 #@! TO.C,U3*
X37175000Y-29075000D03*
X35575000Y-29075000D03*
X37175000Y-30675000D03*
X35575000Y-30675000D03*
D19*
X33775000Y-26437500D03*
X34175000Y-26437500D03*
X34575000Y-26437500D03*
X34975000Y-26437500D03*
X35375000Y-26437500D03*
X35775000Y-26437500D03*
X36175000Y-26437500D03*
X36575000Y-26437500D03*
X36975000Y-26437500D03*
X37375000Y-26437500D03*
X37775000Y-26437500D03*
X38175000Y-26437500D03*
X38575000Y-26437500D03*
X38975000Y-26437500D03*
D20*
X39812500Y-27275000D03*
X39812500Y-27675000D03*
X39812500Y-28075000D03*
X39812500Y-28475000D03*
X39812500Y-28875000D03*
X39812500Y-29275000D03*
X39812500Y-29675000D03*
X39812500Y-30075000D03*
X39812500Y-30475000D03*
X39812500Y-30875000D03*
X39812500Y-31275000D03*
X39812500Y-31675000D03*
X39812500Y-32075000D03*
X39812500Y-32475000D03*
D19*
X38975000Y-33312500D03*
X38575000Y-33312500D03*
X38175000Y-33312500D03*
X37775000Y-33312500D03*
X37375000Y-33312500D03*
X36975000Y-33312500D03*
X36575000Y-33312500D03*
X36175000Y-33312500D03*
X35775000Y-33312500D03*
X35375000Y-33312500D03*
X34975000Y-33312500D03*
X34575000Y-33312500D03*
X34175000Y-33312500D03*
X33775000Y-33312500D03*
D20*
X32937500Y-32475000D03*
X32937500Y-32075000D03*
X32937500Y-31675000D03*
X32937500Y-31275000D03*
X32937500Y-30875000D03*
X32937500Y-30475000D03*
X32937500Y-30075000D03*
X32937500Y-29675000D03*
X32937500Y-29275000D03*
X32937500Y-28875000D03*
X32937500Y-28475000D03*
X32937500Y-28075000D03*
X32937500Y-27675000D03*
X32937500Y-27275000D03*
G04 #@! TD*
D12*
G04 #@! TO.C,R6*
X41040000Y-27955000D03*
X41040000Y-27265000D03*
G04 #@! TD*
G04 #@! TO.C,R6*
X41040000Y-49155000D03*
X41040000Y-48465000D03*
G04 #@! TD*
D14*
G04 #@! TO.C,Y1*
X43965000Y-48850000D03*
X42215000Y-48850000D03*
X42215000Y-47450000D03*
X43965000Y-47450000D03*
G04 #@! TD*
D23*
G04 #@! TO.C,J4*
X27800000Y-27825000D03*
X27800000Y-28175000D03*
X27800000Y-28525000D03*
X27800000Y-28875000D03*
X27800000Y-29225000D03*
X27800000Y-29575000D03*
X27800000Y-29925000D03*
X27800000Y-30275000D03*
X27800000Y-30625000D03*
X27800000Y-30975000D03*
X27800000Y-31325000D03*
X27800000Y-31675000D03*
X25900000Y-31675000D03*
X25900000Y-31325000D03*
X25900000Y-30975000D03*
X25900000Y-30625000D03*
X25900000Y-30275000D03*
X25900000Y-29925000D03*
X25900000Y-29575000D03*
X25900000Y-29225000D03*
X25900000Y-28875000D03*
X25900000Y-28525000D03*
X25900000Y-28175000D03*
X25900000Y-27825000D03*
D24*
X27332000Y-26555000D03*
X26368000Y-26545000D03*
X27332000Y-32955000D03*
X26368000Y-32955000D03*
G04 #@! TD*
D16*
G04 #@! TO.C,U1*
X41600000Y-40020000D03*
X42400000Y-40020000D03*
X43200000Y-40020000D03*
X44000000Y-40020000D03*
X44000000Y-43920000D03*
X43200000Y-43920000D03*
X42400000Y-43920000D03*
X41600000Y-43920000D03*
D17*
X42800000Y-41970000D03*
G04 #@! TD*
D21*
G04 #@! TO.C,Q5*
X30160000Y-33155000D03*
X30160000Y-33605000D03*
D22*
X29460000Y-33380000D03*
G04 #@! TD*
D12*
G04 #@! TO.C,R6*
X41040000Y-17355000D03*
X41040000Y-16665000D03*
G04 #@! TD*
D10*
G04 #@! TO.C,C11*
X31891526Y-21128507D03*
X31201526Y-21128507D03*
G04 #@! TD*
D23*
G04 #@! TO.C,J4*
X27800000Y-17225000D03*
X27800000Y-17575000D03*
X27800000Y-17925000D03*
X27800000Y-18275000D03*
X27800000Y-18625000D03*
X27800000Y-18975000D03*
X27800000Y-19325000D03*
X27800000Y-19675000D03*
X27800000Y-20025000D03*
X27800000Y-20375000D03*
X27800000Y-20725000D03*
X27800000Y-21075000D03*
X25900000Y-21075000D03*
X25900000Y-20725000D03*
X25900000Y-20375000D03*
X25900000Y-20025000D03*
X25900000Y-19675000D03*
X25900000Y-19325000D03*
X25900000Y-18975000D03*
X25900000Y-18625000D03*
X25900000Y-18275000D03*
X25900000Y-17925000D03*
X25900000Y-17575000D03*
X25900000Y-17225000D03*
D24*
X27332000Y-15955000D03*
X26368000Y-15945000D03*
X27332000Y-22355000D03*
X26368000Y-22355000D03*
G04 #@! TD*
D15*
G04 #@! TO.C,C14*
X30400000Y-53320000D03*
X29440000Y-53320000D03*
G04 #@! TD*
D10*
G04 #@! TO.C,C11*
X31891526Y-42328507D03*
X31201526Y-42328507D03*
G04 #@! TD*
G04 #@! TO.C,C11*
X31891526Y-52928507D03*
X31201526Y-52928507D03*
G04 #@! TD*
D21*
G04 #@! TO.C,Q5*
X30160000Y-22555000D03*
X30160000Y-23005000D03*
D22*
X29460000Y-22780000D03*
G04 #@! TD*
D10*
G04 #@! TO.C,R10*
X31885000Y-53620000D03*
X31195000Y-53620000D03*
G04 #@! TD*
D16*
G04 #@! TO.C,U1*
X41600000Y-18820000D03*
X42400000Y-18820000D03*
X43200000Y-18820000D03*
X44000000Y-18820000D03*
X44000000Y-22720000D03*
X43200000Y-22720000D03*
X42400000Y-22720000D03*
X41600000Y-22720000D03*
D17*
X42800000Y-20770000D03*
G04 #@! TD*
D12*
G04 #@! TO.C,C12*
X30020000Y-49845000D03*
X30020000Y-49155000D03*
G04 #@! TD*
D21*
G04 #@! TO.C,Q5*
X30160000Y-54355000D03*
X30160000Y-54805000D03*
D22*
X29460000Y-54580000D03*
G04 #@! TD*
D13*
G04 #@! TO.C,C10*
X30840000Y-50190000D03*
X30840000Y-49230000D03*
G04 #@! TD*
D14*
G04 #@! TO.C,Y1*
X43965000Y-17050000D03*
X42215000Y-17050000D03*
X42215000Y-15650000D03*
X43965000Y-15650000D03*
G04 #@! TD*
D11*
G04 #@! TO.C,U5*
X31040000Y-47200000D03*
X30640000Y-47200000D03*
X30240000Y-47200000D03*
X31040000Y-47600000D03*
X30640000Y-47600000D03*
X30240000Y-47600000D03*
X31040000Y-48000000D03*
X30640000Y-48000000D03*
X30240000Y-48000000D03*
G04 #@! TD*
D12*
G04 #@! TO.C,C1*
X40990000Y-26555000D03*
X40990000Y-25865000D03*
G04 #@! TD*
D10*
G04 #@! TO.C,R10*
X31885000Y-21820000D03*
X31195000Y-21820000D03*
G04 #@! TD*
D12*
G04 #@! TO.C,C1*
X40990000Y-37155000D03*
X40990000Y-36465000D03*
G04 #@! TD*
G04 #@! TO.C,C1*
X40990000Y-15955000D03*
X40990000Y-15265000D03*
G04 #@! TD*
D16*
G04 #@! TO.C,U1*
X41600000Y-29420000D03*
X42400000Y-29420000D03*
X43200000Y-29420000D03*
X44000000Y-29420000D03*
X44000000Y-33320000D03*
X43200000Y-33320000D03*
X42400000Y-33320000D03*
X41600000Y-33320000D03*
D17*
X42800000Y-31370000D03*
G04 #@! TD*
D10*
G04 #@! TO.C,R10*
X31885000Y-32420000D03*
X31195000Y-32420000D03*
G04 #@! TD*
D18*
G04 #@! TO.C,U3*
X37175000Y-50275000D03*
X35575000Y-50275000D03*
X37175000Y-51875000D03*
X35575000Y-51875000D03*
D19*
X33775000Y-47637500D03*
X34175000Y-47637500D03*
X34575000Y-47637500D03*
X34975000Y-47637500D03*
X35375000Y-47637500D03*
X35775000Y-47637500D03*
X36175000Y-47637500D03*
X36575000Y-47637500D03*
X36975000Y-47637500D03*
X37375000Y-47637500D03*
X37775000Y-47637500D03*
X38175000Y-47637500D03*
X38575000Y-47637500D03*
X38975000Y-47637500D03*
D20*
X39812500Y-48475000D03*
X39812500Y-48875000D03*
X39812500Y-49275000D03*
X39812500Y-49675000D03*
X39812500Y-50075000D03*
X39812500Y-50475000D03*
X39812500Y-50875000D03*
X39812500Y-51275000D03*
X39812500Y-51675000D03*
X39812500Y-52075000D03*
X39812500Y-52475000D03*
X39812500Y-52875000D03*
X39812500Y-53275000D03*
X39812500Y-53675000D03*
D19*
X38975000Y-54512500D03*
X38575000Y-54512500D03*
X38175000Y-54512500D03*
X37775000Y-54512500D03*
X37375000Y-54512500D03*
X36975000Y-54512500D03*
X36575000Y-54512500D03*
X36175000Y-54512500D03*
X35775000Y-54512500D03*
X35375000Y-54512500D03*
X34975000Y-54512500D03*
X34575000Y-54512500D03*
X34175000Y-54512500D03*
X33775000Y-54512500D03*
D20*
X32937500Y-53675000D03*
X32937500Y-53275000D03*
X32937500Y-52875000D03*
X32937500Y-52475000D03*
X32937500Y-52075000D03*
X32937500Y-51675000D03*
X32937500Y-51275000D03*
X32937500Y-50875000D03*
X32937500Y-50475000D03*
X32937500Y-50075000D03*
X32937500Y-49675000D03*
X32937500Y-49275000D03*
X32937500Y-48875000D03*
X32937500Y-48475000D03*
G04 #@! TD*
D11*
G04 #@! TO.C,U5*
X31040000Y-36600000D03*
X30640000Y-36600000D03*
X30240000Y-36600000D03*
X31040000Y-37000000D03*
X30640000Y-37000000D03*
X30240000Y-37000000D03*
X31040000Y-37400000D03*
X30640000Y-37400000D03*
X30240000Y-37400000D03*
G04 #@! TD*
D15*
G04 #@! TO.C,C14*
X30400000Y-21520000D03*
X29440000Y-21520000D03*
G04 #@! TD*
D14*
G04 #@! TO.C,Y1*
X43965000Y-38250000D03*
X42215000Y-38250000D03*
X42215000Y-36850000D03*
X43965000Y-36850000D03*
G04 #@! TD*
D23*
G04 #@! TO.C,J4*
X27800000Y-49025000D03*
X27800000Y-49375000D03*
X27800000Y-49725000D03*
X27800000Y-50075000D03*
X27800000Y-50425000D03*
X27800000Y-50775000D03*
X27800000Y-51125000D03*
X27800000Y-51475000D03*
X27800000Y-51825000D03*
X27800000Y-52175000D03*
X27800000Y-52525000D03*
X27800000Y-52875000D03*
X25900000Y-52875000D03*
X25900000Y-52525000D03*
X25900000Y-52175000D03*
X25900000Y-51825000D03*
X25900000Y-51475000D03*
X25900000Y-51125000D03*
X25900000Y-50775000D03*
X25900000Y-50425000D03*
X25900000Y-50075000D03*
X25900000Y-49725000D03*
X25900000Y-49375000D03*
X25900000Y-49025000D03*
D24*
X27332000Y-47755000D03*
X26368000Y-47745000D03*
X27332000Y-54155000D03*
X26368000Y-54155000D03*
G04 #@! TD*
D23*
G04 #@! TO.C,J4*
X27800000Y-38425000D03*
X27800000Y-38775000D03*
X27800000Y-39125000D03*
X27800000Y-39475000D03*
X27800000Y-39825000D03*
X27800000Y-40175000D03*
X27800000Y-40525000D03*
X27800000Y-40875000D03*
X27800000Y-41225000D03*
X27800000Y-41575000D03*
X27800000Y-41925000D03*
X27800000Y-42275000D03*
X25900000Y-42275000D03*
X25900000Y-41925000D03*
X25900000Y-41575000D03*
X25900000Y-41225000D03*
X25900000Y-40875000D03*
X25900000Y-40525000D03*
X25900000Y-40175000D03*
X25900000Y-39825000D03*
X25900000Y-39475000D03*
X25900000Y-39125000D03*
X25900000Y-38775000D03*
X25900000Y-38425000D03*
D24*
X27332000Y-37155000D03*
X26368000Y-37145000D03*
X27332000Y-43555000D03*
X26368000Y-43555000D03*
G04 #@! TD*
D13*
G04 #@! TO.C,C8*
X31760000Y-39910000D03*
X31760000Y-38950000D03*
G04 #@! TD*
M02*
