G04 #@! TF.GenerationSoftware,KiCad,Pcbnew,8.0.8*
G04 #@! TF.CreationDate,2025-02-21T09:15:23-05:00*
G04 #@! TF.ProjectId,panel,70616e65-6c2e-46b6-9963-61645f706362,v0.0.0*
G04 #@! TF.SameCoordinates,Original*
G04 #@! TF.FileFunction,Paste,Top*
G04 #@! TF.FilePolarity,Positive*
%FSLAX46Y46*%
G04 Gerber Fmt 4.6, Leading zero omitted, Abs format (unit mm)*
G04 Created by KiCad (PCBNEW 8.0.8) date 2025-02-21 09:15:23*
%MOMM*%
%LPD*%
G01*
G04 APERTURE LIST*
G04 Aperture macros list*
%AMRoundRect*
0 Rectangle with rounded corners*
0 $1 Rounding radius*
0 $2 $3 $4 $5 $6 $7 $8 $9 X,Y pos of 4 corners*
0 Add a 4 corners polygon primitive as box body*
4,1,4,$2,$3,$4,$5,$6,$7,$8,$9,$2,$3,0*
0 Add four circle primitives for the rounded corners*
1,1,$1+$1,$2,$3*
1,1,$1+$1,$4,$5*
1,1,$1+$1,$6,$7*
1,1,$1+$1,$8,$9*
0 Add four rect primitives between the rounded corners*
20,1,$1+$1,$2,$3,$4,$5,0*
20,1,$1+$1,$4,$5,$6,$7,0*
20,1,$1+$1,$6,$7,$8,$9,0*
20,1,$1+$1,$8,$9,$2,$3,0*%
G04 Aperture macros list end*
%ADD10R,0.550000X1.100000*%
%ADD11RoundRect,0.079500X-0.100500X0.079500X-0.100500X-0.079500X0.100500X-0.079500X0.100500X0.079500X0*%
%ADD12RoundRect,0.079500X-0.079500X-0.100500X0.079500X-0.100500X0.079500X0.100500X-0.079500X0.100500X0*%
%ADD13R,1.050000X0.800000*%
%ADD14R,0.650000X0.800000*%
%ADD15RoundRect,0.250000X-0.650000X0.325000X-0.650000X-0.325000X0.650000X-0.325000X0.650000X0.325000X0*%
%ADD16R,0.800000X1.050000*%
%ADD17R,0.800000X0.650000*%
%ADD18RoundRect,0.079500X0.100500X-0.079500X0.100500X0.079500X-0.100500X0.079500X-0.100500X-0.079500X0*%
%ADD19R,1.600000X1.000000*%
%ADD20RoundRect,0.250000X0.650000X-0.325000X0.650000X0.325000X-0.650000X0.325000X-0.650000X-0.325000X0*%
%ADD21R,0.950000X2.100000*%
%ADD22RoundRect,0.147500X0.147500X0.172500X-0.147500X0.172500X-0.147500X-0.172500X0.147500X-0.172500X0*%
%ADD23R,0.550000X0.550000*%
%ADD24R,0.200000X0.880000*%
%ADD25R,0.880000X0.200000*%
%ADD26R,3.400000X3.400000*%
%ADD27C,0.230000*%
%ADD28RoundRect,0.225000X-0.225000X-0.250000X0.225000X-0.250000X0.225000X0.250000X-0.225000X0.250000X0*%
G04 APERTURE END LIST*
D10*
G04 #@! TO.C,U2*
X42520000Y-33240000D03*
X43470000Y-33240000D03*
X44420000Y-33240000D03*
X44420000Y-30840000D03*
X43470000Y-30840000D03*
X42520000Y-30840000D03*
G04 #@! TD*
D11*
G04 #@! TO.C,C14*
X32460000Y-25615000D03*
X32460000Y-26305000D03*
G04 #@! TD*
D12*
G04 #@! TO.C,R10*
X28595000Y-38650000D03*
X29285000Y-38650000D03*
G04 #@! TD*
D13*
G04 #@! TO.C,D2*
X26880000Y-22590000D03*
D14*
X27940000Y-22590000D03*
G04 #@! TD*
D15*
G04 #@! TO.C,C8*
X29960000Y-51085000D03*
X29960000Y-54035000D03*
G04 #@! TD*
D16*
G04 #@! TO.C,D4*
X25660000Y-54000000D03*
D17*
X25660000Y-55060000D03*
G04 #@! TD*
D18*
G04 #@! TO.C,C9*
X32460000Y-16995000D03*
X32460000Y-16305000D03*
G04 #@! TD*
D12*
G04 #@! TO.C,R10*
X28595000Y-27850000D03*
X29285000Y-27850000D03*
G04 #@! TD*
G04 #@! TO.C,R13*
X26565000Y-21690000D03*
X27255000Y-21690000D03*
G04 #@! TD*
D18*
G04 #@! TO.C,C18*
X28760000Y-26305000D03*
X28760000Y-25615000D03*
G04 #@! TD*
D19*
G04 #@! TO.C,L2*
X31060000Y-36710000D03*
X31060000Y-38710000D03*
G04 #@! TD*
D18*
G04 #@! TO.C,C18*
X28760000Y-37105000D03*
X28760000Y-36415000D03*
G04 #@! TD*
D20*
G04 #@! TO.C,C17*
X32340000Y-21635000D03*
X32340000Y-18685000D03*
G04 #@! TD*
D21*
G04 #@! TO.C,L1*
X44107500Y-39710000D03*
X42432500Y-39710000D03*
G04 #@! TD*
G04 #@! TO.C,L1*
X44107500Y-28910000D03*
X42432500Y-28910000D03*
G04 #@! TD*
D19*
G04 #@! TO.C,L2*
X31060000Y-25910000D03*
X31060000Y-27910000D03*
G04 #@! TD*
D18*
G04 #@! TO.C,C19*
X29460000Y-15505000D03*
X29460000Y-14815000D03*
G04 #@! TD*
G04 #@! TO.C,R14*
X33166559Y-26305022D03*
X33166559Y-25615022D03*
G04 #@! TD*
D22*
G04 #@! TO.C,D7*
X44095000Y-25730000D03*
X43125000Y-25730000D03*
G04 #@! TD*
D11*
G04 #@! TO.C,C14*
X32460000Y-47215000D03*
X32460000Y-47905000D03*
G04 #@! TD*
D23*
G04 #@! TO.C,SW1*
X26050000Y-31170000D03*
X26810000Y-31170000D03*
X26050000Y-28530000D03*
X26810000Y-28530000D03*
G04 #@! TD*
D24*
G04 #@! TO.C,U4*
X34840000Y-43690000D03*
X35240000Y-43690000D03*
X35640000Y-43690000D03*
X36040000Y-43690000D03*
X36440000Y-43690000D03*
X36840000Y-43690000D03*
X37240000Y-43690000D03*
X37640000Y-43690000D03*
X38040000Y-43690000D03*
X38440000Y-43690000D03*
X38840000Y-43690000D03*
X39240000Y-43690000D03*
X39640000Y-43690000D03*
X40040000Y-43690000D03*
X40440000Y-43690000D03*
D25*
X41080000Y-43050000D03*
X41080000Y-42650000D03*
X41080000Y-42250000D03*
X41080000Y-41850000D03*
X41080000Y-41450000D03*
X41080000Y-41050000D03*
X41080000Y-40650000D03*
X41080000Y-40250000D03*
X41080000Y-39850000D03*
X41080000Y-39450000D03*
X41080000Y-39050000D03*
X41080000Y-38650000D03*
X41080000Y-38250000D03*
X41080000Y-37850000D03*
X41080000Y-37450000D03*
D24*
X40440000Y-36810000D03*
X40050000Y-36810000D03*
X39650000Y-36810000D03*
X39250000Y-36810000D03*
X38850000Y-36810000D03*
X38450000Y-36810000D03*
X38050000Y-36810000D03*
X37650000Y-36810000D03*
X37250000Y-36810000D03*
X36850000Y-36810000D03*
X36450000Y-36810000D03*
X36050000Y-36810000D03*
X35650000Y-36810000D03*
X35250000Y-36810000D03*
X34850000Y-36810000D03*
D25*
X34200000Y-37450000D03*
X34200000Y-37850000D03*
X34200000Y-38250000D03*
X34200000Y-38650000D03*
X34200000Y-39050000D03*
X34200000Y-39450000D03*
X34200000Y-39850000D03*
X34200000Y-40250000D03*
X34200000Y-40650000D03*
X34200000Y-41050000D03*
X34200000Y-41450000D03*
X34200000Y-41850000D03*
X34200000Y-42250000D03*
X34200000Y-42650000D03*
X34200000Y-43050000D03*
D26*
X37640000Y-40250000D03*
G04 #@! TD*
D12*
G04 #@! TO.C,R13*
X26565000Y-32490000D03*
X27255000Y-32490000D03*
G04 #@! TD*
D27*
G04 #@! TO.C,U5*
X26968733Y-26987200D03*
X27368733Y-26987200D03*
X27768733Y-26987200D03*
X26968733Y-27387200D03*
X27368733Y-27387200D03*
X27768733Y-27387200D03*
X26968733Y-27787200D03*
X27368733Y-27787200D03*
X27768733Y-27787200D03*
G04 #@! TD*
D16*
G04 #@! TO.C,D3*
X25660000Y-26800000D03*
D17*
X25660000Y-25740000D03*
G04 #@! TD*
D28*
G04 #@! TO.C,C7*
X42475000Y-37730000D03*
X44025000Y-37730000D03*
G04 #@! TD*
D27*
G04 #@! TO.C,U5*
X26968733Y-48587200D03*
X27368733Y-48587200D03*
X27768733Y-48587200D03*
X26968733Y-48987200D03*
X27368733Y-48987200D03*
X27768733Y-48987200D03*
X26968733Y-49387200D03*
X27368733Y-49387200D03*
X27768733Y-49387200D03*
G04 #@! TD*
D10*
G04 #@! TO.C,U2*
X42520000Y-44040000D03*
X43470000Y-44040000D03*
X44420000Y-44040000D03*
X44420000Y-41640000D03*
X43470000Y-41640000D03*
X42520000Y-41640000D03*
G04 #@! TD*
D12*
G04 #@! TO.C,R9*
X28595000Y-16350000D03*
X29285000Y-16350000D03*
G04 #@! TD*
D20*
G04 #@! TO.C,C17*
X32340000Y-54035000D03*
X32340000Y-51085000D03*
G04 #@! TD*
D11*
G04 #@! TO.C,C10*
X33160000Y-16305000D03*
X33160000Y-16995000D03*
G04 #@! TD*
D15*
G04 #@! TO.C,C8*
X29960000Y-29485000D03*
X29960000Y-32435000D03*
G04 #@! TD*
D11*
G04 #@! TO.C,C14*
X32460000Y-14815000D03*
X32460000Y-15505000D03*
G04 #@! TD*
D18*
G04 #@! TO.C,C9*
X32460000Y-38595000D03*
X32460000Y-37905000D03*
G04 #@! TD*
G04 #@! TO.C,C9*
X32460000Y-49395000D03*
X32460000Y-48705000D03*
G04 #@! TD*
D16*
G04 #@! TO.C,D4*
X25660000Y-32400000D03*
D17*
X25660000Y-33460000D03*
G04 #@! TD*
D11*
G04 #@! TO.C,C10*
X33160000Y-37905000D03*
X33160000Y-38595000D03*
G04 #@! TD*
D12*
G04 #@! TO.C,R10*
X28595000Y-17050000D03*
X29285000Y-17050000D03*
G04 #@! TD*
D23*
G04 #@! TO.C,SW1*
X26050000Y-20370000D03*
X26810000Y-20370000D03*
X26050000Y-17730000D03*
X26810000Y-17730000D03*
G04 #@! TD*
D18*
G04 #@! TO.C,C18*
X28760000Y-15505000D03*
X28760000Y-14815000D03*
G04 #@! TD*
D11*
G04 #@! TO.C,C10*
X33160000Y-27105000D03*
X33160000Y-27795000D03*
G04 #@! TD*
D28*
G04 #@! TO.C,C7*
X42475000Y-16130000D03*
X44025000Y-16130000D03*
G04 #@! TD*
D22*
G04 #@! TO.C,D7*
X44095000Y-47330000D03*
X43125000Y-47330000D03*
G04 #@! TD*
D15*
G04 #@! TO.C,C8*
X29960000Y-18685000D03*
X29960000Y-21635000D03*
G04 #@! TD*
D27*
G04 #@! TO.C,U5*
X26968733Y-37787200D03*
X27368733Y-37787200D03*
X27768733Y-37787200D03*
X26968733Y-38187200D03*
X27368733Y-38187200D03*
X27768733Y-38187200D03*
X26968733Y-38587200D03*
X27368733Y-38587200D03*
X27768733Y-38587200D03*
G04 #@! TD*
D12*
G04 #@! TO.C,R11*
X27805000Y-29080000D03*
X28495000Y-29080000D03*
G04 #@! TD*
D24*
G04 #@! TO.C,U4*
X34840000Y-32890000D03*
X35240000Y-32890000D03*
X35640000Y-32890000D03*
X36040000Y-32890000D03*
X36440000Y-32890000D03*
X36840000Y-32890000D03*
X37240000Y-32890000D03*
X37640000Y-32890000D03*
X38040000Y-32890000D03*
X38440000Y-32890000D03*
X38840000Y-32890000D03*
X39240000Y-32890000D03*
X39640000Y-32890000D03*
X40040000Y-32890000D03*
X40440000Y-32890000D03*
D25*
X41080000Y-32250000D03*
X41080000Y-31850000D03*
X41080000Y-31450000D03*
X41080000Y-31050000D03*
X41080000Y-30650000D03*
X41080000Y-30250000D03*
X41080000Y-29850000D03*
X41080000Y-29450000D03*
X41080000Y-29050000D03*
X41080000Y-28650000D03*
X41080000Y-28250000D03*
X41080000Y-27850000D03*
X41080000Y-27450000D03*
X41080000Y-27050000D03*
X41080000Y-26650000D03*
D24*
X40440000Y-26010000D03*
X40050000Y-26010000D03*
X39650000Y-26010000D03*
X39250000Y-26010000D03*
X38850000Y-26010000D03*
X38450000Y-26010000D03*
X38050000Y-26010000D03*
X37650000Y-26010000D03*
X37250000Y-26010000D03*
X36850000Y-26010000D03*
X36450000Y-26010000D03*
X36050000Y-26010000D03*
X35650000Y-26010000D03*
X35250000Y-26010000D03*
X34850000Y-26010000D03*
D25*
X34200000Y-26650000D03*
X34200000Y-27050000D03*
X34200000Y-27450000D03*
X34200000Y-27850000D03*
X34200000Y-28250000D03*
X34200000Y-28650000D03*
X34200000Y-29050000D03*
X34200000Y-29450000D03*
X34200000Y-29850000D03*
X34200000Y-30250000D03*
X34200000Y-30650000D03*
X34200000Y-31050000D03*
X34200000Y-31450000D03*
X34200000Y-31850000D03*
X34200000Y-32250000D03*
D26*
X37640000Y-29450000D03*
G04 #@! TD*
D10*
G04 #@! TO.C,U2*
X42520000Y-22440000D03*
X43470000Y-22440000D03*
X44420000Y-22440000D03*
X44420000Y-20040000D03*
X43470000Y-20040000D03*
X42520000Y-20040000D03*
G04 #@! TD*
D13*
G04 #@! TO.C,D1*
X26880000Y-15020000D03*
D14*
X27940000Y-15020000D03*
G04 #@! TD*
D16*
G04 #@! TO.C,D4*
X25660000Y-21600000D03*
D17*
X25660000Y-22660000D03*
G04 #@! TD*
D15*
G04 #@! TO.C,C8*
X29960000Y-40285000D03*
X29960000Y-43235000D03*
G04 #@! TD*
D20*
G04 #@! TO.C,C17*
X32340000Y-32435000D03*
X32340000Y-29485000D03*
G04 #@! TD*
D11*
G04 #@! TO.C,C10*
X33160000Y-48705000D03*
X33160000Y-49395000D03*
G04 #@! TD*
D24*
G04 #@! TO.C,U4*
X34840000Y-54490000D03*
X35240000Y-54490000D03*
X35640000Y-54490000D03*
X36040000Y-54490000D03*
X36440000Y-54490000D03*
X36840000Y-54490000D03*
X37240000Y-54490000D03*
X37640000Y-54490000D03*
X38040000Y-54490000D03*
X38440000Y-54490000D03*
X38840000Y-54490000D03*
X39240000Y-54490000D03*
X39640000Y-54490000D03*
X40040000Y-54490000D03*
X40440000Y-54490000D03*
D25*
X41080000Y-53850000D03*
X41080000Y-53450000D03*
X41080000Y-53050000D03*
X41080000Y-52650000D03*
X41080000Y-52250000D03*
X41080000Y-51850000D03*
X41080000Y-51450000D03*
X41080000Y-51050000D03*
X41080000Y-50650000D03*
X41080000Y-50250000D03*
X41080000Y-49850000D03*
X41080000Y-49450000D03*
X41080000Y-49050000D03*
X41080000Y-48650000D03*
X41080000Y-48250000D03*
D24*
X40440000Y-47610000D03*
X40050000Y-47610000D03*
X39650000Y-47610000D03*
X39250000Y-47610000D03*
X38850000Y-47610000D03*
X38450000Y-47610000D03*
X38050000Y-47610000D03*
X37650000Y-47610000D03*
X37250000Y-47610000D03*
X36850000Y-47610000D03*
X36450000Y-47610000D03*
X36050000Y-47610000D03*
X35650000Y-47610000D03*
X35250000Y-47610000D03*
X34850000Y-47610000D03*
D25*
X34200000Y-48250000D03*
X34200000Y-48650000D03*
X34200000Y-49050000D03*
X34200000Y-49450000D03*
X34200000Y-49850000D03*
X34200000Y-50250000D03*
X34200000Y-50650000D03*
X34200000Y-51050000D03*
X34200000Y-51450000D03*
X34200000Y-51850000D03*
X34200000Y-52250000D03*
X34200000Y-52650000D03*
X34200000Y-53050000D03*
X34200000Y-53450000D03*
X34200000Y-53850000D03*
D26*
X37640000Y-51050000D03*
G04 #@! TD*
D13*
G04 #@! TO.C,D2*
X26880000Y-33390000D03*
D14*
X27940000Y-33390000D03*
G04 #@! TD*
D13*
G04 #@! TO.C,D1*
X26880000Y-25820000D03*
D14*
X27940000Y-25820000D03*
G04 #@! TD*
D22*
G04 #@! TO.C,D7*
X44095000Y-36530000D03*
X43125000Y-36530000D03*
G04 #@! TD*
D21*
G04 #@! TO.C,L1*
X44107500Y-50510000D03*
X42432500Y-50510000D03*
G04 #@! TD*
D12*
G04 #@! TO.C,R9*
X28595000Y-48750000D03*
X29285000Y-48750000D03*
G04 #@! TD*
G04 #@! TO.C,R11*
X27805000Y-18280000D03*
X28495000Y-18280000D03*
G04 #@! TD*
D18*
G04 #@! TO.C,C19*
X29460000Y-47905000D03*
X29460000Y-47215000D03*
G04 #@! TD*
D21*
G04 #@! TO.C,L1*
X44107500Y-18110000D03*
X42432500Y-18110000D03*
G04 #@! TD*
D18*
G04 #@! TO.C,R14*
X33166559Y-47905022D03*
X33166559Y-47215022D03*
G04 #@! TD*
D12*
G04 #@! TO.C,R10*
X28595000Y-49450000D03*
X29285000Y-49450000D03*
G04 #@! TD*
G04 #@! TO.C,R9*
X28595000Y-27150000D03*
X29285000Y-27150000D03*
G04 #@! TD*
D18*
G04 #@! TO.C,C9*
X32460000Y-27795000D03*
X32460000Y-27105000D03*
G04 #@! TD*
D23*
G04 #@! TO.C,SW1*
X26050000Y-41970000D03*
X26810000Y-41970000D03*
X26050000Y-39330000D03*
X26810000Y-39330000D03*
G04 #@! TD*
D18*
G04 #@! TO.C,R14*
X33166559Y-15505022D03*
X33166559Y-14815022D03*
G04 #@! TD*
G04 #@! TO.C,C18*
X28760000Y-47905000D03*
X28760000Y-47215000D03*
G04 #@! TD*
D27*
G04 #@! TO.C,U5*
X26968733Y-16187200D03*
X27368733Y-16187200D03*
X27768733Y-16187200D03*
X26968733Y-16587200D03*
X27368733Y-16587200D03*
X27768733Y-16587200D03*
X26968733Y-16987200D03*
X27368733Y-16987200D03*
X27768733Y-16987200D03*
G04 #@! TD*
D18*
G04 #@! TO.C,R14*
X33166559Y-37105022D03*
X33166559Y-36415022D03*
G04 #@! TD*
D16*
G04 #@! TO.C,D4*
X25660000Y-43200000D03*
D17*
X25660000Y-44260000D03*
G04 #@! TD*
D20*
G04 #@! TO.C,C17*
X32340000Y-43235000D03*
X32340000Y-40285000D03*
G04 #@! TD*
D13*
G04 #@! TO.C,D1*
X26880000Y-47420000D03*
D14*
X27940000Y-47420000D03*
G04 #@! TD*
D10*
G04 #@! TO.C,U2*
X42520000Y-54840000D03*
X43470000Y-54840000D03*
X44420000Y-54840000D03*
X44420000Y-52440000D03*
X43470000Y-52440000D03*
X42520000Y-52440000D03*
G04 #@! TD*
D13*
G04 #@! TO.C,D2*
X26880000Y-44190000D03*
D14*
X27940000Y-44190000D03*
G04 #@! TD*
D13*
G04 #@! TO.C,D1*
X26880000Y-36620000D03*
D14*
X27940000Y-36620000D03*
G04 #@! TD*
D18*
G04 #@! TO.C,C19*
X29460000Y-37105000D03*
X29460000Y-36415000D03*
G04 #@! TD*
G04 #@! TO.C,C19*
X29460000Y-26305000D03*
X29460000Y-25615000D03*
G04 #@! TD*
D12*
G04 #@! TO.C,R13*
X26565000Y-54090000D03*
X27255000Y-54090000D03*
G04 #@! TD*
D19*
G04 #@! TO.C,L2*
X31060000Y-47510000D03*
X31060000Y-49510000D03*
G04 #@! TD*
D28*
G04 #@! TO.C,C7*
X42475000Y-26930000D03*
X44025000Y-26930000D03*
G04 #@! TD*
G04 #@! TO.C,C7*
X42475000Y-48530000D03*
X44025000Y-48530000D03*
G04 #@! TD*
D12*
G04 #@! TO.C,R9*
X28595000Y-37950000D03*
X29285000Y-37950000D03*
G04 #@! TD*
D19*
G04 #@! TO.C,L2*
X31060000Y-15110000D03*
X31060000Y-17110000D03*
G04 #@! TD*
D22*
G04 #@! TO.C,D7*
X44095000Y-14930000D03*
X43125000Y-14930000D03*
G04 #@! TD*
D24*
G04 #@! TO.C,U4*
X34840000Y-22090000D03*
X35240000Y-22090000D03*
X35640000Y-22090000D03*
X36040000Y-22090000D03*
X36440000Y-22090000D03*
X36840000Y-22090000D03*
X37240000Y-22090000D03*
X37640000Y-22090000D03*
X38040000Y-22090000D03*
X38440000Y-22090000D03*
X38840000Y-22090000D03*
X39240000Y-22090000D03*
X39640000Y-22090000D03*
X40040000Y-22090000D03*
X40440000Y-22090000D03*
D25*
X41080000Y-21450000D03*
X41080000Y-21050000D03*
X41080000Y-20650000D03*
X41080000Y-20250000D03*
X41080000Y-19850000D03*
X41080000Y-19450000D03*
X41080000Y-19050000D03*
X41080000Y-18650000D03*
X41080000Y-18250000D03*
X41080000Y-17850000D03*
X41080000Y-17450000D03*
X41080000Y-17050000D03*
X41080000Y-16650000D03*
X41080000Y-16250000D03*
X41080000Y-15850000D03*
D24*
X40440000Y-15210000D03*
X40050000Y-15210000D03*
X39650000Y-15210000D03*
X39250000Y-15210000D03*
X38850000Y-15210000D03*
X38450000Y-15210000D03*
X38050000Y-15210000D03*
X37650000Y-15210000D03*
X37250000Y-15210000D03*
X36850000Y-15210000D03*
X36450000Y-15210000D03*
X36050000Y-15210000D03*
X35650000Y-15210000D03*
X35250000Y-15210000D03*
X34850000Y-15210000D03*
D25*
X34200000Y-15850000D03*
X34200000Y-16250000D03*
X34200000Y-16650000D03*
X34200000Y-17050000D03*
X34200000Y-17450000D03*
X34200000Y-17850000D03*
X34200000Y-18250000D03*
X34200000Y-18650000D03*
X34200000Y-19050000D03*
X34200000Y-19450000D03*
X34200000Y-19850000D03*
X34200000Y-20250000D03*
X34200000Y-20650000D03*
X34200000Y-21050000D03*
X34200000Y-21450000D03*
D26*
X37640000Y-18650000D03*
G04 #@! TD*
D16*
G04 #@! TO.C,D3*
X25660000Y-37600000D03*
D17*
X25660000Y-36540000D03*
G04 #@! TD*
D23*
G04 #@! TO.C,SW1*
X26050000Y-52770000D03*
X26810000Y-52770000D03*
X26050000Y-50130000D03*
X26810000Y-50130000D03*
G04 #@! TD*
D16*
G04 #@! TO.C,D3*
X25660000Y-48400000D03*
D17*
X25660000Y-47340000D03*
G04 #@! TD*
D12*
G04 #@! TO.C,R11*
X27805000Y-39880000D03*
X28495000Y-39880000D03*
G04 #@! TD*
G04 #@! TO.C,R13*
X26565000Y-43290000D03*
X27255000Y-43290000D03*
G04 #@! TD*
D11*
G04 #@! TO.C,C14*
X32460000Y-36415000D03*
X32460000Y-37105000D03*
G04 #@! TD*
D16*
G04 #@! TO.C,D3*
X25660000Y-16000000D03*
D17*
X25660000Y-14940000D03*
G04 #@! TD*
D13*
G04 #@! TO.C,D2*
X26880000Y-54990000D03*
D14*
X27940000Y-54990000D03*
G04 #@! TD*
D12*
G04 #@! TO.C,R11*
X27805000Y-50680000D03*
X28495000Y-50680000D03*
G04 #@! TD*
M02*
