G04 #@! TF.GenerationSoftware,KiCad,Pcbnew,8.0.8*
G04 #@! TF.CreationDate,2025-02-16T13:21:55-05:00*
G04 #@! TF.ProjectId,panel,70616e65-6c2e-46b6-9963-61645f706362,v0.0.0*
G04 #@! TF.SameCoordinates,Original*
G04 #@! TF.FileFunction,Legend,Bot*
G04 #@! TF.FilePolarity,Positive*
%FSLAX46Y46*%
G04 Gerber Fmt 4.6, Leading zero omitted, Abs format (unit mm)*
G04 Created by KiCad (PCBNEW 8.0.8) date 2025-02-16 13:21:55*
%MOMM*%
%LPD*%
G01*
G04 APERTURE LIST*
%ADD10C,0.200000*%
%ADD11C,0.180000*%
%ADD12C,0.120000*%
%ADD13C,0.150000*%
%ADD14C,0.100000*%
G04 APERTURE END LIST*
D10*
G36*
X34120000Y-16807983D02*
G01*
X34075184Y-16785496D01*
X34028055Y-16762913D01*
X33978613Y-16740235D01*
X33926857Y-16717461D01*
X33872787Y-16694592D01*
X33816404Y-16671627D01*
X33793203Y-16662415D01*
X33745903Y-16644093D01*
X33697551Y-16626007D01*
X33648145Y-16608158D01*
X33597686Y-16590546D01*
X33546174Y-16573171D01*
X33493608Y-16556032D01*
X33439989Y-16539129D01*
X33385317Y-16522464D01*
X33385317Y-16744725D01*
X33434705Y-16758008D01*
X33483662Y-16771934D01*
X33503286Y-16777697D01*
X33551120Y-16792157D01*
X33599365Y-16806961D01*
X33631758Y-16817020D01*
X33680004Y-16832373D01*
X33727288Y-16847658D01*
X33758276Y-16857809D01*
X33806272Y-16874358D01*
X33853903Y-16891909D01*
X33869895Y-16898109D01*
X33823766Y-16914652D01*
X33777165Y-16930934D01*
X33758276Y-16937432D01*
X33711633Y-16953083D01*
X33664029Y-16968527D01*
X33631758Y-16978709D01*
X33583238Y-16993856D01*
X33535129Y-17008522D01*
X33503286Y-17018032D01*
X33453181Y-17032705D01*
X33406060Y-17045765D01*
X33385317Y-17051249D01*
X33385317Y-17267893D01*
X33439989Y-17251227D01*
X33493608Y-17234325D01*
X33546174Y-17217186D01*
X33597686Y-17199810D01*
X33648145Y-17182198D01*
X33697551Y-17164349D01*
X33745903Y-17146264D01*
X33793203Y-17127942D01*
X33839235Y-17109532D01*
X33894693Y-17086605D01*
X33947837Y-17063774D01*
X33998668Y-17041039D01*
X34047185Y-17018399D01*
X34093388Y-16995854D01*
X34120000Y-16982373D01*
X34120000Y-16807983D01*
G37*
G36*
X33693498Y-17327484D02*
G01*
X33748781Y-17331869D01*
X33800537Y-17339177D01*
X33860274Y-17352423D01*
X33914502Y-17370237D01*
X33963219Y-17392619D01*
X34006427Y-17419568D01*
X34029517Y-17437732D01*
X34068884Y-17477809D01*
X34099166Y-17522883D01*
X34120364Y-17572955D01*
X34132477Y-17628024D01*
X34135631Y-17677732D01*
X34135126Y-17698032D01*
X34127556Y-17755600D01*
X34110900Y-17808170D01*
X34085161Y-17855743D01*
X34050336Y-17898319D01*
X34006427Y-17935897D01*
X33998226Y-17941652D01*
X33953916Y-17967688D01*
X33904097Y-17989155D01*
X33848768Y-18006056D01*
X33800537Y-18016287D01*
X33748781Y-18023595D01*
X33693498Y-18027980D01*
X33634689Y-18029442D01*
X33576227Y-18027980D01*
X33521253Y-18023595D01*
X33469768Y-18016287D01*
X33410316Y-18003041D01*
X33356314Y-17985227D01*
X33307763Y-17962846D01*
X33264661Y-17935897D01*
X33241527Y-17917733D01*
X33202086Y-17877656D01*
X33171746Y-17832582D01*
X33150509Y-17782510D01*
X33138373Y-17727441D01*
X33135212Y-17677732D01*
X33307159Y-17677732D01*
X33309053Y-17698847D01*
X33331095Y-17743678D01*
X33353808Y-17763612D01*
X33398750Y-17785932D01*
X33404249Y-17787823D01*
X33452838Y-17800615D01*
X33502065Y-17808402D01*
X33532702Y-17811501D01*
X33581807Y-17814489D01*
X33634689Y-17815485D01*
X33666043Y-17815146D01*
X33717019Y-17812988D01*
X33768290Y-17808402D01*
X33775766Y-17807484D01*
X33824466Y-17799243D01*
X33872337Y-17785932D01*
X33899918Y-17773997D01*
X33939748Y-17743678D01*
X33952371Y-17725798D01*
X33963684Y-17677732D01*
X33961791Y-17656538D01*
X33939748Y-17612031D01*
X33917076Y-17592608D01*
X33872337Y-17570021D01*
X33866807Y-17568041D01*
X33817898Y-17554745D01*
X33768290Y-17546818D01*
X33737225Y-17543719D01*
X33687709Y-17540731D01*
X33634689Y-17539735D01*
X33603382Y-17540074D01*
X33552703Y-17542232D01*
X33502065Y-17546818D01*
X33494649Y-17547739D01*
X33446317Y-17556160D01*
X33398750Y-17570021D01*
X33371031Y-17582258D01*
X33331095Y-17612031D01*
X33318473Y-17629677D01*
X33307159Y-17677732D01*
X33135212Y-17677732D01*
X33138456Y-17629165D01*
X33149518Y-17579212D01*
X33168429Y-17532896D01*
X33192171Y-17494232D01*
X33225175Y-17455835D01*
X33265394Y-17421766D01*
X33281728Y-17410504D01*
X33326569Y-17385321D01*
X33371821Y-17366287D01*
X33421709Y-17350691D01*
X33427522Y-17349173D01*
X33475981Y-17338766D01*
X33527921Y-17331443D01*
X33583341Y-17327203D01*
X33634689Y-17326023D01*
X33693498Y-17327484D01*
G37*
G36*
X34002763Y-18377244D02*
G01*
X34053673Y-18369577D01*
X34097316Y-18342038D01*
X34101681Y-18337188D01*
X34127144Y-18294507D01*
X34135631Y-18246574D01*
X34127144Y-18198458D01*
X34101681Y-18155716D01*
X34059977Y-18125674D01*
X34010763Y-18115816D01*
X34002763Y-18115660D01*
X33951853Y-18123327D01*
X33908209Y-18150865D01*
X33903845Y-18155716D01*
X33878382Y-18198458D01*
X33869895Y-18246574D01*
X33879476Y-18297328D01*
X33903845Y-18337188D01*
X33945549Y-18367230D01*
X33994763Y-18377087D01*
X34002763Y-18377244D01*
G37*
G36*
X33693498Y-18466633D02*
G01*
X33748781Y-18471018D01*
X33800537Y-18478326D01*
X33860274Y-18491572D01*
X33914502Y-18509386D01*
X33963219Y-18531767D01*
X34006427Y-18558716D01*
X34029517Y-18576881D01*
X34068884Y-18616957D01*
X34099166Y-18662032D01*
X34120364Y-18712103D01*
X34132477Y-18767172D01*
X34135631Y-18816881D01*
X34135126Y-18837181D01*
X34127556Y-18894749D01*
X34110900Y-18947319D01*
X34085161Y-18994892D01*
X34050336Y-19037467D01*
X34006427Y-19075046D01*
X33998226Y-19080801D01*
X33953916Y-19106836D01*
X33904097Y-19128304D01*
X33848768Y-19145204D01*
X33800537Y-19155436D01*
X33748781Y-19162744D01*
X33693498Y-19167129D01*
X33634689Y-19168591D01*
X33576227Y-19167129D01*
X33521253Y-19162744D01*
X33469768Y-19155436D01*
X33410316Y-19142190D01*
X33356314Y-19124376D01*
X33307763Y-19101995D01*
X33264661Y-19075046D01*
X33241527Y-19056881D01*
X33202086Y-19016804D01*
X33171746Y-18971730D01*
X33150509Y-18921658D01*
X33138373Y-18866589D01*
X33135212Y-18816881D01*
X33307159Y-18816881D01*
X33309053Y-18837995D01*
X33331095Y-18882826D01*
X33353808Y-18902761D01*
X33398750Y-18925080D01*
X33404249Y-18926971D01*
X33452838Y-18939764D01*
X33502065Y-18947551D01*
X33532702Y-18950650D01*
X33581807Y-18953638D01*
X33634689Y-18954634D01*
X33666043Y-18954295D01*
X33717019Y-18952137D01*
X33768290Y-18947551D01*
X33775766Y-18946633D01*
X33824466Y-18938392D01*
X33872337Y-18925080D01*
X33899918Y-18913145D01*
X33939748Y-18882826D01*
X33952371Y-18864947D01*
X33963684Y-18816881D01*
X33961791Y-18795687D01*
X33939748Y-18751180D01*
X33917076Y-18731757D01*
X33872337Y-18709170D01*
X33866807Y-18707190D01*
X33817898Y-18693894D01*
X33768290Y-18685967D01*
X33737225Y-18682868D01*
X33687709Y-18679880D01*
X33634689Y-18678884D01*
X33603382Y-18679223D01*
X33552703Y-18681381D01*
X33502065Y-18685967D01*
X33494649Y-18686887D01*
X33446317Y-18695309D01*
X33398750Y-18709170D01*
X33371031Y-18721407D01*
X33331095Y-18751180D01*
X33318473Y-18768825D01*
X33307159Y-18816881D01*
X33135212Y-18816881D01*
X33138456Y-18768314D01*
X33149518Y-18718361D01*
X33168429Y-18672045D01*
X33192171Y-18633381D01*
X33225175Y-18594983D01*
X33265394Y-18560914D01*
X33281728Y-18549653D01*
X33326569Y-18524470D01*
X33371821Y-18505435D01*
X33421709Y-18489840D01*
X33427522Y-18488322D01*
X33475981Y-18477915D01*
X33527921Y-18470592D01*
X33583341Y-18466352D01*
X33634689Y-18465171D01*
X33693498Y-18466633D01*
G37*
G36*
X34002763Y-19516392D02*
G01*
X34053673Y-19508725D01*
X34097316Y-19481187D01*
X34101681Y-19476337D01*
X34127144Y-19433655D01*
X34135631Y-19385722D01*
X34127144Y-19337607D01*
X34101681Y-19294864D01*
X34059977Y-19264822D01*
X34010763Y-19254965D01*
X34002763Y-19254808D01*
X33951853Y-19262475D01*
X33908209Y-19290014D01*
X33903845Y-19294864D01*
X33878382Y-19337607D01*
X33869895Y-19385722D01*
X33879476Y-19436477D01*
X33903845Y-19476337D01*
X33945549Y-19506378D01*
X33994763Y-19516236D01*
X34002763Y-19516392D01*
G37*
G36*
X33693498Y-19605781D02*
G01*
X33748781Y-19610166D01*
X33800537Y-19617475D01*
X33860274Y-19630721D01*
X33914502Y-19648534D01*
X33963219Y-19670916D01*
X34006427Y-19697865D01*
X34029517Y-19716029D01*
X34068884Y-19756106D01*
X34099166Y-19801180D01*
X34120364Y-19851252D01*
X34132477Y-19906321D01*
X34135631Y-19956030D01*
X34135126Y-19976329D01*
X34127556Y-20033897D01*
X34110900Y-20086468D01*
X34085161Y-20134041D01*
X34050336Y-20176616D01*
X34006427Y-20214194D01*
X33998226Y-20219949D01*
X33953916Y-20245985D01*
X33904097Y-20267453D01*
X33848768Y-20284353D01*
X33800537Y-20294584D01*
X33748781Y-20301893D01*
X33693498Y-20306278D01*
X33634689Y-20307739D01*
X33576227Y-20306278D01*
X33521253Y-20301893D01*
X33469768Y-20294584D01*
X33410316Y-20281338D01*
X33356314Y-20263525D01*
X33307763Y-20241143D01*
X33264661Y-20214194D01*
X33241527Y-20196030D01*
X33202086Y-20155953D01*
X33171746Y-20110879D01*
X33150509Y-20060807D01*
X33138373Y-20005738D01*
X33135212Y-19956030D01*
X33307159Y-19956030D01*
X33309053Y-19977144D01*
X33331095Y-20021975D01*
X33353808Y-20041910D01*
X33398750Y-20064229D01*
X33404249Y-20066120D01*
X33452838Y-20078912D01*
X33502065Y-20086699D01*
X33532702Y-20089798D01*
X33581807Y-20092786D01*
X33634689Y-20093782D01*
X33666043Y-20093444D01*
X33717019Y-20091285D01*
X33768290Y-20086699D01*
X33775766Y-20085782D01*
X33824466Y-20077540D01*
X33872337Y-20064229D01*
X33899918Y-20052294D01*
X33939748Y-20021975D01*
X33952371Y-20004096D01*
X33963684Y-19956030D01*
X33961791Y-19934836D01*
X33939748Y-19890328D01*
X33917076Y-19870905D01*
X33872337Y-19848318D01*
X33866807Y-19846339D01*
X33817898Y-19833043D01*
X33768290Y-19825115D01*
X33737225Y-19822017D01*
X33687709Y-19819028D01*
X33634689Y-19818032D01*
X33603382Y-19818371D01*
X33552703Y-19820529D01*
X33502065Y-19825115D01*
X33494649Y-19826036D01*
X33446317Y-19834458D01*
X33398750Y-19848318D01*
X33371031Y-19860555D01*
X33331095Y-19890328D01*
X33318473Y-19907974D01*
X33307159Y-19956030D01*
X33135212Y-19956030D01*
X33138456Y-19907462D01*
X33149518Y-19857510D01*
X33168429Y-19811194D01*
X33192171Y-19772530D01*
X33225175Y-19734132D01*
X33265394Y-19700063D01*
X33281728Y-19688801D01*
X33326569Y-19663618D01*
X33371821Y-19644584D01*
X33421709Y-19628988D01*
X33427522Y-19627471D01*
X33475981Y-19617064D01*
X33527921Y-19609740D01*
X33583341Y-19605500D01*
X33634689Y-19604320D01*
X33693498Y-19605781D01*
G37*
G36*
X37805631Y-32603803D02*
G01*
X37803601Y-32546101D01*
X37797510Y-32491940D01*
X37787359Y-32441321D01*
X37773147Y-32394243D01*
X37749672Y-32340376D01*
X37719852Y-32292043D01*
X37683688Y-32249243D01*
X37675694Y-32241347D01*
X37632347Y-32205532D01*
X37583669Y-32175788D01*
X37529660Y-32152114D01*
X37482614Y-32137545D01*
X37432157Y-32126861D01*
X37378288Y-32120063D01*
X37321008Y-32117149D01*
X37306154Y-32117027D01*
X37255343Y-32118839D01*
X37200277Y-32125346D01*
X37148418Y-32136585D01*
X37099764Y-32152556D01*
X37093907Y-32154885D01*
X37048967Y-32175692D01*
X37002788Y-32203295D01*
X36961245Y-32235343D01*
X36936127Y-32259177D01*
X36902329Y-32298399D01*
X36873478Y-32341600D01*
X36849573Y-32388782D01*
X36838429Y-32416713D01*
X36823897Y-32463364D01*
X36813517Y-32511968D01*
X36807288Y-32562526D01*
X36805212Y-32615039D01*
X36806989Y-32667124D01*
X36812835Y-32718054D01*
X36814494Y-32727635D01*
X36824923Y-32777837D01*
X36835498Y-32816295D01*
X36852301Y-32862566D01*
X36860167Y-32879554D01*
X36879706Y-32916190D01*
X37050432Y-32852687D01*
X37029549Y-32807281D01*
X37012866Y-32758996D01*
X37009644Y-32747907D01*
X36998732Y-32696627D01*
X36993597Y-32644569D01*
X36992791Y-32612108D01*
X36997004Y-32562038D01*
X37009644Y-32512945D01*
X37031381Y-32467333D01*
X37063377Y-32427216D01*
X37102958Y-32395456D01*
X37148519Y-32371720D01*
X37159364Y-32367376D01*
X37206900Y-32353683D01*
X37256751Y-32346683D01*
X37302002Y-32344906D01*
X37351107Y-32346967D01*
X37401435Y-32353850D01*
X37427299Y-32359561D01*
X37474910Y-32376057D01*
X37519178Y-32401409D01*
X37527194Y-32407432D01*
X37562714Y-32443027D01*
X37588894Y-32484287D01*
X37593628Y-32494138D01*
X37609442Y-32541307D01*
X37616884Y-32591430D01*
X37618053Y-32623587D01*
X37616275Y-32674274D01*
X37612435Y-32709316D01*
X37603672Y-32757666D01*
X37599002Y-32776972D01*
X37583231Y-32824720D01*
X37581416Y-32828995D01*
X37563098Y-32869784D01*
X37732358Y-32930112D01*
X37754293Y-32886119D01*
X37771468Y-32839070D01*
X37783161Y-32799198D01*
X37794023Y-32749674D01*
X37801330Y-32695900D01*
X37804841Y-32644533D01*
X37805631Y-32603803D01*
G37*
D11*
G36*
X43038506Y-54440844D02*
G01*
X43014831Y-54485396D01*
X42992231Y-54530207D01*
X42980132Y-54554905D01*
X42957117Y-54602914D01*
X42935593Y-54648862D01*
X42913497Y-54697005D01*
X42911256Y-54701939D01*
X42891118Y-54746743D01*
X42871096Y-54792125D01*
X42851190Y-54838087D01*
X42840181Y-54863872D01*
X42820726Y-54909536D01*
X42799879Y-54958461D01*
X42779844Y-55005478D01*
X42773991Y-55019211D01*
X42754223Y-54972767D01*
X42733691Y-54924414D01*
X42714560Y-54879266D01*
X42708046Y-54863872D01*
X42688204Y-54817588D01*
X42668246Y-54771884D01*
X42648173Y-54726759D01*
X42636971Y-54701939D01*
X42614817Y-54653577D01*
X42593236Y-54607410D01*
X42570158Y-54559160D01*
X42568094Y-54554905D01*
X42546320Y-54510793D01*
X42522894Y-54465283D01*
X42509720Y-54440844D01*
X42309930Y-54440844D01*
X42302984Y-54490532D01*
X42296313Y-54543121D01*
X42289917Y-54598609D01*
X42284546Y-54649542D01*
X42283796Y-54656999D01*
X42278700Y-54709731D01*
X42273885Y-54763421D01*
X42269350Y-54818070D01*
X42265096Y-54873677D01*
X42262791Y-54905882D01*
X42258812Y-54962456D01*
X42254997Y-55019123D01*
X42251346Y-55075884D01*
X42247858Y-55132738D01*
X42245938Y-55165268D01*
X42242624Y-55221391D01*
X42239520Y-55276065D01*
X42236627Y-55329289D01*
X42233943Y-55381064D01*
X42232505Y-55410000D01*
X42446217Y-55410000D01*
X42447877Y-55356276D01*
X42449743Y-55300800D01*
X42451816Y-55243573D01*
X42453700Y-55194545D01*
X42455727Y-55144301D01*
X42457452Y-55103230D01*
X42459839Y-55051334D01*
X42462571Y-54999294D01*
X42465649Y-54947111D01*
X42469073Y-54894784D01*
X42472843Y-54842315D01*
X42476958Y-54789703D01*
X42478702Y-54768618D01*
X42498542Y-54814150D01*
X42518118Y-54858965D01*
X42535122Y-54897822D01*
X42556221Y-54946379D01*
X42577206Y-54994994D01*
X42596182Y-55039239D01*
X42616744Y-55087184D01*
X42636787Y-55133629D01*
X42654556Y-55174549D01*
X42674455Y-55220299D01*
X42694717Y-55267075D01*
X42702428Y-55284947D01*
X42855812Y-55284947D01*
X42876184Y-55237821D01*
X42896792Y-55190379D01*
X42903684Y-55174549D01*
X42923254Y-55129469D01*
X42943344Y-55082888D01*
X42962058Y-55039239D01*
X42982827Y-54990572D01*
X43003827Y-54941962D01*
X43023119Y-54897822D01*
X43043641Y-54850598D01*
X43064581Y-54802439D01*
X43079295Y-54768618D01*
X43083549Y-54821287D01*
X43087457Y-54873814D01*
X43091019Y-54926197D01*
X43094235Y-54978438D01*
X43097106Y-55030535D01*
X43099631Y-55082489D01*
X43100544Y-55103230D01*
X43102686Y-55154448D01*
X43104684Y-55204448D01*
X43106894Y-55262843D01*
X43108898Y-55319487D01*
X43110695Y-55374378D01*
X43111779Y-55410000D01*
X43325491Y-55410000D01*
X43322940Y-55359052D01*
X43320202Y-55306656D01*
X43317277Y-55252811D01*
X43314165Y-55197516D01*
X43312302Y-55165268D01*
X43309329Y-55116484D01*
X43305750Y-55059657D01*
X43302056Y-55002923D01*
X43298244Y-54946283D01*
X43295450Y-54905882D01*
X43291261Y-54849728D01*
X43286814Y-54794531D01*
X43282111Y-54740293D01*
X43277150Y-54687014D01*
X43274200Y-54656999D01*
X43268871Y-54605750D01*
X43263355Y-54556721D01*
X43256821Y-54503407D01*
X43250043Y-54452994D01*
X43248311Y-54440844D01*
X43038506Y-54440844D01*
G37*
G36*
X41776015Y-55238053D02*
G01*
X41726590Y-55235383D01*
X41699323Y-55230481D01*
X41653269Y-55211562D01*
X41650963Y-55209965D01*
X41625561Y-55179190D01*
X41618478Y-55139623D01*
X41632775Y-55092164D01*
X41663663Y-55062198D01*
X41706471Y-55038395D01*
X41756049Y-55017458D01*
X41804814Y-54999987D01*
X41818269Y-54995519D01*
X41866140Y-54977751D01*
X41914012Y-54957662D01*
X41959441Y-54933421D01*
X41999986Y-54903684D01*
X42034363Y-54867780D01*
X42061779Y-54825038D01*
X42078959Y-54777185D01*
X42085341Y-54728680D01*
X42085715Y-54712442D01*
X42081563Y-54660799D01*
X42069107Y-54613429D01*
X42060558Y-54593007D01*
X42034311Y-54549503D01*
X42000024Y-54512170D01*
X41988750Y-54502637D01*
X41947662Y-54475137D01*
X41900206Y-54453360D01*
X41876154Y-54445240D01*
X41824142Y-54433036D01*
X41772300Y-54426797D01*
X41726922Y-54425212D01*
X41673661Y-54426893D01*
X41624612Y-54431936D01*
X41575053Y-54441481D01*
X41556685Y-54446461D01*
X41506401Y-54462833D01*
X41459989Y-54481965D01*
X41438471Y-54492868D01*
X41501730Y-54666280D01*
X41547687Y-54645341D01*
X41592588Y-54629155D01*
X41643808Y-54617409D01*
X41695491Y-54613047D01*
X41712756Y-54612791D01*
X41761740Y-54615302D01*
X41811608Y-54626819D01*
X41826085Y-54634040D01*
X41857160Y-54673878D01*
X41860523Y-54699009D01*
X41847822Y-54742972D01*
X41811919Y-54774968D01*
X41767721Y-54797373D01*
X41758429Y-54801102D01*
X41711739Y-54818333D01*
X41691751Y-54825282D01*
X41641867Y-54844170D01*
X41596658Y-54862885D01*
X41559616Y-54879748D01*
X41513941Y-54904986D01*
X41473201Y-54935866D01*
X41466071Y-54942519D01*
X41433464Y-54981536D01*
X41410383Y-55026782D01*
X41397235Y-55076628D01*
X41392351Y-55127120D01*
X41392065Y-55144019D01*
X41396647Y-55199713D01*
X41410391Y-55249680D01*
X41433298Y-55293920D01*
X41465368Y-55332433D01*
X41487808Y-55351870D01*
X41534252Y-55380611D01*
X41581485Y-55399627D01*
X41635569Y-55413458D01*
X41685874Y-55421021D01*
X41740937Y-55424983D01*
X41776259Y-55425631D01*
X41826752Y-55424341D01*
X41876440Y-55420067D01*
X41893007Y-55417815D01*
X41942039Y-55409145D01*
X41985087Y-55398764D01*
X42032821Y-55383387D01*
X42053963Y-55374829D01*
X42098779Y-55353012D01*
X42102568Y-55350893D01*
X42040530Y-55176015D01*
X41995089Y-55197381D01*
X41948500Y-55214163D01*
X41932819Y-55219002D01*
X41880772Y-55230611D01*
X41831208Y-55236192D01*
X41781787Y-55238034D01*
X41776015Y-55238053D01*
G37*
G36*
X43592519Y-44026901D02*
G01*
X43710000Y-44026901D01*
X43710000Y-43909420D01*
X43824794Y-43909420D01*
X43824794Y-44026901D01*
X43942519Y-44026901D01*
X43942519Y-43909420D01*
X44060000Y-43909420D01*
X44060000Y-44026901D01*
X44174794Y-44026901D01*
X44174794Y-43909420D01*
X44292519Y-43909420D01*
X44292519Y-44026901D01*
X44410000Y-44026901D01*
X44410000Y-43909420D01*
X44524794Y-43909420D01*
X44524794Y-44026901D01*
X44642519Y-44026901D01*
X44642519Y-43909420D01*
X44760000Y-43909420D01*
X44760000Y-44609420D01*
X44642519Y-44609420D01*
X44642519Y-44491695D01*
X44524794Y-44491695D01*
X44524794Y-44609420D01*
X44410000Y-44609420D01*
X44410000Y-44491695D01*
X44292519Y-44491695D01*
X44292519Y-44609420D01*
X44174794Y-44609420D01*
X44174794Y-44491695D01*
X44060000Y-44491695D01*
X44060000Y-44609420D01*
X43942519Y-44609420D01*
X43942519Y-44491695D01*
X43824794Y-44491695D01*
X43824794Y-44609420D01*
X43710000Y-44609420D01*
X43710000Y-44491695D01*
X43592519Y-44491695D01*
X43592519Y-44609420D01*
X43474794Y-44609420D01*
X43474794Y-44376901D01*
X43592519Y-44376901D01*
X43710000Y-44376901D01*
X43824794Y-44376901D01*
X43942519Y-44376901D01*
X44060000Y-44376901D01*
X44174794Y-44376901D01*
X44292519Y-44376901D01*
X44410000Y-44376901D01*
X44524794Y-44376901D01*
X44642519Y-44376901D01*
X44642519Y-44141695D01*
X44524794Y-44141695D01*
X44524794Y-44376901D01*
X44410000Y-44376901D01*
X44410000Y-44141695D01*
X44292519Y-44141695D01*
X44292519Y-44376901D01*
X44174794Y-44376901D01*
X44174794Y-44141695D01*
X44060000Y-44141695D01*
X44060000Y-44376901D01*
X43942519Y-44376901D01*
X43942519Y-44141695D01*
X43824794Y-44141695D01*
X43824794Y-44376901D01*
X43710000Y-44376901D01*
X43710000Y-44141695D01*
X43592519Y-44141695D01*
X43592519Y-44376901D01*
X43474794Y-44376901D01*
X43474794Y-43909420D01*
X43592519Y-43909420D01*
X43592519Y-44026901D01*
G37*
G36*
X44174794Y-43616817D02*
G01*
X44410000Y-43616817D01*
X44060000Y-43791695D01*
X44060000Y-43676901D01*
X43824794Y-43676901D01*
X44174794Y-43502023D01*
X44174794Y-43616817D01*
G37*
G36*
X43038506Y-22040844D02*
G01*
X43014831Y-22085396D01*
X42992231Y-22130207D01*
X42980132Y-22154905D01*
X42957117Y-22202914D01*
X42935593Y-22248862D01*
X42913497Y-22297005D01*
X42911256Y-22301939D01*
X42891118Y-22346743D01*
X42871096Y-22392125D01*
X42851190Y-22438087D01*
X42840181Y-22463872D01*
X42820726Y-22509536D01*
X42799879Y-22558461D01*
X42779844Y-22605478D01*
X42773991Y-22619211D01*
X42754223Y-22572767D01*
X42733691Y-22524414D01*
X42714560Y-22479266D01*
X42708046Y-22463872D01*
X42688204Y-22417588D01*
X42668246Y-22371884D01*
X42648173Y-22326759D01*
X42636971Y-22301939D01*
X42614817Y-22253577D01*
X42593236Y-22207410D01*
X42570158Y-22159160D01*
X42568094Y-22154905D01*
X42546320Y-22110793D01*
X42522894Y-22065283D01*
X42509720Y-22040844D01*
X42309930Y-22040844D01*
X42302984Y-22090532D01*
X42296313Y-22143121D01*
X42289917Y-22198609D01*
X42284546Y-22249542D01*
X42283796Y-22256999D01*
X42278700Y-22309731D01*
X42273885Y-22363421D01*
X42269350Y-22418070D01*
X42265096Y-22473677D01*
X42262791Y-22505882D01*
X42258812Y-22562456D01*
X42254997Y-22619123D01*
X42251346Y-22675884D01*
X42247858Y-22732738D01*
X42245938Y-22765268D01*
X42242624Y-22821391D01*
X42239520Y-22876065D01*
X42236627Y-22929289D01*
X42233943Y-22981064D01*
X42232505Y-23010000D01*
X42446217Y-23010000D01*
X42447877Y-22956276D01*
X42449743Y-22900800D01*
X42451816Y-22843573D01*
X42453700Y-22794545D01*
X42455727Y-22744301D01*
X42457452Y-22703230D01*
X42459839Y-22651334D01*
X42462571Y-22599294D01*
X42465649Y-22547111D01*
X42469073Y-22494784D01*
X42472843Y-22442315D01*
X42476958Y-22389703D01*
X42478702Y-22368618D01*
X42498542Y-22414150D01*
X42518118Y-22458965D01*
X42535122Y-22497822D01*
X42556221Y-22546379D01*
X42577206Y-22594994D01*
X42596182Y-22639239D01*
X42616744Y-22687184D01*
X42636787Y-22733629D01*
X42654556Y-22774549D01*
X42674455Y-22820299D01*
X42694717Y-22867075D01*
X42702428Y-22884947D01*
X42855812Y-22884947D01*
X42876184Y-22837821D01*
X42896792Y-22790379D01*
X42903684Y-22774549D01*
X42923254Y-22729469D01*
X42943344Y-22682888D01*
X42962058Y-22639239D01*
X42982827Y-22590572D01*
X43003827Y-22541962D01*
X43023119Y-22497822D01*
X43043641Y-22450598D01*
X43064581Y-22402439D01*
X43079295Y-22368618D01*
X43083549Y-22421287D01*
X43087457Y-22473814D01*
X43091019Y-22526197D01*
X43094235Y-22578438D01*
X43097106Y-22630535D01*
X43099631Y-22682489D01*
X43100544Y-22703230D01*
X43102686Y-22754448D01*
X43104684Y-22804448D01*
X43106894Y-22862843D01*
X43108898Y-22919487D01*
X43110695Y-22974378D01*
X43111779Y-23010000D01*
X43325491Y-23010000D01*
X43322940Y-22959052D01*
X43320202Y-22906656D01*
X43317277Y-22852811D01*
X43314165Y-22797516D01*
X43312302Y-22765268D01*
X43309329Y-22716484D01*
X43305750Y-22659657D01*
X43302056Y-22602923D01*
X43298244Y-22546283D01*
X43295450Y-22505882D01*
X43291261Y-22449728D01*
X43286814Y-22394531D01*
X43282111Y-22340293D01*
X43277150Y-22287014D01*
X43274200Y-22256999D01*
X43268871Y-22205750D01*
X43263355Y-22156721D01*
X43256821Y-22103407D01*
X43250043Y-22052994D01*
X43248311Y-22040844D01*
X43038506Y-22040844D01*
G37*
G36*
X41776015Y-22838053D02*
G01*
X41726590Y-22835383D01*
X41699323Y-22830481D01*
X41653269Y-22811562D01*
X41650963Y-22809965D01*
X41625561Y-22779190D01*
X41618478Y-22739623D01*
X41632775Y-22692164D01*
X41663663Y-22662198D01*
X41706471Y-22638395D01*
X41756049Y-22617458D01*
X41804814Y-22599987D01*
X41818269Y-22595519D01*
X41866140Y-22577751D01*
X41914012Y-22557662D01*
X41959441Y-22533421D01*
X41999986Y-22503684D01*
X42034363Y-22467780D01*
X42061779Y-22425038D01*
X42078959Y-22377185D01*
X42085341Y-22328680D01*
X42085715Y-22312442D01*
X42081563Y-22260799D01*
X42069107Y-22213429D01*
X42060558Y-22193007D01*
X42034311Y-22149503D01*
X42000024Y-22112170D01*
X41988750Y-22102637D01*
X41947662Y-22075137D01*
X41900206Y-22053360D01*
X41876154Y-22045240D01*
X41824142Y-22033036D01*
X41772300Y-22026797D01*
X41726922Y-22025212D01*
X41673661Y-22026893D01*
X41624612Y-22031936D01*
X41575053Y-22041481D01*
X41556685Y-22046461D01*
X41506401Y-22062833D01*
X41459989Y-22081965D01*
X41438471Y-22092868D01*
X41501730Y-22266280D01*
X41547687Y-22245341D01*
X41592588Y-22229155D01*
X41643808Y-22217409D01*
X41695491Y-22213047D01*
X41712756Y-22212791D01*
X41761740Y-22215302D01*
X41811608Y-22226819D01*
X41826085Y-22234040D01*
X41857160Y-22273878D01*
X41860523Y-22299009D01*
X41847822Y-22342972D01*
X41811919Y-22374968D01*
X41767721Y-22397373D01*
X41758429Y-22401102D01*
X41711739Y-22418333D01*
X41691751Y-22425282D01*
X41641867Y-22444170D01*
X41596658Y-22462885D01*
X41559616Y-22479748D01*
X41513941Y-22504986D01*
X41473201Y-22535866D01*
X41466071Y-22542519D01*
X41433464Y-22581536D01*
X41410383Y-22626782D01*
X41397235Y-22676628D01*
X41392351Y-22727120D01*
X41392065Y-22744019D01*
X41396647Y-22799713D01*
X41410391Y-22849680D01*
X41433298Y-22893920D01*
X41465368Y-22932433D01*
X41487808Y-22951870D01*
X41534252Y-22980611D01*
X41581485Y-22999627D01*
X41635569Y-23013458D01*
X41685874Y-23021021D01*
X41740937Y-23024983D01*
X41776259Y-23025631D01*
X41826752Y-23024341D01*
X41876440Y-23020067D01*
X41893007Y-23017815D01*
X41942039Y-23009145D01*
X41985087Y-22998764D01*
X42032821Y-22983387D01*
X42053963Y-22974829D01*
X42098779Y-22953012D01*
X42102568Y-22950893D01*
X42040530Y-22776015D01*
X41995089Y-22797381D01*
X41948500Y-22814163D01*
X41932819Y-22819002D01*
X41880772Y-22830611D01*
X41831208Y-22836192D01*
X41781787Y-22838034D01*
X41776015Y-22838053D01*
G37*
D10*
G36*
X35530844Y-43201800D02*
G01*
X35530844Y-43421131D01*
X36500000Y-43421131D01*
X36500000Y-43201800D01*
X35530844Y-43201800D01*
G37*
D11*
G36*
X43038506Y-32840844D02*
G01*
X43014831Y-32885396D01*
X42992231Y-32930207D01*
X42980132Y-32954905D01*
X42957117Y-33002914D01*
X42935593Y-33048862D01*
X42913497Y-33097005D01*
X42911256Y-33101939D01*
X42891118Y-33146743D01*
X42871096Y-33192125D01*
X42851190Y-33238087D01*
X42840181Y-33263872D01*
X42820726Y-33309536D01*
X42799879Y-33358461D01*
X42779844Y-33405478D01*
X42773991Y-33419211D01*
X42754223Y-33372767D01*
X42733691Y-33324414D01*
X42714560Y-33279266D01*
X42708046Y-33263872D01*
X42688204Y-33217588D01*
X42668246Y-33171884D01*
X42648173Y-33126759D01*
X42636971Y-33101939D01*
X42614817Y-33053577D01*
X42593236Y-33007410D01*
X42570158Y-32959160D01*
X42568094Y-32954905D01*
X42546320Y-32910793D01*
X42522894Y-32865283D01*
X42509720Y-32840844D01*
X42309930Y-32840844D01*
X42302984Y-32890532D01*
X42296313Y-32943121D01*
X42289917Y-32998609D01*
X42284546Y-33049542D01*
X42283796Y-33056999D01*
X42278700Y-33109731D01*
X42273885Y-33163421D01*
X42269350Y-33218070D01*
X42265096Y-33273677D01*
X42262791Y-33305882D01*
X42258812Y-33362456D01*
X42254997Y-33419123D01*
X42251346Y-33475884D01*
X42247858Y-33532738D01*
X42245938Y-33565268D01*
X42242624Y-33621391D01*
X42239520Y-33676065D01*
X42236627Y-33729289D01*
X42233943Y-33781064D01*
X42232505Y-33810000D01*
X42446217Y-33810000D01*
X42447877Y-33756276D01*
X42449743Y-33700800D01*
X42451816Y-33643573D01*
X42453700Y-33594545D01*
X42455727Y-33544301D01*
X42457452Y-33503230D01*
X42459839Y-33451334D01*
X42462571Y-33399294D01*
X42465649Y-33347111D01*
X42469073Y-33294784D01*
X42472843Y-33242315D01*
X42476958Y-33189703D01*
X42478702Y-33168618D01*
X42498542Y-33214150D01*
X42518118Y-33258965D01*
X42535122Y-33297822D01*
X42556221Y-33346379D01*
X42577206Y-33394994D01*
X42596182Y-33439239D01*
X42616744Y-33487184D01*
X42636787Y-33533629D01*
X42654556Y-33574549D01*
X42674455Y-33620299D01*
X42694717Y-33667075D01*
X42702428Y-33684947D01*
X42855812Y-33684947D01*
X42876184Y-33637821D01*
X42896792Y-33590379D01*
X42903684Y-33574549D01*
X42923254Y-33529469D01*
X42943344Y-33482888D01*
X42962058Y-33439239D01*
X42982827Y-33390572D01*
X43003827Y-33341962D01*
X43023119Y-33297822D01*
X43043641Y-33250598D01*
X43064581Y-33202439D01*
X43079295Y-33168618D01*
X43083549Y-33221287D01*
X43087457Y-33273814D01*
X43091019Y-33326197D01*
X43094235Y-33378438D01*
X43097106Y-33430535D01*
X43099631Y-33482489D01*
X43100544Y-33503230D01*
X43102686Y-33554448D01*
X43104684Y-33604448D01*
X43106894Y-33662843D01*
X43108898Y-33719487D01*
X43110695Y-33774378D01*
X43111779Y-33810000D01*
X43325491Y-33810000D01*
X43322940Y-33759052D01*
X43320202Y-33706656D01*
X43317277Y-33652811D01*
X43314165Y-33597516D01*
X43312302Y-33565268D01*
X43309329Y-33516484D01*
X43305750Y-33459657D01*
X43302056Y-33402923D01*
X43298244Y-33346283D01*
X43295450Y-33305882D01*
X43291261Y-33249728D01*
X43286814Y-33194531D01*
X43282111Y-33140293D01*
X43277150Y-33087014D01*
X43274200Y-33056999D01*
X43268871Y-33005750D01*
X43263355Y-32956721D01*
X43256821Y-32903407D01*
X43250043Y-32852994D01*
X43248311Y-32840844D01*
X43038506Y-32840844D01*
G37*
G36*
X41776015Y-33638053D02*
G01*
X41726590Y-33635383D01*
X41699323Y-33630481D01*
X41653269Y-33611562D01*
X41650963Y-33609965D01*
X41625561Y-33579190D01*
X41618478Y-33539623D01*
X41632775Y-33492164D01*
X41663663Y-33462198D01*
X41706471Y-33438395D01*
X41756049Y-33417458D01*
X41804814Y-33399987D01*
X41818269Y-33395519D01*
X41866140Y-33377751D01*
X41914012Y-33357662D01*
X41959441Y-33333421D01*
X41999986Y-33303684D01*
X42034363Y-33267780D01*
X42061779Y-33225038D01*
X42078959Y-33177185D01*
X42085341Y-33128680D01*
X42085715Y-33112442D01*
X42081563Y-33060799D01*
X42069107Y-33013429D01*
X42060558Y-32993007D01*
X42034311Y-32949503D01*
X42000024Y-32912170D01*
X41988750Y-32902637D01*
X41947662Y-32875137D01*
X41900206Y-32853360D01*
X41876154Y-32845240D01*
X41824142Y-32833036D01*
X41772300Y-32826797D01*
X41726922Y-32825212D01*
X41673661Y-32826893D01*
X41624612Y-32831936D01*
X41575053Y-32841481D01*
X41556685Y-32846461D01*
X41506401Y-32862833D01*
X41459989Y-32881965D01*
X41438471Y-32892868D01*
X41501730Y-33066280D01*
X41547687Y-33045341D01*
X41592588Y-33029155D01*
X41643808Y-33017409D01*
X41695491Y-33013047D01*
X41712756Y-33012791D01*
X41761740Y-33015302D01*
X41811608Y-33026819D01*
X41826085Y-33034040D01*
X41857160Y-33073878D01*
X41860523Y-33099009D01*
X41847822Y-33142972D01*
X41811919Y-33174968D01*
X41767721Y-33197373D01*
X41758429Y-33201102D01*
X41711739Y-33218333D01*
X41691751Y-33225282D01*
X41641867Y-33244170D01*
X41596658Y-33262885D01*
X41559616Y-33279748D01*
X41513941Y-33304986D01*
X41473201Y-33335866D01*
X41466071Y-33342519D01*
X41433464Y-33381536D01*
X41410383Y-33426782D01*
X41397235Y-33476628D01*
X41392351Y-33527120D01*
X41392065Y-33544019D01*
X41396647Y-33599713D01*
X41410391Y-33649680D01*
X41433298Y-33693920D01*
X41465368Y-33732433D01*
X41487808Y-33751870D01*
X41534252Y-33780611D01*
X41581485Y-33799627D01*
X41635569Y-33813458D01*
X41685874Y-33821021D01*
X41740937Y-33824983D01*
X41776259Y-33825631D01*
X41826752Y-33824341D01*
X41876440Y-33820067D01*
X41893007Y-33817815D01*
X41942039Y-33809145D01*
X41985087Y-33798764D01*
X42032821Y-33783387D01*
X42053963Y-33774829D01*
X42098779Y-33753012D01*
X42102568Y-33750893D01*
X42040530Y-33576015D01*
X41995089Y-33597381D01*
X41948500Y-33614163D01*
X41932819Y-33619002D01*
X41880772Y-33630611D01*
X41831208Y-33636192D01*
X41781787Y-33638034D01*
X41776015Y-33638053D01*
G37*
G36*
X43592519Y-22426901D02*
G01*
X43710000Y-22426901D01*
X43710000Y-22309420D01*
X43824794Y-22309420D01*
X43824794Y-22426901D01*
X43942519Y-22426901D01*
X43942519Y-22309420D01*
X44060000Y-22309420D01*
X44060000Y-22426901D01*
X44174794Y-22426901D01*
X44174794Y-22309420D01*
X44292519Y-22309420D01*
X44292519Y-22426901D01*
X44410000Y-22426901D01*
X44410000Y-22309420D01*
X44524794Y-22309420D01*
X44524794Y-22426901D01*
X44642519Y-22426901D01*
X44642519Y-22309420D01*
X44760000Y-22309420D01*
X44760000Y-23009420D01*
X44642519Y-23009420D01*
X44642519Y-22891695D01*
X44524794Y-22891695D01*
X44524794Y-23009420D01*
X44410000Y-23009420D01*
X44410000Y-22891695D01*
X44292519Y-22891695D01*
X44292519Y-23009420D01*
X44174794Y-23009420D01*
X44174794Y-22891695D01*
X44060000Y-22891695D01*
X44060000Y-23009420D01*
X43942519Y-23009420D01*
X43942519Y-22891695D01*
X43824794Y-22891695D01*
X43824794Y-23009420D01*
X43710000Y-23009420D01*
X43710000Y-22891695D01*
X43592519Y-22891695D01*
X43592519Y-23009420D01*
X43474794Y-23009420D01*
X43474794Y-22776901D01*
X43592519Y-22776901D01*
X43710000Y-22776901D01*
X43824794Y-22776901D01*
X43942519Y-22776901D01*
X44060000Y-22776901D01*
X44174794Y-22776901D01*
X44292519Y-22776901D01*
X44410000Y-22776901D01*
X44524794Y-22776901D01*
X44642519Y-22776901D01*
X44642519Y-22541695D01*
X44524794Y-22541695D01*
X44524794Y-22776901D01*
X44410000Y-22776901D01*
X44410000Y-22541695D01*
X44292519Y-22541695D01*
X44292519Y-22776901D01*
X44174794Y-22776901D01*
X44174794Y-22541695D01*
X44060000Y-22541695D01*
X44060000Y-22776901D01*
X43942519Y-22776901D01*
X43942519Y-22541695D01*
X43824794Y-22541695D01*
X43824794Y-22776901D01*
X43710000Y-22776901D01*
X43710000Y-22541695D01*
X43592519Y-22541695D01*
X43592519Y-22776901D01*
X43474794Y-22776901D01*
X43474794Y-22309420D01*
X43592519Y-22309420D01*
X43592519Y-22426901D01*
G37*
G36*
X44174794Y-22016817D02*
G01*
X44410000Y-22016817D01*
X44060000Y-22191695D01*
X44060000Y-22076901D01*
X43824794Y-22076901D01*
X44174794Y-21902023D01*
X44174794Y-22016817D01*
G37*
D10*
G36*
X37805631Y-43403803D02*
G01*
X37803601Y-43346101D01*
X37797510Y-43291940D01*
X37787359Y-43241321D01*
X37773147Y-43194243D01*
X37749672Y-43140376D01*
X37719852Y-43092043D01*
X37683688Y-43049243D01*
X37675694Y-43041347D01*
X37632347Y-43005532D01*
X37583669Y-42975788D01*
X37529660Y-42952114D01*
X37482614Y-42937545D01*
X37432157Y-42926861D01*
X37378288Y-42920063D01*
X37321008Y-42917149D01*
X37306154Y-42917027D01*
X37255343Y-42918839D01*
X37200277Y-42925346D01*
X37148418Y-42936585D01*
X37099764Y-42952556D01*
X37093907Y-42954885D01*
X37048967Y-42975692D01*
X37002788Y-43003295D01*
X36961245Y-43035343D01*
X36936127Y-43059177D01*
X36902329Y-43098399D01*
X36873478Y-43141600D01*
X36849573Y-43188782D01*
X36838429Y-43216713D01*
X36823897Y-43263364D01*
X36813517Y-43311968D01*
X36807288Y-43362526D01*
X36805212Y-43415039D01*
X36806989Y-43467124D01*
X36812835Y-43518054D01*
X36814494Y-43527635D01*
X36824923Y-43577837D01*
X36835498Y-43616295D01*
X36852301Y-43662566D01*
X36860167Y-43679554D01*
X36879706Y-43716190D01*
X37050432Y-43652687D01*
X37029549Y-43607281D01*
X37012866Y-43558996D01*
X37009644Y-43547907D01*
X36998732Y-43496627D01*
X36993597Y-43444569D01*
X36992791Y-43412108D01*
X36997004Y-43362038D01*
X37009644Y-43312945D01*
X37031381Y-43267333D01*
X37063377Y-43227216D01*
X37102958Y-43195456D01*
X37148519Y-43171720D01*
X37159364Y-43167376D01*
X37206900Y-43153683D01*
X37256751Y-43146683D01*
X37302002Y-43144906D01*
X37351107Y-43146967D01*
X37401435Y-43153850D01*
X37427299Y-43159561D01*
X37474910Y-43176057D01*
X37519178Y-43201409D01*
X37527194Y-43207432D01*
X37562714Y-43243027D01*
X37588894Y-43284287D01*
X37593628Y-43294138D01*
X37609442Y-43341307D01*
X37616884Y-43391430D01*
X37618053Y-43423587D01*
X37616275Y-43474274D01*
X37612435Y-43509316D01*
X37603672Y-43557666D01*
X37599002Y-43576972D01*
X37583231Y-43624720D01*
X37581416Y-43628995D01*
X37563098Y-43669784D01*
X37732358Y-43730112D01*
X37754293Y-43686119D01*
X37771468Y-43639070D01*
X37783161Y-43599198D01*
X37794023Y-43549674D01*
X37801330Y-43495900D01*
X37804841Y-43444533D01*
X37805631Y-43403803D01*
G37*
G36*
X37805631Y-54203803D02*
G01*
X37803601Y-54146101D01*
X37797510Y-54091940D01*
X37787359Y-54041321D01*
X37773147Y-53994243D01*
X37749672Y-53940376D01*
X37719852Y-53892043D01*
X37683688Y-53849243D01*
X37675694Y-53841347D01*
X37632347Y-53805532D01*
X37583669Y-53775788D01*
X37529660Y-53752114D01*
X37482614Y-53737545D01*
X37432157Y-53726861D01*
X37378288Y-53720063D01*
X37321008Y-53717149D01*
X37306154Y-53717027D01*
X37255343Y-53718839D01*
X37200277Y-53725346D01*
X37148418Y-53736585D01*
X37099764Y-53752556D01*
X37093907Y-53754885D01*
X37048967Y-53775692D01*
X37002788Y-53803295D01*
X36961245Y-53835343D01*
X36936127Y-53859177D01*
X36902329Y-53898399D01*
X36873478Y-53941600D01*
X36849573Y-53988782D01*
X36838429Y-54016713D01*
X36823897Y-54063364D01*
X36813517Y-54111968D01*
X36807288Y-54162526D01*
X36805212Y-54215039D01*
X36806989Y-54267124D01*
X36812835Y-54318054D01*
X36814494Y-54327635D01*
X36824923Y-54377837D01*
X36835498Y-54416295D01*
X36852301Y-54462566D01*
X36860167Y-54479554D01*
X36879706Y-54516190D01*
X37050432Y-54452687D01*
X37029549Y-54407281D01*
X37012866Y-54358996D01*
X37009644Y-54347907D01*
X36998732Y-54296627D01*
X36993597Y-54244569D01*
X36992791Y-54212108D01*
X36997004Y-54162038D01*
X37009644Y-54112945D01*
X37031381Y-54067333D01*
X37063377Y-54027216D01*
X37102958Y-53995456D01*
X37148519Y-53971720D01*
X37159364Y-53967376D01*
X37206900Y-53953683D01*
X37256751Y-53946683D01*
X37302002Y-53944906D01*
X37351107Y-53946967D01*
X37401435Y-53953850D01*
X37427299Y-53959561D01*
X37474910Y-53976057D01*
X37519178Y-54001409D01*
X37527194Y-54007432D01*
X37562714Y-54043027D01*
X37588894Y-54084287D01*
X37593628Y-54094138D01*
X37609442Y-54141307D01*
X37616884Y-54191430D01*
X37618053Y-54223587D01*
X37616275Y-54274274D01*
X37612435Y-54309316D01*
X37603672Y-54357666D01*
X37599002Y-54376972D01*
X37583231Y-54424720D01*
X37581416Y-54428995D01*
X37563098Y-54469784D01*
X37732358Y-54530112D01*
X37754293Y-54486119D01*
X37771468Y-54439070D01*
X37783161Y-54399198D01*
X37794023Y-54349674D01*
X37801330Y-54295900D01*
X37804841Y-54244533D01*
X37805631Y-54203803D01*
G37*
D11*
G36*
X43038506Y-43640844D02*
G01*
X43014831Y-43685396D01*
X42992231Y-43730207D01*
X42980132Y-43754905D01*
X42957117Y-43802914D01*
X42935593Y-43848862D01*
X42913497Y-43897005D01*
X42911256Y-43901939D01*
X42891118Y-43946743D01*
X42871096Y-43992125D01*
X42851190Y-44038087D01*
X42840181Y-44063872D01*
X42820726Y-44109536D01*
X42799879Y-44158461D01*
X42779844Y-44205478D01*
X42773991Y-44219211D01*
X42754223Y-44172767D01*
X42733691Y-44124414D01*
X42714560Y-44079266D01*
X42708046Y-44063872D01*
X42688204Y-44017588D01*
X42668246Y-43971884D01*
X42648173Y-43926759D01*
X42636971Y-43901939D01*
X42614817Y-43853577D01*
X42593236Y-43807410D01*
X42570158Y-43759160D01*
X42568094Y-43754905D01*
X42546320Y-43710793D01*
X42522894Y-43665283D01*
X42509720Y-43640844D01*
X42309930Y-43640844D01*
X42302984Y-43690532D01*
X42296313Y-43743121D01*
X42289917Y-43798609D01*
X42284546Y-43849542D01*
X42283796Y-43856999D01*
X42278700Y-43909731D01*
X42273885Y-43963421D01*
X42269350Y-44018070D01*
X42265096Y-44073677D01*
X42262791Y-44105882D01*
X42258812Y-44162456D01*
X42254997Y-44219123D01*
X42251346Y-44275884D01*
X42247858Y-44332738D01*
X42245938Y-44365268D01*
X42242624Y-44421391D01*
X42239520Y-44476065D01*
X42236627Y-44529289D01*
X42233943Y-44581064D01*
X42232505Y-44610000D01*
X42446217Y-44610000D01*
X42447877Y-44556276D01*
X42449743Y-44500800D01*
X42451816Y-44443573D01*
X42453700Y-44394545D01*
X42455727Y-44344301D01*
X42457452Y-44303230D01*
X42459839Y-44251334D01*
X42462571Y-44199294D01*
X42465649Y-44147111D01*
X42469073Y-44094784D01*
X42472843Y-44042315D01*
X42476958Y-43989703D01*
X42478702Y-43968618D01*
X42498542Y-44014150D01*
X42518118Y-44058965D01*
X42535122Y-44097822D01*
X42556221Y-44146379D01*
X42577206Y-44194994D01*
X42596182Y-44239239D01*
X42616744Y-44287184D01*
X42636787Y-44333629D01*
X42654556Y-44374549D01*
X42674455Y-44420299D01*
X42694717Y-44467075D01*
X42702428Y-44484947D01*
X42855812Y-44484947D01*
X42876184Y-44437821D01*
X42896792Y-44390379D01*
X42903684Y-44374549D01*
X42923254Y-44329469D01*
X42943344Y-44282888D01*
X42962058Y-44239239D01*
X42982827Y-44190572D01*
X43003827Y-44141962D01*
X43023119Y-44097822D01*
X43043641Y-44050598D01*
X43064581Y-44002439D01*
X43079295Y-43968618D01*
X43083549Y-44021287D01*
X43087457Y-44073814D01*
X43091019Y-44126197D01*
X43094235Y-44178438D01*
X43097106Y-44230535D01*
X43099631Y-44282489D01*
X43100544Y-44303230D01*
X43102686Y-44354448D01*
X43104684Y-44404448D01*
X43106894Y-44462843D01*
X43108898Y-44519487D01*
X43110695Y-44574378D01*
X43111779Y-44610000D01*
X43325491Y-44610000D01*
X43322940Y-44559052D01*
X43320202Y-44506656D01*
X43317277Y-44452811D01*
X43314165Y-44397516D01*
X43312302Y-44365268D01*
X43309329Y-44316484D01*
X43305750Y-44259657D01*
X43302056Y-44202923D01*
X43298244Y-44146283D01*
X43295450Y-44105882D01*
X43291261Y-44049728D01*
X43286814Y-43994531D01*
X43282111Y-43940293D01*
X43277150Y-43887014D01*
X43274200Y-43856999D01*
X43268871Y-43805750D01*
X43263355Y-43756721D01*
X43256821Y-43703407D01*
X43250043Y-43652994D01*
X43248311Y-43640844D01*
X43038506Y-43640844D01*
G37*
G36*
X41776015Y-44438053D02*
G01*
X41726590Y-44435383D01*
X41699323Y-44430481D01*
X41653269Y-44411562D01*
X41650963Y-44409965D01*
X41625561Y-44379190D01*
X41618478Y-44339623D01*
X41632775Y-44292164D01*
X41663663Y-44262198D01*
X41706471Y-44238395D01*
X41756049Y-44217458D01*
X41804814Y-44199987D01*
X41818269Y-44195519D01*
X41866140Y-44177751D01*
X41914012Y-44157662D01*
X41959441Y-44133421D01*
X41999986Y-44103684D01*
X42034363Y-44067780D01*
X42061779Y-44025038D01*
X42078959Y-43977185D01*
X42085341Y-43928680D01*
X42085715Y-43912442D01*
X42081563Y-43860799D01*
X42069107Y-43813429D01*
X42060558Y-43793007D01*
X42034311Y-43749503D01*
X42000024Y-43712170D01*
X41988750Y-43702637D01*
X41947662Y-43675137D01*
X41900206Y-43653360D01*
X41876154Y-43645240D01*
X41824142Y-43633036D01*
X41772300Y-43626797D01*
X41726922Y-43625212D01*
X41673661Y-43626893D01*
X41624612Y-43631936D01*
X41575053Y-43641481D01*
X41556685Y-43646461D01*
X41506401Y-43662833D01*
X41459989Y-43681965D01*
X41438471Y-43692868D01*
X41501730Y-43866280D01*
X41547687Y-43845341D01*
X41592588Y-43829155D01*
X41643808Y-43817409D01*
X41695491Y-43813047D01*
X41712756Y-43812791D01*
X41761740Y-43815302D01*
X41811608Y-43826819D01*
X41826085Y-43834040D01*
X41857160Y-43873878D01*
X41860523Y-43899009D01*
X41847822Y-43942972D01*
X41811919Y-43974968D01*
X41767721Y-43997373D01*
X41758429Y-44001102D01*
X41711739Y-44018333D01*
X41691751Y-44025282D01*
X41641867Y-44044170D01*
X41596658Y-44062885D01*
X41559616Y-44079748D01*
X41513941Y-44104986D01*
X41473201Y-44135866D01*
X41466071Y-44142519D01*
X41433464Y-44181536D01*
X41410383Y-44226782D01*
X41397235Y-44276628D01*
X41392351Y-44327120D01*
X41392065Y-44344019D01*
X41396647Y-44399713D01*
X41410391Y-44449680D01*
X41433298Y-44493920D01*
X41465368Y-44532433D01*
X41487808Y-44551870D01*
X41534252Y-44580611D01*
X41581485Y-44599627D01*
X41635569Y-44613458D01*
X41685874Y-44621021D01*
X41740937Y-44624983D01*
X41776259Y-44625631D01*
X41826752Y-44624341D01*
X41876440Y-44620067D01*
X41893007Y-44617815D01*
X41942039Y-44609145D01*
X41985087Y-44598764D01*
X42032821Y-44583387D01*
X42053963Y-44574829D01*
X42098779Y-44553012D01*
X42102568Y-44550893D01*
X42040530Y-44376015D01*
X41995089Y-44397381D01*
X41948500Y-44414163D01*
X41932819Y-44419002D01*
X41880772Y-44430611D01*
X41831208Y-44436192D01*
X41781787Y-44438034D01*
X41776015Y-44438053D01*
G37*
G36*
X43592519Y-54826901D02*
G01*
X43710000Y-54826901D01*
X43710000Y-54709420D01*
X43824794Y-54709420D01*
X43824794Y-54826901D01*
X43942519Y-54826901D01*
X43942519Y-54709420D01*
X44060000Y-54709420D01*
X44060000Y-54826901D01*
X44174794Y-54826901D01*
X44174794Y-54709420D01*
X44292519Y-54709420D01*
X44292519Y-54826901D01*
X44410000Y-54826901D01*
X44410000Y-54709420D01*
X44524794Y-54709420D01*
X44524794Y-54826901D01*
X44642519Y-54826901D01*
X44642519Y-54709420D01*
X44760000Y-54709420D01*
X44760000Y-55409420D01*
X44642519Y-55409420D01*
X44642519Y-55291695D01*
X44524794Y-55291695D01*
X44524794Y-55409420D01*
X44410000Y-55409420D01*
X44410000Y-55291695D01*
X44292519Y-55291695D01*
X44292519Y-55409420D01*
X44174794Y-55409420D01*
X44174794Y-55291695D01*
X44060000Y-55291695D01*
X44060000Y-55409420D01*
X43942519Y-55409420D01*
X43942519Y-55291695D01*
X43824794Y-55291695D01*
X43824794Y-55409420D01*
X43710000Y-55409420D01*
X43710000Y-55291695D01*
X43592519Y-55291695D01*
X43592519Y-55409420D01*
X43474794Y-55409420D01*
X43474794Y-55176901D01*
X43592519Y-55176901D01*
X43710000Y-55176901D01*
X43824794Y-55176901D01*
X43942519Y-55176901D01*
X44060000Y-55176901D01*
X44174794Y-55176901D01*
X44292519Y-55176901D01*
X44410000Y-55176901D01*
X44524794Y-55176901D01*
X44642519Y-55176901D01*
X44642519Y-54941695D01*
X44524794Y-54941695D01*
X44524794Y-55176901D01*
X44410000Y-55176901D01*
X44410000Y-54941695D01*
X44292519Y-54941695D01*
X44292519Y-55176901D01*
X44174794Y-55176901D01*
X44174794Y-54941695D01*
X44060000Y-54941695D01*
X44060000Y-55176901D01*
X43942519Y-55176901D01*
X43942519Y-54941695D01*
X43824794Y-54941695D01*
X43824794Y-55176901D01*
X43710000Y-55176901D01*
X43710000Y-54941695D01*
X43592519Y-54941695D01*
X43592519Y-55176901D01*
X43474794Y-55176901D01*
X43474794Y-54709420D01*
X43592519Y-54709420D01*
X43592519Y-54826901D01*
G37*
G36*
X44174794Y-54416817D02*
G01*
X44410000Y-54416817D01*
X44060000Y-54591695D01*
X44060000Y-54476901D01*
X43824794Y-54476901D01*
X44174794Y-54302023D01*
X44174794Y-54416817D01*
G37*
D10*
G36*
X34120000Y-27607983D02*
G01*
X34075184Y-27585496D01*
X34028055Y-27562913D01*
X33978613Y-27540235D01*
X33926857Y-27517461D01*
X33872787Y-27494592D01*
X33816404Y-27471627D01*
X33793203Y-27462415D01*
X33745903Y-27444093D01*
X33697551Y-27426007D01*
X33648145Y-27408158D01*
X33597686Y-27390546D01*
X33546174Y-27373171D01*
X33493608Y-27356032D01*
X33439989Y-27339129D01*
X33385317Y-27322464D01*
X33385317Y-27544725D01*
X33434705Y-27558008D01*
X33483662Y-27571934D01*
X33503286Y-27577697D01*
X33551120Y-27592157D01*
X33599365Y-27606961D01*
X33631758Y-27617020D01*
X33680004Y-27632373D01*
X33727288Y-27647658D01*
X33758276Y-27657809D01*
X33806272Y-27674358D01*
X33853903Y-27691909D01*
X33869895Y-27698109D01*
X33823766Y-27714652D01*
X33777165Y-27730934D01*
X33758276Y-27737432D01*
X33711633Y-27753083D01*
X33664029Y-27768527D01*
X33631758Y-27778709D01*
X33583238Y-27793856D01*
X33535129Y-27808522D01*
X33503286Y-27818032D01*
X33453181Y-27832705D01*
X33406060Y-27845765D01*
X33385317Y-27851249D01*
X33385317Y-28067893D01*
X33439989Y-28051227D01*
X33493608Y-28034325D01*
X33546174Y-28017186D01*
X33597686Y-27999810D01*
X33648145Y-27982198D01*
X33697551Y-27964349D01*
X33745903Y-27946264D01*
X33793203Y-27927942D01*
X33839235Y-27909532D01*
X33894693Y-27886605D01*
X33947837Y-27863774D01*
X33998668Y-27841039D01*
X34047185Y-27818399D01*
X34093388Y-27795854D01*
X34120000Y-27782373D01*
X34120000Y-27607983D01*
G37*
G36*
X33693498Y-28127484D02*
G01*
X33748781Y-28131869D01*
X33800537Y-28139177D01*
X33860274Y-28152423D01*
X33914502Y-28170237D01*
X33963219Y-28192619D01*
X34006427Y-28219568D01*
X34029517Y-28237732D01*
X34068884Y-28277809D01*
X34099166Y-28322883D01*
X34120364Y-28372955D01*
X34132477Y-28428024D01*
X34135631Y-28477732D01*
X34135126Y-28498032D01*
X34127556Y-28555600D01*
X34110900Y-28608170D01*
X34085161Y-28655743D01*
X34050336Y-28698319D01*
X34006427Y-28735897D01*
X33998226Y-28741652D01*
X33953916Y-28767688D01*
X33904097Y-28789155D01*
X33848768Y-28806056D01*
X33800537Y-28816287D01*
X33748781Y-28823595D01*
X33693498Y-28827980D01*
X33634689Y-28829442D01*
X33576227Y-28827980D01*
X33521253Y-28823595D01*
X33469768Y-28816287D01*
X33410316Y-28803041D01*
X33356314Y-28785227D01*
X33307763Y-28762846D01*
X33264661Y-28735897D01*
X33241527Y-28717733D01*
X33202086Y-28677656D01*
X33171746Y-28632582D01*
X33150509Y-28582510D01*
X33138373Y-28527441D01*
X33135212Y-28477732D01*
X33307159Y-28477732D01*
X33309053Y-28498847D01*
X33331095Y-28543678D01*
X33353808Y-28563612D01*
X33398750Y-28585932D01*
X33404249Y-28587823D01*
X33452838Y-28600615D01*
X33502065Y-28608402D01*
X33532702Y-28611501D01*
X33581807Y-28614489D01*
X33634689Y-28615485D01*
X33666043Y-28615146D01*
X33717019Y-28612988D01*
X33768290Y-28608402D01*
X33775766Y-28607484D01*
X33824466Y-28599243D01*
X33872337Y-28585932D01*
X33899918Y-28573997D01*
X33939748Y-28543678D01*
X33952371Y-28525798D01*
X33963684Y-28477732D01*
X33961791Y-28456538D01*
X33939748Y-28412031D01*
X33917076Y-28392608D01*
X33872337Y-28370021D01*
X33866807Y-28368041D01*
X33817898Y-28354745D01*
X33768290Y-28346818D01*
X33737225Y-28343719D01*
X33687709Y-28340731D01*
X33634689Y-28339735D01*
X33603382Y-28340074D01*
X33552703Y-28342232D01*
X33502065Y-28346818D01*
X33494649Y-28347739D01*
X33446317Y-28356160D01*
X33398750Y-28370021D01*
X33371031Y-28382258D01*
X33331095Y-28412031D01*
X33318473Y-28429677D01*
X33307159Y-28477732D01*
X33135212Y-28477732D01*
X33138456Y-28429165D01*
X33149518Y-28379212D01*
X33168429Y-28332896D01*
X33192171Y-28294232D01*
X33225175Y-28255835D01*
X33265394Y-28221766D01*
X33281728Y-28210504D01*
X33326569Y-28185321D01*
X33371821Y-28166287D01*
X33421709Y-28150691D01*
X33427522Y-28149173D01*
X33475981Y-28138766D01*
X33527921Y-28131443D01*
X33583341Y-28127203D01*
X33634689Y-28126023D01*
X33693498Y-28127484D01*
G37*
G36*
X34002763Y-29177244D02*
G01*
X34053673Y-29169577D01*
X34097316Y-29142038D01*
X34101681Y-29137188D01*
X34127144Y-29094507D01*
X34135631Y-29046574D01*
X34127144Y-28998458D01*
X34101681Y-28955716D01*
X34059977Y-28925674D01*
X34010763Y-28915816D01*
X34002763Y-28915660D01*
X33951853Y-28923327D01*
X33908209Y-28950865D01*
X33903845Y-28955716D01*
X33878382Y-28998458D01*
X33869895Y-29046574D01*
X33879476Y-29097328D01*
X33903845Y-29137188D01*
X33945549Y-29167230D01*
X33994763Y-29177087D01*
X34002763Y-29177244D01*
G37*
G36*
X33693498Y-29266633D02*
G01*
X33748781Y-29271018D01*
X33800537Y-29278326D01*
X33860274Y-29291572D01*
X33914502Y-29309386D01*
X33963219Y-29331767D01*
X34006427Y-29358716D01*
X34029517Y-29376881D01*
X34068884Y-29416957D01*
X34099166Y-29462032D01*
X34120364Y-29512103D01*
X34132477Y-29567172D01*
X34135631Y-29616881D01*
X34135126Y-29637181D01*
X34127556Y-29694749D01*
X34110900Y-29747319D01*
X34085161Y-29794892D01*
X34050336Y-29837467D01*
X34006427Y-29875046D01*
X33998226Y-29880801D01*
X33953916Y-29906836D01*
X33904097Y-29928304D01*
X33848768Y-29945204D01*
X33800537Y-29955436D01*
X33748781Y-29962744D01*
X33693498Y-29967129D01*
X33634689Y-29968591D01*
X33576227Y-29967129D01*
X33521253Y-29962744D01*
X33469768Y-29955436D01*
X33410316Y-29942190D01*
X33356314Y-29924376D01*
X33307763Y-29901995D01*
X33264661Y-29875046D01*
X33241527Y-29856881D01*
X33202086Y-29816804D01*
X33171746Y-29771730D01*
X33150509Y-29721658D01*
X33138373Y-29666589D01*
X33135212Y-29616881D01*
X33307159Y-29616881D01*
X33309053Y-29637995D01*
X33331095Y-29682826D01*
X33353808Y-29702761D01*
X33398750Y-29725080D01*
X33404249Y-29726971D01*
X33452838Y-29739764D01*
X33502065Y-29747551D01*
X33532702Y-29750650D01*
X33581807Y-29753638D01*
X33634689Y-29754634D01*
X33666043Y-29754295D01*
X33717019Y-29752137D01*
X33768290Y-29747551D01*
X33775766Y-29746633D01*
X33824466Y-29738392D01*
X33872337Y-29725080D01*
X33899918Y-29713145D01*
X33939748Y-29682826D01*
X33952371Y-29664947D01*
X33963684Y-29616881D01*
X33961791Y-29595687D01*
X33939748Y-29551180D01*
X33917076Y-29531757D01*
X33872337Y-29509170D01*
X33866807Y-29507190D01*
X33817898Y-29493894D01*
X33768290Y-29485967D01*
X33737225Y-29482868D01*
X33687709Y-29479880D01*
X33634689Y-29478884D01*
X33603382Y-29479223D01*
X33552703Y-29481381D01*
X33502065Y-29485967D01*
X33494649Y-29486887D01*
X33446317Y-29495309D01*
X33398750Y-29509170D01*
X33371031Y-29521407D01*
X33331095Y-29551180D01*
X33318473Y-29568825D01*
X33307159Y-29616881D01*
X33135212Y-29616881D01*
X33138456Y-29568314D01*
X33149518Y-29518361D01*
X33168429Y-29472045D01*
X33192171Y-29433381D01*
X33225175Y-29394983D01*
X33265394Y-29360914D01*
X33281728Y-29349653D01*
X33326569Y-29324470D01*
X33371821Y-29305435D01*
X33421709Y-29289840D01*
X33427522Y-29288322D01*
X33475981Y-29277915D01*
X33527921Y-29270592D01*
X33583341Y-29266352D01*
X33634689Y-29265171D01*
X33693498Y-29266633D01*
G37*
G36*
X34002763Y-30316392D02*
G01*
X34053673Y-30308725D01*
X34097316Y-30281187D01*
X34101681Y-30276337D01*
X34127144Y-30233655D01*
X34135631Y-30185722D01*
X34127144Y-30137607D01*
X34101681Y-30094864D01*
X34059977Y-30064822D01*
X34010763Y-30054965D01*
X34002763Y-30054808D01*
X33951853Y-30062475D01*
X33908209Y-30090014D01*
X33903845Y-30094864D01*
X33878382Y-30137607D01*
X33869895Y-30185722D01*
X33879476Y-30236477D01*
X33903845Y-30276337D01*
X33945549Y-30306378D01*
X33994763Y-30316236D01*
X34002763Y-30316392D01*
G37*
G36*
X33693498Y-30405781D02*
G01*
X33748781Y-30410166D01*
X33800537Y-30417475D01*
X33860274Y-30430721D01*
X33914502Y-30448534D01*
X33963219Y-30470916D01*
X34006427Y-30497865D01*
X34029517Y-30516029D01*
X34068884Y-30556106D01*
X34099166Y-30601180D01*
X34120364Y-30651252D01*
X34132477Y-30706321D01*
X34135631Y-30756030D01*
X34135126Y-30776329D01*
X34127556Y-30833897D01*
X34110900Y-30886468D01*
X34085161Y-30934041D01*
X34050336Y-30976616D01*
X34006427Y-31014194D01*
X33998226Y-31019949D01*
X33953916Y-31045985D01*
X33904097Y-31067453D01*
X33848768Y-31084353D01*
X33800537Y-31094584D01*
X33748781Y-31101893D01*
X33693498Y-31106278D01*
X33634689Y-31107739D01*
X33576227Y-31106278D01*
X33521253Y-31101893D01*
X33469768Y-31094584D01*
X33410316Y-31081338D01*
X33356314Y-31063525D01*
X33307763Y-31041143D01*
X33264661Y-31014194D01*
X33241527Y-30996030D01*
X33202086Y-30955953D01*
X33171746Y-30910879D01*
X33150509Y-30860807D01*
X33138373Y-30805738D01*
X33135212Y-30756030D01*
X33307159Y-30756030D01*
X33309053Y-30777144D01*
X33331095Y-30821975D01*
X33353808Y-30841910D01*
X33398750Y-30864229D01*
X33404249Y-30866120D01*
X33452838Y-30878912D01*
X33502065Y-30886699D01*
X33532702Y-30889798D01*
X33581807Y-30892786D01*
X33634689Y-30893782D01*
X33666043Y-30893444D01*
X33717019Y-30891285D01*
X33768290Y-30886699D01*
X33775766Y-30885782D01*
X33824466Y-30877540D01*
X33872337Y-30864229D01*
X33899918Y-30852294D01*
X33939748Y-30821975D01*
X33952371Y-30804096D01*
X33963684Y-30756030D01*
X33961791Y-30734836D01*
X33939748Y-30690328D01*
X33917076Y-30670905D01*
X33872337Y-30648318D01*
X33866807Y-30646339D01*
X33817898Y-30633043D01*
X33768290Y-30625115D01*
X33737225Y-30622017D01*
X33687709Y-30619028D01*
X33634689Y-30618032D01*
X33603382Y-30618371D01*
X33552703Y-30620529D01*
X33502065Y-30625115D01*
X33494649Y-30626036D01*
X33446317Y-30634458D01*
X33398750Y-30648318D01*
X33371031Y-30660555D01*
X33331095Y-30690328D01*
X33318473Y-30707974D01*
X33307159Y-30756030D01*
X33135212Y-30756030D01*
X33138456Y-30707462D01*
X33149518Y-30657510D01*
X33168429Y-30611194D01*
X33192171Y-30572530D01*
X33225175Y-30534132D01*
X33265394Y-30500063D01*
X33281728Y-30488801D01*
X33326569Y-30463618D01*
X33371821Y-30444584D01*
X33421709Y-30428988D01*
X33427522Y-30427471D01*
X33475981Y-30417064D01*
X33527921Y-30409740D01*
X33583341Y-30405500D01*
X33634689Y-30404320D01*
X33693498Y-30405781D01*
G37*
D11*
G36*
X43592519Y-33226901D02*
G01*
X43710000Y-33226901D01*
X43710000Y-33109420D01*
X43824794Y-33109420D01*
X43824794Y-33226901D01*
X43942519Y-33226901D01*
X43942519Y-33109420D01*
X44060000Y-33109420D01*
X44060000Y-33226901D01*
X44174794Y-33226901D01*
X44174794Y-33109420D01*
X44292519Y-33109420D01*
X44292519Y-33226901D01*
X44410000Y-33226901D01*
X44410000Y-33109420D01*
X44524794Y-33109420D01*
X44524794Y-33226901D01*
X44642519Y-33226901D01*
X44642519Y-33109420D01*
X44760000Y-33109420D01*
X44760000Y-33809420D01*
X44642519Y-33809420D01*
X44642519Y-33691695D01*
X44524794Y-33691695D01*
X44524794Y-33809420D01*
X44410000Y-33809420D01*
X44410000Y-33691695D01*
X44292519Y-33691695D01*
X44292519Y-33809420D01*
X44174794Y-33809420D01*
X44174794Y-33691695D01*
X44060000Y-33691695D01*
X44060000Y-33809420D01*
X43942519Y-33809420D01*
X43942519Y-33691695D01*
X43824794Y-33691695D01*
X43824794Y-33809420D01*
X43710000Y-33809420D01*
X43710000Y-33691695D01*
X43592519Y-33691695D01*
X43592519Y-33809420D01*
X43474794Y-33809420D01*
X43474794Y-33576901D01*
X43592519Y-33576901D01*
X43710000Y-33576901D01*
X43824794Y-33576901D01*
X43942519Y-33576901D01*
X44060000Y-33576901D01*
X44174794Y-33576901D01*
X44292519Y-33576901D01*
X44410000Y-33576901D01*
X44524794Y-33576901D01*
X44642519Y-33576901D01*
X44642519Y-33341695D01*
X44524794Y-33341695D01*
X44524794Y-33576901D01*
X44410000Y-33576901D01*
X44410000Y-33341695D01*
X44292519Y-33341695D01*
X44292519Y-33576901D01*
X44174794Y-33576901D01*
X44174794Y-33341695D01*
X44060000Y-33341695D01*
X44060000Y-33576901D01*
X43942519Y-33576901D01*
X43942519Y-33341695D01*
X43824794Y-33341695D01*
X43824794Y-33576901D01*
X43710000Y-33576901D01*
X43710000Y-33341695D01*
X43592519Y-33341695D01*
X43592519Y-33576901D01*
X43474794Y-33576901D01*
X43474794Y-33109420D01*
X43592519Y-33109420D01*
X43592519Y-33226901D01*
G37*
G36*
X44174794Y-32816817D02*
G01*
X44410000Y-32816817D01*
X44060000Y-32991695D01*
X44060000Y-32876901D01*
X43824794Y-32876901D01*
X44174794Y-32702023D01*
X44174794Y-32816817D01*
G37*
D10*
G36*
X34120000Y-49207983D02*
G01*
X34075184Y-49185496D01*
X34028055Y-49162913D01*
X33978613Y-49140235D01*
X33926857Y-49117461D01*
X33872787Y-49094592D01*
X33816404Y-49071627D01*
X33793203Y-49062415D01*
X33745903Y-49044093D01*
X33697551Y-49026007D01*
X33648145Y-49008158D01*
X33597686Y-48990546D01*
X33546174Y-48973171D01*
X33493608Y-48956032D01*
X33439989Y-48939129D01*
X33385317Y-48922464D01*
X33385317Y-49144725D01*
X33434705Y-49158008D01*
X33483662Y-49171934D01*
X33503286Y-49177697D01*
X33551120Y-49192157D01*
X33599365Y-49206961D01*
X33631758Y-49217020D01*
X33680004Y-49232373D01*
X33727288Y-49247658D01*
X33758276Y-49257809D01*
X33806272Y-49274358D01*
X33853903Y-49291909D01*
X33869895Y-49298109D01*
X33823766Y-49314652D01*
X33777165Y-49330934D01*
X33758276Y-49337432D01*
X33711633Y-49353083D01*
X33664029Y-49368527D01*
X33631758Y-49378709D01*
X33583238Y-49393856D01*
X33535129Y-49408522D01*
X33503286Y-49418032D01*
X33453181Y-49432705D01*
X33406060Y-49445765D01*
X33385317Y-49451249D01*
X33385317Y-49667893D01*
X33439989Y-49651227D01*
X33493608Y-49634325D01*
X33546174Y-49617186D01*
X33597686Y-49599810D01*
X33648145Y-49582198D01*
X33697551Y-49564349D01*
X33745903Y-49546264D01*
X33793203Y-49527942D01*
X33839235Y-49509532D01*
X33894693Y-49486605D01*
X33947837Y-49463774D01*
X33998668Y-49441039D01*
X34047185Y-49418399D01*
X34093388Y-49395854D01*
X34120000Y-49382373D01*
X34120000Y-49207983D01*
G37*
G36*
X33693498Y-49727484D02*
G01*
X33748781Y-49731869D01*
X33800537Y-49739177D01*
X33860274Y-49752423D01*
X33914502Y-49770237D01*
X33963219Y-49792619D01*
X34006427Y-49819568D01*
X34029517Y-49837732D01*
X34068884Y-49877809D01*
X34099166Y-49922883D01*
X34120364Y-49972955D01*
X34132477Y-50028024D01*
X34135631Y-50077732D01*
X34135126Y-50098032D01*
X34127556Y-50155600D01*
X34110900Y-50208170D01*
X34085161Y-50255743D01*
X34050336Y-50298319D01*
X34006427Y-50335897D01*
X33998226Y-50341652D01*
X33953916Y-50367688D01*
X33904097Y-50389155D01*
X33848768Y-50406056D01*
X33800537Y-50416287D01*
X33748781Y-50423595D01*
X33693498Y-50427980D01*
X33634689Y-50429442D01*
X33576227Y-50427980D01*
X33521253Y-50423595D01*
X33469768Y-50416287D01*
X33410316Y-50403041D01*
X33356314Y-50385227D01*
X33307763Y-50362846D01*
X33264661Y-50335897D01*
X33241527Y-50317733D01*
X33202086Y-50277656D01*
X33171746Y-50232582D01*
X33150509Y-50182510D01*
X33138373Y-50127441D01*
X33135212Y-50077732D01*
X33307159Y-50077732D01*
X33309053Y-50098847D01*
X33331095Y-50143678D01*
X33353808Y-50163612D01*
X33398750Y-50185932D01*
X33404249Y-50187823D01*
X33452838Y-50200615D01*
X33502065Y-50208402D01*
X33532702Y-50211501D01*
X33581807Y-50214489D01*
X33634689Y-50215485D01*
X33666043Y-50215146D01*
X33717019Y-50212988D01*
X33768290Y-50208402D01*
X33775766Y-50207484D01*
X33824466Y-50199243D01*
X33872337Y-50185932D01*
X33899918Y-50173997D01*
X33939748Y-50143678D01*
X33952371Y-50125798D01*
X33963684Y-50077732D01*
X33961791Y-50056538D01*
X33939748Y-50012031D01*
X33917076Y-49992608D01*
X33872337Y-49970021D01*
X33866807Y-49968041D01*
X33817898Y-49954745D01*
X33768290Y-49946818D01*
X33737225Y-49943719D01*
X33687709Y-49940731D01*
X33634689Y-49939735D01*
X33603382Y-49940074D01*
X33552703Y-49942232D01*
X33502065Y-49946818D01*
X33494649Y-49947739D01*
X33446317Y-49956160D01*
X33398750Y-49970021D01*
X33371031Y-49982258D01*
X33331095Y-50012031D01*
X33318473Y-50029677D01*
X33307159Y-50077732D01*
X33135212Y-50077732D01*
X33138456Y-50029165D01*
X33149518Y-49979212D01*
X33168429Y-49932896D01*
X33192171Y-49894232D01*
X33225175Y-49855835D01*
X33265394Y-49821766D01*
X33281728Y-49810504D01*
X33326569Y-49785321D01*
X33371821Y-49766287D01*
X33421709Y-49750691D01*
X33427522Y-49749173D01*
X33475981Y-49738766D01*
X33527921Y-49731443D01*
X33583341Y-49727203D01*
X33634689Y-49726023D01*
X33693498Y-49727484D01*
G37*
G36*
X34002763Y-50777244D02*
G01*
X34053673Y-50769577D01*
X34097316Y-50742038D01*
X34101681Y-50737188D01*
X34127144Y-50694507D01*
X34135631Y-50646574D01*
X34127144Y-50598458D01*
X34101681Y-50555716D01*
X34059977Y-50525674D01*
X34010763Y-50515816D01*
X34002763Y-50515660D01*
X33951853Y-50523327D01*
X33908209Y-50550865D01*
X33903845Y-50555716D01*
X33878382Y-50598458D01*
X33869895Y-50646574D01*
X33879476Y-50697328D01*
X33903845Y-50737188D01*
X33945549Y-50767230D01*
X33994763Y-50777087D01*
X34002763Y-50777244D01*
G37*
G36*
X33693498Y-50866633D02*
G01*
X33748781Y-50871018D01*
X33800537Y-50878326D01*
X33860274Y-50891572D01*
X33914502Y-50909386D01*
X33963219Y-50931767D01*
X34006427Y-50958716D01*
X34029517Y-50976881D01*
X34068884Y-51016957D01*
X34099166Y-51062032D01*
X34120364Y-51112103D01*
X34132477Y-51167172D01*
X34135631Y-51216881D01*
X34135126Y-51237181D01*
X34127556Y-51294749D01*
X34110900Y-51347319D01*
X34085161Y-51394892D01*
X34050336Y-51437467D01*
X34006427Y-51475046D01*
X33998226Y-51480801D01*
X33953916Y-51506836D01*
X33904097Y-51528304D01*
X33848768Y-51545204D01*
X33800537Y-51555436D01*
X33748781Y-51562744D01*
X33693498Y-51567129D01*
X33634689Y-51568591D01*
X33576227Y-51567129D01*
X33521253Y-51562744D01*
X33469768Y-51555436D01*
X33410316Y-51542190D01*
X33356314Y-51524376D01*
X33307763Y-51501995D01*
X33264661Y-51475046D01*
X33241527Y-51456881D01*
X33202086Y-51416804D01*
X33171746Y-51371730D01*
X33150509Y-51321658D01*
X33138373Y-51266589D01*
X33135212Y-51216881D01*
X33307159Y-51216881D01*
X33309053Y-51237995D01*
X33331095Y-51282826D01*
X33353808Y-51302761D01*
X33398750Y-51325080D01*
X33404249Y-51326971D01*
X33452838Y-51339764D01*
X33502065Y-51347551D01*
X33532702Y-51350650D01*
X33581807Y-51353638D01*
X33634689Y-51354634D01*
X33666043Y-51354295D01*
X33717019Y-51352137D01*
X33768290Y-51347551D01*
X33775766Y-51346633D01*
X33824466Y-51338392D01*
X33872337Y-51325080D01*
X33899918Y-51313145D01*
X33939748Y-51282826D01*
X33952371Y-51264947D01*
X33963684Y-51216881D01*
X33961791Y-51195687D01*
X33939748Y-51151180D01*
X33917076Y-51131757D01*
X33872337Y-51109170D01*
X33866807Y-51107190D01*
X33817898Y-51093894D01*
X33768290Y-51085967D01*
X33737225Y-51082868D01*
X33687709Y-51079880D01*
X33634689Y-51078884D01*
X33603382Y-51079223D01*
X33552703Y-51081381D01*
X33502065Y-51085967D01*
X33494649Y-51086887D01*
X33446317Y-51095309D01*
X33398750Y-51109170D01*
X33371031Y-51121407D01*
X33331095Y-51151180D01*
X33318473Y-51168825D01*
X33307159Y-51216881D01*
X33135212Y-51216881D01*
X33138456Y-51168314D01*
X33149518Y-51118361D01*
X33168429Y-51072045D01*
X33192171Y-51033381D01*
X33225175Y-50994983D01*
X33265394Y-50960914D01*
X33281728Y-50949653D01*
X33326569Y-50924470D01*
X33371821Y-50905435D01*
X33421709Y-50889840D01*
X33427522Y-50888322D01*
X33475981Y-50877915D01*
X33527921Y-50870592D01*
X33583341Y-50866352D01*
X33634689Y-50865171D01*
X33693498Y-50866633D01*
G37*
G36*
X34002763Y-51916392D02*
G01*
X34053673Y-51908725D01*
X34097316Y-51881187D01*
X34101681Y-51876337D01*
X34127144Y-51833655D01*
X34135631Y-51785722D01*
X34127144Y-51737607D01*
X34101681Y-51694864D01*
X34059977Y-51664822D01*
X34010763Y-51654965D01*
X34002763Y-51654808D01*
X33951853Y-51662475D01*
X33908209Y-51690014D01*
X33903845Y-51694864D01*
X33878382Y-51737607D01*
X33869895Y-51785722D01*
X33879476Y-51836477D01*
X33903845Y-51876337D01*
X33945549Y-51906378D01*
X33994763Y-51916236D01*
X34002763Y-51916392D01*
G37*
G36*
X33693498Y-52005781D02*
G01*
X33748781Y-52010166D01*
X33800537Y-52017475D01*
X33860274Y-52030721D01*
X33914502Y-52048534D01*
X33963219Y-52070916D01*
X34006427Y-52097865D01*
X34029517Y-52116029D01*
X34068884Y-52156106D01*
X34099166Y-52201180D01*
X34120364Y-52251252D01*
X34132477Y-52306321D01*
X34135631Y-52356030D01*
X34135126Y-52376329D01*
X34127556Y-52433897D01*
X34110900Y-52486468D01*
X34085161Y-52534041D01*
X34050336Y-52576616D01*
X34006427Y-52614194D01*
X33998226Y-52619949D01*
X33953916Y-52645985D01*
X33904097Y-52667453D01*
X33848768Y-52684353D01*
X33800537Y-52694584D01*
X33748781Y-52701893D01*
X33693498Y-52706278D01*
X33634689Y-52707739D01*
X33576227Y-52706278D01*
X33521253Y-52701893D01*
X33469768Y-52694584D01*
X33410316Y-52681338D01*
X33356314Y-52663525D01*
X33307763Y-52641143D01*
X33264661Y-52614194D01*
X33241527Y-52596030D01*
X33202086Y-52555953D01*
X33171746Y-52510879D01*
X33150509Y-52460807D01*
X33138373Y-52405738D01*
X33135212Y-52356030D01*
X33307159Y-52356030D01*
X33309053Y-52377144D01*
X33331095Y-52421975D01*
X33353808Y-52441910D01*
X33398750Y-52464229D01*
X33404249Y-52466120D01*
X33452838Y-52478912D01*
X33502065Y-52486699D01*
X33532702Y-52489798D01*
X33581807Y-52492786D01*
X33634689Y-52493782D01*
X33666043Y-52493444D01*
X33717019Y-52491285D01*
X33768290Y-52486699D01*
X33775766Y-52485782D01*
X33824466Y-52477540D01*
X33872337Y-52464229D01*
X33899918Y-52452294D01*
X33939748Y-52421975D01*
X33952371Y-52404096D01*
X33963684Y-52356030D01*
X33961791Y-52334836D01*
X33939748Y-52290328D01*
X33917076Y-52270905D01*
X33872337Y-52248318D01*
X33866807Y-52246339D01*
X33817898Y-52233043D01*
X33768290Y-52225115D01*
X33737225Y-52222017D01*
X33687709Y-52219028D01*
X33634689Y-52218032D01*
X33603382Y-52218371D01*
X33552703Y-52220529D01*
X33502065Y-52225115D01*
X33494649Y-52226036D01*
X33446317Y-52234458D01*
X33398750Y-52248318D01*
X33371031Y-52260555D01*
X33331095Y-52290328D01*
X33318473Y-52307974D01*
X33307159Y-52356030D01*
X33135212Y-52356030D01*
X33138456Y-52307462D01*
X33149518Y-52257510D01*
X33168429Y-52211194D01*
X33192171Y-52172530D01*
X33225175Y-52134132D01*
X33265394Y-52100063D01*
X33281728Y-52088801D01*
X33326569Y-52063618D01*
X33371821Y-52044584D01*
X33421709Y-52028988D01*
X33427522Y-52027471D01*
X33475981Y-52017064D01*
X33527921Y-52009740D01*
X33583341Y-52005500D01*
X33634689Y-52004320D01*
X33693498Y-52005781D01*
G37*
G36*
X37805631Y-21803803D02*
G01*
X37803601Y-21746101D01*
X37797510Y-21691940D01*
X37787359Y-21641321D01*
X37773147Y-21594243D01*
X37749672Y-21540376D01*
X37719852Y-21492043D01*
X37683688Y-21449243D01*
X37675694Y-21441347D01*
X37632347Y-21405532D01*
X37583669Y-21375788D01*
X37529660Y-21352114D01*
X37482614Y-21337545D01*
X37432157Y-21326861D01*
X37378288Y-21320063D01*
X37321008Y-21317149D01*
X37306154Y-21317027D01*
X37255343Y-21318839D01*
X37200277Y-21325346D01*
X37148418Y-21336585D01*
X37099764Y-21352556D01*
X37093907Y-21354885D01*
X37048967Y-21375692D01*
X37002788Y-21403295D01*
X36961245Y-21435343D01*
X36936127Y-21459177D01*
X36902329Y-21498399D01*
X36873478Y-21541600D01*
X36849573Y-21588782D01*
X36838429Y-21616713D01*
X36823897Y-21663364D01*
X36813517Y-21711968D01*
X36807288Y-21762526D01*
X36805212Y-21815039D01*
X36806989Y-21867124D01*
X36812835Y-21918054D01*
X36814494Y-21927635D01*
X36824923Y-21977837D01*
X36835498Y-22016295D01*
X36852301Y-22062566D01*
X36860167Y-22079554D01*
X36879706Y-22116190D01*
X37050432Y-22052687D01*
X37029549Y-22007281D01*
X37012866Y-21958996D01*
X37009644Y-21947907D01*
X36998732Y-21896627D01*
X36993597Y-21844569D01*
X36992791Y-21812108D01*
X36997004Y-21762038D01*
X37009644Y-21712945D01*
X37031381Y-21667333D01*
X37063377Y-21627216D01*
X37102958Y-21595456D01*
X37148519Y-21571720D01*
X37159364Y-21567376D01*
X37206900Y-21553683D01*
X37256751Y-21546683D01*
X37302002Y-21544906D01*
X37351107Y-21546967D01*
X37401435Y-21553850D01*
X37427299Y-21559561D01*
X37474910Y-21576057D01*
X37519178Y-21601409D01*
X37527194Y-21607432D01*
X37562714Y-21643027D01*
X37588894Y-21684287D01*
X37593628Y-21694138D01*
X37609442Y-21741307D01*
X37616884Y-21791430D01*
X37618053Y-21823587D01*
X37616275Y-21874274D01*
X37612435Y-21909316D01*
X37603672Y-21957666D01*
X37599002Y-21976972D01*
X37583231Y-22024720D01*
X37581416Y-22028995D01*
X37563098Y-22069784D01*
X37732358Y-22130112D01*
X37754293Y-22086119D01*
X37771468Y-22039070D01*
X37783161Y-21999198D01*
X37794023Y-21949674D01*
X37801330Y-21895900D01*
X37804841Y-21844533D01*
X37805631Y-21803803D01*
G37*
G36*
X35530844Y-21601800D02*
G01*
X35530844Y-21821131D01*
X36500000Y-21821131D01*
X36500000Y-21601800D01*
X35530844Y-21601800D01*
G37*
G36*
X35530844Y-32401800D02*
G01*
X35530844Y-32621131D01*
X36500000Y-32621131D01*
X36500000Y-32401800D01*
X35530844Y-32401800D01*
G37*
G36*
X34120000Y-38407983D02*
G01*
X34075184Y-38385496D01*
X34028055Y-38362913D01*
X33978613Y-38340235D01*
X33926857Y-38317461D01*
X33872787Y-38294592D01*
X33816404Y-38271627D01*
X33793203Y-38262415D01*
X33745903Y-38244093D01*
X33697551Y-38226007D01*
X33648145Y-38208158D01*
X33597686Y-38190546D01*
X33546174Y-38173171D01*
X33493608Y-38156032D01*
X33439989Y-38139129D01*
X33385317Y-38122464D01*
X33385317Y-38344725D01*
X33434705Y-38358008D01*
X33483662Y-38371934D01*
X33503286Y-38377697D01*
X33551120Y-38392157D01*
X33599365Y-38406961D01*
X33631758Y-38417020D01*
X33680004Y-38432373D01*
X33727288Y-38447658D01*
X33758276Y-38457809D01*
X33806272Y-38474358D01*
X33853903Y-38491909D01*
X33869895Y-38498109D01*
X33823766Y-38514652D01*
X33777165Y-38530934D01*
X33758276Y-38537432D01*
X33711633Y-38553083D01*
X33664029Y-38568527D01*
X33631758Y-38578709D01*
X33583238Y-38593856D01*
X33535129Y-38608522D01*
X33503286Y-38618032D01*
X33453181Y-38632705D01*
X33406060Y-38645765D01*
X33385317Y-38651249D01*
X33385317Y-38867893D01*
X33439989Y-38851227D01*
X33493608Y-38834325D01*
X33546174Y-38817186D01*
X33597686Y-38799810D01*
X33648145Y-38782198D01*
X33697551Y-38764349D01*
X33745903Y-38746264D01*
X33793203Y-38727942D01*
X33839235Y-38709532D01*
X33894693Y-38686605D01*
X33947837Y-38663774D01*
X33998668Y-38641039D01*
X34047185Y-38618399D01*
X34093388Y-38595854D01*
X34120000Y-38582373D01*
X34120000Y-38407983D01*
G37*
G36*
X33693498Y-38927484D02*
G01*
X33748781Y-38931869D01*
X33800537Y-38939177D01*
X33860274Y-38952423D01*
X33914502Y-38970237D01*
X33963219Y-38992619D01*
X34006427Y-39019568D01*
X34029517Y-39037732D01*
X34068884Y-39077809D01*
X34099166Y-39122883D01*
X34120364Y-39172955D01*
X34132477Y-39228024D01*
X34135631Y-39277732D01*
X34135126Y-39298032D01*
X34127556Y-39355600D01*
X34110900Y-39408170D01*
X34085161Y-39455743D01*
X34050336Y-39498319D01*
X34006427Y-39535897D01*
X33998226Y-39541652D01*
X33953916Y-39567688D01*
X33904097Y-39589155D01*
X33848768Y-39606056D01*
X33800537Y-39616287D01*
X33748781Y-39623595D01*
X33693498Y-39627980D01*
X33634689Y-39629442D01*
X33576227Y-39627980D01*
X33521253Y-39623595D01*
X33469768Y-39616287D01*
X33410316Y-39603041D01*
X33356314Y-39585227D01*
X33307763Y-39562846D01*
X33264661Y-39535897D01*
X33241527Y-39517733D01*
X33202086Y-39477656D01*
X33171746Y-39432582D01*
X33150509Y-39382510D01*
X33138373Y-39327441D01*
X33135212Y-39277732D01*
X33307159Y-39277732D01*
X33309053Y-39298847D01*
X33331095Y-39343678D01*
X33353808Y-39363612D01*
X33398750Y-39385932D01*
X33404249Y-39387823D01*
X33452838Y-39400615D01*
X33502065Y-39408402D01*
X33532702Y-39411501D01*
X33581807Y-39414489D01*
X33634689Y-39415485D01*
X33666043Y-39415146D01*
X33717019Y-39412988D01*
X33768290Y-39408402D01*
X33775766Y-39407484D01*
X33824466Y-39399243D01*
X33872337Y-39385932D01*
X33899918Y-39373997D01*
X33939748Y-39343678D01*
X33952371Y-39325798D01*
X33963684Y-39277732D01*
X33961791Y-39256538D01*
X33939748Y-39212031D01*
X33917076Y-39192608D01*
X33872337Y-39170021D01*
X33866807Y-39168041D01*
X33817898Y-39154745D01*
X33768290Y-39146818D01*
X33737225Y-39143719D01*
X33687709Y-39140731D01*
X33634689Y-39139735D01*
X33603382Y-39140074D01*
X33552703Y-39142232D01*
X33502065Y-39146818D01*
X33494649Y-39147739D01*
X33446317Y-39156160D01*
X33398750Y-39170021D01*
X33371031Y-39182258D01*
X33331095Y-39212031D01*
X33318473Y-39229677D01*
X33307159Y-39277732D01*
X33135212Y-39277732D01*
X33138456Y-39229165D01*
X33149518Y-39179212D01*
X33168429Y-39132896D01*
X33192171Y-39094232D01*
X33225175Y-39055835D01*
X33265394Y-39021766D01*
X33281728Y-39010504D01*
X33326569Y-38985321D01*
X33371821Y-38966287D01*
X33421709Y-38950691D01*
X33427522Y-38949173D01*
X33475981Y-38938766D01*
X33527921Y-38931443D01*
X33583341Y-38927203D01*
X33634689Y-38926023D01*
X33693498Y-38927484D01*
G37*
G36*
X34002763Y-39977244D02*
G01*
X34053673Y-39969577D01*
X34097316Y-39942038D01*
X34101681Y-39937188D01*
X34127144Y-39894507D01*
X34135631Y-39846574D01*
X34127144Y-39798458D01*
X34101681Y-39755716D01*
X34059977Y-39725674D01*
X34010763Y-39715816D01*
X34002763Y-39715660D01*
X33951853Y-39723327D01*
X33908209Y-39750865D01*
X33903845Y-39755716D01*
X33878382Y-39798458D01*
X33869895Y-39846574D01*
X33879476Y-39897328D01*
X33903845Y-39937188D01*
X33945549Y-39967230D01*
X33994763Y-39977087D01*
X34002763Y-39977244D01*
G37*
G36*
X33693498Y-40066633D02*
G01*
X33748781Y-40071018D01*
X33800537Y-40078326D01*
X33860274Y-40091572D01*
X33914502Y-40109386D01*
X33963219Y-40131767D01*
X34006427Y-40158716D01*
X34029517Y-40176881D01*
X34068884Y-40216957D01*
X34099166Y-40262032D01*
X34120364Y-40312103D01*
X34132477Y-40367172D01*
X34135631Y-40416881D01*
X34135126Y-40437181D01*
X34127556Y-40494749D01*
X34110900Y-40547319D01*
X34085161Y-40594892D01*
X34050336Y-40637467D01*
X34006427Y-40675046D01*
X33998226Y-40680801D01*
X33953916Y-40706836D01*
X33904097Y-40728304D01*
X33848768Y-40745204D01*
X33800537Y-40755436D01*
X33748781Y-40762744D01*
X33693498Y-40767129D01*
X33634689Y-40768591D01*
X33576227Y-40767129D01*
X33521253Y-40762744D01*
X33469768Y-40755436D01*
X33410316Y-40742190D01*
X33356314Y-40724376D01*
X33307763Y-40701995D01*
X33264661Y-40675046D01*
X33241527Y-40656881D01*
X33202086Y-40616804D01*
X33171746Y-40571730D01*
X33150509Y-40521658D01*
X33138373Y-40466589D01*
X33135212Y-40416881D01*
X33307159Y-40416881D01*
X33309053Y-40437995D01*
X33331095Y-40482826D01*
X33353808Y-40502761D01*
X33398750Y-40525080D01*
X33404249Y-40526971D01*
X33452838Y-40539764D01*
X33502065Y-40547551D01*
X33532702Y-40550650D01*
X33581807Y-40553638D01*
X33634689Y-40554634D01*
X33666043Y-40554295D01*
X33717019Y-40552137D01*
X33768290Y-40547551D01*
X33775766Y-40546633D01*
X33824466Y-40538392D01*
X33872337Y-40525080D01*
X33899918Y-40513145D01*
X33939748Y-40482826D01*
X33952371Y-40464947D01*
X33963684Y-40416881D01*
X33961791Y-40395687D01*
X33939748Y-40351180D01*
X33917076Y-40331757D01*
X33872337Y-40309170D01*
X33866807Y-40307190D01*
X33817898Y-40293894D01*
X33768290Y-40285967D01*
X33737225Y-40282868D01*
X33687709Y-40279880D01*
X33634689Y-40278884D01*
X33603382Y-40279223D01*
X33552703Y-40281381D01*
X33502065Y-40285967D01*
X33494649Y-40286887D01*
X33446317Y-40295309D01*
X33398750Y-40309170D01*
X33371031Y-40321407D01*
X33331095Y-40351180D01*
X33318473Y-40368825D01*
X33307159Y-40416881D01*
X33135212Y-40416881D01*
X33138456Y-40368314D01*
X33149518Y-40318361D01*
X33168429Y-40272045D01*
X33192171Y-40233381D01*
X33225175Y-40194983D01*
X33265394Y-40160914D01*
X33281728Y-40149653D01*
X33326569Y-40124470D01*
X33371821Y-40105435D01*
X33421709Y-40089840D01*
X33427522Y-40088322D01*
X33475981Y-40077915D01*
X33527921Y-40070592D01*
X33583341Y-40066352D01*
X33634689Y-40065171D01*
X33693498Y-40066633D01*
G37*
G36*
X34002763Y-41116392D02*
G01*
X34053673Y-41108725D01*
X34097316Y-41081187D01*
X34101681Y-41076337D01*
X34127144Y-41033655D01*
X34135631Y-40985722D01*
X34127144Y-40937607D01*
X34101681Y-40894864D01*
X34059977Y-40864822D01*
X34010763Y-40854965D01*
X34002763Y-40854808D01*
X33951853Y-40862475D01*
X33908209Y-40890014D01*
X33903845Y-40894864D01*
X33878382Y-40937607D01*
X33869895Y-40985722D01*
X33879476Y-41036477D01*
X33903845Y-41076337D01*
X33945549Y-41106378D01*
X33994763Y-41116236D01*
X34002763Y-41116392D01*
G37*
G36*
X33693498Y-41205781D02*
G01*
X33748781Y-41210166D01*
X33800537Y-41217475D01*
X33860274Y-41230721D01*
X33914502Y-41248534D01*
X33963219Y-41270916D01*
X34006427Y-41297865D01*
X34029517Y-41316029D01*
X34068884Y-41356106D01*
X34099166Y-41401180D01*
X34120364Y-41451252D01*
X34132477Y-41506321D01*
X34135631Y-41556030D01*
X34135126Y-41576329D01*
X34127556Y-41633897D01*
X34110900Y-41686468D01*
X34085161Y-41734041D01*
X34050336Y-41776616D01*
X34006427Y-41814194D01*
X33998226Y-41819949D01*
X33953916Y-41845985D01*
X33904097Y-41867453D01*
X33848768Y-41884353D01*
X33800537Y-41894584D01*
X33748781Y-41901893D01*
X33693498Y-41906278D01*
X33634689Y-41907739D01*
X33576227Y-41906278D01*
X33521253Y-41901893D01*
X33469768Y-41894584D01*
X33410316Y-41881338D01*
X33356314Y-41863525D01*
X33307763Y-41841143D01*
X33264661Y-41814194D01*
X33241527Y-41796030D01*
X33202086Y-41755953D01*
X33171746Y-41710879D01*
X33150509Y-41660807D01*
X33138373Y-41605738D01*
X33135212Y-41556030D01*
X33307159Y-41556030D01*
X33309053Y-41577144D01*
X33331095Y-41621975D01*
X33353808Y-41641910D01*
X33398750Y-41664229D01*
X33404249Y-41666120D01*
X33452838Y-41678912D01*
X33502065Y-41686699D01*
X33532702Y-41689798D01*
X33581807Y-41692786D01*
X33634689Y-41693782D01*
X33666043Y-41693444D01*
X33717019Y-41691285D01*
X33768290Y-41686699D01*
X33775766Y-41685782D01*
X33824466Y-41677540D01*
X33872337Y-41664229D01*
X33899918Y-41652294D01*
X33939748Y-41621975D01*
X33952371Y-41604096D01*
X33963684Y-41556030D01*
X33961791Y-41534836D01*
X33939748Y-41490328D01*
X33917076Y-41470905D01*
X33872337Y-41448318D01*
X33866807Y-41446339D01*
X33817898Y-41433043D01*
X33768290Y-41425115D01*
X33737225Y-41422017D01*
X33687709Y-41419028D01*
X33634689Y-41418032D01*
X33603382Y-41418371D01*
X33552703Y-41420529D01*
X33502065Y-41425115D01*
X33494649Y-41426036D01*
X33446317Y-41434458D01*
X33398750Y-41448318D01*
X33371031Y-41460555D01*
X33331095Y-41490328D01*
X33318473Y-41507974D01*
X33307159Y-41556030D01*
X33135212Y-41556030D01*
X33138456Y-41507462D01*
X33149518Y-41457510D01*
X33168429Y-41411194D01*
X33192171Y-41372530D01*
X33225175Y-41334132D01*
X33265394Y-41300063D01*
X33281728Y-41288801D01*
X33326569Y-41263618D01*
X33371821Y-41244584D01*
X33421709Y-41228988D01*
X33427522Y-41227471D01*
X33475981Y-41217064D01*
X33527921Y-41209740D01*
X33583341Y-41205500D01*
X33634689Y-41204320D01*
X33693498Y-41205781D01*
G37*
G36*
X35530844Y-54001800D02*
G01*
X35530844Y-54221131D01*
X36500000Y-54221131D01*
X36500000Y-54001800D01*
X35530844Y-54001800D01*
G37*
D12*
G04 #@! TO.C,Y1*
X44570000Y-18760000D02*
X41770000Y-18760000D01*
X44570000Y-22060000D02*
X44570000Y-18760000D01*
D13*
G04 #@! TO.C,D5*
X31200000Y-52170000D02*
X31200000Y-52970000D01*
G04 #@! TO.C,D6*
X31100000Y-20570000D02*
X31100000Y-19770000D01*
D12*
G04 #@! TO.C,U3*
X34330000Y-26800000D02*
X40320000Y-26800000D01*
X34330000Y-32020000D02*
X40330000Y-32020000D01*
X40910000Y-26710000D02*
X40430000Y-26710000D01*
X40430000Y-26230000D01*
X40910000Y-26710000D01*
G36*
X40910000Y-26710000D02*
G01*
X40430000Y-26710000D01*
X40430000Y-26230000D01*
X40910000Y-26710000D01*
G37*
G04 #@! TO.C,Q4*
X29260000Y-36380000D02*
X28670000Y-36380000D01*
X29470000Y-37800000D02*
X28670000Y-37800000D01*
X29850000Y-36380000D02*
X29570000Y-36380000D01*
X29570000Y-36100000D01*
X29850000Y-36380000D01*
G36*
X29850000Y-36380000D02*
G01*
X29570000Y-36380000D01*
X29570000Y-36100000D01*
X29850000Y-36380000D01*
G37*
D13*
G04 #@! TO.C,U1*
X44450000Y-36175000D02*
X42650000Y-36175000D01*
X44450000Y-37975000D02*
X42650000Y-37975000D01*
X44825000Y-36475000D02*
G75*
G02*
X44675000Y-36475000I-75000J0D01*
G01*
X44675000Y-36475000D02*
G75*
G02*
X44825000Y-36475000I75000J0D01*
G01*
D12*
G04 #@! TO.C,Q3*
X29280000Y-27470000D02*
X28690000Y-27470000D01*
X29490000Y-28890000D02*
X28690000Y-28890000D01*
X29870000Y-27470000D02*
X29590000Y-27470000D01*
X29590000Y-27190000D01*
X29870000Y-27470000D01*
G36*
X29870000Y-27470000D02*
G01*
X29590000Y-27470000D01*
X29590000Y-27190000D01*
X29870000Y-27470000D01*
G37*
D14*
G04 #@! TO.C,Q2*
X28850000Y-51730000D02*
X29450000Y-51730000D01*
X29450000Y-52870000D02*
X28850000Y-52870000D01*
X29660000Y-51750000D02*
G75*
G02*
X29580000Y-51750000I-40000J0D01*
G01*
X29580000Y-51750000D02*
G75*
G02*
X29660000Y-51750000I40000J0D01*
G01*
D13*
G04 #@! TO.C,U6*
X30740000Y-50650000D02*
X30740000Y-48650000D01*
X32940000Y-50650000D02*
X32940000Y-48650000D01*
X32720000Y-51070000D02*
G75*
G02*
X32580000Y-51070000I-70000J0D01*
G01*
X32580000Y-51070000D02*
G75*
G02*
X32720000Y-51070000I70000J0D01*
G01*
D12*
G04 #@! TO.C,Q4*
X29260000Y-14780000D02*
X28670000Y-14780000D01*
X29470000Y-16200000D02*
X28670000Y-16200000D01*
X29850000Y-14780000D02*
X29570000Y-14780000D01*
X29570000Y-14500000D01*
X29850000Y-14780000D01*
G36*
X29850000Y-14780000D02*
G01*
X29570000Y-14780000D01*
X29570000Y-14500000D01*
X29850000Y-14780000D01*
G37*
D14*
G04 #@! TO.C,Q7*
X31440000Y-53560000D02*
X32040000Y-53560000D01*
X32040000Y-54700000D02*
X31440000Y-54700000D01*
X32250000Y-53580000D02*
G75*
G02*
X32170000Y-53580000I-40000J0D01*
G01*
X32170000Y-53580000D02*
G75*
G02*
X32250000Y-53580000I40000J0D01*
G01*
X31440000Y-31960000D02*
X32040000Y-31960000D01*
X32040000Y-33100000D02*
X31440000Y-33100000D01*
X32250000Y-31980000D02*
G75*
G02*
X32170000Y-31980000I-40000J0D01*
G01*
X32170000Y-31980000D02*
G75*
G02*
X32250000Y-31980000I40000J0D01*
G01*
G04 #@! TO.C,Q1*
X39519896Y-14730000D02*
X40119896Y-14730000D01*
X40119896Y-15870000D02*
X39519896Y-15870000D01*
X40329896Y-14750000D02*
G75*
G02*
X40249896Y-14750000I-40000J0D01*
G01*
X40249896Y-14750000D02*
G75*
G02*
X40329896Y-14750000I40000J0D01*
G01*
D13*
G04 #@! TO.C,D6*
X31100000Y-42170000D02*
X31100000Y-41370000D01*
G04 #@! TO.C,U6*
X30740000Y-29050000D02*
X30740000Y-27050000D01*
X32940000Y-29050000D02*
X32940000Y-27050000D01*
X32720000Y-29470000D02*
G75*
G02*
X32580000Y-29470000I-70000J0D01*
G01*
X32580000Y-29470000D02*
G75*
G02*
X32720000Y-29470000I70000J0D01*
G01*
D14*
G04 #@! TO.C,Q8*
X32740000Y-42760000D02*
X33340000Y-42760000D01*
X33340000Y-43900000D02*
X32740000Y-43900000D01*
X33550000Y-42780000D02*
G75*
G02*
X33470000Y-42780000I-40000J0D01*
G01*
X33470000Y-42780000D02*
G75*
G02*
X33550000Y-42780000I40000J0D01*
G01*
G04 #@! TO.C,Q6*
X28840000Y-42760000D02*
X29440000Y-42760000D01*
X29440000Y-43900000D02*
X28840000Y-43900000D01*
X29650000Y-42780000D02*
G75*
G02*
X29570000Y-42780000I-40000J0D01*
G01*
X29570000Y-42780000D02*
G75*
G02*
X29650000Y-42780000I40000J0D01*
G01*
D13*
G04 #@! TO.C,D6*
X31100000Y-31370000D02*
X31100000Y-30570000D01*
D12*
G04 #@! TO.C,Q3*
X29280000Y-16670000D02*
X28690000Y-16670000D01*
X29490000Y-18090000D02*
X28690000Y-18090000D01*
X29870000Y-16670000D02*
X29590000Y-16670000D01*
X29590000Y-16390000D01*
X29870000Y-16670000D01*
G36*
X29870000Y-16670000D02*
G01*
X29590000Y-16670000D01*
X29590000Y-16390000D01*
X29870000Y-16670000D01*
G37*
D13*
G04 #@! TO.C,D6*
X31100000Y-52970000D02*
X31100000Y-52170000D01*
D14*
G04 #@! TO.C,Q6*
X28840000Y-21160000D02*
X29440000Y-21160000D01*
X29440000Y-22300000D02*
X28840000Y-22300000D01*
X29650000Y-21180000D02*
G75*
G02*
X29570000Y-21180000I-40000J0D01*
G01*
X29570000Y-21180000D02*
G75*
G02*
X29650000Y-21180000I40000J0D01*
G01*
D13*
G04 #@! TO.C,D5*
X31200000Y-41370000D02*
X31200000Y-42170000D01*
D14*
G04 #@! TO.C,Q6*
X28840000Y-53560000D02*
X29440000Y-53560000D01*
X29440000Y-54700000D02*
X28840000Y-54700000D01*
X29650000Y-53580000D02*
G75*
G02*
X29570000Y-53580000I-40000J0D01*
G01*
X29570000Y-53580000D02*
G75*
G02*
X29650000Y-53580000I40000J0D01*
G01*
D12*
G04 #@! TO.C,C2*
X39949420Y-43290000D02*
X40230580Y-43290000D01*
X39949420Y-44310000D02*
X40230580Y-44310000D01*
D14*
G04 #@! TO.C,Q7*
X31440000Y-21160000D02*
X32040000Y-21160000D01*
X32040000Y-22300000D02*
X31440000Y-22300000D01*
X32250000Y-21180000D02*
G75*
G02*
X32170000Y-21180000I-40000J0D01*
G01*
X32170000Y-21180000D02*
G75*
G02*
X32250000Y-21180000I40000J0D01*
G01*
D13*
G04 #@! TO.C,U1*
X44450000Y-46975000D02*
X42650000Y-46975000D01*
X44450000Y-48775000D02*
X42650000Y-48775000D01*
X44825000Y-47275000D02*
G75*
G02*
X44675000Y-47275000I-75000J0D01*
G01*
X44675000Y-47275000D02*
G75*
G02*
X44825000Y-47275000I75000J0D01*
G01*
D14*
G04 #@! TO.C,Q5*
X30140000Y-21160000D02*
X30740000Y-21160000D01*
X30740000Y-22300000D02*
X30140000Y-22300000D01*
X30950000Y-21180000D02*
G75*
G02*
X30870000Y-21180000I-40000J0D01*
G01*
X30870000Y-21180000D02*
G75*
G02*
X30950000Y-21180000I40000J0D01*
G01*
D12*
G04 #@! TO.C,Q3*
X29280000Y-49070000D02*
X28690000Y-49070000D01*
X29490000Y-50490000D02*
X28690000Y-50490000D01*
X29870000Y-49070000D02*
X29590000Y-49070000D01*
X29590000Y-48790000D01*
X29870000Y-49070000D01*
G36*
X29870000Y-49070000D02*
G01*
X29590000Y-49070000D01*
X29590000Y-48790000D01*
X29870000Y-49070000D01*
G37*
X29280000Y-38270000D02*
X28690000Y-38270000D01*
X29490000Y-39690000D02*
X28690000Y-39690000D01*
X29870000Y-38270000D02*
X29590000Y-38270000D01*
X29590000Y-37990000D01*
X29870000Y-38270000D01*
G36*
X29870000Y-38270000D02*
G01*
X29590000Y-38270000D01*
X29590000Y-37990000D01*
X29870000Y-38270000D01*
G37*
D13*
G04 #@! TO.C,U6*
X30740000Y-18250000D02*
X30740000Y-16250000D01*
X32940000Y-18250000D02*
X32940000Y-16250000D01*
X32720000Y-18670000D02*
G75*
G02*
X32580000Y-18670000I-70000J0D01*
G01*
X32580000Y-18670000D02*
G75*
G02*
X32720000Y-18670000I70000J0D01*
G01*
D14*
G04 #@! TO.C,Q8*
X32740000Y-31960000D02*
X33340000Y-31960000D01*
X33340000Y-33100000D02*
X32740000Y-33100000D01*
X33550000Y-31980000D02*
G75*
G02*
X33470000Y-31980000I-40000J0D01*
G01*
X33470000Y-31980000D02*
G75*
G02*
X33550000Y-31980000I40000J0D01*
G01*
G04 #@! TO.C,Q1*
X39519896Y-47130000D02*
X40119896Y-47130000D01*
X40119896Y-48270000D02*
X39519896Y-48270000D01*
X40329896Y-47150000D02*
G75*
G02*
X40249896Y-47150000I-40000J0D01*
G01*
X40249896Y-47150000D02*
G75*
G02*
X40329896Y-47150000I40000J0D01*
G01*
G04 #@! TO.C,Q5*
X30140000Y-31960000D02*
X30740000Y-31960000D01*
X30740000Y-33100000D02*
X30140000Y-33100000D01*
X30950000Y-31980000D02*
G75*
G02*
X30870000Y-31980000I-40000J0D01*
G01*
X30870000Y-31980000D02*
G75*
G02*
X30950000Y-31980000I40000J0D01*
G01*
X30140000Y-53560000D02*
X30740000Y-53560000D01*
X30740000Y-54700000D02*
X30140000Y-54700000D01*
X30950000Y-53580000D02*
G75*
G02*
X30870000Y-53580000I-40000J0D01*
G01*
X30870000Y-53580000D02*
G75*
G02*
X30950000Y-53580000I40000J0D01*
G01*
G04 #@! TO.C,Q8*
X32740000Y-21160000D02*
X33340000Y-21160000D01*
X33340000Y-22300000D02*
X32740000Y-22300000D01*
X33550000Y-21180000D02*
G75*
G02*
X33470000Y-21180000I-40000J0D01*
G01*
X33470000Y-21180000D02*
G75*
G02*
X33550000Y-21180000I40000J0D01*
G01*
D13*
G04 #@! TO.C,D5*
X31200000Y-19770000D02*
X31200000Y-20570000D01*
D12*
G04 #@! TO.C,C2*
X39949420Y-21690000D02*
X40230580Y-21690000D01*
X39949420Y-22710000D02*
X40230580Y-22710000D01*
D14*
G04 #@! TO.C,Q2*
X28850000Y-40930000D02*
X29450000Y-40930000D01*
X29450000Y-42070000D02*
X28850000Y-42070000D01*
X29660000Y-40950000D02*
G75*
G02*
X29580000Y-40950000I-40000J0D01*
G01*
X29580000Y-40950000D02*
G75*
G02*
X29660000Y-40950000I40000J0D01*
G01*
G04 #@! TO.C,Q8*
X32740000Y-53560000D02*
X33340000Y-53560000D01*
X33340000Y-54700000D02*
X32740000Y-54700000D01*
X33550000Y-53580000D02*
G75*
G02*
X33470000Y-53580000I-40000J0D01*
G01*
X33470000Y-53580000D02*
G75*
G02*
X33550000Y-53580000I40000J0D01*
G01*
D13*
G04 #@! TO.C,J3*
X25750000Y-27150000D02*
X25750000Y-26325000D01*
X25750000Y-32975000D02*
X25750000Y-32150000D01*
X27750000Y-26445000D02*
X27750000Y-27150000D01*
X27750000Y-32855000D02*
X27750000Y-32150000D01*
D14*
G04 #@! TO.C,Q2*
X28850000Y-30130000D02*
X29450000Y-30130000D01*
X29450000Y-31270000D02*
X28850000Y-31270000D01*
X29660000Y-30150000D02*
G75*
G02*
X29580000Y-30150000I-40000J0D01*
G01*
X29580000Y-30150000D02*
G75*
G02*
X29660000Y-30150000I40000J0D01*
G01*
D12*
G04 #@! TO.C,Y1*
X44570000Y-29560000D02*
X41770000Y-29560000D01*
X44570000Y-32860000D02*
X44570000Y-29560000D01*
D13*
G04 #@! TO.C,J3*
X25750000Y-37950000D02*
X25750000Y-37125000D01*
X25750000Y-43775000D02*
X25750000Y-42950000D01*
X27750000Y-37245000D02*
X27750000Y-37950000D01*
X27750000Y-43655000D02*
X27750000Y-42950000D01*
D14*
G04 #@! TO.C,Q2*
X28850000Y-19330000D02*
X29450000Y-19330000D01*
X29450000Y-20470000D02*
X28850000Y-20470000D01*
X29660000Y-19350000D02*
G75*
G02*
X29580000Y-19350000I-40000J0D01*
G01*
X29580000Y-19350000D02*
G75*
G02*
X29660000Y-19350000I40000J0D01*
G01*
D13*
G04 #@! TO.C,J3*
X25750000Y-16350000D02*
X25750000Y-15525000D01*
X25750000Y-22175000D02*
X25750000Y-21350000D01*
X27750000Y-15645000D02*
X27750000Y-16350000D01*
X27750000Y-22055000D02*
X27750000Y-21350000D01*
D14*
G04 #@! TO.C,Q1*
X39519896Y-36330000D02*
X40119896Y-36330000D01*
X40119896Y-37470000D02*
X39519896Y-37470000D01*
X40329896Y-36350000D02*
G75*
G02*
X40249896Y-36350000I-40000J0D01*
G01*
X40249896Y-36350000D02*
G75*
G02*
X40329896Y-36350000I40000J0D01*
G01*
D12*
G04 #@! TO.C,Q4*
X29260000Y-25580000D02*
X28670000Y-25580000D01*
X29470000Y-27000000D02*
X28670000Y-27000000D01*
X29850000Y-25580000D02*
X29570000Y-25580000D01*
X29570000Y-25300000D01*
X29850000Y-25580000D01*
G36*
X29850000Y-25580000D02*
G01*
X29570000Y-25580000D01*
X29570000Y-25300000D01*
X29850000Y-25580000D01*
G37*
D13*
G04 #@! TO.C,J3*
X25750000Y-48750000D02*
X25750000Y-47925000D01*
X25750000Y-54575000D02*
X25750000Y-53750000D01*
X27750000Y-48045000D02*
X27750000Y-48750000D01*
X27750000Y-54455000D02*
X27750000Y-53750000D01*
D12*
G04 #@! TO.C,Y1*
X44570000Y-51160000D02*
X41770000Y-51160000D01*
X44570000Y-54460000D02*
X44570000Y-51160000D01*
G04 #@! TO.C,C2*
X39949420Y-32490000D02*
X40230580Y-32490000D01*
X39949420Y-33510000D02*
X40230580Y-33510000D01*
G04 #@! TO.C,U3*
X34330000Y-48400000D02*
X40320000Y-48400000D01*
X34330000Y-53620000D02*
X40330000Y-53620000D01*
X40910000Y-48310000D02*
X40430000Y-48310000D01*
X40430000Y-47830000D01*
X40910000Y-48310000D01*
G36*
X40910000Y-48310000D02*
G01*
X40430000Y-48310000D01*
X40430000Y-47830000D01*
X40910000Y-48310000D01*
G37*
G04 #@! TO.C,Q4*
X29260000Y-47180000D02*
X28670000Y-47180000D01*
X29470000Y-48600000D02*
X28670000Y-48600000D01*
X29850000Y-47180000D02*
X29570000Y-47180000D01*
X29570000Y-46900000D01*
X29850000Y-47180000D01*
G36*
X29850000Y-47180000D02*
G01*
X29570000Y-47180000D01*
X29570000Y-46900000D01*
X29850000Y-47180000D01*
G37*
D13*
G04 #@! TO.C,U1*
X44450000Y-25375000D02*
X42650000Y-25375000D01*
X44450000Y-27175000D02*
X42650000Y-27175000D01*
X44825000Y-25675000D02*
G75*
G02*
X44675000Y-25675000I-75000J0D01*
G01*
X44675000Y-25675000D02*
G75*
G02*
X44825000Y-25675000I75000J0D01*
G01*
X44450000Y-14575000D02*
X42650000Y-14575000D01*
X44450000Y-16375000D02*
X42650000Y-16375000D01*
X44825000Y-14875000D02*
G75*
G02*
X44675000Y-14875000I-75000J0D01*
G01*
X44675000Y-14875000D02*
G75*
G02*
X44825000Y-14875000I75000J0D01*
G01*
D14*
G04 #@! TO.C,Q5*
X30140000Y-42760000D02*
X30740000Y-42760000D01*
X30740000Y-43900000D02*
X30140000Y-43900000D01*
X30950000Y-42780000D02*
G75*
G02*
X30870000Y-42780000I-40000J0D01*
G01*
X30870000Y-42780000D02*
G75*
G02*
X30950000Y-42780000I40000J0D01*
G01*
G04 #@! TO.C,Q7*
X31440000Y-42760000D02*
X32040000Y-42760000D01*
X32040000Y-43900000D02*
X31440000Y-43900000D01*
X32250000Y-42780000D02*
G75*
G02*
X32170000Y-42780000I-40000J0D01*
G01*
X32170000Y-42780000D02*
G75*
G02*
X32250000Y-42780000I40000J0D01*
G01*
G04 #@! TO.C,Q6*
X28840000Y-31960000D02*
X29440000Y-31960000D01*
X29440000Y-33100000D02*
X28840000Y-33100000D01*
X29650000Y-31980000D02*
G75*
G02*
X29570000Y-31980000I-40000J0D01*
G01*
X29570000Y-31980000D02*
G75*
G02*
X29650000Y-31980000I40000J0D01*
G01*
D12*
G04 #@! TO.C,U3*
X34330000Y-16000000D02*
X40320000Y-16000000D01*
X34330000Y-21220000D02*
X40330000Y-21220000D01*
X40910000Y-15910000D02*
X40430000Y-15910000D01*
X40430000Y-15430000D01*
X40910000Y-15910000D01*
G36*
X40910000Y-15910000D02*
G01*
X40430000Y-15910000D01*
X40430000Y-15430000D01*
X40910000Y-15910000D01*
G37*
D13*
G04 #@! TO.C,U6*
X30740000Y-39850000D02*
X30740000Y-37850000D01*
X32940000Y-39850000D02*
X32940000Y-37850000D01*
X32720000Y-40270000D02*
G75*
G02*
X32580000Y-40270000I-70000J0D01*
G01*
X32580000Y-40270000D02*
G75*
G02*
X32720000Y-40270000I70000J0D01*
G01*
D12*
G04 #@! TO.C,C2*
X39949420Y-54090000D02*
X40230580Y-54090000D01*
X39949420Y-55110000D02*
X40230580Y-55110000D01*
D13*
G04 #@! TO.C,D5*
X31200000Y-30570000D02*
X31200000Y-31370000D01*
D14*
G04 #@! TO.C,Q1*
X39519896Y-25530000D02*
X40119896Y-25530000D01*
X40119896Y-26670000D02*
X39519896Y-26670000D01*
X40329896Y-25550000D02*
G75*
G02*
X40249896Y-25550000I-40000J0D01*
G01*
X40249896Y-25550000D02*
G75*
G02*
X40329896Y-25550000I40000J0D01*
G01*
D12*
G04 #@! TO.C,Y1*
X44570000Y-40360000D02*
X41770000Y-40360000D01*
X44570000Y-43660000D02*
X44570000Y-40360000D01*
G04 #@! TO.C,U3*
X34330000Y-37600000D02*
X40320000Y-37600000D01*
X34330000Y-42820000D02*
X40330000Y-42820000D01*
X40910000Y-37510000D02*
X40430000Y-37510000D01*
X40430000Y-37030000D01*
X40910000Y-37510000D01*
G36*
X40910000Y-37510000D02*
G01*
X40430000Y-37510000D01*
X40430000Y-37030000D01*
X40910000Y-37510000D01*
G37*
G04 #@! TD*
M02*
