G04 #@! TF.GenerationSoftware,KiCad,Pcbnew,9.0.0*
G04 #@! TF.CreationDate,2025-06-25T19:57:04-04:00*
G04 #@! TF.ProjectId,rp2350-decoder,72703233-3530-42d6-9465-636f6465722e,v0.1.2*
G04 #@! TF.SameCoordinates,Original*
G04 #@! TF.FileFunction,Soldermask,Bot*
G04 #@! TF.FilePolarity,Negative*
%FSLAX46Y46*%
G04 Gerber Fmt 4.6, Leading zero omitted, Abs format (unit mm)*
G04 Created by KiCad (PCBNEW 9.0.0) date 2025-06-25 19:57:04*
%MOMM*%
%LPD*%
G01*
G04 APERTURE LIST*
G04 Aperture macros list*
%AMRoundRect*
0 Rectangle with rounded corners*
0 $1 Rounding radius*
0 $2 $3 $4 $5 $6 $7 $8 $9 X,Y pos of 4 corners*
0 Add a 4 corners polygon primitive as box body*
4,1,4,$2,$3,$4,$5,$6,$7,$8,$9,$2,$3,0*
0 Add four circle primitives for the rounded corners*
1,1,$1+$1,$2,$3*
1,1,$1+$1,$4,$5*
1,1,$1+$1,$6,$7*
1,1,$1+$1,$8,$9*
0 Add four rect primitives between the rounded corners*
20,1,$1+$1,$2,$3,$4,$5,0*
20,1,$1+$1,$4,$5,$6,$7,0*
20,1,$1+$1,$6,$7,$8,$9,0*
20,1,$1+$1,$8,$9,$2,$3,0*%
G04 Aperture macros list end*
%ADD10C,0.300000*%
%ADD11C,1.152000*%
%ADD12RoundRect,0.100000X-0.100000X0.130000X-0.100000X-0.130000X0.100000X-0.130000X0.100000X0.130000X0*%
%ADD13RoundRect,0.140000X0.170000X-0.140000X0.170000X0.140000X-0.170000X0.140000X-0.170000X-0.140000X0*%
%ADD14RoundRect,0.100000X0.130000X0.100000X-0.130000X0.100000X-0.130000X-0.100000X0.130000X-0.100000X0*%
%ADD15RoundRect,0.100000X0.100000X-0.130000X0.100000X0.130000X-0.100000X0.130000X-0.100000X-0.130000X0*%
%ADD16R,0.350000X0.600000*%
%ADD17RoundRect,0.050000X0.050000X0.050000X-0.050000X0.050000X-0.050000X-0.050000X0.050000X-0.050000X0*%
%ADD18R,0.450000X0.300000*%
%ADD19R,0.900000X1.700000*%
%ADD20C,0.800000*%
%ADD21R,0.400000X0.250000*%
%ADD22R,0.400000X0.700000*%
%ADD23RoundRect,0.125000X0.250000X0.125000X-0.250000X0.125000X-0.250000X-0.125000X0.250000X-0.125000X0*%
%ADD24R,3.400000X4.300000*%
%ADD25R,0.400000X0.200000*%
%ADD26R,0.500000X0.900000*%
%ADD27RoundRect,0.100000X-0.130000X-0.100000X0.130000X-0.100000X0.130000X0.100000X-0.130000X0.100000X0*%
%ADD28R,0.400000X0.180000*%
%ADD29R,0.380000X0.400000*%
%ADD30R,0.280000X0.100000*%
%ADD31R,0.350000X0.150000*%
%ADD32RoundRect,0.140000X0.140000X0.170000X-0.140000X0.170000X-0.140000X-0.170000X0.140000X-0.170000X0*%
%ADD33R,1.200000X1.400000*%
%ADD34C,1.000000*%
G04 APERTURE END LIST*
D10*
G04 #@! TO.C,KiKit_MB_11_2*
X34666667Y-35970000D03*
G04 #@! TD*
G04 #@! TO.C,KiKit_MB_20_3*
X44950000Y-59800000D03*
G04 #@! TD*
G04 #@! TO.C,KiKit_MB_6_2*
X44980000Y-29266666D03*
G04 #@! TD*
G04 #@! TO.C,KiKit_MB_18_20*
X44950000Y-11400000D03*
G04 #@! TD*
G04 #@! TO.C,KiKit_MB_11_4*
X36000000Y-35970000D03*
G04 #@! TD*
G04 #@! TO.C,KiKit_MB_24_27*
X63875000Y-55600000D03*
G04 #@! TD*
G04 #@! TO.C,KiKit_MB_21_25*
X14700000Y-14400000D03*
G04 #@! TD*
G04 #@! TO.C,KiKit_MB_24_36*
X69387500Y-55600000D03*
G04 #@! TD*
G04 #@! TO.C,KiKit_MB_9_2*
X25020000Y-40733333D03*
G04 #@! TD*
G04 #@! TO.C,KiKit_MB_23_5*
X50400000Y-14400000D03*
G04 #@! TD*
G04 #@! TO.C,KiKit_MB_21_32*
X18987500Y-14400000D03*
G04 #@! TD*
G04 #@! TO.C,KiKit_MB_7_3*
X35333333Y-25170000D03*
G04 #@! TD*
G04 #@! TO.C,KiKit_MB_21_13*
X7350000Y-14400000D03*
G04 #@! TD*
G04 #@! TO.C,KiKit_MB_21_6*
X3062500Y-14400000D03*
G04 #@! TD*
G04 #@! TO.C,KiKit_MB_21_24*
X14087500Y-14400000D03*
G04 #@! TD*
G04 #@! TO.C,KiKit_MB_4_4*
X34000000Y-23230000D03*
G04 #@! TD*
G04 #@! TO.C,KiKit_MB_13_4*
X25020000Y-50200000D03*
G04 #@! TD*
G04 #@! TO.C,KiKit_MB_24_34*
X68162500Y-55600000D03*
G04 #@! TD*
G04 #@! TO.C,KiKit_MB_24_30*
X65712500Y-55600000D03*
G04 #@! TD*
G04 #@! TO.C,KiKit_MB_23_31*
X66325000Y-14400000D03*
G04 #@! TD*
G04 #@! TO.C,KiKit_MB_9_3*
X25020000Y-40066666D03*
G04 #@! TD*
G04 #@! TO.C,KiKit_MB_21_23*
X13475000Y-14400000D03*
G04 #@! TD*
G04 #@! TO.C,KiKit_MB_24_22*
X60812500Y-55600000D03*
G04 #@! TD*
G04 #@! TO.C,KiKit_MB_4_2*
X35333333Y-23230000D03*
G04 #@! TD*
G04 #@! TO.C,KiKit_MB_24_15*
X56525000Y-55600000D03*
G04 #@! TD*
D11*
G04 #@! TO.C,KiKit_TO_1*
X2000000Y-2000000D03*
G04 #@! TD*
D10*
G04 #@! TO.C,KiKit_MB_5_3*
X25020000Y-29266666D03*
G04 #@! TD*
G04 #@! TO.C,KiKit_MB_24_13*
X55300000Y-55600000D03*
G04 #@! TD*
G04 #@! TO.C,KiKit_MB_18_17*
X44950000Y-9600000D03*
G04 #@! TD*
G04 #@! TO.C,KiKit_MB_22_21*
X12250000Y-55600000D03*
G04 #@! TD*
G04 #@! TO.C,KiKit_MB_21_10*
X5512500Y-14400000D03*
G04 #@! TD*
G04 #@! TO.C,KiKit_MB_16_2*
X35333333Y-55630000D03*
G04 #@! TD*
G04 #@! TO.C,KiKit_MB_20_7*
X44950000Y-62200000D03*
G04 #@! TD*
G04 #@! TO.C,KiKit_MB_22_18*
X10412500Y-55600000D03*
G04 #@! TD*
G04 #@! TO.C,KiKit_MB_14_1*
X44980000Y-50200000D03*
G04 #@! TD*
G04 #@! TO.C,KiKit_MB_22_31*
X18375000Y-55600000D03*
G04 #@! TD*
G04 #@! TO.C,KiKit_MB_24_14*
X55912500Y-55600000D03*
G04 #@! TD*
G04 #@! TO.C,KiKit_MB_4_1*
X36000000Y-23230000D03*
G04 #@! TD*
G04 #@! TO.C,KiKit_MB_24_20*
X59587500Y-55600000D03*
G04 #@! TD*
G04 #@! TO.C,KiKit_MB_22_13*
X7350000Y-55600000D03*
G04 #@! TD*
G04 #@! TO.C,KiKit_MB_23_29*
X65100000Y-14400000D03*
G04 #@! TD*
G04 #@! TO.C,KiKit_MB_18_4*
X44950000Y-1800000D03*
G04 #@! TD*
G04 #@! TO.C,KiKit_MB_18_5*
X44950000Y-2400000D03*
G04 #@! TD*
G04 #@! TO.C,KiKit_MB_21_3*
X1225000Y-14400000D03*
G04 #@! TD*
G04 #@! TO.C,KiKit_MB_20_16*
X44950000Y-67600000D03*
G04 #@! TD*
G04 #@! TO.C,KiKit_MB_23_1*
X47950000Y-14400000D03*
G04 #@! TD*
G04 #@! TO.C,KiKit_MB_18_8*
X44950000Y-4200000D03*
G04 #@! TD*
G04 #@! TO.C,KiKit_MB_12_1*
X36000000Y-44830000D03*
G04 #@! TD*
G04 #@! TO.C,KiKit_MB_21_14*
X7962500Y-14400000D03*
G04 #@! TD*
G04 #@! TO.C,KiKit_MB_19_3*
X25050000Y-59800000D03*
G04 #@! TD*
G04 #@! TO.C,KiKit_MB_22_11*
X6125000Y-55600000D03*
G04 #@! TD*
G04 #@! TO.C,KiKit_MB_5_2*
X25020000Y-29933333D03*
G04 #@! TD*
G04 #@! TO.C,KiKit_MB_19_8*
X25050000Y-62800000D03*
G04 #@! TD*
G04 #@! TO.C,KiKit_MB_1_3*
X25020000Y-18466667D03*
G04 #@! TD*
G04 #@! TO.C,KiKit_MB_23_35*
X68775000Y-14400000D03*
G04 #@! TD*
G04 #@! TO.C,KiKit_MB_21_19*
X11025000Y-14400000D03*
G04 #@! TD*
G04 #@! TO.C,KiKit_MB_24_9*
X52850000Y-55600000D03*
G04 #@! TD*
G04 #@! TO.C,KiKit_MB_24_31*
X66325000Y-55600000D03*
G04 #@! TD*
G04 #@! TO.C,KiKit_MB_14_2*
X44980000Y-50866666D03*
G04 #@! TD*
G04 #@! TO.C,KiKit_MB_17_11*
X25050000Y-6000000D03*
G04 #@! TD*
G04 #@! TO.C,KiKit_MB_24_16*
X57137500Y-55600000D03*
G04 #@! TD*
G04 #@! TO.C,KiKit_MB_19_5*
X25050000Y-61000000D03*
G04 #@! TD*
G04 #@! TO.C,KiKit_MB_19_11*
X25050000Y-64600000D03*
G04 #@! TD*
G04 #@! TO.C,KiKit_MB_1_2*
X25020000Y-19133333D03*
G04 #@! TD*
G04 #@! TO.C,KiKit_MB_15_3*
X35333333Y-46770000D03*
G04 #@! TD*
G04 #@! TO.C,KiKit_MB_18_19*
X44950000Y-10800000D03*
G04 #@! TD*
G04 #@! TO.C,KiKit_MB_23_20*
X59587500Y-14400000D03*
G04 #@! TD*
G04 #@! TO.C,KiKit_MB_1_4*
X25020000Y-17800000D03*
G04 #@! TD*
G04 #@! TO.C,KiKit_MB_21_15*
X8575000Y-14400000D03*
G04 #@! TD*
G04 #@! TO.C,KiKit_MB_18_11*
X44950000Y-6000000D03*
G04 #@! TD*
G04 #@! TO.C,KiKit_MB_19_19*
X25050000Y-69400000D03*
G04 #@! TD*
G04 #@! TO.C,KiKit_MB_24_8*
X52237500Y-55600000D03*
G04 #@! TD*
G04 #@! TO.C,KiKit_MB_22_16*
X9187500Y-55600000D03*
G04 #@! TD*
G04 #@! TO.C,KiKit_MB_22_1*
X0Y-55600000D03*
G04 #@! TD*
G04 #@! TO.C,KiKit_MB_21_17*
X9800000Y-14400000D03*
G04 #@! TD*
G04 #@! TO.C,KiKit_MB_21_22*
X12862500Y-14400000D03*
G04 #@! TD*
G04 #@! TO.C,KiKit_MB_17_1*
X25050000Y0D03*
G04 #@! TD*
G04 #@! TO.C,KiKit_MB_17_4*
X25050000Y-1800000D03*
G04 #@! TD*
G04 #@! TO.C,KiKit_MB_21_21*
X12250000Y-14400000D03*
G04 #@! TD*
G04 #@! TO.C,KiKit_MB_19_9*
X25050000Y-63400000D03*
G04 #@! TD*
G04 #@! TO.C,KiKit_MB_23_17*
X57750000Y-14400000D03*
G04 #@! TD*
G04 #@! TO.C,KiKit_MB_19_15*
X25050000Y-67000000D03*
G04 #@! TD*
G04 #@! TO.C,KiKit_MB_17_13*
X25050000Y-7200000D03*
G04 #@! TD*
G04 #@! TO.C,KiKit_MB_22_29*
X17150000Y-55600000D03*
G04 #@! TD*
G04 #@! TO.C,KiKit_MB_22_14*
X7962500Y-55600000D03*
G04 #@! TD*
G04 #@! TO.C,KiKit_MB_21_9*
X4900000Y-14400000D03*
G04 #@! TD*
G04 #@! TO.C,KiKit_MB_16_4*
X34000000Y-55630000D03*
G04 #@! TD*
G04 #@! TO.C,KiKit_MB_22_36*
X21437500Y-55600000D03*
G04 #@! TD*
G04 #@! TO.C,KiKit_MB_21_31*
X18375000Y-14400000D03*
G04 #@! TD*
G04 #@! TO.C,KiKit_MB_23_25*
X62650000Y-14400000D03*
G04 #@! TD*
G04 #@! TO.C,KiKit_MB_17_5*
X25050000Y-2400000D03*
G04 #@! TD*
G04 #@! TO.C,KiKit_MB_21_7*
X3675000Y-14400000D03*
G04 #@! TD*
G04 #@! TO.C,KiKit_MB_3_1*
X34000000Y-14370000D03*
G04 #@! TD*
G04 #@! TO.C,KiKit_MB_8_1*
X36000000Y-34030000D03*
G04 #@! TD*
G04 #@! TO.C,KiKit_MB_22_8*
X4287500Y-55600000D03*
G04 #@! TD*
G04 #@! TO.C,KiKit_MB_23_27*
X63875000Y-14400000D03*
G04 #@! TD*
G04 #@! TO.C,KiKit_MB_22_3*
X1225000Y-55600000D03*
G04 #@! TD*
G04 #@! TO.C,KiKit_MB_17_8*
X25050000Y-4200000D03*
G04 #@! TD*
G04 #@! TO.C,KiKit_MB_24_24*
X62037500Y-55600000D03*
G04 #@! TD*
G04 #@! TO.C,KiKit_MB_22_5*
X2450000Y-55600000D03*
G04 #@! TD*
G04 #@! TO.C,KiKit_MB_21_1*
X0Y-14400000D03*
G04 #@! TD*
G04 #@! TO.C,KiKit_MB_18_13*
X44950000Y-7200000D03*
G04 #@! TD*
G04 #@! TO.C,KiKit_MB_24_7*
X51625000Y-55600000D03*
G04 #@! TD*
G04 #@! TO.C,KiKit_MB_19_4*
X25050000Y-60400000D03*
G04 #@! TD*
G04 #@! TO.C,KiKit_MB_23_34*
X68162500Y-14400000D03*
G04 #@! TD*
G04 #@! TO.C,KiKit_MB_22_24*
X14087500Y-55600000D03*
G04 #@! TD*
G04 #@! TO.C,KiKit_MB_19_16*
X25050000Y-67600000D03*
G04 #@! TD*
G04 #@! TO.C,KiKit_MB_24_35*
X68775000Y-55600000D03*
G04 #@! TD*
G04 #@! TO.C,KiKit_MB_24_19*
X58975000Y-55600000D03*
G04 #@! TD*
G04 #@! TO.C,KiKit_MB_17_2*
X25050000Y-600000D03*
G04 #@! TD*
G04 #@! TO.C,KiKit_MB_22_34*
X20212500Y-55600000D03*
G04 #@! TD*
G04 #@! TO.C,KiKit_MB_5_4*
X25020000Y-28600000D03*
G04 #@! TD*
G04 #@! TO.C,KiKit_MB_23_19*
X58975000Y-14400000D03*
G04 #@! TD*
G04 #@! TO.C,KiKit_MB_20_12*
X44950000Y-65200000D03*
G04 #@! TD*
G04 #@! TO.C,KiKit_MB_23_13*
X55300000Y-14400000D03*
G04 #@! TD*
G04 #@! TO.C,KiKit_MB_18_9*
X44950000Y-4800000D03*
G04 #@! TD*
G04 #@! TO.C,KiKit_MB_23_14*
X55912500Y-14400000D03*
G04 #@! TD*
G04 #@! TO.C,KiKit_MB_21_35*
X20825000Y-14400000D03*
G04 #@! TD*
G04 #@! TO.C,KiKit_MB_11_1*
X34000000Y-35970000D03*
G04 #@! TD*
G04 #@! TO.C,KiKit_MB_24_10*
X53462500Y-55600000D03*
G04 #@! TD*
G04 #@! TO.C,KiKit_MB_2_3*
X44980000Y-19133333D03*
G04 #@! TD*
G04 #@! TO.C,KiKit_MB_17_17*
X25050000Y-9600000D03*
G04 #@! TD*
G04 #@! TO.C,KiKit_MB_24_5*
X50400000Y-55600000D03*
G04 #@! TD*
G04 #@! TO.C,KiKit_MB_23_33*
X67550000Y-14400000D03*
G04 #@! TD*
G04 #@! TO.C,KiKit_MB_6_4*
X44980000Y-30600000D03*
G04 #@! TD*
G04 #@! TO.C,KiKit_MB_17_20*
X25050000Y-11400000D03*
G04 #@! TD*
G04 #@! TO.C,KiKit_MB_17_16*
X25050000Y-9000000D03*
G04 #@! TD*
G04 #@! TO.C,KiKit_MB_22_6*
X3062500Y-55600000D03*
G04 #@! TD*
G04 #@! TO.C,KiKit_MB_1_1*
X25020000Y-19800000D03*
G04 #@! TD*
G04 #@! TO.C,KiKit_MB_22_37*
X22050000Y-55600000D03*
G04 #@! TD*
G04 #@! TO.C,KiKit_MB_23_36*
X69387500Y-14400000D03*
G04 #@! TD*
G04 #@! TO.C,KiKit_MB_21_18*
X10412500Y-14400000D03*
G04 #@! TD*
G04 #@! TO.C,KiKit_MB_15_2*
X34666667Y-46770000D03*
G04 #@! TD*
G04 #@! TO.C,KiKit_MB_20_9*
X44950000Y-63400000D03*
G04 #@! TD*
G04 #@! TO.C,KiKit_MB_23_24*
X62037500Y-14400000D03*
G04 #@! TD*
G04 #@! TO.C,KiKit_MB_23_37*
X70000000Y-14400000D03*
G04 #@! TD*
G04 #@! TO.C,KiKit_MB_15_4*
X36000000Y-46770000D03*
G04 #@! TD*
G04 #@! TO.C,KiKit_MB_20_8*
X44950000Y-62800000D03*
G04 #@! TD*
G04 #@! TO.C,KiKit_MB_20_15*
X44950000Y-67000000D03*
G04 #@! TD*
G04 #@! TO.C,KiKit_MB_13_2*
X25020000Y-51533333D03*
G04 #@! TD*
G04 #@! TO.C,KiKit_MB_22_4*
X1837500Y-55600000D03*
G04 #@! TD*
G04 #@! TO.C,KiKit_MB_20_4*
X44950000Y-60400000D03*
G04 #@! TD*
G04 #@! TO.C,KiKit_MB_8_4*
X34000000Y-34030000D03*
G04 #@! TD*
G04 #@! TO.C,KiKit_MB_24_17*
X57750000Y-55600000D03*
G04 #@! TD*
G04 #@! TO.C,KiKit_MB_19_13*
X25050000Y-65800000D03*
G04 #@! TD*
G04 #@! TO.C,KiKit_MB_22_22*
X12862500Y-55600000D03*
G04 #@! TD*
G04 #@! TO.C,KiKit_MB_21_5*
X2450000Y-14400000D03*
G04 #@! TD*
G04 #@! TO.C,KiKit_MB_17_18*
X25050000Y-10200000D03*
G04 #@! TD*
G04 #@! TO.C,KiKit_MB_5_1*
X25020000Y-30600000D03*
G04 #@! TD*
G04 #@! TO.C,KiKit_MB_18_1*
X44950000Y0D03*
G04 #@! TD*
G04 #@! TO.C,KiKit_MB_22_30*
X17762500Y-55600000D03*
G04 #@! TD*
G04 #@! TO.C,KiKit_MB_19_12*
X25050000Y-65200000D03*
G04 #@! TD*
G04 #@! TO.C,KiKit_MB_18_15*
X44950000Y-8400000D03*
G04 #@! TD*
G04 #@! TO.C,KiKit_MB_18_16*
X44950000Y-9000000D03*
G04 #@! TD*
G04 #@! TO.C,KiKit_MB_8_2*
X35333333Y-34030000D03*
G04 #@! TD*
G04 #@! TO.C,KiKit_MB_19_14*
X25050000Y-66400000D03*
G04 #@! TD*
G04 #@! TO.C,KiKit_MB_23_7*
X51625000Y-14400000D03*
G04 #@! TD*
G04 #@! TO.C,KiKit_MB_7_4*
X36000000Y-25170000D03*
G04 #@! TD*
G04 #@! TO.C,KiKit_MB_24_37*
X70000000Y-55600000D03*
G04 #@! TD*
G04 #@! TO.C,KiKit_MB_20_6*
X44950000Y-61600000D03*
G04 #@! TD*
G04 #@! TO.C,KiKit_MB_20_13*
X44950000Y-65800000D03*
G04 #@! TD*
G04 #@! TO.C,KiKit_MB_10_4*
X44980000Y-41400000D03*
G04 #@! TD*
G04 #@! TO.C,KiKit_MB_19_1*
X25050000Y-58600000D03*
G04 #@! TD*
G04 #@! TO.C,KiKit_MB_21_12*
X6737500Y-14400000D03*
G04 #@! TD*
G04 #@! TO.C,KiKit_MB_4_3*
X34666667Y-23230000D03*
G04 #@! TD*
G04 #@! TO.C,KiKit_MB_24_6*
X51012500Y-55600000D03*
G04 #@! TD*
G04 #@! TO.C,KiKit_MB_24_32*
X66937500Y-55600000D03*
G04 #@! TD*
G04 #@! TO.C,KiKit_MB_22_27*
X15925000Y-55600000D03*
G04 #@! TD*
G04 #@! TO.C,KiKit_MB_20_5*
X44950000Y-61000000D03*
G04 #@! TD*
G04 #@! TO.C,KiKit_MB_17_6*
X25050000Y-3000000D03*
G04 #@! TD*
G04 #@! TO.C,KiKit_MB_17_19*
X25050000Y-10800000D03*
G04 #@! TD*
G04 #@! TO.C,KiKit_MB_12_3*
X34666667Y-44830000D03*
G04 #@! TD*
D11*
G04 #@! TO.C,KiKit_TO_3*
X2000000Y-68000000D03*
G04 #@! TD*
D10*
G04 #@! TO.C,KiKit_MB_6_3*
X44980000Y-29933333D03*
G04 #@! TD*
G04 #@! TO.C,KiKit_MB_21_2*
X612500Y-14400000D03*
G04 #@! TD*
G04 #@! TO.C,KiKit_MB_24_21*
X60200000Y-55600000D03*
G04 #@! TD*
G04 #@! TO.C,KiKit_MB_23_10*
X53462500Y-14400000D03*
G04 #@! TD*
G04 #@! TO.C,KiKit_MB_22_7*
X3675000Y-55600000D03*
G04 #@! TD*
G04 #@! TO.C,KiKit_MB_23_11*
X54075000Y-14400000D03*
G04 #@! TD*
G04 #@! TO.C,KiKit_MB_23_16*
X57137500Y-14400000D03*
G04 #@! TD*
G04 #@! TO.C,KiKit_MB_9_4*
X25020000Y-39400000D03*
G04 #@! TD*
G04 #@! TO.C,KiKit_MB_15_1*
X34000000Y-46770000D03*
G04 #@! TD*
G04 #@! TO.C,KiKit_MB_2_2*
X44980000Y-18466667D03*
G04 #@! TD*
G04 #@! TO.C,KiKit_MB_20_10*
X44950000Y-64000000D03*
G04 #@! TD*
G04 #@! TO.C,KiKit_MB_20_18*
X44950000Y-68800000D03*
G04 #@! TD*
G04 #@! TO.C,KiKit_MB_2_1*
X44980000Y-17800000D03*
G04 #@! TD*
G04 #@! TO.C,KiKit_MB_10_3*
X44980000Y-40733333D03*
G04 #@! TD*
G04 #@! TO.C,KiKit_MB_24_26*
X63262500Y-55600000D03*
G04 #@! TD*
G04 #@! TO.C,KiKit_MB_23_26*
X63262500Y-14400000D03*
G04 #@! TD*
G04 #@! TO.C,KiKit_MB_22_12*
X6737500Y-55600000D03*
G04 #@! TD*
G04 #@! TO.C,KiKit_MB_23_18*
X58362500Y-14400000D03*
G04 #@! TD*
G04 #@! TO.C,KiKit_MB_17_14*
X25050000Y-7800000D03*
G04 #@! TD*
G04 #@! TO.C,KiKit_MB_14_3*
X44980000Y-51533333D03*
G04 #@! TD*
G04 #@! TO.C,KiKit_MB_18_14*
X44950000Y-7800000D03*
G04 #@! TD*
G04 #@! TO.C,KiKit_MB_22_23*
X13475000Y-55600000D03*
G04 #@! TD*
G04 #@! TO.C,KiKit_MB_18_12*
X44950000Y-6600000D03*
G04 #@! TD*
G04 #@! TO.C,KiKit_MB_22_17*
X9800000Y-55600000D03*
G04 #@! TD*
G04 #@! TO.C,KiKit_MB_17_15*
X25050000Y-8400000D03*
G04 #@! TD*
G04 #@! TO.C,KiKit_MB_22_10*
X5512500Y-55600000D03*
G04 #@! TD*
G04 #@! TO.C,KiKit_MB_22_26*
X15312500Y-55600000D03*
G04 #@! TD*
G04 #@! TO.C,KiKit_MB_13_3*
X25020000Y-50866666D03*
G04 #@! TD*
G04 #@! TO.C,KiKit_MB_19_10*
X25050000Y-64000000D03*
G04 #@! TD*
G04 #@! TO.C,KiKit_MB_21_26*
X15312500Y-14400000D03*
G04 #@! TD*
G04 #@! TO.C,KiKit_MB_24_4*
X49787500Y-55600000D03*
G04 #@! TD*
G04 #@! TO.C,KiKit_MB_24_11*
X54075000Y-55600000D03*
G04 #@! TD*
G04 #@! TO.C,KiKit_MB_23_3*
X49175000Y-14400000D03*
G04 #@! TD*
G04 #@! TO.C,KiKit_MB_21_33*
X19600000Y-14400000D03*
G04 #@! TD*
G04 #@! TO.C,KiKit_MB_13_1*
X25020000Y-52200000D03*
G04 #@! TD*
G04 #@! TO.C,KiKit_MB_17_12*
X25050000Y-6600000D03*
G04 #@! TD*
G04 #@! TO.C,KiKit_MB_21_16*
X9187500Y-14400000D03*
G04 #@! TD*
G04 #@! TO.C,KiKit_MB_19_17*
X25050000Y-68200000D03*
G04 #@! TD*
G04 #@! TO.C,KiKit_MB_22_33*
X19600000Y-55600000D03*
G04 #@! TD*
G04 #@! TO.C,KiKit_MB_24_12*
X54687500Y-55600000D03*
G04 #@! TD*
G04 #@! TO.C,KiKit_MB_23_12*
X54687500Y-14400000D03*
G04 #@! TD*
G04 #@! TO.C,KiKit_MB_24_29*
X65100000Y-55600000D03*
G04 #@! TD*
G04 #@! TO.C,KiKit_MB_21_8*
X4287500Y-14400000D03*
G04 #@! TD*
G04 #@! TO.C,KiKit_MB_24_25*
X62650000Y-55600000D03*
G04 #@! TD*
G04 #@! TO.C,KiKit_MB_3_3*
X35333333Y-14370000D03*
G04 #@! TD*
G04 #@! TO.C,KiKit_MB_7_2*
X34666667Y-25170000D03*
G04 #@! TD*
G04 #@! TO.C,KiKit_MB_20_19*
X44950000Y-69400000D03*
G04 #@! TD*
G04 #@! TO.C,KiKit_MB_18_7*
X44950000Y-3600000D03*
G04 #@! TD*
G04 #@! TO.C,KiKit_MB_21_4*
X1837500Y-14400000D03*
G04 #@! TD*
G04 #@! TO.C,KiKit_MB_19_6*
X25050000Y-61600000D03*
G04 #@! TD*
G04 #@! TO.C,KiKit_MB_16_3*
X34666667Y-55630000D03*
G04 #@! TD*
G04 #@! TO.C,KiKit_MB_17_7*
X25050000Y-3600000D03*
G04 #@! TD*
G04 #@! TO.C,KiKit_MB_21_20*
X11637500Y-14400000D03*
G04 #@! TD*
G04 #@! TO.C,KiKit_MB_3_4*
X36000000Y-14370000D03*
G04 #@! TD*
G04 #@! TO.C,KiKit_MB_23_30*
X65712500Y-14400000D03*
G04 #@! TD*
G04 #@! TO.C,KiKit_MB_21_37*
X22050000Y-14400000D03*
G04 #@! TD*
G04 #@! TO.C,KiKit_MB_21_11*
X6125000Y-14400000D03*
G04 #@! TD*
G04 #@! TO.C,KiKit_MB_19_7*
X25050000Y-62200000D03*
G04 #@! TD*
G04 #@! TO.C,KiKit_MB_20_20*
X44950000Y-70000000D03*
G04 #@! TD*
G04 #@! TO.C,KiKit_MB_22_9*
X4900000Y-55600000D03*
G04 #@! TD*
G04 #@! TO.C,KiKit_MB_23_15*
X56525000Y-14400000D03*
G04 #@! TD*
G04 #@! TO.C,KiKit_MB_16_1*
X36000000Y-55630000D03*
G04 #@! TD*
G04 #@! TO.C,KiKit_MB_20_17*
X44950000Y-68200000D03*
G04 #@! TD*
G04 #@! TO.C,KiKit_MB_23_21*
X60200000Y-14400000D03*
G04 #@! TD*
G04 #@! TO.C,KiKit_MB_21_30*
X17762500Y-14400000D03*
G04 #@! TD*
G04 #@! TO.C,KiKit_MB_23_9*
X52850000Y-14400000D03*
G04 #@! TD*
G04 #@! TO.C,KiKit_MB_23_4*
X49787500Y-14400000D03*
G04 #@! TD*
G04 #@! TO.C,KiKit_MB_12_2*
X35333333Y-44830000D03*
G04 #@! TD*
G04 #@! TO.C,KiKit_MB_18_2*
X44950000Y-600000D03*
G04 #@! TD*
G04 #@! TO.C,KiKit_MB_22_19*
X11025000Y-55600000D03*
G04 #@! TD*
G04 #@! TO.C,KiKit_MB_8_3*
X34666667Y-34030000D03*
G04 #@! TD*
G04 #@! TO.C,KiKit_MB_20_14*
X44950000Y-66400000D03*
G04 #@! TD*
G04 #@! TO.C,KiKit_MB_17_9*
X25050000Y-4800000D03*
G04 #@! TD*
G04 #@! TO.C,KiKit_MB_7_1*
X34000000Y-25170000D03*
G04 #@! TD*
G04 #@! TO.C,KiKit_MB_22_25*
X14700000Y-55600000D03*
G04 #@! TD*
G04 #@! TO.C,KiKit_MB_22_28*
X16537500Y-55600000D03*
G04 #@! TD*
G04 #@! TO.C,KiKit_MB_24_2*
X48562500Y-55600000D03*
G04 #@! TD*
G04 #@! TO.C,KiKit_MB_20_1*
X44950000Y-58600000D03*
G04 #@! TD*
G04 #@! TO.C,KiKit_MB_23_2*
X48562500Y-14400000D03*
G04 #@! TD*
G04 #@! TO.C,KiKit_MB_24_1*
X47950000Y-55600000D03*
G04 #@! TD*
G04 #@! TO.C,KiKit_MB_18_6*
X44950000Y-3000000D03*
G04 #@! TD*
G04 #@! TO.C,KiKit_MB_22_35*
X20825000Y-55600000D03*
G04 #@! TD*
G04 #@! TO.C,KiKit_MB_23_8*
X52237500Y-14400000D03*
G04 #@! TD*
G04 #@! TO.C,KiKit_MB_23_6*
X51012500Y-14400000D03*
G04 #@! TD*
G04 #@! TO.C,KiKit_MB_21_27*
X15925000Y-14400000D03*
G04 #@! TD*
G04 #@! TO.C,KiKit_MB_3_2*
X34666667Y-14370000D03*
G04 #@! TD*
G04 #@! TO.C,KiKit_MB_22_20*
X11637500Y-55600000D03*
G04 #@! TD*
G04 #@! TO.C,KiKit_MB_22_32*
X18987500Y-55600000D03*
G04 #@! TD*
G04 #@! TO.C,KiKit_MB_21_34*
X20212500Y-14400000D03*
G04 #@! TD*
G04 #@! TO.C,KiKit_MB_10_2*
X44980000Y-40066666D03*
G04 #@! TD*
G04 #@! TO.C,KiKit_MB_22_2*
X612500Y-55600000D03*
G04 #@! TD*
G04 #@! TO.C,KiKit_MB_11_3*
X35333333Y-35970000D03*
G04 #@! TD*
G04 #@! TO.C,KiKit_MB_24_18*
X58362500Y-55600000D03*
G04 #@! TD*
G04 #@! TO.C,KiKit_MB_10_1*
X44980000Y-39400000D03*
G04 #@! TD*
G04 #@! TO.C,KiKit_MB_12_4*
X34000000Y-44830000D03*
G04 #@! TD*
G04 #@! TO.C,KiKit_MB_19_2*
X25050000Y-59200000D03*
G04 #@! TD*
G04 #@! TO.C,KiKit_MB_24_33*
X67550000Y-55600000D03*
G04 #@! TD*
G04 #@! TO.C,KiKit_MB_24_3*
X49175000Y-55600000D03*
G04 #@! TD*
G04 #@! TO.C,KiKit_MB_19_20*
X25050000Y-70000000D03*
G04 #@! TD*
G04 #@! TO.C,KiKit_MB_20_2*
X44950000Y-59200000D03*
G04 #@! TD*
G04 #@! TO.C,KiKit_MB_23_32*
X66937500Y-14400000D03*
G04 #@! TD*
D11*
G04 #@! TO.C,KiKit_TO_2*
X68000000Y-2000000D03*
G04 #@! TD*
D10*
G04 #@! TO.C,KiKit_MB_2_4*
X44980000Y-19800000D03*
G04 #@! TD*
G04 #@! TO.C,KiKit_MB_17_3*
X25050000Y-1200000D03*
G04 #@! TD*
G04 #@! TO.C,KiKit_MB_23_23*
X61425000Y-14400000D03*
G04 #@! TD*
G04 #@! TO.C,KiKit_MB_14_4*
X44980000Y-52200000D03*
G04 #@! TD*
G04 #@! TO.C,KiKit_MB_22_15*
X8575000Y-55600000D03*
G04 #@! TD*
G04 #@! TO.C,KiKit_MB_18_18*
X44950000Y-10200000D03*
G04 #@! TD*
G04 #@! TO.C,KiKit_MB_21_28*
X16537500Y-14400000D03*
G04 #@! TD*
G04 #@! TO.C,KiKit_MB_19_18*
X25050000Y-68800000D03*
G04 #@! TD*
G04 #@! TO.C,KiKit_MB_6_1*
X44980000Y-28600000D03*
G04 #@! TD*
G04 #@! TO.C,KiKit_MB_20_11*
X44950000Y-64600000D03*
G04 #@! TD*
G04 #@! TO.C,KiKit_MB_24_28*
X64487500Y-55600000D03*
G04 #@! TD*
G04 #@! TO.C,KiKit_MB_17_10*
X25050000Y-5400000D03*
G04 #@! TD*
G04 #@! TO.C,KiKit_MB_9_1*
X25020000Y-41400000D03*
G04 #@! TD*
G04 #@! TO.C,KiKit_MB_18_3*
X44950000Y-1200000D03*
G04 #@! TD*
G04 #@! TO.C,KiKit_MB_24_23*
X61425000Y-55600000D03*
G04 #@! TD*
G04 #@! TO.C,KiKit_MB_18_10*
X44950000Y-5400000D03*
G04 #@! TD*
G04 #@! TO.C,KiKit_MB_21_36*
X21437500Y-14400000D03*
G04 #@! TD*
G04 #@! TO.C,KiKit_MB_21_29*
X17150000Y-14400000D03*
G04 #@! TD*
G04 #@! TO.C,KiKit_MB_23_22*
X60812500Y-14400000D03*
G04 #@! TD*
G04 #@! TO.C,KiKit_MB_23_28*
X64487500Y-14400000D03*
G04 #@! TD*
D12*
G04 #@! TO.C,R1*
X42100000Y-38500000D03*
X42100000Y-39140000D03*
G04 #@! TD*
D13*
G04 #@! TO.C,C2*
X41020000Y-33510000D03*
X41020000Y-32550000D03*
G04 #@! TD*
D14*
G04 #@! TO.C,C4*
X44210000Y-29070000D03*
X43570000Y-29070000D03*
G04 #@! TD*
D15*
G04 #@! TO.C,D8*
X32250000Y-15070000D03*
X32250000Y-15710000D03*
G04 #@! TD*
G04 #@! TO.C,R19*
X30910000Y-49290000D03*
X30910000Y-48650000D03*
G04 #@! TD*
D16*
G04 #@! TO.C,D5*
X31525000Y-52570000D03*
X32175000Y-52570000D03*
G04 #@! TD*
D17*
G04 #@! TO.C,Q4*
X29500000Y-36740000D03*
X29500000Y-37090000D03*
X29500000Y-37440000D03*
X28600000Y-37440000D03*
X28600000Y-37090000D03*
X28600000Y-36740000D03*
G04 #@! TD*
D18*
G04 #@! TO.C,U6*
X30520000Y-19220000D03*
X30520000Y-18720000D03*
X30520000Y-18220000D03*
X30520000Y-17720000D03*
X32320000Y-17720000D03*
X32320000Y-18220000D03*
X32320000Y-18720000D03*
X32320000Y-19220000D03*
D19*
X31420000Y-18470000D03*
G04 #@! TD*
D20*
G04 #@! TO.C,J2*
X37330000Y-33380000D03*
G04 #@! TD*
D12*
G04 #@! TO.C,R6*
X41010000Y-27010000D03*
X41010000Y-27650000D03*
G04 #@! TD*
D21*
G04 #@! TO.C,Q2*
X28610000Y-20665000D03*
X28610000Y-20215000D03*
D22*
X29310000Y-20440000D03*
G04 #@! TD*
D23*
G04 #@! TO.C,U3*
X40030000Y-49105000D03*
X40030000Y-50375000D03*
X40030000Y-51645000D03*
X40030000Y-52915000D03*
X34630000Y-52915000D03*
X34630000Y-51645000D03*
X34630000Y-50375000D03*
X34630000Y-49105000D03*
D24*
X37330000Y-51010000D03*
G04 #@! TD*
D15*
G04 #@! TO.C,D10*
X33650000Y-15070000D03*
X33650000Y-15710000D03*
G04 #@! TD*
D25*
G04 #@! TO.C,U1*
X44150000Y-47275000D03*
X44150000Y-47675000D03*
X44150000Y-48075000D03*
X44150000Y-48475000D03*
X42750000Y-48475000D03*
X42750000Y-48075000D03*
X42750000Y-47675000D03*
X42750000Y-47275000D03*
D26*
X43450000Y-47875000D03*
G04 #@! TD*
D14*
G04 #@! TO.C,C4*
X44210000Y-39870000D03*
X43570000Y-39870000D03*
G04 #@! TD*
D27*
G04 #@! TO.C,R12*
X30250000Y-37080000D03*
X30890000Y-37080000D03*
G04 #@! TD*
D15*
G04 #@! TO.C,R7*
X32950000Y-25870000D03*
X32950000Y-26510000D03*
G04 #@! TD*
D12*
G04 #@! TO.C,C16*
X38390000Y-21910000D03*
X38390000Y-22550000D03*
G04 #@! TD*
G04 #@! TO.C,R18*
X30210000Y-37850000D03*
X30210000Y-38490000D03*
G04 #@! TD*
G04 #@! TO.C,C1*
X41830000Y-47240000D03*
X41830000Y-47880000D03*
G04 #@! TD*
D17*
G04 #@! TO.C,Q4*
X29500000Y-15140000D03*
X29500000Y-15490000D03*
X29500000Y-15840000D03*
X28600000Y-15840000D03*
X28600000Y-15490000D03*
X28600000Y-15140000D03*
G04 #@! TD*
D27*
G04 #@! TO.C,R17*
X28428512Y-40750400D03*
X29068512Y-40750400D03*
G04 #@! TD*
D15*
G04 #@! TO.C,R7*
X32950000Y-47470000D03*
X32950000Y-48110000D03*
G04 #@! TD*
D12*
G04 #@! TO.C,R18*
X30210000Y-48650000D03*
X30210000Y-49290000D03*
G04 #@! TD*
D28*
G04 #@! TO.C,J3*
X27700000Y-49320000D03*
X27700000Y-49670000D03*
X27700000Y-50030000D03*
X27700000Y-50380000D03*
X27700000Y-50730000D03*
X27700000Y-51080000D03*
X27700000Y-51430000D03*
X27700000Y-51780000D03*
X27700000Y-52130000D03*
X27700000Y-52480000D03*
X27700000Y-52830000D03*
X27700000Y-53180000D03*
X25800000Y-53180000D03*
X25800000Y-52830000D03*
X25800000Y-52480000D03*
X25800000Y-52130000D03*
X25800000Y-51780000D03*
X25800000Y-51430000D03*
X25800000Y-51080000D03*
X25800000Y-50730000D03*
X25800000Y-50380000D03*
X25800000Y-50030000D03*
X25800000Y-49670000D03*
X25800000Y-49320000D03*
D29*
X27230000Y-48050000D03*
X26270000Y-48050000D03*
X27230000Y-54460000D03*
X26270000Y-54460000D03*
G04 #@! TD*
D16*
G04 #@! TO.C,D6*
X30845000Y-20170000D03*
X30195000Y-20170000D03*
G04 #@! TD*
D12*
G04 #@! TO.C,C5*
X41010000Y-20320000D03*
X41010000Y-20960000D03*
G04 #@! TD*
G04 #@! TO.C,R18*
X30210000Y-16250000D03*
X30210000Y-16890000D03*
G04 #@! TD*
D15*
G04 #@! TO.C,C13*
X34780000Y-43990000D03*
X34780000Y-43350000D03*
G04 #@! TD*
D30*
G04 #@! TO.C,Q8*
X33310000Y-32180000D03*
X33310000Y-32480000D03*
D31*
X33280000Y-32800000D03*
D30*
X32770000Y-32880000D03*
X32770000Y-32580000D03*
D31*
X32800000Y-32250000D03*
G04 #@! TD*
D30*
G04 #@! TO.C,Q6*
X29410000Y-32180000D03*
X29410000Y-32480000D03*
D31*
X29380000Y-32800000D03*
D30*
X28870000Y-32880000D03*
X28870000Y-32580000D03*
D31*
X28900000Y-32250000D03*
G04 #@! TD*
D25*
G04 #@! TO.C,U1*
X44150000Y-25675000D03*
X44150000Y-26075000D03*
X44150000Y-26475000D03*
X44150000Y-26875000D03*
X42750000Y-26875000D03*
X42750000Y-26475000D03*
X42750000Y-26075000D03*
X42750000Y-25675000D03*
D26*
X43450000Y-26275000D03*
G04 #@! TD*
D32*
G04 #@! TO.C,C15*
X40130000Y-22250000D03*
X39170000Y-22250000D03*
G04 #@! TD*
D27*
G04 #@! TO.C,R17*
X28428512Y-19150400D03*
X29068512Y-19150400D03*
G04 #@! TD*
D30*
G04 #@! TO.C,Q8*
X33310000Y-42980000D03*
X33310000Y-43280000D03*
D31*
X33280000Y-43600000D03*
D30*
X32770000Y-43680000D03*
X32770000Y-43380000D03*
D31*
X32800000Y-43050000D03*
G04 #@! TD*
D20*
G04 #@! TO.C,J1*
X36050000Y-22580000D03*
G04 #@! TD*
D15*
G04 #@! TO.C,C6*
X41010000Y-30390000D03*
X41010000Y-29750000D03*
G04 #@! TD*
D23*
G04 #@! TO.C,U3*
X40030000Y-27505000D03*
X40030000Y-28775000D03*
X40030000Y-30045000D03*
X40030000Y-31315000D03*
X34630000Y-31315000D03*
X34630000Y-30045000D03*
X34630000Y-28775000D03*
X34630000Y-27505000D03*
D24*
X37330000Y-29410000D03*
G04 #@! TD*
D12*
G04 #@! TO.C,R3*
X43550000Y-49300000D03*
X43550000Y-49940000D03*
G04 #@! TD*
D16*
G04 #@! TO.C,D5*
X31525000Y-30970000D03*
X32175000Y-30970000D03*
G04 #@! TD*
D12*
G04 #@! TO.C,C16*
X38390000Y-32710000D03*
X38390000Y-33350000D03*
G04 #@! TD*
D18*
G04 #@! TO.C,U6*
X30520000Y-51620000D03*
X30520000Y-51120000D03*
X30520000Y-50620000D03*
X30520000Y-50120000D03*
X32320000Y-50120000D03*
X32320000Y-50620000D03*
X32320000Y-51120000D03*
X32320000Y-51620000D03*
D19*
X31420000Y-50870000D03*
G04 #@! TD*
D15*
G04 #@! TO.C,R15*
X41010000Y-26280000D03*
X41010000Y-25640000D03*
G04 #@! TD*
D13*
G04 #@! TO.C,C2*
X41020000Y-44310000D03*
X41020000Y-43350000D03*
G04 #@! TD*
D32*
G04 #@! TO.C,C15*
X40130000Y-54650000D03*
X39170000Y-54650000D03*
G04 #@! TD*
D25*
G04 #@! TO.C,U1*
X44150000Y-36475000D03*
X44150000Y-36875000D03*
X44150000Y-37275000D03*
X44150000Y-37675000D03*
X42750000Y-37675000D03*
X42750000Y-37275000D03*
X42750000Y-36875000D03*
X42750000Y-36475000D03*
D26*
X43450000Y-37075000D03*
G04 #@! TD*
D12*
G04 #@! TO.C,C5*
X41010000Y-41920000D03*
X41010000Y-42560000D03*
G04 #@! TD*
D20*
G04 #@! TO.C,J1*
X36050000Y-33380000D03*
G04 #@! TD*
D18*
G04 #@! TO.C,U6*
X30520000Y-40820000D03*
X30520000Y-40320000D03*
X30520000Y-39820000D03*
X30520000Y-39320000D03*
X32320000Y-39320000D03*
X32320000Y-39820000D03*
X32320000Y-40320000D03*
X32320000Y-40820000D03*
D19*
X31420000Y-40070000D03*
G04 #@! TD*
D12*
G04 #@! TO.C,C1*
X41830000Y-25640000D03*
X41830000Y-26280000D03*
G04 #@! TD*
D21*
G04 #@! TO.C,Q2*
X28610000Y-31465000D03*
X28610000Y-31015000D03*
D22*
X29310000Y-31240000D03*
G04 #@! TD*
D28*
G04 #@! TO.C,J3*
X27700000Y-38520000D03*
X27700000Y-38870000D03*
X27700000Y-39230000D03*
X27700000Y-39580000D03*
X27700000Y-39930000D03*
X27700000Y-40280000D03*
X27700000Y-40630000D03*
X27700000Y-40980000D03*
X27700000Y-41330000D03*
X27700000Y-41680000D03*
X27700000Y-42030000D03*
X27700000Y-42380000D03*
X25800000Y-42380000D03*
X25800000Y-42030000D03*
X25800000Y-41680000D03*
X25800000Y-41330000D03*
X25800000Y-40980000D03*
X25800000Y-40630000D03*
X25800000Y-40280000D03*
X25800000Y-39930000D03*
X25800000Y-39580000D03*
X25800000Y-39230000D03*
X25800000Y-38870000D03*
X25800000Y-38520000D03*
D29*
X27230000Y-37250000D03*
X26270000Y-37250000D03*
X27230000Y-43660000D03*
X26270000Y-43660000D03*
G04 #@! TD*
D12*
G04 #@! TO.C,R3*
X43550000Y-27700000D03*
X43550000Y-28340000D03*
G04 #@! TD*
D14*
G04 #@! TO.C,R5*
X42810000Y-50670000D03*
X42170000Y-50670000D03*
G04 #@! TD*
D33*
G04 #@! TO.C,Y1*
X42440000Y-43400000D03*
X42440000Y-41200000D03*
X44140000Y-41200000D03*
X44140000Y-43400000D03*
G04 #@! TD*
D23*
G04 #@! TO.C,U3*
X40030000Y-38305000D03*
X40030000Y-39575000D03*
X40030000Y-40845000D03*
X40030000Y-42115000D03*
X34630000Y-42115000D03*
X34630000Y-40845000D03*
X34630000Y-39575000D03*
X34630000Y-38305000D03*
D24*
X37330000Y-40210000D03*
G04 #@! TD*
D30*
G04 #@! TO.C,Q5*
X30710000Y-21380000D03*
X30710000Y-21680000D03*
D31*
X30680000Y-22000000D03*
D30*
X30170000Y-22080000D03*
X30170000Y-21780000D03*
D31*
X30200000Y-21450000D03*
G04 #@! TD*
D12*
G04 #@! TO.C,R4*
X44270000Y-38500000D03*
X44270000Y-39140000D03*
G04 #@! TD*
D14*
G04 #@! TO.C,R8*
X30250000Y-14810000D03*
X30890000Y-14810000D03*
G04 #@! TD*
D27*
G04 #@! TO.C,R12*
X30250000Y-26280000D03*
X30890000Y-26280000D03*
G04 #@! TD*
D30*
G04 #@! TO.C,Q7*
X32010000Y-53780000D03*
X32010000Y-54080000D03*
D31*
X31980000Y-54400000D03*
D30*
X31470000Y-54480000D03*
X31470000Y-54180000D03*
D31*
X31500000Y-53850000D03*
G04 #@! TD*
D12*
G04 #@! TO.C,R6*
X41010000Y-37810000D03*
X41010000Y-38450000D03*
G04 #@! TD*
D17*
G04 #@! TO.C,Q3*
X29500000Y-38420000D03*
X29500000Y-38770000D03*
X29500000Y-39120000D03*
X28600000Y-39120000D03*
X28600000Y-38770000D03*
X28600000Y-38420000D03*
G04 #@! TD*
D27*
G04 #@! TO.C,R17*
X28428512Y-51550400D03*
X29068512Y-51550400D03*
G04 #@! TD*
D12*
G04 #@! TO.C,R2*
X42830000Y-16900000D03*
X42830000Y-17540000D03*
G04 #@! TD*
G04 #@! TO.C,R3*
X43550000Y-38500000D03*
X43550000Y-39140000D03*
G04 #@! TD*
D27*
G04 #@! TO.C,R12*
X30250000Y-47880000D03*
X30890000Y-47880000D03*
G04 #@! TD*
D15*
G04 #@! TO.C,R19*
X30910000Y-16890000D03*
X30910000Y-16250000D03*
G04 #@! TD*
D25*
G04 #@! TO.C,U1*
X44150000Y-14875000D03*
X44150000Y-15275000D03*
X44150000Y-15675000D03*
X44150000Y-16075000D03*
X42750000Y-16075000D03*
X42750000Y-15675000D03*
X42750000Y-15275000D03*
X42750000Y-14875000D03*
D26*
X43450000Y-15475000D03*
G04 #@! TD*
D33*
G04 #@! TO.C,Y1*
X42440000Y-21800000D03*
X42440000Y-19600000D03*
X44140000Y-19600000D03*
X44140000Y-21800000D03*
G04 #@! TD*
G04 #@! TO.C,Y1*
X42440000Y-54200000D03*
X42440000Y-52000000D03*
X44140000Y-52000000D03*
X44140000Y-54200000D03*
G04 #@! TD*
D20*
G04 #@! TO.C,J2*
X37330000Y-44180000D03*
G04 #@! TD*
D12*
G04 #@! TO.C,C5*
X41010000Y-52720000D03*
X41010000Y-53360000D03*
G04 #@! TD*
G04 #@! TO.C,C5*
X41010000Y-31120000D03*
X41010000Y-31760000D03*
G04 #@! TD*
D14*
G04 #@! TO.C,C4*
X44210000Y-50670000D03*
X43570000Y-50670000D03*
G04 #@! TD*
D30*
G04 #@! TO.C,Q8*
X33310000Y-21380000D03*
X33310000Y-21680000D03*
D31*
X33280000Y-22000000D03*
D30*
X32770000Y-22080000D03*
X32770000Y-21780000D03*
D31*
X32800000Y-21450000D03*
G04 #@! TD*
D23*
G04 #@! TO.C,U3*
X40030000Y-16705000D03*
X40030000Y-17975000D03*
X40030000Y-19245000D03*
X40030000Y-20515000D03*
X34630000Y-20515000D03*
X34630000Y-19245000D03*
X34630000Y-17975000D03*
X34630000Y-16705000D03*
D24*
X37330000Y-18610000D03*
G04 #@! TD*
D14*
G04 #@! TO.C,R8*
X30250000Y-47210000D03*
X30890000Y-47210000D03*
G04 #@! TD*
D32*
G04 #@! TO.C,C15*
X40130000Y-33050000D03*
X39170000Y-33050000D03*
G04 #@! TD*
D15*
G04 #@! TO.C,C11*
X41009891Y-39820000D03*
X41009891Y-39180000D03*
G04 #@! TD*
G04 #@! TO.C,R19*
X30910000Y-27690000D03*
X30910000Y-27050000D03*
G04 #@! TD*
D30*
G04 #@! TO.C,Q7*
X32010000Y-32180000D03*
X32010000Y-32480000D03*
D31*
X31980000Y-32800000D03*
D30*
X31470000Y-32880000D03*
X31470000Y-32580000D03*
D31*
X31500000Y-32250000D03*
G04 #@! TD*
D30*
G04 #@! TO.C,Q7*
X32010000Y-21380000D03*
X32010000Y-21680000D03*
D31*
X31980000Y-22000000D03*
D30*
X31470000Y-22080000D03*
X31470000Y-21780000D03*
D31*
X31500000Y-21450000D03*
G04 #@! TD*
D27*
G04 #@! TO.C,C3*
X34860000Y-15150000D03*
X35500000Y-15150000D03*
G04 #@! TD*
D28*
G04 #@! TO.C,J3*
X27700000Y-27720000D03*
X27700000Y-28070000D03*
X27700000Y-28430000D03*
X27700000Y-28780000D03*
X27700000Y-29130000D03*
X27700000Y-29480000D03*
X27700000Y-29830000D03*
X27700000Y-30180000D03*
X27700000Y-30530000D03*
X27700000Y-30880000D03*
X27700000Y-31230000D03*
X27700000Y-31580000D03*
X25800000Y-31580000D03*
X25800000Y-31230000D03*
X25800000Y-30880000D03*
X25800000Y-30530000D03*
X25800000Y-30180000D03*
X25800000Y-29830000D03*
X25800000Y-29480000D03*
X25800000Y-29130000D03*
X25800000Y-28780000D03*
X25800000Y-28430000D03*
X25800000Y-28070000D03*
X25800000Y-27720000D03*
D29*
X27230000Y-26450000D03*
X26270000Y-26450000D03*
X27230000Y-32860000D03*
X26270000Y-32860000D03*
G04 #@! TD*
D15*
G04 #@! TO.C,R16*
X29810000Y-40710000D03*
X29810000Y-40070000D03*
G04 #@! TD*
G04 #@! TO.C,C13*
X34780000Y-54790000D03*
X34780000Y-54150000D03*
G04 #@! TD*
D34*
G04 #@! TO.C,KiKit_FID_B_2*
X60000000Y-3850000D03*
G04 #@! TD*
D12*
G04 #@! TO.C,R1*
X42100000Y-27700000D03*
X42100000Y-28340000D03*
G04 #@! TD*
D15*
G04 #@! TO.C,R16*
X29810000Y-29910000D03*
X29810000Y-29270000D03*
G04 #@! TD*
D12*
G04 #@! TO.C,C20*
X32970000Y-40260000D03*
X32970000Y-40900000D03*
G04 #@! TD*
D15*
G04 #@! TO.C,C6*
X41010000Y-19590000D03*
X41010000Y-18950000D03*
G04 #@! TD*
G04 #@! TO.C,D8*
X32250000Y-47470000D03*
X32250000Y-48110000D03*
G04 #@! TD*
D14*
G04 #@! TO.C,R5*
X42810000Y-29070000D03*
X42170000Y-29070000D03*
G04 #@! TD*
D15*
G04 #@! TO.C,R15*
X41010000Y-37080000D03*
X41010000Y-36440000D03*
G04 #@! TD*
D12*
G04 #@! TO.C,R4*
X44270000Y-27700000D03*
X44270000Y-28340000D03*
G04 #@! TD*
D17*
G04 #@! TO.C,Q3*
X29500000Y-16820000D03*
X29500000Y-17170000D03*
X29500000Y-17520000D03*
X28600000Y-17520000D03*
X28600000Y-17170000D03*
X28600000Y-16820000D03*
G04 #@! TD*
D16*
G04 #@! TO.C,D6*
X30845000Y-52570000D03*
X30195000Y-52570000D03*
G04 #@! TD*
D30*
G04 #@! TO.C,Q7*
X32010000Y-42980000D03*
X32010000Y-43280000D03*
D31*
X31980000Y-43600000D03*
D30*
X31470000Y-43680000D03*
X31470000Y-43380000D03*
D31*
X31500000Y-43050000D03*
G04 #@! TD*
D12*
G04 #@! TO.C,R2*
X42830000Y-27700000D03*
X42830000Y-28340000D03*
G04 #@! TD*
D15*
G04 #@! TO.C,C6*
X41010000Y-41190000D03*
X41010000Y-40550000D03*
G04 #@! TD*
D12*
G04 #@! TO.C,C20*
X32970000Y-29460000D03*
X32970000Y-30100000D03*
G04 #@! TD*
G04 #@! TO.C,R2*
X42830000Y-49300000D03*
X42830000Y-49940000D03*
G04 #@! TD*
D15*
G04 #@! TO.C,C13*
X34780000Y-33190000D03*
X34780000Y-32550000D03*
G04 #@! TD*
G04 #@! TO.C,R19*
X30910000Y-38490000D03*
X30910000Y-37850000D03*
G04 #@! TD*
D34*
G04 #@! TO.C,KiKit_FID_B_1*
X10000000Y-3850000D03*
G04 #@! TD*
D12*
G04 #@! TO.C,R1*
X42100000Y-16900000D03*
X42100000Y-17540000D03*
G04 #@! TD*
D15*
G04 #@! TO.C,C11*
X41009891Y-18220000D03*
X41009891Y-17580000D03*
G04 #@! TD*
D27*
G04 #@! TO.C,C3*
X34860000Y-25950000D03*
X35500000Y-25950000D03*
G04 #@! TD*
D15*
G04 #@! TO.C,C6*
X41010000Y-51990000D03*
X41010000Y-51350000D03*
G04 #@! TD*
G04 #@! TO.C,R16*
X29810000Y-51510000D03*
X29810000Y-50870000D03*
G04 #@! TD*
D30*
G04 #@! TO.C,Q5*
X30710000Y-32180000D03*
X30710000Y-32480000D03*
D31*
X30680000Y-32800000D03*
D30*
X30170000Y-32880000D03*
X30170000Y-32580000D03*
D31*
X30200000Y-32250000D03*
G04 #@! TD*
D17*
G04 #@! TO.C,Q4*
X29500000Y-25940000D03*
X29500000Y-26290000D03*
X29500000Y-26640000D03*
X28600000Y-26640000D03*
X28600000Y-26290000D03*
X28600000Y-25940000D03*
G04 #@! TD*
D15*
G04 #@! TO.C,D10*
X33650000Y-47470000D03*
X33650000Y-48110000D03*
G04 #@! TD*
G04 #@! TO.C,R7*
X32950000Y-15070000D03*
X32950000Y-15710000D03*
G04 #@! TD*
G04 #@! TO.C,D10*
X33650000Y-25870000D03*
X33650000Y-26510000D03*
G04 #@! TD*
G04 #@! TO.C,C11*
X41009891Y-29020000D03*
X41009891Y-28380000D03*
G04 #@! TD*
D27*
G04 #@! TO.C,R12*
X30250000Y-15480000D03*
X30890000Y-15480000D03*
G04 #@! TD*
D15*
G04 #@! TO.C,R15*
X41010000Y-47880000D03*
X41010000Y-47240000D03*
G04 #@! TD*
D13*
G04 #@! TO.C,C2*
X41020000Y-55110000D03*
X41020000Y-54150000D03*
G04 #@! TD*
D15*
G04 #@! TO.C,C11*
X41009891Y-50620000D03*
X41009891Y-49980000D03*
G04 #@! TD*
G04 #@! TO.C,C13*
X34780000Y-22390000D03*
X34780000Y-21750000D03*
G04 #@! TD*
D12*
G04 #@! TO.C,R6*
X41010000Y-16210000D03*
X41010000Y-16850000D03*
G04 #@! TD*
D21*
G04 #@! TO.C,Q2*
X28610000Y-42265000D03*
X28610000Y-41815000D03*
D22*
X29310000Y-42040000D03*
G04 #@! TD*
D14*
G04 #@! TO.C,R5*
X42810000Y-39870000D03*
X42170000Y-39870000D03*
G04 #@! TD*
D16*
G04 #@! TO.C,D5*
X31525000Y-41770000D03*
X32175000Y-41770000D03*
G04 #@! TD*
D20*
G04 #@! TO.C,J2*
X37330000Y-54980000D03*
G04 #@! TD*
D21*
G04 #@! TO.C,Q9*
X39460000Y-37215000D03*
X39460000Y-36765000D03*
D22*
X40160000Y-36990000D03*
G04 #@! TD*
D14*
G04 #@! TO.C,C4*
X44210000Y-18270000D03*
X43570000Y-18270000D03*
G04 #@! TD*
D16*
G04 #@! TO.C,D6*
X30845000Y-41770000D03*
X30195000Y-41770000D03*
G04 #@! TD*
D30*
G04 #@! TO.C,Q6*
X29410000Y-53780000D03*
X29410000Y-54080000D03*
D31*
X29380000Y-54400000D03*
D30*
X28870000Y-54480000D03*
X28870000Y-54180000D03*
D31*
X28900000Y-53850000D03*
G04 #@! TD*
D12*
G04 #@! TO.C,R3*
X43550000Y-16900000D03*
X43550000Y-17540000D03*
G04 #@! TD*
G04 #@! TO.C,C16*
X38390000Y-54310000D03*
X38390000Y-54950000D03*
G04 #@! TD*
G04 #@! TO.C,R2*
X42830000Y-38500000D03*
X42830000Y-39140000D03*
G04 #@! TD*
D15*
G04 #@! TO.C,D10*
X33650000Y-36670000D03*
X33650000Y-37310000D03*
G04 #@! TD*
D12*
G04 #@! TO.C,C16*
X38390000Y-43510000D03*
X38390000Y-44150000D03*
G04 #@! TD*
G04 #@! TO.C,R4*
X44270000Y-16900000D03*
X44270000Y-17540000D03*
G04 #@! TD*
G04 #@! TO.C,C1*
X41830000Y-36440000D03*
X41830000Y-37080000D03*
G04 #@! TD*
D28*
G04 #@! TO.C,J3*
X27700000Y-16920000D03*
X27700000Y-17270000D03*
X27700000Y-17630000D03*
X27700000Y-17980000D03*
X27700000Y-18330000D03*
X27700000Y-18680000D03*
X27700000Y-19030000D03*
X27700000Y-19380000D03*
X27700000Y-19730000D03*
X27700000Y-20080000D03*
X27700000Y-20430000D03*
X27700000Y-20780000D03*
X25800000Y-20780000D03*
X25800000Y-20430000D03*
X25800000Y-20080000D03*
X25800000Y-19730000D03*
X25800000Y-19380000D03*
X25800000Y-19030000D03*
X25800000Y-18680000D03*
X25800000Y-18330000D03*
X25800000Y-17980000D03*
X25800000Y-17630000D03*
X25800000Y-17270000D03*
X25800000Y-16920000D03*
D29*
X27230000Y-15650000D03*
X26270000Y-15650000D03*
X27230000Y-22060000D03*
X26270000Y-22060000D03*
G04 #@! TD*
D30*
G04 #@! TO.C,Q5*
X30710000Y-53780000D03*
X30710000Y-54080000D03*
D31*
X30680000Y-54400000D03*
D30*
X30170000Y-54480000D03*
X30170000Y-54180000D03*
D31*
X30200000Y-53850000D03*
G04 #@! TD*
D15*
G04 #@! TO.C,D8*
X32250000Y-36670000D03*
X32250000Y-37310000D03*
G04 #@! TD*
D30*
G04 #@! TO.C,Q6*
X29410000Y-42980000D03*
X29410000Y-43280000D03*
D31*
X29380000Y-43600000D03*
D30*
X28870000Y-43680000D03*
X28870000Y-43380000D03*
D31*
X28900000Y-43050000D03*
G04 #@! TD*
D20*
G04 #@! TO.C,J1*
X36050000Y-44180000D03*
G04 #@! TD*
D30*
G04 #@! TO.C,Q6*
X29410000Y-21380000D03*
X29410000Y-21680000D03*
D31*
X29380000Y-22000000D03*
D30*
X28870000Y-22080000D03*
X28870000Y-21780000D03*
D31*
X28900000Y-21450000D03*
G04 #@! TD*
D21*
G04 #@! TO.C,Q9*
X39460000Y-48015000D03*
X39460000Y-47565000D03*
D22*
X40160000Y-47790000D03*
G04 #@! TD*
D34*
G04 #@! TO.C,KiKit_FID_B_4*
X60000000Y-66150000D03*
G04 #@! TD*
D21*
G04 #@! TO.C,Q9*
X39460000Y-15615000D03*
X39460000Y-15165000D03*
D22*
X40160000Y-15390000D03*
G04 #@! TD*
D27*
G04 #@! TO.C,C3*
X34860000Y-47550000D03*
X35500000Y-47550000D03*
G04 #@! TD*
D30*
G04 #@! TO.C,Q5*
X30710000Y-42980000D03*
X30710000Y-43280000D03*
D31*
X30680000Y-43600000D03*
D30*
X30170000Y-43680000D03*
X30170000Y-43380000D03*
D31*
X30200000Y-43050000D03*
G04 #@! TD*
D20*
G04 #@! TO.C,J1*
X36050000Y-54980000D03*
G04 #@! TD*
D15*
G04 #@! TO.C,R16*
X29810000Y-19110000D03*
X29810000Y-18470000D03*
G04 #@! TD*
D13*
G04 #@! TO.C,C2*
X41020000Y-22710000D03*
X41020000Y-21750000D03*
G04 #@! TD*
D14*
G04 #@! TO.C,R5*
X42810000Y-18270000D03*
X42170000Y-18270000D03*
G04 #@! TD*
D32*
G04 #@! TO.C,C15*
X40130000Y-43850000D03*
X39170000Y-43850000D03*
G04 #@! TD*
D12*
G04 #@! TO.C,R6*
X41010000Y-48610000D03*
X41010000Y-49250000D03*
G04 #@! TD*
D14*
G04 #@! TO.C,R8*
X30250000Y-25610000D03*
X30890000Y-25610000D03*
G04 #@! TD*
D16*
G04 #@! TO.C,D5*
X31525000Y-20170000D03*
X32175000Y-20170000D03*
G04 #@! TD*
D12*
G04 #@! TO.C,R18*
X30210000Y-27050000D03*
X30210000Y-27690000D03*
G04 #@! TD*
G04 #@! TO.C,C1*
X41830000Y-14840000D03*
X41830000Y-15480000D03*
G04 #@! TD*
D15*
G04 #@! TO.C,R15*
X41010000Y-15480000D03*
X41010000Y-14840000D03*
G04 #@! TD*
D18*
G04 #@! TO.C,U6*
X30520000Y-30020000D03*
X30520000Y-29520000D03*
X30520000Y-29020000D03*
X30520000Y-28520000D03*
X32320000Y-28520000D03*
X32320000Y-29020000D03*
X32320000Y-29520000D03*
X32320000Y-30020000D03*
D19*
X31420000Y-29270000D03*
G04 #@! TD*
D21*
G04 #@! TO.C,Q2*
X28610000Y-53065000D03*
X28610000Y-52615000D03*
D22*
X29310000Y-52840000D03*
G04 #@! TD*
D17*
G04 #@! TO.C,Q3*
X29500000Y-49220000D03*
X29500000Y-49570000D03*
X29500000Y-49920000D03*
X28600000Y-49920000D03*
X28600000Y-49570000D03*
X28600000Y-49220000D03*
G04 #@! TD*
D12*
G04 #@! TO.C,R1*
X42100000Y-49300000D03*
X42100000Y-49940000D03*
G04 #@! TD*
D16*
G04 #@! TO.C,D6*
X30845000Y-30970000D03*
X30195000Y-30970000D03*
G04 #@! TD*
D30*
G04 #@! TO.C,Q8*
X33310000Y-53780000D03*
X33310000Y-54080000D03*
D31*
X33280000Y-54400000D03*
D30*
X32770000Y-54480000D03*
X32770000Y-54180000D03*
D31*
X32800000Y-53850000D03*
G04 #@! TD*
D12*
G04 #@! TO.C,R4*
X44270000Y-49300000D03*
X44270000Y-49940000D03*
G04 #@! TD*
G04 #@! TO.C,C20*
X32970000Y-51060000D03*
X32970000Y-51700000D03*
G04 #@! TD*
D33*
G04 #@! TO.C,Y1*
X42440000Y-32600000D03*
X42440000Y-30400000D03*
X44140000Y-30400000D03*
X44140000Y-32600000D03*
G04 #@! TD*
D14*
G04 #@! TO.C,R8*
X30250000Y-36410000D03*
X30890000Y-36410000D03*
G04 #@! TD*
D17*
G04 #@! TO.C,Q3*
X29500000Y-27620000D03*
X29500000Y-27970000D03*
X29500000Y-28320000D03*
X28600000Y-28320000D03*
X28600000Y-27970000D03*
X28600000Y-27620000D03*
G04 #@! TD*
G04 #@! TO.C,Q4*
X29500000Y-47540000D03*
X29500000Y-47890000D03*
X29500000Y-48240000D03*
X28600000Y-48240000D03*
X28600000Y-47890000D03*
X28600000Y-47540000D03*
G04 #@! TD*
D34*
G04 #@! TO.C,KiKit_FID_B_3*
X10000000Y-66150000D03*
G04 #@! TD*
D27*
G04 #@! TO.C,R17*
X28428512Y-29950400D03*
X29068512Y-29950400D03*
G04 #@! TD*
D15*
G04 #@! TO.C,R7*
X32950000Y-36670000D03*
X32950000Y-37310000D03*
G04 #@! TD*
G04 #@! TO.C,D8*
X32250000Y-25870000D03*
X32250000Y-26510000D03*
G04 #@! TD*
D27*
G04 #@! TO.C,C3*
X34860000Y-36750000D03*
X35500000Y-36750000D03*
G04 #@! TD*
D12*
G04 #@! TO.C,C20*
X32970000Y-18660000D03*
X32970000Y-19300000D03*
G04 #@! TD*
D21*
G04 #@! TO.C,Q9*
X39460000Y-26415000D03*
X39460000Y-25965000D03*
D22*
X40160000Y-26190000D03*
G04 #@! TD*
D20*
G04 #@! TO.C,J2*
X37330000Y-22580000D03*
G04 #@! TD*
M02*
