G04 #@! TF.GenerationSoftware,KiCad,Pcbnew,9.0.0*
G04 #@! TF.CreationDate,2025-02-23T12:35:44-05:00*
G04 #@! TF.ProjectId,rp2350-decoder,72703233-3530-42d6-9465-636f6465722e,v0.0.2*
G04 #@! TF.SameCoordinates,Original*
G04 #@! TF.FileFunction,Soldermask,Bot*
G04 #@! TF.FilePolarity,Negative*
%FSLAX46Y46*%
G04 Gerber Fmt 4.6, Leading zero omitted, Abs format (unit mm)*
G04 Created by KiCad (PCBNEW 9.0.0) date 2025-02-23 12:35:44*
%MOMM*%
%LPD*%
G01*
G04 APERTURE LIST*
G04 Aperture macros list*
%AMRoundRect*
0 Rectangle with rounded corners*
0 $1 Rounding radius*
0 $2 $3 $4 $5 $6 $7 $8 $9 X,Y pos of 4 corners*
0 Add a 4 corners polygon primitive as box body*
4,1,4,$2,$3,$4,$5,$6,$7,$8,$9,$2,$3,0*
0 Add four circle primitives for the rounded corners*
1,1,$1+$1,$2,$3*
1,1,$1+$1,$4,$5*
1,1,$1+$1,$6,$7*
1,1,$1+$1,$8,$9*
0 Add four rect primitives between the rounded corners*
20,1,$1+$1,$2,$3,$4,$5,0*
20,1,$1+$1,$4,$5,$6,$7,0*
20,1,$1+$1,$6,$7,$8,$9,0*
20,1,$1+$1,$8,$9,$2,$3,0*%
G04 Aperture macros list end*
%ADD10RoundRect,0.050000X0.050000X0.050000X-0.050000X0.050000X-0.050000X-0.050000X0.050000X-0.050000X0*%
%ADD11RoundRect,0.100000X-0.100000X0.130000X-0.100000X-0.130000X0.100000X-0.130000X0.100000X0.130000X0*%
%ADD12R,0.300000X0.450000*%
%ADD13R,1.700000X0.900000*%
%ADD14RoundRect,0.100000X0.100000X-0.130000X0.100000X0.130000X-0.100000X0.130000X-0.100000X-0.130000X0*%
%ADD15C,0.800000*%
%ADD16R,0.400000X0.180000*%
%ADD17R,0.380000X0.400000*%
%ADD18R,0.350000X0.600000*%
%ADD19R,0.280000X0.100000*%
%ADD20R,0.350000X0.150000*%
%ADD21RoundRect,0.100000X-0.130000X-0.100000X0.130000X-0.100000X0.130000X0.100000X-0.130000X0.100000X0*%
%ADD22R,1.200000X1.400000*%
%ADD23R,0.400000X0.200000*%
%ADD24R,0.500000X0.900000*%
%ADD25C,1.000000*%
%ADD26RoundRect,0.125000X0.250000X0.125000X-0.250000X0.125000X-0.250000X-0.125000X0.250000X-0.125000X0*%
%ADD27R,3.400000X4.300000*%
%ADD28RoundRect,0.100000X0.130000X0.100000X-0.130000X0.100000X-0.130000X-0.100000X0.130000X-0.100000X0*%
%ADD29RoundRect,0.225000X0.225000X0.250000X-0.225000X0.250000X-0.225000X-0.250000X0.225000X-0.250000X0*%
G04 APERTURE END LIST*
D10*
G04 #@! TO.C,Q3*
X29540000Y-49430000D03*
X29540000Y-49780000D03*
X29540000Y-50130000D03*
X28640000Y-50130000D03*
X28640000Y-49780000D03*
X28640000Y-49430000D03*
G04 #@! TD*
D11*
G04 #@! TO.C,C16*
X38220000Y-43480000D03*
X38220000Y-44120000D03*
G04 #@! TD*
D12*
G04 #@! TO.C,U6*
X32590000Y-28950000D03*
X32090000Y-28950000D03*
X31590000Y-28950000D03*
X31090000Y-28950000D03*
X31090000Y-27150000D03*
X31590000Y-27150000D03*
X32090000Y-27150000D03*
X32590000Y-27150000D03*
D13*
X31840000Y-28050000D03*
G04 #@! TD*
D11*
G04 #@! TO.C,C1*
X41830000Y-14840000D03*
X41830000Y-15480000D03*
G04 #@! TD*
D14*
G04 #@! TO.C,R16*
X30220000Y-51680000D03*
X30220000Y-51040000D03*
G04 #@! TD*
D15*
G04 #@! TO.C,J1*
X36050000Y-54980000D03*
G04 #@! TD*
D16*
G04 #@! TO.C,J3*
X27700000Y-16920000D03*
X27700000Y-17270000D03*
X27700000Y-17630000D03*
X27700000Y-17980000D03*
X27700000Y-18330000D03*
X27700000Y-18680000D03*
X27700000Y-19030000D03*
X27700000Y-19380000D03*
X27700000Y-19730000D03*
X27700000Y-20080000D03*
X27700000Y-20430000D03*
X27700000Y-20780000D03*
X25800000Y-20780000D03*
X25800000Y-20430000D03*
X25800000Y-20080000D03*
X25800000Y-19730000D03*
X25800000Y-19380000D03*
X25800000Y-19030000D03*
X25800000Y-18680000D03*
X25800000Y-18330000D03*
X25800000Y-17980000D03*
X25800000Y-17630000D03*
X25800000Y-17270000D03*
X25800000Y-16920000D03*
D17*
X27230000Y-15650000D03*
X26270000Y-15650000D03*
X27230000Y-22060000D03*
X26270000Y-22060000D03*
G04 #@! TD*
D18*
G04 #@! TO.C,D5*
X31525000Y-30970000D03*
X32175000Y-30970000D03*
G04 #@! TD*
D11*
G04 #@! TO.C,R4*
X42700000Y-49300000D03*
X42700000Y-49940000D03*
G04 #@! TD*
D18*
G04 #@! TO.C,D6*
X30775000Y-41770000D03*
X30125000Y-41770000D03*
G04 #@! TD*
D14*
G04 #@! TO.C,C15*
X35110000Y-37080000D03*
X35110000Y-36440000D03*
G04 #@! TD*
D12*
G04 #@! TO.C,U6*
X32590000Y-50550000D03*
X32090000Y-50550000D03*
X31590000Y-50550000D03*
X31090000Y-50550000D03*
X31090000Y-48750000D03*
X31590000Y-48750000D03*
X32090000Y-48750000D03*
X32590000Y-48750000D03*
D13*
X31840000Y-49650000D03*
G04 #@! TD*
D19*
G04 #@! TO.C,Q6*
X29410000Y-42980000D03*
X29410000Y-43280000D03*
D20*
X29380000Y-43600000D03*
D19*
X28870000Y-43680000D03*
X28870000Y-43380000D03*
D20*
X28900000Y-43050000D03*
G04 #@! TD*
D21*
G04 #@! TO.C,R12*
X30940000Y-36640000D03*
X31580000Y-36640000D03*
G04 #@! TD*
D15*
G04 #@! TO.C,J1*
X36050000Y-44180000D03*
G04 #@! TD*
D19*
G04 #@! TO.C,Q8*
X33310000Y-42980000D03*
X33310000Y-43280000D03*
D20*
X33280000Y-43600000D03*
D19*
X32770000Y-43680000D03*
X32770000Y-43380000D03*
D20*
X32800000Y-43050000D03*
G04 #@! TD*
D16*
G04 #@! TO.C,J3*
X27700000Y-27720000D03*
X27700000Y-28070000D03*
X27700000Y-28430000D03*
X27700000Y-28780000D03*
X27700000Y-29130000D03*
X27700000Y-29480000D03*
X27700000Y-29830000D03*
X27700000Y-30180000D03*
X27700000Y-30530000D03*
X27700000Y-30880000D03*
X27700000Y-31230000D03*
X27700000Y-31580000D03*
X25800000Y-31580000D03*
X25800000Y-31230000D03*
X25800000Y-30880000D03*
X25800000Y-30530000D03*
X25800000Y-30180000D03*
X25800000Y-29830000D03*
X25800000Y-29480000D03*
X25800000Y-29130000D03*
X25800000Y-28780000D03*
X25800000Y-28430000D03*
X25800000Y-28070000D03*
X25800000Y-27720000D03*
D17*
X27230000Y-26450000D03*
X26270000Y-26450000D03*
X27230000Y-32860000D03*
X26270000Y-32860000D03*
G04 #@! TD*
D14*
G04 #@! TO.C,C15*
X35110000Y-26280000D03*
X35110000Y-25640000D03*
G04 #@! TD*
D19*
G04 #@! TO.C,Q7*
X32010000Y-21380000D03*
X32010000Y-21680000D03*
D20*
X31980000Y-22000000D03*
D19*
X31470000Y-22080000D03*
X31470000Y-21780000D03*
D20*
X31500000Y-21450000D03*
G04 #@! TD*
D14*
G04 #@! TO.C,C11*
X41009891Y-39877149D03*
X41009891Y-39237149D03*
G04 #@! TD*
D22*
G04 #@! TO.C,Y1*
X42440000Y-32600000D03*
X42440000Y-30400000D03*
X44140000Y-30400000D03*
X44140000Y-32600000D03*
G04 #@! TD*
D23*
G04 #@! TO.C,U1*
X44250000Y-14875000D03*
X44250000Y-15275000D03*
X44250000Y-15675000D03*
X44250000Y-16075000D03*
X42850000Y-16075000D03*
X42850000Y-15675000D03*
X42850000Y-15275000D03*
X42850000Y-14875000D03*
D24*
X43550000Y-15475000D03*
G04 #@! TD*
D11*
G04 #@! TO.C,R18*
X30240000Y-38840000D03*
X30240000Y-39480000D03*
G04 #@! TD*
D14*
G04 #@! TO.C,C15*
X35110000Y-15480000D03*
X35110000Y-14840000D03*
G04 #@! TD*
D11*
G04 #@! TO.C,R6*
X41010000Y-16240000D03*
X41010000Y-16880000D03*
G04 #@! TD*
D19*
G04 #@! TO.C,Q5*
X30710000Y-32180000D03*
X30710000Y-32480000D03*
D20*
X30680000Y-32800000D03*
D19*
X30170000Y-32880000D03*
X30170000Y-32580000D03*
D20*
X30200000Y-32250000D03*
G04 #@! TD*
D25*
G04 #@! TO.C,KiKit_FID_B_1*
X10000000Y-3850000D03*
G04 #@! TD*
D26*
G04 #@! TO.C,U3*
X40030000Y-49105000D03*
X40030000Y-50375000D03*
X40030000Y-51645000D03*
X40030000Y-52915000D03*
X34630000Y-52915000D03*
X34630000Y-51645000D03*
X34630000Y-50375000D03*
X34630000Y-49105000D03*
D27*
X37330000Y-51010000D03*
G04 #@! TD*
D11*
G04 #@! TO.C,R4*
X42700000Y-27700000D03*
X42700000Y-28340000D03*
G04 #@! TD*
D14*
G04 #@! TO.C,C11*
X41009891Y-29077149D03*
X41009891Y-28437149D03*
G04 #@! TD*
D11*
G04 #@! TO.C,R1*
X43500000Y-16900000D03*
X43500000Y-17540000D03*
G04 #@! TD*
G04 #@! TO.C,R18*
X30240000Y-49640000D03*
X30240000Y-50280000D03*
G04 #@! TD*
G04 #@! TO.C,C5*
X41010000Y-31230000D03*
X41010000Y-31870000D03*
G04 #@! TD*
G04 #@! TO.C,R4*
X42700000Y-38500000D03*
X42700000Y-39140000D03*
G04 #@! TD*
D14*
G04 #@! TO.C,R15*
X41010000Y-15480000D03*
X41010000Y-14840000D03*
G04 #@! TD*
D15*
G04 #@! TO.C,J2*
X37330000Y-33380000D03*
G04 #@! TD*
D19*
G04 #@! TO.C,Q8*
X33310000Y-21380000D03*
X33310000Y-21680000D03*
D20*
X33280000Y-22000000D03*
D19*
X32770000Y-22080000D03*
X32770000Y-21780000D03*
D20*
X32800000Y-21450000D03*
G04 #@! TD*
D12*
G04 #@! TO.C,U6*
X32590000Y-18150000D03*
X32090000Y-18150000D03*
X31590000Y-18150000D03*
X31090000Y-18150000D03*
X31090000Y-16350000D03*
X31590000Y-16350000D03*
X32090000Y-16350000D03*
X32590000Y-16350000D03*
D13*
X31840000Y-17250000D03*
G04 #@! TD*
D16*
G04 #@! TO.C,J3*
X27700000Y-38520000D03*
X27700000Y-38870000D03*
X27700000Y-39230000D03*
X27700000Y-39580000D03*
X27700000Y-39930000D03*
X27700000Y-40280000D03*
X27700000Y-40630000D03*
X27700000Y-40980000D03*
X27700000Y-41330000D03*
X27700000Y-41680000D03*
X27700000Y-42030000D03*
X27700000Y-42380000D03*
X25800000Y-42380000D03*
X25800000Y-42030000D03*
X25800000Y-41680000D03*
X25800000Y-41330000D03*
X25800000Y-40980000D03*
X25800000Y-40630000D03*
X25800000Y-40280000D03*
X25800000Y-39930000D03*
X25800000Y-39580000D03*
X25800000Y-39230000D03*
X25800000Y-38870000D03*
X25800000Y-38520000D03*
D17*
X27230000Y-37250000D03*
X26270000Y-37250000D03*
X27230000Y-43660000D03*
X26270000Y-43660000D03*
G04 #@! TD*
D18*
G04 #@! TO.C,D6*
X30775000Y-30970000D03*
X30125000Y-30970000D03*
G04 #@! TD*
D14*
G04 #@! TO.C,C11*
X41009891Y-18277149D03*
X41009891Y-17637149D03*
G04 #@! TD*
D28*
G04 #@! TO.C,C4*
X44210000Y-29070000D03*
X43570000Y-29070000D03*
G04 #@! TD*
D14*
G04 #@! TO.C,R16*
X30220000Y-19280000D03*
X30220000Y-18640000D03*
G04 #@! TD*
D11*
G04 #@! TO.C,R1*
X43500000Y-38500000D03*
X43500000Y-39140000D03*
G04 #@! TD*
D14*
G04 #@! TO.C,C6*
X41010000Y-41270000D03*
X41010000Y-40630000D03*
G04 #@! TD*
G04 #@! TO.C,C13*
X34780000Y-22390000D03*
X34780000Y-21750000D03*
G04 #@! TD*
D28*
G04 #@! TO.C,C20*
X32980000Y-26320000D03*
X32340000Y-26320000D03*
G04 #@! TD*
G04 #@! TO.C,R7*
X32980000Y-25620000D03*
X32340000Y-25620000D03*
G04 #@! TD*
D25*
G04 #@! TO.C,KiKit_FID_B_2*
X60000000Y-3850000D03*
G04 #@! TD*
D15*
G04 #@! TO.C,J2*
X37330000Y-54980000D03*
G04 #@! TD*
D14*
G04 #@! TO.C,C6*
X41010000Y-52070000D03*
X41010000Y-51430000D03*
G04 #@! TD*
D19*
G04 #@! TO.C,Q6*
X29410000Y-32180000D03*
X29410000Y-32480000D03*
D20*
X29380000Y-32800000D03*
D19*
X28870000Y-32880000D03*
X28870000Y-32580000D03*
D20*
X28900000Y-32250000D03*
G04 #@! TD*
D10*
G04 #@! TO.C,Q4*
X29520000Y-36740000D03*
X29520000Y-37090000D03*
X29520000Y-37440000D03*
X28620000Y-37440000D03*
X28620000Y-37090000D03*
X28620000Y-36740000D03*
G04 #@! TD*
D11*
G04 #@! TO.C,R19*
X30240000Y-15840000D03*
X30240000Y-16480000D03*
G04 #@! TD*
D16*
G04 #@! TO.C,J3*
X27700000Y-49320000D03*
X27700000Y-49670000D03*
X27700000Y-50030000D03*
X27700000Y-50380000D03*
X27700000Y-50730000D03*
X27700000Y-51080000D03*
X27700000Y-51430000D03*
X27700000Y-51780000D03*
X27700000Y-52130000D03*
X27700000Y-52480000D03*
X27700000Y-52830000D03*
X27700000Y-53180000D03*
X25800000Y-53180000D03*
X25800000Y-52830000D03*
X25800000Y-52480000D03*
X25800000Y-52130000D03*
X25800000Y-51780000D03*
X25800000Y-51430000D03*
X25800000Y-51080000D03*
X25800000Y-50730000D03*
X25800000Y-50380000D03*
X25800000Y-50030000D03*
X25800000Y-49670000D03*
X25800000Y-49320000D03*
D17*
X27230000Y-48050000D03*
X26270000Y-48050000D03*
X27230000Y-54460000D03*
X26270000Y-54460000D03*
G04 #@! TD*
D10*
G04 #@! TO.C,Q3*
X29540000Y-17030000D03*
X29540000Y-17380000D03*
X29540000Y-17730000D03*
X28640000Y-17730000D03*
X28640000Y-17380000D03*
X28640000Y-17030000D03*
G04 #@! TD*
D12*
G04 #@! TO.C,U6*
X32590000Y-39750000D03*
X32090000Y-39750000D03*
X31590000Y-39750000D03*
X31090000Y-39750000D03*
X31090000Y-37950000D03*
X31590000Y-37950000D03*
X32090000Y-37950000D03*
X32590000Y-37950000D03*
D13*
X31840000Y-38850000D03*
G04 #@! TD*
D25*
G04 #@! TO.C,KiKit_FID_B_3*
X10000000Y-66150000D03*
G04 #@! TD*
D19*
G04 #@! TO.C,Q7*
X32010000Y-42980000D03*
X32010000Y-43280000D03*
D20*
X31980000Y-43600000D03*
D19*
X31470000Y-43680000D03*
X31470000Y-43380000D03*
D20*
X31500000Y-43050000D03*
G04 #@! TD*
D28*
G04 #@! TO.C,R7*
X32980000Y-14820000D03*
X32340000Y-14820000D03*
G04 #@! TD*
D11*
G04 #@! TO.C,C1*
X41830000Y-36440000D03*
X41830000Y-37080000D03*
G04 #@! TD*
D14*
G04 #@! TO.C,C6*
X41010000Y-30470000D03*
X41010000Y-29830000D03*
G04 #@! TD*
G04 #@! TO.C,R16*
X30220000Y-30080000D03*
X30220000Y-29440000D03*
G04 #@! TD*
D18*
G04 #@! TO.C,D6*
X30775000Y-20170000D03*
X30125000Y-20170000D03*
G04 #@! TD*
D14*
G04 #@! TO.C,C13*
X34780000Y-54790000D03*
X34780000Y-54150000D03*
G04 #@! TD*
G04 #@! TO.C,C6*
X41010000Y-19670000D03*
X41010000Y-19030000D03*
G04 #@! TD*
D19*
G04 #@! TO.C,Q5*
X30710000Y-21380000D03*
X30710000Y-21680000D03*
D20*
X30680000Y-22000000D03*
D19*
X30170000Y-22080000D03*
X30170000Y-21780000D03*
D20*
X30200000Y-21450000D03*
G04 #@! TD*
D15*
G04 #@! TO.C,J2*
X37330000Y-22580000D03*
G04 #@! TD*
D18*
G04 #@! TO.C,D5*
X31525000Y-41770000D03*
X32175000Y-41770000D03*
G04 #@! TD*
D14*
G04 #@! TO.C,C12*
X37650000Y-26280000D03*
X37650000Y-25640000D03*
G04 #@! TD*
D23*
G04 #@! TO.C,U1*
X44250000Y-47275000D03*
X44250000Y-47675000D03*
X44250000Y-48075000D03*
X44250000Y-48475000D03*
X42850000Y-48475000D03*
X42850000Y-48075000D03*
X42850000Y-47675000D03*
X42850000Y-47275000D03*
D24*
X43550000Y-47875000D03*
G04 #@! TD*
D11*
G04 #@! TO.C,R8*
X33710000Y-36440000D03*
X33710000Y-37080000D03*
G04 #@! TD*
D18*
G04 #@! TO.C,D5*
X31525000Y-20170000D03*
X32175000Y-20170000D03*
G04 #@! TD*
D11*
G04 #@! TO.C,C5*
X41010000Y-20430000D03*
X41010000Y-21070000D03*
G04 #@! TD*
D28*
G04 #@! TO.C,C20*
X32980000Y-15520000D03*
X32340000Y-15520000D03*
G04 #@! TD*
D23*
G04 #@! TO.C,U1*
X44250000Y-36475000D03*
X44250000Y-36875000D03*
X44250000Y-37275000D03*
X44250000Y-37675000D03*
X42850000Y-37675000D03*
X42850000Y-37275000D03*
X42850000Y-36875000D03*
X42850000Y-36475000D03*
D24*
X43550000Y-37075000D03*
G04 #@! TD*
D21*
G04 #@! TO.C,R12*
X30940000Y-47440000D03*
X31580000Y-47440000D03*
G04 #@! TD*
D10*
G04 #@! TO.C,Q3*
X29540000Y-27830000D03*
X29540000Y-28180000D03*
X29540000Y-28530000D03*
X28640000Y-28530000D03*
X28640000Y-28180000D03*
X28640000Y-27830000D03*
G04 #@! TD*
D15*
G04 #@! TO.C,J1*
X36050000Y-22580000D03*
G04 #@! TD*
D19*
G04 #@! TO.C,Q1*
X40089896Y-47350000D03*
X40089896Y-47650000D03*
D20*
X40059896Y-47970000D03*
D19*
X39549896Y-48050000D03*
X39549896Y-47750000D03*
D20*
X39579896Y-47420000D03*
G04 #@! TD*
D15*
G04 #@! TO.C,J2*
X37330000Y-44180000D03*
G04 #@! TD*
D29*
G04 #@! TO.C,C2*
X40825000Y-43800000D03*
X39275000Y-43800000D03*
G04 #@! TD*
D28*
G04 #@! TO.C,R5*
X42810000Y-50670000D03*
X42170000Y-50670000D03*
G04 #@! TD*
D10*
G04 #@! TO.C,Q4*
X29520000Y-15140000D03*
X29520000Y-15490000D03*
X29520000Y-15840000D03*
X28620000Y-15840000D03*
X28620000Y-15490000D03*
X28620000Y-15140000D03*
G04 #@! TD*
D14*
G04 #@! TO.C,R15*
X41010000Y-47880000D03*
X41010000Y-47240000D03*
G04 #@! TD*
D19*
G04 #@! TO.C,Q1*
X40089896Y-25750000D03*
X40089896Y-26050000D03*
D20*
X40059896Y-26370000D03*
D19*
X39549896Y-26450000D03*
X39549896Y-26150000D03*
D20*
X39579896Y-25820000D03*
G04 #@! TD*
D21*
G04 #@! TO.C,R12*
X30940000Y-15040000D03*
X31580000Y-15040000D03*
G04 #@! TD*
D11*
G04 #@! TO.C,R2*
X44230000Y-27700000D03*
X44230000Y-28340000D03*
G04 #@! TD*
D28*
G04 #@! TO.C,R5*
X42810000Y-18270000D03*
X42170000Y-18270000D03*
G04 #@! TD*
D22*
G04 #@! TO.C,Y1*
X42440000Y-21800000D03*
X42440000Y-19600000D03*
X44140000Y-19600000D03*
X44140000Y-21800000D03*
G04 #@! TD*
D11*
G04 #@! TO.C,R1*
X43500000Y-49300000D03*
X43500000Y-49940000D03*
G04 #@! TD*
G04 #@! TO.C,R3*
X41980000Y-49300000D03*
X41980000Y-49940000D03*
G04 #@! TD*
G04 #@! TO.C,R19*
X30240000Y-26640000D03*
X30240000Y-27280000D03*
G04 #@! TD*
D10*
G04 #@! TO.C,Q4*
X29520000Y-47540000D03*
X29520000Y-47890000D03*
X29520000Y-48240000D03*
X28620000Y-48240000D03*
X28620000Y-47890000D03*
X28620000Y-47540000D03*
G04 #@! TD*
D11*
G04 #@! TO.C,R18*
X30240000Y-17240000D03*
X30240000Y-17880000D03*
G04 #@! TD*
D14*
G04 #@! TO.C,C12*
X37650000Y-37080000D03*
X37650000Y-36440000D03*
G04 #@! TD*
D11*
G04 #@! TO.C,C1*
X41830000Y-47240000D03*
X41830000Y-47880000D03*
G04 #@! TD*
G04 #@! TO.C,R19*
X30240000Y-37440000D03*
X30240000Y-38080000D03*
G04 #@! TD*
D29*
G04 #@! TO.C,C2*
X40825000Y-22200000D03*
X39275000Y-22200000D03*
G04 #@! TD*
D26*
G04 #@! TO.C,U3*
X40030000Y-38305000D03*
X40030000Y-39575000D03*
X40030000Y-40845000D03*
X40030000Y-42115000D03*
X34630000Y-42115000D03*
X34630000Y-40845000D03*
X34630000Y-39575000D03*
X34630000Y-38305000D03*
D27*
X37330000Y-40210000D03*
G04 #@! TD*
D14*
G04 #@! TO.C,R15*
X41010000Y-37080000D03*
X41010000Y-36440000D03*
G04 #@! TD*
D19*
G04 #@! TO.C,Q7*
X32010000Y-53780000D03*
X32010000Y-54080000D03*
D20*
X31980000Y-54400000D03*
D19*
X31470000Y-54480000D03*
X31470000Y-54180000D03*
D20*
X31500000Y-53850000D03*
G04 #@! TD*
D11*
G04 #@! TO.C,C16*
X38220000Y-54280000D03*
X38220000Y-54920000D03*
G04 #@! TD*
D19*
G04 #@! TO.C,Q2*
X29420000Y-19550000D03*
X29420000Y-19850000D03*
D20*
X29390000Y-20170000D03*
D19*
X28880000Y-20250000D03*
X28880000Y-19950000D03*
D20*
X28910000Y-19620000D03*
G04 #@! TD*
D11*
G04 #@! TO.C,R6*
X41010000Y-27040000D03*
X41010000Y-27680000D03*
G04 #@! TD*
D28*
G04 #@! TO.C,R17*
X31590000Y-51710000D03*
X30950000Y-51710000D03*
G04 #@! TD*
G04 #@! TO.C,R17*
X31590000Y-40910000D03*
X30950000Y-40910000D03*
G04 #@! TD*
D19*
G04 #@! TO.C,Q7*
X32010000Y-32180000D03*
X32010000Y-32480000D03*
D20*
X31980000Y-32800000D03*
D19*
X31470000Y-32880000D03*
X31470000Y-32580000D03*
D20*
X31500000Y-32250000D03*
G04 #@! TD*
D19*
G04 #@! TO.C,Q6*
X29410000Y-53780000D03*
X29410000Y-54080000D03*
D20*
X29380000Y-54400000D03*
D19*
X28870000Y-54480000D03*
X28870000Y-54180000D03*
D20*
X28900000Y-53850000D03*
G04 #@! TD*
D11*
G04 #@! TO.C,R2*
X44230000Y-16900000D03*
X44230000Y-17540000D03*
G04 #@! TD*
D19*
G04 #@! TO.C,Q5*
X30710000Y-53780000D03*
X30710000Y-54080000D03*
D20*
X30680000Y-54400000D03*
D19*
X30170000Y-54480000D03*
X30170000Y-54180000D03*
D20*
X30200000Y-53850000D03*
G04 #@! TD*
D10*
G04 #@! TO.C,Q4*
X29520000Y-25940000D03*
X29520000Y-26290000D03*
X29520000Y-26640000D03*
X28620000Y-26640000D03*
X28620000Y-26290000D03*
X28620000Y-25940000D03*
G04 #@! TD*
D11*
G04 #@! TO.C,R8*
X33710000Y-25640000D03*
X33710000Y-26280000D03*
G04 #@! TD*
D15*
G04 #@! TO.C,J1*
X36050000Y-33380000D03*
G04 #@! TD*
D11*
G04 #@! TO.C,R1*
X43500000Y-27700000D03*
X43500000Y-28340000D03*
G04 #@! TD*
G04 #@! TO.C,R3*
X41980000Y-27700000D03*
X41980000Y-28340000D03*
G04 #@! TD*
D19*
G04 #@! TO.C,Q2*
X29420000Y-51950000D03*
X29420000Y-52250000D03*
D20*
X29390000Y-52570000D03*
D19*
X28880000Y-52650000D03*
X28880000Y-52350000D03*
D20*
X28910000Y-52020000D03*
G04 #@! TD*
D11*
G04 #@! TO.C,R2*
X44230000Y-49300000D03*
X44230000Y-49940000D03*
G04 #@! TD*
D19*
G04 #@! TO.C,Q6*
X29410000Y-21380000D03*
X29410000Y-21680000D03*
D20*
X29380000Y-22000000D03*
D19*
X28870000Y-22080000D03*
X28870000Y-21780000D03*
D20*
X28900000Y-21450000D03*
G04 #@! TD*
D28*
G04 #@! TO.C,C4*
X44210000Y-18270000D03*
X43570000Y-18270000D03*
G04 #@! TD*
D29*
G04 #@! TO.C,C2*
X40825000Y-33000000D03*
X39275000Y-33000000D03*
G04 #@! TD*
D26*
G04 #@! TO.C,U3*
X40030000Y-16705000D03*
X40030000Y-17975000D03*
X40030000Y-19245000D03*
X40030000Y-20515000D03*
X34630000Y-20515000D03*
X34630000Y-19245000D03*
X34630000Y-17975000D03*
X34630000Y-16705000D03*
D27*
X37330000Y-18610000D03*
G04 #@! TD*
D14*
G04 #@! TO.C,C15*
X35110000Y-47880000D03*
X35110000Y-47240000D03*
G04 #@! TD*
D19*
G04 #@! TO.C,Q8*
X33310000Y-53780000D03*
X33310000Y-54080000D03*
D20*
X33280000Y-54400000D03*
D19*
X32770000Y-54480000D03*
X32770000Y-54180000D03*
D20*
X32800000Y-53850000D03*
G04 #@! TD*
D22*
G04 #@! TO.C,Y1*
X42440000Y-54200000D03*
X42440000Y-52000000D03*
X44140000Y-52000000D03*
X44140000Y-54200000D03*
G04 #@! TD*
D19*
G04 #@! TO.C,Q8*
X33310000Y-32180000D03*
X33310000Y-32480000D03*
D20*
X33280000Y-32800000D03*
D19*
X32770000Y-32880000D03*
X32770000Y-32580000D03*
D20*
X32800000Y-32250000D03*
G04 #@! TD*
D19*
G04 #@! TO.C,Q1*
X40089896Y-36550000D03*
X40089896Y-36850000D03*
D20*
X40059896Y-37170000D03*
D19*
X39549896Y-37250000D03*
X39549896Y-36950000D03*
D20*
X39579896Y-36620000D03*
G04 #@! TD*
D14*
G04 #@! TO.C,C3*
X34410000Y-47880000D03*
X34410000Y-47240000D03*
G04 #@! TD*
D22*
G04 #@! TO.C,Y1*
X42440000Y-43400000D03*
X42440000Y-41200000D03*
X44140000Y-41200000D03*
X44140000Y-43400000D03*
G04 #@! TD*
D28*
G04 #@! TO.C,C20*
X32980000Y-47920000D03*
X32340000Y-47920000D03*
G04 #@! TD*
G04 #@! TO.C,R7*
X32980000Y-36420000D03*
X32340000Y-36420000D03*
G04 #@! TD*
G04 #@! TO.C,R5*
X42810000Y-29070000D03*
X42170000Y-29070000D03*
G04 #@! TD*
D18*
G04 #@! TO.C,D5*
X31525000Y-52570000D03*
X32175000Y-52570000D03*
G04 #@! TD*
D19*
G04 #@! TO.C,Q1*
X40089896Y-14950000D03*
X40089896Y-15250000D03*
D20*
X40059896Y-15570000D03*
D19*
X39549896Y-15650000D03*
X39549896Y-15350000D03*
D20*
X39579896Y-15020000D03*
G04 #@! TD*
D28*
G04 #@! TO.C,R5*
X42810000Y-39870000D03*
X42170000Y-39870000D03*
G04 #@! TD*
G04 #@! TO.C,R17*
X31590000Y-30110000D03*
X30950000Y-30110000D03*
G04 #@! TD*
D26*
G04 #@! TO.C,U3*
X40030000Y-27505000D03*
X40030000Y-28775000D03*
X40030000Y-30045000D03*
X40030000Y-31315000D03*
X34630000Y-31315000D03*
X34630000Y-30045000D03*
X34630000Y-28775000D03*
X34630000Y-27505000D03*
D27*
X37330000Y-29410000D03*
G04 #@! TD*
D11*
G04 #@! TO.C,C5*
X41010000Y-42030000D03*
X41010000Y-42670000D03*
G04 #@! TD*
D28*
G04 #@! TO.C,C4*
X44210000Y-50670000D03*
X43570000Y-50670000D03*
G04 #@! TD*
D14*
G04 #@! TO.C,C12*
X37650000Y-15480000D03*
X37650000Y-14840000D03*
G04 #@! TD*
G04 #@! TO.C,R16*
X30220000Y-40880000D03*
X30220000Y-40240000D03*
G04 #@! TD*
D19*
G04 #@! TO.C,Q5*
X30710000Y-42980000D03*
X30710000Y-43280000D03*
D20*
X30680000Y-43600000D03*
D19*
X30170000Y-43680000D03*
X30170000Y-43380000D03*
D20*
X30200000Y-43050000D03*
G04 #@! TD*
D23*
G04 #@! TO.C,U1*
X44250000Y-25675000D03*
X44250000Y-26075000D03*
X44250000Y-26475000D03*
X44250000Y-26875000D03*
X42850000Y-26875000D03*
X42850000Y-26475000D03*
X42850000Y-26075000D03*
X42850000Y-25675000D03*
D24*
X43550000Y-26275000D03*
G04 #@! TD*
D14*
G04 #@! TO.C,R15*
X41010000Y-26280000D03*
X41010000Y-25640000D03*
G04 #@! TD*
D11*
G04 #@! TO.C,R2*
X44230000Y-38500000D03*
X44230000Y-39140000D03*
G04 #@! TD*
D14*
G04 #@! TO.C,C11*
X41009891Y-50677149D03*
X41009891Y-50037149D03*
G04 #@! TD*
D11*
G04 #@! TO.C,R4*
X42700000Y-16900000D03*
X42700000Y-17540000D03*
G04 #@! TD*
D19*
G04 #@! TO.C,Q2*
X29420000Y-41150000D03*
X29420000Y-41450000D03*
D20*
X29390000Y-41770000D03*
D19*
X28880000Y-41850000D03*
X28880000Y-41550000D03*
D20*
X28910000Y-41220000D03*
G04 #@! TD*
D10*
G04 #@! TO.C,Q3*
X29540000Y-38630000D03*
X29540000Y-38980000D03*
X29540000Y-39330000D03*
X28640000Y-39330000D03*
X28640000Y-38980000D03*
X28640000Y-38630000D03*
G04 #@! TD*
D11*
G04 #@! TO.C,C16*
X38220000Y-32680000D03*
X38220000Y-33320000D03*
G04 #@! TD*
G04 #@! TO.C,R3*
X41980000Y-16900000D03*
X41980000Y-17540000D03*
G04 #@! TD*
D18*
G04 #@! TO.C,D6*
X30775000Y-52570000D03*
X30125000Y-52570000D03*
G04 #@! TD*
D11*
G04 #@! TO.C,R3*
X41980000Y-38500000D03*
X41980000Y-39140000D03*
G04 #@! TD*
D28*
G04 #@! TO.C,R17*
X31590000Y-19310000D03*
X30950000Y-19310000D03*
G04 #@! TD*
D11*
G04 #@! TO.C,R18*
X30240000Y-28040000D03*
X30240000Y-28680000D03*
G04 #@! TD*
D14*
G04 #@! TO.C,C3*
X34410000Y-15480000D03*
X34410000Y-14840000D03*
G04 #@! TD*
D11*
G04 #@! TO.C,R8*
X33710000Y-47240000D03*
X33710000Y-47880000D03*
G04 #@! TD*
D19*
G04 #@! TO.C,Q2*
X29420000Y-30350000D03*
X29420000Y-30650000D03*
D20*
X29390000Y-30970000D03*
D19*
X28880000Y-31050000D03*
X28880000Y-30750000D03*
D20*
X28910000Y-30420000D03*
G04 #@! TD*
D29*
G04 #@! TO.C,C2*
X40825000Y-54600000D03*
X39275000Y-54600000D03*
G04 #@! TD*
D14*
G04 #@! TO.C,C3*
X34410000Y-37080000D03*
X34410000Y-36440000D03*
G04 #@! TD*
D25*
G04 #@! TO.C,KiKit_FID_B_4*
X60000000Y-66150000D03*
G04 #@! TD*
D11*
G04 #@! TO.C,R6*
X41010000Y-48640000D03*
X41010000Y-49280000D03*
G04 #@! TD*
D28*
G04 #@! TO.C,C4*
X44210000Y-39870000D03*
X43570000Y-39870000D03*
G04 #@! TD*
D11*
G04 #@! TO.C,C1*
X41830000Y-25640000D03*
X41830000Y-26280000D03*
G04 #@! TD*
D21*
G04 #@! TO.C,R12*
X30940000Y-25840000D03*
X31580000Y-25840000D03*
G04 #@! TD*
D28*
G04 #@! TO.C,C20*
X32980000Y-37120000D03*
X32340000Y-37120000D03*
G04 #@! TD*
D11*
G04 #@! TO.C,R6*
X41010000Y-37840000D03*
X41010000Y-38480000D03*
G04 #@! TD*
G04 #@! TO.C,R19*
X30240000Y-48240000D03*
X30240000Y-48880000D03*
G04 #@! TD*
G04 #@! TO.C,C5*
X41010000Y-52830000D03*
X41010000Y-53470000D03*
G04 #@! TD*
D14*
G04 #@! TO.C,C13*
X34780000Y-33190000D03*
X34780000Y-32550000D03*
G04 #@! TD*
D11*
G04 #@! TO.C,R8*
X33710000Y-14840000D03*
X33710000Y-15480000D03*
G04 #@! TD*
D14*
G04 #@! TO.C,C3*
X34410000Y-26280000D03*
X34410000Y-25640000D03*
G04 #@! TD*
D28*
G04 #@! TO.C,R7*
X32980000Y-47220000D03*
X32340000Y-47220000D03*
G04 #@! TD*
D14*
G04 #@! TO.C,C12*
X37650000Y-47880000D03*
X37650000Y-47240000D03*
G04 #@! TD*
G04 #@! TO.C,C13*
X34780000Y-43990000D03*
X34780000Y-43350000D03*
G04 #@! TD*
D11*
G04 #@! TO.C,C16*
X38220000Y-21880000D03*
X38220000Y-22520000D03*
G04 #@! TD*
M02*
