M48
; DRILL file {KiCad 9.0.0} date 2025-06-25T19:57:04-0400
; FORMAT={-:-/ absolute / metric / decimal}
; #@! TF.CreationDate,2025-06-25T19:57:04-04:00
; #@! TF.GenerationSoftware,Kicad,Pcbnew,9.0.0
; #@! TF.FileFunction,NonPlated,1,6,NPTH
FMAT,2
METRIC
; #@! TA.AperFunction,NonPlated,NPTH,ComponentDrill
T1C0.300
; #@! TA.AperFunction,NonPlated,NPTH,ComponentDrill
T2C1.152
%
G90
G05
T1
X0.0Y-14.4
X0.0Y-55.6
X0.612Y-14.4
X0.612Y-55.6
X1.225Y-14.4
X1.225Y-55.6
X1.837Y-14.4
X1.837Y-55.6
X2.45Y-14.4
X2.45Y-55.6
X3.062Y-14.4
X3.062Y-55.6
X3.675Y-14.4
X3.675Y-55.6
X4.287Y-14.4
X4.287Y-55.6
X4.9Y-14.4
X4.9Y-55.6
X5.513Y-14.4
X5.513Y-55.6
X6.125Y-14.4
X6.125Y-55.6
X6.737Y-14.4
X6.737Y-55.6
X7.35Y-14.4
X7.35Y-55.6
X7.962Y-14.4
X7.962Y-55.6
X8.575Y-14.4
X8.575Y-55.6
X9.188Y-14.4
X9.188Y-55.6
X9.8Y-14.4
X9.8Y-55.6
X10.412Y-14.4
X10.412Y-55.6
X11.025Y-14.4
X11.025Y-55.6
X11.637Y-14.4
X11.637Y-55.6
X12.25Y-14.4
X12.25Y-55.6
X12.862Y-14.4
X12.862Y-55.6
X13.475Y-14.4
X13.475Y-55.6
X14.087Y-14.4
X14.087Y-55.6
X14.7Y-14.4
X14.7Y-55.6
X15.312Y-14.4
X15.312Y-55.6
X15.925Y-14.4
X15.925Y-55.6
X16.537Y-14.4
X16.537Y-55.6
X17.15Y-14.4
X17.15Y-55.6
X17.762Y-14.4
X17.762Y-55.6
X18.375Y-14.4
X18.375Y-55.6
X18.988Y-14.4
X18.988Y-55.6
X19.6Y-14.4
X19.6Y-55.6
X20.212Y-14.4
X20.212Y-55.6
X20.825Y-14.4
X20.825Y-55.6
X21.438Y-14.4
X21.438Y-55.6
X22.05Y-14.4
X22.05Y-55.6
X25.02Y-17.8
X25.02Y-18.467
X25.02Y-19.133
X25.02Y-19.8
X25.02Y-28.6
X25.02Y-29.267
X25.02Y-29.933
X25.02Y-30.6
X25.02Y-39.4
X25.02Y-40.067
X25.02Y-40.733
X25.02Y-41.4
X25.02Y-50.2
X25.02Y-50.867
X25.02Y-51.533
X25.02Y-52.2
X25.05Y0.0
X25.05Y-0.6
X25.05Y-1.2
X25.05Y-1.8
X25.05Y-2.4
X25.05Y-3.0
X25.05Y-3.6
X25.05Y-4.2
X25.05Y-4.8
X25.05Y-5.4
X25.05Y-6.0
X25.05Y-6.6
X25.05Y-7.2
X25.05Y-7.8
X25.05Y-8.4
X25.05Y-9.0
X25.05Y-9.6
X25.05Y-10.2
X25.05Y-10.8
X25.05Y-11.4
X25.05Y-58.6
X25.05Y-59.2
X25.05Y-59.8
X25.05Y-60.4
X25.05Y-61.0
X25.05Y-61.6
X25.05Y-62.2
X25.05Y-62.8
X25.05Y-63.4
X25.05Y-64.0
X25.05Y-64.6
X25.05Y-65.2
X25.05Y-65.8
X25.05Y-66.4
X25.05Y-67.0
X25.05Y-67.6
X25.05Y-68.2
X25.05Y-68.8
X25.05Y-69.4
X25.05Y-70.0
X34.0Y-14.37
X34.0Y-23.23
X34.0Y-25.17
X34.0Y-34.03
X34.0Y-35.97
X34.0Y-44.83
X34.0Y-46.77
X34.0Y-55.63
X34.667Y-14.37
X34.667Y-23.23
X34.667Y-25.17
X34.667Y-34.03
X34.667Y-35.97
X34.667Y-44.83
X34.667Y-46.77
X34.667Y-55.63
X35.333Y-14.37
X35.333Y-23.23
X35.333Y-25.17
X35.333Y-34.03
X35.333Y-35.97
X35.333Y-44.83
X35.333Y-46.77
X35.333Y-55.63
X36.0Y-14.37
X36.0Y-23.23
X36.0Y-25.17
X36.0Y-34.03
X36.0Y-35.97
X36.0Y-44.83
X36.0Y-46.77
X36.0Y-55.63
X44.95Y0.0
X44.95Y-0.6
X44.95Y-1.2
X44.95Y-1.8
X44.95Y-2.4
X44.95Y-3.0
X44.95Y-3.6
X44.95Y-4.2
X44.95Y-4.8
X44.95Y-5.4
X44.95Y-6.0
X44.95Y-6.6
X44.95Y-7.2
X44.95Y-7.8
X44.95Y-8.4
X44.95Y-9.0
X44.95Y-9.6
X44.95Y-10.2
X44.95Y-10.8
X44.95Y-11.4
X44.95Y-58.6
X44.95Y-59.2
X44.95Y-59.8
X44.95Y-60.4
X44.95Y-61.0
X44.95Y-61.6
X44.95Y-62.2
X44.95Y-62.8
X44.95Y-63.4
X44.95Y-64.0
X44.95Y-64.6
X44.95Y-65.2
X44.95Y-65.8
X44.95Y-66.4
X44.95Y-67.0
X44.95Y-67.6
X44.95Y-68.2
X44.95Y-68.8
X44.95Y-69.4
X44.95Y-70.0
X44.98Y-17.8
X44.98Y-18.467
X44.98Y-19.133
X44.98Y-19.8
X44.98Y-28.6
X44.98Y-29.267
X44.98Y-29.933
X44.98Y-30.6
X44.98Y-39.4
X44.98Y-40.067
X44.98Y-40.733
X44.98Y-41.4
X44.98Y-50.2
X44.98Y-50.867
X44.98Y-51.533
X44.98Y-52.2
X47.95Y-14.4
X47.95Y-55.6
X48.562Y-14.4
X48.562Y-55.6
X49.175Y-14.4
X49.175Y-55.6
X49.787Y-14.4
X49.787Y-55.6
X50.4Y-14.4
X50.4Y-55.6
X51.012Y-14.4
X51.012Y-55.6
X51.625Y-14.4
X51.625Y-55.6
X52.237Y-14.4
X52.237Y-55.6
X52.85Y-14.4
X52.85Y-55.6
X53.462Y-14.4
X53.462Y-55.6
X54.075Y-14.4
X54.075Y-55.6
X54.688Y-14.4
X54.688Y-55.6
X55.3Y-14.4
X55.3Y-55.6
X55.912Y-14.4
X55.912Y-55.6
X56.525Y-14.4
X56.525Y-55.6
X57.137Y-14.4
X57.137Y-55.6
X57.75Y-14.4
X57.75Y-55.6
X58.362Y-14.4
X58.362Y-55.6
X58.975Y-14.4
X58.975Y-55.6
X59.587Y-14.4
X59.587Y-55.6
X60.2Y-14.4
X60.2Y-55.6
X60.812Y-14.4
X60.812Y-55.6
X61.425Y-14.4
X61.425Y-55.6
X62.037Y-14.4
X62.037Y-55.6
X62.65Y-14.4
X62.65Y-55.6
X63.262Y-14.4
X63.262Y-55.6
X63.875Y-14.4
X63.875Y-55.6
X64.487Y-14.4
X64.487Y-55.6
X65.1Y-14.4
X65.1Y-55.6
X65.712Y-14.4
X65.712Y-55.6
X66.325Y-14.4
X66.325Y-55.6
X66.938Y-14.4
X66.938Y-55.6
X67.55Y-14.4
X67.55Y-55.6
X68.162Y-14.4
X68.162Y-55.6
X68.775Y-14.4
X68.775Y-55.6
X69.388Y-14.4
X69.388Y-55.6
X70.0Y-14.4
X70.0Y-55.6
T2
X2.0Y-2.0
X2.0Y-68.0
X68.0Y-2.0
M30
