G04 #@! TF.GenerationSoftware,KiCad,Pcbnew,9.0.0*
G04 #@! TF.CreationDate,2025-06-25T20:27:41-04:00*
G04 #@! TF.ProjectId,rp2350-decoder,72703233-3530-42d6-9465-636f6465722e,v0.2.0*
G04 #@! TF.SameCoordinates,Original*
G04 #@! TF.FileFunction,Legend,Bot*
G04 #@! TF.FilePolarity,Positive*
%FSLAX46Y46*%
G04 Gerber Fmt 4.6, Leading zero omitted, Abs format (unit mm)*
G04 Created by KiCad (PCBNEW 9.0.0) date 2025-06-25 20:27:41*
%MOMM*%
%LPD*%
G01*
G04 APERTURE LIST*
%ADD10C,0.200000*%
%ADD11C,0.180000*%
%ADD12C,0.100000*%
%ADD13C,0.120000*%
%ADD14C,0.150000*%
%ADD15C,0.250000*%
G04 APERTURE END LIST*
D10*
G36*
X35530844Y-43201129D02*
G01*
X35530844Y-43419360D01*
X36500000Y-43419360D01*
X36500000Y-43201129D01*
X35530844Y-43201129D01*
G37*
G36*
X34160000Y-38407739D02*
G01*
X34013704Y-38338206D01*
X33833203Y-38262964D01*
X33641273Y-38192678D01*
X33425317Y-38123745D01*
X33425317Y-38344785D01*
X33543347Y-38377636D01*
X33671819Y-38416837D01*
X33798215Y-38457442D01*
X33909895Y-38497315D01*
X33798215Y-38536455D01*
X33671819Y-38577732D01*
X33543347Y-38616872D01*
X33425317Y-38649783D01*
X33425317Y-38865206D01*
X33641273Y-38796273D01*
X33833203Y-38725987D01*
X34013704Y-38650745D01*
X34160000Y-38581212D01*
X34160000Y-38407739D01*
G37*
G36*
X33797789Y-38934082D02*
G01*
X33899636Y-38953093D01*
X33982175Y-38982203D01*
X34048686Y-39020178D01*
X34096401Y-39060851D01*
X34132532Y-39106081D01*
X34158274Y-39156433D01*
X34174064Y-39212923D01*
X34179539Y-39276938D01*
X34174063Y-39340954D01*
X34158273Y-39397437D01*
X34132530Y-39447776D01*
X34096400Y-39492988D01*
X34048686Y-39533637D01*
X33982171Y-39571639D01*
X33899630Y-39600768D01*
X33797785Y-39619790D01*
X33672796Y-39626694D01*
X33548559Y-39619804D01*
X33447156Y-39600803D01*
X33364813Y-39571678D01*
X33298311Y-39533637D01*
X33250571Y-39492984D01*
X33214424Y-39447771D01*
X33188671Y-39397432D01*
X33172874Y-39340950D01*
X33167397Y-39276938D01*
X33347159Y-39276938D01*
X33353241Y-39313327D01*
X33370912Y-39342639D01*
X33398481Y-39365768D01*
X33438018Y-39384649D01*
X33483555Y-39397538D01*
X33540722Y-39406997D01*
X33601706Y-39412172D01*
X33672796Y-39414019D01*
X33743921Y-39412178D01*
X33805542Y-39406997D01*
X33863309Y-39397523D01*
X33908979Y-39384649D01*
X33948464Y-39365772D01*
X33976024Y-39342639D01*
X33993695Y-39313327D01*
X33999776Y-39276938D01*
X33993672Y-39240661D01*
X33976024Y-39211908D01*
X33948558Y-39189202D01*
X33908979Y-39169899D01*
X33863272Y-39156511D01*
X33805542Y-39146818D01*
X33743922Y-39141682D01*
X33672796Y-39139857D01*
X33601706Y-39141688D01*
X33540722Y-39146818D01*
X33483593Y-39156495D01*
X33438018Y-39169899D01*
X33398386Y-39189206D01*
X33370912Y-39211908D01*
X33353263Y-39240661D01*
X33347159Y-39276938D01*
X33167397Y-39276938D01*
X33171260Y-39224612D01*
X33182522Y-39176833D01*
X33200980Y-39132835D01*
X33226433Y-39092433D01*
X33258873Y-39055682D01*
X33298982Y-39022315D01*
X33343579Y-38994799D01*
X33395956Y-38971149D01*
X33457191Y-38951668D01*
X33554784Y-38933673D01*
X33672796Y-38927182D01*
X33797789Y-38934082D01*
G37*
G36*
X34050579Y-39976083D02*
G01*
X34090775Y-39971270D01*
X34122087Y-39957871D01*
X34146627Y-39936211D01*
X34165039Y-39908209D01*
X34175882Y-39878379D01*
X34179539Y-39845963D01*
X34175882Y-39813546D01*
X34165039Y-39783717D01*
X34146627Y-39755715D01*
X34122087Y-39734055D01*
X34090775Y-39720656D01*
X34050579Y-39715842D01*
X34010384Y-39720657D01*
X33979095Y-39734057D01*
X33954591Y-39755715D01*
X33936143Y-39783721D01*
X33925281Y-39813550D01*
X33921618Y-39845963D01*
X33925281Y-39878376D01*
X33936143Y-39908205D01*
X33954591Y-39936211D01*
X33979095Y-39957869D01*
X34010384Y-39971268D01*
X34050579Y-39976083D01*
G37*
G36*
X33444307Y-40711682D02*
G01*
X33496373Y-40706434D01*
X33546400Y-40690677D01*
X33594149Y-40666767D01*
X33640800Y-40636149D01*
X33685107Y-40600691D01*
X33728239Y-40560556D01*
X33807923Y-40478063D01*
X33852009Y-40432573D01*
X33901652Y-40385739D01*
X33948485Y-40345867D01*
X33969742Y-40330817D01*
X33984145Y-40324190D01*
X33984145Y-40741113D01*
X34160000Y-40741113D01*
X34160000Y-40094724D01*
X34120860Y-40091915D01*
X34087276Y-40091915D01*
X34022062Y-40097486D01*
X33964178Y-40113592D01*
X33910074Y-40138669D01*
X33859947Y-40170317D01*
X33813340Y-40207473D01*
X33769699Y-40249330D01*
X33685741Y-40336769D01*
X33624863Y-40399722D01*
X33568932Y-40451502D01*
X33541079Y-40471811D01*
X33514344Y-40486490D01*
X33486638Y-40495979D01*
X33459084Y-40499068D01*
X33419704Y-40494590D01*
X33391821Y-40482640D01*
X33372377Y-40464080D01*
X33353760Y-40425899D01*
X33347159Y-40377313D01*
X33350191Y-40340460D01*
X33359066Y-40306666D01*
X33387093Y-40246521D01*
X33419272Y-40199626D01*
X33445101Y-40170256D01*
X33298921Y-40066758D01*
X33246981Y-40132809D01*
X33204460Y-40210129D01*
X33183955Y-40265737D01*
X33171584Y-40324066D01*
X33167397Y-40385739D01*
X33172659Y-40467763D01*
X33186997Y-40532590D01*
X33211222Y-40589918D01*
X33242196Y-40634012D01*
X33281611Y-40668572D01*
X33328902Y-40692753D01*
X33382069Y-40706749D01*
X33444307Y-40711682D01*
G37*
G36*
X34050579Y-41114255D02*
G01*
X34090775Y-41109442D01*
X34122087Y-41096043D01*
X34146627Y-41074382D01*
X34165039Y-41046380D01*
X34175882Y-41016551D01*
X34179539Y-40984134D01*
X34175882Y-40951718D01*
X34165039Y-40921889D01*
X34146627Y-40893887D01*
X34122087Y-40872226D01*
X34090775Y-40858827D01*
X34050579Y-40854014D01*
X34010384Y-40858829D01*
X33979095Y-40872229D01*
X33954591Y-40893887D01*
X33936143Y-40921893D01*
X33925281Y-40951722D01*
X33921618Y-40984134D01*
X33925281Y-41016547D01*
X33936143Y-41046376D01*
X33954591Y-41074382D01*
X33979095Y-41096040D01*
X34010384Y-41109440D01*
X34050579Y-41114255D01*
G37*
G36*
X33797789Y-41210425D02*
G01*
X33899636Y-41229436D01*
X33982175Y-41258546D01*
X34048686Y-41296521D01*
X34096401Y-41337194D01*
X34132532Y-41382424D01*
X34158274Y-41432777D01*
X34174064Y-41489267D01*
X34179539Y-41553281D01*
X34174063Y-41617297D01*
X34158273Y-41673780D01*
X34132530Y-41724120D01*
X34096400Y-41769331D01*
X34048686Y-41809981D01*
X33982171Y-41847983D01*
X33899630Y-41877111D01*
X33797785Y-41896133D01*
X33672796Y-41903037D01*
X33548559Y-41896147D01*
X33447156Y-41877146D01*
X33364813Y-41848021D01*
X33298311Y-41809981D01*
X33250571Y-41769328D01*
X33214424Y-41724115D01*
X33188671Y-41673775D01*
X33172874Y-41617294D01*
X33167397Y-41553281D01*
X33347159Y-41553281D01*
X33353241Y-41589671D01*
X33370912Y-41618983D01*
X33398481Y-41642112D01*
X33438018Y-41660992D01*
X33483555Y-41673881D01*
X33540722Y-41683341D01*
X33601706Y-41688515D01*
X33672796Y-41690363D01*
X33743921Y-41688521D01*
X33805542Y-41683341D01*
X33863309Y-41673866D01*
X33908979Y-41660992D01*
X33948464Y-41642115D01*
X33976024Y-41618983D01*
X33993695Y-41589671D01*
X33999776Y-41553281D01*
X33993672Y-41517004D01*
X33976024Y-41488252D01*
X33948558Y-41465545D01*
X33908979Y-41446242D01*
X33863272Y-41432854D01*
X33805542Y-41423161D01*
X33743922Y-41418026D01*
X33672796Y-41416200D01*
X33601706Y-41418032D01*
X33540722Y-41423161D01*
X33483593Y-41432838D01*
X33438018Y-41446242D01*
X33398386Y-41465549D01*
X33370912Y-41488252D01*
X33353263Y-41517004D01*
X33347159Y-41553281D01*
X33167397Y-41553281D01*
X33171260Y-41500956D01*
X33182522Y-41453176D01*
X33200980Y-41409178D01*
X33226433Y-41368776D01*
X33258873Y-41332025D01*
X33298982Y-41298658D01*
X33343579Y-41271143D01*
X33395956Y-41247492D01*
X33457191Y-41228011D01*
X33554784Y-41210017D01*
X33672796Y-41203526D01*
X33797789Y-41210425D01*
G37*
G36*
X37809539Y-43400689D02*
G01*
X37803514Y-43304666D01*
X37786505Y-43222563D01*
X37759669Y-43152262D01*
X37723530Y-43091995D01*
X37677953Y-43040431D01*
X37623902Y-42997831D01*
X37561015Y-42963817D01*
X37487944Y-42938454D01*
X37402984Y-42922358D01*
X37304139Y-42916661D01*
X37224594Y-42921104D01*
X37153348Y-42933883D01*
X37089328Y-42954397D01*
X37028617Y-42983241D01*
X36975677Y-43017751D01*
X36929715Y-43057956D01*
X36890000Y-43104305D01*
X36857144Y-43156319D01*
X36830980Y-43214637D01*
X36812529Y-43276109D01*
X36801249Y-43341671D01*
X36797397Y-43411925D01*
X36799782Y-43472031D01*
X36806495Y-43523849D01*
X36827500Y-43611959D01*
X36851985Y-43674913D01*
X36871585Y-43711305D01*
X37046280Y-43648352D01*
X37024747Y-43601258D01*
X37005675Y-43544121D01*
X36993300Y-43482370D01*
X36988883Y-43409116D01*
X36993095Y-43359353D01*
X37005797Y-43310442D01*
X37027666Y-43265136D01*
X37059958Y-43225079D01*
X37101605Y-43192367D01*
X37156372Y-43165606D01*
X37219117Y-43149274D01*
X37299926Y-43143257D01*
X37366131Y-43147027D01*
X37425956Y-43157912D01*
X37481028Y-43177507D01*
X37526584Y-43205478D01*
X37564019Y-43242974D01*
X37593445Y-43291574D01*
X37611495Y-43348261D01*
X37618053Y-43420290D01*
X37612496Y-43505592D01*
X37599185Y-43572758D01*
X37581660Y-43624538D01*
X37563464Y-43665143D01*
X37736755Y-43725288D01*
X37761742Y-43673730D01*
X37787130Y-43595168D01*
X37803579Y-43507615D01*
X37809539Y-43400689D01*
G37*
G36*
X37809539Y-32600689D02*
G01*
X37803514Y-32504666D01*
X37786505Y-32422563D01*
X37759669Y-32352262D01*
X37723530Y-32291995D01*
X37677953Y-32240431D01*
X37623902Y-32197831D01*
X37561015Y-32163817D01*
X37487944Y-32138454D01*
X37402984Y-32122358D01*
X37304139Y-32116661D01*
X37224594Y-32121104D01*
X37153348Y-32133883D01*
X37089328Y-32154397D01*
X37028617Y-32183241D01*
X36975677Y-32217751D01*
X36929715Y-32257956D01*
X36890000Y-32304305D01*
X36857144Y-32356319D01*
X36830980Y-32414637D01*
X36812529Y-32476109D01*
X36801249Y-32541671D01*
X36797397Y-32611925D01*
X36799782Y-32672031D01*
X36806495Y-32723849D01*
X36827500Y-32811959D01*
X36851985Y-32874913D01*
X36871585Y-32911305D01*
X37046280Y-32848352D01*
X37024747Y-32801258D01*
X37005675Y-32744121D01*
X36993300Y-32682370D01*
X36988883Y-32609116D01*
X36993095Y-32559353D01*
X37005797Y-32510442D01*
X37027666Y-32465136D01*
X37059958Y-32425079D01*
X37101605Y-32392367D01*
X37156372Y-32365606D01*
X37219117Y-32349274D01*
X37299926Y-32343257D01*
X37366131Y-32347027D01*
X37425956Y-32357912D01*
X37481028Y-32377507D01*
X37526584Y-32405478D01*
X37564019Y-32442974D01*
X37593445Y-32491574D01*
X37611495Y-32548261D01*
X37618053Y-32620290D01*
X37612496Y-32705592D01*
X37599185Y-32772758D01*
X37581660Y-32824538D01*
X37563464Y-32865143D01*
X37736755Y-32925288D01*
X37761742Y-32873730D01*
X37787130Y-32795168D01*
X37803579Y-32707615D01*
X37809539Y-32600689D01*
G37*
G36*
X37809539Y-54200689D02*
G01*
X37803514Y-54104666D01*
X37786505Y-54022563D01*
X37759669Y-53952262D01*
X37723530Y-53891995D01*
X37677953Y-53840431D01*
X37623902Y-53797831D01*
X37561015Y-53763817D01*
X37487944Y-53738454D01*
X37402984Y-53722358D01*
X37304139Y-53716661D01*
X37224594Y-53721104D01*
X37153348Y-53733883D01*
X37089328Y-53754397D01*
X37028617Y-53783241D01*
X36975677Y-53817751D01*
X36929715Y-53857956D01*
X36890000Y-53904305D01*
X36857144Y-53956319D01*
X36830980Y-54014637D01*
X36812529Y-54076109D01*
X36801249Y-54141671D01*
X36797397Y-54211925D01*
X36799782Y-54272031D01*
X36806495Y-54323849D01*
X36827500Y-54411959D01*
X36851985Y-54474913D01*
X36871585Y-54511305D01*
X37046280Y-54448352D01*
X37024747Y-54401258D01*
X37005675Y-54344121D01*
X36993300Y-54282370D01*
X36988883Y-54209116D01*
X36993095Y-54159353D01*
X37005797Y-54110442D01*
X37027666Y-54065136D01*
X37059958Y-54025079D01*
X37101605Y-53992367D01*
X37156372Y-53965606D01*
X37219117Y-53949274D01*
X37299926Y-53943257D01*
X37366131Y-53947027D01*
X37425956Y-53957912D01*
X37481028Y-53977507D01*
X37526584Y-54005478D01*
X37564019Y-54042974D01*
X37593445Y-54091574D01*
X37611495Y-54148261D01*
X37618053Y-54220290D01*
X37612496Y-54305592D01*
X37599185Y-54372758D01*
X37581660Y-54424538D01*
X37563464Y-54465143D01*
X37736755Y-54525288D01*
X37761742Y-54473730D01*
X37787130Y-54395168D01*
X37803579Y-54307615D01*
X37809539Y-54200689D01*
G37*
G36*
X34160000Y-16807739D02*
G01*
X34013704Y-16738206D01*
X33833203Y-16662964D01*
X33641273Y-16592678D01*
X33425317Y-16523745D01*
X33425317Y-16744785D01*
X33543347Y-16777636D01*
X33671819Y-16816837D01*
X33798215Y-16857442D01*
X33909895Y-16897315D01*
X33798215Y-16936455D01*
X33671819Y-16977732D01*
X33543347Y-17016872D01*
X33425317Y-17049783D01*
X33425317Y-17265206D01*
X33641273Y-17196273D01*
X33833203Y-17125987D01*
X34013704Y-17050745D01*
X34160000Y-16981212D01*
X34160000Y-16807739D01*
G37*
G36*
X33797789Y-17334082D02*
G01*
X33899636Y-17353093D01*
X33982175Y-17382203D01*
X34048686Y-17420178D01*
X34096401Y-17460851D01*
X34132532Y-17506081D01*
X34158274Y-17556433D01*
X34174064Y-17612923D01*
X34179539Y-17676938D01*
X34174063Y-17740954D01*
X34158273Y-17797437D01*
X34132530Y-17847776D01*
X34096400Y-17892988D01*
X34048686Y-17933637D01*
X33982171Y-17971639D01*
X33899630Y-18000768D01*
X33797785Y-18019790D01*
X33672796Y-18026694D01*
X33548559Y-18019804D01*
X33447156Y-18000803D01*
X33364813Y-17971678D01*
X33298311Y-17933637D01*
X33250571Y-17892984D01*
X33214424Y-17847771D01*
X33188671Y-17797432D01*
X33172874Y-17740950D01*
X33167397Y-17676938D01*
X33347159Y-17676938D01*
X33353241Y-17713327D01*
X33370912Y-17742639D01*
X33398481Y-17765768D01*
X33438018Y-17784649D01*
X33483555Y-17797538D01*
X33540722Y-17806997D01*
X33601706Y-17812172D01*
X33672796Y-17814019D01*
X33743921Y-17812178D01*
X33805542Y-17806997D01*
X33863309Y-17797523D01*
X33908979Y-17784649D01*
X33948464Y-17765772D01*
X33976024Y-17742639D01*
X33993695Y-17713327D01*
X33999776Y-17676938D01*
X33993672Y-17640661D01*
X33976024Y-17611908D01*
X33948558Y-17589202D01*
X33908979Y-17569899D01*
X33863272Y-17556511D01*
X33805542Y-17546818D01*
X33743922Y-17541682D01*
X33672796Y-17539857D01*
X33601706Y-17541688D01*
X33540722Y-17546818D01*
X33483593Y-17556495D01*
X33438018Y-17569899D01*
X33398386Y-17589206D01*
X33370912Y-17611908D01*
X33353263Y-17640661D01*
X33347159Y-17676938D01*
X33167397Y-17676938D01*
X33171260Y-17624612D01*
X33182522Y-17576833D01*
X33200980Y-17532835D01*
X33226433Y-17492433D01*
X33258873Y-17455682D01*
X33298982Y-17422315D01*
X33343579Y-17394799D01*
X33395956Y-17371149D01*
X33457191Y-17351668D01*
X33554784Y-17333673D01*
X33672796Y-17327182D01*
X33797789Y-17334082D01*
G37*
G36*
X34050579Y-18376083D02*
G01*
X34090775Y-18371270D01*
X34122087Y-18357871D01*
X34146627Y-18336211D01*
X34165039Y-18308209D01*
X34175882Y-18278379D01*
X34179539Y-18245963D01*
X34175882Y-18213546D01*
X34165039Y-18183717D01*
X34146627Y-18155715D01*
X34122087Y-18134055D01*
X34090775Y-18120656D01*
X34050579Y-18115842D01*
X34010384Y-18120657D01*
X33979095Y-18134057D01*
X33954591Y-18155715D01*
X33936143Y-18183721D01*
X33925281Y-18213550D01*
X33921618Y-18245963D01*
X33925281Y-18278376D01*
X33936143Y-18308205D01*
X33954591Y-18336211D01*
X33979095Y-18357869D01*
X34010384Y-18371268D01*
X34050579Y-18376083D01*
G37*
G36*
X33444307Y-19111682D02*
G01*
X33496373Y-19106434D01*
X33546400Y-19090677D01*
X33594149Y-19066767D01*
X33640800Y-19036149D01*
X33685107Y-19000691D01*
X33728239Y-18960556D01*
X33807923Y-18878063D01*
X33852009Y-18832573D01*
X33901652Y-18785739D01*
X33948485Y-18745867D01*
X33969742Y-18730817D01*
X33984145Y-18724190D01*
X33984145Y-19141113D01*
X34160000Y-19141113D01*
X34160000Y-18494724D01*
X34120860Y-18491915D01*
X34087276Y-18491915D01*
X34022062Y-18497486D01*
X33964178Y-18513592D01*
X33910074Y-18538669D01*
X33859947Y-18570317D01*
X33813340Y-18607473D01*
X33769699Y-18649330D01*
X33685741Y-18736769D01*
X33624863Y-18799722D01*
X33568932Y-18851502D01*
X33541079Y-18871811D01*
X33514344Y-18886490D01*
X33486638Y-18895979D01*
X33459084Y-18899068D01*
X33419704Y-18894590D01*
X33391821Y-18882640D01*
X33372377Y-18864080D01*
X33353760Y-18825899D01*
X33347159Y-18777313D01*
X33350191Y-18740460D01*
X33359066Y-18706666D01*
X33387093Y-18646521D01*
X33419272Y-18599626D01*
X33445101Y-18570256D01*
X33298921Y-18466758D01*
X33246981Y-18532809D01*
X33204460Y-18610129D01*
X33183955Y-18665737D01*
X33171584Y-18724066D01*
X33167397Y-18785739D01*
X33172659Y-18867763D01*
X33186997Y-18932590D01*
X33211222Y-18989918D01*
X33242196Y-19034012D01*
X33281611Y-19068572D01*
X33328902Y-19092753D01*
X33382069Y-19106749D01*
X33444307Y-19111682D01*
G37*
G36*
X34050579Y-19514255D02*
G01*
X34090775Y-19509442D01*
X34122087Y-19496043D01*
X34146627Y-19474382D01*
X34165039Y-19446380D01*
X34175882Y-19416551D01*
X34179539Y-19384134D01*
X34175882Y-19351718D01*
X34165039Y-19321889D01*
X34146627Y-19293887D01*
X34122087Y-19272226D01*
X34090775Y-19258827D01*
X34050579Y-19254014D01*
X34010384Y-19258829D01*
X33979095Y-19272229D01*
X33954591Y-19293887D01*
X33936143Y-19321893D01*
X33925281Y-19351722D01*
X33921618Y-19384134D01*
X33925281Y-19416547D01*
X33936143Y-19446376D01*
X33954591Y-19474382D01*
X33979095Y-19496040D01*
X34010384Y-19509440D01*
X34050579Y-19514255D01*
G37*
G36*
X33797789Y-19610425D02*
G01*
X33899636Y-19629436D01*
X33982175Y-19658546D01*
X34048686Y-19696521D01*
X34096401Y-19737194D01*
X34132532Y-19782424D01*
X34158274Y-19832777D01*
X34174064Y-19889267D01*
X34179539Y-19953281D01*
X34174063Y-20017297D01*
X34158273Y-20073780D01*
X34132530Y-20124120D01*
X34096400Y-20169331D01*
X34048686Y-20209981D01*
X33982171Y-20247983D01*
X33899630Y-20277111D01*
X33797785Y-20296133D01*
X33672796Y-20303037D01*
X33548559Y-20296147D01*
X33447156Y-20277146D01*
X33364813Y-20248021D01*
X33298311Y-20209981D01*
X33250571Y-20169328D01*
X33214424Y-20124115D01*
X33188671Y-20073775D01*
X33172874Y-20017294D01*
X33167397Y-19953281D01*
X33347159Y-19953281D01*
X33353241Y-19989671D01*
X33370912Y-20018983D01*
X33398481Y-20042112D01*
X33438018Y-20060992D01*
X33483555Y-20073881D01*
X33540722Y-20083341D01*
X33601706Y-20088515D01*
X33672796Y-20090363D01*
X33743921Y-20088521D01*
X33805542Y-20083341D01*
X33863309Y-20073866D01*
X33908979Y-20060992D01*
X33948464Y-20042115D01*
X33976024Y-20018983D01*
X33993695Y-19989671D01*
X33999776Y-19953281D01*
X33993672Y-19917004D01*
X33976024Y-19888252D01*
X33948558Y-19865545D01*
X33908979Y-19846242D01*
X33863272Y-19832854D01*
X33805542Y-19823161D01*
X33743922Y-19818026D01*
X33672796Y-19816200D01*
X33601706Y-19818032D01*
X33540722Y-19823161D01*
X33483593Y-19832838D01*
X33438018Y-19846242D01*
X33398386Y-19865549D01*
X33370912Y-19888252D01*
X33353263Y-19917004D01*
X33347159Y-19953281D01*
X33167397Y-19953281D01*
X33171260Y-19900956D01*
X33182522Y-19853176D01*
X33200980Y-19809178D01*
X33226433Y-19768776D01*
X33258873Y-19732025D01*
X33298982Y-19698658D01*
X33343579Y-19671143D01*
X33395956Y-19647492D01*
X33457191Y-19628011D01*
X33554784Y-19610017D01*
X33672796Y-19603526D01*
X33797789Y-19610425D01*
G37*
D11*
G36*
X37405744Y-47075844D02*
G01*
X37347737Y-47189966D01*
X37279165Y-47337001D01*
X37208518Y-47498750D01*
X37142756Y-47654211D01*
X37076993Y-47498750D01*
X37006346Y-47337001D01*
X36937775Y-47189966D01*
X36879706Y-47075844D01*
X36681076Y-47075844D01*
X36655186Y-47291938D01*
X36634242Y-47540882D01*
X36617450Y-47800268D01*
X36604139Y-48045000D01*
X36816753Y-48045000D01*
X36827988Y-47737376D01*
X36848932Y-47401786D01*
X36904924Y-47532334D01*
X36965802Y-47675460D01*
X37023810Y-47812297D01*
X37071376Y-47923855D01*
X37223905Y-47923855D01*
X37271472Y-47812297D01*
X37329540Y-47675460D01*
X37390418Y-47532334D01*
X37446350Y-47401786D01*
X37467355Y-47737376D01*
X37478529Y-48045000D01*
X37691142Y-48045000D01*
X37677831Y-47800268D01*
X37661100Y-47540882D01*
X37640095Y-47291938D01*
X37614206Y-47075844D01*
X37405744Y-47075844D01*
G37*
G36*
X36143375Y-47876960D02*
G01*
X36099248Y-47874846D01*
X36067171Y-47869328D01*
X36039033Y-47859801D01*
X36018872Y-47848384D01*
X36003249Y-47833632D01*
X35993715Y-47817060D01*
X35986693Y-47776577D01*
X35991503Y-47747237D01*
X36005908Y-47721378D01*
X36031451Y-47697869D01*
X36085118Y-47668448D01*
X36185324Y-47630092D01*
X36280456Y-47591624D01*
X36325801Y-47567013D01*
X36365819Y-47537096D01*
X36399891Y-47500987D01*
X36427368Y-47457412D01*
X36444806Y-47407227D01*
X36451121Y-47343351D01*
X36444640Y-47278599D01*
X36425964Y-47222329D01*
X36395521Y-47172518D01*
X36354584Y-47130737D01*
X36304512Y-47097838D01*
X36242660Y-47072669D01*
X36174417Y-47057700D01*
X36094404Y-47052397D01*
X36000070Y-47058034D01*
X35925144Y-47073401D01*
X35857389Y-47096474D01*
X35807602Y-47119563D01*
X35870556Y-47293098D01*
X35912604Y-47273698D01*
X35960804Y-47256095D01*
X36013233Y-47244320D01*
X36080360Y-47239975D01*
X36132732Y-47242990D01*
X36168910Y-47250709D01*
X36193017Y-47261591D01*
X36211934Y-47278406D01*
X36223257Y-47299949D01*
X36227273Y-47327780D01*
X36223980Y-47352706D01*
X36214694Y-47372416D01*
X36199972Y-47389235D01*
X36179035Y-47405205D01*
X36125912Y-47431706D01*
X36059417Y-47456191D01*
X35927953Y-47511451D01*
X35875629Y-47541704D01*
X35834896Y-47575076D01*
X35802572Y-47614533D01*
X35779636Y-47660378D01*
X35766342Y-47712284D01*
X35761440Y-47779202D01*
X35767817Y-47845380D01*
X35785949Y-47901266D01*
X35815289Y-47948932D01*
X35856573Y-47989740D01*
X35905229Y-48020086D01*
X35967176Y-48043486D01*
X36045381Y-48058898D01*
X36143375Y-48064539D01*
X36206174Y-48062509D01*
X36259513Y-48056845D01*
X36351104Y-48037978D01*
X36419675Y-48014164D01*
X36467913Y-47990350D01*
X36406364Y-47815411D01*
X36360023Y-47837123D01*
X36299385Y-47858093D01*
X36231920Y-47871824D01*
X36143375Y-47876960D01*
G37*
D10*
G36*
X34160000Y-49207739D02*
G01*
X34013704Y-49138206D01*
X33833203Y-49062964D01*
X33641273Y-48992678D01*
X33425317Y-48923745D01*
X33425317Y-49144785D01*
X33543347Y-49177636D01*
X33671819Y-49216837D01*
X33798215Y-49257442D01*
X33909895Y-49297315D01*
X33798215Y-49336455D01*
X33671819Y-49377732D01*
X33543347Y-49416872D01*
X33425317Y-49449783D01*
X33425317Y-49665206D01*
X33641273Y-49596273D01*
X33833203Y-49525987D01*
X34013704Y-49450745D01*
X34160000Y-49381212D01*
X34160000Y-49207739D01*
G37*
G36*
X33797789Y-49734082D02*
G01*
X33899636Y-49753093D01*
X33982175Y-49782203D01*
X34048686Y-49820178D01*
X34096401Y-49860851D01*
X34132532Y-49906081D01*
X34158274Y-49956433D01*
X34174064Y-50012923D01*
X34179539Y-50076938D01*
X34174063Y-50140954D01*
X34158273Y-50197437D01*
X34132530Y-50247776D01*
X34096400Y-50292988D01*
X34048686Y-50333637D01*
X33982171Y-50371639D01*
X33899630Y-50400768D01*
X33797785Y-50419790D01*
X33672796Y-50426694D01*
X33548559Y-50419804D01*
X33447156Y-50400803D01*
X33364813Y-50371678D01*
X33298311Y-50333637D01*
X33250571Y-50292984D01*
X33214424Y-50247771D01*
X33188671Y-50197432D01*
X33172874Y-50140950D01*
X33167397Y-50076938D01*
X33347159Y-50076938D01*
X33353241Y-50113327D01*
X33370912Y-50142639D01*
X33398481Y-50165768D01*
X33438018Y-50184649D01*
X33483555Y-50197538D01*
X33540722Y-50206997D01*
X33601706Y-50212172D01*
X33672796Y-50214019D01*
X33743921Y-50212178D01*
X33805542Y-50206997D01*
X33863309Y-50197523D01*
X33908979Y-50184649D01*
X33948464Y-50165772D01*
X33976024Y-50142639D01*
X33993695Y-50113327D01*
X33999776Y-50076938D01*
X33993672Y-50040661D01*
X33976024Y-50011908D01*
X33948558Y-49989202D01*
X33908979Y-49969899D01*
X33863272Y-49956511D01*
X33805542Y-49946818D01*
X33743922Y-49941682D01*
X33672796Y-49939857D01*
X33601706Y-49941688D01*
X33540722Y-49946818D01*
X33483593Y-49956495D01*
X33438018Y-49969899D01*
X33398386Y-49989206D01*
X33370912Y-50011908D01*
X33353263Y-50040661D01*
X33347159Y-50076938D01*
X33167397Y-50076938D01*
X33171260Y-50024612D01*
X33182522Y-49976833D01*
X33200980Y-49932835D01*
X33226433Y-49892433D01*
X33258873Y-49855682D01*
X33298982Y-49822315D01*
X33343579Y-49794799D01*
X33395956Y-49771149D01*
X33457191Y-49751668D01*
X33554784Y-49733673D01*
X33672796Y-49727182D01*
X33797789Y-49734082D01*
G37*
G36*
X34050579Y-50776083D02*
G01*
X34090775Y-50771270D01*
X34122087Y-50757871D01*
X34146627Y-50736211D01*
X34165039Y-50708209D01*
X34175882Y-50678379D01*
X34179539Y-50645963D01*
X34175882Y-50613546D01*
X34165039Y-50583717D01*
X34146627Y-50555715D01*
X34122087Y-50534055D01*
X34090775Y-50520656D01*
X34050579Y-50515842D01*
X34010384Y-50520657D01*
X33979095Y-50534057D01*
X33954591Y-50555715D01*
X33936143Y-50583721D01*
X33925281Y-50613550D01*
X33921618Y-50645963D01*
X33925281Y-50678376D01*
X33936143Y-50708205D01*
X33954591Y-50736211D01*
X33979095Y-50757869D01*
X34010384Y-50771268D01*
X34050579Y-50776083D01*
G37*
G36*
X33444307Y-51511682D02*
G01*
X33496373Y-51506434D01*
X33546400Y-51490677D01*
X33594149Y-51466767D01*
X33640800Y-51436149D01*
X33685107Y-51400691D01*
X33728239Y-51360556D01*
X33807923Y-51278063D01*
X33852009Y-51232573D01*
X33901652Y-51185739D01*
X33948485Y-51145867D01*
X33969742Y-51130817D01*
X33984145Y-51124190D01*
X33984145Y-51541113D01*
X34160000Y-51541113D01*
X34160000Y-50894724D01*
X34120860Y-50891915D01*
X34087276Y-50891915D01*
X34022062Y-50897486D01*
X33964178Y-50913592D01*
X33910074Y-50938669D01*
X33859947Y-50970317D01*
X33813340Y-51007473D01*
X33769699Y-51049330D01*
X33685741Y-51136769D01*
X33624863Y-51199722D01*
X33568932Y-51251502D01*
X33541079Y-51271811D01*
X33514344Y-51286490D01*
X33486638Y-51295979D01*
X33459084Y-51299068D01*
X33419704Y-51294590D01*
X33391821Y-51282640D01*
X33372377Y-51264080D01*
X33353760Y-51225899D01*
X33347159Y-51177313D01*
X33350191Y-51140460D01*
X33359066Y-51106666D01*
X33387093Y-51046521D01*
X33419272Y-50999626D01*
X33445101Y-50970256D01*
X33298921Y-50866758D01*
X33246981Y-50932809D01*
X33204460Y-51010129D01*
X33183955Y-51065737D01*
X33171584Y-51124066D01*
X33167397Y-51185739D01*
X33172659Y-51267763D01*
X33186997Y-51332590D01*
X33211222Y-51389918D01*
X33242196Y-51434012D01*
X33281611Y-51468572D01*
X33328902Y-51492753D01*
X33382069Y-51506749D01*
X33444307Y-51511682D01*
G37*
G36*
X34050579Y-51914255D02*
G01*
X34090775Y-51909442D01*
X34122087Y-51896043D01*
X34146627Y-51874382D01*
X34165039Y-51846380D01*
X34175882Y-51816551D01*
X34179539Y-51784134D01*
X34175882Y-51751718D01*
X34165039Y-51721889D01*
X34146627Y-51693887D01*
X34122087Y-51672226D01*
X34090775Y-51658827D01*
X34050579Y-51654014D01*
X34010384Y-51658829D01*
X33979095Y-51672229D01*
X33954591Y-51693887D01*
X33936143Y-51721893D01*
X33925281Y-51751722D01*
X33921618Y-51784134D01*
X33925281Y-51816547D01*
X33936143Y-51846376D01*
X33954591Y-51874382D01*
X33979095Y-51896040D01*
X34010384Y-51909440D01*
X34050579Y-51914255D01*
G37*
G36*
X33797789Y-52010425D02*
G01*
X33899636Y-52029436D01*
X33982175Y-52058546D01*
X34048686Y-52096521D01*
X34096401Y-52137194D01*
X34132532Y-52182424D01*
X34158274Y-52232777D01*
X34174064Y-52289267D01*
X34179539Y-52353281D01*
X34174063Y-52417297D01*
X34158273Y-52473780D01*
X34132530Y-52524120D01*
X34096400Y-52569331D01*
X34048686Y-52609981D01*
X33982171Y-52647983D01*
X33899630Y-52677111D01*
X33797785Y-52696133D01*
X33672796Y-52703037D01*
X33548559Y-52696147D01*
X33447156Y-52677146D01*
X33364813Y-52648021D01*
X33298311Y-52609981D01*
X33250571Y-52569328D01*
X33214424Y-52524115D01*
X33188671Y-52473775D01*
X33172874Y-52417294D01*
X33167397Y-52353281D01*
X33347159Y-52353281D01*
X33353241Y-52389671D01*
X33370912Y-52418983D01*
X33398481Y-52442112D01*
X33438018Y-52460992D01*
X33483555Y-52473881D01*
X33540722Y-52483341D01*
X33601706Y-52488515D01*
X33672796Y-52490363D01*
X33743921Y-52488521D01*
X33805542Y-52483341D01*
X33863309Y-52473866D01*
X33908979Y-52460992D01*
X33948464Y-52442115D01*
X33976024Y-52418983D01*
X33993695Y-52389671D01*
X33999776Y-52353281D01*
X33993672Y-52317004D01*
X33976024Y-52288252D01*
X33948558Y-52265545D01*
X33908979Y-52246242D01*
X33863272Y-52232854D01*
X33805542Y-52223161D01*
X33743922Y-52218026D01*
X33672796Y-52216200D01*
X33601706Y-52218032D01*
X33540722Y-52223161D01*
X33483593Y-52232838D01*
X33438018Y-52246242D01*
X33398386Y-52265549D01*
X33370912Y-52288252D01*
X33353263Y-52317004D01*
X33347159Y-52353281D01*
X33167397Y-52353281D01*
X33171260Y-52300956D01*
X33182522Y-52253176D01*
X33200980Y-52209178D01*
X33226433Y-52168776D01*
X33258873Y-52132025D01*
X33298982Y-52098658D01*
X33343579Y-52071143D01*
X33395956Y-52047492D01*
X33457191Y-52028011D01*
X33554784Y-52010017D01*
X33672796Y-52003526D01*
X33797789Y-52010425D01*
G37*
D11*
G36*
X37954816Y-36646552D02*
G01*
X38072358Y-36646552D01*
X38072358Y-36529071D01*
X38187030Y-36529071D01*
X38187030Y-36646552D01*
X38304572Y-36646552D01*
X38304572Y-36529071D01*
X38422113Y-36529071D01*
X38422113Y-36646552D01*
X38536785Y-36646552D01*
X38536785Y-36529071D01*
X38654327Y-36529071D01*
X38654327Y-36646552D01*
X38771869Y-36646552D01*
X38771869Y-36529071D01*
X38886541Y-36529071D01*
X38886541Y-36646552D01*
X39004083Y-36646552D01*
X39004083Y-36529071D01*
X39121625Y-36529071D01*
X39121625Y-37228583D01*
X39004083Y-37228583D01*
X39004083Y-37111041D01*
X38886541Y-37111041D01*
X38886541Y-37228583D01*
X38771869Y-37228583D01*
X38771869Y-37111041D01*
X38654327Y-37111041D01*
X38654327Y-37228583D01*
X38536785Y-37228583D01*
X38536785Y-37111041D01*
X38422113Y-37111041D01*
X38422113Y-37228583D01*
X38304572Y-37228583D01*
X38304572Y-37111041D01*
X38187030Y-37111041D01*
X38187030Y-37228583D01*
X38072358Y-37228583D01*
X38072358Y-37111041D01*
X37954816Y-37111041D01*
X37954816Y-37228583D01*
X37837274Y-37228583D01*
X37837274Y-36996308D01*
X37954816Y-36996308D01*
X38072358Y-36996308D01*
X38187030Y-36996308D01*
X38304572Y-36996308D01*
X38422113Y-36996308D01*
X38536785Y-36996308D01*
X38654327Y-36996308D01*
X38771869Y-36996308D01*
X38886541Y-36996308D01*
X39004083Y-36996308D01*
X39004083Y-36761285D01*
X38886541Y-36761285D01*
X38886541Y-36996308D01*
X38771869Y-36996308D01*
X38771869Y-36761285D01*
X38654327Y-36761285D01*
X38654327Y-36996308D01*
X38536785Y-36996308D01*
X38536785Y-36761285D01*
X38422113Y-36761285D01*
X38422113Y-36996308D01*
X38304572Y-36996308D01*
X38304572Y-36761285D01*
X38187030Y-36761285D01*
X38187030Y-36996308D01*
X38072358Y-36996308D01*
X38072358Y-36761285D01*
X37954816Y-36761285D01*
X37954816Y-36996308D01*
X37837274Y-36996308D01*
X37837274Y-36529071D01*
X37954816Y-36529071D01*
X37954816Y-36646552D01*
G37*
G36*
X38536785Y-36236652D02*
G01*
X38771869Y-36236652D01*
X38422113Y-36411530D01*
X38422113Y-36296796D01*
X38187030Y-36296796D01*
X38536785Y-36121919D01*
X38536785Y-36236652D01*
G37*
D10*
G36*
X34160000Y-27607739D02*
G01*
X34013704Y-27538206D01*
X33833203Y-27462964D01*
X33641273Y-27392678D01*
X33425317Y-27323745D01*
X33425317Y-27544785D01*
X33543347Y-27577636D01*
X33671819Y-27616837D01*
X33798215Y-27657442D01*
X33909895Y-27697315D01*
X33798215Y-27736455D01*
X33671819Y-27777732D01*
X33543347Y-27816872D01*
X33425317Y-27849783D01*
X33425317Y-28065206D01*
X33641273Y-27996273D01*
X33833203Y-27925987D01*
X34013704Y-27850745D01*
X34160000Y-27781212D01*
X34160000Y-27607739D01*
G37*
G36*
X33797789Y-28134082D02*
G01*
X33899636Y-28153093D01*
X33982175Y-28182203D01*
X34048686Y-28220178D01*
X34096401Y-28260851D01*
X34132532Y-28306081D01*
X34158274Y-28356433D01*
X34174064Y-28412923D01*
X34179539Y-28476938D01*
X34174063Y-28540954D01*
X34158273Y-28597437D01*
X34132530Y-28647776D01*
X34096400Y-28692988D01*
X34048686Y-28733637D01*
X33982171Y-28771639D01*
X33899630Y-28800768D01*
X33797785Y-28819790D01*
X33672796Y-28826694D01*
X33548559Y-28819804D01*
X33447156Y-28800803D01*
X33364813Y-28771678D01*
X33298311Y-28733637D01*
X33250571Y-28692984D01*
X33214424Y-28647771D01*
X33188671Y-28597432D01*
X33172874Y-28540950D01*
X33167397Y-28476938D01*
X33347159Y-28476938D01*
X33353241Y-28513327D01*
X33370912Y-28542639D01*
X33398481Y-28565768D01*
X33438018Y-28584649D01*
X33483555Y-28597538D01*
X33540722Y-28606997D01*
X33601706Y-28612172D01*
X33672796Y-28614019D01*
X33743921Y-28612178D01*
X33805542Y-28606997D01*
X33863309Y-28597523D01*
X33908979Y-28584649D01*
X33948464Y-28565772D01*
X33976024Y-28542639D01*
X33993695Y-28513327D01*
X33999776Y-28476938D01*
X33993672Y-28440661D01*
X33976024Y-28411908D01*
X33948558Y-28389202D01*
X33908979Y-28369899D01*
X33863272Y-28356511D01*
X33805542Y-28346818D01*
X33743922Y-28341682D01*
X33672796Y-28339857D01*
X33601706Y-28341688D01*
X33540722Y-28346818D01*
X33483593Y-28356495D01*
X33438018Y-28369899D01*
X33398386Y-28389206D01*
X33370912Y-28411908D01*
X33353263Y-28440661D01*
X33347159Y-28476938D01*
X33167397Y-28476938D01*
X33171260Y-28424612D01*
X33182522Y-28376833D01*
X33200980Y-28332835D01*
X33226433Y-28292433D01*
X33258873Y-28255682D01*
X33298982Y-28222315D01*
X33343579Y-28194799D01*
X33395956Y-28171149D01*
X33457191Y-28151668D01*
X33554784Y-28133673D01*
X33672796Y-28127182D01*
X33797789Y-28134082D01*
G37*
G36*
X34050579Y-29176083D02*
G01*
X34090775Y-29171270D01*
X34122087Y-29157871D01*
X34146627Y-29136211D01*
X34165039Y-29108209D01*
X34175882Y-29078379D01*
X34179539Y-29045963D01*
X34175882Y-29013546D01*
X34165039Y-28983717D01*
X34146627Y-28955715D01*
X34122087Y-28934055D01*
X34090775Y-28920656D01*
X34050579Y-28915842D01*
X34010384Y-28920657D01*
X33979095Y-28934057D01*
X33954591Y-28955715D01*
X33936143Y-28983721D01*
X33925281Y-29013550D01*
X33921618Y-29045963D01*
X33925281Y-29078376D01*
X33936143Y-29108205D01*
X33954591Y-29136211D01*
X33979095Y-29157869D01*
X34010384Y-29171268D01*
X34050579Y-29176083D01*
G37*
G36*
X33444307Y-29911682D02*
G01*
X33496373Y-29906434D01*
X33546400Y-29890677D01*
X33594149Y-29866767D01*
X33640800Y-29836149D01*
X33685107Y-29800691D01*
X33728239Y-29760556D01*
X33807923Y-29678063D01*
X33852009Y-29632573D01*
X33901652Y-29585739D01*
X33948485Y-29545867D01*
X33969742Y-29530817D01*
X33984145Y-29524190D01*
X33984145Y-29941113D01*
X34160000Y-29941113D01*
X34160000Y-29294724D01*
X34120860Y-29291915D01*
X34087276Y-29291915D01*
X34022062Y-29297486D01*
X33964178Y-29313592D01*
X33910074Y-29338669D01*
X33859947Y-29370317D01*
X33813340Y-29407473D01*
X33769699Y-29449330D01*
X33685741Y-29536769D01*
X33624863Y-29599722D01*
X33568932Y-29651502D01*
X33541079Y-29671811D01*
X33514344Y-29686490D01*
X33486638Y-29695979D01*
X33459084Y-29699068D01*
X33419704Y-29694590D01*
X33391821Y-29682640D01*
X33372377Y-29664080D01*
X33353760Y-29625899D01*
X33347159Y-29577313D01*
X33350191Y-29540460D01*
X33359066Y-29506666D01*
X33387093Y-29446521D01*
X33419272Y-29399626D01*
X33445101Y-29370256D01*
X33298921Y-29266758D01*
X33246981Y-29332809D01*
X33204460Y-29410129D01*
X33183955Y-29465737D01*
X33171584Y-29524066D01*
X33167397Y-29585739D01*
X33172659Y-29667763D01*
X33186997Y-29732590D01*
X33211222Y-29789918D01*
X33242196Y-29834012D01*
X33281611Y-29868572D01*
X33328902Y-29892753D01*
X33382069Y-29906749D01*
X33444307Y-29911682D01*
G37*
G36*
X34050579Y-30314255D02*
G01*
X34090775Y-30309442D01*
X34122087Y-30296043D01*
X34146627Y-30274382D01*
X34165039Y-30246380D01*
X34175882Y-30216551D01*
X34179539Y-30184134D01*
X34175882Y-30151718D01*
X34165039Y-30121889D01*
X34146627Y-30093887D01*
X34122087Y-30072226D01*
X34090775Y-30058827D01*
X34050579Y-30054014D01*
X34010384Y-30058829D01*
X33979095Y-30072229D01*
X33954591Y-30093887D01*
X33936143Y-30121893D01*
X33925281Y-30151722D01*
X33921618Y-30184134D01*
X33925281Y-30216547D01*
X33936143Y-30246376D01*
X33954591Y-30274382D01*
X33979095Y-30296040D01*
X34010384Y-30309440D01*
X34050579Y-30314255D01*
G37*
G36*
X33797789Y-30410425D02*
G01*
X33899636Y-30429436D01*
X33982175Y-30458546D01*
X34048686Y-30496521D01*
X34096401Y-30537194D01*
X34132532Y-30582424D01*
X34158274Y-30632777D01*
X34174064Y-30689267D01*
X34179539Y-30753281D01*
X34174063Y-30817297D01*
X34158273Y-30873780D01*
X34132530Y-30924120D01*
X34096400Y-30969331D01*
X34048686Y-31009981D01*
X33982171Y-31047983D01*
X33899630Y-31077111D01*
X33797785Y-31096133D01*
X33672796Y-31103037D01*
X33548559Y-31096147D01*
X33447156Y-31077146D01*
X33364813Y-31048021D01*
X33298311Y-31009981D01*
X33250571Y-30969328D01*
X33214424Y-30924115D01*
X33188671Y-30873775D01*
X33172874Y-30817294D01*
X33167397Y-30753281D01*
X33347159Y-30753281D01*
X33353241Y-30789671D01*
X33370912Y-30818983D01*
X33398481Y-30842112D01*
X33438018Y-30860992D01*
X33483555Y-30873881D01*
X33540722Y-30883341D01*
X33601706Y-30888515D01*
X33672796Y-30890363D01*
X33743921Y-30888521D01*
X33805542Y-30883341D01*
X33863309Y-30873866D01*
X33908979Y-30860992D01*
X33948464Y-30842115D01*
X33976024Y-30818983D01*
X33993695Y-30789671D01*
X33999776Y-30753281D01*
X33993672Y-30717004D01*
X33976024Y-30688252D01*
X33948558Y-30665545D01*
X33908979Y-30646242D01*
X33863272Y-30632854D01*
X33805542Y-30623161D01*
X33743922Y-30618026D01*
X33672796Y-30616200D01*
X33601706Y-30618032D01*
X33540722Y-30623161D01*
X33483593Y-30632838D01*
X33438018Y-30646242D01*
X33398386Y-30665549D01*
X33370912Y-30688252D01*
X33353263Y-30717004D01*
X33347159Y-30753281D01*
X33167397Y-30753281D01*
X33171260Y-30700956D01*
X33182522Y-30653176D01*
X33200980Y-30609178D01*
X33226433Y-30568776D01*
X33258873Y-30532025D01*
X33298982Y-30498658D01*
X33343579Y-30471143D01*
X33395956Y-30447492D01*
X33457191Y-30428011D01*
X33554784Y-30410017D01*
X33672796Y-30403526D01*
X33797789Y-30410425D01*
G37*
D11*
G36*
X37954816Y-47446552D02*
G01*
X38072358Y-47446552D01*
X38072358Y-47329071D01*
X38187030Y-47329071D01*
X38187030Y-47446552D01*
X38304572Y-47446552D01*
X38304572Y-47329071D01*
X38422113Y-47329071D01*
X38422113Y-47446552D01*
X38536785Y-47446552D01*
X38536785Y-47329071D01*
X38654327Y-47329071D01*
X38654327Y-47446552D01*
X38771869Y-47446552D01*
X38771869Y-47329071D01*
X38886541Y-47329071D01*
X38886541Y-47446552D01*
X39004083Y-47446552D01*
X39004083Y-47329071D01*
X39121625Y-47329071D01*
X39121625Y-48028583D01*
X39004083Y-48028583D01*
X39004083Y-47911041D01*
X38886541Y-47911041D01*
X38886541Y-48028583D01*
X38771869Y-48028583D01*
X38771869Y-47911041D01*
X38654327Y-47911041D01*
X38654327Y-48028583D01*
X38536785Y-48028583D01*
X38536785Y-47911041D01*
X38422113Y-47911041D01*
X38422113Y-48028583D01*
X38304572Y-48028583D01*
X38304572Y-47911041D01*
X38187030Y-47911041D01*
X38187030Y-48028583D01*
X38072358Y-48028583D01*
X38072358Y-47911041D01*
X37954816Y-47911041D01*
X37954816Y-48028583D01*
X37837274Y-48028583D01*
X37837274Y-47796308D01*
X37954816Y-47796308D01*
X38072358Y-47796308D01*
X38187030Y-47796308D01*
X38304572Y-47796308D01*
X38422113Y-47796308D01*
X38536785Y-47796308D01*
X38654327Y-47796308D01*
X38771869Y-47796308D01*
X38886541Y-47796308D01*
X39004083Y-47796308D01*
X39004083Y-47561285D01*
X38886541Y-47561285D01*
X38886541Y-47796308D01*
X38771869Y-47796308D01*
X38771869Y-47561285D01*
X38654327Y-47561285D01*
X38654327Y-47796308D01*
X38536785Y-47796308D01*
X38536785Y-47561285D01*
X38422113Y-47561285D01*
X38422113Y-47796308D01*
X38304572Y-47796308D01*
X38304572Y-47561285D01*
X38187030Y-47561285D01*
X38187030Y-47796308D01*
X38072358Y-47796308D01*
X38072358Y-47561285D01*
X37954816Y-47561285D01*
X37954816Y-47796308D01*
X37837274Y-47796308D01*
X37837274Y-47329071D01*
X37954816Y-47329071D01*
X37954816Y-47446552D01*
G37*
G36*
X38536785Y-47036652D02*
G01*
X38771869Y-47036652D01*
X38422113Y-47211530D01*
X38422113Y-47096796D01*
X38187030Y-47096796D01*
X38536785Y-46921919D01*
X38536785Y-47036652D01*
G37*
G36*
X37954816Y-15046552D02*
G01*
X38072358Y-15046552D01*
X38072358Y-14929071D01*
X38187030Y-14929071D01*
X38187030Y-15046552D01*
X38304572Y-15046552D01*
X38304572Y-14929071D01*
X38422113Y-14929071D01*
X38422113Y-15046552D01*
X38536785Y-15046552D01*
X38536785Y-14929071D01*
X38654327Y-14929071D01*
X38654327Y-15046552D01*
X38771869Y-15046552D01*
X38771869Y-14929071D01*
X38886541Y-14929071D01*
X38886541Y-15046552D01*
X39004083Y-15046552D01*
X39004083Y-14929071D01*
X39121625Y-14929071D01*
X39121625Y-15628583D01*
X39004083Y-15628583D01*
X39004083Y-15511041D01*
X38886541Y-15511041D01*
X38886541Y-15628583D01*
X38771869Y-15628583D01*
X38771869Y-15511041D01*
X38654327Y-15511041D01*
X38654327Y-15628583D01*
X38536785Y-15628583D01*
X38536785Y-15511041D01*
X38422113Y-15511041D01*
X38422113Y-15628583D01*
X38304572Y-15628583D01*
X38304572Y-15511041D01*
X38187030Y-15511041D01*
X38187030Y-15628583D01*
X38072358Y-15628583D01*
X38072358Y-15511041D01*
X37954816Y-15511041D01*
X37954816Y-15628583D01*
X37837274Y-15628583D01*
X37837274Y-15396308D01*
X37954816Y-15396308D01*
X38072358Y-15396308D01*
X38187030Y-15396308D01*
X38304572Y-15396308D01*
X38422113Y-15396308D01*
X38536785Y-15396308D01*
X38654327Y-15396308D01*
X38771869Y-15396308D01*
X38886541Y-15396308D01*
X39004083Y-15396308D01*
X39004083Y-15161285D01*
X38886541Y-15161285D01*
X38886541Y-15396308D01*
X38771869Y-15396308D01*
X38771869Y-15161285D01*
X38654327Y-15161285D01*
X38654327Y-15396308D01*
X38536785Y-15396308D01*
X38536785Y-15161285D01*
X38422113Y-15161285D01*
X38422113Y-15396308D01*
X38304572Y-15396308D01*
X38304572Y-15161285D01*
X38187030Y-15161285D01*
X38187030Y-15396308D01*
X38072358Y-15396308D01*
X38072358Y-15161285D01*
X37954816Y-15161285D01*
X37954816Y-15396308D01*
X37837274Y-15396308D01*
X37837274Y-14929071D01*
X37954816Y-14929071D01*
X37954816Y-15046552D01*
G37*
G36*
X38536785Y-14636652D02*
G01*
X38771869Y-14636652D01*
X38422113Y-14811530D01*
X38422113Y-14696796D01*
X38187030Y-14696796D01*
X38536785Y-14521919D01*
X38536785Y-14636652D01*
G37*
D10*
G36*
X35530844Y-21601129D02*
G01*
X35530844Y-21819360D01*
X36500000Y-21819360D01*
X36500000Y-21601129D01*
X35530844Y-21601129D01*
G37*
G36*
X37809539Y-21800689D02*
G01*
X37803514Y-21704666D01*
X37786505Y-21622563D01*
X37759669Y-21552262D01*
X37723530Y-21491995D01*
X37677953Y-21440431D01*
X37623902Y-21397831D01*
X37561015Y-21363817D01*
X37487944Y-21338454D01*
X37402984Y-21322358D01*
X37304139Y-21316661D01*
X37224594Y-21321104D01*
X37153348Y-21333883D01*
X37089328Y-21354397D01*
X37028617Y-21383241D01*
X36975677Y-21417751D01*
X36929715Y-21457956D01*
X36890000Y-21504305D01*
X36857144Y-21556319D01*
X36830980Y-21614637D01*
X36812529Y-21676109D01*
X36801249Y-21741671D01*
X36797397Y-21811925D01*
X36799782Y-21872031D01*
X36806495Y-21923849D01*
X36827500Y-22011959D01*
X36851985Y-22074913D01*
X36871585Y-22111305D01*
X37046280Y-22048352D01*
X37024747Y-22001258D01*
X37005675Y-21944121D01*
X36993300Y-21882370D01*
X36988883Y-21809116D01*
X36993095Y-21759353D01*
X37005797Y-21710442D01*
X37027666Y-21665136D01*
X37059958Y-21625079D01*
X37101605Y-21592367D01*
X37156372Y-21565606D01*
X37219117Y-21549274D01*
X37299926Y-21543257D01*
X37366131Y-21547027D01*
X37425956Y-21557912D01*
X37481028Y-21577507D01*
X37526584Y-21605478D01*
X37564019Y-21642974D01*
X37593445Y-21691574D01*
X37611495Y-21748261D01*
X37618053Y-21820290D01*
X37612496Y-21905592D01*
X37599185Y-21972758D01*
X37581660Y-22024538D01*
X37563464Y-22065143D01*
X37736755Y-22125288D01*
X37761742Y-22073730D01*
X37787130Y-21995168D01*
X37803579Y-21907615D01*
X37809539Y-21800689D01*
G37*
G36*
X35530844Y-32401129D02*
G01*
X35530844Y-32619360D01*
X36500000Y-32619360D01*
X36500000Y-32401129D01*
X35530844Y-32401129D01*
G37*
G36*
X35530844Y-54001129D02*
G01*
X35530844Y-54219360D01*
X36500000Y-54219360D01*
X36500000Y-54001129D01*
X35530844Y-54001129D01*
G37*
D11*
G36*
X37405744Y-14675844D02*
G01*
X37347737Y-14789966D01*
X37279165Y-14937001D01*
X37208518Y-15098750D01*
X37142756Y-15254211D01*
X37076993Y-15098750D01*
X37006346Y-14937001D01*
X36937775Y-14789966D01*
X36879706Y-14675844D01*
X36681076Y-14675844D01*
X36655186Y-14891938D01*
X36634242Y-15140882D01*
X36617450Y-15400268D01*
X36604139Y-15645000D01*
X36816753Y-15645000D01*
X36827988Y-15337376D01*
X36848932Y-15001786D01*
X36904924Y-15132334D01*
X36965802Y-15275460D01*
X37023810Y-15412297D01*
X37071376Y-15523855D01*
X37223905Y-15523855D01*
X37271472Y-15412297D01*
X37329540Y-15275460D01*
X37390418Y-15132334D01*
X37446350Y-15001786D01*
X37467355Y-15337376D01*
X37478529Y-15645000D01*
X37691142Y-15645000D01*
X37677831Y-15400268D01*
X37661100Y-15140882D01*
X37640095Y-14891938D01*
X37614206Y-14675844D01*
X37405744Y-14675844D01*
G37*
G36*
X36143375Y-15476960D02*
G01*
X36099248Y-15474846D01*
X36067171Y-15469328D01*
X36039033Y-15459801D01*
X36018872Y-15448384D01*
X36003249Y-15433632D01*
X35993715Y-15417060D01*
X35986693Y-15376577D01*
X35991503Y-15347237D01*
X36005908Y-15321378D01*
X36031451Y-15297869D01*
X36085118Y-15268448D01*
X36185324Y-15230092D01*
X36280456Y-15191624D01*
X36325801Y-15167013D01*
X36365819Y-15137096D01*
X36399891Y-15100987D01*
X36427368Y-15057412D01*
X36444806Y-15007227D01*
X36451121Y-14943351D01*
X36444640Y-14878599D01*
X36425964Y-14822329D01*
X36395521Y-14772518D01*
X36354584Y-14730737D01*
X36304512Y-14697838D01*
X36242660Y-14672669D01*
X36174417Y-14657700D01*
X36094404Y-14652397D01*
X36000070Y-14658034D01*
X35925144Y-14673401D01*
X35857389Y-14696474D01*
X35807602Y-14719563D01*
X35870556Y-14893098D01*
X35912604Y-14873698D01*
X35960804Y-14856095D01*
X36013233Y-14844320D01*
X36080360Y-14839975D01*
X36132732Y-14842990D01*
X36168910Y-14850709D01*
X36193017Y-14861591D01*
X36211934Y-14878406D01*
X36223257Y-14899949D01*
X36227273Y-14927780D01*
X36223980Y-14952706D01*
X36214694Y-14972416D01*
X36199972Y-14989235D01*
X36179035Y-15005205D01*
X36125912Y-15031706D01*
X36059417Y-15056191D01*
X35927953Y-15111451D01*
X35875629Y-15141704D01*
X35834896Y-15175076D01*
X35802572Y-15214533D01*
X35779636Y-15260378D01*
X35766342Y-15312284D01*
X35761440Y-15379202D01*
X35767817Y-15445380D01*
X35785949Y-15501266D01*
X35815289Y-15548932D01*
X35856573Y-15589740D01*
X35905229Y-15620086D01*
X35967176Y-15643486D01*
X36045381Y-15658898D01*
X36143375Y-15664539D01*
X36206174Y-15662509D01*
X36259513Y-15656845D01*
X36351104Y-15637978D01*
X36419675Y-15614164D01*
X36467913Y-15590350D01*
X36406364Y-15415411D01*
X36360023Y-15437123D01*
X36299385Y-15458093D01*
X36231920Y-15471824D01*
X36143375Y-15476960D01*
G37*
G36*
X37405744Y-25475844D02*
G01*
X37347737Y-25589966D01*
X37279165Y-25737001D01*
X37208518Y-25898750D01*
X37142756Y-26054211D01*
X37076993Y-25898750D01*
X37006346Y-25737001D01*
X36937775Y-25589966D01*
X36879706Y-25475844D01*
X36681076Y-25475844D01*
X36655186Y-25691938D01*
X36634242Y-25940882D01*
X36617450Y-26200268D01*
X36604139Y-26445000D01*
X36816753Y-26445000D01*
X36827988Y-26137376D01*
X36848932Y-25801786D01*
X36904924Y-25932334D01*
X36965802Y-26075460D01*
X37023810Y-26212297D01*
X37071376Y-26323855D01*
X37223905Y-26323855D01*
X37271472Y-26212297D01*
X37329540Y-26075460D01*
X37390418Y-25932334D01*
X37446350Y-25801786D01*
X37467355Y-26137376D01*
X37478529Y-26445000D01*
X37691142Y-26445000D01*
X37677831Y-26200268D01*
X37661100Y-25940882D01*
X37640095Y-25691938D01*
X37614206Y-25475844D01*
X37405744Y-25475844D01*
G37*
G36*
X36143375Y-26276960D02*
G01*
X36099248Y-26274846D01*
X36067171Y-26269328D01*
X36039033Y-26259801D01*
X36018872Y-26248384D01*
X36003249Y-26233632D01*
X35993715Y-26217060D01*
X35986693Y-26176577D01*
X35991503Y-26147237D01*
X36005908Y-26121378D01*
X36031451Y-26097869D01*
X36085118Y-26068448D01*
X36185324Y-26030092D01*
X36280456Y-25991624D01*
X36325801Y-25967013D01*
X36365819Y-25937096D01*
X36399891Y-25900987D01*
X36427368Y-25857412D01*
X36444806Y-25807227D01*
X36451121Y-25743351D01*
X36444640Y-25678599D01*
X36425964Y-25622329D01*
X36395521Y-25572518D01*
X36354584Y-25530737D01*
X36304512Y-25497838D01*
X36242660Y-25472669D01*
X36174417Y-25457700D01*
X36094404Y-25452397D01*
X36000070Y-25458034D01*
X35925144Y-25473401D01*
X35857389Y-25496474D01*
X35807602Y-25519563D01*
X35870556Y-25693098D01*
X35912604Y-25673698D01*
X35960804Y-25656095D01*
X36013233Y-25644320D01*
X36080360Y-25639975D01*
X36132732Y-25642990D01*
X36168910Y-25650709D01*
X36193017Y-25661591D01*
X36211934Y-25678406D01*
X36223257Y-25699949D01*
X36227273Y-25727780D01*
X36223980Y-25752706D01*
X36214694Y-25772416D01*
X36199972Y-25789235D01*
X36179035Y-25805205D01*
X36125912Y-25831706D01*
X36059417Y-25856191D01*
X35927953Y-25911451D01*
X35875629Y-25941704D01*
X35834896Y-25975076D01*
X35802572Y-26014533D01*
X35779636Y-26060378D01*
X35766342Y-26112284D01*
X35761440Y-26179202D01*
X35767817Y-26245380D01*
X35785949Y-26301266D01*
X35815289Y-26348932D01*
X35856573Y-26389740D01*
X35905229Y-26420086D01*
X35967176Y-26443486D01*
X36045381Y-26458898D01*
X36143375Y-26464539D01*
X36206174Y-26462509D01*
X36259513Y-26456845D01*
X36351104Y-26437978D01*
X36419675Y-26414164D01*
X36467913Y-26390350D01*
X36406364Y-26215411D01*
X36360023Y-26237123D01*
X36299385Y-26258093D01*
X36231920Y-26271824D01*
X36143375Y-26276960D01*
G37*
G36*
X37405744Y-36275844D02*
G01*
X37347737Y-36389966D01*
X37279165Y-36537001D01*
X37208518Y-36698750D01*
X37142756Y-36854211D01*
X37076993Y-36698750D01*
X37006346Y-36537001D01*
X36937775Y-36389966D01*
X36879706Y-36275844D01*
X36681076Y-36275844D01*
X36655186Y-36491938D01*
X36634242Y-36740882D01*
X36617450Y-37000268D01*
X36604139Y-37245000D01*
X36816753Y-37245000D01*
X36827988Y-36937376D01*
X36848932Y-36601786D01*
X36904924Y-36732334D01*
X36965802Y-36875460D01*
X37023810Y-37012297D01*
X37071376Y-37123855D01*
X37223905Y-37123855D01*
X37271472Y-37012297D01*
X37329540Y-36875460D01*
X37390418Y-36732334D01*
X37446350Y-36601786D01*
X37467355Y-36937376D01*
X37478529Y-37245000D01*
X37691142Y-37245000D01*
X37677831Y-37000268D01*
X37661100Y-36740882D01*
X37640095Y-36491938D01*
X37614206Y-36275844D01*
X37405744Y-36275844D01*
G37*
G36*
X36143375Y-37076960D02*
G01*
X36099248Y-37074846D01*
X36067171Y-37069328D01*
X36039033Y-37059801D01*
X36018872Y-37048384D01*
X36003249Y-37033632D01*
X35993715Y-37017060D01*
X35986693Y-36976577D01*
X35991503Y-36947237D01*
X36005908Y-36921378D01*
X36031451Y-36897869D01*
X36085118Y-36868448D01*
X36185324Y-36830092D01*
X36280456Y-36791624D01*
X36325801Y-36767013D01*
X36365819Y-36737096D01*
X36399891Y-36700987D01*
X36427368Y-36657412D01*
X36444806Y-36607227D01*
X36451121Y-36543351D01*
X36444640Y-36478599D01*
X36425964Y-36422329D01*
X36395521Y-36372518D01*
X36354584Y-36330737D01*
X36304512Y-36297838D01*
X36242660Y-36272669D01*
X36174417Y-36257700D01*
X36094404Y-36252397D01*
X36000070Y-36258034D01*
X35925144Y-36273401D01*
X35857389Y-36296474D01*
X35807602Y-36319563D01*
X35870556Y-36493098D01*
X35912604Y-36473698D01*
X35960804Y-36456095D01*
X36013233Y-36444320D01*
X36080360Y-36439975D01*
X36132732Y-36442990D01*
X36168910Y-36450709D01*
X36193017Y-36461591D01*
X36211934Y-36478406D01*
X36223257Y-36499949D01*
X36227273Y-36527780D01*
X36223980Y-36552706D01*
X36214694Y-36572416D01*
X36199972Y-36589235D01*
X36179035Y-36605205D01*
X36125912Y-36631706D01*
X36059417Y-36656191D01*
X35927953Y-36711451D01*
X35875629Y-36741704D01*
X35834896Y-36775076D01*
X35802572Y-36814533D01*
X35779636Y-36860378D01*
X35766342Y-36912284D01*
X35761440Y-36979202D01*
X35767817Y-37045380D01*
X35785949Y-37101266D01*
X35815289Y-37148932D01*
X35856573Y-37189740D01*
X35905229Y-37220086D01*
X35967176Y-37243486D01*
X36045381Y-37258898D01*
X36143375Y-37264539D01*
X36206174Y-37262509D01*
X36259513Y-37256845D01*
X36351104Y-37237978D01*
X36419675Y-37214164D01*
X36467913Y-37190350D01*
X36406364Y-37015411D01*
X36360023Y-37037123D01*
X36299385Y-37058093D01*
X36231920Y-37071824D01*
X36143375Y-37076960D01*
G37*
G36*
X37954816Y-25846552D02*
G01*
X38072358Y-25846552D01*
X38072358Y-25729071D01*
X38187030Y-25729071D01*
X38187030Y-25846552D01*
X38304572Y-25846552D01*
X38304572Y-25729071D01*
X38422113Y-25729071D01*
X38422113Y-25846552D01*
X38536785Y-25846552D01*
X38536785Y-25729071D01*
X38654327Y-25729071D01*
X38654327Y-25846552D01*
X38771869Y-25846552D01*
X38771869Y-25729071D01*
X38886541Y-25729071D01*
X38886541Y-25846552D01*
X39004083Y-25846552D01*
X39004083Y-25729071D01*
X39121625Y-25729071D01*
X39121625Y-26428583D01*
X39004083Y-26428583D01*
X39004083Y-26311041D01*
X38886541Y-26311041D01*
X38886541Y-26428583D01*
X38771869Y-26428583D01*
X38771869Y-26311041D01*
X38654327Y-26311041D01*
X38654327Y-26428583D01*
X38536785Y-26428583D01*
X38536785Y-26311041D01*
X38422113Y-26311041D01*
X38422113Y-26428583D01*
X38304572Y-26428583D01*
X38304572Y-26311041D01*
X38187030Y-26311041D01*
X38187030Y-26428583D01*
X38072358Y-26428583D01*
X38072358Y-26311041D01*
X37954816Y-26311041D01*
X37954816Y-26428583D01*
X37837274Y-26428583D01*
X37837274Y-26196308D01*
X37954816Y-26196308D01*
X38072358Y-26196308D01*
X38187030Y-26196308D01*
X38304572Y-26196308D01*
X38422113Y-26196308D01*
X38536785Y-26196308D01*
X38654327Y-26196308D01*
X38771869Y-26196308D01*
X38886541Y-26196308D01*
X39004083Y-26196308D01*
X39004083Y-25961285D01*
X38886541Y-25961285D01*
X38886541Y-26196308D01*
X38771869Y-26196308D01*
X38771869Y-25961285D01*
X38654327Y-25961285D01*
X38654327Y-26196308D01*
X38536785Y-26196308D01*
X38536785Y-25961285D01*
X38422113Y-25961285D01*
X38422113Y-26196308D01*
X38304572Y-26196308D01*
X38304572Y-25961285D01*
X38187030Y-25961285D01*
X38187030Y-26196308D01*
X38072358Y-26196308D01*
X38072358Y-25961285D01*
X37954816Y-25961285D01*
X37954816Y-26196308D01*
X37837274Y-26196308D01*
X37837274Y-25729071D01*
X37954816Y-25729071D01*
X37954816Y-25846552D01*
G37*
G36*
X38536785Y-25436652D02*
G01*
X38771869Y-25436652D01*
X38422113Y-25611530D01*
X38422113Y-25496796D01*
X38187030Y-25496796D01*
X38536785Y-25321919D01*
X38536785Y-25436652D01*
G37*
D12*
G04 #@! TO.C,Q7*
X31440000Y-53560000D02*
X32040000Y-53560000D01*
X32040000Y-54700000D02*
X31440000Y-54700000D01*
X32250000Y-53580000D02*
G75*
G02*
X32170000Y-53580000I-40000J0D01*
G01*
X32170000Y-53580000D02*
G75*
G02*
X32250000Y-53580000I40000J0D01*
G01*
D13*
G04 #@! TO.C,C15*
X39757836Y-32690000D02*
X39542164Y-32690000D01*
X39757836Y-33410000D02*
X39542164Y-33410000D01*
G04 #@! TO.C,C2*
X40660000Y-54737836D02*
X40660000Y-54522164D01*
X41380000Y-54737836D02*
X41380000Y-54522164D01*
D12*
G04 #@! TO.C,Q6*
X28840000Y-21160000D02*
X29440000Y-21160000D01*
X29440000Y-22300000D02*
X28840000Y-22300000D01*
X29650000Y-21180000D02*
G75*
G02*
X29570000Y-21180000I-40000J0D01*
G01*
X29570000Y-21180000D02*
G75*
G02*
X29650000Y-21180000I40000J0D01*
G01*
G04 #@! TO.C,Q8*
X32740000Y-21160000D02*
X33340000Y-21160000D01*
X33340000Y-22300000D02*
X32740000Y-22300000D01*
X33550000Y-21180000D02*
G75*
G02*
X33470000Y-21180000I-40000J0D01*
G01*
X33470000Y-21180000D02*
G75*
G02*
X33550000Y-21180000I40000J0D01*
G01*
D14*
G04 #@! TO.C,U1*
X44350000Y-25375000D02*
X42550000Y-25375000D01*
X44350000Y-27175000D02*
X42550000Y-27175000D01*
X44725000Y-25675000D02*
G75*
G02*
X44575000Y-25675000I-75000J0D01*
G01*
X44575000Y-25675000D02*
G75*
G02*
X44725000Y-25675000I75000J0D01*
G01*
D13*
G04 #@! TO.C,Y1*
X41640000Y-29500000D02*
X41640000Y-33500000D01*
X41640000Y-33500000D02*
X44790000Y-33500000D01*
D12*
G04 #@! TO.C,Q8*
X32740000Y-42760000D02*
X33340000Y-42760000D01*
X33340000Y-43900000D02*
X32740000Y-43900000D01*
X33550000Y-42780000D02*
G75*
G02*
X33470000Y-42780000I-40000J0D01*
G01*
X33470000Y-42780000D02*
G75*
G02*
X33550000Y-42780000I40000J0D01*
G01*
D14*
G04 #@! TO.C,U1*
X44350000Y-14575000D02*
X42550000Y-14575000D01*
X44350000Y-16375000D02*
X42550000Y-16375000D01*
X44725000Y-14875000D02*
G75*
G02*
X44575000Y-14875000I-75000J0D01*
G01*
X44575000Y-14875000D02*
G75*
G02*
X44725000Y-14875000I75000J0D01*
G01*
G04 #@! TO.C,D6*
X31170000Y-31370000D02*
X31170000Y-30570000D01*
D13*
G04 #@! TO.C,Q4*
X29240000Y-36380000D02*
X28650000Y-36380000D01*
X29450000Y-37800000D02*
X28650000Y-37800000D01*
D12*
X29500000Y-36380000D02*
G75*
G02*
X29400000Y-36380000I-50000J0D01*
G01*
X29400000Y-36380000D02*
G75*
G02*
X29500000Y-36380000I50000J0D01*
G01*
G04 #@! TO.C,Q2*
X28460000Y-53240000D02*
X29420000Y-53240000D01*
X29460000Y-52440000D02*
X28420000Y-52440000D01*
X28360000Y-53090000D02*
G75*
G02*
X28260000Y-53090000I-50000J0D01*
G01*
X28260000Y-53090000D02*
G75*
G02*
X28360000Y-53090000I50000J0D01*
G01*
D15*
G04 #@! TO.C,J3*
X25700000Y-15350000D02*
X25870000Y-15350000D01*
X25700000Y-16600000D02*
X25700000Y-15350000D01*
X25700000Y-22350000D02*
X25700000Y-21090000D01*
X25870000Y-22350000D02*
X25700000Y-22350000D01*
X26670000Y-15350000D02*
X26830000Y-15350000D01*
X26830000Y-22350000D02*
X26670000Y-22350000D01*
X27640000Y-15350000D02*
X27800000Y-15350000D01*
X27800000Y-15350000D02*
X27800000Y-16600000D01*
X27800000Y-21090000D02*
X27800000Y-22350000D01*
X27800000Y-22350000D02*
X27630000Y-22350000D01*
D13*
G04 #@! TO.C,Q4*
X29240000Y-14780000D02*
X28650000Y-14780000D01*
X29450000Y-16200000D02*
X28650000Y-16200000D01*
D12*
X29500000Y-14780000D02*
G75*
G02*
X29400000Y-14780000I-50000J0D01*
G01*
X29400000Y-14780000D02*
G75*
G02*
X29500000Y-14780000I50000J0D01*
G01*
G04 #@! TO.C,Q8*
X32740000Y-53560000D02*
X33340000Y-53560000D01*
X33340000Y-54700000D02*
X32740000Y-54700000D01*
X33550000Y-53580000D02*
G75*
G02*
X33470000Y-53580000I-40000J0D01*
G01*
X33470000Y-53580000D02*
G75*
G02*
X33550000Y-53580000I40000J0D01*
G01*
D13*
G04 #@! TO.C,Q4*
X29240000Y-25580000D02*
X28650000Y-25580000D01*
X29450000Y-27000000D02*
X28650000Y-27000000D01*
D12*
X29500000Y-25580000D02*
G75*
G02*
X29400000Y-25580000I-50000J0D01*
G01*
X29400000Y-25580000D02*
G75*
G02*
X29500000Y-25580000I50000J0D01*
G01*
G04 #@! TO.C,Q7*
X31440000Y-42760000D02*
X32040000Y-42760000D01*
X32040000Y-43900000D02*
X31440000Y-43900000D01*
X32250000Y-42780000D02*
G75*
G02*
X32170000Y-42780000I-40000J0D01*
G01*
X32170000Y-42780000D02*
G75*
G02*
X32250000Y-42780000I40000J0D01*
G01*
D13*
G04 #@! TO.C,Q4*
X29240000Y-47180000D02*
X28650000Y-47180000D01*
X29450000Y-48600000D02*
X28650000Y-48600000D01*
D12*
X29500000Y-47180000D02*
G75*
G02*
X29400000Y-47180000I-50000J0D01*
G01*
X29400000Y-47180000D02*
G75*
G02*
X29500000Y-47180000I50000J0D01*
G01*
D14*
G04 #@! TO.C,D5*
X31200000Y-52170000D02*
X31200000Y-52970000D01*
G04 #@! TO.C,U6*
X30420000Y-28170000D02*
X32420000Y-28170000D01*
X30420000Y-30370000D02*
X32420000Y-30370000D01*
X30090000Y-30370000D02*
G75*
G02*
X29950000Y-30370000I-70000J0D01*
G01*
X29950000Y-30370000D02*
G75*
G02*
X30090000Y-30370000I70000J0D01*
G01*
D12*
G04 #@! TO.C,Q5*
X30140000Y-53560000D02*
X30740000Y-53560000D01*
X30740000Y-54700000D02*
X30140000Y-54700000D01*
X30950000Y-53580000D02*
G75*
G02*
X30870000Y-53580000I-40000J0D01*
G01*
X30870000Y-53580000D02*
G75*
G02*
X30950000Y-53580000I40000J0D01*
G01*
D14*
G04 #@! TO.C,U6*
X30420000Y-17370000D02*
X32420000Y-17370000D01*
X30420000Y-19570000D02*
X32420000Y-19570000D01*
X30090000Y-19570000D02*
G75*
G02*
X29950000Y-19570000I-70000J0D01*
G01*
X29950000Y-19570000D02*
G75*
G02*
X30090000Y-19570000I70000J0D01*
G01*
D13*
G04 #@! TO.C,U3*
X34330000Y-26800000D02*
X40320000Y-26800000D01*
X34330000Y-32020000D02*
X40330000Y-32020000D01*
X40910000Y-26710000D02*
X40430000Y-26710000D01*
X40430000Y-26230000D01*
X40910000Y-26710000D01*
G36*
X40910000Y-26710000D02*
G01*
X40430000Y-26710000D01*
X40430000Y-26230000D01*
X40910000Y-26710000D01*
G37*
D12*
G04 #@! TO.C,Q6*
X28840000Y-31960000D02*
X29440000Y-31960000D01*
X29440000Y-33100000D02*
X28840000Y-33100000D01*
X29650000Y-31980000D02*
G75*
G02*
X29570000Y-31980000I-40000J0D01*
G01*
X29570000Y-31980000D02*
G75*
G02*
X29650000Y-31980000I40000J0D01*
G01*
G04 #@! TO.C,Q9*
X39340000Y-48260000D02*
X40300000Y-48260000D01*
X40340000Y-47460000D02*
X39300000Y-47460000D01*
X39240000Y-48110000D02*
G75*
G02*
X39140000Y-48110000I-50000J0D01*
G01*
X39140000Y-48110000D02*
G75*
G02*
X39240000Y-48110000I50000J0D01*
G01*
G04 #@! TO.C,Q2*
X28460000Y-20840000D02*
X29420000Y-20840000D01*
X29460000Y-20040000D02*
X28420000Y-20040000D01*
X28360000Y-20690000D02*
G75*
G02*
X28260000Y-20690000I-50000J0D01*
G01*
X28260000Y-20690000D02*
G75*
G02*
X28360000Y-20690000I50000J0D01*
G01*
X28460000Y-31640000D02*
X29420000Y-31640000D01*
X29460000Y-30840000D02*
X28420000Y-30840000D01*
X28360000Y-31490000D02*
G75*
G02*
X28260000Y-31490000I-50000J0D01*
G01*
X28260000Y-31490000D02*
G75*
G02*
X28360000Y-31490000I50000J0D01*
G01*
G04 #@! TO.C,D8*
X32300000Y-25330000D02*
G75*
G02*
X32200000Y-25330000I-50000J0D01*
G01*
X32200000Y-25330000D02*
G75*
G02*
X32300000Y-25330000I50000J0D01*
G01*
D14*
G04 #@! TO.C,D5*
X31200000Y-19770000D02*
X31200000Y-20570000D01*
D12*
G04 #@! TO.C,Q6*
X28840000Y-53560000D02*
X29440000Y-53560000D01*
X29440000Y-54700000D02*
X28840000Y-54700000D01*
X29650000Y-53580000D02*
G75*
G02*
X29570000Y-53580000I-40000J0D01*
G01*
X29570000Y-53580000D02*
G75*
G02*
X29650000Y-53580000I40000J0D01*
G01*
D13*
G04 #@! TO.C,Y1*
X41640000Y-51100000D02*
X41640000Y-55100000D01*
X41640000Y-55100000D02*
X44790000Y-55100000D01*
G04 #@! TO.C,Q3*
X29240000Y-38060000D02*
X28650000Y-38060000D01*
X29450000Y-39480000D02*
X28650000Y-39480000D01*
D12*
X29525000Y-38060000D02*
G75*
G02*
X29425000Y-38060000I-50000J0D01*
G01*
X29425000Y-38060000D02*
G75*
G02*
X29525000Y-38060000I50000J0D01*
G01*
D13*
X29240000Y-48860000D02*
X28650000Y-48860000D01*
X29450000Y-50280000D02*
X28650000Y-50280000D01*
D12*
X29525000Y-48860000D02*
G75*
G02*
X29425000Y-48860000I-50000J0D01*
G01*
X29425000Y-48860000D02*
G75*
G02*
X29525000Y-48860000I50000J0D01*
G01*
G04 #@! TO.C,D10*
X33700000Y-14530000D02*
G75*
G02*
X33600000Y-14530000I-50000J0D01*
G01*
X33600000Y-14530000D02*
G75*
G02*
X33700000Y-14530000I50000J0D01*
G01*
D13*
G04 #@! TO.C,U3*
X34330000Y-16000000D02*
X40320000Y-16000000D01*
X34330000Y-21220000D02*
X40330000Y-21220000D01*
X40910000Y-15910000D02*
X40430000Y-15910000D01*
X40430000Y-15430000D01*
X40910000Y-15910000D01*
G36*
X40910000Y-15910000D02*
G01*
X40430000Y-15910000D01*
X40430000Y-15430000D01*
X40910000Y-15910000D01*
G37*
D15*
G04 #@! TO.C,J3*
X25700000Y-47750000D02*
X25870000Y-47750000D01*
X25700000Y-49000000D02*
X25700000Y-47750000D01*
X25700000Y-54750000D02*
X25700000Y-53490000D01*
X25870000Y-54750000D02*
X25700000Y-54750000D01*
X26670000Y-47750000D02*
X26830000Y-47750000D01*
X26830000Y-54750000D02*
X26670000Y-54750000D01*
X27640000Y-47750000D02*
X27800000Y-47750000D01*
X27800000Y-47750000D02*
X27800000Y-49000000D01*
X27800000Y-53490000D02*
X27800000Y-54750000D01*
X27800000Y-54750000D02*
X27630000Y-54750000D01*
D12*
G04 #@! TO.C,Q5*
X30140000Y-21160000D02*
X30740000Y-21160000D01*
X30740000Y-22300000D02*
X30140000Y-22300000D01*
X30950000Y-21180000D02*
G75*
G02*
X30870000Y-21180000I-40000J0D01*
G01*
X30870000Y-21180000D02*
G75*
G02*
X30950000Y-21180000I40000J0D01*
G01*
D14*
G04 #@! TO.C,U1*
X44350000Y-36175000D02*
X42550000Y-36175000D01*
X44350000Y-37975000D02*
X42550000Y-37975000D01*
X44725000Y-36475000D02*
G75*
G02*
X44575000Y-36475000I-75000J0D01*
G01*
X44575000Y-36475000D02*
G75*
G02*
X44725000Y-36475000I75000J0D01*
G01*
G04 #@! TO.C,D5*
X31200000Y-41370000D02*
X31200000Y-42170000D01*
D12*
G04 #@! TO.C,D8*
X32300000Y-46930000D02*
G75*
G02*
X32200000Y-46930000I-50000J0D01*
G01*
X32200000Y-46930000D02*
G75*
G02*
X32300000Y-46930000I50000J0D01*
G01*
D15*
G04 #@! TO.C,J3*
X25700000Y-36950000D02*
X25870000Y-36950000D01*
X25700000Y-38200000D02*
X25700000Y-36950000D01*
X25700000Y-43950000D02*
X25700000Y-42690000D01*
X25870000Y-43950000D02*
X25700000Y-43950000D01*
X26670000Y-36950000D02*
X26830000Y-36950000D01*
X26830000Y-43950000D02*
X26670000Y-43950000D01*
X27640000Y-36950000D02*
X27800000Y-36950000D01*
X27800000Y-36950000D02*
X27800000Y-38200000D01*
X27800000Y-42690000D02*
X27800000Y-43950000D01*
X27800000Y-43950000D02*
X27630000Y-43950000D01*
D13*
G04 #@! TO.C,C15*
X39757836Y-21890000D02*
X39542164Y-21890000D01*
X39757836Y-22610000D02*
X39542164Y-22610000D01*
X39757836Y-43490000D02*
X39542164Y-43490000D01*
X39757836Y-44210000D02*
X39542164Y-44210000D01*
D12*
G04 #@! TO.C,Q7*
X31440000Y-21160000D02*
X32040000Y-21160000D01*
X32040000Y-22300000D02*
X31440000Y-22300000D01*
X32250000Y-21180000D02*
G75*
G02*
X32170000Y-21180000I-40000J0D01*
G01*
X32170000Y-21180000D02*
G75*
G02*
X32250000Y-21180000I40000J0D01*
G01*
G04 #@! TO.C,Q9*
X39340000Y-15860000D02*
X40300000Y-15860000D01*
X40340000Y-15060000D02*
X39300000Y-15060000D01*
X39240000Y-15710000D02*
G75*
G02*
X39140000Y-15710000I-50000J0D01*
G01*
X39140000Y-15710000D02*
G75*
G02*
X39240000Y-15710000I50000J0D01*
G01*
G04 #@! TO.C,D8*
X32300000Y-36130000D02*
G75*
G02*
X32200000Y-36130000I-50000J0D01*
G01*
X32200000Y-36130000D02*
G75*
G02*
X32300000Y-36130000I50000J0D01*
G01*
D14*
G04 #@! TO.C,D5*
X31200000Y-30570000D02*
X31200000Y-31370000D01*
G04 #@! TO.C,U1*
X44350000Y-46975000D02*
X42550000Y-46975000D01*
X44350000Y-48775000D02*
X42550000Y-48775000D01*
X44725000Y-47275000D02*
G75*
G02*
X44575000Y-47275000I-75000J0D01*
G01*
X44575000Y-47275000D02*
G75*
G02*
X44725000Y-47275000I75000J0D01*
G01*
D12*
G04 #@! TO.C,Q6*
X28840000Y-42760000D02*
X29440000Y-42760000D01*
X29440000Y-43900000D02*
X28840000Y-43900000D01*
X29650000Y-42780000D02*
G75*
G02*
X29570000Y-42780000I-40000J0D01*
G01*
X29570000Y-42780000D02*
G75*
G02*
X29650000Y-42780000I40000J0D01*
G01*
D13*
G04 #@! TO.C,C15*
X39757836Y-54290000D02*
X39542164Y-54290000D01*
X39757836Y-55010000D02*
X39542164Y-55010000D01*
D14*
G04 #@! TO.C,U6*
X30420000Y-38970000D02*
X32420000Y-38970000D01*
X30420000Y-41170000D02*
X32420000Y-41170000D01*
X30090000Y-41170000D02*
G75*
G02*
X29950000Y-41170000I-70000J0D01*
G01*
X29950000Y-41170000D02*
G75*
G02*
X30090000Y-41170000I70000J0D01*
G01*
D12*
G04 #@! TO.C,Q9*
X39340000Y-37460000D02*
X40300000Y-37460000D01*
X40340000Y-36660000D02*
X39300000Y-36660000D01*
X39240000Y-37310000D02*
G75*
G02*
X39140000Y-37310000I-50000J0D01*
G01*
X39140000Y-37310000D02*
G75*
G02*
X39240000Y-37310000I50000J0D01*
G01*
D13*
G04 #@! TO.C,Y1*
X41640000Y-18700000D02*
X41640000Y-22700000D01*
X41640000Y-22700000D02*
X44790000Y-22700000D01*
X41640000Y-40300000D02*
X41640000Y-44300000D01*
X41640000Y-44300000D02*
X44790000Y-44300000D01*
G04 #@! TO.C,U3*
X34330000Y-37600000D02*
X40320000Y-37600000D01*
X34330000Y-42820000D02*
X40330000Y-42820000D01*
X40910000Y-37510000D02*
X40430000Y-37510000D01*
X40430000Y-37030000D01*
X40910000Y-37510000D01*
G36*
X40910000Y-37510000D02*
G01*
X40430000Y-37510000D01*
X40430000Y-37030000D01*
X40910000Y-37510000D01*
G37*
D12*
G04 #@! TO.C,D10*
X33700000Y-25330000D02*
G75*
G02*
X33600000Y-25330000I-50000J0D01*
G01*
X33600000Y-25330000D02*
G75*
G02*
X33700000Y-25330000I50000J0D01*
G01*
D13*
G04 #@! TO.C,Q3*
X29240000Y-16460000D02*
X28650000Y-16460000D01*
X29450000Y-17880000D02*
X28650000Y-17880000D01*
D12*
X29525000Y-16460000D02*
G75*
G02*
X29425000Y-16460000I-50000J0D01*
G01*
X29425000Y-16460000D02*
G75*
G02*
X29525000Y-16460000I50000J0D01*
G01*
D14*
G04 #@! TO.C,D6*
X31170000Y-52970000D02*
X31170000Y-52170000D01*
D15*
G04 #@! TO.C,J3*
X25700000Y-26150000D02*
X25870000Y-26150000D01*
X25700000Y-27400000D02*
X25700000Y-26150000D01*
X25700000Y-33150000D02*
X25700000Y-31890000D01*
X25870000Y-33150000D02*
X25700000Y-33150000D01*
X26670000Y-26150000D02*
X26830000Y-26150000D01*
X26830000Y-33150000D02*
X26670000Y-33150000D01*
X27640000Y-26150000D02*
X27800000Y-26150000D01*
X27800000Y-26150000D02*
X27800000Y-27400000D01*
X27800000Y-31890000D02*
X27800000Y-33150000D01*
X27800000Y-33150000D02*
X27630000Y-33150000D01*
D13*
G04 #@! TO.C,U3*
X34330000Y-48400000D02*
X40320000Y-48400000D01*
X34330000Y-53620000D02*
X40330000Y-53620000D01*
X40910000Y-48310000D02*
X40430000Y-48310000D01*
X40430000Y-47830000D01*
X40910000Y-48310000D01*
G36*
X40910000Y-48310000D02*
G01*
X40430000Y-48310000D01*
X40430000Y-47830000D01*
X40910000Y-48310000D01*
G37*
D12*
G04 #@! TO.C,D10*
X33700000Y-46930000D02*
G75*
G02*
X33600000Y-46930000I-50000J0D01*
G01*
X33600000Y-46930000D02*
G75*
G02*
X33700000Y-46930000I50000J0D01*
G01*
D14*
G04 #@! TO.C,D6*
X31170000Y-42170000D02*
X31170000Y-41370000D01*
D12*
G04 #@! TO.C,Q5*
X30140000Y-42760000D02*
X30740000Y-42760000D01*
X30740000Y-43900000D02*
X30140000Y-43900000D01*
X30950000Y-42780000D02*
G75*
G02*
X30870000Y-42780000I-40000J0D01*
G01*
X30870000Y-42780000D02*
G75*
G02*
X30950000Y-42780000I40000J0D01*
G01*
G04 #@! TO.C,D10*
X33700000Y-36130000D02*
G75*
G02*
X33600000Y-36130000I-50000J0D01*
G01*
X33600000Y-36130000D02*
G75*
G02*
X33700000Y-36130000I50000J0D01*
G01*
G04 #@! TO.C,Q7*
X31440000Y-31960000D02*
X32040000Y-31960000D01*
X32040000Y-33100000D02*
X31440000Y-33100000D01*
X32250000Y-31980000D02*
G75*
G02*
X32170000Y-31980000I-40000J0D01*
G01*
X32170000Y-31980000D02*
G75*
G02*
X32250000Y-31980000I40000J0D01*
G01*
D13*
G04 #@! TO.C,C2*
X40660000Y-33137836D02*
X40660000Y-32922164D01*
X41380000Y-33137836D02*
X41380000Y-32922164D01*
D12*
G04 #@! TO.C,Q8*
X32740000Y-31960000D02*
X33340000Y-31960000D01*
X33340000Y-33100000D02*
X32740000Y-33100000D01*
X33550000Y-31980000D02*
G75*
G02*
X33470000Y-31980000I-40000J0D01*
G01*
X33470000Y-31980000D02*
G75*
G02*
X33550000Y-31980000I40000J0D01*
G01*
D13*
G04 #@! TO.C,C2*
X40660000Y-22337836D02*
X40660000Y-22122164D01*
X41380000Y-22337836D02*
X41380000Y-22122164D01*
G04 #@! TO.C,Q3*
X29240000Y-27260000D02*
X28650000Y-27260000D01*
X29450000Y-28680000D02*
X28650000Y-28680000D01*
D12*
X29525000Y-27260000D02*
G75*
G02*
X29425000Y-27260000I-50000J0D01*
G01*
X29425000Y-27260000D02*
G75*
G02*
X29525000Y-27260000I50000J0D01*
G01*
G04 #@! TO.C,Q2*
X28460000Y-42440000D02*
X29420000Y-42440000D01*
X29460000Y-41640000D02*
X28420000Y-41640000D01*
X28360000Y-42290000D02*
G75*
G02*
X28260000Y-42290000I-50000J0D01*
G01*
X28260000Y-42290000D02*
G75*
G02*
X28360000Y-42290000I50000J0D01*
G01*
D14*
G04 #@! TO.C,D6*
X31170000Y-20570000D02*
X31170000Y-19770000D01*
D12*
G04 #@! TO.C,Q9*
X39340000Y-26660000D02*
X40300000Y-26660000D01*
X40340000Y-25860000D02*
X39300000Y-25860000D01*
X39240000Y-26510000D02*
G75*
G02*
X39140000Y-26510000I-50000J0D01*
G01*
X39140000Y-26510000D02*
G75*
G02*
X39240000Y-26510000I50000J0D01*
G01*
D13*
G04 #@! TO.C,C2*
X40660000Y-43937836D02*
X40660000Y-43722164D01*
X41380000Y-43937836D02*
X41380000Y-43722164D01*
D14*
G04 #@! TO.C,U6*
X30420000Y-49770000D02*
X32420000Y-49770000D01*
X30420000Y-51970000D02*
X32420000Y-51970000D01*
X30090000Y-51970000D02*
G75*
G02*
X29950000Y-51970000I-70000J0D01*
G01*
X29950000Y-51970000D02*
G75*
G02*
X30090000Y-51970000I70000J0D01*
G01*
D12*
G04 #@! TO.C,Q5*
X30140000Y-31960000D02*
X30740000Y-31960000D01*
X30740000Y-33100000D02*
X30140000Y-33100000D01*
X30950000Y-31980000D02*
G75*
G02*
X30870000Y-31980000I-40000J0D01*
G01*
X30870000Y-31980000D02*
G75*
G02*
X30950000Y-31980000I40000J0D01*
G01*
G04 #@! TO.C,D8*
X32300000Y-14530000D02*
G75*
G02*
X32200000Y-14530000I-50000J0D01*
G01*
X32200000Y-14530000D02*
G75*
G02*
X32300000Y-14530000I50000J0D01*
G01*
G04 #@! TD*
M02*
