G04 #@! TF.GenerationSoftware,KiCad,Pcbnew,9.0.0*
G04 #@! TF.CreationDate,2025-02-26T19:26:12-05:00*
G04 #@! TF.ProjectId,rp2350-decoder,72703233-3530-42d6-9465-636f6465722e,v0.0.3*
G04 #@! TF.SameCoordinates,Original*
G04 #@! TF.FileFunction,Legend,Bot*
G04 #@! TF.FilePolarity,Positive*
%FSLAX46Y46*%
G04 Gerber Fmt 4.6, Leading zero omitted, Abs format (unit mm)*
G04 Created by KiCad (PCBNEW 9.0.0) date 2025-02-26 19:26:12*
%MOMM*%
%LPD*%
G01*
G04 APERTURE LIST*
%ADD10C,0.200000*%
%ADD11C,0.180000*%
%ADD12C,0.150000*%
%ADD13C,0.120000*%
%ADD14C,0.100000*%
%ADD15C,0.250000*%
%ADD16C,0.225000*%
G04 APERTURE END LIST*
D10*
G36*
X34120000Y-16807739D02*
G01*
X33973704Y-16738206D01*
X33793203Y-16662964D01*
X33601273Y-16592678D01*
X33385317Y-16523745D01*
X33385317Y-16744785D01*
X33503347Y-16777636D01*
X33631819Y-16816837D01*
X33758215Y-16857442D01*
X33869895Y-16897315D01*
X33758215Y-16936455D01*
X33631819Y-16977732D01*
X33503347Y-17016872D01*
X33385317Y-17049783D01*
X33385317Y-17265206D01*
X33601273Y-17196273D01*
X33793203Y-17125987D01*
X33973704Y-17050745D01*
X34120000Y-16981212D01*
X34120000Y-16807739D01*
G37*
G36*
X33757789Y-17334082D02*
G01*
X33859636Y-17353093D01*
X33942175Y-17382203D01*
X34008686Y-17420178D01*
X34056401Y-17460851D01*
X34092532Y-17506081D01*
X34118274Y-17556433D01*
X34134064Y-17612923D01*
X34139539Y-17676938D01*
X34134063Y-17740954D01*
X34118273Y-17797437D01*
X34092530Y-17847776D01*
X34056400Y-17892988D01*
X34008686Y-17933637D01*
X33942171Y-17971639D01*
X33859630Y-18000768D01*
X33757785Y-18019790D01*
X33632796Y-18026694D01*
X33508559Y-18019804D01*
X33407156Y-18000803D01*
X33324813Y-17971678D01*
X33258311Y-17933637D01*
X33210571Y-17892984D01*
X33174424Y-17847771D01*
X33148671Y-17797432D01*
X33132874Y-17740950D01*
X33127397Y-17676938D01*
X33307159Y-17676938D01*
X33313241Y-17713327D01*
X33330912Y-17742639D01*
X33358481Y-17765768D01*
X33398018Y-17784649D01*
X33443555Y-17797538D01*
X33500722Y-17806997D01*
X33561706Y-17812172D01*
X33632796Y-17814019D01*
X33703921Y-17812178D01*
X33765542Y-17806997D01*
X33823309Y-17797523D01*
X33868979Y-17784649D01*
X33908464Y-17765772D01*
X33936024Y-17742639D01*
X33953695Y-17713327D01*
X33959776Y-17676938D01*
X33953672Y-17640661D01*
X33936024Y-17611908D01*
X33908558Y-17589202D01*
X33868979Y-17569899D01*
X33823272Y-17556511D01*
X33765542Y-17546818D01*
X33703922Y-17541682D01*
X33632796Y-17539857D01*
X33561706Y-17541688D01*
X33500722Y-17546818D01*
X33443593Y-17556495D01*
X33398018Y-17569899D01*
X33358386Y-17589206D01*
X33330912Y-17611908D01*
X33313263Y-17640661D01*
X33307159Y-17676938D01*
X33127397Y-17676938D01*
X33131260Y-17624612D01*
X33142522Y-17576833D01*
X33160980Y-17532835D01*
X33186433Y-17492433D01*
X33218873Y-17455682D01*
X33258982Y-17422315D01*
X33303579Y-17394799D01*
X33355956Y-17371149D01*
X33417191Y-17351668D01*
X33514784Y-17333673D01*
X33632796Y-17327182D01*
X33757789Y-17334082D01*
G37*
G36*
X34010579Y-18376083D02*
G01*
X34050775Y-18371270D01*
X34082087Y-18357871D01*
X34106627Y-18336211D01*
X34125039Y-18308209D01*
X34135882Y-18278379D01*
X34139539Y-18245963D01*
X34135882Y-18213546D01*
X34125039Y-18183717D01*
X34106627Y-18155715D01*
X34082087Y-18134055D01*
X34050775Y-18120656D01*
X34010579Y-18115842D01*
X33970384Y-18120657D01*
X33939095Y-18134057D01*
X33914591Y-18155715D01*
X33896143Y-18183721D01*
X33885281Y-18213550D01*
X33881618Y-18245963D01*
X33885281Y-18278376D01*
X33896143Y-18308205D01*
X33914591Y-18336211D01*
X33939095Y-18357869D01*
X33970384Y-18371268D01*
X34010579Y-18376083D01*
G37*
G36*
X33757789Y-18472254D02*
G01*
X33859636Y-18491265D01*
X33942175Y-18520374D01*
X34008686Y-18558349D01*
X34056401Y-18599023D01*
X34092532Y-18644253D01*
X34118274Y-18694605D01*
X34134064Y-18751095D01*
X34139539Y-18815110D01*
X34134063Y-18879125D01*
X34118273Y-18935609D01*
X34092530Y-18985948D01*
X34056400Y-19031159D01*
X34008686Y-19071809D01*
X33942171Y-19109811D01*
X33859630Y-19138939D01*
X33757785Y-19157962D01*
X33632796Y-19164865D01*
X33508559Y-19157975D01*
X33407156Y-19138975D01*
X33324813Y-19109849D01*
X33258311Y-19071809D01*
X33210571Y-19031156D01*
X33174424Y-18985943D01*
X33148671Y-18935604D01*
X33132874Y-18879122D01*
X33127397Y-18815110D01*
X33307159Y-18815110D01*
X33313241Y-18851499D01*
X33330912Y-18880811D01*
X33358481Y-18903940D01*
X33398018Y-18922821D01*
X33443555Y-18935710D01*
X33500722Y-18945169D01*
X33561706Y-18950343D01*
X33632796Y-18952191D01*
X33703921Y-18950349D01*
X33765542Y-18945169D01*
X33823309Y-18935694D01*
X33868979Y-18922821D01*
X33908464Y-18903943D01*
X33936024Y-18880811D01*
X33953695Y-18851499D01*
X33959776Y-18815110D01*
X33953672Y-18778833D01*
X33936024Y-18750080D01*
X33908558Y-18727374D01*
X33868979Y-18708070D01*
X33823272Y-18694683D01*
X33765542Y-18684989D01*
X33703922Y-18679854D01*
X33632796Y-18678028D01*
X33561706Y-18679860D01*
X33500722Y-18684989D01*
X33443593Y-18694667D01*
X33398018Y-18708070D01*
X33358386Y-18727377D01*
X33330912Y-18750080D01*
X33313263Y-18778833D01*
X33307159Y-18815110D01*
X33127397Y-18815110D01*
X33131260Y-18762784D01*
X33142522Y-18715004D01*
X33160980Y-18671006D01*
X33186433Y-18630605D01*
X33218873Y-18593853D01*
X33258982Y-18560487D01*
X33303579Y-18532971D01*
X33355956Y-18509320D01*
X33417191Y-18489839D01*
X33514784Y-18471845D01*
X33632796Y-18465354D01*
X33757789Y-18472254D01*
G37*
G36*
X34010579Y-19514255D02*
G01*
X34050775Y-19509442D01*
X34082087Y-19496043D01*
X34106627Y-19474382D01*
X34125039Y-19446380D01*
X34135882Y-19416551D01*
X34139539Y-19384134D01*
X34135882Y-19351718D01*
X34125039Y-19321889D01*
X34106627Y-19293887D01*
X34082087Y-19272226D01*
X34050775Y-19258827D01*
X34010579Y-19254014D01*
X33970384Y-19258829D01*
X33939095Y-19272229D01*
X33914591Y-19293887D01*
X33896143Y-19321893D01*
X33885281Y-19351722D01*
X33881618Y-19384134D01*
X33885281Y-19416547D01*
X33896143Y-19446376D01*
X33914591Y-19474382D01*
X33939095Y-19496040D01*
X33970384Y-19509440D01*
X34010579Y-19514255D01*
G37*
G36*
X34139539Y-19874940D02*
G01*
X34134654Y-19795195D01*
X34121526Y-19714045D01*
X34103574Y-19642727D01*
X34085561Y-19592351D01*
X33913309Y-19632896D01*
X33946221Y-19725952D01*
X33958907Y-19786220D01*
X33963684Y-19866575D01*
X33958811Y-19930196D01*
X33946020Y-19975815D01*
X33927170Y-20007870D01*
X33900149Y-20032648D01*
X33867934Y-20047460D01*
X33828862Y-20052627D01*
X33793062Y-20048373D01*
X33764993Y-20036507D01*
X33741599Y-20017608D01*
X33722861Y-19992421D01*
X33709420Y-19962614D01*
X33700390Y-19925987D01*
X33694040Y-19844166D01*
X33694040Y-19763016D01*
X33526001Y-19763016D01*
X33526001Y-19855340D01*
X33520383Y-19914813D01*
X33512720Y-19942296D01*
X33501516Y-19965860D01*
X33485798Y-19985929D01*
X33465062Y-20001519D01*
X33439963Y-20011268D01*
X33406933Y-20014831D01*
X33381591Y-20011905D01*
X33360710Y-20003595D01*
X33342721Y-19990762D01*
X33328469Y-19974958D01*
X33317539Y-19956349D01*
X33309541Y-19934414D01*
X33303251Y-19887519D01*
X33307918Y-19828938D01*
X33321448Y-19776327D01*
X33341973Y-19727046D01*
X33366205Y-19683271D01*
X33213920Y-19609143D01*
X33184672Y-19661594D01*
X33156706Y-19728028D01*
X33135762Y-19805698D01*
X33129536Y-19847700D01*
X33127397Y-19893137D01*
X33132837Y-19975256D01*
X33147730Y-20040720D01*
X33172907Y-20098690D01*
X33205249Y-20143547D01*
X33245689Y-20178952D01*
X33292199Y-20203691D01*
X33343609Y-20218275D01*
X33400887Y-20223292D01*
X33438351Y-20219804D01*
X33475333Y-20209240D01*
X33512384Y-20191113D01*
X33545694Y-20166995D01*
X33572851Y-20138236D01*
X33594389Y-20104407D01*
X33618723Y-20151835D01*
X33649094Y-20190393D01*
X33685736Y-20221216D01*
X33727887Y-20243751D01*
X33775995Y-20257645D01*
X33831427Y-20262493D01*
X33896468Y-20256757D01*
X33954830Y-20240084D01*
X34007220Y-20211584D01*
X34052405Y-20170169D01*
X34088157Y-20117675D01*
X34116519Y-20049147D01*
X34133373Y-19971917D01*
X34139539Y-19874940D01*
G37*
G36*
X37809539Y-21800689D02*
G01*
X37803514Y-21704666D01*
X37786505Y-21622563D01*
X37759669Y-21552262D01*
X37723530Y-21491995D01*
X37677953Y-21440431D01*
X37623902Y-21397831D01*
X37561015Y-21363817D01*
X37487944Y-21338454D01*
X37402984Y-21322358D01*
X37304139Y-21316661D01*
X37224594Y-21321104D01*
X37153348Y-21333883D01*
X37089328Y-21354397D01*
X37028617Y-21383241D01*
X36975677Y-21417751D01*
X36929715Y-21457956D01*
X36890000Y-21504305D01*
X36857144Y-21556319D01*
X36830980Y-21614637D01*
X36812529Y-21676109D01*
X36801249Y-21741671D01*
X36797397Y-21811925D01*
X36799782Y-21872031D01*
X36806495Y-21923849D01*
X36827500Y-22011959D01*
X36851985Y-22074913D01*
X36871585Y-22111305D01*
X37046280Y-22048352D01*
X37024747Y-22001258D01*
X37005675Y-21944121D01*
X36993300Y-21882370D01*
X36988883Y-21809116D01*
X36993095Y-21759353D01*
X37005797Y-21710442D01*
X37027666Y-21665136D01*
X37059958Y-21625079D01*
X37101605Y-21592367D01*
X37156372Y-21565606D01*
X37219117Y-21549274D01*
X37299926Y-21543257D01*
X37366131Y-21547027D01*
X37425956Y-21557912D01*
X37481028Y-21577507D01*
X37526584Y-21605478D01*
X37564019Y-21642974D01*
X37593445Y-21691574D01*
X37611495Y-21748261D01*
X37618053Y-21820290D01*
X37612496Y-21905592D01*
X37599185Y-21972758D01*
X37581660Y-22024538D01*
X37563464Y-22065143D01*
X37736755Y-22125288D01*
X37761742Y-22073730D01*
X37787130Y-21995168D01*
X37803579Y-21907615D01*
X37809539Y-21800689D01*
G37*
G36*
X37809539Y-43400689D02*
G01*
X37803514Y-43304666D01*
X37786505Y-43222563D01*
X37759669Y-43152262D01*
X37723530Y-43091995D01*
X37677953Y-43040431D01*
X37623902Y-42997831D01*
X37561015Y-42963817D01*
X37487944Y-42938454D01*
X37402984Y-42922358D01*
X37304139Y-42916661D01*
X37224594Y-42921104D01*
X37153348Y-42933883D01*
X37089328Y-42954397D01*
X37028617Y-42983241D01*
X36975677Y-43017751D01*
X36929715Y-43057956D01*
X36890000Y-43104305D01*
X36857144Y-43156319D01*
X36830980Y-43214637D01*
X36812529Y-43276109D01*
X36801249Y-43341671D01*
X36797397Y-43411925D01*
X36799782Y-43472031D01*
X36806495Y-43523849D01*
X36827500Y-43611959D01*
X36851985Y-43674913D01*
X36871585Y-43711305D01*
X37046280Y-43648352D01*
X37024747Y-43601258D01*
X37005675Y-43544121D01*
X36993300Y-43482370D01*
X36988883Y-43409116D01*
X36993095Y-43359353D01*
X37005797Y-43310442D01*
X37027666Y-43265136D01*
X37059958Y-43225079D01*
X37101605Y-43192367D01*
X37156372Y-43165606D01*
X37219117Y-43149274D01*
X37299926Y-43143257D01*
X37366131Y-43147027D01*
X37425956Y-43157912D01*
X37481028Y-43177507D01*
X37526584Y-43205478D01*
X37564019Y-43242974D01*
X37593445Y-43291574D01*
X37611495Y-43348261D01*
X37618053Y-43420290D01*
X37612496Y-43505592D01*
X37599185Y-43572758D01*
X37581660Y-43624538D01*
X37563464Y-43665143D01*
X37736755Y-43725288D01*
X37761742Y-43673730D01*
X37787130Y-43595168D01*
X37803579Y-43507615D01*
X37809539Y-43400689D01*
G37*
D11*
G36*
X37055744Y-36275844D02*
G01*
X36997737Y-36389966D01*
X36929165Y-36537001D01*
X36858518Y-36698750D01*
X36792756Y-36854211D01*
X36726993Y-36698750D01*
X36656346Y-36537001D01*
X36587775Y-36389966D01*
X36529706Y-36275844D01*
X36331076Y-36275844D01*
X36305186Y-36491938D01*
X36284242Y-36740882D01*
X36267450Y-37000268D01*
X36254139Y-37245000D01*
X36466753Y-37245000D01*
X36477988Y-36937376D01*
X36498932Y-36601786D01*
X36554924Y-36732334D01*
X36615802Y-36875460D01*
X36673810Y-37012297D01*
X36721376Y-37123855D01*
X36873905Y-37123855D01*
X36921472Y-37012297D01*
X36979540Y-36875460D01*
X37040418Y-36732334D01*
X37096350Y-36601786D01*
X37117355Y-36937376D01*
X37128529Y-37245000D01*
X37341142Y-37245000D01*
X37327831Y-37000268D01*
X37311100Y-36740882D01*
X37290095Y-36491938D01*
X37264206Y-36275844D01*
X37055744Y-36275844D01*
G37*
G36*
X35793375Y-37076960D02*
G01*
X35749248Y-37074846D01*
X35717171Y-37069328D01*
X35689033Y-37059801D01*
X35668872Y-37048384D01*
X35653249Y-37033632D01*
X35643715Y-37017060D01*
X35636693Y-36976577D01*
X35641503Y-36947237D01*
X35655908Y-36921378D01*
X35681451Y-36897869D01*
X35735118Y-36868448D01*
X35835324Y-36830092D01*
X35930456Y-36791624D01*
X35975801Y-36767013D01*
X36015819Y-36737096D01*
X36049891Y-36700987D01*
X36077368Y-36657412D01*
X36094806Y-36607227D01*
X36101121Y-36543351D01*
X36094640Y-36478599D01*
X36075964Y-36422329D01*
X36045521Y-36372518D01*
X36004584Y-36330737D01*
X35954512Y-36297838D01*
X35892660Y-36272669D01*
X35824417Y-36257700D01*
X35744404Y-36252397D01*
X35650070Y-36258034D01*
X35575144Y-36273401D01*
X35507389Y-36296474D01*
X35457602Y-36319563D01*
X35520556Y-36493098D01*
X35562604Y-36473698D01*
X35610804Y-36456095D01*
X35663233Y-36444320D01*
X35730360Y-36439975D01*
X35782732Y-36442990D01*
X35818910Y-36450709D01*
X35843017Y-36461591D01*
X35861934Y-36478406D01*
X35873257Y-36499949D01*
X35877273Y-36527780D01*
X35873980Y-36552706D01*
X35864694Y-36572416D01*
X35849972Y-36589235D01*
X35829035Y-36605205D01*
X35775912Y-36631706D01*
X35709417Y-36656191D01*
X35577953Y-36711451D01*
X35525629Y-36741704D01*
X35484896Y-36775076D01*
X35452572Y-36814533D01*
X35429636Y-36860378D01*
X35416342Y-36912284D01*
X35411440Y-36979202D01*
X35417817Y-37045380D01*
X35435949Y-37101266D01*
X35465289Y-37148932D01*
X35506573Y-37189740D01*
X35555229Y-37220086D01*
X35617176Y-37243486D01*
X35695381Y-37258898D01*
X35793375Y-37264539D01*
X35856174Y-37262509D01*
X35909513Y-37256845D01*
X36001104Y-37237978D01*
X36069675Y-37214164D01*
X36117913Y-37190350D01*
X36056364Y-37015411D01*
X36010023Y-37037123D01*
X35949385Y-37058093D01*
X35881920Y-37071824D01*
X35793375Y-37076960D01*
G37*
D10*
G36*
X34120000Y-38407739D02*
G01*
X33973704Y-38338206D01*
X33793203Y-38262964D01*
X33601273Y-38192678D01*
X33385317Y-38123745D01*
X33385317Y-38344785D01*
X33503347Y-38377636D01*
X33631819Y-38416837D01*
X33758215Y-38457442D01*
X33869895Y-38497315D01*
X33758215Y-38536455D01*
X33631819Y-38577732D01*
X33503347Y-38616872D01*
X33385317Y-38649783D01*
X33385317Y-38865206D01*
X33601273Y-38796273D01*
X33793203Y-38725987D01*
X33973704Y-38650745D01*
X34120000Y-38581212D01*
X34120000Y-38407739D01*
G37*
G36*
X33757789Y-38934082D02*
G01*
X33859636Y-38953093D01*
X33942175Y-38982203D01*
X34008686Y-39020178D01*
X34056401Y-39060851D01*
X34092532Y-39106081D01*
X34118274Y-39156433D01*
X34134064Y-39212923D01*
X34139539Y-39276938D01*
X34134063Y-39340954D01*
X34118273Y-39397437D01*
X34092530Y-39447776D01*
X34056400Y-39492988D01*
X34008686Y-39533637D01*
X33942171Y-39571639D01*
X33859630Y-39600768D01*
X33757785Y-39619790D01*
X33632796Y-39626694D01*
X33508559Y-39619804D01*
X33407156Y-39600803D01*
X33324813Y-39571678D01*
X33258311Y-39533637D01*
X33210571Y-39492984D01*
X33174424Y-39447771D01*
X33148671Y-39397432D01*
X33132874Y-39340950D01*
X33127397Y-39276938D01*
X33307159Y-39276938D01*
X33313241Y-39313327D01*
X33330912Y-39342639D01*
X33358481Y-39365768D01*
X33398018Y-39384649D01*
X33443555Y-39397538D01*
X33500722Y-39406997D01*
X33561706Y-39412172D01*
X33632796Y-39414019D01*
X33703921Y-39412178D01*
X33765542Y-39406997D01*
X33823309Y-39397523D01*
X33868979Y-39384649D01*
X33908464Y-39365772D01*
X33936024Y-39342639D01*
X33953695Y-39313327D01*
X33959776Y-39276938D01*
X33953672Y-39240661D01*
X33936024Y-39211908D01*
X33908558Y-39189202D01*
X33868979Y-39169899D01*
X33823272Y-39156511D01*
X33765542Y-39146818D01*
X33703922Y-39141682D01*
X33632796Y-39139857D01*
X33561706Y-39141688D01*
X33500722Y-39146818D01*
X33443593Y-39156495D01*
X33398018Y-39169899D01*
X33358386Y-39189206D01*
X33330912Y-39211908D01*
X33313263Y-39240661D01*
X33307159Y-39276938D01*
X33127397Y-39276938D01*
X33131260Y-39224612D01*
X33142522Y-39176833D01*
X33160980Y-39132835D01*
X33186433Y-39092433D01*
X33218873Y-39055682D01*
X33258982Y-39022315D01*
X33303579Y-38994799D01*
X33355956Y-38971149D01*
X33417191Y-38951668D01*
X33514784Y-38933673D01*
X33632796Y-38927182D01*
X33757789Y-38934082D01*
G37*
G36*
X34010579Y-39976083D02*
G01*
X34050775Y-39971270D01*
X34082087Y-39957871D01*
X34106627Y-39936211D01*
X34125039Y-39908209D01*
X34135882Y-39878379D01*
X34139539Y-39845963D01*
X34135882Y-39813546D01*
X34125039Y-39783717D01*
X34106627Y-39755715D01*
X34082087Y-39734055D01*
X34050775Y-39720656D01*
X34010579Y-39715842D01*
X33970384Y-39720657D01*
X33939095Y-39734057D01*
X33914591Y-39755715D01*
X33896143Y-39783721D01*
X33885281Y-39813550D01*
X33881618Y-39845963D01*
X33885281Y-39878376D01*
X33896143Y-39908205D01*
X33914591Y-39936211D01*
X33939095Y-39957869D01*
X33970384Y-39971268D01*
X34010579Y-39976083D01*
G37*
G36*
X33757789Y-40072254D02*
G01*
X33859636Y-40091265D01*
X33942175Y-40120374D01*
X34008686Y-40158349D01*
X34056401Y-40199023D01*
X34092532Y-40244253D01*
X34118274Y-40294605D01*
X34134064Y-40351095D01*
X34139539Y-40415110D01*
X34134063Y-40479125D01*
X34118273Y-40535609D01*
X34092530Y-40585948D01*
X34056400Y-40631159D01*
X34008686Y-40671809D01*
X33942171Y-40709811D01*
X33859630Y-40738939D01*
X33757785Y-40757962D01*
X33632796Y-40764865D01*
X33508559Y-40757975D01*
X33407156Y-40738975D01*
X33324813Y-40709849D01*
X33258311Y-40671809D01*
X33210571Y-40631156D01*
X33174424Y-40585943D01*
X33148671Y-40535604D01*
X33132874Y-40479122D01*
X33127397Y-40415110D01*
X33307159Y-40415110D01*
X33313241Y-40451499D01*
X33330912Y-40480811D01*
X33358481Y-40503940D01*
X33398018Y-40522821D01*
X33443555Y-40535710D01*
X33500722Y-40545169D01*
X33561706Y-40550343D01*
X33632796Y-40552191D01*
X33703921Y-40550349D01*
X33765542Y-40545169D01*
X33823309Y-40535694D01*
X33868979Y-40522821D01*
X33908464Y-40503943D01*
X33936024Y-40480811D01*
X33953695Y-40451499D01*
X33959776Y-40415110D01*
X33953672Y-40378833D01*
X33936024Y-40350080D01*
X33908558Y-40327374D01*
X33868979Y-40308070D01*
X33823272Y-40294683D01*
X33765542Y-40284989D01*
X33703922Y-40279854D01*
X33632796Y-40278028D01*
X33561706Y-40279860D01*
X33500722Y-40284989D01*
X33443593Y-40294667D01*
X33398018Y-40308070D01*
X33358386Y-40327377D01*
X33330912Y-40350080D01*
X33313263Y-40378833D01*
X33307159Y-40415110D01*
X33127397Y-40415110D01*
X33131260Y-40362784D01*
X33142522Y-40315004D01*
X33160980Y-40271006D01*
X33186433Y-40230605D01*
X33218873Y-40193853D01*
X33258982Y-40160487D01*
X33303579Y-40132971D01*
X33355956Y-40109320D01*
X33417191Y-40089839D01*
X33514784Y-40071845D01*
X33632796Y-40065354D01*
X33757789Y-40072254D01*
G37*
G36*
X34010579Y-41114255D02*
G01*
X34050775Y-41109442D01*
X34082087Y-41096043D01*
X34106627Y-41074382D01*
X34125039Y-41046380D01*
X34135882Y-41016551D01*
X34139539Y-40984134D01*
X34135882Y-40951718D01*
X34125039Y-40921889D01*
X34106627Y-40893887D01*
X34082087Y-40872226D01*
X34050775Y-40858827D01*
X34010579Y-40854014D01*
X33970384Y-40858829D01*
X33939095Y-40872229D01*
X33914591Y-40893887D01*
X33896143Y-40921893D01*
X33885281Y-40951722D01*
X33881618Y-40984134D01*
X33885281Y-41016547D01*
X33896143Y-41046376D01*
X33914591Y-41074382D01*
X33939095Y-41096040D01*
X33970384Y-41109440D01*
X34010579Y-41114255D01*
G37*
G36*
X34139539Y-41474940D02*
G01*
X34134654Y-41395195D01*
X34121526Y-41314045D01*
X34103574Y-41242727D01*
X34085561Y-41192351D01*
X33913309Y-41232896D01*
X33946221Y-41325952D01*
X33958907Y-41386220D01*
X33963684Y-41466575D01*
X33958811Y-41530196D01*
X33946020Y-41575815D01*
X33927170Y-41607870D01*
X33900149Y-41632648D01*
X33867934Y-41647460D01*
X33828862Y-41652627D01*
X33793062Y-41648373D01*
X33764993Y-41636507D01*
X33741599Y-41617608D01*
X33722861Y-41592421D01*
X33709420Y-41562614D01*
X33700390Y-41525987D01*
X33694040Y-41444166D01*
X33694040Y-41363016D01*
X33526001Y-41363016D01*
X33526001Y-41455340D01*
X33520383Y-41514813D01*
X33512720Y-41542296D01*
X33501516Y-41565860D01*
X33485798Y-41585929D01*
X33465062Y-41601519D01*
X33439963Y-41611268D01*
X33406933Y-41614831D01*
X33381591Y-41611905D01*
X33360710Y-41603595D01*
X33342721Y-41590762D01*
X33328469Y-41574958D01*
X33317539Y-41556349D01*
X33309541Y-41534414D01*
X33303251Y-41487519D01*
X33307918Y-41428938D01*
X33321448Y-41376327D01*
X33341973Y-41327046D01*
X33366205Y-41283271D01*
X33213920Y-41209143D01*
X33184672Y-41261594D01*
X33156706Y-41328028D01*
X33135762Y-41405698D01*
X33129536Y-41447700D01*
X33127397Y-41493137D01*
X33132837Y-41575256D01*
X33147730Y-41640720D01*
X33172907Y-41698690D01*
X33205249Y-41743547D01*
X33245689Y-41778952D01*
X33292199Y-41803691D01*
X33343609Y-41818275D01*
X33400887Y-41823292D01*
X33438351Y-41819804D01*
X33475333Y-41809240D01*
X33512384Y-41791113D01*
X33545694Y-41766995D01*
X33572851Y-41738236D01*
X33594389Y-41704407D01*
X33618723Y-41751835D01*
X33649094Y-41790393D01*
X33685736Y-41821216D01*
X33727887Y-41843751D01*
X33775995Y-41857645D01*
X33831427Y-41862493D01*
X33896468Y-41856757D01*
X33954830Y-41840084D01*
X34007220Y-41811584D01*
X34052405Y-41770169D01*
X34088157Y-41717675D01*
X34116519Y-41649147D01*
X34133373Y-41571917D01*
X34139539Y-41474940D01*
G37*
D11*
G36*
X38104816Y-25846552D02*
G01*
X38222358Y-25846552D01*
X38222358Y-25729071D01*
X38337030Y-25729071D01*
X38337030Y-25846552D01*
X38454572Y-25846552D01*
X38454572Y-25729071D01*
X38572113Y-25729071D01*
X38572113Y-25846552D01*
X38686785Y-25846552D01*
X38686785Y-25729071D01*
X38804327Y-25729071D01*
X38804327Y-25846552D01*
X38921869Y-25846552D01*
X38921869Y-25729071D01*
X39036541Y-25729071D01*
X39036541Y-25846552D01*
X39154083Y-25846552D01*
X39154083Y-25729071D01*
X39271625Y-25729071D01*
X39271625Y-26428583D01*
X39154083Y-26428583D01*
X39154083Y-26311041D01*
X39036541Y-26311041D01*
X39036541Y-26428583D01*
X38921869Y-26428583D01*
X38921869Y-26311041D01*
X38804327Y-26311041D01*
X38804327Y-26428583D01*
X38686785Y-26428583D01*
X38686785Y-26311041D01*
X38572113Y-26311041D01*
X38572113Y-26428583D01*
X38454572Y-26428583D01*
X38454572Y-26311041D01*
X38337030Y-26311041D01*
X38337030Y-26428583D01*
X38222358Y-26428583D01*
X38222358Y-26311041D01*
X38104816Y-26311041D01*
X38104816Y-26428583D01*
X37987274Y-26428583D01*
X37987274Y-26196308D01*
X38104816Y-26196308D01*
X38222358Y-26196308D01*
X38337030Y-26196308D01*
X38454572Y-26196308D01*
X38572113Y-26196308D01*
X38686785Y-26196308D01*
X38804327Y-26196308D01*
X38921869Y-26196308D01*
X39036541Y-26196308D01*
X39154083Y-26196308D01*
X39154083Y-25961285D01*
X39036541Y-25961285D01*
X39036541Y-26196308D01*
X38921869Y-26196308D01*
X38921869Y-25961285D01*
X38804327Y-25961285D01*
X38804327Y-26196308D01*
X38686785Y-26196308D01*
X38686785Y-25961285D01*
X38572113Y-25961285D01*
X38572113Y-26196308D01*
X38454572Y-26196308D01*
X38454572Y-25961285D01*
X38337030Y-25961285D01*
X38337030Y-26196308D01*
X38222358Y-26196308D01*
X38222358Y-25961285D01*
X38104816Y-25961285D01*
X38104816Y-26196308D01*
X37987274Y-26196308D01*
X37987274Y-25729071D01*
X38104816Y-25729071D01*
X38104816Y-25846552D01*
G37*
G36*
X38686785Y-25436652D02*
G01*
X38921869Y-25436652D01*
X38572113Y-25611530D01*
X38572113Y-25496796D01*
X38337030Y-25496796D01*
X38686785Y-25321919D01*
X38686785Y-25436652D01*
G37*
D10*
G36*
X35530844Y-32401129D02*
G01*
X35530844Y-32619360D01*
X36500000Y-32619360D01*
X36500000Y-32401129D01*
X35530844Y-32401129D01*
G37*
G36*
X37809539Y-54200689D02*
G01*
X37803514Y-54104666D01*
X37786505Y-54022563D01*
X37759669Y-53952262D01*
X37723530Y-53891995D01*
X37677953Y-53840431D01*
X37623902Y-53797831D01*
X37561015Y-53763817D01*
X37487944Y-53738454D01*
X37402984Y-53722358D01*
X37304139Y-53716661D01*
X37224594Y-53721104D01*
X37153348Y-53733883D01*
X37089328Y-53754397D01*
X37028617Y-53783241D01*
X36975677Y-53817751D01*
X36929715Y-53857956D01*
X36890000Y-53904305D01*
X36857144Y-53956319D01*
X36830980Y-54014637D01*
X36812529Y-54076109D01*
X36801249Y-54141671D01*
X36797397Y-54211925D01*
X36799782Y-54272031D01*
X36806495Y-54323849D01*
X36827500Y-54411959D01*
X36851985Y-54474913D01*
X36871585Y-54511305D01*
X37046280Y-54448352D01*
X37024747Y-54401258D01*
X37005675Y-54344121D01*
X36993300Y-54282370D01*
X36988883Y-54209116D01*
X36993095Y-54159353D01*
X37005797Y-54110442D01*
X37027666Y-54065136D01*
X37059958Y-54025079D01*
X37101605Y-53992367D01*
X37156372Y-53965606D01*
X37219117Y-53949274D01*
X37299926Y-53943257D01*
X37366131Y-53947027D01*
X37425956Y-53957912D01*
X37481028Y-53977507D01*
X37526584Y-54005478D01*
X37564019Y-54042974D01*
X37593445Y-54091574D01*
X37611495Y-54148261D01*
X37618053Y-54220290D01*
X37612496Y-54305592D01*
X37599185Y-54372758D01*
X37581660Y-54424538D01*
X37563464Y-54465143D01*
X37736755Y-54525288D01*
X37761742Y-54473730D01*
X37787130Y-54395168D01*
X37803579Y-54307615D01*
X37809539Y-54200689D01*
G37*
G36*
X35530844Y-21601129D02*
G01*
X35530844Y-21819360D01*
X36500000Y-21819360D01*
X36500000Y-21601129D01*
X35530844Y-21601129D01*
G37*
G36*
X34120000Y-49207739D02*
G01*
X33973704Y-49138206D01*
X33793203Y-49062964D01*
X33601273Y-48992678D01*
X33385317Y-48923745D01*
X33385317Y-49144785D01*
X33503347Y-49177636D01*
X33631819Y-49216837D01*
X33758215Y-49257442D01*
X33869895Y-49297315D01*
X33758215Y-49336455D01*
X33631819Y-49377732D01*
X33503347Y-49416872D01*
X33385317Y-49449783D01*
X33385317Y-49665206D01*
X33601273Y-49596273D01*
X33793203Y-49525987D01*
X33973704Y-49450745D01*
X34120000Y-49381212D01*
X34120000Y-49207739D01*
G37*
G36*
X33757789Y-49734082D02*
G01*
X33859636Y-49753093D01*
X33942175Y-49782203D01*
X34008686Y-49820178D01*
X34056401Y-49860851D01*
X34092532Y-49906081D01*
X34118274Y-49956433D01*
X34134064Y-50012923D01*
X34139539Y-50076938D01*
X34134063Y-50140954D01*
X34118273Y-50197437D01*
X34092530Y-50247776D01*
X34056400Y-50292988D01*
X34008686Y-50333637D01*
X33942171Y-50371639D01*
X33859630Y-50400768D01*
X33757785Y-50419790D01*
X33632796Y-50426694D01*
X33508559Y-50419804D01*
X33407156Y-50400803D01*
X33324813Y-50371678D01*
X33258311Y-50333637D01*
X33210571Y-50292984D01*
X33174424Y-50247771D01*
X33148671Y-50197432D01*
X33132874Y-50140950D01*
X33127397Y-50076938D01*
X33307159Y-50076938D01*
X33313241Y-50113327D01*
X33330912Y-50142639D01*
X33358481Y-50165768D01*
X33398018Y-50184649D01*
X33443555Y-50197538D01*
X33500722Y-50206997D01*
X33561706Y-50212172D01*
X33632796Y-50214019D01*
X33703921Y-50212178D01*
X33765542Y-50206997D01*
X33823309Y-50197523D01*
X33868979Y-50184649D01*
X33908464Y-50165772D01*
X33936024Y-50142639D01*
X33953695Y-50113327D01*
X33959776Y-50076938D01*
X33953672Y-50040661D01*
X33936024Y-50011908D01*
X33908558Y-49989202D01*
X33868979Y-49969899D01*
X33823272Y-49956511D01*
X33765542Y-49946818D01*
X33703922Y-49941682D01*
X33632796Y-49939857D01*
X33561706Y-49941688D01*
X33500722Y-49946818D01*
X33443593Y-49956495D01*
X33398018Y-49969899D01*
X33358386Y-49989206D01*
X33330912Y-50011908D01*
X33313263Y-50040661D01*
X33307159Y-50076938D01*
X33127397Y-50076938D01*
X33131260Y-50024612D01*
X33142522Y-49976833D01*
X33160980Y-49932835D01*
X33186433Y-49892433D01*
X33218873Y-49855682D01*
X33258982Y-49822315D01*
X33303579Y-49794799D01*
X33355956Y-49771149D01*
X33417191Y-49751668D01*
X33514784Y-49733673D01*
X33632796Y-49727182D01*
X33757789Y-49734082D01*
G37*
G36*
X34010579Y-50776083D02*
G01*
X34050775Y-50771270D01*
X34082087Y-50757871D01*
X34106627Y-50736211D01*
X34125039Y-50708209D01*
X34135882Y-50678379D01*
X34139539Y-50645963D01*
X34135882Y-50613546D01*
X34125039Y-50583717D01*
X34106627Y-50555715D01*
X34082087Y-50534055D01*
X34050775Y-50520656D01*
X34010579Y-50515842D01*
X33970384Y-50520657D01*
X33939095Y-50534057D01*
X33914591Y-50555715D01*
X33896143Y-50583721D01*
X33885281Y-50613550D01*
X33881618Y-50645963D01*
X33885281Y-50678376D01*
X33896143Y-50708205D01*
X33914591Y-50736211D01*
X33939095Y-50757869D01*
X33970384Y-50771268D01*
X34010579Y-50776083D01*
G37*
G36*
X33757789Y-50872254D02*
G01*
X33859636Y-50891265D01*
X33942175Y-50920374D01*
X34008686Y-50958349D01*
X34056401Y-50999023D01*
X34092532Y-51044253D01*
X34118274Y-51094605D01*
X34134064Y-51151095D01*
X34139539Y-51215110D01*
X34134063Y-51279125D01*
X34118273Y-51335609D01*
X34092530Y-51385948D01*
X34056400Y-51431159D01*
X34008686Y-51471809D01*
X33942171Y-51509811D01*
X33859630Y-51538939D01*
X33757785Y-51557962D01*
X33632796Y-51564865D01*
X33508559Y-51557975D01*
X33407156Y-51538975D01*
X33324813Y-51509849D01*
X33258311Y-51471809D01*
X33210571Y-51431156D01*
X33174424Y-51385943D01*
X33148671Y-51335604D01*
X33132874Y-51279122D01*
X33127397Y-51215110D01*
X33307159Y-51215110D01*
X33313241Y-51251499D01*
X33330912Y-51280811D01*
X33358481Y-51303940D01*
X33398018Y-51322821D01*
X33443555Y-51335710D01*
X33500722Y-51345169D01*
X33561706Y-51350343D01*
X33632796Y-51352191D01*
X33703921Y-51350349D01*
X33765542Y-51345169D01*
X33823309Y-51335694D01*
X33868979Y-51322821D01*
X33908464Y-51303943D01*
X33936024Y-51280811D01*
X33953695Y-51251499D01*
X33959776Y-51215110D01*
X33953672Y-51178833D01*
X33936024Y-51150080D01*
X33908558Y-51127374D01*
X33868979Y-51108070D01*
X33823272Y-51094683D01*
X33765542Y-51084989D01*
X33703922Y-51079854D01*
X33632796Y-51078028D01*
X33561706Y-51079860D01*
X33500722Y-51084989D01*
X33443593Y-51094667D01*
X33398018Y-51108070D01*
X33358386Y-51127377D01*
X33330912Y-51150080D01*
X33313263Y-51178833D01*
X33307159Y-51215110D01*
X33127397Y-51215110D01*
X33131260Y-51162784D01*
X33142522Y-51115004D01*
X33160980Y-51071006D01*
X33186433Y-51030605D01*
X33218873Y-50993853D01*
X33258982Y-50960487D01*
X33303579Y-50932971D01*
X33355956Y-50909320D01*
X33417191Y-50889839D01*
X33514784Y-50871845D01*
X33632796Y-50865354D01*
X33757789Y-50872254D01*
G37*
G36*
X34010579Y-51914255D02*
G01*
X34050775Y-51909442D01*
X34082087Y-51896043D01*
X34106627Y-51874382D01*
X34125039Y-51846380D01*
X34135882Y-51816551D01*
X34139539Y-51784134D01*
X34135882Y-51751718D01*
X34125039Y-51721889D01*
X34106627Y-51693887D01*
X34082087Y-51672226D01*
X34050775Y-51658827D01*
X34010579Y-51654014D01*
X33970384Y-51658829D01*
X33939095Y-51672229D01*
X33914591Y-51693887D01*
X33896143Y-51721893D01*
X33885281Y-51751722D01*
X33881618Y-51784134D01*
X33885281Y-51816547D01*
X33896143Y-51846376D01*
X33914591Y-51874382D01*
X33939095Y-51896040D01*
X33970384Y-51909440D01*
X34010579Y-51914255D01*
G37*
G36*
X34139539Y-52274940D02*
G01*
X34134654Y-52195195D01*
X34121526Y-52114045D01*
X34103574Y-52042727D01*
X34085561Y-51992351D01*
X33913309Y-52032896D01*
X33946221Y-52125952D01*
X33958907Y-52186220D01*
X33963684Y-52266575D01*
X33958811Y-52330196D01*
X33946020Y-52375815D01*
X33927170Y-52407870D01*
X33900149Y-52432648D01*
X33867934Y-52447460D01*
X33828862Y-52452627D01*
X33793062Y-52448373D01*
X33764993Y-52436507D01*
X33741599Y-52417608D01*
X33722861Y-52392421D01*
X33709420Y-52362614D01*
X33700390Y-52325987D01*
X33694040Y-52244166D01*
X33694040Y-52163016D01*
X33526001Y-52163016D01*
X33526001Y-52255340D01*
X33520383Y-52314813D01*
X33512720Y-52342296D01*
X33501516Y-52365860D01*
X33485798Y-52385929D01*
X33465062Y-52401519D01*
X33439963Y-52411268D01*
X33406933Y-52414831D01*
X33381591Y-52411905D01*
X33360710Y-52403595D01*
X33342721Y-52390762D01*
X33328469Y-52374958D01*
X33317539Y-52356349D01*
X33309541Y-52334414D01*
X33303251Y-52287519D01*
X33307918Y-52228938D01*
X33321448Y-52176327D01*
X33341973Y-52127046D01*
X33366205Y-52083271D01*
X33213920Y-52009143D01*
X33184672Y-52061594D01*
X33156706Y-52128028D01*
X33135762Y-52205698D01*
X33129536Y-52247700D01*
X33127397Y-52293137D01*
X33132837Y-52375256D01*
X33147730Y-52440720D01*
X33172907Y-52498690D01*
X33205249Y-52543547D01*
X33245689Y-52578952D01*
X33292199Y-52603691D01*
X33343609Y-52618275D01*
X33400887Y-52623292D01*
X33438351Y-52619804D01*
X33475333Y-52609240D01*
X33512384Y-52591113D01*
X33545694Y-52566995D01*
X33572851Y-52538236D01*
X33594389Y-52504407D01*
X33618723Y-52551835D01*
X33649094Y-52590393D01*
X33685736Y-52621216D01*
X33727887Y-52643751D01*
X33775995Y-52657645D01*
X33831427Y-52662493D01*
X33896468Y-52656757D01*
X33954830Y-52640084D01*
X34007220Y-52611584D01*
X34052405Y-52570169D01*
X34088157Y-52517675D01*
X34116519Y-52449147D01*
X34133373Y-52371917D01*
X34139539Y-52274940D01*
G37*
D11*
G36*
X37055744Y-14675844D02*
G01*
X36997737Y-14789966D01*
X36929165Y-14937001D01*
X36858518Y-15098750D01*
X36792756Y-15254211D01*
X36726993Y-15098750D01*
X36656346Y-14937001D01*
X36587775Y-14789966D01*
X36529706Y-14675844D01*
X36331076Y-14675844D01*
X36305186Y-14891938D01*
X36284242Y-15140882D01*
X36267450Y-15400268D01*
X36254139Y-15645000D01*
X36466753Y-15645000D01*
X36477988Y-15337376D01*
X36498932Y-15001786D01*
X36554924Y-15132334D01*
X36615802Y-15275460D01*
X36673810Y-15412297D01*
X36721376Y-15523855D01*
X36873905Y-15523855D01*
X36921472Y-15412297D01*
X36979540Y-15275460D01*
X37040418Y-15132334D01*
X37096350Y-15001786D01*
X37117355Y-15337376D01*
X37128529Y-15645000D01*
X37341142Y-15645000D01*
X37327831Y-15400268D01*
X37311100Y-15140882D01*
X37290095Y-14891938D01*
X37264206Y-14675844D01*
X37055744Y-14675844D01*
G37*
G36*
X35793375Y-15476960D02*
G01*
X35749248Y-15474846D01*
X35717171Y-15469328D01*
X35689033Y-15459801D01*
X35668872Y-15448384D01*
X35653249Y-15433632D01*
X35643715Y-15417060D01*
X35636693Y-15376577D01*
X35641503Y-15347237D01*
X35655908Y-15321378D01*
X35681451Y-15297869D01*
X35735118Y-15268448D01*
X35835324Y-15230092D01*
X35930456Y-15191624D01*
X35975801Y-15167013D01*
X36015819Y-15137096D01*
X36049891Y-15100987D01*
X36077368Y-15057412D01*
X36094806Y-15007227D01*
X36101121Y-14943351D01*
X36094640Y-14878599D01*
X36075964Y-14822329D01*
X36045521Y-14772518D01*
X36004584Y-14730737D01*
X35954512Y-14697838D01*
X35892660Y-14672669D01*
X35824417Y-14657700D01*
X35744404Y-14652397D01*
X35650070Y-14658034D01*
X35575144Y-14673401D01*
X35507389Y-14696474D01*
X35457602Y-14719563D01*
X35520556Y-14893098D01*
X35562604Y-14873698D01*
X35610804Y-14856095D01*
X35663233Y-14844320D01*
X35730360Y-14839975D01*
X35782732Y-14842990D01*
X35818910Y-14850709D01*
X35843017Y-14861591D01*
X35861934Y-14878406D01*
X35873257Y-14899949D01*
X35877273Y-14927780D01*
X35873980Y-14952706D01*
X35864694Y-14972416D01*
X35849972Y-14989235D01*
X35829035Y-15005205D01*
X35775912Y-15031706D01*
X35709417Y-15056191D01*
X35577953Y-15111451D01*
X35525629Y-15141704D01*
X35484896Y-15175076D01*
X35452572Y-15214533D01*
X35429636Y-15260378D01*
X35416342Y-15312284D01*
X35411440Y-15379202D01*
X35417817Y-15445380D01*
X35435949Y-15501266D01*
X35465289Y-15548932D01*
X35506573Y-15589740D01*
X35555229Y-15620086D01*
X35617176Y-15643486D01*
X35695381Y-15658898D01*
X35793375Y-15664539D01*
X35856174Y-15662509D01*
X35909513Y-15656845D01*
X36001104Y-15637978D01*
X36069675Y-15614164D01*
X36117913Y-15590350D01*
X36056364Y-15415411D01*
X36010023Y-15437123D01*
X35949385Y-15458093D01*
X35881920Y-15471824D01*
X35793375Y-15476960D01*
G37*
D10*
G36*
X37809539Y-32600689D02*
G01*
X37803514Y-32504666D01*
X37786505Y-32422563D01*
X37759669Y-32352262D01*
X37723530Y-32291995D01*
X37677953Y-32240431D01*
X37623902Y-32197831D01*
X37561015Y-32163817D01*
X37487944Y-32138454D01*
X37402984Y-32122358D01*
X37304139Y-32116661D01*
X37224594Y-32121104D01*
X37153348Y-32133883D01*
X37089328Y-32154397D01*
X37028617Y-32183241D01*
X36975677Y-32217751D01*
X36929715Y-32257956D01*
X36890000Y-32304305D01*
X36857144Y-32356319D01*
X36830980Y-32414637D01*
X36812529Y-32476109D01*
X36801249Y-32541671D01*
X36797397Y-32611925D01*
X36799782Y-32672031D01*
X36806495Y-32723849D01*
X36827500Y-32811959D01*
X36851985Y-32874913D01*
X36871585Y-32911305D01*
X37046280Y-32848352D01*
X37024747Y-32801258D01*
X37005675Y-32744121D01*
X36993300Y-32682370D01*
X36988883Y-32609116D01*
X36993095Y-32559353D01*
X37005797Y-32510442D01*
X37027666Y-32465136D01*
X37059958Y-32425079D01*
X37101605Y-32392367D01*
X37156372Y-32365606D01*
X37219117Y-32349274D01*
X37299926Y-32343257D01*
X37366131Y-32347027D01*
X37425956Y-32357912D01*
X37481028Y-32377507D01*
X37526584Y-32405478D01*
X37564019Y-32442974D01*
X37593445Y-32491574D01*
X37611495Y-32548261D01*
X37618053Y-32620290D01*
X37612496Y-32705592D01*
X37599185Y-32772758D01*
X37581660Y-32824538D01*
X37563464Y-32865143D01*
X37736755Y-32925288D01*
X37761742Y-32873730D01*
X37787130Y-32795168D01*
X37803579Y-32707615D01*
X37809539Y-32600689D01*
G37*
D11*
G36*
X38104816Y-36646552D02*
G01*
X38222358Y-36646552D01*
X38222358Y-36529071D01*
X38337030Y-36529071D01*
X38337030Y-36646552D01*
X38454572Y-36646552D01*
X38454572Y-36529071D01*
X38572113Y-36529071D01*
X38572113Y-36646552D01*
X38686785Y-36646552D01*
X38686785Y-36529071D01*
X38804327Y-36529071D01*
X38804327Y-36646552D01*
X38921869Y-36646552D01*
X38921869Y-36529071D01*
X39036541Y-36529071D01*
X39036541Y-36646552D01*
X39154083Y-36646552D01*
X39154083Y-36529071D01*
X39271625Y-36529071D01*
X39271625Y-37228583D01*
X39154083Y-37228583D01*
X39154083Y-37111041D01*
X39036541Y-37111041D01*
X39036541Y-37228583D01*
X38921869Y-37228583D01*
X38921869Y-37111041D01*
X38804327Y-37111041D01*
X38804327Y-37228583D01*
X38686785Y-37228583D01*
X38686785Y-37111041D01*
X38572113Y-37111041D01*
X38572113Y-37228583D01*
X38454572Y-37228583D01*
X38454572Y-37111041D01*
X38337030Y-37111041D01*
X38337030Y-37228583D01*
X38222358Y-37228583D01*
X38222358Y-37111041D01*
X38104816Y-37111041D01*
X38104816Y-37228583D01*
X37987274Y-37228583D01*
X37987274Y-36996308D01*
X38104816Y-36996308D01*
X38222358Y-36996308D01*
X38337030Y-36996308D01*
X38454572Y-36996308D01*
X38572113Y-36996308D01*
X38686785Y-36996308D01*
X38804327Y-36996308D01*
X38921869Y-36996308D01*
X39036541Y-36996308D01*
X39154083Y-36996308D01*
X39154083Y-36761285D01*
X39036541Y-36761285D01*
X39036541Y-36996308D01*
X38921869Y-36996308D01*
X38921869Y-36761285D01*
X38804327Y-36761285D01*
X38804327Y-36996308D01*
X38686785Y-36996308D01*
X38686785Y-36761285D01*
X38572113Y-36761285D01*
X38572113Y-36996308D01*
X38454572Y-36996308D01*
X38454572Y-36761285D01*
X38337030Y-36761285D01*
X38337030Y-36996308D01*
X38222358Y-36996308D01*
X38222358Y-36761285D01*
X38104816Y-36761285D01*
X38104816Y-36996308D01*
X37987274Y-36996308D01*
X37987274Y-36529071D01*
X38104816Y-36529071D01*
X38104816Y-36646552D01*
G37*
G36*
X38686785Y-36236652D02*
G01*
X38921869Y-36236652D01*
X38572113Y-36411530D01*
X38572113Y-36296796D01*
X38337030Y-36296796D01*
X38686785Y-36121919D01*
X38686785Y-36236652D01*
G37*
G36*
X37055744Y-47075844D02*
G01*
X36997737Y-47189966D01*
X36929165Y-47337001D01*
X36858518Y-47498750D01*
X36792756Y-47654211D01*
X36726993Y-47498750D01*
X36656346Y-47337001D01*
X36587775Y-47189966D01*
X36529706Y-47075844D01*
X36331076Y-47075844D01*
X36305186Y-47291938D01*
X36284242Y-47540882D01*
X36267450Y-47800268D01*
X36254139Y-48045000D01*
X36466753Y-48045000D01*
X36477988Y-47737376D01*
X36498932Y-47401786D01*
X36554924Y-47532334D01*
X36615802Y-47675460D01*
X36673810Y-47812297D01*
X36721376Y-47923855D01*
X36873905Y-47923855D01*
X36921472Y-47812297D01*
X36979540Y-47675460D01*
X37040418Y-47532334D01*
X37096350Y-47401786D01*
X37117355Y-47737376D01*
X37128529Y-48045000D01*
X37341142Y-48045000D01*
X37327831Y-47800268D01*
X37311100Y-47540882D01*
X37290095Y-47291938D01*
X37264206Y-47075844D01*
X37055744Y-47075844D01*
G37*
G36*
X35793375Y-47876960D02*
G01*
X35749248Y-47874846D01*
X35717171Y-47869328D01*
X35689033Y-47859801D01*
X35668872Y-47848384D01*
X35653249Y-47833632D01*
X35643715Y-47817060D01*
X35636693Y-47776577D01*
X35641503Y-47747237D01*
X35655908Y-47721378D01*
X35681451Y-47697869D01*
X35735118Y-47668448D01*
X35835324Y-47630092D01*
X35930456Y-47591624D01*
X35975801Y-47567013D01*
X36015819Y-47537096D01*
X36049891Y-47500987D01*
X36077368Y-47457412D01*
X36094806Y-47407227D01*
X36101121Y-47343351D01*
X36094640Y-47278599D01*
X36075964Y-47222329D01*
X36045521Y-47172518D01*
X36004584Y-47130737D01*
X35954512Y-47097838D01*
X35892660Y-47072669D01*
X35824417Y-47057700D01*
X35744404Y-47052397D01*
X35650070Y-47058034D01*
X35575144Y-47073401D01*
X35507389Y-47096474D01*
X35457602Y-47119563D01*
X35520556Y-47293098D01*
X35562604Y-47273698D01*
X35610804Y-47256095D01*
X35663233Y-47244320D01*
X35730360Y-47239975D01*
X35782732Y-47242990D01*
X35818910Y-47250709D01*
X35843017Y-47261591D01*
X35861934Y-47278406D01*
X35873257Y-47299949D01*
X35877273Y-47327780D01*
X35873980Y-47352706D01*
X35864694Y-47372416D01*
X35849972Y-47389235D01*
X35829035Y-47405205D01*
X35775912Y-47431706D01*
X35709417Y-47456191D01*
X35577953Y-47511451D01*
X35525629Y-47541704D01*
X35484896Y-47575076D01*
X35452572Y-47614533D01*
X35429636Y-47660378D01*
X35416342Y-47712284D01*
X35411440Y-47779202D01*
X35417817Y-47845380D01*
X35435949Y-47901266D01*
X35465289Y-47948932D01*
X35506573Y-47989740D01*
X35555229Y-48020086D01*
X35617176Y-48043486D01*
X35695381Y-48058898D01*
X35793375Y-48064539D01*
X35856174Y-48062509D01*
X35909513Y-48056845D01*
X36001104Y-48037978D01*
X36069675Y-48014164D01*
X36117913Y-47990350D01*
X36056364Y-47815411D01*
X36010023Y-47837123D01*
X35949385Y-47858093D01*
X35881920Y-47871824D01*
X35793375Y-47876960D01*
G37*
G36*
X37055744Y-25475844D02*
G01*
X36997737Y-25589966D01*
X36929165Y-25737001D01*
X36858518Y-25898750D01*
X36792756Y-26054211D01*
X36726993Y-25898750D01*
X36656346Y-25737001D01*
X36587775Y-25589966D01*
X36529706Y-25475844D01*
X36331076Y-25475844D01*
X36305186Y-25691938D01*
X36284242Y-25940882D01*
X36267450Y-26200268D01*
X36254139Y-26445000D01*
X36466753Y-26445000D01*
X36477988Y-26137376D01*
X36498932Y-25801786D01*
X36554924Y-25932334D01*
X36615802Y-26075460D01*
X36673810Y-26212297D01*
X36721376Y-26323855D01*
X36873905Y-26323855D01*
X36921472Y-26212297D01*
X36979540Y-26075460D01*
X37040418Y-25932334D01*
X37096350Y-25801786D01*
X37117355Y-26137376D01*
X37128529Y-26445000D01*
X37341142Y-26445000D01*
X37327831Y-26200268D01*
X37311100Y-25940882D01*
X37290095Y-25691938D01*
X37264206Y-25475844D01*
X37055744Y-25475844D01*
G37*
G36*
X35793375Y-26276960D02*
G01*
X35749248Y-26274846D01*
X35717171Y-26269328D01*
X35689033Y-26259801D01*
X35668872Y-26248384D01*
X35653249Y-26233632D01*
X35643715Y-26217060D01*
X35636693Y-26176577D01*
X35641503Y-26147237D01*
X35655908Y-26121378D01*
X35681451Y-26097869D01*
X35735118Y-26068448D01*
X35835324Y-26030092D01*
X35930456Y-25991624D01*
X35975801Y-25967013D01*
X36015819Y-25937096D01*
X36049891Y-25900987D01*
X36077368Y-25857412D01*
X36094806Y-25807227D01*
X36101121Y-25743351D01*
X36094640Y-25678599D01*
X36075964Y-25622329D01*
X36045521Y-25572518D01*
X36004584Y-25530737D01*
X35954512Y-25497838D01*
X35892660Y-25472669D01*
X35824417Y-25457700D01*
X35744404Y-25452397D01*
X35650070Y-25458034D01*
X35575144Y-25473401D01*
X35507389Y-25496474D01*
X35457602Y-25519563D01*
X35520556Y-25693098D01*
X35562604Y-25673698D01*
X35610804Y-25656095D01*
X35663233Y-25644320D01*
X35730360Y-25639975D01*
X35782732Y-25642990D01*
X35818910Y-25650709D01*
X35843017Y-25661591D01*
X35861934Y-25678406D01*
X35873257Y-25699949D01*
X35877273Y-25727780D01*
X35873980Y-25752706D01*
X35864694Y-25772416D01*
X35849972Y-25789235D01*
X35829035Y-25805205D01*
X35775912Y-25831706D01*
X35709417Y-25856191D01*
X35577953Y-25911451D01*
X35525629Y-25941704D01*
X35484896Y-25975076D01*
X35452572Y-26014533D01*
X35429636Y-26060378D01*
X35416342Y-26112284D01*
X35411440Y-26179202D01*
X35417817Y-26245380D01*
X35435949Y-26301266D01*
X35465289Y-26348932D01*
X35506573Y-26389740D01*
X35555229Y-26420086D01*
X35617176Y-26443486D01*
X35695381Y-26458898D01*
X35793375Y-26464539D01*
X35856174Y-26462509D01*
X35909513Y-26456845D01*
X36001104Y-26437978D01*
X36069675Y-26414164D01*
X36117913Y-26390350D01*
X36056364Y-26215411D01*
X36010023Y-26237123D01*
X35949385Y-26258093D01*
X35881920Y-26271824D01*
X35793375Y-26276960D01*
G37*
D10*
G36*
X35530844Y-54001129D02*
G01*
X35530844Y-54219360D01*
X36500000Y-54219360D01*
X36500000Y-54001129D01*
X35530844Y-54001129D01*
G37*
G36*
X35530844Y-43201129D02*
G01*
X35530844Y-43419360D01*
X36500000Y-43419360D01*
X36500000Y-43201129D01*
X35530844Y-43201129D01*
G37*
D11*
G36*
X38104816Y-47446552D02*
G01*
X38222358Y-47446552D01*
X38222358Y-47329071D01*
X38337030Y-47329071D01*
X38337030Y-47446552D01*
X38454572Y-47446552D01*
X38454572Y-47329071D01*
X38572113Y-47329071D01*
X38572113Y-47446552D01*
X38686785Y-47446552D01*
X38686785Y-47329071D01*
X38804327Y-47329071D01*
X38804327Y-47446552D01*
X38921869Y-47446552D01*
X38921869Y-47329071D01*
X39036541Y-47329071D01*
X39036541Y-47446552D01*
X39154083Y-47446552D01*
X39154083Y-47329071D01*
X39271625Y-47329071D01*
X39271625Y-48028583D01*
X39154083Y-48028583D01*
X39154083Y-47911041D01*
X39036541Y-47911041D01*
X39036541Y-48028583D01*
X38921869Y-48028583D01*
X38921869Y-47911041D01*
X38804327Y-47911041D01*
X38804327Y-48028583D01*
X38686785Y-48028583D01*
X38686785Y-47911041D01*
X38572113Y-47911041D01*
X38572113Y-48028583D01*
X38454572Y-48028583D01*
X38454572Y-47911041D01*
X38337030Y-47911041D01*
X38337030Y-48028583D01*
X38222358Y-48028583D01*
X38222358Y-47911041D01*
X38104816Y-47911041D01*
X38104816Y-48028583D01*
X37987274Y-48028583D01*
X37987274Y-47796308D01*
X38104816Y-47796308D01*
X38222358Y-47796308D01*
X38337030Y-47796308D01*
X38454572Y-47796308D01*
X38572113Y-47796308D01*
X38686785Y-47796308D01*
X38804327Y-47796308D01*
X38921869Y-47796308D01*
X39036541Y-47796308D01*
X39154083Y-47796308D01*
X39154083Y-47561285D01*
X39036541Y-47561285D01*
X39036541Y-47796308D01*
X38921869Y-47796308D01*
X38921869Y-47561285D01*
X38804327Y-47561285D01*
X38804327Y-47796308D01*
X38686785Y-47796308D01*
X38686785Y-47561285D01*
X38572113Y-47561285D01*
X38572113Y-47796308D01*
X38454572Y-47796308D01*
X38454572Y-47561285D01*
X38337030Y-47561285D01*
X38337030Y-47796308D01*
X38222358Y-47796308D01*
X38222358Y-47561285D01*
X38104816Y-47561285D01*
X38104816Y-47796308D01*
X37987274Y-47796308D01*
X37987274Y-47329071D01*
X38104816Y-47329071D01*
X38104816Y-47446552D01*
G37*
G36*
X38686785Y-47036652D02*
G01*
X38921869Y-47036652D01*
X38572113Y-47211530D01*
X38572113Y-47096796D01*
X38337030Y-47096796D01*
X38686785Y-46921919D01*
X38686785Y-47036652D01*
G37*
D10*
G36*
X34120000Y-27607739D02*
G01*
X33973704Y-27538206D01*
X33793203Y-27462964D01*
X33601273Y-27392678D01*
X33385317Y-27323745D01*
X33385317Y-27544785D01*
X33503347Y-27577636D01*
X33631819Y-27616837D01*
X33758215Y-27657442D01*
X33869895Y-27697315D01*
X33758215Y-27736455D01*
X33631819Y-27777732D01*
X33503347Y-27816872D01*
X33385317Y-27849783D01*
X33385317Y-28065206D01*
X33601273Y-27996273D01*
X33793203Y-27925987D01*
X33973704Y-27850745D01*
X34120000Y-27781212D01*
X34120000Y-27607739D01*
G37*
G36*
X33757789Y-28134082D02*
G01*
X33859636Y-28153093D01*
X33942175Y-28182203D01*
X34008686Y-28220178D01*
X34056401Y-28260851D01*
X34092532Y-28306081D01*
X34118274Y-28356433D01*
X34134064Y-28412923D01*
X34139539Y-28476938D01*
X34134063Y-28540954D01*
X34118273Y-28597437D01*
X34092530Y-28647776D01*
X34056400Y-28692988D01*
X34008686Y-28733637D01*
X33942171Y-28771639D01*
X33859630Y-28800768D01*
X33757785Y-28819790D01*
X33632796Y-28826694D01*
X33508559Y-28819804D01*
X33407156Y-28800803D01*
X33324813Y-28771678D01*
X33258311Y-28733637D01*
X33210571Y-28692984D01*
X33174424Y-28647771D01*
X33148671Y-28597432D01*
X33132874Y-28540950D01*
X33127397Y-28476938D01*
X33307159Y-28476938D01*
X33313241Y-28513327D01*
X33330912Y-28542639D01*
X33358481Y-28565768D01*
X33398018Y-28584649D01*
X33443555Y-28597538D01*
X33500722Y-28606997D01*
X33561706Y-28612172D01*
X33632796Y-28614019D01*
X33703921Y-28612178D01*
X33765542Y-28606997D01*
X33823309Y-28597523D01*
X33868979Y-28584649D01*
X33908464Y-28565772D01*
X33936024Y-28542639D01*
X33953695Y-28513327D01*
X33959776Y-28476938D01*
X33953672Y-28440661D01*
X33936024Y-28411908D01*
X33908558Y-28389202D01*
X33868979Y-28369899D01*
X33823272Y-28356511D01*
X33765542Y-28346818D01*
X33703922Y-28341682D01*
X33632796Y-28339857D01*
X33561706Y-28341688D01*
X33500722Y-28346818D01*
X33443593Y-28356495D01*
X33398018Y-28369899D01*
X33358386Y-28389206D01*
X33330912Y-28411908D01*
X33313263Y-28440661D01*
X33307159Y-28476938D01*
X33127397Y-28476938D01*
X33131260Y-28424612D01*
X33142522Y-28376833D01*
X33160980Y-28332835D01*
X33186433Y-28292433D01*
X33218873Y-28255682D01*
X33258982Y-28222315D01*
X33303579Y-28194799D01*
X33355956Y-28171149D01*
X33417191Y-28151668D01*
X33514784Y-28133673D01*
X33632796Y-28127182D01*
X33757789Y-28134082D01*
G37*
G36*
X34010579Y-29176083D02*
G01*
X34050775Y-29171270D01*
X34082087Y-29157871D01*
X34106627Y-29136211D01*
X34125039Y-29108209D01*
X34135882Y-29078379D01*
X34139539Y-29045963D01*
X34135882Y-29013546D01*
X34125039Y-28983717D01*
X34106627Y-28955715D01*
X34082087Y-28934055D01*
X34050775Y-28920656D01*
X34010579Y-28915842D01*
X33970384Y-28920657D01*
X33939095Y-28934057D01*
X33914591Y-28955715D01*
X33896143Y-28983721D01*
X33885281Y-29013550D01*
X33881618Y-29045963D01*
X33885281Y-29078376D01*
X33896143Y-29108205D01*
X33914591Y-29136211D01*
X33939095Y-29157869D01*
X33970384Y-29171268D01*
X34010579Y-29176083D01*
G37*
G36*
X33757789Y-29272254D02*
G01*
X33859636Y-29291265D01*
X33942175Y-29320374D01*
X34008686Y-29358349D01*
X34056401Y-29399023D01*
X34092532Y-29444253D01*
X34118274Y-29494605D01*
X34134064Y-29551095D01*
X34139539Y-29615110D01*
X34134063Y-29679125D01*
X34118273Y-29735609D01*
X34092530Y-29785948D01*
X34056400Y-29831159D01*
X34008686Y-29871809D01*
X33942171Y-29909811D01*
X33859630Y-29938939D01*
X33757785Y-29957962D01*
X33632796Y-29964865D01*
X33508559Y-29957975D01*
X33407156Y-29938975D01*
X33324813Y-29909849D01*
X33258311Y-29871809D01*
X33210571Y-29831156D01*
X33174424Y-29785943D01*
X33148671Y-29735604D01*
X33132874Y-29679122D01*
X33127397Y-29615110D01*
X33307159Y-29615110D01*
X33313241Y-29651499D01*
X33330912Y-29680811D01*
X33358481Y-29703940D01*
X33398018Y-29722821D01*
X33443555Y-29735710D01*
X33500722Y-29745169D01*
X33561706Y-29750343D01*
X33632796Y-29752191D01*
X33703921Y-29750349D01*
X33765542Y-29745169D01*
X33823309Y-29735694D01*
X33868979Y-29722821D01*
X33908464Y-29703943D01*
X33936024Y-29680811D01*
X33953695Y-29651499D01*
X33959776Y-29615110D01*
X33953672Y-29578833D01*
X33936024Y-29550080D01*
X33908558Y-29527374D01*
X33868979Y-29508070D01*
X33823272Y-29494683D01*
X33765542Y-29484989D01*
X33703922Y-29479854D01*
X33632796Y-29478028D01*
X33561706Y-29479860D01*
X33500722Y-29484989D01*
X33443593Y-29494667D01*
X33398018Y-29508070D01*
X33358386Y-29527377D01*
X33330912Y-29550080D01*
X33313263Y-29578833D01*
X33307159Y-29615110D01*
X33127397Y-29615110D01*
X33131260Y-29562784D01*
X33142522Y-29515004D01*
X33160980Y-29471006D01*
X33186433Y-29430605D01*
X33218873Y-29393853D01*
X33258982Y-29360487D01*
X33303579Y-29332971D01*
X33355956Y-29309320D01*
X33417191Y-29289839D01*
X33514784Y-29271845D01*
X33632796Y-29265354D01*
X33757789Y-29272254D01*
G37*
G36*
X34010579Y-30314255D02*
G01*
X34050775Y-30309442D01*
X34082087Y-30296043D01*
X34106627Y-30274382D01*
X34125039Y-30246380D01*
X34135882Y-30216551D01*
X34139539Y-30184134D01*
X34135882Y-30151718D01*
X34125039Y-30121889D01*
X34106627Y-30093887D01*
X34082087Y-30072226D01*
X34050775Y-30058827D01*
X34010579Y-30054014D01*
X33970384Y-30058829D01*
X33939095Y-30072229D01*
X33914591Y-30093887D01*
X33896143Y-30121893D01*
X33885281Y-30151722D01*
X33881618Y-30184134D01*
X33885281Y-30216547D01*
X33896143Y-30246376D01*
X33914591Y-30274382D01*
X33939095Y-30296040D01*
X33970384Y-30309440D01*
X34010579Y-30314255D01*
G37*
G36*
X34139539Y-30674940D02*
G01*
X34134654Y-30595195D01*
X34121526Y-30514045D01*
X34103574Y-30442727D01*
X34085561Y-30392351D01*
X33913309Y-30432896D01*
X33946221Y-30525952D01*
X33958907Y-30586220D01*
X33963684Y-30666575D01*
X33958811Y-30730196D01*
X33946020Y-30775815D01*
X33927170Y-30807870D01*
X33900149Y-30832648D01*
X33867934Y-30847460D01*
X33828862Y-30852627D01*
X33793062Y-30848373D01*
X33764993Y-30836507D01*
X33741599Y-30817608D01*
X33722861Y-30792421D01*
X33709420Y-30762614D01*
X33700390Y-30725987D01*
X33694040Y-30644166D01*
X33694040Y-30563016D01*
X33526001Y-30563016D01*
X33526001Y-30655340D01*
X33520383Y-30714813D01*
X33512720Y-30742296D01*
X33501516Y-30765860D01*
X33485798Y-30785929D01*
X33465062Y-30801519D01*
X33439963Y-30811268D01*
X33406933Y-30814831D01*
X33381591Y-30811905D01*
X33360710Y-30803595D01*
X33342721Y-30790762D01*
X33328469Y-30774958D01*
X33317539Y-30756349D01*
X33309541Y-30734414D01*
X33303251Y-30687519D01*
X33307918Y-30628938D01*
X33321448Y-30576327D01*
X33341973Y-30527046D01*
X33366205Y-30483271D01*
X33213920Y-30409143D01*
X33184672Y-30461594D01*
X33156706Y-30528028D01*
X33135762Y-30605698D01*
X33129536Y-30647700D01*
X33127397Y-30693137D01*
X33132837Y-30775256D01*
X33147730Y-30840720D01*
X33172907Y-30898690D01*
X33205249Y-30943547D01*
X33245689Y-30978952D01*
X33292199Y-31003691D01*
X33343609Y-31018275D01*
X33400887Y-31023292D01*
X33438351Y-31019804D01*
X33475333Y-31009240D01*
X33512384Y-30991113D01*
X33545694Y-30966995D01*
X33572851Y-30938236D01*
X33594389Y-30904407D01*
X33618723Y-30951835D01*
X33649094Y-30990393D01*
X33685736Y-31021216D01*
X33727887Y-31043751D01*
X33775995Y-31057645D01*
X33831427Y-31062493D01*
X33896468Y-31056757D01*
X33954830Y-31040084D01*
X34007220Y-31011584D01*
X34052405Y-30970169D01*
X34088157Y-30917675D01*
X34116519Y-30849147D01*
X34133373Y-30771917D01*
X34139539Y-30674940D01*
G37*
D11*
G36*
X38104816Y-15046552D02*
G01*
X38222358Y-15046552D01*
X38222358Y-14929071D01*
X38337030Y-14929071D01*
X38337030Y-15046552D01*
X38454572Y-15046552D01*
X38454572Y-14929071D01*
X38572113Y-14929071D01*
X38572113Y-15046552D01*
X38686785Y-15046552D01*
X38686785Y-14929071D01*
X38804327Y-14929071D01*
X38804327Y-15046552D01*
X38921869Y-15046552D01*
X38921869Y-14929071D01*
X39036541Y-14929071D01*
X39036541Y-15046552D01*
X39154083Y-15046552D01*
X39154083Y-14929071D01*
X39271625Y-14929071D01*
X39271625Y-15628583D01*
X39154083Y-15628583D01*
X39154083Y-15511041D01*
X39036541Y-15511041D01*
X39036541Y-15628583D01*
X38921869Y-15628583D01*
X38921869Y-15511041D01*
X38804327Y-15511041D01*
X38804327Y-15628583D01*
X38686785Y-15628583D01*
X38686785Y-15511041D01*
X38572113Y-15511041D01*
X38572113Y-15628583D01*
X38454572Y-15628583D01*
X38454572Y-15511041D01*
X38337030Y-15511041D01*
X38337030Y-15628583D01*
X38222358Y-15628583D01*
X38222358Y-15511041D01*
X38104816Y-15511041D01*
X38104816Y-15628583D01*
X37987274Y-15628583D01*
X37987274Y-15396308D01*
X38104816Y-15396308D01*
X38222358Y-15396308D01*
X38337030Y-15396308D01*
X38454572Y-15396308D01*
X38572113Y-15396308D01*
X38686785Y-15396308D01*
X38804327Y-15396308D01*
X38921869Y-15396308D01*
X39036541Y-15396308D01*
X39154083Y-15396308D01*
X39154083Y-15161285D01*
X39036541Y-15161285D01*
X39036541Y-15396308D01*
X38921869Y-15396308D01*
X38921869Y-15161285D01*
X38804327Y-15161285D01*
X38804327Y-15396308D01*
X38686785Y-15396308D01*
X38686785Y-15161285D01*
X38572113Y-15161285D01*
X38572113Y-15396308D01*
X38454572Y-15396308D01*
X38454572Y-15161285D01*
X38337030Y-15161285D01*
X38337030Y-15396308D01*
X38222358Y-15396308D01*
X38222358Y-15161285D01*
X38104816Y-15161285D01*
X38104816Y-15396308D01*
X37987274Y-15396308D01*
X37987274Y-14929071D01*
X38104816Y-14929071D01*
X38104816Y-15046552D01*
G37*
G36*
X38686785Y-14636652D02*
G01*
X38921869Y-14636652D01*
X38572113Y-14811530D01*
X38572113Y-14696796D01*
X38337030Y-14696796D01*
X38686785Y-14521919D01*
X38686785Y-14636652D01*
G37*
D12*
G04 #@! TO.C,U1*
X44450000Y-36175000D02*
X42650000Y-36175000D01*
X44450000Y-37975000D02*
X42650000Y-37975000D01*
X44825000Y-36475000D02*
G75*
G02*
X44675000Y-36475000I-75000J0D01*
G01*
X44675000Y-36475000D02*
G75*
G02*
X44825000Y-36475000I75000J0D01*
G01*
G04 #@! TO.C,D6*
X31100000Y-31370000D02*
X31100000Y-30570000D01*
G04 #@! TO.C,U1*
X44450000Y-25375000D02*
X42650000Y-25375000D01*
X44450000Y-27175000D02*
X42650000Y-27175000D01*
X44825000Y-25675000D02*
G75*
G02*
X44675000Y-25675000I-75000J0D01*
G01*
X44675000Y-25675000D02*
G75*
G02*
X44825000Y-25675000I75000J0D01*
G01*
D13*
G04 #@! TO.C,Q4*
X29260000Y-25580000D02*
X28670000Y-25580000D01*
X29470000Y-27000000D02*
X28670000Y-27000000D01*
X29850000Y-25580000D02*
X29570000Y-25580000D01*
X29570000Y-25300000D01*
X29850000Y-25580000D01*
G36*
X29850000Y-25580000D02*
G01*
X29570000Y-25580000D01*
X29570000Y-25300000D01*
X29850000Y-25580000D01*
G37*
D14*
G04 #@! TO.C,Q7*
X31440000Y-31960000D02*
X32040000Y-31960000D01*
X32040000Y-33100000D02*
X31440000Y-33100000D01*
X32250000Y-31980000D02*
G75*
G02*
X32170000Y-31980000I-40000J0D01*
G01*
X32170000Y-31980000D02*
G75*
G02*
X32250000Y-31980000I40000J0D01*
G01*
D13*
G04 #@! TO.C,C2*
X39909420Y-43290000D02*
X40190580Y-43290000D01*
X39909420Y-44310000D02*
X40190580Y-44310000D01*
D12*
G04 #@! TO.C,D5*
X31200000Y-30570000D02*
X31200000Y-31370000D01*
G04 #@! TO.C,U6*
X30740000Y-29050000D02*
X30740000Y-27050000D01*
X32940000Y-29050000D02*
X32940000Y-27050000D01*
X32720000Y-29470000D02*
G75*
G02*
X32580000Y-29470000I-70000J0D01*
G01*
X32580000Y-29470000D02*
G75*
G02*
X32720000Y-29470000I70000J0D01*
G01*
D13*
G04 #@! TO.C,Q3*
X29280000Y-38270000D02*
X28690000Y-38270000D01*
X29490000Y-39690000D02*
X28690000Y-39690000D01*
X29870000Y-38270000D02*
X29590000Y-38270000D01*
X29590000Y-37990000D01*
X29870000Y-38270000D01*
G36*
X29870000Y-38270000D02*
G01*
X29590000Y-38270000D01*
X29590000Y-37990000D01*
X29870000Y-38270000D01*
G37*
D14*
G04 #@! TO.C,Q8*
X32740000Y-31960000D02*
X33340000Y-31960000D01*
X33340000Y-33100000D02*
X32740000Y-33100000D01*
X33550000Y-31980000D02*
G75*
G02*
X33470000Y-31980000I-40000J0D01*
G01*
X33470000Y-31980000D02*
G75*
G02*
X33550000Y-31980000I40000J0D01*
G01*
D13*
G04 #@! TO.C,Q4*
X29260000Y-36380000D02*
X28670000Y-36380000D01*
X29470000Y-37800000D02*
X28670000Y-37800000D01*
X29850000Y-36380000D02*
X29570000Y-36380000D01*
X29570000Y-36100000D01*
X29850000Y-36380000D01*
G36*
X29850000Y-36380000D02*
G01*
X29570000Y-36380000D01*
X29570000Y-36100000D01*
X29850000Y-36380000D01*
G37*
D14*
G04 #@! TO.C,Q1*
X39519896Y-14730000D02*
X40119896Y-14730000D01*
X40119896Y-15870000D02*
X39519896Y-15870000D01*
X40329896Y-14750000D02*
G75*
G02*
X40249896Y-14750000I-40000J0D01*
G01*
X40249896Y-14750000D02*
G75*
G02*
X40329896Y-14750000I40000J0D01*
G01*
D13*
G04 #@! TO.C,U3*
X34330000Y-37600000D02*
X40320000Y-37600000D01*
X34330000Y-42820000D02*
X40330000Y-42820000D01*
X40910000Y-37510000D02*
X40430000Y-37510000D01*
X40430000Y-37030000D01*
X40910000Y-37510000D01*
G36*
X40910000Y-37510000D02*
G01*
X40430000Y-37510000D01*
X40430000Y-37030000D01*
X40910000Y-37510000D01*
G37*
D12*
G04 #@! TO.C,U6*
X30740000Y-18250000D02*
X30740000Y-16250000D01*
X32940000Y-18250000D02*
X32940000Y-16250000D01*
X32720000Y-18670000D02*
G75*
G02*
X32580000Y-18670000I-70000J0D01*
G01*
X32580000Y-18670000D02*
G75*
G02*
X32720000Y-18670000I70000J0D01*
G01*
D14*
G04 #@! TO.C,Q6*
X28840000Y-53560000D02*
X29440000Y-53560000D01*
X29440000Y-54700000D02*
X28840000Y-54700000D01*
X29650000Y-53580000D02*
G75*
G02*
X29570000Y-53580000I-40000J0D01*
G01*
X29570000Y-53580000D02*
G75*
G02*
X29650000Y-53580000I40000J0D01*
G01*
G04 #@! TO.C,Q5*
X30140000Y-53560000D02*
X30740000Y-53560000D01*
X30740000Y-54700000D02*
X30140000Y-54700000D01*
X30950000Y-53580000D02*
G75*
G02*
X30870000Y-53580000I-40000J0D01*
G01*
X30870000Y-53580000D02*
G75*
G02*
X30950000Y-53580000I40000J0D01*
G01*
D15*
G04 #@! TO.C,J3*
X25700000Y-47750000D02*
X25870000Y-47750000D01*
X25700000Y-49000000D02*
X25700000Y-47750000D01*
X25700000Y-54750000D02*
X25700000Y-53490000D01*
X25870000Y-54750000D02*
X25700000Y-54750000D01*
X26670000Y-47750000D02*
X26830000Y-47750000D01*
X26830000Y-54750000D02*
X26670000Y-54750000D01*
X27640000Y-47750000D02*
X27800000Y-47750000D01*
X27800000Y-47750000D02*
X27800000Y-49000000D01*
X27800000Y-53490000D02*
X27800000Y-54750000D01*
X27800000Y-54750000D02*
X27630000Y-54750000D01*
D16*
X28382500Y-49090000D02*
G75*
G02*
X28157500Y-49090000I-112500J0D01*
G01*
X28157500Y-49090000D02*
G75*
G02*
X28382500Y-49090000I112500J0D01*
G01*
D14*
G04 #@! TO.C,Q1*
X39519896Y-47130000D02*
X40119896Y-47130000D01*
X40119896Y-48270000D02*
X39519896Y-48270000D01*
X40329896Y-47150000D02*
G75*
G02*
X40249896Y-47150000I-40000J0D01*
G01*
X40249896Y-47150000D02*
G75*
G02*
X40329896Y-47150000I40000J0D01*
G01*
D13*
G04 #@! TO.C,U3*
X34330000Y-48400000D02*
X40320000Y-48400000D01*
X34330000Y-53620000D02*
X40330000Y-53620000D01*
X40910000Y-48310000D02*
X40430000Y-48310000D01*
X40430000Y-47830000D01*
X40910000Y-48310000D01*
G36*
X40910000Y-48310000D02*
G01*
X40430000Y-48310000D01*
X40430000Y-47830000D01*
X40910000Y-48310000D01*
G37*
D14*
G04 #@! TO.C,Q6*
X28840000Y-31960000D02*
X29440000Y-31960000D01*
X29440000Y-33100000D02*
X28840000Y-33100000D01*
X29650000Y-31980000D02*
G75*
G02*
X29570000Y-31980000I-40000J0D01*
G01*
X29570000Y-31980000D02*
G75*
G02*
X29650000Y-31980000I40000J0D01*
G01*
G04 #@! TO.C,Q5*
X30140000Y-42760000D02*
X30740000Y-42760000D01*
X30740000Y-43900000D02*
X30140000Y-43900000D01*
X30950000Y-42780000D02*
G75*
G02*
X30870000Y-42780000I-40000J0D01*
G01*
X30870000Y-42780000D02*
G75*
G02*
X30950000Y-42780000I40000J0D01*
G01*
D13*
G04 #@! TO.C,Q4*
X29260000Y-14780000D02*
X28670000Y-14780000D01*
X29470000Y-16200000D02*
X28670000Y-16200000D01*
X29850000Y-14780000D02*
X29570000Y-14780000D01*
X29570000Y-14500000D01*
X29850000Y-14780000D01*
G36*
X29850000Y-14780000D02*
G01*
X29570000Y-14780000D01*
X29570000Y-14500000D01*
X29850000Y-14780000D01*
G37*
D14*
G04 #@! TO.C,Q2*
X28850000Y-40930000D02*
X29450000Y-40930000D01*
X29450000Y-42070000D02*
X28850000Y-42070000D01*
X29660000Y-40950000D02*
G75*
G02*
X29580000Y-40950000I-40000J0D01*
G01*
X29580000Y-40950000D02*
G75*
G02*
X29660000Y-40950000I40000J0D01*
G01*
G04 #@! TO.C,Q1*
X39519896Y-25530000D02*
X40119896Y-25530000D01*
X40119896Y-26670000D02*
X39519896Y-26670000D01*
X40329896Y-25550000D02*
G75*
G02*
X40249896Y-25550000I-40000J0D01*
G01*
X40249896Y-25550000D02*
G75*
G02*
X40329896Y-25550000I40000J0D01*
G01*
D13*
G04 #@! TO.C,U3*
X34330000Y-26800000D02*
X40320000Y-26800000D01*
X34330000Y-32020000D02*
X40330000Y-32020000D01*
X40910000Y-26710000D02*
X40430000Y-26710000D01*
X40430000Y-26230000D01*
X40910000Y-26710000D01*
G36*
X40910000Y-26710000D02*
G01*
X40430000Y-26710000D01*
X40430000Y-26230000D01*
X40910000Y-26710000D01*
G37*
D14*
G04 #@! TO.C,Q6*
X28840000Y-42760000D02*
X29440000Y-42760000D01*
X29440000Y-43900000D02*
X28840000Y-43900000D01*
X29650000Y-42780000D02*
G75*
G02*
X29570000Y-42780000I-40000J0D01*
G01*
X29570000Y-42780000D02*
G75*
G02*
X29650000Y-42780000I40000J0D01*
G01*
G04 #@! TO.C,Q5*
X30140000Y-31960000D02*
X30740000Y-31960000D01*
X30740000Y-33100000D02*
X30140000Y-33100000D01*
X30950000Y-31980000D02*
G75*
G02*
X30870000Y-31980000I-40000J0D01*
G01*
X30870000Y-31980000D02*
G75*
G02*
X30950000Y-31980000I40000J0D01*
G01*
D12*
G04 #@! TO.C,U6*
X30740000Y-50650000D02*
X30740000Y-48650000D01*
X32940000Y-50650000D02*
X32940000Y-48650000D01*
X32720000Y-51070000D02*
G75*
G02*
X32580000Y-51070000I-70000J0D01*
G01*
X32580000Y-51070000D02*
G75*
G02*
X32720000Y-51070000I70000J0D01*
G01*
G04 #@! TO.C,U1*
X44450000Y-14575000D02*
X42650000Y-14575000D01*
X44450000Y-16375000D02*
X42650000Y-16375000D01*
X44825000Y-14875000D02*
G75*
G02*
X44675000Y-14875000I-75000J0D01*
G01*
X44675000Y-14875000D02*
G75*
G02*
X44825000Y-14875000I75000J0D01*
G01*
D13*
G04 #@! TO.C,Y1*
X41640000Y-51100000D02*
X41640000Y-55100000D01*
X41640000Y-55100000D02*
X44790000Y-55100000D01*
D12*
G04 #@! TO.C,D6*
X31100000Y-52970000D02*
X31100000Y-52170000D01*
D13*
G04 #@! TO.C,Y1*
X41640000Y-40300000D02*
X41640000Y-44300000D01*
X41640000Y-44300000D02*
X44790000Y-44300000D01*
D12*
G04 #@! TO.C,U1*
X44450000Y-46975000D02*
X42650000Y-46975000D01*
X44450000Y-48775000D02*
X42650000Y-48775000D01*
X44825000Y-47275000D02*
G75*
G02*
X44675000Y-47275000I-75000J0D01*
G01*
X44675000Y-47275000D02*
G75*
G02*
X44825000Y-47275000I75000J0D01*
G01*
D13*
G04 #@! TO.C,C2*
X39909420Y-21690000D02*
X40190580Y-21690000D01*
X39909420Y-22710000D02*
X40190580Y-22710000D01*
G04 #@! TO.C,Q3*
X29280000Y-49070000D02*
X28690000Y-49070000D01*
X29490000Y-50490000D02*
X28690000Y-50490000D01*
X29870000Y-49070000D02*
X29590000Y-49070000D01*
X29590000Y-48790000D01*
X29870000Y-49070000D01*
G36*
X29870000Y-49070000D02*
G01*
X29590000Y-49070000D01*
X29590000Y-48790000D01*
X29870000Y-49070000D01*
G37*
D14*
G04 #@! TO.C,Q7*
X31440000Y-21160000D02*
X32040000Y-21160000D01*
X32040000Y-22300000D02*
X31440000Y-22300000D01*
X32250000Y-21180000D02*
G75*
G02*
X32170000Y-21180000I-40000J0D01*
G01*
X32170000Y-21180000D02*
G75*
G02*
X32250000Y-21180000I40000J0D01*
G01*
G04 #@! TO.C,Q2*
X28850000Y-51730000D02*
X29450000Y-51730000D01*
X29450000Y-52870000D02*
X28850000Y-52870000D01*
X29660000Y-51750000D02*
G75*
G02*
X29580000Y-51750000I-40000J0D01*
G01*
X29580000Y-51750000D02*
G75*
G02*
X29660000Y-51750000I40000J0D01*
G01*
G04 #@! TO.C,Q8*
X32740000Y-21160000D02*
X33340000Y-21160000D01*
X33340000Y-22300000D02*
X32740000Y-22300000D01*
X33550000Y-21180000D02*
G75*
G02*
X33470000Y-21180000I-40000J0D01*
G01*
X33470000Y-21180000D02*
G75*
G02*
X33550000Y-21180000I40000J0D01*
G01*
D13*
G04 #@! TO.C,C2*
X39909420Y-54090000D02*
X40190580Y-54090000D01*
X39909420Y-55110000D02*
X40190580Y-55110000D01*
D12*
G04 #@! TO.C,D5*
X31200000Y-41370000D02*
X31200000Y-42170000D01*
D13*
G04 #@! TO.C,C2*
X39909420Y-32490000D02*
X40190580Y-32490000D01*
X39909420Y-33510000D02*
X40190580Y-33510000D01*
G04 #@! TO.C,Y1*
X41640000Y-18700000D02*
X41640000Y-22700000D01*
X41640000Y-22700000D02*
X44790000Y-22700000D01*
D14*
G04 #@! TO.C,Q7*
X31440000Y-42760000D02*
X32040000Y-42760000D01*
X32040000Y-43900000D02*
X31440000Y-43900000D01*
X32250000Y-42780000D02*
G75*
G02*
X32170000Y-42780000I-40000J0D01*
G01*
X32170000Y-42780000D02*
G75*
G02*
X32250000Y-42780000I40000J0D01*
G01*
G04 #@! TO.C,Q8*
X32740000Y-53560000D02*
X33340000Y-53560000D01*
X33340000Y-54700000D02*
X32740000Y-54700000D01*
X33550000Y-53580000D02*
G75*
G02*
X33470000Y-53580000I-40000J0D01*
G01*
X33470000Y-53580000D02*
G75*
G02*
X33550000Y-53580000I40000J0D01*
G01*
D12*
G04 #@! TO.C,D5*
X31200000Y-19770000D02*
X31200000Y-20570000D01*
D13*
G04 #@! TO.C,Y1*
X41640000Y-29500000D02*
X41640000Y-33500000D01*
X41640000Y-33500000D02*
X44790000Y-33500000D01*
G04 #@! TO.C,Q3*
X29280000Y-16670000D02*
X28690000Y-16670000D01*
X29490000Y-18090000D02*
X28690000Y-18090000D01*
X29870000Y-16670000D02*
X29590000Y-16670000D01*
X29590000Y-16390000D01*
X29870000Y-16670000D01*
G36*
X29870000Y-16670000D02*
G01*
X29590000Y-16670000D01*
X29590000Y-16390000D01*
X29870000Y-16670000D01*
G37*
D14*
G04 #@! TO.C,Q1*
X39519896Y-36330000D02*
X40119896Y-36330000D01*
X40119896Y-37470000D02*
X39519896Y-37470000D01*
X40329896Y-36350000D02*
G75*
G02*
X40249896Y-36350000I-40000J0D01*
G01*
X40249896Y-36350000D02*
G75*
G02*
X40329896Y-36350000I40000J0D01*
G01*
G04 #@! TO.C,Q6*
X28840000Y-21160000D02*
X29440000Y-21160000D01*
X29440000Y-22300000D02*
X28840000Y-22300000D01*
X29650000Y-21180000D02*
G75*
G02*
X29570000Y-21180000I-40000J0D01*
G01*
X29570000Y-21180000D02*
G75*
G02*
X29650000Y-21180000I40000J0D01*
G01*
D12*
G04 #@! TO.C,U6*
X30740000Y-39850000D02*
X30740000Y-37850000D01*
X32940000Y-39850000D02*
X32940000Y-37850000D01*
X32720000Y-40270000D02*
G75*
G02*
X32580000Y-40270000I-70000J0D01*
G01*
X32580000Y-40270000D02*
G75*
G02*
X32720000Y-40270000I70000J0D01*
G01*
G04 #@! TO.C,D6*
X31100000Y-42170000D02*
X31100000Y-41370000D01*
D13*
G04 #@! TO.C,U3*
X34330000Y-16000000D02*
X40320000Y-16000000D01*
X34330000Y-21220000D02*
X40330000Y-21220000D01*
X40910000Y-15910000D02*
X40430000Y-15910000D01*
X40430000Y-15430000D01*
X40910000Y-15910000D01*
G36*
X40910000Y-15910000D02*
G01*
X40430000Y-15910000D01*
X40430000Y-15430000D01*
X40910000Y-15910000D01*
G37*
D14*
G04 #@! TO.C,Q2*
X28850000Y-19330000D02*
X29450000Y-19330000D01*
X29450000Y-20470000D02*
X28850000Y-20470000D01*
X29660000Y-19350000D02*
G75*
G02*
X29580000Y-19350000I-40000J0D01*
G01*
X29580000Y-19350000D02*
G75*
G02*
X29660000Y-19350000I40000J0D01*
G01*
G04 #@! TO.C,Q7*
X31440000Y-53560000D02*
X32040000Y-53560000D01*
X32040000Y-54700000D02*
X31440000Y-54700000D01*
X32250000Y-53580000D02*
G75*
G02*
X32170000Y-53580000I-40000J0D01*
G01*
X32170000Y-53580000D02*
G75*
G02*
X32250000Y-53580000I40000J0D01*
G01*
D12*
G04 #@! TO.C,D5*
X31200000Y-52170000D02*
X31200000Y-52970000D01*
D13*
G04 #@! TO.C,Q4*
X29260000Y-47180000D02*
X28670000Y-47180000D01*
X29470000Y-48600000D02*
X28670000Y-48600000D01*
X29850000Y-47180000D02*
X29570000Y-47180000D01*
X29570000Y-46900000D01*
X29850000Y-47180000D01*
G36*
X29850000Y-47180000D02*
G01*
X29570000Y-47180000D01*
X29570000Y-46900000D01*
X29850000Y-47180000D01*
G37*
D14*
G04 #@! TO.C,Q8*
X32740000Y-42760000D02*
X33340000Y-42760000D01*
X33340000Y-43900000D02*
X32740000Y-43900000D01*
X33550000Y-42780000D02*
G75*
G02*
X33470000Y-42780000I-40000J0D01*
G01*
X33470000Y-42780000D02*
G75*
G02*
X33550000Y-42780000I40000J0D01*
G01*
D15*
G04 #@! TO.C,J3*
X25700000Y-26150000D02*
X25870000Y-26150000D01*
X25700000Y-27400000D02*
X25700000Y-26150000D01*
X25700000Y-33150000D02*
X25700000Y-31890000D01*
X25870000Y-33150000D02*
X25700000Y-33150000D01*
X26670000Y-26150000D02*
X26830000Y-26150000D01*
X26830000Y-33150000D02*
X26670000Y-33150000D01*
X27640000Y-26150000D02*
X27800000Y-26150000D01*
X27800000Y-26150000D02*
X27800000Y-27400000D01*
X27800000Y-31890000D02*
X27800000Y-33150000D01*
X27800000Y-33150000D02*
X27630000Y-33150000D01*
D16*
X28382500Y-27490000D02*
G75*
G02*
X28157500Y-27490000I-112500J0D01*
G01*
X28157500Y-27490000D02*
G75*
G02*
X28382500Y-27490000I112500J0D01*
G01*
D15*
X25700000Y-36950000D02*
X25870000Y-36950000D01*
X25700000Y-38200000D02*
X25700000Y-36950000D01*
X25700000Y-43950000D02*
X25700000Y-42690000D01*
X25870000Y-43950000D02*
X25700000Y-43950000D01*
X26670000Y-36950000D02*
X26830000Y-36950000D01*
X26830000Y-43950000D02*
X26670000Y-43950000D01*
X27640000Y-36950000D02*
X27800000Y-36950000D01*
X27800000Y-36950000D02*
X27800000Y-38200000D01*
X27800000Y-42690000D02*
X27800000Y-43950000D01*
X27800000Y-43950000D02*
X27630000Y-43950000D01*
D16*
X28382500Y-38290000D02*
G75*
G02*
X28157500Y-38290000I-112500J0D01*
G01*
X28157500Y-38290000D02*
G75*
G02*
X28382500Y-38290000I112500J0D01*
G01*
D12*
G04 #@! TO.C,D6*
X31100000Y-20570000D02*
X31100000Y-19770000D01*
D13*
G04 #@! TO.C,Q3*
X29280000Y-27470000D02*
X28690000Y-27470000D01*
X29490000Y-28890000D02*
X28690000Y-28890000D01*
X29870000Y-27470000D02*
X29590000Y-27470000D01*
X29590000Y-27190000D01*
X29870000Y-27470000D01*
G36*
X29870000Y-27470000D02*
G01*
X29590000Y-27470000D01*
X29590000Y-27190000D01*
X29870000Y-27470000D01*
G37*
D15*
G04 #@! TO.C,J3*
X25700000Y-15350000D02*
X25870000Y-15350000D01*
X25700000Y-16600000D02*
X25700000Y-15350000D01*
X25700000Y-22350000D02*
X25700000Y-21090000D01*
X25870000Y-22350000D02*
X25700000Y-22350000D01*
X26670000Y-15350000D02*
X26830000Y-15350000D01*
X26830000Y-22350000D02*
X26670000Y-22350000D01*
X27640000Y-15350000D02*
X27800000Y-15350000D01*
X27800000Y-15350000D02*
X27800000Y-16600000D01*
X27800000Y-21090000D02*
X27800000Y-22350000D01*
X27800000Y-22350000D02*
X27630000Y-22350000D01*
D16*
X28382500Y-16690000D02*
G75*
G02*
X28157500Y-16690000I-112500J0D01*
G01*
X28157500Y-16690000D02*
G75*
G02*
X28382500Y-16690000I112500J0D01*
G01*
D14*
G04 #@! TO.C,Q2*
X28850000Y-30130000D02*
X29450000Y-30130000D01*
X29450000Y-31270000D02*
X28850000Y-31270000D01*
X29660000Y-30150000D02*
G75*
G02*
X29580000Y-30150000I-40000J0D01*
G01*
X29580000Y-30150000D02*
G75*
G02*
X29660000Y-30150000I40000J0D01*
G01*
G04 #@! TO.C,Q5*
X30140000Y-21160000D02*
X30740000Y-21160000D01*
X30740000Y-22300000D02*
X30140000Y-22300000D01*
X30950000Y-21180000D02*
G75*
G02*
X30870000Y-21180000I-40000J0D01*
G01*
X30870000Y-21180000D02*
G75*
G02*
X30950000Y-21180000I40000J0D01*
G01*
G04 #@! TD*
M02*
