M48
; DRILL file {KiCad 9.0.0} date 2025-07-03T19:10:07-0400
; FORMAT={-:-/ absolute / metric / decimal}
; #@! TF.CreationDate,2025-07-03T19:10:07-04:00
; #@! TF.GenerationSoftware,Kicad,Pcbnew,9.0.0
; #@! TF.FileFunction,Plated,1,6,PTH
FMAT,2
METRIC
; #@! TA.AperFunction,Plated,PTH,ViaDrill
T1C0.200
; #@! TA.AperFunction,Plated,PTH,ViaDrill
T2C0.250
; #@! TA.AperFunction,Plated,PTH,ViaDrill
T3C0.300
; #@! TA.AperFunction,Plated,PTH,ViaDrill
T4C0.350
%
G90
G05
T1
X25.44Y-17.96
X25.44Y-28.76
X25.44Y-39.56
X25.44Y-50.36
X25.447Y-18.683
X25.447Y-29.483
X25.447Y-40.283
X25.447Y-51.083
X25.462Y-20.422
X25.462Y-31.222
X25.462Y-42.022
X25.462Y-52.822
X25.466Y-16.815
X25.466Y-27.615
X25.466Y-38.415
X25.466Y-49.215
X25.483Y-19.73
X25.483Y-30.53
X25.483Y-41.33
X25.483Y-52.13
X25.483Y-17.275
X25.483Y-28.075
X25.483Y-38.875
X25.483Y-49.675
X25.578Y-20.815
X25.578Y-31.615
X25.578Y-42.415
X25.578Y-53.215
X26.117Y-19.03
X26.117Y-29.83
X26.117Y-40.63
X26.117Y-51.43
X26.14Y-18.325
X26.14Y-29.125
X26.14Y-39.925
X26.14Y-50.725
X26.285Y-19.81
X26.285Y-30.61
X26.285Y-41.41
X26.285Y-52.21
X26.287Y-17.86
X26.287Y-28.66
X26.287Y-39.46
X26.287Y-50.26
X26.576Y-16.11
X26.576Y-26.91
X26.576Y-37.71
X26.576Y-48.51
X26.652Y-21.679
X26.652Y-32.479
X26.652Y-43.279
X26.652Y-54.079
X26.927Y-16.585
X26.927Y-27.385
X26.927Y-38.185
X26.927Y-48.985
X27.341Y-17.648
X27.341Y-28.448
X27.341Y-39.248
X27.341Y-50.048
X27.685Y-21.93
X27.685Y-32.73
X27.685Y-43.53
X27.685Y-54.33
X27.698Y-20.805
X27.698Y-31.605
X27.698Y-42.405
X27.698Y-53.205
X27.744Y-15.98
X27.744Y-26.78
X27.744Y-37.58
X27.744Y-48.38
X28.13Y-16.62
X28.13Y-27.42
X28.13Y-38.22
X28.13Y-49.02
X28.16Y-17.26
X28.16Y-17.67
X28.16Y-28.06
X28.16Y-28.47
X28.16Y-38.86
X28.16Y-39.27
X28.16Y-49.66
X28.16Y-50.07
X28.165Y-21.339
X28.165Y-32.139
X28.165Y-42.939
X28.165Y-53.739
X28.235Y-15.94
X28.235Y-26.74
X28.235Y-37.54
X28.235Y-48.34
X28.478Y-21.605
X28.478Y-32.405
X28.478Y-43.205
X28.478Y-54.005
X28.518Y-19.061
X28.518Y-29.861
X28.518Y-40.661
X28.518Y-51.461
X28.64Y-17.536
X28.64Y-28.336
X28.64Y-39.136
X28.64Y-49.936
X28.665Y-20.651
X28.665Y-31.451
X28.665Y-42.251
X28.665Y-53.051
X28.826Y-18.69
X28.826Y-29.49
X28.826Y-40.29
X28.826Y-51.09
X29.005Y-15.453
X29.005Y-26.253
X29.005Y-37.053
X29.005Y-47.853
X29.112Y-17.1
X29.112Y-27.9
X29.112Y-38.7
X29.112Y-49.5
X29.125Y-16.46
X29.125Y-27.26
X29.125Y-38.06
X29.125Y-48.86
X29.131Y-17.575
X29.131Y-28.375
X29.131Y-39.175
X29.131Y-49.975
X29.21Y-18.69
X29.21Y-29.49
X29.21Y-40.29
X29.21Y-51.09
X29.38Y-22.495
X29.38Y-33.295
X29.38Y-44.095
X29.38Y-54.895
X29.652Y-17.572
X29.652Y-28.372
X29.652Y-39.172
X29.652Y-49.972
X29.72Y-16.041
X29.72Y-26.841
X29.72Y-37.641
X29.72Y-48.441
X29.775Y-20.8
X29.775Y-31.6
X29.775Y-42.4
X29.775Y-53.2
X29.84Y-22.495
X29.84Y-33.295
X29.84Y-44.095
X29.84Y-54.895
X30.051Y-15.765
X30.051Y-26.565
X30.051Y-37.365
X30.051Y-48.165
X30.068Y-16.257
X30.068Y-27.057
X30.068Y-37.857
X30.068Y-48.657
X30.097Y-19.575
X30.097Y-30.375
X30.097Y-41.175
X30.097Y-51.975
X30.185Y-20.8
X30.185Y-31.6
X30.185Y-42.4
X30.185Y-53.2
X30.68Y-22.491
X30.68Y-33.291
X30.68Y-44.091
X30.68Y-54.891
X31.113Y-21.225
X31.113Y-32.025
X31.113Y-42.825
X31.113Y-53.625
X31.138Y-20.802
X31.138Y-31.602
X31.138Y-42.402
X31.138Y-53.202
X31.14Y-22.47
X31.14Y-33.27
X31.14Y-44.07
X31.14Y-54.87
X31.373Y-16.34
X31.373Y-27.14
X31.373Y-37.94
X31.373Y-48.74
X31.783Y-16.34
X31.783Y-27.14
X31.783Y-37.94
X31.783Y-48.74
X31.95Y-22.496
X31.95Y-33.296
X31.95Y-44.096
X31.95Y-54.896
X32.378Y-15.559
X32.378Y-26.359
X32.378Y-37.159
X32.378Y-47.959
X32.41Y-22.495
X32.41Y-33.295
X32.41Y-44.095
X32.41Y-54.895
X32.561Y-20.661
X32.561Y-31.461
X32.561Y-42.261
X32.561Y-53.061
X33.011Y-20.566
X33.011Y-31.366
X33.011Y-42.166
X33.011Y-52.966
X33.041Y-19.867
X33.041Y-30.667
X33.041Y-41.467
X33.041Y-52.267
X33.09Y-16.198
X33.09Y-26.998
X33.09Y-37.798
X33.09Y-48.598
X33.115Y-22.481
X33.115Y-33.281
X33.115Y-44.081
X33.115Y-54.881
X33.4Y-16.2
X33.4Y-27.0
X33.4Y-37.8
X33.4Y-48.6
X33.413Y-20.789
X33.413Y-31.589
X33.413Y-42.389
X33.413Y-53.189
X33.528Y-18.74
X33.528Y-29.54
X33.528Y-40.34
X33.528Y-51.14
X33.566Y-17.813
X33.566Y-28.613
X33.566Y-39.413
X33.566Y-50.213
X33.566Y-18.289
X33.566Y-29.089
X33.566Y-39.889
X33.566Y-50.689
X33.575Y-22.487
X33.575Y-33.287
X33.575Y-44.087
X33.575Y-54.887
X33.989Y-19.418
X33.989Y-30.218
X33.989Y-41.018
X33.989Y-51.818
X34.02Y-15.45
X34.02Y-26.25
X34.02Y-37.05
X34.02Y-47.85
X34.2Y-20.25
X34.2Y-31.05
X34.2Y-41.85
X34.2Y-52.65
X34.487Y-15.45
X34.487Y-26.25
X34.487Y-37.05
X34.487Y-47.85
X34.516Y-19.865
X34.516Y-30.665
X34.516Y-41.465
X34.516Y-52.265
X35.24Y-22.09
X35.24Y-32.89
X35.24Y-43.69
X35.24Y-54.49
X35.301Y-19.857
X35.301Y-30.657
X35.301Y-41.457
X35.301Y-52.257
X35.33Y-17.81
X35.33Y-28.61
X35.33Y-39.41
X35.33Y-50.21
X35.331Y-18.27
X35.331Y-29.07
X35.331Y-39.87
X35.331Y-50.67
X35.641Y-21.86
X35.641Y-32.66
X35.641Y-43.46
X35.641Y-54.26
X35.65Y-15.66
X35.65Y-26.46
X35.65Y-37.26
X35.65Y-48.06
X36.045Y-15.528
X36.045Y-26.328
X36.045Y-37.128
X36.045Y-47.928
X36.055Y-21.66
X36.055Y-32.46
X36.055Y-43.26
X36.055Y-54.06
X36.364Y-21.319
X36.364Y-32.119
X36.364Y-42.919
X36.364Y-53.719
X36.45Y-15.742
X36.45Y-26.542
X36.45Y-37.342
X36.45Y-48.142
X36.683Y-22.815
X36.683Y-33.615
X36.683Y-44.415
X36.683Y-55.215
X36.865Y-15.63
X36.865Y-26.43
X36.865Y-37.23
X36.865Y-48.03
X37.225Y-21.845
X37.225Y-32.645
X37.225Y-43.445
X37.225Y-54.245
X37.655Y-21.68
X37.655Y-32.48
X37.655Y-43.28
X37.655Y-54.08
X37.665Y-15.632
X37.665Y-26.432
X37.665Y-37.232
X37.665Y-48.032
X37.75Y-22.815
X37.75Y-33.615
X37.75Y-44.415
X37.75Y-55.215
X37.972Y-21.275
X37.972Y-32.075
X37.972Y-42.875
X37.972Y-53.675
X38.05Y-15.833
X38.05Y-26.633
X38.05Y-37.433
X38.05Y-48.233
X38.432Y-21.275
X38.432Y-32.075
X38.432Y-42.875
X38.432Y-53.675
X38.47Y-15.62
X38.47Y-26.42
X38.47Y-37.22
X38.47Y-48.02
X38.64Y-22.815
X38.64Y-33.615
X38.64Y-44.415
X38.64Y-55.215
X38.862Y-21.44
X38.862Y-32.24
X38.862Y-43.04
X38.862Y-53.84
X38.868Y-15.91
X38.868Y-26.71
X38.868Y-37.51
X38.868Y-48.31
X38.89Y-15.087
X38.89Y-25.887
X38.89Y-36.687
X38.89Y-47.487
X39.03Y-22.8
X39.03Y-33.6
X39.03Y-44.4
X39.03Y-55.2
X39.188Y-16.205
X39.188Y-27.005
X39.188Y-37.805
X39.188Y-48.605
X39.322Y-21.431
X39.322Y-32.231
X39.322Y-43.031
X39.322Y-53.831
X39.43Y-22.8
X39.43Y-33.6
X39.43Y-44.4
X39.43Y-55.2
X39.625Y-17.293
X39.625Y-28.093
X39.625Y-38.893
X39.625Y-49.693
X39.69Y-14.782
X39.69Y-25.582
X39.69Y-36.382
X39.69Y-47.182
X39.777Y-21.331
X39.777Y-32.131
X39.777Y-42.931
X39.777Y-53.731
X39.779Y-19.174
X39.779Y-29.974
X39.779Y-40.774
X39.779Y-51.574
X39.89Y-22.811
X39.89Y-33.611
X39.89Y-44.411
X39.89Y-55.211
X40.01Y-15.56
X40.01Y-26.36
X40.01Y-37.16
X40.01Y-47.96
X40.234Y-21.386
X40.234Y-32.186
X40.234Y-42.986
X40.234Y-53.786
X40.336Y-19.751
X40.336Y-30.551
X40.336Y-41.351
X40.336Y-52.151
X40.355Y-18.192
X40.355Y-28.992
X40.355Y-39.792
X40.355Y-50.592
X40.364Y-17.231
X40.364Y-28.031
X40.364Y-38.831
X40.364Y-49.631
X40.525Y-21.029
X40.525Y-31.829
X40.525Y-42.629
X40.525Y-53.429
X41.01Y-15.464
X41.01Y-26.264
X41.01Y-37.064
X41.01Y-47.864
X41.02Y-14.785
X41.02Y-25.585
X41.02Y-36.385
X41.02Y-47.185
X41.484Y-20.665
X41.484Y-31.465
X41.484Y-42.265
X41.484Y-53.065
X41.488Y-17.839
X41.488Y-28.639
X41.488Y-39.439
X41.488Y-50.239
X41.555Y-19.033
X41.555Y-29.833
X41.555Y-40.633
X41.555Y-51.433
X41.58Y-21.99
X41.58Y-22.47
X41.58Y-32.79
X41.58Y-33.27
X41.58Y-43.59
X41.58Y-44.07
X41.58Y-54.39
X41.58Y-54.87
X41.615Y-18.281
X41.615Y-29.081
X41.615Y-39.881
X41.615Y-50.681
X41.801Y-16.8
X41.801Y-27.6
X41.801Y-38.4
X41.801Y-49.2
X41.83Y-14.84
X41.83Y-25.64
X41.83Y-36.44
X41.83Y-47.24
X42.012Y-20.755
X42.012Y-31.555
X42.012Y-42.355
X42.012Y-53.155
X42.52Y-20.585
X42.52Y-31.385
X42.52Y-42.185
X42.52Y-52.985
X42.522Y-15.272
X42.522Y-26.072
X42.522Y-36.872
X42.522Y-47.672
T2
X29.16Y-15.02
X29.16Y-25.82
X29.16Y-36.62
X29.16Y-47.42
X34.455Y-21.86
X34.455Y-32.66
X34.455Y-43.46
X34.455Y-54.26
X34.79Y-17.055
X34.79Y-27.855
X34.79Y-38.655
X34.79Y-49.455
X34.796Y-22.302
X34.796Y-33.102
X34.796Y-43.902
X34.796Y-54.702
X34.921Y-15.506
X34.921Y-26.306
X34.921Y-37.106
X34.921Y-47.906
X35.225Y-17.055
X35.225Y-27.855
X35.225Y-38.655
X35.225Y-49.455
X40.091Y-20.411
X40.091Y-31.211
X40.091Y-42.011
X40.091Y-52.811
X43.08Y-22.815
X43.08Y-33.615
X43.08Y-44.415
X43.08Y-55.215
X43.55Y-22.815
X43.55Y-33.615
X43.55Y-44.415
X43.55Y-55.215
X44.03Y-22.815
X44.03Y-33.615
X44.03Y-44.415
X44.03Y-55.215
X44.48Y-22.815
X44.48Y-33.615
X44.48Y-44.415
X44.48Y-55.215
T3
X25.485Y-15.65
X25.485Y-16.17
X25.485Y-21.706
X25.485Y-26.45
X25.485Y-26.97
X25.485Y-32.506
X25.485Y-37.25
X25.485Y-37.77
X25.485Y-43.306
X25.485Y-48.05
X25.485Y-48.57
X25.485Y-54.106
X25.66Y-22.66
X25.66Y-33.46
X25.66Y-44.26
X25.66Y-55.06
X25.828Y-21.363
X25.828Y-32.163
X25.828Y-42.963
X25.828Y-53.763
X26.04Y-15.14
X26.04Y-25.94
X26.04Y-36.74
X26.04Y-47.54
X26.2Y-22.68
X26.2Y-33.48
X26.2Y-44.28
X26.2Y-55.08
X26.525Y-15.12
X26.525Y-25.92
X26.525Y-36.72
X26.525Y-47.52
X27.33Y-19.73
X27.33Y-30.53
X27.33Y-41.33
X27.33Y-52.13
X27.725Y-15.199
X27.725Y-25.999
X27.725Y-36.799
X27.725Y-47.599
X27.865Y-22.722
X27.865Y-33.522
X27.865Y-44.322
X27.865Y-55.122
X28.19Y-15.203
X28.19Y-26.003
X28.19Y-36.803
X28.19Y-47.603
X28.35Y-22.73
X28.35Y-33.53
X28.35Y-44.33
X28.35Y-55.13
X29.31Y-20.7
X29.31Y-31.5
X29.31Y-42.3
X29.31Y-53.1
X29.405Y-21.294
X29.405Y-32.094
X29.405Y-42.894
X29.405Y-53.694
X30.57Y-21.12
X30.57Y-31.92
X30.57Y-42.72
X30.57Y-53.52
X31.098Y-20.028
X31.098Y-30.828
X31.098Y-41.628
X31.098Y-52.428
X31.23Y-19.16
X31.23Y-29.96
X31.23Y-40.76
X31.23Y-51.56
X31.564Y-20.025
X31.564Y-30.825
X31.564Y-41.625
X31.564Y-52.425
X31.687Y-15.594
X31.687Y-26.394
X31.687Y-37.194
X31.687Y-47.994
X31.71Y-19.16
X31.71Y-29.96
X31.71Y-40.76
X31.71Y-51.56
X32.19Y-20.16
X32.19Y-30.96
X32.19Y-41.76
X32.19Y-52.56
X32.644Y-20.158
X32.644Y-30.958
X32.644Y-41.758
X32.644Y-52.558
X33.138Y-17.51
X33.138Y-28.31
X33.138Y-39.11
X33.138Y-49.91
X33.68Y-16.65
X33.68Y-27.45
X33.68Y-38.25
X33.68Y-49.05
X33.995Y-22.237
X33.995Y-33.037
X33.995Y-43.837
X33.995Y-54.637
X34.271Y-22.558
X34.271Y-33.358
X34.271Y-44.158
X34.271Y-54.958
X34.905Y-18.638
X34.905Y-29.438
X34.905Y-40.238
X34.905Y-51.038
X36.3Y-17.571
X36.3Y-28.371
X36.3Y-39.171
X36.3Y-49.971
X37.57Y-17.54
X37.57Y-28.34
X37.57Y-39.14
X37.57Y-49.94
X38.6Y-17.53
X38.6Y-28.33
X38.6Y-39.13
X38.6Y-49.93
X40.524Y-18.662
X40.524Y-29.462
X40.524Y-40.262
X40.524Y-51.062
X41.93Y-15.9
X41.93Y-26.7
X41.93Y-37.5
X41.93Y-48.3
X43.423Y-16.799
X43.423Y-27.599
X43.423Y-38.399
X43.423Y-49.199
X43.8Y-21.31
X43.8Y-32.11
X43.8Y-42.91
X43.8Y-53.71
X43.973Y-16.119
X43.973Y-26.919
X43.973Y-37.719
X43.973Y-48.519
X44.36Y-20.8
X44.36Y-21.3
X44.36Y-31.6
X44.36Y-32.1
X44.36Y-42.4
X44.36Y-42.9
X44.36Y-53.2
X44.36Y-53.7
X44.401Y-16.336
X44.401Y-27.136
X44.401Y-37.936
X44.401Y-48.736
T4
X36.84Y-21.501
X36.84Y-32.301
X36.84Y-43.101
X36.84Y-53.901
X37.194Y-16.02
X37.194Y-26.82
X37.194Y-37.62
X37.194Y-48.42
M30
