G04 #@! TF.GenerationSoftware,KiCad,Pcbnew,9.0.0*
G04 #@! TF.CreationDate,2025-07-03T19:10:07-04:00*
G04 #@! TF.ProjectId,rp2350-decoder,72703233-3530-42d6-9465-636f6465722e,v0.3.0*
G04 #@! TF.SameCoordinates,Original*
G04 #@! TF.FileFunction,Paste,Bot*
G04 #@! TF.FilePolarity,Positive*
%FSLAX46Y46*%
G04 Gerber Fmt 4.6, Leading zero omitted, Abs format (unit mm)*
G04 Created by KiCad (PCBNEW 9.0.0) date 2025-07-03 19:10:07*
%MOMM*%
%LPD*%
G01*
G04 APERTURE LIST*
G04 Aperture macros list*
%AMRoundRect*
0 Rectangle with rounded corners*
0 $1 Rounding radius*
0 $2 $3 $4 $5 $6 $7 $8 $9 X,Y pos of 4 corners*
0 Add a 4 corners polygon primitive as box body*
4,1,4,$2,$3,$4,$5,$6,$7,$8,$9,$2,$3,0*
0 Add four circle primitives for the rounded corners*
1,1,$1+$1,$2,$3*
1,1,$1+$1,$4,$5*
1,1,$1+$1,$6,$7*
1,1,$1+$1,$8,$9*
0 Add four rect primitives between the rounded corners*
20,1,$1+$1,$2,$3,$4,$5,0*
20,1,$1+$1,$4,$5,$6,$7,0*
20,1,$1+$1,$6,$7,$8,$9,0*
20,1,$1+$1,$8,$9,$2,$3,0*%
G04 Aperture macros list end*
%ADD10RoundRect,0.250000X0.435000X0.615000X-0.435000X0.615000X-0.435000X-0.615000X0.435000X-0.615000X0*%
%ADD11RoundRect,0.125000X0.250000X0.125000X-0.250000X0.125000X-0.250000X-0.125000X0.250000X-0.125000X0*%
%ADD12R,0.400000X0.250000*%
%ADD13R,0.400000X0.700000*%
%ADD14R,1.200000X1.400000*%
%ADD15RoundRect,0.079500X-0.100500X0.079500X-0.100500X-0.079500X0.100500X-0.079500X0.100500X0.079500X0*%
%ADD16RoundRect,0.079500X0.100500X-0.079500X0.100500X0.079500X-0.100500X0.079500X-0.100500X-0.079500X0*%
%ADD17R,0.400000X0.200000*%
%ADD18R,0.500000X0.900000*%
%ADD19R,0.350000X0.600000*%
%ADD20RoundRect,0.079500X-0.079500X-0.100500X0.079500X-0.100500X0.079500X0.100500X-0.079500X0.100500X0*%
%ADD21RoundRect,0.079500X0.079500X0.100500X-0.079500X0.100500X-0.079500X-0.100500X0.079500X-0.100500X0*%
%ADD22C,0.800000*%
%ADD23R,0.280000X0.100000*%
%ADD24R,0.350000X0.150000*%
%ADD25RoundRect,0.050000X0.050000X0.050000X-0.050000X0.050000X-0.050000X-0.050000X0.050000X-0.050000X0*%
%ADD26R,0.400000X0.180000*%
%ADD27R,0.380000X0.400000*%
%ADD28R,0.450000X0.300000*%
%ADD29R,0.900000X1.700000*%
%ADD30RoundRect,0.140000X0.140000X0.170000X-0.140000X0.170000X-0.140000X-0.170000X0.140000X-0.170000X0*%
%ADD31RoundRect,0.140000X0.170000X-0.140000X0.170000X0.140000X-0.170000X0.140000X-0.170000X-0.140000X0*%
G04 APERTURE END LIST*
D10*
G04 #@! TO.C,U3*
X38180000Y-30485000D03*
X38180000Y-28335000D03*
X36480000Y-30485000D03*
X36480000Y-28335000D03*
D11*
X40030000Y-27505000D03*
X40030000Y-28775000D03*
X40030000Y-30045000D03*
X40030000Y-31315000D03*
X34630000Y-31315000D03*
X34630000Y-30045000D03*
X34630000Y-28775000D03*
X34630000Y-27505000D03*
G04 #@! TD*
D12*
G04 #@! TO.C,Q2*
X28610000Y-42265000D03*
X28610000Y-41815000D03*
D13*
X29310000Y-42040000D03*
G04 #@! TD*
D14*
G04 #@! TO.C,Y1*
X42440000Y-54200000D03*
X42440000Y-52000000D03*
X44140000Y-52000000D03*
X44140000Y-54200000D03*
G04 #@! TD*
D15*
G04 #@! TO.C,C20*
X32970000Y-51035000D03*
X32970000Y-51725000D03*
G04 #@! TD*
D16*
G04 #@! TO.C,D10*
X32950000Y-47445000D03*
X32950000Y-48135000D03*
G04 #@! TD*
G04 #@! TO.C,R19*
X30910000Y-49315000D03*
X30910000Y-48625000D03*
G04 #@! TD*
D15*
G04 #@! TO.C,R1*
X42100000Y-16875000D03*
X42100000Y-17565000D03*
G04 #@! TD*
D17*
G04 #@! TO.C,U1*
X44150000Y-47275000D03*
X44150000Y-47675000D03*
X44150000Y-48075000D03*
X44150000Y-48475000D03*
X42750000Y-48475000D03*
X42750000Y-48075000D03*
X42750000Y-47675000D03*
X42750000Y-47275000D03*
D18*
X43450000Y-47875000D03*
G04 #@! TD*
D16*
G04 #@! TO.C,C6*
X41010000Y-41215000D03*
X41010000Y-40525000D03*
G04 #@! TD*
D12*
G04 #@! TO.C,Q9*
X39350000Y-26435000D03*
X39350000Y-25985000D03*
D13*
X40050000Y-26210000D03*
G04 #@! TD*
D19*
G04 #@! TO.C,D5*
X31525000Y-30970000D03*
X32175000Y-30970000D03*
G04 #@! TD*
D20*
G04 #@! TO.C,R17*
X28403512Y-51550400D03*
X29093512Y-51550400D03*
G04 #@! TD*
D21*
G04 #@! TO.C,R8*
X30225000Y-36410000D03*
X30915000Y-36410000D03*
G04 #@! TD*
D22*
G04 #@! TO.C,J2*
X37330000Y-33380000D03*
G04 #@! TD*
D23*
G04 #@! TO.C,Q7*
X32010000Y-53780000D03*
X32010000Y-54080000D03*
D24*
X31980000Y-54400000D03*
D23*
X31470000Y-54480000D03*
X31470000Y-54180000D03*
D24*
X31500000Y-53850000D03*
G04 #@! TD*
D19*
G04 #@! TO.C,D6*
X30845000Y-30970000D03*
X30195000Y-30970000D03*
G04 #@! TD*
D15*
G04 #@! TO.C,C5*
X41010000Y-41895000D03*
X41010000Y-42585000D03*
G04 #@! TD*
D22*
G04 #@! TO.C,J1*
X36050000Y-44180000D03*
G04 #@! TD*
D16*
G04 #@! TO.C,C13*
X34780000Y-33215000D03*
X34780000Y-32525000D03*
G04 #@! TD*
D25*
G04 #@! TO.C,Q3*
X29500000Y-49220000D03*
X29500000Y-49570000D03*
X29500000Y-49920000D03*
X28600000Y-49920000D03*
X28600000Y-49570000D03*
X28600000Y-49220000D03*
G04 #@! TD*
D21*
G04 #@! TO.C,R5*
X42835000Y-18270000D03*
X42145000Y-18270000D03*
G04 #@! TD*
D26*
G04 #@! TO.C,J3*
X27700000Y-49320000D03*
X27700000Y-49670000D03*
X27700000Y-50030000D03*
X27700000Y-50380000D03*
X27700000Y-50730000D03*
X27700000Y-51080000D03*
X27700000Y-51430000D03*
X27700000Y-51780000D03*
X27700000Y-52130000D03*
X27700000Y-52480000D03*
X27700000Y-52830000D03*
X27700000Y-53180000D03*
X25800000Y-53180000D03*
X25800000Y-52830000D03*
X25800000Y-52480000D03*
X25800000Y-52130000D03*
X25800000Y-51780000D03*
X25800000Y-51430000D03*
X25800000Y-51080000D03*
X25800000Y-50730000D03*
X25800000Y-50380000D03*
X25800000Y-50030000D03*
X25800000Y-49670000D03*
X25800000Y-49320000D03*
D27*
X27230000Y-48050000D03*
X26270000Y-48050000D03*
X27230000Y-54460000D03*
X26270000Y-54460000D03*
G04 #@! TD*
D20*
G04 #@! TO.C,C3*
X34875000Y-25920000D03*
X35565000Y-25920000D03*
G04 #@! TD*
D15*
G04 #@! TO.C,C20*
X32970000Y-18635000D03*
X32970000Y-19325000D03*
G04 #@! TD*
D16*
G04 #@! TO.C,R19*
X30910000Y-38515000D03*
X30910000Y-37825000D03*
G04 #@! TD*
D25*
G04 #@! TO.C,Q3*
X29500000Y-27620000D03*
X29500000Y-27970000D03*
X29500000Y-28320000D03*
X28600000Y-28320000D03*
X28600000Y-27970000D03*
X28600000Y-27620000D03*
G04 #@! TD*
D23*
G04 #@! TO.C,Q6*
X29410000Y-42980000D03*
X29410000Y-43280000D03*
D24*
X29380000Y-43600000D03*
D23*
X28870000Y-43680000D03*
X28870000Y-43380000D03*
D24*
X28900000Y-43050000D03*
G04 #@! TD*
D19*
G04 #@! TO.C,D6*
X30845000Y-41770000D03*
X30195000Y-41770000D03*
G04 #@! TD*
D23*
G04 #@! TO.C,Q8*
X33310000Y-32180000D03*
X33310000Y-32480000D03*
D24*
X33280000Y-32800000D03*
D23*
X32770000Y-32880000D03*
X32770000Y-32580000D03*
D24*
X32800000Y-32250000D03*
G04 #@! TD*
D16*
G04 #@! TO.C,D10*
X32950000Y-25845000D03*
X32950000Y-26535000D03*
G04 #@! TD*
D15*
G04 #@! TO.C,R2*
X42830000Y-27675000D03*
X42830000Y-28365000D03*
G04 #@! TD*
D16*
G04 #@! TO.C,D8*
X32250000Y-15045000D03*
X32250000Y-15735000D03*
G04 #@! TD*
D19*
G04 #@! TO.C,D6*
X30845000Y-52570000D03*
X30195000Y-52570000D03*
G04 #@! TD*
D23*
G04 #@! TO.C,Q5*
X30710000Y-53780000D03*
X30710000Y-54080000D03*
D24*
X30680000Y-54400000D03*
D23*
X30170000Y-54480000D03*
X30170000Y-54180000D03*
D24*
X30200000Y-53850000D03*
G04 #@! TD*
D15*
G04 #@! TO.C,R6*
X41010000Y-37785000D03*
X41010000Y-38475000D03*
G04 #@! TD*
D25*
G04 #@! TO.C,Q3*
X29500000Y-16820000D03*
X29500000Y-17170000D03*
X29500000Y-17520000D03*
X28600000Y-17520000D03*
X28600000Y-17170000D03*
X28600000Y-16820000D03*
G04 #@! TD*
D20*
G04 #@! TO.C,C3*
X34875000Y-15120000D03*
X35565000Y-15120000D03*
G04 #@! TD*
D12*
G04 #@! TO.C,Q9*
X39350000Y-48035000D03*
X39350000Y-47585000D03*
D13*
X40050000Y-47810000D03*
G04 #@! TD*
D15*
G04 #@! TO.C,C16*
X38390000Y-32685000D03*
X38390000Y-33375000D03*
G04 #@! TD*
G04 #@! TO.C,R1*
X42100000Y-38475000D03*
X42100000Y-39165000D03*
G04 #@! TD*
D25*
G04 #@! TO.C,Q4*
X29500000Y-25940000D03*
X29500000Y-26290000D03*
X29500000Y-26640000D03*
X28600000Y-26640000D03*
X28600000Y-26290000D03*
X28600000Y-25940000D03*
G04 #@! TD*
D22*
G04 #@! TO.C,J1*
X36050000Y-33380000D03*
G04 #@! TD*
D21*
G04 #@! TO.C,C4*
X44235000Y-50670000D03*
X43545000Y-50670000D03*
G04 #@! TD*
D23*
G04 #@! TO.C,Q6*
X29410000Y-21380000D03*
X29410000Y-21680000D03*
D24*
X29380000Y-22000000D03*
D23*
X28870000Y-22080000D03*
X28870000Y-21780000D03*
D24*
X28900000Y-21450000D03*
G04 #@! TD*
D15*
G04 #@! TO.C,C5*
X41010000Y-20295000D03*
X41010000Y-20985000D03*
G04 #@! TD*
D21*
G04 #@! TO.C,C4*
X44235000Y-29070000D03*
X43545000Y-29070000D03*
G04 #@! TD*
D20*
G04 #@! TO.C,R17*
X28403512Y-29950400D03*
X29093512Y-29950400D03*
G04 #@! TD*
D16*
G04 #@! TO.C,C13*
X34780000Y-54815000D03*
X34780000Y-54125000D03*
G04 #@! TD*
D28*
G04 #@! TO.C,U6*
X30520000Y-30020000D03*
X30520000Y-29520000D03*
X30520000Y-29020000D03*
X30520000Y-28520000D03*
X32320000Y-28520000D03*
X32320000Y-29020000D03*
X32320000Y-29520000D03*
X32320000Y-30020000D03*
D29*
X31420000Y-29270000D03*
G04 #@! TD*
D15*
G04 #@! TO.C,R6*
X41010000Y-16185000D03*
X41010000Y-16875000D03*
G04 #@! TD*
D16*
G04 #@! TO.C,R19*
X30910000Y-27715000D03*
X30910000Y-27025000D03*
G04 #@! TD*
D21*
G04 #@! TO.C,R8*
X30225000Y-25610000D03*
X30915000Y-25610000D03*
G04 #@! TD*
D30*
G04 #@! TO.C,C15*
X40130000Y-43850000D03*
X39170000Y-43850000D03*
G04 #@! TD*
D15*
G04 #@! TO.C,C1*
X41830000Y-47215000D03*
X41830000Y-47905000D03*
G04 #@! TD*
D25*
G04 #@! TO.C,Q4*
X29500000Y-15140000D03*
X29500000Y-15490000D03*
X29500000Y-15840000D03*
X28600000Y-15840000D03*
X28600000Y-15490000D03*
X28600000Y-15140000D03*
G04 #@! TD*
D23*
G04 #@! TO.C,Q7*
X32010000Y-21380000D03*
X32010000Y-21680000D03*
D24*
X31980000Y-22000000D03*
D23*
X31470000Y-22080000D03*
X31470000Y-21780000D03*
D24*
X31500000Y-21450000D03*
G04 #@! TD*
D15*
G04 #@! TO.C,C16*
X38390000Y-54285000D03*
X38390000Y-54975000D03*
G04 #@! TD*
D20*
G04 #@! TO.C,R17*
X28403512Y-40750400D03*
X29093512Y-40750400D03*
G04 #@! TD*
D16*
G04 #@! TO.C,C6*
X41010000Y-19615000D03*
X41010000Y-18925000D03*
G04 #@! TD*
D15*
G04 #@! TO.C,R1*
X42100000Y-27675000D03*
X42100000Y-28365000D03*
G04 #@! TD*
G04 #@! TO.C,C1*
X41830000Y-36415000D03*
X41830000Y-37105000D03*
G04 #@! TD*
G04 #@! TO.C,R4*
X44270000Y-16875000D03*
X44270000Y-17565000D03*
G04 #@! TD*
D10*
G04 #@! TO.C,U3*
X38180000Y-41285000D03*
X38180000Y-39135000D03*
X36480000Y-41285000D03*
X36480000Y-39135000D03*
D11*
X40030000Y-38305000D03*
X40030000Y-39575000D03*
X40030000Y-40845000D03*
X40030000Y-42115000D03*
X34630000Y-42115000D03*
X34630000Y-40845000D03*
X34630000Y-39575000D03*
X34630000Y-38305000D03*
G04 #@! TD*
D15*
G04 #@! TO.C,C1*
X41830000Y-14815000D03*
X41830000Y-15505000D03*
G04 #@! TD*
D23*
G04 #@! TO.C,Q7*
X32010000Y-42980000D03*
X32010000Y-43280000D03*
D24*
X31980000Y-43600000D03*
D23*
X31470000Y-43680000D03*
X31470000Y-43380000D03*
D24*
X31500000Y-43050000D03*
G04 #@! TD*
D15*
G04 #@! TO.C,C5*
X41010000Y-31095000D03*
X41010000Y-31785000D03*
G04 #@! TD*
D28*
G04 #@! TO.C,U6*
X30520000Y-51620000D03*
X30520000Y-51120000D03*
X30520000Y-50620000D03*
X30520000Y-50120000D03*
X32320000Y-50120000D03*
X32320000Y-50620000D03*
X32320000Y-51120000D03*
X32320000Y-51620000D03*
D29*
X31420000Y-50870000D03*
G04 #@! TD*
D21*
G04 #@! TO.C,R5*
X42835000Y-39870000D03*
X42145000Y-39870000D03*
G04 #@! TD*
D22*
G04 #@! TO.C,J2*
X37330000Y-44180000D03*
G04 #@! TD*
D16*
G04 #@! TO.C,R15*
X41010000Y-15505000D03*
X41010000Y-14815000D03*
G04 #@! TD*
G04 #@! TO.C,C6*
X41010000Y-30415000D03*
X41010000Y-29725000D03*
G04 #@! TD*
D15*
G04 #@! TO.C,R6*
X41010000Y-48585000D03*
X41010000Y-49275000D03*
G04 #@! TD*
D21*
G04 #@! TO.C,R8*
X30225000Y-14810000D03*
X30915000Y-14810000D03*
G04 #@! TD*
D16*
G04 #@! TO.C,D10*
X32950000Y-15045000D03*
X32950000Y-15735000D03*
G04 #@! TD*
D25*
G04 #@! TO.C,Q3*
X29500000Y-38420000D03*
X29500000Y-38770000D03*
X29500000Y-39120000D03*
X28600000Y-39120000D03*
X28600000Y-38770000D03*
X28600000Y-38420000D03*
G04 #@! TD*
D16*
G04 #@! TO.C,R7*
X33647663Y-36645000D03*
X33647663Y-37335000D03*
G04 #@! TD*
D22*
G04 #@! TO.C,J2*
X37330000Y-22580000D03*
G04 #@! TD*
D16*
G04 #@! TO.C,C6*
X41010000Y-52015000D03*
X41010000Y-51325000D03*
G04 #@! TD*
G04 #@! TO.C,D8*
X32250000Y-36645000D03*
X32250000Y-37335000D03*
G04 #@! TD*
D15*
G04 #@! TO.C,R18*
X30210000Y-37825000D03*
X30210000Y-38515000D03*
G04 #@! TD*
G04 #@! TO.C,R4*
X44270000Y-27675000D03*
X44270000Y-28365000D03*
G04 #@! TD*
D16*
G04 #@! TO.C,D10*
X32950000Y-36645000D03*
X32950000Y-37335000D03*
G04 #@! TD*
D15*
G04 #@! TO.C,R18*
X30210000Y-16225000D03*
X30210000Y-16915000D03*
G04 #@! TD*
D22*
G04 #@! TO.C,J1*
X36050000Y-54980000D03*
G04 #@! TD*
D21*
G04 #@! TO.C,C4*
X44235000Y-18270000D03*
X43545000Y-18270000D03*
G04 #@! TD*
D19*
G04 #@! TO.C,D5*
X31525000Y-52570000D03*
X32175000Y-52570000D03*
G04 #@! TD*
D16*
G04 #@! TO.C,R7*
X33647663Y-25845000D03*
X33647663Y-26535000D03*
G04 #@! TD*
D25*
G04 #@! TO.C,Q4*
X29500000Y-47540000D03*
X29500000Y-47890000D03*
X29500000Y-48240000D03*
X28600000Y-48240000D03*
X28600000Y-47890000D03*
X28600000Y-47540000D03*
G04 #@! TD*
D17*
G04 #@! TO.C,U1*
X44150000Y-14875000D03*
X44150000Y-15275000D03*
X44150000Y-15675000D03*
X44150000Y-16075000D03*
X42750000Y-16075000D03*
X42750000Y-15675000D03*
X42750000Y-15275000D03*
X42750000Y-14875000D03*
D18*
X43450000Y-15475000D03*
G04 #@! TD*
D12*
G04 #@! TO.C,Q2*
X28610000Y-20665000D03*
X28610000Y-20215000D03*
D13*
X29310000Y-20440000D03*
G04 #@! TD*
D28*
G04 #@! TO.C,U6*
X30520000Y-19220000D03*
X30520000Y-18720000D03*
X30520000Y-18220000D03*
X30520000Y-17720000D03*
X32320000Y-17720000D03*
X32320000Y-18220000D03*
X32320000Y-18720000D03*
X32320000Y-19220000D03*
D29*
X31420000Y-18470000D03*
G04 #@! TD*
D16*
G04 #@! TO.C,D8*
X32250000Y-47445000D03*
X32250000Y-48135000D03*
G04 #@! TD*
D30*
G04 #@! TO.C,C15*
X40130000Y-22250000D03*
X39170000Y-22250000D03*
G04 #@! TD*
D16*
G04 #@! TO.C,C13*
X34780000Y-44015000D03*
X34780000Y-43325000D03*
G04 #@! TD*
D31*
G04 #@! TO.C,C2*
X41020000Y-55110000D03*
X41020000Y-54150000D03*
G04 #@! TD*
D15*
G04 #@! TO.C,R2*
X42830000Y-38475000D03*
X42830000Y-39165000D03*
G04 #@! TD*
D20*
G04 #@! TO.C,R12*
X30225000Y-47960000D03*
X30915000Y-47960000D03*
G04 #@! TD*
D21*
G04 #@! TO.C,R5*
X42835000Y-29070000D03*
X42145000Y-29070000D03*
G04 #@! TD*
D15*
G04 #@! TO.C,R3*
X43550000Y-27675000D03*
X43550000Y-28365000D03*
G04 #@! TD*
D16*
G04 #@! TO.C,R16*
X29810000Y-29935000D03*
X29810000Y-29245000D03*
G04 #@! TD*
G04 #@! TO.C,R19*
X30910000Y-16915000D03*
X30910000Y-16225000D03*
G04 #@! TD*
D22*
G04 #@! TO.C,J1*
X36050000Y-22580000D03*
G04 #@! TD*
D16*
G04 #@! TO.C,C11*
X41009891Y-18245000D03*
X41009891Y-17555000D03*
G04 #@! TD*
D30*
G04 #@! TO.C,C15*
X40130000Y-33050000D03*
X39170000Y-33050000D03*
G04 #@! TD*
D15*
G04 #@! TO.C,R3*
X43550000Y-49275000D03*
X43550000Y-49965000D03*
G04 #@! TD*
G04 #@! TO.C,R3*
X43550000Y-38475000D03*
X43550000Y-39165000D03*
G04 #@! TD*
D23*
G04 #@! TO.C,Q8*
X33310000Y-21380000D03*
X33310000Y-21680000D03*
D24*
X33280000Y-22000000D03*
D23*
X32770000Y-22080000D03*
X32770000Y-21780000D03*
D24*
X32800000Y-21450000D03*
G04 #@! TD*
D15*
G04 #@! TO.C,C5*
X41010000Y-52695000D03*
X41010000Y-53385000D03*
G04 #@! TD*
D16*
G04 #@! TO.C,D8*
X32250000Y-25845000D03*
X32250000Y-26535000D03*
G04 #@! TD*
D15*
G04 #@! TO.C,R2*
X42830000Y-16875000D03*
X42830000Y-17565000D03*
G04 #@! TD*
D19*
G04 #@! TO.C,D6*
X30845000Y-20170000D03*
X30195000Y-20170000D03*
G04 #@! TD*
D16*
G04 #@! TO.C,R7*
X33647663Y-47445000D03*
X33647663Y-48135000D03*
G04 #@! TD*
D20*
G04 #@! TO.C,C3*
X34875000Y-47520000D03*
X35565000Y-47520000D03*
G04 #@! TD*
D15*
G04 #@! TO.C,R18*
X30210000Y-48625000D03*
X30210000Y-49315000D03*
G04 #@! TD*
D22*
G04 #@! TO.C,J2*
X37330000Y-54980000D03*
G04 #@! TD*
D26*
G04 #@! TO.C,J3*
X27700000Y-27720000D03*
X27700000Y-28070000D03*
X27700000Y-28430000D03*
X27700000Y-28780000D03*
X27700000Y-29130000D03*
X27700000Y-29480000D03*
X27700000Y-29830000D03*
X27700000Y-30180000D03*
X27700000Y-30530000D03*
X27700000Y-30880000D03*
X27700000Y-31230000D03*
X27700000Y-31580000D03*
X25800000Y-31580000D03*
X25800000Y-31230000D03*
X25800000Y-30880000D03*
X25800000Y-30530000D03*
X25800000Y-30180000D03*
X25800000Y-29830000D03*
X25800000Y-29480000D03*
X25800000Y-29130000D03*
X25800000Y-28780000D03*
X25800000Y-28430000D03*
X25800000Y-28070000D03*
X25800000Y-27720000D03*
D27*
X27230000Y-26450000D03*
X26270000Y-26450000D03*
X27230000Y-32860000D03*
X26270000Y-32860000D03*
G04 #@! TD*
D20*
G04 #@! TO.C,C3*
X34875000Y-36720000D03*
X35565000Y-36720000D03*
G04 #@! TD*
D16*
G04 #@! TO.C,C11*
X41009891Y-50645000D03*
X41009891Y-49955000D03*
G04 #@! TD*
G04 #@! TO.C,C11*
X41009891Y-29045000D03*
X41009891Y-28355000D03*
G04 #@! TD*
G04 #@! TO.C,R15*
X41010000Y-26305000D03*
X41010000Y-25615000D03*
G04 #@! TD*
D15*
G04 #@! TO.C,C20*
X32970000Y-40235000D03*
X32970000Y-40925000D03*
G04 #@! TD*
D12*
G04 #@! TO.C,Q9*
X39350000Y-15635000D03*
X39350000Y-15185000D03*
D13*
X40050000Y-15410000D03*
G04 #@! TD*
D16*
G04 #@! TO.C,R7*
X33647663Y-15045000D03*
X33647663Y-15735000D03*
G04 #@! TD*
G04 #@! TO.C,C11*
X41009891Y-39845000D03*
X41009891Y-39155000D03*
G04 #@! TD*
D23*
G04 #@! TO.C,Q8*
X33310000Y-42980000D03*
X33310000Y-43280000D03*
D24*
X33280000Y-43600000D03*
D23*
X32770000Y-43680000D03*
X32770000Y-43380000D03*
D24*
X32800000Y-43050000D03*
G04 #@! TD*
D23*
G04 #@! TO.C,Q6*
X29410000Y-53780000D03*
X29410000Y-54080000D03*
D24*
X29380000Y-54400000D03*
D23*
X28870000Y-54480000D03*
X28870000Y-54180000D03*
D24*
X28900000Y-53850000D03*
G04 #@! TD*
D26*
G04 #@! TO.C,J3*
X27700000Y-38520000D03*
X27700000Y-38870000D03*
X27700000Y-39230000D03*
X27700000Y-39580000D03*
X27700000Y-39930000D03*
X27700000Y-40280000D03*
X27700000Y-40630000D03*
X27700000Y-40980000D03*
X27700000Y-41330000D03*
X27700000Y-41680000D03*
X27700000Y-42030000D03*
X27700000Y-42380000D03*
X25800000Y-42380000D03*
X25800000Y-42030000D03*
X25800000Y-41680000D03*
X25800000Y-41330000D03*
X25800000Y-40980000D03*
X25800000Y-40630000D03*
X25800000Y-40280000D03*
X25800000Y-39930000D03*
X25800000Y-39580000D03*
X25800000Y-39230000D03*
X25800000Y-38870000D03*
X25800000Y-38520000D03*
D27*
X27230000Y-37250000D03*
X26270000Y-37250000D03*
X27230000Y-43660000D03*
X26270000Y-43660000D03*
G04 #@! TD*
D12*
G04 #@! TO.C,Q2*
X28610000Y-31465000D03*
X28610000Y-31015000D03*
D13*
X29310000Y-31240000D03*
G04 #@! TD*
D25*
G04 #@! TO.C,Q4*
X29500000Y-36740000D03*
X29500000Y-37090000D03*
X29500000Y-37440000D03*
X28600000Y-37440000D03*
X28600000Y-37090000D03*
X28600000Y-36740000D03*
G04 #@! TD*
D23*
G04 #@! TO.C,Q6*
X29410000Y-32180000D03*
X29410000Y-32480000D03*
D24*
X29380000Y-32800000D03*
D23*
X28870000Y-32880000D03*
X28870000Y-32580000D03*
D24*
X28900000Y-32250000D03*
G04 #@! TD*
D17*
G04 #@! TO.C,U1*
X44150000Y-25675000D03*
X44150000Y-26075000D03*
X44150000Y-26475000D03*
X44150000Y-26875000D03*
X42750000Y-26875000D03*
X42750000Y-26475000D03*
X42750000Y-26075000D03*
X42750000Y-25675000D03*
D18*
X43450000Y-26275000D03*
G04 #@! TD*
D10*
G04 #@! TO.C,U3*
X38180000Y-52085000D03*
X38180000Y-49935000D03*
X36480000Y-52085000D03*
X36480000Y-49935000D03*
D11*
X40030000Y-49105000D03*
X40030000Y-50375000D03*
X40030000Y-51645000D03*
X40030000Y-52915000D03*
X34630000Y-52915000D03*
X34630000Y-51645000D03*
X34630000Y-50375000D03*
X34630000Y-49105000D03*
G04 #@! TD*
D19*
G04 #@! TO.C,D5*
X31525000Y-20170000D03*
X32175000Y-20170000D03*
G04 #@! TD*
D30*
G04 #@! TO.C,C15*
X40130000Y-54650000D03*
X39170000Y-54650000D03*
G04 #@! TD*
D15*
G04 #@! TO.C,R2*
X42830000Y-49275000D03*
X42830000Y-49965000D03*
G04 #@! TD*
D14*
G04 #@! TO.C,Y1*
X42440000Y-21800000D03*
X42440000Y-19600000D03*
X44140000Y-19600000D03*
X44140000Y-21800000D03*
G04 #@! TD*
D15*
G04 #@! TO.C,C1*
X41830000Y-25615000D03*
X41830000Y-26305000D03*
G04 #@! TD*
D20*
G04 #@! TO.C,R17*
X28403512Y-19150400D03*
X29093512Y-19150400D03*
G04 #@! TD*
D23*
G04 #@! TO.C,Q5*
X30710000Y-42980000D03*
X30710000Y-43280000D03*
D24*
X30680000Y-43600000D03*
D23*
X30170000Y-43680000D03*
X30170000Y-43380000D03*
D24*
X30200000Y-43050000D03*
G04 #@! TD*
D16*
G04 #@! TO.C,R16*
X29810000Y-51535000D03*
X29810000Y-50845000D03*
G04 #@! TD*
D19*
G04 #@! TO.C,D5*
X31525000Y-41770000D03*
X32175000Y-41770000D03*
G04 #@! TD*
D12*
G04 #@! TO.C,Q9*
X39350000Y-37235000D03*
X39350000Y-36785000D03*
D13*
X40050000Y-37010000D03*
G04 #@! TD*
D21*
G04 #@! TO.C,R5*
X42835000Y-50670000D03*
X42145000Y-50670000D03*
G04 #@! TD*
G04 #@! TO.C,R8*
X30225000Y-47210000D03*
X30915000Y-47210000D03*
G04 #@! TD*
D26*
G04 #@! TO.C,J3*
X27700000Y-16920000D03*
X27700000Y-17270000D03*
X27700000Y-17630000D03*
X27700000Y-17980000D03*
X27700000Y-18330000D03*
X27700000Y-18680000D03*
X27700000Y-19030000D03*
X27700000Y-19380000D03*
X27700000Y-19730000D03*
X27700000Y-20080000D03*
X27700000Y-20430000D03*
X27700000Y-20780000D03*
X25800000Y-20780000D03*
X25800000Y-20430000D03*
X25800000Y-20080000D03*
X25800000Y-19730000D03*
X25800000Y-19380000D03*
X25800000Y-19030000D03*
X25800000Y-18680000D03*
X25800000Y-18330000D03*
X25800000Y-17980000D03*
X25800000Y-17630000D03*
X25800000Y-17270000D03*
X25800000Y-16920000D03*
D27*
X27230000Y-15650000D03*
X26270000Y-15650000D03*
X27230000Y-22060000D03*
X26270000Y-22060000D03*
G04 #@! TD*
D31*
G04 #@! TO.C,C2*
X41020000Y-44310000D03*
X41020000Y-43350000D03*
G04 #@! TD*
D14*
G04 #@! TO.C,Y1*
X42440000Y-43400000D03*
X42440000Y-41200000D03*
X44140000Y-41200000D03*
X44140000Y-43400000D03*
G04 #@! TD*
D16*
G04 #@! TO.C,R15*
X41010000Y-47905000D03*
X41010000Y-47215000D03*
G04 #@! TD*
D31*
G04 #@! TO.C,C2*
X41020000Y-33510000D03*
X41020000Y-32550000D03*
G04 #@! TD*
D14*
G04 #@! TO.C,Y1*
X42440000Y-32600000D03*
X42440000Y-30400000D03*
X44140000Y-30400000D03*
X44140000Y-32600000D03*
G04 #@! TD*
D15*
G04 #@! TO.C,R18*
X30210000Y-27025000D03*
X30210000Y-27715000D03*
G04 #@! TD*
D16*
G04 #@! TO.C,R15*
X41010000Y-37105000D03*
X41010000Y-36415000D03*
G04 #@! TD*
D21*
G04 #@! TO.C,C4*
X44235000Y-39870000D03*
X43545000Y-39870000D03*
G04 #@! TD*
D16*
G04 #@! TO.C,R16*
X29810000Y-19135000D03*
X29810000Y-18445000D03*
G04 #@! TD*
G04 #@! TO.C,C13*
X34780000Y-22415000D03*
X34780000Y-21725000D03*
G04 #@! TD*
D23*
G04 #@! TO.C,Q5*
X30710000Y-21380000D03*
X30710000Y-21680000D03*
D24*
X30680000Y-22000000D03*
D23*
X30170000Y-22080000D03*
X30170000Y-21780000D03*
D24*
X30200000Y-21450000D03*
G04 #@! TD*
D23*
G04 #@! TO.C,Q7*
X32010000Y-32180000D03*
X32010000Y-32480000D03*
D24*
X31980000Y-32800000D03*
D23*
X31470000Y-32880000D03*
X31470000Y-32580000D03*
D24*
X31500000Y-32250000D03*
G04 #@! TD*
D15*
G04 #@! TO.C,R6*
X41010000Y-26985000D03*
X41010000Y-27675000D03*
G04 #@! TD*
G04 #@! TO.C,R3*
X43550000Y-16875000D03*
X43550000Y-17565000D03*
G04 #@! TD*
G04 #@! TO.C,R4*
X44270000Y-38475000D03*
X44270000Y-39165000D03*
G04 #@! TD*
D20*
G04 #@! TO.C,R12*
X30225000Y-15560000D03*
X30915000Y-15560000D03*
G04 #@! TD*
D17*
G04 #@! TO.C,U1*
X44150000Y-36475000D03*
X44150000Y-36875000D03*
X44150000Y-37275000D03*
X44150000Y-37675000D03*
X42750000Y-37675000D03*
X42750000Y-37275000D03*
X42750000Y-36875000D03*
X42750000Y-36475000D03*
D18*
X43450000Y-37075000D03*
G04 #@! TD*
D15*
G04 #@! TO.C,C16*
X38390000Y-21885000D03*
X38390000Y-22575000D03*
G04 #@! TD*
D31*
G04 #@! TO.C,C2*
X41020000Y-22710000D03*
X41020000Y-21750000D03*
G04 #@! TD*
D20*
G04 #@! TO.C,R12*
X30225000Y-26360000D03*
X30915000Y-26360000D03*
G04 #@! TD*
D23*
G04 #@! TO.C,Q5*
X30710000Y-32180000D03*
X30710000Y-32480000D03*
D24*
X30680000Y-32800000D03*
D23*
X30170000Y-32880000D03*
X30170000Y-32580000D03*
D24*
X30200000Y-32250000D03*
G04 #@! TD*
D15*
G04 #@! TO.C,C16*
X38390000Y-43485000D03*
X38390000Y-44175000D03*
G04 #@! TD*
D28*
G04 #@! TO.C,U6*
X30520000Y-40820000D03*
X30520000Y-40320000D03*
X30520000Y-39820000D03*
X30520000Y-39320000D03*
X32320000Y-39320000D03*
X32320000Y-39820000D03*
X32320000Y-40320000D03*
X32320000Y-40820000D03*
D29*
X31420000Y-40070000D03*
G04 #@! TD*
D23*
G04 #@! TO.C,Q8*
X33310000Y-53780000D03*
X33310000Y-54080000D03*
D24*
X33280000Y-54400000D03*
D23*
X32770000Y-54480000D03*
X32770000Y-54180000D03*
D24*
X32800000Y-53850000D03*
G04 #@! TD*
D15*
G04 #@! TO.C,C20*
X32970000Y-29435000D03*
X32970000Y-30125000D03*
G04 #@! TD*
D16*
G04 #@! TO.C,R16*
X29810000Y-40735000D03*
X29810000Y-40045000D03*
G04 #@! TD*
D20*
G04 #@! TO.C,R12*
X30225000Y-37160000D03*
X30915000Y-37160000D03*
G04 #@! TD*
D15*
G04 #@! TO.C,R4*
X44270000Y-49275000D03*
X44270000Y-49965000D03*
G04 #@! TD*
D12*
G04 #@! TO.C,Q2*
X28610000Y-53065000D03*
X28610000Y-52615000D03*
D13*
X29310000Y-52840000D03*
G04 #@! TD*
D10*
G04 #@! TO.C,U3*
X38180000Y-19685000D03*
X38180000Y-17535000D03*
X36480000Y-19685000D03*
X36480000Y-17535000D03*
D11*
X40030000Y-16705000D03*
X40030000Y-17975000D03*
X40030000Y-19245000D03*
X40030000Y-20515000D03*
X34630000Y-20515000D03*
X34630000Y-19245000D03*
X34630000Y-17975000D03*
X34630000Y-16705000D03*
G04 #@! TD*
D15*
G04 #@! TO.C,R1*
X42100000Y-49275000D03*
X42100000Y-49965000D03*
G04 #@! TD*
M02*
