G04 #@! TF.GenerationSoftware,KiCad,Pcbnew,9.0.0*
G04 #@! TF.CreationDate,2025-03-14T09:56:09-04:00*
G04 #@! TF.ProjectId,e24-receiver-board,6532342d-7265-4636-9569-7665722d626f,v0.1.1*
G04 #@! TF.SameCoordinates,Original*
G04 #@! TF.FileFunction,Soldermask,Bot*
G04 #@! TF.FilePolarity,Negative*
%FSLAX46Y46*%
G04 Gerber Fmt 4.6, Leading zero omitted, Abs format (unit mm)*
G04 Created by KiCad (PCBNEW 9.0.0) date 2025-03-14 09:56:09*
%MOMM*%
%LPD*%
G01*
G04 APERTURE LIST*
%ADD10C,0.500000*%
%ADD11C,1.152000*%
%ADD12C,1.000000*%
%ADD13R,0.490000X0.180000*%
%ADD14R,0.540000X0.230000*%
G04 APERTURE END LIST*
D10*
G04 #@! TO.C,KiKit_MB_21_14*
X10400000Y-14800000D03*
G04 #@! TD*
G04 #@! TO.C,KiKit_MB_23_4*
X52400000Y-14800000D03*
G04 #@! TD*
G04 #@! TO.C,KiKit_MB_24_8*
X55600000Y-55200000D03*
G04 #@! TD*
G04 #@! TO.C,KiKit_MB_24_10*
X57200000Y-55200000D03*
G04 #@! TD*
G04 #@! TO.C,KiKit_MB_21_6*
X4000000Y-14800000D03*
G04 #@! TD*
G04 #@! TO.C,KiKit_MB_24_26*
X70000000Y-55200000D03*
G04 #@! TD*
G04 #@! TO.C,KiKit_MB_24_3*
X51600000Y-55200000D03*
G04 #@! TD*
G04 #@! TO.C,KiKit_MB_24_7*
X54800000Y-55200000D03*
G04 #@! TD*
G04 #@! TO.C,KiKit_MB_22_23*
X17600000Y-55200000D03*
G04 #@! TD*
G04 #@! TO.C,KiKit_MB_5_2*
X22970000Y-29700000D03*
G04 #@! TD*
G04 #@! TO.C,KiKit_MB_1_2*
X22970000Y-19100000D03*
G04 #@! TD*
G04 #@! TO.C,KiKit_MB_21_3*
X1600000Y-14800000D03*
G04 #@! TD*
G04 #@! TO.C,KiKit_MB_19_6*
X23000000Y-62414285D03*
G04 #@! TD*
G04 #@! TO.C,KiKit_MB_17_12*
X23000000Y-9271429D03*
G04 #@! TD*
G04 #@! TO.C,KiKit_MB_17_9*
X23000000Y-6742858D03*
G04 #@! TD*
G04 #@! TO.C,KiKit_MB_22_10*
X7200000Y-55200000D03*
G04 #@! TD*
G04 #@! TO.C,KiKit_MB_24_12*
X58800000Y-55200000D03*
G04 #@! TD*
G04 #@! TO.C,KiKit_MB_21_24*
X18400000Y-14800000D03*
G04 #@! TD*
G04 #@! TO.C,KiKit_MB_22_3*
X1600000Y-55200000D03*
G04 #@! TD*
G04 #@! TO.C,KiKit_MB_22_22*
X16800000Y-55200000D03*
G04 #@! TD*
G04 #@! TO.C,KiKit_MB_19_3*
X23000000Y-59885714D03*
G04 #@! TD*
G04 #@! TO.C,KiKit_MB_23_6*
X54000000Y-14800000D03*
G04 #@! TD*
G04 #@! TO.C,KiKit_MB_14_3*
X47030000Y-51900000D03*
G04 #@! TD*
G04 #@! TO.C,KiKit_MB_18_4*
X47000000Y-2528572D03*
G04 #@! TD*
G04 #@! TO.C,KiKit_MB_13_2*
X22970000Y-50900000D03*
G04 #@! TD*
G04 #@! TO.C,KiKit_MB_18_2*
X47000000Y-842858D03*
G04 #@! TD*
G04 #@! TO.C,KiKit_MB_24_6*
X54000000Y-55200000D03*
G04 #@! TD*
G04 #@! TO.C,KiKit_MB_20_15*
X47000000Y-70000000D03*
G04 #@! TD*
G04 #@! TO.C,KiKit_MB_22_8*
X5600000Y-55200000D03*
G04 #@! TD*
G04 #@! TO.C,KiKit_MB_17_14*
X23000000Y-10957143D03*
G04 #@! TD*
G04 #@! TO.C,KiKit_MB_18_13*
X47000000Y-10114286D03*
G04 #@! TD*
G04 #@! TO.C,KiKit_MB_8_2*
X35000000Y-34030000D03*
G04 #@! TD*
G04 #@! TO.C,KiKit_MB_21_19*
X14400000Y-14800000D03*
G04 #@! TD*
G04 #@! TO.C,KiKit_MB_24_15*
X61200000Y-55200000D03*
G04 #@! TD*
G04 #@! TO.C,KiKit_MB_21_18*
X13600000Y-14800000D03*
G04 #@! TD*
G04 #@! TO.C,KiKit_MB_18_11*
X47000000Y-8428572D03*
G04 #@! TD*
G04 #@! TO.C,KiKit_MB_19_5*
X23000000Y-61571428D03*
G04 #@! TD*
G04 #@! TO.C,KiKit_MB_12_3*
X34000000Y-44630000D03*
G04 #@! TD*
G04 #@! TO.C,KiKit_MB_23_2*
X50800000Y-14800000D03*
G04 #@! TD*
G04 #@! TO.C,KiKit_MB_24_14*
X60400000Y-55200000D03*
G04 #@! TD*
G04 #@! TO.C,KiKit_MB_22_18*
X13600000Y-55200000D03*
G04 #@! TD*
G04 #@! TO.C,KiKit_MB_22_25*
X19200000Y-55200000D03*
G04 #@! TD*
G04 #@! TO.C,KiKit_MB_20_5*
X47000000Y-61571428D03*
G04 #@! TD*
G04 #@! TO.C,KiKit_MB_21_12*
X8800000Y-14800000D03*
G04 #@! TD*
G04 #@! TO.C,KiKit_MB_18_14*
X47000000Y-10957143D03*
G04 #@! TD*
G04 #@! TO.C,KiKit_MB_23_11*
X58000000Y-14800000D03*
G04 #@! TD*
G04 #@! TO.C,KiKit_MB_15_1*
X34000000Y-46570000D03*
G04 #@! TD*
G04 #@! TO.C,KiKit_MB_17_7*
X23000000Y-5057143D03*
G04 #@! TD*
G04 #@! TO.C,KiKit_MB_19_13*
X23000000Y-68314285D03*
G04 #@! TD*
G04 #@! TO.C,KiKit_MB_2_2*
X47030000Y-19100000D03*
G04 #@! TD*
G04 #@! TO.C,KiKit_MB_5_3*
X22970000Y-28700000D03*
G04 #@! TD*
G04 #@! TO.C,KiKit_MB_6_2*
X47030000Y-29700000D03*
G04 #@! TD*
G04 #@! TO.C,KiKit_MB_16_3*
X34000000Y-55230000D03*
G04 #@! TD*
G04 #@! TO.C,KiKit_MB_20_11*
X47000000Y-66628571D03*
G04 #@! TD*
G04 #@! TO.C,KiKit_MB_23_23*
X67600000Y-14800000D03*
G04 #@! TD*
G04 #@! TO.C,KiKit_MB_22_17*
X12800000Y-55200000D03*
G04 #@! TD*
G04 #@! TO.C,KiKit_MB_24_25*
X69200000Y-55200000D03*
G04 #@! TD*
G04 #@! TO.C,KiKit_MB_17_15*
X23000000Y-11800000D03*
G04 #@! TD*
G04 #@! TO.C,KiKit_MB_22_7*
X4800000Y-55200000D03*
G04 #@! TD*
G04 #@! TO.C,KiKit_MB_7_1*
X34000000Y-25370000D03*
G04 #@! TD*
G04 #@! TO.C,KiKit_MB_19_12*
X23000000Y-67471428D03*
G04 #@! TD*
G04 #@! TO.C,KiKit_MB_2_1*
X47030000Y-18100000D03*
G04 #@! TD*
G04 #@! TO.C,KiKit_MB_22_11*
X8000000Y-55200000D03*
G04 #@! TD*
G04 #@! TO.C,KiKit_MB_16_1*
X36000000Y-55230000D03*
G04 #@! TD*
G04 #@! TO.C,KiKit_MB_18_5*
X47000000Y-3371429D03*
G04 #@! TD*
G04 #@! TO.C,KiKit_MB_23_3*
X51600000Y-14800000D03*
G04 #@! TD*
G04 #@! TO.C,KiKit_MB_16_2*
X35000000Y-55230000D03*
G04 #@! TD*
G04 #@! TO.C,KiKit_MB_23_15*
X61200000Y-14800000D03*
G04 #@! TD*
G04 #@! TO.C,KiKit_MB_24_24*
X68400000Y-55200000D03*
G04 #@! TD*
G04 #@! TO.C,KiKit_MB_9_2*
X22970000Y-40300000D03*
G04 #@! TD*
G04 #@! TO.C,KiKit_MB_24_23*
X67600000Y-55200000D03*
G04 #@! TD*
G04 #@! TO.C,KiKit_MB_20_8*
X47000000Y-64100000D03*
G04 #@! TD*
G04 #@! TO.C,KiKit_MB_21_15*
X11200000Y-14800000D03*
G04 #@! TD*
G04 #@! TO.C,KiKit_MB_24_4*
X52400000Y-55200000D03*
G04 #@! TD*
G04 #@! TO.C,KiKit_MB_20_10*
X47000000Y-65785714D03*
G04 #@! TD*
G04 #@! TO.C,KiKit_MB_19_8*
X23000000Y-64100000D03*
G04 #@! TD*
G04 #@! TO.C,KiKit_MB_24_20*
X65200000Y-55200000D03*
G04 #@! TD*
G04 #@! TO.C,KiKit_MB_7_2*
X35000000Y-25370000D03*
G04 #@! TD*
G04 #@! TO.C,KiKit_MB_21_23*
X17600000Y-14800000D03*
G04 #@! TD*
G04 #@! TO.C,KiKit_MB_13_1*
X22970000Y-51900000D03*
G04 #@! TD*
G04 #@! TO.C,KiKit_MB_19_10*
X23000000Y-65785714D03*
G04 #@! TD*
G04 #@! TO.C,KiKit_MB_18_10*
X47000000Y-7585715D03*
G04 #@! TD*
G04 #@! TO.C,KiKit_MB_4_3*
X34000000Y-23430000D03*
G04 #@! TD*
G04 #@! TO.C,KiKit_MB_23_18*
X63600000Y-14800000D03*
G04 #@! TD*
G04 #@! TO.C,KiKit_MB_23_10*
X57200000Y-14800000D03*
G04 #@! TD*
G04 #@! TO.C,KiKit_MB_20_1*
X47000000Y-58200000D03*
G04 #@! TD*
G04 #@! TO.C,KiKit_MB_13_3*
X22970000Y-49900000D03*
G04 #@! TD*
G04 #@! TO.C,KiKit_MB_19_4*
X23000000Y-60728571D03*
G04 #@! TD*
G04 #@! TO.C,KiKit_MB_14_2*
X47030000Y-50900000D03*
G04 #@! TD*
D11*
G04 #@! TO.C,KiKit_TO_3*
X2000000Y-68000000D03*
G04 #@! TD*
D10*
G04 #@! TO.C,KiKit_MB_19_11*
X23000000Y-66628571D03*
G04 #@! TD*
G04 #@! TO.C,KiKit_MB_21_7*
X4800000Y-14800000D03*
G04 #@! TD*
G04 #@! TO.C,KiKit_MB_21_5*
X3200000Y-14800000D03*
G04 #@! TD*
G04 #@! TO.C,KiKit_MB_23_19*
X64400000Y-14800000D03*
G04 #@! TD*
G04 #@! TO.C,KiKit_MB_21_21*
X16000000Y-14800000D03*
G04 #@! TD*
G04 #@! TO.C,KiKit_MB_23_9*
X56400000Y-14800000D03*
G04 #@! TD*
G04 #@! TO.C,KiKit_MB_18_8*
X47000000Y-5900000D03*
G04 #@! TD*
G04 #@! TO.C,KiKit_MB_18_7*
X47000000Y-5057143D03*
G04 #@! TD*
G04 #@! TO.C,KiKit_MB_24_9*
X56400000Y-55200000D03*
G04 #@! TD*
G04 #@! TO.C,KiKit_MB_19_7*
X23000000Y-63257142D03*
G04 #@! TD*
G04 #@! TO.C,KiKit_MB_21_20*
X15200000Y-14800000D03*
G04 #@! TD*
G04 #@! TO.C,KiKit_MB_24_21*
X66000000Y-55200000D03*
G04 #@! TD*
G04 #@! TO.C,KiKit_MB_24_16*
X62000000Y-55200000D03*
G04 #@! TD*
G04 #@! TO.C,KiKit_MB_17_1*
X23000000Y0D03*
G04 #@! TD*
G04 #@! TO.C,KiKit_MB_20_7*
X47000000Y-63257142D03*
G04 #@! TD*
G04 #@! TO.C,KiKit_MB_22_14*
X10400000Y-55200000D03*
G04 #@! TD*
G04 #@! TO.C,KiKit_MB_17_2*
X23000000Y-842858D03*
G04 #@! TD*
G04 #@! TO.C,KiKit_MB_20_14*
X47000000Y-69157142D03*
G04 #@! TD*
G04 #@! TO.C,KiKit_MB_20_6*
X47000000Y-62414285D03*
G04 #@! TD*
G04 #@! TO.C,KiKit_MB_3_2*
X35000000Y-14770000D03*
G04 #@! TD*
G04 #@! TO.C,KiKit_MB_18_3*
X47000000Y-1685715D03*
G04 #@! TD*
G04 #@! TO.C,KiKit_MB_17_3*
X23000000Y-1685715D03*
G04 #@! TD*
G04 #@! TO.C,KiKit_MB_24_11*
X58000000Y-55200000D03*
G04 #@! TD*
G04 #@! TO.C,KiKit_MB_18_1*
X47000000Y0D03*
G04 #@! TD*
G04 #@! TO.C,KiKit_MB_19_2*
X23000000Y-59042857D03*
G04 #@! TD*
G04 #@! TO.C,KiKit_MB_7_3*
X36000000Y-25370000D03*
G04 #@! TD*
G04 #@! TO.C,KiKit_MB_21_22*
X16800000Y-14800000D03*
G04 #@! TD*
G04 #@! TO.C,KiKit_MB_21_26*
X20000000Y-14800000D03*
G04 #@! TD*
G04 #@! TO.C,KiKit_MB_21_9*
X6400000Y-14800000D03*
G04 #@! TD*
G04 #@! TO.C,KiKit_MB_24_2*
X50800000Y-55200000D03*
G04 #@! TD*
G04 #@! TO.C,KiKit_MB_10_3*
X47030000Y-41300000D03*
G04 #@! TD*
G04 #@! TO.C,KiKit_MB_23_8*
X55600000Y-14800000D03*
G04 #@! TD*
G04 #@! TO.C,KiKit_MB_22_24*
X18400000Y-55200000D03*
G04 #@! TD*
G04 #@! TO.C,KiKit_MB_21_8*
X5600000Y-14800000D03*
G04 #@! TD*
G04 #@! TO.C,KiKit_MB_1_3*
X22970000Y-18100000D03*
G04 #@! TD*
G04 #@! TO.C,KiKit_MB_22_19*
X14400000Y-55200000D03*
G04 #@! TD*
G04 #@! TO.C,KiKit_MB_23_1*
X50000000Y-14800000D03*
G04 #@! TD*
G04 #@! TO.C,KiKit_MB_17_6*
X23000000Y-4214286D03*
G04 #@! TD*
G04 #@! TO.C,KiKit_MB_15_2*
X35000000Y-46570000D03*
G04 #@! TD*
G04 #@! TO.C,KiKit_MB_22_16*
X12000000Y-55200000D03*
G04 #@! TD*
G04 #@! TO.C,KiKit_MB_23_7*
X54800000Y-14800000D03*
G04 #@! TD*
G04 #@! TO.C,KiKit_MB_22_4*
X2400000Y-55200000D03*
G04 #@! TD*
G04 #@! TO.C,KiKit_MB_11_1*
X34000000Y-35970000D03*
G04 #@! TD*
G04 #@! TO.C,KiKit_MB_21_11*
X8000000Y-14800000D03*
G04 #@! TD*
G04 #@! TO.C,KiKit_MB_22_9*
X6400000Y-55200000D03*
G04 #@! TD*
G04 #@! TO.C,KiKit_MB_18_9*
X47000000Y-6742858D03*
G04 #@! TD*
G04 #@! TO.C,KiKit_MB_21_13*
X9600000Y-14800000D03*
G04 #@! TD*
G04 #@! TO.C,KiKit_MB_24_17*
X62800000Y-55200000D03*
G04 #@! TD*
G04 #@! TO.C,KiKit_MB_17_8*
X23000000Y-5900000D03*
G04 #@! TD*
G04 #@! TO.C,KiKit_MB_22_2*
X800000Y-55200000D03*
G04 #@! TD*
G04 #@! TO.C,KiKit_MB_17_5*
X23000000Y-3371429D03*
G04 #@! TD*
G04 #@! TO.C,KiKit_MB_18_15*
X47000000Y-11800000D03*
G04 #@! TD*
G04 #@! TO.C,KiKit_MB_3_1*
X34000000Y-14770000D03*
G04 #@! TD*
G04 #@! TO.C,KiKit_MB_9_3*
X22970000Y-39300000D03*
G04 #@! TD*
G04 #@! TO.C,KiKit_MB_24_18*
X63600000Y-55200000D03*
G04 #@! TD*
G04 #@! TO.C,KiKit_MB_17_10*
X23000000Y-7585715D03*
G04 #@! TD*
G04 #@! TO.C,KiKit_MB_19_9*
X23000000Y-64942857D03*
G04 #@! TD*
G04 #@! TO.C,KiKit_MB_2_3*
X47030000Y-20100000D03*
G04 #@! TD*
G04 #@! TO.C,KiKit_MB_11_2*
X35000000Y-35970000D03*
G04 #@! TD*
G04 #@! TO.C,KiKit_MB_20_2*
X47000000Y-59042857D03*
G04 #@! TD*
G04 #@! TO.C,KiKit_MB_23_20*
X65200000Y-14800000D03*
G04 #@! TD*
G04 #@! TO.C,KiKit_MB_8_1*
X36000000Y-34030000D03*
G04 #@! TD*
G04 #@! TO.C,KiKit_MB_17_13*
X23000000Y-10114286D03*
G04 #@! TD*
D11*
G04 #@! TO.C,KiKit_TO_1*
X2000000Y-2000000D03*
G04 #@! TD*
D10*
G04 #@! TO.C,KiKit_MB_18_12*
X47000000Y-9271429D03*
G04 #@! TD*
G04 #@! TO.C,KiKit_MB_21_2*
X800000Y-14800000D03*
G04 #@! TD*
G04 #@! TO.C,KiKit_MB_20_12*
X47000000Y-67471428D03*
G04 #@! TD*
G04 #@! TO.C,KiKit_MB_22_26*
X20000000Y-55200000D03*
G04 #@! TD*
G04 #@! TO.C,KiKit_MB_11_3*
X36000000Y-35970000D03*
G04 #@! TD*
G04 #@! TO.C,KiKit_MB_21_4*
X2400000Y-14800000D03*
G04 #@! TD*
G04 #@! TO.C,KiKit_MB_22_12*
X8800000Y-55200000D03*
G04 #@! TD*
G04 #@! TO.C,KiKit_MB_23_13*
X59600000Y-14800000D03*
G04 #@! TD*
G04 #@! TO.C,KiKit_MB_6_3*
X47030000Y-30700000D03*
G04 #@! TD*
G04 #@! TO.C,KiKit_MB_22_15*
X11200000Y-55200000D03*
G04 #@! TD*
G04 #@! TO.C,KiKit_MB_19_1*
X23000000Y-58200000D03*
G04 #@! TD*
G04 #@! TO.C,KiKit_MB_23_14*
X60400000Y-14800000D03*
G04 #@! TD*
G04 #@! TO.C,KiKit_MB_23_5*
X53200000Y-14800000D03*
G04 #@! TD*
G04 #@! TO.C,KiKit_MB_23_22*
X66800000Y-14800000D03*
G04 #@! TD*
G04 #@! TO.C,KiKit_MB_23_21*
X66000000Y-14800000D03*
G04 #@! TD*
G04 #@! TO.C,KiKit_MB_21_25*
X19200000Y-14800000D03*
G04 #@! TD*
G04 #@! TO.C,KiKit_MB_3_3*
X36000000Y-14770000D03*
G04 #@! TD*
G04 #@! TO.C,KiKit_MB_10_1*
X47030000Y-39300000D03*
G04 #@! TD*
G04 #@! TO.C,KiKit_MB_4_1*
X36000000Y-23430000D03*
G04 #@! TD*
G04 #@! TO.C,KiKit_MB_9_1*
X22970000Y-41300000D03*
G04 #@! TD*
G04 #@! TO.C,KiKit_MB_17_4*
X23000000Y-2528572D03*
G04 #@! TD*
G04 #@! TO.C,KiKit_MB_12_2*
X35000000Y-44630000D03*
G04 #@! TD*
G04 #@! TO.C,KiKit_MB_20_3*
X47000000Y-59885714D03*
G04 #@! TD*
G04 #@! TO.C,KiKit_MB_19_15*
X23000000Y-70000000D03*
G04 #@! TD*
G04 #@! TO.C,KiKit_MB_23_25*
X69200000Y-14800000D03*
G04 #@! TD*
D11*
G04 #@! TO.C,KiKit_TO_2*
X68000000Y-2000000D03*
G04 #@! TD*
D10*
G04 #@! TO.C,KiKit_MB_21_17*
X12800000Y-14800000D03*
G04 #@! TD*
G04 #@! TO.C,KiKit_MB_10_2*
X47030000Y-40300000D03*
G04 #@! TD*
G04 #@! TO.C,KiKit_MB_24_1*
X50000000Y-55200000D03*
G04 #@! TD*
G04 #@! TO.C,KiKit_MB_20_13*
X47000000Y-68314285D03*
G04 #@! TD*
G04 #@! TO.C,KiKit_MB_22_13*
X9600000Y-55200000D03*
G04 #@! TD*
G04 #@! TO.C,KiKit_MB_24_22*
X66800000Y-55200000D03*
G04 #@! TD*
G04 #@! TO.C,KiKit_MB_22_1*
X0Y-55200000D03*
G04 #@! TD*
G04 #@! TO.C,KiKit_MB_14_1*
X47030000Y-49900000D03*
G04 #@! TD*
G04 #@! TO.C,KiKit_MB_1_1*
X22970000Y-20100000D03*
G04 #@! TD*
G04 #@! TO.C,KiKit_MB_24_19*
X64400000Y-55200000D03*
G04 #@! TD*
G04 #@! TO.C,KiKit_MB_24_5*
X53200000Y-55200000D03*
G04 #@! TD*
G04 #@! TO.C,KiKit_MB_4_2*
X35000000Y-23430000D03*
G04 #@! TD*
G04 #@! TO.C,KiKit_MB_8_3*
X34000000Y-34030000D03*
G04 #@! TD*
G04 #@! TO.C,KiKit_MB_19_14*
X23000000Y-69157142D03*
G04 #@! TD*
G04 #@! TO.C,KiKit_MB_12_1*
X36000000Y-44630000D03*
G04 #@! TD*
G04 #@! TO.C,KiKit_MB_21_16*
X12000000Y-14800000D03*
G04 #@! TD*
G04 #@! TO.C,KiKit_MB_5_1*
X22970000Y-30700000D03*
G04 #@! TD*
G04 #@! TO.C,KiKit_MB_22_6*
X4000000Y-55200000D03*
G04 #@! TD*
G04 #@! TO.C,KiKit_MB_23_12*
X58800000Y-14800000D03*
G04 #@! TD*
G04 #@! TO.C,KiKit_MB_20_9*
X47000000Y-64942857D03*
G04 #@! TD*
G04 #@! TO.C,KiKit_MB_18_6*
X47000000Y-4214286D03*
G04 #@! TD*
G04 #@! TO.C,KiKit_MB_24_13*
X59600000Y-55200000D03*
G04 #@! TD*
G04 #@! TO.C,KiKit_MB_23_24*
X68400000Y-14800000D03*
G04 #@! TD*
G04 #@! TO.C,KiKit_MB_22_20*
X15200000Y-55200000D03*
G04 #@! TD*
G04 #@! TO.C,KiKit_MB_6_1*
X47030000Y-28700000D03*
G04 #@! TD*
G04 #@! TO.C,KiKit_MB_21_10*
X7200000Y-14800000D03*
G04 #@! TD*
G04 #@! TO.C,KiKit_MB_15_3*
X36000000Y-46570000D03*
G04 #@! TD*
G04 #@! TO.C,KiKit_MB_22_5*
X3200000Y-55200000D03*
G04 #@! TD*
G04 #@! TO.C,KiKit_MB_23_26*
X70000000Y-14800000D03*
G04 #@! TD*
G04 #@! TO.C,KiKit_MB_17_11*
X23000000Y-8428572D03*
G04 #@! TD*
G04 #@! TO.C,KiKit_MB_22_21*
X16000000Y-55200000D03*
G04 #@! TD*
G04 #@! TO.C,KiKit_MB_21_1*
X0Y-14800000D03*
G04 #@! TD*
G04 #@! TO.C,KiKit_MB_23_16*
X62000000Y-14800000D03*
G04 #@! TD*
G04 #@! TO.C,KiKit_MB_20_4*
X47000000Y-60728571D03*
G04 #@! TD*
G04 #@! TO.C,KiKit_MB_23_17*
X62800000Y-14800000D03*
G04 #@! TD*
D12*
G04 #@! TO.C,KiKit_FID_B_1*
X10000000Y-3850000D03*
G04 #@! TD*
G04 #@! TO.C,KiKit_FID_B_3*
X10000000Y-66150000D03*
G04 #@! TD*
D13*
G04 #@! TO.C,J1*
X25710000Y-21030000D03*
X25710000Y-20680000D03*
X25710000Y-20330000D03*
X25710000Y-19980000D03*
X25710000Y-19630000D03*
X25710000Y-19280000D03*
X25710000Y-18930000D03*
X25710000Y-18580000D03*
X25710000Y-18230000D03*
X25710000Y-17880000D03*
X25710000Y-17530000D03*
X25710000Y-17180000D03*
X23890000Y-17180000D03*
X23890000Y-17530000D03*
X23890000Y-17880000D03*
X23890000Y-18230000D03*
X23890000Y-18580000D03*
X23890000Y-18930000D03*
X23890000Y-19280000D03*
X23890000Y-19630000D03*
X23890000Y-19980000D03*
X23890000Y-20330000D03*
X23890000Y-20680000D03*
X23890000Y-21030000D03*
D14*
X25570000Y-21400000D03*
X24030000Y-21400000D03*
X25570000Y-16800000D03*
X24030000Y-16800000D03*
G04 #@! TD*
D13*
G04 #@! TO.C,J1*
X25710000Y-42230000D03*
X25710000Y-41880000D03*
X25710000Y-41530000D03*
X25710000Y-41180000D03*
X25710000Y-40830000D03*
X25710000Y-40480000D03*
X25710000Y-40130000D03*
X25710000Y-39780000D03*
X25710000Y-39430000D03*
X25710000Y-39080000D03*
X25710000Y-38730000D03*
X25710000Y-38380000D03*
X23890000Y-38380000D03*
X23890000Y-38730000D03*
X23890000Y-39080000D03*
X23890000Y-39430000D03*
X23890000Y-39780000D03*
X23890000Y-40130000D03*
X23890000Y-40480000D03*
X23890000Y-40830000D03*
X23890000Y-41180000D03*
X23890000Y-41530000D03*
X23890000Y-41880000D03*
X23890000Y-42230000D03*
D14*
X25570000Y-42600000D03*
X24030000Y-42600000D03*
X25570000Y-38000000D03*
X24030000Y-38000000D03*
G04 #@! TD*
D12*
G04 #@! TO.C,KiKit_FID_B_4*
X60000000Y-66150000D03*
G04 #@! TD*
D13*
G04 #@! TO.C,J1*
X25710000Y-31630000D03*
X25710000Y-31280000D03*
X25710000Y-30930000D03*
X25710000Y-30580000D03*
X25710000Y-30230000D03*
X25710000Y-29880000D03*
X25710000Y-29530000D03*
X25710000Y-29180000D03*
X25710000Y-28830000D03*
X25710000Y-28480000D03*
X25710000Y-28130000D03*
X25710000Y-27780000D03*
X23890000Y-27780000D03*
X23890000Y-28130000D03*
X23890000Y-28480000D03*
X23890000Y-28830000D03*
X23890000Y-29180000D03*
X23890000Y-29530000D03*
X23890000Y-29880000D03*
X23890000Y-30230000D03*
X23890000Y-30580000D03*
X23890000Y-30930000D03*
X23890000Y-31280000D03*
X23890000Y-31630000D03*
D14*
X25570000Y-32000000D03*
X24030000Y-32000000D03*
X25570000Y-27400000D03*
X24030000Y-27400000D03*
G04 #@! TD*
D13*
G04 #@! TO.C,J1*
X25710000Y-52830000D03*
X25710000Y-52480000D03*
X25710000Y-52130000D03*
X25710000Y-51780000D03*
X25710000Y-51430000D03*
X25710000Y-51080000D03*
X25710000Y-50730000D03*
X25710000Y-50380000D03*
X25710000Y-50030000D03*
X25710000Y-49680000D03*
X25710000Y-49330000D03*
X25710000Y-48980000D03*
X23890000Y-48980000D03*
X23890000Y-49330000D03*
X23890000Y-49680000D03*
X23890000Y-50030000D03*
X23890000Y-50380000D03*
X23890000Y-50730000D03*
X23890000Y-51080000D03*
X23890000Y-51430000D03*
X23890000Y-51780000D03*
X23890000Y-52130000D03*
X23890000Y-52480000D03*
X23890000Y-52830000D03*
D14*
X25570000Y-53200000D03*
X24030000Y-53200000D03*
X25570000Y-48600000D03*
X24030000Y-48600000D03*
G04 #@! TD*
D12*
G04 #@! TO.C,KiKit_FID_B_2*
X60000000Y-3850000D03*
G04 #@! TD*
M02*
