M48
; DRILL file {KiCad 9.0.0} date 2025-03-13T21:56:03-0400
; FORMAT={-:-/ absolute / metric / decimal}
; #@! TF.CreationDate,2025-03-13T21:56:03-04:00
; #@! TF.GenerationSoftware,Kicad,Pcbnew,9.0.0
; #@! TF.FileFunction,NonPlated,1,2,NPTH
FMAT,2
METRIC
; #@! TA.AperFunction,NonPlated,NPTH,ComponentDrill
T1C0.500
; #@! TA.AperFunction,NonPlated,NPTH,ComponentDrill
T2C1.152
%
G90
G05
T1
X0.0Y-14.8
X0.0Y-55.2
X0.8Y-14.8
X0.8Y-55.2
X1.6Y-14.8
X1.6Y-55.2
X2.4Y-14.8
X2.4Y-55.2
X3.2Y-14.8
X3.2Y-55.2
X4.0Y-14.8
X4.0Y-55.2
X4.8Y-14.8
X4.8Y-55.2
X5.6Y-14.8
X5.6Y-55.2
X6.4Y-14.8
X6.4Y-55.2
X7.2Y-14.8
X7.2Y-55.2
X8.0Y-14.8
X8.0Y-55.2
X8.8Y-14.8
X8.8Y-55.2
X9.6Y-14.8
X9.6Y-55.2
X10.4Y-14.8
X10.4Y-55.2
X11.2Y-14.8
X11.2Y-55.2
X12.0Y-14.8
X12.0Y-55.2
X12.8Y-14.8
X12.8Y-55.2
X13.6Y-14.8
X13.6Y-55.2
X14.4Y-14.8
X14.4Y-55.2
X15.2Y-14.8
X15.2Y-55.2
X16.0Y-14.8
X16.0Y-55.2
X16.8Y-14.8
X16.8Y-55.2
X17.6Y-14.8
X17.6Y-55.2
X18.4Y-14.8
X18.4Y-55.2
X19.2Y-14.8
X19.2Y-55.2
X20.0Y-14.8
X20.0Y-55.2
X22.97Y-18.1
X22.97Y-19.1
X22.97Y-20.1
X22.97Y-28.7
X22.97Y-29.7
X22.97Y-30.7
X22.97Y-39.3
X22.97Y-40.3
X22.97Y-41.3
X22.97Y-49.9
X22.97Y-50.9
X22.97Y-51.9
X23.0Y0.0
X23.0Y-0.843
X23.0Y-1.686
X23.0Y-2.529
X23.0Y-3.371
X23.0Y-4.214
X23.0Y-5.057
X23.0Y-5.9
X23.0Y-6.743
X23.0Y-7.586
X23.0Y-8.429
X23.0Y-9.271
X23.0Y-10.114
X23.0Y-10.957
X23.0Y-11.8
X23.0Y-58.2
X23.0Y-59.043
X23.0Y-59.886
X23.0Y-60.729
X23.0Y-61.571
X23.0Y-62.414
X23.0Y-63.257
X23.0Y-64.1
X23.0Y-64.943
X23.0Y-65.786
X23.0Y-66.629
X23.0Y-67.471
X23.0Y-68.314
X23.0Y-69.157
X23.0Y-70.0
X34.0Y-14.77
X34.0Y-23.43
X34.0Y-25.37
X34.0Y-34.03
X34.0Y-35.97
X34.0Y-44.63
X34.0Y-46.57
X34.0Y-55.23
X35.0Y-14.77
X35.0Y-23.43
X35.0Y-25.37
X35.0Y-34.03
X35.0Y-35.97
X35.0Y-44.63
X35.0Y-46.57
X35.0Y-55.23
X36.0Y-14.77
X36.0Y-23.43
X36.0Y-25.37
X36.0Y-34.03
X36.0Y-35.97
X36.0Y-44.63
X36.0Y-46.57
X36.0Y-55.23
X47.0Y0.0
X47.0Y-0.843
X47.0Y-1.686
X47.0Y-2.529
X47.0Y-3.371
X47.0Y-4.214
X47.0Y-5.057
X47.0Y-5.9
X47.0Y-6.743
X47.0Y-7.586
X47.0Y-8.429
X47.0Y-9.271
X47.0Y-10.114
X47.0Y-10.957
X47.0Y-11.8
X47.0Y-58.2
X47.0Y-59.043
X47.0Y-59.886
X47.0Y-60.729
X47.0Y-61.571
X47.0Y-62.414
X47.0Y-63.257
X47.0Y-64.1
X47.0Y-64.943
X47.0Y-65.786
X47.0Y-66.629
X47.0Y-67.471
X47.0Y-68.314
X47.0Y-69.157
X47.0Y-70.0
X47.03Y-18.1
X47.03Y-19.1
X47.03Y-20.1
X47.03Y-28.7
X47.03Y-29.7
X47.03Y-30.7
X47.03Y-39.3
X47.03Y-40.3
X47.03Y-41.3
X47.03Y-49.9
X47.03Y-50.9
X47.03Y-51.9
X50.0Y-14.8
X50.0Y-55.2
X50.8Y-14.8
X50.8Y-55.2
X51.6Y-14.8
X51.6Y-55.2
X52.4Y-14.8
X52.4Y-55.2
X53.2Y-14.8
X53.2Y-55.2
X54.0Y-14.8
X54.0Y-55.2
X54.8Y-14.8
X54.8Y-55.2
X55.6Y-14.8
X55.6Y-55.2
X56.4Y-14.8
X56.4Y-55.2
X57.2Y-14.8
X57.2Y-55.2
X58.0Y-14.8
X58.0Y-55.2
X58.8Y-14.8
X58.8Y-55.2
X59.6Y-14.8
X59.6Y-55.2
X60.4Y-14.8
X60.4Y-55.2
X61.2Y-14.8
X61.2Y-55.2
X62.0Y-14.8
X62.0Y-55.2
X62.8Y-14.8
X62.8Y-55.2
X63.6Y-14.8
X63.6Y-55.2
X64.4Y-14.8
X64.4Y-55.2
X65.2Y-14.8
X65.2Y-55.2
X66.0Y-14.8
X66.0Y-55.2
X66.8Y-14.8
X66.8Y-55.2
X67.6Y-14.8
X67.6Y-55.2
X68.4Y-14.8
X68.4Y-55.2
X69.2Y-14.8
X69.2Y-55.2
X70.0Y-14.8
X70.0Y-55.2
T2
X2.0Y-2.0
X2.0Y-68.0
X68.0Y-2.0
M30
