G04 #@! TF.GenerationSoftware,KiCad,Pcbnew,9.0.0*
G04 #@! TF.CreationDate,2025-03-13T21:56:03-04:00*
G04 #@! TF.ProjectId,e24-receiver-board,6532342d-7265-4636-9569-7665722d626f,v0.1.1*
G04 #@! TF.SameCoordinates,Original*
G04 #@! TF.FileFunction,Copper,L2,Bot*
G04 #@! TF.FilePolarity,Positive*
%FSLAX46Y46*%
G04 Gerber Fmt 4.6, Leading zero omitted, Abs format (unit mm)*
G04 Created by KiCad (PCBNEW 9.0.0) date 2025-03-13 21:56:03*
%MOMM*%
%LPD*%
G01*
G04 APERTURE LIST*
G04 #@! TA.AperFunction,SMDPad,CuDef*
%ADD10R,0.490000X0.180000*%
G04 #@! TD*
G04 #@! TA.AperFunction,SMDPad,CuDef*
%ADD11R,0.540000X0.230000*%
G04 #@! TD*
G04 #@! TA.AperFunction,SMDPad,CuDef*
%ADD12C,1.000000*%
G04 #@! TD*
G04 #@! TA.AperFunction,ViaPad*
%ADD13C,0.450000*%
G04 #@! TD*
G04 #@! TA.AperFunction,Conductor*
%ADD14C,0.150000*%
G04 #@! TD*
G04 #@! TA.AperFunction,Conductor*
%ADD15C,0.200000*%
G04 #@! TD*
G04 #@! TA.AperFunction,Conductor*
%ADD16C,0.250000*%
G04 #@! TD*
G04 APERTURE END LIST*
D10*
G04 #@! TO.P,J1,1,1*
G04 #@! TO.N,Board_1-/SPEAKER_N*
X25710000Y-31630000D03*
G04 #@! TO.P,J1,2,2*
G04 #@! TO.N,Board_1-/SPEAKER_P*
X25710000Y-31280000D03*
G04 #@! TO.P,J1,3,3*
G04 #@! TO.N,Board_1-GND*
X25710000Y-30930000D03*
G04 #@! TO.P,J1,4,4*
G04 #@! TO.N,Board_1-/MOTOR_B*
X25710000Y-30580000D03*
G04 #@! TO.P,J1,5,5*
X25710000Y-30230000D03*
G04 #@! TO.P,J1,6,6*
G04 #@! TO.N,Board_1-/MOTOR_A*
X25710000Y-29880000D03*
G04 #@! TO.P,J1,7,7*
X25710000Y-29530000D03*
G04 #@! TO.P,J1,8,8*
G04 #@! TO.N,Board_1-/CAP+*
X25710000Y-29180000D03*
G04 #@! TO.P,J1,9,9*
G04 #@! TO.N,Board_1-/LAMP_FRONT*
X25710000Y-28830000D03*
G04 #@! TO.P,J1,10,10*
G04 #@! TO.N,Board_1-/LAMP_REAR*
X25710000Y-28480000D03*
G04 #@! TO.P,J1,11,11*
G04 #@! TO.N,Board_1-/AUX1 (VDC)*
X25710000Y-28130000D03*
G04 #@! TO.P,J1,12,12*
G04 #@! TO.N,Board_1-/AUX2 (VDC)*
X25710000Y-27780000D03*
G04 #@! TO.P,J1,13,13*
G04 #@! TO.N,Board_1-/AUX8 (VDC)*
X23890000Y-27780000D03*
G04 #@! TO.P,J1,14,14*
G04 #@! TO.N,Board_1-/AUX7 (VDC)*
X23890000Y-28130000D03*
G04 #@! TO.P,J1,15,15*
G04 #@! TO.N,Board_1-/AUX6 (VDC)*
X23890000Y-28480000D03*
G04 #@! TO.P,J1,16,16*
G04 #@! TO.N,Board_1-/AUX5 (VDC)*
X23890000Y-28830000D03*
G04 #@! TO.P,J1,17,17*
G04 #@! TO.N,Board_1-VDC*
X23890000Y-29180000D03*
G04 #@! TO.P,J1,18,18*
G04 #@! TO.N,Board_1-VCC*
X23890000Y-29530000D03*
G04 #@! TO.P,J1,19,19*
G04 #@! TO.N,Board_1-/AUX10*
X23890000Y-29880000D03*
G04 #@! TO.P,J1,20,20*
G04 #@! TO.N,Board_1-/AUX4*
X23890000Y-30230000D03*
G04 #@! TO.P,J1,21,21*
G04 #@! TO.N,Board_1-/AUX3*
X23890000Y-30580000D03*
G04 #@! TO.P,J1,22,22*
G04 #@! TO.N,Board_1-GND*
X23890000Y-30930000D03*
G04 #@! TO.P,J1,23,23*
G04 #@! TO.N,Board_1-/AUX11*
X23890000Y-31280000D03*
G04 #@! TO.P,J1,24,24*
G04 #@! TO.N,Board_1-/AUX12*
X23890000Y-31630000D03*
D11*
G04 #@! TO.P,J1,X1A,X1A*
G04 #@! TO.N,Board_1-/TRACK_LEFT*
X25570000Y-32000000D03*
G04 #@! TO.P,J1,X1B,X1B*
X24030000Y-32000000D03*
G04 #@! TO.P,J1,X2A,X2A*
G04 #@! TO.N,Board_1-/TRACK_RIGHT*
X25570000Y-27400000D03*
G04 #@! TO.P,J1,X2B,X2B*
X24030000Y-27400000D03*
G04 #@! TD*
D12*
G04 #@! TO.P,KiKit_FID_B_2,*
G04 #@! TO.N,*
X60000000Y-3850000D03*
G04 #@! TD*
D10*
G04 #@! TO.P,J1,1,1*
G04 #@! TO.N,Board_2-/SPEAKER_N*
X25710000Y-42230000D03*
G04 #@! TO.P,J1,2,2*
G04 #@! TO.N,Board_2-/SPEAKER_P*
X25710000Y-41880000D03*
G04 #@! TO.P,J1,3,3*
G04 #@! TO.N,Board_2-GND*
X25710000Y-41530000D03*
G04 #@! TO.P,J1,4,4*
G04 #@! TO.N,Board_2-/MOTOR_B*
X25710000Y-41180000D03*
G04 #@! TO.P,J1,5,5*
X25710000Y-40830000D03*
G04 #@! TO.P,J1,6,6*
G04 #@! TO.N,Board_2-/MOTOR_A*
X25710000Y-40480000D03*
G04 #@! TO.P,J1,7,7*
X25710000Y-40130000D03*
G04 #@! TO.P,J1,8,8*
G04 #@! TO.N,Board_2-/CAP+*
X25710000Y-39780000D03*
G04 #@! TO.P,J1,9,9*
G04 #@! TO.N,Board_2-/LAMP_FRONT*
X25710000Y-39430000D03*
G04 #@! TO.P,J1,10,10*
G04 #@! TO.N,Board_2-/LAMP_REAR*
X25710000Y-39080000D03*
G04 #@! TO.P,J1,11,11*
G04 #@! TO.N,Board_2-/AUX1 (VDC)*
X25710000Y-38730000D03*
G04 #@! TO.P,J1,12,12*
G04 #@! TO.N,Board_2-/AUX2 (VDC)*
X25710000Y-38380000D03*
G04 #@! TO.P,J1,13,13*
G04 #@! TO.N,Board_2-/AUX8 (VDC)*
X23890000Y-38380000D03*
G04 #@! TO.P,J1,14,14*
G04 #@! TO.N,Board_2-/AUX7 (VDC)*
X23890000Y-38730000D03*
G04 #@! TO.P,J1,15,15*
G04 #@! TO.N,Board_2-/AUX6 (VDC)*
X23890000Y-39080000D03*
G04 #@! TO.P,J1,16,16*
G04 #@! TO.N,Board_2-/AUX5 (VDC)*
X23890000Y-39430000D03*
G04 #@! TO.P,J1,17,17*
G04 #@! TO.N,Board_2-VDC*
X23890000Y-39780000D03*
G04 #@! TO.P,J1,18,18*
G04 #@! TO.N,Board_2-VCC*
X23890000Y-40130000D03*
G04 #@! TO.P,J1,19,19*
G04 #@! TO.N,Board_2-/AUX10*
X23890000Y-40480000D03*
G04 #@! TO.P,J1,20,20*
G04 #@! TO.N,Board_2-/AUX4*
X23890000Y-40830000D03*
G04 #@! TO.P,J1,21,21*
G04 #@! TO.N,Board_2-/AUX3*
X23890000Y-41180000D03*
G04 #@! TO.P,J1,22,22*
G04 #@! TO.N,Board_2-GND*
X23890000Y-41530000D03*
G04 #@! TO.P,J1,23,23*
G04 #@! TO.N,Board_2-/AUX11*
X23890000Y-41880000D03*
G04 #@! TO.P,J1,24,24*
G04 #@! TO.N,Board_2-/AUX12*
X23890000Y-42230000D03*
D11*
G04 #@! TO.P,J1,X1A,X1A*
G04 #@! TO.N,Board_2-/TRACK_LEFT*
X25570000Y-42600000D03*
G04 #@! TO.P,J1,X1B,X1B*
X24030000Y-42600000D03*
G04 #@! TO.P,J1,X2A,X2A*
G04 #@! TO.N,Board_2-/TRACK_RIGHT*
X25570000Y-38000000D03*
G04 #@! TO.P,J1,X2B,X2B*
X24030000Y-38000000D03*
G04 #@! TD*
D12*
G04 #@! TO.P,KiKit_FID_B_3,*
G04 #@! TO.N,*
X10000000Y-66150000D03*
G04 #@! TD*
G04 #@! TO.P,KiKit_FID_B_4,*
G04 #@! TO.N,*
X60000000Y-66150000D03*
G04 #@! TD*
D10*
G04 #@! TO.P,J1,1,1*
G04 #@! TO.N,Board_3-/SPEAKER_N*
X25710000Y-52830000D03*
G04 #@! TO.P,J1,2,2*
G04 #@! TO.N,Board_3-/SPEAKER_P*
X25710000Y-52480000D03*
G04 #@! TO.P,J1,3,3*
G04 #@! TO.N,Board_3-GND*
X25710000Y-52130000D03*
G04 #@! TO.P,J1,4,4*
G04 #@! TO.N,Board_3-/MOTOR_B*
X25710000Y-51780000D03*
G04 #@! TO.P,J1,5,5*
X25710000Y-51430000D03*
G04 #@! TO.P,J1,6,6*
G04 #@! TO.N,Board_3-/MOTOR_A*
X25710000Y-51080000D03*
G04 #@! TO.P,J1,7,7*
X25710000Y-50730000D03*
G04 #@! TO.P,J1,8,8*
G04 #@! TO.N,Board_3-/CAP+*
X25710000Y-50380000D03*
G04 #@! TO.P,J1,9,9*
G04 #@! TO.N,Board_3-/LAMP_FRONT*
X25710000Y-50030000D03*
G04 #@! TO.P,J1,10,10*
G04 #@! TO.N,Board_3-/LAMP_REAR*
X25710000Y-49680000D03*
G04 #@! TO.P,J1,11,11*
G04 #@! TO.N,Board_3-/AUX1 (VDC)*
X25710000Y-49330000D03*
G04 #@! TO.P,J1,12,12*
G04 #@! TO.N,Board_3-/AUX2 (VDC)*
X25710000Y-48980000D03*
G04 #@! TO.P,J1,13,13*
G04 #@! TO.N,Board_3-/AUX8 (VDC)*
X23890000Y-48980000D03*
G04 #@! TO.P,J1,14,14*
G04 #@! TO.N,Board_3-/AUX7 (VDC)*
X23890000Y-49330000D03*
G04 #@! TO.P,J1,15,15*
G04 #@! TO.N,Board_3-/AUX6 (VDC)*
X23890000Y-49680000D03*
G04 #@! TO.P,J1,16,16*
G04 #@! TO.N,Board_3-/AUX5 (VDC)*
X23890000Y-50030000D03*
G04 #@! TO.P,J1,17,17*
G04 #@! TO.N,Board_3-VDC*
X23890000Y-50380000D03*
G04 #@! TO.P,J1,18,18*
G04 #@! TO.N,Board_3-VCC*
X23890000Y-50730000D03*
G04 #@! TO.P,J1,19,19*
G04 #@! TO.N,Board_3-/AUX10*
X23890000Y-51080000D03*
G04 #@! TO.P,J1,20,20*
G04 #@! TO.N,Board_3-/AUX4*
X23890000Y-51430000D03*
G04 #@! TO.P,J1,21,21*
G04 #@! TO.N,Board_3-/AUX3*
X23890000Y-51780000D03*
G04 #@! TO.P,J1,22,22*
G04 #@! TO.N,Board_3-GND*
X23890000Y-52130000D03*
G04 #@! TO.P,J1,23,23*
G04 #@! TO.N,Board_3-/AUX11*
X23890000Y-52480000D03*
G04 #@! TO.P,J1,24,24*
G04 #@! TO.N,Board_3-/AUX12*
X23890000Y-52830000D03*
D11*
G04 #@! TO.P,J1,X1A,X1A*
G04 #@! TO.N,Board_3-/TRACK_LEFT*
X25570000Y-53200000D03*
G04 #@! TO.P,J1,X1B,X1B*
X24030000Y-53200000D03*
G04 #@! TO.P,J1,X2A,X2A*
G04 #@! TO.N,Board_3-/TRACK_RIGHT*
X25570000Y-48600000D03*
G04 #@! TO.P,J1,X2B,X2B*
X24030000Y-48600000D03*
G04 #@! TD*
D10*
G04 #@! TO.P,J1,1,1*
G04 #@! TO.N,Board_0-/SPEAKER_N*
X25710000Y-21030000D03*
G04 #@! TO.P,J1,2,2*
G04 #@! TO.N,Board_0-/SPEAKER_P*
X25710000Y-20680000D03*
G04 #@! TO.P,J1,3,3*
G04 #@! TO.N,Board_0-GND*
X25710000Y-20330000D03*
G04 #@! TO.P,J1,4,4*
G04 #@! TO.N,Board_0-/MOTOR_B*
X25710000Y-19980000D03*
G04 #@! TO.P,J1,5,5*
X25710000Y-19630000D03*
G04 #@! TO.P,J1,6,6*
G04 #@! TO.N,Board_0-/MOTOR_A*
X25710000Y-19280000D03*
G04 #@! TO.P,J1,7,7*
X25710000Y-18930000D03*
G04 #@! TO.P,J1,8,8*
G04 #@! TO.N,Board_0-/CAP+*
X25710000Y-18580000D03*
G04 #@! TO.P,J1,9,9*
G04 #@! TO.N,Board_0-/LAMP_FRONT*
X25710000Y-18230000D03*
G04 #@! TO.P,J1,10,10*
G04 #@! TO.N,Board_0-/LAMP_REAR*
X25710000Y-17880000D03*
G04 #@! TO.P,J1,11,11*
G04 #@! TO.N,Board_0-/AUX1 (VDC)*
X25710000Y-17530000D03*
G04 #@! TO.P,J1,12,12*
G04 #@! TO.N,Board_0-/AUX2 (VDC)*
X25710000Y-17180000D03*
G04 #@! TO.P,J1,13,13*
G04 #@! TO.N,Board_0-/AUX8 (VDC)*
X23890000Y-17180000D03*
G04 #@! TO.P,J1,14,14*
G04 #@! TO.N,Board_0-/AUX7 (VDC)*
X23890000Y-17530000D03*
G04 #@! TO.P,J1,15,15*
G04 #@! TO.N,Board_0-/AUX6 (VDC)*
X23890000Y-17880000D03*
G04 #@! TO.P,J1,16,16*
G04 #@! TO.N,Board_0-/AUX5 (VDC)*
X23890000Y-18230000D03*
G04 #@! TO.P,J1,17,17*
G04 #@! TO.N,Board_0-VDC*
X23890000Y-18580000D03*
G04 #@! TO.P,J1,18,18*
G04 #@! TO.N,Board_0-VCC*
X23890000Y-18930000D03*
G04 #@! TO.P,J1,19,19*
G04 #@! TO.N,Board_0-/AUX10*
X23890000Y-19280000D03*
G04 #@! TO.P,J1,20,20*
G04 #@! TO.N,Board_0-/AUX4*
X23890000Y-19630000D03*
G04 #@! TO.P,J1,21,21*
G04 #@! TO.N,Board_0-/AUX3*
X23890000Y-19980000D03*
G04 #@! TO.P,J1,22,22*
G04 #@! TO.N,Board_0-GND*
X23890000Y-20330000D03*
G04 #@! TO.P,J1,23,23*
G04 #@! TO.N,Board_0-/AUX11*
X23890000Y-20680000D03*
G04 #@! TO.P,J1,24,24*
G04 #@! TO.N,Board_0-/AUX12*
X23890000Y-21030000D03*
D11*
G04 #@! TO.P,J1,X1A,X1A*
G04 #@! TO.N,Board_0-/TRACK_LEFT*
X25570000Y-21400000D03*
G04 #@! TO.P,J1,X1B,X1B*
X24030000Y-21400000D03*
G04 #@! TO.P,J1,X2A,X2A*
G04 #@! TO.N,Board_0-/TRACK_RIGHT*
X25570000Y-16800000D03*
G04 #@! TO.P,J1,X2B,X2B*
X24030000Y-16800000D03*
G04 #@! TD*
D12*
G04 #@! TO.P,KiKit_FID_B_1,*
G04 #@! TO.N,*
X10000000Y-3850000D03*
G04 #@! TD*
D13*
G04 #@! TO.N,Board_0-/AUX1 (VDC)*
X35150000Y-17800000D03*
G04 #@! TO.N,Board_0-/AUX10*
X39900000Y-16200000D03*
G04 #@! TO.N,Board_0-/AUX11*
X41800000Y-22000000D03*
G04 #@! TO.N,Board_0-/AUX12*
X25850000Y-22670000D03*
X24000000Y-22600000D03*
X40900000Y-22100000D03*
G04 #@! TO.N,Board_0-/AUX2 (VDC)*
X37000000Y-17800000D03*
G04 #@! TO.N,Board_0-/AUX3*
X38930000Y-21340000D03*
G04 #@! TO.N,Board_0-/AUX4*
X28400000Y-16700000D03*
X24930000Y-19350000D03*
X38910000Y-17850000D03*
G04 #@! TO.N,Board_0-/CAP+*
X34100000Y-18600000D03*
G04 #@! TO.N,Board_0-/LAMP_FRONT*
X31200000Y-18520000D03*
G04 #@! TO.N,Board_0-/LAMP_REAR*
X31800000Y-18100000D03*
G04 #@! TO.N,Board_0-/MOTOR_A*
X26340000Y-18980000D03*
G04 #@! TO.N,Board_0-/MOTOR_B*
X26340000Y-19610000D03*
G04 #@! TO.N,Board_0-/SPEAKER_N*
X43700000Y-22000000D03*
G04 #@! TO.N,Board_0-/SPEAKER_P*
X43700000Y-16200000D03*
G04 #@! TO.N,Board_0-/TRACK_LEFT*
X26500000Y-21410000D03*
X27100000Y-21400000D03*
X24000000Y-21600000D03*
G04 #@! TO.N,Board_0-/TRACK_RIGHT*
X27000000Y-16600000D03*
X25600000Y-16600000D03*
X24000000Y-16600000D03*
G04 #@! TO.N,Board_0-GND*
X45710000Y-16850000D03*
X24000000Y-15600000D03*
X38730000Y-19120000D03*
X30200000Y-19300000D03*
X31200000Y-20800000D03*
X37490000Y-19110000D03*
X25020000Y-20040000D03*
X45740000Y-21320000D03*
X40370000Y-19120000D03*
X35100000Y-20800000D03*
X35180000Y-16010000D03*
X28400000Y-20800000D03*
X24985000Y-22195000D03*
X35100000Y-19100000D03*
X29400000Y-19300000D03*
G04 #@! TO.N,Board_0-VCC*
X33300000Y-16200000D03*
G04 #@! TO.N,Board_0-VDC*
X36100000Y-15600000D03*
G04 #@! TO.N,Board_1-/AUX1 (VDC)*
X35150000Y-28400000D03*
G04 #@! TO.N,Board_1-/AUX10*
X39900000Y-26800000D03*
G04 #@! TO.N,Board_1-/AUX11*
X41800000Y-32600000D03*
G04 #@! TO.N,Board_1-/AUX12*
X25850000Y-33270000D03*
X24000000Y-33200000D03*
X40900000Y-32700000D03*
G04 #@! TO.N,Board_1-/AUX2 (VDC)*
X37000000Y-28400000D03*
G04 #@! TO.N,Board_1-/AUX3*
X38930000Y-31940000D03*
G04 #@! TO.N,Board_1-/AUX4*
X38910000Y-28450000D03*
X28400000Y-27300000D03*
X24930000Y-29950000D03*
G04 #@! TO.N,Board_1-/CAP+*
X34100000Y-29200000D03*
G04 #@! TO.N,Board_1-/LAMP_FRONT*
X31200000Y-29120000D03*
G04 #@! TO.N,Board_1-/LAMP_REAR*
X31800000Y-28700000D03*
G04 #@! TO.N,Board_1-/MOTOR_A*
X26340000Y-29580000D03*
G04 #@! TO.N,Board_1-/MOTOR_B*
X26340000Y-30210000D03*
G04 #@! TO.N,Board_1-/SPEAKER_N*
X43700000Y-32600000D03*
G04 #@! TO.N,Board_1-/SPEAKER_P*
X43700000Y-26800000D03*
G04 #@! TO.N,Board_1-/TRACK_LEFT*
X27100000Y-32000000D03*
X24000000Y-32200000D03*
X26500000Y-32010000D03*
G04 #@! TO.N,Board_1-/TRACK_RIGHT*
X27000000Y-27200000D03*
X24000000Y-27200000D03*
X25600000Y-27200000D03*
G04 #@! TO.N,Board_1-GND*
X28400000Y-31400000D03*
X24000000Y-26200000D03*
X25020000Y-30640000D03*
X35100000Y-31400000D03*
X35180000Y-26610000D03*
X37490000Y-29710000D03*
X35100000Y-29700000D03*
X29400000Y-29900000D03*
X45710000Y-27450000D03*
X38730000Y-29720000D03*
X45740000Y-31920000D03*
X30200000Y-29900000D03*
X24985000Y-32795000D03*
X40370000Y-29720000D03*
X31200000Y-31400000D03*
G04 #@! TO.N,Board_1-VCC*
X33300000Y-26800000D03*
G04 #@! TO.N,Board_1-VDC*
X36100000Y-26200000D03*
G04 #@! TO.N,Board_2-/AUX1 (VDC)*
X35150000Y-39000000D03*
G04 #@! TO.N,Board_2-/AUX10*
X39900000Y-37400000D03*
G04 #@! TO.N,Board_2-/AUX11*
X41800000Y-43200000D03*
G04 #@! TO.N,Board_2-/AUX12*
X40900000Y-43300000D03*
X25850000Y-43870000D03*
X24000000Y-43800000D03*
G04 #@! TO.N,Board_2-/AUX2 (VDC)*
X37000000Y-39000000D03*
G04 #@! TO.N,Board_2-/AUX3*
X38930000Y-42540000D03*
G04 #@! TO.N,Board_2-/AUX4*
X38910000Y-39050000D03*
X24930000Y-40550000D03*
X28400000Y-37900000D03*
G04 #@! TO.N,Board_2-/CAP+*
X34100000Y-39800000D03*
G04 #@! TO.N,Board_2-/LAMP_FRONT*
X31200000Y-39720000D03*
G04 #@! TO.N,Board_2-/LAMP_REAR*
X31800000Y-39300000D03*
G04 #@! TO.N,Board_2-/MOTOR_A*
X26340000Y-40180000D03*
G04 #@! TO.N,Board_2-/MOTOR_B*
X26340000Y-40810000D03*
G04 #@! TO.N,Board_2-/SPEAKER_N*
X43700000Y-43200000D03*
G04 #@! TO.N,Board_2-/SPEAKER_P*
X43700000Y-37400000D03*
G04 #@! TO.N,Board_2-/TRACK_LEFT*
X24000000Y-42800000D03*
X26500000Y-42610000D03*
X27100000Y-42600000D03*
G04 #@! TO.N,Board_2-/TRACK_RIGHT*
X25600000Y-37800000D03*
X27000000Y-37800000D03*
X24000000Y-37800000D03*
G04 #@! TO.N,Board_2-GND*
X25020000Y-41240000D03*
X31200000Y-42000000D03*
X35180000Y-37210000D03*
X24985000Y-43395000D03*
X37490000Y-40310000D03*
X28400000Y-42000000D03*
X24000000Y-36800000D03*
X38730000Y-40320000D03*
X35100000Y-40300000D03*
X40370000Y-40320000D03*
X29400000Y-40500000D03*
X45710000Y-38050000D03*
X35100000Y-42000000D03*
X30200000Y-40500000D03*
X45740000Y-42520000D03*
G04 #@! TO.N,Board_2-VCC*
X33300000Y-37400000D03*
G04 #@! TO.N,Board_2-VDC*
X36100000Y-36800000D03*
G04 #@! TO.N,Board_3-/AUX1 (VDC)*
X35150000Y-49600000D03*
G04 #@! TO.N,Board_3-/AUX10*
X39900000Y-48000000D03*
G04 #@! TO.N,Board_3-/AUX11*
X41800000Y-53800000D03*
G04 #@! TO.N,Board_3-/AUX12*
X24000000Y-54400000D03*
X40900000Y-53900000D03*
X25850000Y-54470000D03*
G04 #@! TO.N,Board_3-/AUX2 (VDC)*
X37000000Y-49600000D03*
G04 #@! TO.N,Board_3-/AUX3*
X38930000Y-53140000D03*
G04 #@! TO.N,Board_3-/AUX4*
X28400000Y-48500000D03*
X24930000Y-51150000D03*
X38910000Y-49650000D03*
G04 #@! TO.N,Board_3-/CAP+*
X34100000Y-50400000D03*
G04 #@! TO.N,Board_3-/LAMP_FRONT*
X31200000Y-50320000D03*
G04 #@! TO.N,Board_3-/LAMP_REAR*
X31800000Y-49900000D03*
G04 #@! TO.N,Board_3-/MOTOR_A*
X26340000Y-50780000D03*
G04 #@! TO.N,Board_3-/MOTOR_B*
X26340000Y-51410000D03*
G04 #@! TO.N,Board_3-/SPEAKER_N*
X43700000Y-53800000D03*
G04 #@! TO.N,Board_3-/SPEAKER_P*
X43700000Y-48000000D03*
G04 #@! TO.N,Board_3-/TRACK_LEFT*
X27100000Y-53200000D03*
X26500000Y-53210000D03*
X24000000Y-53400000D03*
G04 #@! TO.N,Board_3-/TRACK_RIGHT*
X27000000Y-48400000D03*
X24000000Y-48400000D03*
X25600000Y-48400000D03*
G04 #@! TO.N,Board_3-GND*
X40370000Y-50920000D03*
X30200000Y-51100000D03*
X29400000Y-51100000D03*
X45740000Y-53120000D03*
X37490000Y-50910000D03*
X35180000Y-47810000D03*
X35100000Y-50900000D03*
X25020000Y-51840000D03*
X24985000Y-53995000D03*
X35100000Y-52600000D03*
X38730000Y-50920000D03*
X24000000Y-47400000D03*
X45710000Y-48650000D03*
X28400000Y-52600000D03*
X31200000Y-52600000D03*
G04 #@! TO.N,Board_3-VCC*
X33300000Y-48000000D03*
G04 #@! TO.N,Board_3-VDC*
X36100000Y-47400000D03*
G04 #@! TD*
D14*
G04 #@! TO.N,Board_0-/AUX1 (VDC)*
X35150000Y-17800000D02*
X34890000Y-17540000D01*
X34890000Y-17540000D02*
X25722000Y-17540000D01*
X25722000Y-17540000D02*
X25707000Y-17525000D01*
G04 #@! TO.N,Board_0-/AUX10*
X24315244Y-19275000D02*
X23892000Y-19275000D01*
X38890000Y-16800000D02*
X38255980Y-16800000D01*
X39900000Y-16210000D02*
X39690000Y-16000000D01*
X38255980Y-16800000D02*
X38155980Y-16700000D01*
X25403248Y-16125000D02*
X25095500Y-16432748D01*
X25095500Y-16432748D02*
X25095500Y-18494744D01*
X28760876Y-16125000D02*
X25403248Y-16125000D01*
X39900000Y-16200000D02*
X39900000Y-16210000D01*
X38155980Y-16700000D02*
X29335876Y-16700000D01*
X29335876Y-16700000D02*
X28760876Y-16125000D01*
X25095500Y-18494744D02*
X24315244Y-19275000D01*
X39690000Y-16000000D02*
X38890000Y-16800000D01*
G04 #@! TO.N,Board_0-/AUX11*
X25683248Y-22165000D02*
X25375000Y-22473248D01*
X25375000Y-22476752D02*
X25181752Y-22670000D01*
X40703248Y-21625000D02*
X40163248Y-22165000D01*
X24510000Y-21020000D02*
X24165000Y-20675000D01*
X41800000Y-22000000D02*
X41425000Y-21625000D01*
X25375000Y-22473248D02*
X25375000Y-22476752D01*
X40163248Y-22165000D02*
X25683248Y-22165000D01*
X24510000Y-22391752D02*
X24510000Y-21020000D01*
X24165000Y-20675000D02*
X23892000Y-20675000D01*
X25181752Y-22670000D02*
X24788248Y-22670000D01*
X24788248Y-22670000D02*
X24510000Y-22391752D01*
X41425000Y-21625000D02*
X40703248Y-21625000D01*
G04 #@! TO.N,Board_0-/AUX12*
X40555000Y-22445000D02*
X40900000Y-22100000D01*
X23715000Y-21025000D02*
X23892000Y-21025000D01*
X23475000Y-22075000D02*
X23475000Y-21265000D01*
X25850000Y-22670000D02*
X26075000Y-22445000D01*
X24000000Y-22600000D02*
X23475000Y-22075000D01*
X26075000Y-22445000D02*
X40555000Y-22445000D01*
X23475000Y-21265000D02*
X23715000Y-21025000D01*
G04 #@! TO.N,Board_0-/AUX2 (VDC)*
X25975000Y-17175000D02*
X25707000Y-17175000D01*
X26060000Y-17260000D02*
X25975000Y-17175000D01*
X37000000Y-17800000D02*
X36460000Y-17260000D01*
X36460000Y-17260000D02*
X26060000Y-17260000D01*
G04 #@! TO.N,Board_0-/AUX3*
X25090000Y-21628248D02*
X25090000Y-20784020D01*
X24280980Y-19975000D02*
X23892000Y-19975000D01*
X25090000Y-20784020D02*
X24280980Y-19975000D01*
X38385000Y-21885000D02*
X25346752Y-21885000D01*
X38930000Y-21340000D02*
X38385000Y-21885000D01*
X25346752Y-21885000D02*
X25090000Y-21628248D01*
G04 #@! TO.N,Board_0-/AUX4*
X24655000Y-19625000D02*
X23892000Y-19625000D01*
X28400000Y-16700000D02*
X28680000Y-16980000D01*
X38040000Y-16980000D02*
X38910000Y-17850000D01*
X28680000Y-16980000D02*
X38040000Y-16980000D01*
X24930000Y-19350000D02*
X24655000Y-19625000D01*
G04 #@! TO.N,Board_0-/CAP+*
X31008248Y-19000000D02*
X30513248Y-18505000D01*
X33700000Y-19000000D02*
X31008248Y-19000000D01*
X34100000Y-18600000D02*
X33700000Y-19000000D01*
X26154500Y-18505000D02*
X26084500Y-18575000D01*
X30513248Y-18505000D02*
X26154500Y-18505000D01*
X26084500Y-18575000D02*
X25707000Y-18575000D01*
G04 #@! TO.N,Board_0-/LAMP_FRONT*
X31200000Y-18520000D02*
X30905000Y-18225000D01*
X30905000Y-18225000D02*
X25707000Y-18225000D01*
G04 #@! TO.N,Board_0-/LAMP_REAR*
X31800000Y-18100000D02*
X31575000Y-17875000D01*
X31575000Y-17875000D02*
X25707000Y-17875000D01*
D15*
G04 #@! TO.N,Board_0-/MOTOR_A*
X26340000Y-18980000D02*
X26220000Y-19100000D01*
X26220000Y-19100000D02*
X25707000Y-19100000D01*
X25707000Y-19275000D02*
X25707000Y-19100000D01*
X25707000Y-19100000D02*
X25707000Y-18925000D01*
G04 #@! TO.N,Board_0-/MOTOR_B*
X26150000Y-19800000D02*
X25707000Y-19800000D01*
X25707000Y-19800000D02*
X25707000Y-19975000D01*
X25707000Y-19625000D02*
X25707000Y-19800000D01*
X26340000Y-19610000D02*
X26150000Y-19800000D01*
D14*
G04 #@! TO.N,Board_0-/SPEAKER_N*
X25707000Y-21025000D02*
X26161460Y-21025000D01*
X27540980Y-20065000D02*
X41765000Y-20065000D01*
X26161460Y-21025000D02*
X26346460Y-20840000D01*
X26346460Y-20840000D02*
X26765980Y-20840000D01*
X26765980Y-20840000D02*
X27540980Y-20065000D01*
X41765000Y-20065000D02*
X43700000Y-22000000D01*
G04 #@! TO.N,Board_0-/SPEAKER_P*
X27425000Y-19785000D02*
X41795000Y-19785000D01*
X26650000Y-20560000D02*
X27425000Y-19785000D01*
X25707000Y-20675000D02*
X26115480Y-20675000D01*
X26115480Y-20675000D02*
X26230480Y-20560000D01*
X26230480Y-20560000D02*
X26650000Y-20560000D01*
X41795000Y-19785000D02*
X43700000Y-17880000D01*
X43700000Y-17880000D02*
X43700000Y-16200000D01*
D15*
G04 #@! TO.N,Board_0-/TRACK_LEFT*
X25578000Y-21410000D02*
X25568000Y-21400000D01*
D16*
X26500000Y-21410000D02*
X25578000Y-21410000D01*
X26500000Y-21410000D02*
X27090000Y-21410000D01*
X27090000Y-21410000D02*
X27100000Y-21400000D01*
X24032000Y-21568000D02*
X24000000Y-21600000D01*
X24032000Y-21400000D02*
X24032000Y-21568000D01*
D15*
G04 #@! TO.N,Board_0-/TRACK_RIGHT*
X24032000Y-16632000D02*
X24032000Y-16800000D01*
X25600000Y-16600000D02*
X25568000Y-16632000D01*
X25568000Y-16632000D02*
X25568000Y-16800000D01*
D16*
X25768000Y-16600000D02*
X25568000Y-16800000D01*
D15*
X24000000Y-16600000D02*
X24032000Y-16632000D01*
D16*
X27000000Y-16600000D02*
X25768000Y-16600000D01*
D14*
G04 #@! TO.N,Board_0-GND*
X24810000Y-20900000D02*
X24235000Y-20325000D01*
X27470000Y-19300000D02*
X26530000Y-20240000D01*
X24810000Y-22020000D02*
X24810000Y-20900000D01*
X29400000Y-19300000D02*
X27470000Y-19300000D01*
X25305000Y-20325000D02*
X25020000Y-20040000D01*
X26530000Y-20240000D02*
X26154500Y-20240000D01*
X26154500Y-20240000D02*
X26069500Y-20325000D01*
X26069500Y-20325000D02*
X25707000Y-20325000D01*
X24985000Y-22195000D02*
X24810000Y-22020000D01*
X25707000Y-20325000D02*
X25305000Y-20325000D01*
X30200000Y-19300000D02*
X29400000Y-19300000D01*
X24235000Y-20325000D02*
X23892000Y-20325000D01*
G04 #@! TO.N,Board_0-VCC*
X24815500Y-18378764D02*
X24269264Y-18925000D01*
X28876856Y-15845000D02*
X25287268Y-15845000D01*
X33080000Y-16420000D02*
X29451856Y-16420000D01*
X29451856Y-16420000D02*
X28876856Y-15845000D01*
X33300000Y-16200000D02*
X33080000Y-16420000D01*
X25287268Y-15845000D02*
X24815500Y-16316768D01*
X24269264Y-18925000D02*
X23892000Y-18925000D01*
X24815500Y-16316768D02*
X24815500Y-18378764D01*
G04 #@! TO.N,Board_0-VDC*
X24504500Y-18265500D02*
X24195000Y-18575000D01*
X35990000Y-15490000D02*
X25160000Y-15490000D01*
X24504500Y-16145500D02*
X24504500Y-18265500D01*
X36100000Y-15600000D02*
X35990000Y-15490000D01*
X25160000Y-15490000D02*
X24504500Y-16145500D01*
X24195000Y-18575000D02*
X23892000Y-18575000D01*
G04 #@! TO.N,Board_1-/AUX1 (VDC)*
X34890000Y-28140000D02*
X25722000Y-28140000D01*
X25722000Y-28140000D02*
X25707000Y-28125000D01*
X35150000Y-28400000D02*
X34890000Y-28140000D01*
G04 #@! TO.N,Board_1-/AUX10*
X28760876Y-26725000D02*
X25403248Y-26725000D01*
X38255980Y-27400000D02*
X38155980Y-27300000D01*
X38155980Y-27300000D02*
X29335876Y-27300000D01*
X39690000Y-26600000D02*
X38890000Y-27400000D01*
X29335876Y-27300000D02*
X28760876Y-26725000D01*
X25403248Y-26725000D02*
X25095500Y-27032748D01*
X39900000Y-26800000D02*
X39900000Y-26810000D01*
X25095500Y-29094744D02*
X24315244Y-29875000D01*
X24315244Y-29875000D02*
X23892000Y-29875000D01*
X25095500Y-27032748D02*
X25095500Y-29094744D01*
X38890000Y-27400000D02*
X38255980Y-27400000D01*
X39900000Y-26810000D02*
X39690000Y-26600000D01*
G04 #@! TO.N,Board_1-/AUX11*
X25375000Y-33076752D02*
X25181752Y-33270000D01*
X24165000Y-31275000D02*
X23892000Y-31275000D01*
X24788248Y-33270000D02*
X24510000Y-32991752D01*
X25683248Y-32765000D02*
X25375000Y-33073248D01*
X41425000Y-32225000D02*
X40703248Y-32225000D01*
X40703248Y-32225000D02*
X40163248Y-32765000D01*
X40163248Y-32765000D02*
X25683248Y-32765000D01*
X25375000Y-33073248D02*
X25375000Y-33076752D01*
X24510000Y-32991752D02*
X24510000Y-31620000D01*
X41800000Y-32600000D02*
X41425000Y-32225000D01*
X25181752Y-33270000D02*
X24788248Y-33270000D01*
X24510000Y-31620000D02*
X24165000Y-31275000D01*
G04 #@! TO.N,Board_1-/AUX12*
X40555000Y-33045000D02*
X40900000Y-32700000D01*
X23475000Y-31865000D02*
X23715000Y-31625000D01*
X25850000Y-33270000D02*
X26075000Y-33045000D01*
X24000000Y-33200000D02*
X23475000Y-32675000D01*
X23475000Y-32675000D02*
X23475000Y-31865000D01*
X26075000Y-33045000D02*
X40555000Y-33045000D01*
X23715000Y-31625000D02*
X23892000Y-31625000D01*
G04 #@! TO.N,Board_1-/AUX2 (VDC)*
X37000000Y-28400000D02*
X36460000Y-27860000D01*
X25975000Y-27775000D02*
X25707000Y-27775000D01*
X36460000Y-27860000D02*
X26060000Y-27860000D01*
X26060000Y-27860000D02*
X25975000Y-27775000D01*
G04 #@! TO.N,Board_1-/AUX3*
X25090000Y-31384020D02*
X24280980Y-30575000D01*
X25346752Y-32485000D02*
X25090000Y-32228248D01*
X25090000Y-32228248D02*
X25090000Y-31384020D01*
X24280980Y-30575000D02*
X23892000Y-30575000D01*
X38930000Y-31940000D02*
X38385000Y-32485000D01*
X38385000Y-32485000D02*
X25346752Y-32485000D01*
G04 #@! TO.N,Board_1-/AUX4*
X38040000Y-27580000D02*
X38910000Y-28450000D01*
X28400000Y-27300000D02*
X28680000Y-27580000D01*
X24930000Y-29950000D02*
X24655000Y-30225000D01*
X28680000Y-27580000D02*
X38040000Y-27580000D01*
X24655000Y-30225000D02*
X23892000Y-30225000D01*
G04 #@! TO.N,Board_1-/CAP+*
X34100000Y-29200000D02*
X33700000Y-29600000D01*
X26154500Y-29105000D02*
X26084500Y-29175000D01*
X30513248Y-29105000D02*
X26154500Y-29105000D01*
X33700000Y-29600000D02*
X31008248Y-29600000D01*
X26084500Y-29175000D02*
X25707000Y-29175000D01*
X31008248Y-29600000D02*
X30513248Y-29105000D01*
G04 #@! TO.N,Board_1-/LAMP_FRONT*
X31200000Y-29120000D02*
X30905000Y-28825000D01*
X30905000Y-28825000D02*
X25707000Y-28825000D01*
G04 #@! TO.N,Board_1-/LAMP_REAR*
X31575000Y-28475000D02*
X25707000Y-28475000D01*
X31800000Y-28700000D02*
X31575000Y-28475000D01*
D15*
G04 #@! TO.N,Board_1-/MOTOR_A*
X26220000Y-29700000D02*
X25707000Y-29700000D01*
X25707000Y-29875000D02*
X25707000Y-29700000D01*
X25707000Y-29700000D02*
X25707000Y-29525000D01*
X26340000Y-29580000D02*
X26220000Y-29700000D01*
G04 #@! TO.N,Board_1-/MOTOR_B*
X25707000Y-30225000D02*
X25707000Y-30400000D01*
X26340000Y-30210000D02*
X26150000Y-30400000D01*
X25707000Y-30400000D02*
X25707000Y-30575000D01*
X26150000Y-30400000D02*
X25707000Y-30400000D01*
D14*
G04 #@! TO.N,Board_1-/SPEAKER_N*
X41765000Y-30665000D02*
X43700000Y-32600000D01*
X25707000Y-31625000D02*
X26161460Y-31625000D01*
X26765980Y-31440000D02*
X27540980Y-30665000D01*
X26346460Y-31440000D02*
X26765980Y-31440000D01*
X27540980Y-30665000D02*
X41765000Y-30665000D01*
X26161460Y-31625000D02*
X26346460Y-31440000D01*
G04 #@! TO.N,Board_1-/SPEAKER_P*
X41795000Y-30385000D02*
X43700000Y-28480000D01*
X27425000Y-30385000D02*
X41795000Y-30385000D01*
X43700000Y-28480000D02*
X43700000Y-26800000D01*
X26650000Y-31160000D02*
X27425000Y-30385000D01*
X26115480Y-31275000D02*
X26230480Y-31160000D01*
X26230480Y-31160000D02*
X26650000Y-31160000D01*
X25707000Y-31275000D02*
X26115480Y-31275000D01*
D16*
G04 #@! TO.N,Board_1-/TRACK_LEFT*
X24032000Y-32000000D02*
X24032000Y-32168000D01*
X27090000Y-32010000D02*
X27100000Y-32000000D01*
D15*
X25578000Y-32010000D02*
X25568000Y-32000000D01*
D16*
X26500000Y-32010000D02*
X27090000Y-32010000D01*
X26500000Y-32010000D02*
X25578000Y-32010000D01*
X24032000Y-32168000D02*
X24000000Y-32200000D01*
D15*
G04 #@! TO.N,Board_1-/TRACK_RIGHT*
X24000000Y-27200000D02*
X24032000Y-27232000D01*
X25568000Y-27232000D02*
X25568000Y-27400000D01*
X24032000Y-27232000D02*
X24032000Y-27400000D01*
X25600000Y-27200000D02*
X25568000Y-27232000D01*
D16*
X25768000Y-27200000D02*
X25568000Y-27400000D01*
X27000000Y-27200000D02*
X25768000Y-27200000D01*
D14*
G04 #@! TO.N,Board_1-GND*
X29400000Y-29900000D02*
X27470000Y-29900000D01*
X26530000Y-30840000D02*
X26154500Y-30840000D01*
X26154500Y-30840000D02*
X26069500Y-30925000D01*
X30200000Y-29900000D02*
X29400000Y-29900000D01*
X24810000Y-32620000D02*
X24810000Y-31500000D01*
X25707000Y-30925000D02*
X25305000Y-30925000D01*
X27470000Y-29900000D02*
X26530000Y-30840000D01*
X26069500Y-30925000D02*
X25707000Y-30925000D01*
X24810000Y-31500000D02*
X24235000Y-30925000D01*
X25305000Y-30925000D02*
X25020000Y-30640000D01*
X24985000Y-32795000D02*
X24810000Y-32620000D01*
X24235000Y-30925000D02*
X23892000Y-30925000D01*
G04 #@! TO.N,Board_1-VCC*
X33080000Y-27020000D02*
X29451856Y-27020000D01*
X24815500Y-28978764D02*
X24269264Y-29525000D01*
X24815500Y-26916768D02*
X24815500Y-28978764D01*
X33300000Y-26800000D02*
X33080000Y-27020000D01*
X25287268Y-26445000D02*
X24815500Y-26916768D01*
X28876856Y-26445000D02*
X25287268Y-26445000D01*
X29451856Y-27020000D02*
X28876856Y-26445000D01*
X24269264Y-29525000D02*
X23892000Y-29525000D01*
G04 #@! TO.N,Board_1-VDC*
X25160000Y-26090000D02*
X24504500Y-26745500D01*
X24504500Y-28865500D02*
X24195000Y-29175000D01*
X24195000Y-29175000D02*
X23892000Y-29175000D01*
X24504500Y-26745500D02*
X24504500Y-28865500D01*
X35990000Y-26090000D02*
X25160000Y-26090000D01*
X36100000Y-26200000D02*
X35990000Y-26090000D01*
G04 #@! TO.N,Board_2-/AUX1 (VDC)*
X35150000Y-39000000D02*
X34890000Y-38740000D01*
X34890000Y-38740000D02*
X25722000Y-38740000D01*
X25722000Y-38740000D02*
X25707000Y-38725000D01*
G04 #@! TO.N,Board_2-/AUX10*
X25403248Y-37325000D02*
X25095500Y-37632748D01*
X39900000Y-37410000D02*
X39690000Y-37200000D01*
X25095500Y-39694744D02*
X24315244Y-40475000D01*
X38155980Y-37900000D02*
X29335876Y-37900000D01*
X39690000Y-37200000D02*
X38890000Y-38000000D01*
X28760876Y-37325000D02*
X25403248Y-37325000D01*
X38255980Y-38000000D02*
X38155980Y-37900000D01*
X29335876Y-37900000D02*
X28760876Y-37325000D01*
X25095500Y-37632748D02*
X25095500Y-39694744D01*
X39900000Y-37400000D02*
X39900000Y-37410000D01*
X38890000Y-38000000D02*
X38255980Y-38000000D01*
X24315244Y-40475000D02*
X23892000Y-40475000D01*
G04 #@! TO.N,Board_2-/AUX11*
X24788248Y-43870000D02*
X24510000Y-43591752D01*
X41800000Y-43200000D02*
X41425000Y-42825000D01*
X40163248Y-43365000D02*
X25683248Y-43365000D01*
X41425000Y-42825000D02*
X40703248Y-42825000D01*
X24510000Y-42220000D02*
X24165000Y-41875000D01*
X24165000Y-41875000D02*
X23892000Y-41875000D01*
X25683248Y-43365000D02*
X25375000Y-43673248D01*
X40703248Y-42825000D02*
X40163248Y-43365000D01*
X25181752Y-43870000D02*
X24788248Y-43870000D01*
X24510000Y-43591752D02*
X24510000Y-42220000D01*
X25375000Y-43676752D02*
X25181752Y-43870000D01*
X25375000Y-43673248D02*
X25375000Y-43676752D01*
G04 #@! TO.N,Board_2-/AUX12*
X23475000Y-42465000D02*
X23715000Y-42225000D01*
X25850000Y-43870000D02*
X26075000Y-43645000D01*
X26075000Y-43645000D02*
X40555000Y-43645000D01*
X23715000Y-42225000D02*
X23892000Y-42225000D01*
X40555000Y-43645000D02*
X40900000Y-43300000D01*
X24000000Y-43800000D02*
X23475000Y-43275000D01*
X23475000Y-43275000D02*
X23475000Y-42465000D01*
G04 #@! TO.N,Board_2-/AUX2 (VDC)*
X36460000Y-38460000D02*
X26060000Y-38460000D01*
X37000000Y-39000000D02*
X36460000Y-38460000D01*
X25975000Y-38375000D02*
X25707000Y-38375000D01*
X26060000Y-38460000D02*
X25975000Y-38375000D01*
G04 #@! TO.N,Board_2-/AUX3*
X25090000Y-41984020D02*
X24280980Y-41175000D01*
X38385000Y-43085000D02*
X25346752Y-43085000D01*
X25090000Y-42828248D02*
X25090000Y-41984020D01*
X25346752Y-43085000D02*
X25090000Y-42828248D01*
X24280980Y-41175000D02*
X23892000Y-41175000D01*
X38930000Y-42540000D02*
X38385000Y-43085000D01*
G04 #@! TO.N,Board_2-/AUX4*
X28680000Y-38180000D02*
X38040000Y-38180000D01*
X24930000Y-40550000D02*
X24655000Y-40825000D01*
X38040000Y-38180000D02*
X38910000Y-39050000D01*
X28400000Y-37900000D02*
X28680000Y-38180000D01*
X24655000Y-40825000D02*
X23892000Y-40825000D01*
G04 #@! TO.N,Board_2-/CAP+*
X26154500Y-39705000D02*
X26084500Y-39775000D01*
X33700000Y-40200000D02*
X31008248Y-40200000D01*
X26084500Y-39775000D02*
X25707000Y-39775000D01*
X30513248Y-39705000D02*
X26154500Y-39705000D01*
X31008248Y-40200000D02*
X30513248Y-39705000D01*
X34100000Y-39800000D02*
X33700000Y-40200000D01*
G04 #@! TO.N,Board_2-/LAMP_FRONT*
X31200000Y-39720000D02*
X30905000Y-39425000D01*
X30905000Y-39425000D02*
X25707000Y-39425000D01*
G04 #@! TO.N,Board_2-/LAMP_REAR*
X31800000Y-39300000D02*
X31575000Y-39075000D01*
X31575000Y-39075000D02*
X25707000Y-39075000D01*
D15*
G04 #@! TO.N,Board_2-/MOTOR_A*
X25707000Y-40475000D02*
X25707000Y-40300000D01*
X26220000Y-40300000D02*
X25707000Y-40300000D01*
X25707000Y-40300000D02*
X25707000Y-40125000D01*
X26340000Y-40180000D02*
X26220000Y-40300000D01*
G04 #@! TO.N,Board_2-/MOTOR_B*
X26150000Y-41000000D02*
X25707000Y-41000000D01*
X26340000Y-40810000D02*
X26150000Y-41000000D01*
X25707000Y-40825000D02*
X25707000Y-41000000D01*
X25707000Y-41000000D02*
X25707000Y-41175000D01*
D14*
G04 #@! TO.N,Board_2-/SPEAKER_N*
X26161460Y-42225000D02*
X26346460Y-42040000D01*
X26765980Y-42040000D02*
X27540980Y-41265000D01*
X26346460Y-42040000D02*
X26765980Y-42040000D01*
X27540980Y-41265000D02*
X41765000Y-41265000D01*
X41765000Y-41265000D02*
X43700000Y-43200000D01*
X25707000Y-42225000D02*
X26161460Y-42225000D01*
G04 #@! TO.N,Board_2-/SPEAKER_P*
X43700000Y-39080000D02*
X43700000Y-37400000D01*
X26115480Y-41875000D02*
X26230480Y-41760000D01*
X27425000Y-40985000D02*
X41795000Y-40985000D01*
X26650000Y-41760000D02*
X27425000Y-40985000D01*
X25707000Y-41875000D02*
X26115480Y-41875000D01*
X41795000Y-40985000D02*
X43700000Y-39080000D01*
X26230480Y-41760000D02*
X26650000Y-41760000D01*
D16*
G04 #@! TO.N,Board_2-/TRACK_LEFT*
X27090000Y-42610000D02*
X27100000Y-42600000D01*
X24032000Y-42600000D02*
X24032000Y-42768000D01*
X26500000Y-42610000D02*
X25578000Y-42610000D01*
X24032000Y-42768000D02*
X24000000Y-42800000D01*
X26500000Y-42610000D02*
X27090000Y-42610000D01*
D15*
X25578000Y-42610000D02*
X25568000Y-42600000D01*
D16*
G04 #@! TO.N,Board_2-/TRACK_RIGHT*
X25768000Y-37800000D02*
X25568000Y-38000000D01*
D15*
X25600000Y-37800000D02*
X25568000Y-37832000D01*
D16*
X27000000Y-37800000D02*
X25768000Y-37800000D01*
D15*
X24000000Y-37800000D02*
X24032000Y-37832000D01*
X24032000Y-37832000D02*
X24032000Y-38000000D01*
X25568000Y-37832000D02*
X25568000Y-38000000D01*
D14*
G04 #@! TO.N,Board_2-GND*
X27470000Y-40500000D02*
X26530000Y-41440000D01*
X24810000Y-43220000D02*
X24810000Y-42100000D01*
X26530000Y-41440000D02*
X26154500Y-41440000D01*
X29400000Y-40500000D02*
X27470000Y-40500000D01*
X24985000Y-43395000D02*
X24810000Y-43220000D01*
X26154500Y-41440000D02*
X26069500Y-41525000D01*
X25707000Y-41525000D02*
X25305000Y-41525000D01*
X30200000Y-40500000D02*
X29400000Y-40500000D01*
X25305000Y-41525000D02*
X25020000Y-41240000D01*
X24235000Y-41525000D02*
X23892000Y-41525000D01*
X26069500Y-41525000D02*
X25707000Y-41525000D01*
X24810000Y-42100000D02*
X24235000Y-41525000D01*
G04 #@! TO.N,Board_2-VCC*
X33300000Y-37400000D02*
X33080000Y-37620000D01*
X24815500Y-39578764D02*
X24269264Y-40125000D01*
X28876856Y-37045000D02*
X25287268Y-37045000D01*
X33080000Y-37620000D02*
X29451856Y-37620000D01*
X24815500Y-37516768D02*
X24815500Y-39578764D01*
X24269264Y-40125000D02*
X23892000Y-40125000D01*
X29451856Y-37620000D02*
X28876856Y-37045000D01*
X25287268Y-37045000D02*
X24815500Y-37516768D01*
G04 #@! TO.N,Board_2-VDC*
X24504500Y-39465500D02*
X24195000Y-39775000D01*
X36100000Y-36800000D02*
X35990000Y-36690000D01*
X35990000Y-36690000D02*
X25160000Y-36690000D01*
X24504500Y-37345500D02*
X24504500Y-39465500D01*
X25160000Y-36690000D02*
X24504500Y-37345500D01*
X24195000Y-39775000D02*
X23892000Y-39775000D01*
G04 #@! TO.N,Board_3-/AUX1 (VDC)*
X35150000Y-49600000D02*
X34890000Y-49340000D01*
X25722000Y-49340000D02*
X25707000Y-49325000D01*
X34890000Y-49340000D02*
X25722000Y-49340000D01*
G04 #@! TO.N,Board_3-/AUX10*
X25095500Y-50294744D02*
X24315244Y-51075000D01*
X39690000Y-47800000D02*
X38890000Y-48600000D01*
X25095500Y-48232748D02*
X25095500Y-50294744D01*
X28760876Y-47925000D02*
X25403248Y-47925000D01*
X24315244Y-51075000D02*
X23892000Y-51075000D01*
X29335876Y-48500000D02*
X28760876Y-47925000D01*
X38155980Y-48500000D02*
X29335876Y-48500000D01*
X38255980Y-48600000D02*
X38155980Y-48500000D01*
X39900000Y-48000000D02*
X39900000Y-48010000D01*
X39900000Y-48010000D02*
X39690000Y-47800000D01*
X38890000Y-48600000D02*
X38255980Y-48600000D01*
X25403248Y-47925000D02*
X25095500Y-48232748D01*
G04 #@! TO.N,Board_3-/AUX11*
X25683248Y-53965000D02*
X25375000Y-54273248D01*
X25181752Y-54470000D02*
X24788248Y-54470000D01*
X25375000Y-54276752D02*
X25181752Y-54470000D01*
X24788248Y-54470000D02*
X24510000Y-54191752D01*
X40163248Y-53965000D02*
X25683248Y-53965000D01*
X40703248Y-53425000D02*
X40163248Y-53965000D01*
X41800000Y-53800000D02*
X41425000Y-53425000D01*
X25375000Y-54273248D02*
X25375000Y-54276752D01*
X24165000Y-52475000D02*
X23892000Y-52475000D01*
X24510000Y-52820000D02*
X24165000Y-52475000D01*
X24510000Y-54191752D02*
X24510000Y-52820000D01*
X41425000Y-53425000D02*
X40703248Y-53425000D01*
G04 #@! TO.N,Board_3-/AUX12*
X40555000Y-54245000D02*
X40900000Y-53900000D01*
X23475000Y-53875000D02*
X23475000Y-53065000D01*
X24000000Y-54400000D02*
X23475000Y-53875000D01*
X26075000Y-54245000D02*
X40555000Y-54245000D01*
X23715000Y-52825000D02*
X23892000Y-52825000D01*
X23475000Y-53065000D02*
X23715000Y-52825000D01*
X25850000Y-54470000D02*
X26075000Y-54245000D01*
G04 #@! TO.N,Board_3-/AUX2 (VDC)*
X25975000Y-48975000D02*
X25707000Y-48975000D01*
X37000000Y-49600000D02*
X36460000Y-49060000D01*
X26060000Y-49060000D02*
X25975000Y-48975000D01*
X36460000Y-49060000D02*
X26060000Y-49060000D01*
G04 #@! TO.N,Board_3-/AUX3*
X38385000Y-53685000D02*
X25346752Y-53685000D01*
X24280980Y-51775000D02*
X23892000Y-51775000D01*
X38930000Y-53140000D02*
X38385000Y-53685000D01*
X25346752Y-53685000D02*
X25090000Y-53428248D01*
X25090000Y-52584020D02*
X24280980Y-51775000D01*
X25090000Y-53428248D02*
X25090000Y-52584020D01*
G04 #@! TO.N,Board_3-/AUX4*
X24655000Y-51425000D02*
X23892000Y-51425000D01*
X28400000Y-48500000D02*
X28680000Y-48780000D01*
X38040000Y-48780000D02*
X38910000Y-49650000D01*
X24930000Y-51150000D02*
X24655000Y-51425000D01*
X28680000Y-48780000D02*
X38040000Y-48780000D01*
G04 #@! TO.N,Board_3-/CAP+*
X33700000Y-50800000D02*
X31008248Y-50800000D01*
X26084500Y-50375000D02*
X25707000Y-50375000D01*
X26154500Y-50305000D02*
X26084500Y-50375000D01*
X30513248Y-50305000D02*
X26154500Y-50305000D01*
X34100000Y-50400000D02*
X33700000Y-50800000D01*
X31008248Y-50800000D02*
X30513248Y-50305000D01*
G04 #@! TO.N,Board_3-/LAMP_FRONT*
X31200000Y-50320000D02*
X30905000Y-50025000D01*
X30905000Y-50025000D02*
X25707000Y-50025000D01*
G04 #@! TO.N,Board_3-/LAMP_REAR*
X31800000Y-49900000D02*
X31575000Y-49675000D01*
X31575000Y-49675000D02*
X25707000Y-49675000D01*
D15*
G04 #@! TO.N,Board_3-/MOTOR_A*
X26340000Y-50780000D02*
X26220000Y-50900000D01*
X26220000Y-50900000D02*
X25707000Y-50900000D01*
X25707000Y-50900000D02*
X25707000Y-50725000D01*
X25707000Y-51075000D02*
X25707000Y-50900000D01*
G04 #@! TO.N,Board_3-/MOTOR_B*
X26150000Y-51600000D02*
X25707000Y-51600000D01*
X25707000Y-51600000D02*
X25707000Y-51775000D01*
X25707000Y-51425000D02*
X25707000Y-51600000D01*
X26340000Y-51410000D02*
X26150000Y-51600000D01*
D14*
G04 #@! TO.N,Board_3-/SPEAKER_N*
X41765000Y-51865000D02*
X43700000Y-53800000D01*
X25707000Y-52825000D02*
X26161460Y-52825000D01*
X27540980Y-51865000D02*
X41765000Y-51865000D01*
X26765980Y-52640000D02*
X27540980Y-51865000D01*
X26161460Y-52825000D02*
X26346460Y-52640000D01*
X26346460Y-52640000D02*
X26765980Y-52640000D01*
G04 #@! TO.N,Board_3-/SPEAKER_P*
X43700000Y-49680000D02*
X43700000Y-48000000D01*
X26230480Y-52360000D02*
X26650000Y-52360000D01*
X25707000Y-52475000D02*
X26115480Y-52475000D01*
X26115480Y-52475000D02*
X26230480Y-52360000D01*
X26650000Y-52360000D02*
X27425000Y-51585000D01*
X41795000Y-51585000D02*
X43700000Y-49680000D01*
X27425000Y-51585000D02*
X41795000Y-51585000D01*
D16*
G04 #@! TO.N,Board_3-/TRACK_LEFT*
X27090000Y-53210000D02*
X27100000Y-53200000D01*
D15*
X25578000Y-53210000D02*
X25568000Y-53200000D01*
D16*
X24032000Y-53368000D02*
X24000000Y-53400000D01*
X26500000Y-53210000D02*
X27090000Y-53210000D01*
X26500000Y-53210000D02*
X25578000Y-53210000D01*
X24032000Y-53200000D02*
X24032000Y-53368000D01*
G04 #@! TO.N,Board_3-/TRACK_RIGHT*
X27000000Y-48400000D02*
X25768000Y-48400000D01*
D15*
X24032000Y-48432000D02*
X24032000Y-48600000D01*
D16*
X25768000Y-48400000D02*
X25568000Y-48600000D01*
D15*
X24000000Y-48400000D02*
X24032000Y-48432000D01*
X25600000Y-48400000D02*
X25568000Y-48432000D01*
X25568000Y-48432000D02*
X25568000Y-48600000D01*
D14*
G04 #@! TO.N,Board_3-GND*
X25305000Y-52125000D02*
X25020000Y-51840000D01*
X26154500Y-52040000D02*
X26069500Y-52125000D01*
X25707000Y-52125000D02*
X25305000Y-52125000D01*
X30200000Y-51100000D02*
X29400000Y-51100000D01*
X27470000Y-51100000D02*
X26530000Y-52040000D01*
X24985000Y-53995000D02*
X24810000Y-53820000D01*
X26530000Y-52040000D02*
X26154500Y-52040000D01*
X24810000Y-53820000D02*
X24810000Y-52700000D01*
X24235000Y-52125000D02*
X23892000Y-52125000D01*
X24810000Y-52700000D02*
X24235000Y-52125000D01*
X29400000Y-51100000D02*
X27470000Y-51100000D01*
X26069500Y-52125000D02*
X25707000Y-52125000D01*
G04 #@! TO.N,Board_3-VCC*
X28876856Y-47645000D02*
X25287268Y-47645000D01*
X24815500Y-50178764D02*
X24269264Y-50725000D01*
X33300000Y-48000000D02*
X33080000Y-48220000D01*
X25287268Y-47645000D02*
X24815500Y-48116768D01*
X33080000Y-48220000D02*
X29451856Y-48220000D01*
X24815500Y-48116768D02*
X24815500Y-50178764D01*
X29451856Y-48220000D02*
X28876856Y-47645000D01*
X24269264Y-50725000D02*
X23892000Y-50725000D01*
G04 #@! TO.N,Board_3-VDC*
X36100000Y-47400000D02*
X35990000Y-47290000D01*
X25160000Y-47290000D02*
X24504500Y-47945500D01*
X24504500Y-47945500D02*
X24504500Y-50065500D01*
X35990000Y-47290000D02*
X25160000Y-47290000D01*
X24195000Y-50375000D02*
X23892000Y-50375000D01*
X24504500Y-50065500D02*
X24195000Y-50375000D01*
G04 #@! TD*
G04 #@! TA.AperFunction,Conductor*
G04 #@! TO.N,Board_1-GND*
G36*
X46585148Y-25814852D02*
G01*
X46599500Y-25849500D01*
X46599500Y-33550500D01*
X46585148Y-33585148D01*
X46550500Y-33599500D01*
X26205189Y-33599500D01*
X26170541Y-33585148D01*
X26156189Y-33550500D01*
X26169234Y-33519006D01*
X26168524Y-33518462D01*
X26170475Y-33515917D01*
X26170480Y-33515913D01*
X26223207Y-33424587D01*
X26250499Y-33322730D01*
X26250500Y-33322730D01*
X26250500Y-33299500D01*
X26264852Y-33264852D01*
X26299500Y-33250500D01*
X40595875Y-33250500D01*
X40595877Y-33250500D01*
X40627162Y-33237541D01*
X40671406Y-33219215D01*
X40729215Y-33161406D01*
X40782195Y-33108424D01*
X40816840Y-33094074D01*
X40829522Y-33095743D01*
X40839733Y-33098479D01*
X40847272Y-33100500D01*
X40847273Y-33100500D01*
X40952730Y-33100500D01*
X40952730Y-33100499D01*
X41054587Y-33073207D01*
X41145913Y-33020480D01*
X41220480Y-32945913D01*
X41273207Y-32854587D01*
X41300499Y-32752730D01*
X41300500Y-32752730D01*
X41300500Y-32647270D01*
X41300499Y-32647269D01*
X41277883Y-32562864D01*
X41273207Y-32545413D01*
X41249296Y-32503999D01*
X41247627Y-32491318D01*
X41242732Y-32479500D01*
X41245266Y-32473382D01*
X41244402Y-32466818D01*
X41252188Y-32456670D01*
X41257084Y-32444852D01*
X41263201Y-32442318D01*
X41267232Y-32437065D01*
X41291732Y-32430500D01*
X41319583Y-32430500D01*
X41354231Y-32444852D01*
X41391572Y-32482193D01*
X41405924Y-32516841D01*
X41404255Y-32529520D01*
X41399500Y-32547270D01*
X41399500Y-32652730D01*
X41426792Y-32754585D01*
X41426793Y-32754589D01*
X41468481Y-32826793D01*
X41479520Y-32845913D01*
X41554087Y-32920480D01*
X41584618Y-32938107D01*
X41645410Y-32973206D01*
X41645412Y-32973206D01*
X41645413Y-32973207D01*
X41651243Y-32974769D01*
X41747269Y-33000499D01*
X41747270Y-33000500D01*
X41747273Y-33000500D01*
X41852730Y-33000500D01*
X41852730Y-33000499D01*
X41954587Y-32973207D01*
X42045913Y-32920480D01*
X42120480Y-32845913D01*
X42166142Y-32766823D01*
X42173206Y-32754589D01*
X42173206Y-32754588D01*
X42173207Y-32754587D01*
X42200499Y-32652730D01*
X42200500Y-32652730D01*
X42200500Y-32547270D01*
X42200499Y-32547269D01*
X42175531Y-32454087D01*
X42173207Y-32445413D01*
X42173206Y-32445412D01*
X42173206Y-32445410D01*
X42120479Y-32354086D01*
X42045913Y-32279520D01*
X41954589Y-32226793D01*
X41954585Y-32226792D01*
X41852730Y-32199500D01*
X41852727Y-32199500D01*
X41747273Y-32199500D01*
X41747271Y-32199500D01*
X41729520Y-32204255D01*
X41692338Y-32199358D01*
X41682193Y-32191572D01*
X41541406Y-32050785D01*
X41533857Y-32047658D01*
X41497162Y-32032458D01*
X41497161Y-32032457D01*
X41465877Y-32019500D01*
X41465876Y-32019500D01*
X40744125Y-32019500D01*
X40662371Y-32019500D01*
X40631086Y-32032457D01*
X40631086Y-32032458D01*
X40608964Y-32041621D01*
X40586841Y-32050785D01*
X40586841Y-32050786D01*
X40092479Y-32545148D01*
X40057831Y-32559500D01*
X38719417Y-32559500D01*
X38684769Y-32545148D01*
X38670417Y-32510500D01*
X38684767Y-32475853D01*
X38812195Y-32348424D01*
X38846841Y-32334074D01*
X38859522Y-32335743D01*
X38869733Y-32338479D01*
X38877272Y-32340500D01*
X38877273Y-32340500D01*
X38982730Y-32340500D01*
X38982730Y-32340499D01*
X39084587Y-32313207D01*
X39175913Y-32260480D01*
X39250480Y-32185913D01*
X39303207Y-32094587D01*
X39330499Y-31992730D01*
X39330500Y-31992730D01*
X39330500Y-31887270D01*
X39330499Y-31887269D01*
X39303207Y-31785414D01*
X39303206Y-31785410D01*
X39250479Y-31694086D01*
X39175913Y-31619520D01*
X39084589Y-31566793D01*
X39084585Y-31566792D01*
X38982730Y-31539500D01*
X38982727Y-31539500D01*
X38877273Y-31539500D01*
X38877270Y-31539500D01*
X38775414Y-31566792D01*
X38775410Y-31566793D01*
X38684086Y-31619520D01*
X38684086Y-31619521D01*
X38609521Y-31694086D01*
X38609520Y-31694086D01*
X38556793Y-31785410D01*
X38556792Y-31785414D01*
X38529500Y-31887269D01*
X38529500Y-31992727D01*
X38534255Y-32010476D01*
X38529358Y-32047658D01*
X38521572Y-32057805D01*
X38314231Y-32265148D01*
X38279583Y-32279500D01*
X27485959Y-32279500D01*
X27451311Y-32265148D01*
X27436959Y-32230500D01*
X27443524Y-32206000D01*
X27473206Y-32154589D01*
X27473206Y-32154588D01*
X27473207Y-32154587D01*
X27500499Y-32052730D01*
X27500500Y-32052730D01*
X27500500Y-31947270D01*
X27500499Y-31947269D01*
X27473207Y-31845414D01*
X27473206Y-31845410D01*
X27420479Y-31754086D01*
X27345913Y-31679520D01*
X27254589Y-31626793D01*
X27254585Y-31626792D01*
X27152730Y-31599500D01*
X27152727Y-31599500D01*
X27047273Y-31599500D01*
X27047270Y-31599500D01*
X27018771Y-31607136D01*
X26981589Y-31602241D01*
X26958759Y-31572488D01*
X26963654Y-31535306D01*
X26971437Y-31525162D01*
X27611748Y-30884852D01*
X27646396Y-30870500D01*
X41659583Y-30870500D01*
X41694231Y-30884852D01*
X43291572Y-32482193D01*
X43305924Y-32516841D01*
X43304255Y-32529520D01*
X43299500Y-32547270D01*
X43299500Y-32652730D01*
X43326792Y-32754585D01*
X43326793Y-32754589D01*
X43368481Y-32826793D01*
X43379520Y-32845913D01*
X43454087Y-32920480D01*
X43484618Y-32938107D01*
X43545410Y-32973206D01*
X43545412Y-32973206D01*
X43545413Y-32973207D01*
X43551243Y-32974769D01*
X43647269Y-33000499D01*
X43647270Y-33000500D01*
X43647273Y-33000500D01*
X43752730Y-33000500D01*
X43752730Y-33000499D01*
X43854587Y-32973207D01*
X43945913Y-32920480D01*
X44020480Y-32845913D01*
X44066142Y-32766823D01*
X44073206Y-32754589D01*
X44073206Y-32754588D01*
X44073207Y-32754587D01*
X44100499Y-32652730D01*
X44100500Y-32652730D01*
X44100500Y-32547270D01*
X44100499Y-32547269D01*
X44075531Y-32454087D01*
X44073207Y-32445413D01*
X44073206Y-32445412D01*
X44073206Y-32445410D01*
X44020479Y-32354086D01*
X43945913Y-32279520D01*
X43854589Y-32226793D01*
X43854585Y-32226792D01*
X43752730Y-32199500D01*
X43752727Y-32199500D01*
X43647273Y-32199500D01*
X43647271Y-32199500D01*
X43629520Y-32204255D01*
X43592338Y-32199358D01*
X43582193Y-32191572D01*
X41965269Y-30574648D01*
X41950917Y-30540000D01*
X41965269Y-30505352D01*
X43874214Y-28596407D01*
X43874215Y-28596406D01*
X43905500Y-28520876D01*
X43905500Y-27172102D01*
X43919852Y-27137454D01*
X43930002Y-27129666D01*
X43945913Y-27120480D01*
X44020480Y-27045913D01*
X44073207Y-26954587D01*
X44100499Y-26852730D01*
X44100500Y-26852730D01*
X44100500Y-26747270D01*
X44100499Y-26747269D01*
X44073207Y-26645414D01*
X44073206Y-26645410D01*
X44020479Y-26554086D01*
X43945913Y-26479520D01*
X43854589Y-26426793D01*
X43854585Y-26426792D01*
X43752730Y-26399500D01*
X43752727Y-26399500D01*
X43647273Y-26399500D01*
X43647270Y-26399500D01*
X43545414Y-26426792D01*
X43545410Y-26426793D01*
X43454086Y-26479520D01*
X43454086Y-26479521D01*
X43379521Y-26554086D01*
X43379520Y-26554086D01*
X43326793Y-26645410D01*
X43326792Y-26645414D01*
X43299500Y-26747269D01*
X43299500Y-26852730D01*
X43326792Y-26954585D01*
X43326793Y-26954589D01*
X43365136Y-27021000D01*
X43379520Y-27045913D01*
X43454087Y-27120480D01*
X43454090Y-27120481D01*
X43454093Y-27120484D01*
X43469998Y-27129666D01*
X43492830Y-27159418D01*
X43494500Y-27172102D01*
X43494500Y-28374583D01*
X43480148Y-28409231D01*
X41724231Y-30165148D01*
X41689583Y-30179500D01*
X27384121Y-30179500D01*
X27372960Y-30184124D01*
X27308593Y-30210785D01*
X27289191Y-30230188D01*
X27250785Y-30268594D01*
X26579231Y-30940148D01*
X26544583Y-30954500D01*
X26189603Y-30954500D01*
X26167481Y-30963662D01*
X26167481Y-30963663D01*
X26140777Y-30974724D01*
X26114073Y-30985785D01*
X26085169Y-31014689D01*
X26056265Y-31043594D01*
X26056264Y-31043595D01*
X26052278Y-31047580D01*
X26046846Y-31053012D01*
X26024084Y-31062437D01*
X26012198Y-31067360D01*
X26012196Y-31067359D01*
X26012196Y-31067360D01*
X26012195Y-31067359D01*
X26002643Y-31066419D01*
X25982621Y-31062437D01*
X25967855Y-31059500D01*
X25967853Y-31059500D01*
X25452149Y-31059500D01*
X25452148Y-31059500D01*
X25452146Y-31059501D01*
X25437383Y-31062437D01*
X25414080Y-31067071D01*
X25414076Y-31067073D01*
X25370912Y-31095914D01*
X25342072Y-31139077D01*
X25342071Y-31139080D01*
X25342071Y-31139081D01*
X25334500Y-31177145D01*
X25334500Y-31177147D01*
X25334500Y-31177148D01*
X25334500Y-31219601D01*
X25320149Y-31254250D01*
X25285501Y-31268602D01*
X25285500Y-31268601D01*
X25285500Y-31268602D01*
X25250852Y-31254251D01*
X25250851Y-31254250D01*
X25206406Y-31209805D01*
X24510749Y-30514148D01*
X24496397Y-30479500D01*
X24510749Y-30444852D01*
X24545397Y-30430500D01*
X24695875Y-30430500D01*
X24695877Y-30430500D01*
X24727162Y-30417541D01*
X24771406Y-30399215D01*
X24812194Y-30358426D01*
X24846841Y-30344074D01*
X24859521Y-30345743D01*
X24871981Y-30349082D01*
X24877272Y-30350500D01*
X24877273Y-30350500D01*
X24982730Y-30350500D01*
X24982730Y-30350499D01*
X25084587Y-30323207D01*
X25175913Y-30270480D01*
X25250480Y-30195913D01*
X25250481Y-30195910D01*
X25250852Y-30195540D01*
X25285500Y-30181188D01*
X25320148Y-30195540D01*
X25334500Y-30230188D01*
X25334500Y-30332850D01*
X25334501Y-30332854D01*
X25342071Y-30370919D01*
X25342072Y-30370920D01*
X25346655Y-30377781D01*
X25353968Y-30414564D01*
X25346655Y-30432219D01*
X25342071Y-30439079D01*
X25334500Y-30477147D01*
X25334500Y-30682850D01*
X25334501Y-30682854D01*
X25342071Y-30720919D01*
X25342073Y-30720923D01*
X25370914Y-30764087D01*
X25414077Y-30792927D01*
X25414079Y-30792927D01*
X25414081Y-30792929D01*
X25452145Y-30800500D01*
X25639330Y-30800499D01*
X25658080Y-30804228D01*
X25661151Y-30805500D01*
X25661153Y-30805500D01*
X25752848Y-30805500D01*
X25752849Y-30805500D01*
X25755915Y-30804229D01*
X25774669Y-30800499D01*
X25967851Y-30800499D01*
X25967854Y-30800499D01*
X26005919Y-30792929D01*
X26049086Y-30764086D01*
X26077929Y-30720919D01*
X26085500Y-30682855D01*
X26085500Y-30679501D01*
X26099852Y-30644853D01*
X26134500Y-30630501D01*
X26195849Y-30630501D01*
X26195850Y-30630501D01*
X26245476Y-30609944D01*
X26245604Y-30609890D01*
X26277148Y-30607787D01*
X26279378Y-30608384D01*
X26287271Y-30610500D01*
X26287273Y-30610500D01*
X26392730Y-30610500D01*
X26392730Y-30610499D01*
X26494587Y-30583207D01*
X26585913Y-30530480D01*
X26660480Y-30455913D01*
X26713207Y-30364587D01*
X26740499Y-30262730D01*
X26740500Y-30262730D01*
X26740500Y-30157270D01*
X26740499Y-30157269D01*
X26722228Y-30089079D01*
X26713207Y-30055413D01*
X26713206Y-30055412D01*
X26713206Y-30055410D01*
X26660479Y-29964086D01*
X26626041Y-29929648D01*
X26611689Y-29895000D01*
X26626041Y-29860352D01*
X26660479Y-29825914D01*
X26660480Y-29825913D01*
X26713207Y-29734587D01*
X26740499Y-29632730D01*
X26740500Y-29632730D01*
X26740500Y-29527270D01*
X26740499Y-29527269D01*
X26718700Y-29445913D01*
X26713207Y-29425413D01*
X26689296Y-29383999D01*
X26684402Y-29346818D01*
X26707232Y-29317065D01*
X26731732Y-29310500D01*
X30407831Y-29310500D01*
X30442479Y-29324852D01*
X30834033Y-29716406D01*
X30891842Y-29774215D01*
X30936086Y-29792541D01*
X30967371Y-29805500D01*
X30967372Y-29805500D01*
X30967373Y-29805500D01*
X33740875Y-29805500D01*
X33740877Y-29805500D01*
X33772162Y-29792541D01*
X33816406Y-29774215D01*
X33874215Y-29716406D01*
X33982195Y-29608424D01*
X34016841Y-29594074D01*
X34029522Y-29595743D01*
X34039733Y-29598479D01*
X34047272Y-29600500D01*
X34047273Y-29600500D01*
X34152730Y-29600500D01*
X34152730Y-29600499D01*
X34254587Y-29573207D01*
X34345913Y-29520480D01*
X34420480Y-29445913D01*
X34473207Y-29354587D01*
X34500499Y-29252730D01*
X34500500Y-29252730D01*
X34500500Y-29147270D01*
X34500499Y-29147269D01*
X34473207Y-29045414D01*
X34473206Y-29045410D01*
X34434160Y-28977781D01*
X34420480Y-28954087D01*
X34345913Y-28879520D01*
X34254589Y-28826793D01*
X34254585Y-28826792D01*
X34152730Y-28799500D01*
X34152727Y-28799500D01*
X34047273Y-28799500D01*
X34047270Y-28799500D01*
X33945414Y-28826792D01*
X33945410Y-28826793D01*
X33854086Y-28879520D01*
X33854086Y-28879521D01*
X33779521Y-28954086D01*
X33779520Y-28954086D01*
X33726793Y-29045410D01*
X33726792Y-29045414D01*
X33699500Y-29147269D01*
X33699500Y-29252727D01*
X33704255Y-29270476D01*
X33703390Y-29277039D01*
X33705924Y-29283156D01*
X33701028Y-29294976D01*
X33699358Y-29307658D01*
X33691572Y-29317805D01*
X33629230Y-29380148D01*
X33594584Y-29394500D01*
X31588845Y-29394500D01*
X31554197Y-29380148D01*
X31539845Y-29345500D01*
X31546409Y-29321002D01*
X31573207Y-29274587D01*
X31600499Y-29172730D01*
X31600500Y-29172730D01*
X31600500Y-29125030D01*
X31614852Y-29090382D01*
X31649500Y-29076030D01*
X31662179Y-29077699D01*
X31701382Y-29088203D01*
X31747271Y-29100500D01*
X31747273Y-29100500D01*
X31852730Y-29100500D01*
X31852730Y-29100499D01*
X31954587Y-29073207D01*
X32045913Y-29020480D01*
X32120480Y-28945913D01*
X32173207Y-28854587D01*
X32200499Y-28752730D01*
X32200500Y-28752730D01*
X32200500Y-28647270D01*
X32200499Y-28647269D01*
X32183238Y-28582850D01*
X32173207Y-28545413D01*
X32173206Y-28545412D01*
X32173206Y-28545410D01*
X32120479Y-28454086D01*
X32095541Y-28429148D01*
X32081189Y-28394500D01*
X32095541Y-28359852D01*
X32130189Y-28345500D01*
X34700500Y-28345500D01*
X34735148Y-28359852D01*
X34749500Y-28394500D01*
X34749500Y-28452730D01*
X34776792Y-28554585D01*
X34776793Y-28554589D01*
X34829520Y-28645913D01*
X34904087Y-28720480D01*
X34915633Y-28727146D01*
X34995410Y-28773206D01*
X34995412Y-28773206D01*
X34995413Y-28773207D01*
X35022180Y-28780379D01*
X35097269Y-28800499D01*
X35097270Y-28800500D01*
X35097273Y-28800500D01*
X35202730Y-28800500D01*
X35202730Y-28800499D01*
X35304587Y-28773207D01*
X35395913Y-28720480D01*
X35470480Y-28645913D01*
X35523207Y-28554587D01*
X35550499Y-28452730D01*
X35550500Y-28452730D01*
X35550500Y-28347270D01*
X35550499Y-28347269D01*
X35538422Y-28302198D01*
X35523207Y-28245413D01*
X35523206Y-28245412D01*
X35523206Y-28245410D01*
X35470479Y-28154086D01*
X35465541Y-28149148D01*
X35451189Y-28114500D01*
X35465541Y-28079852D01*
X35500189Y-28065500D01*
X36354583Y-28065500D01*
X36389231Y-28079852D01*
X36591572Y-28282193D01*
X36605924Y-28316841D01*
X36604255Y-28329520D01*
X36599500Y-28347270D01*
X36599500Y-28452730D01*
X36626792Y-28554585D01*
X36626793Y-28554589D01*
X36679520Y-28645913D01*
X36754087Y-28720480D01*
X36765633Y-28727146D01*
X36845410Y-28773206D01*
X36845412Y-28773206D01*
X36845413Y-28773207D01*
X36872180Y-28780379D01*
X36947269Y-28800499D01*
X36947270Y-28800500D01*
X36947273Y-28800500D01*
X37052730Y-28800500D01*
X37052730Y-28800499D01*
X37154587Y-28773207D01*
X37245913Y-28720480D01*
X37320480Y-28645913D01*
X37373207Y-28554587D01*
X37400499Y-28452730D01*
X37400500Y-28452730D01*
X37400500Y-28347270D01*
X37400499Y-28347269D01*
X37388422Y-28302198D01*
X37373207Y-28245413D01*
X37373206Y-28245412D01*
X37373206Y-28245410D01*
X37320479Y-28154086D01*
X37245913Y-28079520D01*
X37154589Y-28026793D01*
X37154585Y-28026792D01*
X37052730Y-27999500D01*
X37052727Y-27999500D01*
X36947273Y-27999500D01*
X36947271Y-27999500D01*
X36929520Y-28004255D01*
X36892338Y-27999358D01*
X36882193Y-27991572D01*
X36759769Y-27869148D01*
X36745417Y-27834500D01*
X36759769Y-27799852D01*
X36794417Y-27785500D01*
X37934583Y-27785500D01*
X37969231Y-27799852D01*
X38501572Y-28332193D01*
X38515924Y-28366841D01*
X38514255Y-28379520D01*
X38509500Y-28397270D01*
X38509500Y-28502730D01*
X38536792Y-28604585D01*
X38536793Y-28604589D01*
X38589520Y-28695913D01*
X38664087Y-28770480D01*
X38681233Y-28780379D01*
X38755410Y-28823206D01*
X38755412Y-28823206D01*
X38755413Y-28823207D01*
X38835747Y-28844732D01*
X38857269Y-28850499D01*
X38857270Y-28850500D01*
X38857273Y-28850500D01*
X38962730Y-28850500D01*
X38962730Y-28850499D01*
X39064587Y-28823207D01*
X39155913Y-28770480D01*
X39230480Y-28695913D01*
X39283207Y-28604587D01*
X39310499Y-28502730D01*
X39310500Y-28502730D01*
X39310500Y-28397270D01*
X39310499Y-28397269D01*
X39292346Y-28329520D01*
X39283207Y-28295413D01*
X39283206Y-28295412D01*
X39283206Y-28295410D01*
X39230479Y-28204086D01*
X39155913Y-28129520D01*
X39064589Y-28076793D01*
X39064585Y-28076792D01*
X38962730Y-28049500D01*
X38962727Y-28049500D01*
X38857273Y-28049500D01*
X38857271Y-28049500D01*
X38839520Y-28054255D01*
X38802338Y-28049358D01*
X38792193Y-28041572D01*
X38439769Y-27689148D01*
X38425417Y-27654500D01*
X38439769Y-27619852D01*
X38474417Y-27605500D01*
X38930875Y-27605500D01*
X38930877Y-27605500D01*
X38981645Y-27584471D01*
X39006406Y-27574215D01*
X39064215Y-27516406D01*
X39522466Y-27058153D01*
X39557113Y-27043802D01*
X39591761Y-27058154D01*
X39654087Y-27120480D01*
X39669998Y-27129666D01*
X39745410Y-27173206D01*
X39745412Y-27173206D01*
X39745413Y-27173207D01*
X39824880Y-27194500D01*
X39847269Y-27200499D01*
X39847270Y-27200500D01*
X39847273Y-27200500D01*
X39952730Y-27200500D01*
X39952730Y-27200499D01*
X40054587Y-27173207D01*
X40145913Y-27120480D01*
X40220480Y-27045913D01*
X40273207Y-26954587D01*
X40300499Y-26852730D01*
X40300500Y-26852730D01*
X40300500Y-26747270D01*
X40300499Y-26747269D01*
X40273207Y-26645414D01*
X40273206Y-26645410D01*
X40220479Y-26554086D01*
X40145913Y-26479520D01*
X40054589Y-26426793D01*
X40054585Y-26426792D01*
X39952730Y-26399500D01*
X39952727Y-26399500D01*
X39847273Y-26399500D01*
X39847272Y-26399500D01*
X39799988Y-26412168D01*
X39768557Y-26410107D01*
X39730880Y-26394501D01*
X39730878Y-26394500D01*
X39730877Y-26394500D01*
X39649123Y-26394500D01*
X39649121Y-26394500D01*
X39573591Y-26425787D01*
X39573590Y-26425787D01*
X38819231Y-27180148D01*
X38784583Y-27194500D01*
X38361397Y-27194500D01*
X38326749Y-27180148D01*
X38272386Y-27125785D01*
X38213592Y-27101432D01*
X38196858Y-27094500D01*
X38196857Y-27094500D01*
X38196856Y-27094500D01*
X33677298Y-27094500D01*
X33642650Y-27080148D01*
X33628298Y-27045500D01*
X33634862Y-27021001D01*
X33673207Y-26954587D01*
X33700499Y-26852730D01*
X33700500Y-26852730D01*
X33700500Y-26747270D01*
X33700499Y-26747269D01*
X33673207Y-26645414D01*
X33673206Y-26645410D01*
X33620479Y-26554086D01*
X33545913Y-26479520D01*
X33454589Y-26426793D01*
X33454585Y-26426792D01*
X33352730Y-26399500D01*
X33352727Y-26399500D01*
X33247273Y-26399500D01*
X33247270Y-26399500D01*
X33145414Y-26426792D01*
X33145410Y-26426793D01*
X33054086Y-26479520D01*
X33054086Y-26479521D01*
X32979521Y-26554086D01*
X32979520Y-26554086D01*
X32926793Y-26645410D01*
X32926792Y-26645414D01*
X32899500Y-26747269D01*
X32899500Y-26765500D01*
X32885148Y-26800148D01*
X32850500Y-26814500D01*
X29557273Y-26814500D01*
X29522625Y-26800148D01*
X29101625Y-26379148D01*
X29087273Y-26344500D01*
X29101625Y-26309852D01*
X29136273Y-26295500D01*
X35673362Y-26295500D01*
X35708010Y-26309852D01*
X35720692Y-26331818D01*
X35726792Y-26354586D01*
X35726793Y-26354589D01*
X35768481Y-26426793D01*
X35779520Y-26445913D01*
X35854087Y-26520480D01*
X35887513Y-26539778D01*
X35945410Y-26573206D01*
X35945412Y-26573206D01*
X35945413Y-26573207D01*
X36025747Y-26594732D01*
X36047269Y-26600499D01*
X36047270Y-26600500D01*
X36047273Y-26600500D01*
X36152730Y-26600500D01*
X36152730Y-26600499D01*
X36254587Y-26573207D01*
X36345913Y-26520480D01*
X36420480Y-26445913D01*
X36473207Y-26354587D01*
X36500499Y-26252730D01*
X36500500Y-26252730D01*
X36500500Y-26147270D01*
X36500499Y-26147269D01*
X36473207Y-26045414D01*
X36473206Y-26045410D01*
X36420479Y-25954086D01*
X36350541Y-25884148D01*
X36336189Y-25849500D01*
X36350541Y-25814852D01*
X36385189Y-25800500D01*
X46550500Y-25800500D01*
X46585148Y-25814852D01*
G37*
G04 #@! TD.AperFunction*
G04 #@! TA.AperFunction,Conductor*
G36*
X25083474Y-25803771D02*
G01*
X25092015Y-25803339D01*
X25100127Y-25810669D01*
X25110225Y-25814852D01*
X25113496Y-25822750D01*
X25119841Y-25828483D01*
X25120393Y-25839401D01*
X25124577Y-25849500D01*
X25121305Y-25857397D01*
X25121738Y-25865938D01*
X25114407Y-25874050D01*
X25110225Y-25884148D01*
X25097752Y-25892482D01*
X25096594Y-25893764D01*
X25095483Y-25894291D01*
X25087838Y-25897458D01*
X25043594Y-25915785D01*
X25043593Y-25915786D01*
X25037607Y-25921771D01*
X25037606Y-25921772D01*
X24706652Y-26252727D01*
X24388094Y-26571285D01*
X24358880Y-26600499D01*
X24330285Y-26629094D01*
X24299001Y-26704620D01*
X24299000Y-26704626D01*
X24299000Y-26825299D01*
X24284648Y-26859947D01*
X24250000Y-26874299D01*
X24225500Y-26867734D01*
X24154589Y-26826793D01*
X24154585Y-26826792D01*
X24052730Y-26799500D01*
X24052727Y-26799500D01*
X23947273Y-26799500D01*
X23947270Y-26799500D01*
X23845414Y-26826792D01*
X23845410Y-26826793D01*
X23754086Y-26879520D01*
X23754086Y-26879521D01*
X23679521Y-26954086D01*
X23679520Y-26954086D01*
X23626793Y-27045410D01*
X23626792Y-27045414D01*
X23599500Y-27147269D01*
X23599500Y-27252730D01*
X23627624Y-27357689D01*
X23626914Y-27357878D01*
X23629500Y-27370868D01*
X23629500Y-27519812D01*
X23615148Y-27554460D01*
X23597899Y-27563690D01*
X23598536Y-27565227D01*
X23594076Y-27567073D01*
X23550912Y-27595914D01*
X23522072Y-27639077D01*
X23522071Y-27639080D01*
X23514500Y-27677147D01*
X23514500Y-27882850D01*
X23514501Y-27882854D01*
X23522071Y-27920919D01*
X23522072Y-27920920D01*
X23526655Y-27927781D01*
X23533968Y-27964564D01*
X23526655Y-27982219D01*
X23522071Y-27989079D01*
X23519053Y-28004255D01*
X23514571Y-28026792D01*
X23514500Y-28027147D01*
X23514500Y-28232850D01*
X23514501Y-28232854D01*
X23522071Y-28270919D01*
X23522072Y-28270920D01*
X23526655Y-28277781D01*
X23533968Y-28314564D01*
X23526655Y-28332219D01*
X23522071Y-28339079D01*
X23519462Y-28352198D01*
X23516550Y-28366841D01*
X23514500Y-28377147D01*
X23514500Y-28582850D01*
X23514501Y-28582854D01*
X23522071Y-28620919D01*
X23522072Y-28620920D01*
X23526655Y-28627781D01*
X23533968Y-28664564D01*
X23526655Y-28682219D01*
X23522071Y-28689079D01*
X23514500Y-28727147D01*
X23514500Y-28932850D01*
X23514501Y-28932854D01*
X23522071Y-28970919D01*
X23522072Y-28970920D01*
X23526655Y-28977781D01*
X23533968Y-29014564D01*
X23526655Y-29032219D01*
X23522071Y-29039079D01*
X23520811Y-29045414D01*
X23515284Y-29073207D01*
X23514500Y-29077147D01*
X23514500Y-29282850D01*
X23514501Y-29282854D01*
X23522071Y-29320919D01*
X23523414Y-29322929D01*
X23526655Y-29327781D01*
X23533968Y-29364564D01*
X23526655Y-29382219D01*
X23522071Y-29389079D01*
X23522071Y-29389081D01*
X23514845Y-29425414D01*
X23514500Y-29427147D01*
X23514500Y-29632850D01*
X23514501Y-29632854D01*
X23522071Y-29670919D01*
X23522072Y-29670920D01*
X23526655Y-29677781D01*
X23533968Y-29714564D01*
X23526655Y-29732219D01*
X23522071Y-29739079D01*
X23522071Y-29739081D01*
X23515084Y-29774213D01*
X23514500Y-29777147D01*
X23514500Y-29982850D01*
X23514501Y-29982854D01*
X23522071Y-30020919D01*
X23522072Y-30020920D01*
X23526655Y-30027781D01*
X23533968Y-30064564D01*
X23526655Y-30082219D01*
X23522071Y-30089079D01*
X23514500Y-30127147D01*
X23514500Y-30332850D01*
X23514501Y-30332854D01*
X23522071Y-30370919D01*
X23522072Y-30370920D01*
X23526655Y-30377781D01*
X23533968Y-30414564D01*
X23526655Y-30432219D01*
X23522071Y-30439079D01*
X23514500Y-30477147D01*
X23514500Y-30682850D01*
X23514501Y-30682854D01*
X23522071Y-30720919D01*
X23522073Y-30720923D01*
X23550914Y-30764087D01*
X23594077Y-30792927D01*
X23594079Y-30792927D01*
X23594081Y-30792929D01*
X23632145Y-30800500D01*
X24147854Y-30800499D01*
X24178892Y-30794326D01*
X24215672Y-30801644D01*
X24223096Y-30807737D01*
X24870148Y-31454789D01*
X24884500Y-31489437D01*
X24884500Y-32269127D01*
X24888401Y-32278542D01*
X24888798Y-32279500D01*
X24915785Y-32344654D01*
X24915786Y-32344655D01*
X25172537Y-32601406D01*
X25230346Y-32659215D01*
X25274590Y-32677541D01*
X25305875Y-32690500D01*
X25305876Y-32690500D01*
X25353191Y-32690500D01*
X25357487Y-32691271D01*
X25369879Y-32699218D01*
X25383479Y-32704852D01*
X25385221Y-32709058D01*
X25389055Y-32711517D01*
X25392197Y-32725899D01*
X25397831Y-32739500D01*
X25396088Y-32743707D01*
X25397060Y-32748156D01*
X25389112Y-32760548D01*
X25383479Y-32774148D01*
X25251702Y-32905924D01*
X25251701Y-32905924D01*
X25251702Y-32905925D01*
X25200782Y-32956845D01*
X25198102Y-32960856D01*
X25197573Y-32960502D01*
X25191415Y-32969714D01*
X25110982Y-33050148D01*
X25076336Y-33064500D01*
X24893665Y-33064500D01*
X24859017Y-33050148D01*
X24729852Y-32920983D01*
X24715500Y-32886335D01*
X24715500Y-31579124D01*
X24715499Y-31579121D01*
X24710392Y-31566792D01*
X24710391Y-31566791D01*
X24686286Y-31508594D01*
X24684215Y-31503594D01*
X24626406Y-31445785D01*
X24281407Y-31100786D01*
X24281406Y-31100785D01*
X24237162Y-31082458D01*
X24237161Y-31082457D01*
X24205877Y-31069500D01*
X24205876Y-31069500D01*
X24201530Y-31069500D01*
X24190782Y-31067361D01*
X24190653Y-31068013D01*
X24185919Y-31067071D01*
X24147855Y-31059500D01*
X24147852Y-31059500D01*
X23632149Y-31059500D01*
X23632148Y-31059500D01*
X23632146Y-31059501D01*
X23617383Y-31062437D01*
X23594080Y-31067071D01*
X23594076Y-31067073D01*
X23550912Y-31095914D01*
X23522072Y-31139077D01*
X23522071Y-31139080D01*
X23514500Y-31177147D01*
X23514500Y-31382850D01*
X23514501Y-31382854D01*
X23522071Y-31420919D01*
X23522072Y-31420920D01*
X23526655Y-31427781D01*
X23533968Y-31464564D01*
X23532570Y-31469962D01*
X23530470Y-31476509D01*
X23522071Y-31489081D01*
X23514934Y-31524959D01*
X23514081Y-31527622D01*
X23510046Y-31532382D01*
X23502070Y-31547307D01*
X23484149Y-31565229D01*
X23449501Y-31579582D01*
X23414853Y-31565231D01*
X23400500Y-31530583D01*
X23400500Y-25849500D01*
X23414852Y-25814852D01*
X23449500Y-25800500D01*
X25075577Y-25800500D01*
X25083474Y-25803771D01*
G37*
G04 #@! TD.AperFunction*
G04 #@! TD*
G04 #@! TA.AperFunction,Conductor*
G04 #@! TO.N,Board_2-GND*
G36*
X46585148Y-36414852D02*
G01*
X46599500Y-36449500D01*
X46599500Y-44150500D01*
X46585148Y-44185148D01*
X46550500Y-44199500D01*
X26205189Y-44199500D01*
X26170541Y-44185148D01*
X26156189Y-44150500D01*
X26169234Y-44119006D01*
X26168524Y-44118462D01*
X26170475Y-44115917D01*
X26170480Y-44115913D01*
X26223207Y-44024587D01*
X26250499Y-43922730D01*
X26250500Y-43922730D01*
X26250500Y-43899500D01*
X26264852Y-43864852D01*
X26299500Y-43850500D01*
X40595875Y-43850500D01*
X40595877Y-43850500D01*
X40627162Y-43837541D01*
X40671406Y-43819215D01*
X40729215Y-43761406D01*
X40782195Y-43708424D01*
X40816840Y-43694074D01*
X40829522Y-43695743D01*
X40839733Y-43698479D01*
X40847272Y-43700500D01*
X40847273Y-43700500D01*
X40952730Y-43700500D01*
X40952730Y-43700499D01*
X41054587Y-43673207D01*
X41145913Y-43620480D01*
X41220480Y-43545913D01*
X41273207Y-43454587D01*
X41300499Y-43352730D01*
X41300500Y-43352730D01*
X41300500Y-43247270D01*
X41300499Y-43247269D01*
X41277883Y-43162864D01*
X41273207Y-43145413D01*
X41249296Y-43103999D01*
X41247627Y-43091318D01*
X41242732Y-43079500D01*
X41245266Y-43073382D01*
X41244402Y-43066818D01*
X41252188Y-43056670D01*
X41257084Y-43044852D01*
X41263201Y-43042318D01*
X41267232Y-43037065D01*
X41291732Y-43030500D01*
X41319583Y-43030500D01*
X41354231Y-43044852D01*
X41391572Y-43082193D01*
X41405924Y-43116841D01*
X41404255Y-43129520D01*
X41399500Y-43147270D01*
X41399500Y-43252730D01*
X41426792Y-43354585D01*
X41426793Y-43354589D01*
X41468481Y-43426793D01*
X41479520Y-43445913D01*
X41554087Y-43520480D01*
X41584618Y-43538107D01*
X41645410Y-43573206D01*
X41645412Y-43573206D01*
X41645413Y-43573207D01*
X41651243Y-43574769D01*
X41747269Y-43600499D01*
X41747270Y-43600500D01*
X41747273Y-43600500D01*
X41852730Y-43600500D01*
X41852730Y-43600499D01*
X41954587Y-43573207D01*
X42045913Y-43520480D01*
X42120480Y-43445913D01*
X42166142Y-43366823D01*
X42173206Y-43354589D01*
X42173206Y-43354588D01*
X42173207Y-43354587D01*
X42200499Y-43252730D01*
X42200500Y-43252730D01*
X42200500Y-43147270D01*
X42200499Y-43147269D01*
X42175531Y-43054087D01*
X42173207Y-43045413D01*
X42173206Y-43045412D01*
X42173206Y-43045410D01*
X42120479Y-42954086D01*
X42045913Y-42879520D01*
X41954589Y-42826793D01*
X41954585Y-42826792D01*
X41852730Y-42799500D01*
X41852727Y-42799500D01*
X41747273Y-42799500D01*
X41747271Y-42799500D01*
X41729520Y-42804255D01*
X41692338Y-42799358D01*
X41682193Y-42791572D01*
X41541406Y-42650785D01*
X41533857Y-42647658D01*
X41497162Y-42632458D01*
X41497161Y-42632457D01*
X41465877Y-42619500D01*
X41465876Y-42619500D01*
X40744125Y-42619500D01*
X40662371Y-42619500D01*
X40631086Y-42632457D01*
X40631086Y-42632458D01*
X40608964Y-42641621D01*
X40586841Y-42650785D01*
X40586841Y-42650786D01*
X40092479Y-43145148D01*
X40057831Y-43159500D01*
X38719417Y-43159500D01*
X38684769Y-43145148D01*
X38670417Y-43110500D01*
X38684767Y-43075853D01*
X38812195Y-42948424D01*
X38846841Y-42934074D01*
X38859522Y-42935743D01*
X38869733Y-42938479D01*
X38877272Y-42940500D01*
X38877273Y-42940500D01*
X38982730Y-42940500D01*
X38982730Y-42940499D01*
X39084587Y-42913207D01*
X39175913Y-42860480D01*
X39250480Y-42785913D01*
X39303207Y-42694587D01*
X39330499Y-42592730D01*
X39330500Y-42592730D01*
X39330500Y-42487270D01*
X39330499Y-42487269D01*
X39303207Y-42385414D01*
X39303206Y-42385410D01*
X39250479Y-42294086D01*
X39175913Y-42219520D01*
X39084589Y-42166793D01*
X39084585Y-42166792D01*
X38982730Y-42139500D01*
X38982727Y-42139500D01*
X38877273Y-42139500D01*
X38877270Y-42139500D01*
X38775414Y-42166792D01*
X38775410Y-42166793D01*
X38684086Y-42219520D01*
X38684086Y-42219521D01*
X38609521Y-42294086D01*
X38609520Y-42294086D01*
X38556793Y-42385410D01*
X38556792Y-42385414D01*
X38529500Y-42487269D01*
X38529500Y-42592727D01*
X38534255Y-42610476D01*
X38529358Y-42647658D01*
X38521572Y-42657805D01*
X38314231Y-42865148D01*
X38279583Y-42879500D01*
X27485959Y-42879500D01*
X27451311Y-42865148D01*
X27436959Y-42830500D01*
X27443524Y-42806000D01*
X27473206Y-42754589D01*
X27473206Y-42754588D01*
X27473207Y-42754587D01*
X27500499Y-42652730D01*
X27500500Y-42652730D01*
X27500500Y-42547270D01*
X27500499Y-42547269D01*
X27473207Y-42445414D01*
X27473206Y-42445410D01*
X27420479Y-42354086D01*
X27345913Y-42279520D01*
X27254589Y-42226793D01*
X27254585Y-42226792D01*
X27152730Y-42199500D01*
X27152727Y-42199500D01*
X27047273Y-42199500D01*
X27047270Y-42199500D01*
X27018771Y-42207136D01*
X26981589Y-42202241D01*
X26958759Y-42172488D01*
X26963654Y-42135306D01*
X26971437Y-42125162D01*
X27611748Y-41484852D01*
X27646396Y-41470500D01*
X41659583Y-41470500D01*
X41694231Y-41484852D01*
X43291572Y-43082193D01*
X43305924Y-43116841D01*
X43304255Y-43129520D01*
X43299500Y-43147270D01*
X43299500Y-43252730D01*
X43326792Y-43354585D01*
X43326793Y-43354589D01*
X43368481Y-43426793D01*
X43379520Y-43445913D01*
X43454087Y-43520480D01*
X43484618Y-43538107D01*
X43545410Y-43573206D01*
X43545412Y-43573206D01*
X43545413Y-43573207D01*
X43551243Y-43574769D01*
X43647269Y-43600499D01*
X43647270Y-43600500D01*
X43647273Y-43600500D01*
X43752730Y-43600500D01*
X43752730Y-43600499D01*
X43854587Y-43573207D01*
X43945913Y-43520480D01*
X44020480Y-43445913D01*
X44066142Y-43366823D01*
X44073206Y-43354589D01*
X44073206Y-43354588D01*
X44073207Y-43354587D01*
X44100499Y-43252730D01*
X44100500Y-43252730D01*
X44100500Y-43147270D01*
X44100499Y-43147269D01*
X44075531Y-43054087D01*
X44073207Y-43045413D01*
X44073206Y-43045412D01*
X44073206Y-43045410D01*
X44020479Y-42954086D01*
X43945913Y-42879520D01*
X43854589Y-42826793D01*
X43854585Y-42826792D01*
X43752730Y-42799500D01*
X43752727Y-42799500D01*
X43647273Y-42799500D01*
X43647271Y-42799500D01*
X43629520Y-42804255D01*
X43592338Y-42799358D01*
X43582193Y-42791572D01*
X41965269Y-41174648D01*
X41950917Y-41140000D01*
X41965269Y-41105352D01*
X43874214Y-39196407D01*
X43874215Y-39196406D01*
X43905500Y-39120876D01*
X43905500Y-37772102D01*
X43919852Y-37737454D01*
X43930002Y-37729666D01*
X43945913Y-37720480D01*
X44020480Y-37645913D01*
X44073207Y-37554587D01*
X44100499Y-37452730D01*
X44100500Y-37452730D01*
X44100500Y-37347270D01*
X44100499Y-37347269D01*
X44073207Y-37245414D01*
X44073206Y-37245410D01*
X44020479Y-37154086D01*
X43945913Y-37079520D01*
X43854589Y-37026793D01*
X43854585Y-37026792D01*
X43752730Y-36999500D01*
X43752727Y-36999500D01*
X43647273Y-36999500D01*
X43647270Y-36999500D01*
X43545414Y-37026792D01*
X43545410Y-37026793D01*
X43454086Y-37079520D01*
X43454086Y-37079521D01*
X43379521Y-37154086D01*
X43379520Y-37154086D01*
X43326793Y-37245410D01*
X43326792Y-37245414D01*
X43299500Y-37347269D01*
X43299500Y-37452730D01*
X43326792Y-37554585D01*
X43326793Y-37554589D01*
X43365136Y-37621000D01*
X43379520Y-37645913D01*
X43454087Y-37720480D01*
X43454090Y-37720481D01*
X43454093Y-37720484D01*
X43469998Y-37729666D01*
X43492830Y-37759418D01*
X43494500Y-37772102D01*
X43494500Y-38974583D01*
X43480148Y-39009231D01*
X41724231Y-40765148D01*
X41689583Y-40779500D01*
X27384121Y-40779500D01*
X27372960Y-40784124D01*
X27308593Y-40810785D01*
X27289191Y-40830188D01*
X27250785Y-40868594D01*
X26579231Y-41540148D01*
X26544583Y-41554500D01*
X26189603Y-41554500D01*
X26167481Y-41563662D01*
X26167481Y-41563663D01*
X26140777Y-41574724D01*
X26114073Y-41585785D01*
X26085169Y-41614689D01*
X26056265Y-41643594D01*
X26056264Y-41643595D01*
X26052278Y-41647580D01*
X26046846Y-41653012D01*
X26024084Y-41662437D01*
X26012198Y-41667360D01*
X26012196Y-41667359D01*
X26012196Y-41667360D01*
X26012195Y-41667359D01*
X26002643Y-41666419D01*
X25982621Y-41662437D01*
X25967855Y-41659500D01*
X25967853Y-41659500D01*
X25452149Y-41659500D01*
X25452148Y-41659500D01*
X25452146Y-41659501D01*
X25437383Y-41662437D01*
X25414080Y-41667071D01*
X25414076Y-41667073D01*
X25370912Y-41695914D01*
X25342072Y-41739077D01*
X25342071Y-41739080D01*
X25342071Y-41739081D01*
X25334500Y-41777145D01*
X25334500Y-41777147D01*
X25334500Y-41777148D01*
X25334500Y-41819601D01*
X25320149Y-41854250D01*
X25285501Y-41868602D01*
X25285500Y-41868601D01*
X25285500Y-41868602D01*
X25250852Y-41854251D01*
X25250851Y-41854250D01*
X25206406Y-41809805D01*
X24510749Y-41114148D01*
X24496397Y-41079500D01*
X24510749Y-41044852D01*
X24545397Y-41030500D01*
X24695875Y-41030500D01*
X24695877Y-41030500D01*
X24727162Y-41017541D01*
X24771406Y-40999215D01*
X24812194Y-40958426D01*
X24846841Y-40944074D01*
X24859521Y-40945743D01*
X24871981Y-40949082D01*
X24877272Y-40950500D01*
X24877273Y-40950500D01*
X24982730Y-40950500D01*
X24982730Y-40950499D01*
X25084587Y-40923207D01*
X25175913Y-40870480D01*
X25250480Y-40795913D01*
X25250481Y-40795910D01*
X25250852Y-40795540D01*
X25285500Y-40781188D01*
X25320148Y-40795540D01*
X25334500Y-40830188D01*
X25334500Y-40932850D01*
X25334501Y-40932854D01*
X25342071Y-40970919D01*
X25342072Y-40970920D01*
X25346655Y-40977781D01*
X25353968Y-41014564D01*
X25346655Y-41032219D01*
X25342071Y-41039079D01*
X25334500Y-41077147D01*
X25334500Y-41282850D01*
X25334501Y-41282854D01*
X25342071Y-41320919D01*
X25342073Y-41320923D01*
X25370914Y-41364087D01*
X25414077Y-41392927D01*
X25414079Y-41392927D01*
X25414081Y-41392929D01*
X25452145Y-41400500D01*
X25639330Y-41400499D01*
X25658080Y-41404228D01*
X25661151Y-41405500D01*
X25661153Y-41405500D01*
X25752848Y-41405500D01*
X25752849Y-41405500D01*
X25755915Y-41404229D01*
X25774669Y-41400499D01*
X25967851Y-41400499D01*
X25967854Y-41400499D01*
X26005919Y-41392929D01*
X26049086Y-41364086D01*
X26077929Y-41320919D01*
X26085500Y-41282855D01*
X26085500Y-41279501D01*
X26099852Y-41244853D01*
X26134500Y-41230501D01*
X26195849Y-41230501D01*
X26195850Y-41230501D01*
X26245476Y-41209944D01*
X26245604Y-41209890D01*
X26277148Y-41207787D01*
X26279378Y-41208384D01*
X26287271Y-41210500D01*
X26287273Y-41210500D01*
X26392730Y-41210500D01*
X26392730Y-41210499D01*
X26494587Y-41183207D01*
X26585913Y-41130480D01*
X26660480Y-41055913D01*
X26713207Y-40964587D01*
X26740499Y-40862730D01*
X26740500Y-40862730D01*
X26740500Y-40757270D01*
X26740499Y-40757269D01*
X26722228Y-40689079D01*
X26713207Y-40655413D01*
X26713206Y-40655412D01*
X26713206Y-40655410D01*
X26660479Y-40564086D01*
X26626041Y-40529648D01*
X26611689Y-40495000D01*
X26626041Y-40460352D01*
X26660479Y-40425914D01*
X26660480Y-40425913D01*
X26713207Y-40334587D01*
X26740499Y-40232730D01*
X26740500Y-40232730D01*
X26740500Y-40127270D01*
X26740499Y-40127269D01*
X26718700Y-40045913D01*
X26713207Y-40025413D01*
X26689296Y-39983999D01*
X26684402Y-39946818D01*
X26707232Y-39917065D01*
X26731732Y-39910500D01*
X30407831Y-39910500D01*
X30442479Y-39924852D01*
X30834033Y-40316406D01*
X30891842Y-40374215D01*
X30936086Y-40392541D01*
X30967371Y-40405500D01*
X30967372Y-40405500D01*
X30967373Y-40405500D01*
X33740875Y-40405500D01*
X33740877Y-40405500D01*
X33772162Y-40392541D01*
X33816406Y-40374215D01*
X33874215Y-40316406D01*
X33982195Y-40208424D01*
X34016841Y-40194074D01*
X34029522Y-40195743D01*
X34039733Y-40198479D01*
X34047272Y-40200500D01*
X34047273Y-40200500D01*
X34152730Y-40200500D01*
X34152730Y-40200499D01*
X34254587Y-40173207D01*
X34345913Y-40120480D01*
X34420480Y-40045913D01*
X34473207Y-39954587D01*
X34500499Y-39852730D01*
X34500500Y-39852730D01*
X34500500Y-39747270D01*
X34500499Y-39747269D01*
X34473207Y-39645414D01*
X34473206Y-39645410D01*
X34434160Y-39577781D01*
X34420480Y-39554087D01*
X34345913Y-39479520D01*
X34254589Y-39426793D01*
X34254585Y-39426792D01*
X34152730Y-39399500D01*
X34152727Y-39399500D01*
X34047273Y-39399500D01*
X34047270Y-39399500D01*
X33945414Y-39426792D01*
X33945410Y-39426793D01*
X33854086Y-39479520D01*
X33854086Y-39479521D01*
X33779521Y-39554086D01*
X33779520Y-39554086D01*
X33726793Y-39645410D01*
X33726792Y-39645414D01*
X33699500Y-39747269D01*
X33699500Y-39852727D01*
X33704255Y-39870476D01*
X33703390Y-39877039D01*
X33705924Y-39883156D01*
X33701028Y-39894976D01*
X33699358Y-39907658D01*
X33691572Y-39917805D01*
X33629230Y-39980148D01*
X33594584Y-39994500D01*
X31588845Y-39994500D01*
X31554197Y-39980148D01*
X31539845Y-39945500D01*
X31546409Y-39921002D01*
X31573207Y-39874587D01*
X31600499Y-39772730D01*
X31600500Y-39772730D01*
X31600500Y-39725030D01*
X31614852Y-39690382D01*
X31649500Y-39676030D01*
X31662179Y-39677699D01*
X31701382Y-39688203D01*
X31747271Y-39700500D01*
X31747273Y-39700500D01*
X31852730Y-39700500D01*
X31852730Y-39700499D01*
X31954587Y-39673207D01*
X32045913Y-39620480D01*
X32120480Y-39545913D01*
X32173207Y-39454587D01*
X32200499Y-39352730D01*
X32200500Y-39352730D01*
X32200500Y-39247270D01*
X32200499Y-39247269D01*
X32183238Y-39182850D01*
X32173207Y-39145413D01*
X32173206Y-39145412D01*
X32173206Y-39145410D01*
X32120479Y-39054086D01*
X32095541Y-39029148D01*
X32081189Y-38994500D01*
X32095541Y-38959852D01*
X32130189Y-38945500D01*
X34700500Y-38945500D01*
X34735148Y-38959852D01*
X34749500Y-38994500D01*
X34749500Y-39052730D01*
X34776792Y-39154585D01*
X34776793Y-39154589D01*
X34829520Y-39245913D01*
X34904087Y-39320480D01*
X34915633Y-39327146D01*
X34995410Y-39373206D01*
X34995412Y-39373206D01*
X34995413Y-39373207D01*
X35022180Y-39380379D01*
X35097269Y-39400499D01*
X35097270Y-39400500D01*
X35097273Y-39400500D01*
X35202730Y-39400500D01*
X35202730Y-39400499D01*
X35304587Y-39373207D01*
X35395913Y-39320480D01*
X35470480Y-39245913D01*
X35523207Y-39154587D01*
X35550499Y-39052730D01*
X35550500Y-39052730D01*
X35550500Y-38947270D01*
X35550499Y-38947269D01*
X35538422Y-38902198D01*
X35523207Y-38845413D01*
X35523206Y-38845412D01*
X35523206Y-38845410D01*
X35470479Y-38754086D01*
X35465541Y-38749148D01*
X35451189Y-38714500D01*
X35465541Y-38679852D01*
X35500189Y-38665500D01*
X36354583Y-38665500D01*
X36389231Y-38679852D01*
X36591572Y-38882193D01*
X36605924Y-38916841D01*
X36604255Y-38929520D01*
X36599500Y-38947270D01*
X36599500Y-39052730D01*
X36626792Y-39154585D01*
X36626793Y-39154589D01*
X36679520Y-39245913D01*
X36754087Y-39320480D01*
X36765633Y-39327146D01*
X36845410Y-39373206D01*
X36845412Y-39373206D01*
X36845413Y-39373207D01*
X36872180Y-39380379D01*
X36947269Y-39400499D01*
X36947270Y-39400500D01*
X36947273Y-39400500D01*
X37052730Y-39400500D01*
X37052730Y-39400499D01*
X37154587Y-39373207D01*
X37245913Y-39320480D01*
X37320480Y-39245913D01*
X37373207Y-39154587D01*
X37400499Y-39052730D01*
X37400500Y-39052730D01*
X37400500Y-38947270D01*
X37400499Y-38947269D01*
X37388422Y-38902198D01*
X37373207Y-38845413D01*
X37373206Y-38845412D01*
X37373206Y-38845410D01*
X37320479Y-38754086D01*
X37245913Y-38679520D01*
X37154589Y-38626793D01*
X37154585Y-38626792D01*
X37052730Y-38599500D01*
X37052727Y-38599500D01*
X36947273Y-38599500D01*
X36947271Y-38599500D01*
X36929520Y-38604255D01*
X36892338Y-38599358D01*
X36882193Y-38591572D01*
X36759769Y-38469148D01*
X36745417Y-38434500D01*
X36759769Y-38399852D01*
X36794417Y-38385500D01*
X37934583Y-38385500D01*
X37969231Y-38399852D01*
X38501572Y-38932193D01*
X38515924Y-38966841D01*
X38514255Y-38979520D01*
X38509500Y-38997270D01*
X38509500Y-39102730D01*
X38536792Y-39204585D01*
X38536793Y-39204589D01*
X38589520Y-39295913D01*
X38664087Y-39370480D01*
X38681233Y-39380379D01*
X38755410Y-39423206D01*
X38755412Y-39423206D01*
X38755413Y-39423207D01*
X38835747Y-39444732D01*
X38857269Y-39450499D01*
X38857270Y-39450500D01*
X38857273Y-39450500D01*
X38962730Y-39450500D01*
X38962730Y-39450499D01*
X39064587Y-39423207D01*
X39155913Y-39370480D01*
X39230480Y-39295913D01*
X39283207Y-39204587D01*
X39310499Y-39102730D01*
X39310500Y-39102730D01*
X39310500Y-38997270D01*
X39310499Y-38997269D01*
X39292346Y-38929520D01*
X39283207Y-38895413D01*
X39283206Y-38895412D01*
X39283206Y-38895410D01*
X39230479Y-38804086D01*
X39155913Y-38729520D01*
X39064589Y-38676793D01*
X39064585Y-38676792D01*
X38962730Y-38649500D01*
X38962727Y-38649500D01*
X38857273Y-38649500D01*
X38857271Y-38649500D01*
X38839520Y-38654255D01*
X38802338Y-38649358D01*
X38792193Y-38641572D01*
X38439769Y-38289148D01*
X38425417Y-38254500D01*
X38439769Y-38219852D01*
X38474417Y-38205500D01*
X38930875Y-38205500D01*
X38930877Y-38205500D01*
X38981645Y-38184471D01*
X39006406Y-38174215D01*
X39064215Y-38116406D01*
X39522466Y-37658153D01*
X39557113Y-37643802D01*
X39591761Y-37658154D01*
X39654087Y-37720480D01*
X39669998Y-37729666D01*
X39745410Y-37773206D01*
X39745412Y-37773206D01*
X39745413Y-37773207D01*
X39824880Y-37794500D01*
X39847269Y-37800499D01*
X39847270Y-37800500D01*
X39847273Y-37800500D01*
X39952730Y-37800500D01*
X39952730Y-37800499D01*
X40054587Y-37773207D01*
X40145913Y-37720480D01*
X40220480Y-37645913D01*
X40273207Y-37554587D01*
X40300499Y-37452730D01*
X40300500Y-37452730D01*
X40300500Y-37347270D01*
X40300499Y-37347269D01*
X40273207Y-37245414D01*
X40273206Y-37245410D01*
X40220479Y-37154086D01*
X40145913Y-37079520D01*
X40054589Y-37026793D01*
X40054585Y-37026792D01*
X39952730Y-36999500D01*
X39952727Y-36999500D01*
X39847273Y-36999500D01*
X39847272Y-36999500D01*
X39799988Y-37012168D01*
X39768557Y-37010107D01*
X39730880Y-36994501D01*
X39730878Y-36994500D01*
X39730877Y-36994500D01*
X39649123Y-36994500D01*
X39649121Y-36994500D01*
X39573591Y-37025787D01*
X39573590Y-37025787D01*
X38819231Y-37780148D01*
X38784583Y-37794500D01*
X38361397Y-37794500D01*
X38326749Y-37780148D01*
X38272386Y-37725785D01*
X38213592Y-37701432D01*
X38196858Y-37694500D01*
X38196857Y-37694500D01*
X38196856Y-37694500D01*
X33677298Y-37694500D01*
X33642650Y-37680148D01*
X33628298Y-37645500D01*
X33634862Y-37621001D01*
X33673207Y-37554587D01*
X33700499Y-37452730D01*
X33700500Y-37452730D01*
X33700500Y-37347270D01*
X33700499Y-37347269D01*
X33673207Y-37245414D01*
X33673206Y-37245410D01*
X33620479Y-37154086D01*
X33545913Y-37079520D01*
X33454589Y-37026793D01*
X33454585Y-37026792D01*
X33352730Y-36999500D01*
X33352727Y-36999500D01*
X33247273Y-36999500D01*
X33247270Y-36999500D01*
X33145414Y-37026792D01*
X33145410Y-37026793D01*
X33054086Y-37079520D01*
X33054086Y-37079521D01*
X32979521Y-37154086D01*
X32979520Y-37154086D01*
X32926793Y-37245410D01*
X32926792Y-37245414D01*
X32899500Y-37347269D01*
X32899500Y-37365500D01*
X32885148Y-37400148D01*
X32850500Y-37414500D01*
X29557273Y-37414500D01*
X29522625Y-37400148D01*
X29101625Y-36979148D01*
X29087273Y-36944500D01*
X29101625Y-36909852D01*
X29136273Y-36895500D01*
X35673362Y-36895500D01*
X35708010Y-36909852D01*
X35720692Y-36931818D01*
X35726792Y-36954586D01*
X35726793Y-36954589D01*
X35768481Y-37026793D01*
X35779520Y-37045913D01*
X35854087Y-37120480D01*
X35887513Y-37139778D01*
X35945410Y-37173206D01*
X35945412Y-37173206D01*
X35945413Y-37173207D01*
X36025747Y-37194732D01*
X36047269Y-37200499D01*
X36047270Y-37200500D01*
X36047273Y-37200500D01*
X36152730Y-37200500D01*
X36152730Y-37200499D01*
X36254587Y-37173207D01*
X36345913Y-37120480D01*
X36420480Y-37045913D01*
X36473207Y-36954587D01*
X36500499Y-36852730D01*
X36500500Y-36852730D01*
X36500500Y-36747270D01*
X36500499Y-36747269D01*
X36473207Y-36645414D01*
X36473206Y-36645410D01*
X36420479Y-36554086D01*
X36350541Y-36484148D01*
X36336189Y-36449500D01*
X36350541Y-36414852D01*
X36385189Y-36400500D01*
X46550500Y-36400500D01*
X46585148Y-36414852D01*
G37*
G04 #@! TD.AperFunction*
G04 #@! TA.AperFunction,Conductor*
G36*
X25083474Y-36403771D02*
G01*
X25092015Y-36403339D01*
X25100127Y-36410669D01*
X25110225Y-36414852D01*
X25113496Y-36422750D01*
X25119841Y-36428483D01*
X25120393Y-36439401D01*
X25124577Y-36449500D01*
X25121305Y-36457397D01*
X25121738Y-36465938D01*
X25114407Y-36474050D01*
X25110225Y-36484148D01*
X25097752Y-36492482D01*
X25096594Y-36493764D01*
X25095483Y-36494291D01*
X25087838Y-36497458D01*
X25043594Y-36515785D01*
X25043593Y-36515786D01*
X25037607Y-36521771D01*
X25037606Y-36521772D01*
X24706652Y-36852727D01*
X24388094Y-37171285D01*
X24358880Y-37200499D01*
X24330285Y-37229094D01*
X24299001Y-37304620D01*
X24299000Y-37304626D01*
X24299000Y-37425299D01*
X24284648Y-37459947D01*
X24250000Y-37474299D01*
X24225500Y-37467734D01*
X24154589Y-37426793D01*
X24154585Y-37426792D01*
X24052730Y-37399500D01*
X24052727Y-37399500D01*
X23947273Y-37399500D01*
X23947270Y-37399500D01*
X23845414Y-37426792D01*
X23845410Y-37426793D01*
X23754086Y-37479520D01*
X23754086Y-37479521D01*
X23679521Y-37554086D01*
X23679520Y-37554086D01*
X23626793Y-37645410D01*
X23626792Y-37645414D01*
X23599500Y-37747269D01*
X23599500Y-37852730D01*
X23627624Y-37957689D01*
X23626914Y-37957878D01*
X23629500Y-37970868D01*
X23629500Y-38119812D01*
X23615148Y-38154460D01*
X23597899Y-38163690D01*
X23598536Y-38165227D01*
X23594076Y-38167073D01*
X23550912Y-38195914D01*
X23522072Y-38239077D01*
X23522071Y-38239080D01*
X23514500Y-38277147D01*
X23514500Y-38482850D01*
X23514501Y-38482854D01*
X23522071Y-38520919D01*
X23522072Y-38520920D01*
X23526655Y-38527781D01*
X23533968Y-38564564D01*
X23526655Y-38582219D01*
X23522071Y-38589079D01*
X23519053Y-38604255D01*
X23514571Y-38626792D01*
X23514500Y-38627147D01*
X23514500Y-38832850D01*
X23514501Y-38832854D01*
X23522071Y-38870919D01*
X23522072Y-38870920D01*
X23526655Y-38877781D01*
X23533968Y-38914564D01*
X23526655Y-38932219D01*
X23522071Y-38939079D01*
X23519462Y-38952198D01*
X23516550Y-38966841D01*
X23514500Y-38977147D01*
X23514500Y-39182850D01*
X23514501Y-39182854D01*
X23522071Y-39220919D01*
X23522072Y-39220920D01*
X23526655Y-39227781D01*
X23533968Y-39264564D01*
X23526655Y-39282219D01*
X23522071Y-39289079D01*
X23514500Y-39327147D01*
X23514500Y-39532850D01*
X23514501Y-39532854D01*
X23522071Y-39570919D01*
X23522072Y-39570920D01*
X23526655Y-39577781D01*
X23533968Y-39614564D01*
X23526655Y-39632219D01*
X23522071Y-39639079D01*
X23520811Y-39645414D01*
X23515284Y-39673207D01*
X23514500Y-39677147D01*
X23514500Y-39882850D01*
X23514501Y-39882854D01*
X23522071Y-39920919D01*
X23523414Y-39922929D01*
X23526655Y-39927781D01*
X23533968Y-39964564D01*
X23526655Y-39982219D01*
X23522071Y-39989079D01*
X23522071Y-39989081D01*
X23514845Y-40025414D01*
X23514500Y-40027147D01*
X23514500Y-40232850D01*
X23514501Y-40232854D01*
X23522071Y-40270919D01*
X23522072Y-40270920D01*
X23526655Y-40277781D01*
X23533968Y-40314564D01*
X23526655Y-40332219D01*
X23522071Y-40339079D01*
X23522071Y-40339081D01*
X23515084Y-40374213D01*
X23514500Y-40377147D01*
X23514500Y-40582850D01*
X23514501Y-40582854D01*
X23522071Y-40620919D01*
X23522072Y-40620920D01*
X23526655Y-40627781D01*
X23533968Y-40664564D01*
X23526655Y-40682219D01*
X23522071Y-40689079D01*
X23514500Y-40727147D01*
X23514500Y-40932850D01*
X23514501Y-40932854D01*
X23522071Y-40970919D01*
X23522072Y-40970920D01*
X23526655Y-40977781D01*
X23533968Y-41014564D01*
X23526655Y-41032219D01*
X23522071Y-41039079D01*
X23514500Y-41077147D01*
X23514500Y-41282850D01*
X23514501Y-41282854D01*
X23522071Y-41320919D01*
X23522073Y-41320923D01*
X23550914Y-41364087D01*
X23594077Y-41392927D01*
X23594079Y-41392927D01*
X23594081Y-41392929D01*
X23632145Y-41400500D01*
X24147854Y-41400499D01*
X24178892Y-41394326D01*
X24215672Y-41401644D01*
X24223096Y-41407737D01*
X24870148Y-42054789D01*
X24884500Y-42089437D01*
X24884500Y-42869127D01*
X24888401Y-42878542D01*
X24888798Y-42879500D01*
X24915785Y-42944654D01*
X24915786Y-42944655D01*
X25172537Y-43201406D01*
X25230346Y-43259215D01*
X25274590Y-43277541D01*
X25305875Y-43290500D01*
X25305876Y-43290500D01*
X25353191Y-43290500D01*
X25357487Y-43291271D01*
X25369879Y-43299218D01*
X25383479Y-43304852D01*
X25385221Y-43309058D01*
X25389055Y-43311517D01*
X25392197Y-43325899D01*
X25397831Y-43339500D01*
X25396088Y-43343707D01*
X25397060Y-43348156D01*
X25389112Y-43360548D01*
X25383479Y-43374148D01*
X25251702Y-43505924D01*
X25251701Y-43505924D01*
X25251702Y-43505925D01*
X25200782Y-43556845D01*
X25198102Y-43560856D01*
X25197573Y-43560502D01*
X25191415Y-43569714D01*
X25110982Y-43650148D01*
X25076336Y-43664500D01*
X24893665Y-43664500D01*
X24859017Y-43650148D01*
X24729852Y-43520983D01*
X24715500Y-43486335D01*
X24715500Y-42179124D01*
X24715499Y-42179121D01*
X24710392Y-42166792D01*
X24710391Y-42166791D01*
X24686286Y-42108594D01*
X24684215Y-42103594D01*
X24626406Y-42045785D01*
X24281407Y-41700786D01*
X24281406Y-41700785D01*
X24237162Y-41682458D01*
X24237161Y-41682457D01*
X24205877Y-41669500D01*
X24205876Y-41669500D01*
X24201530Y-41669500D01*
X24190782Y-41667361D01*
X24190653Y-41668013D01*
X24185919Y-41667071D01*
X24147855Y-41659500D01*
X24147852Y-41659500D01*
X23632149Y-41659500D01*
X23632148Y-41659500D01*
X23632146Y-41659501D01*
X23617383Y-41662437D01*
X23594080Y-41667071D01*
X23594076Y-41667073D01*
X23550912Y-41695914D01*
X23522072Y-41739077D01*
X23522071Y-41739080D01*
X23514500Y-41777147D01*
X23514500Y-41982850D01*
X23514501Y-41982854D01*
X23522071Y-42020919D01*
X23522072Y-42020920D01*
X23526655Y-42027781D01*
X23533968Y-42064564D01*
X23532570Y-42069962D01*
X23530470Y-42076509D01*
X23522071Y-42089081D01*
X23514934Y-42124959D01*
X23514081Y-42127622D01*
X23510046Y-42132382D01*
X23502070Y-42147307D01*
X23484149Y-42165229D01*
X23449501Y-42179582D01*
X23414853Y-42165231D01*
X23400500Y-42130583D01*
X23400500Y-36449500D01*
X23414852Y-36414852D01*
X23449500Y-36400500D01*
X25075577Y-36400500D01*
X25083474Y-36403771D01*
G37*
G04 #@! TD.AperFunction*
G04 #@! TD*
G04 #@! TA.AperFunction,Conductor*
G04 #@! TO.N,Board_0-GND*
G36*
X46585148Y-15214852D02*
G01*
X46599500Y-15249500D01*
X46599500Y-22950500D01*
X46585148Y-22985148D01*
X46550500Y-22999500D01*
X26205189Y-22999500D01*
X26170541Y-22985148D01*
X26156189Y-22950500D01*
X26169234Y-22919006D01*
X26168524Y-22918462D01*
X26170475Y-22915917D01*
X26170480Y-22915913D01*
X26223207Y-22824587D01*
X26250499Y-22722730D01*
X26250500Y-22722730D01*
X26250500Y-22699500D01*
X26264852Y-22664852D01*
X26299500Y-22650500D01*
X40595875Y-22650500D01*
X40595877Y-22650500D01*
X40627162Y-22637541D01*
X40671406Y-22619215D01*
X40729215Y-22561406D01*
X40782195Y-22508424D01*
X40816840Y-22494074D01*
X40829522Y-22495743D01*
X40839733Y-22498479D01*
X40847272Y-22500500D01*
X40847273Y-22500500D01*
X40952730Y-22500500D01*
X40952730Y-22500499D01*
X41054587Y-22473207D01*
X41145913Y-22420480D01*
X41220480Y-22345913D01*
X41273207Y-22254587D01*
X41300499Y-22152730D01*
X41300500Y-22152730D01*
X41300500Y-22047270D01*
X41300499Y-22047269D01*
X41277883Y-21962864D01*
X41273207Y-21945413D01*
X41249296Y-21903999D01*
X41247627Y-21891318D01*
X41242732Y-21879500D01*
X41245266Y-21873382D01*
X41244402Y-21866818D01*
X41252188Y-21856670D01*
X41257084Y-21844852D01*
X41263201Y-21842318D01*
X41267232Y-21837065D01*
X41291732Y-21830500D01*
X41319583Y-21830500D01*
X41354231Y-21844852D01*
X41391572Y-21882193D01*
X41405924Y-21916841D01*
X41404255Y-21929520D01*
X41399500Y-21947270D01*
X41399500Y-22052730D01*
X41426792Y-22154585D01*
X41426793Y-22154589D01*
X41468481Y-22226793D01*
X41479520Y-22245913D01*
X41554087Y-22320480D01*
X41584618Y-22338107D01*
X41645410Y-22373206D01*
X41645412Y-22373206D01*
X41645413Y-22373207D01*
X41651243Y-22374769D01*
X41747269Y-22400499D01*
X41747270Y-22400500D01*
X41747273Y-22400500D01*
X41852730Y-22400500D01*
X41852730Y-22400499D01*
X41954587Y-22373207D01*
X42045913Y-22320480D01*
X42120480Y-22245913D01*
X42166142Y-22166823D01*
X42173206Y-22154589D01*
X42173206Y-22154588D01*
X42173207Y-22154587D01*
X42200499Y-22052730D01*
X42200500Y-22052730D01*
X42200500Y-21947270D01*
X42200499Y-21947269D01*
X42175531Y-21854087D01*
X42173207Y-21845413D01*
X42173206Y-21845412D01*
X42173206Y-21845410D01*
X42120479Y-21754086D01*
X42045913Y-21679520D01*
X41954589Y-21626793D01*
X41954585Y-21626792D01*
X41852730Y-21599500D01*
X41852727Y-21599500D01*
X41747273Y-21599500D01*
X41747271Y-21599500D01*
X41729520Y-21604255D01*
X41692338Y-21599358D01*
X41682193Y-21591572D01*
X41541406Y-21450785D01*
X41533857Y-21447658D01*
X41497162Y-21432458D01*
X41497161Y-21432457D01*
X41465877Y-21419500D01*
X41465876Y-21419500D01*
X40744125Y-21419500D01*
X40662371Y-21419500D01*
X40631086Y-21432457D01*
X40631086Y-21432458D01*
X40608964Y-21441621D01*
X40586841Y-21450785D01*
X40586841Y-21450786D01*
X40092479Y-21945148D01*
X40057831Y-21959500D01*
X38719417Y-21959500D01*
X38684769Y-21945148D01*
X38670417Y-21910500D01*
X38684767Y-21875853D01*
X38812195Y-21748424D01*
X38846841Y-21734074D01*
X38859522Y-21735743D01*
X38869733Y-21738479D01*
X38877272Y-21740500D01*
X38877273Y-21740500D01*
X38982730Y-21740500D01*
X38982730Y-21740499D01*
X39084587Y-21713207D01*
X39175913Y-21660480D01*
X39250480Y-21585913D01*
X39303207Y-21494587D01*
X39330499Y-21392730D01*
X39330500Y-21392730D01*
X39330500Y-21287270D01*
X39330499Y-21287269D01*
X39303207Y-21185414D01*
X39303206Y-21185410D01*
X39250479Y-21094086D01*
X39175913Y-21019520D01*
X39084589Y-20966793D01*
X39084585Y-20966792D01*
X38982730Y-20939500D01*
X38982727Y-20939500D01*
X38877273Y-20939500D01*
X38877270Y-20939500D01*
X38775414Y-20966792D01*
X38775410Y-20966793D01*
X38684086Y-21019520D01*
X38684086Y-21019521D01*
X38609521Y-21094086D01*
X38609520Y-21094086D01*
X38556793Y-21185410D01*
X38556792Y-21185414D01*
X38529500Y-21287269D01*
X38529500Y-21392727D01*
X38534255Y-21410476D01*
X38529358Y-21447658D01*
X38521572Y-21457805D01*
X38314231Y-21665148D01*
X38279583Y-21679500D01*
X27485959Y-21679500D01*
X27451311Y-21665148D01*
X27436959Y-21630500D01*
X27443524Y-21606000D01*
X27473206Y-21554589D01*
X27473206Y-21554588D01*
X27473207Y-21554587D01*
X27500499Y-21452730D01*
X27500500Y-21452730D01*
X27500500Y-21347270D01*
X27500499Y-21347269D01*
X27473207Y-21245414D01*
X27473206Y-21245410D01*
X27420479Y-21154086D01*
X27345913Y-21079520D01*
X27254589Y-21026793D01*
X27254585Y-21026792D01*
X27152730Y-20999500D01*
X27152727Y-20999500D01*
X27047273Y-20999500D01*
X27047270Y-20999500D01*
X27018771Y-21007136D01*
X26981589Y-21002241D01*
X26958759Y-20972488D01*
X26963654Y-20935306D01*
X26971437Y-20925162D01*
X27611748Y-20284852D01*
X27646396Y-20270500D01*
X41659583Y-20270500D01*
X41694231Y-20284852D01*
X43291572Y-21882193D01*
X43305924Y-21916841D01*
X43304255Y-21929520D01*
X43299500Y-21947270D01*
X43299500Y-22052730D01*
X43326792Y-22154585D01*
X43326793Y-22154589D01*
X43368481Y-22226793D01*
X43379520Y-22245913D01*
X43454087Y-22320480D01*
X43484618Y-22338107D01*
X43545410Y-22373206D01*
X43545412Y-22373206D01*
X43545413Y-22373207D01*
X43551243Y-22374769D01*
X43647269Y-22400499D01*
X43647270Y-22400500D01*
X43647273Y-22400500D01*
X43752730Y-22400500D01*
X43752730Y-22400499D01*
X43854587Y-22373207D01*
X43945913Y-22320480D01*
X44020480Y-22245913D01*
X44066142Y-22166823D01*
X44073206Y-22154589D01*
X44073206Y-22154588D01*
X44073207Y-22154587D01*
X44100499Y-22052730D01*
X44100500Y-22052730D01*
X44100500Y-21947270D01*
X44100499Y-21947269D01*
X44075531Y-21854087D01*
X44073207Y-21845413D01*
X44073206Y-21845412D01*
X44073206Y-21845410D01*
X44020479Y-21754086D01*
X43945913Y-21679520D01*
X43854589Y-21626793D01*
X43854585Y-21626792D01*
X43752730Y-21599500D01*
X43752727Y-21599500D01*
X43647273Y-21599500D01*
X43647271Y-21599500D01*
X43629520Y-21604255D01*
X43592338Y-21599358D01*
X43582193Y-21591572D01*
X41965269Y-19974648D01*
X41950917Y-19940000D01*
X41965269Y-19905352D01*
X43874214Y-17996407D01*
X43874215Y-17996406D01*
X43905500Y-17920876D01*
X43905500Y-16572102D01*
X43919852Y-16537454D01*
X43930002Y-16529666D01*
X43945913Y-16520480D01*
X44020480Y-16445913D01*
X44073207Y-16354587D01*
X44100499Y-16252730D01*
X44100500Y-16252730D01*
X44100500Y-16147270D01*
X44100499Y-16147269D01*
X44073207Y-16045414D01*
X44073206Y-16045410D01*
X44020479Y-15954086D01*
X43945913Y-15879520D01*
X43854589Y-15826793D01*
X43854585Y-15826792D01*
X43752730Y-15799500D01*
X43752727Y-15799500D01*
X43647273Y-15799500D01*
X43647270Y-15799500D01*
X43545414Y-15826792D01*
X43545410Y-15826793D01*
X43454086Y-15879520D01*
X43454086Y-15879521D01*
X43379521Y-15954086D01*
X43379520Y-15954086D01*
X43326793Y-16045410D01*
X43326792Y-16045414D01*
X43299500Y-16147269D01*
X43299500Y-16252730D01*
X43326792Y-16354585D01*
X43326793Y-16354589D01*
X43365136Y-16421000D01*
X43379520Y-16445913D01*
X43454087Y-16520480D01*
X43454090Y-16520481D01*
X43454093Y-16520484D01*
X43469998Y-16529666D01*
X43492830Y-16559418D01*
X43494500Y-16572102D01*
X43494500Y-17774583D01*
X43480148Y-17809231D01*
X41724231Y-19565148D01*
X41689583Y-19579500D01*
X27384121Y-19579500D01*
X27372960Y-19584124D01*
X27308593Y-19610785D01*
X27289191Y-19630188D01*
X27250785Y-19668594D01*
X26579231Y-20340148D01*
X26544583Y-20354500D01*
X26189603Y-20354500D01*
X26167481Y-20363662D01*
X26167481Y-20363663D01*
X26140777Y-20374724D01*
X26114073Y-20385785D01*
X26085169Y-20414689D01*
X26056265Y-20443594D01*
X26056264Y-20443595D01*
X26052278Y-20447580D01*
X26046846Y-20453012D01*
X26024084Y-20462437D01*
X26012198Y-20467360D01*
X26012196Y-20467359D01*
X26012196Y-20467360D01*
X26012195Y-20467359D01*
X26002643Y-20466419D01*
X25982621Y-20462437D01*
X25967855Y-20459500D01*
X25967853Y-20459500D01*
X25452149Y-20459500D01*
X25452148Y-20459500D01*
X25452146Y-20459501D01*
X25437383Y-20462437D01*
X25414080Y-20467071D01*
X25414076Y-20467073D01*
X25370912Y-20495914D01*
X25342072Y-20539077D01*
X25342071Y-20539080D01*
X25342071Y-20539081D01*
X25334500Y-20577145D01*
X25334500Y-20577147D01*
X25334500Y-20577148D01*
X25334500Y-20619601D01*
X25320149Y-20654250D01*
X25285501Y-20668602D01*
X25285500Y-20668601D01*
X25285500Y-20668602D01*
X25250852Y-20654251D01*
X25250851Y-20654250D01*
X25206406Y-20609805D01*
X24510749Y-19914148D01*
X24496397Y-19879500D01*
X24510749Y-19844852D01*
X24545397Y-19830500D01*
X24695875Y-19830500D01*
X24695877Y-19830500D01*
X24727162Y-19817541D01*
X24771406Y-19799215D01*
X24812194Y-19758426D01*
X24846841Y-19744074D01*
X24859521Y-19745743D01*
X24871981Y-19749082D01*
X24877272Y-19750500D01*
X24877273Y-19750500D01*
X24982730Y-19750500D01*
X24982730Y-19750499D01*
X25084587Y-19723207D01*
X25175913Y-19670480D01*
X25250480Y-19595913D01*
X25250481Y-19595910D01*
X25250852Y-19595540D01*
X25285500Y-19581188D01*
X25320148Y-19595540D01*
X25334500Y-19630188D01*
X25334500Y-19732850D01*
X25334501Y-19732854D01*
X25342071Y-19770919D01*
X25342072Y-19770920D01*
X25346655Y-19777781D01*
X25353968Y-19814564D01*
X25346655Y-19832219D01*
X25342071Y-19839079D01*
X25334500Y-19877147D01*
X25334500Y-20082850D01*
X25334501Y-20082854D01*
X25342071Y-20120919D01*
X25342073Y-20120923D01*
X25370914Y-20164087D01*
X25414077Y-20192927D01*
X25414079Y-20192927D01*
X25414081Y-20192929D01*
X25452145Y-20200500D01*
X25639330Y-20200499D01*
X25658080Y-20204228D01*
X25661151Y-20205500D01*
X25661153Y-20205500D01*
X25752848Y-20205500D01*
X25752849Y-20205500D01*
X25755915Y-20204229D01*
X25774669Y-20200499D01*
X25967851Y-20200499D01*
X25967854Y-20200499D01*
X26005919Y-20192929D01*
X26049086Y-20164086D01*
X26077929Y-20120919D01*
X26085500Y-20082855D01*
X26085500Y-20079501D01*
X26099852Y-20044853D01*
X26134500Y-20030501D01*
X26195849Y-20030501D01*
X26195850Y-20030501D01*
X26245476Y-20009944D01*
X26245604Y-20009890D01*
X26277148Y-20007787D01*
X26279378Y-20008384D01*
X26287271Y-20010500D01*
X26287273Y-20010500D01*
X26392730Y-20010500D01*
X26392730Y-20010499D01*
X26494587Y-19983207D01*
X26585913Y-19930480D01*
X26660480Y-19855913D01*
X26713207Y-19764587D01*
X26740499Y-19662730D01*
X26740500Y-19662730D01*
X26740500Y-19557270D01*
X26740499Y-19557269D01*
X26722228Y-19489079D01*
X26713207Y-19455413D01*
X26713206Y-19455412D01*
X26713206Y-19455410D01*
X26660479Y-19364086D01*
X26626041Y-19329648D01*
X26611689Y-19295000D01*
X26626041Y-19260352D01*
X26660479Y-19225914D01*
X26660480Y-19225913D01*
X26713207Y-19134587D01*
X26740499Y-19032730D01*
X26740500Y-19032730D01*
X26740500Y-18927270D01*
X26740499Y-18927269D01*
X26718700Y-18845913D01*
X26713207Y-18825413D01*
X26689296Y-18783999D01*
X26684402Y-18746818D01*
X26707232Y-18717065D01*
X26731732Y-18710500D01*
X30407831Y-18710500D01*
X30442479Y-18724852D01*
X30834033Y-19116406D01*
X30891842Y-19174215D01*
X30936086Y-19192541D01*
X30967371Y-19205500D01*
X30967372Y-19205500D01*
X30967373Y-19205500D01*
X33740875Y-19205500D01*
X33740877Y-19205500D01*
X33772162Y-19192541D01*
X33816406Y-19174215D01*
X33874215Y-19116406D01*
X33982195Y-19008424D01*
X34016841Y-18994074D01*
X34029522Y-18995743D01*
X34039733Y-18998479D01*
X34047272Y-19000500D01*
X34047273Y-19000500D01*
X34152730Y-19000500D01*
X34152730Y-19000499D01*
X34254587Y-18973207D01*
X34345913Y-18920480D01*
X34420480Y-18845913D01*
X34473207Y-18754587D01*
X34500499Y-18652730D01*
X34500500Y-18652730D01*
X34500500Y-18547270D01*
X34500499Y-18547269D01*
X34473207Y-18445414D01*
X34473206Y-18445410D01*
X34434160Y-18377781D01*
X34420480Y-18354087D01*
X34345913Y-18279520D01*
X34254589Y-18226793D01*
X34254585Y-18226792D01*
X34152730Y-18199500D01*
X34152727Y-18199500D01*
X34047273Y-18199500D01*
X34047270Y-18199500D01*
X33945414Y-18226792D01*
X33945410Y-18226793D01*
X33854086Y-18279520D01*
X33854086Y-18279521D01*
X33779521Y-18354086D01*
X33779520Y-18354086D01*
X33726793Y-18445410D01*
X33726792Y-18445414D01*
X33699500Y-18547269D01*
X33699500Y-18652727D01*
X33704255Y-18670476D01*
X33703390Y-18677039D01*
X33705924Y-18683156D01*
X33701028Y-18694976D01*
X33699358Y-18707658D01*
X33691572Y-18717805D01*
X33629230Y-18780148D01*
X33594584Y-18794500D01*
X31588845Y-18794500D01*
X31554197Y-18780148D01*
X31539845Y-18745500D01*
X31546409Y-18721002D01*
X31573207Y-18674587D01*
X31600499Y-18572730D01*
X31600500Y-18572730D01*
X31600500Y-18525030D01*
X31614852Y-18490382D01*
X31649500Y-18476030D01*
X31662179Y-18477699D01*
X31701382Y-18488203D01*
X31747271Y-18500500D01*
X31747273Y-18500500D01*
X31852730Y-18500500D01*
X31852730Y-18500499D01*
X31954587Y-18473207D01*
X32045913Y-18420480D01*
X32120480Y-18345913D01*
X32173207Y-18254587D01*
X32200499Y-18152730D01*
X32200500Y-18152730D01*
X32200500Y-18047270D01*
X32200499Y-18047269D01*
X32183238Y-17982850D01*
X32173207Y-17945413D01*
X32173206Y-17945412D01*
X32173206Y-17945410D01*
X32120479Y-17854086D01*
X32095541Y-17829148D01*
X32081189Y-17794500D01*
X32095541Y-17759852D01*
X32130189Y-17745500D01*
X34700500Y-17745500D01*
X34735148Y-17759852D01*
X34749500Y-17794500D01*
X34749500Y-17852730D01*
X34776792Y-17954585D01*
X34776793Y-17954589D01*
X34829520Y-18045913D01*
X34904087Y-18120480D01*
X34915633Y-18127146D01*
X34995410Y-18173206D01*
X34995412Y-18173206D01*
X34995413Y-18173207D01*
X35022180Y-18180379D01*
X35097269Y-18200499D01*
X35097270Y-18200500D01*
X35097273Y-18200500D01*
X35202730Y-18200500D01*
X35202730Y-18200499D01*
X35304587Y-18173207D01*
X35395913Y-18120480D01*
X35470480Y-18045913D01*
X35523207Y-17954587D01*
X35550499Y-17852730D01*
X35550500Y-17852730D01*
X35550500Y-17747270D01*
X35550499Y-17747269D01*
X35538422Y-17702198D01*
X35523207Y-17645413D01*
X35523206Y-17645412D01*
X35523206Y-17645410D01*
X35470479Y-17554086D01*
X35465541Y-17549148D01*
X35451189Y-17514500D01*
X35465541Y-17479852D01*
X35500189Y-17465500D01*
X36354583Y-17465500D01*
X36389231Y-17479852D01*
X36591572Y-17682193D01*
X36605924Y-17716841D01*
X36604255Y-17729520D01*
X36599500Y-17747270D01*
X36599500Y-17852730D01*
X36626792Y-17954585D01*
X36626793Y-17954589D01*
X36679520Y-18045913D01*
X36754087Y-18120480D01*
X36765633Y-18127146D01*
X36845410Y-18173206D01*
X36845412Y-18173206D01*
X36845413Y-18173207D01*
X36872180Y-18180379D01*
X36947269Y-18200499D01*
X36947270Y-18200500D01*
X36947273Y-18200500D01*
X37052730Y-18200500D01*
X37052730Y-18200499D01*
X37154587Y-18173207D01*
X37245913Y-18120480D01*
X37320480Y-18045913D01*
X37373207Y-17954587D01*
X37400499Y-17852730D01*
X37400500Y-17852730D01*
X37400500Y-17747270D01*
X37400499Y-17747269D01*
X37388422Y-17702198D01*
X37373207Y-17645413D01*
X37373206Y-17645412D01*
X37373206Y-17645410D01*
X37320479Y-17554086D01*
X37245913Y-17479520D01*
X37154589Y-17426793D01*
X37154585Y-17426792D01*
X37052730Y-17399500D01*
X37052727Y-17399500D01*
X36947273Y-17399500D01*
X36947271Y-17399500D01*
X36929520Y-17404255D01*
X36892338Y-17399358D01*
X36882193Y-17391572D01*
X36759769Y-17269148D01*
X36745417Y-17234500D01*
X36759769Y-17199852D01*
X36794417Y-17185500D01*
X37934583Y-17185500D01*
X37969231Y-17199852D01*
X38501572Y-17732193D01*
X38515924Y-17766841D01*
X38514255Y-17779520D01*
X38509500Y-17797270D01*
X38509500Y-17902730D01*
X38536792Y-18004585D01*
X38536793Y-18004589D01*
X38589520Y-18095913D01*
X38664087Y-18170480D01*
X38681233Y-18180379D01*
X38755410Y-18223206D01*
X38755412Y-18223206D01*
X38755413Y-18223207D01*
X38835747Y-18244732D01*
X38857269Y-18250499D01*
X38857270Y-18250500D01*
X38857273Y-18250500D01*
X38962730Y-18250500D01*
X38962730Y-18250499D01*
X39064587Y-18223207D01*
X39155913Y-18170480D01*
X39230480Y-18095913D01*
X39283207Y-18004587D01*
X39310499Y-17902730D01*
X39310500Y-17902730D01*
X39310500Y-17797270D01*
X39310499Y-17797269D01*
X39292346Y-17729520D01*
X39283207Y-17695413D01*
X39283206Y-17695412D01*
X39283206Y-17695410D01*
X39230479Y-17604086D01*
X39155913Y-17529520D01*
X39064589Y-17476793D01*
X39064585Y-17476792D01*
X38962730Y-17449500D01*
X38962727Y-17449500D01*
X38857273Y-17449500D01*
X38857271Y-17449500D01*
X38839520Y-17454255D01*
X38802338Y-17449358D01*
X38792193Y-17441572D01*
X38439769Y-17089148D01*
X38425417Y-17054500D01*
X38439769Y-17019852D01*
X38474417Y-17005500D01*
X38930875Y-17005500D01*
X38930877Y-17005500D01*
X38981645Y-16984471D01*
X39006406Y-16974215D01*
X39064215Y-16916406D01*
X39522466Y-16458153D01*
X39557113Y-16443802D01*
X39591761Y-16458154D01*
X39654087Y-16520480D01*
X39669998Y-16529666D01*
X39745410Y-16573206D01*
X39745412Y-16573206D01*
X39745413Y-16573207D01*
X39824880Y-16594500D01*
X39847269Y-16600499D01*
X39847270Y-16600500D01*
X39847273Y-16600500D01*
X39952730Y-16600500D01*
X39952730Y-16600499D01*
X40054587Y-16573207D01*
X40145913Y-16520480D01*
X40220480Y-16445913D01*
X40273207Y-16354587D01*
X40300499Y-16252730D01*
X40300500Y-16252730D01*
X40300500Y-16147270D01*
X40300499Y-16147269D01*
X40273207Y-16045414D01*
X40273206Y-16045410D01*
X40220479Y-15954086D01*
X40145913Y-15879520D01*
X40054589Y-15826793D01*
X40054585Y-15826792D01*
X39952730Y-15799500D01*
X39952727Y-15799500D01*
X39847273Y-15799500D01*
X39847272Y-15799500D01*
X39799988Y-15812168D01*
X39768557Y-15810107D01*
X39730880Y-15794501D01*
X39730878Y-15794500D01*
X39730877Y-15794500D01*
X39649123Y-15794500D01*
X39649121Y-15794500D01*
X39573591Y-15825787D01*
X39573590Y-15825787D01*
X38819231Y-16580148D01*
X38784583Y-16594500D01*
X38361397Y-16594500D01*
X38326749Y-16580148D01*
X38272386Y-16525785D01*
X38213592Y-16501432D01*
X38196858Y-16494500D01*
X38196857Y-16494500D01*
X38196856Y-16494500D01*
X33677298Y-16494500D01*
X33642650Y-16480148D01*
X33628298Y-16445500D01*
X33634862Y-16421001D01*
X33673207Y-16354587D01*
X33700499Y-16252730D01*
X33700500Y-16252730D01*
X33700500Y-16147270D01*
X33700499Y-16147269D01*
X33673207Y-16045414D01*
X33673206Y-16045410D01*
X33620479Y-15954086D01*
X33545913Y-15879520D01*
X33454589Y-15826793D01*
X33454585Y-15826792D01*
X33352730Y-15799500D01*
X33352727Y-15799500D01*
X33247273Y-15799500D01*
X33247270Y-15799500D01*
X33145414Y-15826792D01*
X33145410Y-15826793D01*
X33054086Y-15879520D01*
X33054086Y-15879521D01*
X32979521Y-15954086D01*
X32979520Y-15954086D01*
X32926793Y-16045410D01*
X32926792Y-16045414D01*
X32899500Y-16147269D01*
X32899500Y-16165500D01*
X32885148Y-16200148D01*
X32850500Y-16214500D01*
X29557273Y-16214500D01*
X29522625Y-16200148D01*
X29101625Y-15779148D01*
X29087273Y-15744500D01*
X29101625Y-15709852D01*
X29136273Y-15695500D01*
X35673362Y-15695500D01*
X35708010Y-15709852D01*
X35720692Y-15731818D01*
X35726792Y-15754586D01*
X35726793Y-15754589D01*
X35768481Y-15826793D01*
X35779520Y-15845913D01*
X35854087Y-15920480D01*
X35887513Y-15939778D01*
X35945410Y-15973206D01*
X35945412Y-15973206D01*
X35945413Y-15973207D01*
X36025747Y-15994732D01*
X36047269Y-16000499D01*
X36047270Y-16000500D01*
X36047273Y-16000500D01*
X36152730Y-16000500D01*
X36152730Y-16000499D01*
X36254587Y-15973207D01*
X36345913Y-15920480D01*
X36420480Y-15845913D01*
X36473207Y-15754587D01*
X36500499Y-15652730D01*
X36500500Y-15652730D01*
X36500500Y-15547270D01*
X36500499Y-15547269D01*
X36473207Y-15445414D01*
X36473206Y-15445410D01*
X36420479Y-15354086D01*
X36350541Y-15284148D01*
X36336189Y-15249500D01*
X36350541Y-15214852D01*
X36385189Y-15200500D01*
X46550500Y-15200500D01*
X46585148Y-15214852D01*
G37*
G04 #@! TD.AperFunction*
G04 #@! TA.AperFunction,Conductor*
G36*
X25083474Y-15203771D02*
G01*
X25092015Y-15203339D01*
X25100127Y-15210669D01*
X25110225Y-15214852D01*
X25113496Y-15222750D01*
X25119841Y-15228483D01*
X25120393Y-15239401D01*
X25124577Y-15249500D01*
X25121305Y-15257397D01*
X25121738Y-15265938D01*
X25114407Y-15274050D01*
X25110225Y-15284148D01*
X25097752Y-15292482D01*
X25096594Y-15293764D01*
X25095483Y-15294291D01*
X25087838Y-15297458D01*
X25043594Y-15315785D01*
X25043593Y-15315786D01*
X25037607Y-15321771D01*
X25037606Y-15321772D01*
X24706652Y-15652727D01*
X24388094Y-15971285D01*
X24358880Y-16000499D01*
X24330285Y-16029094D01*
X24299001Y-16104620D01*
X24299000Y-16104626D01*
X24299000Y-16225299D01*
X24284648Y-16259947D01*
X24250000Y-16274299D01*
X24225500Y-16267734D01*
X24154589Y-16226793D01*
X24154585Y-16226792D01*
X24052730Y-16199500D01*
X24052727Y-16199500D01*
X23947273Y-16199500D01*
X23947270Y-16199500D01*
X23845414Y-16226792D01*
X23845410Y-16226793D01*
X23754086Y-16279520D01*
X23754086Y-16279521D01*
X23679521Y-16354086D01*
X23679520Y-16354086D01*
X23626793Y-16445410D01*
X23626792Y-16445414D01*
X23599500Y-16547269D01*
X23599500Y-16652730D01*
X23627624Y-16757689D01*
X23626914Y-16757878D01*
X23629500Y-16770868D01*
X23629500Y-16919812D01*
X23615148Y-16954460D01*
X23597899Y-16963690D01*
X23598536Y-16965227D01*
X23594076Y-16967073D01*
X23550912Y-16995914D01*
X23522072Y-17039077D01*
X23522071Y-17039080D01*
X23514500Y-17077147D01*
X23514500Y-17282850D01*
X23514501Y-17282854D01*
X23522071Y-17320919D01*
X23522072Y-17320920D01*
X23526655Y-17327781D01*
X23533968Y-17364564D01*
X23526655Y-17382219D01*
X23522071Y-17389079D01*
X23519053Y-17404255D01*
X23514571Y-17426792D01*
X23514500Y-17427147D01*
X23514500Y-17632850D01*
X23514501Y-17632854D01*
X23522071Y-17670919D01*
X23522072Y-17670920D01*
X23526655Y-17677781D01*
X23533968Y-17714564D01*
X23526655Y-17732219D01*
X23522071Y-17739079D01*
X23519462Y-17752198D01*
X23516550Y-17766841D01*
X23514500Y-17777147D01*
X23514500Y-17982850D01*
X23514501Y-17982854D01*
X23522071Y-18020919D01*
X23522072Y-18020920D01*
X23526655Y-18027781D01*
X23533968Y-18064564D01*
X23526655Y-18082219D01*
X23522071Y-18089079D01*
X23514500Y-18127147D01*
X23514500Y-18332850D01*
X23514501Y-18332854D01*
X23522071Y-18370919D01*
X23522072Y-18370920D01*
X23526655Y-18377781D01*
X23533968Y-18414564D01*
X23526655Y-18432219D01*
X23522071Y-18439079D01*
X23520811Y-18445414D01*
X23515284Y-18473207D01*
X23514500Y-18477147D01*
X23514500Y-18682850D01*
X23514501Y-18682854D01*
X23522071Y-18720919D01*
X23523414Y-18722929D01*
X23526655Y-18727781D01*
X23533968Y-18764564D01*
X23526655Y-18782219D01*
X23522071Y-18789079D01*
X23522071Y-18789081D01*
X23514845Y-18825414D01*
X23514500Y-18827147D01*
X23514500Y-19032850D01*
X23514501Y-19032854D01*
X23522071Y-19070919D01*
X23522072Y-19070920D01*
X23526655Y-19077781D01*
X23533968Y-19114564D01*
X23526655Y-19132219D01*
X23522071Y-19139079D01*
X23522071Y-19139081D01*
X23515084Y-19174213D01*
X23514500Y-19177147D01*
X23514500Y-19382850D01*
X23514501Y-19382854D01*
X23522071Y-19420919D01*
X23522072Y-19420920D01*
X23526655Y-19427781D01*
X23533968Y-19464564D01*
X23526655Y-19482219D01*
X23522071Y-19489079D01*
X23514500Y-19527147D01*
X23514500Y-19732850D01*
X23514501Y-19732854D01*
X23522071Y-19770919D01*
X23522072Y-19770920D01*
X23526655Y-19777781D01*
X23533968Y-19814564D01*
X23526655Y-19832219D01*
X23522071Y-19839079D01*
X23514500Y-19877147D01*
X23514500Y-20082850D01*
X23514501Y-20082854D01*
X23522071Y-20120919D01*
X23522073Y-20120923D01*
X23550914Y-20164087D01*
X23594077Y-20192927D01*
X23594079Y-20192927D01*
X23594081Y-20192929D01*
X23632145Y-20200500D01*
X24147854Y-20200499D01*
X24178892Y-20194326D01*
X24215672Y-20201644D01*
X24223096Y-20207737D01*
X24870148Y-20854789D01*
X24884500Y-20889437D01*
X24884500Y-21669127D01*
X24888401Y-21678542D01*
X24888798Y-21679500D01*
X24915785Y-21744654D01*
X24915786Y-21744655D01*
X25172537Y-22001406D01*
X25230346Y-22059215D01*
X25274590Y-22077541D01*
X25305875Y-22090500D01*
X25305876Y-22090500D01*
X25353191Y-22090500D01*
X25357487Y-22091271D01*
X25369879Y-22099218D01*
X25383479Y-22104852D01*
X25385221Y-22109058D01*
X25389055Y-22111517D01*
X25392197Y-22125899D01*
X25397831Y-22139500D01*
X25396088Y-22143707D01*
X25397060Y-22148156D01*
X25389112Y-22160548D01*
X25383479Y-22174148D01*
X25251702Y-22305924D01*
X25251701Y-22305924D01*
X25251702Y-22305925D01*
X25200782Y-22356845D01*
X25198102Y-22360856D01*
X25197573Y-22360502D01*
X25191415Y-22369714D01*
X25110982Y-22450148D01*
X25076336Y-22464500D01*
X24893665Y-22464500D01*
X24859017Y-22450148D01*
X24729852Y-22320983D01*
X24715500Y-22286335D01*
X24715500Y-20979124D01*
X24715499Y-20979121D01*
X24710392Y-20966792D01*
X24710391Y-20966791D01*
X24686286Y-20908594D01*
X24684215Y-20903594D01*
X24626406Y-20845785D01*
X24281407Y-20500786D01*
X24281406Y-20500785D01*
X24237162Y-20482458D01*
X24237161Y-20482457D01*
X24205877Y-20469500D01*
X24205876Y-20469500D01*
X24201530Y-20469500D01*
X24190782Y-20467361D01*
X24190653Y-20468013D01*
X24185919Y-20467071D01*
X24147855Y-20459500D01*
X24147852Y-20459500D01*
X23632149Y-20459500D01*
X23632148Y-20459500D01*
X23632146Y-20459501D01*
X23617383Y-20462437D01*
X23594080Y-20467071D01*
X23594076Y-20467073D01*
X23550912Y-20495914D01*
X23522072Y-20539077D01*
X23522071Y-20539080D01*
X23514500Y-20577147D01*
X23514500Y-20782850D01*
X23514501Y-20782854D01*
X23522071Y-20820919D01*
X23522072Y-20820920D01*
X23526655Y-20827781D01*
X23533968Y-20864564D01*
X23532570Y-20869962D01*
X23530470Y-20876509D01*
X23522071Y-20889081D01*
X23514934Y-20924959D01*
X23514081Y-20927622D01*
X23510046Y-20932382D01*
X23502070Y-20947307D01*
X23484149Y-20965229D01*
X23449501Y-20979582D01*
X23414853Y-20965231D01*
X23400500Y-20930583D01*
X23400500Y-15249500D01*
X23414852Y-15214852D01*
X23449500Y-15200500D01*
X25075577Y-15200500D01*
X25083474Y-15203771D01*
G37*
G04 #@! TD.AperFunction*
G04 #@! TD*
G04 #@! TA.AperFunction,Conductor*
G04 #@! TO.N,Board_3-GND*
G36*
X46585148Y-47014852D02*
G01*
X46599500Y-47049500D01*
X46599500Y-54750500D01*
X46585148Y-54785148D01*
X46550500Y-54799500D01*
X26205189Y-54799500D01*
X26170541Y-54785148D01*
X26156189Y-54750500D01*
X26169234Y-54719006D01*
X26168524Y-54718462D01*
X26170475Y-54715917D01*
X26170480Y-54715913D01*
X26223207Y-54624587D01*
X26250499Y-54522730D01*
X26250500Y-54522730D01*
X26250500Y-54499500D01*
X26264852Y-54464852D01*
X26299500Y-54450500D01*
X40595875Y-54450500D01*
X40595877Y-54450500D01*
X40627162Y-54437541D01*
X40671406Y-54419215D01*
X40729215Y-54361406D01*
X40782195Y-54308424D01*
X40816840Y-54294074D01*
X40829522Y-54295743D01*
X40839733Y-54298479D01*
X40847272Y-54300500D01*
X40847273Y-54300500D01*
X40952730Y-54300500D01*
X40952730Y-54300499D01*
X41054587Y-54273207D01*
X41145913Y-54220480D01*
X41220480Y-54145913D01*
X41273207Y-54054587D01*
X41300499Y-53952730D01*
X41300500Y-53952730D01*
X41300500Y-53847270D01*
X41300499Y-53847269D01*
X41277883Y-53762864D01*
X41273207Y-53745413D01*
X41249296Y-53703999D01*
X41247627Y-53691318D01*
X41242732Y-53679500D01*
X41245266Y-53673382D01*
X41244402Y-53666818D01*
X41252188Y-53656670D01*
X41257084Y-53644852D01*
X41263201Y-53642318D01*
X41267232Y-53637065D01*
X41291732Y-53630500D01*
X41319583Y-53630500D01*
X41354231Y-53644852D01*
X41391572Y-53682193D01*
X41405924Y-53716841D01*
X41404255Y-53729520D01*
X41399500Y-53747270D01*
X41399500Y-53852730D01*
X41426792Y-53954585D01*
X41426793Y-53954589D01*
X41468481Y-54026793D01*
X41479520Y-54045913D01*
X41554087Y-54120480D01*
X41584618Y-54138107D01*
X41645410Y-54173206D01*
X41645412Y-54173206D01*
X41645413Y-54173207D01*
X41651243Y-54174769D01*
X41747269Y-54200499D01*
X41747270Y-54200500D01*
X41747273Y-54200500D01*
X41852730Y-54200500D01*
X41852730Y-54200499D01*
X41954587Y-54173207D01*
X42045913Y-54120480D01*
X42120480Y-54045913D01*
X42166142Y-53966823D01*
X42173206Y-53954589D01*
X42173206Y-53954588D01*
X42173207Y-53954587D01*
X42200499Y-53852730D01*
X42200500Y-53852730D01*
X42200500Y-53747270D01*
X42200499Y-53747269D01*
X42175531Y-53654087D01*
X42173207Y-53645413D01*
X42173206Y-53645412D01*
X42173206Y-53645410D01*
X42120479Y-53554086D01*
X42045913Y-53479520D01*
X41954589Y-53426793D01*
X41954585Y-53426792D01*
X41852730Y-53399500D01*
X41852727Y-53399500D01*
X41747273Y-53399500D01*
X41747271Y-53399500D01*
X41729520Y-53404255D01*
X41692338Y-53399358D01*
X41682193Y-53391572D01*
X41541406Y-53250785D01*
X41533857Y-53247658D01*
X41497162Y-53232458D01*
X41497161Y-53232457D01*
X41465877Y-53219500D01*
X41465876Y-53219500D01*
X40744125Y-53219500D01*
X40662371Y-53219500D01*
X40631086Y-53232457D01*
X40631086Y-53232458D01*
X40608964Y-53241621D01*
X40586841Y-53250785D01*
X40586841Y-53250786D01*
X40092479Y-53745148D01*
X40057831Y-53759500D01*
X38719417Y-53759500D01*
X38684769Y-53745148D01*
X38670417Y-53710500D01*
X38684767Y-53675853D01*
X38812195Y-53548424D01*
X38846841Y-53534074D01*
X38859522Y-53535743D01*
X38869733Y-53538479D01*
X38877272Y-53540500D01*
X38877273Y-53540500D01*
X38982730Y-53540500D01*
X38982730Y-53540499D01*
X39084587Y-53513207D01*
X39175913Y-53460480D01*
X39250480Y-53385913D01*
X39303207Y-53294587D01*
X39330499Y-53192730D01*
X39330500Y-53192730D01*
X39330500Y-53087270D01*
X39330499Y-53087269D01*
X39303207Y-52985414D01*
X39303206Y-52985410D01*
X39250479Y-52894086D01*
X39175913Y-52819520D01*
X39084589Y-52766793D01*
X39084585Y-52766792D01*
X38982730Y-52739500D01*
X38982727Y-52739500D01*
X38877273Y-52739500D01*
X38877270Y-52739500D01*
X38775414Y-52766792D01*
X38775410Y-52766793D01*
X38684086Y-52819520D01*
X38684086Y-52819521D01*
X38609521Y-52894086D01*
X38609520Y-52894086D01*
X38556793Y-52985410D01*
X38556792Y-52985414D01*
X38529500Y-53087269D01*
X38529500Y-53192727D01*
X38534255Y-53210476D01*
X38529358Y-53247658D01*
X38521572Y-53257805D01*
X38314231Y-53465148D01*
X38279583Y-53479500D01*
X27485959Y-53479500D01*
X27451311Y-53465148D01*
X27436959Y-53430500D01*
X27443524Y-53406000D01*
X27473206Y-53354589D01*
X27473206Y-53354588D01*
X27473207Y-53354587D01*
X27500499Y-53252730D01*
X27500500Y-53252730D01*
X27500500Y-53147270D01*
X27500499Y-53147269D01*
X27473207Y-53045414D01*
X27473206Y-53045410D01*
X27420479Y-52954086D01*
X27345913Y-52879520D01*
X27254589Y-52826793D01*
X27254585Y-52826792D01*
X27152730Y-52799500D01*
X27152727Y-52799500D01*
X27047273Y-52799500D01*
X27047270Y-52799500D01*
X27018771Y-52807136D01*
X26981589Y-52802241D01*
X26958759Y-52772488D01*
X26963654Y-52735306D01*
X26971437Y-52725162D01*
X27611748Y-52084852D01*
X27646396Y-52070500D01*
X41659583Y-52070500D01*
X41694231Y-52084852D01*
X43291572Y-53682193D01*
X43305924Y-53716841D01*
X43304255Y-53729520D01*
X43299500Y-53747270D01*
X43299500Y-53852730D01*
X43326792Y-53954585D01*
X43326793Y-53954589D01*
X43368481Y-54026793D01*
X43379520Y-54045913D01*
X43454087Y-54120480D01*
X43484618Y-54138107D01*
X43545410Y-54173206D01*
X43545412Y-54173206D01*
X43545413Y-54173207D01*
X43551243Y-54174769D01*
X43647269Y-54200499D01*
X43647270Y-54200500D01*
X43647273Y-54200500D01*
X43752730Y-54200500D01*
X43752730Y-54200499D01*
X43854587Y-54173207D01*
X43945913Y-54120480D01*
X44020480Y-54045913D01*
X44066142Y-53966823D01*
X44073206Y-53954589D01*
X44073206Y-53954588D01*
X44073207Y-53954587D01*
X44100499Y-53852730D01*
X44100500Y-53852730D01*
X44100500Y-53747270D01*
X44100499Y-53747269D01*
X44075531Y-53654087D01*
X44073207Y-53645413D01*
X44073206Y-53645412D01*
X44073206Y-53645410D01*
X44020479Y-53554086D01*
X43945913Y-53479520D01*
X43854589Y-53426793D01*
X43854585Y-53426792D01*
X43752730Y-53399500D01*
X43752727Y-53399500D01*
X43647273Y-53399500D01*
X43647271Y-53399500D01*
X43629520Y-53404255D01*
X43592338Y-53399358D01*
X43582193Y-53391572D01*
X41965269Y-51774648D01*
X41950917Y-51740000D01*
X41965269Y-51705352D01*
X43874214Y-49796407D01*
X43874215Y-49796406D01*
X43905500Y-49720876D01*
X43905500Y-48372102D01*
X43919852Y-48337454D01*
X43930002Y-48329666D01*
X43945913Y-48320480D01*
X44020480Y-48245913D01*
X44073207Y-48154587D01*
X44100499Y-48052730D01*
X44100500Y-48052730D01*
X44100500Y-47947270D01*
X44100499Y-47947269D01*
X44073207Y-47845414D01*
X44073206Y-47845410D01*
X44020479Y-47754086D01*
X43945913Y-47679520D01*
X43854589Y-47626793D01*
X43854585Y-47626792D01*
X43752730Y-47599500D01*
X43752727Y-47599500D01*
X43647273Y-47599500D01*
X43647270Y-47599500D01*
X43545414Y-47626792D01*
X43545410Y-47626793D01*
X43454086Y-47679520D01*
X43454086Y-47679521D01*
X43379521Y-47754086D01*
X43379520Y-47754086D01*
X43326793Y-47845410D01*
X43326792Y-47845414D01*
X43299500Y-47947269D01*
X43299500Y-48052730D01*
X43326792Y-48154585D01*
X43326793Y-48154589D01*
X43365136Y-48221000D01*
X43379520Y-48245913D01*
X43454087Y-48320480D01*
X43454090Y-48320481D01*
X43454093Y-48320484D01*
X43469998Y-48329666D01*
X43492830Y-48359418D01*
X43494500Y-48372102D01*
X43494500Y-49574583D01*
X43480148Y-49609231D01*
X41724231Y-51365148D01*
X41689583Y-51379500D01*
X27384121Y-51379500D01*
X27372960Y-51384124D01*
X27308593Y-51410785D01*
X27289191Y-51430188D01*
X27250785Y-51468594D01*
X26579231Y-52140148D01*
X26544583Y-52154500D01*
X26189603Y-52154500D01*
X26167481Y-52163662D01*
X26167481Y-52163663D01*
X26140777Y-52174724D01*
X26114073Y-52185785D01*
X26085169Y-52214689D01*
X26056265Y-52243594D01*
X26056264Y-52243595D01*
X26052278Y-52247580D01*
X26046846Y-52253012D01*
X26024084Y-52262437D01*
X26012198Y-52267360D01*
X26012196Y-52267359D01*
X26012196Y-52267360D01*
X26012195Y-52267359D01*
X26002643Y-52266419D01*
X25982621Y-52262437D01*
X25967855Y-52259500D01*
X25967853Y-52259500D01*
X25452149Y-52259500D01*
X25452148Y-52259500D01*
X25452146Y-52259501D01*
X25437383Y-52262437D01*
X25414080Y-52267071D01*
X25414076Y-52267073D01*
X25370912Y-52295914D01*
X25342072Y-52339077D01*
X25342071Y-52339080D01*
X25342071Y-52339081D01*
X25334500Y-52377145D01*
X25334500Y-52377147D01*
X25334500Y-52377148D01*
X25334500Y-52419601D01*
X25320149Y-52454250D01*
X25285501Y-52468602D01*
X25285500Y-52468601D01*
X25285500Y-52468602D01*
X25250852Y-52454251D01*
X25250851Y-52454250D01*
X25206406Y-52409805D01*
X24510749Y-51714148D01*
X24496397Y-51679500D01*
X24510749Y-51644852D01*
X24545397Y-51630500D01*
X24695875Y-51630500D01*
X24695877Y-51630500D01*
X24727162Y-51617541D01*
X24771406Y-51599215D01*
X24812194Y-51558426D01*
X24846841Y-51544074D01*
X24859521Y-51545743D01*
X24871981Y-51549082D01*
X24877272Y-51550500D01*
X24877273Y-51550500D01*
X24982730Y-51550500D01*
X24982730Y-51550499D01*
X25084587Y-51523207D01*
X25175913Y-51470480D01*
X25250480Y-51395913D01*
X25250481Y-51395910D01*
X25250852Y-51395540D01*
X25285500Y-51381188D01*
X25320148Y-51395540D01*
X25334500Y-51430188D01*
X25334500Y-51532850D01*
X25334501Y-51532854D01*
X25342071Y-51570919D01*
X25342072Y-51570920D01*
X25346655Y-51577781D01*
X25353968Y-51614564D01*
X25346655Y-51632219D01*
X25342071Y-51639079D01*
X25334500Y-51677147D01*
X25334500Y-51882850D01*
X25334501Y-51882854D01*
X25342071Y-51920919D01*
X25342073Y-51920923D01*
X25370914Y-51964087D01*
X25414077Y-51992927D01*
X25414079Y-51992927D01*
X25414081Y-51992929D01*
X25452145Y-52000500D01*
X25639330Y-52000499D01*
X25658080Y-52004228D01*
X25661151Y-52005500D01*
X25661153Y-52005500D01*
X25752848Y-52005500D01*
X25752849Y-52005500D01*
X25755915Y-52004229D01*
X25774669Y-52000499D01*
X25967851Y-52000499D01*
X25967854Y-52000499D01*
X26005919Y-51992929D01*
X26049086Y-51964086D01*
X26077929Y-51920919D01*
X26085500Y-51882855D01*
X26085500Y-51879501D01*
X26099852Y-51844853D01*
X26134500Y-51830501D01*
X26195849Y-51830501D01*
X26195850Y-51830501D01*
X26245476Y-51809944D01*
X26245604Y-51809890D01*
X26277148Y-51807787D01*
X26279378Y-51808384D01*
X26287271Y-51810500D01*
X26287273Y-51810500D01*
X26392730Y-51810500D01*
X26392730Y-51810499D01*
X26494587Y-51783207D01*
X26585913Y-51730480D01*
X26660480Y-51655913D01*
X26713207Y-51564587D01*
X26740499Y-51462730D01*
X26740500Y-51462730D01*
X26740500Y-51357270D01*
X26740499Y-51357269D01*
X26722228Y-51289079D01*
X26713207Y-51255413D01*
X26713206Y-51255412D01*
X26713206Y-51255410D01*
X26660479Y-51164086D01*
X26626041Y-51129648D01*
X26611689Y-51095000D01*
X26626041Y-51060352D01*
X26660479Y-51025914D01*
X26660480Y-51025913D01*
X26713207Y-50934587D01*
X26740499Y-50832730D01*
X26740500Y-50832730D01*
X26740500Y-50727270D01*
X26740499Y-50727269D01*
X26718700Y-50645913D01*
X26713207Y-50625413D01*
X26689296Y-50583999D01*
X26684402Y-50546818D01*
X26707232Y-50517065D01*
X26731732Y-50510500D01*
X30407831Y-50510500D01*
X30442479Y-50524852D01*
X30834033Y-50916406D01*
X30891842Y-50974215D01*
X30936086Y-50992541D01*
X30967371Y-51005500D01*
X30967372Y-51005500D01*
X30967373Y-51005500D01*
X33740875Y-51005500D01*
X33740877Y-51005500D01*
X33772162Y-50992541D01*
X33816406Y-50974215D01*
X33874215Y-50916406D01*
X33982195Y-50808424D01*
X34016841Y-50794074D01*
X34029522Y-50795743D01*
X34039733Y-50798479D01*
X34047272Y-50800500D01*
X34047273Y-50800500D01*
X34152730Y-50800500D01*
X34152730Y-50800499D01*
X34254587Y-50773207D01*
X34345913Y-50720480D01*
X34420480Y-50645913D01*
X34473207Y-50554587D01*
X34500499Y-50452730D01*
X34500500Y-50452730D01*
X34500500Y-50347270D01*
X34500499Y-50347269D01*
X34473207Y-50245414D01*
X34473206Y-50245410D01*
X34434160Y-50177781D01*
X34420480Y-50154087D01*
X34345913Y-50079520D01*
X34254589Y-50026793D01*
X34254585Y-50026792D01*
X34152730Y-49999500D01*
X34152727Y-49999500D01*
X34047273Y-49999500D01*
X34047270Y-49999500D01*
X33945414Y-50026792D01*
X33945410Y-50026793D01*
X33854086Y-50079520D01*
X33854086Y-50079521D01*
X33779521Y-50154086D01*
X33779520Y-50154086D01*
X33726793Y-50245410D01*
X33726792Y-50245414D01*
X33699500Y-50347269D01*
X33699500Y-50452727D01*
X33704255Y-50470476D01*
X33703390Y-50477039D01*
X33705924Y-50483156D01*
X33701028Y-50494976D01*
X33699358Y-50507658D01*
X33691572Y-50517805D01*
X33629230Y-50580148D01*
X33594584Y-50594500D01*
X31588845Y-50594500D01*
X31554197Y-50580148D01*
X31539845Y-50545500D01*
X31546409Y-50521002D01*
X31573207Y-50474587D01*
X31600499Y-50372730D01*
X31600500Y-50372730D01*
X31600500Y-50325030D01*
X31614852Y-50290382D01*
X31649500Y-50276030D01*
X31662179Y-50277699D01*
X31701382Y-50288203D01*
X31747271Y-50300500D01*
X31747273Y-50300500D01*
X31852730Y-50300500D01*
X31852730Y-50300499D01*
X31954587Y-50273207D01*
X32045913Y-50220480D01*
X32120480Y-50145913D01*
X32173207Y-50054587D01*
X32200499Y-49952730D01*
X32200500Y-49952730D01*
X32200500Y-49847270D01*
X32200499Y-49847269D01*
X32183238Y-49782850D01*
X32173207Y-49745413D01*
X32173206Y-49745412D01*
X32173206Y-49745410D01*
X32120479Y-49654086D01*
X32095541Y-49629148D01*
X32081189Y-49594500D01*
X32095541Y-49559852D01*
X32130189Y-49545500D01*
X34700500Y-49545500D01*
X34735148Y-49559852D01*
X34749500Y-49594500D01*
X34749500Y-49652730D01*
X34776792Y-49754585D01*
X34776793Y-49754589D01*
X34829520Y-49845913D01*
X34904087Y-49920480D01*
X34915633Y-49927146D01*
X34995410Y-49973206D01*
X34995412Y-49973206D01*
X34995413Y-49973207D01*
X35022180Y-49980379D01*
X35097269Y-50000499D01*
X35097270Y-50000500D01*
X35097273Y-50000500D01*
X35202730Y-50000500D01*
X35202730Y-50000499D01*
X35304587Y-49973207D01*
X35395913Y-49920480D01*
X35470480Y-49845913D01*
X35523207Y-49754587D01*
X35550499Y-49652730D01*
X35550500Y-49652730D01*
X35550500Y-49547270D01*
X35550499Y-49547269D01*
X35538422Y-49502198D01*
X35523207Y-49445413D01*
X35523206Y-49445412D01*
X35523206Y-49445410D01*
X35470479Y-49354086D01*
X35465541Y-49349148D01*
X35451189Y-49314500D01*
X35465541Y-49279852D01*
X35500189Y-49265500D01*
X36354583Y-49265500D01*
X36389231Y-49279852D01*
X36591572Y-49482193D01*
X36605924Y-49516841D01*
X36604255Y-49529520D01*
X36599500Y-49547270D01*
X36599500Y-49652730D01*
X36626792Y-49754585D01*
X36626793Y-49754589D01*
X36679520Y-49845913D01*
X36754087Y-49920480D01*
X36765633Y-49927146D01*
X36845410Y-49973206D01*
X36845412Y-49973206D01*
X36845413Y-49973207D01*
X36872180Y-49980379D01*
X36947269Y-50000499D01*
X36947270Y-50000500D01*
X36947273Y-50000500D01*
X37052730Y-50000500D01*
X37052730Y-50000499D01*
X37154587Y-49973207D01*
X37245913Y-49920480D01*
X37320480Y-49845913D01*
X37373207Y-49754587D01*
X37400499Y-49652730D01*
X37400500Y-49652730D01*
X37400500Y-49547270D01*
X37400499Y-49547269D01*
X37388422Y-49502198D01*
X37373207Y-49445413D01*
X37373206Y-49445412D01*
X37373206Y-49445410D01*
X37320479Y-49354086D01*
X37245913Y-49279520D01*
X37154589Y-49226793D01*
X37154585Y-49226792D01*
X37052730Y-49199500D01*
X37052727Y-49199500D01*
X36947273Y-49199500D01*
X36947271Y-49199500D01*
X36929520Y-49204255D01*
X36892338Y-49199358D01*
X36882193Y-49191572D01*
X36759769Y-49069148D01*
X36745417Y-49034500D01*
X36759769Y-48999852D01*
X36794417Y-48985500D01*
X37934583Y-48985500D01*
X37969231Y-48999852D01*
X38501572Y-49532193D01*
X38515924Y-49566841D01*
X38514255Y-49579520D01*
X38509500Y-49597270D01*
X38509500Y-49702730D01*
X38536792Y-49804585D01*
X38536793Y-49804589D01*
X38589520Y-49895913D01*
X38664087Y-49970480D01*
X38681233Y-49980379D01*
X38755410Y-50023206D01*
X38755412Y-50023206D01*
X38755413Y-50023207D01*
X38835747Y-50044732D01*
X38857269Y-50050499D01*
X38857270Y-50050500D01*
X38857273Y-50050500D01*
X38962730Y-50050500D01*
X38962730Y-50050499D01*
X39064587Y-50023207D01*
X39155913Y-49970480D01*
X39230480Y-49895913D01*
X39283207Y-49804587D01*
X39310499Y-49702730D01*
X39310500Y-49702730D01*
X39310500Y-49597270D01*
X39310499Y-49597269D01*
X39292346Y-49529520D01*
X39283207Y-49495413D01*
X39283206Y-49495412D01*
X39283206Y-49495410D01*
X39230479Y-49404086D01*
X39155913Y-49329520D01*
X39064589Y-49276793D01*
X39064585Y-49276792D01*
X38962730Y-49249500D01*
X38962727Y-49249500D01*
X38857273Y-49249500D01*
X38857271Y-49249500D01*
X38839520Y-49254255D01*
X38802338Y-49249358D01*
X38792193Y-49241572D01*
X38439769Y-48889148D01*
X38425417Y-48854500D01*
X38439769Y-48819852D01*
X38474417Y-48805500D01*
X38930875Y-48805500D01*
X38930877Y-48805500D01*
X38981645Y-48784471D01*
X39006406Y-48774215D01*
X39064215Y-48716406D01*
X39522466Y-48258153D01*
X39557113Y-48243802D01*
X39591761Y-48258154D01*
X39654087Y-48320480D01*
X39669998Y-48329666D01*
X39745410Y-48373206D01*
X39745412Y-48373206D01*
X39745413Y-48373207D01*
X39824880Y-48394500D01*
X39847269Y-48400499D01*
X39847270Y-48400500D01*
X39847273Y-48400500D01*
X39952730Y-48400500D01*
X39952730Y-48400499D01*
X40054587Y-48373207D01*
X40145913Y-48320480D01*
X40220480Y-48245913D01*
X40273207Y-48154587D01*
X40300499Y-48052730D01*
X40300500Y-48052730D01*
X40300500Y-47947270D01*
X40300499Y-47947269D01*
X40273207Y-47845414D01*
X40273206Y-47845410D01*
X40220479Y-47754086D01*
X40145913Y-47679520D01*
X40054589Y-47626793D01*
X40054585Y-47626792D01*
X39952730Y-47599500D01*
X39952727Y-47599500D01*
X39847273Y-47599500D01*
X39847272Y-47599500D01*
X39799988Y-47612168D01*
X39768557Y-47610107D01*
X39730880Y-47594501D01*
X39730878Y-47594500D01*
X39730877Y-47594500D01*
X39649123Y-47594500D01*
X39649121Y-47594500D01*
X39573591Y-47625787D01*
X39573590Y-47625787D01*
X38819231Y-48380148D01*
X38784583Y-48394500D01*
X38361397Y-48394500D01*
X38326749Y-48380148D01*
X38272386Y-48325785D01*
X38213592Y-48301432D01*
X38196858Y-48294500D01*
X38196857Y-48294500D01*
X38196856Y-48294500D01*
X33677298Y-48294500D01*
X33642650Y-48280148D01*
X33628298Y-48245500D01*
X33634862Y-48221001D01*
X33673207Y-48154587D01*
X33700499Y-48052730D01*
X33700500Y-48052730D01*
X33700500Y-47947270D01*
X33700499Y-47947269D01*
X33673207Y-47845414D01*
X33673206Y-47845410D01*
X33620479Y-47754086D01*
X33545913Y-47679520D01*
X33454589Y-47626793D01*
X33454585Y-47626792D01*
X33352730Y-47599500D01*
X33352727Y-47599500D01*
X33247273Y-47599500D01*
X33247270Y-47599500D01*
X33145414Y-47626792D01*
X33145410Y-47626793D01*
X33054086Y-47679520D01*
X33054086Y-47679521D01*
X32979521Y-47754086D01*
X32979520Y-47754086D01*
X32926793Y-47845410D01*
X32926792Y-47845414D01*
X32899500Y-47947269D01*
X32899500Y-47965500D01*
X32885148Y-48000148D01*
X32850500Y-48014500D01*
X29557273Y-48014500D01*
X29522625Y-48000148D01*
X29101625Y-47579148D01*
X29087273Y-47544500D01*
X29101625Y-47509852D01*
X29136273Y-47495500D01*
X35673362Y-47495500D01*
X35708010Y-47509852D01*
X35720692Y-47531818D01*
X35726792Y-47554586D01*
X35726793Y-47554589D01*
X35768481Y-47626793D01*
X35779520Y-47645913D01*
X35854087Y-47720480D01*
X35887513Y-47739778D01*
X35945410Y-47773206D01*
X35945412Y-47773206D01*
X35945413Y-47773207D01*
X36025747Y-47794732D01*
X36047269Y-47800499D01*
X36047270Y-47800500D01*
X36047273Y-47800500D01*
X36152730Y-47800500D01*
X36152730Y-47800499D01*
X36254587Y-47773207D01*
X36345913Y-47720480D01*
X36420480Y-47645913D01*
X36473207Y-47554587D01*
X36500499Y-47452730D01*
X36500500Y-47452730D01*
X36500500Y-47347270D01*
X36500499Y-47347269D01*
X36473207Y-47245414D01*
X36473206Y-47245410D01*
X36420479Y-47154086D01*
X36350541Y-47084148D01*
X36336189Y-47049500D01*
X36350541Y-47014852D01*
X36385189Y-47000500D01*
X46550500Y-47000500D01*
X46585148Y-47014852D01*
G37*
G04 #@! TD.AperFunction*
G04 #@! TA.AperFunction,Conductor*
G36*
X25083474Y-47003771D02*
G01*
X25092015Y-47003339D01*
X25100127Y-47010669D01*
X25110225Y-47014852D01*
X25113496Y-47022750D01*
X25119841Y-47028483D01*
X25120393Y-47039401D01*
X25124577Y-47049500D01*
X25121305Y-47057397D01*
X25121738Y-47065938D01*
X25114407Y-47074050D01*
X25110225Y-47084148D01*
X25097752Y-47092482D01*
X25096594Y-47093764D01*
X25095483Y-47094291D01*
X25087838Y-47097458D01*
X25043594Y-47115785D01*
X25043593Y-47115786D01*
X25037607Y-47121771D01*
X25037606Y-47121772D01*
X24706652Y-47452727D01*
X24388094Y-47771285D01*
X24358880Y-47800499D01*
X24330285Y-47829094D01*
X24299001Y-47904620D01*
X24299000Y-47904626D01*
X24299000Y-48025299D01*
X24284648Y-48059947D01*
X24250000Y-48074299D01*
X24225500Y-48067734D01*
X24154589Y-48026793D01*
X24154585Y-48026792D01*
X24052730Y-47999500D01*
X24052727Y-47999500D01*
X23947273Y-47999500D01*
X23947270Y-47999500D01*
X23845414Y-48026792D01*
X23845410Y-48026793D01*
X23754086Y-48079520D01*
X23754086Y-48079521D01*
X23679521Y-48154086D01*
X23679520Y-48154086D01*
X23626793Y-48245410D01*
X23626792Y-48245414D01*
X23599500Y-48347269D01*
X23599500Y-48452730D01*
X23627624Y-48557689D01*
X23626914Y-48557878D01*
X23629500Y-48570868D01*
X23629500Y-48719812D01*
X23615148Y-48754460D01*
X23597899Y-48763690D01*
X23598536Y-48765227D01*
X23594076Y-48767073D01*
X23550912Y-48795914D01*
X23522072Y-48839077D01*
X23522071Y-48839080D01*
X23514500Y-48877147D01*
X23514500Y-49082850D01*
X23514501Y-49082854D01*
X23522071Y-49120919D01*
X23522072Y-49120920D01*
X23526655Y-49127781D01*
X23533968Y-49164564D01*
X23526655Y-49182219D01*
X23522071Y-49189079D01*
X23519053Y-49204255D01*
X23514571Y-49226792D01*
X23514500Y-49227147D01*
X23514500Y-49432850D01*
X23514501Y-49432854D01*
X23522071Y-49470919D01*
X23522072Y-49470920D01*
X23526655Y-49477781D01*
X23533968Y-49514564D01*
X23526655Y-49532219D01*
X23522071Y-49539079D01*
X23519462Y-49552198D01*
X23516550Y-49566841D01*
X23514500Y-49577147D01*
X23514500Y-49782850D01*
X23514501Y-49782854D01*
X23522071Y-49820919D01*
X23522072Y-49820920D01*
X23526655Y-49827781D01*
X23533968Y-49864564D01*
X23526655Y-49882219D01*
X23522071Y-49889079D01*
X23514500Y-49927147D01*
X23514500Y-50132850D01*
X23514501Y-50132854D01*
X23522071Y-50170919D01*
X23522072Y-50170920D01*
X23526655Y-50177781D01*
X23533968Y-50214564D01*
X23526655Y-50232219D01*
X23522071Y-50239079D01*
X23520811Y-50245414D01*
X23515284Y-50273207D01*
X23514500Y-50277147D01*
X23514500Y-50482850D01*
X23514501Y-50482854D01*
X23522071Y-50520919D01*
X23523414Y-50522929D01*
X23526655Y-50527781D01*
X23533968Y-50564564D01*
X23526655Y-50582219D01*
X23522071Y-50589079D01*
X23522071Y-50589081D01*
X23514845Y-50625414D01*
X23514500Y-50627147D01*
X23514500Y-50832850D01*
X23514501Y-50832854D01*
X23522071Y-50870919D01*
X23522072Y-50870920D01*
X23526655Y-50877781D01*
X23533968Y-50914564D01*
X23526655Y-50932219D01*
X23522071Y-50939079D01*
X23522071Y-50939081D01*
X23515084Y-50974213D01*
X23514500Y-50977147D01*
X23514500Y-51182850D01*
X23514501Y-51182854D01*
X23522071Y-51220919D01*
X23522072Y-51220920D01*
X23526655Y-51227781D01*
X23533968Y-51264564D01*
X23526655Y-51282219D01*
X23522071Y-51289079D01*
X23514500Y-51327147D01*
X23514500Y-51532850D01*
X23514501Y-51532854D01*
X23522071Y-51570919D01*
X23522072Y-51570920D01*
X23526655Y-51577781D01*
X23533968Y-51614564D01*
X23526655Y-51632219D01*
X23522071Y-51639079D01*
X23514500Y-51677147D01*
X23514500Y-51882850D01*
X23514501Y-51882854D01*
X23522071Y-51920919D01*
X23522073Y-51920923D01*
X23550914Y-51964087D01*
X23594077Y-51992927D01*
X23594079Y-51992927D01*
X23594081Y-51992929D01*
X23632145Y-52000500D01*
X24147854Y-52000499D01*
X24178892Y-51994326D01*
X24215672Y-52001644D01*
X24223096Y-52007737D01*
X24870148Y-52654789D01*
X24884500Y-52689437D01*
X24884500Y-53469127D01*
X24888401Y-53478542D01*
X24888798Y-53479500D01*
X24915785Y-53544654D01*
X24915786Y-53544655D01*
X25172537Y-53801406D01*
X25230346Y-53859215D01*
X25274590Y-53877541D01*
X25305875Y-53890500D01*
X25305876Y-53890500D01*
X25353191Y-53890500D01*
X25357487Y-53891271D01*
X25369879Y-53899218D01*
X25383479Y-53904852D01*
X25385221Y-53909058D01*
X25389055Y-53911517D01*
X25392197Y-53925899D01*
X25397831Y-53939500D01*
X25396088Y-53943707D01*
X25397060Y-53948156D01*
X25389112Y-53960548D01*
X25383479Y-53974148D01*
X25251702Y-54105924D01*
X25251701Y-54105924D01*
X25251702Y-54105925D01*
X25200782Y-54156845D01*
X25198102Y-54160856D01*
X25197573Y-54160502D01*
X25191415Y-54169714D01*
X25110982Y-54250148D01*
X25076336Y-54264500D01*
X24893665Y-54264500D01*
X24859017Y-54250148D01*
X24729852Y-54120983D01*
X24715500Y-54086335D01*
X24715500Y-52779124D01*
X24715499Y-52779121D01*
X24710392Y-52766792D01*
X24710391Y-52766791D01*
X24686286Y-52708594D01*
X24684215Y-52703594D01*
X24626406Y-52645785D01*
X24281407Y-52300786D01*
X24281406Y-52300785D01*
X24237162Y-52282458D01*
X24237161Y-52282457D01*
X24205877Y-52269500D01*
X24205876Y-52269500D01*
X24201530Y-52269500D01*
X24190782Y-52267361D01*
X24190653Y-52268013D01*
X24185919Y-52267071D01*
X24147855Y-52259500D01*
X24147852Y-52259500D01*
X23632149Y-52259500D01*
X23632148Y-52259500D01*
X23632146Y-52259501D01*
X23617383Y-52262437D01*
X23594080Y-52267071D01*
X23594076Y-52267073D01*
X23550912Y-52295914D01*
X23522072Y-52339077D01*
X23522071Y-52339080D01*
X23514500Y-52377147D01*
X23514500Y-52582850D01*
X23514501Y-52582854D01*
X23522071Y-52620919D01*
X23522072Y-52620920D01*
X23526655Y-52627781D01*
X23533968Y-52664564D01*
X23532570Y-52669962D01*
X23530470Y-52676509D01*
X23522071Y-52689081D01*
X23514934Y-52724959D01*
X23514081Y-52727622D01*
X23510046Y-52732382D01*
X23502070Y-52747307D01*
X23484149Y-52765229D01*
X23449501Y-52779582D01*
X23414853Y-52765231D01*
X23400500Y-52730583D01*
X23400500Y-47049500D01*
X23414852Y-47014852D01*
X23449500Y-47000500D01*
X25075577Y-47000500D01*
X25083474Y-47003771D01*
G37*
G04 #@! TD.AperFunction*
G04 #@! TD*
M02*
