G04 #@! TF.GenerationSoftware,KiCad,Pcbnew,8.0.8*
G04 #@! TF.CreationDate,2025-02-16T13:22:27-05:00*
G04 #@! TF.ProjectId,panel,70616e65-6c2e-46b6-9963-61645f706362,v0.1.0*
G04 #@! TF.SameCoordinates,Original*
G04 #@! TF.FileFunction,Soldermask,Top*
G04 #@! TF.FilePolarity,Negative*
%FSLAX46Y46*%
G04 Gerber Fmt 4.6, Leading zero omitted, Abs format (unit mm)*
G04 Created by KiCad (PCBNEW 8.0.8) date 2025-02-16 13:22:27*
%MOMM*%
%LPD*%
G01*
G04 APERTURE LIST*
G04 Aperture macros list*
%AMRoundRect*
0 Rectangle with rounded corners*
0 $1 Rounding radius*
0 $2 $3 $4 $5 $6 $7 $8 $9 X,Y pos of 4 corners*
0 Add a 4 corners polygon primitive as box body*
4,1,4,$2,$3,$4,$5,$6,$7,$8,$9,$2,$3,0*
0 Add four circle primitives for the rounded corners*
1,1,$1+$1,$2,$3*
1,1,$1+$1,$4,$5*
1,1,$1+$1,$6,$7*
1,1,$1+$1,$8,$9*
0 Add four rect primitives between the rounded corners*
20,1,$1+$1,$2,$3,$4,$5,0*
20,1,$1+$1,$4,$5,$6,$7,0*
20,1,$1+$1,$6,$7,$8,$9,0*
20,1,$1+$1,$8,$9,$2,$3,0*%
G04 Aperture macros list end*
%ADD10RoundRect,0.375000X-0.375000X-1.125000X0.375000X-1.125000X0.375000X1.125000X-0.375000X1.125000X0*%
%ADD11C,0.500000*%
%ADD12RoundRect,0.250000X-0.250000X-0.750000X0.250000X-0.750000X0.250000X0.750000X-0.250000X0.750000X0*%
%ADD13C,2.000000*%
%ADD14C,1.152000*%
G04 APERTURE END LIST*
D10*
G04 #@! TO.C,J13*
X14800000Y-41700000D03*
G04 #@! TD*
D11*
G04 #@! TO.C,KiKit_MB_17_4*
X8000000Y-2500000D03*
G04 #@! TD*
G04 #@! TO.C,KiKit_MB_14_3*
X32030000Y-45100000D03*
G04 #@! TD*
G04 #@! TO.C,KiKit_MB_19_2*
X8000000Y-52233333D03*
G04 #@! TD*
G04 #@! TO.C,KiKit_MB_18_1*
X32000000Y0D03*
G04 #@! TD*
G04 #@! TO.C,KiKit_MB_18_2*
X32000000Y-833334D03*
G04 #@! TD*
D12*
G04 #@! TO.C,J18*
X24900000Y-30600000D03*
G04 #@! TD*
D11*
G04 #@! TO.C,KiKit_MB_21_4*
X2500000Y-8000000D03*
G04 #@! TD*
G04 #@! TO.C,KiKit_MB_10_3*
X32030000Y-34500000D03*
G04 #@! TD*
G04 #@! TO.C,KiKit_MB_7_3*
X21000000Y-18570000D03*
G04 #@! TD*
D10*
G04 #@! TO.C,J2*
X12000000Y-46500000D03*
G04 #@! TD*
D12*
G04 #@! TO.C,J4*
X17300000Y-47000000D03*
G04 #@! TD*
D11*
G04 #@! TO.C,KiKit_MB_2_1*
X32030000Y-11300000D03*
G04 #@! TD*
D12*
G04 #@! TO.C,J20*
X28700000Y-20000000D03*
G04 #@! TD*
G04 #@! TO.C,J18*
X24900000Y-9400000D03*
G04 #@! TD*
D11*
G04 #@! TO.C,KiKit_MB_3_2*
X20000000Y-7970000D03*
G04 #@! TD*
G04 #@! TO.C,KiKit_MB_23_6*
X39166666Y-8000000D03*
G04 #@! TD*
G04 #@! TO.C,KiKit_MB_16_2*
X20000000Y-48430000D03*
G04 #@! TD*
D10*
G04 #@! TO.C,J21*
X30700000Y-20500000D03*
G04 #@! TD*
D12*
G04 #@! TO.C,J5*
X19200000Y-36400000D03*
G04 #@! TD*
G04 #@! TO.C,J19*
X26800000Y-9400000D03*
G04 #@! TD*
D11*
G04 #@! TO.C,KiKit_MB_3_1*
X19000000Y-7970000D03*
G04 #@! TD*
G04 #@! TO.C,KiKit_MB_23_2*
X35833333Y-8000000D03*
G04 #@! TD*
G04 #@! TO.C,KiKit_MB_24_3*
X36666666Y-48400000D03*
G04 #@! TD*
D12*
G04 #@! TO.C,J15*
X19200000Y-41200000D03*
G04 #@! TD*
D11*
G04 #@! TO.C,KiKit_MB_7_1*
X19000000Y-18570000D03*
G04 #@! TD*
D12*
G04 #@! TO.C,J10*
X28700000Y-47000000D03*
G04 #@! TD*
D11*
G04 #@! TO.C,KiKit_MB_16_1*
X21000000Y-48430000D03*
G04 #@! TD*
D10*
G04 #@! TO.C,J21*
X30700000Y-31100000D03*
G04 #@! TD*
D11*
G04 #@! TO.C,KiKit_MB_20_6*
X32000000Y-55566666D03*
G04 #@! TD*
G04 #@! TO.C,KiKit_MB_21_7*
X5000000Y-8000000D03*
G04 #@! TD*
D12*
G04 #@! TO.C,J10*
X28700000Y-36400000D03*
G04 #@! TD*
D11*
G04 #@! TO.C,KiKit_MB_11_1*
X19000000Y-29170000D03*
G04 #@! TD*
G04 #@! TO.C,KiKit_MB_24_5*
X38333333Y-48400000D03*
G04 #@! TD*
D13*
G04 #@! TO.C,KiKit_FID_T_2*
X30000000Y-3850000D03*
G04 #@! TD*
D10*
G04 #@! TO.C,J11*
X30700000Y-25300000D03*
G04 #@! TD*
D11*
G04 #@! TO.C,KiKit_MB_18_5*
X32000000Y-3333334D03*
G04 #@! TD*
D12*
G04 #@! TO.C,J8*
X24900000Y-25800000D03*
G04 #@! TD*
D11*
G04 #@! TO.C,KiKit_MB_17_3*
X8000000Y-1666667D03*
G04 #@! TD*
D12*
G04 #@! TO.C,J9*
X26800000Y-25800000D03*
G04 #@! TD*
D11*
G04 #@! TO.C,KiKit_MB_15_1*
X19000000Y-39770000D03*
G04 #@! TD*
D12*
G04 #@! TO.C,J6*
X21100000Y-47000000D03*
G04 #@! TD*
G04 #@! TO.C,J8*
X24900000Y-47000000D03*
G04 #@! TD*
G04 #@! TO.C,J10*
X28700000Y-15200000D03*
G04 #@! TD*
G04 #@! TO.C,J20*
X28700000Y-9400000D03*
G04 #@! TD*
D11*
G04 #@! TO.C,KiKit_MB_5_1*
X7970000Y-23900000D03*
G04 #@! TD*
G04 #@! TO.C,KiKit_MB_9_3*
X7970000Y-32500000D03*
G04 #@! TD*
G04 #@! TO.C,KiKit_MB_17_2*
X8000000Y-833334D03*
G04 #@! TD*
G04 #@! TO.C,KiKit_MB_6_2*
X32030000Y-22900000D03*
G04 #@! TD*
G04 #@! TO.C,KiKit_MB_13_2*
X7970000Y-44100000D03*
G04 #@! TD*
G04 #@! TO.C,KiKit_MB_24_7*
X40000000Y-48400000D03*
G04 #@! TD*
G04 #@! TO.C,KiKit_MB_1_2*
X7970000Y-12300000D03*
G04 #@! TD*
G04 #@! TO.C,KiKit_MB_22_2*
X833334Y-48400000D03*
G04 #@! TD*
D12*
G04 #@! TO.C,J18*
X24900000Y-20000000D03*
G04 #@! TD*
D11*
G04 #@! TO.C,KiKit_MB_6_1*
X32030000Y-21900000D03*
G04 #@! TD*
G04 #@! TO.C,KiKit_MB_24_4*
X37500000Y-48400000D03*
G04 #@! TD*
D12*
G04 #@! TO.C,J4*
X17300000Y-15200000D03*
G04 #@! TD*
G04 #@! TO.C,J9*
X26800000Y-36400000D03*
G04 #@! TD*
G04 #@! TO.C,J8*
X24900000Y-36400000D03*
G04 #@! TD*
D11*
G04 #@! TO.C,KiKit_MB_17_6*
X8000000Y-4166667D03*
G04 #@! TD*
G04 #@! TO.C,KiKit_MB_20_7*
X32000000Y-56400000D03*
G04 #@! TD*
G04 #@! TO.C,KiKit_MB_13_3*
X7970000Y-43100000D03*
G04 #@! TD*
D14*
G04 #@! TO.C,KiKit_TO_1*
X2000000Y-2000000D03*
G04 #@! TD*
D11*
G04 #@! TO.C,KiKit_MB_6_3*
X32030000Y-23900000D03*
G04 #@! TD*
G04 #@! TO.C,KiKit_MB_9_2*
X7970000Y-33500000D03*
G04 #@! TD*
D13*
G04 #@! TO.C,KiKit_FID_T_1*
X10000000Y-3850000D03*
G04 #@! TD*
D11*
G04 #@! TO.C,KiKit_MB_20_1*
X32000000Y-51400000D03*
G04 #@! TD*
G04 #@! TO.C,KiKit_MB_4_1*
X21000000Y-16630000D03*
G04 #@! TD*
G04 #@! TO.C,KiKit_MB_2_3*
X32030000Y-13300000D03*
G04 #@! TD*
D13*
G04 #@! TO.C,KiKit_FID_T_4*
X30000000Y-52550000D03*
G04 #@! TD*
D11*
G04 #@! TO.C,KiKit_MB_13_1*
X7970000Y-45100000D03*
G04 #@! TD*
D12*
G04 #@! TO.C,J6*
X21100000Y-25800000D03*
G04 #@! TD*
G04 #@! TO.C,J6*
X21100000Y-15200000D03*
G04 #@! TD*
D11*
G04 #@! TO.C,KiKit_MB_21_3*
X1666667Y-8000000D03*
G04 #@! TD*
G04 #@! TO.C,KiKit_MB_17_5*
X8000000Y-3333334D03*
G04 #@! TD*
G04 #@! TO.C,KiKit_MB_4_3*
X19000000Y-16630000D03*
G04 #@! TD*
G04 #@! TO.C,KiKit_MB_9_1*
X7970000Y-34500000D03*
G04 #@! TD*
G04 #@! TO.C,KiKit_MB_11_3*
X21000000Y-29170000D03*
G04 #@! TD*
G04 #@! TO.C,KiKit_MB_23_4*
X37500000Y-8000000D03*
G04 #@! TD*
D10*
G04 #@! TO.C,J3*
X14800000Y-25300000D03*
G04 #@! TD*
D11*
G04 #@! TO.C,KiKit_MB_24_1*
X35000000Y-48400000D03*
G04 #@! TD*
G04 #@! TO.C,KiKit_MB_15_3*
X21000000Y-39770000D03*
G04 #@! TD*
G04 #@! TO.C,KiKit_MB_7_2*
X20000000Y-18570000D03*
G04 #@! TD*
D12*
G04 #@! TO.C,J7*
X23000000Y-15200000D03*
G04 #@! TD*
D11*
G04 #@! TO.C,KiKit_MB_19_1*
X8000000Y-51400000D03*
G04 #@! TD*
D12*
G04 #@! TO.C,J20*
X28700000Y-41200000D03*
G04 #@! TD*
G04 #@! TO.C,J5*
X19200000Y-25800000D03*
G04 #@! TD*
D11*
G04 #@! TO.C,KiKit_MB_12_1*
X21000000Y-37830000D03*
G04 #@! TD*
D10*
G04 #@! TO.C,J2*
X12000000Y-25300000D03*
G04 #@! TD*
D11*
G04 #@! TO.C,KiKit_MB_19_7*
X8000000Y-56400000D03*
G04 #@! TD*
D12*
G04 #@! TO.C,J15*
X19200000Y-9400000D03*
G04 #@! TD*
G04 #@! TO.C,J14*
X17300000Y-30600000D03*
G04 #@! TD*
D11*
G04 #@! TO.C,KiKit_MB_23_3*
X36666666Y-8000000D03*
G04 #@! TD*
G04 #@! TO.C,KiKit_MB_10_1*
X32030000Y-32500000D03*
G04 #@! TD*
D12*
G04 #@! TO.C,J7*
X23000000Y-47000000D03*
G04 #@! TD*
D10*
G04 #@! TO.C,J12*
X12000000Y-41700000D03*
G04 #@! TD*
D11*
G04 #@! TO.C,KiKit_MB_1_3*
X7970000Y-11300000D03*
G04 #@! TD*
D10*
G04 #@! TO.C,J11*
X30700000Y-46500000D03*
G04 #@! TD*
D11*
G04 #@! TO.C,KiKit_MB_14_1*
X32030000Y-43100000D03*
G04 #@! TD*
G04 #@! TO.C,KiKit_MB_10_2*
X32030000Y-33500000D03*
G04 #@! TD*
D10*
G04 #@! TO.C,J2*
X12000000Y-35900000D03*
G04 #@! TD*
D11*
G04 #@! TO.C,KiKit_MB_20_5*
X32000000Y-54733333D03*
G04 #@! TD*
G04 #@! TO.C,KiKit_MB_20_4*
X32000000Y-53900000D03*
G04 #@! TD*
D10*
G04 #@! TO.C,J12*
X12000000Y-20500000D03*
G04 #@! TD*
G04 #@! TO.C,J2*
X12000000Y-14700000D03*
G04 #@! TD*
D12*
G04 #@! TO.C,J7*
X23000000Y-25800000D03*
G04 #@! TD*
D10*
G04 #@! TO.C,J3*
X14800000Y-14700000D03*
G04 #@! TD*
G04 #@! TO.C,J21*
X30700000Y-9900000D03*
G04 #@! TD*
G04 #@! TO.C,J3*
X14800000Y-35900000D03*
G04 #@! TD*
D11*
G04 #@! TO.C,KiKit_MB_12_2*
X20000000Y-37830000D03*
G04 #@! TD*
D12*
G04 #@! TO.C,J16*
X21100000Y-30600000D03*
G04 #@! TD*
D11*
G04 #@! TO.C,KiKit_MB_24_6*
X39166666Y-48400000D03*
G04 #@! TD*
D12*
G04 #@! TO.C,J20*
X28700000Y-30600000D03*
G04 #@! TD*
D14*
G04 #@! TO.C,KiKit_TO_2*
X38000000Y-2000000D03*
G04 #@! TD*
D11*
G04 #@! TO.C,KiKit_MB_18_3*
X32000000Y-1666667D03*
G04 #@! TD*
G04 #@! TO.C,KiKit_MB_21_6*
X4166667Y-8000000D03*
G04 #@! TD*
G04 #@! TO.C,KiKit_MB_22_4*
X2500000Y-48400000D03*
G04 #@! TD*
D12*
G04 #@! TO.C,J5*
X19200000Y-47000000D03*
G04 #@! TD*
G04 #@! TO.C,J17*
X23000000Y-41200000D03*
G04 #@! TD*
D11*
G04 #@! TO.C,KiKit_MB_19_4*
X8000000Y-53900000D03*
G04 #@! TD*
G04 #@! TO.C,KiKit_MB_20_2*
X32000000Y-52233333D03*
G04 #@! TD*
G04 #@! TO.C,KiKit_MB_12_3*
X19000000Y-37830000D03*
G04 #@! TD*
D12*
G04 #@! TO.C,J9*
X26800000Y-15200000D03*
G04 #@! TD*
G04 #@! TO.C,J10*
X28700000Y-25800000D03*
G04 #@! TD*
G04 #@! TO.C,J14*
X17300000Y-9400000D03*
G04 #@! TD*
G04 #@! TO.C,J15*
X19200000Y-20000000D03*
G04 #@! TD*
D11*
G04 #@! TO.C,KiKit_MB_22_7*
X5000000Y-48400000D03*
G04 #@! TD*
D12*
G04 #@! TO.C,J8*
X24900000Y-15200000D03*
G04 #@! TD*
G04 #@! TO.C,J15*
X19200000Y-30600000D03*
G04 #@! TD*
D11*
G04 #@! TO.C,KiKit_MB_23_7*
X40000000Y-8000000D03*
G04 #@! TD*
G04 #@! TO.C,KiKit_MB_23_5*
X38333333Y-8000000D03*
G04 #@! TD*
G04 #@! TO.C,KiKit_MB_24_2*
X35833333Y-48400000D03*
G04 #@! TD*
D10*
G04 #@! TO.C,J13*
X14800000Y-31100000D03*
G04 #@! TD*
D11*
G04 #@! TO.C,KiKit_MB_19_3*
X8000000Y-53066666D03*
G04 #@! TD*
D10*
G04 #@! TO.C,J13*
X14800000Y-9900000D03*
G04 #@! TD*
D12*
G04 #@! TO.C,J18*
X24900000Y-41200000D03*
G04 #@! TD*
D11*
G04 #@! TO.C,KiKit_MB_17_1*
X8000000Y0D03*
G04 #@! TD*
G04 #@! TO.C,KiKit_MB_21_1*
X0Y-8000000D03*
G04 #@! TD*
D12*
G04 #@! TO.C,J17*
X23000000Y-30600000D03*
G04 #@! TD*
D11*
G04 #@! TO.C,KiKit_MB_8_1*
X21000000Y-27230000D03*
G04 #@! TD*
D14*
G04 #@! TO.C,KiKit_TO_3*
X2000000Y-54400000D03*
G04 #@! TD*
D11*
G04 #@! TO.C,KiKit_MB_16_3*
X19000000Y-48430000D03*
G04 #@! TD*
D12*
G04 #@! TO.C,J17*
X23000000Y-20000000D03*
G04 #@! TD*
G04 #@! TO.C,J19*
X26800000Y-30600000D03*
G04 #@! TD*
G04 #@! TO.C,J14*
X17300000Y-41200000D03*
G04 #@! TD*
D11*
G04 #@! TO.C,KiKit_MB_18_4*
X32000000Y-2500000D03*
G04 #@! TD*
G04 #@! TO.C,KiKit_MB_17_7*
X8000000Y-5000000D03*
G04 #@! TD*
D12*
G04 #@! TO.C,J17*
X23000000Y-9400000D03*
G04 #@! TD*
D10*
G04 #@! TO.C,J13*
X14800000Y-20500000D03*
G04 #@! TD*
D12*
G04 #@! TO.C,J9*
X26800000Y-47000000D03*
G04 #@! TD*
D13*
G04 #@! TO.C,KiKit_FID_T_3*
X10000000Y-52550000D03*
G04 #@! TD*
D11*
G04 #@! TO.C,KiKit_MB_3_3*
X21000000Y-7970000D03*
G04 #@! TD*
D10*
G04 #@! TO.C,J21*
X30700000Y-41700000D03*
G04 #@! TD*
D11*
G04 #@! TO.C,KiKit_MB_5_2*
X7970000Y-22900000D03*
G04 #@! TD*
G04 #@! TO.C,KiKit_MB_18_6*
X32000000Y-4166667D03*
G04 #@! TD*
G04 #@! TO.C,KiKit_MB_22_3*
X1666667Y-48400000D03*
G04 #@! TD*
D12*
G04 #@! TO.C,J4*
X17300000Y-36400000D03*
G04 #@! TD*
D10*
G04 #@! TO.C,J12*
X12000000Y-31100000D03*
G04 #@! TD*
D12*
G04 #@! TO.C,J19*
X26800000Y-20000000D03*
G04 #@! TD*
D11*
G04 #@! TO.C,KiKit_MB_22_1*
X0Y-48400000D03*
G04 #@! TD*
D12*
G04 #@! TO.C,J16*
X21100000Y-20000000D03*
G04 #@! TD*
D11*
G04 #@! TO.C,KiKit_MB_1_1*
X7970000Y-13300000D03*
G04 #@! TD*
G04 #@! TO.C,KiKit_MB_21_5*
X3333334Y-8000000D03*
G04 #@! TD*
G04 #@! TO.C,KiKit_MB_4_2*
X20000000Y-16630000D03*
G04 #@! TD*
G04 #@! TO.C,KiKit_MB_18_7*
X32000000Y-5000000D03*
G04 #@! TD*
G04 #@! TO.C,KiKit_MB_11_2*
X20000000Y-29170000D03*
G04 #@! TD*
D12*
G04 #@! TO.C,J6*
X21100000Y-36400000D03*
G04 #@! TD*
D10*
G04 #@! TO.C,J3*
X14800000Y-46500000D03*
G04 #@! TD*
G04 #@! TO.C,J12*
X12000000Y-9900000D03*
G04 #@! TD*
D11*
G04 #@! TO.C,KiKit_MB_22_6*
X4166667Y-48400000D03*
G04 #@! TD*
G04 #@! TO.C,KiKit_MB_8_3*
X19000000Y-27230000D03*
G04 #@! TD*
G04 #@! TO.C,KiKit_MB_19_5*
X8000000Y-54733333D03*
G04 #@! TD*
G04 #@! TO.C,KiKit_MB_15_2*
X20000000Y-39770000D03*
G04 #@! TD*
D12*
G04 #@! TO.C,J14*
X17300000Y-20000000D03*
G04 #@! TD*
G04 #@! TO.C,J16*
X21100000Y-9400000D03*
G04 #@! TD*
G04 #@! TO.C,J5*
X19200000Y-15200000D03*
G04 #@! TD*
G04 #@! TO.C,J16*
X21100000Y-41200000D03*
G04 #@! TD*
D11*
G04 #@! TO.C,KiKit_MB_19_6*
X8000000Y-55566666D03*
G04 #@! TD*
G04 #@! TO.C,KiKit_MB_8_2*
X20000000Y-27230000D03*
G04 #@! TD*
G04 #@! TO.C,KiKit_MB_21_2*
X833334Y-8000000D03*
G04 #@! TD*
G04 #@! TO.C,KiKit_MB_20_3*
X32000000Y-53066666D03*
G04 #@! TD*
G04 #@! TO.C,KiKit_MB_22_5*
X3333334Y-48400000D03*
G04 #@! TD*
G04 #@! TO.C,KiKit_MB_14_2*
X32030000Y-44100000D03*
G04 #@! TD*
D10*
G04 #@! TO.C,J11*
X30700000Y-35900000D03*
G04 #@! TD*
D11*
G04 #@! TO.C,KiKit_MB_23_1*
X35000000Y-8000000D03*
G04 #@! TD*
D12*
G04 #@! TO.C,J4*
X17300000Y-25800000D03*
G04 #@! TD*
D11*
G04 #@! TO.C,KiKit_MB_2_2*
X32030000Y-12300000D03*
G04 #@! TD*
D12*
G04 #@! TO.C,J19*
X26800000Y-41200000D03*
G04 #@! TD*
D10*
G04 #@! TO.C,J11*
X30700000Y-14700000D03*
G04 #@! TD*
D11*
G04 #@! TO.C,KiKit_MB_5_3*
X7970000Y-21900000D03*
G04 #@! TD*
D12*
G04 #@! TO.C,J7*
X23000000Y-36400000D03*
G04 #@! TD*
M02*
