G04 #@! TF.GenerationSoftware,KiCad,Pcbnew,9.0.0*
G04 #@! TF.CreationDate,2025-02-22T21:50:31-05:00*
G04 #@! TF.ProjectId,panel,70616e65-6c2e-46b6-9963-61645f706362,v0.1.0*
G04 #@! TF.SameCoordinates,Original*
G04 #@! TF.FileFunction,Paste,Bot*
G04 #@! TF.FilePolarity,Positive*
%FSLAX46Y46*%
G04 Gerber Fmt 4.6, Leading zero omitted, Abs format (unit mm)*
G04 Created by KiCad (PCBNEW 9.0.0) date 2025-02-22 21:50:31*
%MOMM*%
%LPD*%
G01*
G04 APERTURE LIST*
%ADD10R,0.490000X0.180000*%
%ADD11R,0.540000X0.230000*%
G04 APERTURE END LIST*
D10*
G04 #@! TO.C,J1*
X10710000Y-14230000D03*
X10710000Y-13880000D03*
X10710000Y-13530000D03*
X10710000Y-13180000D03*
X10710000Y-12830000D03*
X10710000Y-12480000D03*
X10710000Y-12130000D03*
X10710000Y-11780000D03*
X10710000Y-11430000D03*
X10710000Y-11080000D03*
X10710000Y-10730000D03*
X10710000Y-10380000D03*
X8890000Y-10380000D03*
X8890000Y-10730000D03*
X8890000Y-11080000D03*
X8890000Y-11430000D03*
X8890000Y-11780000D03*
X8890000Y-12130000D03*
X8890000Y-12480000D03*
X8890000Y-12830000D03*
X8890000Y-13180000D03*
X8890000Y-13530000D03*
X8890000Y-13880000D03*
X8890000Y-14230000D03*
D11*
X10570000Y-14600000D03*
X9030000Y-14600000D03*
X10570000Y-10000000D03*
X9030000Y-10000000D03*
G04 #@! TD*
D10*
G04 #@! TO.C,J1*
X10710000Y-35430000D03*
X10710000Y-35080000D03*
X10710000Y-34730000D03*
X10710000Y-34380000D03*
X10710000Y-34030000D03*
X10710000Y-33680000D03*
X10710000Y-33330000D03*
X10710000Y-32980000D03*
X10710000Y-32630000D03*
X10710000Y-32280000D03*
X10710000Y-31930000D03*
X10710000Y-31580000D03*
X8890000Y-31580000D03*
X8890000Y-31930000D03*
X8890000Y-32280000D03*
X8890000Y-32630000D03*
X8890000Y-32980000D03*
X8890000Y-33330000D03*
X8890000Y-33680000D03*
X8890000Y-34030000D03*
X8890000Y-34380000D03*
X8890000Y-34730000D03*
X8890000Y-35080000D03*
X8890000Y-35430000D03*
D11*
X10570000Y-35800000D03*
X9030000Y-35800000D03*
X10570000Y-31200000D03*
X9030000Y-31200000D03*
G04 #@! TD*
D10*
G04 #@! TO.C,J1*
X10710000Y-24830000D03*
X10710000Y-24480000D03*
X10710000Y-24130000D03*
X10710000Y-23780000D03*
X10710000Y-23430000D03*
X10710000Y-23080000D03*
X10710000Y-22730000D03*
X10710000Y-22380000D03*
X10710000Y-22030000D03*
X10710000Y-21680000D03*
X10710000Y-21330000D03*
X10710000Y-20980000D03*
X8890000Y-20980000D03*
X8890000Y-21330000D03*
X8890000Y-21680000D03*
X8890000Y-22030000D03*
X8890000Y-22380000D03*
X8890000Y-22730000D03*
X8890000Y-23080000D03*
X8890000Y-23430000D03*
X8890000Y-23780000D03*
X8890000Y-24130000D03*
X8890000Y-24480000D03*
X8890000Y-24830000D03*
D11*
X10570000Y-25200000D03*
X9030000Y-25200000D03*
X10570000Y-20600000D03*
X9030000Y-20600000D03*
G04 #@! TD*
D10*
G04 #@! TO.C,J1*
X10710000Y-46030000D03*
X10710000Y-45680000D03*
X10710000Y-45330000D03*
X10710000Y-44980000D03*
X10710000Y-44630000D03*
X10710000Y-44280000D03*
X10710000Y-43930000D03*
X10710000Y-43580000D03*
X10710000Y-43230000D03*
X10710000Y-42880000D03*
X10710000Y-42530000D03*
X10710000Y-42180000D03*
X8890000Y-42180000D03*
X8890000Y-42530000D03*
X8890000Y-42880000D03*
X8890000Y-43230000D03*
X8890000Y-43580000D03*
X8890000Y-43930000D03*
X8890000Y-44280000D03*
X8890000Y-44630000D03*
X8890000Y-44980000D03*
X8890000Y-45330000D03*
X8890000Y-45680000D03*
X8890000Y-46030000D03*
D11*
X10570000Y-46400000D03*
X9030000Y-46400000D03*
X10570000Y-41800000D03*
X9030000Y-41800000D03*
G04 #@! TD*
M02*
