G04 #@! TF.GenerationSoftware,KiCad,Pcbnew,9.0.0*
G04 #@! TF.CreationDate,2025-02-22T22:51:47-05:00*
G04 #@! TF.ProjectId,panel,70616e65-6c2e-46b6-9963-61645f706362,v0.1.1*
G04 #@! TF.SameCoordinates,Original*
G04 #@! TF.FileFunction,Legend,Bot*
G04 #@! TF.FilePolarity,Positive*
%FSLAX46Y46*%
G04 Gerber Fmt 4.6, Leading zero omitted, Abs format (unit mm)*
G04 Created by KiCad (PCBNEW 9.0.0) date 2025-02-22 22:51:47*
%MOMM*%
%LPD*%
G01*
G04 APERTURE LIST*
%ADD10C,0.200000*%
%ADD11C,0.300000*%
%ADD12C,0.150000*%
G04 APERTURE END LIST*
D10*
G36*
X22822260Y-35215000D02*
G01*
X22891793Y-35068704D01*
X22967035Y-34888203D01*
X23037321Y-34696273D01*
X23106254Y-34480317D01*
X22885214Y-34480317D01*
X22852363Y-34598347D01*
X22813162Y-34726819D01*
X22772557Y-34853215D01*
X22732684Y-34964895D01*
X22693544Y-34853215D01*
X22652267Y-34726819D01*
X22613127Y-34598347D01*
X22580216Y-34480317D01*
X22364793Y-34480317D01*
X22433726Y-34696273D01*
X22504012Y-34888203D01*
X22579254Y-35068704D01*
X22648787Y-35215000D01*
X22822260Y-35215000D01*
G37*
G36*
X22005387Y-34226260D02*
G01*
X22053166Y-34237522D01*
X22097164Y-34255980D01*
X22137566Y-34281433D01*
X22174317Y-34313873D01*
X22207684Y-34353982D01*
X22235200Y-34398579D01*
X22258850Y-34450956D01*
X22278331Y-34512191D01*
X22296326Y-34609784D01*
X22302817Y-34727796D01*
X22295917Y-34852789D01*
X22276906Y-34954636D01*
X22247796Y-35037175D01*
X22209821Y-35103686D01*
X22169148Y-35151401D01*
X22123918Y-35187532D01*
X22073566Y-35213274D01*
X22017076Y-35229064D01*
X21953061Y-35234539D01*
X21889045Y-35229063D01*
X21832562Y-35213273D01*
X21782223Y-35187530D01*
X21737011Y-35151400D01*
X21696362Y-35103686D01*
X21658360Y-35037171D01*
X21629231Y-34954630D01*
X21610209Y-34852785D01*
X21603305Y-34727796D01*
X21815980Y-34727796D01*
X21817821Y-34798921D01*
X21823002Y-34860542D01*
X21832476Y-34918309D01*
X21845350Y-34963979D01*
X21864227Y-35003464D01*
X21887360Y-35031024D01*
X21916672Y-35048695D01*
X21953061Y-35054776D01*
X21989338Y-35048672D01*
X22018091Y-35031024D01*
X22040797Y-35003558D01*
X22060100Y-34963979D01*
X22073488Y-34918272D01*
X22083181Y-34860542D01*
X22088317Y-34798922D01*
X22090142Y-34727796D01*
X22088311Y-34656706D01*
X22083181Y-34595722D01*
X22073504Y-34538593D01*
X22060100Y-34493018D01*
X22040793Y-34453386D01*
X22018091Y-34425912D01*
X21989338Y-34408263D01*
X21953061Y-34402159D01*
X21916672Y-34408241D01*
X21887360Y-34425912D01*
X21864231Y-34453481D01*
X21845350Y-34493018D01*
X21832461Y-34538555D01*
X21823002Y-34595722D01*
X21817827Y-34656706D01*
X21815980Y-34727796D01*
X21603305Y-34727796D01*
X21610195Y-34603559D01*
X21629196Y-34502156D01*
X21658321Y-34419813D01*
X21696362Y-34353311D01*
X21737015Y-34305571D01*
X21782228Y-34269424D01*
X21832567Y-34243671D01*
X21889049Y-34227874D01*
X21953061Y-34222397D01*
X22005387Y-34226260D01*
G37*
G36*
X21253916Y-35105579D02*
G01*
X21258729Y-35145775D01*
X21272128Y-35177087D01*
X21293788Y-35201627D01*
X21321790Y-35220039D01*
X21351620Y-35230882D01*
X21384036Y-35234539D01*
X21416453Y-35230882D01*
X21446282Y-35220039D01*
X21474284Y-35201627D01*
X21495944Y-35177087D01*
X21509343Y-35145775D01*
X21514157Y-35105579D01*
X21509342Y-35065384D01*
X21495942Y-35034095D01*
X21474284Y-35009591D01*
X21446278Y-34991143D01*
X21416449Y-34980281D01*
X21384036Y-34976618D01*
X21351623Y-34980281D01*
X21321794Y-34991143D01*
X21293788Y-35009591D01*
X21272130Y-35034095D01*
X21258731Y-35065384D01*
X21253916Y-35105579D01*
G37*
G36*
X21114270Y-34449054D02*
G01*
X21029640Y-34410280D01*
X20943605Y-34362287D01*
X20863127Y-34307271D01*
X20826271Y-34277166D01*
X20793884Y-34245844D01*
X20648377Y-34245844D01*
X20648377Y-35215000D01*
X20856838Y-35215000D01*
X20856838Y-34519396D01*
X20900534Y-34545467D01*
X20950566Y-34569893D01*
X21051316Y-34609277D01*
X21114270Y-34449054D01*
G37*
G36*
X20115744Y-35105579D02*
G01*
X20120557Y-35145775D01*
X20133956Y-35177087D01*
X20155617Y-35201627D01*
X20183619Y-35220039D01*
X20213448Y-35230882D01*
X20245865Y-35234539D01*
X20278281Y-35230882D01*
X20308110Y-35220039D01*
X20336112Y-35201627D01*
X20357773Y-35177087D01*
X20371172Y-35145775D01*
X20375985Y-35105579D01*
X20371170Y-35065384D01*
X20357770Y-35034095D01*
X20336112Y-35009591D01*
X20308106Y-34991143D01*
X20278277Y-34980281D01*
X20245865Y-34976618D01*
X20213452Y-34980281D01*
X20183623Y-34991143D01*
X20155617Y-35009591D01*
X20133959Y-35034095D01*
X20120559Y-35065384D01*
X20115744Y-35105579D01*
G37*
G36*
X19976098Y-34449054D02*
G01*
X19891468Y-34410280D01*
X19805434Y-34362287D01*
X19724956Y-34307271D01*
X19688099Y-34277166D01*
X19655713Y-34245844D01*
X19510205Y-34245844D01*
X19510205Y-35215000D01*
X19718666Y-35215000D01*
X19718666Y-34519396D01*
X19762363Y-34545467D01*
X19812395Y-34569893D01*
X19913145Y-34609277D01*
X19976098Y-34449054D01*
G37*
G36*
X22822260Y-45815000D02*
G01*
X22891793Y-45668704D01*
X22967035Y-45488203D01*
X23037321Y-45296273D01*
X23106254Y-45080317D01*
X22885214Y-45080317D01*
X22852363Y-45198347D01*
X22813162Y-45326819D01*
X22772557Y-45453215D01*
X22732684Y-45564895D01*
X22693544Y-45453215D01*
X22652267Y-45326819D01*
X22613127Y-45198347D01*
X22580216Y-45080317D01*
X22364793Y-45080317D01*
X22433726Y-45296273D01*
X22504012Y-45488203D01*
X22579254Y-45668704D01*
X22648787Y-45815000D01*
X22822260Y-45815000D01*
G37*
G36*
X22005387Y-44826260D02*
G01*
X22053166Y-44837522D01*
X22097164Y-44855980D01*
X22137566Y-44881433D01*
X22174317Y-44913873D01*
X22207684Y-44953982D01*
X22235200Y-44998579D01*
X22258850Y-45050956D01*
X22278331Y-45112191D01*
X22296326Y-45209784D01*
X22302817Y-45327796D01*
X22295917Y-45452789D01*
X22276906Y-45554636D01*
X22247796Y-45637175D01*
X22209821Y-45703686D01*
X22169148Y-45751401D01*
X22123918Y-45787532D01*
X22073566Y-45813274D01*
X22017076Y-45829064D01*
X21953061Y-45834539D01*
X21889045Y-45829063D01*
X21832562Y-45813273D01*
X21782223Y-45787530D01*
X21737011Y-45751400D01*
X21696362Y-45703686D01*
X21658360Y-45637171D01*
X21629231Y-45554630D01*
X21610209Y-45452785D01*
X21603305Y-45327796D01*
X21815980Y-45327796D01*
X21817821Y-45398921D01*
X21823002Y-45460542D01*
X21832476Y-45518309D01*
X21845350Y-45563979D01*
X21864227Y-45603464D01*
X21887360Y-45631024D01*
X21916672Y-45648695D01*
X21953061Y-45654776D01*
X21989338Y-45648672D01*
X22018091Y-45631024D01*
X22040797Y-45603558D01*
X22060100Y-45563979D01*
X22073488Y-45518272D01*
X22083181Y-45460542D01*
X22088317Y-45398922D01*
X22090142Y-45327796D01*
X22088311Y-45256706D01*
X22083181Y-45195722D01*
X22073504Y-45138593D01*
X22060100Y-45093018D01*
X22040793Y-45053386D01*
X22018091Y-45025912D01*
X21989338Y-45008263D01*
X21953061Y-45002159D01*
X21916672Y-45008241D01*
X21887360Y-45025912D01*
X21864231Y-45053481D01*
X21845350Y-45093018D01*
X21832461Y-45138555D01*
X21823002Y-45195722D01*
X21817827Y-45256706D01*
X21815980Y-45327796D01*
X21603305Y-45327796D01*
X21610195Y-45203559D01*
X21629196Y-45102156D01*
X21658321Y-45019813D01*
X21696362Y-44953311D01*
X21737015Y-44905571D01*
X21782228Y-44869424D01*
X21832567Y-44843671D01*
X21889049Y-44827874D01*
X21953061Y-44822397D01*
X22005387Y-44826260D01*
G37*
G36*
X21253916Y-45705579D02*
G01*
X21258729Y-45745775D01*
X21272128Y-45777087D01*
X21293788Y-45801627D01*
X21321790Y-45820039D01*
X21351620Y-45830882D01*
X21384036Y-45834539D01*
X21416453Y-45830882D01*
X21446282Y-45820039D01*
X21474284Y-45801627D01*
X21495944Y-45777087D01*
X21509343Y-45745775D01*
X21514157Y-45705579D01*
X21509342Y-45665384D01*
X21495942Y-45634095D01*
X21474284Y-45609591D01*
X21446278Y-45591143D01*
X21416449Y-45580281D01*
X21384036Y-45576618D01*
X21351623Y-45580281D01*
X21321794Y-45591143D01*
X21293788Y-45609591D01*
X21272130Y-45634095D01*
X21258731Y-45665384D01*
X21253916Y-45705579D01*
G37*
G36*
X21114270Y-45049054D02*
G01*
X21029640Y-45010280D01*
X20943605Y-44962287D01*
X20863127Y-44907271D01*
X20826271Y-44877166D01*
X20793884Y-44845844D01*
X20648377Y-44845844D01*
X20648377Y-45815000D01*
X20856838Y-45815000D01*
X20856838Y-45119396D01*
X20900534Y-45145467D01*
X20950566Y-45169893D01*
X21051316Y-45209277D01*
X21114270Y-45049054D01*
G37*
G36*
X20115744Y-45705579D02*
G01*
X20120557Y-45745775D01*
X20133956Y-45777087D01*
X20155617Y-45801627D01*
X20183619Y-45820039D01*
X20213448Y-45830882D01*
X20245865Y-45834539D01*
X20278281Y-45830882D01*
X20308110Y-45820039D01*
X20336112Y-45801627D01*
X20357773Y-45777087D01*
X20371172Y-45745775D01*
X20375985Y-45705579D01*
X20371170Y-45665384D01*
X20357770Y-45634095D01*
X20336112Y-45609591D01*
X20308106Y-45591143D01*
X20278277Y-45580281D01*
X20245865Y-45576618D01*
X20213452Y-45580281D01*
X20183623Y-45591143D01*
X20155617Y-45609591D01*
X20133959Y-45634095D01*
X20120559Y-45665384D01*
X20115744Y-45705579D01*
G37*
G36*
X19976098Y-45049054D02*
G01*
X19891468Y-45010280D01*
X19805434Y-44962287D01*
X19724956Y-44907271D01*
X19688099Y-44877166D01*
X19655713Y-44845844D01*
X19510205Y-44845844D01*
X19510205Y-45815000D01*
X19718666Y-45815000D01*
X19718666Y-45119396D01*
X19762363Y-45145467D01*
X19812395Y-45169893D01*
X19913145Y-45209277D01*
X19976098Y-45049054D01*
G37*
D11*
G36*
X27203885Y-44045000D02*
G01*
X27203885Y-42591266D01*
X26221754Y-42591266D01*
X26221754Y-42866772D01*
X26876539Y-42866772D01*
X26876539Y-43148140D01*
X26295210Y-43148140D01*
X26295210Y-43417784D01*
X26876539Y-43417784D01*
X26876539Y-43769494D01*
X26173486Y-43769494D01*
X26173486Y-44045000D01*
X27203885Y-44045000D01*
G37*
G36*
X25058914Y-42971461D02*
G01*
X25066785Y-43049559D01*
X25090421Y-43124601D01*
X25126285Y-43196224D01*
X25172212Y-43266201D01*
X25225400Y-43332661D01*
X25285602Y-43397359D01*
X25409341Y-43516885D01*
X25477577Y-43583014D01*
X25547827Y-43657478D01*
X25607636Y-43727728D01*
X25630210Y-43759614D01*
X25640151Y-43781217D01*
X25014767Y-43781217D01*
X25014767Y-44045000D01*
X25984350Y-44045000D01*
X25988563Y-43986290D01*
X25988563Y-43935915D01*
X25980207Y-43838094D01*
X25956048Y-43751267D01*
X25918433Y-43670112D01*
X25870960Y-43594921D01*
X25815227Y-43525011D01*
X25752441Y-43459549D01*
X25621283Y-43333612D01*
X25526853Y-43242295D01*
X25449183Y-43158398D01*
X25418720Y-43116619D01*
X25396702Y-43076516D01*
X25382468Y-43034957D01*
X25377834Y-42993626D01*
X25384551Y-42934556D01*
X25402476Y-42892732D01*
X25430316Y-42863566D01*
X25487587Y-42835640D01*
X25560467Y-42825739D01*
X25615746Y-42830286D01*
X25666437Y-42843599D01*
X25756655Y-42885640D01*
X25826997Y-42933908D01*
X25871052Y-42972651D01*
X26026299Y-42753382D01*
X25927222Y-42675472D01*
X25811243Y-42611691D01*
X25727831Y-42580933D01*
X25640337Y-42562377D01*
X25547827Y-42556095D01*
X25424792Y-42563989D01*
X25327550Y-42585496D01*
X25241559Y-42621833D01*
X25175418Y-42668294D01*
X25123579Y-42727416D01*
X25087307Y-42798353D01*
X25066313Y-42878103D01*
X25058914Y-42971461D01*
G37*
G36*
X24321383Y-42689869D02*
G01*
X24417318Y-42803391D01*
X24596745Y-43043726D01*
X24750985Y-43283053D01*
X24866389Y-43491973D01*
X24866389Y-43722599D01*
X24238899Y-43722599D01*
X24238899Y-44045000D01*
X23932527Y-44045000D01*
X23932527Y-43722599D01*
X23777188Y-43722599D01*
X23777188Y-43464678D01*
X23932527Y-43464678D01*
X24238899Y-43464678D01*
X24568352Y-43464678D01*
X24498679Y-43334932D01*
X24413105Y-43206392D01*
X24238899Y-42973201D01*
X24238899Y-43464678D01*
X23932527Y-43464678D01*
X23932527Y-42591266D01*
X24228458Y-42591266D01*
X24321383Y-42689869D01*
G37*
G36*
X22755765Y-42900661D02*
G01*
X22894251Y-43235243D01*
X23037957Y-43610766D01*
X23193295Y-44045000D01*
X22853309Y-44045000D01*
X22801927Y-43890394D01*
X22746331Y-43728461D01*
X22179657Y-43728461D01*
X22124153Y-43890577D01*
X22072679Y-44045000D01*
X21722251Y-44045000D01*
X21877498Y-43610766D01*
X21931194Y-43470540D01*
X22257326Y-43470540D01*
X22670768Y-43470540D01*
X22604640Y-43290381D01*
X22544831Y-43133302D01*
X22496562Y-43006815D01*
X22465055Y-42920719D01*
X22431532Y-43007364D01*
X22382256Y-43133668D01*
X22322448Y-43290655D01*
X22257326Y-43470540D01*
X21931194Y-43470540D01*
X22021296Y-43235243D01*
X22160789Y-42900661D01*
X22301382Y-42591266D01*
X22614073Y-42591266D01*
X22755765Y-42900661D01*
G37*
G36*
X20915975Y-42465786D02*
G01*
X20915975Y-42967797D01*
X21019839Y-42932168D01*
X21073089Y-42922861D01*
X21136343Y-42919528D01*
X21249451Y-42929927D01*
X21345171Y-42959462D01*
X21429446Y-43008335D01*
X21499410Y-43074959D01*
X21554157Y-43157063D01*
X21595947Y-43258690D01*
X21620721Y-43370712D01*
X21629470Y-43501132D01*
X21619374Y-43629187D01*
X21590635Y-43739452D01*
X21542626Y-43838401D01*
X21478344Y-43919978D01*
X21426354Y-43965308D01*
X21366522Y-44003449D01*
X21297910Y-44034467D01*
X21186219Y-44063900D01*
X21054461Y-44074309D01*
X20935942Y-44068996D01*
X20814217Y-44055349D01*
X20699820Y-44035474D01*
X20603283Y-44011294D01*
X20603283Y-43227366D01*
X20915975Y-43227366D01*
X20915975Y-43799993D01*
X20974777Y-43807412D01*
X21052354Y-43810526D01*
X21133245Y-43799962D01*
X21196142Y-43770383D01*
X21245428Y-43721866D01*
X21280258Y-43659546D01*
X21302460Y-43582596D01*
X21310458Y-43487393D01*
X21302328Y-43382231D01*
X21280856Y-43305985D01*
X21249017Y-43251738D01*
X21207619Y-43214443D01*
X21155150Y-43191520D01*
X21088075Y-43183311D01*
X21040147Y-43186462D01*
X20992637Y-43195950D01*
X20948149Y-43210778D01*
X20915975Y-43227366D01*
X20603283Y-43227366D01*
X20603283Y-42415411D01*
X20915975Y-42465786D01*
G37*
G36*
X20020856Y-42918887D02*
G01*
X20122613Y-42931527D01*
X20211823Y-42948288D01*
X20279967Y-42966057D01*
X20240125Y-43215642D01*
X20180515Y-43197589D01*
X20105852Y-43183128D01*
X19948407Y-43171587D01*
X19869872Y-43178179D01*
X19816170Y-43195199D01*
X19780521Y-43220039D01*
X19754166Y-43255012D01*
X19737974Y-43297162D01*
X19732252Y-43348541D01*
X19732252Y-43378033D01*
X19808914Y-43364386D01*
X19916900Y-43359166D01*
X20006159Y-43363685D01*
X20091198Y-43377026D01*
X20171448Y-43400752D01*
X20240125Y-43434728D01*
X20298498Y-43481283D01*
X20343989Y-43541707D01*
X20372569Y-43613928D01*
X20382823Y-43705380D01*
X20373853Y-43801186D01*
X20349301Y-43875373D01*
X20308303Y-43938133D01*
X20252764Y-43987663D01*
X20185176Y-44024066D01*
X20102646Y-44049579D01*
X20012869Y-44063504D01*
X19908565Y-44068447D01*
X19744793Y-44063004D01*
X19618954Y-44048480D01*
X19432200Y-44013859D01*
X19432200Y-43582739D01*
X19732252Y-43582739D01*
X19732252Y-43819777D01*
X19799480Y-43826005D01*
X19887591Y-43828112D01*
X19968088Y-43820246D01*
X20022962Y-43799810D01*
X20049540Y-43776972D01*
X20066112Y-43744277D01*
X20072238Y-43698144D01*
X20067803Y-43662597D01*
X20055477Y-43635221D01*
X20035733Y-43612859D01*
X20009315Y-43595379D01*
X19978307Y-43583235D01*
X19941080Y-43575412D01*
X19858190Y-43570191D01*
X19788947Y-43574405D01*
X19732252Y-43582739D01*
X19432200Y-43582739D01*
X19432200Y-43364203D01*
X19438216Y-43264280D01*
X19455281Y-43177724D01*
X19486841Y-43099558D01*
X19533957Y-43035208D01*
X19596998Y-42984387D01*
X19681877Y-42945082D01*
X19780434Y-42922266D01*
X19912778Y-42913667D01*
X20020856Y-42918887D01*
G37*
G36*
X18816158Y-42918979D02*
G01*
X18937791Y-42932626D01*
X19052188Y-42952501D01*
X19148725Y-42976681D01*
X19148725Y-44431880D01*
X18836034Y-44431880D01*
X18836034Y-44020178D01*
X18726949Y-44055807D01*
X18669027Y-44065197D01*
X18605224Y-44068447D01*
X18527797Y-44063487D01*
X18458969Y-44049236D01*
X18397496Y-44026315D01*
X18314331Y-43975578D01*
X18246370Y-43908346D01*
X18193529Y-43826423D01*
X18154046Y-43727087D01*
X18130726Y-43618174D01*
X18123025Y-43500582D01*
X18441551Y-43500582D01*
X18449680Y-43605745D01*
X18471153Y-43681991D01*
X18502992Y-43736237D01*
X18544390Y-43773532D01*
X18596859Y-43796455D01*
X18663934Y-43804665D01*
X18711876Y-43801537D01*
X18759463Y-43792117D01*
X18803874Y-43777220D01*
X18836034Y-43760609D01*
X18836034Y-43187982D01*
X18777324Y-43180655D01*
X18699654Y-43177449D01*
X18618733Y-43187978D01*
X18555838Y-43217447D01*
X18506580Y-43265743D01*
X18471805Y-43327732D01*
X18449578Y-43404756D01*
X18441551Y-43500582D01*
X18123025Y-43500582D01*
X18122539Y-43493163D01*
X18132614Y-43364527D01*
X18161374Y-43253012D01*
X18209460Y-43152693D01*
X18273664Y-43070654D01*
X18354535Y-43004909D01*
X18454190Y-42954791D01*
X18526616Y-42932455D01*
X18607336Y-42918518D01*
X18697548Y-42913667D01*
X18816158Y-42918979D01*
G37*
G36*
X17891638Y-42670950D02*
G01*
X17578946Y-42620575D01*
X17578946Y-42942976D01*
X17203331Y-42942976D01*
X17203331Y-43200896D01*
X17578946Y-43200896D01*
X17578946Y-43588693D01*
X17569436Y-43681050D01*
X17544325Y-43745955D01*
X17516069Y-43776735D01*
X17471754Y-43796907D01*
X17404740Y-43804665D01*
X17300967Y-43795231D01*
X17203331Y-43769036D01*
X17159184Y-44011752D01*
X17285122Y-44051594D01*
X17358360Y-44063838D01*
X17455115Y-44068447D01*
X17576904Y-44059043D01*
X17667148Y-44034009D01*
X17743761Y-43991936D01*
X17801421Y-43937930D01*
X17843659Y-43870894D01*
X17871763Y-43788545D01*
X17886451Y-43698212D01*
X17891638Y-43594280D01*
X17891638Y-42670950D01*
G37*
G36*
X16614423Y-42923057D02*
G01*
X16711487Y-42951402D01*
X16801308Y-42997896D01*
X16880381Y-43062411D01*
X16945763Y-43143396D01*
X16998991Y-43245776D01*
X17023338Y-43320358D01*
X17038670Y-43405332D01*
X17044054Y-43502322D01*
X17035193Y-43621011D01*
X17009433Y-43728644D01*
X16965070Y-43826869D01*
X16902455Y-43909903D01*
X16850980Y-43956448D01*
X16790476Y-43996599D01*
X16719822Y-44030345D01*
X16645110Y-44054035D01*
X16559316Y-44069025D01*
X16460711Y-44074309D01*
X16343199Y-44067989D01*
X16233015Y-44052235D01*
X16139593Y-44030253D01*
X16072456Y-44005066D01*
X16114405Y-43750076D01*
X16171057Y-43770331D01*
X16249777Y-43788911D01*
X16333252Y-43800708D01*
X16418670Y-43804665D01*
X16506717Y-43797753D01*
X16576881Y-43778731D01*
X16632719Y-43749252D01*
X16678561Y-43707497D01*
X16708164Y-43658229D01*
X16722936Y-43599501D01*
X16013655Y-43599501D01*
X16009442Y-43541615D01*
X16007335Y-43481714D01*
X16014296Y-43382613D01*
X16309586Y-43382613D01*
X16722936Y-43382613D01*
X16702969Y-43304303D01*
X16686313Y-43267753D01*
X16664226Y-43236434D01*
X16636195Y-43210229D01*
X16601303Y-43189356D01*
X16561116Y-43176290D01*
X16510994Y-43171587D01*
X16459319Y-43176646D01*
X16419770Y-43190455D01*
X16385883Y-43212093D01*
X16358953Y-43238449D01*
X16338014Y-43269621D01*
X16323233Y-43305310D01*
X16309586Y-43382613D01*
X16014296Y-43382613D01*
X16017227Y-43340884D01*
X16044616Y-43226300D01*
X16087103Y-43133206D01*
X16143806Y-43057831D01*
X16216362Y-42995973D01*
X16300753Y-42951318D01*
X16399304Y-42923477D01*
X16515207Y-42913667D01*
X16614423Y-42923057D01*
G37*
G36*
X15101225Y-43216925D02*
G01*
X15199868Y-43194851D01*
X15257683Y-43186284D01*
X15321593Y-43183311D01*
X15391843Y-43188531D01*
X15453759Y-43200072D01*
X15453759Y-44045000D01*
X15766450Y-44045000D01*
X15766450Y-43001411D01*
X15678474Y-42973810D01*
X15568156Y-42945815D01*
X15450175Y-42926410D01*
X15313166Y-42919528D01*
X15252350Y-42922734D01*
X15181000Y-42931069D01*
X15109651Y-42943709D01*
X15048743Y-42961477D01*
X15101225Y-43216925D01*
G37*
D10*
G36*
X22822260Y-14015000D02*
G01*
X22891793Y-13868704D01*
X22967035Y-13688203D01*
X23037321Y-13496273D01*
X23106254Y-13280317D01*
X22885214Y-13280317D01*
X22852363Y-13398347D01*
X22813162Y-13526819D01*
X22772557Y-13653215D01*
X22732684Y-13764895D01*
X22693544Y-13653215D01*
X22652267Y-13526819D01*
X22613127Y-13398347D01*
X22580216Y-13280317D01*
X22364793Y-13280317D01*
X22433726Y-13496273D01*
X22504012Y-13688203D01*
X22579254Y-13868704D01*
X22648787Y-14015000D01*
X22822260Y-14015000D01*
G37*
G36*
X22005387Y-13026260D02*
G01*
X22053166Y-13037522D01*
X22097164Y-13055980D01*
X22137566Y-13081433D01*
X22174317Y-13113873D01*
X22207684Y-13153982D01*
X22235200Y-13198579D01*
X22258850Y-13250956D01*
X22278331Y-13312191D01*
X22296326Y-13409784D01*
X22302817Y-13527796D01*
X22295917Y-13652789D01*
X22276906Y-13754636D01*
X22247796Y-13837175D01*
X22209821Y-13903686D01*
X22169148Y-13951401D01*
X22123918Y-13987532D01*
X22073566Y-14013274D01*
X22017076Y-14029064D01*
X21953061Y-14034539D01*
X21889045Y-14029063D01*
X21832562Y-14013273D01*
X21782223Y-13987530D01*
X21737011Y-13951400D01*
X21696362Y-13903686D01*
X21658360Y-13837171D01*
X21629231Y-13754630D01*
X21610209Y-13652785D01*
X21603305Y-13527796D01*
X21815980Y-13527796D01*
X21817821Y-13598921D01*
X21823002Y-13660542D01*
X21832476Y-13718309D01*
X21845350Y-13763979D01*
X21864227Y-13803464D01*
X21887360Y-13831024D01*
X21916672Y-13848695D01*
X21953061Y-13854776D01*
X21989338Y-13848672D01*
X22018091Y-13831024D01*
X22040797Y-13803558D01*
X22060100Y-13763979D01*
X22073488Y-13718272D01*
X22083181Y-13660542D01*
X22088317Y-13598922D01*
X22090142Y-13527796D01*
X22088311Y-13456706D01*
X22083181Y-13395722D01*
X22073504Y-13338593D01*
X22060100Y-13293018D01*
X22040793Y-13253386D01*
X22018091Y-13225912D01*
X21989338Y-13208263D01*
X21953061Y-13202159D01*
X21916672Y-13208241D01*
X21887360Y-13225912D01*
X21864231Y-13253481D01*
X21845350Y-13293018D01*
X21832461Y-13338555D01*
X21823002Y-13395722D01*
X21817827Y-13456706D01*
X21815980Y-13527796D01*
X21603305Y-13527796D01*
X21610195Y-13403559D01*
X21629196Y-13302156D01*
X21658321Y-13219813D01*
X21696362Y-13153311D01*
X21737015Y-13105571D01*
X21782228Y-13069424D01*
X21832567Y-13043671D01*
X21889049Y-13027874D01*
X21953061Y-13022397D01*
X22005387Y-13026260D01*
G37*
G36*
X21253916Y-13905579D02*
G01*
X21258729Y-13945775D01*
X21272128Y-13977087D01*
X21293788Y-14001627D01*
X21321790Y-14020039D01*
X21351620Y-14030882D01*
X21384036Y-14034539D01*
X21416453Y-14030882D01*
X21446282Y-14020039D01*
X21474284Y-14001627D01*
X21495944Y-13977087D01*
X21509343Y-13945775D01*
X21514157Y-13905579D01*
X21509342Y-13865384D01*
X21495942Y-13834095D01*
X21474284Y-13809591D01*
X21446278Y-13791143D01*
X21416449Y-13780281D01*
X21384036Y-13776618D01*
X21351623Y-13780281D01*
X21321794Y-13791143D01*
X21293788Y-13809591D01*
X21272130Y-13834095D01*
X21258731Y-13865384D01*
X21253916Y-13905579D01*
G37*
G36*
X21114270Y-13249054D02*
G01*
X21029640Y-13210280D01*
X20943605Y-13162287D01*
X20863127Y-13107271D01*
X20826271Y-13077166D01*
X20793884Y-13045844D01*
X20648377Y-13045844D01*
X20648377Y-14015000D01*
X20856838Y-14015000D01*
X20856838Y-13319396D01*
X20900534Y-13345467D01*
X20950566Y-13369893D01*
X21051316Y-13409277D01*
X21114270Y-13249054D01*
G37*
G36*
X20115744Y-13905579D02*
G01*
X20120557Y-13945775D01*
X20133956Y-13977087D01*
X20155617Y-14001627D01*
X20183619Y-14020039D01*
X20213448Y-14030882D01*
X20245865Y-14034539D01*
X20278281Y-14030882D01*
X20308110Y-14020039D01*
X20336112Y-14001627D01*
X20357773Y-13977087D01*
X20371172Y-13945775D01*
X20375985Y-13905579D01*
X20371170Y-13865384D01*
X20357770Y-13834095D01*
X20336112Y-13809591D01*
X20308106Y-13791143D01*
X20278277Y-13780281D01*
X20245865Y-13776618D01*
X20213452Y-13780281D01*
X20183623Y-13791143D01*
X20155617Y-13809591D01*
X20133959Y-13834095D01*
X20120559Y-13865384D01*
X20115744Y-13905579D01*
G37*
G36*
X19976098Y-13249054D02*
G01*
X19891468Y-13210280D01*
X19805434Y-13162287D01*
X19724956Y-13107271D01*
X19688099Y-13077166D01*
X19655713Y-13045844D01*
X19510205Y-13045844D01*
X19510205Y-14015000D01*
X19718666Y-14015000D01*
X19718666Y-13319396D01*
X19762363Y-13345467D01*
X19812395Y-13369893D01*
X19913145Y-13409277D01*
X19976098Y-13249054D01*
G37*
D11*
G36*
X27203885Y-12245000D02*
G01*
X27203885Y-10791266D01*
X26221754Y-10791266D01*
X26221754Y-11066772D01*
X26876539Y-11066772D01*
X26876539Y-11348140D01*
X26295210Y-11348140D01*
X26295210Y-11617784D01*
X26876539Y-11617784D01*
X26876539Y-11969494D01*
X26173486Y-11969494D01*
X26173486Y-12245000D01*
X27203885Y-12245000D01*
G37*
G36*
X25058914Y-11171461D02*
G01*
X25066785Y-11249559D01*
X25090421Y-11324601D01*
X25126285Y-11396224D01*
X25172212Y-11466201D01*
X25225400Y-11532661D01*
X25285602Y-11597359D01*
X25409341Y-11716885D01*
X25477577Y-11783014D01*
X25547827Y-11857478D01*
X25607636Y-11927728D01*
X25630210Y-11959614D01*
X25640151Y-11981217D01*
X25014767Y-11981217D01*
X25014767Y-12245000D01*
X25984350Y-12245000D01*
X25988563Y-12186290D01*
X25988563Y-12135915D01*
X25980207Y-12038094D01*
X25956048Y-11951267D01*
X25918433Y-11870112D01*
X25870960Y-11794921D01*
X25815227Y-11725011D01*
X25752441Y-11659549D01*
X25621283Y-11533612D01*
X25526853Y-11442295D01*
X25449183Y-11358398D01*
X25418720Y-11316619D01*
X25396702Y-11276516D01*
X25382468Y-11234957D01*
X25377834Y-11193626D01*
X25384551Y-11134556D01*
X25402476Y-11092732D01*
X25430316Y-11063566D01*
X25487587Y-11035640D01*
X25560467Y-11025739D01*
X25615746Y-11030286D01*
X25666437Y-11043599D01*
X25756655Y-11085640D01*
X25826997Y-11133908D01*
X25871052Y-11172651D01*
X26026299Y-10953382D01*
X25927222Y-10875472D01*
X25811243Y-10811691D01*
X25727831Y-10780933D01*
X25640337Y-10762377D01*
X25547827Y-10756095D01*
X25424792Y-10763989D01*
X25327550Y-10785496D01*
X25241559Y-10821833D01*
X25175418Y-10868294D01*
X25123579Y-10927416D01*
X25087307Y-10998353D01*
X25066313Y-11078103D01*
X25058914Y-11171461D01*
G37*
G36*
X24321383Y-10889869D02*
G01*
X24417318Y-11003391D01*
X24596745Y-11243726D01*
X24750985Y-11483053D01*
X24866389Y-11691973D01*
X24866389Y-11922599D01*
X24238899Y-11922599D01*
X24238899Y-12245000D01*
X23932527Y-12245000D01*
X23932527Y-11922599D01*
X23777188Y-11922599D01*
X23777188Y-11664678D01*
X23932527Y-11664678D01*
X24238899Y-11664678D01*
X24568352Y-11664678D01*
X24498679Y-11534932D01*
X24413105Y-11406392D01*
X24238899Y-11173201D01*
X24238899Y-11664678D01*
X23932527Y-11664678D01*
X23932527Y-10791266D01*
X24228458Y-10791266D01*
X24321383Y-10889869D01*
G37*
G36*
X22755765Y-11100661D02*
G01*
X22894251Y-11435243D01*
X23037957Y-11810766D01*
X23193295Y-12245000D01*
X22853309Y-12245000D01*
X22801927Y-12090394D01*
X22746331Y-11928461D01*
X22179657Y-11928461D01*
X22124153Y-12090577D01*
X22072679Y-12245000D01*
X21722251Y-12245000D01*
X21877498Y-11810766D01*
X21931194Y-11670540D01*
X22257326Y-11670540D01*
X22670768Y-11670540D01*
X22604640Y-11490381D01*
X22544831Y-11333302D01*
X22496562Y-11206815D01*
X22465055Y-11120719D01*
X22431532Y-11207364D01*
X22382256Y-11333668D01*
X22322448Y-11490655D01*
X22257326Y-11670540D01*
X21931194Y-11670540D01*
X22021296Y-11435243D01*
X22160789Y-11100661D01*
X22301382Y-10791266D01*
X22614073Y-10791266D01*
X22755765Y-11100661D01*
G37*
G36*
X20915975Y-10665786D02*
G01*
X20915975Y-11167797D01*
X21019839Y-11132168D01*
X21073089Y-11122861D01*
X21136343Y-11119528D01*
X21249451Y-11129927D01*
X21345171Y-11159462D01*
X21429446Y-11208335D01*
X21499410Y-11274959D01*
X21554157Y-11357063D01*
X21595947Y-11458690D01*
X21620721Y-11570712D01*
X21629470Y-11701132D01*
X21619374Y-11829187D01*
X21590635Y-11939452D01*
X21542626Y-12038401D01*
X21478344Y-12119978D01*
X21426354Y-12165308D01*
X21366522Y-12203449D01*
X21297910Y-12234467D01*
X21186219Y-12263900D01*
X21054461Y-12274309D01*
X20935942Y-12268996D01*
X20814217Y-12255349D01*
X20699820Y-12235474D01*
X20603283Y-12211294D01*
X20603283Y-11427366D01*
X20915975Y-11427366D01*
X20915975Y-11999993D01*
X20974777Y-12007412D01*
X21052354Y-12010526D01*
X21133245Y-11999962D01*
X21196142Y-11970383D01*
X21245428Y-11921866D01*
X21280258Y-11859546D01*
X21302460Y-11782596D01*
X21310458Y-11687393D01*
X21302328Y-11582231D01*
X21280856Y-11505985D01*
X21249017Y-11451738D01*
X21207619Y-11414443D01*
X21155150Y-11391520D01*
X21088075Y-11383311D01*
X21040147Y-11386462D01*
X20992637Y-11395950D01*
X20948149Y-11410778D01*
X20915975Y-11427366D01*
X20603283Y-11427366D01*
X20603283Y-10615411D01*
X20915975Y-10665786D01*
G37*
G36*
X20020856Y-11118887D02*
G01*
X20122613Y-11131527D01*
X20211823Y-11148288D01*
X20279967Y-11166057D01*
X20240125Y-11415642D01*
X20180515Y-11397589D01*
X20105852Y-11383128D01*
X19948407Y-11371587D01*
X19869872Y-11378179D01*
X19816170Y-11395199D01*
X19780521Y-11420039D01*
X19754166Y-11455012D01*
X19737974Y-11497162D01*
X19732252Y-11548541D01*
X19732252Y-11578033D01*
X19808914Y-11564386D01*
X19916900Y-11559166D01*
X20006159Y-11563685D01*
X20091198Y-11577026D01*
X20171448Y-11600752D01*
X20240125Y-11634728D01*
X20298498Y-11681283D01*
X20343989Y-11741707D01*
X20372569Y-11813928D01*
X20382823Y-11905380D01*
X20373853Y-12001186D01*
X20349301Y-12075373D01*
X20308303Y-12138133D01*
X20252764Y-12187663D01*
X20185176Y-12224066D01*
X20102646Y-12249579D01*
X20012869Y-12263504D01*
X19908565Y-12268447D01*
X19744793Y-12263004D01*
X19618954Y-12248480D01*
X19432200Y-12213859D01*
X19432200Y-11782739D01*
X19732252Y-11782739D01*
X19732252Y-12019777D01*
X19799480Y-12026005D01*
X19887591Y-12028112D01*
X19968088Y-12020246D01*
X20022962Y-11999810D01*
X20049540Y-11976972D01*
X20066112Y-11944277D01*
X20072238Y-11898144D01*
X20067803Y-11862597D01*
X20055477Y-11835221D01*
X20035733Y-11812859D01*
X20009315Y-11795379D01*
X19978307Y-11783235D01*
X19941080Y-11775412D01*
X19858190Y-11770191D01*
X19788947Y-11774405D01*
X19732252Y-11782739D01*
X19432200Y-11782739D01*
X19432200Y-11564203D01*
X19438216Y-11464280D01*
X19455281Y-11377724D01*
X19486841Y-11299558D01*
X19533957Y-11235208D01*
X19596998Y-11184387D01*
X19681877Y-11145082D01*
X19780434Y-11122266D01*
X19912778Y-11113667D01*
X20020856Y-11118887D01*
G37*
G36*
X18816158Y-11118979D02*
G01*
X18937791Y-11132626D01*
X19052188Y-11152501D01*
X19148725Y-11176681D01*
X19148725Y-12631880D01*
X18836034Y-12631880D01*
X18836034Y-12220178D01*
X18726949Y-12255807D01*
X18669027Y-12265197D01*
X18605224Y-12268447D01*
X18527797Y-12263487D01*
X18458969Y-12249236D01*
X18397496Y-12226315D01*
X18314331Y-12175578D01*
X18246370Y-12108346D01*
X18193529Y-12026423D01*
X18154046Y-11927087D01*
X18130726Y-11818174D01*
X18123025Y-11700582D01*
X18441551Y-11700582D01*
X18449680Y-11805745D01*
X18471153Y-11881991D01*
X18502992Y-11936237D01*
X18544390Y-11973532D01*
X18596859Y-11996455D01*
X18663934Y-12004665D01*
X18711876Y-12001537D01*
X18759463Y-11992117D01*
X18803874Y-11977220D01*
X18836034Y-11960609D01*
X18836034Y-11387982D01*
X18777324Y-11380655D01*
X18699654Y-11377449D01*
X18618733Y-11387978D01*
X18555838Y-11417447D01*
X18506580Y-11465743D01*
X18471805Y-11527732D01*
X18449578Y-11604756D01*
X18441551Y-11700582D01*
X18123025Y-11700582D01*
X18122539Y-11693163D01*
X18132614Y-11564527D01*
X18161374Y-11453012D01*
X18209460Y-11352693D01*
X18273664Y-11270654D01*
X18354535Y-11204909D01*
X18454190Y-11154791D01*
X18526616Y-11132455D01*
X18607336Y-11118518D01*
X18697548Y-11113667D01*
X18816158Y-11118979D01*
G37*
G36*
X17891638Y-10870950D02*
G01*
X17578946Y-10820575D01*
X17578946Y-11142976D01*
X17203331Y-11142976D01*
X17203331Y-11400896D01*
X17578946Y-11400896D01*
X17578946Y-11788693D01*
X17569436Y-11881050D01*
X17544325Y-11945955D01*
X17516069Y-11976735D01*
X17471754Y-11996907D01*
X17404740Y-12004665D01*
X17300967Y-11995231D01*
X17203331Y-11969036D01*
X17159184Y-12211752D01*
X17285122Y-12251594D01*
X17358360Y-12263838D01*
X17455115Y-12268447D01*
X17576904Y-12259043D01*
X17667148Y-12234009D01*
X17743761Y-12191936D01*
X17801421Y-12137930D01*
X17843659Y-12070894D01*
X17871763Y-11988545D01*
X17886451Y-11898212D01*
X17891638Y-11794280D01*
X17891638Y-10870950D01*
G37*
G36*
X16614423Y-11123057D02*
G01*
X16711487Y-11151402D01*
X16801308Y-11197896D01*
X16880381Y-11262411D01*
X16945763Y-11343396D01*
X16998991Y-11445776D01*
X17023338Y-11520358D01*
X17038670Y-11605332D01*
X17044054Y-11702322D01*
X17035193Y-11821011D01*
X17009433Y-11928644D01*
X16965070Y-12026869D01*
X16902455Y-12109903D01*
X16850980Y-12156448D01*
X16790476Y-12196599D01*
X16719822Y-12230345D01*
X16645110Y-12254035D01*
X16559316Y-12269025D01*
X16460711Y-12274309D01*
X16343199Y-12267989D01*
X16233015Y-12252235D01*
X16139593Y-12230253D01*
X16072456Y-12205066D01*
X16114405Y-11950076D01*
X16171057Y-11970331D01*
X16249777Y-11988911D01*
X16333252Y-12000708D01*
X16418670Y-12004665D01*
X16506717Y-11997753D01*
X16576881Y-11978731D01*
X16632719Y-11949252D01*
X16678561Y-11907497D01*
X16708164Y-11858229D01*
X16722936Y-11799501D01*
X16013655Y-11799501D01*
X16009442Y-11741615D01*
X16007335Y-11681714D01*
X16014296Y-11582613D01*
X16309586Y-11582613D01*
X16722936Y-11582613D01*
X16702969Y-11504303D01*
X16686313Y-11467753D01*
X16664226Y-11436434D01*
X16636195Y-11410229D01*
X16601303Y-11389356D01*
X16561116Y-11376290D01*
X16510994Y-11371587D01*
X16459319Y-11376646D01*
X16419770Y-11390455D01*
X16385883Y-11412093D01*
X16358953Y-11438449D01*
X16338014Y-11469621D01*
X16323233Y-11505310D01*
X16309586Y-11582613D01*
X16014296Y-11582613D01*
X16017227Y-11540884D01*
X16044616Y-11426300D01*
X16087103Y-11333206D01*
X16143806Y-11257831D01*
X16216362Y-11195973D01*
X16300753Y-11151318D01*
X16399304Y-11123477D01*
X16515207Y-11113667D01*
X16614423Y-11123057D01*
G37*
G36*
X15101225Y-11416925D02*
G01*
X15199868Y-11394851D01*
X15257683Y-11386284D01*
X15321593Y-11383311D01*
X15391843Y-11388531D01*
X15453759Y-11400072D01*
X15453759Y-12245000D01*
X15766450Y-12245000D01*
X15766450Y-11201411D01*
X15678474Y-11173810D01*
X15568156Y-11145815D01*
X15450175Y-11126410D01*
X15313166Y-11119528D01*
X15252350Y-11122734D01*
X15181000Y-11131069D01*
X15109651Y-11143709D01*
X15048743Y-11161477D01*
X15101225Y-11416925D01*
G37*
G36*
X27203885Y-33445000D02*
G01*
X27203885Y-31991266D01*
X26221754Y-31991266D01*
X26221754Y-32266772D01*
X26876539Y-32266772D01*
X26876539Y-32548140D01*
X26295210Y-32548140D01*
X26295210Y-32817784D01*
X26876539Y-32817784D01*
X26876539Y-33169494D01*
X26173486Y-33169494D01*
X26173486Y-33445000D01*
X27203885Y-33445000D01*
G37*
G36*
X25058914Y-32371461D02*
G01*
X25066785Y-32449559D01*
X25090421Y-32524601D01*
X25126285Y-32596224D01*
X25172212Y-32666201D01*
X25225400Y-32732661D01*
X25285602Y-32797359D01*
X25409341Y-32916885D01*
X25477577Y-32983014D01*
X25547827Y-33057478D01*
X25607636Y-33127728D01*
X25630210Y-33159614D01*
X25640151Y-33181217D01*
X25014767Y-33181217D01*
X25014767Y-33445000D01*
X25984350Y-33445000D01*
X25988563Y-33386290D01*
X25988563Y-33335915D01*
X25980207Y-33238094D01*
X25956048Y-33151267D01*
X25918433Y-33070112D01*
X25870960Y-32994921D01*
X25815227Y-32925011D01*
X25752441Y-32859549D01*
X25621283Y-32733612D01*
X25526853Y-32642295D01*
X25449183Y-32558398D01*
X25418720Y-32516619D01*
X25396702Y-32476516D01*
X25382468Y-32434957D01*
X25377834Y-32393626D01*
X25384551Y-32334556D01*
X25402476Y-32292732D01*
X25430316Y-32263566D01*
X25487587Y-32235640D01*
X25560467Y-32225739D01*
X25615746Y-32230286D01*
X25666437Y-32243599D01*
X25756655Y-32285640D01*
X25826997Y-32333908D01*
X25871052Y-32372651D01*
X26026299Y-32153382D01*
X25927222Y-32075472D01*
X25811243Y-32011691D01*
X25727831Y-31980933D01*
X25640337Y-31962377D01*
X25547827Y-31956095D01*
X25424792Y-31963989D01*
X25327550Y-31985496D01*
X25241559Y-32021833D01*
X25175418Y-32068294D01*
X25123579Y-32127416D01*
X25087307Y-32198353D01*
X25066313Y-32278103D01*
X25058914Y-32371461D01*
G37*
G36*
X24321383Y-32089869D02*
G01*
X24417318Y-32203391D01*
X24596745Y-32443726D01*
X24750985Y-32683053D01*
X24866389Y-32891973D01*
X24866389Y-33122599D01*
X24238899Y-33122599D01*
X24238899Y-33445000D01*
X23932527Y-33445000D01*
X23932527Y-33122599D01*
X23777188Y-33122599D01*
X23777188Y-32864678D01*
X23932527Y-32864678D01*
X24238899Y-32864678D01*
X24568352Y-32864678D01*
X24498679Y-32734932D01*
X24413105Y-32606392D01*
X24238899Y-32373201D01*
X24238899Y-32864678D01*
X23932527Y-32864678D01*
X23932527Y-31991266D01*
X24228458Y-31991266D01*
X24321383Y-32089869D01*
G37*
G36*
X22755765Y-32300661D02*
G01*
X22894251Y-32635243D01*
X23037957Y-33010766D01*
X23193295Y-33445000D01*
X22853309Y-33445000D01*
X22801927Y-33290394D01*
X22746331Y-33128461D01*
X22179657Y-33128461D01*
X22124153Y-33290577D01*
X22072679Y-33445000D01*
X21722251Y-33445000D01*
X21877498Y-33010766D01*
X21931194Y-32870540D01*
X22257326Y-32870540D01*
X22670768Y-32870540D01*
X22604640Y-32690381D01*
X22544831Y-32533302D01*
X22496562Y-32406815D01*
X22465055Y-32320719D01*
X22431532Y-32407364D01*
X22382256Y-32533668D01*
X22322448Y-32690655D01*
X22257326Y-32870540D01*
X21931194Y-32870540D01*
X22021296Y-32635243D01*
X22160789Y-32300661D01*
X22301382Y-31991266D01*
X22614073Y-31991266D01*
X22755765Y-32300661D01*
G37*
G36*
X20915975Y-31865786D02*
G01*
X20915975Y-32367797D01*
X21019839Y-32332168D01*
X21073089Y-32322861D01*
X21136343Y-32319528D01*
X21249451Y-32329927D01*
X21345171Y-32359462D01*
X21429446Y-32408335D01*
X21499410Y-32474959D01*
X21554157Y-32557063D01*
X21595947Y-32658690D01*
X21620721Y-32770712D01*
X21629470Y-32901132D01*
X21619374Y-33029187D01*
X21590635Y-33139452D01*
X21542626Y-33238401D01*
X21478344Y-33319978D01*
X21426354Y-33365308D01*
X21366522Y-33403449D01*
X21297910Y-33434467D01*
X21186219Y-33463900D01*
X21054461Y-33474309D01*
X20935942Y-33468996D01*
X20814217Y-33455349D01*
X20699820Y-33435474D01*
X20603283Y-33411294D01*
X20603283Y-32627366D01*
X20915975Y-32627366D01*
X20915975Y-33199993D01*
X20974777Y-33207412D01*
X21052354Y-33210526D01*
X21133245Y-33199962D01*
X21196142Y-33170383D01*
X21245428Y-33121866D01*
X21280258Y-33059546D01*
X21302460Y-32982596D01*
X21310458Y-32887393D01*
X21302328Y-32782231D01*
X21280856Y-32705985D01*
X21249017Y-32651738D01*
X21207619Y-32614443D01*
X21155150Y-32591520D01*
X21088075Y-32583311D01*
X21040147Y-32586462D01*
X20992637Y-32595950D01*
X20948149Y-32610778D01*
X20915975Y-32627366D01*
X20603283Y-32627366D01*
X20603283Y-31815411D01*
X20915975Y-31865786D01*
G37*
G36*
X20020856Y-32318887D02*
G01*
X20122613Y-32331527D01*
X20211823Y-32348288D01*
X20279967Y-32366057D01*
X20240125Y-32615642D01*
X20180515Y-32597589D01*
X20105852Y-32583128D01*
X19948407Y-32571587D01*
X19869872Y-32578179D01*
X19816170Y-32595199D01*
X19780521Y-32620039D01*
X19754166Y-32655012D01*
X19737974Y-32697162D01*
X19732252Y-32748541D01*
X19732252Y-32778033D01*
X19808914Y-32764386D01*
X19916900Y-32759166D01*
X20006159Y-32763685D01*
X20091198Y-32777026D01*
X20171448Y-32800752D01*
X20240125Y-32834728D01*
X20298498Y-32881283D01*
X20343989Y-32941707D01*
X20372569Y-33013928D01*
X20382823Y-33105380D01*
X20373853Y-33201186D01*
X20349301Y-33275373D01*
X20308303Y-33338133D01*
X20252764Y-33387663D01*
X20185176Y-33424066D01*
X20102646Y-33449579D01*
X20012869Y-33463504D01*
X19908565Y-33468447D01*
X19744793Y-33463004D01*
X19618954Y-33448480D01*
X19432200Y-33413859D01*
X19432200Y-32982739D01*
X19732252Y-32982739D01*
X19732252Y-33219777D01*
X19799480Y-33226005D01*
X19887591Y-33228112D01*
X19968088Y-33220246D01*
X20022962Y-33199810D01*
X20049540Y-33176972D01*
X20066112Y-33144277D01*
X20072238Y-33098144D01*
X20067803Y-33062597D01*
X20055477Y-33035221D01*
X20035733Y-33012859D01*
X20009315Y-32995379D01*
X19978307Y-32983235D01*
X19941080Y-32975412D01*
X19858190Y-32970191D01*
X19788947Y-32974405D01*
X19732252Y-32982739D01*
X19432200Y-32982739D01*
X19432200Y-32764203D01*
X19438216Y-32664280D01*
X19455281Y-32577724D01*
X19486841Y-32499558D01*
X19533957Y-32435208D01*
X19596998Y-32384387D01*
X19681877Y-32345082D01*
X19780434Y-32322266D01*
X19912778Y-32313667D01*
X20020856Y-32318887D01*
G37*
G36*
X18816158Y-32318979D02*
G01*
X18937791Y-32332626D01*
X19052188Y-32352501D01*
X19148725Y-32376681D01*
X19148725Y-33831880D01*
X18836034Y-33831880D01*
X18836034Y-33420178D01*
X18726949Y-33455807D01*
X18669027Y-33465197D01*
X18605224Y-33468447D01*
X18527797Y-33463487D01*
X18458969Y-33449236D01*
X18397496Y-33426315D01*
X18314331Y-33375578D01*
X18246370Y-33308346D01*
X18193529Y-33226423D01*
X18154046Y-33127087D01*
X18130726Y-33018174D01*
X18123025Y-32900582D01*
X18441551Y-32900582D01*
X18449680Y-33005745D01*
X18471153Y-33081991D01*
X18502992Y-33136237D01*
X18544390Y-33173532D01*
X18596859Y-33196455D01*
X18663934Y-33204665D01*
X18711876Y-33201537D01*
X18759463Y-33192117D01*
X18803874Y-33177220D01*
X18836034Y-33160609D01*
X18836034Y-32587982D01*
X18777324Y-32580655D01*
X18699654Y-32577449D01*
X18618733Y-32587978D01*
X18555838Y-32617447D01*
X18506580Y-32665743D01*
X18471805Y-32727732D01*
X18449578Y-32804756D01*
X18441551Y-32900582D01*
X18123025Y-32900582D01*
X18122539Y-32893163D01*
X18132614Y-32764527D01*
X18161374Y-32653012D01*
X18209460Y-32552693D01*
X18273664Y-32470654D01*
X18354535Y-32404909D01*
X18454190Y-32354791D01*
X18526616Y-32332455D01*
X18607336Y-32318518D01*
X18697548Y-32313667D01*
X18816158Y-32318979D01*
G37*
G36*
X17891638Y-32070950D02*
G01*
X17578946Y-32020575D01*
X17578946Y-32342976D01*
X17203331Y-32342976D01*
X17203331Y-32600896D01*
X17578946Y-32600896D01*
X17578946Y-32988693D01*
X17569436Y-33081050D01*
X17544325Y-33145955D01*
X17516069Y-33176735D01*
X17471754Y-33196907D01*
X17404740Y-33204665D01*
X17300967Y-33195231D01*
X17203331Y-33169036D01*
X17159184Y-33411752D01*
X17285122Y-33451594D01*
X17358360Y-33463838D01*
X17455115Y-33468447D01*
X17576904Y-33459043D01*
X17667148Y-33434009D01*
X17743761Y-33391936D01*
X17801421Y-33337930D01*
X17843659Y-33270894D01*
X17871763Y-33188545D01*
X17886451Y-33098212D01*
X17891638Y-32994280D01*
X17891638Y-32070950D01*
G37*
G36*
X16614423Y-32323057D02*
G01*
X16711487Y-32351402D01*
X16801308Y-32397896D01*
X16880381Y-32462411D01*
X16945763Y-32543396D01*
X16998991Y-32645776D01*
X17023338Y-32720358D01*
X17038670Y-32805332D01*
X17044054Y-32902322D01*
X17035193Y-33021011D01*
X17009433Y-33128644D01*
X16965070Y-33226869D01*
X16902455Y-33309903D01*
X16850980Y-33356448D01*
X16790476Y-33396599D01*
X16719822Y-33430345D01*
X16645110Y-33454035D01*
X16559316Y-33469025D01*
X16460711Y-33474309D01*
X16343199Y-33467989D01*
X16233015Y-33452235D01*
X16139593Y-33430253D01*
X16072456Y-33405066D01*
X16114405Y-33150076D01*
X16171057Y-33170331D01*
X16249777Y-33188911D01*
X16333252Y-33200708D01*
X16418670Y-33204665D01*
X16506717Y-33197753D01*
X16576881Y-33178731D01*
X16632719Y-33149252D01*
X16678561Y-33107497D01*
X16708164Y-33058229D01*
X16722936Y-32999501D01*
X16013655Y-32999501D01*
X16009442Y-32941615D01*
X16007335Y-32881714D01*
X16014296Y-32782613D01*
X16309586Y-32782613D01*
X16722936Y-32782613D01*
X16702969Y-32704303D01*
X16686313Y-32667753D01*
X16664226Y-32636434D01*
X16636195Y-32610229D01*
X16601303Y-32589356D01*
X16561116Y-32576290D01*
X16510994Y-32571587D01*
X16459319Y-32576646D01*
X16419770Y-32590455D01*
X16385883Y-32612093D01*
X16358953Y-32638449D01*
X16338014Y-32669621D01*
X16323233Y-32705310D01*
X16309586Y-32782613D01*
X16014296Y-32782613D01*
X16017227Y-32740884D01*
X16044616Y-32626300D01*
X16087103Y-32533206D01*
X16143806Y-32457831D01*
X16216362Y-32395973D01*
X16300753Y-32351318D01*
X16399304Y-32323477D01*
X16515207Y-32313667D01*
X16614423Y-32323057D01*
G37*
G36*
X15101225Y-32616925D02*
G01*
X15199868Y-32594851D01*
X15257683Y-32586284D01*
X15321593Y-32583311D01*
X15391843Y-32588531D01*
X15453759Y-32600072D01*
X15453759Y-33445000D01*
X15766450Y-33445000D01*
X15766450Y-32401411D01*
X15678474Y-32373810D01*
X15568156Y-32345815D01*
X15450175Y-32326410D01*
X15313166Y-32319528D01*
X15252350Y-32322734D01*
X15181000Y-32331069D01*
X15109651Y-32343709D01*
X15048743Y-32361477D01*
X15101225Y-32616925D01*
G37*
G36*
X27203885Y-22845000D02*
G01*
X27203885Y-21391266D01*
X26221754Y-21391266D01*
X26221754Y-21666772D01*
X26876539Y-21666772D01*
X26876539Y-21948140D01*
X26295210Y-21948140D01*
X26295210Y-22217784D01*
X26876539Y-22217784D01*
X26876539Y-22569494D01*
X26173486Y-22569494D01*
X26173486Y-22845000D01*
X27203885Y-22845000D01*
G37*
G36*
X25058914Y-21771461D02*
G01*
X25066785Y-21849559D01*
X25090421Y-21924601D01*
X25126285Y-21996224D01*
X25172212Y-22066201D01*
X25225400Y-22132661D01*
X25285602Y-22197359D01*
X25409341Y-22316885D01*
X25477577Y-22383014D01*
X25547827Y-22457478D01*
X25607636Y-22527728D01*
X25630210Y-22559614D01*
X25640151Y-22581217D01*
X25014767Y-22581217D01*
X25014767Y-22845000D01*
X25984350Y-22845000D01*
X25988563Y-22786290D01*
X25988563Y-22735915D01*
X25980207Y-22638094D01*
X25956048Y-22551267D01*
X25918433Y-22470112D01*
X25870960Y-22394921D01*
X25815227Y-22325011D01*
X25752441Y-22259549D01*
X25621283Y-22133612D01*
X25526853Y-22042295D01*
X25449183Y-21958398D01*
X25418720Y-21916619D01*
X25396702Y-21876516D01*
X25382468Y-21834957D01*
X25377834Y-21793626D01*
X25384551Y-21734556D01*
X25402476Y-21692732D01*
X25430316Y-21663566D01*
X25487587Y-21635640D01*
X25560467Y-21625739D01*
X25615746Y-21630286D01*
X25666437Y-21643599D01*
X25756655Y-21685640D01*
X25826997Y-21733908D01*
X25871052Y-21772651D01*
X26026299Y-21553382D01*
X25927222Y-21475472D01*
X25811243Y-21411691D01*
X25727831Y-21380933D01*
X25640337Y-21362377D01*
X25547827Y-21356095D01*
X25424792Y-21363989D01*
X25327550Y-21385496D01*
X25241559Y-21421833D01*
X25175418Y-21468294D01*
X25123579Y-21527416D01*
X25087307Y-21598353D01*
X25066313Y-21678103D01*
X25058914Y-21771461D01*
G37*
G36*
X24321383Y-21489869D02*
G01*
X24417318Y-21603391D01*
X24596745Y-21843726D01*
X24750985Y-22083053D01*
X24866389Y-22291973D01*
X24866389Y-22522599D01*
X24238899Y-22522599D01*
X24238899Y-22845000D01*
X23932527Y-22845000D01*
X23932527Y-22522599D01*
X23777188Y-22522599D01*
X23777188Y-22264678D01*
X23932527Y-22264678D01*
X24238899Y-22264678D01*
X24568352Y-22264678D01*
X24498679Y-22134932D01*
X24413105Y-22006392D01*
X24238899Y-21773201D01*
X24238899Y-22264678D01*
X23932527Y-22264678D01*
X23932527Y-21391266D01*
X24228458Y-21391266D01*
X24321383Y-21489869D01*
G37*
G36*
X22755765Y-21700661D02*
G01*
X22894251Y-22035243D01*
X23037957Y-22410766D01*
X23193295Y-22845000D01*
X22853309Y-22845000D01*
X22801927Y-22690394D01*
X22746331Y-22528461D01*
X22179657Y-22528461D01*
X22124153Y-22690577D01*
X22072679Y-22845000D01*
X21722251Y-22845000D01*
X21877498Y-22410766D01*
X21931194Y-22270540D01*
X22257326Y-22270540D01*
X22670768Y-22270540D01*
X22604640Y-22090381D01*
X22544831Y-21933302D01*
X22496562Y-21806815D01*
X22465055Y-21720719D01*
X22431532Y-21807364D01*
X22382256Y-21933668D01*
X22322448Y-22090655D01*
X22257326Y-22270540D01*
X21931194Y-22270540D01*
X22021296Y-22035243D01*
X22160789Y-21700661D01*
X22301382Y-21391266D01*
X22614073Y-21391266D01*
X22755765Y-21700661D01*
G37*
G36*
X20915975Y-21265786D02*
G01*
X20915975Y-21767797D01*
X21019839Y-21732168D01*
X21073089Y-21722861D01*
X21136343Y-21719528D01*
X21249451Y-21729927D01*
X21345171Y-21759462D01*
X21429446Y-21808335D01*
X21499410Y-21874959D01*
X21554157Y-21957063D01*
X21595947Y-22058690D01*
X21620721Y-22170712D01*
X21629470Y-22301132D01*
X21619374Y-22429187D01*
X21590635Y-22539452D01*
X21542626Y-22638401D01*
X21478344Y-22719978D01*
X21426354Y-22765308D01*
X21366522Y-22803449D01*
X21297910Y-22834467D01*
X21186219Y-22863900D01*
X21054461Y-22874309D01*
X20935942Y-22868996D01*
X20814217Y-22855349D01*
X20699820Y-22835474D01*
X20603283Y-22811294D01*
X20603283Y-22027366D01*
X20915975Y-22027366D01*
X20915975Y-22599993D01*
X20974777Y-22607412D01*
X21052354Y-22610526D01*
X21133245Y-22599962D01*
X21196142Y-22570383D01*
X21245428Y-22521866D01*
X21280258Y-22459546D01*
X21302460Y-22382596D01*
X21310458Y-22287393D01*
X21302328Y-22182231D01*
X21280856Y-22105985D01*
X21249017Y-22051738D01*
X21207619Y-22014443D01*
X21155150Y-21991520D01*
X21088075Y-21983311D01*
X21040147Y-21986462D01*
X20992637Y-21995950D01*
X20948149Y-22010778D01*
X20915975Y-22027366D01*
X20603283Y-22027366D01*
X20603283Y-21215411D01*
X20915975Y-21265786D01*
G37*
G36*
X20020856Y-21718887D02*
G01*
X20122613Y-21731527D01*
X20211823Y-21748288D01*
X20279967Y-21766057D01*
X20240125Y-22015642D01*
X20180515Y-21997589D01*
X20105852Y-21983128D01*
X19948407Y-21971587D01*
X19869872Y-21978179D01*
X19816170Y-21995199D01*
X19780521Y-22020039D01*
X19754166Y-22055012D01*
X19737974Y-22097162D01*
X19732252Y-22148541D01*
X19732252Y-22178033D01*
X19808914Y-22164386D01*
X19916900Y-22159166D01*
X20006159Y-22163685D01*
X20091198Y-22177026D01*
X20171448Y-22200752D01*
X20240125Y-22234728D01*
X20298498Y-22281283D01*
X20343989Y-22341707D01*
X20372569Y-22413928D01*
X20382823Y-22505380D01*
X20373853Y-22601186D01*
X20349301Y-22675373D01*
X20308303Y-22738133D01*
X20252764Y-22787663D01*
X20185176Y-22824066D01*
X20102646Y-22849579D01*
X20012869Y-22863504D01*
X19908565Y-22868447D01*
X19744793Y-22863004D01*
X19618954Y-22848480D01*
X19432200Y-22813859D01*
X19432200Y-22382739D01*
X19732252Y-22382739D01*
X19732252Y-22619777D01*
X19799480Y-22626005D01*
X19887591Y-22628112D01*
X19968088Y-22620246D01*
X20022962Y-22599810D01*
X20049540Y-22576972D01*
X20066112Y-22544277D01*
X20072238Y-22498144D01*
X20067803Y-22462597D01*
X20055477Y-22435221D01*
X20035733Y-22412859D01*
X20009315Y-22395379D01*
X19978307Y-22383235D01*
X19941080Y-22375412D01*
X19858190Y-22370191D01*
X19788947Y-22374405D01*
X19732252Y-22382739D01*
X19432200Y-22382739D01*
X19432200Y-22164203D01*
X19438216Y-22064280D01*
X19455281Y-21977724D01*
X19486841Y-21899558D01*
X19533957Y-21835208D01*
X19596998Y-21784387D01*
X19681877Y-21745082D01*
X19780434Y-21722266D01*
X19912778Y-21713667D01*
X20020856Y-21718887D01*
G37*
G36*
X18816158Y-21718979D02*
G01*
X18937791Y-21732626D01*
X19052188Y-21752501D01*
X19148725Y-21776681D01*
X19148725Y-23231880D01*
X18836034Y-23231880D01*
X18836034Y-22820178D01*
X18726949Y-22855807D01*
X18669027Y-22865197D01*
X18605224Y-22868447D01*
X18527797Y-22863487D01*
X18458969Y-22849236D01*
X18397496Y-22826315D01*
X18314331Y-22775578D01*
X18246370Y-22708346D01*
X18193529Y-22626423D01*
X18154046Y-22527087D01*
X18130726Y-22418174D01*
X18123025Y-22300582D01*
X18441551Y-22300582D01*
X18449680Y-22405745D01*
X18471153Y-22481991D01*
X18502992Y-22536237D01*
X18544390Y-22573532D01*
X18596859Y-22596455D01*
X18663934Y-22604665D01*
X18711876Y-22601537D01*
X18759463Y-22592117D01*
X18803874Y-22577220D01*
X18836034Y-22560609D01*
X18836034Y-21987982D01*
X18777324Y-21980655D01*
X18699654Y-21977449D01*
X18618733Y-21987978D01*
X18555838Y-22017447D01*
X18506580Y-22065743D01*
X18471805Y-22127732D01*
X18449578Y-22204756D01*
X18441551Y-22300582D01*
X18123025Y-22300582D01*
X18122539Y-22293163D01*
X18132614Y-22164527D01*
X18161374Y-22053012D01*
X18209460Y-21952693D01*
X18273664Y-21870654D01*
X18354535Y-21804909D01*
X18454190Y-21754791D01*
X18526616Y-21732455D01*
X18607336Y-21718518D01*
X18697548Y-21713667D01*
X18816158Y-21718979D01*
G37*
G36*
X17891638Y-21470950D02*
G01*
X17578946Y-21420575D01*
X17578946Y-21742976D01*
X17203331Y-21742976D01*
X17203331Y-22000896D01*
X17578946Y-22000896D01*
X17578946Y-22388693D01*
X17569436Y-22481050D01*
X17544325Y-22545955D01*
X17516069Y-22576735D01*
X17471754Y-22596907D01*
X17404740Y-22604665D01*
X17300967Y-22595231D01*
X17203331Y-22569036D01*
X17159184Y-22811752D01*
X17285122Y-22851594D01*
X17358360Y-22863838D01*
X17455115Y-22868447D01*
X17576904Y-22859043D01*
X17667148Y-22834009D01*
X17743761Y-22791936D01*
X17801421Y-22737930D01*
X17843659Y-22670894D01*
X17871763Y-22588545D01*
X17886451Y-22498212D01*
X17891638Y-22394280D01*
X17891638Y-21470950D01*
G37*
G36*
X16614423Y-21723057D02*
G01*
X16711487Y-21751402D01*
X16801308Y-21797896D01*
X16880381Y-21862411D01*
X16945763Y-21943396D01*
X16998991Y-22045776D01*
X17023338Y-22120358D01*
X17038670Y-22205332D01*
X17044054Y-22302322D01*
X17035193Y-22421011D01*
X17009433Y-22528644D01*
X16965070Y-22626869D01*
X16902455Y-22709903D01*
X16850980Y-22756448D01*
X16790476Y-22796599D01*
X16719822Y-22830345D01*
X16645110Y-22854035D01*
X16559316Y-22869025D01*
X16460711Y-22874309D01*
X16343199Y-22867989D01*
X16233015Y-22852235D01*
X16139593Y-22830253D01*
X16072456Y-22805066D01*
X16114405Y-22550076D01*
X16171057Y-22570331D01*
X16249777Y-22588911D01*
X16333252Y-22600708D01*
X16418670Y-22604665D01*
X16506717Y-22597753D01*
X16576881Y-22578731D01*
X16632719Y-22549252D01*
X16678561Y-22507497D01*
X16708164Y-22458229D01*
X16722936Y-22399501D01*
X16013655Y-22399501D01*
X16009442Y-22341615D01*
X16007335Y-22281714D01*
X16014296Y-22182613D01*
X16309586Y-22182613D01*
X16722936Y-22182613D01*
X16702969Y-22104303D01*
X16686313Y-22067753D01*
X16664226Y-22036434D01*
X16636195Y-22010229D01*
X16601303Y-21989356D01*
X16561116Y-21976290D01*
X16510994Y-21971587D01*
X16459319Y-21976646D01*
X16419770Y-21990455D01*
X16385883Y-22012093D01*
X16358953Y-22038449D01*
X16338014Y-22069621D01*
X16323233Y-22105310D01*
X16309586Y-22182613D01*
X16014296Y-22182613D01*
X16017227Y-22140884D01*
X16044616Y-22026300D01*
X16087103Y-21933206D01*
X16143806Y-21857831D01*
X16216362Y-21795973D01*
X16300753Y-21751318D01*
X16399304Y-21723477D01*
X16515207Y-21713667D01*
X16614423Y-21723057D01*
G37*
G36*
X15101225Y-22016925D02*
G01*
X15199868Y-21994851D01*
X15257683Y-21986284D01*
X15321593Y-21983311D01*
X15391843Y-21988531D01*
X15453759Y-22000072D01*
X15453759Y-22845000D01*
X15766450Y-22845000D01*
X15766450Y-21801411D01*
X15678474Y-21773810D01*
X15568156Y-21745815D01*
X15450175Y-21726410D01*
X15313166Y-21719528D01*
X15252350Y-21722734D01*
X15181000Y-21731069D01*
X15109651Y-21743709D01*
X15048743Y-21761477D01*
X15101225Y-22016925D01*
G37*
D10*
G36*
X22822260Y-24615000D02*
G01*
X22891793Y-24468704D01*
X22967035Y-24288203D01*
X23037321Y-24096273D01*
X23106254Y-23880317D01*
X22885214Y-23880317D01*
X22852363Y-23998347D01*
X22813162Y-24126819D01*
X22772557Y-24253215D01*
X22732684Y-24364895D01*
X22693544Y-24253215D01*
X22652267Y-24126819D01*
X22613127Y-23998347D01*
X22580216Y-23880317D01*
X22364793Y-23880317D01*
X22433726Y-24096273D01*
X22504012Y-24288203D01*
X22579254Y-24468704D01*
X22648787Y-24615000D01*
X22822260Y-24615000D01*
G37*
G36*
X22005387Y-23626260D02*
G01*
X22053166Y-23637522D01*
X22097164Y-23655980D01*
X22137566Y-23681433D01*
X22174317Y-23713873D01*
X22207684Y-23753982D01*
X22235200Y-23798579D01*
X22258850Y-23850956D01*
X22278331Y-23912191D01*
X22296326Y-24009784D01*
X22302817Y-24127796D01*
X22295917Y-24252789D01*
X22276906Y-24354636D01*
X22247796Y-24437175D01*
X22209821Y-24503686D01*
X22169148Y-24551401D01*
X22123918Y-24587532D01*
X22073566Y-24613274D01*
X22017076Y-24629064D01*
X21953061Y-24634539D01*
X21889045Y-24629063D01*
X21832562Y-24613273D01*
X21782223Y-24587530D01*
X21737011Y-24551400D01*
X21696362Y-24503686D01*
X21658360Y-24437171D01*
X21629231Y-24354630D01*
X21610209Y-24252785D01*
X21603305Y-24127796D01*
X21815980Y-24127796D01*
X21817821Y-24198921D01*
X21823002Y-24260542D01*
X21832476Y-24318309D01*
X21845350Y-24363979D01*
X21864227Y-24403464D01*
X21887360Y-24431024D01*
X21916672Y-24448695D01*
X21953061Y-24454776D01*
X21989338Y-24448672D01*
X22018091Y-24431024D01*
X22040797Y-24403558D01*
X22060100Y-24363979D01*
X22073488Y-24318272D01*
X22083181Y-24260542D01*
X22088317Y-24198922D01*
X22090142Y-24127796D01*
X22088311Y-24056706D01*
X22083181Y-23995722D01*
X22073504Y-23938593D01*
X22060100Y-23893018D01*
X22040793Y-23853386D01*
X22018091Y-23825912D01*
X21989338Y-23808263D01*
X21953061Y-23802159D01*
X21916672Y-23808241D01*
X21887360Y-23825912D01*
X21864231Y-23853481D01*
X21845350Y-23893018D01*
X21832461Y-23938555D01*
X21823002Y-23995722D01*
X21817827Y-24056706D01*
X21815980Y-24127796D01*
X21603305Y-24127796D01*
X21610195Y-24003559D01*
X21629196Y-23902156D01*
X21658321Y-23819813D01*
X21696362Y-23753311D01*
X21737015Y-23705571D01*
X21782228Y-23669424D01*
X21832567Y-23643671D01*
X21889049Y-23627874D01*
X21953061Y-23622397D01*
X22005387Y-23626260D01*
G37*
G36*
X21253916Y-24505579D02*
G01*
X21258729Y-24545775D01*
X21272128Y-24577087D01*
X21293788Y-24601627D01*
X21321790Y-24620039D01*
X21351620Y-24630882D01*
X21384036Y-24634539D01*
X21416453Y-24630882D01*
X21446282Y-24620039D01*
X21474284Y-24601627D01*
X21495944Y-24577087D01*
X21509343Y-24545775D01*
X21514157Y-24505579D01*
X21509342Y-24465384D01*
X21495942Y-24434095D01*
X21474284Y-24409591D01*
X21446278Y-24391143D01*
X21416449Y-24380281D01*
X21384036Y-24376618D01*
X21351623Y-24380281D01*
X21321794Y-24391143D01*
X21293788Y-24409591D01*
X21272130Y-24434095D01*
X21258731Y-24465384D01*
X21253916Y-24505579D01*
G37*
G36*
X21114270Y-23849054D02*
G01*
X21029640Y-23810280D01*
X20943605Y-23762287D01*
X20863127Y-23707271D01*
X20826271Y-23677166D01*
X20793884Y-23645844D01*
X20648377Y-23645844D01*
X20648377Y-24615000D01*
X20856838Y-24615000D01*
X20856838Y-23919396D01*
X20900534Y-23945467D01*
X20950566Y-23969893D01*
X21051316Y-24009277D01*
X21114270Y-23849054D01*
G37*
G36*
X20115744Y-24505579D02*
G01*
X20120557Y-24545775D01*
X20133956Y-24577087D01*
X20155617Y-24601627D01*
X20183619Y-24620039D01*
X20213448Y-24630882D01*
X20245865Y-24634539D01*
X20278281Y-24630882D01*
X20308110Y-24620039D01*
X20336112Y-24601627D01*
X20357773Y-24577087D01*
X20371172Y-24545775D01*
X20375985Y-24505579D01*
X20371170Y-24465384D01*
X20357770Y-24434095D01*
X20336112Y-24409591D01*
X20308106Y-24391143D01*
X20278277Y-24380281D01*
X20245865Y-24376618D01*
X20213452Y-24380281D01*
X20183623Y-24391143D01*
X20155617Y-24409591D01*
X20133959Y-24434095D01*
X20120559Y-24465384D01*
X20115744Y-24505579D01*
G37*
G36*
X19976098Y-23849054D02*
G01*
X19891468Y-23810280D01*
X19805434Y-23762287D01*
X19724956Y-23707271D01*
X19688099Y-23677166D01*
X19655713Y-23645844D01*
X19510205Y-23645844D01*
X19510205Y-24615000D01*
X19718666Y-24615000D01*
X19718666Y-23919396D01*
X19762363Y-23945467D01*
X19812395Y-23969893D01*
X19913145Y-24009277D01*
X19976098Y-23849054D01*
G37*
D12*
G04 #@! TO.C,J1*
X9200000Y-9470000D02*
X9200000Y-9700000D01*
X9200000Y-14890000D02*
X9200000Y-15020000D01*
X9200000Y-15020000D02*
X10400000Y-15020000D01*
X10400000Y-9470000D02*
X9200000Y-9470000D01*
X10400000Y-9700000D02*
X10400000Y-9470000D01*
X10400000Y-15020000D02*
X10400000Y-14890000D01*
X10975000Y-15120000D02*
G75*
G02*
X10825000Y-15120000I-75000J0D01*
G01*
X10825000Y-15120000D02*
G75*
G02*
X10975000Y-15120000I75000J0D01*
G01*
X9200000Y-41270000D02*
X9200000Y-41500000D01*
X9200000Y-46690000D02*
X9200000Y-46820000D01*
X9200000Y-46820000D02*
X10400000Y-46820000D01*
X10400000Y-41270000D02*
X9200000Y-41270000D01*
X10400000Y-41500000D02*
X10400000Y-41270000D01*
X10400000Y-46820000D02*
X10400000Y-46690000D01*
X10975000Y-46920000D02*
G75*
G02*
X10825000Y-46920000I-75000J0D01*
G01*
X10825000Y-46920000D02*
G75*
G02*
X10975000Y-46920000I75000J0D01*
G01*
X9200000Y-30670000D02*
X9200000Y-30900000D01*
X9200000Y-36090000D02*
X9200000Y-36220000D01*
X9200000Y-36220000D02*
X10400000Y-36220000D01*
X10400000Y-30670000D02*
X9200000Y-30670000D01*
X10400000Y-30900000D02*
X10400000Y-30670000D01*
X10400000Y-36220000D02*
X10400000Y-36090000D01*
X10975000Y-36320000D02*
G75*
G02*
X10825000Y-36320000I-75000J0D01*
G01*
X10825000Y-36320000D02*
G75*
G02*
X10975000Y-36320000I75000J0D01*
G01*
X9200000Y-20070000D02*
X9200000Y-20300000D01*
X9200000Y-25490000D02*
X9200000Y-25620000D01*
X9200000Y-25620000D02*
X10400000Y-25620000D01*
X10400000Y-20070000D02*
X9200000Y-20070000D01*
X10400000Y-20300000D02*
X10400000Y-20070000D01*
X10400000Y-25620000D02*
X10400000Y-25490000D01*
X10975000Y-25720000D02*
G75*
G02*
X10825000Y-25720000I-75000J0D01*
G01*
X10825000Y-25720000D02*
G75*
G02*
X10975000Y-25720000I75000J0D01*
G01*
G04 #@! TD*
M02*
