G04 #@! TF.GenerationSoftware,KiCad,Pcbnew,9.0.0*
G04 #@! TF.CreationDate,2025-02-22T21:46:14-05:00*
G04 #@! TF.ProjectId,panel,70616e65-6c2e-46b6-9963-61645f706362,v0.1.0*
G04 #@! TF.SameCoordinates,Original*
G04 #@! TF.FileFunction,Copper,L2,Bot*
G04 #@! TF.FilePolarity,Positive*
%FSLAX46Y46*%
G04 Gerber Fmt 4.6, Leading zero omitted, Abs format (unit mm)*
G04 Created by KiCad (PCBNEW 9.0.0) date 2025-02-22 21:46:14*
%MOMM*%
%LPD*%
G01*
G04 APERTURE LIST*
G04 #@! TA.AperFunction,SMDPad,CuDef*
%ADD10R,0.490000X0.180000*%
G04 #@! TD*
G04 #@! TA.AperFunction,SMDPad,CuDef*
%ADD11R,0.540000X0.230000*%
G04 #@! TD*
G04 #@! TA.AperFunction,SMDPad,CuDef*
%ADD12C,1.000000*%
G04 #@! TD*
G04 #@! TA.AperFunction,ViaPad*
%ADD13C,0.450000*%
G04 #@! TD*
G04 #@! TA.AperFunction,Conductor*
%ADD14C,0.150000*%
G04 #@! TD*
G04 #@! TA.AperFunction,Conductor*
%ADD15C,0.200000*%
G04 #@! TD*
G04 #@! TA.AperFunction,Conductor*
%ADD16C,0.250000*%
G04 #@! TD*
G04 APERTURE END LIST*
D10*
G04 #@! TO.P,J1,1,1*
G04 #@! TO.N,Board_2-/SPEAKER_N*
X10710000Y-35430000D03*
G04 #@! TO.P,J1,2,2*
G04 #@! TO.N,Board_2-/SPEAKER_P*
X10710000Y-35080000D03*
G04 #@! TO.P,J1,3,3*
G04 #@! TO.N,Board_2-GND*
X10710000Y-34730000D03*
G04 #@! TO.P,J1,4,4*
G04 #@! TO.N,Board_2-/MOTOR_B*
X10710000Y-34380000D03*
G04 #@! TO.P,J1,5,5*
X10710000Y-34030000D03*
G04 #@! TO.P,J1,6,6*
G04 #@! TO.N,Board_2-/MOTOR_A*
X10710000Y-33680000D03*
G04 #@! TO.P,J1,7,7*
X10710000Y-33330000D03*
G04 #@! TO.P,J1,8,8*
G04 #@! TO.N,Board_2-/CAP+*
X10710000Y-32980000D03*
G04 #@! TO.P,J1,9,9*
G04 #@! TO.N,Board_2-/LAMP_FRONT*
X10710000Y-32630000D03*
G04 #@! TO.P,J1,10,10*
G04 #@! TO.N,Board_2-/LAMP_REAR*
X10710000Y-32280000D03*
G04 #@! TO.P,J1,11,11*
G04 #@! TO.N,Board_2-/AUX1 (VDC)*
X10710000Y-31930000D03*
G04 #@! TO.P,J1,12,12*
G04 #@! TO.N,Board_2-/AUX2 (VDC)*
X10710000Y-31580000D03*
G04 #@! TO.P,J1,13,13*
G04 #@! TO.N,Board_2-/AUX8 (VDC)*
X8890000Y-31580000D03*
G04 #@! TO.P,J1,14,14*
G04 #@! TO.N,Board_2-/AUX7 (VDC)*
X8890000Y-31930000D03*
G04 #@! TO.P,J1,15,15*
G04 #@! TO.N,Board_2-/AUX6 (VDC)*
X8890000Y-32280000D03*
G04 #@! TO.P,J1,16,16*
G04 #@! TO.N,Board_2-/AUX5 (VDC)*
X8890000Y-32630000D03*
G04 #@! TO.P,J1,17,17*
G04 #@! TO.N,Board_2-VDC*
X8890000Y-32980000D03*
G04 #@! TO.P,J1,18,18*
G04 #@! TO.N,Board_2-VCC*
X8890000Y-33330000D03*
G04 #@! TO.P,J1,19,19*
G04 #@! TO.N,Board_2-/AUX10*
X8890000Y-33680000D03*
G04 #@! TO.P,J1,20,20*
G04 #@! TO.N,Board_2-/AUX4*
X8890000Y-34030000D03*
G04 #@! TO.P,J1,21,21*
G04 #@! TO.N,Board_2-/AUX3*
X8890000Y-34380000D03*
G04 #@! TO.P,J1,22,22*
G04 #@! TO.N,Board_2-GND*
X8890000Y-34730000D03*
G04 #@! TO.P,J1,23,23*
G04 #@! TO.N,Board_2-/AUX11*
X8890000Y-35080000D03*
G04 #@! TO.P,J1,24,24*
G04 #@! TO.N,Board_2-/AUX12*
X8890000Y-35430000D03*
D11*
G04 #@! TO.P,J1,X1A,X1A*
G04 #@! TO.N,Board_2-/TRACK_LEFT*
X10570000Y-35800000D03*
G04 #@! TO.P,J1,X1B,X1B*
X9030000Y-35800000D03*
G04 #@! TO.P,J1,X2A,X2A*
G04 #@! TO.N,Board_2-/TRACK_RIGHT*
X10570000Y-31200000D03*
G04 #@! TO.P,J1,X2B,X2B*
X9030000Y-31200000D03*
G04 #@! TD*
D12*
G04 #@! TO.P,KiKit_FID_B_2,*
G04 #@! TO.N,*
X30000000Y-3850000D03*
G04 #@! TD*
D10*
G04 #@! TO.P,J1,1,1*
G04 #@! TO.N,Board_1-/SPEAKER_N*
X10710000Y-24830000D03*
G04 #@! TO.P,J1,2,2*
G04 #@! TO.N,Board_1-/SPEAKER_P*
X10710000Y-24480000D03*
G04 #@! TO.P,J1,3,3*
G04 #@! TO.N,Board_1-GND*
X10710000Y-24130000D03*
G04 #@! TO.P,J1,4,4*
G04 #@! TO.N,Board_1-/MOTOR_B*
X10710000Y-23780000D03*
G04 #@! TO.P,J1,5,5*
X10710000Y-23430000D03*
G04 #@! TO.P,J1,6,6*
G04 #@! TO.N,Board_1-/MOTOR_A*
X10710000Y-23080000D03*
G04 #@! TO.P,J1,7,7*
X10710000Y-22730000D03*
G04 #@! TO.P,J1,8,8*
G04 #@! TO.N,Board_1-/CAP+*
X10710000Y-22380000D03*
G04 #@! TO.P,J1,9,9*
G04 #@! TO.N,Board_1-/LAMP_FRONT*
X10710000Y-22030000D03*
G04 #@! TO.P,J1,10,10*
G04 #@! TO.N,Board_1-/LAMP_REAR*
X10710000Y-21680000D03*
G04 #@! TO.P,J1,11,11*
G04 #@! TO.N,Board_1-/AUX1 (VDC)*
X10710000Y-21330000D03*
G04 #@! TO.P,J1,12,12*
G04 #@! TO.N,Board_1-/AUX2 (VDC)*
X10710000Y-20980000D03*
G04 #@! TO.P,J1,13,13*
G04 #@! TO.N,Board_1-/AUX8 (VDC)*
X8890000Y-20980000D03*
G04 #@! TO.P,J1,14,14*
G04 #@! TO.N,Board_1-/AUX7 (VDC)*
X8890000Y-21330000D03*
G04 #@! TO.P,J1,15,15*
G04 #@! TO.N,Board_1-/AUX6 (VDC)*
X8890000Y-21680000D03*
G04 #@! TO.P,J1,16,16*
G04 #@! TO.N,Board_1-/AUX5 (VDC)*
X8890000Y-22030000D03*
G04 #@! TO.P,J1,17,17*
G04 #@! TO.N,Board_1-VDC*
X8890000Y-22380000D03*
G04 #@! TO.P,J1,18,18*
G04 #@! TO.N,Board_1-VCC*
X8890000Y-22730000D03*
G04 #@! TO.P,J1,19,19*
G04 #@! TO.N,Board_1-/AUX10*
X8890000Y-23080000D03*
G04 #@! TO.P,J1,20,20*
G04 #@! TO.N,Board_1-/AUX4*
X8890000Y-23430000D03*
G04 #@! TO.P,J1,21,21*
G04 #@! TO.N,Board_1-/AUX3*
X8890000Y-23780000D03*
G04 #@! TO.P,J1,22,22*
G04 #@! TO.N,Board_1-GND*
X8890000Y-24130000D03*
G04 #@! TO.P,J1,23,23*
G04 #@! TO.N,Board_1-/AUX11*
X8890000Y-24480000D03*
G04 #@! TO.P,J1,24,24*
G04 #@! TO.N,Board_1-/AUX12*
X8890000Y-24830000D03*
D11*
G04 #@! TO.P,J1,X1A,X1A*
G04 #@! TO.N,Board_1-/TRACK_LEFT*
X10570000Y-25200000D03*
G04 #@! TO.P,J1,X1B,X1B*
X9030000Y-25200000D03*
G04 #@! TO.P,J1,X2A,X2A*
G04 #@! TO.N,Board_1-/TRACK_RIGHT*
X10570000Y-20600000D03*
G04 #@! TO.P,J1,X2B,X2B*
X9030000Y-20600000D03*
G04 #@! TD*
D12*
G04 #@! TO.P,KiKit_FID_B_4,*
G04 #@! TO.N,*
X30000000Y-52550000D03*
G04 #@! TD*
D10*
G04 #@! TO.P,J1,1,1*
G04 #@! TO.N,Board_0-/SPEAKER_N*
X10710000Y-14230000D03*
G04 #@! TO.P,J1,2,2*
G04 #@! TO.N,Board_0-/SPEAKER_P*
X10710000Y-13880000D03*
G04 #@! TO.P,J1,3,3*
G04 #@! TO.N,Board_0-GND*
X10710000Y-13530000D03*
G04 #@! TO.P,J1,4,4*
G04 #@! TO.N,Board_0-/MOTOR_B*
X10710000Y-13180000D03*
G04 #@! TO.P,J1,5,5*
X10710000Y-12830000D03*
G04 #@! TO.P,J1,6,6*
G04 #@! TO.N,Board_0-/MOTOR_A*
X10710000Y-12480000D03*
G04 #@! TO.P,J1,7,7*
X10710000Y-12130000D03*
G04 #@! TO.P,J1,8,8*
G04 #@! TO.N,Board_0-/CAP+*
X10710000Y-11780000D03*
G04 #@! TO.P,J1,9,9*
G04 #@! TO.N,Board_0-/LAMP_FRONT*
X10710000Y-11430000D03*
G04 #@! TO.P,J1,10,10*
G04 #@! TO.N,Board_0-/LAMP_REAR*
X10710000Y-11080000D03*
G04 #@! TO.P,J1,11,11*
G04 #@! TO.N,Board_0-/AUX1 (VDC)*
X10710000Y-10730000D03*
G04 #@! TO.P,J1,12,12*
G04 #@! TO.N,Board_0-/AUX2 (VDC)*
X10710000Y-10380000D03*
G04 #@! TO.P,J1,13,13*
G04 #@! TO.N,Board_0-/AUX8 (VDC)*
X8890000Y-10380000D03*
G04 #@! TO.P,J1,14,14*
G04 #@! TO.N,Board_0-/AUX7 (VDC)*
X8890000Y-10730000D03*
G04 #@! TO.P,J1,15,15*
G04 #@! TO.N,Board_0-/AUX6 (VDC)*
X8890000Y-11080000D03*
G04 #@! TO.P,J1,16,16*
G04 #@! TO.N,Board_0-/AUX5 (VDC)*
X8890000Y-11430000D03*
G04 #@! TO.P,J1,17,17*
G04 #@! TO.N,Board_0-VDC*
X8890000Y-11780000D03*
G04 #@! TO.P,J1,18,18*
G04 #@! TO.N,Board_0-VCC*
X8890000Y-12130000D03*
G04 #@! TO.P,J1,19,19*
G04 #@! TO.N,Board_0-/AUX10*
X8890000Y-12480000D03*
G04 #@! TO.P,J1,20,20*
G04 #@! TO.N,Board_0-/AUX4*
X8890000Y-12830000D03*
G04 #@! TO.P,J1,21,21*
G04 #@! TO.N,Board_0-/AUX3*
X8890000Y-13180000D03*
G04 #@! TO.P,J1,22,22*
G04 #@! TO.N,Board_0-GND*
X8890000Y-13530000D03*
G04 #@! TO.P,J1,23,23*
G04 #@! TO.N,Board_0-/AUX11*
X8890000Y-13880000D03*
G04 #@! TO.P,J1,24,24*
G04 #@! TO.N,Board_0-/AUX12*
X8890000Y-14230000D03*
D11*
G04 #@! TO.P,J1,X1A,X1A*
G04 #@! TO.N,Board_0-/TRACK_LEFT*
X10570000Y-14600000D03*
G04 #@! TO.P,J1,X1B,X1B*
X9030000Y-14600000D03*
G04 #@! TO.P,J1,X2A,X2A*
G04 #@! TO.N,Board_0-/TRACK_RIGHT*
X10570000Y-10000000D03*
G04 #@! TO.P,J1,X2B,X2B*
X9030000Y-10000000D03*
G04 #@! TD*
D10*
G04 #@! TO.P,J1,1,1*
G04 #@! TO.N,Board_3-/SPEAKER_N*
X10710000Y-46030000D03*
G04 #@! TO.P,J1,2,2*
G04 #@! TO.N,Board_3-/SPEAKER_P*
X10710000Y-45680000D03*
G04 #@! TO.P,J1,3,3*
G04 #@! TO.N,Board_3-GND*
X10710000Y-45330000D03*
G04 #@! TO.P,J1,4,4*
G04 #@! TO.N,Board_3-/MOTOR_B*
X10710000Y-44980000D03*
G04 #@! TO.P,J1,5,5*
X10710000Y-44630000D03*
G04 #@! TO.P,J1,6,6*
G04 #@! TO.N,Board_3-/MOTOR_A*
X10710000Y-44280000D03*
G04 #@! TO.P,J1,7,7*
X10710000Y-43930000D03*
G04 #@! TO.P,J1,8,8*
G04 #@! TO.N,Board_3-/CAP+*
X10710000Y-43580000D03*
G04 #@! TO.P,J1,9,9*
G04 #@! TO.N,Board_3-/LAMP_FRONT*
X10710000Y-43230000D03*
G04 #@! TO.P,J1,10,10*
G04 #@! TO.N,Board_3-/LAMP_REAR*
X10710000Y-42880000D03*
G04 #@! TO.P,J1,11,11*
G04 #@! TO.N,Board_3-/AUX1 (VDC)*
X10710000Y-42530000D03*
G04 #@! TO.P,J1,12,12*
G04 #@! TO.N,Board_3-/AUX2 (VDC)*
X10710000Y-42180000D03*
G04 #@! TO.P,J1,13,13*
G04 #@! TO.N,Board_3-/AUX8 (VDC)*
X8890000Y-42180000D03*
G04 #@! TO.P,J1,14,14*
G04 #@! TO.N,Board_3-/AUX7 (VDC)*
X8890000Y-42530000D03*
G04 #@! TO.P,J1,15,15*
G04 #@! TO.N,Board_3-/AUX6 (VDC)*
X8890000Y-42880000D03*
G04 #@! TO.P,J1,16,16*
G04 #@! TO.N,Board_3-/AUX5 (VDC)*
X8890000Y-43230000D03*
G04 #@! TO.P,J1,17,17*
G04 #@! TO.N,Board_3-VDC*
X8890000Y-43580000D03*
G04 #@! TO.P,J1,18,18*
G04 #@! TO.N,Board_3-VCC*
X8890000Y-43930000D03*
G04 #@! TO.P,J1,19,19*
G04 #@! TO.N,Board_3-/AUX10*
X8890000Y-44280000D03*
G04 #@! TO.P,J1,20,20*
G04 #@! TO.N,Board_3-/AUX4*
X8890000Y-44630000D03*
G04 #@! TO.P,J1,21,21*
G04 #@! TO.N,Board_3-/AUX3*
X8890000Y-44980000D03*
G04 #@! TO.P,J1,22,22*
G04 #@! TO.N,Board_3-GND*
X8890000Y-45330000D03*
G04 #@! TO.P,J1,23,23*
G04 #@! TO.N,Board_3-/AUX11*
X8890000Y-45680000D03*
G04 #@! TO.P,J1,24,24*
G04 #@! TO.N,Board_3-/AUX12*
X8890000Y-46030000D03*
D11*
G04 #@! TO.P,J1,X1A,X1A*
G04 #@! TO.N,Board_3-/TRACK_LEFT*
X10570000Y-46400000D03*
G04 #@! TO.P,J1,X1B,X1B*
X9030000Y-46400000D03*
G04 #@! TO.P,J1,X2A,X2A*
G04 #@! TO.N,Board_3-/TRACK_RIGHT*
X10570000Y-41800000D03*
G04 #@! TO.P,J1,X2B,X2B*
X9030000Y-41800000D03*
G04 #@! TD*
D12*
G04 #@! TO.P,KiKit_FID_B_3,*
G04 #@! TO.N,*
X10000000Y-52550000D03*
G04 #@! TD*
G04 #@! TO.P,KiKit_FID_B_1,*
G04 #@! TO.N,*
X10000000Y-3850000D03*
G04 #@! TD*
D13*
G04 #@! TO.N,Board_0-/AUX1 (VDC)*
X20150000Y-11000000D03*
G04 #@! TO.N,Board_0-/AUX10*
X24900000Y-9400000D03*
G04 #@! TO.N,Board_0-/AUX11*
X26800000Y-15200000D03*
G04 #@! TO.N,Board_0-/AUX12*
X25900000Y-15300000D03*
X10850000Y-15870000D03*
X9000000Y-15800000D03*
G04 #@! TO.N,Board_0-/AUX2 (VDC)*
X22000000Y-11000000D03*
G04 #@! TO.N,Board_0-/AUX3*
X23930000Y-14540000D03*
G04 #@! TO.N,Board_0-/AUX4*
X13400000Y-9900000D03*
X9930000Y-12550000D03*
X23910000Y-11050000D03*
G04 #@! TO.N,Board_0-/CAP+*
X19100000Y-11800000D03*
G04 #@! TO.N,Board_0-/LAMP_FRONT*
X16200000Y-11720000D03*
G04 #@! TO.N,Board_0-/LAMP_REAR*
X16800000Y-11300000D03*
G04 #@! TO.N,Board_0-/MOTOR_A*
X11340000Y-12180000D03*
G04 #@! TO.N,Board_0-/MOTOR_B*
X11340000Y-12810000D03*
G04 #@! TO.N,Board_0-/SPEAKER_N*
X28700000Y-15200000D03*
G04 #@! TO.N,Board_0-/SPEAKER_P*
X28700000Y-9400000D03*
G04 #@! TO.N,Board_0-/TRACK_LEFT*
X9000000Y-14800000D03*
X12100000Y-14600000D03*
X11500000Y-14610000D03*
G04 #@! TO.N,Board_0-/TRACK_RIGHT*
X9000000Y-9800000D03*
X10600000Y-9800000D03*
X12000000Y-9800000D03*
G04 #@! TO.N,Board_0-GND*
X30710000Y-10050000D03*
X20100000Y-12300000D03*
X30740000Y-14520000D03*
X15200000Y-12500000D03*
X13400000Y-14000000D03*
X20100000Y-14000000D03*
X16200000Y-14000000D03*
X22490000Y-12310000D03*
X9985000Y-15395000D03*
X14400000Y-12500000D03*
X23730000Y-12320000D03*
X25370000Y-12320000D03*
X9000000Y-8800000D03*
X20180000Y-9210000D03*
X10020000Y-13240000D03*
G04 #@! TO.N,Board_0-VCC*
X18300000Y-9400000D03*
G04 #@! TO.N,Board_0-VDC*
X21100000Y-8800000D03*
G04 #@! TO.N,Board_1-/AUX1 (VDC)*
X20150000Y-21600000D03*
G04 #@! TO.N,Board_1-/AUX10*
X24900000Y-20000000D03*
G04 #@! TO.N,Board_1-/AUX11*
X26800000Y-25800000D03*
G04 #@! TO.N,Board_1-/AUX12*
X10850000Y-26470000D03*
X9000000Y-26400000D03*
X25900000Y-25900000D03*
G04 #@! TO.N,Board_1-/AUX2 (VDC)*
X22000000Y-21600000D03*
G04 #@! TO.N,Board_1-/AUX3*
X23930000Y-25140000D03*
G04 #@! TO.N,Board_1-/AUX4*
X23910000Y-21650000D03*
X13400000Y-20500000D03*
X9930000Y-23150000D03*
G04 #@! TO.N,Board_1-/CAP+*
X19100000Y-22400000D03*
G04 #@! TO.N,Board_1-/LAMP_FRONT*
X16200000Y-22320000D03*
G04 #@! TO.N,Board_1-/LAMP_REAR*
X16800000Y-21900000D03*
G04 #@! TO.N,Board_1-/MOTOR_A*
X11340000Y-22780000D03*
G04 #@! TO.N,Board_1-/MOTOR_B*
X11340000Y-23410000D03*
G04 #@! TO.N,Board_1-/SPEAKER_N*
X28700000Y-25800000D03*
G04 #@! TO.N,Board_1-/SPEAKER_P*
X28700000Y-20000000D03*
G04 #@! TO.N,Board_1-/TRACK_LEFT*
X9000000Y-25400000D03*
X11500000Y-25210000D03*
X12100000Y-25200000D03*
G04 #@! TO.N,Board_1-/TRACK_RIGHT*
X12000000Y-20400000D03*
X10600000Y-20400000D03*
X9000000Y-20400000D03*
G04 #@! TO.N,Board_1-GND*
X20100000Y-22900000D03*
X23730000Y-22920000D03*
X13400000Y-24600000D03*
X9000000Y-19400000D03*
X30710000Y-20650000D03*
X30740000Y-25120000D03*
X25370000Y-22920000D03*
X22490000Y-22910000D03*
X9985000Y-25995000D03*
X14400000Y-23100000D03*
X20100000Y-24600000D03*
X10020000Y-23840000D03*
X16200000Y-24600000D03*
X20180000Y-19810000D03*
X15200000Y-23100000D03*
G04 #@! TO.N,Board_1-VCC*
X18300000Y-20000000D03*
G04 #@! TO.N,Board_1-VDC*
X21100000Y-19400000D03*
G04 #@! TO.N,Board_2-/AUX1 (VDC)*
X20150000Y-32200000D03*
G04 #@! TO.N,Board_2-/AUX10*
X24900000Y-30600000D03*
G04 #@! TO.N,Board_2-/AUX11*
X26800000Y-36400000D03*
G04 #@! TO.N,Board_2-/AUX12*
X10850000Y-37070000D03*
X25900000Y-36500000D03*
X9000000Y-37000000D03*
G04 #@! TO.N,Board_2-/AUX2 (VDC)*
X22000000Y-32200000D03*
G04 #@! TO.N,Board_2-/AUX3*
X23930000Y-35740000D03*
G04 #@! TO.N,Board_2-/AUX4*
X9930000Y-33750000D03*
X23910000Y-32250000D03*
X13400000Y-31100000D03*
G04 #@! TO.N,Board_2-/CAP+*
X19100000Y-33000000D03*
G04 #@! TO.N,Board_2-/LAMP_FRONT*
X16200000Y-32920000D03*
G04 #@! TO.N,Board_2-/LAMP_REAR*
X16800000Y-32500000D03*
G04 #@! TO.N,Board_2-/MOTOR_A*
X11340000Y-33380000D03*
G04 #@! TO.N,Board_2-/MOTOR_B*
X11340000Y-34010000D03*
G04 #@! TO.N,Board_2-/SPEAKER_N*
X28700000Y-36400000D03*
G04 #@! TO.N,Board_2-/SPEAKER_P*
X28700000Y-30600000D03*
G04 #@! TO.N,Board_2-/TRACK_LEFT*
X9000000Y-36000000D03*
X11500000Y-35810000D03*
X12100000Y-35800000D03*
G04 #@! TO.N,Board_2-/TRACK_RIGHT*
X12000000Y-31000000D03*
X9000000Y-31000000D03*
X10600000Y-31000000D03*
G04 #@! TO.N,Board_2-GND*
X30740000Y-35720000D03*
X15200000Y-33700000D03*
X9985000Y-36595000D03*
X30710000Y-31250000D03*
X25370000Y-33520000D03*
X20100000Y-35200000D03*
X10020000Y-34440000D03*
X14400000Y-33700000D03*
X20180000Y-30410000D03*
X9000000Y-30000000D03*
X16200000Y-35200000D03*
X22490000Y-33510000D03*
X13400000Y-35200000D03*
X23730000Y-33520000D03*
X20100000Y-33500000D03*
G04 #@! TO.N,Board_2-VCC*
X18300000Y-30600000D03*
G04 #@! TO.N,Board_2-VDC*
X21100000Y-30000000D03*
G04 #@! TO.N,Board_3-/AUX1 (VDC)*
X20150000Y-42800000D03*
G04 #@! TO.N,Board_3-/AUX10*
X24900000Y-41200000D03*
G04 #@! TO.N,Board_3-/AUX11*
X26800000Y-47000000D03*
G04 #@! TO.N,Board_3-/AUX12*
X10850000Y-47670000D03*
X25900000Y-47100000D03*
X9000000Y-47600000D03*
G04 #@! TO.N,Board_3-/AUX2 (VDC)*
X22000000Y-42800000D03*
G04 #@! TO.N,Board_3-/AUX3*
X23930000Y-46340000D03*
G04 #@! TO.N,Board_3-/AUX4*
X23910000Y-42850000D03*
X13400000Y-41700000D03*
X9930000Y-44350000D03*
G04 #@! TO.N,Board_3-/CAP+*
X19100000Y-43600000D03*
G04 #@! TO.N,Board_3-/LAMP_FRONT*
X16200000Y-43520000D03*
G04 #@! TO.N,Board_3-/LAMP_REAR*
X16800000Y-43100000D03*
G04 #@! TO.N,Board_3-/MOTOR_A*
X11340000Y-43980000D03*
G04 #@! TO.N,Board_3-/MOTOR_B*
X11340000Y-44610000D03*
G04 #@! TO.N,Board_3-/SPEAKER_N*
X28700000Y-47000000D03*
G04 #@! TO.N,Board_3-/SPEAKER_P*
X28700000Y-41200000D03*
G04 #@! TO.N,Board_3-/TRACK_LEFT*
X12100000Y-46400000D03*
X9000000Y-46600000D03*
X11500000Y-46410000D03*
G04 #@! TO.N,Board_3-/TRACK_RIGHT*
X10600000Y-41600000D03*
X12000000Y-41600000D03*
X9000000Y-41600000D03*
G04 #@! TO.N,Board_3-GND*
X30740000Y-46320000D03*
X23730000Y-44120000D03*
X15200000Y-44300000D03*
X9000000Y-40600000D03*
X13400000Y-45800000D03*
X25370000Y-44120000D03*
X10020000Y-45040000D03*
X16200000Y-45800000D03*
X30710000Y-41850000D03*
X9985000Y-47195000D03*
X20100000Y-45800000D03*
X20180000Y-41010000D03*
X22490000Y-44110000D03*
X20100000Y-44100000D03*
X14400000Y-44300000D03*
G04 #@! TO.N,Board_3-VCC*
X18300000Y-41200000D03*
G04 #@! TO.N,Board_3-VDC*
X21100000Y-40600000D03*
G04 #@! TD*
D14*
G04 #@! TO.N,Board_0-/AUX1 (VDC)*
X19890000Y-10740000D02*
X10722000Y-10740000D01*
X10722000Y-10740000D02*
X10707000Y-10725000D01*
X20150000Y-11000000D02*
X19890000Y-10740000D01*
G04 #@! TO.N,Board_0-/AUX10*
X24900000Y-9400000D02*
X24900000Y-9410000D01*
X23255980Y-10000000D02*
X23155980Y-9900000D01*
X24690000Y-9200000D02*
X23890000Y-10000000D01*
X24900000Y-9410000D02*
X24690000Y-9200000D01*
X10095500Y-11694744D02*
X9315244Y-12475000D01*
X9315244Y-12475000D02*
X8892000Y-12475000D01*
X14335876Y-9900000D02*
X13760876Y-9325000D01*
X23155980Y-9900000D02*
X14335876Y-9900000D01*
X10403248Y-9325000D02*
X10095500Y-9632748D01*
X10095500Y-9632748D02*
X10095500Y-11694744D01*
X13760876Y-9325000D02*
X10403248Y-9325000D01*
X23890000Y-10000000D02*
X23255980Y-10000000D01*
G04 #@! TO.N,Board_0-/AUX11*
X25703248Y-14825000D02*
X25163248Y-15365000D01*
X10181752Y-15870000D02*
X9788248Y-15870000D01*
X9510000Y-15591752D02*
X9510000Y-14220000D01*
X10375000Y-15676752D02*
X10181752Y-15870000D01*
X9510000Y-14220000D02*
X9165000Y-13875000D01*
X10683248Y-15365000D02*
X10375000Y-15673248D01*
X9165000Y-13875000D02*
X8892000Y-13875000D01*
X9788248Y-15870000D02*
X9510000Y-15591752D01*
X10375000Y-15673248D02*
X10375000Y-15676752D01*
X26425000Y-14825000D02*
X25703248Y-14825000D01*
X26800000Y-15200000D02*
X26425000Y-14825000D01*
X25163248Y-15365000D02*
X10683248Y-15365000D01*
G04 #@! TO.N,Board_0-/AUX12*
X8475000Y-14465000D02*
X8715000Y-14225000D01*
X9000000Y-15800000D02*
X8475000Y-15275000D01*
X25555000Y-15645000D02*
X25900000Y-15300000D01*
X11075000Y-15645000D02*
X25555000Y-15645000D01*
X8475000Y-15275000D02*
X8475000Y-14465000D01*
X10850000Y-15870000D02*
X11075000Y-15645000D01*
X8715000Y-14225000D02*
X8892000Y-14225000D01*
G04 #@! TO.N,Board_0-/AUX2 (VDC)*
X11060000Y-10460000D02*
X10975000Y-10375000D01*
X10975000Y-10375000D02*
X10707000Y-10375000D01*
X21460000Y-10460000D02*
X11060000Y-10460000D01*
X22000000Y-11000000D02*
X21460000Y-10460000D01*
G04 #@! TO.N,Board_0-/AUX3*
X23930000Y-14540000D02*
X23385000Y-15085000D01*
X10346752Y-15085000D02*
X10090000Y-14828248D01*
X10090000Y-13984020D02*
X9280980Y-13175000D01*
X10090000Y-14828248D02*
X10090000Y-13984020D01*
X23385000Y-15085000D02*
X10346752Y-15085000D01*
X9280980Y-13175000D02*
X8892000Y-13175000D01*
G04 #@! TO.N,Board_0-/AUX4*
X23040000Y-10180000D02*
X23910000Y-11050000D01*
X13680000Y-10180000D02*
X23040000Y-10180000D01*
X9655000Y-12825000D02*
X8892000Y-12825000D01*
X9930000Y-12550000D02*
X9655000Y-12825000D01*
X13400000Y-9900000D02*
X13680000Y-10180000D01*
G04 #@! TO.N,Board_0-/CAP+*
X18700000Y-12200000D02*
X16008248Y-12200000D01*
X19100000Y-11800000D02*
X18700000Y-12200000D01*
X11154500Y-11705000D02*
X11084500Y-11775000D01*
X16008248Y-12200000D02*
X15513248Y-11705000D01*
X11084500Y-11775000D02*
X10707000Y-11775000D01*
X15513248Y-11705000D02*
X11154500Y-11705000D01*
G04 #@! TO.N,Board_0-/LAMP_FRONT*
X16200000Y-11720000D02*
X15905000Y-11425000D01*
X15905000Y-11425000D02*
X10707000Y-11425000D01*
G04 #@! TO.N,Board_0-/LAMP_REAR*
X16575000Y-11075000D02*
X10707000Y-11075000D01*
X16800000Y-11300000D02*
X16575000Y-11075000D01*
D15*
G04 #@! TO.N,Board_0-/MOTOR_A*
X10707000Y-12475000D02*
X10707000Y-12300000D01*
X11220000Y-12300000D02*
X10707000Y-12300000D01*
X10707000Y-12300000D02*
X10707000Y-12125000D01*
X11340000Y-12180000D02*
X11220000Y-12300000D01*
G04 #@! TO.N,Board_0-/MOTOR_B*
X11150000Y-13000000D02*
X10707000Y-13000000D01*
X10707000Y-12825000D02*
X10707000Y-13000000D01*
X10707000Y-13000000D02*
X10707000Y-13175000D01*
X11340000Y-12810000D02*
X11150000Y-13000000D01*
D14*
G04 #@! TO.N,Board_0-/SPEAKER_N*
X11346460Y-14040000D02*
X11765980Y-14040000D01*
X11161460Y-14225000D02*
X11346460Y-14040000D01*
X12540980Y-13265000D02*
X26765000Y-13265000D01*
X11765980Y-14040000D02*
X12540980Y-13265000D01*
X10707000Y-14225000D02*
X11161460Y-14225000D01*
X26765000Y-13265000D02*
X28700000Y-15200000D01*
G04 #@! TO.N,Board_0-/SPEAKER_P*
X26795000Y-12985000D02*
X28700000Y-11080000D01*
X28700000Y-11080000D02*
X28700000Y-9400000D01*
X11115480Y-13875000D02*
X11230480Y-13760000D01*
X11230480Y-13760000D02*
X11650000Y-13760000D01*
X11650000Y-13760000D02*
X12425000Y-12985000D01*
X12425000Y-12985000D02*
X26795000Y-12985000D01*
X10707000Y-13875000D02*
X11115480Y-13875000D01*
D16*
G04 #@! TO.N,Board_0-/TRACK_LEFT*
X9032000Y-14768000D02*
X9000000Y-14800000D01*
X11500000Y-14610000D02*
X12090000Y-14610000D01*
X11500000Y-14610000D02*
X10578000Y-14610000D01*
D15*
X10578000Y-14610000D02*
X10568000Y-14600000D01*
D16*
X9032000Y-14600000D02*
X9032000Y-14768000D01*
X12090000Y-14610000D02*
X12100000Y-14600000D01*
G04 #@! TO.N,Board_0-/TRACK_RIGHT*
X12000000Y-9800000D02*
X10768000Y-9800000D01*
D15*
X10568000Y-9832000D02*
X10568000Y-10000000D01*
D16*
X10768000Y-9800000D02*
X10568000Y-10000000D01*
D15*
X9000000Y-9800000D02*
X9032000Y-9832000D01*
X10600000Y-9800000D02*
X10568000Y-9832000D01*
X9032000Y-9832000D02*
X9032000Y-10000000D01*
D14*
G04 #@! TO.N,Board_0-GND*
X11530000Y-13440000D02*
X11154500Y-13440000D01*
X15200000Y-12500000D02*
X14400000Y-12500000D01*
X11154500Y-13440000D02*
X11069500Y-13525000D01*
X9810000Y-14100000D02*
X9235000Y-13525000D01*
X9810000Y-15220000D02*
X9810000Y-14100000D01*
X14400000Y-12500000D02*
X12470000Y-12500000D01*
X12470000Y-12500000D02*
X11530000Y-13440000D01*
X9985000Y-15395000D02*
X9810000Y-15220000D01*
X10707000Y-13525000D02*
X10305000Y-13525000D01*
X10305000Y-13525000D02*
X10020000Y-13240000D01*
X9235000Y-13525000D02*
X8892000Y-13525000D01*
X11069500Y-13525000D02*
X10707000Y-13525000D01*
G04 #@! TO.N,Board_0-VCC*
X10287268Y-9045000D02*
X9815500Y-9516768D01*
X13876856Y-9045000D02*
X10287268Y-9045000D01*
X14451856Y-9620000D02*
X13876856Y-9045000D01*
X9815500Y-9516768D02*
X9815500Y-11578764D01*
X9815500Y-11578764D02*
X9269264Y-12125000D01*
X18300000Y-9400000D02*
X18080000Y-9620000D01*
X18080000Y-9620000D02*
X14451856Y-9620000D01*
X9269264Y-12125000D02*
X8892000Y-12125000D01*
G04 #@! TO.N,Board_0-VDC*
X10160000Y-8690000D02*
X9504500Y-9345500D01*
X21100000Y-8800000D02*
X20990000Y-8690000D01*
X9504500Y-9345500D02*
X9504500Y-11465500D01*
X9504500Y-11465500D02*
X9195000Y-11775000D01*
X9195000Y-11775000D02*
X8892000Y-11775000D01*
X20990000Y-8690000D02*
X10160000Y-8690000D01*
G04 #@! TO.N,Board_1-/AUX1 (VDC)*
X10722000Y-21340000D02*
X10707000Y-21325000D01*
X20150000Y-21600000D02*
X19890000Y-21340000D01*
X19890000Y-21340000D02*
X10722000Y-21340000D01*
G04 #@! TO.N,Board_1-/AUX10*
X9315244Y-23075000D02*
X8892000Y-23075000D01*
X23890000Y-20600000D02*
X23255980Y-20600000D01*
X14335876Y-20500000D02*
X13760876Y-19925000D01*
X10403248Y-19925000D02*
X10095500Y-20232748D01*
X24900000Y-20000000D02*
X24900000Y-20010000D01*
X24900000Y-20010000D02*
X24690000Y-19800000D01*
X13760876Y-19925000D02*
X10403248Y-19925000D01*
X10095500Y-20232748D02*
X10095500Y-22294744D01*
X23155980Y-20500000D02*
X14335876Y-20500000D01*
X23255980Y-20600000D02*
X23155980Y-20500000D01*
X24690000Y-19800000D02*
X23890000Y-20600000D01*
X10095500Y-22294744D02*
X9315244Y-23075000D01*
G04 #@! TO.N,Board_1-/AUX11*
X26800000Y-25800000D02*
X26425000Y-25425000D01*
X10181752Y-26470000D02*
X9788248Y-26470000D01*
X10375000Y-26276752D02*
X10181752Y-26470000D01*
X10683248Y-25965000D02*
X10375000Y-26273248D01*
X9510000Y-24820000D02*
X9165000Y-24475000D01*
X26425000Y-25425000D02*
X25703248Y-25425000D01*
X9165000Y-24475000D02*
X8892000Y-24475000D01*
X9788248Y-26470000D02*
X9510000Y-26191752D01*
X25703248Y-25425000D02*
X25163248Y-25965000D01*
X10375000Y-26273248D02*
X10375000Y-26276752D01*
X25163248Y-25965000D02*
X10683248Y-25965000D01*
X9510000Y-26191752D02*
X9510000Y-24820000D01*
G04 #@! TO.N,Board_1-/AUX12*
X25555000Y-26245000D02*
X25900000Y-25900000D01*
X8475000Y-25875000D02*
X8475000Y-25065000D01*
X8715000Y-24825000D02*
X8892000Y-24825000D01*
X9000000Y-26400000D02*
X8475000Y-25875000D01*
X8475000Y-25065000D02*
X8715000Y-24825000D01*
X10850000Y-26470000D02*
X11075000Y-26245000D01*
X11075000Y-26245000D02*
X25555000Y-26245000D01*
G04 #@! TO.N,Board_1-/AUX2 (VDC)*
X22000000Y-21600000D02*
X21460000Y-21060000D01*
X10975000Y-20975000D02*
X10707000Y-20975000D01*
X21460000Y-21060000D02*
X11060000Y-21060000D01*
X11060000Y-21060000D02*
X10975000Y-20975000D01*
G04 #@! TO.N,Board_1-/AUX3*
X23385000Y-25685000D02*
X10346752Y-25685000D01*
X10090000Y-25428248D02*
X10090000Y-24584020D01*
X9280980Y-23775000D02*
X8892000Y-23775000D01*
X23930000Y-25140000D02*
X23385000Y-25685000D01*
X10346752Y-25685000D02*
X10090000Y-25428248D01*
X10090000Y-24584020D02*
X9280980Y-23775000D01*
G04 #@! TO.N,Board_1-/AUX4*
X13400000Y-20500000D02*
X13680000Y-20780000D01*
X23040000Y-20780000D02*
X23910000Y-21650000D01*
X9930000Y-23150000D02*
X9655000Y-23425000D01*
X13680000Y-20780000D02*
X23040000Y-20780000D01*
X9655000Y-23425000D02*
X8892000Y-23425000D01*
G04 #@! TO.N,Board_1-/CAP+*
X16008248Y-22800000D02*
X15513248Y-22305000D01*
X11154500Y-22305000D02*
X11084500Y-22375000D01*
X11084500Y-22375000D02*
X10707000Y-22375000D01*
X18700000Y-22800000D02*
X16008248Y-22800000D01*
X19100000Y-22400000D02*
X18700000Y-22800000D01*
X15513248Y-22305000D02*
X11154500Y-22305000D01*
G04 #@! TO.N,Board_1-/LAMP_FRONT*
X15905000Y-22025000D02*
X10707000Y-22025000D01*
X16200000Y-22320000D02*
X15905000Y-22025000D01*
G04 #@! TO.N,Board_1-/LAMP_REAR*
X16800000Y-21900000D02*
X16575000Y-21675000D01*
X16575000Y-21675000D02*
X10707000Y-21675000D01*
D15*
G04 #@! TO.N,Board_1-/MOTOR_A*
X10707000Y-23075000D02*
X10707000Y-22900000D01*
X11340000Y-22780000D02*
X11220000Y-22900000D01*
X11220000Y-22900000D02*
X10707000Y-22900000D01*
X10707000Y-22900000D02*
X10707000Y-22725000D01*
G04 #@! TO.N,Board_1-/MOTOR_B*
X10707000Y-23425000D02*
X10707000Y-23600000D01*
X11150000Y-23600000D02*
X10707000Y-23600000D01*
X11340000Y-23410000D02*
X11150000Y-23600000D01*
X10707000Y-23600000D02*
X10707000Y-23775000D01*
D14*
G04 #@! TO.N,Board_1-/SPEAKER_N*
X11346460Y-24640000D02*
X11765980Y-24640000D01*
X11765980Y-24640000D02*
X12540980Y-23865000D01*
X26765000Y-23865000D02*
X28700000Y-25800000D01*
X11161460Y-24825000D02*
X11346460Y-24640000D01*
X10707000Y-24825000D02*
X11161460Y-24825000D01*
X12540980Y-23865000D02*
X26765000Y-23865000D01*
G04 #@! TO.N,Board_1-/SPEAKER_P*
X28700000Y-21680000D02*
X28700000Y-20000000D01*
X11650000Y-24360000D02*
X12425000Y-23585000D01*
X26795000Y-23585000D02*
X28700000Y-21680000D01*
X12425000Y-23585000D02*
X26795000Y-23585000D01*
X10707000Y-24475000D02*
X11115480Y-24475000D01*
X11230480Y-24360000D02*
X11650000Y-24360000D01*
X11115480Y-24475000D02*
X11230480Y-24360000D01*
D16*
G04 #@! TO.N,Board_1-/TRACK_LEFT*
X11500000Y-25210000D02*
X12090000Y-25210000D01*
X9032000Y-25368000D02*
X9000000Y-25400000D01*
X9032000Y-25200000D02*
X9032000Y-25368000D01*
D15*
X10578000Y-25210000D02*
X10568000Y-25200000D01*
D16*
X11500000Y-25210000D02*
X10578000Y-25210000D01*
X12090000Y-25210000D02*
X12100000Y-25200000D01*
D15*
G04 #@! TO.N,Board_1-/TRACK_RIGHT*
X10568000Y-20432000D02*
X10568000Y-20600000D01*
D16*
X10768000Y-20400000D02*
X10568000Y-20600000D01*
D15*
X9032000Y-20432000D02*
X9032000Y-20600000D01*
X9000000Y-20400000D02*
X9032000Y-20432000D01*
D16*
X12000000Y-20400000D02*
X10768000Y-20400000D01*
D15*
X10600000Y-20400000D02*
X10568000Y-20432000D01*
D14*
G04 #@! TO.N,Board_1-GND*
X10305000Y-24125000D02*
X10020000Y-23840000D01*
X11154500Y-24040000D02*
X11069500Y-24125000D01*
X9810000Y-25820000D02*
X9810000Y-24700000D01*
X15200000Y-23100000D02*
X14400000Y-23100000D01*
X14400000Y-23100000D02*
X12470000Y-23100000D01*
X10707000Y-24125000D02*
X10305000Y-24125000D01*
X11069500Y-24125000D02*
X10707000Y-24125000D01*
X12470000Y-23100000D02*
X11530000Y-24040000D01*
X9235000Y-24125000D02*
X8892000Y-24125000D01*
X11530000Y-24040000D02*
X11154500Y-24040000D01*
X9810000Y-24700000D02*
X9235000Y-24125000D01*
X9985000Y-25995000D02*
X9810000Y-25820000D01*
G04 #@! TO.N,Board_1-VCC*
X10287268Y-19645000D02*
X9815500Y-20116768D01*
X9269264Y-22725000D02*
X8892000Y-22725000D01*
X9815500Y-22178764D02*
X9269264Y-22725000D01*
X9815500Y-20116768D02*
X9815500Y-22178764D01*
X18300000Y-20000000D02*
X18080000Y-20220000D01*
X18080000Y-20220000D02*
X14451856Y-20220000D01*
X14451856Y-20220000D02*
X13876856Y-19645000D01*
X13876856Y-19645000D02*
X10287268Y-19645000D01*
G04 #@! TO.N,Board_1-VDC*
X9504500Y-19945500D02*
X9504500Y-22065500D01*
X9504500Y-22065500D02*
X9195000Y-22375000D01*
X10160000Y-19290000D02*
X9504500Y-19945500D01*
X21100000Y-19400000D02*
X20990000Y-19290000D01*
X20990000Y-19290000D02*
X10160000Y-19290000D01*
X9195000Y-22375000D02*
X8892000Y-22375000D01*
G04 #@! TO.N,Board_2-/AUX1 (VDC)*
X20150000Y-32200000D02*
X19890000Y-31940000D01*
X10722000Y-31940000D02*
X10707000Y-31925000D01*
X19890000Y-31940000D02*
X10722000Y-31940000D01*
G04 #@! TO.N,Board_2-/AUX10*
X23155980Y-31100000D02*
X14335876Y-31100000D01*
X24900000Y-30610000D02*
X24690000Y-30400000D01*
X10095500Y-32894744D02*
X9315244Y-33675000D01*
X10403248Y-30525000D02*
X10095500Y-30832748D01*
X9315244Y-33675000D02*
X8892000Y-33675000D01*
X13760876Y-30525000D02*
X10403248Y-30525000D01*
X14335876Y-31100000D02*
X13760876Y-30525000D01*
X24690000Y-30400000D02*
X23890000Y-31200000D01*
X23890000Y-31200000D02*
X23255980Y-31200000D01*
X10095500Y-30832748D02*
X10095500Y-32894744D01*
X23255980Y-31200000D02*
X23155980Y-31100000D01*
X24900000Y-30600000D02*
X24900000Y-30610000D01*
G04 #@! TO.N,Board_2-/AUX11*
X9510000Y-35420000D02*
X9165000Y-35075000D01*
X9788248Y-37070000D02*
X9510000Y-36791752D01*
X26800000Y-36400000D02*
X26425000Y-36025000D01*
X25703248Y-36025000D02*
X25163248Y-36565000D01*
X25163248Y-36565000D02*
X10683248Y-36565000D01*
X9510000Y-36791752D02*
X9510000Y-35420000D01*
X26425000Y-36025000D02*
X25703248Y-36025000D01*
X10683248Y-36565000D02*
X10375000Y-36873248D01*
X10375000Y-36876752D02*
X10181752Y-37070000D01*
X10181752Y-37070000D02*
X9788248Y-37070000D01*
X10375000Y-36873248D02*
X10375000Y-36876752D01*
X9165000Y-35075000D02*
X8892000Y-35075000D01*
G04 #@! TO.N,Board_2-/AUX12*
X8715000Y-35425000D02*
X8892000Y-35425000D01*
X11075000Y-36845000D02*
X25555000Y-36845000D01*
X25555000Y-36845000D02*
X25900000Y-36500000D01*
X8475000Y-35665000D02*
X8715000Y-35425000D01*
X9000000Y-37000000D02*
X8475000Y-36475000D01*
X8475000Y-36475000D02*
X8475000Y-35665000D01*
X10850000Y-37070000D02*
X11075000Y-36845000D01*
G04 #@! TO.N,Board_2-/AUX2 (VDC)*
X21460000Y-31660000D02*
X11060000Y-31660000D01*
X10975000Y-31575000D02*
X10707000Y-31575000D01*
X11060000Y-31660000D02*
X10975000Y-31575000D01*
X22000000Y-32200000D02*
X21460000Y-31660000D01*
G04 #@! TO.N,Board_2-/AUX3*
X9280980Y-34375000D02*
X8892000Y-34375000D01*
X10090000Y-36028248D02*
X10090000Y-35184020D01*
X10346752Y-36285000D02*
X10090000Y-36028248D01*
X23385000Y-36285000D02*
X10346752Y-36285000D01*
X10090000Y-35184020D02*
X9280980Y-34375000D01*
X23930000Y-35740000D02*
X23385000Y-36285000D01*
G04 #@! TO.N,Board_2-/AUX4*
X23040000Y-31380000D02*
X23910000Y-32250000D01*
X9655000Y-34025000D02*
X8892000Y-34025000D01*
X9930000Y-33750000D02*
X9655000Y-34025000D01*
X13400000Y-31100000D02*
X13680000Y-31380000D01*
X13680000Y-31380000D02*
X23040000Y-31380000D01*
G04 #@! TO.N,Board_2-/CAP+*
X18700000Y-33400000D02*
X16008248Y-33400000D01*
X16008248Y-33400000D02*
X15513248Y-32905000D01*
X19100000Y-33000000D02*
X18700000Y-33400000D01*
X11154500Y-32905000D02*
X11084500Y-32975000D01*
X11084500Y-32975000D02*
X10707000Y-32975000D01*
X15513248Y-32905000D02*
X11154500Y-32905000D01*
G04 #@! TO.N,Board_2-/LAMP_FRONT*
X15905000Y-32625000D02*
X10707000Y-32625000D01*
X16200000Y-32920000D02*
X15905000Y-32625000D01*
G04 #@! TO.N,Board_2-/LAMP_REAR*
X16800000Y-32500000D02*
X16575000Y-32275000D01*
X16575000Y-32275000D02*
X10707000Y-32275000D01*
D15*
G04 #@! TO.N,Board_2-/MOTOR_A*
X10707000Y-33675000D02*
X10707000Y-33500000D01*
X11220000Y-33500000D02*
X10707000Y-33500000D01*
X10707000Y-33500000D02*
X10707000Y-33325000D01*
X11340000Y-33380000D02*
X11220000Y-33500000D01*
G04 #@! TO.N,Board_2-/MOTOR_B*
X11340000Y-34010000D02*
X11150000Y-34200000D01*
X11150000Y-34200000D02*
X10707000Y-34200000D01*
X10707000Y-34025000D02*
X10707000Y-34200000D01*
X10707000Y-34200000D02*
X10707000Y-34375000D01*
D14*
G04 #@! TO.N,Board_2-/SPEAKER_N*
X11161460Y-35425000D02*
X11346460Y-35240000D01*
X11765980Y-35240000D02*
X12540980Y-34465000D01*
X11346460Y-35240000D02*
X11765980Y-35240000D01*
X12540980Y-34465000D02*
X26765000Y-34465000D01*
X10707000Y-35425000D02*
X11161460Y-35425000D01*
X26765000Y-34465000D02*
X28700000Y-36400000D01*
G04 #@! TO.N,Board_2-/SPEAKER_P*
X11115480Y-35075000D02*
X11230480Y-34960000D01*
X28700000Y-32280000D02*
X28700000Y-30600000D01*
X11650000Y-34960000D02*
X12425000Y-34185000D01*
X10707000Y-35075000D02*
X11115480Y-35075000D01*
X11230480Y-34960000D02*
X11650000Y-34960000D01*
X12425000Y-34185000D02*
X26795000Y-34185000D01*
X26795000Y-34185000D02*
X28700000Y-32280000D01*
D15*
G04 #@! TO.N,Board_2-/TRACK_LEFT*
X10578000Y-35810000D02*
X10568000Y-35800000D01*
D16*
X11500000Y-35810000D02*
X12090000Y-35810000D01*
X11500000Y-35810000D02*
X10578000Y-35810000D01*
X12090000Y-35810000D02*
X12100000Y-35800000D01*
X9032000Y-35800000D02*
X9032000Y-35968000D01*
X9032000Y-35968000D02*
X9000000Y-36000000D01*
D15*
G04 #@! TO.N,Board_2-/TRACK_RIGHT*
X10568000Y-31032000D02*
X10568000Y-31200000D01*
X10600000Y-31000000D02*
X10568000Y-31032000D01*
X9032000Y-31032000D02*
X9032000Y-31200000D01*
D16*
X10768000Y-31000000D02*
X10568000Y-31200000D01*
X12000000Y-31000000D02*
X10768000Y-31000000D01*
D15*
X9000000Y-31000000D02*
X9032000Y-31032000D01*
D14*
G04 #@! TO.N,Board_2-GND*
X9235000Y-34725000D02*
X8892000Y-34725000D01*
X9810000Y-35300000D02*
X9235000Y-34725000D01*
X9810000Y-36420000D02*
X9810000Y-35300000D01*
X10305000Y-34725000D02*
X10020000Y-34440000D01*
X11154500Y-34640000D02*
X11069500Y-34725000D01*
X10707000Y-34725000D02*
X10305000Y-34725000D01*
X14400000Y-33700000D02*
X12470000Y-33700000D01*
X11069500Y-34725000D02*
X10707000Y-34725000D01*
X15200000Y-33700000D02*
X14400000Y-33700000D01*
X11530000Y-34640000D02*
X11154500Y-34640000D01*
X12470000Y-33700000D02*
X11530000Y-34640000D01*
X9985000Y-36595000D02*
X9810000Y-36420000D01*
G04 #@! TO.N,Board_2-VCC*
X9269264Y-33325000D02*
X8892000Y-33325000D01*
X13876856Y-30245000D02*
X10287268Y-30245000D01*
X18300000Y-30600000D02*
X18080000Y-30820000D01*
X18080000Y-30820000D02*
X14451856Y-30820000D01*
X9815500Y-30716768D02*
X9815500Y-32778764D01*
X10287268Y-30245000D02*
X9815500Y-30716768D01*
X14451856Y-30820000D02*
X13876856Y-30245000D01*
X9815500Y-32778764D02*
X9269264Y-33325000D01*
G04 #@! TO.N,Board_2-VDC*
X9504500Y-30545500D02*
X9504500Y-32665500D01*
X21100000Y-30000000D02*
X20990000Y-29890000D01*
X20990000Y-29890000D02*
X10160000Y-29890000D01*
X10160000Y-29890000D02*
X9504500Y-30545500D01*
X9195000Y-32975000D02*
X8892000Y-32975000D01*
X9504500Y-32665500D02*
X9195000Y-32975000D01*
G04 #@! TO.N,Board_3-/AUX1 (VDC)*
X20150000Y-42800000D02*
X19890000Y-42540000D01*
X19890000Y-42540000D02*
X10722000Y-42540000D01*
X10722000Y-42540000D02*
X10707000Y-42525000D01*
G04 #@! TO.N,Board_3-/AUX10*
X24900000Y-41200000D02*
X24900000Y-41210000D01*
X23255980Y-41800000D02*
X23155980Y-41700000D01*
X10403248Y-41125000D02*
X10095500Y-41432748D01*
X23890000Y-41800000D02*
X23255980Y-41800000D01*
X10095500Y-41432748D02*
X10095500Y-43494744D01*
X24900000Y-41210000D02*
X24690000Y-41000000D01*
X14335876Y-41700000D02*
X13760876Y-41125000D01*
X23155980Y-41700000D02*
X14335876Y-41700000D01*
X13760876Y-41125000D02*
X10403248Y-41125000D01*
X10095500Y-43494744D02*
X9315244Y-44275000D01*
X9315244Y-44275000D02*
X8892000Y-44275000D01*
X24690000Y-41000000D02*
X23890000Y-41800000D01*
G04 #@! TO.N,Board_3-/AUX11*
X10375000Y-47473248D02*
X10375000Y-47476752D01*
X10683248Y-47165000D02*
X10375000Y-47473248D01*
X25703248Y-46625000D02*
X25163248Y-47165000D01*
X26800000Y-47000000D02*
X26425000Y-46625000D01*
X10375000Y-47476752D02*
X10181752Y-47670000D01*
X25163248Y-47165000D02*
X10683248Y-47165000D01*
X26425000Y-46625000D02*
X25703248Y-46625000D01*
X9788248Y-47670000D02*
X9510000Y-47391752D01*
X9510000Y-46020000D02*
X9165000Y-45675000D01*
X10181752Y-47670000D02*
X9788248Y-47670000D01*
X9510000Y-47391752D02*
X9510000Y-46020000D01*
X9165000Y-45675000D02*
X8892000Y-45675000D01*
G04 #@! TO.N,Board_3-/AUX12*
X10850000Y-47670000D02*
X11075000Y-47445000D01*
X25555000Y-47445000D02*
X25900000Y-47100000D01*
X8475000Y-46265000D02*
X8715000Y-46025000D01*
X9000000Y-47600000D02*
X8475000Y-47075000D01*
X8475000Y-47075000D02*
X8475000Y-46265000D01*
X8715000Y-46025000D02*
X8892000Y-46025000D01*
X11075000Y-47445000D02*
X25555000Y-47445000D01*
G04 #@! TO.N,Board_3-/AUX2 (VDC)*
X21460000Y-42260000D02*
X11060000Y-42260000D01*
X22000000Y-42800000D02*
X21460000Y-42260000D01*
X11060000Y-42260000D02*
X10975000Y-42175000D01*
X10975000Y-42175000D02*
X10707000Y-42175000D01*
G04 #@! TO.N,Board_3-/AUX3*
X23385000Y-46885000D02*
X10346752Y-46885000D01*
X10090000Y-45784020D02*
X9280980Y-44975000D01*
X23930000Y-46340000D02*
X23385000Y-46885000D01*
X10346752Y-46885000D02*
X10090000Y-46628248D01*
X9280980Y-44975000D02*
X8892000Y-44975000D01*
X10090000Y-46628248D02*
X10090000Y-45784020D01*
G04 #@! TO.N,Board_3-/AUX4*
X13400000Y-41700000D02*
X13680000Y-41980000D01*
X13680000Y-41980000D02*
X23040000Y-41980000D01*
X9930000Y-44350000D02*
X9655000Y-44625000D01*
X9655000Y-44625000D02*
X8892000Y-44625000D01*
X23040000Y-41980000D02*
X23910000Y-42850000D01*
G04 #@! TO.N,Board_3-/CAP+*
X18700000Y-44000000D02*
X16008248Y-44000000D01*
X11154500Y-43505000D02*
X11084500Y-43575000D01*
X16008248Y-44000000D02*
X15513248Y-43505000D01*
X19100000Y-43600000D02*
X18700000Y-44000000D01*
X15513248Y-43505000D02*
X11154500Y-43505000D01*
X11084500Y-43575000D02*
X10707000Y-43575000D01*
G04 #@! TO.N,Board_3-/LAMP_FRONT*
X15905000Y-43225000D02*
X10707000Y-43225000D01*
X16200000Y-43520000D02*
X15905000Y-43225000D01*
G04 #@! TO.N,Board_3-/LAMP_REAR*
X16800000Y-43100000D02*
X16575000Y-42875000D01*
X16575000Y-42875000D02*
X10707000Y-42875000D01*
D15*
G04 #@! TO.N,Board_3-/MOTOR_A*
X11340000Y-43980000D02*
X11220000Y-44100000D01*
X11220000Y-44100000D02*
X10707000Y-44100000D01*
X10707000Y-44275000D02*
X10707000Y-44100000D01*
X10707000Y-44100000D02*
X10707000Y-43925000D01*
G04 #@! TO.N,Board_3-/MOTOR_B*
X10707000Y-44800000D02*
X10707000Y-44975000D01*
X11150000Y-44800000D02*
X10707000Y-44800000D01*
X11340000Y-44610000D02*
X11150000Y-44800000D01*
X10707000Y-44625000D02*
X10707000Y-44800000D01*
D14*
G04 #@! TO.N,Board_3-/SPEAKER_N*
X11346460Y-45840000D02*
X11765980Y-45840000D01*
X11161460Y-46025000D02*
X11346460Y-45840000D01*
X12540980Y-45065000D02*
X26765000Y-45065000D01*
X11765980Y-45840000D02*
X12540980Y-45065000D01*
X26765000Y-45065000D02*
X28700000Y-47000000D01*
X10707000Y-46025000D02*
X11161460Y-46025000D01*
G04 #@! TO.N,Board_3-/SPEAKER_P*
X11650000Y-45560000D02*
X12425000Y-44785000D01*
X28700000Y-42880000D02*
X28700000Y-41200000D01*
X11115480Y-45675000D02*
X11230480Y-45560000D01*
X10707000Y-45675000D02*
X11115480Y-45675000D01*
X26795000Y-44785000D02*
X28700000Y-42880000D01*
X11230480Y-45560000D02*
X11650000Y-45560000D01*
X12425000Y-44785000D02*
X26795000Y-44785000D01*
D16*
G04 #@! TO.N,Board_3-/TRACK_LEFT*
X9032000Y-46400000D02*
X9032000Y-46568000D01*
X11500000Y-46410000D02*
X12090000Y-46410000D01*
X12090000Y-46410000D02*
X12100000Y-46400000D01*
D15*
X10578000Y-46410000D02*
X10568000Y-46400000D01*
D16*
X11500000Y-46410000D02*
X10578000Y-46410000D01*
X9032000Y-46568000D02*
X9000000Y-46600000D01*
D15*
G04 #@! TO.N,Board_3-/TRACK_RIGHT*
X10600000Y-41600000D02*
X10568000Y-41632000D01*
X9032000Y-41632000D02*
X9032000Y-41800000D01*
X9000000Y-41600000D02*
X9032000Y-41632000D01*
X10568000Y-41632000D02*
X10568000Y-41800000D01*
D16*
X12000000Y-41600000D02*
X10768000Y-41600000D01*
X10768000Y-41600000D02*
X10568000Y-41800000D01*
D14*
G04 #@! TO.N,Board_3-GND*
X11069500Y-45325000D02*
X10707000Y-45325000D01*
X10305000Y-45325000D02*
X10020000Y-45040000D01*
X15200000Y-44300000D02*
X14400000Y-44300000D01*
X11530000Y-45240000D02*
X11154500Y-45240000D01*
X14400000Y-44300000D02*
X12470000Y-44300000D01*
X9235000Y-45325000D02*
X8892000Y-45325000D01*
X11154500Y-45240000D02*
X11069500Y-45325000D01*
X9810000Y-45900000D02*
X9235000Y-45325000D01*
X9985000Y-47195000D02*
X9810000Y-47020000D01*
X10707000Y-45325000D02*
X10305000Y-45325000D01*
X12470000Y-44300000D02*
X11530000Y-45240000D01*
X9810000Y-47020000D02*
X9810000Y-45900000D01*
G04 #@! TO.N,Board_3-VCC*
X13876856Y-40845000D02*
X10287268Y-40845000D01*
X18080000Y-41420000D02*
X14451856Y-41420000D01*
X14451856Y-41420000D02*
X13876856Y-40845000D01*
X9815500Y-43378764D02*
X9269264Y-43925000D01*
X18300000Y-41200000D02*
X18080000Y-41420000D01*
X9269264Y-43925000D02*
X8892000Y-43925000D01*
X9815500Y-41316768D02*
X9815500Y-43378764D01*
X10287268Y-40845000D02*
X9815500Y-41316768D01*
G04 #@! TO.N,Board_3-VDC*
X9504500Y-41145500D02*
X9504500Y-43265500D01*
X21100000Y-40600000D02*
X20990000Y-40490000D01*
X10160000Y-40490000D02*
X9504500Y-41145500D01*
X20990000Y-40490000D02*
X10160000Y-40490000D01*
X9195000Y-43575000D02*
X8892000Y-43575000D01*
X9504500Y-43265500D02*
X9195000Y-43575000D01*
G04 #@! TD*
G04 #@! TA.AperFunction,Conductor*
G04 #@! TO.N,Board_2-GND*
G36*
X31585148Y-29614852D02*
G01*
X31599500Y-29649500D01*
X31599500Y-37350500D01*
X31585148Y-37385148D01*
X31550500Y-37399500D01*
X11205189Y-37399500D01*
X11170541Y-37385148D01*
X11156189Y-37350500D01*
X11169234Y-37319006D01*
X11168524Y-37318462D01*
X11170475Y-37315917D01*
X11170480Y-37315913D01*
X11223207Y-37224587D01*
X11250499Y-37122730D01*
X11250500Y-37122730D01*
X11250500Y-37099500D01*
X11264852Y-37064852D01*
X11299500Y-37050500D01*
X25595875Y-37050500D01*
X25595877Y-37050500D01*
X25627162Y-37037541D01*
X25671406Y-37019215D01*
X25729215Y-36961406D01*
X25782195Y-36908424D01*
X25816840Y-36894074D01*
X25829522Y-36895743D01*
X25839733Y-36898479D01*
X25847272Y-36900500D01*
X25847273Y-36900500D01*
X25952730Y-36900500D01*
X25952730Y-36900499D01*
X26054587Y-36873207D01*
X26145913Y-36820480D01*
X26220480Y-36745913D01*
X26273207Y-36654587D01*
X26300499Y-36552730D01*
X26300500Y-36552730D01*
X26300500Y-36447270D01*
X26300499Y-36447269D01*
X26277883Y-36362864D01*
X26273207Y-36345413D01*
X26249296Y-36303999D01*
X26247627Y-36291318D01*
X26242732Y-36279500D01*
X26245266Y-36273382D01*
X26244402Y-36266818D01*
X26252188Y-36256670D01*
X26257084Y-36244852D01*
X26263201Y-36242318D01*
X26267232Y-36237065D01*
X26291732Y-36230500D01*
X26319583Y-36230500D01*
X26354231Y-36244852D01*
X26391572Y-36282193D01*
X26405924Y-36316841D01*
X26404255Y-36329520D01*
X26399500Y-36347270D01*
X26399500Y-36452730D01*
X26426792Y-36554585D01*
X26426793Y-36554589D01*
X26468481Y-36626793D01*
X26479520Y-36645913D01*
X26554087Y-36720480D01*
X26584618Y-36738107D01*
X26645410Y-36773206D01*
X26645412Y-36773206D01*
X26645413Y-36773207D01*
X26651243Y-36774769D01*
X26747269Y-36800499D01*
X26747270Y-36800500D01*
X26747273Y-36800500D01*
X26852730Y-36800500D01*
X26852730Y-36800499D01*
X26954587Y-36773207D01*
X27045913Y-36720480D01*
X27120480Y-36645913D01*
X27166142Y-36566823D01*
X27173206Y-36554589D01*
X27173206Y-36554588D01*
X27173207Y-36554587D01*
X27200499Y-36452730D01*
X27200500Y-36452730D01*
X27200500Y-36347270D01*
X27200499Y-36347269D01*
X27175531Y-36254087D01*
X27173207Y-36245413D01*
X27173206Y-36245412D01*
X27173206Y-36245410D01*
X27120479Y-36154086D01*
X27045913Y-36079520D01*
X26954589Y-36026793D01*
X26954585Y-36026792D01*
X26852730Y-35999500D01*
X26852727Y-35999500D01*
X26747273Y-35999500D01*
X26747271Y-35999500D01*
X26729520Y-36004255D01*
X26692338Y-35999358D01*
X26682193Y-35991572D01*
X26541406Y-35850785D01*
X26533857Y-35847658D01*
X26497162Y-35832458D01*
X26497161Y-35832457D01*
X26465877Y-35819500D01*
X26465876Y-35819500D01*
X25744125Y-35819500D01*
X25662371Y-35819500D01*
X25631086Y-35832457D01*
X25631086Y-35832458D01*
X25608964Y-35841621D01*
X25586841Y-35850785D01*
X25586841Y-35850786D01*
X25092479Y-36345148D01*
X25057831Y-36359500D01*
X23719417Y-36359500D01*
X23684769Y-36345148D01*
X23670417Y-36310500D01*
X23684767Y-36275853D01*
X23812195Y-36148424D01*
X23846841Y-36134074D01*
X23859522Y-36135743D01*
X23869733Y-36138479D01*
X23877272Y-36140500D01*
X23877273Y-36140500D01*
X23982730Y-36140500D01*
X23982730Y-36140499D01*
X24084587Y-36113207D01*
X24175913Y-36060480D01*
X24250480Y-35985913D01*
X24303207Y-35894587D01*
X24330499Y-35792730D01*
X24330500Y-35792730D01*
X24330500Y-35687270D01*
X24330499Y-35687269D01*
X24303207Y-35585414D01*
X24303206Y-35585410D01*
X24250479Y-35494086D01*
X24175913Y-35419520D01*
X24084589Y-35366793D01*
X24084585Y-35366792D01*
X23982730Y-35339500D01*
X23982727Y-35339500D01*
X23877273Y-35339500D01*
X23877270Y-35339500D01*
X23775414Y-35366792D01*
X23775410Y-35366793D01*
X23684086Y-35419520D01*
X23684086Y-35419521D01*
X23609521Y-35494086D01*
X23609520Y-35494086D01*
X23556793Y-35585410D01*
X23556792Y-35585414D01*
X23529500Y-35687269D01*
X23529500Y-35792727D01*
X23534255Y-35810476D01*
X23529358Y-35847658D01*
X23521572Y-35857805D01*
X23314231Y-36065148D01*
X23279583Y-36079500D01*
X12485959Y-36079500D01*
X12451311Y-36065148D01*
X12436959Y-36030500D01*
X12443524Y-36006000D01*
X12473206Y-35954589D01*
X12473206Y-35954588D01*
X12473207Y-35954587D01*
X12500499Y-35852730D01*
X12500500Y-35852730D01*
X12500500Y-35747270D01*
X12500499Y-35747269D01*
X12473207Y-35645414D01*
X12473206Y-35645410D01*
X12420479Y-35554086D01*
X12345913Y-35479520D01*
X12254589Y-35426793D01*
X12254585Y-35426792D01*
X12152730Y-35399500D01*
X12152727Y-35399500D01*
X12047273Y-35399500D01*
X12047270Y-35399500D01*
X12018771Y-35407136D01*
X11981589Y-35402241D01*
X11958759Y-35372488D01*
X11963654Y-35335306D01*
X11971437Y-35325162D01*
X12611748Y-34684852D01*
X12646396Y-34670500D01*
X26659583Y-34670500D01*
X26694231Y-34684852D01*
X28291572Y-36282193D01*
X28305924Y-36316841D01*
X28304255Y-36329520D01*
X28299500Y-36347270D01*
X28299500Y-36452730D01*
X28326792Y-36554585D01*
X28326793Y-36554589D01*
X28368481Y-36626793D01*
X28379520Y-36645913D01*
X28454087Y-36720480D01*
X28484618Y-36738107D01*
X28545410Y-36773206D01*
X28545412Y-36773206D01*
X28545413Y-36773207D01*
X28551243Y-36774769D01*
X28647269Y-36800499D01*
X28647270Y-36800500D01*
X28647273Y-36800500D01*
X28752730Y-36800500D01*
X28752730Y-36800499D01*
X28854587Y-36773207D01*
X28945913Y-36720480D01*
X29020480Y-36645913D01*
X29066142Y-36566823D01*
X29073206Y-36554589D01*
X29073206Y-36554588D01*
X29073207Y-36554587D01*
X29100499Y-36452730D01*
X29100500Y-36452730D01*
X29100500Y-36347270D01*
X29100499Y-36347269D01*
X29075531Y-36254087D01*
X29073207Y-36245413D01*
X29073206Y-36245412D01*
X29073206Y-36245410D01*
X29020479Y-36154086D01*
X28945913Y-36079520D01*
X28854589Y-36026793D01*
X28854585Y-36026792D01*
X28752730Y-35999500D01*
X28752727Y-35999500D01*
X28647273Y-35999500D01*
X28647271Y-35999500D01*
X28629520Y-36004255D01*
X28592338Y-35999358D01*
X28582193Y-35991572D01*
X26965269Y-34374648D01*
X26950917Y-34340000D01*
X26965269Y-34305352D01*
X28874214Y-32396407D01*
X28874215Y-32396406D01*
X28905500Y-32320876D01*
X28905500Y-30972102D01*
X28919852Y-30937454D01*
X28930002Y-30929666D01*
X28945913Y-30920480D01*
X29020480Y-30845913D01*
X29073207Y-30754587D01*
X29100499Y-30652730D01*
X29100500Y-30652730D01*
X29100500Y-30547270D01*
X29100499Y-30547269D01*
X29073207Y-30445414D01*
X29073206Y-30445410D01*
X29020479Y-30354086D01*
X28945913Y-30279520D01*
X28854589Y-30226793D01*
X28854585Y-30226792D01*
X28752730Y-30199500D01*
X28752727Y-30199500D01*
X28647273Y-30199500D01*
X28647270Y-30199500D01*
X28545414Y-30226792D01*
X28545410Y-30226793D01*
X28454086Y-30279520D01*
X28454086Y-30279521D01*
X28379521Y-30354086D01*
X28379520Y-30354086D01*
X28326793Y-30445410D01*
X28326792Y-30445414D01*
X28299500Y-30547269D01*
X28299500Y-30652730D01*
X28326792Y-30754585D01*
X28326793Y-30754589D01*
X28365136Y-30821000D01*
X28379520Y-30845913D01*
X28454087Y-30920480D01*
X28454090Y-30920481D01*
X28454093Y-30920484D01*
X28469998Y-30929666D01*
X28492830Y-30959418D01*
X28494500Y-30972102D01*
X28494500Y-32174583D01*
X28480148Y-32209231D01*
X26724231Y-33965148D01*
X26689583Y-33979500D01*
X12384121Y-33979500D01*
X12372960Y-33984124D01*
X12308593Y-34010785D01*
X12289191Y-34030188D01*
X12250785Y-34068594D01*
X11579231Y-34740148D01*
X11544583Y-34754500D01*
X11189603Y-34754500D01*
X11167481Y-34763662D01*
X11167481Y-34763663D01*
X11140777Y-34774724D01*
X11114073Y-34785785D01*
X11085169Y-34814689D01*
X11056265Y-34843594D01*
X11056264Y-34843595D01*
X11052278Y-34847580D01*
X11046846Y-34853012D01*
X11024084Y-34862437D01*
X11012198Y-34867360D01*
X11012196Y-34867359D01*
X11012196Y-34867360D01*
X11012195Y-34867359D01*
X11002643Y-34866419D01*
X10982621Y-34862437D01*
X10967855Y-34859500D01*
X10967853Y-34859500D01*
X10452149Y-34859500D01*
X10452148Y-34859500D01*
X10452146Y-34859501D01*
X10437383Y-34862437D01*
X10414080Y-34867071D01*
X10414076Y-34867073D01*
X10370912Y-34895914D01*
X10342072Y-34939077D01*
X10342071Y-34939080D01*
X10342071Y-34939081D01*
X10334500Y-34977145D01*
X10334500Y-34977147D01*
X10334500Y-34977148D01*
X10334500Y-35019601D01*
X10320149Y-35054250D01*
X10285501Y-35068602D01*
X10285500Y-35068601D01*
X10285500Y-35068602D01*
X10250852Y-35054251D01*
X10250851Y-35054250D01*
X10206406Y-35009805D01*
X9510749Y-34314148D01*
X9496397Y-34279500D01*
X9510749Y-34244852D01*
X9545397Y-34230500D01*
X9695875Y-34230500D01*
X9695877Y-34230500D01*
X9727162Y-34217541D01*
X9771406Y-34199215D01*
X9812194Y-34158426D01*
X9846841Y-34144074D01*
X9859521Y-34145743D01*
X9871981Y-34149082D01*
X9877272Y-34150500D01*
X9877273Y-34150500D01*
X9982730Y-34150500D01*
X9982730Y-34150499D01*
X10084587Y-34123207D01*
X10175913Y-34070480D01*
X10250480Y-33995913D01*
X10250481Y-33995910D01*
X10250852Y-33995540D01*
X10285500Y-33981188D01*
X10320148Y-33995540D01*
X10334500Y-34030188D01*
X10334500Y-34132850D01*
X10334501Y-34132854D01*
X10342071Y-34170919D01*
X10342072Y-34170920D01*
X10346655Y-34177781D01*
X10353968Y-34214564D01*
X10346655Y-34232219D01*
X10342071Y-34239079D01*
X10334500Y-34277147D01*
X10334500Y-34482850D01*
X10334501Y-34482854D01*
X10342071Y-34520919D01*
X10342073Y-34520923D01*
X10370914Y-34564087D01*
X10414077Y-34592927D01*
X10414079Y-34592927D01*
X10414081Y-34592929D01*
X10452145Y-34600500D01*
X10639330Y-34600499D01*
X10658080Y-34604228D01*
X10661151Y-34605500D01*
X10661153Y-34605500D01*
X10752848Y-34605500D01*
X10752849Y-34605500D01*
X10755915Y-34604229D01*
X10774669Y-34600499D01*
X10967851Y-34600499D01*
X10967854Y-34600499D01*
X11005919Y-34592929D01*
X11049086Y-34564086D01*
X11077929Y-34520919D01*
X11085500Y-34482855D01*
X11085500Y-34479501D01*
X11099852Y-34444853D01*
X11134500Y-34430501D01*
X11195849Y-34430501D01*
X11195850Y-34430501D01*
X11245476Y-34409944D01*
X11245604Y-34409890D01*
X11277148Y-34407787D01*
X11279378Y-34408384D01*
X11287271Y-34410500D01*
X11287273Y-34410500D01*
X11392730Y-34410500D01*
X11392730Y-34410499D01*
X11494587Y-34383207D01*
X11585913Y-34330480D01*
X11660480Y-34255913D01*
X11713207Y-34164587D01*
X11740499Y-34062730D01*
X11740500Y-34062730D01*
X11740500Y-33957270D01*
X11740499Y-33957269D01*
X11722228Y-33889079D01*
X11713207Y-33855413D01*
X11713206Y-33855412D01*
X11713206Y-33855410D01*
X11660479Y-33764086D01*
X11626041Y-33729648D01*
X11611689Y-33695000D01*
X11626041Y-33660352D01*
X11660479Y-33625914D01*
X11660480Y-33625913D01*
X11713207Y-33534587D01*
X11740499Y-33432730D01*
X11740500Y-33432730D01*
X11740500Y-33327270D01*
X11740499Y-33327269D01*
X11718700Y-33245913D01*
X11713207Y-33225413D01*
X11689296Y-33183999D01*
X11684402Y-33146818D01*
X11707232Y-33117065D01*
X11731732Y-33110500D01*
X15407831Y-33110500D01*
X15442479Y-33124852D01*
X15834033Y-33516406D01*
X15891842Y-33574215D01*
X15936086Y-33592541D01*
X15967371Y-33605500D01*
X15967372Y-33605500D01*
X15967373Y-33605500D01*
X18740875Y-33605500D01*
X18740877Y-33605500D01*
X18772162Y-33592541D01*
X18816406Y-33574215D01*
X18874215Y-33516406D01*
X18982195Y-33408424D01*
X19016841Y-33394074D01*
X19029522Y-33395743D01*
X19039733Y-33398479D01*
X19047272Y-33400500D01*
X19047273Y-33400500D01*
X19152730Y-33400500D01*
X19152730Y-33400499D01*
X19254587Y-33373207D01*
X19345913Y-33320480D01*
X19420480Y-33245913D01*
X19473207Y-33154587D01*
X19500499Y-33052730D01*
X19500500Y-33052730D01*
X19500500Y-32947270D01*
X19500499Y-32947269D01*
X19473207Y-32845414D01*
X19473206Y-32845410D01*
X19434160Y-32777781D01*
X19420480Y-32754087D01*
X19345913Y-32679520D01*
X19254589Y-32626793D01*
X19254585Y-32626792D01*
X19152730Y-32599500D01*
X19152727Y-32599500D01*
X19047273Y-32599500D01*
X19047270Y-32599500D01*
X18945414Y-32626792D01*
X18945410Y-32626793D01*
X18854086Y-32679520D01*
X18854086Y-32679521D01*
X18779521Y-32754086D01*
X18779520Y-32754086D01*
X18726793Y-32845410D01*
X18726792Y-32845414D01*
X18699500Y-32947269D01*
X18699500Y-33052727D01*
X18704255Y-33070476D01*
X18703390Y-33077039D01*
X18705924Y-33083156D01*
X18701028Y-33094976D01*
X18699358Y-33107658D01*
X18691572Y-33117805D01*
X18629230Y-33180148D01*
X18594584Y-33194500D01*
X16588845Y-33194500D01*
X16554197Y-33180148D01*
X16539845Y-33145500D01*
X16546409Y-33121002D01*
X16573207Y-33074587D01*
X16600499Y-32972730D01*
X16600500Y-32972730D01*
X16600500Y-32925030D01*
X16614852Y-32890382D01*
X16649500Y-32876030D01*
X16662179Y-32877699D01*
X16701382Y-32888203D01*
X16747271Y-32900500D01*
X16747273Y-32900500D01*
X16852730Y-32900500D01*
X16852730Y-32900499D01*
X16954587Y-32873207D01*
X17045913Y-32820480D01*
X17120480Y-32745913D01*
X17173207Y-32654587D01*
X17200499Y-32552730D01*
X17200500Y-32552730D01*
X17200500Y-32447270D01*
X17200499Y-32447269D01*
X17183238Y-32382850D01*
X17173207Y-32345413D01*
X17173206Y-32345412D01*
X17173206Y-32345410D01*
X17120479Y-32254086D01*
X17095541Y-32229148D01*
X17081189Y-32194500D01*
X17095541Y-32159852D01*
X17130189Y-32145500D01*
X19700500Y-32145500D01*
X19735148Y-32159852D01*
X19749500Y-32194500D01*
X19749500Y-32252730D01*
X19776792Y-32354585D01*
X19776793Y-32354589D01*
X19829520Y-32445913D01*
X19904087Y-32520480D01*
X19915633Y-32527146D01*
X19995410Y-32573206D01*
X19995412Y-32573206D01*
X19995413Y-32573207D01*
X20022180Y-32580379D01*
X20097269Y-32600499D01*
X20097270Y-32600500D01*
X20097273Y-32600500D01*
X20202730Y-32600500D01*
X20202730Y-32600499D01*
X20304587Y-32573207D01*
X20395913Y-32520480D01*
X20470480Y-32445913D01*
X20523207Y-32354587D01*
X20550499Y-32252730D01*
X20550500Y-32252730D01*
X20550500Y-32147270D01*
X20550499Y-32147269D01*
X20538422Y-32102198D01*
X20523207Y-32045413D01*
X20523206Y-32045412D01*
X20523206Y-32045410D01*
X20470479Y-31954086D01*
X20465541Y-31949148D01*
X20451189Y-31914500D01*
X20465541Y-31879852D01*
X20500189Y-31865500D01*
X21354583Y-31865500D01*
X21389231Y-31879852D01*
X21591572Y-32082193D01*
X21605924Y-32116841D01*
X21604255Y-32129520D01*
X21599500Y-32147270D01*
X21599500Y-32252730D01*
X21626792Y-32354585D01*
X21626793Y-32354589D01*
X21679520Y-32445913D01*
X21754087Y-32520480D01*
X21765633Y-32527146D01*
X21845410Y-32573206D01*
X21845412Y-32573206D01*
X21845413Y-32573207D01*
X21872180Y-32580379D01*
X21947269Y-32600499D01*
X21947270Y-32600500D01*
X21947273Y-32600500D01*
X22052730Y-32600500D01*
X22052730Y-32600499D01*
X22154587Y-32573207D01*
X22245913Y-32520480D01*
X22320480Y-32445913D01*
X22373207Y-32354587D01*
X22400499Y-32252730D01*
X22400500Y-32252730D01*
X22400500Y-32147270D01*
X22400499Y-32147269D01*
X22388422Y-32102198D01*
X22373207Y-32045413D01*
X22373206Y-32045412D01*
X22373206Y-32045410D01*
X22320479Y-31954086D01*
X22245913Y-31879520D01*
X22154589Y-31826793D01*
X22154585Y-31826792D01*
X22052730Y-31799500D01*
X22052727Y-31799500D01*
X21947273Y-31799500D01*
X21947271Y-31799500D01*
X21929520Y-31804255D01*
X21892338Y-31799358D01*
X21882193Y-31791572D01*
X21759769Y-31669148D01*
X21745417Y-31634500D01*
X21759769Y-31599852D01*
X21794417Y-31585500D01*
X22934583Y-31585500D01*
X22969231Y-31599852D01*
X23501572Y-32132193D01*
X23515924Y-32166841D01*
X23514255Y-32179520D01*
X23509500Y-32197270D01*
X23509500Y-32302730D01*
X23536792Y-32404585D01*
X23536793Y-32404589D01*
X23589520Y-32495913D01*
X23664087Y-32570480D01*
X23681233Y-32580379D01*
X23755410Y-32623206D01*
X23755412Y-32623206D01*
X23755413Y-32623207D01*
X23835747Y-32644732D01*
X23857269Y-32650499D01*
X23857270Y-32650500D01*
X23857273Y-32650500D01*
X23962730Y-32650500D01*
X23962730Y-32650499D01*
X24064587Y-32623207D01*
X24155913Y-32570480D01*
X24230480Y-32495913D01*
X24283207Y-32404587D01*
X24310499Y-32302730D01*
X24310500Y-32302730D01*
X24310500Y-32197270D01*
X24310499Y-32197269D01*
X24292346Y-32129520D01*
X24283207Y-32095413D01*
X24283206Y-32095412D01*
X24283206Y-32095410D01*
X24230479Y-32004086D01*
X24155913Y-31929520D01*
X24064589Y-31876793D01*
X24064585Y-31876792D01*
X23962730Y-31849500D01*
X23962727Y-31849500D01*
X23857273Y-31849500D01*
X23857271Y-31849500D01*
X23839520Y-31854255D01*
X23802338Y-31849358D01*
X23792193Y-31841572D01*
X23439769Y-31489148D01*
X23425417Y-31454500D01*
X23439769Y-31419852D01*
X23474417Y-31405500D01*
X23930875Y-31405500D01*
X23930877Y-31405500D01*
X23981645Y-31384471D01*
X24006406Y-31374215D01*
X24064215Y-31316406D01*
X24522466Y-30858153D01*
X24557113Y-30843802D01*
X24591761Y-30858154D01*
X24654087Y-30920480D01*
X24669998Y-30929666D01*
X24745410Y-30973206D01*
X24745412Y-30973206D01*
X24745413Y-30973207D01*
X24824880Y-30994500D01*
X24847269Y-31000499D01*
X24847270Y-31000500D01*
X24847273Y-31000500D01*
X24952730Y-31000500D01*
X24952730Y-31000499D01*
X25054587Y-30973207D01*
X25145913Y-30920480D01*
X25220480Y-30845913D01*
X25273207Y-30754587D01*
X25300499Y-30652730D01*
X25300500Y-30652730D01*
X25300500Y-30547270D01*
X25300499Y-30547269D01*
X25273207Y-30445414D01*
X25273206Y-30445410D01*
X25220479Y-30354086D01*
X25145913Y-30279520D01*
X25054589Y-30226793D01*
X25054585Y-30226792D01*
X24952730Y-30199500D01*
X24952727Y-30199500D01*
X24847273Y-30199500D01*
X24847272Y-30199500D01*
X24799988Y-30212168D01*
X24768557Y-30210107D01*
X24730880Y-30194501D01*
X24730878Y-30194500D01*
X24730877Y-30194500D01*
X24649123Y-30194500D01*
X24649121Y-30194500D01*
X24573591Y-30225787D01*
X24573590Y-30225787D01*
X23819231Y-30980148D01*
X23784583Y-30994500D01*
X23361397Y-30994500D01*
X23326749Y-30980148D01*
X23272386Y-30925785D01*
X23213592Y-30901432D01*
X23196858Y-30894500D01*
X23196857Y-30894500D01*
X23196856Y-30894500D01*
X18677298Y-30894500D01*
X18642650Y-30880148D01*
X18628298Y-30845500D01*
X18634862Y-30821001D01*
X18673207Y-30754587D01*
X18700499Y-30652730D01*
X18700500Y-30652730D01*
X18700500Y-30547270D01*
X18700499Y-30547269D01*
X18673207Y-30445414D01*
X18673206Y-30445410D01*
X18620479Y-30354086D01*
X18545913Y-30279520D01*
X18454589Y-30226793D01*
X18454585Y-30226792D01*
X18352730Y-30199500D01*
X18352727Y-30199500D01*
X18247273Y-30199500D01*
X18247270Y-30199500D01*
X18145414Y-30226792D01*
X18145410Y-30226793D01*
X18054086Y-30279520D01*
X18054086Y-30279521D01*
X17979521Y-30354086D01*
X17979520Y-30354086D01*
X17926793Y-30445410D01*
X17926792Y-30445414D01*
X17899500Y-30547269D01*
X17899500Y-30565500D01*
X17885148Y-30600148D01*
X17850500Y-30614500D01*
X14557273Y-30614500D01*
X14522625Y-30600148D01*
X14101625Y-30179148D01*
X14087273Y-30144500D01*
X14101625Y-30109852D01*
X14136273Y-30095500D01*
X20673362Y-30095500D01*
X20708010Y-30109852D01*
X20720692Y-30131818D01*
X20726792Y-30154586D01*
X20726793Y-30154589D01*
X20768481Y-30226793D01*
X20779520Y-30245913D01*
X20854087Y-30320480D01*
X20887513Y-30339778D01*
X20945410Y-30373206D01*
X20945412Y-30373206D01*
X20945413Y-30373207D01*
X21025747Y-30394732D01*
X21047269Y-30400499D01*
X21047270Y-30400500D01*
X21047273Y-30400500D01*
X21152730Y-30400500D01*
X21152730Y-30400499D01*
X21254587Y-30373207D01*
X21345913Y-30320480D01*
X21420480Y-30245913D01*
X21473207Y-30154587D01*
X21500499Y-30052730D01*
X21500500Y-30052730D01*
X21500500Y-29947270D01*
X21500499Y-29947269D01*
X21473207Y-29845414D01*
X21473206Y-29845410D01*
X21420479Y-29754086D01*
X21350541Y-29684148D01*
X21336189Y-29649500D01*
X21350541Y-29614852D01*
X21385189Y-29600500D01*
X31550500Y-29600500D01*
X31585148Y-29614852D01*
G37*
G04 #@! TD.AperFunction*
G04 #@! TA.AperFunction,Conductor*
G36*
X10083474Y-29603771D02*
G01*
X10092015Y-29603339D01*
X10100127Y-29610669D01*
X10110225Y-29614852D01*
X10113496Y-29622750D01*
X10119841Y-29628483D01*
X10120393Y-29639401D01*
X10124577Y-29649500D01*
X10121305Y-29657397D01*
X10121738Y-29665938D01*
X10114407Y-29674050D01*
X10110225Y-29684148D01*
X10097752Y-29692482D01*
X10096594Y-29693764D01*
X10095483Y-29694291D01*
X10087838Y-29697458D01*
X10043594Y-29715785D01*
X10043593Y-29715786D01*
X10037607Y-29721771D01*
X10037606Y-29721772D01*
X9706652Y-30052727D01*
X9388094Y-30371285D01*
X9358880Y-30400499D01*
X9330285Y-30429094D01*
X9299001Y-30504620D01*
X9299000Y-30504626D01*
X9299000Y-30625299D01*
X9284648Y-30659947D01*
X9250000Y-30674299D01*
X9225500Y-30667734D01*
X9154589Y-30626793D01*
X9154585Y-30626792D01*
X9052730Y-30599500D01*
X9052727Y-30599500D01*
X8947273Y-30599500D01*
X8947270Y-30599500D01*
X8845414Y-30626792D01*
X8845410Y-30626793D01*
X8754086Y-30679520D01*
X8754086Y-30679521D01*
X8679521Y-30754086D01*
X8679520Y-30754086D01*
X8626793Y-30845410D01*
X8626792Y-30845414D01*
X8599500Y-30947269D01*
X8599500Y-31052730D01*
X8627624Y-31157689D01*
X8626914Y-31157878D01*
X8629500Y-31170868D01*
X8629500Y-31319812D01*
X8615148Y-31354460D01*
X8597899Y-31363690D01*
X8598536Y-31365227D01*
X8594076Y-31367073D01*
X8550912Y-31395914D01*
X8522072Y-31439077D01*
X8522071Y-31439080D01*
X8514500Y-31477147D01*
X8514500Y-31682850D01*
X8514501Y-31682854D01*
X8522071Y-31720919D01*
X8522072Y-31720920D01*
X8526655Y-31727781D01*
X8533968Y-31764564D01*
X8526655Y-31782219D01*
X8522071Y-31789079D01*
X8519053Y-31804255D01*
X8514571Y-31826792D01*
X8514500Y-31827147D01*
X8514500Y-32032850D01*
X8514501Y-32032854D01*
X8522071Y-32070919D01*
X8522072Y-32070920D01*
X8526655Y-32077781D01*
X8533968Y-32114564D01*
X8526655Y-32132219D01*
X8522071Y-32139079D01*
X8519462Y-32152198D01*
X8516550Y-32166841D01*
X8514500Y-32177147D01*
X8514500Y-32382850D01*
X8514501Y-32382854D01*
X8522071Y-32420919D01*
X8522072Y-32420920D01*
X8526655Y-32427781D01*
X8533968Y-32464564D01*
X8526655Y-32482219D01*
X8522071Y-32489079D01*
X8514500Y-32527147D01*
X8514500Y-32732850D01*
X8514501Y-32732854D01*
X8522071Y-32770919D01*
X8522072Y-32770920D01*
X8526655Y-32777781D01*
X8533968Y-32814564D01*
X8526655Y-32832219D01*
X8522071Y-32839079D01*
X8520811Y-32845414D01*
X8515284Y-32873207D01*
X8514500Y-32877147D01*
X8514500Y-33082850D01*
X8514501Y-33082854D01*
X8522071Y-33120919D01*
X8523414Y-33122929D01*
X8526655Y-33127781D01*
X8533968Y-33164564D01*
X8526655Y-33182219D01*
X8522071Y-33189079D01*
X8522071Y-33189081D01*
X8514845Y-33225414D01*
X8514500Y-33227147D01*
X8514500Y-33432850D01*
X8514501Y-33432854D01*
X8522071Y-33470919D01*
X8522072Y-33470920D01*
X8526655Y-33477781D01*
X8533968Y-33514564D01*
X8526655Y-33532219D01*
X8522071Y-33539079D01*
X8522071Y-33539081D01*
X8515084Y-33574213D01*
X8514500Y-33577147D01*
X8514500Y-33782850D01*
X8514501Y-33782854D01*
X8522071Y-33820919D01*
X8522072Y-33820920D01*
X8526655Y-33827781D01*
X8533968Y-33864564D01*
X8526655Y-33882219D01*
X8522071Y-33889079D01*
X8514500Y-33927147D01*
X8514500Y-34132850D01*
X8514501Y-34132854D01*
X8522071Y-34170919D01*
X8522072Y-34170920D01*
X8526655Y-34177781D01*
X8533968Y-34214564D01*
X8526655Y-34232219D01*
X8522071Y-34239079D01*
X8514500Y-34277147D01*
X8514500Y-34482850D01*
X8514501Y-34482854D01*
X8522071Y-34520919D01*
X8522073Y-34520923D01*
X8550914Y-34564087D01*
X8594077Y-34592927D01*
X8594079Y-34592927D01*
X8594081Y-34592929D01*
X8632145Y-34600500D01*
X9147854Y-34600499D01*
X9178892Y-34594326D01*
X9215672Y-34601644D01*
X9223096Y-34607737D01*
X9870148Y-35254789D01*
X9884500Y-35289437D01*
X9884500Y-36069127D01*
X9888401Y-36078542D01*
X9888798Y-36079500D01*
X9915785Y-36144654D01*
X9915786Y-36144655D01*
X10172537Y-36401406D01*
X10230346Y-36459215D01*
X10274590Y-36477541D01*
X10305875Y-36490500D01*
X10305876Y-36490500D01*
X10353191Y-36490500D01*
X10357487Y-36491271D01*
X10369879Y-36499218D01*
X10383479Y-36504852D01*
X10385221Y-36509058D01*
X10389055Y-36511517D01*
X10392197Y-36525899D01*
X10397831Y-36539500D01*
X10396088Y-36543707D01*
X10397060Y-36548156D01*
X10389112Y-36560548D01*
X10383479Y-36574148D01*
X10251702Y-36705924D01*
X10251701Y-36705924D01*
X10251702Y-36705925D01*
X10200782Y-36756845D01*
X10198102Y-36760856D01*
X10197573Y-36760502D01*
X10191415Y-36769714D01*
X10110982Y-36850148D01*
X10076336Y-36864500D01*
X9893665Y-36864500D01*
X9859017Y-36850148D01*
X9729852Y-36720983D01*
X9715500Y-36686335D01*
X9715500Y-35379124D01*
X9715499Y-35379121D01*
X9710392Y-35366792D01*
X9710391Y-35366791D01*
X9686286Y-35308594D01*
X9684215Y-35303594D01*
X9626406Y-35245785D01*
X9281407Y-34900786D01*
X9281406Y-34900785D01*
X9237162Y-34882458D01*
X9237161Y-34882457D01*
X9205877Y-34869500D01*
X9205876Y-34869500D01*
X9201530Y-34869500D01*
X9190782Y-34867361D01*
X9190653Y-34868013D01*
X9185919Y-34867071D01*
X9147855Y-34859500D01*
X9147852Y-34859500D01*
X8632149Y-34859500D01*
X8632148Y-34859500D01*
X8632146Y-34859501D01*
X8617383Y-34862437D01*
X8594080Y-34867071D01*
X8594076Y-34867073D01*
X8550912Y-34895914D01*
X8522072Y-34939077D01*
X8522071Y-34939080D01*
X8514500Y-34977147D01*
X8514500Y-35182850D01*
X8514501Y-35182854D01*
X8522071Y-35220919D01*
X8522072Y-35220920D01*
X8526655Y-35227781D01*
X8533968Y-35264564D01*
X8532570Y-35269962D01*
X8530470Y-35276509D01*
X8522071Y-35289081D01*
X8514934Y-35324959D01*
X8514081Y-35327622D01*
X8510046Y-35332382D01*
X8502070Y-35347307D01*
X8484149Y-35365229D01*
X8449501Y-35379582D01*
X8414853Y-35365231D01*
X8400500Y-35330583D01*
X8400500Y-29649500D01*
X8414852Y-29614852D01*
X8449500Y-29600500D01*
X10075577Y-29600500D01*
X10083474Y-29603771D01*
G37*
G04 #@! TD.AperFunction*
G04 #@! TD*
G04 #@! TA.AperFunction,Conductor*
G04 #@! TO.N,Board_1-GND*
G36*
X31585148Y-19014852D02*
G01*
X31599500Y-19049500D01*
X31599500Y-26750500D01*
X31585148Y-26785148D01*
X31550500Y-26799500D01*
X11205189Y-26799500D01*
X11170541Y-26785148D01*
X11156189Y-26750500D01*
X11169234Y-26719006D01*
X11168524Y-26718462D01*
X11170475Y-26715917D01*
X11170480Y-26715913D01*
X11223207Y-26624587D01*
X11250499Y-26522730D01*
X11250500Y-26522730D01*
X11250500Y-26499500D01*
X11264852Y-26464852D01*
X11299500Y-26450500D01*
X25595875Y-26450500D01*
X25595877Y-26450500D01*
X25627162Y-26437541D01*
X25671406Y-26419215D01*
X25729215Y-26361406D01*
X25782195Y-26308424D01*
X25816840Y-26294074D01*
X25829522Y-26295743D01*
X25839733Y-26298479D01*
X25847272Y-26300500D01*
X25847273Y-26300500D01*
X25952730Y-26300500D01*
X25952730Y-26300499D01*
X26054587Y-26273207D01*
X26145913Y-26220480D01*
X26220480Y-26145913D01*
X26273207Y-26054587D01*
X26300499Y-25952730D01*
X26300500Y-25952730D01*
X26300500Y-25847270D01*
X26300499Y-25847269D01*
X26277883Y-25762864D01*
X26273207Y-25745413D01*
X26249296Y-25703999D01*
X26247627Y-25691318D01*
X26242732Y-25679500D01*
X26245266Y-25673382D01*
X26244402Y-25666818D01*
X26252188Y-25656670D01*
X26257084Y-25644852D01*
X26263201Y-25642318D01*
X26267232Y-25637065D01*
X26291732Y-25630500D01*
X26319583Y-25630500D01*
X26354231Y-25644852D01*
X26391572Y-25682193D01*
X26405924Y-25716841D01*
X26404255Y-25729520D01*
X26399500Y-25747270D01*
X26399500Y-25852730D01*
X26426792Y-25954585D01*
X26426793Y-25954589D01*
X26468481Y-26026793D01*
X26479520Y-26045913D01*
X26554087Y-26120480D01*
X26584618Y-26138107D01*
X26645410Y-26173206D01*
X26645412Y-26173206D01*
X26645413Y-26173207D01*
X26651243Y-26174769D01*
X26747269Y-26200499D01*
X26747270Y-26200500D01*
X26747273Y-26200500D01*
X26852730Y-26200500D01*
X26852730Y-26200499D01*
X26954587Y-26173207D01*
X27045913Y-26120480D01*
X27120480Y-26045913D01*
X27166142Y-25966823D01*
X27173206Y-25954589D01*
X27173206Y-25954588D01*
X27173207Y-25954587D01*
X27200499Y-25852730D01*
X27200500Y-25852730D01*
X27200500Y-25747270D01*
X27200499Y-25747269D01*
X27175531Y-25654087D01*
X27173207Y-25645413D01*
X27173206Y-25645412D01*
X27173206Y-25645410D01*
X27120479Y-25554086D01*
X27045913Y-25479520D01*
X26954589Y-25426793D01*
X26954585Y-25426792D01*
X26852730Y-25399500D01*
X26852727Y-25399500D01*
X26747273Y-25399500D01*
X26747271Y-25399500D01*
X26729520Y-25404255D01*
X26692338Y-25399358D01*
X26682193Y-25391572D01*
X26541406Y-25250785D01*
X26533857Y-25247658D01*
X26497162Y-25232458D01*
X26497161Y-25232457D01*
X26465877Y-25219500D01*
X26465876Y-25219500D01*
X25744125Y-25219500D01*
X25662371Y-25219500D01*
X25631086Y-25232457D01*
X25631086Y-25232458D01*
X25608964Y-25241621D01*
X25586841Y-25250785D01*
X25586841Y-25250786D01*
X25092479Y-25745148D01*
X25057831Y-25759500D01*
X23719417Y-25759500D01*
X23684769Y-25745148D01*
X23670417Y-25710500D01*
X23684767Y-25675853D01*
X23812195Y-25548424D01*
X23846841Y-25534074D01*
X23859522Y-25535743D01*
X23869733Y-25538479D01*
X23877272Y-25540500D01*
X23877273Y-25540500D01*
X23982730Y-25540500D01*
X23982730Y-25540499D01*
X24084587Y-25513207D01*
X24175913Y-25460480D01*
X24250480Y-25385913D01*
X24303207Y-25294587D01*
X24330499Y-25192730D01*
X24330500Y-25192730D01*
X24330500Y-25087270D01*
X24330499Y-25087269D01*
X24303207Y-24985414D01*
X24303206Y-24985410D01*
X24250479Y-24894086D01*
X24175913Y-24819520D01*
X24084589Y-24766793D01*
X24084585Y-24766792D01*
X23982730Y-24739500D01*
X23982727Y-24739500D01*
X23877273Y-24739500D01*
X23877270Y-24739500D01*
X23775414Y-24766792D01*
X23775410Y-24766793D01*
X23684086Y-24819520D01*
X23684086Y-24819521D01*
X23609521Y-24894086D01*
X23609520Y-24894086D01*
X23556793Y-24985410D01*
X23556792Y-24985414D01*
X23529500Y-25087269D01*
X23529500Y-25192727D01*
X23534255Y-25210476D01*
X23529358Y-25247658D01*
X23521572Y-25257805D01*
X23314231Y-25465148D01*
X23279583Y-25479500D01*
X12485959Y-25479500D01*
X12451311Y-25465148D01*
X12436959Y-25430500D01*
X12443524Y-25406000D01*
X12473206Y-25354589D01*
X12473206Y-25354588D01*
X12473207Y-25354587D01*
X12500499Y-25252730D01*
X12500500Y-25252730D01*
X12500500Y-25147270D01*
X12500499Y-25147269D01*
X12473207Y-25045414D01*
X12473206Y-25045410D01*
X12420479Y-24954086D01*
X12345913Y-24879520D01*
X12254589Y-24826793D01*
X12254585Y-24826792D01*
X12152730Y-24799500D01*
X12152727Y-24799500D01*
X12047273Y-24799500D01*
X12047270Y-24799500D01*
X12018771Y-24807136D01*
X11981589Y-24802241D01*
X11958759Y-24772488D01*
X11963654Y-24735306D01*
X11971437Y-24725162D01*
X12611748Y-24084852D01*
X12646396Y-24070500D01*
X26659583Y-24070500D01*
X26694231Y-24084852D01*
X28291572Y-25682193D01*
X28305924Y-25716841D01*
X28304255Y-25729520D01*
X28299500Y-25747270D01*
X28299500Y-25852730D01*
X28326792Y-25954585D01*
X28326793Y-25954589D01*
X28368481Y-26026793D01*
X28379520Y-26045913D01*
X28454087Y-26120480D01*
X28484618Y-26138107D01*
X28545410Y-26173206D01*
X28545412Y-26173206D01*
X28545413Y-26173207D01*
X28551243Y-26174769D01*
X28647269Y-26200499D01*
X28647270Y-26200500D01*
X28647273Y-26200500D01*
X28752730Y-26200500D01*
X28752730Y-26200499D01*
X28854587Y-26173207D01*
X28945913Y-26120480D01*
X29020480Y-26045913D01*
X29066142Y-25966823D01*
X29073206Y-25954589D01*
X29073206Y-25954588D01*
X29073207Y-25954587D01*
X29100499Y-25852730D01*
X29100500Y-25852730D01*
X29100500Y-25747270D01*
X29100499Y-25747269D01*
X29075531Y-25654087D01*
X29073207Y-25645413D01*
X29073206Y-25645412D01*
X29073206Y-25645410D01*
X29020479Y-25554086D01*
X28945913Y-25479520D01*
X28854589Y-25426793D01*
X28854585Y-25426792D01*
X28752730Y-25399500D01*
X28752727Y-25399500D01*
X28647273Y-25399500D01*
X28647271Y-25399500D01*
X28629520Y-25404255D01*
X28592338Y-25399358D01*
X28582193Y-25391572D01*
X26965269Y-23774648D01*
X26950917Y-23740000D01*
X26965269Y-23705352D01*
X28874214Y-21796407D01*
X28874215Y-21796406D01*
X28905500Y-21720876D01*
X28905500Y-20372102D01*
X28919852Y-20337454D01*
X28930002Y-20329666D01*
X28945913Y-20320480D01*
X29020480Y-20245913D01*
X29073207Y-20154587D01*
X29100499Y-20052730D01*
X29100500Y-20052730D01*
X29100500Y-19947270D01*
X29100499Y-19947269D01*
X29073207Y-19845414D01*
X29073206Y-19845410D01*
X29020479Y-19754086D01*
X28945913Y-19679520D01*
X28854589Y-19626793D01*
X28854585Y-19626792D01*
X28752730Y-19599500D01*
X28752727Y-19599500D01*
X28647273Y-19599500D01*
X28647270Y-19599500D01*
X28545414Y-19626792D01*
X28545410Y-19626793D01*
X28454086Y-19679520D01*
X28454086Y-19679521D01*
X28379521Y-19754086D01*
X28379520Y-19754086D01*
X28326793Y-19845410D01*
X28326792Y-19845414D01*
X28299500Y-19947269D01*
X28299500Y-20052730D01*
X28326792Y-20154585D01*
X28326793Y-20154589D01*
X28365136Y-20221000D01*
X28379520Y-20245913D01*
X28454087Y-20320480D01*
X28454090Y-20320481D01*
X28454093Y-20320484D01*
X28469998Y-20329666D01*
X28492830Y-20359418D01*
X28494500Y-20372102D01*
X28494500Y-21574583D01*
X28480148Y-21609231D01*
X26724231Y-23365148D01*
X26689583Y-23379500D01*
X12384121Y-23379500D01*
X12372960Y-23384124D01*
X12308593Y-23410785D01*
X12289191Y-23430188D01*
X12250785Y-23468594D01*
X11579231Y-24140148D01*
X11544583Y-24154500D01*
X11189603Y-24154500D01*
X11167481Y-24163662D01*
X11167481Y-24163663D01*
X11140777Y-24174724D01*
X11114073Y-24185785D01*
X11085169Y-24214689D01*
X11056265Y-24243594D01*
X11056264Y-24243595D01*
X11052278Y-24247580D01*
X11046846Y-24253012D01*
X11024084Y-24262437D01*
X11012198Y-24267360D01*
X11012196Y-24267359D01*
X11012196Y-24267360D01*
X11012195Y-24267359D01*
X11002643Y-24266419D01*
X10982621Y-24262437D01*
X10967855Y-24259500D01*
X10967853Y-24259500D01*
X10452149Y-24259500D01*
X10452148Y-24259500D01*
X10452146Y-24259501D01*
X10437383Y-24262437D01*
X10414080Y-24267071D01*
X10414076Y-24267073D01*
X10370912Y-24295914D01*
X10342072Y-24339077D01*
X10342071Y-24339080D01*
X10342071Y-24339081D01*
X10334500Y-24377145D01*
X10334500Y-24377147D01*
X10334500Y-24377148D01*
X10334500Y-24419601D01*
X10320149Y-24454250D01*
X10285501Y-24468602D01*
X10285500Y-24468601D01*
X10285500Y-24468602D01*
X10250852Y-24454251D01*
X10250851Y-24454250D01*
X10206406Y-24409805D01*
X9510749Y-23714148D01*
X9496397Y-23679500D01*
X9510749Y-23644852D01*
X9545397Y-23630500D01*
X9695875Y-23630500D01*
X9695877Y-23630500D01*
X9727162Y-23617541D01*
X9771406Y-23599215D01*
X9812194Y-23558426D01*
X9846841Y-23544074D01*
X9859521Y-23545743D01*
X9871981Y-23549082D01*
X9877272Y-23550500D01*
X9877273Y-23550500D01*
X9982730Y-23550500D01*
X9982730Y-23550499D01*
X10084587Y-23523207D01*
X10175913Y-23470480D01*
X10250480Y-23395913D01*
X10250481Y-23395910D01*
X10250852Y-23395540D01*
X10285500Y-23381188D01*
X10320148Y-23395540D01*
X10334500Y-23430188D01*
X10334500Y-23532850D01*
X10334501Y-23532854D01*
X10342071Y-23570919D01*
X10342072Y-23570920D01*
X10346655Y-23577781D01*
X10353968Y-23614564D01*
X10346655Y-23632219D01*
X10342071Y-23639079D01*
X10334500Y-23677147D01*
X10334500Y-23882850D01*
X10334501Y-23882854D01*
X10342071Y-23920919D01*
X10342073Y-23920923D01*
X10370914Y-23964087D01*
X10414077Y-23992927D01*
X10414079Y-23992927D01*
X10414081Y-23992929D01*
X10452145Y-24000500D01*
X10639330Y-24000499D01*
X10658080Y-24004228D01*
X10661151Y-24005500D01*
X10661153Y-24005500D01*
X10752848Y-24005500D01*
X10752849Y-24005500D01*
X10755915Y-24004229D01*
X10774669Y-24000499D01*
X10967851Y-24000499D01*
X10967854Y-24000499D01*
X11005919Y-23992929D01*
X11049086Y-23964086D01*
X11077929Y-23920919D01*
X11085500Y-23882855D01*
X11085500Y-23879501D01*
X11099852Y-23844853D01*
X11134500Y-23830501D01*
X11195849Y-23830501D01*
X11195850Y-23830501D01*
X11245476Y-23809944D01*
X11245604Y-23809890D01*
X11277148Y-23807787D01*
X11279378Y-23808384D01*
X11287271Y-23810500D01*
X11287273Y-23810500D01*
X11392730Y-23810500D01*
X11392730Y-23810499D01*
X11494587Y-23783207D01*
X11585913Y-23730480D01*
X11660480Y-23655913D01*
X11713207Y-23564587D01*
X11740499Y-23462730D01*
X11740500Y-23462730D01*
X11740500Y-23357270D01*
X11740499Y-23357269D01*
X11722228Y-23289079D01*
X11713207Y-23255413D01*
X11713206Y-23255412D01*
X11713206Y-23255410D01*
X11660479Y-23164086D01*
X11626041Y-23129648D01*
X11611689Y-23095000D01*
X11626041Y-23060352D01*
X11660479Y-23025914D01*
X11660480Y-23025913D01*
X11713207Y-22934587D01*
X11740499Y-22832730D01*
X11740500Y-22832730D01*
X11740500Y-22727270D01*
X11740499Y-22727269D01*
X11718700Y-22645913D01*
X11713207Y-22625413D01*
X11689296Y-22583999D01*
X11684402Y-22546818D01*
X11707232Y-22517065D01*
X11731732Y-22510500D01*
X15407831Y-22510500D01*
X15442479Y-22524852D01*
X15834033Y-22916406D01*
X15891842Y-22974215D01*
X15936086Y-22992541D01*
X15967371Y-23005500D01*
X15967372Y-23005500D01*
X15967373Y-23005500D01*
X18740875Y-23005500D01*
X18740877Y-23005500D01*
X18772162Y-22992541D01*
X18816406Y-22974215D01*
X18874215Y-22916406D01*
X18982195Y-22808424D01*
X19016841Y-22794074D01*
X19029522Y-22795743D01*
X19039733Y-22798479D01*
X19047272Y-22800500D01*
X19047273Y-22800500D01*
X19152730Y-22800500D01*
X19152730Y-22800499D01*
X19254587Y-22773207D01*
X19345913Y-22720480D01*
X19420480Y-22645913D01*
X19473207Y-22554587D01*
X19500499Y-22452730D01*
X19500500Y-22452730D01*
X19500500Y-22347270D01*
X19500499Y-22347269D01*
X19473207Y-22245414D01*
X19473206Y-22245410D01*
X19434160Y-22177781D01*
X19420480Y-22154087D01*
X19345913Y-22079520D01*
X19254589Y-22026793D01*
X19254585Y-22026792D01*
X19152730Y-21999500D01*
X19152727Y-21999500D01*
X19047273Y-21999500D01*
X19047270Y-21999500D01*
X18945414Y-22026792D01*
X18945410Y-22026793D01*
X18854086Y-22079520D01*
X18854086Y-22079521D01*
X18779521Y-22154086D01*
X18779520Y-22154086D01*
X18726793Y-22245410D01*
X18726792Y-22245414D01*
X18699500Y-22347269D01*
X18699500Y-22452727D01*
X18704255Y-22470476D01*
X18703390Y-22477039D01*
X18705924Y-22483156D01*
X18701028Y-22494976D01*
X18699358Y-22507658D01*
X18691572Y-22517805D01*
X18629230Y-22580148D01*
X18594584Y-22594500D01*
X16588845Y-22594500D01*
X16554197Y-22580148D01*
X16539845Y-22545500D01*
X16546409Y-22521002D01*
X16573207Y-22474587D01*
X16600499Y-22372730D01*
X16600500Y-22372730D01*
X16600500Y-22325030D01*
X16614852Y-22290382D01*
X16649500Y-22276030D01*
X16662179Y-22277699D01*
X16701382Y-22288203D01*
X16747271Y-22300500D01*
X16747273Y-22300500D01*
X16852730Y-22300500D01*
X16852730Y-22300499D01*
X16954587Y-22273207D01*
X17045913Y-22220480D01*
X17120480Y-22145913D01*
X17173207Y-22054587D01*
X17200499Y-21952730D01*
X17200500Y-21952730D01*
X17200500Y-21847270D01*
X17200499Y-21847269D01*
X17183238Y-21782850D01*
X17173207Y-21745413D01*
X17173206Y-21745412D01*
X17173206Y-21745410D01*
X17120479Y-21654086D01*
X17095541Y-21629148D01*
X17081189Y-21594500D01*
X17095541Y-21559852D01*
X17130189Y-21545500D01*
X19700500Y-21545500D01*
X19735148Y-21559852D01*
X19749500Y-21594500D01*
X19749500Y-21652730D01*
X19776792Y-21754585D01*
X19776793Y-21754589D01*
X19829520Y-21845913D01*
X19904087Y-21920480D01*
X19915633Y-21927146D01*
X19995410Y-21973206D01*
X19995412Y-21973206D01*
X19995413Y-21973207D01*
X20022180Y-21980379D01*
X20097269Y-22000499D01*
X20097270Y-22000500D01*
X20097273Y-22000500D01*
X20202730Y-22000500D01*
X20202730Y-22000499D01*
X20304587Y-21973207D01*
X20395913Y-21920480D01*
X20470480Y-21845913D01*
X20523207Y-21754587D01*
X20550499Y-21652730D01*
X20550500Y-21652730D01*
X20550500Y-21547270D01*
X20550499Y-21547269D01*
X20538422Y-21502198D01*
X20523207Y-21445413D01*
X20523206Y-21445412D01*
X20523206Y-21445410D01*
X20470479Y-21354086D01*
X20465541Y-21349148D01*
X20451189Y-21314500D01*
X20465541Y-21279852D01*
X20500189Y-21265500D01*
X21354583Y-21265500D01*
X21389231Y-21279852D01*
X21591572Y-21482193D01*
X21605924Y-21516841D01*
X21604255Y-21529520D01*
X21599500Y-21547270D01*
X21599500Y-21652730D01*
X21626792Y-21754585D01*
X21626793Y-21754589D01*
X21679520Y-21845913D01*
X21754087Y-21920480D01*
X21765633Y-21927146D01*
X21845410Y-21973206D01*
X21845412Y-21973206D01*
X21845413Y-21973207D01*
X21872180Y-21980379D01*
X21947269Y-22000499D01*
X21947270Y-22000500D01*
X21947273Y-22000500D01*
X22052730Y-22000500D01*
X22052730Y-22000499D01*
X22154587Y-21973207D01*
X22245913Y-21920480D01*
X22320480Y-21845913D01*
X22373207Y-21754587D01*
X22400499Y-21652730D01*
X22400500Y-21652730D01*
X22400500Y-21547270D01*
X22400499Y-21547269D01*
X22388422Y-21502198D01*
X22373207Y-21445413D01*
X22373206Y-21445412D01*
X22373206Y-21445410D01*
X22320479Y-21354086D01*
X22245913Y-21279520D01*
X22154589Y-21226793D01*
X22154585Y-21226792D01*
X22052730Y-21199500D01*
X22052727Y-21199500D01*
X21947273Y-21199500D01*
X21947271Y-21199500D01*
X21929520Y-21204255D01*
X21892338Y-21199358D01*
X21882193Y-21191572D01*
X21759769Y-21069148D01*
X21745417Y-21034500D01*
X21759769Y-20999852D01*
X21794417Y-20985500D01*
X22934583Y-20985500D01*
X22969231Y-20999852D01*
X23501572Y-21532193D01*
X23515924Y-21566841D01*
X23514255Y-21579520D01*
X23509500Y-21597270D01*
X23509500Y-21702730D01*
X23536792Y-21804585D01*
X23536793Y-21804589D01*
X23589520Y-21895913D01*
X23664087Y-21970480D01*
X23681233Y-21980379D01*
X23755410Y-22023206D01*
X23755412Y-22023206D01*
X23755413Y-22023207D01*
X23835747Y-22044732D01*
X23857269Y-22050499D01*
X23857270Y-22050500D01*
X23857273Y-22050500D01*
X23962730Y-22050500D01*
X23962730Y-22050499D01*
X24064587Y-22023207D01*
X24155913Y-21970480D01*
X24230480Y-21895913D01*
X24283207Y-21804587D01*
X24310499Y-21702730D01*
X24310500Y-21702730D01*
X24310500Y-21597270D01*
X24310499Y-21597269D01*
X24292346Y-21529520D01*
X24283207Y-21495413D01*
X24283206Y-21495412D01*
X24283206Y-21495410D01*
X24230479Y-21404086D01*
X24155913Y-21329520D01*
X24064589Y-21276793D01*
X24064585Y-21276792D01*
X23962730Y-21249500D01*
X23962727Y-21249500D01*
X23857273Y-21249500D01*
X23857271Y-21249500D01*
X23839520Y-21254255D01*
X23802338Y-21249358D01*
X23792193Y-21241572D01*
X23439769Y-20889148D01*
X23425417Y-20854500D01*
X23439769Y-20819852D01*
X23474417Y-20805500D01*
X23930875Y-20805500D01*
X23930877Y-20805500D01*
X23981645Y-20784471D01*
X24006406Y-20774215D01*
X24064215Y-20716406D01*
X24522466Y-20258153D01*
X24557113Y-20243802D01*
X24591761Y-20258154D01*
X24654087Y-20320480D01*
X24669998Y-20329666D01*
X24745410Y-20373206D01*
X24745412Y-20373206D01*
X24745413Y-20373207D01*
X24824880Y-20394500D01*
X24847269Y-20400499D01*
X24847270Y-20400500D01*
X24847273Y-20400500D01*
X24952730Y-20400500D01*
X24952730Y-20400499D01*
X25054587Y-20373207D01*
X25145913Y-20320480D01*
X25220480Y-20245913D01*
X25273207Y-20154587D01*
X25300499Y-20052730D01*
X25300500Y-20052730D01*
X25300500Y-19947270D01*
X25300499Y-19947269D01*
X25273207Y-19845414D01*
X25273206Y-19845410D01*
X25220479Y-19754086D01*
X25145913Y-19679520D01*
X25054589Y-19626793D01*
X25054585Y-19626792D01*
X24952730Y-19599500D01*
X24952727Y-19599500D01*
X24847273Y-19599500D01*
X24847272Y-19599500D01*
X24799988Y-19612168D01*
X24768557Y-19610107D01*
X24730880Y-19594501D01*
X24730878Y-19594500D01*
X24730877Y-19594500D01*
X24649123Y-19594500D01*
X24649121Y-19594500D01*
X24573591Y-19625787D01*
X24573590Y-19625787D01*
X23819231Y-20380148D01*
X23784583Y-20394500D01*
X23361397Y-20394500D01*
X23326749Y-20380148D01*
X23272386Y-20325785D01*
X23213592Y-20301432D01*
X23196858Y-20294500D01*
X23196857Y-20294500D01*
X23196856Y-20294500D01*
X18677298Y-20294500D01*
X18642650Y-20280148D01*
X18628298Y-20245500D01*
X18634862Y-20221001D01*
X18673207Y-20154587D01*
X18700499Y-20052730D01*
X18700500Y-20052730D01*
X18700500Y-19947270D01*
X18700499Y-19947269D01*
X18673207Y-19845414D01*
X18673206Y-19845410D01*
X18620479Y-19754086D01*
X18545913Y-19679520D01*
X18454589Y-19626793D01*
X18454585Y-19626792D01*
X18352730Y-19599500D01*
X18352727Y-19599500D01*
X18247273Y-19599500D01*
X18247270Y-19599500D01*
X18145414Y-19626792D01*
X18145410Y-19626793D01*
X18054086Y-19679520D01*
X18054086Y-19679521D01*
X17979521Y-19754086D01*
X17979520Y-19754086D01*
X17926793Y-19845410D01*
X17926792Y-19845414D01*
X17899500Y-19947269D01*
X17899500Y-19965500D01*
X17885148Y-20000148D01*
X17850500Y-20014500D01*
X14557273Y-20014500D01*
X14522625Y-20000148D01*
X14101625Y-19579148D01*
X14087273Y-19544500D01*
X14101625Y-19509852D01*
X14136273Y-19495500D01*
X20673362Y-19495500D01*
X20708010Y-19509852D01*
X20720692Y-19531818D01*
X20726792Y-19554586D01*
X20726793Y-19554589D01*
X20768481Y-19626793D01*
X20779520Y-19645913D01*
X20854087Y-19720480D01*
X20887513Y-19739778D01*
X20945410Y-19773206D01*
X20945412Y-19773206D01*
X20945413Y-19773207D01*
X21025747Y-19794732D01*
X21047269Y-19800499D01*
X21047270Y-19800500D01*
X21047273Y-19800500D01*
X21152730Y-19800500D01*
X21152730Y-19800499D01*
X21254587Y-19773207D01*
X21345913Y-19720480D01*
X21420480Y-19645913D01*
X21473207Y-19554587D01*
X21500499Y-19452730D01*
X21500500Y-19452730D01*
X21500500Y-19347270D01*
X21500499Y-19347269D01*
X21473207Y-19245414D01*
X21473206Y-19245410D01*
X21420479Y-19154086D01*
X21350541Y-19084148D01*
X21336189Y-19049500D01*
X21350541Y-19014852D01*
X21385189Y-19000500D01*
X31550500Y-19000500D01*
X31585148Y-19014852D01*
G37*
G04 #@! TD.AperFunction*
G04 #@! TA.AperFunction,Conductor*
G36*
X10083474Y-19003771D02*
G01*
X10092015Y-19003339D01*
X10100127Y-19010669D01*
X10110225Y-19014852D01*
X10113496Y-19022750D01*
X10119841Y-19028483D01*
X10120393Y-19039401D01*
X10124577Y-19049500D01*
X10121305Y-19057397D01*
X10121738Y-19065938D01*
X10114407Y-19074050D01*
X10110225Y-19084148D01*
X10097752Y-19092482D01*
X10096594Y-19093764D01*
X10095483Y-19094291D01*
X10087838Y-19097458D01*
X10043594Y-19115785D01*
X10043593Y-19115786D01*
X10037607Y-19121771D01*
X10037606Y-19121772D01*
X9706652Y-19452727D01*
X9388094Y-19771285D01*
X9358880Y-19800499D01*
X9330285Y-19829094D01*
X9299001Y-19904620D01*
X9299000Y-19904626D01*
X9299000Y-20025299D01*
X9284648Y-20059947D01*
X9250000Y-20074299D01*
X9225500Y-20067734D01*
X9154589Y-20026793D01*
X9154585Y-20026792D01*
X9052730Y-19999500D01*
X9052727Y-19999500D01*
X8947273Y-19999500D01*
X8947270Y-19999500D01*
X8845414Y-20026792D01*
X8845410Y-20026793D01*
X8754086Y-20079520D01*
X8754086Y-20079521D01*
X8679521Y-20154086D01*
X8679520Y-20154086D01*
X8626793Y-20245410D01*
X8626792Y-20245414D01*
X8599500Y-20347269D01*
X8599500Y-20452730D01*
X8627624Y-20557689D01*
X8626914Y-20557878D01*
X8629500Y-20570868D01*
X8629500Y-20719812D01*
X8615148Y-20754460D01*
X8597899Y-20763690D01*
X8598536Y-20765227D01*
X8594076Y-20767073D01*
X8550912Y-20795914D01*
X8522072Y-20839077D01*
X8522071Y-20839080D01*
X8514500Y-20877147D01*
X8514500Y-21082850D01*
X8514501Y-21082854D01*
X8522071Y-21120919D01*
X8522072Y-21120920D01*
X8526655Y-21127781D01*
X8533968Y-21164564D01*
X8526655Y-21182219D01*
X8522071Y-21189079D01*
X8519053Y-21204255D01*
X8514571Y-21226792D01*
X8514500Y-21227147D01*
X8514500Y-21432850D01*
X8514501Y-21432854D01*
X8522071Y-21470919D01*
X8522072Y-21470920D01*
X8526655Y-21477781D01*
X8533968Y-21514564D01*
X8526655Y-21532219D01*
X8522071Y-21539079D01*
X8519462Y-21552198D01*
X8516550Y-21566841D01*
X8514500Y-21577147D01*
X8514500Y-21782850D01*
X8514501Y-21782854D01*
X8522071Y-21820919D01*
X8522072Y-21820920D01*
X8526655Y-21827781D01*
X8533968Y-21864564D01*
X8526655Y-21882219D01*
X8522071Y-21889079D01*
X8514500Y-21927147D01*
X8514500Y-22132850D01*
X8514501Y-22132854D01*
X8522071Y-22170919D01*
X8522072Y-22170920D01*
X8526655Y-22177781D01*
X8533968Y-22214564D01*
X8526655Y-22232219D01*
X8522071Y-22239079D01*
X8520811Y-22245414D01*
X8515284Y-22273207D01*
X8514500Y-22277147D01*
X8514500Y-22482850D01*
X8514501Y-22482854D01*
X8522071Y-22520919D01*
X8523414Y-22522929D01*
X8526655Y-22527781D01*
X8533968Y-22564564D01*
X8526655Y-22582219D01*
X8522071Y-22589079D01*
X8522071Y-22589081D01*
X8514845Y-22625414D01*
X8514500Y-22627147D01*
X8514500Y-22832850D01*
X8514501Y-22832854D01*
X8522071Y-22870919D01*
X8522072Y-22870920D01*
X8526655Y-22877781D01*
X8533968Y-22914564D01*
X8526655Y-22932219D01*
X8522071Y-22939079D01*
X8522071Y-22939081D01*
X8515084Y-22974213D01*
X8514500Y-22977147D01*
X8514500Y-23182850D01*
X8514501Y-23182854D01*
X8522071Y-23220919D01*
X8522072Y-23220920D01*
X8526655Y-23227781D01*
X8533968Y-23264564D01*
X8526655Y-23282219D01*
X8522071Y-23289079D01*
X8514500Y-23327147D01*
X8514500Y-23532850D01*
X8514501Y-23532854D01*
X8522071Y-23570919D01*
X8522072Y-23570920D01*
X8526655Y-23577781D01*
X8533968Y-23614564D01*
X8526655Y-23632219D01*
X8522071Y-23639079D01*
X8514500Y-23677147D01*
X8514500Y-23882850D01*
X8514501Y-23882854D01*
X8522071Y-23920919D01*
X8522073Y-23920923D01*
X8550914Y-23964087D01*
X8594077Y-23992927D01*
X8594079Y-23992927D01*
X8594081Y-23992929D01*
X8632145Y-24000500D01*
X9147854Y-24000499D01*
X9178892Y-23994326D01*
X9215672Y-24001644D01*
X9223096Y-24007737D01*
X9870148Y-24654789D01*
X9884500Y-24689437D01*
X9884500Y-25469127D01*
X9888401Y-25478542D01*
X9888798Y-25479500D01*
X9915785Y-25544654D01*
X9915786Y-25544655D01*
X10172537Y-25801406D01*
X10230346Y-25859215D01*
X10274590Y-25877541D01*
X10305875Y-25890500D01*
X10305876Y-25890500D01*
X10353191Y-25890500D01*
X10357487Y-25891271D01*
X10369879Y-25899218D01*
X10383479Y-25904852D01*
X10385221Y-25909058D01*
X10389055Y-25911517D01*
X10392197Y-25925899D01*
X10397831Y-25939500D01*
X10396088Y-25943707D01*
X10397060Y-25948156D01*
X10389112Y-25960548D01*
X10383479Y-25974148D01*
X10251702Y-26105924D01*
X10251701Y-26105924D01*
X10251702Y-26105925D01*
X10200782Y-26156845D01*
X10198102Y-26160856D01*
X10197573Y-26160502D01*
X10191415Y-26169714D01*
X10110982Y-26250148D01*
X10076336Y-26264500D01*
X9893665Y-26264500D01*
X9859017Y-26250148D01*
X9729852Y-26120983D01*
X9715500Y-26086335D01*
X9715500Y-24779124D01*
X9715499Y-24779121D01*
X9710392Y-24766792D01*
X9710391Y-24766791D01*
X9686286Y-24708594D01*
X9684215Y-24703594D01*
X9626406Y-24645785D01*
X9281407Y-24300786D01*
X9281406Y-24300785D01*
X9237162Y-24282458D01*
X9237161Y-24282457D01*
X9205877Y-24269500D01*
X9205876Y-24269500D01*
X9201530Y-24269500D01*
X9190782Y-24267361D01*
X9190653Y-24268013D01*
X9185919Y-24267071D01*
X9147855Y-24259500D01*
X9147852Y-24259500D01*
X8632149Y-24259500D01*
X8632148Y-24259500D01*
X8632146Y-24259501D01*
X8617383Y-24262437D01*
X8594080Y-24267071D01*
X8594076Y-24267073D01*
X8550912Y-24295914D01*
X8522072Y-24339077D01*
X8522071Y-24339080D01*
X8514500Y-24377147D01*
X8514500Y-24582850D01*
X8514501Y-24582854D01*
X8522071Y-24620919D01*
X8522072Y-24620920D01*
X8526655Y-24627781D01*
X8533968Y-24664564D01*
X8532570Y-24669962D01*
X8530470Y-24676509D01*
X8522071Y-24689081D01*
X8514934Y-24724959D01*
X8514081Y-24727622D01*
X8510046Y-24732382D01*
X8502070Y-24747307D01*
X8484149Y-24765229D01*
X8449501Y-24779582D01*
X8414853Y-24765231D01*
X8400500Y-24730583D01*
X8400500Y-19049500D01*
X8414852Y-19014852D01*
X8449500Y-19000500D01*
X10075577Y-19000500D01*
X10083474Y-19003771D01*
G37*
G04 #@! TD.AperFunction*
G04 #@! TD*
G04 #@! TA.AperFunction,Conductor*
G04 #@! TO.N,Board_0-GND*
G36*
X31585148Y-8414852D02*
G01*
X31599500Y-8449500D01*
X31599500Y-16150500D01*
X31585148Y-16185148D01*
X31550500Y-16199500D01*
X11205189Y-16199500D01*
X11170541Y-16185148D01*
X11156189Y-16150500D01*
X11169234Y-16119006D01*
X11168524Y-16118462D01*
X11170475Y-16115917D01*
X11170480Y-16115913D01*
X11223207Y-16024587D01*
X11250499Y-15922730D01*
X11250500Y-15922730D01*
X11250500Y-15899500D01*
X11264852Y-15864852D01*
X11299500Y-15850500D01*
X25595875Y-15850500D01*
X25595877Y-15850500D01*
X25627162Y-15837541D01*
X25671406Y-15819215D01*
X25729215Y-15761406D01*
X25782195Y-15708424D01*
X25816840Y-15694074D01*
X25829522Y-15695743D01*
X25839733Y-15698479D01*
X25847272Y-15700500D01*
X25847273Y-15700500D01*
X25952730Y-15700500D01*
X25952730Y-15700499D01*
X26054587Y-15673207D01*
X26145913Y-15620480D01*
X26220480Y-15545913D01*
X26273207Y-15454587D01*
X26300499Y-15352730D01*
X26300500Y-15352730D01*
X26300500Y-15247270D01*
X26300499Y-15247269D01*
X26277883Y-15162864D01*
X26273207Y-15145413D01*
X26249296Y-15103999D01*
X26247627Y-15091318D01*
X26242732Y-15079500D01*
X26245266Y-15073382D01*
X26244402Y-15066818D01*
X26252188Y-15056670D01*
X26257084Y-15044852D01*
X26263201Y-15042318D01*
X26267232Y-15037065D01*
X26291732Y-15030500D01*
X26319583Y-15030500D01*
X26354231Y-15044852D01*
X26391572Y-15082193D01*
X26405924Y-15116841D01*
X26404255Y-15129520D01*
X26399500Y-15147270D01*
X26399500Y-15252730D01*
X26426792Y-15354585D01*
X26426793Y-15354589D01*
X26468481Y-15426793D01*
X26479520Y-15445913D01*
X26554087Y-15520480D01*
X26584618Y-15538107D01*
X26645410Y-15573206D01*
X26645412Y-15573206D01*
X26645413Y-15573207D01*
X26651243Y-15574769D01*
X26747269Y-15600499D01*
X26747270Y-15600500D01*
X26747273Y-15600500D01*
X26852730Y-15600500D01*
X26852730Y-15600499D01*
X26954587Y-15573207D01*
X27045913Y-15520480D01*
X27120480Y-15445913D01*
X27166142Y-15366823D01*
X27173206Y-15354589D01*
X27173206Y-15354588D01*
X27173207Y-15354587D01*
X27200499Y-15252730D01*
X27200500Y-15252730D01*
X27200500Y-15147270D01*
X27200499Y-15147269D01*
X27175531Y-15054087D01*
X27173207Y-15045413D01*
X27173206Y-15045412D01*
X27173206Y-15045410D01*
X27120479Y-14954086D01*
X27045913Y-14879520D01*
X26954589Y-14826793D01*
X26954585Y-14826792D01*
X26852730Y-14799500D01*
X26852727Y-14799500D01*
X26747273Y-14799500D01*
X26747271Y-14799500D01*
X26729520Y-14804255D01*
X26692338Y-14799358D01*
X26682193Y-14791572D01*
X26541406Y-14650785D01*
X26533857Y-14647658D01*
X26497162Y-14632458D01*
X26497161Y-14632457D01*
X26465877Y-14619500D01*
X26465876Y-14619500D01*
X25744125Y-14619500D01*
X25662371Y-14619500D01*
X25631086Y-14632457D01*
X25631086Y-14632458D01*
X25608964Y-14641621D01*
X25586841Y-14650785D01*
X25586841Y-14650786D01*
X25092479Y-15145148D01*
X25057831Y-15159500D01*
X23719417Y-15159500D01*
X23684769Y-15145148D01*
X23670417Y-15110500D01*
X23684767Y-15075853D01*
X23812195Y-14948424D01*
X23846841Y-14934074D01*
X23859522Y-14935743D01*
X23869733Y-14938479D01*
X23877272Y-14940500D01*
X23877273Y-14940500D01*
X23982730Y-14940500D01*
X23982730Y-14940499D01*
X24084587Y-14913207D01*
X24175913Y-14860480D01*
X24250480Y-14785913D01*
X24303207Y-14694587D01*
X24330499Y-14592730D01*
X24330500Y-14592730D01*
X24330500Y-14487270D01*
X24330499Y-14487269D01*
X24303207Y-14385414D01*
X24303206Y-14385410D01*
X24250479Y-14294086D01*
X24175913Y-14219520D01*
X24084589Y-14166793D01*
X24084585Y-14166792D01*
X23982730Y-14139500D01*
X23982727Y-14139500D01*
X23877273Y-14139500D01*
X23877270Y-14139500D01*
X23775414Y-14166792D01*
X23775410Y-14166793D01*
X23684086Y-14219520D01*
X23684086Y-14219521D01*
X23609521Y-14294086D01*
X23609520Y-14294086D01*
X23556793Y-14385410D01*
X23556792Y-14385414D01*
X23529500Y-14487269D01*
X23529500Y-14592727D01*
X23534255Y-14610476D01*
X23529358Y-14647658D01*
X23521572Y-14657805D01*
X23314231Y-14865148D01*
X23279583Y-14879500D01*
X12485959Y-14879500D01*
X12451311Y-14865148D01*
X12436959Y-14830500D01*
X12443524Y-14806000D01*
X12473206Y-14754589D01*
X12473206Y-14754588D01*
X12473207Y-14754587D01*
X12500499Y-14652730D01*
X12500500Y-14652730D01*
X12500500Y-14547270D01*
X12500499Y-14547269D01*
X12473207Y-14445414D01*
X12473206Y-14445410D01*
X12420479Y-14354086D01*
X12345913Y-14279520D01*
X12254589Y-14226793D01*
X12254585Y-14226792D01*
X12152730Y-14199500D01*
X12152727Y-14199500D01*
X12047273Y-14199500D01*
X12047270Y-14199500D01*
X12018771Y-14207136D01*
X11981589Y-14202241D01*
X11958759Y-14172488D01*
X11963654Y-14135306D01*
X11971437Y-14125162D01*
X12611748Y-13484852D01*
X12646396Y-13470500D01*
X26659583Y-13470500D01*
X26694231Y-13484852D01*
X28291572Y-15082193D01*
X28305924Y-15116841D01*
X28304255Y-15129520D01*
X28299500Y-15147270D01*
X28299500Y-15252730D01*
X28326792Y-15354585D01*
X28326793Y-15354589D01*
X28368481Y-15426793D01*
X28379520Y-15445913D01*
X28454087Y-15520480D01*
X28484618Y-15538107D01*
X28545410Y-15573206D01*
X28545412Y-15573206D01*
X28545413Y-15573207D01*
X28551243Y-15574769D01*
X28647269Y-15600499D01*
X28647270Y-15600500D01*
X28647273Y-15600500D01*
X28752730Y-15600500D01*
X28752730Y-15600499D01*
X28854587Y-15573207D01*
X28945913Y-15520480D01*
X29020480Y-15445913D01*
X29066142Y-15366823D01*
X29073206Y-15354589D01*
X29073206Y-15354588D01*
X29073207Y-15354587D01*
X29100499Y-15252730D01*
X29100500Y-15252730D01*
X29100500Y-15147270D01*
X29100499Y-15147269D01*
X29075531Y-15054087D01*
X29073207Y-15045413D01*
X29073206Y-15045412D01*
X29073206Y-15045410D01*
X29020479Y-14954086D01*
X28945913Y-14879520D01*
X28854589Y-14826793D01*
X28854585Y-14826792D01*
X28752730Y-14799500D01*
X28752727Y-14799500D01*
X28647273Y-14799500D01*
X28647271Y-14799500D01*
X28629520Y-14804255D01*
X28592338Y-14799358D01*
X28582193Y-14791572D01*
X26965269Y-13174648D01*
X26950917Y-13140000D01*
X26965269Y-13105352D01*
X28874214Y-11196407D01*
X28874215Y-11196406D01*
X28905500Y-11120876D01*
X28905500Y-9772102D01*
X28919852Y-9737454D01*
X28930002Y-9729666D01*
X28945913Y-9720480D01*
X29020480Y-9645913D01*
X29073207Y-9554587D01*
X29100499Y-9452730D01*
X29100500Y-9452730D01*
X29100500Y-9347270D01*
X29100499Y-9347269D01*
X29073207Y-9245414D01*
X29073206Y-9245410D01*
X29020479Y-9154086D01*
X28945913Y-9079520D01*
X28854589Y-9026793D01*
X28854585Y-9026792D01*
X28752730Y-8999500D01*
X28752727Y-8999500D01*
X28647273Y-8999500D01*
X28647270Y-8999500D01*
X28545414Y-9026792D01*
X28545410Y-9026793D01*
X28454086Y-9079520D01*
X28454086Y-9079521D01*
X28379521Y-9154086D01*
X28379520Y-9154086D01*
X28326793Y-9245410D01*
X28326792Y-9245414D01*
X28299500Y-9347269D01*
X28299500Y-9452730D01*
X28326792Y-9554585D01*
X28326793Y-9554589D01*
X28365136Y-9621000D01*
X28379520Y-9645913D01*
X28454087Y-9720480D01*
X28454090Y-9720481D01*
X28454093Y-9720484D01*
X28469998Y-9729666D01*
X28492830Y-9759418D01*
X28494500Y-9772102D01*
X28494500Y-10974583D01*
X28480148Y-11009231D01*
X26724231Y-12765148D01*
X26689583Y-12779500D01*
X12384121Y-12779500D01*
X12372960Y-12784124D01*
X12308593Y-12810785D01*
X12289191Y-12830188D01*
X12250785Y-12868594D01*
X11579231Y-13540148D01*
X11544583Y-13554500D01*
X11189603Y-13554500D01*
X11167481Y-13563662D01*
X11167481Y-13563663D01*
X11140777Y-13574724D01*
X11114073Y-13585785D01*
X11085169Y-13614689D01*
X11056265Y-13643594D01*
X11056264Y-13643595D01*
X11052278Y-13647580D01*
X11046846Y-13653012D01*
X11024084Y-13662437D01*
X11012198Y-13667360D01*
X11012196Y-13667359D01*
X11012196Y-13667360D01*
X11012195Y-13667359D01*
X11002643Y-13666419D01*
X10982621Y-13662437D01*
X10967855Y-13659500D01*
X10967853Y-13659500D01*
X10452149Y-13659500D01*
X10452148Y-13659500D01*
X10452146Y-13659501D01*
X10437383Y-13662437D01*
X10414080Y-13667071D01*
X10414076Y-13667073D01*
X10370912Y-13695914D01*
X10342072Y-13739077D01*
X10342071Y-13739080D01*
X10342071Y-13739081D01*
X10334500Y-13777145D01*
X10334500Y-13777147D01*
X10334500Y-13777148D01*
X10334500Y-13819601D01*
X10320149Y-13854250D01*
X10285501Y-13868602D01*
X10285500Y-13868601D01*
X10285500Y-13868602D01*
X10250852Y-13854251D01*
X10250851Y-13854250D01*
X10206406Y-13809805D01*
X9510749Y-13114148D01*
X9496397Y-13079500D01*
X9510749Y-13044852D01*
X9545397Y-13030500D01*
X9695875Y-13030500D01*
X9695877Y-13030500D01*
X9727162Y-13017541D01*
X9771406Y-12999215D01*
X9812194Y-12958426D01*
X9846841Y-12944074D01*
X9859521Y-12945743D01*
X9871981Y-12949082D01*
X9877272Y-12950500D01*
X9877273Y-12950500D01*
X9982730Y-12950500D01*
X9982730Y-12950499D01*
X10084587Y-12923207D01*
X10175913Y-12870480D01*
X10250480Y-12795913D01*
X10250481Y-12795910D01*
X10250852Y-12795540D01*
X10285500Y-12781188D01*
X10320148Y-12795540D01*
X10334500Y-12830188D01*
X10334500Y-12932850D01*
X10334501Y-12932854D01*
X10342071Y-12970919D01*
X10342072Y-12970920D01*
X10346655Y-12977781D01*
X10353968Y-13014564D01*
X10346655Y-13032219D01*
X10342071Y-13039079D01*
X10334500Y-13077147D01*
X10334500Y-13282850D01*
X10334501Y-13282854D01*
X10342071Y-13320919D01*
X10342073Y-13320923D01*
X10370914Y-13364087D01*
X10414077Y-13392927D01*
X10414079Y-13392927D01*
X10414081Y-13392929D01*
X10452145Y-13400500D01*
X10639330Y-13400499D01*
X10658080Y-13404228D01*
X10661151Y-13405500D01*
X10661153Y-13405500D01*
X10752848Y-13405500D01*
X10752849Y-13405500D01*
X10755915Y-13404229D01*
X10774669Y-13400499D01*
X10967851Y-13400499D01*
X10967854Y-13400499D01*
X11005919Y-13392929D01*
X11049086Y-13364086D01*
X11077929Y-13320919D01*
X11085500Y-13282855D01*
X11085500Y-13279501D01*
X11099852Y-13244853D01*
X11134500Y-13230501D01*
X11195849Y-13230501D01*
X11195850Y-13230501D01*
X11245476Y-13209944D01*
X11245604Y-13209890D01*
X11277148Y-13207787D01*
X11279378Y-13208384D01*
X11287271Y-13210500D01*
X11287273Y-13210500D01*
X11392730Y-13210500D01*
X11392730Y-13210499D01*
X11494587Y-13183207D01*
X11585913Y-13130480D01*
X11660480Y-13055913D01*
X11713207Y-12964587D01*
X11740499Y-12862730D01*
X11740500Y-12862730D01*
X11740500Y-12757270D01*
X11740499Y-12757269D01*
X11722228Y-12689079D01*
X11713207Y-12655413D01*
X11713206Y-12655412D01*
X11713206Y-12655410D01*
X11660479Y-12564086D01*
X11626041Y-12529648D01*
X11611689Y-12495000D01*
X11626041Y-12460352D01*
X11660479Y-12425914D01*
X11660480Y-12425913D01*
X11713207Y-12334587D01*
X11740499Y-12232730D01*
X11740500Y-12232730D01*
X11740500Y-12127270D01*
X11740499Y-12127269D01*
X11718700Y-12045913D01*
X11713207Y-12025413D01*
X11689296Y-11983999D01*
X11684402Y-11946818D01*
X11707232Y-11917065D01*
X11731732Y-11910500D01*
X15407831Y-11910500D01*
X15442479Y-11924852D01*
X15834033Y-12316406D01*
X15891842Y-12374215D01*
X15936086Y-12392541D01*
X15967371Y-12405500D01*
X15967372Y-12405500D01*
X15967373Y-12405500D01*
X18740875Y-12405500D01*
X18740877Y-12405500D01*
X18772162Y-12392541D01*
X18816406Y-12374215D01*
X18874215Y-12316406D01*
X18982195Y-12208424D01*
X19016841Y-12194074D01*
X19029522Y-12195743D01*
X19039733Y-12198479D01*
X19047272Y-12200500D01*
X19047273Y-12200500D01*
X19152730Y-12200500D01*
X19152730Y-12200499D01*
X19254587Y-12173207D01*
X19345913Y-12120480D01*
X19420480Y-12045913D01*
X19473207Y-11954587D01*
X19500499Y-11852730D01*
X19500500Y-11852730D01*
X19500500Y-11747270D01*
X19500499Y-11747269D01*
X19473207Y-11645414D01*
X19473206Y-11645410D01*
X19434160Y-11577781D01*
X19420480Y-11554087D01*
X19345913Y-11479520D01*
X19254589Y-11426793D01*
X19254585Y-11426792D01*
X19152730Y-11399500D01*
X19152727Y-11399500D01*
X19047273Y-11399500D01*
X19047270Y-11399500D01*
X18945414Y-11426792D01*
X18945410Y-11426793D01*
X18854086Y-11479520D01*
X18854086Y-11479521D01*
X18779521Y-11554086D01*
X18779520Y-11554086D01*
X18726793Y-11645410D01*
X18726792Y-11645414D01*
X18699500Y-11747269D01*
X18699500Y-11852727D01*
X18704255Y-11870476D01*
X18703390Y-11877039D01*
X18705924Y-11883156D01*
X18701028Y-11894976D01*
X18699358Y-11907658D01*
X18691572Y-11917805D01*
X18629230Y-11980148D01*
X18594584Y-11994500D01*
X16588845Y-11994500D01*
X16554197Y-11980148D01*
X16539845Y-11945500D01*
X16546409Y-11921002D01*
X16573207Y-11874587D01*
X16600499Y-11772730D01*
X16600500Y-11772730D01*
X16600500Y-11725030D01*
X16614852Y-11690382D01*
X16649500Y-11676030D01*
X16662179Y-11677699D01*
X16701382Y-11688203D01*
X16747271Y-11700500D01*
X16747273Y-11700500D01*
X16852730Y-11700500D01*
X16852730Y-11700499D01*
X16954587Y-11673207D01*
X17045913Y-11620480D01*
X17120480Y-11545913D01*
X17173207Y-11454587D01*
X17200499Y-11352730D01*
X17200500Y-11352730D01*
X17200500Y-11247270D01*
X17200499Y-11247269D01*
X17183238Y-11182850D01*
X17173207Y-11145413D01*
X17173206Y-11145412D01*
X17173206Y-11145410D01*
X17120479Y-11054086D01*
X17095541Y-11029148D01*
X17081189Y-10994500D01*
X17095541Y-10959852D01*
X17130189Y-10945500D01*
X19700500Y-10945500D01*
X19735148Y-10959852D01*
X19749500Y-10994500D01*
X19749500Y-11052730D01*
X19776792Y-11154585D01*
X19776793Y-11154589D01*
X19829520Y-11245913D01*
X19904087Y-11320480D01*
X19915633Y-11327146D01*
X19995410Y-11373206D01*
X19995412Y-11373206D01*
X19995413Y-11373207D01*
X20022180Y-11380379D01*
X20097269Y-11400499D01*
X20097270Y-11400500D01*
X20097273Y-11400500D01*
X20202730Y-11400500D01*
X20202730Y-11400499D01*
X20304587Y-11373207D01*
X20395913Y-11320480D01*
X20470480Y-11245913D01*
X20523207Y-11154587D01*
X20550499Y-11052730D01*
X20550500Y-11052730D01*
X20550500Y-10947270D01*
X20550499Y-10947269D01*
X20538422Y-10902198D01*
X20523207Y-10845413D01*
X20523206Y-10845412D01*
X20523206Y-10845410D01*
X20470479Y-10754086D01*
X20465541Y-10749148D01*
X20451189Y-10714500D01*
X20465541Y-10679852D01*
X20500189Y-10665500D01*
X21354583Y-10665500D01*
X21389231Y-10679852D01*
X21591572Y-10882193D01*
X21605924Y-10916841D01*
X21604255Y-10929520D01*
X21599500Y-10947270D01*
X21599500Y-11052730D01*
X21626792Y-11154585D01*
X21626793Y-11154589D01*
X21679520Y-11245913D01*
X21754087Y-11320480D01*
X21765633Y-11327146D01*
X21845410Y-11373206D01*
X21845412Y-11373206D01*
X21845413Y-11373207D01*
X21872180Y-11380379D01*
X21947269Y-11400499D01*
X21947270Y-11400500D01*
X21947273Y-11400500D01*
X22052730Y-11400500D01*
X22052730Y-11400499D01*
X22154587Y-11373207D01*
X22245913Y-11320480D01*
X22320480Y-11245913D01*
X22373207Y-11154587D01*
X22400499Y-11052730D01*
X22400500Y-11052730D01*
X22400500Y-10947270D01*
X22400499Y-10947269D01*
X22388422Y-10902198D01*
X22373207Y-10845413D01*
X22373206Y-10845412D01*
X22373206Y-10845410D01*
X22320479Y-10754086D01*
X22245913Y-10679520D01*
X22154589Y-10626793D01*
X22154585Y-10626792D01*
X22052730Y-10599500D01*
X22052727Y-10599500D01*
X21947273Y-10599500D01*
X21947271Y-10599500D01*
X21929520Y-10604255D01*
X21892338Y-10599358D01*
X21882193Y-10591572D01*
X21759769Y-10469148D01*
X21745417Y-10434500D01*
X21759769Y-10399852D01*
X21794417Y-10385500D01*
X22934583Y-10385500D01*
X22969231Y-10399852D01*
X23501572Y-10932193D01*
X23515924Y-10966841D01*
X23514255Y-10979520D01*
X23509500Y-10997270D01*
X23509500Y-11102730D01*
X23536792Y-11204585D01*
X23536793Y-11204589D01*
X23589520Y-11295913D01*
X23664087Y-11370480D01*
X23681233Y-11380379D01*
X23755410Y-11423206D01*
X23755412Y-11423206D01*
X23755413Y-11423207D01*
X23835747Y-11444732D01*
X23857269Y-11450499D01*
X23857270Y-11450500D01*
X23857273Y-11450500D01*
X23962730Y-11450500D01*
X23962730Y-11450499D01*
X24064587Y-11423207D01*
X24155913Y-11370480D01*
X24230480Y-11295913D01*
X24283207Y-11204587D01*
X24310499Y-11102730D01*
X24310500Y-11102730D01*
X24310500Y-10997270D01*
X24310499Y-10997269D01*
X24292346Y-10929520D01*
X24283207Y-10895413D01*
X24283206Y-10895412D01*
X24283206Y-10895410D01*
X24230479Y-10804086D01*
X24155913Y-10729520D01*
X24064589Y-10676793D01*
X24064585Y-10676792D01*
X23962730Y-10649500D01*
X23962727Y-10649500D01*
X23857273Y-10649500D01*
X23857271Y-10649500D01*
X23839520Y-10654255D01*
X23802338Y-10649358D01*
X23792193Y-10641572D01*
X23439769Y-10289148D01*
X23425417Y-10254500D01*
X23439769Y-10219852D01*
X23474417Y-10205500D01*
X23930875Y-10205500D01*
X23930877Y-10205500D01*
X23981645Y-10184471D01*
X24006406Y-10174215D01*
X24064215Y-10116406D01*
X24522466Y-9658153D01*
X24557113Y-9643802D01*
X24591761Y-9658154D01*
X24654087Y-9720480D01*
X24669998Y-9729666D01*
X24745410Y-9773206D01*
X24745412Y-9773206D01*
X24745413Y-9773207D01*
X24824880Y-9794500D01*
X24847269Y-9800499D01*
X24847270Y-9800500D01*
X24847273Y-9800500D01*
X24952730Y-9800500D01*
X24952730Y-9800499D01*
X25054587Y-9773207D01*
X25145913Y-9720480D01*
X25220480Y-9645913D01*
X25273207Y-9554587D01*
X25300499Y-9452730D01*
X25300500Y-9452730D01*
X25300500Y-9347270D01*
X25300499Y-9347269D01*
X25273207Y-9245414D01*
X25273206Y-9245410D01*
X25220479Y-9154086D01*
X25145913Y-9079520D01*
X25054589Y-9026793D01*
X25054585Y-9026792D01*
X24952730Y-8999500D01*
X24952727Y-8999500D01*
X24847273Y-8999500D01*
X24847272Y-8999500D01*
X24799988Y-9012168D01*
X24768557Y-9010107D01*
X24730880Y-8994501D01*
X24730878Y-8994500D01*
X24730877Y-8994500D01*
X24649123Y-8994500D01*
X24649121Y-8994500D01*
X24573591Y-9025787D01*
X24573590Y-9025787D01*
X23819231Y-9780148D01*
X23784583Y-9794500D01*
X23361397Y-9794500D01*
X23326749Y-9780148D01*
X23272386Y-9725785D01*
X23213592Y-9701432D01*
X23196858Y-9694500D01*
X23196857Y-9694500D01*
X23196856Y-9694500D01*
X18677298Y-9694500D01*
X18642650Y-9680148D01*
X18628298Y-9645500D01*
X18634862Y-9621001D01*
X18673207Y-9554587D01*
X18700499Y-9452730D01*
X18700500Y-9452730D01*
X18700500Y-9347270D01*
X18700499Y-9347269D01*
X18673207Y-9245414D01*
X18673206Y-9245410D01*
X18620479Y-9154086D01*
X18545913Y-9079520D01*
X18454589Y-9026793D01*
X18454585Y-9026792D01*
X18352730Y-8999500D01*
X18352727Y-8999500D01*
X18247273Y-8999500D01*
X18247270Y-8999500D01*
X18145414Y-9026792D01*
X18145410Y-9026793D01*
X18054086Y-9079520D01*
X18054086Y-9079521D01*
X17979521Y-9154086D01*
X17979520Y-9154086D01*
X17926793Y-9245410D01*
X17926792Y-9245414D01*
X17899500Y-9347269D01*
X17899500Y-9365500D01*
X17885148Y-9400148D01*
X17850500Y-9414500D01*
X14557273Y-9414500D01*
X14522625Y-9400148D01*
X14101625Y-8979148D01*
X14087273Y-8944500D01*
X14101625Y-8909852D01*
X14136273Y-8895500D01*
X20673362Y-8895500D01*
X20708010Y-8909852D01*
X20720692Y-8931818D01*
X20726792Y-8954586D01*
X20726793Y-8954589D01*
X20768481Y-9026793D01*
X20779520Y-9045913D01*
X20854087Y-9120480D01*
X20887513Y-9139778D01*
X20945410Y-9173206D01*
X20945412Y-9173206D01*
X20945413Y-9173207D01*
X21025747Y-9194732D01*
X21047269Y-9200499D01*
X21047270Y-9200500D01*
X21047273Y-9200500D01*
X21152730Y-9200500D01*
X21152730Y-9200499D01*
X21254587Y-9173207D01*
X21345913Y-9120480D01*
X21420480Y-9045913D01*
X21473207Y-8954587D01*
X21500499Y-8852730D01*
X21500500Y-8852730D01*
X21500500Y-8747270D01*
X21500499Y-8747269D01*
X21473207Y-8645414D01*
X21473206Y-8645410D01*
X21420479Y-8554086D01*
X21350541Y-8484148D01*
X21336189Y-8449500D01*
X21350541Y-8414852D01*
X21385189Y-8400500D01*
X31550500Y-8400500D01*
X31585148Y-8414852D01*
G37*
G04 #@! TD.AperFunction*
G04 #@! TA.AperFunction,Conductor*
G36*
X10083474Y-8403771D02*
G01*
X10092015Y-8403339D01*
X10100127Y-8410669D01*
X10110225Y-8414852D01*
X10113496Y-8422750D01*
X10119841Y-8428483D01*
X10120393Y-8439401D01*
X10124577Y-8449500D01*
X10121305Y-8457397D01*
X10121738Y-8465938D01*
X10114407Y-8474050D01*
X10110225Y-8484148D01*
X10097752Y-8492482D01*
X10096594Y-8493764D01*
X10095483Y-8494291D01*
X10087838Y-8497458D01*
X10043594Y-8515785D01*
X10043593Y-8515786D01*
X10037607Y-8521771D01*
X10037606Y-8521772D01*
X9706652Y-8852727D01*
X9388094Y-9171285D01*
X9358880Y-9200499D01*
X9330285Y-9229094D01*
X9299001Y-9304620D01*
X9299000Y-9304626D01*
X9299000Y-9425299D01*
X9284648Y-9459947D01*
X9250000Y-9474299D01*
X9225500Y-9467734D01*
X9154589Y-9426793D01*
X9154585Y-9426792D01*
X9052730Y-9399500D01*
X9052727Y-9399500D01*
X8947273Y-9399500D01*
X8947270Y-9399500D01*
X8845414Y-9426792D01*
X8845410Y-9426793D01*
X8754086Y-9479520D01*
X8754086Y-9479521D01*
X8679521Y-9554086D01*
X8679520Y-9554086D01*
X8626793Y-9645410D01*
X8626792Y-9645414D01*
X8599500Y-9747269D01*
X8599500Y-9852730D01*
X8627624Y-9957689D01*
X8626914Y-9957878D01*
X8629500Y-9970868D01*
X8629500Y-10119812D01*
X8615148Y-10154460D01*
X8597899Y-10163690D01*
X8598536Y-10165227D01*
X8594076Y-10167073D01*
X8550912Y-10195914D01*
X8522072Y-10239077D01*
X8522071Y-10239080D01*
X8514500Y-10277147D01*
X8514500Y-10482850D01*
X8514501Y-10482854D01*
X8522071Y-10520919D01*
X8522072Y-10520920D01*
X8526655Y-10527781D01*
X8533968Y-10564564D01*
X8526655Y-10582219D01*
X8522071Y-10589079D01*
X8519053Y-10604255D01*
X8514571Y-10626792D01*
X8514500Y-10627147D01*
X8514500Y-10832850D01*
X8514501Y-10832854D01*
X8522071Y-10870919D01*
X8522072Y-10870920D01*
X8526655Y-10877781D01*
X8533968Y-10914564D01*
X8526655Y-10932219D01*
X8522071Y-10939079D01*
X8519462Y-10952198D01*
X8516550Y-10966841D01*
X8514500Y-10977147D01*
X8514500Y-11182850D01*
X8514501Y-11182854D01*
X8522071Y-11220919D01*
X8522072Y-11220920D01*
X8526655Y-11227781D01*
X8533968Y-11264564D01*
X8526655Y-11282219D01*
X8522071Y-11289079D01*
X8514500Y-11327147D01*
X8514500Y-11532850D01*
X8514501Y-11532854D01*
X8522071Y-11570919D01*
X8522072Y-11570920D01*
X8526655Y-11577781D01*
X8533968Y-11614564D01*
X8526655Y-11632219D01*
X8522071Y-11639079D01*
X8520811Y-11645414D01*
X8515284Y-11673207D01*
X8514500Y-11677147D01*
X8514500Y-11882850D01*
X8514501Y-11882854D01*
X8522071Y-11920919D01*
X8523414Y-11922929D01*
X8526655Y-11927781D01*
X8533968Y-11964564D01*
X8526655Y-11982219D01*
X8522071Y-11989079D01*
X8522071Y-11989081D01*
X8514845Y-12025414D01*
X8514500Y-12027147D01*
X8514500Y-12232850D01*
X8514501Y-12232854D01*
X8522071Y-12270919D01*
X8522072Y-12270920D01*
X8526655Y-12277781D01*
X8533968Y-12314564D01*
X8526655Y-12332219D01*
X8522071Y-12339079D01*
X8522071Y-12339081D01*
X8515084Y-12374213D01*
X8514500Y-12377147D01*
X8514500Y-12582850D01*
X8514501Y-12582854D01*
X8522071Y-12620919D01*
X8522072Y-12620920D01*
X8526655Y-12627781D01*
X8533968Y-12664564D01*
X8526655Y-12682219D01*
X8522071Y-12689079D01*
X8514500Y-12727147D01*
X8514500Y-12932850D01*
X8514501Y-12932854D01*
X8522071Y-12970919D01*
X8522072Y-12970920D01*
X8526655Y-12977781D01*
X8533968Y-13014564D01*
X8526655Y-13032219D01*
X8522071Y-13039079D01*
X8514500Y-13077147D01*
X8514500Y-13282850D01*
X8514501Y-13282854D01*
X8522071Y-13320919D01*
X8522073Y-13320923D01*
X8550914Y-13364087D01*
X8594077Y-13392927D01*
X8594079Y-13392927D01*
X8594081Y-13392929D01*
X8632145Y-13400500D01*
X9147854Y-13400499D01*
X9178892Y-13394326D01*
X9215672Y-13401644D01*
X9223096Y-13407737D01*
X9870148Y-14054789D01*
X9884500Y-14089437D01*
X9884500Y-14869127D01*
X9888401Y-14878542D01*
X9888798Y-14879500D01*
X9915785Y-14944654D01*
X9915786Y-14944655D01*
X10172537Y-15201406D01*
X10230346Y-15259215D01*
X10274590Y-15277541D01*
X10305875Y-15290500D01*
X10305876Y-15290500D01*
X10353191Y-15290500D01*
X10357487Y-15291271D01*
X10369879Y-15299218D01*
X10383479Y-15304852D01*
X10385221Y-15309058D01*
X10389055Y-15311517D01*
X10392197Y-15325899D01*
X10397831Y-15339500D01*
X10396088Y-15343707D01*
X10397060Y-15348156D01*
X10389112Y-15360548D01*
X10383479Y-15374148D01*
X10251702Y-15505924D01*
X10251701Y-15505924D01*
X10251702Y-15505925D01*
X10200782Y-15556845D01*
X10198102Y-15560856D01*
X10197573Y-15560502D01*
X10191415Y-15569714D01*
X10110982Y-15650148D01*
X10076336Y-15664500D01*
X9893665Y-15664500D01*
X9859017Y-15650148D01*
X9729852Y-15520983D01*
X9715500Y-15486335D01*
X9715500Y-14179124D01*
X9715499Y-14179121D01*
X9710392Y-14166792D01*
X9710391Y-14166791D01*
X9686286Y-14108594D01*
X9684215Y-14103594D01*
X9626406Y-14045785D01*
X9281407Y-13700786D01*
X9281406Y-13700785D01*
X9237162Y-13682458D01*
X9237161Y-13682457D01*
X9205877Y-13669500D01*
X9205876Y-13669500D01*
X9201530Y-13669500D01*
X9190782Y-13667361D01*
X9190653Y-13668013D01*
X9185919Y-13667071D01*
X9147855Y-13659500D01*
X9147852Y-13659500D01*
X8632149Y-13659500D01*
X8632148Y-13659500D01*
X8632146Y-13659501D01*
X8617383Y-13662437D01*
X8594080Y-13667071D01*
X8594076Y-13667073D01*
X8550912Y-13695914D01*
X8522072Y-13739077D01*
X8522071Y-13739080D01*
X8514500Y-13777147D01*
X8514500Y-13982850D01*
X8514501Y-13982854D01*
X8522071Y-14020919D01*
X8522072Y-14020920D01*
X8526655Y-14027781D01*
X8533968Y-14064564D01*
X8532570Y-14069962D01*
X8530470Y-14076509D01*
X8522071Y-14089081D01*
X8514934Y-14124959D01*
X8514081Y-14127622D01*
X8510046Y-14132382D01*
X8502070Y-14147307D01*
X8484149Y-14165229D01*
X8449501Y-14179582D01*
X8414853Y-14165231D01*
X8400500Y-14130583D01*
X8400500Y-8449500D01*
X8414852Y-8414852D01*
X8449500Y-8400500D01*
X10075577Y-8400500D01*
X10083474Y-8403771D01*
G37*
G04 #@! TD.AperFunction*
G04 #@! TD*
G04 #@! TA.AperFunction,Conductor*
G04 #@! TO.N,Board_3-GND*
G36*
X31585148Y-40214852D02*
G01*
X31599500Y-40249500D01*
X31599500Y-47950500D01*
X31585148Y-47985148D01*
X31550500Y-47999500D01*
X11205189Y-47999500D01*
X11170541Y-47985148D01*
X11156189Y-47950500D01*
X11169234Y-47919006D01*
X11168524Y-47918462D01*
X11170475Y-47915917D01*
X11170480Y-47915913D01*
X11223207Y-47824587D01*
X11250499Y-47722730D01*
X11250500Y-47722730D01*
X11250500Y-47699500D01*
X11264852Y-47664852D01*
X11299500Y-47650500D01*
X25595875Y-47650500D01*
X25595877Y-47650500D01*
X25627162Y-47637541D01*
X25671406Y-47619215D01*
X25729215Y-47561406D01*
X25782195Y-47508424D01*
X25816840Y-47494074D01*
X25829522Y-47495743D01*
X25839733Y-47498479D01*
X25847272Y-47500500D01*
X25847273Y-47500500D01*
X25952730Y-47500500D01*
X25952730Y-47500499D01*
X26054587Y-47473207D01*
X26145913Y-47420480D01*
X26220480Y-47345913D01*
X26273207Y-47254587D01*
X26300499Y-47152730D01*
X26300500Y-47152730D01*
X26300500Y-47047270D01*
X26300499Y-47047269D01*
X26277883Y-46962864D01*
X26273207Y-46945413D01*
X26249296Y-46903999D01*
X26247627Y-46891318D01*
X26242732Y-46879500D01*
X26245266Y-46873382D01*
X26244402Y-46866818D01*
X26252188Y-46856670D01*
X26257084Y-46844852D01*
X26263201Y-46842318D01*
X26267232Y-46837065D01*
X26291732Y-46830500D01*
X26319583Y-46830500D01*
X26354231Y-46844852D01*
X26391572Y-46882193D01*
X26405924Y-46916841D01*
X26404255Y-46929520D01*
X26399500Y-46947270D01*
X26399500Y-47052730D01*
X26426792Y-47154585D01*
X26426793Y-47154589D01*
X26468481Y-47226793D01*
X26479520Y-47245913D01*
X26554087Y-47320480D01*
X26584618Y-47338107D01*
X26645410Y-47373206D01*
X26645412Y-47373206D01*
X26645413Y-47373207D01*
X26651243Y-47374769D01*
X26747269Y-47400499D01*
X26747270Y-47400500D01*
X26747273Y-47400500D01*
X26852730Y-47400500D01*
X26852730Y-47400499D01*
X26954587Y-47373207D01*
X27045913Y-47320480D01*
X27120480Y-47245913D01*
X27166142Y-47166823D01*
X27173206Y-47154589D01*
X27173206Y-47154588D01*
X27173207Y-47154587D01*
X27200499Y-47052730D01*
X27200500Y-47052730D01*
X27200500Y-46947270D01*
X27200499Y-46947269D01*
X27175531Y-46854087D01*
X27173207Y-46845413D01*
X27173206Y-46845412D01*
X27173206Y-46845410D01*
X27120479Y-46754086D01*
X27045913Y-46679520D01*
X26954589Y-46626793D01*
X26954585Y-46626792D01*
X26852730Y-46599500D01*
X26852727Y-46599500D01*
X26747273Y-46599500D01*
X26747271Y-46599500D01*
X26729520Y-46604255D01*
X26692338Y-46599358D01*
X26682193Y-46591572D01*
X26541406Y-46450785D01*
X26533857Y-46447658D01*
X26497162Y-46432458D01*
X26497161Y-46432457D01*
X26465877Y-46419500D01*
X26465876Y-46419500D01*
X25744125Y-46419500D01*
X25662371Y-46419500D01*
X25631086Y-46432457D01*
X25631086Y-46432458D01*
X25608964Y-46441621D01*
X25586841Y-46450785D01*
X25586841Y-46450786D01*
X25092479Y-46945148D01*
X25057831Y-46959500D01*
X23719417Y-46959500D01*
X23684769Y-46945148D01*
X23670417Y-46910500D01*
X23684767Y-46875853D01*
X23812195Y-46748424D01*
X23846841Y-46734074D01*
X23859522Y-46735743D01*
X23869733Y-46738479D01*
X23877272Y-46740500D01*
X23877273Y-46740500D01*
X23982730Y-46740500D01*
X23982730Y-46740499D01*
X24084587Y-46713207D01*
X24175913Y-46660480D01*
X24250480Y-46585913D01*
X24303207Y-46494587D01*
X24330499Y-46392730D01*
X24330500Y-46392730D01*
X24330500Y-46287270D01*
X24330499Y-46287269D01*
X24303207Y-46185414D01*
X24303206Y-46185410D01*
X24250479Y-46094086D01*
X24175913Y-46019520D01*
X24084589Y-45966793D01*
X24084585Y-45966792D01*
X23982730Y-45939500D01*
X23982727Y-45939500D01*
X23877273Y-45939500D01*
X23877270Y-45939500D01*
X23775414Y-45966792D01*
X23775410Y-45966793D01*
X23684086Y-46019520D01*
X23684086Y-46019521D01*
X23609521Y-46094086D01*
X23609520Y-46094086D01*
X23556793Y-46185410D01*
X23556792Y-46185414D01*
X23529500Y-46287269D01*
X23529500Y-46392727D01*
X23534255Y-46410476D01*
X23529358Y-46447658D01*
X23521572Y-46457805D01*
X23314231Y-46665148D01*
X23279583Y-46679500D01*
X12485959Y-46679500D01*
X12451311Y-46665148D01*
X12436959Y-46630500D01*
X12443524Y-46606000D01*
X12473206Y-46554589D01*
X12473206Y-46554588D01*
X12473207Y-46554587D01*
X12500499Y-46452730D01*
X12500500Y-46452730D01*
X12500500Y-46347270D01*
X12500499Y-46347269D01*
X12473207Y-46245414D01*
X12473206Y-46245410D01*
X12420479Y-46154086D01*
X12345913Y-46079520D01*
X12254589Y-46026793D01*
X12254585Y-46026792D01*
X12152730Y-45999500D01*
X12152727Y-45999500D01*
X12047273Y-45999500D01*
X12047270Y-45999500D01*
X12018771Y-46007136D01*
X11981589Y-46002241D01*
X11958759Y-45972488D01*
X11963654Y-45935306D01*
X11971437Y-45925162D01*
X12611748Y-45284852D01*
X12646396Y-45270500D01*
X26659583Y-45270500D01*
X26694231Y-45284852D01*
X28291572Y-46882193D01*
X28305924Y-46916841D01*
X28304255Y-46929520D01*
X28299500Y-46947270D01*
X28299500Y-47052730D01*
X28326792Y-47154585D01*
X28326793Y-47154589D01*
X28368481Y-47226793D01*
X28379520Y-47245913D01*
X28454087Y-47320480D01*
X28484618Y-47338107D01*
X28545410Y-47373206D01*
X28545412Y-47373206D01*
X28545413Y-47373207D01*
X28551243Y-47374769D01*
X28647269Y-47400499D01*
X28647270Y-47400500D01*
X28647273Y-47400500D01*
X28752730Y-47400500D01*
X28752730Y-47400499D01*
X28854587Y-47373207D01*
X28945913Y-47320480D01*
X29020480Y-47245913D01*
X29066142Y-47166823D01*
X29073206Y-47154589D01*
X29073206Y-47154588D01*
X29073207Y-47154587D01*
X29100499Y-47052730D01*
X29100500Y-47052730D01*
X29100500Y-46947270D01*
X29100499Y-46947269D01*
X29075531Y-46854087D01*
X29073207Y-46845413D01*
X29073206Y-46845412D01*
X29073206Y-46845410D01*
X29020479Y-46754086D01*
X28945913Y-46679520D01*
X28854589Y-46626793D01*
X28854585Y-46626792D01*
X28752730Y-46599500D01*
X28752727Y-46599500D01*
X28647273Y-46599500D01*
X28647271Y-46599500D01*
X28629520Y-46604255D01*
X28592338Y-46599358D01*
X28582193Y-46591572D01*
X26965269Y-44974648D01*
X26950917Y-44940000D01*
X26965269Y-44905352D01*
X28874214Y-42996407D01*
X28874215Y-42996406D01*
X28905500Y-42920876D01*
X28905500Y-41572102D01*
X28919852Y-41537454D01*
X28930002Y-41529666D01*
X28945913Y-41520480D01*
X29020480Y-41445913D01*
X29073207Y-41354587D01*
X29100499Y-41252730D01*
X29100500Y-41252730D01*
X29100500Y-41147270D01*
X29100499Y-41147269D01*
X29073207Y-41045414D01*
X29073206Y-41045410D01*
X29020479Y-40954086D01*
X28945913Y-40879520D01*
X28854589Y-40826793D01*
X28854585Y-40826792D01*
X28752730Y-40799500D01*
X28752727Y-40799500D01*
X28647273Y-40799500D01*
X28647270Y-40799500D01*
X28545414Y-40826792D01*
X28545410Y-40826793D01*
X28454086Y-40879520D01*
X28454086Y-40879521D01*
X28379521Y-40954086D01*
X28379520Y-40954086D01*
X28326793Y-41045410D01*
X28326792Y-41045414D01*
X28299500Y-41147269D01*
X28299500Y-41252730D01*
X28326792Y-41354585D01*
X28326793Y-41354589D01*
X28365136Y-41421000D01*
X28379520Y-41445913D01*
X28454087Y-41520480D01*
X28454090Y-41520481D01*
X28454093Y-41520484D01*
X28469998Y-41529666D01*
X28492830Y-41559418D01*
X28494500Y-41572102D01*
X28494500Y-42774583D01*
X28480148Y-42809231D01*
X26724231Y-44565148D01*
X26689583Y-44579500D01*
X12384121Y-44579500D01*
X12372960Y-44584124D01*
X12308593Y-44610785D01*
X12289191Y-44630188D01*
X12250785Y-44668594D01*
X11579231Y-45340148D01*
X11544583Y-45354500D01*
X11189603Y-45354500D01*
X11167481Y-45363662D01*
X11167481Y-45363663D01*
X11140777Y-45374724D01*
X11114073Y-45385785D01*
X11085169Y-45414689D01*
X11056265Y-45443594D01*
X11056264Y-45443595D01*
X11052278Y-45447580D01*
X11046846Y-45453012D01*
X11024084Y-45462437D01*
X11012198Y-45467360D01*
X11012196Y-45467359D01*
X11012196Y-45467360D01*
X11012195Y-45467359D01*
X11002643Y-45466419D01*
X10982621Y-45462437D01*
X10967855Y-45459500D01*
X10967853Y-45459500D01*
X10452149Y-45459500D01*
X10452148Y-45459500D01*
X10452146Y-45459501D01*
X10437383Y-45462437D01*
X10414080Y-45467071D01*
X10414076Y-45467073D01*
X10370912Y-45495914D01*
X10342072Y-45539077D01*
X10342071Y-45539080D01*
X10342071Y-45539081D01*
X10334500Y-45577145D01*
X10334500Y-45577147D01*
X10334500Y-45577148D01*
X10334500Y-45619601D01*
X10320149Y-45654250D01*
X10285501Y-45668602D01*
X10285500Y-45668601D01*
X10285500Y-45668602D01*
X10250852Y-45654251D01*
X10250851Y-45654250D01*
X10206406Y-45609805D01*
X9510749Y-44914148D01*
X9496397Y-44879500D01*
X9510749Y-44844852D01*
X9545397Y-44830500D01*
X9695875Y-44830500D01*
X9695877Y-44830500D01*
X9727162Y-44817541D01*
X9771406Y-44799215D01*
X9812194Y-44758426D01*
X9846841Y-44744074D01*
X9859521Y-44745743D01*
X9871981Y-44749082D01*
X9877272Y-44750500D01*
X9877273Y-44750500D01*
X9982730Y-44750500D01*
X9982730Y-44750499D01*
X10084587Y-44723207D01*
X10175913Y-44670480D01*
X10250480Y-44595913D01*
X10250481Y-44595910D01*
X10250852Y-44595540D01*
X10285500Y-44581188D01*
X10320148Y-44595540D01*
X10334500Y-44630188D01*
X10334500Y-44732850D01*
X10334501Y-44732854D01*
X10342071Y-44770919D01*
X10342072Y-44770920D01*
X10346655Y-44777781D01*
X10353968Y-44814564D01*
X10346655Y-44832219D01*
X10342071Y-44839079D01*
X10334500Y-44877147D01*
X10334500Y-45082850D01*
X10334501Y-45082854D01*
X10342071Y-45120919D01*
X10342073Y-45120923D01*
X10370914Y-45164087D01*
X10414077Y-45192927D01*
X10414079Y-45192927D01*
X10414081Y-45192929D01*
X10452145Y-45200500D01*
X10639330Y-45200499D01*
X10658080Y-45204228D01*
X10661151Y-45205500D01*
X10661153Y-45205500D01*
X10752848Y-45205500D01*
X10752849Y-45205500D01*
X10755915Y-45204229D01*
X10774669Y-45200499D01*
X10967851Y-45200499D01*
X10967854Y-45200499D01*
X11005919Y-45192929D01*
X11049086Y-45164086D01*
X11077929Y-45120919D01*
X11085500Y-45082855D01*
X11085500Y-45079501D01*
X11099852Y-45044853D01*
X11134500Y-45030501D01*
X11195849Y-45030501D01*
X11195850Y-45030501D01*
X11245476Y-45009944D01*
X11245604Y-45009890D01*
X11277148Y-45007787D01*
X11279378Y-45008384D01*
X11287271Y-45010500D01*
X11287273Y-45010500D01*
X11392730Y-45010500D01*
X11392730Y-45010499D01*
X11494587Y-44983207D01*
X11585913Y-44930480D01*
X11660480Y-44855913D01*
X11713207Y-44764587D01*
X11740499Y-44662730D01*
X11740500Y-44662730D01*
X11740500Y-44557270D01*
X11740499Y-44557269D01*
X11722228Y-44489079D01*
X11713207Y-44455413D01*
X11713206Y-44455412D01*
X11713206Y-44455410D01*
X11660479Y-44364086D01*
X11626041Y-44329648D01*
X11611689Y-44295000D01*
X11626041Y-44260352D01*
X11660479Y-44225914D01*
X11660480Y-44225913D01*
X11713207Y-44134587D01*
X11740499Y-44032730D01*
X11740500Y-44032730D01*
X11740500Y-43927270D01*
X11740499Y-43927269D01*
X11718700Y-43845913D01*
X11713207Y-43825413D01*
X11689296Y-43783999D01*
X11684402Y-43746818D01*
X11707232Y-43717065D01*
X11731732Y-43710500D01*
X15407831Y-43710500D01*
X15442479Y-43724852D01*
X15834033Y-44116406D01*
X15891842Y-44174215D01*
X15936086Y-44192541D01*
X15967371Y-44205500D01*
X15967372Y-44205500D01*
X15967373Y-44205500D01*
X18740875Y-44205500D01*
X18740877Y-44205500D01*
X18772162Y-44192541D01*
X18816406Y-44174215D01*
X18874215Y-44116406D01*
X18982195Y-44008424D01*
X19016841Y-43994074D01*
X19029522Y-43995743D01*
X19039733Y-43998479D01*
X19047272Y-44000500D01*
X19047273Y-44000500D01*
X19152730Y-44000500D01*
X19152730Y-44000499D01*
X19254587Y-43973207D01*
X19345913Y-43920480D01*
X19420480Y-43845913D01*
X19473207Y-43754587D01*
X19500499Y-43652730D01*
X19500500Y-43652730D01*
X19500500Y-43547270D01*
X19500499Y-43547269D01*
X19473207Y-43445414D01*
X19473206Y-43445410D01*
X19434160Y-43377781D01*
X19420480Y-43354087D01*
X19345913Y-43279520D01*
X19254589Y-43226793D01*
X19254585Y-43226792D01*
X19152730Y-43199500D01*
X19152727Y-43199500D01*
X19047273Y-43199500D01*
X19047270Y-43199500D01*
X18945414Y-43226792D01*
X18945410Y-43226793D01*
X18854086Y-43279520D01*
X18854086Y-43279521D01*
X18779521Y-43354086D01*
X18779520Y-43354086D01*
X18726793Y-43445410D01*
X18726792Y-43445414D01*
X18699500Y-43547269D01*
X18699500Y-43652727D01*
X18704255Y-43670476D01*
X18703390Y-43677039D01*
X18705924Y-43683156D01*
X18701028Y-43694976D01*
X18699358Y-43707658D01*
X18691572Y-43717805D01*
X18629230Y-43780148D01*
X18594584Y-43794500D01*
X16588845Y-43794500D01*
X16554197Y-43780148D01*
X16539845Y-43745500D01*
X16546409Y-43721002D01*
X16573207Y-43674587D01*
X16600499Y-43572730D01*
X16600500Y-43572730D01*
X16600500Y-43525030D01*
X16614852Y-43490382D01*
X16649500Y-43476030D01*
X16662179Y-43477699D01*
X16701382Y-43488203D01*
X16747271Y-43500500D01*
X16747273Y-43500500D01*
X16852730Y-43500500D01*
X16852730Y-43500499D01*
X16954587Y-43473207D01*
X17045913Y-43420480D01*
X17120480Y-43345913D01*
X17173207Y-43254587D01*
X17200499Y-43152730D01*
X17200500Y-43152730D01*
X17200500Y-43047270D01*
X17200499Y-43047269D01*
X17183238Y-42982850D01*
X17173207Y-42945413D01*
X17173206Y-42945412D01*
X17173206Y-42945410D01*
X17120479Y-42854086D01*
X17095541Y-42829148D01*
X17081189Y-42794500D01*
X17095541Y-42759852D01*
X17130189Y-42745500D01*
X19700500Y-42745500D01*
X19735148Y-42759852D01*
X19749500Y-42794500D01*
X19749500Y-42852730D01*
X19776792Y-42954585D01*
X19776793Y-42954589D01*
X19829520Y-43045913D01*
X19904087Y-43120480D01*
X19915633Y-43127146D01*
X19995410Y-43173206D01*
X19995412Y-43173206D01*
X19995413Y-43173207D01*
X20022180Y-43180379D01*
X20097269Y-43200499D01*
X20097270Y-43200500D01*
X20097273Y-43200500D01*
X20202730Y-43200500D01*
X20202730Y-43200499D01*
X20304587Y-43173207D01*
X20395913Y-43120480D01*
X20470480Y-43045913D01*
X20523207Y-42954587D01*
X20550499Y-42852730D01*
X20550500Y-42852730D01*
X20550500Y-42747270D01*
X20550499Y-42747269D01*
X20538422Y-42702198D01*
X20523207Y-42645413D01*
X20523206Y-42645412D01*
X20523206Y-42645410D01*
X20470479Y-42554086D01*
X20465541Y-42549148D01*
X20451189Y-42514500D01*
X20465541Y-42479852D01*
X20500189Y-42465500D01*
X21354583Y-42465500D01*
X21389231Y-42479852D01*
X21591572Y-42682193D01*
X21605924Y-42716841D01*
X21604255Y-42729520D01*
X21599500Y-42747270D01*
X21599500Y-42852730D01*
X21626792Y-42954585D01*
X21626793Y-42954589D01*
X21679520Y-43045913D01*
X21754087Y-43120480D01*
X21765633Y-43127146D01*
X21845410Y-43173206D01*
X21845412Y-43173206D01*
X21845413Y-43173207D01*
X21872180Y-43180379D01*
X21947269Y-43200499D01*
X21947270Y-43200500D01*
X21947273Y-43200500D01*
X22052730Y-43200500D01*
X22052730Y-43200499D01*
X22154587Y-43173207D01*
X22245913Y-43120480D01*
X22320480Y-43045913D01*
X22373207Y-42954587D01*
X22400499Y-42852730D01*
X22400500Y-42852730D01*
X22400500Y-42747270D01*
X22400499Y-42747269D01*
X22388422Y-42702198D01*
X22373207Y-42645413D01*
X22373206Y-42645412D01*
X22373206Y-42645410D01*
X22320479Y-42554086D01*
X22245913Y-42479520D01*
X22154589Y-42426793D01*
X22154585Y-42426792D01*
X22052730Y-42399500D01*
X22052727Y-42399500D01*
X21947273Y-42399500D01*
X21947271Y-42399500D01*
X21929520Y-42404255D01*
X21892338Y-42399358D01*
X21882193Y-42391572D01*
X21759769Y-42269148D01*
X21745417Y-42234500D01*
X21759769Y-42199852D01*
X21794417Y-42185500D01*
X22934583Y-42185500D01*
X22969231Y-42199852D01*
X23501572Y-42732193D01*
X23515924Y-42766841D01*
X23514255Y-42779520D01*
X23509500Y-42797270D01*
X23509500Y-42902730D01*
X23536792Y-43004585D01*
X23536793Y-43004589D01*
X23589520Y-43095913D01*
X23664087Y-43170480D01*
X23681233Y-43180379D01*
X23755410Y-43223206D01*
X23755412Y-43223206D01*
X23755413Y-43223207D01*
X23835747Y-43244732D01*
X23857269Y-43250499D01*
X23857270Y-43250500D01*
X23857273Y-43250500D01*
X23962730Y-43250500D01*
X23962730Y-43250499D01*
X24064587Y-43223207D01*
X24155913Y-43170480D01*
X24230480Y-43095913D01*
X24283207Y-43004587D01*
X24310499Y-42902730D01*
X24310500Y-42902730D01*
X24310500Y-42797270D01*
X24310499Y-42797269D01*
X24292346Y-42729520D01*
X24283207Y-42695413D01*
X24283206Y-42695412D01*
X24283206Y-42695410D01*
X24230479Y-42604086D01*
X24155913Y-42529520D01*
X24064589Y-42476793D01*
X24064585Y-42476792D01*
X23962730Y-42449500D01*
X23962727Y-42449500D01*
X23857273Y-42449500D01*
X23857271Y-42449500D01*
X23839520Y-42454255D01*
X23802338Y-42449358D01*
X23792193Y-42441572D01*
X23439769Y-42089148D01*
X23425417Y-42054500D01*
X23439769Y-42019852D01*
X23474417Y-42005500D01*
X23930875Y-42005500D01*
X23930877Y-42005500D01*
X23981645Y-41984471D01*
X24006406Y-41974215D01*
X24064215Y-41916406D01*
X24522466Y-41458153D01*
X24557113Y-41443802D01*
X24591761Y-41458154D01*
X24654087Y-41520480D01*
X24669998Y-41529666D01*
X24745410Y-41573206D01*
X24745412Y-41573206D01*
X24745413Y-41573207D01*
X24824880Y-41594500D01*
X24847269Y-41600499D01*
X24847270Y-41600500D01*
X24847273Y-41600500D01*
X24952730Y-41600500D01*
X24952730Y-41600499D01*
X25054587Y-41573207D01*
X25145913Y-41520480D01*
X25220480Y-41445913D01*
X25273207Y-41354587D01*
X25300499Y-41252730D01*
X25300500Y-41252730D01*
X25300500Y-41147270D01*
X25300499Y-41147269D01*
X25273207Y-41045414D01*
X25273206Y-41045410D01*
X25220479Y-40954086D01*
X25145913Y-40879520D01*
X25054589Y-40826793D01*
X25054585Y-40826792D01*
X24952730Y-40799500D01*
X24952727Y-40799500D01*
X24847273Y-40799500D01*
X24847272Y-40799500D01*
X24799988Y-40812168D01*
X24768557Y-40810107D01*
X24730880Y-40794501D01*
X24730878Y-40794500D01*
X24730877Y-40794500D01*
X24649123Y-40794500D01*
X24649121Y-40794500D01*
X24573591Y-40825787D01*
X24573590Y-40825787D01*
X23819231Y-41580148D01*
X23784583Y-41594500D01*
X23361397Y-41594500D01*
X23326749Y-41580148D01*
X23272386Y-41525785D01*
X23213592Y-41501432D01*
X23196858Y-41494500D01*
X23196857Y-41494500D01*
X23196856Y-41494500D01*
X18677298Y-41494500D01*
X18642650Y-41480148D01*
X18628298Y-41445500D01*
X18634862Y-41421001D01*
X18673207Y-41354587D01*
X18700499Y-41252730D01*
X18700500Y-41252730D01*
X18700500Y-41147270D01*
X18700499Y-41147269D01*
X18673207Y-41045414D01*
X18673206Y-41045410D01*
X18620479Y-40954086D01*
X18545913Y-40879520D01*
X18454589Y-40826793D01*
X18454585Y-40826792D01*
X18352730Y-40799500D01*
X18352727Y-40799500D01*
X18247273Y-40799500D01*
X18247270Y-40799500D01*
X18145414Y-40826792D01*
X18145410Y-40826793D01*
X18054086Y-40879520D01*
X18054086Y-40879521D01*
X17979521Y-40954086D01*
X17979520Y-40954086D01*
X17926793Y-41045410D01*
X17926792Y-41045414D01*
X17899500Y-41147269D01*
X17899500Y-41165500D01*
X17885148Y-41200148D01*
X17850500Y-41214500D01*
X14557273Y-41214500D01*
X14522625Y-41200148D01*
X14101625Y-40779148D01*
X14087273Y-40744500D01*
X14101625Y-40709852D01*
X14136273Y-40695500D01*
X20673362Y-40695500D01*
X20708010Y-40709852D01*
X20720692Y-40731818D01*
X20726792Y-40754586D01*
X20726793Y-40754589D01*
X20768481Y-40826793D01*
X20779520Y-40845913D01*
X20854087Y-40920480D01*
X20887513Y-40939778D01*
X20945410Y-40973206D01*
X20945412Y-40973206D01*
X20945413Y-40973207D01*
X21025747Y-40994732D01*
X21047269Y-41000499D01*
X21047270Y-41000500D01*
X21047273Y-41000500D01*
X21152730Y-41000500D01*
X21152730Y-41000499D01*
X21254587Y-40973207D01*
X21345913Y-40920480D01*
X21420480Y-40845913D01*
X21473207Y-40754587D01*
X21500499Y-40652730D01*
X21500500Y-40652730D01*
X21500500Y-40547270D01*
X21500499Y-40547269D01*
X21473207Y-40445414D01*
X21473206Y-40445410D01*
X21420479Y-40354086D01*
X21350541Y-40284148D01*
X21336189Y-40249500D01*
X21350541Y-40214852D01*
X21385189Y-40200500D01*
X31550500Y-40200500D01*
X31585148Y-40214852D01*
G37*
G04 #@! TD.AperFunction*
G04 #@! TA.AperFunction,Conductor*
G36*
X10083474Y-40203771D02*
G01*
X10092015Y-40203339D01*
X10100127Y-40210669D01*
X10110225Y-40214852D01*
X10113496Y-40222750D01*
X10119841Y-40228483D01*
X10120393Y-40239401D01*
X10124577Y-40249500D01*
X10121305Y-40257397D01*
X10121738Y-40265938D01*
X10114407Y-40274050D01*
X10110225Y-40284148D01*
X10097752Y-40292482D01*
X10096594Y-40293764D01*
X10095483Y-40294291D01*
X10087838Y-40297458D01*
X10043594Y-40315785D01*
X10043593Y-40315786D01*
X10037607Y-40321771D01*
X10037606Y-40321772D01*
X9706652Y-40652727D01*
X9388094Y-40971285D01*
X9358880Y-41000499D01*
X9330285Y-41029094D01*
X9299001Y-41104620D01*
X9299000Y-41104626D01*
X9299000Y-41225299D01*
X9284648Y-41259947D01*
X9250000Y-41274299D01*
X9225500Y-41267734D01*
X9154589Y-41226793D01*
X9154585Y-41226792D01*
X9052730Y-41199500D01*
X9052727Y-41199500D01*
X8947273Y-41199500D01*
X8947270Y-41199500D01*
X8845414Y-41226792D01*
X8845410Y-41226793D01*
X8754086Y-41279520D01*
X8754086Y-41279521D01*
X8679521Y-41354086D01*
X8679520Y-41354086D01*
X8626793Y-41445410D01*
X8626792Y-41445414D01*
X8599500Y-41547269D01*
X8599500Y-41652730D01*
X8627624Y-41757689D01*
X8626914Y-41757878D01*
X8629500Y-41770868D01*
X8629500Y-41919812D01*
X8615148Y-41954460D01*
X8597899Y-41963690D01*
X8598536Y-41965227D01*
X8594076Y-41967073D01*
X8550912Y-41995914D01*
X8522072Y-42039077D01*
X8522071Y-42039080D01*
X8514500Y-42077147D01*
X8514500Y-42282850D01*
X8514501Y-42282854D01*
X8522071Y-42320919D01*
X8522072Y-42320920D01*
X8526655Y-42327781D01*
X8533968Y-42364564D01*
X8526655Y-42382219D01*
X8522071Y-42389079D01*
X8519053Y-42404255D01*
X8514571Y-42426792D01*
X8514500Y-42427147D01*
X8514500Y-42632850D01*
X8514501Y-42632854D01*
X8522071Y-42670919D01*
X8522072Y-42670920D01*
X8526655Y-42677781D01*
X8533968Y-42714564D01*
X8526655Y-42732219D01*
X8522071Y-42739079D01*
X8519462Y-42752198D01*
X8516550Y-42766841D01*
X8514500Y-42777147D01*
X8514500Y-42982850D01*
X8514501Y-42982854D01*
X8522071Y-43020919D01*
X8522072Y-43020920D01*
X8526655Y-43027781D01*
X8533968Y-43064564D01*
X8526655Y-43082219D01*
X8522071Y-43089079D01*
X8514500Y-43127147D01*
X8514500Y-43332850D01*
X8514501Y-43332854D01*
X8522071Y-43370919D01*
X8522072Y-43370920D01*
X8526655Y-43377781D01*
X8533968Y-43414564D01*
X8526655Y-43432219D01*
X8522071Y-43439079D01*
X8520811Y-43445414D01*
X8515284Y-43473207D01*
X8514500Y-43477147D01*
X8514500Y-43682850D01*
X8514501Y-43682854D01*
X8522071Y-43720919D01*
X8523414Y-43722929D01*
X8526655Y-43727781D01*
X8533968Y-43764564D01*
X8526655Y-43782219D01*
X8522071Y-43789079D01*
X8522071Y-43789081D01*
X8514845Y-43825414D01*
X8514500Y-43827147D01*
X8514500Y-44032850D01*
X8514501Y-44032854D01*
X8522071Y-44070919D01*
X8522072Y-44070920D01*
X8526655Y-44077781D01*
X8533968Y-44114564D01*
X8526655Y-44132219D01*
X8522071Y-44139079D01*
X8522071Y-44139081D01*
X8515084Y-44174213D01*
X8514500Y-44177147D01*
X8514500Y-44382850D01*
X8514501Y-44382854D01*
X8522071Y-44420919D01*
X8522072Y-44420920D01*
X8526655Y-44427781D01*
X8533968Y-44464564D01*
X8526655Y-44482219D01*
X8522071Y-44489079D01*
X8514500Y-44527147D01*
X8514500Y-44732850D01*
X8514501Y-44732854D01*
X8522071Y-44770919D01*
X8522072Y-44770920D01*
X8526655Y-44777781D01*
X8533968Y-44814564D01*
X8526655Y-44832219D01*
X8522071Y-44839079D01*
X8514500Y-44877147D01*
X8514500Y-45082850D01*
X8514501Y-45082854D01*
X8522071Y-45120919D01*
X8522073Y-45120923D01*
X8550914Y-45164087D01*
X8594077Y-45192927D01*
X8594079Y-45192927D01*
X8594081Y-45192929D01*
X8632145Y-45200500D01*
X9147854Y-45200499D01*
X9178892Y-45194326D01*
X9215672Y-45201644D01*
X9223096Y-45207737D01*
X9870148Y-45854789D01*
X9884500Y-45889437D01*
X9884500Y-46669127D01*
X9888401Y-46678542D01*
X9888798Y-46679500D01*
X9915785Y-46744654D01*
X9915786Y-46744655D01*
X10172537Y-47001406D01*
X10230346Y-47059215D01*
X10274590Y-47077541D01*
X10305875Y-47090500D01*
X10305876Y-47090500D01*
X10353191Y-47090500D01*
X10357487Y-47091271D01*
X10369879Y-47099218D01*
X10383479Y-47104852D01*
X10385221Y-47109058D01*
X10389055Y-47111517D01*
X10392197Y-47125899D01*
X10397831Y-47139500D01*
X10396088Y-47143707D01*
X10397060Y-47148156D01*
X10389112Y-47160548D01*
X10383479Y-47174148D01*
X10251702Y-47305924D01*
X10251701Y-47305924D01*
X10251702Y-47305925D01*
X10200782Y-47356845D01*
X10198102Y-47360856D01*
X10197573Y-47360502D01*
X10191415Y-47369714D01*
X10110982Y-47450148D01*
X10076336Y-47464500D01*
X9893665Y-47464500D01*
X9859017Y-47450148D01*
X9729852Y-47320983D01*
X9715500Y-47286335D01*
X9715500Y-45979124D01*
X9715499Y-45979121D01*
X9710392Y-45966792D01*
X9710391Y-45966791D01*
X9686286Y-45908594D01*
X9684215Y-45903594D01*
X9626406Y-45845785D01*
X9281407Y-45500786D01*
X9281406Y-45500785D01*
X9237162Y-45482458D01*
X9237161Y-45482457D01*
X9205877Y-45469500D01*
X9205876Y-45469500D01*
X9201530Y-45469500D01*
X9190782Y-45467361D01*
X9190653Y-45468013D01*
X9185919Y-45467071D01*
X9147855Y-45459500D01*
X9147852Y-45459500D01*
X8632149Y-45459500D01*
X8632148Y-45459500D01*
X8632146Y-45459501D01*
X8617383Y-45462437D01*
X8594080Y-45467071D01*
X8594076Y-45467073D01*
X8550912Y-45495914D01*
X8522072Y-45539077D01*
X8522071Y-45539080D01*
X8514500Y-45577147D01*
X8514500Y-45782850D01*
X8514501Y-45782854D01*
X8522071Y-45820919D01*
X8522072Y-45820920D01*
X8526655Y-45827781D01*
X8533968Y-45864564D01*
X8532570Y-45869962D01*
X8530470Y-45876509D01*
X8522071Y-45889081D01*
X8514934Y-45924959D01*
X8514081Y-45927622D01*
X8510046Y-45932382D01*
X8502070Y-45947307D01*
X8484149Y-45965229D01*
X8449501Y-45979582D01*
X8414853Y-45965231D01*
X8400500Y-45930583D01*
X8400500Y-40249500D01*
X8414852Y-40214852D01*
X8449500Y-40200500D01*
X10075577Y-40200500D01*
X10083474Y-40203771D01*
G37*
G04 #@! TD.AperFunction*
G04 #@! TD*
M02*
