G04 #@! TF.GenerationSoftware,KiCad,Pcbnew,9.0.0*
G04 #@! TF.CreationDate,2025-02-22T21:50:31-05:00*
G04 #@! TF.ProjectId,panel,70616e65-6c2e-46b6-9963-61645f706362,v0.1.0*
G04 #@! TF.SameCoordinates,Original*
G04 #@! TF.FileFunction,Soldermask,Bot*
G04 #@! TF.FilePolarity,Negative*
%FSLAX46Y46*%
G04 Gerber Fmt 4.6, Leading zero omitted, Abs format (unit mm)*
G04 Created by KiCad (PCBNEW 9.0.0) date 2025-02-22 21:50:31*
%MOMM*%
%LPD*%
G01*
G04 APERTURE LIST*
%ADD10C,0.500000*%
%ADD11C,1.152000*%
%ADD12C,1.000000*%
%ADD13R,0.490000X0.180000*%
%ADD14R,0.540000X0.230000*%
G04 APERTURE END LIST*
D10*
G04 #@! TO.C,KiKit_MB_19_2*
X8000000Y-52233333D03*
G04 #@! TD*
G04 #@! TO.C,KiKit_MB_12_1*
X21000000Y-37830000D03*
G04 #@! TD*
G04 #@! TO.C,KiKit_MB_2_1*
X32030000Y-11300000D03*
G04 #@! TD*
G04 #@! TO.C,KiKit_MB_22_2*
X833334Y-48400000D03*
G04 #@! TD*
G04 #@! TO.C,KiKit_MB_14_2*
X32030000Y-44100000D03*
G04 #@! TD*
G04 #@! TO.C,KiKit_MB_19_3*
X8000000Y-53066666D03*
G04 #@! TD*
G04 #@! TO.C,KiKit_MB_23_6*
X39166666Y-8000000D03*
G04 #@! TD*
G04 #@! TO.C,KiKit_MB_21_5*
X3333334Y-8000000D03*
G04 #@! TD*
G04 #@! TO.C,KiKit_MB_19_5*
X8000000Y-54733333D03*
G04 #@! TD*
G04 #@! TO.C,KiKit_MB_13_2*
X7970000Y-44100000D03*
G04 #@! TD*
G04 #@! TO.C,KiKit_MB_19_4*
X8000000Y-53900000D03*
G04 #@! TD*
G04 #@! TO.C,KiKit_MB_21_7*
X5000000Y-8000000D03*
G04 #@! TD*
G04 #@! TO.C,KiKit_MB_19_7*
X8000000Y-56400000D03*
G04 #@! TD*
G04 #@! TO.C,KiKit_MB_11_2*
X20000000Y-29170000D03*
G04 #@! TD*
G04 #@! TO.C,KiKit_MB_17_1*
X8000000Y0D03*
G04 #@! TD*
G04 #@! TO.C,KiKit_MB_8_2*
X20000000Y-27230000D03*
G04 #@! TD*
G04 #@! TO.C,KiKit_MB_19_6*
X8000000Y-55566666D03*
G04 #@! TD*
G04 #@! TO.C,KiKit_MB_18_7*
X32000000Y-5000000D03*
G04 #@! TD*
G04 #@! TO.C,KiKit_MB_4_2*
X20000000Y-16630000D03*
G04 #@! TD*
G04 #@! TO.C,KiKit_MB_4_3*
X19000000Y-16630000D03*
G04 #@! TD*
G04 #@! TO.C,KiKit_MB_5_3*
X7970000Y-21900000D03*
G04 #@! TD*
D11*
G04 #@! TO.C,KiKit_TO_3*
X2000000Y-54400000D03*
G04 #@! TD*
D10*
G04 #@! TO.C,KiKit_MB_21_4*
X2500000Y-8000000D03*
G04 #@! TD*
G04 #@! TO.C,KiKit_MB_1_3*
X7970000Y-11300000D03*
G04 #@! TD*
G04 #@! TO.C,KiKit_MB_5_1*
X7970000Y-23900000D03*
G04 #@! TD*
G04 #@! TO.C,KiKit_MB_6_1*
X32030000Y-21900000D03*
G04 #@! TD*
G04 #@! TO.C,KiKit_MB_20_5*
X32000000Y-54733333D03*
G04 #@! TD*
G04 #@! TO.C,KiKit_MB_2_3*
X32030000Y-13300000D03*
G04 #@! TD*
D11*
G04 #@! TO.C,KiKit_TO_1*
X2000000Y-2000000D03*
G04 #@! TD*
D10*
G04 #@! TO.C,KiKit_MB_24_5*
X38333333Y-48400000D03*
G04 #@! TD*
G04 #@! TO.C,KiKit_MB_10_1*
X32030000Y-32500000D03*
G04 #@! TD*
G04 #@! TO.C,KiKit_MB_12_2*
X20000000Y-37830000D03*
G04 #@! TD*
G04 #@! TO.C,KiKit_MB_3_1*
X19000000Y-7970000D03*
G04 #@! TD*
G04 #@! TO.C,KiKit_MB_17_6*
X8000000Y-4166667D03*
G04 #@! TD*
G04 #@! TO.C,KiKit_MB_18_2*
X32000000Y-833334D03*
G04 #@! TD*
G04 #@! TO.C,KiKit_MB_8_3*
X19000000Y-27230000D03*
G04 #@! TD*
G04 #@! TO.C,KiKit_MB_20_3*
X32000000Y-53066666D03*
G04 #@! TD*
G04 #@! TO.C,KiKit_MB_22_1*
X0Y-48400000D03*
G04 #@! TD*
G04 #@! TO.C,KiKit_MB_23_7*
X40000000Y-8000000D03*
G04 #@! TD*
G04 #@! TO.C,KiKit_MB_18_5*
X32000000Y-3333334D03*
G04 #@! TD*
G04 #@! TO.C,KiKit_MB_24_1*
X35000000Y-48400000D03*
G04 #@! TD*
G04 #@! TO.C,KiKit_MB_7_3*
X21000000Y-18570000D03*
G04 #@! TD*
G04 #@! TO.C,KiKit_MB_21_1*
X0Y-8000000D03*
G04 #@! TD*
G04 #@! TO.C,KiKit_MB_5_2*
X7970000Y-22900000D03*
G04 #@! TD*
G04 #@! TO.C,KiKit_MB_16_3*
X19000000Y-48430000D03*
G04 #@! TD*
G04 #@! TO.C,KiKit_MB_16_1*
X21000000Y-48430000D03*
G04 #@! TD*
G04 #@! TO.C,KiKit_MB_23_2*
X35833333Y-8000000D03*
G04 #@! TD*
G04 #@! TO.C,KiKit_MB_21_2*
X833334Y-8000000D03*
G04 #@! TD*
G04 #@! TO.C,KiKit_MB_6_2*
X32030000Y-22900000D03*
G04 #@! TD*
G04 #@! TO.C,KiKit_MB_13_1*
X7970000Y-45100000D03*
G04 #@! TD*
G04 #@! TO.C,KiKit_MB_17_5*
X8000000Y-3333334D03*
G04 #@! TD*
G04 #@! TO.C,KiKit_MB_14_1*
X32030000Y-43100000D03*
G04 #@! TD*
G04 #@! TO.C,KiKit_MB_22_5*
X3333334Y-48400000D03*
G04 #@! TD*
G04 #@! TO.C,KiKit_MB_19_1*
X8000000Y-51400000D03*
G04 #@! TD*
G04 #@! TO.C,KiKit_MB_11_3*
X21000000Y-29170000D03*
G04 #@! TD*
G04 #@! TO.C,KiKit_MB_18_3*
X32000000Y-1666667D03*
G04 #@! TD*
G04 #@! TO.C,KiKit_MB_9_2*
X7970000Y-33500000D03*
G04 #@! TD*
G04 #@! TO.C,KiKit_MB_7_2*
X20000000Y-18570000D03*
G04 #@! TD*
G04 #@! TO.C,KiKit_MB_8_1*
X21000000Y-27230000D03*
G04 #@! TD*
G04 #@! TO.C,KiKit_MB_15_1*
X19000000Y-39770000D03*
G04 #@! TD*
G04 #@! TO.C,KiKit_MB_12_3*
X19000000Y-37830000D03*
G04 #@! TD*
G04 #@! TO.C,KiKit_MB_10_2*
X32030000Y-33500000D03*
G04 #@! TD*
G04 #@! TO.C,KiKit_MB_21_6*
X4166667Y-8000000D03*
G04 #@! TD*
G04 #@! TO.C,KiKit_MB_18_4*
X32000000Y-2500000D03*
G04 #@! TD*
G04 #@! TO.C,KiKit_MB_20_7*
X32000000Y-56400000D03*
G04 #@! TD*
G04 #@! TO.C,KiKit_MB_24_7*
X40000000Y-48400000D03*
G04 #@! TD*
G04 #@! TO.C,KiKit_MB_23_5*
X38333333Y-8000000D03*
G04 #@! TD*
G04 #@! TO.C,KiKit_MB_22_6*
X4166667Y-48400000D03*
G04 #@! TD*
G04 #@! TO.C,KiKit_MB_24_3*
X36666666Y-48400000D03*
G04 #@! TD*
G04 #@! TO.C,KiKit_MB_17_2*
X8000000Y-833334D03*
G04 #@! TD*
G04 #@! TO.C,KiKit_MB_22_7*
X5000000Y-48400000D03*
G04 #@! TD*
G04 #@! TO.C,KiKit_MB_10_3*
X32030000Y-34500000D03*
G04 #@! TD*
G04 #@! TO.C,KiKit_MB_22_3*
X1666667Y-48400000D03*
G04 #@! TD*
G04 #@! TO.C,KiKit_MB_20_6*
X32000000Y-55566666D03*
G04 #@! TD*
G04 #@! TO.C,KiKit_MB_23_4*
X37500000Y-8000000D03*
G04 #@! TD*
G04 #@! TO.C,KiKit_MB_22_4*
X2500000Y-48400000D03*
G04 #@! TD*
G04 #@! TO.C,KiKit_MB_18_1*
X32000000Y0D03*
G04 #@! TD*
G04 #@! TO.C,KiKit_MB_9_1*
X7970000Y-34500000D03*
G04 #@! TD*
D11*
G04 #@! TO.C,KiKit_TO_2*
X38000000Y-2000000D03*
G04 #@! TD*
D10*
G04 #@! TO.C,KiKit_MB_4_1*
X21000000Y-16630000D03*
G04 #@! TD*
G04 #@! TO.C,KiKit_MB_3_3*
X21000000Y-7970000D03*
G04 #@! TD*
G04 #@! TO.C,KiKit_MB_7_1*
X19000000Y-18570000D03*
G04 #@! TD*
G04 #@! TO.C,KiKit_MB_14_3*
X32030000Y-45100000D03*
G04 #@! TD*
G04 #@! TO.C,KiKit_MB_21_3*
X1666667Y-8000000D03*
G04 #@! TD*
G04 #@! TO.C,KiKit_MB_24_6*
X39166666Y-48400000D03*
G04 #@! TD*
G04 #@! TO.C,KiKit_MB_23_3*
X36666666Y-8000000D03*
G04 #@! TD*
G04 #@! TO.C,KiKit_MB_17_3*
X8000000Y-1666667D03*
G04 #@! TD*
G04 #@! TO.C,KiKit_MB_17_4*
X8000000Y-2500000D03*
G04 #@! TD*
G04 #@! TO.C,KiKit_MB_20_1*
X32000000Y-51400000D03*
G04 #@! TD*
G04 #@! TO.C,KiKit_MB_24_4*
X37500000Y-48400000D03*
G04 #@! TD*
G04 #@! TO.C,KiKit_MB_15_2*
X20000000Y-39770000D03*
G04 #@! TD*
G04 #@! TO.C,KiKit_MB_23_1*
X35000000Y-8000000D03*
G04 #@! TD*
G04 #@! TO.C,KiKit_MB_6_3*
X32030000Y-23900000D03*
G04 #@! TD*
G04 #@! TO.C,KiKit_MB_20_2*
X32000000Y-52233333D03*
G04 #@! TD*
G04 #@! TO.C,KiKit_MB_11_1*
X19000000Y-29170000D03*
G04 #@! TD*
G04 #@! TO.C,KiKit_MB_16_2*
X20000000Y-48430000D03*
G04 #@! TD*
G04 #@! TO.C,KiKit_MB_1_1*
X7970000Y-13300000D03*
G04 #@! TD*
G04 #@! TO.C,KiKit_MB_20_4*
X32000000Y-53900000D03*
G04 #@! TD*
G04 #@! TO.C,KiKit_MB_2_2*
X32030000Y-12300000D03*
G04 #@! TD*
G04 #@! TO.C,KiKit_MB_18_6*
X32000000Y-4166667D03*
G04 #@! TD*
G04 #@! TO.C,KiKit_MB_17_7*
X8000000Y-5000000D03*
G04 #@! TD*
G04 #@! TO.C,KiKit_MB_24_2*
X35833333Y-48400000D03*
G04 #@! TD*
G04 #@! TO.C,KiKit_MB_3_2*
X20000000Y-7970000D03*
G04 #@! TD*
G04 #@! TO.C,KiKit_MB_13_3*
X7970000Y-43100000D03*
G04 #@! TD*
G04 #@! TO.C,KiKit_MB_1_2*
X7970000Y-12300000D03*
G04 #@! TD*
G04 #@! TO.C,KiKit_MB_15_3*
X21000000Y-39770000D03*
G04 #@! TD*
G04 #@! TO.C,KiKit_MB_9_3*
X7970000Y-32500000D03*
G04 #@! TD*
D12*
G04 #@! TO.C,KiKit_FID_B_1*
X10000000Y-3850000D03*
G04 #@! TD*
D13*
G04 #@! TO.C,J1*
X10710000Y-14230000D03*
X10710000Y-13880000D03*
X10710000Y-13530000D03*
X10710000Y-13180000D03*
X10710000Y-12830000D03*
X10710000Y-12480000D03*
X10710000Y-12130000D03*
X10710000Y-11780000D03*
X10710000Y-11430000D03*
X10710000Y-11080000D03*
X10710000Y-10730000D03*
X10710000Y-10380000D03*
X8890000Y-10380000D03*
X8890000Y-10730000D03*
X8890000Y-11080000D03*
X8890000Y-11430000D03*
X8890000Y-11780000D03*
X8890000Y-12130000D03*
X8890000Y-12480000D03*
X8890000Y-12830000D03*
X8890000Y-13180000D03*
X8890000Y-13530000D03*
X8890000Y-13880000D03*
X8890000Y-14230000D03*
D14*
X10570000Y-14600000D03*
X9030000Y-14600000D03*
X10570000Y-10000000D03*
X9030000Y-10000000D03*
G04 #@! TD*
D12*
G04 #@! TO.C,KiKit_FID_B_3*
X10000000Y-52550000D03*
G04 #@! TD*
D13*
G04 #@! TO.C,J1*
X10710000Y-35430000D03*
X10710000Y-35080000D03*
X10710000Y-34730000D03*
X10710000Y-34380000D03*
X10710000Y-34030000D03*
X10710000Y-33680000D03*
X10710000Y-33330000D03*
X10710000Y-32980000D03*
X10710000Y-32630000D03*
X10710000Y-32280000D03*
X10710000Y-31930000D03*
X10710000Y-31580000D03*
X8890000Y-31580000D03*
X8890000Y-31930000D03*
X8890000Y-32280000D03*
X8890000Y-32630000D03*
X8890000Y-32980000D03*
X8890000Y-33330000D03*
X8890000Y-33680000D03*
X8890000Y-34030000D03*
X8890000Y-34380000D03*
X8890000Y-34730000D03*
X8890000Y-35080000D03*
X8890000Y-35430000D03*
D14*
X10570000Y-35800000D03*
X9030000Y-35800000D03*
X10570000Y-31200000D03*
X9030000Y-31200000D03*
G04 #@! TD*
D13*
G04 #@! TO.C,J1*
X10710000Y-24830000D03*
X10710000Y-24480000D03*
X10710000Y-24130000D03*
X10710000Y-23780000D03*
X10710000Y-23430000D03*
X10710000Y-23080000D03*
X10710000Y-22730000D03*
X10710000Y-22380000D03*
X10710000Y-22030000D03*
X10710000Y-21680000D03*
X10710000Y-21330000D03*
X10710000Y-20980000D03*
X8890000Y-20980000D03*
X8890000Y-21330000D03*
X8890000Y-21680000D03*
X8890000Y-22030000D03*
X8890000Y-22380000D03*
X8890000Y-22730000D03*
X8890000Y-23080000D03*
X8890000Y-23430000D03*
X8890000Y-23780000D03*
X8890000Y-24130000D03*
X8890000Y-24480000D03*
X8890000Y-24830000D03*
D14*
X10570000Y-25200000D03*
X9030000Y-25200000D03*
X10570000Y-20600000D03*
X9030000Y-20600000D03*
G04 #@! TD*
D13*
G04 #@! TO.C,J1*
X10710000Y-46030000D03*
X10710000Y-45680000D03*
X10710000Y-45330000D03*
X10710000Y-44980000D03*
X10710000Y-44630000D03*
X10710000Y-44280000D03*
X10710000Y-43930000D03*
X10710000Y-43580000D03*
X10710000Y-43230000D03*
X10710000Y-42880000D03*
X10710000Y-42530000D03*
X10710000Y-42180000D03*
X8890000Y-42180000D03*
X8890000Y-42530000D03*
X8890000Y-42880000D03*
X8890000Y-43230000D03*
X8890000Y-43580000D03*
X8890000Y-43930000D03*
X8890000Y-44280000D03*
X8890000Y-44630000D03*
X8890000Y-44980000D03*
X8890000Y-45330000D03*
X8890000Y-45680000D03*
X8890000Y-46030000D03*
D14*
X10570000Y-46400000D03*
X9030000Y-46400000D03*
X10570000Y-41800000D03*
X9030000Y-41800000D03*
G04 #@! TD*
D12*
G04 #@! TO.C,KiKit_FID_B_2*
X30000000Y-3850000D03*
G04 #@! TD*
G04 #@! TO.C,KiKit_FID_B_4*
X30000000Y-52550000D03*
G04 #@! TD*
M02*
