M48
; DRILL file {KiCad 9.0.0} date 2025-02-22T21:50:31-0500
; FORMAT={-:-/ absolute / metric / decimal}
; #@! TF.CreationDate,2025-02-22T21:50:31-05:00
; #@! TF.GenerationSoftware,Kicad,Pcbnew,9.0.0
; #@! TF.FileFunction,Plated,1,2,PTH
FMAT,2
METRIC
; #@! TA.AperFunction,Plated,PTH,ViaDrill
T1C0.300
%
G90
G05
T1
X9.0Y-8.8
X9.0Y-9.8
X9.0Y-14.8
X9.0Y-15.8
X9.0Y-19.4
X9.0Y-20.4
X9.0Y-25.4
X9.0Y-26.4
X9.0Y-30.0
X9.0Y-31.0
X9.0Y-36.0
X9.0Y-37.0
X9.0Y-40.6
X9.0Y-41.6
X9.0Y-46.6
X9.0Y-47.6
X9.93Y-12.55
X9.93Y-23.15
X9.93Y-33.75
X9.93Y-44.35
X9.985Y-15.395
X9.985Y-25.995
X9.985Y-36.595
X9.985Y-47.195
X10.02Y-13.24
X10.02Y-23.84
X10.02Y-34.44
X10.02Y-45.04
X10.6Y-9.8
X10.6Y-20.4
X10.6Y-31.0
X10.6Y-41.6
X10.85Y-15.87
X10.85Y-26.47
X10.85Y-37.07
X10.85Y-47.67
X11.34Y-12.18
X11.34Y-12.81
X11.34Y-22.78
X11.34Y-23.41
X11.34Y-33.38
X11.34Y-34.01
X11.34Y-43.98
X11.34Y-44.61
X11.5Y-14.61
X11.5Y-25.21
X11.5Y-35.81
X11.5Y-46.41
X12.0Y-9.8
X12.0Y-20.4
X12.0Y-31.0
X12.0Y-41.6
X12.1Y-14.6
X12.1Y-25.2
X12.1Y-35.8
X12.1Y-46.4
X13.4Y-9.9
X13.4Y-14.0
X13.4Y-20.5
X13.4Y-24.6
X13.4Y-31.1
X13.4Y-35.2
X13.4Y-41.7
X13.4Y-45.8
X14.4Y-12.5
X14.4Y-23.1
X14.4Y-33.7
X14.4Y-44.3
X15.2Y-12.5
X15.2Y-23.1
X15.2Y-33.7
X15.2Y-44.3
X16.2Y-11.72
X16.2Y-14.0
X16.2Y-22.32
X16.2Y-24.6
X16.2Y-32.92
X16.2Y-35.2
X16.2Y-43.52
X16.2Y-45.8
X16.8Y-11.3
X16.8Y-21.9
X16.8Y-32.5
X16.8Y-43.1
X18.3Y-9.4
X18.3Y-20.0
X18.3Y-30.6
X18.3Y-41.2
X19.1Y-11.8
X19.1Y-22.4
X19.1Y-33.0
X19.1Y-43.6
X20.1Y-12.3
X20.1Y-14.0
X20.1Y-22.9
X20.1Y-24.6
X20.1Y-33.5
X20.1Y-35.2
X20.1Y-44.1
X20.1Y-45.8
X20.15Y-11.0
X20.15Y-21.6
X20.15Y-32.2
X20.15Y-42.8
X20.18Y-9.21
X20.18Y-19.81
X20.18Y-30.41
X20.18Y-41.01
X21.1Y-8.8
X21.1Y-19.4
X21.1Y-30.0
X21.1Y-40.6
X22.0Y-11.0
X22.0Y-21.6
X22.0Y-32.2
X22.0Y-42.8
X22.49Y-12.31
X22.49Y-22.91
X22.49Y-33.51
X22.49Y-44.11
X23.73Y-12.32
X23.73Y-22.92
X23.73Y-33.52
X23.73Y-44.12
X23.91Y-11.05
X23.91Y-21.65
X23.91Y-32.25
X23.91Y-42.85
X23.93Y-14.54
X23.93Y-25.14
X23.93Y-35.74
X23.93Y-46.34
X24.9Y-9.4
X24.9Y-20.0
X24.9Y-30.6
X24.9Y-41.2
X25.37Y-12.32
X25.37Y-22.92
X25.37Y-33.52
X25.37Y-44.12
X25.9Y-15.3
X25.9Y-25.9
X25.9Y-36.5
X25.9Y-47.1
X26.8Y-15.2
X26.8Y-25.8
X26.8Y-36.4
X26.8Y-47.0
X28.7Y-9.4
X28.7Y-15.2
X28.7Y-20.0
X28.7Y-25.8
X28.7Y-30.6
X28.7Y-36.4
X28.7Y-41.2
X28.7Y-47.0
X30.71Y-10.05
X30.71Y-20.65
X30.71Y-31.25
X30.71Y-41.85
X30.74Y-14.52
X30.74Y-25.12
X30.74Y-35.72
X30.74Y-46.32
M30
