M48
; DRILL file {KiCad 8.0.8} date 2025-02-16T13:22:27-0500
; FORMAT={-:-/ absolute / metric / decimal}
; #@! TF.CreationDate,2025-02-16T13:22:27-05:00
; #@! TF.GenerationSoftware,Kicad,Pcbnew,8.0.8
; #@! TF.FileFunction,MixedPlating,1,2
FMAT,2
METRIC
; #@! TA.AperFunction,Plated,PTH,ViaDrill
T1C0.300
; #@! TA.AperFunction,NonPlated,NPTH,ComponentDrill
T2C0.500
; #@! TA.AperFunction,NonPlated,NPTH,ComponentDrill
T3C1.152
%
G90
G05
T1
X9.0Y-8.8
X9.0Y-9.8
X9.0Y-14.8
X9.0Y-15.8
X9.0Y-19.4
X9.0Y-20.4
X9.0Y-25.4
X9.0Y-26.4
X9.0Y-30.0
X9.0Y-31.0
X9.0Y-36.0
X9.0Y-37.0
X9.0Y-40.6
X9.0Y-41.6
X9.0Y-46.6
X9.0Y-47.6
X9.93Y-12.55
X9.93Y-23.15
X9.93Y-33.75
X9.93Y-44.35
X9.985Y-15.395
X9.985Y-25.995
X9.985Y-36.595
X9.985Y-47.195
X10.02Y-13.24
X10.02Y-23.84
X10.02Y-34.44
X10.02Y-45.04
X10.6Y-9.8
X10.6Y-20.4
X10.6Y-31.0
X10.6Y-41.6
X10.85Y-15.87
X10.85Y-26.47
X10.85Y-37.07
X10.85Y-47.67
X11.34Y-12.18
X11.34Y-12.81
X11.34Y-22.78
X11.34Y-23.41
X11.34Y-33.38
X11.34Y-34.01
X11.34Y-43.98
X11.34Y-44.61
X11.5Y-14.61
X11.5Y-25.21
X11.5Y-35.81
X11.5Y-46.41
X12.0Y-9.8
X12.0Y-20.4
X12.0Y-31.0
X12.0Y-41.6
X12.1Y-14.6
X12.1Y-25.2
X12.1Y-35.8
X12.1Y-46.4
X13.4Y-9.9
X13.4Y-14.0
X13.4Y-20.5
X13.4Y-24.6
X13.4Y-31.1
X13.4Y-35.2
X13.4Y-41.7
X13.4Y-45.8
X14.4Y-12.5
X14.4Y-23.1
X14.4Y-33.7
X14.4Y-44.3
X15.2Y-12.5
X15.2Y-23.1
X15.2Y-33.7
X15.2Y-44.3
X16.2Y-11.72
X16.2Y-14.0
X16.2Y-22.32
X16.2Y-24.6
X16.2Y-32.92
X16.2Y-35.2
X16.2Y-43.52
X16.2Y-45.8
X16.8Y-11.3
X16.8Y-21.9
X16.8Y-32.5
X16.8Y-43.1
X18.3Y-9.4
X18.3Y-20.0
X18.3Y-30.6
X18.3Y-41.2
X19.1Y-11.8
X19.1Y-22.4
X19.1Y-33.0
X19.1Y-43.6
X20.1Y-12.3
X20.1Y-14.0
X20.1Y-22.9
X20.1Y-24.6
X20.1Y-33.5
X20.1Y-35.2
X20.1Y-44.1
X20.1Y-45.8
X20.15Y-11.0
X20.15Y-21.6
X20.15Y-32.2
X20.15Y-42.8
X20.18Y-9.21
X20.18Y-19.81
X20.18Y-30.41
X20.18Y-41.01
X21.1Y-8.8
X21.1Y-19.4
X21.1Y-30.0
X21.1Y-40.6
X22.0Y-11.0
X22.0Y-21.6
X22.0Y-32.2
X22.0Y-42.8
X22.49Y-12.31
X22.49Y-22.91
X22.49Y-33.51
X22.49Y-44.11
X23.73Y-12.32
X23.73Y-22.92
X23.73Y-33.52
X23.73Y-44.12
X23.91Y-11.05
X23.91Y-21.65
X23.91Y-32.25
X23.91Y-42.85
X23.93Y-14.54
X23.93Y-25.14
X23.93Y-35.74
X23.93Y-46.34
X24.9Y-9.4
X24.9Y-20.0
X24.9Y-30.6
X24.9Y-41.2
X25.37Y-12.32
X25.37Y-22.92
X25.37Y-33.52
X25.37Y-44.12
X25.9Y-15.3
X25.9Y-25.9
X25.9Y-36.5
X25.9Y-47.1
X26.8Y-15.2
X26.8Y-25.8
X26.8Y-36.4
X26.8Y-47.0
X28.7Y-9.4
X28.7Y-15.2
X28.7Y-20.0
X28.7Y-25.8
X28.7Y-30.6
X28.7Y-36.4
X28.7Y-41.2
X28.7Y-47.0
X30.71Y-10.05
X30.71Y-20.65
X30.71Y-31.25
X30.71Y-41.85
X30.74Y-14.52
X30.74Y-25.12
X30.74Y-35.72
X30.74Y-46.32
T2
X0.0Y-8.0
X0.0Y-48.4
X0.833Y-8.0
X0.833Y-48.4
X1.667Y-8.0
X1.667Y-48.4
X2.5Y-8.0
X2.5Y-48.4
X3.333Y-8.0
X3.333Y-48.4
X4.167Y-8.0
X4.167Y-48.4
X5.0Y-8.0
X5.0Y-48.4
X7.97Y-11.3
X7.97Y-12.3
X7.97Y-13.3
X7.97Y-21.9
X7.97Y-22.9
X7.97Y-23.9
X7.97Y-32.5
X7.97Y-33.5
X7.97Y-34.5
X7.97Y-43.1
X7.97Y-44.1
X7.97Y-45.1
X8.0Y0.0
X8.0Y-0.833
X8.0Y-1.667
X8.0Y-2.5
X8.0Y-3.333
X8.0Y-4.167
X8.0Y-5.0
X8.0Y-51.4
X8.0Y-52.233
X8.0Y-53.067
X8.0Y-53.9
X8.0Y-54.733
X8.0Y-55.567
X8.0Y-56.4
X19.0Y-7.97
X19.0Y-16.63
X19.0Y-18.57
X19.0Y-27.23
X19.0Y-29.17
X19.0Y-37.83
X19.0Y-39.77
X19.0Y-48.43
X20.0Y-7.97
X20.0Y-16.63
X20.0Y-18.57
X20.0Y-27.23
X20.0Y-29.17
X20.0Y-37.83
X20.0Y-39.77
X20.0Y-48.43
X21.0Y-7.97
X21.0Y-16.63
X21.0Y-18.57
X21.0Y-27.23
X21.0Y-29.17
X21.0Y-37.83
X21.0Y-39.77
X21.0Y-48.43
X32.0Y0.0
X32.0Y-0.833
X32.0Y-1.667
X32.0Y-2.5
X32.0Y-3.333
X32.0Y-4.167
X32.0Y-5.0
X32.0Y-51.4
X32.0Y-52.233
X32.0Y-53.067
X32.0Y-53.9
X32.0Y-54.733
X32.0Y-55.567
X32.0Y-56.4
X32.03Y-11.3
X32.03Y-12.3
X32.03Y-13.3
X32.03Y-21.9
X32.03Y-22.9
X32.03Y-23.9
X32.03Y-32.5
X32.03Y-33.5
X32.03Y-34.5
X32.03Y-43.1
X32.03Y-44.1
X32.03Y-45.1
X35.0Y-8.0
X35.0Y-48.4
X35.833Y-8.0
X35.833Y-48.4
X36.667Y-8.0
X36.667Y-48.4
X37.5Y-8.0
X37.5Y-48.4
X38.333Y-8.0
X38.333Y-48.4
X39.167Y-8.0
X39.167Y-48.4
X40.0Y-8.0
X40.0Y-48.4
T3
X2.0Y-2.0
X2.0Y-54.4
X38.0Y-2.0
M30
