%TF.GenerationSoftware,KiCad,Pcbnew,9.0.0*%
%TF.CreationDate,2025-02-22T22:51:47-05:00*%
%TF.ProjectId,panel,70616e65-6c2e-46b6-9963-61645f706362,v0.1.1*%
%TF.SameCoordinates,Original*%
%TF.FileFunction,Drillmap*%
%TF.FilePolarity,Positive*%
%FSLAX45Y45*%
G04 Gerber Fmt 4.5, Leading zero omitted, Abs format (unit mm)*
G04 Created by KiCad (PCBNEW 9.0.0) date 2025-02-22 22:51:47*
%MOMM*%
%LPD*%
G01*
G04 APERTURE LIST*
%ADD10C,0.100000*%
%ADD11C,0.200000*%
%ADD12C,0.115200*%
G04 APERTURE END LIST*
D10*
X3198773Y-800000D02*
X2199901Y-800000D01*
X51810Y-5627562D02*
X52872Y-5628164D01*
X738330Y-4302396D02*
X733755Y-4304160D01*
X575626Y-3452994D02*
X580410Y-3451919D01*
X2185242Y-798919D02*
X2180410Y-798080D01*
X1883164Y-5095601D02*
X1880340Y-5099610D01*
X4008Y-5567840D02*
X4334Y-5569017D01*
X570901Y-3454302D02*
X575626Y-3452994D01*
X733755Y-1124160D02*
X729099Y-1125698D01*
X3299901Y-3450000D02*
X3400099Y-3450000D01*
X755601Y-3233164D02*
X751459Y-3235787D01*
X2166245Y-505840D02*
X2170901Y-504302D01*
X3209591Y-4252813D02*
X3207604Y-4248330D01*
X570901Y-4305698D02*
X566245Y-4304160D01*
X580410Y-4308080D02*
X575626Y-4307006D01*
X2100481Y-3889892D02*
X2100120Y-3885002D01*
X3405002Y-5139880D02*
X3400099Y-5140000D01*
X561670Y-3242395D02*
X557187Y-3240408D01*
X8137Y-5579378D02*
X11283Y-5586030D01*
X1899519Y-2829892D02*
X1898919Y-2834758D01*
X2199901Y-800000D02*
X2194998Y-799880D01*
X1829099Y-5135698D02*
X1824374Y-5137006D01*
X801227Y-4840000D02*
X1800099Y-4840000D01*
X2101920Y-2839589D02*
X2101081Y-2834758D01*
X2129260Y-2749260D02*
X2132811Y-2745879D01*
X544399Y-2406836D02*
X548541Y-2404213D01*
X719589Y-1331920D02*
X724374Y-1332994D01*
X1863476Y-1682676D02*
X1867189Y-1685879D01*
X3438330Y-4302396D02*
X3433755Y-4304160D01*
X801225Y-1860000D02*
X800124Y-1860027D01*
X16877Y-44462D02*
X16223Y-45493D01*
X3997781Y-5560697D02*
X3998048Y-5559506D01*
X599901Y-1130000D02*
X594998Y-1129880D01*
X2170901Y-795698D02*
X2166245Y-794160D01*
X800124Y-4839973D02*
X801225Y-4840000D01*
X3202994Y-4585626D02*
X3204302Y-4580901D01*
X3248541Y-4524213D02*
X3252807Y-4521796D01*
X557187Y-3240408D02*
X552807Y-3238204D01*
X1814758Y-501081D02*
X1819589Y-501919D01*
X3252807Y-1118204D02*
X3248541Y-1115787D01*
X1898919Y-2834758D02*
X1898080Y-2839589D01*
X501919Y-580410D02*
X502994Y-575626D01*
X798919Y-1415242D02*
X799519Y-1420108D01*
X3211796Y-3502807D02*
X3214213Y-3498541D01*
X3429099Y-2185698D02*
X3424374Y-2187006D01*
X507604Y-5078330D02*
X505840Y-5073755D01*
X795698Y-3520900D02*
X797006Y-3525626D01*
X8136Y-60624D02*
X7641Y-61741D01*
X3485787Y-3201459D02*
X3483164Y-3205601D01*
X3490408Y-3507187D02*
X3492395Y-3511670D01*
X2190108Y-4840481D02*
X2194998Y-4840120D01*
X2119660Y-5099610D02*
X2116836Y-5095601D01*
X2220Y-5560699D02*
X4008Y-5567838D01*
X3414758Y-2188919D02*
X3409892Y-2189519D01*
X532811Y-1104121D02*
X529260Y-1100740D01*
X2170901Y-2724302D02*
X2175626Y-2722994D01*
X4336Y-5569022D02*
X4719Y-5570182D01*
X3498080Y-4229590D02*
X3497006Y-4234374D01*
X2114213Y-1708541D02*
X2116836Y-1704398D01*
X3463476Y-3227324D02*
X3459610Y-3230340D01*
X2144399Y-3963164D02*
X2140390Y-3960340D01*
X504302Y-3179099D02*
X502994Y-3174374D01*
X2111796Y-552807D02*
X2114213Y-548541D01*
X770740Y-2419260D02*
X774121Y-2422811D01*
X3987562Y-5588190D02*
X3988164Y-5587128D01*
X2104302Y-1789099D02*
X2102994Y-1784374D01*
X98774Y-60D02*
X91424Y-421D01*
X590108Y-1330481D02*
X594998Y-1330120D01*
X1847192Y-511796D02*
X1851459Y-514213D01*
X3498919Y-4224758D02*
X3498080Y-4229590D01*
X2190108Y-799519D02*
X2185242Y-798919D01*
X798919Y-2475242D02*
X799519Y-2480108D01*
X2101920Y-3860410D02*
X2102994Y-3855626D01*
X3477324Y-3486524D02*
X3480340Y-3490390D01*
X1870740Y-3950740D02*
X1867189Y-3954121D01*
X2102994Y-2795626D02*
X2104302Y-2790901D01*
X3199875Y-1860027D02*
X3198775Y-1860000D01*
X3414758Y-4511081D02*
X3419589Y-4511920D01*
X3459610Y-2170340D02*
X3455601Y-2173164D01*
X500000Y-4210099D02*
X500000Y-3549901D01*
X3488204Y-2442807D02*
X3490408Y-2447187D01*
X2170901Y-3784302D02*
X2175626Y-3782994D01*
X3474121Y-3482811D02*
X3477324Y-3486524D01*
X1898080Y-4920410D02*
X1898919Y-4925242D01*
X3497006Y-575626D02*
X3498080Y-580410D01*
X2101920Y-1779589D02*
X2101081Y-1774758D01*
X3405002Y-1330120D02*
X3409892Y-1330481D01*
X1897006Y-3904374D02*
X1895698Y-3909099D01*
X1855601Y-783164D02*
X1851459Y-785787D01*
X514213Y-548541D02*
X516836Y-544399D01*
X738330Y-4517604D02*
X742813Y-4519591D01*
X3498080Y-1410410D02*
X3498919Y-1415242D01*
X774121Y-1362811D02*
X777324Y-1366524D01*
X3499519Y-590108D02*
X3499880Y-594998D01*
X3463476Y-4532676D02*
X3467189Y-4535879D01*
X1867189Y-5114121D02*
X1863476Y-5117324D01*
X3290108Y-2390481D02*
X3294998Y-2390120D01*
X536524Y-2167324D02*
X532811Y-2164121D01*
X594998Y-2390120D02*
X599901Y-2390000D01*
X507604Y-4571670D02*
X509591Y-4567187D01*
X3499880Y-1424998D02*
X3500000Y-1429901D01*
X792395Y-2451670D02*
X794160Y-2456245D01*
X511796Y-3197192D02*
X509591Y-3192813D01*
X1838330Y-3972395D02*
X1833755Y-3974160D01*
X3232811Y-3475879D02*
X3236524Y-3472676D01*
X3494160Y-5073755D02*
X3492395Y-5078330D01*
X729099Y-1334302D02*
X733755Y-1335840D01*
X759610Y-2170340D02*
X755601Y-2173164D01*
X2119660Y-3939610D02*
X2116836Y-3935601D01*
X1814758Y-2721081D02*
X1819589Y-2721920D01*
X2101081Y-1774758D02*
X2100481Y-1769892D01*
X1800099Y-500000D02*
X1805002Y-500120D01*
X3202994Y-3525626D02*
X3204302Y-3520900D01*
X529260Y-3479260D02*
X532811Y-3475879D01*
X1890408Y-1717187D02*
X1892395Y-1721670D01*
X2119660Y-3820390D02*
X2122676Y-3816524D01*
X763476Y-2412676D02*
X767189Y-2415879D01*
X3467189Y-1355879D02*
X3470740Y-1359260D01*
X3419589Y-3451919D02*
X3424374Y-3452994D01*
X798080Y-1410410D02*
X798919Y-1415242D01*
X1805002Y-799880D02*
X1800099Y-800000D01*
X3200120Y-3544998D02*
X3200481Y-3540108D01*
X799880Y-2484998D02*
X800000Y-2489901D01*
X500000Y-3549901D02*
X500120Y-3544998D01*
X1877324Y-3816524D02*
X1880340Y-3820390D01*
X733755Y-2395840D02*
X738330Y-2397604D01*
X2152807Y-4851796D02*
X2157187Y-4849591D01*
X2102994Y-2844374D02*
X2101920Y-2839589D01*
X500120Y-2484998D02*
X500481Y-2480108D01*
X3477324Y-5103476D02*
X3474121Y-5107189D01*
X3400099Y-3450000D02*
X3405002Y-3450120D01*
X1809892Y-1859519D02*
X1805002Y-1859880D01*
X3201919Y-3169589D02*
X3201081Y-3164758D01*
X770740Y-1100740D02*
X767189Y-1104121D01*
X794160Y-1063755D02*
X792395Y-1068330D01*
X525879Y-2157189D02*
X522676Y-2153476D01*
X580410Y-1331920D02*
X585242Y-1331081D01*
X1892395Y-2858330D02*
X1890408Y-2862813D01*
X3467189Y-1104121D02*
X3463476Y-1107324D01*
X3485787Y-1378541D02*
X3488204Y-1382807D01*
X3205840Y-3183755D02*
X3204302Y-3179099D01*
X3470740Y-2160740D02*
X3467189Y-2164121D01*
X3294998Y-2189880D02*
X3290108Y-2189519D01*
X2190108Y-1660481D02*
X2194998Y-1660120D01*
X2166245Y-5134160D02*
X2161670Y-5132396D01*
X62885Y-7199D02*
X61745Y-7639D01*
X700099Y-3250000D02*
X599901Y-3250000D01*
X566245Y-505840D02*
X570901Y-504302D01*
X570901Y-3245698D02*
X566245Y-3244160D01*
X3470740Y-4539260D02*
X3474121Y-4542811D01*
X1899880Y-594998D02*
X1900000Y-599901D01*
X1867189Y-1834121D02*
X1863476Y-1837324D01*
X1883164Y-755601D02*
X1880340Y-759610D01*
X1824374Y-3977006D02*
X1819589Y-3978080D01*
X505840Y-566245D02*
X507604Y-561670D01*
X570901Y-2394302D02*
X575626Y-2392994D01*
X3225879Y-4277189D02*
X3222676Y-4273476D01*
X519659Y-2430390D02*
X522676Y-2426524D01*
X2107604Y-1798330D02*
X2105840Y-1793755D01*
X785787Y-1378541D02*
X788204Y-1382807D01*
X511796Y-2442807D02*
X514213Y-2438541D01*
X36578Y-22724D02*
X35653Y-23521D01*
X2175626Y-2917006D02*
X2170901Y-2915698D01*
X3494160Y-4243755D02*
X3492395Y-4248330D01*
X51808Y-12439D02*
X45496Y-16222D01*
X1888204Y-2867192D02*
X1885787Y-2871459D01*
X714758Y-2188919D02*
X709892Y-2189519D01*
X1847192Y-1848204D02*
X1842813Y-1850408D01*
X509591Y-4252813D02*
X507604Y-4248330D01*
X3918295Y-1741D02*
X3911016Y-662D01*
X3405002Y-3450120D02*
X3409892Y-3450481D01*
X2109591Y-557187D02*
X2111796Y-552807D01*
X3222676Y-3486524D02*
X3225879Y-3482811D01*
X2125879Y-2752811D02*
X2129260Y-2749260D01*
X561670Y-2397604D02*
X566245Y-2395840D01*
X529260Y-3220740D02*
X525879Y-3217189D01*
X514213Y-2141459D02*
X511796Y-2137193D01*
X3992801Y-5577113D02*
X3995280Y-5570184D01*
X2136524Y-2742676D02*
X2140390Y-2739660D01*
X3429099Y-3245698D02*
X3424374Y-3247006D01*
X2144399Y-2736836D02*
X2148541Y-2734213D01*
X3252807Y-3238204D02*
X3248541Y-3235787D01*
X3201919Y-2470410D02*
X3202994Y-2465626D01*
X3467189Y-2415879D02*
X3470740Y-2419260D01*
X705002Y-1330120D02*
X709892Y-1330481D01*
X759610Y-1110340D02*
X755601Y-1113164D01*
X1819589Y-2918080D02*
X1814758Y-2918919D01*
X798080Y-3530410D02*
X798919Y-3535242D01*
X3956541Y-17583D02*
X3955542Y-16879D01*
X504302Y-5069099D02*
X502994Y-5064374D01*
X742813Y-1120409D02*
X738330Y-1122396D01*
X1897006Y-2795626D02*
X1898080Y-2800410D01*
X3920697Y-2219D02*
X3919505Y-1951D01*
X70983Y-5635666D02*
X72160Y-5635992D01*
X3477324Y-4546524D02*
X3480340Y-4550390D01*
X714758Y-1128919D02*
X709892Y-1129519D01*
X3938259Y-5632359D02*
X3939375Y-5631864D01*
X2190108Y-2720481D02*
X2194998Y-2720120D01*
X516836Y-4554399D02*
X519659Y-4550390D01*
X1895698Y-2849099D02*
X1894160Y-2853755D01*
X1842813Y-509591D02*
X1847192Y-511796D01*
X2129260Y-529260D02*
X2132811Y-525879D01*
X3248541Y-2404213D02*
X3252807Y-2401796D01*
X3266245Y-1124160D02*
X3261670Y-1122396D01*
X3405002Y-4309880D02*
X3400099Y-4310000D01*
X81703Y-1742D02*
X80499Y-1950D01*
X3202994Y-1405626D02*
X3204302Y-1400900D01*
X2132811Y-1834121D02*
X2129260Y-1830740D01*
X3498919Y-4595242D02*
X3499519Y-4600108D01*
X724374Y-1127006D02*
X719589Y-1128080D01*
X767189Y-2164121D02*
X763476Y-2167324D01*
X790408Y-3507187D02*
X792395Y-3511670D01*
X3211796Y-3197192D02*
X3209591Y-3192813D01*
X724374Y-4512994D02*
X729099Y-4514302D01*
X705002Y-1129880D02*
X700099Y-1130000D01*
X1800099Y-3980000D02*
X801227Y-3980000D01*
X590108Y-2390481D02*
X594998Y-2390120D01*
X516836Y-1374399D02*
X519659Y-1370390D01*
X2136524Y-777324D02*
X2132811Y-774121D01*
X3270900Y-4514302D02*
X3275626Y-4512994D01*
X16879Y-5595542D02*
X17583Y-5596541D01*
X2116836Y-1815601D02*
X2114213Y-1811459D01*
X522676Y-1366524D02*
X525879Y-1362811D01*
X3201081Y-4224758D02*
X3200481Y-4219892D01*
X548541Y-2404213D02*
X552807Y-2401796D01*
X1800099Y-5140000D02*
X599901Y-5140000D01*
X738330Y-1337604D02*
X742813Y-1339591D01*
X52872Y-11836D02*
X51810Y-12437D01*
X2152807Y-3968204D02*
X2148541Y-3965787D01*
X1877324Y-4876524D02*
X1880340Y-4880390D01*
X514213Y-1081459D02*
X511796Y-1077193D01*
X3497006Y-4234374D02*
X3495698Y-4239099D01*
X1819589Y-3781919D02*
X1824374Y-3782994D01*
X3495698Y-3520900D02*
X3497006Y-3525626D01*
X3244398Y-4293164D02*
X3240390Y-4290340D01*
X738330Y-1122396D02*
X733755Y-1124160D01*
X2157187Y-1850408D02*
X2152807Y-1848204D01*
X60624Y-5631864D02*
X61741Y-5632359D01*
X788204Y-4562807D02*
X790408Y-4567187D01*
X1895698Y-3850900D02*
X1897006Y-3855626D01*
X2101081Y-4925242D02*
X2101920Y-4920410D01*
X799880Y-1424998D02*
X800000Y-1429901D01*
X3240390Y-4529660D02*
X3244398Y-4526836D01*
X1829099Y-3784302D02*
X1833755Y-3785840D01*
X1885787Y-1708541D02*
X1888204Y-1712807D01*
X1883164Y-1815601D02*
X1880340Y-1819610D01*
X566245Y-3244160D02*
X561670Y-3242395D01*
X1897006Y-5064374D02*
X1895698Y-5069099D01*
X505840Y-3183755D02*
X504302Y-3179099D01*
X2144399Y-3796836D02*
X2148541Y-3794213D01*
X719589Y-4308080D02*
X714758Y-4308919D01*
X2100120Y-3874998D02*
X2100481Y-3870108D01*
X1900000Y-3880099D02*
X1899880Y-3885002D01*
X1899519Y-709892D02*
X1898919Y-714758D01*
X3992359Y-61741D02*
X3991864Y-60624D01*
X3199973Y-2719875D02*
X3200000Y-2718775D01*
X585242Y-4308919D02*
X580410Y-4308080D01*
X755601Y-4293164D02*
X751459Y-4295787D01*
X3232811Y-1104121D02*
X3229260Y-1100740D01*
X3275626Y-1127006D02*
X3270900Y-1125698D01*
X2170901Y-5135698D02*
X2166245Y-5134160D01*
X1874121Y-2887189D02*
X1870740Y-2890740D01*
X1898919Y-1774758D02*
X1898080Y-1779589D01*
X500481Y-5049892D02*
X500120Y-5045002D01*
X3198775Y-4840000D02*
X3199875Y-4839973D01*
X3240390Y-2170340D02*
X3236524Y-2167324D01*
X3433755Y-505840D02*
X3438330Y-507604D01*
X575626Y-4512994D02*
X580410Y-4511920D01*
X3433755Y-2184160D02*
X3429099Y-2185698D01*
X3442813Y-2399591D02*
X3447192Y-2401796D01*
X2100000Y-3879901D02*
X2100120Y-3874998D01*
X2185242Y-2918919D02*
X2180410Y-2918080D01*
X2157187Y-2910408D02*
X2152807Y-2908204D01*
X2116836Y-2764399D02*
X2119660Y-2760390D01*
X1867189Y-525879D02*
X1870740Y-529260D01*
X1847192Y-5128204D02*
X1842813Y-5130409D01*
X3219659Y-4269610D02*
X3216836Y-4265601D01*
X1899880Y-4934998D02*
X1900000Y-4939901D01*
X3492395Y-4571670D02*
X3494160Y-4576245D01*
X3214213Y-4558541D02*
X3216836Y-4554399D01*
X3451459Y-2175787D02*
X3447192Y-2178204D01*
X3209591Y-4567187D02*
X3211796Y-4562807D01*
X3492395Y-3188330D02*
X3490408Y-3192813D01*
X511796Y-4562807D02*
X514213Y-4558541D01*
X1851459Y-785787D02*
X1847192Y-788204D01*
X1877324Y-1823476D02*
X1874121Y-1827189D01*
X2116836Y-2875601D02*
X2114213Y-2871459D01*
X529260Y-4539260D02*
X532811Y-4535879D01*
X88984Y-662D02*
X81705Y-1741D01*
X751459Y-3464213D02*
X755601Y-3466836D01*
X3201081Y-2475242D02*
X3201919Y-2470410D01*
X3455601Y-516836D02*
X3459610Y-519659D01*
X505840Y-2456245D02*
X507604Y-2451670D01*
X2119660Y-2879610D02*
X2116836Y-2875601D01*
X1859610Y-2739660D02*
X1863476Y-2742676D01*
X2136524Y-1837324D02*
X2132811Y-1834121D01*
X3483164Y-5095601D02*
X3480340Y-5099610D01*
X3999940Y-5541223D02*
X4000000Y-5538775D01*
X1829099Y-504302D02*
X1833755Y-505840D01*
X3500000Y-599901D02*
X3500000Y-1030099D01*
X3898773Y0D02*
X101227Y0D01*
X3499519Y-5049892D02*
X3498919Y-5054758D01*
X3232811Y-1355879D02*
X3236524Y-1352676D01*
X3494160Y-3183755D02*
X3492395Y-3188330D01*
X3999578Y-91422D02*
X3999489Y-90204D01*
X3202994Y-3174374D02*
X3201919Y-3169589D01*
X785787Y-1081459D02*
X783164Y-1085601D01*
X3201081Y-1415242D02*
X3201919Y-1410410D01*
X2161670Y-4847604D02*
X2166245Y-4845840D01*
X3244398Y-1346836D02*
X3248541Y-1344213D01*
X1880340Y-3820390D02*
X1883164Y-3824398D01*
X3222676Y-4546524D02*
X3225879Y-4542811D01*
X788204Y-3197192D02*
X785787Y-3201459D01*
X3911016Y-5639338D02*
X3918295Y-5638259D01*
X1885787Y-2768541D02*
X1888204Y-2772807D01*
X1899519Y-1750108D02*
X1899880Y-1754998D01*
X544399Y-3466836D02*
X548541Y-3464213D01*
X3200000Y-2489901D02*
X3200120Y-2484998D01*
X2114213Y-548541D02*
X2116836Y-544399D01*
X1805002Y-2720120D02*
X1809892Y-2720481D01*
X505840Y-4576245D02*
X507604Y-4571670D01*
X3909801Y-5639488D02*
X3911013Y-5639339D01*
X3490408Y-2132813D02*
X3488204Y-2137193D01*
X3207604Y-1391670D02*
X3209591Y-1387187D01*
X742813Y-2180409D02*
X738330Y-2182396D01*
X3290108Y-3249519D02*
X3285242Y-3248919D01*
X3988167Y-5587123D02*
X3988716Y-5586032D01*
X3285242Y-2188919D02*
X3280410Y-2188080D01*
X500120Y-3155002D02*
X500000Y-3150099D01*
X2119660Y-4880390D02*
X2122676Y-4876524D01*
X2109591Y-742813D02*
X2107604Y-738330D01*
X2132811Y-774121D02*
X2129260Y-770740D01*
X2125879Y-532811D02*
X2129260Y-529260D01*
X3424374Y-1332994D02*
X3429099Y-1334302D01*
X511796Y-552807D02*
X514213Y-548541D01*
X3414758Y-1128919D02*
X3409892Y-1129519D01*
X1863476Y-5117324D02*
X1859610Y-5120340D01*
X3200481Y-3540108D02*
X3201081Y-3535242D01*
X3463476Y-2412676D02*
X3467189Y-2415879D01*
X1814758Y-1661081D02*
X1819589Y-1661919D01*
X3424374Y-4512994D02*
X3429099Y-4514302D01*
X719589Y-3248080D02*
X714758Y-3248919D01*
X1851459Y-1674213D02*
X1855601Y-1676836D01*
X3433755Y-1124160D02*
X3429099Y-1125698D01*
X800000Y-3778775D02*
X800027Y-3779875D01*
X3214213Y-2438541D02*
X3216836Y-2434399D01*
X800124Y-3779973D02*
X801225Y-3780000D01*
X3908578Y-5639578D02*
X3909796Y-5639489D01*
X548541Y-3464213D02*
X552807Y-3461796D01*
X3299901Y-4510000D02*
X3400099Y-4510000D01*
X3198775Y-3780000D02*
X3199875Y-3779973D01*
X504302Y-3520900D02*
X505840Y-3516245D01*
X1898080Y-3860410D02*
X1898919Y-3865242D01*
X3209591Y-1387187D02*
X3211796Y-1382807D01*
X590108Y-3450481D02*
X594998Y-3450120D01*
X705002Y-2189880D02*
X700099Y-2190000D01*
X747192Y-4298204D02*
X742813Y-4300409D01*
X2180410Y-798080D02*
X2175626Y-797006D01*
X599901Y-2390000D02*
X700099Y-2390000D01*
X2140390Y-519659D02*
X2144399Y-516836D01*
X2107604Y-5078330D02*
X2105840Y-5073755D01*
X570901Y-1334302D02*
X575626Y-1332994D01*
X28467Y-5609803D02*
X29309Y-5610688D01*
X724374Y-3452994D02*
X729099Y-3454302D01*
X747192Y-2178204D02*
X742813Y-2180409D01*
X795698Y-4580901D02*
X797006Y-4585626D01*
X3470740Y-5110740D02*
X3467189Y-5114121D01*
X3419589Y-2188080D02*
X3414758Y-2188919D01*
X799519Y-4219892D02*
X798919Y-4224758D01*
X2107604Y-3841670D02*
X2109591Y-3837187D01*
X3991863Y-60622D02*
X3988717Y-53970D01*
X540390Y-4529660D02*
X544399Y-4526836D01*
X2148541Y-1674213D02*
X2152807Y-1671796D01*
X770740Y-4280740D02*
X767189Y-4284121D01*
X709892Y-1330481D02*
X714758Y-1331081D01*
X3200120Y-4604998D02*
X3200481Y-4600108D01*
X729099Y-4305698D02*
X724374Y-4307006D01*
X3451459Y-5125787D02*
X3447192Y-5128204D01*
X557187Y-2180409D02*
X552807Y-2178204D01*
X3480340Y-1370390D02*
X3483164Y-1374399D01*
X3205840Y-1396245D02*
X3207604Y-1391670D01*
X3257187Y-1120409D02*
X3252807Y-1118204D01*
X566245Y-5134160D02*
X561670Y-5132396D01*
X3499519Y-1039892D02*
X3498919Y-1044758D01*
X792395Y-1068330D02*
X790408Y-1072813D01*
X3409892Y-3249519D02*
X3405002Y-3249880D01*
X3419589Y-2391920D02*
X3424374Y-2392994D01*
X3498919Y-2104758D02*
X3498080Y-2109590D01*
X1800099Y-800000D02*
X801227Y-800000D01*
X2180410Y-1858080D02*
X2175626Y-1857006D01*
X2101081Y-1745242D02*
X2101920Y-1740410D01*
X2185242Y-3978919D02*
X2180410Y-3978080D01*
X2144399Y-4856836D02*
X2148541Y-4854213D01*
X3499880Y-594998D02*
X3500000Y-599901D01*
X501081Y-2475242D02*
X501919Y-2470410D01*
X3498080Y-2109590D02*
X3497006Y-2114374D01*
X3200481Y-3159892D02*
X3200120Y-3155002D01*
X4008Y-72162D02*
X2220Y-79301D01*
X2105840Y-3913755D02*
X2104302Y-3909099D01*
X3236524Y-1107324D02*
X3232811Y-1104121D01*
X3451459Y-1344213D02*
X3455601Y-1346836D01*
X2140390Y-2900340D02*
X2136524Y-2897324D01*
X1898080Y-2839589D02*
X1897006Y-2844374D01*
X798080Y-2109590D02*
X797006Y-2114374D01*
X501081Y-5054758D02*
X500481Y-5049892D01*
X1851459Y-3965787D02*
X1847192Y-3968204D01*
X1888204Y-4892807D02*
X1890408Y-4897187D01*
X544399Y-3233164D02*
X540390Y-3230340D01*
X1742Y-5558297D02*
X1950Y-5559501D01*
X2180410Y-1661919D02*
X2185242Y-1661081D01*
X3483164Y-2434399D02*
X3485787Y-2438541D01*
X580410Y-2391920D02*
X585242Y-2391081D01*
X2140390Y-3799659D02*
X2144399Y-3796836D01*
X3438330Y-507604D02*
X3442813Y-509591D01*
X3222676Y-4273476D02*
X3219659Y-4269610D01*
X2194998Y-500120D02*
X2199901Y-500000D01*
X3485787Y-1081459D02*
X3483164Y-1085601D01*
X1877324Y-2756524D02*
X1880340Y-2760390D01*
X1867189Y-4865879D02*
X1870740Y-4869260D01*
X792395Y-1391670D02*
X794160Y-1396245D01*
X3424374Y-5137006D02*
X3419589Y-5138080D01*
X799519Y-4600108D02*
X799880Y-4604998D01*
X1842813Y-2910408D02*
X1838330Y-2912395D01*
X3492395Y-5078330D02*
X3490408Y-5082813D01*
X2144399Y-516836D02*
X2148541Y-514213D01*
X3500000Y-1030099D02*
X3499880Y-1035002D01*
X91422Y-421D02*
X90204Y-511D01*
X798080Y-4229590D02*
X797006Y-4234374D01*
X3438330Y-5132396D02*
X3433755Y-5134160D01*
X797006Y-4585626D02*
X798080Y-4590410D01*
X2101081Y-3865242D02*
X2101920Y-3860410D01*
X2175626Y-2722994D02*
X2180410Y-2721920D01*
X53967Y-11284D02*
X52877Y-11833D01*
X1897006Y-2844374D02*
X1895698Y-2849099D01*
X799519Y-1420108D02*
X799880Y-1424998D01*
X72162Y-5635992D02*
X79301Y-5637780D01*
X500000Y-2489901D02*
X500120Y-2484998D01*
X525879Y-4277189D02*
X522676Y-4273476D01*
X800000Y-2090099D02*
X799880Y-2095002D01*
X1842813Y-1669591D02*
X1847192Y-1671796D01*
X3424374Y-502994D02*
X3429099Y-504302D01*
X2116836Y-3824398D02*
X2119660Y-3820390D01*
X511796Y-3502807D02*
X514213Y-3498541D01*
X3409892Y-5139519D02*
X3405002Y-5139880D01*
X3498080Y-2470410D02*
X3498919Y-2475242D01*
X3459610Y-519659D02*
X3463476Y-522676D01*
X522676Y-1093476D02*
X519659Y-1089610D01*
X3200000Y-1429901D02*
X3200120Y-1424998D01*
X3451459Y-3235787D02*
X3447192Y-3238204D01*
X2107604Y-3918330D02*
X2105840Y-3913755D01*
X3202994Y-4234374D02*
X3201919Y-4229590D01*
X3414758Y-3248919D02*
X3409892Y-3249519D01*
X1863476Y-4862676D02*
X1867189Y-4865879D01*
X3480340Y-4550390D02*
X3483164Y-4554399D01*
X1863476Y-1837324D02*
X1859610Y-1840340D01*
X3266245Y-1335840D02*
X3270900Y-1334302D01*
X2104302Y-4910901D02*
X2105840Y-4906245D01*
X61741Y-7641D02*
X60624Y-8136D01*
X502994Y-2114374D02*
X501919Y-2109590D01*
X3200481Y-2099892D02*
X3200120Y-2095002D01*
X3470740Y-3220740D02*
X3467189Y-3224121D01*
X60Y-98777D02*
X0Y-101225D01*
X2136524Y-5117324D02*
X2132811Y-5114121D01*
X755601Y-2406836D02*
X759610Y-2409660D01*
X3252807Y-1341796D02*
X3257187Y-1339591D01*
X2144399Y-2903164D02*
X2140390Y-2900340D01*
X1894160Y-1726245D02*
X1895698Y-1730900D01*
X3948190Y-12437D02*
X3947128Y-11836D01*
X3211796Y-4257193D02*
X3209591Y-4252813D01*
X585242Y-1331081D02*
X590108Y-1330481D01*
X2104302Y-2849099D02*
X2102994Y-2844374D01*
X2157187Y-509591D02*
X2161670Y-507604D01*
X3257187Y-2180409D02*
X3252807Y-2178204D01*
X1870740Y-1830740D02*
X1867189Y-1834121D01*
X2129260Y-4869260D02*
X2132811Y-4865879D01*
X2122676Y-763476D02*
X2119660Y-759610D01*
X2111796Y-1807192D02*
X2109591Y-1802813D01*
X3438330Y-1122396D02*
X3433755Y-1124160D01*
X767189Y-3475879D02*
X770740Y-3479260D01*
X797006Y-2114374D02*
X795698Y-2119099D01*
X529260Y-1359260D02*
X532811Y-1355879D01*
X2125879Y-1827189D02*
X2122676Y-1823476D01*
X3480340Y-2149610D02*
X3477324Y-2153476D01*
X2152807Y-5128204D02*
X2148541Y-5125787D01*
X585242Y-1128919D02*
X580410Y-1128080D01*
X3294998Y-4309880D02*
X3290108Y-4309519D01*
X1874121Y-2752811D02*
X1877324Y-2756524D01*
X509591Y-1387187D02*
X511796Y-1382807D01*
X3200000Y-2718773D02*
X3200000Y-2489901D01*
X1885787Y-4888541D02*
X1888204Y-4892807D01*
X3400099Y-3250000D02*
X3299901Y-3250000D01*
X2166245Y-2914160D02*
X2161670Y-2912395D01*
X2105840Y-3846245D02*
X2107604Y-3841670D01*
X3485787Y-2141459D02*
X3483164Y-2145601D01*
X3429099Y-1334302D02*
X3433755Y-1335840D01*
X101225Y0D02*
X98777Y-60D01*
X1874121Y-1692811D02*
X1877324Y-1696524D01*
X1892395Y-2781670D02*
X1894160Y-2786245D01*
X3495698Y-5069099D02*
X3494160Y-5073755D01*
X532811Y-525879D02*
X536524Y-522676D01*
X1880340Y-1819610D02*
X1877324Y-1823476D01*
X747192Y-2401796D02*
X751459Y-2404213D01*
X800027Y-1860124D02*
X800000Y-1861225D01*
X3214213Y-3201459D02*
X3211796Y-3197192D01*
X3442813Y-4519591D02*
X3447192Y-4521796D01*
X3480340Y-3490390D02*
X3483164Y-3494398D01*
X733755Y-4515840D02*
X738330Y-4517604D01*
X3971535Y-5609801D02*
X3976477Y-5604349D01*
X3204302Y-4580901D02*
X3205840Y-4576245D01*
X101227Y-5640000D02*
X3898773Y-5640000D01*
X3976478Y-5604347D02*
X3977276Y-5603422D01*
X2101920Y-719589D02*
X2101081Y-714758D01*
X1809892Y-1660481D02*
X1814758Y-1661081D01*
X742813Y-4300409D02*
X738330Y-4302396D01*
X566245Y-1335840D02*
X570901Y-1334302D01*
X16222Y-45496D02*
X12439Y-51808D01*
X3480340Y-540390D02*
X3483164Y-544399D01*
X742813Y-4519591D02*
X747192Y-4521796D01*
X3225879Y-1362811D02*
X3229260Y-1359260D01*
X2148541Y-5125787D02*
X2144399Y-5123164D01*
X514213Y-3498541D02*
X516836Y-3494398D01*
X2140390Y-780340D02*
X2136524Y-777324D01*
X3939378Y-5631863D02*
X3946030Y-5628717D01*
X3492395Y-1068330D02*
X3490408Y-1072813D01*
X505840Y-1063755D02*
X504302Y-1059099D01*
X3290108Y-4510481D02*
X3294998Y-4510120D01*
X1859610Y-2900340D02*
X1855601Y-2903164D01*
X2125879Y-3947189D02*
X2122676Y-3943476D01*
X2104302Y-570901D02*
X2105840Y-566245D01*
X3244398Y-4526836D02*
X3248541Y-4524213D01*
X3499880Y-3544998D02*
X3500000Y-3549901D01*
X788204Y-2442807D02*
X790408Y-2447187D01*
X1859610Y-5120340D02*
X1855601Y-5123164D01*
X3954504Y-16222D02*
X3948192Y-12439D01*
X3455601Y-2406836D02*
X3459610Y-2409660D01*
X3201919Y-2109590D02*
X3201081Y-2104758D01*
X733755Y-2184160D02*
X729099Y-2185698D01*
X3200000Y-4609901D02*
X3200120Y-4604998D01*
X2129260Y-3809260D02*
X2132811Y-3805879D01*
X540390Y-4290340D02*
X536524Y-4287324D01*
X3977276Y-36578D02*
X3976478Y-35653D01*
X1877324Y-2883476D02*
X1874121Y-2887189D01*
X2185242Y-5138919D02*
X2180410Y-5138080D01*
X709892Y-1129519D02*
X705002Y-1129880D01*
X792395Y-2128330D02*
X790408Y-2132813D01*
X585242Y-2188919D02*
X580410Y-2188080D01*
X799519Y-3159892D02*
X798919Y-3164758D01*
X738330Y-2397604D02*
X742813Y-2399591D01*
X3442813Y-3459591D02*
X3447192Y-3461796D01*
X3488204Y-5087193D02*
X3485787Y-5091459D01*
X800027Y-2920124D02*
X800000Y-2921225D01*
X2136524Y-1682676D02*
X2140390Y-1679659D01*
X3211796Y-1382807D02*
X3214213Y-1378541D01*
X2100120Y-594998D02*
X2100481Y-590108D01*
X0Y-5538775D02*
X60Y-5541223D01*
X500000Y-3150099D02*
X500000Y-2489901D01*
X780340Y-2149610D02*
X777324Y-2153476D01*
X1863476Y-2742676D02*
X1867189Y-2745879D01*
X1877324Y-3943476D02*
X1874121Y-3947189D01*
X1892395Y-4901670D02*
X1894160Y-4906245D01*
X2100120Y-5045002D02*
X2100000Y-5040099D01*
X3492395Y-4248330D02*
X3490408Y-4252813D01*
X790408Y-4567187D02*
X792395Y-4571670D01*
X800000Y-3981227D02*
X800000Y-4210099D01*
X3982416Y-43457D02*
X3978032Y-37546D01*
X2109591Y-1717187D02*
X2111796Y-1712807D01*
X3477324Y-2153476D02*
X3474121Y-2157189D01*
X1877324Y-1696524D02*
X1880340Y-1700390D01*
X502994Y-3525626D02*
X504302Y-3520900D01*
X3201081Y-4595242D02*
X3201919Y-4590410D01*
X1829099Y-1855698D02*
X1824374Y-1857006D01*
X514213Y-5091459D02*
X511796Y-5087193D01*
X3442813Y-509591D02*
X3447192Y-511796D01*
X2157187Y-2729591D02*
X2161670Y-2727604D01*
X2100000Y-3880099D02*
X2100000Y-3879901D01*
X507604Y-3511670D02*
X509591Y-3507187D01*
X1900000Y-1759901D02*
X1900000Y-1760099D01*
X3991864Y-5579376D02*
X3992359Y-5578259D01*
X3447192Y-511796D02*
X3451459Y-514213D01*
X724374Y-2187006D02*
X719589Y-2188080D01*
X2105840Y-566245D02*
X2107604Y-561670D01*
X504302Y-4580901D02*
X505840Y-4576245D01*
X522676Y-3213476D02*
X519659Y-3209610D01*
X1847192Y-788204D02*
X1842813Y-790408D01*
X742813Y-2399591D02*
X747192Y-2401796D01*
X1819589Y-3978080D02*
X1814758Y-3978919D01*
X747192Y-1341796D02*
X751459Y-1344213D01*
X3290108Y-2189519D02*
X3285242Y-2188919D01*
X3499880Y-2095002D02*
X3499519Y-2099892D01*
X3982417Y-5596541D02*
X3983120Y-5595542D01*
X1898919Y-2805242D02*
X1899519Y-2810108D01*
X763476Y-4287324D02*
X759610Y-4290340D01*
X3285242Y-2391081D02*
X3290108Y-2390481D01*
X3455601Y-3466836D02*
X3459610Y-3469659D01*
X719589Y-3451919D02*
X724374Y-3452994D01*
X1883164Y-1704398D02*
X1885787Y-1708541D01*
X2122676Y-4876524D02*
X2125879Y-4872811D01*
X532811Y-3224121D02*
X529260Y-3220740D01*
X2100000Y-2819901D02*
X2100120Y-2814998D01*
X3498080Y-4590410D02*
X3498919Y-4595242D01*
X2125879Y-2887189D02*
X2122676Y-2883476D01*
X3200000Y-2921225D02*
X3199973Y-2920124D01*
X2175626Y-502994D02*
X2180410Y-501919D01*
X3252807Y-2401796D02*
X3257187Y-2399591D01*
X500000Y-1429901D02*
X500120Y-1424998D01*
X3257187Y-4300409D02*
X3252807Y-4298204D01*
X536524Y-4532676D02*
X540390Y-4529660D01*
X3455601Y-5123164D02*
X3451459Y-5125787D01*
X3483164Y-3494398D02*
X3485787Y-3498541D01*
X2199901Y-2720000D02*
X3198773Y-2720000D01*
X3201919Y-1049590D02*
X3201081Y-1044758D01*
X532811Y-2415879D02*
X536524Y-2412676D01*
X3275626Y-4512994D02*
X3280410Y-4511920D01*
X3409892Y-2189519D02*
X3405002Y-2189880D01*
X3200120Y-2484998D02*
X3200481Y-2480108D01*
X1874121Y-3947189D02*
X1870740Y-3950740D01*
X21969Y-5602455D02*
X22721Y-5603418D01*
X3229260Y-2419260D02*
X3232811Y-2415879D01*
X1833755Y-794160D02*
X1829099Y-795698D01*
X729099Y-2394302D02*
X733755Y-2395840D01*
X790408Y-4252813D02*
X788204Y-4257193D01*
X2114213Y-5091459D02*
X2111796Y-5087193D01*
X3229260Y-3479260D02*
X3232811Y-3475879D01*
X3498080Y-1049590D02*
X3497006Y-1054374D01*
X3225879Y-3482811D02*
X3229260Y-3479260D01*
X501081Y-3535242D02*
X501919Y-3530410D01*
X29312Y-5610691D02*
X30197Y-5611533D01*
X532811Y-3475879D02*
X536524Y-3472676D01*
X2100000Y-5040099D02*
X2100000Y-4939901D01*
X548541Y-514213D02*
X552807Y-511796D01*
X501081Y-1044758D02*
X500481Y-1039892D01*
X2114213Y-3931459D02*
X2111796Y-3927192D01*
X1895698Y-1730900D02*
X1897006Y-1735626D01*
X3204302Y-2119099D02*
X3202994Y-2114374D01*
X590108Y-4510481D02*
X594998Y-4510120D01*
X3280410Y-1331920D02*
X3285242Y-1331081D01*
X1863476Y-777324D02*
X1859610Y-780340D01*
X17583Y-43459D02*
X16879Y-44458D01*
X2148541Y-3794213D02*
X2152807Y-3791796D01*
X548541Y-2175787D02*
X544399Y-2173164D01*
X1885787Y-3931459D02*
X1883164Y-3935601D01*
X2199901Y-2920000D02*
X2194998Y-2919880D01*
X795698Y-4239099D02*
X794160Y-4243755D01*
X511796Y-4257193D02*
X509591Y-4252813D01*
X30197Y-28467D02*
X29312Y-29309D01*
X3500000Y-5040099D02*
X3499880Y-5045002D01*
X1890408Y-4897187D02*
X1892395Y-4901670D01*
X507604Y-4248330D02*
X505840Y-4243755D01*
X3200000Y-1861225D02*
X3199973Y-1860124D01*
X3470740Y-1359260D02*
X3474121Y-1362811D01*
X1851459Y-1845787D02*
X1847192Y-1848204D01*
X3409892Y-2390481D02*
X3414758Y-2391081D01*
X1859610Y-519659D02*
X1863476Y-522676D01*
X590108Y-500481D02*
X594998Y-500120D01*
X3236524Y-1352676D02*
X3240390Y-1349660D01*
X759610Y-4290340D02*
X755601Y-4293164D01*
X1838330Y-1667604D02*
X1842813Y-1669591D01*
X529260Y-4280740D02*
X525879Y-4277189D01*
X705002Y-4510120D02*
X709892Y-4510481D01*
X3459610Y-3230340D02*
X3455601Y-3233164D01*
X724374Y-4307006D02*
X719589Y-4308080D01*
X3433755Y-4515840D02*
X3438330Y-4517604D01*
X2101081Y-714758D02*
X2100481Y-709892D01*
X3495698Y-4580901D02*
X3497006Y-4585626D01*
X501919Y-5059590D02*
X501081Y-5054758D01*
X3419589Y-5138080D02*
X3414758Y-5138919D01*
X575626Y-502994D02*
X580410Y-501919D01*
X3204302Y-1400900D02*
X3205840Y-1396245D01*
X3995664Y-70978D02*
X3995281Y-69818D01*
X798080Y-2470410D02*
X798919Y-2475242D01*
X2111796Y-4892807D02*
X2114213Y-4888541D01*
X2148541Y-4854213D02*
X2152807Y-4851796D01*
X1819589Y-2721920D02*
X1824374Y-2722994D01*
X3424374Y-4307006D02*
X3419589Y-4308080D01*
X1890408Y-742813D02*
X1888204Y-747192D01*
X500000Y-599901D02*
X500120Y-594998D01*
X500120Y-4215002D02*
X500000Y-4210099D01*
X2119660Y-2760390D02*
X2122676Y-2756524D01*
X1833755Y-1665840D02*
X1838330Y-1667604D01*
X3414758Y-4308919D02*
X3409892Y-4309519D01*
X3275626Y-2187006D02*
X3270900Y-2185698D01*
X2144399Y-783164D02*
X2140390Y-780340D01*
X3299901Y-2390000D02*
X3400099Y-2390000D01*
X799880Y-4604998D02*
X800000Y-4609901D01*
X561670Y-2182396D02*
X557187Y-2180409D01*
X1859610Y-3960340D02*
X1855601Y-3963164D01*
X2105840Y-1726245D02*
X2107604Y-1721670D01*
X2170901Y-1855698D02*
X2166245Y-1854160D01*
X774121Y-3217189D02*
X770740Y-3220740D01*
X3909796Y-511D02*
X3908578Y-421D01*
X3969801Y-28465D02*
X3964349Y-23523D01*
X509591Y-557187D02*
X511796Y-552807D01*
X500120Y-4604998D02*
X500481Y-4600108D01*
X3433755Y-3455840D02*
X3438330Y-3457604D01*
X2102994Y-724374D02*
X2101920Y-719589D01*
X594998Y-3249880D02*
X590108Y-3249519D01*
X3299901Y-3250000D02*
X3294998Y-3249880D01*
X3257187Y-3240408D02*
X3252807Y-3238204D01*
X797006Y-1054374D02*
X795698Y-1059099D01*
X1892395Y-1798330D02*
X1890408Y-1802813D01*
X3429099Y-3454302D02*
X3433755Y-3455840D01*
X3483164Y-4554399D02*
X3485787Y-4558541D01*
X3261670Y-3457604D02*
X3266245Y-3455840D01*
X544399Y-2173164D02*
X540390Y-2170340D01*
X1824374Y-2722994D02*
X1829099Y-2724302D01*
X777324Y-2426524D02*
X780340Y-2430390D01*
X3294998Y-4510120D02*
X3299901Y-4510000D01*
X2194998Y-3979880D02*
X2190108Y-3979519D01*
X2180410Y-501919D02*
X2185242Y-501081D01*
X3999488Y-90199D02*
X3999339Y-88987D01*
X504302Y-570901D02*
X505840Y-566245D01*
X2194998Y-2919880D02*
X2190108Y-2919519D01*
X1814758Y-2918919D02*
X1809892Y-2919519D01*
X3447192Y-1341796D02*
X3451459Y-1344213D01*
X502994Y-3174374D02*
X501919Y-3169589D01*
X797006Y-1405626D02*
X798080Y-1410410D01*
X3918297Y-5638258D02*
X3919501Y-5638049D01*
X3459610Y-2409660D02*
X3463476Y-2412676D01*
X22721Y-36582D02*
X21969Y-37544D01*
X594998Y-500120D02*
X599901Y-500000D01*
X800000Y-2921227D02*
X800000Y-3150099D01*
X3429099Y-1125698D02*
X3424374Y-1127006D01*
X3459610Y-1110340D02*
X3455601Y-1113164D01*
X3929017Y-4334D02*
X3927840Y-4008D01*
X3500000Y-3549901D02*
X3500000Y-4210099D01*
X2166245Y-3785840D02*
X2170901Y-3784302D01*
X3219659Y-3209610D02*
X3216836Y-3205601D01*
X2199901Y-4840000D02*
X3198773Y-4840000D01*
X3204302Y-3179099D02*
X3202994Y-3174374D01*
X3266245Y-4304160D02*
X3261670Y-4302396D01*
X2185242Y-4841081D02*
X2190108Y-4840481D01*
X3198773Y-3980000D02*
X2199901Y-3980000D01*
X3202994Y-1054374D02*
X3201919Y-1049590D01*
X1899519Y-5049892D02*
X1898919Y-5054758D01*
X500120Y-3544998D02*
X500481Y-3540108D01*
X1859610Y-1679659D02*
X1863476Y-1682676D01*
X4334Y-70983D02*
X4008Y-72160D01*
X512Y-5549801D02*
X661Y-5551013D01*
X3499880Y-3155002D02*
X3499519Y-3159892D01*
X800000Y-4210099D02*
X799880Y-4215002D01*
X80494Y-1951D02*
X79303Y-2219D01*
X500000Y-1030099D02*
X500000Y-599901D01*
X774121Y-4542811D02*
X777324Y-4546524D01*
X3252807Y-3461796D02*
X3257187Y-3459591D01*
X792395Y-4248330D02*
X790408Y-4252813D01*
X1829099Y-4844302D02*
X1833755Y-4845840D01*
X519659Y-1089610D02*
X516836Y-1085601D01*
X2107604Y-1721670D02*
X2109591Y-1717187D01*
X3499880Y-4215002D02*
X3499519Y-4219892D01*
X504302Y-2460901D02*
X505840Y-2456245D01*
X2114213Y-4888541D02*
X2116836Y-4884399D01*
X548541Y-4295787D02*
X544399Y-4293164D01*
X662Y-5551016D02*
X1741Y-5558295D01*
X3455601Y-2173164D02*
X3451459Y-2175787D01*
X3405002Y-1129880D02*
X3400099Y-1130000D01*
X522676Y-3486524D02*
X525879Y-3482811D01*
X3485787Y-5091459D02*
X3483164Y-5095601D01*
X1888204Y-3832807D02*
X1890408Y-3837187D01*
X1851459Y-2734213D02*
X1855601Y-2736836D01*
X21968Y-37546D02*
X17584Y-43457D01*
X3285242Y-3248919D02*
X3280410Y-3248080D01*
X700099Y-3450000D02*
X705002Y-3450120D01*
X1900000Y-1760099D02*
X1899880Y-1765002D01*
X2166245Y-4845840D02*
X2170901Y-4844302D01*
X747192Y-3461796D02*
X751459Y-3464213D01*
X570901Y-5135698D02*
X566245Y-5134160D01*
X1863476Y-3957324D02*
X1859610Y-3960340D01*
X585242Y-2391081D02*
X590108Y-2390481D01*
X3492395Y-3511670D02*
X3494160Y-3516245D01*
X777324Y-4273476D02*
X774121Y-4277189D01*
X1800099Y-2920000D02*
X801227Y-2920000D01*
X3438330Y-3457604D02*
X3442813Y-3459591D01*
X585242Y-501081D02*
X590108Y-500481D01*
X3433755Y-5134160D02*
X3429099Y-5135698D01*
X3480340Y-1089610D02*
X3477324Y-1093476D01*
X2125879Y-767189D02*
X2122676Y-763476D01*
X3969803Y-5611533D02*
X3970688Y-5610691D01*
X2157187Y-3970408D02*
X2152807Y-3968204D01*
X3999489Y-5549796D02*
X3999578Y-5548578D01*
X3222676Y-1366524D02*
X3225879Y-1362811D01*
X1800099Y-1660000D02*
X1805002Y-1660120D01*
X3248541Y-3464213D02*
X3252807Y-3461796D01*
X2101081Y-585242D02*
X2101920Y-580410D01*
X540390Y-1349660D02*
X544399Y-1346836D01*
X795698Y-1400900D02*
X797006Y-1405626D01*
X1880340Y-1700390D02*
X1883164Y-1704398D01*
X511796Y-1077193D02*
X509591Y-1072813D01*
X3424374Y-1127006D02*
X3419589Y-1128080D01*
X504302Y-4239099D02*
X502994Y-4234374D01*
X500481Y-4600108D02*
X501081Y-4595242D01*
X507604Y-1068330D02*
X505840Y-1063755D01*
X3400099Y-4310000D02*
X3299901Y-4310000D01*
X3490408Y-2447187D02*
X3492395Y-2451670D01*
X3280410Y-3451919D02*
X3285242Y-3451081D01*
X1833755Y-3974160D02*
X1829099Y-3975698D01*
X17584Y-5596543D02*
X21968Y-5602453D01*
X800000Y-1030099D02*
X799880Y-1035002D01*
X3405002Y-2189880D02*
X3400099Y-2190000D01*
X3498919Y-3535242D02*
X3499519Y-3540108D01*
X516836Y-3205601D02*
X514213Y-3201459D01*
X2100481Y-1750108D02*
X2101081Y-1745242D01*
X3494160Y-1063755D02*
X3492395Y-1068330D01*
X714758Y-3451081D02*
X719589Y-3451919D01*
X557187Y-4300409D02*
X552807Y-4298204D01*
X3438330Y-2397604D02*
X3442813Y-2399591D01*
X2132811Y-525879D02*
X2136524Y-522676D01*
X783164Y-4554399D02*
X785787Y-4558541D01*
X2100481Y-2810108D02*
X2101081Y-2805242D01*
X733755Y-3455840D02*
X738330Y-3457604D01*
X548541Y-1344213D02*
X552807Y-1341796D01*
X2140390Y-5120340D02*
X2136524Y-5117324D01*
X3499519Y-1420108D02*
X3499880Y-1424998D01*
X594998Y-4309880D02*
X590108Y-4309519D01*
X3447192Y-4298204D02*
X3442813Y-4300409D01*
X2190108Y-2919519D02*
X2185242Y-2918919D01*
X700099Y-4510000D02*
X705002Y-4510120D01*
X1898080Y-3899589D02*
X1897006Y-3904374D01*
X3240390Y-1110340D02*
X3236524Y-1107324D01*
X1800099Y-3780000D02*
X1805002Y-3780120D01*
X3294998Y-1129880D02*
X3290108Y-1129519D01*
X3488204Y-3197192D02*
X3485787Y-3201459D01*
X2199901Y-5140000D02*
X2194998Y-5139880D01*
X1851459Y-2905787D02*
X1847192Y-2908204D01*
X1888204Y-2772807D02*
X1890408Y-2777187D01*
X1809892Y-4840481D02*
X1814758Y-4841081D01*
X501081Y-4224758D02*
X500481Y-4219892D01*
X2114213Y-3828541D02*
X2116836Y-3824398D01*
X783164Y-1085601D02*
X780340Y-1089610D01*
X3424374Y-3452994D02*
X3429099Y-3454302D01*
X3442813Y-1339591D02*
X3447192Y-1341796D01*
X544399Y-5123164D02*
X540390Y-5120340D01*
X774121Y-2422811D02*
X777324Y-2426524D01*
X544399Y-4526836D02*
X548541Y-4524213D01*
X2157187Y-790408D02*
X2152807Y-788204D01*
X755601Y-1346836D02*
X759610Y-1349660D01*
X501919Y-1410410D02*
X502994Y-1405626D01*
X3236524Y-3472676D02*
X3240390Y-3469659D01*
X516836Y-2434399D02*
X519659Y-2430390D01*
X1847192Y-3791796D02*
X1851459Y-3794213D01*
X2125879Y-1692811D02*
X2129260Y-1689260D01*
X566245Y-3455840D02*
X570901Y-3454302D01*
X1898080Y-1779589D02*
X1897006Y-1784374D01*
X799880Y-3544998D02*
X800000Y-3549901D01*
X1900000Y-700099D02*
X1899880Y-705002D01*
X3987561Y-51808D02*
X3983778Y-45496D01*
X3500000Y-4609901D02*
X3500000Y-5040099D01*
X1890408Y-1802813D02*
X1888204Y-1807192D01*
X62887Y-5632801D02*
X69816Y-5635280D01*
X594998Y-3450120D02*
X599901Y-3450000D01*
X2114213Y-2871459D02*
X2111796Y-2867192D01*
X3490408Y-557187D02*
X3492395Y-561670D01*
X1880340Y-759610D02*
X1877324Y-763476D01*
X3204302Y-4239099D02*
X3202994Y-4234374D01*
X3995992Y-72160D02*
X3995666Y-70983D01*
X532811Y-5114121D02*
X529260Y-5110740D01*
X1897006Y-575626D02*
X1898080Y-580410D01*
X2129260Y-3950740D02*
X2125879Y-3947189D01*
X1814758Y-4841081D02*
X1819589Y-4841920D01*
X552807Y-2178204D02*
X548541Y-2175787D01*
X724374Y-3247006D02*
X719589Y-3248080D01*
X3492395Y-2451670D02*
X3494160Y-2456245D01*
X16223Y-5594506D02*
X16877Y-5595538D01*
X1895698Y-570901D02*
X1897006Y-575626D01*
X2170901Y-4844302D02*
X2175626Y-4842994D01*
X0Y-101227D02*
X0Y-5538773D01*
X1847192Y-3968204D02*
X1842813Y-3970408D01*
X1899519Y-1769892D02*
X1898919Y-1774758D01*
X1851459Y-5125787D02*
X1847192Y-5128204D01*
X1859610Y-4859660D02*
X1863476Y-4862676D01*
X1838330Y-507604D02*
X1842813Y-509591D01*
X599901Y-4510000D02*
X700099Y-4510000D01*
X1888204Y-1712807D02*
X1890408Y-1717187D01*
X3205840Y-2123755D02*
X3204302Y-2119099D01*
X742813Y-3459591D02*
X747192Y-3461796D01*
X2199901Y-1660000D02*
X3198773Y-1660000D01*
X3983777Y-45493D02*
X3983123Y-44462D01*
X91424Y-5639579D02*
X98774Y-5639940D01*
X798080Y-3169589D02*
X797006Y-3174374D01*
X3229260Y-2160740D02*
X3225879Y-2157189D01*
X3970688Y-29309D02*
X3969803Y-28467D01*
X2122676Y-536524D02*
X2125879Y-532811D01*
X519659Y-4550390D02*
X522676Y-4546524D01*
X37544Y-21969D02*
X36582Y-22721D01*
X1809892Y-2720481D02*
X1814758Y-2721081D01*
X2180410Y-2918080D02*
X2175626Y-2917006D01*
X552807Y-5128204D02*
X548541Y-5125787D01*
X519659Y-3490390D02*
X522676Y-3486524D01*
X1814758Y-798919D02*
X1809892Y-799519D01*
X1897006Y-1735626D02*
X1898080Y-1740410D01*
X1898919Y-3865242D02*
X1899519Y-3870108D01*
X3219659Y-2149610D02*
X3216836Y-2145601D01*
X3236524Y-2167324D02*
X3232811Y-2164121D01*
X69816Y-4719D02*
X62887Y-7198D01*
X3200481Y-4219892D02*
X3200120Y-4215002D01*
X3998258Y-81703D02*
X3998049Y-80499D01*
X1883164Y-544399D02*
X1885787Y-548541D01*
X1877324Y-763476D02*
X1874121Y-767189D01*
X1890408Y-5082813D02*
X1888204Y-5087193D01*
X3492395Y-1391670D02*
X3494160Y-1396245D01*
X80499Y-5638049D02*
X81703Y-5638258D01*
X3498919Y-3164758D02*
X3498080Y-3169589D01*
X3483164Y-2145601D02*
X3480340Y-2149610D01*
X738330Y-2182396D02*
X733755Y-2184160D01*
X1829099Y-1664302D02*
X1833755Y-1665840D01*
X795698Y-2460901D02*
X797006Y-2465626D01*
X1819589Y-501919D02*
X1824374Y-502994D01*
X2152807Y-1848204D02*
X2148541Y-1845787D01*
X759610Y-1349660D02*
X763476Y-1352676D01*
X2152807Y-2731796D02*
X2157187Y-2729591D01*
X552807Y-1118204D02*
X548541Y-1115787D01*
X1880340Y-5099610D02*
X1877324Y-5103476D01*
X1899880Y-2825002D02*
X1899519Y-2829892D01*
X3499880Y-5045002D02*
X3499519Y-5049892D01*
X2136524Y-2897324D02*
X2132811Y-2894121D01*
X519659Y-4269610D02*
X516836Y-4265601D01*
X795698Y-2119099D02*
X794160Y-2123755D01*
X3470740Y-1100740D02*
X3467189Y-1104121D01*
X11833Y-52877D02*
X11284Y-53967D01*
X700099Y-2190000D02*
X599901Y-2190000D01*
X509591Y-2132813D02*
X507604Y-2128330D01*
X1819589Y-5138080D02*
X1814758Y-5138919D01*
X557187Y-3459591D02*
X561670Y-3457604D01*
X1870740Y-2749260D02*
X1874121Y-2752811D01*
X570901Y-4514302D02*
X575626Y-4512994D01*
X536524Y-3227324D02*
X532811Y-3224121D01*
X43457Y-17584D02*
X37546Y-21968D01*
X3946032Y-5628716D02*
X3947123Y-5628167D01*
X709892Y-3249519D02*
X705002Y-3249880D01*
X3232811Y-2164121D02*
X3229260Y-2160740D01*
X780340Y-4269610D02*
X777324Y-4273476D01*
X785787Y-4261459D02*
X783164Y-4265601D01*
X3963422Y-5617276D02*
X3964347Y-5616478D01*
X1874121Y-767189D02*
X1870740Y-770740D01*
X790408Y-1072813D02*
X788204Y-1077193D01*
X2148541Y-2734213D02*
X2152807Y-2731796D01*
X552807Y-3461796D02*
X557187Y-3459591D01*
X747192Y-4521796D02*
X751459Y-4524213D01*
X3490408Y-4252813D02*
X3488204Y-4257193D01*
X505840Y-2123755D02*
X504302Y-2119099D01*
X700099Y-2390000D02*
X705002Y-2390120D01*
X714758Y-4511081D02*
X719589Y-4511920D01*
X2111796Y-747192D02*
X2109591Y-742813D01*
X724374Y-1332994D02*
X729099Y-1334302D01*
X3222676Y-1093476D02*
X3219659Y-1089610D01*
X2100481Y-709892D02*
X2100120Y-705002D01*
X719589Y-4511920D02*
X724374Y-4512994D01*
X3438330Y-1337604D02*
X3442813Y-1339591D01*
X1829099Y-2915698D02*
X1824374Y-2917006D01*
X1838330Y-792395D02*
X1833755Y-794160D01*
X590108Y-4309519D02*
X585242Y-4308919D01*
X790408Y-2447187D02*
X792395Y-2451670D01*
X1851459Y-514213D02*
X1855601Y-516836D01*
X2161670Y-2912395D02*
X2157187Y-2910408D01*
X3236524Y-4532676D02*
X3240390Y-4529660D01*
X2194998Y-2720120D02*
X2199901Y-2720000D01*
X3488204Y-552807D02*
X3490408Y-557187D01*
X3470740Y-3479260D02*
X3474121Y-3482811D01*
X519659Y-1370390D02*
X522676Y-1366524D01*
X599901Y-4310000D02*
X594998Y-4309880D01*
X525879Y-2422811D02*
X529260Y-2419260D01*
X561670Y-1337604D02*
X566245Y-1335840D01*
X800000Y-1658775D02*
X800027Y-1659875D01*
X580410Y-2188080D02*
X575626Y-2187006D01*
X700099Y-1130000D02*
X599901Y-1130000D01*
X3954506Y-5623777D02*
X3955538Y-5623123D01*
X2116836Y-5095601D02*
X2114213Y-5091459D01*
X575626Y-2187006D02*
X570901Y-2185698D01*
X2170901Y-3975698D02*
X2166245Y-3974160D01*
X500000Y-5040099D02*
X500000Y-4609901D01*
X3467189Y-5114121D02*
X3463476Y-5117324D01*
X2119660Y-759610D02*
X2116836Y-755601D01*
X3244398Y-2406836D02*
X3248541Y-2404213D01*
X2199901Y-500000D02*
X3400099Y-500000D01*
X536524Y-1352676D02*
X540390Y-1349660D01*
X3198773Y-1860000D02*
X2199901Y-1860000D01*
X3200000Y-3549901D02*
X3200120Y-3544998D01*
X799880Y-4215002D02*
X799519Y-4219892D01*
X501081Y-585242D02*
X501919Y-580410D01*
X2185242Y-1661081D02*
X2190108Y-1660481D01*
X580410Y-501919D02*
X585242Y-501081D01*
X1895698Y-1789099D02*
X1894160Y-1793755D01*
X2136524Y-4862676D02*
X2140390Y-4859660D01*
X1888204Y-747192D02*
X1885787Y-751459D01*
X2102994Y-575626D02*
X2104302Y-570901D01*
X3270900Y-1125698D02*
X3266245Y-1124160D01*
X3261670Y-1337604D02*
X3266245Y-1335840D01*
X3497006Y-1054374D02*
X3495698Y-1059099D01*
X1895698Y-5069099D02*
X1894160Y-5073755D01*
X53970Y-5628717D02*
X60622Y-5631863D01*
X3199875Y-800027D02*
X3198775Y-800000D01*
X525879Y-3482811D02*
X529260Y-3479260D01*
X1867189Y-3805879D02*
X1870740Y-3809260D01*
X3488204Y-4257193D02*
X3485787Y-4261459D01*
X3414758Y-2391081D02*
X3419589Y-2391920D01*
X763476Y-4532676D02*
X767189Y-4535879D01*
X3294998Y-2390120D02*
X3299901Y-2390000D01*
X3477324Y-536524D02*
X3480340Y-540390D01*
X2100120Y-1765002D02*
X2100000Y-1760099D01*
X792395Y-3188330D02*
X790408Y-3192813D01*
X3497006Y-3525626D02*
X3498080Y-3530410D01*
X3898775Y-5640000D02*
X3901223Y-5639940D01*
X2194998Y-3780120D02*
X2199901Y-3780000D01*
X507604Y-2128330D02*
X505840Y-2123755D01*
X1819589Y-1661919D02*
X1824374Y-1662994D01*
X516836Y-4265601D02*
X514213Y-4261459D01*
X3244398Y-3466836D02*
X3248541Y-3464213D01*
X1833755Y-3785840D02*
X1838330Y-3787604D01*
X1842813Y-790408D02*
X1838330Y-792395D01*
X3419589Y-3248080D02*
X3414758Y-3248919D01*
X801225Y-800000D02*
X800124Y-800027D01*
X3201081Y-3164758D02*
X3200481Y-3159892D01*
X3294998Y-1330120D02*
X3299901Y-1330000D01*
X780340Y-2430390D02*
X783164Y-2434399D01*
X2166245Y-2725840D02*
X2170901Y-2724302D01*
X3204302Y-3520900D02*
X3205840Y-3516245D01*
X3451459Y-3464213D02*
X3455601Y-3466836D01*
X69818Y-5635281D02*
X70978Y-5635664D01*
X30199Y-5611535D02*
X35651Y-5616477D01*
X561670Y-5132396D02*
X557187Y-5130409D01*
X798919Y-4224758D02*
X798080Y-4229590D01*
X2161670Y-3787604D02*
X2166245Y-3785840D01*
X1805002Y-1859880D02*
X1800099Y-1860000D01*
X3205840Y-4243755D02*
X3204302Y-4239099D01*
X3225879Y-4542811D02*
X3229260Y-4539260D01*
X35653Y-5616478D02*
X36578Y-5617276D01*
X2107604Y-738330D02*
X2105840Y-733755D01*
X2180410Y-5138080D02*
X2175626Y-5137006D01*
X599901Y-5140000D02*
X594998Y-5139880D01*
X3225879Y-2422811D02*
X3229260Y-2419260D01*
X60622Y-8137D02*
X53970Y-11283D01*
X1883164Y-4884399D02*
X1885787Y-4888541D01*
X2161670Y-2727604D02*
X2166245Y-2725840D01*
X1898919Y-4925242D02*
X1899519Y-4930108D01*
X798080Y-4590410D02*
X798919Y-4595242D01*
X3495698Y-4239099D02*
X3494160Y-4243755D01*
X3929022Y-5635664D02*
X3930182Y-5635281D01*
X2101920Y-2800410D02*
X2102994Y-2795626D01*
X3455601Y-4526836D02*
X3459610Y-4529660D01*
X3409892Y-1330481D02*
X3414758Y-1331081D01*
X1855601Y-1843164D02*
X1851459Y-1845787D01*
X509591Y-4567187D02*
X511796Y-4562807D01*
X3199875Y-3980027D02*
X3198775Y-3980000D01*
X1900000Y-3879901D02*
X1900000Y-3880099D01*
X2152807Y-788204D02*
X2148541Y-785787D01*
X2175626Y-5137006D02*
X2170901Y-5135698D01*
X1898919Y-1745242D02*
X1899519Y-1750108D01*
X3997780Y-79301D02*
X3995992Y-72162D01*
X3216836Y-4265601D02*
X3214213Y-4261459D01*
X3261670Y-2182396D02*
X3257187Y-2180409D01*
X1892395Y-1721670D02*
X1894160Y-1726245D01*
X1870740Y-1689260D02*
X1874121Y-1692811D01*
X1900000Y-2819901D02*
X1900000Y-2820099D01*
X3248541Y-1115787D02*
X3244398Y-1113164D01*
X590108Y-2189519D02*
X585242Y-2188919D01*
X794160Y-1396245D02*
X795698Y-1400900D01*
X3299901Y-2190000D02*
X3294998Y-2189880D01*
X2190108Y-500481D02*
X2194998Y-500120D01*
X536524Y-2412676D02*
X540390Y-2409660D01*
X1892395Y-561670D02*
X1894160Y-566245D01*
X3285242Y-3451081D02*
X3290108Y-3450481D01*
X529260Y-2419260D02*
X532811Y-2415879D01*
X801227Y-1660000D02*
X1800099Y-1660000D01*
X511Y-90204D02*
X421Y-91422D01*
X3236524Y-2412676D02*
X3240390Y-2409660D01*
X3290108Y-4309519D02*
X3285242Y-4308919D01*
X3499880Y-2484998D02*
X3500000Y-2489901D01*
X3207604Y-4248330D02*
X3205840Y-4243755D01*
X2107604Y-561670D02*
X2109591Y-557187D01*
X3409892Y-1129519D02*
X3405002Y-1129880D01*
X2101920Y-580410D02*
X2102994Y-575626D01*
X2157187Y-3789591D02*
X2161670Y-3787604D01*
X1847192Y-2731796D02*
X1851459Y-2734213D01*
X3201919Y-3530410D02*
X3202994Y-3525626D01*
X3244398Y-1113164D02*
X3240390Y-1110340D01*
X1885787Y-751459D02*
X1883164Y-755601D01*
X2122676Y-3943476D02*
X2119660Y-3939610D01*
X1898080Y-5059590D02*
X1897006Y-5064374D01*
X98777Y-5639940D02*
X101225Y-5640000D01*
X3947123Y-11833D02*
X3946032Y-11284D01*
X3467189Y-525879D02*
X3470740Y-529260D01*
X2101920Y-5059590D02*
X2101081Y-5054758D01*
X29309Y-29312D02*
X28467Y-30197D01*
X3442813Y-2180409D02*
X3438330Y-2182396D01*
X3414758Y-3451081D02*
X3419589Y-3451919D01*
X2166245Y-1665840D02*
X2170901Y-1664302D01*
X3400099Y-4510000D02*
X3405002Y-4510120D01*
X1899880Y-1765002D02*
X1899519Y-1769892D01*
X500120Y-2095002D02*
X500000Y-2090099D01*
X797006Y-2465626D02*
X798080Y-2470410D01*
X1880340Y-2760390D02*
X1883164Y-2764399D01*
X1895698Y-2790901D02*
X1897006Y-2795626D01*
X3495698Y-2460901D02*
X3497006Y-2465626D01*
X1892395Y-5078330D02*
X1890408Y-5082813D01*
X594998Y-4510120D02*
X599901Y-4510000D01*
X502994Y-4234374D02*
X501919Y-4229590D01*
X1900000Y-5040099D02*
X1899880Y-5045002D01*
X1885787Y-2871459D02*
X1883164Y-2875601D01*
X3222676Y-3213476D02*
X3219659Y-3209610D01*
X3200481Y-1039892D02*
X3200120Y-1035002D01*
X561670Y-4302396D02*
X557187Y-4300409D01*
X794160Y-2456245D02*
X795698Y-2460901D01*
X566245Y-4304160D02*
X561670Y-4302396D01*
X3964347Y-23521D02*
X3963422Y-22724D01*
X3930182Y-4719D02*
X3929022Y-4336D01*
X2111796Y-2867192D02*
X2109591Y-2862813D01*
X501919Y-3169589D02*
X501081Y-3164758D01*
X2100120Y-3885002D02*
X2100000Y-3880099D01*
X500481Y-2480108D02*
X501081Y-2475242D01*
X3983778Y-5594504D02*
X3987561Y-5588192D01*
X2185242Y-1858919D02*
X2180410Y-1858080D01*
X3232811Y-4284121D02*
X3229260Y-4280740D01*
X3211796Y-4562807D02*
X3214213Y-4558541D01*
X514213Y-2438541D02*
X516836Y-2434399D01*
X2180410Y-4841920D02*
X2185242Y-4841081D01*
X3477324Y-4273476D02*
X3474121Y-4277189D01*
X3499880Y-4604998D02*
X3500000Y-4609901D01*
X3470740Y-2419260D02*
X3474121Y-2422811D01*
X2125879Y-3812811D02*
X2129260Y-3809260D01*
X3474121Y-5107189D02*
X3470740Y-5110740D01*
X1894160Y-1793755D02*
X1892395Y-1798330D01*
X1855601Y-3796836D02*
X1859610Y-3799659D01*
X3229260Y-1100740D02*
X3225879Y-1097189D01*
X525879Y-532811D02*
X529260Y-529260D01*
X1859610Y-780340D02*
X1855601Y-783164D01*
X3467189Y-2164121D02*
X3463476Y-2167324D01*
X536524Y-5117324D02*
X532811Y-5114121D01*
X3495698Y-1059099D02*
X3494160Y-1063755D01*
X3205840Y-4576245D02*
X3207604Y-4571670D01*
X2107604Y-2781670D02*
X2109591Y-2777187D01*
X3285242Y-4308919D02*
X3280410Y-4308080D01*
X1880340Y-3939610D02*
X1877324Y-3943476D01*
X2194998Y-4840120D02*
X2199901Y-4840000D01*
X798080Y-1049590D02*
X797006Y-1054374D01*
X767189Y-2415879D02*
X770740Y-2419260D01*
X1867189Y-1685879D02*
X1870740Y-1689260D01*
X3474121Y-1362811D02*
X3477324Y-1366524D01*
X3490408Y-1072813D02*
X3488204Y-1077193D01*
X3477324Y-1093476D02*
X3474121Y-1097189D01*
X1899519Y-3889892D02*
X1898919Y-3894758D01*
X3976477Y-35651D02*
X3971535Y-30199D01*
X590108Y-1129519D02*
X585242Y-1128919D01*
X3200000Y-3981225D02*
X3199973Y-3980124D01*
X1885787Y-3828541D02*
X1888204Y-3832807D01*
X3222676Y-2153476D02*
X3219659Y-2149610D01*
X90199Y-512D02*
X88987Y-661D01*
X3459610Y-3469659D02*
X3463476Y-3472676D01*
X2122676Y-3816524D02*
X2125879Y-3812811D01*
X1899880Y-705002D02*
X1899519Y-709892D01*
X501081Y-4595242D02*
X501919Y-4590410D01*
X532811Y-2164121D02*
X529260Y-2160740D01*
X3495698Y-3179099D02*
X3494160Y-3183755D01*
X3201081Y-3535242D02*
X3201919Y-3530410D01*
X767189Y-1104121D02*
X763476Y-1107324D01*
X522676Y-2153476D02*
X519659Y-2149610D01*
X729099Y-3245698D02*
X724374Y-3247006D01*
X1824374Y-502994D02*
X1829099Y-504302D01*
X1842813Y-2729591D02*
X1847192Y-2731796D01*
X1897006Y-4915626D02*
X1898080Y-4920410D01*
X2109591Y-1802813D02*
X2107604Y-1798330D01*
X1833755Y-2725840D02*
X1838330Y-2727604D01*
X1890408Y-3837187D02*
X1892395Y-3841670D01*
X770740Y-3479260D02*
X774121Y-3482811D01*
X3498080Y-3530410D02*
X3498919Y-3535242D01*
X3459610Y-1349660D02*
X3463476Y-1352676D01*
X3999339Y-5551013D02*
X3999488Y-5549801D01*
X770740Y-3220740D02*
X767189Y-3224121D01*
X544399Y-1113164D02*
X540390Y-1110340D01*
X3463476Y-2167324D02*
X3459610Y-2170340D01*
X1842813Y-5130409D02*
X1838330Y-5132396D01*
X729099Y-3454302D02*
X733755Y-3455840D01*
X525879Y-5107189D02*
X522676Y-5103476D01*
X3497006Y-4585626D02*
X3498080Y-4590410D01*
X540390Y-3230340D02*
X536524Y-3227324D01*
X502994Y-1054374D02*
X501919Y-1049590D01*
X501919Y-1049590D02*
X501081Y-1044758D01*
X1883164Y-3935601D02*
X1880340Y-3939610D01*
X2109591Y-2777187D02*
X2111796Y-2772807D01*
X3252807Y-4521796D02*
X3257187Y-4519591D01*
X800000Y-3150099D02*
X799880Y-3155002D01*
X1842813Y-4849591D02*
X1847192Y-4851796D01*
X1890408Y-2777187D02*
X1892395Y-2781670D01*
X1888204Y-5087193D02*
X1885787Y-5091459D01*
X1819589Y-1858080D02*
X1814758Y-1858919D01*
X599901Y-3250000D02*
X594998Y-3249880D01*
X1819589Y-798080D02*
X1814758Y-798919D01*
X1874121Y-5107189D02*
X1870740Y-5110740D01*
X3261670Y-3242395D02*
X3257187Y-3240408D01*
X3204302Y-1059099D02*
X3202994Y-1054374D01*
X2100481Y-2829892D02*
X2100120Y-2825002D01*
X2152807Y-2908204D02*
X2148541Y-2905787D01*
X2101081Y-5054758D02*
X2100481Y-5049892D01*
X1874121Y-532811D02*
X1877324Y-536524D01*
X1890408Y-2862813D02*
X1888204Y-2867192D01*
X3216836Y-1085601D02*
X3214213Y-1081459D01*
X794160Y-3516245D02*
X795698Y-3520900D01*
X759610Y-4529660D02*
X763476Y-4532676D01*
X570901Y-2185698D02*
X566245Y-2184160D01*
X3429099Y-4305698D02*
X3424374Y-4307006D01*
X2148541Y-2905787D02*
X2144399Y-2903164D01*
X3275626Y-1332994D02*
X3280410Y-1331920D01*
X2166245Y-1854160D02*
X2161670Y-1852395D01*
X3919505Y-5638048D02*
X3920697Y-5637781D01*
X3483164Y-3205601D02*
X3480340Y-3209610D01*
X801227Y-3780000D02*
X1800099Y-3780000D01*
X801227Y-2720000D02*
X1800099Y-2720000D01*
X3214213Y-3498541D02*
X3216836Y-3494398D01*
X3400099Y-500000D02*
X3405002Y-500120D01*
X774121Y-1097189D02*
X770740Y-1100740D01*
X525879Y-1362811D02*
X529260Y-1359260D01*
X3200000Y-1658773D02*
X3200000Y-1429901D01*
X3252807Y-2178204D02*
X3248541Y-2175787D01*
X2166245Y-3974160D02*
X2161670Y-3972395D01*
X548541Y-1115787D02*
X544399Y-1113164D01*
X3499519Y-2480108D02*
X3499880Y-2484998D01*
X755601Y-3466836D02*
X759610Y-3469659D01*
X529260Y-5110740D02*
X525879Y-5107189D01*
X500481Y-2099892D02*
X500120Y-2095002D01*
X2144399Y-1676836D02*
X2148541Y-1674213D01*
X585242Y-3451081D02*
X590108Y-3450481D01*
X2144399Y-1843164D02*
X2140390Y-1840340D01*
X3995666Y-5569017D02*
X3995992Y-5567840D01*
X3200000Y-4838773D02*
X3200000Y-4609901D01*
X1894160Y-5073755D02*
X1892395Y-5078330D01*
X780340Y-1370390D02*
X783164Y-1374399D01*
X1847192Y-4851796D02*
X1851459Y-4854213D01*
X1863476Y-522676D02*
X1867189Y-525879D01*
X798919Y-1044758D02*
X798080Y-1049590D01*
X1877324Y-536524D02*
X1880340Y-540390D01*
X3199875Y-2920027D02*
X3198775Y-2920000D01*
X700099Y-1330000D02*
X705002Y-1330120D01*
X2104302Y-3850900D02*
X2105840Y-3846245D01*
X785787Y-2141459D02*
X783164Y-2145601D01*
X3455601Y-3233164D02*
X3451459Y-3235787D01*
X3214213Y-1081459D02*
X3211796Y-1077193D01*
X3199973Y-4839875D02*
X3200000Y-4838775D01*
X3455601Y-4293164D02*
X3451459Y-4295787D01*
X599901Y-1330000D02*
X700099Y-1330000D01*
X1805002Y-4840120D02*
X1809892Y-4840481D01*
X548541Y-4524213D02*
X552807Y-4521796D01*
X3477324Y-2426524D02*
X3480340Y-2430390D01*
X1838330Y-1852395D02*
X1833755Y-1854160D01*
X557187Y-1339591D02*
X561670Y-1337604D01*
X79301Y-2220D02*
X72162Y-4008D01*
X3207604Y-2128330D02*
X3205840Y-2123755D01*
X516836Y-544399D02*
X519659Y-540390D01*
X2194998Y-5139880D02*
X2190108Y-5139519D01*
X540390Y-5120340D02*
X536524Y-5117324D01*
X509591Y-2447187D02*
X511796Y-2442807D01*
X1855601Y-516836D02*
X1859610Y-519659D01*
X751459Y-2175787D02*
X747192Y-2178204D01*
X3463476Y-5117324D02*
X3459610Y-5120340D01*
X3290108Y-1330481D02*
X3294998Y-1330120D01*
X1898080Y-2800410D02*
X1898919Y-2805242D01*
X794160Y-4576245D02*
X795698Y-4580901D01*
X3200000Y-1030099D02*
X3200000Y-801227D01*
X2111796Y-5087193D02*
X2109591Y-5082813D01*
X23523Y-5604349D02*
X28465Y-5609801D01*
X45496Y-5623778D02*
X51808Y-5627561D01*
X3442813Y-4300409D02*
X3438330Y-4302396D01*
X3463476Y-1352676D02*
X3467189Y-1355879D01*
X22724Y-5603422D02*
X23521Y-5604347D01*
X3498080Y-5059590D02*
X3497006Y-5064374D01*
X1814758Y-1858919D02*
X1809892Y-1859519D01*
X516836Y-3494398D02*
X519659Y-3490390D01*
X2109591Y-3837187D02*
X2111796Y-3832807D01*
X774121Y-3482811D02*
X777324Y-3486524D01*
X11284Y-5586032D02*
X11833Y-5587123D01*
X1892395Y-738330D02*
X1890408Y-742813D01*
X2100000Y-700099D02*
X2100000Y-599901D01*
X788204Y-1382807D02*
X790408Y-1387187D01*
X3232811Y-3224121D02*
X3229260Y-3220740D01*
X3280410Y-4308080D02*
X3275626Y-4307006D01*
X1898919Y-5054758D02*
X1898080Y-5059590D01*
X719589Y-2188080D02*
X714758Y-2188919D01*
X1894160Y-4906245D02*
X1895698Y-4910901D01*
X421Y-91424D02*
X60Y-98774D01*
X1863476Y-2897324D02*
X1859610Y-2900340D01*
X1741Y-81705D02*
X662Y-88984D01*
X2161670Y-507604D02*
X2166245Y-505840D01*
X1899519Y-590108D02*
X1899880Y-594998D01*
X3209591Y-2132813D02*
X3207604Y-2128330D01*
X783164Y-1374399D02*
X785787Y-1378541D01*
X575626Y-3247006D02*
X570901Y-3245698D01*
X763476Y-2167324D02*
X759610Y-2170340D01*
X3492395Y-2128330D02*
X3490408Y-2132813D01*
X2107604Y-4901670D02*
X2109591Y-4897187D01*
X1899519Y-3870108D02*
X1899880Y-3874998D01*
X3492395Y-561670D02*
X3494160Y-566245D01*
X522676Y-536524D02*
X525879Y-532811D01*
X1824374Y-5137006D02*
X1819589Y-5138080D01*
X1898919Y-585242D02*
X1899519Y-590108D01*
X714758Y-4308919D02*
X709892Y-4309519D01*
X747192Y-1118204D02*
X742813Y-1120409D01*
X3901223Y-60D02*
X3898775Y0D01*
X1885787Y-548541D02*
X1888204Y-552807D01*
X709892Y-2390481D02*
X714758Y-2391081D01*
X2136524Y-522676D02*
X2140390Y-519659D01*
X3219659Y-1089610D02*
X3216836Y-1085601D01*
X2148541Y-785787D02*
X2144399Y-783164D01*
X3248541Y-1344213D02*
X3252807Y-1341796D01*
X3229260Y-3220740D02*
X3225879Y-3217189D01*
X1898080Y-580410D02*
X1898919Y-585242D01*
X2129260Y-5110740D02*
X2125879Y-5107189D01*
X514213Y-1378541D02*
X516836Y-1374399D01*
X3257187Y-1339591D02*
X3261670Y-1337604D01*
X1897006Y-1784374D02*
X1895698Y-1789099D01*
X3433755Y-2395840D02*
X3438330Y-2397604D01*
X500000Y-2090099D02*
X500000Y-1429901D01*
X2111796Y-2772807D02*
X2114213Y-2768541D01*
X3200120Y-4215002D02*
X3200000Y-4210099D01*
X3498919Y-1044758D02*
X3498080Y-1049590D01*
X709892Y-3450481D02*
X714758Y-3451081D01*
X2136524Y-3957324D02*
X2132811Y-3954121D01*
X561670Y-1122396D02*
X557187Y-1120409D01*
X1814758Y-5138919D02*
X1809892Y-5139519D01*
X1824374Y-1662994D02*
X1829099Y-1664302D01*
X2114213Y-1811459D02*
X2111796Y-1807192D01*
X1897006Y-724374D02*
X1895698Y-729099D01*
X501919Y-4590410D02*
X502994Y-4585626D01*
X1829099Y-3975698D02*
X1824374Y-3977006D01*
X742813Y-3240408D02*
X738330Y-3242395D01*
X500481Y-590108D02*
X501081Y-585242D01*
X501081Y-2104758D02*
X500481Y-2099892D01*
X751459Y-1344213D02*
X755601Y-1346836D01*
X3485787Y-2438541D02*
X3488204Y-2442807D01*
X60Y-5541226D02*
X421Y-5548576D01*
X561670Y-507604D02*
X566245Y-505840D01*
X1805002Y-500120D02*
X1809892Y-500481D01*
X3248541Y-4295787D02*
X3244398Y-4293164D01*
X2122676Y-1696524D02*
X2125879Y-1692811D01*
X3998049Y-5559501D02*
X3998258Y-5558297D01*
X1805002Y-3780120D02*
X1809892Y-3780481D01*
X661Y-88987D02*
X512Y-90199D01*
X3474121Y-4542811D02*
X3477324Y-4546524D01*
X2102994Y-4915626D02*
X2104302Y-4910901D01*
X733755Y-1335840D02*
X738330Y-1337604D01*
X3419589Y-1128080D02*
X3414758Y-1128919D01*
X514213Y-3201459D02*
X511796Y-3197192D01*
X798919Y-2104758D02*
X798080Y-2109590D01*
X3499519Y-3540108D02*
X3499880Y-3544998D01*
X801225Y-2920000D02*
X800124Y-2920027D01*
X522676Y-2426524D02*
X525879Y-2422811D01*
X2185242Y-2721081D02*
X2190108Y-2720481D01*
X797006Y-3174374D02*
X795698Y-3179099D01*
X501081Y-3164758D02*
X500481Y-3159892D01*
X3205840Y-1063755D02*
X3204302Y-1059099D01*
X4000000Y-5538773D02*
X4000000Y-101227D01*
X2148541Y-514213D02*
X2152807Y-511796D01*
X3908576Y-421D02*
X3901226Y-60D01*
X1847192Y-2908204D02*
X1842813Y-2910408D01*
X3419589Y-4308080D02*
X3414758Y-4308919D01*
X1809892Y-3780481D02*
X1814758Y-3781081D01*
X799519Y-1039892D02*
X798919Y-1044758D01*
X3409892Y-4309519D02*
X3405002Y-4309880D01*
X3500000Y-4210099D02*
X3499880Y-4215002D01*
X561670Y-3457604D02*
X566245Y-3455840D01*
X788204Y-2137193D02*
X785787Y-2141459D01*
X3275626Y-3452994D02*
X3280410Y-3451919D01*
X3240390Y-3469659D02*
X3244398Y-3466836D01*
X502994Y-5064374D02*
X501919Y-5059590D01*
X2132811Y-4865879D02*
X2136524Y-4862676D01*
X3498919Y-5054758D02*
X3498080Y-5059590D01*
X1898919Y-3894758D02*
X1898080Y-3899589D01*
X3480340Y-5099610D02*
X3477324Y-5103476D01*
X795698Y-1059099D02*
X794160Y-1063755D01*
X3447192Y-1118204D02*
X3442813Y-1120409D01*
X3214213Y-1378541D02*
X3216836Y-1374399D01*
X3225879Y-3217189D02*
X3222676Y-3213476D01*
X3498919Y-1415242D02*
X3499519Y-1420108D01*
X3483164Y-4265601D02*
X3480340Y-4269610D01*
X2136524Y-3802676D02*
X2140390Y-3799659D01*
X500120Y-594998D02*
X500481Y-590108D01*
X3947128Y-5628164D02*
X3948190Y-5627562D01*
X2104302Y-5069099D02*
X2102994Y-5064374D01*
X3405002Y-3249880D02*
X3400099Y-3250000D01*
X3209591Y-3192813D02*
X3207604Y-3188330D01*
X3937113Y-7198D02*
X3930184Y-4719D01*
X1809892Y-2919519D02*
X1805002Y-2919880D01*
X790408Y-1387187D02*
X792395Y-1391670D01*
X755601Y-2173164D02*
X751459Y-2175787D01*
X3400099Y-1330000D02*
X3405002Y-1330120D01*
X794160Y-4243755D02*
X792395Y-4248330D01*
X3467189Y-4535879D02*
X3470740Y-4539260D01*
X1899880Y-3874998D02*
X1900000Y-3879901D01*
X3463476Y-1107324D02*
X3459610Y-1110340D01*
X570901Y-1125698D02*
X566245Y-1124160D01*
X714758Y-1331081D02*
X719589Y-1331920D01*
X1842813Y-3970408D02*
X1838330Y-3972395D01*
X1899880Y-1754998D02*
X1900000Y-1759901D01*
X777324Y-4546524D02*
X780340Y-4550390D01*
X3477324Y-3213476D02*
X3474121Y-3217189D01*
X548541Y-3235787D02*
X544399Y-3233164D01*
X3200000Y-4210099D02*
X3200000Y-3981227D01*
X3447192Y-4521796D02*
X3451459Y-4524213D01*
X3225879Y-2157189D02*
X3222676Y-2153476D01*
X2180410Y-2721920D02*
X2185242Y-2721081D01*
X2194998Y-799880D02*
X2190108Y-799519D01*
X594998Y-1129880D02*
X590108Y-1129519D01*
X557187Y-5130409D02*
X552807Y-5128204D01*
X3477324Y-1366524D02*
X3480340Y-1370390D01*
X785787Y-4558541D02*
X788204Y-4562807D01*
X2161670Y-1667604D02*
X2166245Y-1665840D01*
X1874121Y-4872811D02*
X1877324Y-4876524D01*
X3488204Y-3502807D02*
X3490408Y-3507187D01*
X785787Y-3201459D02*
X783164Y-3205601D01*
X3927840Y-5635992D02*
X3929017Y-5635666D01*
X1855601Y-4856836D02*
X1859610Y-4859660D01*
X747192Y-3238204D02*
X742813Y-3240408D01*
X729099Y-2185698D02*
X724374Y-2187006D01*
X2111796Y-1712807D02*
X2114213Y-1708541D01*
X2116836Y-755601D02*
X2114213Y-751459D01*
X12437Y-51810D02*
X11836Y-52872D01*
X797006Y-4234374D02*
X795698Y-4239099D01*
X501081Y-1415242D02*
X501919Y-1410410D01*
X3447192Y-3238204D02*
X3442813Y-3240408D01*
X1888204Y-3927192D02*
X1885787Y-3931459D01*
X751459Y-4524213D02*
X755601Y-4526836D01*
X3485787Y-3498541D02*
X3488204Y-3502807D01*
X1950Y-80499D02*
X1742Y-81703D01*
X3200481Y-1420108D02*
X3201081Y-1415242D01*
X1833755Y-4845840D02*
X1838330Y-4847604D01*
X548541Y-5125787D02*
X544399Y-5123164D01*
X516836Y-2145601D02*
X514213Y-2141459D01*
X770740Y-1359260D02*
X774121Y-1362811D01*
X1800099Y-2720000D02*
X1805002Y-2720120D01*
X516836Y-1085601D02*
X514213Y-1081459D01*
X2101920Y-3899589D02*
X2101081Y-3894758D01*
X3499519Y-4600108D02*
X3499880Y-4604998D01*
X2109591Y-2862813D02*
X2107604Y-2858330D01*
X536524Y-3472676D02*
X540390Y-3469659D01*
X1867189Y-2745879D02*
X1870740Y-2749260D01*
X514213Y-4558541D02*
X516836Y-4554399D01*
X738330Y-3457604D02*
X742813Y-3459591D01*
X2170901Y-2915698D02*
X2166245Y-2914160D01*
X505840Y-1396245D02*
X507604Y-1391670D01*
X1888204Y-1807192D02*
X1885787Y-1811459D01*
X2175626Y-3977006D02*
X2170901Y-3975698D01*
X2161670Y-1852395D02*
X2157187Y-1850408D01*
X45493Y-16223D02*
X44462Y-16877D01*
X3467189Y-3224121D02*
X3463476Y-3227324D01*
X1829099Y-2724302D02*
X1833755Y-2725840D01*
X1814758Y-3978919D02*
X1809892Y-3979519D01*
X799880Y-3155002D02*
X799519Y-3159892D01*
X733755Y-4304160D02*
X729099Y-4305698D01*
X3270900Y-2394302D02*
X3275626Y-2392994D01*
X525879Y-1097189D02*
X522676Y-1093476D01*
X3429099Y-504302D02*
X3433755Y-505840D01*
X714758Y-2391081D02*
X719589Y-2391920D01*
X3988717Y-5586030D02*
X3991863Y-5579378D01*
X3261670Y-1122396D02*
X3257187Y-1120409D01*
X3219659Y-3490390D02*
X3222676Y-3486524D01*
X1900000Y-4939901D02*
X1900000Y-5040099D01*
X1870740Y-770740D02*
X1867189Y-774121D01*
X2101920Y-1740410D02*
X2102994Y-1735626D01*
X3198775Y-1660000D02*
X3199875Y-1659973D01*
X709892Y-4309519D02*
X705002Y-4309880D01*
X3229260Y-4280740D02*
X3225879Y-4277189D01*
X536524Y-1107324D02*
X532811Y-1104121D01*
X500481Y-1420108D02*
X501081Y-1415242D01*
X3451459Y-1115787D02*
X3447192Y-1118204D01*
X507604Y-2451670D02*
X509591Y-2447187D01*
X3201081Y-1044758D02*
X3200481Y-1039892D01*
X1833755Y-1854160D02*
X1829099Y-1855698D01*
X1809892Y-5139519D02*
X1805002Y-5139880D01*
X2152807Y-511796D02*
X2157187Y-509591D01*
X759610Y-3469659D02*
X763476Y-3472676D01*
X2175626Y-3782994D02*
X2180410Y-3781919D01*
X519659Y-5099610D02*
X516836Y-5095601D01*
X1877324Y-5103476D02*
X1874121Y-5107189D01*
X2175626Y-1662994D02*
X2180410Y-1661919D01*
X3500000Y-2090099D02*
X3499880Y-2095002D01*
X575626Y-5137006D02*
X570901Y-5135698D01*
X599901Y-500000D02*
X1800099Y-500000D01*
X785787Y-3498541D02*
X788204Y-3502807D01*
X3433755Y-4304160D02*
X3429099Y-4305698D01*
X12439Y-5588192D02*
X16222Y-5594504D01*
X3485787Y-4558541D02*
X3488204Y-4562807D01*
X709892Y-4510481D02*
X714758Y-4511081D01*
X2175626Y-797006D02*
X2170901Y-795698D01*
X501919Y-2109590D02*
X501081Y-2104758D01*
X3930184Y-5635280D02*
X3937113Y-5632801D01*
X800027Y-3980124D02*
X800000Y-3981225D01*
X3911013Y-661D02*
X3909801Y-512D01*
X3499519Y-2099892D02*
X3498919Y-2104758D01*
X777324Y-1366524D02*
X780340Y-1370390D01*
X1880340Y-4880390D02*
X1883164Y-4884399D01*
X2109591Y-4897187D02*
X2111796Y-4892807D01*
X3999940Y-98774D02*
X3999579Y-91424D01*
X522676Y-5103476D02*
X519659Y-5099610D01*
X2119660Y-1700390D02*
X2122676Y-1696524D01*
X522676Y-4546524D02*
X525879Y-4542811D01*
X3201081Y-2104758D02*
X3200481Y-2099892D01*
X777324Y-3213476D02*
X774121Y-3217189D01*
X1824374Y-797006D02*
X1819589Y-798080D01*
X1900000Y-599901D02*
X1900000Y-700099D01*
X2102994Y-5064374D02*
X2101920Y-5059590D01*
X507604Y-561670D02*
X509591Y-557187D01*
X3937115Y-5632800D02*
X3938254Y-5632361D01*
X2157187Y-1669591D02*
X2161670Y-1667604D01*
X3978032Y-5602453D02*
X3982416Y-5596543D01*
X3285242Y-1331081D02*
X3290108Y-1330481D01*
X552807Y-1341796D02*
X557187Y-1339591D01*
X500000Y-4609901D02*
X500120Y-4604998D01*
X3995992Y-5567838D02*
X3997780Y-5560699D01*
X3424374Y-2187006D02*
X3419589Y-2188080D01*
X719589Y-1128080D02*
X714758Y-1128919D01*
X1895698Y-729099D02*
X1894160Y-733755D01*
X785787Y-2438541D02*
X788204Y-2442807D01*
X590108Y-3249519D02*
X585242Y-3248919D01*
X1894160Y-2853755D02*
X1892395Y-2858330D01*
X1814758Y-3781081D02*
X1819589Y-3781919D01*
X3499519Y-3159892D02*
X3498919Y-3164758D01*
X755601Y-4526836D02*
X759610Y-4529660D01*
X751459Y-1115787D02*
X747192Y-1118204D01*
X3261670Y-2397604D02*
X3266245Y-2395840D01*
X594998Y-2189880D02*
X590108Y-2189519D01*
X3216836Y-3205601D02*
X3214213Y-3201459D01*
X1897006Y-3855626D02*
X1898080Y-3860410D01*
X2100000Y-4939901D02*
X2100120Y-4934998D01*
X1842813Y-1850408D02*
X1838330Y-1852395D01*
X2132811Y-2745879D02*
X2136524Y-2742676D01*
X3946030Y-11283D02*
X3939378Y-8137D01*
X3200000Y-3778773D02*
X3200000Y-3549901D01*
X2119660Y-1819610D02*
X2116836Y-1815601D01*
X3198773Y-2920000D02*
X2199901Y-2920000D01*
X1899519Y-4930108D02*
X1899880Y-4934998D01*
X774121Y-2157189D02*
X770740Y-2160740D01*
X3219659Y-2430390D02*
X3222676Y-2426524D01*
X3299901Y-1330000D02*
X3400099Y-1330000D01*
X3447192Y-2178204D02*
X3442813Y-2180409D01*
X580410Y-5138080D02*
X575626Y-5137006D01*
X1951Y-5559506D02*
X2219Y-5560697D01*
X1855601Y-1676836D02*
X1859610Y-1679659D01*
X1824374Y-4842994D02*
X1829099Y-4844302D01*
X3988716Y-53967D02*
X3988167Y-52877D01*
X3200000Y-3150099D02*
X3200000Y-2921227D01*
X529260Y-1100740D02*
X525879Y-1097189D01*
X1851459Y-3794213D02*
X1855601Y-3796836D01*
X1870740Y-3809260D02*
X1874121Y-3812811D01*
X2152807Y-1671796D02*
X2157187Y-1669591D01*
X594998Y-5139880D02*
X590108Y-5139519D01*
X3257187Y-2399591D02*
X3261670Y-2397604D01*
X3999579Y-5548576D02*
X3999940Y-5541226D01*
X2129260Y-1689260D02*
X2132811Y-1685879D01*
X3409892Y-500481D02*
X3414758Y-501081D01*
X705002Y-3249880D02*
X700099Y-3250000D01*
X800000Y-1861227D02*
X800000Y-2090099D01*
X519659Y-2149610D02*
X516836Y-2145601D01*
X516836Y-5095601D02*
X514213Y-5091459D01*
X780340Y-3209610D02*
X777324Y-3213476D01*
X2148541Y-3965787D02*
X2144399Y-3963164D01*
X504302Y-2119099D02*
X502994Y-2114374D01*
X2100481Y-1769892D02*
X2100120Y-1765002D01*
X799519Y-3540108D02*
X799880Y-3544998D01*
X3200000Y-801225D02*
X3199973Y-800124D01*
X3470740Y-529260D02*
X3474121Y-532811D01*
X2140390Y-1679659D02*
X2144399Y-1676836D01*
X800000Y-2489901D02*
X800000Y-2718773D01*
X2161670Y-3972395D02*
X2157187Y-3970408D01*
X585242Y-4511081D02*
X590108Y-4510481D01*
X792395Y-3511670D02*
X794160Y-3516245D01*
X3409892Y-3450481D02*
X3414758Y-3451081D01*
X3992800Y-62885D02*
X3992361Y-61745D01*
X783164Y-3205601D02*
X780340Y-3209610D01*
X1824374Y-1857006D02*
X1819589Y-1858080D01*
X3438330Y-3242395D02*
X3433755Y-3244160D01*
X3463476Y-4287324D02*
X3459610Y-4290340D01*
X1833755Y-505840D02*
X1838330Y-507604D01*
X519659Y-3209610D02*
X516836Y-3205601D01*
X580410Y-4511920D02*
X585242Y-4511081D01*
X1859610Y-1840340D02*
X1855601Y-1843164D01*
X3474121Y-2157189D02*
X3470740Y-2160740D01*
X7641Y-5578259D02*
X8136Y-5579376D01*
X3978031Y-37544D02*
X3977279Y-36582D01*
X3901226Y-5639940D02*
X3908576Y-5639579D01*
X3429099Y-2394302D02*
X3433755Y-2395840D01*
X1883164Y-2764399D02*
X1885787Y-2768541D01*
X3494160Y-566245D02*
X3495698Y-570901D01*
X3248541Y-3235787D02*
X3244398Y-3233164D01*
X2170901Y-1664302D02*
X2175626Y-1662994D01*
X751459Y-4295787D02*
X747192Y-4298204D01*
X801225Y-3980000D02*
X800124Y-3980027D01*
X2148541Y-1845787D02*
X2144399Y-1843164D01*
X3280410Y-2391920D02*
X3285242Y-2391081D01*
X511796Y-2137193D02*
X509591Y-2132813D01*
X3992361Y-5578255D02*
X3992800Y-5577115D01*
X3483164Y-544399D02*
X3485787Y-548541D01*
X3498080Y-580410D02*
X3498919Y-585242D01*
X1809892Y-500481D02*
X1814758Y-501081D01*
X3948192Y-5627561D02*
X3954504Y-5623778D01*
X4719Y-69818D02*
X4336Y-70978D01*
X774121Y-4277189D02*
X770740Y-4280740D01*
X2105840Y-4906245D02*
X2107604Y-4901670D01*
X3956543Y-5622416D02*
X3962453Y-5618032D01*
X1874121Y-1827189D02*
X1870740Y-1830740D01*
X777324Y-2153476D02*
X774121Y-2157189D01*
X800000Y-3549901D02*
X800000Y-3778773D01*
X1838330Y-2727604D02*
X1842813Y-2729591D01*
X767189Y-4284121D02*
X763476Y-4287324D01*
X2132811Y-1685879D02*
X2136524Y-1682676D01*
X3280410Y-1128080D02*
X3275626Y-1127006D01*
X3270900Y-3454302D02*
X3275626Y-3452994D01*
X566245Y-4515840D02*
X570901Y-4514302D01*
X3497006Y-3174374D02*
X3495698Y-3179099D01*
X3209591Y-3507187D02*
X3211796Y-3502807D01*
X1867189Y-2894121D02*
X1863476Y-2897324D01*
X1899880Y-3885002D02*
X1899519Y-3889892D01*
X3199973Y-1659875D02*
X3200000Y-1658775D01*
X2125879Y-5107189D02*
X2122676Y-5103476D01*
X2116836Y-3935601D02*
X2114213Y-3931459D01*
X3201919Y-1410410D02*
X3202994Y-1405626D01*
X742813Y-1339591D02*
X747192Y-1341796D01*
X566245Y-1124160D02*
X561670Y-1122396D01*
X3995281Y-5570182D02*
X3995664Y-5569022D01*
X2190108Y-3780481D02*
X2194998Y-3780120D01*
X3424374Y-3247006D02*
X3419589Y-3248080D01*
X1890408Y-557187D02*
X1892395Y-561670D01*
X800124Y-2719973D02*
X801225Y-2720000D01*
X1824374Y-3782994D02*
X1829099Y-3784302D01*
X1894160Y-2786245D02*
X1895698Y-2790901D01*
X2104302Y-3909099D02*
X2102994Y-3904374D01*
X3207604Y-2451670D02*
X3209591Y-2447187D01*
X714758Y-3248919D02*
X709892Y-3249519D01*
X763476Y-1352676D02*
X767189Y-1355879D01*
X1805002Y-3979880D02*
X1800099Y-3980000D01*
X3266245Y-2184160D02*
X3261670Y-2182396D01*
X3495698Y-1400900D02*
X3497006Y-1405626D01*
X540390Y-2409660D02*
X544399Y-2406836D01*
X777324Y-1093476D02*
X774121Y-1097189D01*
X3490408Y-1387187D02*
X3492395Y-1391670D01*
X2219Y-79303D02*
X1951Y-80494D01*
X3495698Y-570901D02*
X3497006Y-575626D01*
X800000Y-1429901D02*
X800000Y-1658773D01*
X2109591Y-5082813D02*
X2107604Y-5078330D01*
X3257187Y-4519591D02*
X3261670Y-4517604D01*
X3400099Y-1130000D02*
X3299901Y-1130000D01*
X421Y-5548578D02*
X511Y-5549796D01*
X505840Y-3516245D02*
X507604Y-3511670D01*
X540390Y-3469659D02*
X544399Y-3466836D01*
X3207604Y-1068330D02*
X3205840Y-1063755D01*
X3451459Y-4295787D02*
X3447192Y-4298204D01*
X3455601Y-1346836D02*
X3459610Y-1349660D01*
X3988164Y-52872D02*
X3987562Y-51810D01*
X759610Y-3230340D02*
X755601Y-3233164D01*
X3962455Y-5618031D02*
X3963418Y-5617279D01*
X709892Y-2189519D02*
X705002Y-2189880D01*
X2102994Y-1784374D02*
X2101920Y-1779589D01*
X3211796Y-1077193D02*
X3209591Y-1072813D01*
X3494160Y-2123755D02*
X3492395Y-2128330D01*
X1895698Y-3909099D02*
X1894160Y-3913755D01*
X724374Y-2392994D02*
X729099Y-2394302D01*
X3920699Y-5637780D02*
X3927838Y-5635992D01*
X2100481Y-3870108D02*
X2101081Y-3865242D01*
X3209591Y-1072813D02*
X3207604Y-1068330D01*
X1880340Y-2879610D02*
X1877324Y-2883476D01*
X3488204Y-1077193D02*
X3485787Y-1081459D01*
X79303Y-5637781D02*
X80494Y-5638048D01*
X599901Y-2190000D02*
X594998Y-2189880D01*
X2180410Y-3781919D02*
X2185242Y-3781081D01*
X2140390Y-3960340D02*
X2136524Y-3957324D01*
X3205840Y-2456245D02*
X3207604Y-2451670D01*
X519659Y-540390D02*
X522676Y-536524D01*
X3236524Y-4287324D02*
X3232811Y-4284121D01*
X3216836Y-3494398D02*
X3219659Y-3490390D01*
X504302Y-1059099D02*
X502994Y-1054374D01*
X3459610Y-4290340D02*
X3455601Y-4293164D01*
X7639Y-61745D02*
X7199Y-62885D01*
X570901Y-504302D02*
X575626Y-502994D01*
X500481Y-4219892D02*
X500120Y-4215002D01*
X52877Y-5628167D02*
X53967Y-5628716D01*
X1900000Y-2820099D02*
X1899880Y-2825002D01*
X1899519Y-2810108D02*
X1899880Y-2814998D01*
X44458Y-16879D02*
X43459Y-17583D01*
X1880340Y-540390D02*
X1883164Y-544399D01*
X7199Y-5577115D02*
X7639Y-5578255D01*
X3480340Y-4269610D02*
X3477324Y-4273476D01*
X3405002Y-4510120D02*
X3409892Y-4510481D01*
X514213Y-4261459D02*
X511796Y-4257193D01*
X1809892Y-3979519D02*
X1805002Y-3979880D01*
X3240390Y-3230340D02*
X3236524Y-3227324D01*
X37546Y-5618032D02*
X43457Y-5622416D01*
X575626Y-1332994D02*
X580410Y-1331920D01*
X2175626Y-4842994D02*
X2180410Y-4841920D01*
X2105840Y-1793755D02*
X2104302Y-1789099D01*
X2100000Y-1760099D02*
X2100000Y-1759901D01*
X2105840Y-733755D02*
X2104302Y-729099D01*
X1855601Y-2736836D02*
X1859610Y-2739660D01*
X798919Y-3535242D02*
X799519Y-3540108D01*
X2102994Y-3904374D02*
X2101920Y-3899589D01*
X2140390Y-1840340D02*
X2136524Y-1837324D01*
X3275626Y-4307006D02*
X3270900Y-4305698D01*
X7198Y-62887D02*
X4719Y-69816D01*
X794160Y-2123755D02*
X792395Y-2128330D01*
X70978Y-4336D02*
X69818Y-4719D01*
X2102994Y-3855626D02*
X2104302Y-3850900D01*
X500120Y-5045002D02*
X500000Y-5040099D01*
X3998259Y-5558295D02*
X3999338Y-5551016D01*
X35651Y-23523D02*
X30199Y-28465D01*
X767189Y-4535879D02*
X770740Y-4539260D01*
X3219659Y-1370390D02*
X3222676Y-1366524D01*
X800000Y-4838775D02*
X800027Y-4839875D01*
X544399Y-1346836D02*
X548541Y-1344213D01*
X3400099Y-2390000D02*
X3405002Y-2390120D01*
X2129260Y-770740D02*
X2125879Y-767189D01*
X3200000Y-2090099D02*
X3200000Y-1861227D01*
X3485787Y-548541D02*
X3488204Y-552807D01*
X3451459Y-2404213D02*
X3455601Y-2406836D01*
X3290108Y-1129519D02*
X3285242Y-1128919D01*
X3470740Y-4280740D02*
X3467189Y-4284121D01*
X3939375Y-8136D02*
X3938259Y-7641D01*
X3977279Y-5603418D02*
X3978031Y-5602455D01*
X3500000Y-2489901D02*
X3500000Y-3150099D01*
X3270900Y-1334302D02*
X3275626Y-1332994D01*
X3488204Y-2137193D02*
X3485787Y-2141459D01*
X3299901Y-4310000D02*
X3294998Y-4309880D01*
X1894160Y-566245D02*
X1895698Y-570901D01*
X1870740Y-529260D02*
X1874121Y-532811D01*
X2107604Y-2858330D02*
X2105840Y-2853755D01*
X2100000Y-1759901D02*
X2100120Y-1754998D01*
X3999338Y-88984D02*
X3998259Y-81705D01*
X2140390Y-2739660D02*
X2144399Y-2736836D01*
X532811Y-1355879D02*
X536524Y-1352676D01*
X770740Y-4539260D02*
X774121Y-4542811D01*
X3497006Y-1405626D02*
X3498080Y-1410410D01*
X1894160Y-3913755D02*
X1892395Y-3918330D01*
X529260Y-2160740D02*
X525879Y-2157189D01*
X3232811Y-4535879D02*
X3236524Y-4532676D01*
X3998048Y-80494D02*
X3997781Y-79303D01*
X3474121Y-4277189D02*
X3470740Y-4280740D01*
X2152807Y-3791796D02*
X2157187Y-3789591D01*
X1805002Y-2919880D02*
X1800099Y-2920000D01*
X799880Y-1035002D02*
X799519Y-1039892D01*
X3240390Y-2409660D02*
X3244398Y-2406836D01*
X2104302Y-1730900D02*
X2105840Y-1726245D01*
X4719Y-5570184D02*
X7198Y-5577113D01*
X3500000Y-3150099D02*
X3499880Y-3155002D01*
X1819589Y-4841920D02*
X1824374Y-4842994D01*
X3200120Y-2095002D02*
X3200000Y-2090099D01*
X2105840Y-2853755D02*
X2104302Y-2849099D01*
X1855601Y-2903164D02*
X1851459Y-2905787D01*
X780340Y-4550390D02*
X783164Y-4554399D01*
X1870740Y-5110740D02*
X1867189Y-5114121D01*
X3447192Y-5128204D02*
X3442813Y-5130409D01*
X797006Y-3525626D02*
X798080Y-3530410D01*
X2199901Y-3780000D02*
X3198773Y-3780000D01*
X719589Y-2391920D02*
X724374Y-2392994D01*
X3207604Y-3188330D02*
X3205840Y-3183755D01*
X2100120Y-2825002D02*
X2100000Y-2820099D01*
X2114213Y-2768541D02*
X2116836Y-2764399D01*
X3207604Y-4571670D02*
X3209591Y-4567187D01*
X2132811Y-3954121D02*
X2129260Y-3950740D01*
X3955538Y-16877D02*
X3954506Y-16223D01*
X2157187Y-4849591D02*
X2161670Y-4847604D01*
X751459Y-3235787D02*
X747192Y-3238204D01*
X2116836Y-1704398D02*
X2119660Y-1700390D01*
X763476Y-3227324D02*
X759610Y-3230340D01*
X1867189Y-774121D02*
X1863476Y-777324D01*
X729099Y-1125698D02*
X724374Y-1127006D01*
X780340Y-3490390D02*
X783164Y-3494398D01*
X2161670Y-792395D02*
X2157187Y-790408D01*
X729099Y-4514302D02*
X733755Y-4515840D01*
X3963418Y-22721D02*
X3962455Y-21969D01*
X3442813Y-3240408D02*
X3438330Y-3242395D01*
X3294998Y-3249880D02*
X3290108Y-3249519D01*
X11283Y-53970D02*
X8137Y-60622D01*
X3447192Y-3461796D02*
X3451459Y-3464213D01*
X2111796Y-3832807D02*
X2114213Y-3828541D01*
X3214213Y-2141459D02*
X3211796Y-2137193D01*
X2132811Y-2894121D02*
X2129260Y-2890740D01*
X3280410Y-3248080D02*
X3275626Y-3247006D01*
X3983120Y-44458D02*
X3982417Y-43459D01*
X1898080Y-1740410D02*
X1898919Y-1745242D01*
X2100120Y-1754998D02*
X2100481Y-1750108D01*
X3270900Y-4305698D02*
X3266245Y-4304160D01*
X509591Y-1072813D02*
X507604Y-1068330D01*
X2105840Y-5073755D02*
X2104302Y-5069099D01*
X2185242Y-3781081D02*
X2190108Y-3780481D01*
X590108Y-5139519D02*
X585242Y-5138919D01*
X2101081Y-2805242D02*
X2101920Y-2800410D01*
X3499519Y-4219892D02*
X3498919Y-4224758D01*
X502994Y-4585626D02*
X504302Y-4580901D01*
X3474121Y-2422811D02*
X3477324Y-2426524D01*
X3240390Y-1349660D02*
X3244398Y-1346836D01*
X2125879Y-4872811D02*
X2129260Y-4869260D01*
X3216836Y-4554399D02*
X3219659Y-4550390D01*
X3414758Y-501081D02*
X3419589Y-501919D01*
X3257187Y-3459591D02*
X3261670Y-3457604D01*
X800000Y-2718775D02*
X800027Y-2719875D01*
X1859610Y-3799659D02*
X1863476Y-3802676D01*
X557187Y-509591D02*
X561670Y-507604D01*
X552807Y-2401796D02*
X557187Y-2399591D01*
X2116836Y-4884399D02*
X2119660Y-4880390D01*
X3497006Y-2465626D02*
X3498080Y-2470410D01*
X3490408Y-3192813D02*
X3488204Y-3197192D01*
X44462Y-5623123D02*
X45493Y-5623777D01*
X1885787Y-5091459D02*
X1883164Y-5095601D01*
X2132811Y-5114121D02*
X2129260Y-5110740D01*
X799519Y-2099892D02*
X798919Y-2104758D01*
X2116836Y-544399D02*
X2119660Y-540390D01*
X2105840Y-2786245D02*
X2107604Y-2781670D01*
X3216836Y-1374399D02*
X3219659Y-1370390D01*
X3405002Y-500120D02*
X3409892Y-500481D01*
X3451459Y-4524213D02*
X3455601Y-4526836D01*
X557187Y-4519591D02*
X561670Y-4517604D01*
X1898080Y-719589D02*
X1897006Y-724374D01*
X3433755Y-1335840D02*
X3438330Y-1337604D01*
X1809892Y-799519D02*
X1805002Y-799880D01*
X1805002Y-5139880D02*
X1800099Y-5140000D01*
X3202994Y-2114374D02*
X3201919Y-2109590D01*
X61745Y-5632361D02*
X62885Y-5632800D01*
X544399Y-516836D02*
X548541Y-514213D01*
X536524Y-522676D02*
X540390Y-519659D01*
X1838330Y-3787604D02*
X1842813Y-3789591D01*
X700099Y-4310000D02*
X599901Y-4310000D01*
X795698Y-3179099D02*
X794160Y-3183755D01*
X2199901Y-1860000D02*
X2194998Y-1859880D01*
X536524Y-4287324D02*
X532811Y-4284121D01*
X501919Y-3530410D02*
X502994Y-3525626D01*
X3463476Y-3472676D02*
X3467189Y-3475879D01*
X3199973Y-3779875D02*
X3200000Y-3778775D01*
X2100481Y-4930108D02*
X2101081Y-4925242D01*
X3280410Y-2188080D02*
X3275626Y-2187006D01*
X3280410Y-4511920D02*
X3285242Y-4511081D01*
X759610Y-2409660D02*
X763476Y-2412676D01*
X1855601Y-5123164D02*
X1851459Y-5125787D01*
X780340Y-1089610D02*
X777324Y-1093476D01*
X36582Y-5617279D02*
X37544Y-5618031D01*
X2100481Y-590108D02*
X2101081Y-585242D01*
X3294998Y-3450120D02*
X3299901Y-3450000D01*
X1800099Y-4840000D02*
X1805002Y-4840120D01*
X2161670Y-5132396D02*
X2157187Y-5130409D01*
X3266245Y-4515840D02*
X3270900Y-4514302D01*
X3480340Y-2430390D02*
X3483164Y-2434399D01*
X3459610Y-5120340D02*
X3455601Y-5123164D01*
X1894160Y-733755D02*
X1892395Y-738330D01*
X2170901Y-504302D02*
X2175626Y-502994D01*
X2140390Y-4859660D02*
X2144399Y-4856836D01*
X2101081Y-2834758D02*
X2100481Y-2829892D01*
X2100481Y-5049892D02*
X2100120Y-5045002D01*
X3495698Y-2119099D02*
X3494160Y-2123755D01*
X3955542Y-5623120D02*
X3956541Y-5622417D01*
X3414758Y-5138919D02*
X3409892Y-5139519D01*
X3970691Y-5610688D02*
X3971533Y-5609803D01*
X3261670Y-4517604D02*
X3266245Y-4515840D01*
X3244398Y-3233164D02*
X3240390Y-3230340D01*
X1892395Y-3841670D02*
X1894160Y-3846245D01*
X763476Y-1107324D02*
X759610Y-1110340D01*
X1870740Y-4869260D02*
X1874121Y-4872811D01*
X2122676Y-2883476D02*
X2119660Y-2879610D01*
X733755Y-3244160D02*
X729099Y-3245698D01*
X1899880Y-5045002D02*
X1899519Y-5049892D01*
X3211796Y-2137193D02*
X3209591Y-2132813D01*
X522676Y-4273476D02*
X519659Y-4269610D01*
X3494160Y-4576245D02*
X3495698Y-4580901D01*
X763476Y-3472676D02*
X767189Y-3475879D01*
X3266245Y-3455840D02*
X3270900Y-3454302D01*
X799519Y-2480108D02*
X799880Y-2484998D01*
X3299901Y-1130000D02*
X3294998Y-1129880D01*
X1851459Y-4854213D02*
X1855601Y-4856836D01*
X3202994Y-2465626D02*
X3204302Y-2460901D01*
X540390Y-2170340D02*
X536524Y-2167324D01*
X1883164Y-2875601D02*
X1880340Y-2879610D01*
X1892395Y-3918330D02*
X1890408Y-3922813D01*
X3488204Y-1382807D02*
X3490408Y-1387187D01*
X2104302Y-729099D02*
X2102994Y-724374D01*
X3919501Y-1950D02*
X3918297Y-1742D01*
X3275626Y-3247006D02*
X3270900Y-3245698D01*
X511796Y-5087193D02*
X509591Y-5082813D01*
X540390Y-519659D02*
X544399Y-516836D01*
X3270900Y-3245698D02*
X3266245Y-3244160D01*
X3927838Y-4008D02*
X3920699Y-2220D01*
X3459610Y-4529660D02*
X3463476Y-4532676D01*
X3285242Y-4511081D02*
X3290108Y-4510481D01*
X798919Y-4595242D02*
X799519Y-4600108D01*
X1805002Y-1660120D02*
X1809892Y-1660481D01*
X552807Y-511796D02*
X557187Y-509591D01*
X3222676Y-2426524D02*
X3225879Y-2422811D01*
X3971533Y-30197D02*
X3970691Y-29312D01*
X575626Y-1127006D02*
X570901Y-1125698D01*
X3405002Y-2390120D02*
X3409892Y-2390481D01*
X2122676Y-1823476D02*
X2119660Y-1819610D01*
X532811Y-4535879D02*
X536524Y-4532676D01*
X755601Y-1113164D02*
X751459Y-1115787D01*
X2190108Y-5139519D02*
X2185242Y-5138919D01*
X788204Y-1077193D02*
X785787Y-1081459D01*
X580410Y-3248080D02*
X575626Y-3247006D01*
X507604Y-1391670D02*
X509591Y-1387187D01*
X509591Y-5082813D02*
X507604Y-5078330D01*
X3451459Y-514213D02*
X3455601Y-516836D01*
X794160Y-3183755D02*
X792395Y-3188330D01*
X1883164Y-3824398D02*
X1885787Y-3828541D01*
X1863476Y-3802676D02*
X1867189Y-3805879D01*
X1842813Y-3789591D02*
X1847192Y-3791796D01*
X557187Y-1120409D02*
X552807Y-1118204D01*
X2111796Y-3927192D02*
X2109591Y-3922813D01*
X788204Y-3502807D02*
X790408Y-3507187D01*
X1855601Y-3963164D02*
X1851459Y-3965787D01*
X1888204Y-552807D02*
X1890408Y-557187D01*
X505840Y-4243755D02*
X504302Y-4239099D01*
X3275626Y-2392994D02*
X3280410Y-2391920D01*
X705002Y-2390120D02*
X709892Y-2390481D01*
X28465Y-30199D02*
X23523Y-35651D01*
X790408Y-2132813D02*
X788204Y-2137193D01*
X777324Y-3486524D02*
X780340Y-3490390D01*
X505840Y-5073755D02*
X504302Y-5069099D01*
X1895698Y-4910901D02*
X1897006Y-4915626D01*
X767189Y-1355879D02*
X770740Y-1359260D01*
X3429099Y-4514302D02*
X3433755Y-4515840D01*
X2190108Y-1859519D02*
X2185242Y-1858919D01*
X738330Y-3242395D02*
X733755Y-3244160D01*
X3419589Y-1331920D02*
X3424374Y-1332994D01*
X1838330Y-4847604D02*
X1842813Y-4849591D01*
X783164Y-2145601D02*
X780340Y-2149610D01*
X1829099Y-795698D02*
X1824374Y-797006D01*
X3467189Y-4284121D02*
X3463476Y-4287324D01*
X3442813Y-5130409D02*
X3438330Y-5132396D01*
X3499880Y-1035002D02*
X3499519Y-1039892D01*
X1867189Y-3954121D02*
X1863476Y-3957324D01*
X3488204Y-4562807D02*
X3490408Y-4567187D01*
X3494160Y-2456245D02*
X3495698Y-2460901D01*
X502994Y-1405626D02*
X504302Y-1400900D01*
X2190108Y-3979519D02*
X2185242Y-3978919D01*
X3229260Y-4539260D02*
X3232811Y-4535879D01*
X800124Y-1659973D02*
X801225Y-1660000D01*
X1824374Y-2917006D02*
X1819589Y-2918080D01*
X3201919Y-4590410D02*
X3202994Y-4585626D01*
X3214213Y-4261459D02*
X3211796Y-4257193D01*
X3204302Y-2460901D02*
X3205840Y-2456245D01*
X783164Y-2434399D02*
X785787Y-2438541D01*
X3261670Y-4302396D02*
X3257187Y-4300409D01*
X1838330Y-2912395D02*
X1833755Y-2914160D01*
X3498919Y-2475242D02*
X3499519Y-2480108D01*
X3201919Y-4229590D02*
X3201081Y-4224758D01*
X2157187Y-5130409D02*
X2152807Y-5128204D01*
X23521Y-35653D02*
X22724Y-36578D01*
X3252807Y-4298204D02*
X3248541Y-4295787D01*
X3290108Y-3450481D02*
X3294998Y-3450120D01*
X2166245Y-794160D02*
X2161670Y-792395D01*
X2114213Y-751459D02*
X2111796Y-747192D01*
X798919Y-3164758D02*
X798080Y-3169589D01*
X3400099Y-5140000D02*
X2199901Y-5140000D01*
X2101920Y-4920410D02*
X2102994Y-4915626D01*
X502994Y-2465626D02*
X504302Y-2460901D01*
X501919Y-2470410D02*
X502994Y-2465626D01*
X800000Y-801227D02*
X800000Y-1030099D01*
X3240390Y-4290340D02*
X3236524Y-4287324D01*
X2199901Y-3980000D02*
X2194998Y-3979880D01*
X509591Y-3507187D02*
X511796Y-3502807D01*
X580410Y-3451919D02*
X585242Y-3451081D01*
X561670Y-4517604D02*
X566245Y-4515840D01*
X504302Y-1400900D02*
X505840Y-1396245D01*
X3232811Y-2415879D02*
X3236524Y-2412676D01*
X2101081Y-3894758D02*
X2100481Y-3889892D01*
X3455601Y-1113164D02*
X3451459Y-1115787D01*
X3229260Y-1359260D02*
X3232811Y-1355879D01*
X2104302Y-2790901D02*
X2105840Y-2786245D01*
X509591Y-3192813D02*
X507604Y-3188330D01*
X566245Y-2395840D02*
X570901Y-2394302D01*
X500481Y-1039892D02*
X500120Y-1035002D01*
X3419589Y-501919D02*
X3424374Y-502994D01*
X2194998Y-1660120D02*
X2199901Y-1660000D01*
X3964349Y-5616477D02*
X3969801Y-5611535D01*
X500481Y-3159892D02*
X500120Y-3155002D01*
X4000000Y-101225D02*
X3999940Y-98777D01*
X3438330Y-2182396D02*
X3433755Y-2184160D01*
X3266245Y-3244160D02*
X3261670Y-3242395D01*
X2180410Y-3978080D02*
X2175626Y-3977006D01*
X3205840Y-3516245D02*
X3207604Y-3511670D01*
X2122676Y-5103476D02*
X2119660Y-5099610D01*
X1833755Y-2914160D02*
X1829099Y-2915698D01*
X3494160Y-1396245D02*
X3495698Y-1400900D01*
X511796Y-1382807D02*
X514213Y-1378541D01*
X3216836Y-2434399D02*
X3219659Y-2430390D01*
X3995280Y-69816D02*
X3992801Y-62887D01*
X2100120Y-4934998D02*
X2100481Y-4930108D01*
X3474121Y-532811D02*
X3477324Y-536524D01*
X552807Y-4298204D02*
X548541Y-4295787D01*
X3483164Y-1374399D02*
X3485787Y-1378541D01*
X3429099Y-5135698D02*
X3424374Y-5137006D01*
X2194998Y-1859880D02*
X2190108Y-1859519D01*
X3483164Y-1085601D02*
X3480340Y-1089610D01*
X3424374Y-2392994D02*
X3429099Y-2394302D01*
X792395Y-4571670D02*
X794160Y-4576245D01*
X552807Y-3238204D02*
X548541Y-3235787D01*
X799880Y-2095002D02*
X799519Y-2099892D01*
X501919Y-4229590D02*
X501081Y-4224758D01*
X1885787Y-1811459D02*
X1883164Y-1815601D01*
X3207604Y-3511670D02*
X3209591Y-3507187D01*
X3433755Y-3244160D02*
X3429099Y-3245698D01*
X3285242Y-1128919D02*
X3280410Y-1128080D01*
X3497006Y-5064374D02*
X3495698Y-5069099D01*
X88987Y-5639339D02*
X90199Y-5639488D01*
X507604Y-3188330D02*
X505840Y-3183755D01*
X3419589Y-4511920D02*
X3424374Y-4512994D01*
X3442813Y-1120409D02*
X3438330Y-1122396D01*
X3198775Y-2720000D02*
X3199875Y-2719973D01*
X90204Y-5639489D02*
X91422Y-5639578D01*
X2132811Y-3805879D02*
X2136524Y-3802676D01*
X585242Y-5138919D02*
X580410Y-5138080D01*
X3225879Y-1097189D02*
X3222676Y-1093476D01*
X2100120Y-705002D02*
X2100000Y-700099D01*
X3938254Y-7639D02*
X3937115Y-7199D01*
X525879Y-4542811D02*
X529260Y-4539260D01*
X3248541Y-2175787D02*
X3244398Y-2173164D01*
X3236524Y-3227324D02*
X3232811Y-3224121D01*
X552807Y-4521796D02*
X557187Y-4519591D01*
X500481Y-3540108D02*
X501081Y-3535242D01*
X2100000Y-2820099D02*
X2100000Y-2819901D01*
X1898919Y-714758D02*
X1898080Y-719589D01*
X1800099Y-1860000D02*
X801227Y-1860000D01*
X2122676Y-2756524D02*
X2125879Y-2752811D01*
X2144399Y-5123164D02*
X2140390Y-5120340D01*
X580410Y-1128080D02*
X575626Y-1127006D01*
X3498919Y-585242D02*
X3499519Y-590108D01*
X1833755Y-5134160D02*
X1829099Y-5135698D01*
X1870740Y-2890740D02*
X1867189Y-2894121D01*
X3498080Y-3169589D02*
X3497006Y-3174374D01*
X3270900Y-2185698D02*
X3266245Y-2184160D01*
X594998Y-1330120D02*
X599901Y-1330000D01*
X2100000Y-599901D02*
X2100120Y-594998D01*
X3497006Y-2114374D02*
X3495698Y-2119099D01*
X800000Y-4609901D02*
X800000Y-4838773D01*
X2175626Y-1857006D02*
X2170901Y-1855698D01*
X3463476Y-522676D02*
X3467189Y-525879D01*
X3480340Y-3209610D02*
X3477324Y-3213476D01*
X3983123Y-5595538D02*
X3983777Y-5594506D01*
X790408Y-3192813D02*
X788204Y-3197192D01*
X11836Y-5587128D02*
X12437Y-5588190D01*
X705002Y-4309880D02*
X700099Y-4310000D01*
X3500000Y-1429901D02*
X3500000Y-2090099D01*
X2102994Y-1735626D02*
X2104302Y-1730900D01*
X2129260Y-1830740D02*
X2125879Y-1827189D01*
X788204Y-4257193D02*
X785787Y-4261459D01*
X2185242Y-501081D02*
X2190108Y-500481D01*
X1874121Y-3812811D02*
X1877324Y-3816524D01*
X3266245Y-2395840D02*
X3270900Y-2394302D01*
X800027Y-800124D02*
X800000Y-801225D01*
X72160Y-4008D02*
X70983Y-4334D01*
X783164Y-4265601D02*
X780340Y-4269610D01*
X3414758Y-1331081D02*
X3419589Y-1331920D01*
X767189Y-3224121D02*
X763476Y-3227324D01*
X3490408Y-5082813D02*
X3488204Y-5087193D01*
X3200120Y-3155002D02*
X3200000Y-3150099D01*
X557187Y-2399591D02*
X561670Y-2397604D01*
X1847192Y-1671796D02*
X1851459Y-1674213D01*
X529260Y-529260D02*
X532811Y-525879D01*
X575626Y-4307006D02*
X570901Y-4305698D01*
X544399Y-4293164D02*
X540390Y-4290340D01*
X566245Y-2184160D02*
X561670Y-2182396D01*
X1890408Y-3922813D02*
X1888204Y-3927192D01*
X783164Y-3494398D02*
X785787Y-3498541D01*
X3409892Y-4510481D02*
X3414758Y-4511081D01*
X3200120Y-1424998D02*
X3200481Y-1420108D01*
X3447192Y-2401796D02*
X3451459Y-2404213D01*
X3200481Y-2480108D02*
X3201081Y-2475242D01*
X3216836Y-2145601D02*
X3214213Y-2141459D01*
X770740Y-2160740D02*
X767189Y-2164121D01*
X3438330Y-4517604D02*
X3442813Y-4519591D01*
X3211796Y-2442807D02*
X3214213Y-2438541D01*
X2119660Y-540390D02*
X2122676Y-536524D01*
X500120Y-1035002D02*
X500000Y-1030099D01*
X3219659Y-4550390D02*
X3222676Y-4546524D01*
X3494160Y-3516245D02*
X3495698Y-3520900D01*
X500120Y-1424998D02*
X500481Y-1420108D01*
X540390Y-1110340D02*
X536524Y-1107324D01*
X585242Y-3248919D02*
X580410Y-3248080D01*
X3200481Y-4600108D02*
X3201081Y-4595242D01*
X1838330Y-5132396D02*
X1833755Y-5134160D01*
X751459Y-2404213D02*
X755601Y-2406836D01*
X3485787Y-4261459D02*
X3483164Y-4265601D01*
X575626Y-2392994D02*
X580410Y-2391920D01*
X2100120Y-2814998D02*
X2100481Y-2810108D01*
X599901Y-3450000D02*
X700099Y-3450000D01*
X43459Y-5622417D02*
X44458Y-5623120D01*
X525879Y-3217189D02*
X522676Y-3213476D01*
X532811Y-4284121D02*
X529260Y-4280740D01*
X81705Y-5638259D02*
X88984Y-5639338D01*
X3467189Y-3475879D02*
X3470740Y-3479260D01*
X502994Y-575626D02*
X504302Y-570901D01*
X2129260Y-2890740D02*
X2125879Y-2887189D01*
X3209591Y-2447187D02*
X3211796Y-2442807D01*
X2109591Y-3922813D02*
X2107604Y-3918330D01*
X3962453Y-21968D02*
X3956543Y-17584D01*
X3474121Y-1097189D02*
X3470740Y-1100740D01*
X1899880Y-2814998D02*
X1900000Y-2819901D01*
X3244398Y-2173164D02*
X3240390Y-2170340D01*
X3400099Y-2190000D02*
X3299901Y-2190000D01*
X3200120Y-1035002D02*
X3200000Y-1030099D01*
X3474121Y-3217189D02*
X3470740Y-3220740D01*
X3490408Y-4567187D02*
X3492395Y-4571670D01*
X705002Y-3450120D02*
X709892Y-3450481D01*
X1894160Y-3846245D02*
X1895698Y-3850900D01*
D11*
D10*
X-25000Y-775000D02*
X25000Y-825000D01*
X25000Y-775000D02*
X-25000Y-825000D01*
X-25000Y-4815000D02*
X25000Y-4865000D01*
X25000Y-4815000D02*
X-25000Y-4865000D01*
X58333Y-775000D02*
X108333Y-825000D01*
X108333Y-775000D02*
X58333Y-825000D01*
X58333Y-4815000D02*
X108333Y-4865000D01*
X108333Y-4815000D02*
X58333Y-4865000D01*
X141667Y-775000D02*
X191667Y-825000D01*
X191667Y-775000D02*
X141667Y-825000D01*
X141667Y-4815000D02*
X191667Y-4865000D01*
X191667Y-4815000D02*
X141667Y-4865000D01*
X225000Y-775000D02*
X275000Y-825000D01*
X275000Y-775000D02*
X225000Y-825000D01*
X225000Y-4815000D02*
X275000Y-4865000D01*
X275000Y-4815000D02*
X225000Y-4865000D01*
X308333Y-775000D02*
X358333Y-825000D01*
X358333Y-775000D02*
X308333Y-825000D01*
X308333Y-4815000D02*
X358333Y-4865000D01*
X358333Y-4815000D02*
X308333Y-4865000D01*
X391667Y-775000D02*
X441667Y-825000D01*
X441667Y-775000D02*
X391667Y-825000D01*
X391667Y-4815000D02*
X441667Y-4865000D01*
X441667Y-4815000D02*
X391667Y-4865000D01*
X475000Y-775000D02*
X525000Y-825000D01*
X525000Y-775000D02*
X475000Y-825000D01*
X475000Y-4815000D02*
X525000Y-4865000D01*
X525000Y-4815000D02*
X475000Y-4865000D01*
X772000Y-1105000D02*
X822000Y-1155000D01*
X822000Y-1105000D02*
X772000Y-1155000D01*
X772000Y-1205000D02*
X822000Y-1255000D01*
X822000Y-1205000D02*
X772000Y-1255000D01*
X772000Y-1305000D02*
X822000Y-1355000D01*
X822000Y-1305000D02*
X772000Y-1355000D01*
X772000Y-2165000D02*
X822000Y-2215000D01*
X822000Y-2165000D02*
X772000Y-2215000D01*
X772000Y-2265000D02*
X822000Y-2315000D01*
X822000Y-2265000D02*
X772000Y-2315000D01*
X772000Y-2365000D02*
X822000Y-2415000D01*
X822000Y-2365000D02*
X772000Y-2415000D01*
X772000Y-3225000D02*
X822000Y-3275000D01*
X822000Y-3225000D02*
X772000Y-3275000D01*
X772000Y-3325000D02*
X822000Y-3375000D01*
X822000Y-3325000D02*
X772000Y-3375000D01*
X772000Y-3425000D02*
X822000Y-3475000D01*
X822000Y-3425000D02*
X772000Y-3475000D01*
X772000Y-4285000D02*
X822000Y-4335000D01*
X822000Y-4285000D02*
X772000Y-4335000D01*
X772000Y-4385000D02*
X822000Y-4435000D01*
X822000Y-4385000D02*
X772000Y-4435000D01*
X772000Y-4485000D02*
X822000Y-4535000D01*
X822000Y-4485000D02*
X772000Y-4535000D01*
X775000Y25000D02*
X825000Y-25000D01*
X825000Y25000D02*
X775000Y-25000D01*
X775000Y-58333D02*
X825000Y-108333D01*
X825000Y-58333D02*
X775000Y-108333D01*
X775000Y-141667D02*
X825000Y-191667D01*
X825000Y-141667D02*
X775000Y-191667D01*
X775000Y-225000D02*
X825000Y-275000D01*
X825000Y-225000D02*
X775000Y-275000D01*
X775000Y-308333D02*
X825000Y-358333D01*
X825000Y-308333D02*
X775000Y-358333D01*
X775000Y-391667D02*
X825000Y-441667D01*
X825000Y-391667D02*
X775000Y-441667D01*
X775000Y-475000D02*
X825000Y-525000D01*
X825000Y-475000D02*
X775000Y-525000D01*
X775000Y-5115000D02*
X825000Y-5165000D01*
X825000Y-5115000D02*
X775000Y-5165000D01*
X775000Y-5198333D02*
X825000Y-5248333D01*
X825000Y-5198333D02*
X775000Y-5248333D01*
X775000Y-5281667D02*
X825000Y-5331667D01*
X825000Y-5281667D02*
X775000Y-5331667D01*
X775000Y-5365000D02*
X825000Y-5415000D01*
X825000Y-5365000D02*
X775000Y-5415000D01*
X775000Y-5448333D02*
X825000Y-5498333D01*
X825000Y-5448333D02*
X775000Y-5498333D01*
X775000Y-5531667D02*
X825000Y-5581667D01*
X825000Y-5531667D02*
X775000Y-5581667D01*
X775000Y-5615000D02*
X825000Y-5665000D01*
X825000Y-5615000D02*
X775000Y-5665000D01*
X1875000Y-772000D02*
X1925000Y-822000D01*
X1925000Y-772000D02*
X1875000Y-822000D01*
X1875000Y-1638000D02*
X1925000Y-1688000D01*
X1925000Y-1638000D02*
X1875000Y-1688000D01*
X1875000Y-1832000D02*
X1925000Y-1882000D01*
X1925000Y-1832000D02*
X1875000Y-1882000D01*
X1875000Y-2698000D02*
X1925000Y-2748000D01*
X1925000Y-2698000D02*
X1875000Y-2748000D01*
X1875000Y-2892000D02*
X1925000Y-2942000D01*
X1925000Y-2892000D02*
X1875000Y-2942000D01*
X1875000Y-3758000D02*
X1925000Y-3808000D01*
X1925000Y-3758000D02*
X1875000Y-3808000D01*
X1875000Y-3952000D02*
X1925000Y-4002000D01*
X1925000Y-3952000D02*
X1875000Y-4002000D01*
X1875000Y-4818000D02*
X1925000Y-4868000D01*
X1925000Y-4818000D02*
X1875000Y-4868000D01*
X1975000Y-772000D02*
X2025000Y-822000D01*
X2025000Y-772000D02*
X1975000Y-822000D01*
X1975000Y-1638000D02*
X2025000Y-1688000D01*
X2025000Y-1638000D02*
X1975000Y-1688000D01*
X1975000Y-1832000D02*
X2025000Y-1882000D01*
X2025000Y-1832000D02*
X1975000Y-1882000D01*
X1975000Y-2698000D02*
X2025000Y-2748000D01*
X2025000Y-2698000D02*
X1975000Y-2748000D01*
X1975000Y-2892000D02*
X2025000Y-2942000D01*
X2025000Y-2892000D02*
X1975000Y-2942000D01*
X1975000Y-3758000D02*
X2025000Y-3808000D01*
X2025000Y-3758000D02*
X1975000Y-3808000D01*
X1975000Y-3952000D02*
X2025000Y-4002000D01*
X2025000Y-3952000D02*
X1975000Y-4002000D01*
X1975000Y-4818000D02*
X2025000Y-4868000D01*
X2025000Y-4818000D02*
X1975000Y-4868000D01*
X2075000Y-772000D02*
X2125000Y-822000D01*
X2125000Y-772000D02*
X2075000Y-822000D01*
X2075000Y-1638000D02*
X2125000Y-1688000D01*
X2125000Y-1638000D02*
X2075000Y-1688000D01*
X2075000Y-1832000D02*
X2125000Y-1882000D01*
X2125000Y-1832000D02*
X2075000Y-1882000D01*
X2075000Y-2698000D02*
X2125000Y-2748000D01*
X2125000Y-2698000D02*
X2075000Y-2748000D01*
X2075000Y-2892000D02*
X2125000Y-2942000D01*
X2125000Y-2892000D02*
X2075000Y-2942000D01*
X2075000Y-3758000D02*
X2125000Y-3808000D01*
X2125000Y-3758000D02*
X2075000Y-3808000D01*
X2075000Y-3952000D02*
X2125000Y-4002000D01*
X2125000Y-3952000D02*
X2075000Y-4002000D01*
X2075000Y-4818000D02*
X2125000Y-4868000D01*
X2125000Y-4818000D02*
X2075000Y-4868000D01*
X3175000Y25000D02*
X3225000Y-25000D01*
X3225000Y25000D02*
X3175000Y-25000D01*
X3175000Y-58333D02*
X3225000Y-108333D01*
X3225000Y-58333D02*
X3175000Y-108333D01*
X3175000Y-141667D02*
X3225000Y-191667D01*
X3225000Y-141667D02*
X3175000Y-191667D01*
X3175000Y-225000D02*
X3225000Y-275000D01*
X3225000Y-225000D02*
X3175000Y-275000D01*
X3175000Y-308333D02*
X3225000Y-358333D01*
X3225000Y-308333D02*
X3175000Y-358333D01*
X3175000Y-391667D02*
X3225000Y-441667D01*
X3225000Y-391667D02*
X3175000Y-441667D01*
X3175000Y-475000D02*
X3225000Y-525000D01*
X3225000Y-475000D02*
X3175000Y-525000D01*
X3175000Y-5115000D02*
X3225000Y-5165000D01*
X3225000Y-5115000D02*
X3175000Y-5165000D01*
X3175000Y-5198333D02*
X3225000Y-5248333D01*
X3225000Y-5198333D02*
X3175000Y-5248333D01*
X3175000Y-5281667D02*
X3225000Y-5331667D01*
X3225000Y-5281667D02*
X3175000Y-5331667D01*
X3175000Y-5365000D02*
X3225000Y-5415000D01*
X3225000Y-5365000D02*
X3175000Y-5415000D01*
X3175000Y-5448333D02*
X3225000Y-5498333D01*
X3225000Y-5448333D02*
X3175000Y-5498333D01*
X3175000Y-5531667D02*
X3225000Y-5581667D01*
X3225000Y-5531667D02*
X3175000Y-5581667D01*
X3175000Y-5615000D02*
X3225000Y-5665000D01*
X3225000Y-5615000D02*
X3175000Y-5665000D01*
X3178000Y-1105000D02*
X3228000Y-1155000D01*
X3228000Y-1105000D02*
X3178000Y-1155000D01*
X3178000Y-1205000D02*
X3228000Y-1255000D01*
X3228000Y-1205000D02*
X3178000Y-1255000D01*
X3178000Y-1305000D02*
X3228000Y-1355000D01*
X3228000Y-1305000D02*
X3178000Y-1355000D01*
X3178000Y-2165000D02*
X3228000Y-2215000D01*
X3228000Y-2165000D02*
X3178000Y-2215000D01*
X3178000Y-2265000D02*
X3228000Y-2315000D01*
X3228000Y-2265000D02*
X3178000Y-2315000D01*
X3178000Y-2365000D02*
X3228000Y-2415000D01*
X3228000Y-2365000D02*
X3178000Y-2415000D01*
X3178000Y-3225000D02*
X3228000Y-3275000D01*
X3228000Y-3225000D02*
X3178000Y-3275000D01*
X3178000Y-3325000D02*
X3228000Y-3375000D01*
X3228000Y-3325000D02*
X3178000Y-3375000D01*
X3178000Y-3425000D02*
X3228000Y-3475000D01*
X3228000Y-3425000D02*
X3178000Y-3475000D01*
X3178000Y-4285000D02*
X3228000Y-4335000D01*
X3228000Y-4285000D02*
X3178000Y-4335000D01*
X3178000Y-4385000D02*
X3228000Y-4435000D01*
X3228000Y-4385000D02*
X3178000Y-4435000D01*
X3178000Y-4485000D02*
X3228000Y-4535000D01*
X3228000Y-4485000D02*
X3178000Y-4535000D01*
X3475000Y-775000D02*
X3525000Y-825000D01*
X3525000Y-775000D02*
X3475000Y-825000D01*
X3475000Y-4815000D02*
X3525000Y-4865000D01*
X3525000Y-4815000D02*
X3475000Y-4865000D01*
X3558333Y-775000D02*
X3608333Y-825000D01*
X3608333Y-775000D02*
X3558333Y-825000D01*
X3558333Y-4815000D02*
X3608333Y-4865000D01*
X3608333Y-4815000D02*
X3558333Y-4865000D01*
X3641667Y-775000D02*
X3691667Y-825000D01*
X3691667Y-775000D02*
X3641667Y-825000D01*
X3641667Y-4815000D02*
X3691667Y-4865000D01*
X3691667Y-4815000D02*
X3641667Y-4865000D01*
X3725000Y-775000D02*
X3775000Y-825000D01*
X3775000Y-775000D02*
X3725000Y-825000D01*
X3725000Y-4815000D02*
X3775000Y-4865000D01*
X3775000Y-4815000D02*
X3725000Y-4865000D01*
X3808333Y-775000D02*
X3858333Y-825000D01*
X3858333Y-775000D02*
X3808333Y-825000D01*
X3808333Y-4815000D02*
X3858333Y-4865000D01*
X3858333Y-4815000D02*
X3808333Y-4865000D01*
X3891667Y-775000D02*
X3941667Y-825000D01*
X3941667Y-775000D02*
X3891667Y-825000D01*
X3891667Y-4815000D02*
X3941667Y-4865000D01*
X3941667Y-4815000D02*
X3891667Y-4865000D01*
X3975000Y-775000D02*
X4025000Y-825000D01*
X4025000Y-775000D02*
X3975000Y-825000D01*
X3975000Y-4815000D02*
X4025000Y-4865000D01*
X4025000Y-4815000D02*
X3975000Y-4865000D01*
D12*
X257600Y-200000D02*
G75*
G02*
X142400Y-200000I-57600J0D01*
G01*
X142400Y-200000D02*
G75*
G02*
X257600Y-200000I57600J0D01*
G01*
X257600Y-5440000D02*
G75*
G02*
X142400Y-5440000I-57600J0D01*
G01*
X142400Y-5440000D02*
G75*
G02*
X257600Y-5440000I57600J0D01*
G01*
X3857600Y-200000D02*
G75*
G02*
X3742400Y-200000I-57600J0D01*
G01*
X3742400Y-200000D02*
G75*
G02*
X3857600Y-200000I57600J0D01*
G01*
D11*
X255777Y-5956484D02*
X255777Y-5756484D01*
X255777Y-5756484D02*
X303396Y-5756484D01*
X303396Y-5756484D02*
X331967Y-5766008D01*
X331967Y-5766008D02*
X351015Y-5785055D01*
X351015Y-5785055D02*
X360539Y-5804103D01*
X360539Y-5804103D02*
X370062Y-5842198D01*
X370062Y-5842198D02*
X370062Y-5870769D01*
X370062Y-5870769D02*
X360539Y-5908865D01*
X360539Y-5908865D02*
X351015Y-5927912D01*
X351015Y-5927912D02*
X331967Y-5946960D01*
X331967Y-5946960D02*
X303396Y-5956484D01*
X303396Y-5956484D02*
X255777Y-5956484D01*
X455777Y-5956484D02*
X455777Y-5823150D01*
X455777Y-5861246D02*
X465301Y-5842198D01*
X465301Y-5842198D02*
X474824Y-5832674D01*
X474824Y-5832674D02*
X493872Y-5823150D01*
X493872Y-5823150D02*
X512920Y-5823150D01*
X579586Y-5956484D02*
X579586Y-5823150D01*
X579586Y-5756484D02*
X570063Y-5766008D01*
X570063Y-5766008D02*
X579586Y-5775531D01*
X579586Y-5775531D02*
X589110Y-5766008D01*
X589110Y-5766008D02*
X579586Y-5756484D01*
X579586Y-5756484D02*
X579586Y-5775531D01*
X703396Y-5956484D02*
X684348Y-5946960D01*
X684348Y-5946960D02*
X674824Y-5927912D01*
X674824Y-5927912D02*
X674824Y-5756484D01*
X808158Y-5956484D02*
X789110Y-5946960D01*
X789110Y-5946960D02*
X779586Y-5927912D01*
X779586Y-5927912D02*
X779586Y-5756484D01*
X1036729Y-5956484D02*
X1036729Y-5756484D01*
X1036729Y-5756484D02*
X1103396Y-5899341D01*
X1103396Y-5899341D02*
X1170063Y-5756484D01*
X1170063Y-5756484D02*
X1170063Y-5956484D01*
X1351015Y-5956484D02*
X1351015Y-5851722D01*
X1351015Y-5851722D02*
X1341491Y-5832674D01*
X1341491Y-5832674D02*
X1322444Y-5823150D01*
X1322444Y-5823150D02*
X1284348Y-5823150D01*
X1284348Y-5823150D02*
X1265301Y-5832674D01*
X1351015Y-5946960D02*
X1331967Y-5956484D01*
X1331967Y-5956484D02*
X1284348Y-5956484D01*
X1284348Y-5956484D02*
X1265301Y-5946960D01*
X1265301Y-5946960D02*
X1255777Y-5927912D01*
X1255777Y-5927912D02*
X1255777Y-5908865D01*
X1255777Y-5908865D02*
X1265301Y-5889817D01*
X1265301Y-5889817D02*
X1284348Y-5880293D01*
X1284348Y-5880293D02*
X1331967Y-5880293D01*
X1331967Y-5880293D02*
X1351015Y-5870769D01*
X1446253Y-5823150D02*
X1446253Y-6023150D01*
X1446253Y-5832674D02*
X1465301Y-5823150D01*
X1465301Y-5823150D02*
X1503396Y-5823150D01*
X1503396Y-5823150D02*
X1522443Y-5832674D01*
X1522443Y-5832674D02*
X1531967Y-5842198D01*
X1531967Y-5842198D02*
X1541491Y-5861246D01*
X1541491Y-5861246D02*
X1541491Y-5918388D01*
X1541491Y-5918388D02*
X1531967Y-5937436D01*
X1531967Y-5937436D02*
X1522443Y-5946960D01*
X1522443Y-5946960D02*
X1503396Y-5956484D01*
X1503396Y-5956484D02*
X1465301Y-5956484D01*
X1465301Y-5956484D02*
X1446253Y-5946960D01*
X1627205Y-5937436D02*
X1636729Y-5946960D01*
X1636729Y-5946960D02*
X1627205Y-5956484D01*
X1627205Y-5956484D02*
X1617682Y-5946960D01*
X1617682Y-5946960D02*
X1627205Y-5937436D01*
X1627205Y-5937436D02*
X1627205Y-5956484D01*
X1627205Y-5832674D02*
X1636729Y-5842198D01*
X1636729Y-5842198D02*
X1627205Y-5851722D01*
X1627205Y-5851722D02*
X1617682Y-5842198D01*
X1617682Y-5842198D02*
X1627205Y-5832674D01*
X1627205Y-5832674D02*
X1627205Y-5851722D01*
D10*
X-55000Y-6260000D02*
X-5000Y-6310000D01*
X-5000Y-6260000D02*
X-55000Y-6310000D01*
D11*
X293872Y-6176484D02*
X312920Y-6176484D01*
X312920Y-6176484D02*
X331967Y-6186008D01*
X331967Y-6186008D02*
X341491Y-6195531D01*
X341491Y-6195531D02*
X351015Y-6214579D01*
X351015Y-6214579D02*
X360539Y-6252674D01*
X360539Y-6252674D02*
X360539Y-6300293D01*
X360539Y-6300293D02*
X351015Y-6338388D01*
X351015Y-6338388D02*
X341491Y-6357436D01*
X341491Y-6357436D02*
X331967Y-6366960D01*
X331967Y-6366960D02*
X312920Y-6376484D01*
X312920Y-6376484D02*
X293872Y-6376484D01*
X293872Y-6376484D02*
X274824Y-6366960D01*
X274824Y-6366960D02*
X265301Y-6357436D01*
X265301Y-6357436D02*
X255777Y-6338388D01*
X255777Y-6338388D02*
X246253Y-6300293D01*
X246253Y-6300293D02*
X246253Y-6252674D01*
X246253Y-6252674D02*
X255777Y-6214579D01*
X255777Y-6214579D02*
X265301Y-6195531D01*
X265301Y-6195531D02*
X274824Y-6186008D01*
X274824Y-6186008D02*
X293872Y-6176484D01*
X446253Y-6357436D02*
X455777Y-6366960D01*
X455777Y-6366960D02*
X446253Y-6376484D01*
X446253Y-6376484D02*
X436729Y-6366960D01*
X436729Y-6366960D02*
X446253Y-6357436D01*
X446253Y-6357436D02*
X446253Y-6376484D01*
X636729Y-6176484D02*
X541491Y-6176484D01*
X541491Y-6176484D02*
X531967Y-6271722D01*
X531967Y-6271722D02*
X541491Y-6262198D01*
X541491Y-6262198D02*
X560539Y-6252674D01*
X560539Y-6252674D02*
X608158Y-6252674D01*
X608158Y-6252674D02*
X627205Y-6262198D01*
X627205Y-6262198D02*
X636729Y-6271722D01*
X636729Y-6271722D02*
X646253Y-6290769D01*
X646253Y-6290769D02*
X646253Y-6338388D01*
X646253Y-6338388D02*
X636729Y-6357436D01*
X636729Y-6357436D02*
X627205Y-6366960D01*
X627205Y-6366960D02*
X608158Y-6376484D01*
X608158Y-6376484D02*
X560539Y-6376484D01*
X560539Y-6376484D02*
X541491Y-6366960D01*
X541491Y-6366960D02*
X531967Y-6357436D01*
X770062Y-6176484D02*
X789110Y-6176484D01*
X789110Y-6176484D02*
X808158Y-6186008D01*
X808158Y-6186008D02*
X817682Y-6195531D01*
X817682Y-6195531D02*
X827205Y-6214579D01*
X827205Y-6214579D02*
X836729Y-6252674D01*
X836729Y-6252674D02*
X836729Y-6300293D01*
X836729Y-6300293D02*
X827205Y-6338388D01*
X827205Y-6338388D02*
X817682Y-6357436D01*
X817682Y-6357436D02*
X808158Y-6366960D01*
X808158Y-6366960D02*
X789110Y-6376484D01*
X789110Y-6376484D02*
X770062Y-6376484D01*
X770062Y-6376484D02*
X751015Y-6366960D01*
X751015Y-6366960D02*
X741491Y-6357436D01*
X741491Y-6357436D02*
X731967Y-6338388D01*
X731967Y-6338388D02*
X722443Y-6300293D01*
X722443Y-6300293D02*
X722443Y-6252674D01*
X722443Y-6252674D02*
X731967Y-6214579D01*
X731967Y-6214579D02*
X741491Y-6195531D01*
X741491Y-6195531D02*
X751015Y-6186008D01*
X751015Y-6186008D02*
X770062Y-6176484D01*
X960539Y-6176484D02*
X979586Y-6176484D01*
X979586Y-6176484D02*
X998634Y-6186008D01*
X998634Y-6186008D02*
X1008158Y-6195531D01*
X1008158Y-6195531D02*
X1017682Y-6214579D01*
X1017682Y-6214579D02*
X1027205Y-6252674D01*
X1027205Y-6252674D02*
X1027205Y-6300293D01*
X1027205Y-6300293D02*
X1017682Y-6338388D01*
X1017682Y-6338388D02*
X1008158Y-6357436D01*
X1008158Y-6357436D02*
X998634Y-6366960D01*
X998634Y-6366960D02*
X979586Y-6376484D01*
X979586Y-6376484D02*
X960539Y-6376484D01*
X960539Y-6376484D02*
X941491Y-6366960D01*
X941491Y-6366960D02*
X931967Y-6357436D01*
X931967Y-6357436D02*
X922443Y-6338388D01*
X922443Y-6338388D02*
X912920Y-6300293D01*
X912920Y-6300293D02*
X912920Y-6252674D01*
X912920Y-6252674D02*
X922443Y-6214579D01*
X922443Y-6214579D02*
X931967Y-6195531D01*
X931967Y-6195531D02*
X941491Y-6186008D01*
X941491Y-6186008D02*
X960539Y-6176484D01*
X1112920Y-6376484D02*
X1112920Y-6243150D01*
X1112920Y-6262198D02*
X1122444Y-6252674D01*
X1122444Y-6252674D02*
X1141491Y-6243150D01*
X1141491Y-6243150D02*
X1170063Y-6243150D01*
X1170063Y-6243150D02*
X1189110Y-6252674D01*
X1189110Y-6252674D02*
X1198634Y-6271722D01*
X1198634Y-6271722D02*
X1198634Y-6376484D01*
X1198634Y-6271722D02*
X1208158Y-6252674D01*
X1208158Y-6252674D02*
X1227205Y-6243150D01*
X1227205Y-6243150D02*
X1255777Y-6243150D01*
X1255777Y-6243150D02*
X1274825Y-6252674D01*
X1274825Y-6252674D02*
X1284348Y-6271722D01*
X1284348Y-6271722D02*
X1284348Y-6376484D01*
X1379586Y-6376484D02*
X1379586Y-6243150D01*
X1379586Y-6262198D02*
X1389110Y-6252674D01*
X1389110Y-6252674D02*
X1408158Y-6243150D01*
X1408158Y-6243150D02*
X1436729Y-6243150D01*
X1436729Y-6243150D02*
X1455777Y-6252674D01*
X1455777Y-6252674D02*
X1465301Y-6271722D01*
X1465301Y-6271722D02*
X1465301Y-6376484D01*
X1465301Y-6271722D02*
X1474824Y-6252674D01*
X1474824Y-6252674D02*
X1493872Y-6243150D01*
X1493872Y-6243150D02*
X1522443Y-6243150D01*
X1522443Y-6243150D02*
X1541491Y-6252674D01*
X1541491Y-6252674D02*
X1551015Y-6271722D01*
X1551015Y-6271722D02*
X1551015Y-6376484D01*
X1941491Y-6166960D02*
X1770063Y-6424103D01*
X2198634Y-6176484D02*
X2217682Y-6176484D01*
X2217682Y-6176484D02*
X2236729Y-6186008D01*
X2236729Y-6186008D02*
X2246253Y-6195531D01*
X2246253Y-6195531D02*
X2255777Y-6214579D01*
X2255777Y-6214579D02*
X2265301Y-6252674D01*
X2265301Y-6252674D02*
X2265301Y-6300293D01*
X2265301Y-6300293D02*
X2255777Y-6338388D01*
X2255777Y-6338388D02*
X2246253Y-6357436D01*
X2246253Y-6357436D02*
X2236729Y-6366960D01*
X2236729Y-6366960D02*
X2217682Y-6376484D01*
X2217682Y-6376484D02*
X2198634Y-6376484D01*
X2198634Y-6376484D02*
X2179587Y-6366960D01*
X2179587Y-6366960D02*
X2170063Y-6357436D01*
X2170063Y-6357436D02*
X2160539Y-6338388D01*
X2160539Y-6338388D02*
X2151015Y-6300293D01*
X2151015Y-6300293D02*
X2151015Y-6252674D01*
X2151015Y-6252674D02*
X2160539Y-6214579D01*
X2160539Y-6214579D02*
X2170063Y-6195531D01*
X2170063Y-6195531D02*
X2179587Y-6186008D01*
X2179587Y-6186008D02*
X2198634Y-6176484D01*
X2351015Y-6357436D02*
X2360539Y-6366960D01*
X2360539Y-6366960D02*
X2351015Y-6376484D01*
X2351015Y-6376484D02*
X2341491Y-6366960D01*
X2341491Y-6366960D02*
X2351015Y-6357436D01*
X2351015Y-6357436D02*
X2351015Y-6376484D01*
X2484348Y-6176484D02*
X2503396Y-6176484D01*
X2503396Y-6176484D02*
X2522444Y-6186008D01*
X2522444Y-6186008D02*
X2531968Y-6195531D01*
X2531968Y-6195531D02*
X2541491Y-6214579D01*
X2541491Y-6214579D02*
X2551015Y-6252674D01*
X2551015Y-6252674D02*
X2551015Y-6300293D01*
X2551015Y-6300293D02*
X2541491Y-6338388D01*
X2541491Y-6338388D02*
X2531968Y-6357436D01*
X2531968Y-6357436D02*
X2522444Y-6366960D01*
X2522444Y-6366960D02*
X2503396Y-6376484D01*
X2503396Y-6376484D02*
X2484348Y-6376484D01*
X2484348Y-6376484D02*
X2465301Y-6366960D01*
X2465301Y-6366960D02*
X2455777Y-6357436D01*
X2455777Y-6357436D02*
X2446253Y-6338388D01*
X2446253Y-6338388D02*
X2436729Y-6300293D01*
X2436729Y-6300293D02*
X2436729Y-6252674D01*
X2436729Y-6252674D02*
X2446253Y-6214579D01*
X2446253Y-6214579D02*
X2455777Y-6195531D01*
X2455777Y-6195531D02*
X2465301Y-6186008D01*
X2465301Y-6186008D02*
X2484348Y-6176484D01*
X2741491Y-6376484D02*
X2627206Y-6376484D01*
X2684348Y-6376484D02*
X2684348Y-6176484D01*
X2684348Y-6176484D02*
X2665301Y-6205055D01*
X2665301Y-6205055D02*
X2646253Y-6224103D01*
X2646253Y-6224103D02*
X2627206Y-6233627D01*
X2836729Y-6376484D02*
X2874825Y-6376484D01*
X2874825Y-6376484D02*
X2893872Y-6366960D01*
X2893872Y-6366960D02*
X2903396Y-6357436D01*
X2903396Y-6357436D02*
X2922444Y-6328865D01*
X2922444Y-6328865D02*
X2931967Y-6290769D01*
X2931967Y-6290769D02*
X2931967Y-6214579D01*
X2931967Y-6214579D02*
X2922444Y-6195531D01*
X2922444Y-6195531D02*
X2912920Y-6186008D01*
X2912920Y-6186008D02*
X2893872Y-6176484D01*
X2893872Y-6176484D02*
X2855777Y-6176484D01*
X2855777Y-6176484D02*
X2836729Y-6186008D01*
X2836729Y-6186008D02*
X2827206Y-6195531D01*
X2827206Y-6195531D02*
X2817682Y-6214579D01*
X2817682Y-6214579D02*
X2817682Y-6262198D01*
X2817682Y-6262198D02*
X2827206Y-6281246D01*
X2827206Y-6281246D02*
X2836729Y-6290769D01*
X2836729Y-6290769D02*
X2855777Y-6300293D01*
X2855777Y-6300293D02*
X2893872Y-6300293D01*
X2893872Y-6300293D02*
X2912920Y-6290769D01*
X2912920Y-6290769D02*
X2922444Y-6281246D01*
X2922444Y-6281246D02*
X2931967Y-6262198D01*
X2998634Y-6176484D02*
X3131967Y-6176484D01*
X3131967Y-6176484D02*
X3046253Y-6376484D01*
X3198634Y-6176484D02*
X3198634Y-6214579D01*
X3274825Y-6176484D02*
X3274825Y-6214579D01*
X3570063Y-6452674D02*
X3560539Y-6443150D01*
X3560539Y-6443150D02*
X3541491Y-6414579D01*
X3541491Y-6414579D02*
X3531968Y-6395531D01*
X3531968Y-6395531D02*
X3522444Y-6366960D01*
X3522444Y-6366960D02*
X3512920Y-6319341D01*
X3512920Y-6319341D02*
X3512920Y-6281246D01*
X3512920Y-6281246D02*
X3522444Y-6233627D01*
X3522444Y-6233627D02*
X3531968Y-6205055D01*
X3531968Y-6205055D02*
X3541491Y-6186008D01*
X3541491Y-6186008D02*
X3560539Y-6157436D01*
X3560539Y-6157436D02*
X3570063Y-6147912D01*
X3751015Y-6376484D02*
X3636729Y-6376484D01*
X3693872Y-6376484D02*
X3693872Y-6176484D01*
X3693872Y-6176484D02*
X3674825Y-6205055D01*
X3674825Y-6205055D02*
X3655777Y-6224103D01*
X3655777Y-6224103D02*
X3636729Y-6233627D01*
X3874825Y-6176484D02*
X3893872Y-6176484D01*
X3893872Y-6176484D02*
X3912920Y-6186008D01*
X3912920Y-6186008D02*
X3922444Y-6195531D01*
X3922444Y-6195531D02*
X3931968Y-6214579D01*
X3931968Y-6214579D02*
X3941491Y-6252674D01*
X3941491Y-6252674D02*
X3941491Y-6300293D01*
X3941491Y-6300293D02*
X3931968Y-6338388D01*
X3931968Y-6338388D02*
X3922444Y-6357436D01*
X3922444Y-6357436D02*
X3912920Y-6366960D01*
X3912920Y-6366960D02*
X3893872Y-6376484D01*
X3893872Y-6376484D02*
X3874825Y-6376484D01*
X3874825Y-6376484D02*
X3855777Y-6366960D01*
X3855777Y-6366960D02*
X3846253Y-6357436D01*
X3846253Y-6357436D02*
X3836729Y-6338388D01*
X3836729Y-6338388D02*
X3827206Y-6300293D01*
X3827206Y-6300293D02*
X3827206Y-6252674D01*
X3827206Y-6252674D02*
X3836729Y-6214579D01*
X3836729Y-6214579D02*
X3846253Y-6195531D01*
X3846253Y-6195531D02*
X3855777Y-6186008D01*
X3855777Y-6186008D02*
X3874825Y-6176484D01*
X4112920Y-6243150D02*
X4112920Y-6376484D01*
X4065301Y-6166960D02*
X4017682Y-6309817D01*
X4017682Y-6309817D02*
X4141491Y-6309817D01*
X4370063Y-6376484D02*
X4370063Y-6176484D01*
X4455777Y-6376484D02*
X4455777Y-6271722D01*
X4455777Y-6271722D02*
X4446253Y-6252674D01*
X4446253Y-6252674D02*
X4427206Y-6243150D01*
X4427206Y-6243150D02*
X4398634Y-6243150D01*
X4398634Y-6243150D02*
X4379587Y-6252674D01*
X4379587Y-6252674D02*
X4370063Y-6262198D01*
X4579587Y-6376484D02*
X4560539Y-6366960D01*
X4560539Y-6366960D02*
X4551015Y-6357436D01*
X4551015Y-6357436D02*
X4541492Y-6338388D01*
X4541492Y-6338388D02*
X4541492Y-6281246D01*
X4541492Y-6281246D02*
X4551015Y-6262198D01*
X4551015Y-6262198D02*
X4560539Y-6252674D01*
X4560539Y-6252674D02*
X4579587Y-6243150D01*
X4579587Y-6243150D02*
X4608158Y-6243150D01*
X4608158Y-6243150D02*
X4627206Y-6252674D01*
X4627206Y-6252674D02*
X4636730Y-6262198D01*
X4636730Y-6262198D02*
X4646253Y-6281246D01*
X4646253Y-6281246D02*
X4646253Y-6338388D01*
X4646253Y-6338388D02*
X4636730Y-6357436D01*
X4636730Y-6357436D02*
X4627206Y-6366960D01*
X4627206Y-6366960D02*
X4608158Y-6376484D01*
X4608158Y-6376484D02*
X4579587Y-6376484D01*
X4760539Y-6376484D02*
X4741492Y-6366960D01*
X4741492Y-6366960D02*
X4731968Y-6347912D01*
X4731968Y-6347912D02*
X4731968Y-6176484D01*
X4912920Y-6366960D02*
X4893873Y-6376484D01*
X4893873Y-6376484D02*
X4855777Y-6376484D01*
X4855777Y-6376484D02*
X4836730Y-6366960D01*
X4836730Y-6366960D02*
X4827206Y-6347912D01*
X4827206Y-6347912D02*
X4827206Y-6271722D01*
X4827206Y-6271722D02*
X4836730Y-6252674D01*
X4836730Y-6252674D02*
X4855777Y-6243150D01*
X4855777Y-6243150D02*
X4893873Y-6243150D01*
X4893873Y-6243150D02*
X4912920Y-6252674D01*
X4912920Y-6252674D02*
X4922444Y-6271722D01*
X4922444Y-6271722D02*
X4922444Y-6290769D01*
X4922444Y-6290769D02*
X4827206Y-6309817D01*
X4998634Y-6366960D02*
X5017682Y-6376484D01*
X5017682Y-6376484D02*
X5055777Y-6376484D01*
X5055777Y-6376484D02*
X5074825Y-6366960D01*
X5074825Y-6366960D02*
X5084349Y-6347912D01*
X5084349Y-6347912D02*
X5084349Y-6338388D01*
X5084349Y-6338388D02*
X5074825Y-6319341D01*
X5074825Y-6319341D02*
X5055777Y-6309817D01*
X5055777Y-6309817D02*
X5027206Y-6309817D01*
X5027206Y-6309817D02*
X5008158Y-6300293D01*
X5008158Y-6300293D02*
X4998634Y-6281246D01*
X4998634Y-6281246D02*
X4998634Y-6271722D01*
X4998634Y-6271722D02*
X5008158Y-6252674D01*
X5008158Y-6252674D02*
X5027206Y-6243150D01*
X5027206Y-6243150D02*
X5055777Y-6243150D01*
X5055777Y-6243150D02*
X5074825Y-6252674D01*
X5151015Y-6452674D02*
X5160539Y-6443150D01*
X5160539Y-6443150D02*
X5179587Y-6414579D01*
X5179587Y-6414579D02*
X5189111Y-6395531D01*
X5189111Y-6395531D02*
X5198634Y-6366960D01*
X5198634Y-6366960D02*
X5208158Y-6319341D01*
X5208158Y-6319341D02*
X5208158Y-6281246D01*
X5208158Y-6281246D02*
X5198634Y-6233627D01*
X5198634Y-6233627D02*
X5189111Y-6205055D01*
X5189111Y-6205055D02*
X5179587Y-6186008D01*
X5179587Y-6186008D02*
X5160539Y-6157436D01*
X5160539Y-6157436D02*
X5151015Y-6147912D01*
X5512920Y-6452674D02*
X5503396Y-6443150D01*
X5503396Y-6443150D02*
X5484349Y-6414579D01*
X5484349Y-6414579D02*
X5474825Y-6395531D01*
X5474825Y-6395531D02*
X5465301Y-6366960D01*
X5465301Y-6366960D02*
X5455777Y-6319341D01*
X5455777Y-6319341D02*
X5455777Y-6281246D01*
X5455777Y-6281246D02*
X5465301Y-6233627D01*
X5465301Y-6233627D02*
X5474825Y-6205055D01*
X5474825Y-6205055D02*
X5484349Y-6186008D01*
X5484349Y-6186008D02*
X5503396Y-6157436D01*
X5503396Y-6157436D02*
X5512920Y-6147912D01*
X5589111Y-6243150D02*
X5589111Y-6376484D01*
X5589111Y-6262198D02*
X5598634Y-6252674D01*
X5598634Y-6252674D02*
X5617682Y-6243150D01*
X5617682Y-6243150D02*
X5646253Y-6243150D01*
X5646253Y-6243150D02*
X5665301Y-6252674D01*
X5665301Y-6252674D02*
X5674825Y-6271722D01*
X5674825Y-6271722D02*
X5674825Y-6376484D01*
X5798634Y-6376484D02*
X5779587Y-6366960D01*
X5779587Y-6366960D02*
X5770063Y-6357436D01*
X5770063Y-6357436D02*
X5760539Y-6338388D01*
X5760539Y-6338388D02*
X5760539Y-6281246D01*
X5760539Y-6281246D02*
X5770063Y-6262198D01*
X5770063Y-6262198D02*
X5779587Y-6252674D01*
X5779587Y-6252674D02*
X5798634Y-6243150D01*
X5798634Y-6243150D02*
X5827206Y-6243150D01*
X5827206Y-6243150D02*
X5846253Y-6252674D01*
X5846253Y-6252674D02*
X5855777Y-6262198D01*
X5855777Y-6262198D02*
X5865301Y-6281246D01*
X5865301Y-6281246D02*
X5865301Y-6338388D01*
X5865301Y-6338388D02*
X5855777Y-6357436D01*
X5855777Y-6357436D02*
X5846253Y-6366960D01*
X5846253Y-6366960D02*
X5827206Y-6376484D01*
X5827206Y-6376484D02*
X5798634Y-6376484D01*
X5922444Y-6243150D02*
X5998634Y-6243150D01*
X5951015Y-6176484D02*
X5951015Y-6347912D01*
X5951015Y-6347912D02*
X5960539Y-6366960D01*
X5960539Y-6366960D02*
X5979587Y-6376484D01*
X5979587Y-6376484D02*
X5998634Y-6376484D01*
X6217682Y-6243150D02*
X6217682Y-6443150D01*
X6217682Y-6252674D02*
X6236730Y-6243150D01*
X6236730Y-6243150D02*
X6274825Y-6243150D01*
X6274825Y-6243150D02*
X6293873Y-6252674D01*
X6293873Y-6252674D02*
X6303396Y-6262198D01*
X6303396Y-6262198D02*
X6312920Y-6281246D01*
X6312920Y-6281246D02*
X6312920Y-6338388D01*
X6312920Y-6338388D02*
X6303396Y-6357436D01*
X6303396Y-6357436D02*
X6293873Y-6366960D01*
X6293873Y-6366960D02*
X6274825Y-6376484D01*
X6274825Y-6376484D02*
X6236730Y-6376484D01*
X6236730Y-6376484D02*
X6217682Y-6366960D01*
X6427206Y-6376484D02*
X6408158Y-6366960D01*
X6408158Y-6366960D02*
X6398634Y-6347912D01*
X6398634Y-6347912D02*
X6398634Y-6176484D01*
X6589111Y-6376484D02*
X6589111Y-6271722D01*
X6589111Y-6271722D02*
X6579587Y-6252674D01*
X6579587Y-6252674D02*
X6560539Y-6243150D01*
X6560539Y-6243150D02*
X6522444Y-6243150D01*
X6522444Y-6243150D02*
X6503396Y-6252674D01*
X6589111Y-6366960D02*
X6570063Y-6376484D01*
X6570063Y-6376484D02*
X6522444Y-6376484D01*
X6522444Y-6376484D02*
X6503396Y-6366960D01*
X6503396Y-6366960D02*
X6493873Y-6347912D01*
X6493873Y-6347912D02*
X6493873Y-6328865D01*
X6493873Y-6328865D02*
X6503396Y-6309817D01*
X6503396Y-6309817D02*
X6522444Y-6300293D01*
X6522444Y-6300293D02*
X6570063Y-6300293D01*
X6570063Y-6300293D02*
X6589111Y-6290769D01*
X6655777Y-6243150D02*
X6731968Y-6243150D01*
X6684349Y-6176484D02*
X6684349Y-6347912D01*
X6684349Y-6347912D02*
X6693873Y-6366960D01*
X6693873Y-6366960D02*
X6712920Y-6376484D01*
X6712920Y-6376484D02*
X6731968Y-6376484D01*
X6874825Y-6366960D02*
X6855777Y-6376484D01*
X6855777Y-6376484D02*
X6817682Y-6376484D01*
X6817682Y-6376484D02*
X6798634Y-6366960D01*
X6798634Y-6366960D02*
X6789111Y-6347912D01*
X6789111Y-6347912D02*
X6789111Y-6271722D01*
X6789111Y-6271722D02*
X6798634Y-6252674D01*
X6798634Y-6252674D02*
X6817682Y-6243150D01*
X6817682Y-6243150D02*
X6855777Y-6243150D01*
X6855777Y-6243150D02*
X6874825Y-6252674D01*
X6874825Y-6252674D02*
X6884349Y-6271722D01*
X6884349Y-6271722D02*
X6884349Y-6290769D01*
X6884349Y-6290769D02*
X6789111Y-6309817D01*
X7055777Y-6376484D02*
X7055777Y-6176484D01*
X7055777Y-6366960D02*
X7036730Y-6376484D01*
X7036730Y-6376484D02*
X6998634Y-6376484D01*
X6998634Y-6376484D02*
X6979587Y-6366960D01*
X6979587Y-6366960D02*
X6970063Y-6357436D01*
X6970063Y-6357436D02*
X6960539Y-6338388D01*
X6960539Y-6338388D02*
X6960539Y-6281246D01*
X6960539Y-6281246D02*
X6970063Y-6262198D01*
X6970063Y-6262198D02*
X6979587Y-6252674D01*
X6979587Y-6252674D02*
X6998634Y-6243150D01*
X6998634Y-6243150D02*
X7036730Y-6243150D01*
X7036730Y-6243150D02*
X7055777Y-6252674D01*
X7131968Y-6452674D02*
X7141492Y-6443150D01*
X7141492Y-6443150D02*
X7160539Y-6414579D01*
X7160539Y-6414579D02*
X7170063Y-6395531D01*
X7170063Y-6395531D02*
X7179587Y-6366960D01*
X7179587Y-6366960D02*
X7189111Y-6319341D01*
X7189111Y-6319341D02*
X7189111Y-6281246D01*
X7189111Y-6281246D02*
X7179587Y-6233627D01*
X7179587Y-6233627D02*
X7170063Y-6205055D01*
X7170063Y-6205055D02*
X7160539Y-6186008D01*
X7160539Y-6186008D02*
X7141492Y-6157436D01*
X7141492Y-6157436D02*
X7131968Y-6147912D01*
D12*
X-5000Y-6549000D02*
G75*
G02*
X-120200Y-6549000I-57600J0D01*
G01*
X-120200Y-6549000D02*
G75*
G02*
X-5000Y-6549000I57600J0D01*
G01*
D11*
X360539Y-6640484D02*
X246253Y-6640484D01*
X303396Y-6640484D02*
X303396Y-6440484D01*
X303396Y-6440484D02*
X284348Y-6469055D01*
X284348Y-6469055D02*
X265301Y-6488103D01*
X265301Y-6488103D02*
X246253Y-6497627D01*
X446253Y-6621436D02*
X455777Y-6630960D01*
X455777Y-6630960D02*
X446253Y-6640484D01*
X446253Y-6640484D02*
X436729Y-6630960D01*
X436729Y-6630960D02*
X446253Y-6621436D01*
X446253Y-6621436D02*
X446253Y-6640484D01*
X646253Y-6640484D02*
X531967Y-6640484D01*
X589110Y-6640484D02*
X589110Y-6440484D01*
X589110Y-6440484D02*
X570063Y-6469055D01*
X570063Y-6469055D02*
X551015Y-6488103D01*
X551015Y-6488103D02*
X531967Y-6497627D01*
X827205Y-6440484D02*
X731967Y-6440484D01*
X731967Y-6440484D02*
X722443Y-6535722D01*
X722443Y-6535722D02*
X731967Y-6526198D01*
X731967Y-6526198D02*
X751015Y-6516674D01*
X751015Y-6516674D02*
X798634Y-6516674D01*
X798634Y-6516674D02*
X817682Y-6526198D01*
X817682Y-6526198D02*
X827205Y-6535722D01*
X827205Y-6535722D02*
X836729Y-6554769D01*
X836729Y-6554769D02*
X836729Y-6602388D01*
X836729Y-6602388D02*
X827205Y-6621436D01*
X827205Y-6621436D02*
X817682Y-6630960D01*
X817682Y-6630960D02*
X798634Y-6640484D01*
X798634Y-6640484D02*
X751015Y-6640484D01*
X751015Y-6640484D02*
X731967Y-6630960D01*
X731967Y-6630960D02*
X722443Y-6621436D01*
X912920Y-6459531D02*
X922443Y-6450008D01*
X922443Y-6450008D02*
X941491Y-6440484D01*
X941491Y-6440484D02*
X989110Y-6440484D01*
X989110Y-6440484D02*
X1008158Y-6450008D01*
X1008158Y-6450008D02*
X1017682Y-6459531D01*
X1017682Y-6459531D02*
X1027205Y-6478579D01*
X1027205Y-6478579D02*
X1027205Y-6497627D01*
X1027205Y-6497627D02*
X1017682Y-6526198D01*
X1017682Y-6526198D02*
X903396Y-6640484D01*
X903396Y-6640484D02*
X1027205Y-6640484D01*
X1112920Y-6640484D02*
X1112920Y-6507150D01*
X1112920Y-6526198D02*
X1122444Y-6516674D01*
X1122444Y-6516674D02*
X1141491Y-6507150D01*
X1141491Y-6507150D02*
X1170063Y-6507150D01*
X1170063Y-6507150D02*
X1189110Y-6516674D01*
X1189110Y-6516674D02*
X1198634Y-6535722D01*
X1198634Y-6535722D02*
X1198634Y-6640484D01*
X1198634Y-6535722D02*
X1208158Y-6516674D01*
X1208158Y-6516674D02*
X1227205Y-6507150D01*
X1227205Y-6507150D02*
X1255777Y-6507150D01*
X1255777Y-6507150D02*
X1274825Y-6516674D01*
X1274825Y-6516674D02*
X1284348Y-6535722D01*
X1284348Y-6535722D02*
X1284348Y-6640484D01*
X1379586Y-6640484D02*
X1379586Y-6507150D01*
X1379586Y-6526198D02*
X1389110Y-6516674D01*
X1389110Y-6516674D02*
X1408158Y-6507150D01*
X1408158Y-6507150D02*
X1436729Y-6507150D01*
X1436729Y-6507150D02*
X1455777Y-6516674D01*
X1455777Y-6516674D02*
X1465301Y-6535722D01*
X1465301Y-6535722D02*
X1465301Y-6640484D01*
X1465301Y-6535722D02*
X1474824Y-6516674D01*
X1474824Y-6516674D02*
X1493872Y-6507150D01*
X1493872Y-6507150D02*
X1522443Y-6507150D01*
X1522443Y-6507150D02*
X1541491Y-6516674D01*
X1541491Y-6516674D02*
X1551015Y-6535722D01*
X1551015Y-6535722D02*
X1551015Y-6640484D01*
X1941491Y-6430960D02*
X1770063Y-6688103D01*
X2198634Y-6440484D02*
X2217682Y-6440484D01*
X2217682Y-6440484D02*
X2236729Y-6450008D01*
X2236729Y-6450008D02*
X2246253Y-6459531D01*
X2246253Y-6459531D02*
X2255777Y-6478579D01*
X2255777Y-6478579D02*
X2265301Y-6516674D01*
X2265301Y-6516674D02*
X2265301Y-6564293D01*
X2265301Y-6564293D02*
X2255777Y-6602388D01*
X2255777Y-6602388D02*
X2246253Y-6621436D01*
X2246253Y-6621436D02*
X2236729Y-6630960D01*
X2236729Y-6630960D02*
X2217682Y-6640484D01*
X2217682Y-6640484D02*
X2198634Y-6640484D01*
X2198634Y-6640484D02*
X2179587Y-6630960D01*
X2179587Y-6630960D02*
X2170063Y-6621436D01*
X2170063Y-6621436D02*
X2160539Y-6602388D01*
X2160539Y-6602388D02*
X2151015Y-6564293D01*
X2151015Y-6564293D02*
X2151015Y-6516674D01*
X2151015Y-6516674D02*
X2160539Y-6478579D01*
X2160539Y-6478579D02*
X2170063Y-6459531D01*
X2170063Y-6459531D02*
X2179587Y-6450008D01*
X2179587Y-6450008D02*
X2198634Y-6440484D01*
X2351015Y-6621436D02*
X2360539Y-6630960D01*
X2360539Y-6630960D02*
X2351015Y-6640484D01*
X2351015Y-6640484D02*
X2341491Y-6630960D01*
X2341491Y-6630960D02*
X2351015Y-6621436D01*
X2351015Y-6621436D02*
X2351015Y-6640484D01*
X2484348Y-6440484D02*
X2503396Y-6440484D01*
X2503396Y-6440484D02*
X2522444Y-6450008D01*
X2522444Y-6450008D02*
X2531968Y-6459531D01*
X2531968Y-6459531D02*
X2541491Y-6478579D01*
X2541491Y-6478579D02*
X2551015Y-6516674D01*
X2551015Y-6516674D02*
X2551015Y-6564293D01*
X2551015Y-6564293D02*
X2541491Y-6602388D01*
X2541491Y-6602388D02*
X2531968Y-6621436D01*
X2531968Y-6621436D02*
X2522444Y-6630960D01*
X2522444Y-6630960D02*
X2503396Y-6640484D01*
X2503396Y-6640484D02*
X2484348Y-6640484D01*
X2484348Y-6640484D02*
X2465301Y-6630960D01*
X2465301Y-6630960D02*
X2455777Y-6621436D01*
X2455777Y-6621436D02*
X2446253Y-6602388D01*
X2446253Y-6602388D02*
X2436729Y-6564293D01*
X2436729Y-6564293D02*
X2436729Y-6516674D01*
X2436729Y-6516674D02*
X2446253Y-6478579D01*
X2446253Y-6478579D02*
X2455777Y-6459531D01*
X2455777Y-6459531D02*
X2465301Y-6450008D01*
X2465301Y-6450008D02*
X2484348Y-6440484D01*
X2722444Y-6507150D02*
X2722444Y-6640484D01*
X2674825Y-6430960D02*
X2627206Y-6573817D01*
X2627206Y-6573817D02*
X2751015Y-6573817D01*
X2922444Y-6440484D02*
X2827206Y-6440484D01*
X2827206Y-6440484D02*
X2817682Y-6535722D01*
X2817682Y-6535722D02*
X2827206Y-6526198D01*
X2827206Y-6526198D02*
X2846253Y-6516674D01*
X2846253Y-6516674D02*
X2893872Y-6516674D01*
X2893872Y-6516674D02*
X2912920Y-6526198D01*
X2912920Y-6526198D02*
X2922444Y-6535722D01*
X2922444Y-6535722D02*
X2931967Y-6554769D01*
X2931967Y-6554769D02*
X2931967Y-6602388D01*
X2931967Y-6602388D02*
X2922444Y-6621436D01*
X2922444Y-6621436D02*
X2912920Y-6630960D01*
X2912920Y-6630960D02*
X2893872Y-6640484D01*
X2893872Y-6640484D02*
X2846253Y-6640484D01*
X2846253Y-6640484D02*
X2827206Y-6630960D01*
X2827206Y-6630960D02*
X2817682Y-6621436D01*
X3103396Y-6507150D02*
X3103396Y-6640484D01*
X3055777Y-6430960D02*
X3008158Y-6573817D01*
X3008158Y-6573817D02*
X3131967Y-6573817D01*
X3198634Y-6440484D02*
X3198634Y-6478579D01*
X3274825Y-6440484D02*
X3274825Y-6478579D01*
X3570063Y-6716674D02*
X3560539Y-6707150D01*
X3560539Y-6707150D02*
X3541491Y-6678579D01*
X3541491Y-6678579D02*
X3531968Y-6659531D01*
X3531968Y-6659531D02*
X3522444Y-6630960D01*
X3522444Y-6630960D02*
X3512920Y-6583341D01*
X3512920Y-6583341D02*
X3512920Y-6545246D01*
X3512920Y-6545246D02*
X3522444Y-6497627D01*
X3522444Y-6497627D02*
X3531968Y-6469055D01*
X3531968Y-6469055D02*
X3541491Y-6450008D01*
X3541491Y-6450008D02*
X3560539Y-6421436D01*
X3560539Y-6421436D02*
X3570063Y-6411912D01*
X3627206Y-6440484D02*
X3751015Y-6440484D01*
X3751015Y-6440484D02*
X3684348Y-6516674D01*
X3684348Y-6516674D02*
X3712920Y-6516674D01*
X3712920Y-6516674D02*
X3731968Y-6526198D01*
X3731968Y-6526198D02*
X3741491Y-6535722D01*
X3741491Y-6535722D02*
X3751015Y-6554769D01*
X3751015Y-6554769D02*
X3751015Y-6602388D01*
X3751015Y-6602388D02*
X3741491Y-6621436D01*
X3741491Y-6621436D02*
X3731968Y-6630960D01*
X3731968Y-6630960D02*
X3712920Y-6640484D01*
X3712920Y-6640484D02*
X3655777Y-6640484D01*
X3655777Y-6640484D02*
X3636729Y-6630960D01*
X3636729Y-6630960D02*
X3627206Y-6621436D01*
X3989110Y-6640484D02*
X3989110Y-6440484D01*
X4074825Y-6640484D02*
X4074825Y-6535722D01*
X4074825Y-6535722D02*
X4065301Y-6516674D01*
X4065301Y-6516674D02*
X4046253Y-6507150D01*
X4046253Y-6507150D02*
X4017682Y-6507150D01*
X4017682Y-6507150D02*
X3998634Y-6516674D01*
X3998634Y-6516674D02*
X3989110Y-6526198D01*
X4198634Y-6640484D02*
X4179587Y-6630960D01*
X4179587Y-6630960D02*
X4170063Y-6621436D01*
X4170063Y-6621436D02*
X4160539Y-6602388D01*
X4160539Y-6602388D02*
X4160539Y-6545246D01*
X4160539Y-6545246D02*
X4170063Y-6526198D01*
X4170063Y-6526198D02*
X4179587Y-6516674D01*
X4179587Y-6516674D02*
X4198634Y-6507150D01*
X4198634Y-6507150D02*
X4227206Y-6507150D01*
X4227206Y-6507150D02*
X4246253Y-6516674D01*
X4246253Y-6516674D02*
X4255777Y-6526198D01*
X4255777Y-6526198D02*
X4265301Y-6545246D01*
X4265301Y-6545246D02*
X4265301Y-6602388D01*
X4265301Y-6602388D02*
X4255777Y-6621436D01*
X4255777Y-6621436D02*
X4246253Y-6630960D01*
X4246253Y-6630960D02*
X4227206Y-6640484D01*
X4227206Y-6640484D02*
X4198634Y-6640484D01*
X4379587Y-6640484D02*
X4360539Y-6630960D01*
X4360539Y-6630960D02*
X4351015Y-6611912D01*
X4351015Y-6611912D02*
X4351015Y-6440484D01*
X4531968Y-6630960D02*
X4512920Y-6640484D01*
X4512920Y-6640484D02*
X4474825Y-6640484D01*
X4474825Y-6640484D02*
X4455777Y-6630960D01*
X4455777Y-6630960D02*
X4446253Y-6611912D01*
X4446253Y-6611912D02*
X4446253Y-6535722D01*
X4446253Y-6535722D02*
X4455777Y-6516674D01*
X4455777Y-6516674D02*
X4474825Y-6507150D01*
X4474825Y-6507150D02*
X4512920Y-6507150D01*
X4512920Y-6507150D02*
X4531968Y-6516674D01*
X4531968Y-6516674D02*
X4541492Y-6535722D01*
X4541492Y-6535722D02*
X4541492Y-6554769D01*
X4541492Y-6554769D02*
X4446253Y-6573817D01*
X4617682Y-6630960D02*
X4636730Y-6640484D01*
X4636730Y-6640484D02*
X4674825Y-6640484D01*
X4674825Y-6640484D02*
X4693873Y-6630960D01*
X4693873Y-6630960D02*
X4703396Y-6611912D01*
X4703396Y-6611912D02*
X4703396Y-6602388D01*
X4703396Y-6602388D02*
X4693873Y-6583341D01*
X4693873Y-6583341D02*
X4674825Y-6573817D01*
X4674825Y-6573817D02*
X4646253Y-6573817D01*
X4646253Y-6573817D02*
X4627206Y-6564293D01*
X4627206Y-6564293D02*
X4617682Y-6545246D01*
X4617682Y-6545246D02*
X4617682Y-6535722D01*
X4617682Y-6535722D02*
X4627206Y-6516674D01*
X4627206Y-6516674D02*
X4646253Y-6507150D01*
X4646253Y-6507150D02*
X4674825Y-6507150D01*
X4674825Y-6507150D02*
X4693873Y-6516674D01*
X4770063Y-6716674D02*
X4779587Y-6707150D01*
X4779587Y-6707150D02*
X4798634Y-6678579D01*
X4798634Y-6678579D02*
X4808158Y-6659531D01*
X4808158Y-6659531D02*
X4817682Y-6630960D01*
X4817682Y-6630960D02*
X4827206Y-6583341D01*
X4827206Y-6583341D02*
X4827206Y-6545246D01*
X4827206Y-6545246D02*
X4817682Y-6497627D01*
X4817682Y-6497627D02*
X4808158Y-6469055D01*
X4808158Y-6469055D02*
X4798634Y-6450008D01*
X4798634Y-6450008D02*
X4779587Y-6421436D01*
X4779587Y-6421436D02*
X4770063Y-6411912D01*
X5131968Y-6716674D02*
X5122444Y-6707150D01*
X5122444Y-6707150D02*
X5103396Y-6678579D01*
X5103396Y-6678579D02*
X5093873Y-6659531D01*
X5093873Y-6659531D02*
X5084349Y-6630960D01*
X5084349Y-6630960D02*
X5074825Y-6583341D01*
X5074825Y-6583341D02*
X5074825Y-6545246D01*
X5074825Y-6545246D02*
X5084349Y-6497627D01*
X5084349Y-6497627D02*
X5093873Y-6469055D01*
X5093873Y-6469055D02*
X5103396Y-6450008D01*
X5103396Y-6450008D02*
X5122444Y-6421436D01*
X5122444Y-6421436D02*
X5131968Y-6411912D01*
X5208158Y-6507150D02*
X5208158Y-6640484D01*
X5208158Y-6526198D02*
X5217682Y-6516674D01*
X5217682Y-6516674D02*
X5236730Y-6507150D01*
X5236730Y-6507150D02*
X5265301Y-6507150D01*
X5265301Y-6507150D02*
X5284349Y-6516674D01*
X5284349Y-6516674D02*
X5293873Y-6535722D01*
X5293873Y-6535722D02*
X5293873Y-6640484D01*
X5417682Y-6640484D02*
X5398634Y-6630960D01*
X5398634Y-6630960D02*
X5389111Y-6621436D01*
X5389111Y-6621436D02*
X5379587Y-6602388D01*
X5379587Y-6602388D02*
X5379587Y-6545246D01*
X5379587Y-6545246D02*
X5389111Y-6526198D01*
X5389111Y-6526198D02*
X5398634Y-6516674D01*
X5398634Y-6516674D02*
X5417682Y-6507150D01*
X5417682Y-6507150D02*
X5446254Y-6507150D01*
X5446254Y-6507150D02*
X5465301Y-6516674D01*
X5465301Y-6516674D02*
X5474825Y-6526198D01*
X5474825Y-6526198D02*
X5484349Y-6545246D01*
X5484349Y-6545246D02*
X5484349Y-6602388D01*
X5484349Y-6602388D02*
X5474825Y-6621436D01*
X5474825Y-6621436D02*
X5465301Y-6630960D01*
X5465301Y-6630960D02*
X5446254Y-6640484D01*
X5446254Y-6640484D02*
X5417682Y-6640484D01*
X5541492Y-6507150D02*
X5617682Y-6507150D01*
X5570063Y-6440484D02*
X5570063Y-6611912D01*
X5570063Y-6611912D02*
X5579587Y-6630960D01*
X5579587Y-6630960D02*
X5598634Y-6640484D01*
X5598634Y-6640484D02*
X5617682Y-6640484D01*
X5836730Y-6507150D02*
X5836730Y-6707150D01*
X5836730Y-6516674D02*
X5855777Y-6507150D01*
X5855777Y-6507150D02*
X5893873Y-6507150D01*
X5893873Y-6507150D02*
X5912920Y-6516674D01*
X5912920Y-6516674D02*
X5922444Y-6526198D01*
X5922444Y-6526198D02*
X5931968Y-6545246D01*
X5931968Y-6545246D02*
X5931968Y-6602388D01*
X5931968Y-6602388D02*
X5922444Y-6621436D01*
X5922444Y-6621436D02*
X5912920Y-6630960D01*
X5912920Y-6630960D02*
X5893873Y-6640484D01*
X5893873Y-6640484D02*
X5855777Y-6640484D01*
X5855777Y-6640484D02*
X5836730Y-6630960D01*
X6046253Y-6640484D02*
X6027206Y-6630960D01*
X6027206Y-6630960D02*
X6017682Y-6611912D01*
X6017682Y-6611912D02*
X6017682Y-6440484D01*
X6208158Y-6640484D02*
X6208158Y-6535722D01*
X6208158Y-6535722D02*
X6198634Y-6516674D01*
X6198634Y-6516674D02*
X6179587Y-6507150D01*
X6179587Y-6507150D02*
X6141492Y-6507150D01*
X6141492Y-6507150D02*
X6122444Y-6516674D01*
X6208158Y-6630960D02*
X6189111Y-6640484D01*
X6189111Y-6640484D02*
X6141492Y-6640484D01*
X6141492Y-6640484D02*
X6122444Y-6630960D01*
X6122444Y-6630960D02*
X6112920Y-6611912D01*
X6112920Y-6611912D02*
X6112920Y-6592865D01*
X6112920Y-6592865D02*
X6122444Y-6573817D01*
X6122444Y-6573817D02*
X6141492Y-6564293D01*
X6141492Y-6564293D02*
X6189111Y-6564293D01*
X6189111Y-6564293D02*
X6208158Y-6554769D01*
X6274825Y-6507150D02*
X6351015Y-6507150D01*
X6303396Y-6440484D02*
X6303396Y-6611912D01*
X6303396Y-6611912D02*
X6312920Y-6630960D01*
X6312920Y-6630960D02*
X6331968Y-6640484D01*
X6331968Y-6640484D02*
X6351015Y-6640484D01*
X6493873Y-6630960D02*
X6474825Y-6640484D01*
X6474825Y-6640484D02*
X6436730Y-6640484D01*
X6436730Y-6640484D02*
X6417682Y-6630960D01*
X6417682Y-6630960D02*
X6408158Y-6611912D01*
X6408158Y-6611912D02*
X6408158Y-6535722D01*
X6408158Y-6535722D02*
X6417682Y-6516674D01*
X6417682Y-6516674D02*
X6436730Y-6507150D01*
X6436730Y-6507150D02*
X6474825Y-6507150D01*
X6474825Y-6507150D02*
X6493873Y-6516674D01*
X6493873Y-6516674D02*
X6503396Y-6535722D01*
X6503396Y-6535722D02*
X6503396Y-6554769D01*
X6503396Y-6554769D02*
X6408158Y-6573817D01*
X6674825Y-6640484D02*
X6674825Y-6440484D01*
X6674825Y-6630960D02*
X6655777Y-6640484D01*
X6655777Y-6640484D02*
X6617682Y-6640484D01*
X6617682Y-6640484D02*
X6598634Y-6630960D01*
X6598634Y-6630960D02*
X6589111Y-6621436D01*
X6589111Y-6621436D02*
X6579587Y-6602388D01*
X6579587Y-6602388D02*
X6579587Y-6545246D01*
X6579587Y-6545246D02*
X6589111Y-6526198D01*
X6589111Y-6526198D02*
X6598634Y-6516674D01*
X6598634Y-6516674D02*
X6617682Y-6507150D01*
X6617682Y-6507150D02*
X6655777Y-6507150D01*
X6655777Y-6507150D02*
X6674825Y-6516674D01*
X6751015Y-6716674D02*
X6760539Y-6707150D01*
X6760539Y-6707150D02*
X6779587Y-6678579D01*
X6779587Y-6678579D02*
X6789111Y-6659531D01*
X6789111Y-6659531D02*
X6798634Y-6630960D01*
X6798634Y-6630960D02*
X6808158Y-6583341D01*
X6808158Y-6583341D02*
X6808158Y-6545246D01*
X6808158Y-6545246D02*
X6798634Y-6497627D01*
X6798634Y-6497627D02*
X6789111Y-6469055D01*
X6789111Y-6469055D02*
X6779587Y-6450008D01*
X6779587Y-6450008D02*
X6760539Y-6421436D01*
X6760539Y-6421436D02*
X6751015Y-6411912D01*
M02*
