G04 #@! TF.GenerationSoftware,KiCad,Pcbnew,8.0.8*
G04 #@! TF.CreationDate,2025-02-16T13:22:54-05:00*
G04 #@! TF.ProjectId,pico2-test-mule,7069636f-322d-4746-9573-742d6d756c65,v0.1.0*
G04 #@! TF.SameCoordinates,Original*
G04 #@! TF.FileFunction,Copper,L2,Bot*
G04 #@! TF.FilePolarity,Positive*
%FSLAX46Y46*%
G04 Gerber Fmt 4.6, Leading zero omitted, Abs format (unit mm)*
G04 Created by KiCad (PCBNEW 8.0.8) date 2025-02-16 13:22:54*
%MOMM*%
%LPD*%
G01*
G04 APERTURE LIST*
G04 Aperture macros list*
%AMRoundRect*
0 Rectangle with rounded corners*
0 $1 Rounding radius*
0 $2 $3 $4 $5 $6 $7 $8 $9 X,Y pos of 4 corners*
0 Add a 4 corners polygon primitive as box body*
4,1,4,$2,$3,$4,$5,$6,$7,$8,$9,$2,$3,0*
0 Add four circle primitives for the rounded corners*
1,1,$1+$1,$2,$3*
1,1,$1+$1,$4,$5*
1,1,$1+$1,$6,$7*
1,1,$1+$1,$8,$9*
0 Add four rect primitives between the rounded corners*
20,1,$1+$1,$2,$3,$4,$5,0*
20,1,$1+$1,$4,$5,$6,$7,0*
20,1,$1+$1,$6,$7,$8,$9,0*
20,1,$1+$1,$8,$9,$2,$3,0*%
%AMFreePoly0*
4,1,28,0.605014,0.794986,0.644504,0.794986,0.724698,0.756366,0.780194,0.686777,0.800000,0.600000,0.800000,-0.600000,0.780194,-0.686777,0.724698,-0.756366,0.644504,-0.794986,0.605014,-0.794986,0.600000,-0.800000,0.000000,-0.800000,-0.178017,-0.779942,-0.347107,-0.720775,-0.498792,-0.625465,-0.625465,-0.498792,-0.720775,-0.347107,-0.779942,-0.178017,-0.800000,0.000000,-0.779942,0.178017,
-0.720775,0.347107,-0.625465,0.498792,-0.498792,0.625465,-0.347107,0.720775,-0.178017,0.779942,0.000000,0.800000,0.600000,0.800000,0.605014,0.794986,0.605014,0.794986,$1*%
%AMFreePoly1*
4,1,28,0.178017,0.779942,0.347107,0.720775,0.498792,0.625465,0.625465,0.498792,0.720775,0.347107,0.779942,0.178017,0.800000,0.000000,0.779942,-0.178017,0.720775,-0.347107,0.625465,-0.498792,0.498792,-0.625465,0.347107,-0.720775,0.178017,-0.779942,0.000000,-0.800000,-0.600000,-0.800000,-0.605014,-0.794986,-0.644504,-0.794986,-0.724698,-0.756366,-0.780194,-0.686777,-0.800000,-0.600000,
-0.800000,0.600000,-0.780194,0.686777,-0.724698,0.756366,-0.644504,0.794986,-0.605014,0.794986,-0.600000,0.800000,0.000000,0.800000,0.178017,0.779942,0.178017,0.779942,$1*%
G04 Aperture macros list end*
G04 #@! TA.AperFunction,ComponentPad*
%ADD10R,1.700000X1.700000*%
G04 #@! TD*
G04 #@! TA.AperFunction,ComponentPad*
%ADD11O,1.700000X1.700000*%
G04 #@! TD*
G04 #@! TA.AperFunction,ComponentPad*
%ADD12RoundRect,0.200000X0.600000X-0.600000X0.600000X0.600000X-0.600000X0.600000X-0.600000X-0.600000X0*%
G04 #@! TD*
G04 #@! TA.AperFunction,ComponentPad*
%ADD13C,1.600000*%
G04 #@! TD*
G04 #@! TA.AperFunction,ComponentPad*
%ADD14FreePoly0,90.000000*%
G04 #@! TD*
G04 #@! TA.AperFunction,ComponentPad*
%ADD15FreePoly1,90.000000*%
G04 #@! TD*
G04 #@! TA.AperFunction,ViaPad*
%ADD16C,0.450000*%
G04 #@! TD*
G04 #@! TA.AperFunction,Conductor*
%ADD17C,0.120000*%
G04 #@! TD*
G04 #@! TA.AperFunction,Conductor*
%ADD18C,0.150000*%
G04 #@! TD*
G04 #@! TA.AperFunction,Conductor*
%ADD19C,0.200000*%
G04 #@! TD*
G04 APERTURE END LIST*
D10*
G04 #@! TO.P,J4,1,Pin_1*
G04 #@! TO.N,VDC*
X36960000Y-39285000D03*
D11*
G04 #@! TO.P,J4,2,Pin_2*
G04 #@! TO.N,GND*
X39500000Y-39285000D03*
G04 #@! TO.P,J4,3,Pin_3*
G04 #@! TO.N,+3.3V*
X42040000Y-39285000D03*
G04 #@! TO.P,J4,4,Pin_4*
G04 #@! TO.N,GND*
X44580000Y-39285000D03*
G04 #@! TD*
D12*
G04 #@! TO.P,U7,1,GP0*
G04 #@! TO.N,/AUX11*
X1932500Y-19690000D03*
D13*
G04 #@! TO.P,U7,2,GP1*
G04 #@! TO.N,/AUX12*
X4472500Y-19690000D03*
D14*
G04 #@! TO.P,U7,3,GND*
G04 #@! TO.N,GND*
X7012500Y-19690000D03*
D13*
G04 #@! TO.P,U7,4,GP2*
G04 #@! TO.N,/GPIO2*
X9552500Y-19690000D03*
G04 #@! TO.P,U7,5,GP3*
G04 #@! TO.N,/GPIO3*
X12092500Y-19690000D03*
G04 #@! TO.P,U7,6,GP4*
G04 #@! TO.N,/GPIO4*
X14632500Y-19690000D03*
G04 #@! TO.P,U7,7,GP5*
G04 #@! TO.N,/GPIO5*
X17172500Y-19690000D03*
D14*
G04 #@! TO.P,U7,8,GND*
G04 #@! TO.N,GND*
X19712500Y-19690000D03*
D13*
G04 #@! TO.P,U7,9,GP6*
G04 #@! TO.N,/GPIO6*
X22252500Y-19690000D03*
G04 #@! TO.P,U7,10,GP7*
G04 #@! TO.N,/GPIO7*
X24792500Y-19690000D03*
G04 #@! TO.P,U7,11,GP8*
G04 #@! TO.N,/GPIO8*
X27332500Y-19690000D03*
G04 #@! TO.P,U7,12,GP9*
G04 #@! TO.N,/GPIO9*
X29872500Y-19690000D03*
D14*
G04 #@! TO.P,U7,13,GND*
G04 #@! TO.N,GND*
X32412500Y-19690000D03*
D13*
G04 #@! TO.P,U7,14,GP10*
G04 #@! TO.N,/AUX10*
X34952500Y-19690000D03*
G04 #@! TO.P,U7,15,GP11*
G04 #@! TO.N,/RC_TX*
X37492500Y-19690000D03*
G04 #@! TO.P,U7,16,GP12*
G04 #@! TO.N,unconnected-(U7-GP12-Pad16)*
X40032500Y-19690000D03*
G04 #@! TO.P,U7,17,GP13*
G04 #@! TO.N,/AUX4*
X42572500Y-19690000D03*
D14*
G04 #@! TO.P,U7,18,GND*
G04 #@! TO.N,GND*
X45112500Y-19690000D03*
D13*
G04 #@! TO.P,U7,19,GP14*
G04 #@! TO.N,/AUX3*
X47652500Y-19690000D03*
G04 #@! TO.P,U7,20,GP15*
G04 #@! TO.N,unconnected-(U7-GP15-Pad20)*
X50192500Y-19690000D03*
G04 #@! TO.P,U7,21,GP16*
G04 #@! TO.N,/GPIO25*
X50192500Y-1910000D03*
G04 #@! TO.P,U7,22,GP17*
G04 #@! TO.N,/GPIO26*
X47652500Y-1910000D03*
D15*
G04 #@! TO.P,U7,23,GND*
G04 #@! TO.N,GND*
X45112500Y-1910000D03*
D13*
G04 #@! TO.P,U7,24,GP18*
G04 #@! TO.N,/I2S_DIN*
X42572500Y-1910000D03*
G04 #@! TO.P,U7,25,GP19*
G04 #@! TO.N,/I2S_BCLK*
X40032500Y-1910000D03*
G04 #@! TO.P,U7,26,GP20*
G04 #@! TO.N,/I2S_LRCLK*
X37492500Y-1910000D03*
G04 #@! TO.P,U7,27,GP21*
G04 #@! TO.N,/CAP_ENABLE*
X34952500Y-1910000D03*
D15*
G04 #@! TO.P,U7,28,GND*
G04 #@! TO.N,GND*
X32412500Y-1910000D03*
D13*
G04 #@! TO.P,U7,29,GP22*
G04 #@! TO.N,/DCC_TTL*
X29872500Y-1910000D03*
G04 #@! TO.P,U7,30,RUN*
G04 #@! TO.N,unconnected-(U7-RUN-Pad30)*
X27332500Y-1910000D03*
G04 #@! TO.P,U7,31,GP26*
G04 #@! TO.N,/ADC_EMF_A*
X24792500Y-1910000D03*
G04 #@! TO.P,U7,32,GP27*
G04 #@! TO.N,/ADC_EMF_B*
X22252500Y-1910000D03*
D15*
G04 #@! TO.P,U7,33,GND*
G04 #@! TO.N,GND*
X19712500Y-1910000D03*
D13*
G04 #@! TO.P,U7,34,GP28*
X17172500Y-1910000D03*
G04 #@! TO.P,U7,35,ADC_VREF*
G04 #@! TO.N,unconnected-(U7-ADC_VREF-Pad35)*
X14632500Y-1910000D03*
G04 #@! TO.P,U7,36,3V3(OUT)*
G04 #@! TO.N,+3.3V*
X12092500Y-1910000D03*
G04 #@! TO.P,U7,37,3V3_EN*
G04 #@! TO.N,unconnected-(U7-3V3_EN-Pad37)*
X9552500Y-1910000D03*
D15*
G04 #@! TO.P,U7,38,GND*
G04 #@! TO.N,GND*
X7012500Y-1910000D03*
D13*
G04 #@! TO.P,U7,39,VSYS*
G04 #@! TO.N,unconnected-(U7-VSYS-Pad39)*
X4472500Y-1910000D03*
G04 #@! TO.P,U7,40,VBUS*
G04 #@! TO.N,+5V*
X1932500Y-1910000D03*
G04 #@! TD*
D10*
G04 #@! TO.P,J2,1,Pin_1*
G04 #@! TO.N,/SPEAKER_N*
X2150000Y-37200000D03*
D11*
G04 #@! TO.P,J2,2,Pin_2*
G04 #@! TO.N,/SPEAKER_P*
X2150000Y-39740000D03*
G04 #@! TD*
D10*
G04 #@! TO.P,J6,1,Pin_1*
G04 #@! TO.N,/TRACK_LEFT*
X2150000Y-30900000D03*
D11*
G04 #@! TO.P,J6,2,Pin_2*
G04 #@! TO.N,/TRACK_RIGHT*
X2150000Y-33440000D03*
G04 #@! TD*
D10*
G04 #@! TO.P,J8,1,Pin_1*
G04 #@! TO.N,/MOTOR_A*
X33625000Y-24950000D03*
D11*
G04 #@! TO.P,J8,2,Pin_2*
G04 #@! TO.N,/MOTOR_B*
X36165000Y-24950000D03*
G04 #@! TD*
D10*
G04 #@! TO.P,J7,1,Pin_1*
G04 #@! TO.N,/AUX3*
X34410000Y-35400000D03*
D11*
G04 #@! TO.P,J7,2,Pin_2*
G04 #@! TO.N,/AUX4*
X36950000Y-35400000D03*
G04 #@! TO.P,J7,3,Pin_3*
G04 #@! TO.N,/AUX10*
X39490000Y-35400000D03*
G04 #@! TO.P,J7,4,Pin_4*
G04 #@! TO.N,/AUX11*
X42030000Y-35400000D03*
G04 #@! TO.P,J7,5,Pin_5*
G04 #@! TO.N,/AUX12*
X44570000Y-35400000D03*
G04 #@! TD*
D10*
G04 #@! TO.P,J5,1,Pin_1*
G04 #@! TO.N,/CAP+*
X2150000Y-24550000D03*
D11*
G04 #@! TO.P,J5,2,Pin_2*
G04 #@! TO.N,GND*
X2150000Y-27090000D03*
G04 #@! TD*
D16*
G04 #@! TO.N,GND*
X28350000Y-22600000D03*
X24200000Y-29000000D03*
X13750000Y-21900000D03*
X26450000Y-22600000D03*
X12950000Y-35200000D03*
X28400000Y-34750000D03*
X24900000Y-29050000D03*
X28600000Y-30700000D03*
X19400000Y-22050000D03*
X25250000Y-23500000D03*
X23050000Y-22050000D03*
X30350000Y-22600000D03*
X18900000Y-34850000D03*
X15850000Y-27100000D03*
X16650000Y-27100000D03*
X22350000Y-34850000D03*
G04 #@! TO.N,+3.3V*
X19800000Y-28400000D03*
X19850000Y-27100000D03*
X15550000Y-27750000D03*
X38100000Y-29100000D03*
X26800000Y-27100000D03*
X30100000Y-27050000D03*
X12750000Y-30300000D03*
X14500000Y-29100000D03*
X10085000Y-27885000D03*
G04 #@! TO.N,/CAP_VDC*
X6500000Y-26200000D03*
X5649998Y-25425002D03*
G04 #@! TO.N,/LAMP_FRONT*
X6350000Y-40300000D03*
X26634771Y-24800000D03*
G04 #@! TO.N,/LAMP_REAR*
X8400000Y-40300000D03*
X25934771Y-25650000D03*
G04 #@! TO.N,/SPEAKER_P*
X12025003Y-29700000D03*
G04 #@! TO.N,/SPEAKER_N*
X11400000Y-29700000D03*
G04 #@! TO.N,VDC*
X7450000Y-26400000D03*
X7256561Y-32071779D03*
X4350000Y-36424997D03*
X7700000Y-29900000D03*
X7107500Y-29892500D03*
X4350000Y-37050000D03*
G04 #@! TO.N,/TRACK_RIGHT*
X7600000Y-34300000D03*
G04 #@! TO.N,/TRACK_LEFT*
X7600000Y-33600000D03*
G04 #@! TO.N,/MOTOR_B*
X22100000Y-32150000D03*
X25700000Y-28750000D03*
G04 #@! TO.N,+5V*
X5400000Y-36100000D03*
G04 #@! TO.N,Net-(Q1A-G1)*
X27850000Y-30700000D03*
X20950000Y-23150000D03*
G04 #@! TO.N,/ADC_EMF_A*
X18350000Y-30150000D03*
G04 #@! TO.N,/ADC_EMF_B*
X17650000Y-30750000D03*
G04 #@! TO.N,/GPIO25*
X23600000Y-28000000D03*
G04 #@! TO.N,/I2S_LRCLK*
X7900000Y-31200000D03*
X8550000Y-15400000D03*
G04 #@! TO.N,/CAP_ENABLE*
X21800000Y-22550000D03*
X6150000Y-25050000D03*
X6400000Y-24050000D03*
G04 #@! TO.N,/I2S_DIN*
X8800000Y-33050000D03*
X9280000Y-16100000D03*
G04 #@! TO.N,/GPIO8*
X24550269Y-23049731D03*
G04 #@! TO.N,/GPIO26*
X24225003Y-28000000D03*
G04 #@! TO.N,/I2S_BCLK*
X8300000Y-32650000D03*
X8600000Y-16100000D03*
G04 #@! TO.N,/DCC_TTL*
X20200000Y-22100000D03*
G04 #@! TO.N,Net-(Q1B-G2)*
X13050000Y-21850000D03*
X9750000Y-27350000D03*
G04 #@! TO.N,/AUX2 (VDC)*
X24350000Y-24550000D03*
X13050000Y-40300000D03*
G04 #@! TO.N,/AUX1 (VDC)*
X23850000Y-25650000D03*
X10700000Y-40300000D03*
G04 #@! TO.N,/AUX8 (VDC)*
X28800000Y-24800000D03*
X27000000Y-40300000D03*
G04 #@! TO.N,/AUX6 (VDC)*
X22400000Y-40300000D03*
X28200000Y-25650000D03*
G04 #@! TO.N,/AUX5 (VDC)*
X20050000Y-40300000D03*
X30300000Y-25700000D03*
G04 #@! TO.N,/AUX7 (VDC)*
X31032867Y-24784771D03*
X24700000Y-40300000D03*
G04 #@! TD*
D17*
G04 #@! TO.N,+3.3V*
X45850000Y-36100000D02*
X42665000Y-39285000D01*
X12750000Y-30300000D02*
X13950000Y-29100000D01*
X19800000Y-28400000D02*
X19850000Y-28350000D01*
X15390000Y-22840000D02*
X15390000Y-27590000D01*
X10150000Y-27950000D02*
X10085000Y-27885000D01*
X45850000Y-34700000D02*
X45850000Y-36100000D01*
X38100000Y-29100000D02*
X40250000Y-29100000D01*
X13950000Y-29100000D02*
X14500000Y-29100000D01*
X15390000Y-27590000D02*
X15550000Y-27750000D01*
X26800000Y-27100000D02*
X30050000Y-27100000D01*
X19850000Y-28350000D02*
X19850000Y-27100000D01*
X30050000Y-27100000D02*
X30100000Y-27050000D01*
X12092500Y-1910000D02*
X13062500Y-2880000D01*
X15350000Y-27950000D02*
X10150000Y-27950000D01*
X15550000Y-27750000D02*
X15350000Y-27950000D01*
X13062500Y-20512500D02*
X15390000Y-22840000D01*
X13062500Y-2880000D02*
X13062500Y-20512500D01*
X40250000Y-29100000D02*
X45850000Y-34700000D01*
D18*
G04 #@! TO.N,/CAP_VDC*
X6400000Y-26200000D02*
X6500000Y-26200000D01*
X5649998Y-25425002D02*
X5649998Y-25449998D01*
X5649998Y-25449998D02*
X6400000Y-26200000D01*
D17*
G04 #@! TO.N,/LAMP_FRONT*
X6350000Y-40300000D02*
X7040000Y-40990000D01*
X25665310Y-26570000D02*
X26634771Y-25600539D01*
X13740000Y-40014192D02*
X13510000Y-39784192D01*
X7040000Y-40990000D02*
X13335809Y-40990000D01*
X13510000Y-39784192D02*
X13510000Y-36965810D01*
X23905810Y-26570000D02*
X25665310Y-26570000D01*
X13335809Y-40990000D02*
X13740000Y-40585809D01*
X13740000Y-40585809D02*
X13740000Y-40014192D01*
X13510000Y-36965810D02*
X23905810Y-26570000D01*
X26634771Y-25600539D02*
X26634771Y-24800000D01*
G04 #@! TO.N,/LAMP_REAR*
X13510000Y-40109461D02*
X13280000Y-39879461D01*
X13510000Y-40490539D02*
X13510000Y-40109461D01*
X13240539Y-40760000D02*
X13510000Y-40490539D01*
X13280000Y-36870540D02*
X23810540Y-26340000D01*
X25934771Y-25975269D02*
X25934771Y-25650000D01*
X23810540Y-26340000D02*
X25570040Y-26340000D01*
X13280000Y-39879461D02*
X13280000Y-36870540D01*
X8400000Y-40300000D02*
X8860000Y-40760000D01*
X25570040Y-26340000D02*
X25934771Y-25975269D01*
X8860000Y-40760000D02*
X13240539Y-40760000D01*
G04 #@! TO.N,/SPEAKER_P*
X11860000Y-29890539D02*
X11630000Y-30120539D01*
X11630000Y-32320000D02*
X4210000Y-39740000D01*
X12025003Y-29700000D02*
X11860000Y-29865003D01*
X11630000Y-30120539D02*
X11630000Y-32320000D01*
X4210000Y-39740000D02*
X2150000Y-39740000D01*
X11860000Y-29865003D02*
X11860000Y-29890539D01*
G04 #@! TO.N,/SPEAKER_N*
X3500000Y-38550000D02*
X5074730Y-38550000D01*
X11400000Y-32224730D02*
X11400000Y-29700000D01*
X5074730Y-38550000D02*
X11400000Y-32224730D01*
X2150000Y-37200000D02*
X3500000Y-38550000D01*
D18*
G04 #@! TO.N,VDC*
X7692500Y-29892500D02*
X7700000Y-29900000D01*
D19*
X7107500Y-29892500D02*
X7115000Y-29900000D01*
D18*
X2800000Y-34750000D02*
X1800000Y-34750000D01*
X5400000Y-29600000D02*
X5692500Y-29892500D01*
X1380000Y-29600000D02*
X5400000Y-29600000D01*
D19*
X7700000Y-26650000D02*
X7450000Y-26400000D01*
D18*
X4350000Y-36300000D02*
X2800000Y-34750000D01*
D19*
X7700000Y-29900000D02*
X7700000Y-26650000D01*
D18*
X1050000Y-29930000D02*
X1380000Y-29600000D01*
X5692500Y-29892500D02*
X7692500Y-29892500D01*
X4350000Y-37050000D02*
X4350000Y-36300000D01*
X1050000Y-34000000D02*
X1050000Y-29930000D01*
D19*
X7115000Y-29900000D02*
X7700000Y-29900000D01*
X7256561Y-30041561D02*
X7256561Y-32071779D01*
D18*
X1800000Y-34750000D02*
X1050000Y-34000000D01*
D19*
X7107500Y-29892500D02*
X7256561Y-30041561D01*
D17*
G04 #@! TO.N,/TRACK_RIGHT*
X7600000Y-34300000D02*
X7400000Y-34100000D01*
X2810000Y-34100000D02*
X2150000Y-33440000D01*
X7400000Y-34100000D02*
X2810000Y-34100000D01*
G04 #@! TO.N,/TRACK_LEFT*
X7330000Y-33870000D02*
X5120000Y-33870000D01*
X5120000Y-33870000D02*
X2150000Y-30900000D01*
X7600000Y-33600000D02*
X7330000Y-33870000D01*
G04 #@! TO.N,/AUX12*
X41010000Y-34977502D02*
X41607502Y-34380000D01*
X4472500Y-19690000D02*
X805000Y-23357500D01*
X40412498Y-36420000D02*
X41010000Y-35822498D01*
X43550000Y-34380000D02*
X44570000Y-35400000D01*
X41010000Y-35822498D02*
X41010000Y-34977502D01*
X31280000Y-41220000D02*
X36080000Y-36420000D01*
X1920000Y-41220000D02*
X31280000Y-41220000D01*
X805000Y-40105000D02*
X1920000Y-41220000D01*
X36080000Y-36420000D02*
X40412498Y-36420000D01*
X805000Y-23357500D02*
X805000Y-40105000D01*
X41607502Y-34380000D02*
X43550000Y-34380000D01*
G04 #@! TO.N,/AUX11*
X40780000Y-36650000D02*
X36175270Y-36650000D01*
X42030000Y-35400000D02*
X40780000Y-36650000D01*
X36175270Y-36650000D02*
X31375270Y-41450000D01*
X575000Y-21047500D02*
X1932500Y-19690000D01*
X1824730Y-41450000D02*
X575000Y-40200270D01*
X575000Y-40200270D02*
X575000Y-21047500D01*
X31375270Y-41450000D02*
X1824730Y-41450000D01*
G04 #@! TO.N,/AUX10*
X37550000Y-33460000D02*
X39490000Y-35400000D01*
X37550000Y-22287500D02*
X37550000Y-33460000D01*
X34952500Y-19690000D02*
X37550000Y-22287500D01*
G04 #@! TO.N,/MOTOR_B*
X22150000Y-32100000D02*
X22650000Y-32100000D01*
X22100000Y-32150000D02*
X22150000Y-32100000D01*
X22650000Y-32100000D02*
X25700000Y-29050000D01*
X25700000Y-29050000D02*
X25700000Y-28750000D01*
G04 #@! TO.N,+5V*
X9050000Y-24350000D02*
X9050000Y-29150000D01*
X9650000Y-33300000D02*
X6850000Y-36100000D01*
X9650000Y-29750000D02*
X9650000Y-33300000D01*
X6850000Y-36100000D02*
X5400000Y-36100000D01*
X10522500Y-10500000D02*
X10522500Y-22877500D01*
X1932500Y-1910000D02*
X10522500Y-10500000D01*
X10522500Y-22877500D02*
X9050000Y-24350000D01*
X9050000Y-29150000D02*
X9650000Y-29750000D01*
G04 #@! TO.N,Net-(Q1A-G1)*
X23140000Y-28190539D02*
X23409461Y-28460000D01*
X23409461Y-28460000D02*
X24440000Y-28460000D01*
X26595310Y-24110000D02*
X27094771Y-24609461D01*
X23140000Y-27809461D02*
X23140000Y-28190539D01*
X24560539Y-24110000D02*
X26595310Y-24110000D01*
X27094771Y-25504150D02*
X25288921Y-27310000D01*
X21890000Y-24090000D02*
X24540539Y-24090000D01*
X25600540Y-28000000D02*
X25750270Y-28149730D01*
X27850000Y-30249461D02*
X27850000Y-30700000D01*
X23639461Y-27310000D02*
X23140000Y-27809461D01*
X20950000Y-23150000D02*
X21890000Y-24090000D01*
X25750270Y-28149730D02*
X27850000Y-30249461D01*
X24540539Y-24090000D02*
X24560539Y-24110000D01*
X24900000Y-28000000D02*
X25600540Y-28000000D01*
X24440000Y-28460000D02*
X24900000Y-28000000D01*
X27094771Y-24609461D02*
X27094771Y-25504150D01*
X25288921Y-27310000D02*
X23639461Y-27310000D01*
G04 #@! TO.N,/ADC_EMF_A*
X18732469Y-29767531D02*
X18732469Y-7970031D01*
X18350000Y-30150000D02*
X18732469Y-29767531D01*
X18732469Y-7970031D02*
X24792500Y-1910000D01*
G04 #@! TO.N,/ADC_EMF_B*
X22252500Y-4124730D02*
X22252500Y-1910000D01*
X18502469Y-29346992D02*
X18502469Y-7874761D01*
X17650000Y-30199461D02*
X18502469Y-29346992D01*
X18502469Y-7874761D02*
X22252500Y-4124730D01*
X17650000Y-30750000D02*
X17650000Y-30199461D01*
G04 #@! TO.N,/GPIO25*
X27420000Y-21280000D02*
X28500000Y-20200000D01*
X24034464Y-27540000D02*
X25384191Y-27540000D01*
X49182500Y-900000D02*
X50192500Y-1910000D01*
X46682500Y-1508212D02*
X47290712Y-900000D01*
X43132376Y-3220000D02*
X45562500Y-3220000D01*
X47290712Y-900000D02*
X49182500Y-900000D01*
X23600000Y-28000000D02*
X23600000Y-27974464D01*
X28500000Y-20200000D02*
X28500000Y-17852376D01*
X28500000Y-17852376D02*
X43132376Y-3220000D01*
X23600000Y-27974464D02*
X24034464Y-27540000D01*
X45562500Y-3220000D02*
X46682500Y-2100000D01*
X25384191Y-27540000D02*
X27420000Y-25504191D01*
X46682500Y-2100000D02*
X46682500Y-1508212D01*
X27420000Y-25504191D02*
X27420000Y-21280000D01*
G04 #@! TO.N,/I2S_LRCLK*
X8000000Y-29549461D02*
X8160000Y-29709461D01*
X8550000Y-15400000D02*
X8000000Y-15950000D01*
X8000000Y-15950000D02*
X8000000Y-29549461D01*
X8160000Y-30940000D02*
X7900000Y-31200000D01*
X8160000Y-29709461D02*
X8160000Y-30940000D01*
D18*
G04 #@! TO.N,/CAP_ENABLE*
X21800000Y-22550000D02*
X23325501Y-22550000D01*
X6400000Y-24050000D02*
X6400000Y-24800000D01*
X23325501Y-22550000D02*
X26347500Y-19528001D01*
X6400000Y-24800000D02*
X6150000Y-25050000D01*
X26347500Y-19528001D02*
X26347500Y-10515000D01*
X26347500Y-10515000D02*
X34952500Y-1910000D01*
D17*
G04 #@! TO.N,/I2S_DIN*
X8675270Y-32925270D02*
X8800000Y-33050000D01*
X8460000Y-29358922D02*
X8620000Y-29518922D01*
X8760000Y-32840539D02*
X8675270Y-32925270D01*
X9280000Y-16100000D02*
X9250539Y-16100000D01*
X9250539Y-16100000D02*
X8460000Y-16890539D01*
X8760000Y-32459461D02*
X8760000Y-32840539D01*
X8620000Y-32319461D02*
X8760000Y-32459461D01*
X8620000Y-29518922D02*
X8620000Y-32319461D01*
X8460000Y-16890539D02*
X8460000Y-29358922D01*
G04 #@! TO.N,/GPIO8*
X24550269Y-22472231D02*
X27332500Y-19690000D01*
X24550269Y-23049731D02*
X24550269Y-22472231D01*
G04 #@! TO.N,/GPIO26*
X28730000Y-17947646D02*
X28730000Y-20295270D01*
X24455003Y-27770000D02*
X24225003Y-28000000D01*
X27650000Y-25599461D02*
X25479461Y-27770000D01*
X43227646Y-3450000D02*
X28730000Y-17947646D01*
X45657770Y-3450000D02*
X43227646Y-3450000D01*
X28730000Y-20295270D02*
X27650000Y-21375270D01*
X47184730Y-2377770D02*
X46730000Y-2377770D01*
X46730000Y-2377770D02*
X45657770Y-3450000D01*
X25479461Y-27770000D02*
X24455003Y-27770000D01*
X27650000Y-21375270D02*
X27650000Y-25599461D01*
G04 #@! TO.N,/I2S_BCLK*
X8230000Y-29454192D02*
X8390000Y-29614192D01*
X8600000Y-16100000D02*
X8230000Y-16470000D01*
X8230000Y-16470000D02*
X8230000Y-29454192D01*
X8390000Y-32560000D02*
X8390000Y-29614192D01*
X8300000Y-32650000D02*
X8390000Y-32560000D01*
D18*
G04 #@! TO.N,/DCC_TTL*
X23700000Y-19635501D02*
X23700000Y-8082500D01*
X23700000Y-8082500D02*
X29872500Y-1910000D01*
X21235501Y-22100000D02*
X23700000Y-19635501D01*
X20200000Y-22100000D02*
X21235501Y-22100000D01*
D17*
G04 #@! TO.N,Net-(Q1B-G2)*
X13050000Y-21850000D02*
X9750000Y-25150000D01*
X9750000Y-25150000D02*
X9750000Y-27350000D01*
G04 #@! TO.N,/AUX2 (VDC)*
X23715270Y-26110000D02*
X24040539Y-26110000D01*
X24040539Y-26110000D02*
X24350000Y-25800539D01*
X13050000Y-40300000D02*
X13050000Y-36775270D01*
X13050000Y-36775270D02*
X23715270Y-26110000D01*
X24350000Y-25800539D02*
X24350000Y-24550000D01*
G04 #@! TO.N,/AUX1 (VDC)*
X12300000Y-40300000D02*
X12820000Y-39780000D01*
X10700000Y-40300000D02*
X12300000Y-40300000D01*
X12820000Y-36680000D02*
X23850000Y-25650000D01*
X12820000Y-39780000D02*
X12820000Y-36680000D01*
G04 #@! TO.N,/AUX8 (VDC)*
X27325269Y-40300000D02*
X27000000Y-40300000D01*
X28800000Y-24800000D02*
X28910000Y-24690000D01*
X28910000Y-24690000D02*
X30140539Y-24690000D01*
X31820000Y-26369460D02*
X31820000Y-35805269D01*
X31820000Y-35805269D02*
X27325269Y-40300000D01*
X30140539Y-24690000D02*
X31820000Y-26369460D01*
G04 #@! TO.N,/AUX6 (VDC)*
X31360000Y-26560000D02*
X31360000Y-35614729D01*
X28710000Y-26160000D02*
X30960000Y-26160000D01*
X31360000Y-35614729D02*
X27364729Y-39610000D01*
X27364729Y-39610000D02*
X24414190Y-39610000D01*
X23724190Y-40300000D02*
X22400000Y-40300000D01*
X28200000Y-25650000D02*
X28710000Y-26160000D01*
X30960000Y-26160000D02*
X31360000Y-26560000D01*
X24414190Y-39610000D02*
X23724190Y-40300000D01*
G04 #@! TO.N,/AUX5 (VDC)*
X31590000Y-35709999D02*
X27459999Y-39840000D01*
X20510000Y-40760000D02*
X20050000Y-40300000D01*
X23589460Y-40760000D02*
X20510000Y-40760000D01*
X24509460Y-39840000D02*
X23589460Y-40760000D01*
X31590000Y-26464730D02*
X31590000Y-35709999D01*
X30300000Y-25700000D02*
X30825270Y-25700000D01*
X27459999Y-39840000D02*
X24509460Y-39840000D01*
X30825270Y-25700000D02*
X31590000Y-26464730D01*
G04 #@! TO.N,/AUX7 (VDC)*
X32050000Y-35900539D02*
X32050000Y-26274190D01*
X31032867Y-25257057D02*
X31032867Y-24784771D01*
X27190539Y-40760000D02*
X32050000Y-35900539D01*
X24700000Y-40300000D02*
X25160000Y-40760000D01*
X25160000Y-40760000D02*
X27190539Y-40760000D01*
X32050000Y-26274190D02*
X31032867Y-25257057D01*
G04 #@! TD*
G04 #@! TA.AperFunction,Conductor*
G04 #@! TO.N,GND*
G36*
X42958148Y-3919917D02*
G01*
X42972500Y-3954565D01*
X42972500Y-17880000D01*
X47312394Y-17880000D01*
X47312395Y-17880000D01*
X50947682Y-13198944D01*
X50980268Y-13180383D01*
X50986382Y-13180000D01*
X51861000Y-13180000D01*
X51895648Y-13194352D01*
X51910000Y-13229000D01*
X51910000Y-41530500D01*
X51895648Y-41565148D01*
X51861000Y-41579500D01*
X31495190Y-41579500D01*
X31460542Y-41565148D01*
X31446190Y-41530500D01*
X31460542Y-41495852D01*
X34552277Y-38404116D01*
X35909500Y-38404116D01*
X35909500Y-40125884D01*
X35913572Y-40146355D01*
X35915911Y-40158115D01*
X35940333Y-40194666D01*
X35964756Y-40210984D01*
X35976885Y-40219089D01*
X36009116Y-40225500D01*
X36009119Y-40225500D01*
X37730881Y-40225500D01*
X37730884Y-40225500D01*
X37763115Y-40219089D01*
X37799666Y-40194666D01*
X37824089Y-40158115D01*
X37830500Y-40125884D01*
X37830500Y-38404116D01*
X37824089Y-38371885D01*
X37806224Y-38345148D01*
X37799666Y-38335333D01*
X37763115Y-38310911D01*
X37730884Y-38304500D01*
X36009116Y-38304500D01*
X35984942Y-38309308D01*
X35976884Y-38310911D01*
X35940333Y-38335333D01*
X35915911Y-38371884D01*
X35915625Y-38373321D01*
X35909500Y-38404116D01*
X34552277Y-38404116D01*
X36141541Y-36814852D01*
X36176189Y-36800500D01*
X40723913Y-36800500D01*
X40723915Y-36800500D01*
X40786580Y-36774543D01*
X41361700Y-36199421D01*
X41396347Y-36185070D01*
X41419443Y-36190855D01*
X41570654Y-36271680D01*
X41751709Y-36326602D01*
X41940000Y-36345147D01*
X42128291Y-36326602D01*
X42309346Y-36271680D01*
X42476207Y-36182490D01*
X42622462Y-36062462D01*
X42742490Y-35916207D01*
X42831680Y-35749346D01*
X42886602Y-35568291D01*
X42905147Y-35380000D01*
X42886602Y-35191709D01*
X42831680Y-35010654D01*
X42742490Y-34843793D01*
X42622462Y-34697538D01*
X42622460Y-34697536D01*
X42622459Y-34697535D01*
X42524786Y-34617377D01*
X42507107Y-34584303D01*
X42517994Y-34548415D01*
X42551068Y-34530736D01*
X42555871Y-34530500D01*
X43369081Y-34530500D01*
X43403729Y-34544852D01*
X43660576Y-34801699D01*
X43674928Y-34836347D01*
X43669142Y-34859445D01*
X43588322Y-35010648D01*
X43588321Y-35010649D01*
X43533398Y-35191707D01*
X43533398Y-35191708D01*
X43533398Y-35191709D01*
X43514853Y-35380000D01*
X43533398Y-35568291D01*
X43588320Y-35749346D01*
X43677510Y-35916207D01*
X43797538Y-36062462D01*
X43943793Y-36182490D01*
X44110654Y-36271680D01*
X44291709Y-36326602D01*
X44480000Y-36345147D01*
X44668291Y-36326602D01*
X44849346Y-36271680D01*
X45016207Y-36182490D01*
X45162462Y-36062462D01*
X45282490Y-35916207D01*
X45371680Y-35749346D01*
X45426602Y-35568291D01*
X45445147Y-35380000D01*
X45426602Y-35191709D01*
X45371680Y-35010654D01*
X45282490Y-34843793D01*
X45162462Y-34697538D01*
X45016207Y-34577510D01*
X44849346Y-34488320D01*
X44668291Y-34433398D01*
X44480000Y-34414853D01*
X44291708Y-34433398D01*
X44291707Y-34433398D01*
X44110649Y-34488321D01*
X44110648Y-34488322D01*
X43959445Y-34569142D01*
X43922123Y-34572818D01*
X43901699Y-34560576D01*
X43556582Y-34215458D01*
X43493916Y-34189500D01*
X43493915Y-34189500D01*
X41483587Y-34189500D01*
X41483585Y-34189500D01*
X41420920Y-34215458D01*
X41420919Y-34215458D01*
X40970735Y-34665644D01*
X40823420Y-34812959D01*
X40806406Y-34829973D01*
X40775457Y-34860921D01*
X40749500Y-34923585D01*
X40749500Y-35711579D01*
X40735148Y-35746227D01*
X40266227Y-36215148D01*
X40231579Y-36229500D01*
X40015871Y-36229500D01*
X39981223Y-36215148D01*
X39966871Y-36180500D01*
X39981223Y-36145852D01*
X39984786Y-36142623D01*
X40064818Y-36076942D01*
X40082462Y-36062462D01*
X40202490Y-35916207D01*
X40291680Y-35749346D01*
X40346602Y-35568291D01*
X40365147Y-35380000D01*
X40346602Y-35191709D01*
X40291680Y-35010654D01*
X40202490Y-34843793D01*
X40082462Y-34697538D01*
X39936207Y-34577510D01*
X39769346Y-34488320D01*
X39588291Y-34433398D01*
X39400000Y-34414853D01*
X39211708Y-34433398D01*
X39211707Y-34433398D01*
X39030649Y-34488321D01*
X39030648Y-34488322D01*
X38879445Y-34569142D01*
X38842123Y-34572818D01*
X38821699Y-34560576D01*
X37644852Y-33383729D01*
X37630500Y-33349081D01*
X37630500Y-29385188D01*
X37644852Y-29350540D01*
X37679500Y-29336188D01*
X37714148Y-29350540D01*
X37771657Y-29408049D01*
X37771664Y-29408054D01*
X37884691Y-29465644D01*
X37884692Y-29465644D01*
X37884696Y-29465646D01*
X38010000Y-29485492D01*
X38135304Y-29465646D01*
X38135308Y-29465644D01*
X38135309Y-29465644D01*
X38248335Y-29408054D01*
X38248337Y-29408052D01*
X38248342Y-29408050D01*
X38338050Y-29318342D01*
X38358985Y-29277253D01*
X38387501Y-29252899D01*
X38402644Y-29250500D01*
X40069081Y-29250500D01*
X40103729Y-29264852D01*
X45575148Y-34736271D01*
X45589500Y-34770919D01*
X45589500Y-35989080D01*
X45575148Y-36023728D01*
X42840168Y-38758707D01*
X42805520Y-38773059D01*
X42770872Y-38758707D01*
X42762306Y-38747157D01*
X42752491Y-38728795D01*
X42752491Y-38728794D01*
X42668606Y-38626580D01*
X42632462Y-38582538D01*
X42486207Y-38462510D01*
X42319346Y-38373320D01*
X42138291Y-38318398D01*
X41950000Y-38299853D01*
X41761708Y-38318398D01*
X41761707Y-38318398D01*
X41580651Y-38373321D01*
X41413793Y-38462510D01*
X41267538Y-38582538D01*
X41147510Y-38728793D01*
X41058321Y-38895651D01*
X41003398Y-39076707D01*
X41003398Y-39076708D01*
X40993732Y-39174854D01*
X40984853Y-39265000D01*
X41003398Y-39453291D01*
X41058320Y-39634346D01*
X41147510Y-39801207D01*
X41267538Y-39947462D01*
X41413793Y-40067490D01*
X41580654Y-40156680D01*
X41761709Y-40211602D01*
X41950000Y-40230147D01*
X42138291Y-40211602D01*
X42319346Y-40156680D01*
X42486207Y-40067490D01*
X42632462Y-39947462D01*
X42752490Y-39801207D01*
X42841680Y-39634346D01*
X42896602Y-39453291D01*
X42915147Y-39265000D01*
X42908539Y-39197915D01*
X42919425Y-39162029D01*
X42922645Y-39158476D01*
X45904543Y-36176580D01*
X45930500Y-36113915D01*
X45930500Y-36046085D01*
X45930500Y-34646085D01*
X45904543Y-34583420D01*
X45856580Y-34535457D01*
X43065477Y-31744354D01*
X40256582Y-28935458D01*
X40193916Y-28909500D01*
X40193915Y-28909500D01*
X38402644Y-28909500D01*
X38367996Y-28895148D01*
X38358986Y-28882748D01*
X38346425Y-28858095D01*
X38338051Y-28841659D01*
X38248342Y-28751950D01*
X38248335Y-28751945D01*
X38135308Y-28694355D01*
X38135305Y-28694354D01*
X38135304Y-28694354D01*
X38010000Y-28674508D01*
X37884696Y-28694354D01*
X37884694Y-28694354D01*
X37884692Y-28694355D01*
X37884690Y-28694355D01*
X37771664Y-28751945D01*
X37771657Y-28751950D01*
X37714148Y-28809460D01*
X37679500Y-28823812D01*
X37644852Y-28809460D01*
X37630500Y-28774812D01*
X37630500Y-22233587D01*
X37630499Y-22233583D01*
X37623598Y-22216923D01*
X37604543Y-22170920D01*
X37556580Y-22122957D01*
X35643875Y-20210252D01*
X35629523Y-20175604D01*
X35636087Y-20151106D01*
X35698865Y-20042373D01*
X35758009Y-19860346D01*
X35778015Y-19670000D01*
X36486985Y-19670000D01*
X36506991Y-19860346D01*
X36566135Y-20042373D01*
X36661833Y-20208126D01*
X36673876Y-20221501D01*
X36782662Y-20342321D01*
X36789901Y-20350360D01*
X36944742Y-20462859D01*
X37119590Y-20540707D01*
X37306803Y-20580500D01*
X37498197Y-20580500D01*
X37685410Y-20540707D01*
X37860258Y-20462859D01*
X38015099Y-20350360D01*
X38143167Y-20208126D01*
X38238865Y-20042373D01*
X38298009Y-19860346D01*
X38318015Y-19670000D01*
X39026985Y-19670000D01*
X39046991Y-19860346D01*
X39106135Y-20042373D01*
X39201833Y-20208126D01*
X39213876Y-20221501D01*
X39322662Y-20342321D01*
X39329901Y-20350360D01*
X39484742Y-20462859D01*
X39659590Y-20540707D01*
X39846803Y-20580500D01*
X40038197Y-20580500D01*
X40225410Y-20540707D01*
X40400258Y-20462859D01*
X40555099Y-20350360D01*
X40683167Y-20208126D01*
X40778865Y-20042373D01*
X40838009Y-19860346D01*
X40858015Y-19670000D01*
X41566985Y-19670000D01*
X41586991Y-19860346D01*
X41646135Y-20042373D01*
X41741833Y-20208126D01*
X41753876Y-20221501D01*
X41862662Y-20342321D01*
X41869901Y-20350360D01*
X42024742Y-20462859D01*
X42199590Y-20540707D01*
X42386803Y-20580500D01*
X42578197Y-20580500D01*
X42765410Y-20540707D01*
X42940258Y-20462859D01*
X43095099Y-20350360D01*
X43223167Y-20208126D01*
X43318865Y-20042373D01*
X43378009Y-19860346D01*
X43398015Y-19670000D01*
X46646985Y-19670000D01*
X46666991Y-19860346D01*
X46726135Y-20042373D01*
X46821833Y-20208126D01*
X46833876Y-20221501D01*
X46942662Y-20342321D01*
X46949901Y-20350360D01*
X47104742Y-20462859D01*
X47279590Y-20540707D01*
X47466803Y-20580500D01*
X47658197Y-20580500D01*
X47845410Y-20540707D01*
X48020258Y-20462859D01*
X48175099Y-20350360D01*
X48303167Y-20208126D01*
X48398865Y-20042373D01*
X48458009Y-19860346D01*
X48478015Y-19670000D01*
X49186985Y-19670000D01*
X49206991Y-19860346D01*
X49266135Y-20042373D01*
X49361833Y-20208126D01*
X49373876Y-20221501D01*
X49482662Y-20342321D01*
X49489901Y-20350360D01*
X49644742Y-20462859D01*
X49819590Y-20540707D01*
X50006803Y-20580500D01*
X50198197Y-20580500D01*
X50385410Y-20540707D01*
X50560258Y-20462859D01*
X50715099Y-20350360D01*
X50843167Y-20208126D01*
X50938865Y-20042373D01*
X50998009Y-19860346D01*
X51018015Y-19670000D01*
X50998009Y-19479654D01*
X50938865Y-19297627D01*
X50843167Y-19131874D01*
X50745717Y-19023645D01*
X50715103Y-18989644D01*
X50715101Y-18989643D01*
X50715099Y-18989640D01*
X50560258Y-18877141D01*
X50385410Y-18799293D01*
X50385407Y-18799292D01*
X50385403Y-18799291D01*
X50198197Y-18759500D01*
X50006803Y-18759500D01*
X49819596Y-18799291D01*
X49819587Y-18799294D01*
X49644741Y-18877142D01*
X49489899Y-18989641D01*
X49489896Y-18989643D01*
X49361836Y-19131870D01*
X49361830Y-19131878D01*
X49266137Y-19297623D01*
X49266135Y-19297626D01*
X49261981Y-19310411D01*
X49206991Y-19479654D01*
X49186985Y-19670000D01*
X48478015Y-19670000D01*
X48458009Y-19479654D01*
X48398865Y-19297627D01*
X48303167Y-19131874D01*
X48205717Y-19023645D01*
X48175103Y-18989644D01*
X48175101Y-18989643D01*
X48175099Y-18989640D01*
X48020258Y-18877141D01*
X47845410Y-18799293D01*
X47845407Y-18799292D01*
X47845403Y-18799291D01*
X47658197Y-18759500D01*
X47466803Y-18759500D01*
X47279596Y-18799291D01*
X47279587Y-18799294D01*
X47104741Y-18877142D01*
X46949899Y-18989641D01*
X46949896Y-18989643D01*
X46821836Y-19131870D01*
X46821830Y-19131878D01*
X46726137Y-19297623D01*
X46726135Y-19297626D01*
X46721981Y-19310411D01*
X46666991Y-19479654D01*
X46646985Y-19670000D01*
X43398015Y-19670000D01*
X43378009Y-19479654D01*
X43318865Y-19297627D01*
X43223167Y-19131874D01*
X43125717Y-19023645D01*
X43095103Y-18989644D01*
X43095101Y-18989643D01*
X43095099Y-18989640D01*
X42940258Y-18877141D01*
X42765410Y-18799293D01*
X42765407Y-18799292D01*
X42765403Y-18799291D01*
X42578197Y-18759500D01*
X42386803Y-18759500D01*
X42199596Y-18799291D01*
X42199587Y-18799294D01*
X42024741Y-18877142D01*
X41869899Y-18989641D01*
X41869896Y-18989643D01*
X41741836Y-19131870D01*
X41741830Y-19131878D01*
X41646137Y-19297623D01*
X41646135Y-19297626D01*
X41641981Y-19310411D01*
X41586991Y-19479654D01*
X41566985Y-19670000D01*
X40858015Y-19670000D01*
X40838009Y-19479654D01*
X40778865Y-19297627D01*
X40683167Y-19131874D01*
X40585717Y-19023645D01*
X40555103Y-18989644D01*
X40555101Y-18989643D01*
X40555099Y-18989640D01*
X40400258Y-18877141D01*
X40225410Y-18799293D01*
X40225407Y-18799292D01*
X40225403Y-18799291D01*
X40038197Y-18759500D01*
X39846803Y-18759500D01*
X39659596Y-18799291D01*
X39659587Y-18799294D01*
X39484741Y-18877142D01*
X39329899Y-18989641D01*
X39329896Y-18989643D01*
X39201836Y-19131870D01*
X39201830Y-19131878D01*
X39106137Y-19297623D01*
X39106135Y-19297626D01*
X39101981Y-19310411D01*
X39046991Y-19479654D01*
X39026985Y-19670000D01*
X38318015Y-19670000D01*
X38298009Y-19479654D01*
X38238865Y-19297627D01*
X38143167Y-19131874D01*
X38045717Y-19023645D01*
X38015103Y-18989644D01*
X38015101Y-18989643D01*
X38015099Y-18989640D01*
X37860258Y-18877141D01*
X37685410Y-18799293D01*
X37685407Y-18799292D01*
X37685403Y-18799291D01*
X37498197Y-18759500D01*
X37306803Y-18759500D01*
X37119596Y-18799291D01*
X37119587Y-18799294D01*
X36944741Y-18877142D01*
X36789899Y-18989641D01*
X36789896Y-18989643D01*
X36661836Y-19131870D01*
X36661830Y-19131878D01*
X36566137Y-19297623D01*
X36566135Y-19297626D01*
X36561981Y-19310411D01*
X36506991Y-19479654D01*
X36486985Y-19670000D01*
X35778015Y-19670000D01*
X35758009Y-19479654D01*
X35698865Y-19297627D01*
X35603167Y-19131874D01*
X35505717Y-19023645D01*
X35475103Y-18989644D01*
X35475101Y-18989643D01*
X35475099Y-18989640D01*
X35320258Y-18877141D01*
X35145410Y-18799293D01*
X35145407Y-18799292D01*
X35145403Y-18799291D01*
X34958197Y-18759500D01*
X34766803Y-18759500D01*
X34579596Y-18799291D01*
X34579587Y-18799294D01*
X34404741Y-18877142D01*
X34249899Y-18989641D01*
X34249896Y-18989643D01*
X34121836Y-19131870D01*
X34121830Y-19131878D01*
X34026137Y-19297623D01*
X34026135Y-19297626D01*
X34021981Y-19310411D01*
X33966991Y-19479654D01*
X33946985Y-19670000D01*
X33966991Y-19860346D01*
X34026135Y-20042373D01*
X34121833Y-20208126D01*
X34133876Y-20221501D01*
X34242662Y-20342321D01*
X34249901Y-20350360D01*
X34404742Y-20462859D01*
X34579590Y-20540707D01*
X34766803Y-20580500D01*
X34958197Y-20580500D01*
X35145410Y-20540707D01*
X35320258Y-20462859D01*
X35340832Y-20447910D01*
X35377297Y-20439155D01*
X35404281Y-20452904D01*
X37275148Y-22323771D01*
X37289500Y-22358419D01*
X37289500Y-33406085D01*
X37289500Y-33473915D01*
X37315457Y-33536580D01*
X37315458Y-33536581D01*
X37315458Y-33536582D01*
X38580576Y-34801699D01*
X38594928Y-34836347D01*
X38589142Y-34859445D01*
X38508322Y-35010648D01*
X38508321Y-35010649D01*
X38453398Y-35191707D01*
X38453398Y-35191708D01*
X38453398Y-35191709D01*
X38434853Y-35380000D01*
X38453398Y-35568291D01*
X38508320Y-35749346D01*
X38597510Y-35916207D01*
X38717538Y-36062462D01*
X38717540Y-36062464D01*
X38815214Y-36142623D01*
X38832893Y-36175697D01*
X38822006Y-36211585D01*
X38788932Y-36229264D01*
X38784129Y-36229500D01*
X37475871Y-36229500D01*
X37441223Y-36215148D01*
X37426871Y-36180500D01*
X37441223Y-36145852D01*
X37444786Y-36142623D01*
X37524818Y-36076942D01*
X37542462Y-36062462D01*
X37662490Y-35916207D01*
X37751680Y-35749346D01*
X37806602Y-35568291D01*
X37825147Y-35380000D01*
X37806602Y-35191709D01*
X37751680Y-35010654D01*
X37662490Y-34843793D01*
X37542462Y-34697538D01*
X37396207Y-34577510D01*
X37229346Y-34488320D01*
X37048291Y-34433398D01*
X36860000Y-34414853D01*
X36671708Y-34433398D01*
X36671707Y-34433398D01*
X36490651Y-34488321D01*
X36323793Y-34577510D01*
X36177538Y-34697538D01*
X36057510Y-34843793D01*
X35968321Y-35010651D01*
X35913398Y-35191707D01*
X35913398Y-35191708D01*
X35913398Y-35191709D01*
X35894853Y-35380000D01*
X35913398Y-35568291D01*
X35968320Y-35749346D01*
X36057510Y-35916207D01*
X36177538Y-36062462D01*
X36177540Y-36062464D01*
X36275214Y-36142623D01*
X36292893Y-36175697D01*
X36282006Y-36211585D01*
X36248932Y-36229264D01*
X36244129Y-36229500D01*
X35956083Y-36229500D01*
X35905387Y-36250500D01*
X35899596Y-36252899D01*
X35893418Y-36255458D01*
X35893417Y-36255458D01*
X31133729Y-41015148D01*
X31099081Y-41029500D01*
X13545728Y-41029500D01*
X13511080Y-41015148D01*
X13496728Y-40980500D01*
X13511080Y-40945852D01*
X13794541Y-40662391D01*
X13794543Y-40662389D01*
X13802400Y-40643420D01*
X13820500Y-40599724D01*
X13820500Y-39960277D01*
X13794543Y-39897612D01*
X13746580Y-39849649D01*
X13604852Y-39707921D01*
X13590500Y-39673273D01*
X13590500Y-37036729D01*
X13604852Y-37002081D01*
X22795852Y-27811081D01*
X22830500Y-27796729D01*
X22865148Y-27811081D01*
X22879500Y-27845729D01*
X22879500Y-28136624D01*
X22879500Y-28204454D01*
X22905457Y-28267119D01*
X22905458Y-28267120D01*
X22905458Y-28267121D01*
X23174918Y-28536580D01*
X23222881Y-28584543D01*
X23285546Y-28610500D01*
X23285548Y-28610500D01*
X24383913Y-28610500D01*
X24383915Y-28610500D01*
X24446580Y-28584543D01*
X24866271Y-28164852D01*
X24900919Y-28150500D01*
X25419621Y-28150500D01*
X25454269Y-28164852D01*
X25545387Y-28255970D01*
X25559739Y-28290618D01*
X25545387Y-28325266D01*
X25518404Y-28339015D01*
X25484696Y-28344354D01*
X25484694Y-28344354D01*
X25484692Y-28344355D01*
X25484690Y-28344355D01*
X25371664Y-28401945D01*
X25371657Y-28401950D01*
X25281950Y-28491657D01*
X25281945Y-28491664D01*
X25224355Y-28604690D01*
X25224355Y-28604692D01*
X25224354Y-28604694D01*
X25224354Y-28604696D01*
X25204508Y-28730000D01*
X25224354Y-28855304D01*
X25224354Y-28855305D01*
X25224355Y-28855307D01*
X25224355Y-28855309D01*
X25281945Y-28968335D01*
X25281950Y-28968342D01*
X25321594Y-29007986D01*
X25335946Y-29042634D01*
X25321594Y-29077282D01*
X22503729Y-31895148D01*
X22469081Y-31909500D01*
X22375979Y-31909500D01*
X22341331Y-31895148D01*
X22340108Y-31893716D01*
X22248342Y-31801950D01*
X22248335Y-31801945D01*
X22135308Y-31744355D01*
X22135305Y-31744354D01*
X22135304Y-31744354D01*
X22010000Y-31724508D01*
X21884696Y-31744354D01*
X21884694Y-31744354D01*
X21884692Y-31744355D01*
X21884690Y-31744355D01*
X21771664Y-31801945D01*
X21771657Y-31801950D01*
X21681950Y-31891657D01*
X21681945Y-31891664D01*
X21624355Y-32004690D01*
X21624355Y-32004692D01*
X21624354Y-32004694D01*
X21624354Y-32004696D01*
X21604508Y-32130000D01*
X21624354Y-32255304D01*
X21624354Y-32255305D01*
X21624355Y-32255307D01*
X21624355Y-32255309D01*
X21681945Y-32368335D01*
X21681950Y-32368342D01*
X21771657Y-32458049D01*
X21771664Y-32458054D01*
X21884691Y-32515644D01*
X21884692Y-32515644D01*
X21884696Y-32515646D01*
X22010000Y-32535492D01*
X22135304Y-32515646D01*
X22135308Y-32515644D01*
X22135309Y-32515644D01*
X22248335Y-32458054D01*
X22248337Y-32458052D01*
X22248342Y-32458050D01*
X22338050Y-32368342D01*
X22338054Y-32368335D01*
X22384462Y-32277255D01*
X22412979Y-32252898D01*
X22428121Y-32250500D01*
X22593913Y-32250500D01*
X22593915Y-32250500D01*
X22656580Y-32224543D01*
X22656582Y-32224541D01*
X22656583Y-32224541D01*
X25754541Y-29126583D01*
X25754541Y-29126581D01*
X25754543Y-29126580D01*
X25758512Y-29116996D01*
X25781535Y-29092089D01*
X25848342Y-29058050D01*
X25938050Y-28968342D01*
X25945003Y-28954696D01*
X25995644Y-28855309D01*
X25995644Y-28855307D01*
X25995646Y-28855304D01*
X26000985Y-28821592D01*
X26020579Y-28789618D01*
X26057046Y-28780863D01*
X26084029Y-28794612D01*
X27553271Y-30263854D01*
X27567623Y-30298502D01*
X27553271Y-30333150D01*
X27540870Y-30342161D01*
X27521658Y-30351950D01*
X27521654Y-30351953D01*
X27431950Y-30441657D01*
X27431945Y-30441664D01*
X27374355Y-30554690D01*
X27374355Y-30554692D01*
X27374354Y-30554694D01*
X27374354Y-30554696D01*
X27354508Y-30680000D01*
X27374354Y-30805304D01*
X27374354Y-30805305D01*
X27374355Y-30805307D01*
X27374355Y-30805309D01*
X27431945Y-30918335D01*
X27431950Y-30918342D01*
X27521657Y-31008049D01*
X27521664Y-31008054D01*
X27634691Y-31065644D01*
X27634692Y-31065644D01*
X27634696Y-31065646D01*
X27760000Y-31085492D01*
X27885304Y-31065646D01*
X27885308Y-31065644D01*
X27885309Y-31065644D01*
X27998335Y-31008054D01*
X27998337Y-31008052D01*
X27998342Y-31008050D01*
X28088050Y-30918342D01*
X28088054Y-30918335D01*
X28145644Y-30805309D01*
X28145644Y-30805307D01*
X28145646Y-30805304D01*
X28165492Y-30680000D01*
X28145646Y-30554696D01*
X28145644Y-30554692D01*
X28145644Y-30554690D01*
X28088054Y-30441664D01*
X28088049Y-30441657D01*
X27998345Y-30351953D01*
X27998342Y-30351950D01*
X27989976Y-30347687D01*
X27957254Y-30331014D01*
X27932898Y-30302496D01*
X27930500Y-30287355D01*
X27930500Y-30195548D01*
X27930499Y-30195544D01*
X27924168Y-30180260D01*
X27904543Y-30132881D01*
X27856580Y-30084918D01*
X25756850Y-27985187D01*
X25692163Y-27920500D01*
X25610771Y-27839107D01*
X25596419Y-27804459D01*
X25610770Y-27769812D01*
X26235971Y-27144611D01*
X26270618Y-27130260D01*
X26305266Y-27144612D01*
X26319014Y-27171593D01*
X26324354Y-27205304D01*
X26324354Y-27205305D01*
X26324355Y-27205307D01*
X26324355Y-27205309D01*
X26381945Y-27318335D01*
X26381950Y-27318342D01*
X26471657Y-27408049D01*
X26471664Y-27408054D01*
X26584691Y-27465644D01*
X26584692Y-27465644D01*
X26584696Y-27465646D01*
X26710000Y-27485492D01*
X26835304Y-27465646D01*
X26835308Y-27465644D01*
X26835309Y-27465644D01*
X26948335Y-27408054D01*
X26948337Y-27408052D01*
X26948342Y-27408050D01*
X27038050Y-27318342D01*
X27058985Y-27277253D01*
X27087501Y-27252899D01*
X27102644Y-27250500D01*
X29644021Y-27250500D01*
X29678669Y-27264852D01*
X29679891Y-27266283D01*
X29771657Y-27358049D01*
X29771664Y-27358054D01*
X29884691Y-27415644D01*
X29884692Y-27415644D01*
X29884696Y-27415646D01*
X30010000Y-27435492D01*
X30135304Y-27415646D01*
X30135308Y-27415644D01*
X30135309Y-27415644D01*
X30248335Y-27358054D01*
X30248337Y-27358052D01*
X30248342Y-27358050D01*
X30338050Y-27268342D01*
X30338054Y-27268335D01*
X30395644Y-27155309D01*
X30395644Y-27155307D01*
X30395646Y-27155304D01*
X30415492Y-27030000D01*
X30395646Y-26904696D01*
X30395644Y-26904692D01*
X30395644Y-26904690D01*
X30338054Y-26791664D01*
X30338049Y-26791657D01*
X30248342Y-26701950D01*
X30248335Y-26701945D01*
X30135308Y-26644355D01*
X30135305Y-26644354D01*
X30135304Y-26644354D01*
X30010000Y-26624508D01*
X29884696Y-26644354D01*
X29884694Y-26644354D01*
X29884692Y-26644355D01*
X29884690Y-26644355D01*
X29771664Y-26701945D01*
X29771657Y-26701950D01*
X29681950Y-26791657D01*
X29681945Y-26791664D01*
X29635538Y-26882745D01*
X29607021Y-26907102D01*
X29591879Y-26909500D01*
X27102644Y-26909500D01*
X27067996Y-26895148D01*
X27058986Y-26882748D01*
X27046425Y-26858095D01*
X27038051Y-26841659D01*
X26948342Y-26751950D01*
X26948335Y-26751945D01*
X26835308Y-26694355D01*
X26835305Y-26694354D01*
X26835304Y-26694354D01*
X26801593Y-26689014D01*
X26769618Y-26669419D01*
X26760863Y-26632952D01*
X26774610Y-26605972D01*
X27643517Y-25737066D01*
X27678164Y-25722715D01*
X27712812Y-25737067D01*
X27722055Y-25752147D01*
X27722603Y-25751869D01*
X27781945Y-25868335D01*
X27781950Y-25868342D01*
X27871657Y-25958049D01*
X27871664Y-25958054D01*
X27984691Y-26015644D01*
X27984692Y-26015644D01*
X27984696Y-26015646D01*
X28110000Y-26035492D01*
X28227238Y-26016923D01*
X28263702Y-26025678D01*
X28269549Y-26030672D01*
X28523417Y-26284541D01*
X28523418Y-26284541D01*
X28523420Y-26284543D01*
X28586085Y-26310500D01*
X28653915Y-26310500D01*
X30779081Y-26310500D01*
X30813729Y-26324852D01*
X31085148Y-26596271D01*
X31099500Y-26630919D01*
X31099500Y-35503810D01*
X31085148Y-35538458D01*
X27218458Y-39405148D01*
X27183810Y-39419500D01*
X24290273Y-39419500D01*
X24227608Y-39445458D01*
X24227607Y-39445458D01*
X23577919Y-40095148D01*
X23543271Y-40109500D01*
X22702644Y-40109500D01*
X22667996Y-40095148D01*
X22658986Y-40082748D01*
X22646425Y-40058095D01*
X22638051Y-40041659D01*
X22548342Y-39951950D01*
X22548335Y-39951945D01*
X22435308Y-39894355D01*
X22435305Y-39894354D01*
X22435304Y-39894354D01*
X22310000Y-39874508D01*
X22184696Y-39894354D01*
X22184694Y-39894354D01*
X22184692Y-39894355D01*
X22184690Y-39894355D01*
X22071664Y-39951945D01*
X22071657Y-39951950D01*
X21981950Y-40041657D01*
X21981945Y-40041664D01*
X21924355Y-40154690D01*
X21924355Y-40154692D01*
X21924354Y-40154694D01*
X21924354Y-40154696D01*
X21904508Y-40280000D01*
X21924354Y-40405304D01*
X21924354Y-40405305D01*
X21924355Y-40405307D01*
X21924355Y-40405309D01*
X21971714Y-40498255D01*
X21974657Y-40535642D01*
X21950300Y-40564159D01*
X21928055Y-40569500D01*
X20510919Y-40569500D01*
X20476271Y-40555148D01*
X20360672Y-40439549D01*
X20346320Y-40404901D01*
X20346922Y-40397246D01*
X20365492Y-40280000D01*
X20345646Y-40154696D01*
X20345644Y-40154692D01*
X20345644Y-40154690D01*
X20288054Y-40041664D01*
X20288050Y-40041659D01*
X20288050Y-40041658D01*
X20198342Y-39951950D01*
X20198335Y-39951945D01*
X20085308Y-39894355D01*
X20085305Y-39894354D01*
X20085304Y-39894354D01*
X19960000Y-39874508D01*
X19834696Y-39894354D01*
X19834694Y-39894354D01*
X19834692Y-39894355D01*
X19834690Y-39894355D01*
X19721664Y-39951945D01*
X19721657Y-39951950D01*
X19631950Y-40041657D01*
X19631945Y-40041664D01*
X19574355Y-40154690D01*
X19574355Y-40154692D01*
X19574354Y-40154694D01*
X19574354Y-40154696D01*
X19554508Y-40280000D01*
X19574354Y-40405304D01*
X19574354Y-40405305D01*
X19574355Y-40405307D01*
X19574355Y-40405309D01*
X19631945Y-40518335D01*
X19631950Y-40518342D01*
X19721657Y-40608049D01*
X19721664Y-40608054D01*
X19834691Y-40665644D01*
X19834692Y-40665644D01*
X19834696Y-40665646D01*
X19960000Y-40685492D01*
X20077238Y-40666923D01*
X20113702Y-40675678D01*
X20119549Y-40680672D01*
X20275457Y-40836580D01*
X20323420Y-40884543D01*
X20386085Y-40910500D01*
X20386087Y-40910500D01*
X23533373Y-40910500D01*
X23533375Y-40910500D01*
X23596040Y-40884543D01*
X24135971Y-40344611D01*
X24170618Y-40330260D01*
X24205266Y-40344612D01*
X24219014Y-40371593D01*
X24224354Y-40405304D01*
X24224354Y-40405305D01*
X24224355Y-40405307D01*
X24224355Y-40405309D01*
X24281945Y-40518335D01*
X24281950Y-40518342D01*
X24371657Y-40608049D01*
X24371664Y-40608054D01*
X24484691Y-40665644D01*
X24484692Y-40665644D01*
X24484696Y-40665646D01*
X24610000Y-40685492D01*
X24727238Y-40666923D01*
X24763702Y-40675678D01*
X24769549Y-40680672D01*
X24925457Y-40836580D01*
X24973420Y-40884543D01*
X25036085Y-40910500D01*
X25036087Y-40910500D01*
X27134452Y-40910500D01*
X27134454Y-40910500D01*
X27197119Y-40884543D01*
X27197121Y-40884541D01*
X27197122Y-40884541D01*
X32104541Y-35977122D01*
X32104541Y-35977121D01*
X32104543Y-35977119D01*
X32130500Y-35914454D01*
X32130500Y-35846624D01*
X32130500Y-34519116D01*
X33359500Y-34519116D01*
X33359500Y-36240884D01*
X33361413Y-36250500D01*
X33365911Y-36273115D01*
X33390333Y-36309666D01*
X33404481Y-36319119D01*
X33426885Y-36334089D01*
X33459116Y-36340500D01*
X33459119Y-36340500D01*
X35180881Y-36340500D01*
X35180884Y-36340500D01*
X35213115Y-36334089D01*
X35249666Y-36309666D01*
X35274089Y-36273115D01*
X35280500Y-36240884D01*
X35280500Y-34519116D01*
X35274089Y-34486885D01*
X35265984Y-34474756D01*
X35249666Y-34450333D01*
X35213115Y-34425911D01*
X35180884Y-34419500D01*
X33459116Y-34419500D01*
X33434942Y-34424308D01*
X33426884Y-34425911D01*
X33390333Y-34450333D01*
X33365911Y-34486884D01*
X33365625Y-34488321D01*
X33359500Y-34519116D01*
X32130500Y-34519116D01*
X32130500Y-26220275D01*
X32104543Y-26157610D01*
X32056580Y-26109647D01*
X31135189Y-25188256D01*
X31120837Y-25153608D01*
X31135189Y-25118960D01*
X31147587Y-25109951D01*
X31181209Y-25092821D01*
X31270917Y-25003113D01*
X31279913Y-24985458D01*
X31328511Y-24890080D01*
X31328511Y-24890078D01*
X31328513Y-24890075D01*
X31348359Y-24764771D01*
X31328513Y-24639467D01*
X31328511Y-24639463D01*
X31328511Y-24639461D01*
X31270921Y-24526435D01*
X31270916Y-24526428D01*
X31181209Y-24436721D01*
X31181202Y-24436716D01*
X31068175Y-24379126D01*
X31068172Y-24379125D01*
X31068171Y-24379125D01*
X30942867Y-24359279D01*
X30817563Y-24379125D01*
X30817561Y-24379125D01*
X30817559Y-24379126D01*
X30817557Y-24379126D01*
X30704531Y-24436716D01*
X30704524Y-24436721D01*
X30614817Y-24526428D01*
X30614812Y-24526435D01*
X30557222Y-24639461D01*
X30557222Y-24639463D01*
X30557221Y-24639465D01*
X30557221Y-24639467D01*
X30537375Y-24764771D01*
X30541634Y-24791664D01*
X30542190Y-24795169D01*
X30533435Y-24831635D01*
X30501458Y-24851231D01*
X30464992Y-24842476D01*
X30459145Y-24837482D01*
X30147122Y-24525459D01*
X30147120Y-24525458D01*
X30147119Y-24525457D01*
X30110412Y-24510252D01*
X30084455Y-24499500D01*
X30084454Y-24499500D01*
X29016188Y-24499500D01*
X28981540Y-24485148D01*
X28948342Y-24451950D01*
X28948335Y-24451945D01*
X28835308Y-24394355D01*
X28835305Y-24394354D01*
X28835304Y-24394354D01*
X28710000Y-24374508D01*
X28584696Y-24394354D01*
X28584694Y-24394354D01*
X28584692Y-24394355D01*
X28584690Y-24394355D01*
X28471664Y-24451945D01*
X28471657Y-24451950D01*
X28381950Y-24541657D01*
X28381945Y-24541664D01*
X28324355Y-24654690D01*
X28324355Y-24654692D01*
X28324354Y-24654694D01*
X28324354Y-24654696D01*
X28304508Y-24780000D01*
X28324354Y-24905304D01*
X28324354Y-24905305D01*
X28324355Y-24905307D01*
X28324355Y-24905309D01*
X28381945Y-25018335D01*
X28381950Y-25018342D01*
X28471657Y-25108049D01*
X28471664Y-25108054D01*
X28584691Y-25165644D01*
X28584692Y-25165644D01*
X28584696Y-25165646D01*
X28710000Y-25185492D01*
X28835304Y-25165646D01*
X28835308Y-25165644D01*
X28835309Y-25165644D01*
X28948335Y-25108054D01*
X28948337Y-25108052D01*
X28948342Y-25108050D01*
X29038050Y-25018342D01*
X29038054Y-25018335D01*
X29095644Y-24905309D01*
X29095644Y-24905307D01*
X29095646Y-24905304D01*
X29099363Y-24881833D01*
X29118959Y-24849858D01*
X29147760Y-24840500D01*
X29959620Y-24840500D01*
X29994268Y-24854852D01*
X30345664Y-25206248D01*
X30360016Y-25240896D01*
X30345664Y-25275544D01*
X30311016Y-25289896D01*
X30303351Y-25289293D01*
X30210000Y-25274508D01*
X30084696Y-25294354D01*
X30084694Y-25294354D01*
X30084692Y-25294355D01*
X30084690Y-25294355D01*
X29971664Y-25351945D01*
X29971657Y-25351950D01*
X29881950Y-25441657D01*
X29881945Y-25441664D01*
X29824355Y-25554690D01*
X29824355Y-25554692D01*
X29824354Y-25554694D01*
X29824354Y-25554696D01*
X29804508Y-25680000D01*
X29824354Y-25805304D01*
X29824354Y-25805305D01*
X29824355Y-25805307D01*
X29824355Y-25805309D01*
X29871714Y-25898255D01*
X29874657Y-25935642D01*
X29850300Y-25964159D01*
X29828055Y-25969500D01*
X28710919Y-25969500D01*
X28676271Y-25955148D01*
X28510672Y-25789549D01*
X28496320Y-25754901D01*
X28496922Y-25747246D01*
X28515492Y-25630000D01*
X28495646Y-25504696D01*
X28495644Y-25504692D01*
X28495644Y-25504690D01*
X28438054Y-25391664D01*
X28438049Y-25391657D01*
X28348342Y-25301950D01*
X28348335Y-25301945D01*
X28235308Y-25244355D01*
X28235305Y-25244354D01*
X28235304Y-25244354D01*
X28110000Y-25224508D01*
X27984696Y-25244354D01*
X27984694Y-25244354D01*
X27984692Y-25244355D01*
X27984690Y-25244355D01*
X27871664Y-25301945D01*
X27871657Y-25301950D01*
X27814148Y-25359460D01*
X27779500Y-25373812D01*
X27744852Y-25359460D01*
X27730500Y-25324812D01*
X27730500Y-24069116D01*
X32574500Y-24069116D01*
X32574500Y-25790884D01*
X32580625Y-25821678D01*
X32580911Y-25823115D01*
X32605333Y-25859666D01*
X32618318Y-25868342D01*
X32641885Y-25884089D01*
X32674116Y-25890500D01*
X32674119Y-25890500D01*
X34395881Y-25890500D01*
X34395884Y-25890500D01*
X34428115Y-25884089D01*
X34464666Y-25859666D01*
X34489089Y-25823115D01*
X34495500Y-25790884D01*
X34495500Y-24929999D01*
X35109853Y-24929999D01*
X35109853Y-24930000D01*
X35128398Y-25118291D01*
X35128398Y-25118292D01*
X35139627Y-25155309D01*
X35183320Y-25299346D01*
X35272510Y-25466207D01*
X35392538Y-25612462D01*
X35538793Y-25732490D01*
X35705654Y-25821680D01*
X35886709Y-25876602D01*
X36075000Y-25895147D01*
X36263291Y-25876602D01*
X36444346Y-25821680D01*
X36611207Y-25732490D01*
X36757462Y-25612462D01*
X36877490Y-25466207D01*
X36966680Y-25299346D01*
X37021602Y-25118291D01*
X37040147Y-24930000D01*
X37039422Y-24922644D01*
X37036010Y-24887996D01*
X37021602Y-24741709D01*
X36966680Y-24560654D01*
X36877490Y-24393793D01*
X36757462Y-24247538D01*
X36611207Y-24127510D01*
X36444346Y-24038320D01*
X36263291Y-23983398D01*
X36075000Y-23964853D01*
X35886708Y-23983398D01*
X35886707Y-23983398D01*
X35705651Y-24038321D01*
X35538793Y-24127510D01*
X35392538Y-24247538D01*
X35272510Y-24393793D01*
X35183321Y-24560651D01*
X35128398Y-24741707D01*
X35128398Y-24741708D01*
X35109853Y-24929999D01*
X34495500Y-24929999D01*
X34495500Y-24069116D01*
X34489089Y-24036885D01*
X34480984Y-24024756D01*
X34464666Y-24000333D01*
X34428115Y-23975911D01*
X34395884Y-23969500D01*
X32674116Y-23969500D01*
X32649942Y-23974308D01*
X32641884Y-23975911D01*
X32605333Y-24000333D01*
X32580911Y-24036884D01*
X32580625Y-24038321D01*
X32574500Y-24069116D01*
X27730500Y-24069116D01*
X27730500Y-21446189D01*
X27744852Y-21411541D01*
X28784541Y-20371852D01*
X28784543Y-20371850D01*
X28810500Y-20309185D01*
X28810500Y-20241355D01*
X28810500Y-19934303D01*
X28824852Y-19899655D01*
X28859500Y-19885303D01*
X28894148Y-19899655D01*
X28906100Y-19919157D01*
X28946135Y-20042373D01*
X29041833Y-20208126D01*
X29053876Y-20221501D01*
X29162662Y-20342321D01*
X29169901Y-20350360D01*
X29324742Y-20462859D01*
X29499590Y-20540707D01*
X29686803Y-20580500D01*
X29878197Y-20580500D01*
X30065410Y-20540707D01*
X30240258Y-20462859D01*
X30395099Y-20350360D01*
X30523167Y-20208126D01*
X30618865Y-20042373D01*
X30678009Y-19860346D01*
X30698015Y-19670000D01*
X30678009Y-19479654D01*
X30618865Y-19297627D01*
X30523167Y-19131874D01*
X30425717Y-19023645D01*
X30395103Y-18989644D01*
X30395101Y-18989643D01*
X30395099Y-18989640D01*
X30240258Y-18877141D01*
X30065410Y-18799293D01*
X30065407Y-18799292D01*
X30065403Y-18799291D01*
X29878197Y-18759500D01*
X29686803Y-18759500D01*
X29499596Y-18799291D01*
X29499587Y-18799294D01*
X29324741Y-18877142D01*
X29169899Y-18989641D01*
X29169896Y-18989643D01*
X29041836Y-19131870D01*
X29041830Y-19131878D01*
X28946137Y-19297623D01*
X28946135Y-19297626D01*
X28941981Y-19310411D01*
X28906101Y-19420839D01*
X28881746Y-19449355D01*
X28844358Y-19452298D01*
X28815841Y-19427942D01*
X28810500Y-19405696D01*
X28810500Y-18018565D01*
X28824852Y-17983917D01*
X42888852Y-3919917D01*
X42923500Y-3905565D01*
X42958148Y-3919917D01*
G37*
G04 #@! TD.AperFunction*
G04 #@! TA.AperFunction,Conductor*
G36*
X51895648Y-394852D02*
G01*
X51910000Y-429500D01*
X51910000Y-8331000D01*
X51895648Y-8365648D01*
X51861000Y-8380000D01*
X50986382Y-8380000D01*
X50951734Y-8365648D01*
X50947682Y-8361055D01*
X50924341Y-8331000D01*
X47312395Y-3680000D01*
X45656094Y-3680000D01*
X45621446Y-3665648D01*
X45607094Y-3631000D01*
X45621446Y-3596352D01*
X45637341Y-3585730D01*
X45664350Y-3574543D01*
X46696271Y-2542622D01*
X46730919Y-2528270D01*
X46890187Y-2528270D01*
X46924835Y-2542622D01*
X46926587Y-2544467D01*
X46949901Y-2570360D01*
X47104742Y-2682859D01*
X47279590Y-2760707D01*
X47466803Y-2800500D01*
X47658197Y-2800500D01*
X47845410Y-2760707D01*
X48020258Y-2682859D01*
X48175099Y-2570360D01*
X48303167Y-2428126D01*
X48398865Y-2262373D01*
X48458009Y-2080346D01*
X48478015Y-1890000D01*
X48458009Y-1699654D01*
X48398865Y-1517627D01*
X48303167Y-1351874D01*
X48175099Y-1209640D01*
X48078065Y-1139140D01*
X48058471Y-1107165D01*
X48067226Y-1070698D01*
X48099203Y-1051103D01*
X48106868Y-1050500D01*
X49001581Y-1050500D01*
X49036229Y-1064852D01*
X49321123Y-1349746D01*
X49335475Y-1384394D01*
X49328911Y-1408893D01*
X49266135Y-1517626D01*
X49266135Y-1517627D01*
X49206991Y-1699654D01*
X49186985Y-1890000D01*
X49206991Y-2080346D01*
X49266135Y-2262373D01*
X49361833Y-2428126D01*
X49409858Y-2481463D01*
X49464925Y-2542622D01*
X49489901Y-2570360D01*
X49644742Y-2682859D01*
X49819590Y-2760707D01*
X50006803Y-2800500D01*
X50198197Y-2800500D01*
X50385410Y-2760707D01*
X50560258Y-2682859D01*
X50715099Y-2570360D01*
X50843167Y-2428126D01*
X50938865Y-2262373D01*
X50998009Y-2080346D01*
X51018015Y-1890000D01*
X50998009Y-1699654D01*
X50938865Y-1517627D01*
X50843167Y-1351874D01*
X50715099Y-1209640D01*
X50560258Y-1097141D01*
X50385410Y-1019293D01*
X50385407Y-1019292D01*
X50385403Y-1019291D01*
X50198197Y-979500D01*
X50006803Y-979500D01*
X49819596Y-1019291D01*
X49819587Y-1019294D01*
X49644741Y-1097141D01*
X49624166Y-1112090D01*
X49587699Y-1120843D01*
X49560718Y-1107095D01*
X49189082Y-735458D01*
X49126416Y-709500D01*
X49126415Y-709500D01*
X47234627Y-709500D01*
X47166797Y-709500D01*
X47166795Y-709500D01*
X47104130Y-735458D01*
X47104129Y-735458D01*
X46629949Y-1209640D01*
X46495920Y-1343669D01*
X46471938Y-1367650D01*
X46447957Y-1391631D01*
X46422000Y-1454295D01*
X46422000Y-1989081D01*
X46407648Y-2023729D01*
X45416229Y-3015148D01*
X45381581Y-3029500D01*
X43008461Y-3029500D01*
X42945795Y-3055456D01*
X42945793Y-3055457D01*
X30746563Y-15254690D01*
X28313420Y-17687833D01*
X28289438Y-17711814D01*
X28265457Y-17735795D01*
X28239500Y-17798459D01*
X28239500Y-19510301D01*
X28225148Y-19544949D01*
X28190500Y-19559301D01*
X28155852Y-19544949D01*
X28141768Y-19515423D01*
X28141230Y-19510301D01*
X28138009Y-19479654D01*
X28078865Y-19297627D01*
X27983167Y-19131874D01*
X27885717Y-19023645D01*
X27855103Y-18989644D01*
X27855101Y-18989643D01*
X27855099Y-18989640D01*
X27700258Y-18877141D01*
X27525410Y-18799293D01*
X27525407Y-18799292D01*
X27525403Y-18799291D01*
X27338197Y-18759500D01*
X27146803Y-18759500D01*
X26959596Y-18799291D01*
X26959587Y-18799294D01*
X26784741Y-18877142D01*
X26629899Y-18989641D01*
X26629896Y-18989643D01*
X26528414Y-19102352D01*
X26494565Y-19118498D01*
X26459213Y-19105979D01*
X26443067Y-19072130D01*
X26443000Y-19069565D01*
X26443000Y-10592131D01*
X26457351Y-10557484D01*
X34333005Y-2681829D01*
X34367652Y-2667478D01*
X34396452Y-2676836D01*
X34404742Y-2682859D01*
X34579590Y-2760707D01*
X34766803Y-2800500D01*
X34958197Y-2800500D01*
X35145410Y-2760707D01*
X35320258Y-2682859D01*
X35475099Y-2570360D01*
X35603167Y-2428126D01*
X35698865Y-2262373D01*
X35758009Y-2080346D01*
X35778015Y-1890000D01*
X36486985Y-1890000D01*
X36506991Y-2080346D01*
X36566135Y-2262373D01*
X36661833Y-2428126D01*
X36709858Y-2481463D01*
X36764925Y-2542622D01*
X36789901Y-2570360D01*
X36944742Y-2682859D01*
X37119590Y-2760707D01*
X37306803Y-2800500D01*
X37498197Y-2800500D01*
X37685410Y-2760707D01*
X37860258Y-2682859D01*
X38015099Y-2570360D01*
X38143167Y-2428126D01*
X38238865Y-2262373D01*
X38298009Y-2080346D01*
X38318015Y-1890000D01*
X39026985Y-1890000D01*
X39046991Y-2080346D01*
X39106135Y-2262373D01*
X39201833Y-2428126D01*
X39249858Y-2481463D01*
X39304925Y-2542622D01*
X39329901Y-2570360D01*
X39484742Y-2682859D01*
X39659590Y-2760707D01*
X39846803Y-2800500D01*
X40038197Y-2800500D01*
X40225410Y-2760707D01*
X40400258Y-2682859D01*
X40555099Y-2570360D01*
X40683167Y-2428126D01*
X40778865Y-2262373D01*
X40838009Y-2080346D01*
X40858015Y-1890000D01*
X41566985Y-1890000D01*
X41586991Y-2080346D01*
X41646135Y-2262373D01*
X41741833Y-2428126D01*
X41789858Y-2481463D01*
X41844925Y-2542622D01*
X41869901Y-2570360D01*
X42024742Y-2682859D01*
X42199590Y-2760707D01*
X42386803Y-2800500D01*
X42578197Y-2800500D01*
X42765410Y-2760707D01*
X42940258Y-2682859D01*
X43095099Y-2570360D01*
X43223167Y-2428126D01*
X43318865Y-2262373D01*
X43378009Y-2080346D01*
X43398015Y-1890000D01*
X43378009Y-1699654D01*
X43318865Y-1517627D01*
X43223167Y-1351874D01*
X43095099Y-1209640D01*
X42940258Y-1097141D01*
X42765410Y-1019293D01*
X42765407Y-1019292D01*
X42765403Y-1019291D01*
X42578197Y-979500D01*
X42386803Y-979500D01*
X42199596Y-1019291D01*
X42199587Y-1019294D01*
X42024741Y-1097142D01*
X41869899Y-1209641D01*
X41869896Y-1209643D01*
X41741836Y-1351870D01*
X41741830Y-1351878D01*
X41646137Y-1517623D01*
X41646135Y-1517626D01*
X41646135Y-1517627D01*
X41586991Y-1699654D01*
X41566985Y-1890000D01*
X40858015Y-1890000D01*
X40838009Y-1699654D01*
X40778865Y-1517627D01*
X40683167Y-1351874D01*
X40555099Y-1209640D01*
X40400258Y-1097141D01*
X40225410Y-1019293D01*
X40225407Y-1019292D01*
X40225403Y-1019291D01*
X40038197Y-979500D01*
X39846803Y-979500D01*
X39659596Y-1019291D01*
X39659587Y-1019294D01*
X39484741Y-1097142D01*
X39329899Y-1209641D01*
X39329896Y-1209643D01*
X39201836Y-1351870D01*
X39201830Y-1351878D01*
X39106137Y-1517623D01*
X39106135Y-1517626D01*
X39106135Y-1517627D01*
X39046991Y-1699654D01*
X39026985Y-1890000D01*
X38318015Y-1890000D01*
X38298009Y-1699654D01*
X38238865Y-1517627D01*
X38143167Y-1351874D01*
X38015099Y-1209640D01*
X37860258Y-1097141D01*
X37685410Y-1019293D01*
X37685407Y-1019292D01*
X37685403Y-1019291D01*
X37498197Y-979500D01*
X37306803Y-979500D01*
X37119596Y-1019291D01*
X37119587Y-1019294D01*
X36944741Y-1097142D01*
X36789899Y-1209641D01*
X36789896Y-1209643D01*
X36661836Y-1351870D01*
X36661830Y-1351878D01*
X36566137Y-1517623D01*
X36566135Y-1517626D01*
X36566135Y-1517627D01*
X36506991Y-1699654D01*
X36486985Y-1890000D01*
X35778015Y-1890000D01*
X35758009Y-1699654D01*
X35698865Y-1517627D01*
X35603167Y-1351874D01*
X35475099Y-1209640D01*
X35320258Y-1097141D01*
X35145410Y-1019293D01*
X35145407Y-1019292D01*
X35145403Y-1019291D01*
X34958197Y-979500D01*
X34766803Y-979500D01*
X34579596Y-1019291D01*
X34579587Y-1019294D01*
X34404741Y-1097142D01*
X34249899Y-1209641D01*
X34249896Y-1209643D01*
X34121836Y-1351870D01*
X34121830Y-1351878D01*
X34026137Y-1517623D01*
X34026135Y-1517626D01*
X34026135Y-1517627D01*
X33966991Y-1699654D01*
X33946985Y-1890000D01*
X33961040Y-2023729D01*
X33966991Y-2080344D01*
X33966991Y-2080345D01*
X34026135Y-2262373D01*
X34026137Y-2262376D01*
X34081146Y-2357655D01*
X34086041Y-2394837D01*
X34073359Y-2416803D01*
X28129109Y-8361055D01*
X26152423Y-10337741D01*
X26126332Y-10363832D01*
X26100241Y-10389922D01*
X26072000Y-10458100D01*
X26072000Y-19410868D01*
X26057648Y-19445516D01*
X25690589Y-19812574D01*
X25655941Y-19826926D01*
X25621293Y-19812574D01*
X25606941Y-19777926D01*
X25607208Y-19772822D01*
X25618015Y-19670000D01*
X25598009Y-19479654D01*
X25538865Y-19297627D01*
X25443167Y-19131874D01*
X25345717Y-19023645D01*
X25315103Y-18989644D01*
X25315101Y-18989643D01*
X25315099Y-18989640D01*
X25160258Y-18877141D01*
X24985410Y-18799293D01*
X24985407Y-18799292D01*
X24985403Y-18799291D01*
X24798197Y-18759500D01*
X24606803Y-18759500D01*
X24419596Y-18799291D01*
X24419587Y-18799294D01*
X24244741Y-18877142D01*
X24089899Y-18989641D01*
X24089896Y-18989643D01*
X23961836Y-19131870D01*
X23961830Y-19131878D01*
X23886935Y-19261600D01*
X23857182Y-19284430D01*
X23820000Y-19279535D01*
X23797170Y-19249782D01*
X23795500Y-19237100D01*
X23795500Y-8159632D01*
X23809852Y-8124984D01*
X24224618Y-7710218D01*
X29253005Y-2681830D01*
X29287652Y-2667479D01*
X29316453Y-2676837D01*
X29324742Y-2682859D01*
X29499590Y-2760707D01*
X29686803Y-2800500D01*
X29878197Y-2800500D01*
X30065410Y-2760707D01*
X30240258Y-2682859D01*
X30395099Y-2570360D01*
X30523167Y-2428126D01*
X30618865Y-2262373D01*
X30678009Y-2080346D01*
X30698015Y-1890000D01*
X30678009Y-1699654D01*
X30618865Y-1517627D01*
X30523167Y-1351874D01*
X30395099Y-1209640D01*
X30240258Y-1097141D01*
X30065410Y-1019293D01*
X30065407Y-1019292D01*
X30065403Y-1019291D01*
X29878197Y-979500D01*
X29686803Y-979500D01*
X29499596Y-1019291D01*
X29499587Y-1019294D01*
X29324741Y-1097142D01*
X29169899Y-1209641D01*
X29169896Y-1209643D01*
X29041836Y-1351870D01*
X29041830Y-1351878D01*
X28946137Y-1517623D01*
X28946135Y-1517626D01*
X28946135Y-1517627D01*
X28886991Y-1699654D01*
X28866985Y-1890000D01*
X28881040Y-2023729D01*
X28886991Y-2080344D01*
X28886991Y-2080345D01*
X28946135Y-2262373D01*
X28946137Y-2262376D01*
X29001146Y-2357654D01*
X29006041Y-2394836D01*
X28993359Y-2416802D01*
X23699946Y-7710218D01*
X23504923Y-7905241D01*
X23478832Y-7931332D01*
X23452741Y-7957422D01*
X23424500Y-8025600D01*
X23424500Y-19518368D01*
X23410148Y-19553016D01*
X23150589Y-19812574D01*
X23115941Y-19826926D01*
X23081293Y-19812574D01*
X23066941Y-19777926D01*
X23067208Y-19772822D01*
X23078015Y-19670000D01*
X23058009Y-19479654D01*
X22998865Y-19297627D01*
X22903167Y-19131874D01*
X22805717Y-19023645D01*
X22775103Y-18989644D01*
X22775101Y-18989643D01*
X22775099Y-18989640D01*
X22620258Y-18877141D01*
X22445410Y-18799293D01*
X22445407Y-18799292D01*
X22445403Y-18799291D01*
X22258197Y-18759500D01*
X22066803Y-18759500D01*
X21879596Y-18799291D01*
X21879587Y-18799294D01*
X21704741Y-18877142D01*
X21549899Y-18989641D01*
X21549896Y-18989643D01*
X21421836Y-19131870D01*
X21421830Y-19131878D01*
X21326137Y-19297623D01*
X21326135Y-19297626D01*
X21321981Y-19310411D01*
X21266991Y-19479654D01*
X21246985Y-19670000D01*
X21266991Y-19860346D01*
X21326135Y-20042373D01*
X21421833Y-20208126D01*
X21433876Y-20221501D01*
X21542662Y-20342321D01*
X21549901Y-20350360D01*
X21704742Y-20462859D01*
X21879590Y-20540707D01*
X22066803Y-20580500D01*
X22258187Y-20580500D01*
X22258197Y-20580500D01*
X22258206Y-20580497D01*
X22259659Y-20580345D01*
X22260183Y-20580500D01*
X22260765Y-20580500D01*
X22260765Y-20580672D01*
X22295620Y-20590989D01*
X22313522Y-20623944D01*
X22302878Y-20659905D01*
X22299439Y-20663724D01*
X21083017Y-21880148D01*
X21048369Y-21894500D01*
X20495001Y-21894500D01*
X20460353Y-21880148D01*
X20451343Y-21867748D01*
X20438050Y-21841658D01*
X20348342Y-21751950D01*
X20348335Y-21751945D01*
X20235308Y-21694355D01*
X20235305Y-21694354D01*
X20235304Y-21694354D01*
X20110000Y-21674508D01*
X19984696Y-21694354D01*
X19984694Y-21694354D01*
X19984692Y-21694355D01*
X19984690Y-21694355D01*
X19871664Y-21751945D01*
X19871657Y-21751950D01*
X19781950Y-21841657D01*
X19781945Y-21841664D01*
X19724355Y-21954690D01*
X19724355Y-21954692D01*
X19724354Y-21954694D01*
X19724354Y-21954696D01*
X19704508Y-22080000D01*
X19724354Y-22205304D01*
X19724354Y-22205305D01*
X19724355Y-22205307D01*
X19724355Y-22205309D01*
X19781945Y-22318335D01*
X19781950Y-22318342D01*
X19871657Y-22408049D01*
X19871664Y-22408054D01*
X19984691Y-22465644D01*
X19984692Y-22465644D01*
X19984696Y-22465646D01*
X20110000Y-22485492D01*
X20235304Y-22465646D01*
X20235308Y-22465644D01*
X20235309Y-22465644D01*
X20348335Y-22408054D01*
X20348337Y-22408052D01*
X20348342Y-22408050D01*
X20438050Y-22318342D01*
X20451342Y-22292253D01*
X20479858Y-22267899D01*
X20495001Y-22265500D01*
X21182397Y-22265500D01*
X21182399Y-22265500D01*
X21250578Y-22237259D01*
X23717277Y-19770560D01*
X23751925Y-19756208D01*
X23786573Y-19770560D01*
X23800656Y-19800085D01*
X23806990Y-19860340D01*
X23806990Y-19860343D01*
X23806991Y-19860345D01*
X23806991Y-19860346D01*
X23866135Y-20042373D01*
X23961833Y-20208126D01*
X23973876Y-20221501D01*
X24082662Y-20342321D01*
X24089901Y-20350360D01*
X24244742Y-20462859D01*
X24419590Y-20540707D01*
X24606803Y-20580500D01*
X24798187Y-20580500D01*
X24798197Y-20580500D01*
X24798206Y-20580497D01*
X24799659Y-20580345D01*
X24800183Y-20580500D01*
X24800765Y-20580500D01*
X24800765Y-20580672D01*
X24835620Y-20590989D01*
X24853522Y-20623944D01*
X24842878Y-20659905D01*
X24839439Y-20663724D01*
X23173017Y-22330148D01*
X23138369Y-22344500D01*
X22095001Y-22344500D01*
X22060353Y-22330148D01*
X22051343Y-22317748D01*
X22038050Y-22291658D01*
X21948342Y-22201950D01*
X21948335Y-22201945D01*
X21835308Y-22144355D01*
X21835305Y-22144354D01*
X21835304Y-22144354D01*
X21710000Y-22124508D01*
X21584696Y-22144354D01*
X21584694Y-22144354D01*
X21584692Y-22144355D01*
X21584690Y-22144355D01*
X21471664Y-22201945D01*
X21471657Y-22201950D01*
X21381950Y-22291657D01*
X21381945Y-22291664D01*
X21324355Y-22404690D01*
X21324355Y-22404692D01*
X21324354Y-22404694D01*
X21324354Y-22404696D01*
X21304508Y-22530000D01*
X21324354Y-22655304D01*
X21324354Y-22655305D01*
X21324355Y-22655307D01*
X21324355Y-22655309D01*
X21381945Y-22768335D01*
X21381950Y-22768342D01*
X21471657Y-22858049D01*
X21471664Y-22858054D01*
X21584691Y-22915644D01*
X21584692Y-22915644D01*
X21584696Y-22915646D01*
X21710000Y-22935492D01*
X21835304Y-22915646D01*
X21835308Y-22915644D01*
X21835309Y-22915644D01*
X21948335Y-22858054D01*
X21948337Y-22858052D01*
X21948342Y-22858050D01*
X22038050Y-22768342D01*
X22051342Y-22742253D01*
X22079858Y-22717899D01*
X22095001Y-22715500D01*
X23272397Y-22715500D01*
X23272399Y-22715500D01*
X23340578Y-22687259D01*
X26257278Y-19770557D01*
X26291925Y-19756206D01*
X26326573Y-19770558D01*
X26340657Y-19800084D01*
X26346991Y-19860346D01*
X26406135Y-20042373D01*
X26426079Y-20076918D01*
X26468910Y-20151104D01*
X26473805Y-20188286D01*
X26461123Y-20210252D01*
X24841377Y-21830000D01*
X24363689Y-22307688D01*
X24347606Y-22323771D01*
X24315726Y-22355650D01*
X24289769Y-22418314D01*
X24289769Y-22637086D01*
X24275417Y-22671734D01*
X24263015Y-22680745D01*
X24221930Y-22701679D01*
X24221923Y-22701684D01*
X24132219Y-22791388D01*
X24132214Y-22791395D01*
X24074624Y-22904421D01*
X24074624Y-22904423D01*
X24074623Y-22904425D01*
X24074623Y-22904427D01*
X24054777Y-23029731D01*
X24074623Y-23155035D01*
X24074623Y-23155036D01*
X24074624Y-23155038D01*
X24074624Y-23155040D01*
X24132214Y-23268066D01*
X24132219Y-23268073D01*
X24221926Y-23357780D01*
X24221933Y-23357785D01*
X24334960Y-23415375D01*
X24334961Y-23415375D01*
X24334965Y-23415377D01*
X24460269Y-23435223D01*
X24585573Y-23415377D01*
X24585577Y-23415375D01*
X24585578Y-23415375D01*
X24698604Y-23357785D01*
X24698606Y-23357783D01*
X24698611Y-23357781D01*
X24788319Y-23268073D01*
X24788323Y-23268066D01*
X24845913Y-23155040D01*
X24845913Y-23155038D01*
X24845915Y-23155035D01*
X24865761Y-23029731D01*
X24845915Y-22904427D01*
X24845913Y-22904423D01*
X24845913Y-22904421D01*
X24788323Y-22791395D01*
X24788318Y-22791388D01*
X24698614Y-22701684D01*
X24698611Y-22701681D01*
X24657523Y-22680745D01*
X24633167Y-22652227D01*
X24630769Y-22637086D01*
X24630769Y-22543149D01*
X24645120Y-22508502D01*
X26700718Y-20452903D01*
X26735365Y-20438552D01*
X26764166Y-20447910D01*
X26764999Y-20448515D01*
X26784742Y-20462859D01*
X26959590Y-20540707D01*
X27146803Y-20580500D01*
X27338197Y-20580500D01*
X27525410Y-20540707D01*
X27700258Y-20462859D01*
X27855099Y-20350360D01*
X27983167Y-20208126D01*
X28078865Y-20042373D01*
X28138009Y-19860346D01*
X28141768Y-19824574D01*
X28159663Y-19791618D01*
X28195622Y-19780966D01*
X28228580Y-19798861D01*
X28239500Y-19829698D01*
X28239500Y-20089081D01*
X28225148Y-20123729D01*
X27233420Y-21115457D01*
X27209438Y-21139438D01*
X27185457Y-21163419D01*
X27159500Y-21226083D01*
X27159500Y-24384769D01*
X27145148Y-24419417D01*
X27110500Y-24433769D01*
X27075852Y-24419417D01*
X26601893Y-23945459D01*
X26601891Y-23945458D01*
X26601890Y-23945457D01*
X26565183Y-23930252D01*
X26539226Y-23919500D01*
X26539225Y-23919500D01*
X24542485Y-23919500D01*
X24523733Y-23915770D01*
X24484455Y-23899500D01*
X24484454Y-23899500D01*
X21890919Y-23899500D01*
X21856271Y-23885148D01*
X21260672Y-23289549D01*
X21246320Y-23254901D01*
X21246922Y-23247246D01*
X21265492Y-23130000D01*
X21245646Y-23004696D01*
X21245644Y-23004692D01*
X21245644Y-23004690D01*
X21188054Y-22891664D01*
X21188049Y-22891657D01*
X21098342Y-22801950D01*
X21098335Y-22801945D01*
X20985308Y-22744355D01*
X20985305Y-22744354D01*
X20985304Y-22744354D01*
X20860000Y-22724508D01*
X20734696Y-22744354D01*
X20734694Y-22744354D01*
X20734692Y-22744355D01*
X20734690Y-22744355D01*
X20621664Y-22801945D01*
X20621657Y-22801950D01*
X20531950Y-22891657D01*
X20531945Y-22891664D01*
X20474355Y-23004690D01*
X20474355Y-23004692D01*
X20474354Y-23004694D01*
X20474354Y-23004696D01*
X20454508Y-23130000D01*
X20474354Y-23255304D01*
X20474354Y-23255305D01*
X20474355Y-23255307D01*
X20474355Y-23255309D01*
X20531945Y-23368335D01*
X20531950Y-23368342D01*
X20621657Y-23458049D01*
X20621664Y-23458054D01*
X20734691Y-23515644D01*
X20734692Y-23515644D01*
X20734696Y-23515646D01*
X20860000Y-23535492D01*
X20977238Y-23516923D01*
X21013702Y-23525678D01*
X21019549Y-23530672D01*
X21703417Y-24214541D01*
X21703418Y-24214541D01*
X21703420Y-24214543D01*
X21766085Y-24240500D01*
X21833915Y-24240500D01*
X23878055Y-24240500D01*
X23912703Y-24254852D01*
X23927055Y-24289500D01*
X23921714Y-24311745D01*
X23874355Y-24404690D01*
X23874355Y-24404692D01*
X23874354Y-24404694D01*
X23874354Y-24404696D01*
X23854508Y-24530000D01*
X23874354Y-24655304D01*
X23874354Y-24655305D01*
X23874355Y-24655307D01*
X23874355Y-24655309D01*
X23931945Y-24768335D01*
X23931950Y-24768342D01*
X24021659Y-24858051D01*
X24038095Y-24866425D01*
X24062746Y-24878985D01*
X24087101Y-24907501D01*
X24089500Y-24922644D01*
X24089500Y-25274812D01*
X24075148Y-25309460D01*
X24040500Y-25323812D01*
X24005852Y-25309460D01*
X23998342Y-25301950D01*
X23998335Y-25301945D01*
X23885308Y-25244355D01*
X23885305Y-25244354D01*
X23885304Y-25244354D01*
X23760000Y-25224508D01*
X23634696Y-25244354D01*
X23634694Y-25244354D01*
X23634692Y-25244355D01*
X23634690Y-25244355D01*
X23521664Y-25301945D01*
X23521657Y-25301950D01*
X23431950Y-25391657D01*
X23431945Y-25391664D01*
X23374355Y-25504690D01*
X23374355Y-25504692D01*
X23374354Y-25504694D01*
X23374354Y-25504696D01*
X23366435Y-25554696D01*
X23354508Y-25630000D01*
X23373075Y-25747235D01*
X23364319Y-25783702D01*
X23359326Y-25789548D01*
X14412606Y-34736271D01*
X12633420Y-36515457D01*
X12618576Y-36530301D01*
X12585457Y-36563419D01*
X12559500Y-36626083D01*
X12559500Y-39669081D01*
X12545148Y-39703729D01*
X12153729Y-40095148D01*
X12119081Y-40109500D01*
X11002644Y-40109500D01*
X10967996Y-40095148D01*
X10958986Y-40082748D01*
X10946425Y-40058095D01*
X10938051Y-40041659D01*
X10848342Y-39951950D01*
X10848335Y-39951945D01*
X10735308Y-39894355D01*
X10735305Y-39894354D01*
X10735304Y-39894354D01*
X10610000Y-39874508D01*
X10484696Y-39894354D01*
X10484694Y-39894354D01*
X10484692Y-39894355D01*
X10484690Y-39894355D01*
X10371664Y-39951945D01*
X10371657Y-39951950D01*
X10281950Y-40041657D01*
X10281945Y-40041664D01*
X10224355Y-40154690D01*
X10224355Y-40154692D01*
X10224354Y-40154694D01*
X10224354Y-40154696D01*
X10204508Y-40280000D01*
X10224354Y-40405304D01*
X10224354Y-40405305D01*
X10224355Y-40405307D01*
X10224355Y-40405309D01*
X10271714Y-40498255D01*
X10274657Y-40535642D01*
X10250300Y-40564159D01*
X10228055Y-40569500D01*
X8860919Y-40569500D01*
X8826271Y-40555148D01*
X8710672Y-40439549D01*
X8696320Y-40404901D01*
X8696922Y-40397246D01*
X8715492Y-40280000D01*
X8695646Y-40154696D01*
X8695644Y-40154692D01*
X8695644Y-40154690D01*
X8638054Y-40041664D01*
X8638050Y-40041659D01*
X8638050Y-40041658D01*
X8548342Y-39951950D01*
X8548335Y-39951945D01*
X8435308Y-39894355D01*
X8435305Y-39894354D01*
X8435304Y-39894354D01*
X8310000Y-39874508D01*
X8184696Y-39894354D01*
X8184694Y-39894354D01*
X8184692Y-39894355D01*
X8184690Y-39894355D01*
X8071664Y-39951945D01*
X8071657Y-39951950D01*
X7981950Y-40041657D01*
X7981945Y-40041664D01*
X7924355Y-40154690D01*
X7924355Y-40154692D01*
X7924354Y-40154694D01*
X7924354Y-40154696D01*
X7904508Y-40280000D01*
X7924354Y-40405304D01*
X7924354Y-40405305D01*
X7924355Y-40405307D01*
X7924355Y-40405309D01*
X7981945Y-40518335D01*
X7981950Y-40518342D01*
X8071657Y-40608049D01*
X8071664Y-40608054D01*
X8184691Y-40665644D01*
X8184692Y-40665644D01*
X8184696Y-40665646D01*
X8310000Y-40685492D01*
X8427238Y-40666923D01*
X8463702Y-40675678D01*
X8469549Y-40680672D01*
X8504729Y-40715852D01*
X8519081Y-40750500D01*
X8504729Y-40785148D01*
X8470081Y-40799500D01*
X7040919Y-40799500D01*
X7006271Y-40785148D01*
X6660672Y-40439549D01*
X6646320Y-40404901D01*
X6646922Y-40397246D01*
X6665492Y-40280000D01*
X6645646Y-40154696D01*
X6645644Y-40154692D01*
X6645644Y-40154690D01*
X6588054Y-40041664D01*
X6588050Y-40041659D01*
X6588050Y-40041658D01*
X6498342Y-39951950D01*
X6498335Y-39951945D01*
X6385308Y-39894355D01*
X6385305Y-39894354D01*
X6385304Y-39894354D01*
X6260000Y-39874508D01*
X6134696Y-39894354D01*
X6134694Y-39894354D01*
X6134692Y-39894355D01*
X6134690Y-39894355D01*
X6021664Y-39951945D01*
X6021657Y-39951950D01*
X5931950Y-40041657D01*
X5931945Y-40041664D01*
X5874355Y-40154690D01*
X5874355Y-40154692D01*
X5874354Y-40154694D01*
X5874354Y-40154696D01*
X5854508Y-40280000D01*
X5874354Y-40405304D01*
X5874354Y-40405305D01*
X5874355Y-40405307D01*
X5874355Y-40405309D01*
X5931945Y-40518335D01*
X5931950Y-40518342D01*
X6021657Y-40608049D01*
X6021664Y-40608054D01*
X6134691Y-40665644D01*
X6134692Y-40665644D01*
X6134696Y-40665646D01*
X6260000Y-40685492D01*
X6377238Y-40666923D01*
X6413702Y-40675678D01*
X6419549Y-40680672D01*
X6684729Y-40945852D01*
X6699081Y-40980500D01*
X6684729Y-41015148D01*
X6650081Y-41029500D01*
X1920919Y-41029500D01*
X1886271Y-41015148D01*
X1477708Y-40606585D01*
X1463356Y-40571937D01*
X1477708Y-40537289D01*
X1512356Y-40522937D01*
X1535453Y-40528722D01*
X1690654Y-40611680D01*
X1871709Y-40666602D01*
X2060000Y-40685147D01*
X2248291Y-40666602D01*
X2429346Y-40611680D01*
X2596207Y-40522490D01*
X2742462Y-40402462D01*
X2862490Y-40256207D01*
X2951680Y-40089346D01*
X3001450Y-39925276D01*
X3025242Y-39896286D01*
X3048340Y-39890500D01*
X4153913Y-39890500D01*
X4153915Y-39890500D01*
X4216580Y-39864543D01*
X4216582Y-39864541D01*
X4216583Y-39864541D01*
X11684541Y-32396583D01*
X11684541Y-32396582D01*
X11684543Y-32396580D01*
X11710500Y-32333915D01*
X11710500Y-32266085D01*
X11710500Y-30730000D01*
X17154508Y-30730000D01*
X17174354Y-30855304D01*
X17174354Y-30855305D01*
X17174355Y-30855307D01*
X17174355Y-30855309D01*
X17231945Y-30968335D01*
X17231950Y-30968342D01*
X17321657Y-31058049D01*
X17321664Y-31058054D01*
X17434691Y-31115644D01*
X17434692Y-31115644D01*
X17434696Y-31115646D01*
X17560000Y-31135492D01*
X17685304Y-31115646D01*
X17685308Y-31115644D01*
X17685309Y-31115644D01*
X17798335Y-31058054D01*
X17798337Y-31058052D01*
X17798342Y-31058050D01*
X17888050Y-30968342D01*
X17900752Y-30943413D01*
X17945644Y-30855309D01*
X17945644Y-30855307D01*
X17945646Y-30855304D01*
X17965492Y-30730000D01*
X17945646Y-30604696D01*
X17945644Y-30604692D01*
X17945644Y-30604690D01*
X17888054Y-30491664D01*
X17888049Y-30491657D01*
X17798345Y-30401953D01*
X17798342Y-30401950D01*
X17757254Y-30381014D01*
X17732898Y-30352496D01*
X17730500Y-30337355D01*
X17730500Y-30270379D01*
X17744849Y-30235734D01*
X17785973Y-30194610D01*
X17820617Y-30180260D01*
X17855266Y-30194611D01*
X17869014Y-30221593D01*
X17874354Y-30255304D01*
X17874354Y-30255305D01*
X17874355Y-30255307D01*
X17874355Y-30255309D01*
X17931945Y-30368335D01*
X17931950Y-30368342D01*
X18021657Y-30458049D01*
X18021664Y-30458054D01*
X18134691Y-30515644D01*
X18134692Y-30515644D01*
X18134696Y-30515646D01*
X18260000Y-30535492D01*
X18385304Y-30515646D01*
X18385308Y-30515644D01*
X18385309Y-30515644D01*
X18498335Y-30458054D01*
X18498337Y-30458052D01*
X18498342Y-30458050D01*
X18588050Y-30368342D01*
X18588054Y-30368335D01*
X18645644Y-30255309D01*
X18645644Y-30255307D01*
X18645646Y-30255304D01*
X18665492Y-30130000D01*
X18646923Y-30012761D01*
X18655678Y-29976297D01*
X18660672Y-29970450D01*
X18787010Y-29844113D01*
X18787010Y-29844112D01*
X18787012Y-29844111D01*
X18812969Y-29781446D01*
X18812969Y-29713616D01*
X18812969Y-28380000D01*
X19304508Y-28380000D01*
X19324354Y-28505304D01*
X19324354Y-28505305D01*
X19324355Y-28505307D01*
X19324355Y-28505309D01*
X19381945Y-28618335D01*
X19381950Y-28618342D01*
X19471657Y-28708049D01*
X19471664Y-28708054D01*
X19584691Y-28765644D01*
X19584692Y-28765644D01*
X19584696Y-28765646D01*
X19710000Y-28785492D01*
X19835304Y-28765646D01*
X19835308Y-28765644D01*
X19835309Y-28765644D01*
X19948335Y-28708054D01*
X19948337Y-28708052D01*
X19948342Y-28708050D01*
X20038050Y-28618342D01*
X20042046Y-28610500D01*
X20095644Y-28505309D01*
X20095644Y-28505307D01*
X20095646Y-28505304D01*
X20115492Y-28380000D01*
X20095646Y-28254696D01*
X20095644Y-28254692D01*
X20095644Y-28254690D01*
X20038054Y-28141664D01*
X20038049Y-28141657D01*
X19945615Y-28049223D01*
X19947075Y-28047762D01*
X19931099Y-28021658D01*
X19930500Y-28014020D01*
X19930500Y-27472644D01*
X19944852Y-27437996D01*
X19957251Y-27428986D01*
X19998342Y-27408050D01*
X20088050Y-27318342D01*
X20108985Y-27277255D01*
X20145644Y-27205309D01*
X20145644Y-27205307D01*
X20145646Y-27205304D01*
X20165492Y-27080000D01*
X20145646Y-26954696D01*
X20145644Y-26954692D01*
X20145644Y-26954690D01*
X20088054Y-26841664D01*
X20088050Y-26841659D01*
X20088050Y-26841658D01*
X19998342Y-26751950D01*
X19998335Y-26751945D01*
X19885308Y-26694355D01*
X19885305Y-26694354D01*
X19885304Y-26694354D01*
X19760000Y-26674508D01*
X19634696Y-26694354D01*
X19634694Y-26694354D01*
X19634692Y-26694355D01*
X19634690Y-26694355D01*
X19521664Y-26751945D01*
X19521657Y-26751950D01*
X19431950Y-26841657D01*
X19431945Y-26841664D01*
X19374355Y-26954690D01*
X19374355Y-26954692D01*
X19374354Y-26954694D01*
X19374354Y-26954696D01*
X19354508Y-27080000D01*
X19374354Y-27205304D01*
X19374354Y-27205305D01*
X19374355Y-27205307D01*
X19374355Y-27205309D01*
X19431945Y-27318335D01*
X19431950Y-27318342D01*
X19521659Y-27408051D01*
X19536562Y-27415644D01*
X19562746Y-27428985D01*
X19587101Y-27457501D01*
X19589500Y-27472644D01*
X19589500Y-27961878D01*
X19575148Y-27996526D01*
X19562746Y-28005537D01*
X19471662Y-28051946D01*
X19471657Y-28051950D01*
X19381950Y-28141657D01*
X19381945Y-28141664D01*
X19324355Y-28254690D01*
X19324355Y-28254692D01*
X19324354Y-28254694D01*
X19324354Y-28254696D01*
X19304508Y-28380000D01*
X18812969Y-28380000D01*
X18812969Y-8040949D01*
X18827320Y-8006302D01*
X24160718Y-2672903D01*
X24195365Y-2658552D01*
X24224166Y-2667910D01*
X24231040Y-2672904D01*
X24244742Y-2682859D01*
X24419590Y-2760707D01*
X24606803Y-2800500D01*
X24798197Y-2800500D01*
X24985410Y-2760707D01*
X25160258Y-2682859D01*
X25315099Y-2570360D01*
X25443167Y-2428126D01*
X25538865Y-2262373D01*
X25598009Y-2080346D01*
X25618015Y-1890000D01*
X26326985Y-1890000D01*
X26346991Y-2080346D01*
X26406135Y-2262373D01*
X26501833Y-2428126D01*
X26549858Y-2481463D01*
X26604925Y-2542622D01*
X26629901Y-2570360D01*
X26784742Y-2682859D01*
X26959590Y-2760707D01*
X27146803Y-2800500D01*
X27338197Y-2800500D01*
X27525410Y-2760707D01*
X27700258Y-2682859D01*
X27855099Y-2570360D01*
X27983167Y-2428126D01*
X28078865Y-2262373D01*
X28138009Y-2080346D01*
X28158015Y-1890000D01*
X28138009Y-1699654D01*
X28078865Y-1517627D01*
X27983167Y-1351874D01*
X27855099Y-1209640D01*
X27700258Y-1097141D01*
X27525410Y-1019293D01*
X27525407Y-1019292D01*
X27525403Y-1019291D01*
X27338197Y-979500D01*
X27146803Y-979500D01*
X26959596Y-1019291D01*
X26959587Y-1019294D01*
X26784741Y-1097142D01*
X26629899Y-1209641D01*
X26629896Y-1209643D01*
X26501836Y-1351870D01*
X26501830Y-1351878D01*
X26406137Y-1517623D01*
X26406135Y-1517626D01*
X26406135Y-1517627D01*
X26346991Y-1699654D01*
X26326985Y-1890000D01*
X25618015Y-1890000D01*
X25598009Y-1699654D01*
X25538865Y-1517627D01*
X25443167Y-1351874D01*
X25315099Y-1209640D01*
X25160258Y-1097141D01*
X24985410Y-1019293D01*
X24985407Y-1019292D01*
X24985403Y-1019291D01*
X24798197Y-979500D01*
X24606803Y-979500D01*
X24419596Y-1019291D01*
X24419587Y-1019294D01*
X24244741Y-1097142D01*
X24089899Y-1209641D01*
X24089896Y-1209643D01*
X23961836Y-1351870D01*
X23961830Y-1351878D01*
X23866137Y-1517623D01*
X23866135Y-1517626D01*
X23866135Y-1517627D01*
X23806991Y-1699654D01*
X23786985Y-1890000D01*
X23801040Y-2023729D01*
X23806991Y-2080344D01*
X23806991Y-2080345D01*
X23866135Y-2262373D01*
X23866137Y-2262376D01*
X23928910Y-2371104D01*
X23933805Y-2408286D01*
X23921123Y-2430252D01*
X22416648Y-3934728D01*
X22382000Y-3949080D01*
X22347352Y-3934728D01*
X22333000Y-3900080D01*
X22333000Y-2824279D01*
X22347352Y-2789631D01*
X22371812Y-2776350D01*
X22445410Y-2760707D01*
X22620258Y-2682859D01*
X22775099Y-2570360D01*
X22903167Y-2428126D01*
X22998865Y-2262373D01*
X23058009Y-2080346D01*
X23078015Y-1890000D01*
X23058009Y-1699654D01*
X22998865Y-1517627D01*
X22903167Y-1351874D01*
X22775099Y-1209640D01*
X22620258Y-1097141D01*
X22445410Y-1019293D01*
X22445407Y-1019292D01*
X22445403Y-1019291D01*
X22258197Y-979500D01*
X22066803Y-979500D01*
X21879596Y-1019291D01*
X21879587Y-1019294D01*
X21704741Y-1097142D01*
X21549899Y-1209641D01*
X21549896Y-1209643D01*
X21421836Y-1351870D01*
X21421830Y-1351878D01*
X21326137Y-1517623D01*
X21326135Y-1517626D01*
X21326135Y-1517627D01*
X21266991Y-1699654D01*
X21246985Y-1890000D01*
X21266991Y-2080346D01*
X21326135Y-2262373D01*
X21421833Y-2428126D01*
X21469858Y-2481463D01*
X21524925Y-2542622D01*
X21549901Y-2570360D01*
X21704742Y-2682859D01*
X21879590Y-2760707D01*
X21953187Y-2776350D01*
X21984095Y-2797591D01*
X21992000Y-2824279D01*
X21992000Y-4013811D01*
X21977648Y-4048459D01*
X18315889Y-7710218D01*
X18291907Y-7734199D01*
X18267926Y-7758180D01*
X18241969Y-7820844D01*
X18241969Y-29236073D01*
X18227617Y-29270721D01*
X17463420Y-30034918D01*
X17440837Y-30057501D01*
X17415457Y-30082880D01*
X17389500Y-30145544D01*
X17389500Y-30337355D01*
X17375148Y-30372003D01*
X17362746Y-30381014D01*
X17321661Y-30401948D01*
X17321654Y-30401953D01*
X17231950Y-30491657D01*
X17231945Y-30491664D01*
X17174355Y-30604690D01*
X17174355Y-30604692D01*
X17174354Y-30604694D01*
X17174354Y-30604696D01*
X17154508Y-30730000D01*
X11710500Y-30730000D01*
X11710500Y-30280000D01*
X12254508Y-30280000D01*
X12274354Y-30405304D01*
X12274354Y-30405305D01*
X12274355Y-30405307D01*
X12274355Y-30405309D01*
X12331945Y-30518335D01*
X12331950Y-30518342D01*
X12421657Y-30608049D01*
X12421664Y-30608054D01*
X12534691Y-30665644D01*
X12534692Y-30665644D01*
X12534696Y-30665646D01*
X12660000Y-30685492D01*
X12785304Y-30665646D01*
X12785308Y-30665644D01*
X12785309Y-30665644D01*
X12898335Y-30608054D01*
X12898337Y-30608052D01*
X12898342Y-30608050D01*
X12988050Y-30518342D01*
X12989425Y-30515644D01*
X13045644Y-30405309D01*
X13045644Y-30405307D01*
X13045646Y-30405304D01*
X13065492Y-30280000D01*
X13046923Y-30162760D01*
X13055678Y-30126296D01*
X13060666Y-30120456D01*
X13916271Y-29264852D01*
X13950919Y-29250500D01*
X14017356Y-29250500D01*
X14052004Y-29264852D01*
X14061013Y-29277251D01*
X14063765Y-29282651D01*
X14081948Y-29318340D01*
X14171657Y-29408049D01*
X14171664Y-29408054D01*
X14284691Y-29465644D01*
X14284692Y-29465644D01*
X14284696Y-29465646D01*
X14410000Y-29485492D01*
X14535304Y-29465646D01*
X14535308Y-29465644D01*
X14535309Y-29465644D01*
X14648335Y-29408054D01*
X14648337Y-29408052D01*
X14648342Y-29408050D01*
X14738050Y-29318342D01*
X14738054Y-29318335D01*
X14795644Y-29205309D01*
X14795644Y-29205307D01*
X14795646Y-29205304D01*
X14815492Y-29080000D01*
X14795646Y-28954696D01*
X14795644Y-28954692D01*
X14795644Y-28954690D01*
X14738054Y-28841664D01*
X14738050Y-28841659D01*
X14738050Y-28841658D01*
X14648342Y-28751950D01*
X14648335Y-28751945D01*
X14535308Y-28694355D01*
X14535305Y-28694354D01*
X14535304Y-28694354D01*
X14410000Y-28674508D01*
X14284696Y-28694354D01*
X14284694Y-28694354D01*
X14284692Y-28694355D01*
X14284690Y-28694355D01*
X14171664Y-28751945D01*
X14171657Y-28751950D01*
X14081948Y-28841659D01*
X14067932Y-28869168D01*
X14061014Y-28882746D01*
X14032499Y-28907101D01*
X14017356Y-28909500D01*
X13826083Y-28909500D01*
X13763418Y-28935458D01*
X13763416Y-28935459D01*
X12819548Y-29879327D01*
X12784900Y-29893679D01*
X12777235Y-29893076D01*
X12660000Y-29874508D01*
X12534696Y-29894354D01*
X12534694Y-29894354D01*
X12534692Y-29894355D01*
X12534690Y-29894355D01*
X12421664Y-29951945D01*
X12421657Y-29951950D01*
X12331950Y-30041657D01*
X12331945Y-30041664D01*
X12274355Y-30154690D01*
X12274355Y-30154692D01*
X12274354Y-30154694D01*
X12274354Y-30154696D01*
X12254508Y-30280000D01*
X11710500Y-30280000D01*
X11710500Y-30191457D01*
X11724851Y-30156810D01*
X11797498Y-30084162D01*
X11832145Y-30069811D01*
X11839802Y-30070413D01*
X11935003Y-30085492D01*
X12060307Y-30065646D01*
X12060311Y-30065644D01*
X12060312Y-30065644D01*
X12173338Y-30008054D01*
X12173340Y-30008052D01*
X12173345Y-30008050D01*
X12263053Y-29918342D01*
X12269776Y-29905148D01*
X12320647Y-29805309D01*
X12320647Y-29805307D01*
X12320649Y-29805304D01*
X12340495Y-29680000D01*
X12320649Y-29554696D01*
X12320647Y-29554692D01*
X12320647Y-29554690D01*
X12263057Y-29441664D01*
X12263052Y-29441657D01*
X12173345Y-29351950D01*
X12173338Y-29351945D01*
X12060311Y-29294355D01*
X12060308Y-29294354D01*
X12060307Y-29294354D01*
X11935003Y-29274508D01*
X11809699Y-29294354D01*
X11809697Y-29294354D01*
X11809695Y-29294355D01*
X11809693Y-29294355D01*
X11696667Y-29351945D01*
X11696663Y-29351948D01*
X11696661Y-29351950D01*
X11657148Y-29391462D01*
X11622500Y-29405813D01*
X11587853Y-29391461D01*
X11548342Y-29351950D01*
X11548335Y-29351945D01*
X11435308Y-29294355D01*
X11435305Y-29294354D01*
X11435304Y-29294354D01*
X11310000Y-29274508D01*
X11184696Y-29294354D01*
X11184694Y-29294354D01*
X11184692Y-29294355D01*
X11184690Y-29294355D01*
X11071664Y-29351945D01*
X11071657Y-29351950D01*
X10981950Y-29441657D01*
X10981945Y-29441664D01*
X10924355Y-29554690D01*
X10924355Y-29554692D01*
X10924354Y-29554694D01*
X10924354Y-29554696D01*
X10904508Y-29680000D01*
X10924354Y-29805304D01*
X10924354Y-29805305D01*
X10924355Y-29805307D01*
X10924355Y-29805309D01*
X10981945Y-29918335D01*
X10981950Y-29918342D01*
X11071659Y-30008051D01*
X11088095Y-30016425D01*
X11112746Y-30028985D01*
X11137101Y-30057501D01*
X11139500Y-30072644D01*
X11139500Y-32113810D01*
X11125148Y-32148458D01*
X4928459Y-38345148D01*
X4893811Y-38359500D01*
X3500919Y-38359500D01*
X3466271Y-38345148D01*
X3034852Y-37913729D01*
X3020500Y-37879081D01*
X3020500Y-36319119D01*
X3020500Y-36319116D01*
X3014089Y-36286885D01*
X2993090Y-36255458D01*
X2989666Y-36250333D01*
X2953115Y-36225911D01*
X2946227Y-36224541D01*
X2920884Y-36219500D01*
X1199116Y-36219500D01*
X1174942Y-36224308D01*
X1166884Y-36225911D01*
X1130333Y-36250333D01*
X1105911Y-36286884D01*
X1105911Y-36286885D01*
X1099500Y-36319116D01*
X1099500Y-38040884D01*
X1105911Y-38073115D01*
X1130333Y-38109666D01*
X1154756Y-38125984D01*
X1166885Y-38134089D01*
X1199116Y-38140500D01*
X2759081Y-38140500D01*
X2793729Y-38154852D01*
X3265457Y-38626580D01*
X3313420Y-38674543D01*
X3376085Y-38700500D01*
X4780081Y-38700500D01*
X4814729Y-38714852D01*
X4829081Y-38749500D01*
X4814729Y-38784148D01*
X4063729Y-39535148D01*
X4029081Y-39549500D01*
X3048340Y-39549500D01*
X3013692Y-39535148D01*
X3001450Y-39514724D01*
X2990631Y-39479059D01*
X2951680Y-39350654D01*
X2862490Y-39183793D01*
X2742462Y-39037538D01*
X2596207Y-38917510D01*
X2429346Y-38828320D01*
X2248291Y-38773398D01*
X2060000Y-38754853D01*
X1871708Y-38773398D01*
X1871707Y-38773398D01*
X1690651Y-38828321D01*
X1523793Y-38917510D01*
X1377538Y-39037538D01*
X1257510Y-39183793D01*
X1168321Y-39350651D01*
X1113398Y-39531707D01*
X1113398Y-39531708D01*
X1096456Y-39703729D01*
X1094853Y-39720000D01*
X1113398Y-39908291D01*
X1168320Y-40089346D01*
X1243580Y-40230147D01*
X1251276Y-40244544D01*
X1254952Y-40281867D01*
X1231161Y-40310857D01*
X1193838Y-40314533D01*
X1173414Y-40302291D01*
X899852Y-40028729D01*
X885500Y-39994081D01*
X885500Y-34286132D01*
X899852Y-34251484D01*
X934500Y-34237132D01*
X969148Y-34251484D01*
X1604918Y-34887256D01*
X1604920Y-34887257D01*
X1604922Y-34887259D01*
X1604924Y-34887259D01*
X1604926Y-34887261D01*
X1614906Y-34891394D01*
X1624887Y-34895528D01*
X1624890Y-34895531D01*
X1624891Y-34895530D01*
X1673102Y-34915500D01*
X2612868Y-34915500D01*
X2647516Y-34929852D01*
X3890699Y-36173035D01*
X3905051Y-36207683D01*
X3899710Y-36229928D01*
X3874355Y-36279690D01*
X3874354Y-36279691D01*
X3874354Y-36279693D01*
X3854508Y-36404997D01*
X3874354Y-36530301D01*
X3874354Y-36530302D01*
X3874355Y-36530304D01*
X3874355Y-36530306D01*
X3931945Y-36643332D01*
X3931950Y-36643339D01*
X3971461Y-36682850D01*
X3985813Y-36717498D01*
X3971462Y-36752145D01*
X3949067Y-36774541D01*
X3931948Y-36791660D01*
X3931945Y-36791664D01*
X3874355Y-36904690D01*
X3874355Y-36904692D01*
X3874354Y-36904694D01*
X3874354Y-36904696D01*
X3854508Y-37030000D01*
X3874354Y-37155304D01*
X3874354Y-37155305D01*
X3874355Y-37155307D01*
X3874355Y-37155309D01*
X3931945Y-37268335D01*
X3931950Y-37268342D01*
X4021657Y-37358049D01*
X4021664Y-37358054D01*
X4134691Y-37415644D01*
X4134692Y-37415644D01*
X4134696Y-37415646D01*
X4260000Y-37435492D01*
X4385304Y-37415646D01*
X4385308Y-37415644D01*
X4385309Y-37415644D01*
X4498335Y-37358054D01*
X4498337Y-37358052D01*
X4498342Y-37358050D01*
X4588050Y-37268342D01*
X4588054Y-37268335D01*
X4645644Y-37155309D01*
X4645644Y-37155307D01*
X4645646Y-37155304D01*
X4665492Y-37030000D01*
X4645646Y-36904696D01*
X4645644Y-36904692D01*
X4645644Y-36904690D01*
X4588054Y-36791664D01*
X4588049Y-36791657D01*
X4548538Y-36752146D01*
X4534186Y-36717498D01*
X4548538Y-36682850D01*
X4548539Y-36682849D01*
X4588046Y-36643343D01*
X4588046Y-36643342D01*
X4588050Y-36643339D01*
X4645646Y-36530301D01*
X4665492Y-36404997D01*
X4645646Y-36279693D01*
X4645644Y-36279689D01*
X4645644Y-36279687D01*
X4588054Y-36166661D01*
X4588049Y-36166654D01*
X4498342Y-36076947D01*
X4498335Y-36076942D01*
X4385308Y-36019352D01*
X4385305Y-36019351D01*
X4385304Y-36019351D01*
X4260000Y-35999505D01*
X4259999Y-35999505D01*
X4256192Y-35998902D01*
X4256468Y-35997156D01*
X4227489Y-35985153D01*
X2815079Y-34572742D01*
X2746899Y-34544500D01*
X2746898Y-34544500D01*
X1807133Y-34544500D01*
X1772485Y-34530148D01*
X1630698Y-34388361D01*
X1616346Y-34353713D01*
X1630698Y-34319065D01*
X1665346Y-34304713D01*
X1688448Y-34310501D01*
X1690654Y-34311680D01*
X1871709Y-34366602D01*
X2060000Y-34385147D01*
X2248291Y-34366602D01*
X2429346Y-34311680D01*
X2585487Y-34228219D01*
X2622807Y-34224544D01*
X2627316Y-34226157D01*
X2686085Y-34250500D01*
X7057986Y-34250500D01*
X7092634Y-34264852D01*
X7106382Y-34291833D01*
X7124354Y-34405304D01*
X7124354Y-34405305D01*
X7124355Y-34405307D01*
X7124355Y-34405309D01*
X7181945Y-34518335D01*
X7181950Y-34518342D01*
X7271657Y-34608049D01*
X7271664Y-34608054D01*
X7384691Y-34665644D01*
X7384692Y-34665644D01*
X7384696Y-34665646D01*
X7510000Y-34685492D01*
X7635304Y-34665646D01*
X7635308Y-34665644D01*
X7635309Y-34665644D01*
X7748335Y-34608054D01*
X7748337Y-34608052D01*
X7748342Y-34608050D01*
X7838050Y-34518342D01*
X7853347Y-34488321D01*
X7895644Y-34405309D01*
X7895644Y-34405307D01*
X7895646Y-34405304D01*
X7915492Y-34280000D01*
X7895646Y-34154696D01*
X7895644Y-34154692D01*
X7895644Y-34154690D01*
X7838054Y-34041664D01*
X7838049Y-34041657D01*
X7761040Y-33964648D01*
X7746688Y-33930000D01*
X7761040Y-33895352D01*
X7795892Y-33860500D01*
X7838050Y-33818342D01*
X7838054Y-33818335D01*
X7895644Y-33705309D01*
X7895644Y-33705307D01*
X7895646Y-33705304D01*
X7915492Y-33580000D01*
X7895646Y-33454696D01*
X7895644Y-33454692D01*
X7895644Y-33454690D01*
X7838054Y-33341664D01*
X7838049Y-33341657D01*
X7748342Y-33251950D01*
X7748335Y-33251945D01*
X7635308Y-33194355D01*
X7635305Y-33194354D01*
X7635304Y-33194354D01*
X7510000Y-33174508D01*
X7384696Y-33194354D01*
X7384694Y-33194354D01*
X7384692Y-33194355D01*
X7384690Y-33194355D01*
X7271664Y-33251945D01*
X7271657Y-33251950D01*
X7181950Y-33341657D01*
X7181945Y-33341664D01*
X7124355Y-33454690D01*
X7124355Y-33454692D01*
X7104508Y-33580000D01*
X7111292Y-33622835D01*
X7102536Y-33659302D01*
X7070560Y-33678897D01*
X7062895Y-33679500D01*
X5120919Y-33679500D01*
X5086271Y-33665148D01*
X3034852Y-31613729D01*
X3020500Y-31579081D01*
X3020500Y-30019119D01*
X3020500Y-30019116D01*
X3014089Y-29986885D01*
X2990746Y-29951950D01*
X2989666Y-29950333D01*
X2953115Y-29925911D01*
X2920884Y-29919500D01*
X2920881Y-29919500D01*
X1331133Y-29919500D01*
X1296485Y-29905148D01*
X1282133Y-29870500D01*
X1296485Y-29835852D01*
X1352485Y-29779852D01*
X1387133Y-29765500D01*
X5212868Y-29765500D01*
X5247516Y-29779852D01*
X5497419Y-30029757D01*
X5497420Y-30029757D01*
X5497422Y-30029759D01*
X5515529Y-30037259D01*
X5565602Y-30058000D01*
X6632499Y-30058000D01*
X6667147Y-30072352D01*
X6676156Y-30084751D01*
X6689450Y-30110842D01*
X6689451Y-30110843D01*
X6779157Y-30200549D01*
X6779164Y-30200554D01*
X6848204Y-30235731D01*
X6892196Y-30258146D01*
X6914727Y-30261714D01*
X6946702Y-30281308D01*
X6956061Y-30310110D01*
X6956061Y-31679515D01*
X6941709Y-31714163D01*
X6929313Y-31723171D01*
X6928222Y-31723727D01*
X6928214Y-31723732D01*
X6838512Y-31813435D01*
X6838506Y-31813443D01*
X6780916Y-31926469D01*
X6780916Y-31926471D01*
X6780915Y-31926473D01*
X6780915Y-31926475D01*
X6761069Y-32051779D01*
X6780915Y-32177083D01*
X6780915Y-32177084D01*
X6780916Y-32177086D01*
X6780916Y-32177088D01*
X6838506Y-32290114D01*
X6838511Y-32290121D01*
X6928218Y-32379828D01*
X6928225Y-32379833D01*
X7041252Y-32437423D01*
X7041253Y-32437423D01*
X7041257Y-32437425D01*
X7166561Y-32457271D01*
X7291865Y-32437425D01*
X7291869Y-32437423D01*
X7291870Y-32437423D01*
X7404896Y-32379833D01*
X7404898Y-32379831D01*
X7404903Y-32379829D01*
X7494611Y-32290121D01*
X7512350Y-32255307D01*
X7552205Y-32177088D01*
X7552205Y-32177086D01*
X7552207Y-32177083D01*
X7572053Y-32051779D01*
X7552207Y-31926475D01*
X7552205Y-31926471D01*
X7552205Y-31926469D01*
X7494615Y-31813443D01*
X7494609Y-31813435D01*
X7404907Y-31723732D01*
X7404904Y-31723730D01*
X7404903Y-31723729D01*
X7404827Y-31723690D01*
X7403809Y-31723171D01*
X7403277Y-31722548D01*
X7401786Y-31721465D01*
X7402046Y-31721106D01*
X7379457Y-31694649D01*
X7377061Y-31679515D01*
X7377061Y-31416586D01*
X7391413Y-31381938D01*
X7426061Y-31367586D01*
X7460709Y-31381938D01*
X7469721Y-31394341D01*
X7481948Y-31418339D01*
X7481950Y-31418342D01*
X7571657Y-31508049D01*
X7571664Y-31508054D01*
X7684691Y-31565644D01*
X7684692Y-31565644D01*
X7684696Y-31565646D01*
X7810000Y-31585492D01*
X7935304Y-31565646D01*
X7935308Y-31565644D01*
X7935309Y-31565644D01*
X8048335Y-31508054D01*
X8048336Y-31508052D01*
X8048342Y-31508050D01*
X8048345Y-31508046D01*
X8051457Y-31505786D01*
X8052815Y-31507655D01*
X8080500Y-31496188D01*
X8115148Y-31510540D01*
X8129500Y-31545188D01*
X8129500Y-32195407D01*
X8115148Y-32230055D01*
X8088173Y-32243803D01*
X8084693Y-32244354D01*
X7971664Y-32301945D01*
X7971657Y-32301950D01*
X7881950Y-32391657D01*
X7881945Y-32391664D01*
X7824355Y-32504690D01*
X7824355Y-32504692D01*
X7824354Y-32504694D01*
X7824354Y-32504696D01*
X7804508Y-32630000D01*
X7824354Y-32755304D01*
X7824354Y-32755305D01*
X7824355Y-32755307D01*
X7824355Y-32755309D01*
X7881945Y-32868335D01*
X7881950Y-32868342D01*
X7971657Y-32958049D01*
X7971664Y-32958054D01*
X8084691Y-33015644D01*
X8084692Y-33015644D01*
X8084696Y-33015646D01*
X8210000Y-33035492D01*
X8254647Y-33028420D01*
X8291113Y-33037175D01*
X8310708Y-33069150D01*
X8324354Y-33155304D01*
X8324354Y-33155305D01*
X8324355Y-33155307D01*
X8324355Y-33155309D01*
X8381945Y-33268335D01*
X8381950Y-33268342D01*
X8471657Y-33358049D01*
X8471664Y-33358054D01*
X8584691Y-33415644D01*
X8584692Y-33415644D01*
X8584696Y-33415646D01*
X8710000Y-33435492D01*
X8835304Y-33415646D01*
X8835308Y-33415644D01*
X8835309Y-33415644D01*
X8948335Y-33358054D01*
X8948337Y-33358052D01*
X8948342Y-33358050D01*
X9038050Y-33268342D01*
X9038054Y-33268335D01*
X9095644Y-33155309D01*
X9095644Y-33155307D01*
X9095646Y-33155304D01*
X9115492Y-33030000D01*
X9095646Y-32904696D01*
X9095644Y-32904692D01*
X9095644Y-32904690D01*
X9038054Y-32791664D01*
X9038049Y-32791657D01*
X8948345Y-32701953D01*
X8948342Y-32701950D01*
X8948340Y-32701949D01*
X8948339Y-32701948D01*
X8867254Y-32660633D01*
X8842898Y-32632115D01*
X8840500Y-32616974D01*
X8840500Y-32405548D01*
X8840499Y-32405544D01*
X8836787Y-32396583D01*
X8814543Y-32342881D01*
X8766580Y-32294918D01*
X8714852Y-32243190D01*
X8700500Y-32208542D01*
X8700500Y-29465009D01*
X8700499Y-29465005D01*
X8690828Y-29441657D01*
X8674543Y-29402342D01*
X8626580Y-29354379D01*
X8554852Y-29282651D01*
X8540500Y-29248003D01*
X8540500Y-20076918D01*
X8554852Y-20042270D01*
X8589500Y-20027918D01*
X8624148Y-20042270D01*
X8631933Y-20052415D01*
X8721833Y-20208126D01*
X8733876Y-20221501D01*
X8842662Y-20342321D01*
X8849901Y-20350360D01*
X9004742Y-20462859D01*
X9179590Y-20540707D01*
X9366803Y-20580500D01*
X9558197Y-20580500D01*
X9745410Y-20540707D01*
X9920258Y-20462859D01*
X10075099Y-20350360D01*
X10176586Y-20237646D01*
X10210435Y-20221501D01*
X10245787Y-20234020D01*
X10261933Y-20267869D01*
X10262000Y-20270434D01*
X10262000Y-22766580D01*
X10247647Y-22801228D01*
X8863420Y-24185457D01*
X8839438Y-24209438D01*
X8815457Y-24233419D01*
X8789500Y-24296083D01*
X8789500Y-24296085D01*
X8789500Y-29096085D01*
X8789500Y-29163915D01*
X8815457Y-29226580D01*
X8815458Y-29226581D01*
X8815458Y-29226582D01*
X9375148Y-29786271D01*
X9389500Y-29820919D01*
X9389500Y-33189081D01*
X9375148Y-33223729D01*
X6703729Y-35895148D01*
X6669081Y-35909500D01*
X5702644Y-35909500D01*
X5667996Y-35895148D01*
X5658986Y-35882748D01*
X5646425Y-35858095D01*
X5638051Y-35841659D01*
X5548342Y-35751950D01*
X5548335Y-35751945D01*
X5435308Y-35694355D01*
X5435305Y-35694354D01*
X5435304Y-35694354D01*
X5310000Y-35674508D01*
X5184696Y-35694354D01*
X5184694Y-35694354D01*
X5184692Y-35694355D01*
X5184690Y-35694355D01*
X5071664Y-35751945D01*
X5071657Y-35751950D01*
X4981950Y-35841657D01*
X4981945Y-35841664D01*
X4924355Y-35954690D01*
X4924355Y-35954692D01*
X4924354Y-35954694D01*
X4924354Y-35954696D01*
X4904508Y-36080000D01*
X4924354Y-36205304D01*
X4924354Y-36205305D01*
X4924355Y-36205307D01*
X4924355Y-36205309D01*
X4981945Y-36318335D01*
X4981950Y-36318342D01*
X5071657Y-36408049D01*
X5071664Y-36408054D01*
X5184691Y-36465644D01*
X5184692Y-36465644D01*
X5184696Y-36465646D01*
X5310000Y-36485492D01*
X5435304Y-36465646D01*
X5435308Y-36465644D01*
X5435309Y-36465644D01*
X5548335Y-36408054D01*
X5548337Y-36408052D01*
X5548342Y-36408050D01*
X5638050Y-36318342D01*
X5658985Y-36277253D01*
X5687501Y-36252899D01*
X5702644Y-36250500D01*
X6793913Y-36250500D01*
X6793915Y-36250500D01*
X6856580Y-36224543D01*
X6856582Y-36224541D01*
X6856583Y-36224541D01*
X9704541Y-33376583D01*
X9704541Y-33376582D01*
X9704543Y-33376580D01*
X9730500Y-33313915D01*
X9730500Y-33246085D01*
X9730500Y-29696085D01*
X9704543Y-29633420D01*
X9656580Y-29585457D01*
X9144852Y-29073729D01*
X9130500Y-29039081D01*
X9130500Y-27330000D01*
X9254508Y-27330000D01*
X9274354Y-27455304D01*
X9274354Y-27455305D01*
X9274355Y-27455307D01*
X9274355Y-27455309D01*
X9331945Y-27568335D01*
X9331950Y-27568342D01*
X9421657Y-27658049D01*
X9421664Y-27658054D01*
X9495041Y-27695441D01*
X9534696Y-27715646D01*
X9534694Y-27715646D01*
X9562844Y-27720104D01*
X9594821Y-27739699D01*
X9603577Y-27776165D01*
X9603577Y-27776166D01*
X9591043Y-27855307D01*
X9589508Y-27865000D01*
X9609354Y-27990304D01*
X9609354Y-27990305D01*
X9609355Y-27990307D01*
X9609355Y-27990309D01*
X9666945Y-28103335D01*
X9666950Y-28103342D01*
X9756657Y-28193049D01*
X9756664Y-28193054D01*
X9869691Y-28250644D01*
X9869692Y-28250644D01*
X9869696Y-28250646D01*
X9995000Y-28270492D01*
X10120304Y-28250646D01*
X10120308Y-28250644D01*
X10120309Y-28250644D01*
X10233335Y-28193054D01*
X10233337Y-28193052D01*
X10233342Y-28193050D01*
X10311540Y-28114852D01*
X10346188Y-28100500D01*
X15293207Y-28100500D01*
X15315452Y-28105840D01*
X15334696Y-28115646D01*
X15460000Y-28135492D01*
X15585304Y-28115646D01*
X15585308Y-28115644D01*
X15585309Y-28115644D01*
X15698335Y-28058054D01*
X15698337Y-28058052D01*
X15698342Y-28058050D01*
X15788050Y-27968342D01*
X15840706Y-27865000D01*
X15845644Y-27855309D01*
X15845644Y-27855307D01*
X15845646Y-27855304D01*
X15865492Y-27730000D01*
X15845646Y-27604696D01*
X15845644Y-27604692D01*
X15845644Y-27604690D01*
X15788054Y-27491664D01*
X15788049Y-27491657D01*
X15698342Y-27401950D01*
X15698335Y-27401945D01*
X15585308Y-27344355D01*
X15585305Y-27344354D01*
X15585304Y-27344354D01*
X15511833Y-27332717D01*
X15479858Y-27313122D01*
X15470500Y-27284321D01*
X15470500Y-22786087D01*
X15470499Y-22786083D01*
X15463151Y-22768343D01*
X15444543Y-22723420D01*
X15396580Y-22675457D01*
X13157352Y-20436229D01*
X13143000Y-20401581D01*
X13143000Y-19670000D01*
X13626985Y-19670000D01*
X13646991Y-19860346D01*
X13706135Y-20042373D01*
X13801833Y-20208126D01*
X13813876Y-20221501D01*
X13922662Y-20342321D01*
X13929901Y-20350360D01*
X14084742Y-20462859D01*
X14259590Y-20540707D01*
X14446803Y-20580500D01*
X14638197Y-20580500D01*
X14825410Y-20540707D01*
X15000258Y-20462859D01*
X15155099Y-20350360D01*
X15283167Y-20208126D01*
X15378865Y-20042373D01*
X15438009Y-19860346D01*
X15458015Y-19670000D01*
X16166985Y-19670000D01*
X16186991Y-19860346D01*
X16246135Y-20042373D01*
X16341833Y-20208126D01*
X16353876Y-20221501D01*
X16462662Y-20342321D01*
X16469901Y-20350360D01*
X16624742Y-20462859D01*
X16799590Y-20540707D01*
X16986803Y-20580500D01*
X17178197Y-20580500D01*
X17365410Y-20540707D01*
X17540258Y-20462859D01*
X17695099Y-20350360D01*
X17823167Y-20208126D01*
X17918865Y-20042373D01*
X17978009Y-19860346D01*
X17998015Y-19670000D01*
X17978009Y-19479654D01*
X17918865Y-19297627D01*
X17823167Y-19131874D01*
X17725717Y-19023645D01*
X17695103Y-18989644D01*
X17695101Y-18989643D01*
X17695099Y-18989640D01*
X17540258Y-18877141D01*
X17365410Y-18799293D01*
X17365407Y-18799292D01*
X17365403Y-18799291D01*
X17178197Y-18759500D01*
X16986803Y-18759500D01*
X16799596Y-18799291D01*
X16799587Y-18799294D01*
X16624741Y-18877142D01*
X16469899Y-18989641D01*
X16469896Y-18989643D01*
X16341836Y-19131870D01*
X16341830Y-19131878D01*
X16246137Y-19297623D01*
X16246135Y-19297626D01*
X16241981Y-19310411D01*
X16186991Y-19479654D01*
X16166985Y-19670000D01*
X15458015Y-19670000D01*
X15438009Y-19479654D01*
X15378865Y-19297627D01*
X15283167Y-19131874D01*
X15185717Y-19023645D01*
X15155103Y-18989644D01*
X15155101Y-18989643D01*
X15155099Y-18989640D01*
X15000258Y-18877141D01*
X14825410Y-18799293D01*
X14825407Y-18799292D01*
X14825403Y-18799291D01*
X14638197Y-18759500D01*
X14446803Y-18759500D01*
X14259596Y-18799291D01*
X14259587Y-18799294D01*
X14084741Y-18877142D01*
X13929899Y-18989641D01*
X13929896Y-18989643D01*
X13801836Y-19131870D01*
X13801830Y-19131878D01*
X13706137Y-19297623D01*
X13706135Y-19297626D01*
X13701981Y-19310411D01*
X13646991Y-19479654D01*
X13626985Y-19670000D01*
X13143000Y-19670000D01*
X13143000Y-2826087D01*
X13142999Y-2826083D01*
X13125816Y-2784600D01*
X13117043Y-2763420D01*
X13069080Y-2715457D01*
X12783875Y-2430252D01*
X12769523Y-2395604D01*
X12776087Y-2371106D01*
X12838865Y-2262373D01*
X12898009Y-2080346D01*
X12918015Y-1890000D01*
X13626985Y-1890000D01*
X13646991Y-2080346D01*
X13706135Y-2262373D01*
X13801833Y-2428126D01*
X13849858Y-2481463D01*
X13904925Y-2542622D01*
X13929901Y-2570360D01*
X14084742Y-2682859D01*
X14259590Y-2760707D01*
X14446803Y-2800500D01*
X14638197Y-2800500D01*
X14825410Y-2760707D01*
X15000258Y-2682859D01*
X15155099Y-2570360D01*
X15283167Y-2428126D01*
X15378865Y-2262373D01*
X15438009Y-2080346D01*
X15458015Y-1890000D01*
X15438009Y-1699654D01*
X15378865Y-1517627D01*
X15283167Y-1351874D01*
X15155099Y-1209640D01*
X15000258Y-1097141D01*
X14825410Y-1019293D01*
X14825407Y-1019292D01*
X14825403Y-1019291D01*
X14638197Y-979500D01*
X14446803Y-979500D01*
X14259596Y-1019291D01*
X14259587Y-1019294D01*
X14084741Y-1097142D01*
X13929899Y-1209641D01*
X13929896Y-1209643D01*
X13801836Y-1351870D01*
X13801830Y-1351878D01*
X13706137Y-1517623D01*
X13706135Y-1517626D01*
X13706135Y-1517627D01*
X13646991Y-1699654D01*
X13626985Y-1890000D01*
X12918015Y-1890000D01*
X12898009Y-1699654D01*
X12838865Y-1517627D01*
X12743167Y-1351874D01*
X12615099Y-1209640D01*
X12460258Y-1097141D01*
X12285410Y-1019293D01*
X12285407Y-1019292D01*
X12285403Y-1019291D01*
X12098197Y-979500D01*
X11906803Y-979500D01*
X11719596Y-1019291D01*
X11719587Y-1019294D01*
X11544741Y-1097142D01*
X11389899Y-1209641D01*
X11389896Y-1209643D01*
X11261836Y-1351870D01*
X11261830Y-1351878D01*
X11166137Y-1517623D01*
X11166135Y-1517626D01*
X11166135Y-1517627D01*
X11106991Y-1699654D01*
X11086985Y-1890000D01*
X11106991Y-2080346D01*
X11166135Y-2262373D01*
X11261833Y-2428126D01*
X11309858Y-2481463D01*
X11364925Y-2542622D01*
X11389901Y-2570360D01*
X11544742Y-2682859D01*
X11719590Y-2760707D01*
X11906803Y-2800500D01*
X12098197Y-2800500D01*
X12285410Y-2760707D01*
X12460258Y-2682859D01*
X12480832Y-2667910D01*
X12517297Y-2659155D01*
X12544281Y-2672904D01*
X12787648Y-2916271D01*
X12802000Y-2950919D01*
X12802000Y-19069565D01*
X12787648Y-19104213D01*
X12753000Y-19118565D01*
X12718352Y-19104213D01*
X12716586Y-19102352D01*
X12615104Y-18989644D01*
X12615099Y-18989641D01*
X12615099Y-18989640D01*
X12460258Y-18877141D01*
X12285410Y-18799293D01*
X12285407Y-18799292D01*
X12285403Y-18799291D01*
X12098197Y-18759500D01*
X11906803Y-18759500D01*
X11719596Y-18799291D01*
X11719587Y-18799294D01*
X11544741Y-18877142D01*
X11389899Y-18989641D01*
X11389896Y-18989643D01*
X11261836Y-19131870D01*
X11261830Y-19131878D01*
X11166137Y-19297623D01*
X11166135Y-19297626D01*
X11161981Y-19310411D01*
X11106991Y-19479654D01*
X11086985Y-19670000D01*
X11106991Y-19860346D01*
X11166135Y-20042373D01*
X11261833Y-20208126D01*
X11273876Y-20221501D01*
X11382662Y-20342321D01*
X11389901Y-20350360D01*
X11544742Y-20462859D01*
X11719590Y-20540707D01*
X11906803Y-20580500D01*
X12098197Y-20580500D01*
X12285410Y-20540707D01*
X12460258Y-20462859D01*
X12615099Y-20350360D01*
X12716586Y-20237646D01*
X12750435Y-20221501D01*
X12785787Y-20234020D01*
X12801933Y-20267869D01*
X12802000Y-20270434D01*
X12802000Y-20526416D01*
X12803733Y-20530599D01*
X12827957Y-20589080D01*
X12827958Y-20589081D01*
X12827958Y-20589082D01*
X15115148Y-22876271D01*
X15129500Y-22910919D01*
X15129500Y-27484702D01*
X15124159Y-27506947D01*
X15074355Y-27604693D01*
X15074354Y-27604694D01*
X15074354Y-27604696D01*
X15056382Y-27718166D01*
X15036787Y-27750142D01*
X15007986Y-27759500D01*
X10420764Y-27759500D01*
X10386116Y-27745148D01*
X10377105Y-27732745D01*
X10323054Y-27626664D01*
X10323049Y-27626657D01*
X10233342Y-27536950D01*
X10233335Y-27536945D01*
X10120309Y-27479355D01*
X10120302Y-27479353D01*
X10092151Y-27474894D01*
X10060175Y-27455298D01*
X10051421Y-27418835D01*
X10065492Y-27330000D01*
X10045646Y-27204696D01*
X10045644Y-27204692D01*
X10045644Y-27204690D01*
X9988054Y-27091664D01*
X9988049Y-27091657D01*
X9898345Y-27001953D01*
X9898342Y-27001950D01*
X9857254Y-26981014D01*
X9832898Y-26952496D01*
X9830500Y-26937355D01*
X9830500Y-25220918D01*
X9844851Y-25186271D01*
X12800450Y-22230671D01*
X12835097Y-22216320D01*
X12842755Y-22216922D01*
X12960000Y-22235492D01*
X13085304Y-22215646D01*
X13085308Y-22215644D01*
X13085309Y-22215644D01*
X13198335Y-22158054D01*
X13198337Y-22158052D01*
X13198342Y-22158050D01*
X13288050Y-22068342D01*
X13328198Y-21989548D01*
X13345644Y-21955309D01*
X13345644Y-21955307D01*
X13345646Y-21955304D01*
X13365492Y-21830000D01*
X13345646Y-21704696D01*
X13345644Y-21704692D01*
X13345644Y-21704690D01*
X13288054Y-21591664D01*
X13288049Y-21591657D01*
X13198342Y-21501950D01*
X13198335Y-21501945D01*
X13085308Y-21444355D01*
X13085305Y-21444354D01*
X13085304Y-21444354D01*
X12960000Y-21424508D01*
X12834696Y-21444354D01*
X12834694Y-21444354D01*
X12834692Y-21444355D01*
X12834690Y-21444355D01*
X12721664Y-21501945D01*
X12721657Y-21501950D01*
X12631950Y-21591657D01*
X12631945Y-21591664D01*
X12574355Y-21704690D01*
X12574355Y-21704692D01*
X12554508Y-21830000D01*
X12573076Y-21947235D01*
X12564321Y-21983702D01*
X12559327Y-21989548D01*
X10308378Y-24240499D01*
X9563420Y-24985457D01*
X9550439Y-24998438D01*
X9515457Y-25033419D01*
X9489500Y-25096083D01*
X9489500Y-26937355D01*
X9475148Y-26972003D01*
X9462746Y-26981014D01*
X9421661Y-27001948D01*
X9421654Y-27001953D01*
X9331950Y-27091657D01*
X9331945Y-27091664D01*
X9274355Y-27204690D01*
X9274355Y-27204692D01*
X9274354Y-27204694D01*
X9274354Y-27204696D01*
X9254508Y-27330000D01*
X9130500Y-27330000D01*
X9130500Y-24420919D01*
X9144852Y-24386271D01*
X10577041Y-22954083D01*
X10577041Y-22954082D01*
X10577043Y-22954081D01*
X10592963Y-22915646D01*
X10603000Y-22891415D01*
X10603000Y-10446085D01*
X10577044Y-10383420D01*
X10577043Y-10383419D01*
X10577042Y-10383417D01*
X2623875Y-2430251D01*
X2609523Y-2395603D01*
X2616088Y-2371104D01*
X2678865Y-2262373D01*
X2738009Y-2080346D01*
X2758015Y-1890000D01*
X3466985Y-1890000D01*
X3486991Y-2080346D01*
X3546135Y-2262373D01*
X3641833Y-2428126D01*
X3689858Y-2481463D01*
X3744925Y-2542622D01*
X3769901Y-2570360D01*
X3924742Y-2682859D01*
X4099590Y-2760707D01*
X4286803Y-2800500D01*
X4478197Y-2800500D01*
X4665410Y-2760707D01*
X4840258Y-2682859D01*
X4995099Y-2570360D01*
X5123167Y-2428126D01*
X5218865Y-2262373D01*
X5278009Y-2080346D01*
X5298015Y-1890000D01*
X8546985Y-1890000D01*
X8566991Y-2080346D01*
X8626135Y-2262373D01*
X8721833Y-2428126D01*
X8769858Y-2481463D01*
X8824925Y-2542622D01*
X8849901Y-2570360D01*
X9004742Y-2682859D01*
X9179590Y-2760707D01*
X9366803Y-2800500D01*
X9558197Y-2800500D01*
X9745410Y-2760707D01*
X9920258Y-2682859D01*
X10075099Y-2570360D01*
X10203167Y-2428126D01*
X10298865Y-2262373D01*
X10358009Y-2080346D01*
X10378015Y-1890000D01*
X10358009Y-1699654D01*
X10298865Y-1517627D01*
X10203167Y-1351874D01*
X10075099Y-1209640D01*
X9920258Y-1097141D01*
X9745410Y-1019293D01*
X9745407Y-1019292D01*
X9745403Y-1019291D01*
X9558197Y-979500D01*
X9366803Y-979500D01*
X9179596Y-1019291D01*
X9179587Y-1019294D01*
X9004741Y-1097142D01*
X8849899Y-1209641D01*
X8849896Y-1209643D01*
X8721836Y-1351870D01*
X8721830Y-1351878D01*
X8626137Y-1517623D01*
X8626135Y-1517626D01*
X8626135Y-1517627D01*
X8566991Y-1699654D01*
X8546985Y-1890000D01*
X5298015Y-1890000D01*
X5278009Y-1699654D01*
X5218865Y-1517627D01*
X5123167Y-1351874D01*
X4995099Y-1209640D01*
X4840258Y-1097141D01*
X4665410Y-1019293D01*
X4665407Y-1019292D01*
X4665403Y-1019291D01*
X4478197Y-979500D01*
X4286803Y-979500D01*
X4099596Y-1019291D01*
X4099587Y-1019294D01*
X3924741Y-1097142D01*
X3769899Y-1209641D01*
X3769896Y-1209643D01*
X3641836Y-1351870D01*
X3641830Y-1351878D01*
X3546137Y-1517623D01*
X3546135Y-1517626D01*
X3546135Y-1517627D01*
X3486991Y-1699654D01*
X3466985Y-1890000D01*
X2758015Y-1890000D01*
X2738009Y-1699654D01*
X2678865Y-1517627D01*
X2583167Y-1351874D01*
X2455099Y-1209640D01*
X2300258Y-1097141D01*
X2125410Y-1019293D01*
X2125407Y-1019292D01*
X2125403Y-1019291D01*
X1938197Y-979500D01*
X1746803Y-979500D01*
X1559596Y-1019291D01*
X1559587Y-1019294D01*
X1384741Y-1097142D01*
X1229899Y-1209641D01*
X1229896Y-1209643D01*
X1101836Y-1351870D01*
X1101830Y-1351878D01*
X1006137Y-1517623D01*
X1006135Y-1517626D01*
X1006135Y-1517627D01*
X946991Y-1699654D01*
X926985Y-1890000D01*
X946991Y-2080346D01*
X1006135Y-2262373D01*
X1101833Y-2428126D01*
X1149858Y-2481463D01*
X1204925Y-2542622D01*
X1229901Y-2570360D01*
X1384742Y-2682859D01*
X1559590Y-2760707D01*
X1746803Y-2800500D01*
X1938197Y-2800500D01*
X2125410Y-2760707D01*
X2300258Y-2682859D01*
X2320832Y-2667910D01*
X2357297Y-2659155D01*
X2384281Y-2672904D01*
X10247648Y-10536271D01*
X10262000Y-10570919D01*
X10262000Y-19069565D01*
X10247648Y-19104213D01*
X10213000Y-19118565D01*
X10178352Y-19104213D01*
X10176586Y-19102352D01*
X10075104Y-18989644D01*
X10075099Y-18989641D01*
X10075099Y-18989640D01*
X9920258Y-18877141D01*
X9745410Y-18799293D01*
X9745407Y-18799292D01*
X9745403Y-18799291D01*
X9558197Y-18759500D01*
X9366803Y-18759500D01*
X9179596Y-18799291D01*
X9179587Y-18799294D01*
X9004741Y-18877142D01*
X8849899Y-18989641D01*
X8849896Y-18989643D01*
X8721836Y-19131870D01*
X8721830Y-19131878D01*
X8631935Y-19287581D01*
X8602182Y-19310411D01*
X8565000Y-19305516D01*
X8542170Y-19275763D01*
X8540500Y-19263081D01*
X8540500Y-16961457D01*
X8554851Y-16926810D01*
X9007274Y-16474386D01*
X9041921Y-16460035D01*
X9060972Y-16464610D01*
X9061024Y-16464453D01*
X9063028Y-16465104D01*
X9064171Y-16465378D01*
X9064696Y-16465646D01*
X9190000Y-16485492D01*
X9315304Y-16465646D01*
X9315308Y-16465644D01*
X9315309Y-16465644D01*
X9428335Y-16408054D01*
X9428337Y-16408052D01*
X9428342Y-16408050D01*
X9518050Y-16318342D01*
X9543509Y-16268377D01*
X9575644Y-16205309D01*
X9575644Y-16205307D01*
X9575646Y-16205304D01*
X9595492Y-16080000D01*
X9575646Y-15954696D01*
X9575644Y-15954692D01*
X9575644Y-15954690D01*
X9518054Y-15841664D01*
X9518049Y-15841657D01*
X9428342Y-15751950D01*
X9428335Y-15751945D01*
X9315308Y-15694355D01*
X9315305Y-15694354D01*
X9315304Y-15694354D01*
X9190000Y-15674508D01*
X9064696Y-15694354D01*
X9064694Y-15694354D01*
X9064692Y-15694355D01*
X9064690Y-15694355D01*
X8951664Y-15751945D01*
X8951657Y-15751950D01*
X8884648Y-15818960D01*
X8850000Y-15833312D01*
X8815352Y-15818960D01*
X8748345Y-15751953D01*
X8748342Y-15751950D01*
X8746227Y-15750872D01*
X8721872Y-15722355D01*
X8724815Y-15684968D01*
X8733826Y-15672566D01*
X8788050Y-15618342D01*
X8828198Y-15539548D01*
X8845644Y-15505309D01*
X8845644Y-15505307D01*
X8845646Y-15505304D01*
X8865492Y-15380000D01*
X8845646Y-15254696D01*
X8845644Y-15254692D01*
X8845644Y-15254690D01*
X8788054Y-15141664D01*
X8788049Y-15141657D01*
X8698342Y-15051950D01*
X8698335Y-15051945D01*
X8585308Y-14994355D01*
X8585305Y-14994354D01*
X8585304Y-14994354D01*
X8460000Y-14974508D01*
X8334696Y-14994354D01*
X8334694Y-14994354D01*
X8334692Y-14994355D01*
X8334690Y-14994355D01*
X8221664Y-15051945D01*
X8221657Y-15051950D01*
X8131950Y-15141657D01*
X8131945Y-15141664D01*
X8074355Y-15254690D01*
X8074355Y-15254692D01*
X8054508Y-15380000D01*
X8073076Y-15497235D01*
X8064321Y-15533702D01*
X8059327Y-15539548D01*
X7848004Y-15750873D01*
X7813420Y-15785457D01*
X7789438Y-15809438D01*
X7765457Y-15833419D01*
X7739500Y-15896083D01*
X7739500Y-26074812D01*
X7725148Y-26109460D01*
X7690500Y-26123812D01*
X7655852Y-26109460D01*
X7598342Y-26051950D01*
X7598335Y-26051945D01*
X7485308Y-25994355D01*
X7485305Y-25994354D01*
X7485304Y-25994354D01*
X7360000Y-25974508D01*
X7234696Y-25994354D01*
X7234694Y-25994354D01*
X7234692Y-25994355D01*
X7234690Y-25994355D01*
X7121664Y-26051945D01*
X7121657Y-26051950D01*
X7031950Y-26141657D01*
X7031945Y-26141664D01*
X6974355Y-26254690D01*
X6974355Y-26254692D01*
X6974354Y-26254694D01*
X6974354Y-26254696D01*
X6954508Y-26380000D01*
X6974354Y-26505304D01*
X6974354Y-26505305D01*
X6974355Y-26505307D01*
X6974355Y-26505309D01*
X7031945Y-26618335D01*
X7031950Y-26618342D01*
X7121657Y-26708049D01*
X7121664Y-26708054D01*
X7234691Y-26765644D01*
X7234692Y-26765644D01*
X7234696Y-26765646D01*
X7358165Y-26785201D01*
X7390142Y-26804797D01*
X7399500Y-26833598D01*
X7399500Y-29507736D01*
X7385148Y-29542384D01*
X7372752Y-29551392D01*
X7371661Y-29551948D01*
X7371652Y-29551954D01*
X7352146Y-29571460D01*
X7317498Y-29585811D01*
X7282851Y-29571459D01*
X7255842Y-29544450D01*
X7255835Y-29544445D01*
X7142808Y-29486855D01*
X7142805Y-29486854D01*
X7142804Y-29486854D01*
X7017500Y-29467008D01*
X6892196Y-29486854D01*
X6892194Y-29486854D01*
X6892192Y-29486855D01*
X6892190Y-29486855D01*
X6779164Y-29544445D01*
X6779157Y-29544450D01*
X6689451Y-29634156D01*
X6689450Y-29634158D01*
X6676157Y-29660246D01*
X6647642Y-29684601D01*
X6632499Y-29687000D01*
X5699633Y-29687000D01*
X5664985Y-29672648D01*
X5415080Y-29422743D01*
X5415078Y-29422742D01*
X5415077Y-29422741D01*
X5365828Y-29402341D01*
X5346899Y-29394500D01*
X5346898Y-29394500D01*
X1253102Y-29394500D01*
X1253100Y-29394500D01*
X1220390Y-29408050D01*
X1184920Y-29422742D01*
X969148Y-29638514D01*
X934500Y-29652866D01*
X899852Y-29638514D01*
X885500Y-29603866D01*
X885500Y-23669116D01*
X1099500Y-23669116D01*
X1099500Y-25390884D01*
X1105320Y-25420143D01*
X1105911Y-25423115D01*
X1130333Y-25459666D01*
X1154756Y-25475984D01*
X1166885Y-25484089D01*
X1199116Y-25490500D01*
X1199119Y-25490500D01*
X2920881Y-25490500D01*
X2920884Y-25490500D01*
X2953115Y-25484089D01*
X2989666Y-25459666D01*
X3014089Y-25423115D01*
X3017692Y-25405002D01*
X5154506Y-25405002D01*
X5174352Y-25530306D01*
X5174352Y-25530307D01*
X5174353Y-25530309D01*
X5174353Y-25530311D01*
X5231943Y-25643337D01*
X5231948Y-25643344D01*
X5321655Y-25733051D01*
X5321662Y-25733056D01*
X5434689Y-25790646D01*
X5434690Y-25790646D01*
X5434694Y-25790648D01*
X5559998Y-25810494D01*
X5637344Y-25798243D01*
X5673809Y-25806998D01*
X5679656Y-25811992D01*
X5992754Y-26125090D01*
X6007106Y-26159738D01*
X6006502Y-26167402D01*
X6004508Y-26180000D01*
X6024354Y-26305304D01*
X6024354Y-26305305D01*
X6024355Y-26305307D01*
X6024355Y-26305309D01*
X6081945Y-26418335D01*
X6081950Y-26418342D01*
X6171657Y-26508049D01*
X6171664Y-26508054D01*
X6284691Y-26565644D01*
X6284692Y-26565644D01*
X6284696Y-26565646D01*
X6410000Y-26585492D01*
X6535304Y-26565646D01*
X6535308Y-26565644D01*
X6535309Y-26565644D01*
X6648335Y-26508054D01*
X6648337Y-26508052D01*
X6648342Y-26508050D01*
X6738050Y-26418342D01*
X6738054Y-26418335D01*
X6795644Y-26305309D01*
X6795644Y-26305307D01*
X6795646Y-26305304D01*
X6815492Y-26180000D01*
X6795646Y-26054696D01*
X6795644Y-26054692D01*
X6795644Y-26054690D01*
X6738054Y-25941664D01*
X6738049Y-25941657D01*
X6648342Y-25851950D01*
X6648335Y-25851945D01*
X6535308Y-25794355D01*
X6535305Y-25794354D01*
X6535304Y-25794354D01*
X6410000Y-25774508D01*
X6284695Y-25794354D01*
X6251490Y-25811273D01*
X6214102Y-25814214D01*
X6194597Y-25802261D01*
X5960152Y-25567816D01*
X5945800Y-25533168D01*
X5946401Y-25525523D01*
X5955426Y-25468537D01*
X5975020Y-25436563D01*
X6011486Y-25427808D01*
X6060000Y-25435492D01*
X6185304Y-25415646D01*
X6185308Y-25415644D01*
X6185309Y-25415644D01*
X6298335Y-25358054D01*
X6298337Y-25358052D01*
X6298342Y-25358050D01*
X6388050Y-25268342D01*
X6388054Y-25268335D01*
X6445644Y-25155309D01*
X6445644Y-25155307D01*
X6445646Y-25155304D01*
X6465492Y-25030000D01*
X6449823Y-24931075D01*
X6458578Y-24894611D01*
X6463563Y-24888773D01*
X6467259Y-24885078D01*
X6475919Y-24864167D01*
X6479269Y-24856083D01*
X6479269Y-24856082D01*
X6485723Y-24840500D01*
X6495500Y-24816898D01*
X6495500Y-24415001D01*
X6509852Y-24380353D01*
X6522251Y-24371343D01*
X6548342Y-24358050D01*
X6638050Y-24268342D01*
X6638054Y-24268335D01*
X6695644Y-24155309D01*
X6695644Y-24155307D01*
X6695646Y-24155304D01*
X6715492Y-24030000D01*
X6695646Y-23904696D01*
X6695644Y-23904692D01*
X6695644Y-23904690D01*
X6638054Y-23791664D01*
X6638049Y-23791657D01*
X6548342Y-23701950D01*
X6548335Y-23701945D01*
X6435308Y-23644355D01*
X6435305Y-23644354D01*
X6435304Y-23644354D01*
X6310000Y-23624508D01*
X6184696Y-23644354D01*
X6184694Y-23644354D01*
X6184692Y-23644355D01*
X6184690Y-23644355D01*
X6071664Y-23701945D01*
X6071657Y-23701950D01*
X5981950Y-23791657D01*
X5981945Y-23791664D01*
X5924355Y-23904690D01*
X5924355Y-23904692D01*
X5924354Y-23904694D01*
X5924354Y-23904696D01*
X5904508Y-24030000D01*
X5924354Y-24155304D01*
X5924354Y-24155305D01*
X5924355Y-24155307D01*
X5924355Y-24155309D01*
X5981945Y-24268335D01*
X5981950Y-24268342D01*
X6071658Y-24358050D01*
X6097746Y-24371342D01*
X6122101Y-24399858D01*
X6124500Y-24415001D01*
X6124500Y-24577352D01*
X6110148Y-24612000D01*
X6075500Y-24626352D01*
X6067836Y-24625749D01*
X6060000Y-24624508D01*
X5934696Y-24644354D01*
X5934694Y-24644354D01*
X5934692Y-24644355D01*
X5934690Y-24644355D01*
X5821664Y-24701945D01*
X5821657Y-24701950D01*
X5731950Y-24791657D01*
X5731945Y-24791664D01*
X5674355Y-24904690D01*
X5674355Y-24904692D01*
X5674354Y-24904694D01*
X5674354Y-24904696D01*
X5667989Y-24944881D01*
X5664571Y-24966462D01*
X5644975Y-24998438D01*
X5608509Y-25007193D01*
X5559998Y-24999510D01*
X5434694Y-25019356D01*
X5434692Y-25019356D01*
X5434690Y-25019357D01*
X5434688Y-25019357D01*
X5321662Y-25076947D01*
X5321655Y-25076952D01*
X5231948Y-25166659D01*
X5231943Y-25166666D01*
X5174353Y-25279692D01*
X5174353Y-25279694D01*
X5174352Y-25279696D01*
X5174352Y-25279698D01*
X5154506Y-25405002D01*
X3017692Y-25405002D01*
X3020500Y-25390884D01*
X3020500Y-23669116D01*
X3014089Y-23636885D01*
X3005819Y-23624508D01*
X2989666Y-23600333D01*
X2953115Y-23575911D01*
X2920884Y-23569500D01*
X1199116Y-23569500D01*
X1174942Y-23574308D01*
X1166884Y-23575911D01*
X1130333Y-23600333D01*
X1105911Y-23636884D01*
X1105911Y-23636885D01*
X1099500Y-23669116D01*
X885500Y-23669116D01*
X885500Y-23428418D01*
X899851Y-23393771D01*
X3840718Y-20452903D01*
X3875365Y-20438552D01*
X3904166Y-20447910D01*
X3904999Y-20448515D01*
X3924742Y-20462859D01*
X4099590Y-20540707D01*
X4286803Y-20580500D01*
X4478197Y-20580500D01*
X4665410Y-20540707D01*
X4840258Y-20462859D01*
X4995099Y-20350360D01*
X5123167Y-20208126D01*
X5218865Y-20042373D01*
X5278009Y-19860346D01*
X5298015Y-19670000D01*
X5278009Y-19479654D01*
X5218865Y-19297627D01*
X5123167Y-19131874D01*
X5025717Y-19023645D01*
X4995103Y-18989644D01*
X4995101Y-18989643D01*
X4995099Y-18989640D01*
X4840258Y-18877141D01*
X4665410Y-18799293D01*
X4665407Y-18799292D01*
X4665403Y-18799291D01*
X4478197Y-18759500D01*
X4286803Y-18759500D01*
X4099596Y-18799291D01*
X4099587Y-18799294D01*
X3924741Y-18877142D01*
X3769899Y-18989641D01*
X3769896Y-18989643D01*
X3641836Y-19131870D01*
X3641830Y-19131878D01*
X3546137Y-19297623D01*
X3546135Y-19297626D01*
X3541981Y-19310411D01*
X3486991Y-19479654D01*
X3466985Y-19670000D01*
X3486991Y-19860346D01*
X3546135Y-20042373D01*
X3566079Y-20076918D01*
X3608910Y-20151104D01*
X3613805Y-20188286D01*
X3601123Y-20210252D01*
X739148Y-23072228D01*
X704500Y-23086580D01*
X669852Y-23072228D01*
X655500Y-23037580D01*
X655500Y-21118418D01*
X669851Y-21083771D01*
X1158842Y-20594779D01*
X1193489Y-20580428D01*
X1195955Y-20580499D01*
X1196134Y-20580499D01*
X1196143Y-20580500D01*
X2488856Y-20580499D01*
X2514820Y-20577488D01*
X2621014Y-20530599D01*
X2703099Y-20448514D01*
X2749988Y-20342320D01*
X2753000Y-20316357D01*
X2752999Y-19023644D01*
X2749988Y-18997680D01*
X2703099Y-18891486D01*
X2703098Y-18891485D01*
X2703098Y-18891484D01*
X2621015Y-18809401D01*
X2621016Y-18809401D01*
X2514821Y-18762512D01*
X2506165Y-18761508D01*
X2488857Y-18759500D01*
X2488855Y-18759500D01*
X1196149Y-18759500D01*
X1196139Y-18759501D01*
X1170178Y-18762512D01*
X1063984Y-18809401D01*
X981901Y-18891484D01*
X935012Y-18997678D01*
X932000Y-19023642D01*
X932000Y-19023645D01*
X932001Y-20317771D01*
X931442Y-20317771D01*
X919650Y-20351611D01*
X917720Y-20353655D01*
X394148Y-20877228D01*
X359500Y-20891580D01*
X324852Y-20877228D01*
X310500Y-20842580D01*
X310500Y-429500D01*
X324852Y-394852D01*
X359500Y-380500D01*
X51861000Y-380500D01*
X51895648Y-394852D01*
G37*
G04 #@! TD.AperFunction*
G04 #@! TD*
M02*
