G04 #@! TF.GenerationSoftware,KiCad,Pcbnew,9.0.0*
G04 #@! TF.CreationDate,2025-02-22T21:13:36-05:00*
G04 #@! TF.ProjectId,pico2-test-mule,7069636f-322d-4746-9573-742d6d756c65,v0.2.0*
G04 #@! TF.SameCoordinates,Original*
G04 #@! TF.FileFunction,Other,Comment*
%FSLAX46Y46*%
G04 Gerber Fmt 4.6, Leading zero omitted, Abs format (unit mm)*
G04 Created by KiCad (PCBNEW 9.0.0) date 2025-02-22 21:13:36*
%MOMM*%
%LPD*%
G01*
G04 APERTURE LIST*
%ADD10C,0.150000*%
%ADD11C,0.100000*%
%ADD12C,0.200000*%
G04 APERTURE END LIST*
D10*
X46202319Y-17038095D02*
X45202319Y-17038095D01*
X45202319Y-17038095D02*
X45202319Y-16657143D01*
X45202319Y-16657143D02*
X45249938Y-16561905D01*
X45249938Y-16561905D02*
X45297557Y-16514286D01*
X45297557Y-16514286D02*
X45392795Y-16466667D01*
X45392795Y-16466667D02*
X45535652Y-16466667D01*
X45535652Y-16466667D02*
X45630890Y-16514286D01*
X45630890Y-16514286D02*
X45678509Y-16561905D01*
X45678509Y-16561905D02*
X45726128Y-16657143D01*
X45726128Y-16657143D02*
X45726128Y-17038095D01*
X46202319Y-15895238D02*
X46154700Y-15990476D01*
X46154700Y-15990476D02*
X46107080Y-16038095D01*
X46107080Y-16038095D02*
X46011842Y-16085714D01*
X46011842Y-16085714D02*
X45726128Y-16085714D01*
X45726128Y-16085714D02*
X45630890Y-16038095D01*
X45630890Y-16038095D02*
X45583271Y-15990476D01*
X45583271Y-15990476D02*
X45535652Y-15895238D01*
X45535652Y-15895238D02*
X45535652Y-15752381D01*
X45535652Y-15752381D02*
X45583271Y-15657143D01*
X45583271Y-15657143D02*
X45630890Y-15609524D01*
X45630890Y-15609524D02*
X45726128Y-15561905D01*
X45726128Y-15561905D02*
X46011842Y-15561905D01*
X46011842Y-15561905D02*
X46107080Y-15609524D01*
X46107080Y-15609524D02*
X46154700Y-15657143D01*
X46154700Y-15657143D02*
X46202319Y-15752381D01*
X46202319Y-15752381D02*
X46202319Y-15895238D01*
X46154700Y-15180952D02*
X46202319Y-15085714D01*
X46202319Y-15085714D02*
X46202319Y-14895238D01*
X46202319Y-14895238D02*
X46154700Y-14800000D01*
X46154700Y-14800000D02*
X46059461Y-14752381D01*
X46059461Y-14752381D02*
X46011842Y-14752381D01*
X46011842Y-14752381D02*
X45916604Y-14800000D01*
X45916604Y-14800000D02*
X45868985Y-14895238D01*
X45868985Y-14895238D02*
X45868985Y-15038095D01*
X45868985Y-15038095D02*
X45821366Y-15133333D01*
X45821366Y-15133333D02*
X45726128Y-15180952D01*
X45726128Y-15180952D02*
X45678509Y-15180952D01*
X45678509Y-15180952D02*
X45583271Y-15133333D01*
X45583271Y-15133333D02*
X45535652Y-15038095D01*
X45535652Y-15038095D02*
X45535652Y-14895238D01*
X45535652Y-14895238D02*
X45583271Y-14800000D01*
X46154700Y-14371428D02*
X46202319Y-14276190D01*
X46202319Y-14276190D02*
X46202319Y-14085714D01*
X46202319Y-14085714D02*
X46154700Y-13990476D01*
X46154700Y-13990476D02*
X46059461Y-13942857D01*
X46059461Y-13942857D02*
X46011842Y-13942857D01*
X46011842Y-13942857D02*
X45916604Y-13990476D01*
X45916604Y-13990476D02*
X45868985Y-14085714D01*
X45868985Y-14085714D02*
X45868985Y-14228571D01*
X45868985Y-14228571D02*
X45821366Y-14323809D01*
X45821366Y-14323809D02*
X45726128Y-14371428D01*
X45726128Y-14371428D02*
X45678509Y-14371428D01*
X45678509Y-14371428D02*
X45583271Y-14323809D01*
X45583271Y-14323809D02*
X45535652Y-14228571D01*
X45535652Y-14228571D02*
X45535652Y-14085714D01*
X45535652Y-14085714D02*
X45583271Y-13990476D01*
X46202319Y-13514285D02*
X45535652Y-13514285D01*
X45202319Y-13514285D02*
X45249938Y-13561904D01*
X45249938Y-13561904D02*
X45297557Y-13514285D01*
X45297557Y-13514285D02*
X45249938Y-13466666D01*
X45249938Y-13466666D02*
X45202319Y-13514285D01*
X45202319Y-13514285D02*
X45297557Y-13514285D01*
X46202319Y-13038095D02*
X45202319Y-13038095D01*
X45583271Y-13038095D02*
X45535652Y-12942857D01*
X45535652Y-12942857D02*
X45535652Y-12752381D01*
X45535652Y-12752381D02*
X45583271Y-12657143D01*
X45583271Y-12657143D02*
X45630890Y-12609524D01*
X45630890Y-12609524D02*
X45726128Y-12561905D01*
X45726128Y-12561905D02*
X46011842Y-12561905D01*
X46011842Y-12561905D02*
X46107080Y-12609524D01*
X46107080Y-12609524D02*
X46154700Y-12657143D01*
X46154700Y-12657143D02*
X46202319Y-12752381D01*
X46202319Y-12752381D02*
X46202319Y-12942857D01*
X46202319Y-12942857D02*
X46154700Y-13038095D01*
X46202319Y-11990476D02*
X46154700Y-12085714D01*
X46154700Y-12085714D02*
X46059461Y-12133333D01*
X46059461Y-12133333D02*
X45202319Y-12133333D01*
X46154700Y-11228571D02*
X46202319Y-11323809D01*
X46202319Y-11323809D02*
X46202319Y-11514285D01*
X46202319Y-11514285D02*
X46154700Y-11609523D01*
X46154700Y-11609523D02*
X46059461Y-11657142D01*
X46059461Y-11657142D02*
X45678509Y-11657142D01*
X45678509Y-11657142D02*
X45583271Y-11609523D01*
X45583271Y-11609523D02*
X45535652Y-11514285D01*
X45535652Y-11514285D02*
X45535652Y-11323809D01*
X45535652Y-11323809D02*
X45583271Y-11228571D01*
X45583271Y-11228571D02*
X45678509Y-11180952D01*
X45678509Y-11180952D02*
X45773747Y-11180952D01*
X45773747Y-11180952D02*
X45868985Y-11657142D01*
X45916604Y-10038094D02*
X45916604Y-9561904D01*
X46202319Y-10133332D02*
X45202319Y-9799999D01*
X45202319Y-9799999D02*
X46202319Y-9466666D01*
X45535652Y-9133332D02*
X46202319Y-9133332D01*
X45630890Y-9133332D02*
X45583271Y-9085713D01*
X45583271Y-9085713D02*
X45535652Y-8990475D01*
X45535652Y-8990475D02*
X45535652Y-8847618D01*
X45535652Y-8847618D02*
X45583271Y-8752380D01*
X45583271Y-8752380D02*
X45678509Y-8704761D01*
X45678509Y-8704761D02*
X46202319Y-8704761D01*
X45535652Y-8371427D02*
X45535652Y-7990475D01*
X45202319Y-8228570D02*
X46059461Y-8228570D01*
X46059461Y-8228570D02*
X46154700Y-8180951D01*
X46154700Y-8180951D02*
X46202319Y-8085713D01*
X46202319Y-8085713D02*
X46202319Y-7990475D01*
X46154700Y-7276189D02*
X46202319Y-7371427D01*
X46202319Y-7371427D02*
X46202319Y-7561903D01*
X46202319Y-7561903D02*
X46154700Y-7657141D01*
X46154700Y-7657141D02*
X46059461Y-7704760D01*
X46059461Y-7704760D02*
X45678509Y-7704760D01*
X45678509Y-7704760D02*
X45583271Y-7657141D01*
X45583271Y-7657141D02*
X45535652Y-7561903D01*
X45535652Y-7561903D02*
X45535652Y-7371427D01*
X45535652Y-7371427D02*
X45583271Y-7276189D01*
X45583271Y-7276189D02*
X45678509Y-7228570D01*
X45678509Y-7228570D02*
X45773747Y-7228570D01*
X45773747Y-7228570D02*
X45868985Y-7704760D01*
X45535652Y-6799998D02*
X46202319Y-6799998D01*
X45630890Y-6799998D02*
X45583271Y-6752379D01*
X45583271Y-6752379D02*
X45535652Y-6657141D01*
X45535652Y-6657141D02*
X45535652Y-6514284D01*
X45535652Y-6514284D02*
X45583271Y-6419046D01*
X45583271Y-6419046D02*
X45678509Y-6371427D01*
X45678509Y-6371427D02*
X46202319Y-6371427D01*
X45535652Y-5895236D02*
X46202319Y-5895236D01*
X45630890Y-5895236D02*
X45583271Y-5847617D01*
X45583271Y-5847617D02*
X45535652Y-5752379D01*
X45535652Y-5752379D02*
X45535652Y-5609522D01*
X45535652Y-5609522D02*
X45583271Y-5514284D01*
X45583271Y-5514284D02*
X45678509Y-5466665D01*
X45678509Y-5466665D02*
X46202319Y-5466665D01*
X46202319Y-4561903D02*
X45678509Y-4561903D01*
X45678509Y-4561903D02*
X45583271Y-4609522D01*
X45583271Y-4609522D02*
X45535652Y-4704760D01*
X45535652Y-4704760D02*
X45535652Y-4895236D01*
X45535652Y-4895236D02*
X45583271Y-4990474D01*
X46154700Y-4561903D02*
X46202319Y-4657141D01*
X46202319Y-4657141D02*
X46202319Y-4895236D01*
X46202319Y-4895236D02*
X46154700Y-4990474D01*
X46154700Y-4990474D02*
X46059461Y-5038093D01*
X46059461Y-5038093D02*
X45964223Y-5038093D01*
X45964223Y-5038093D02*
X45868985Y-4990474D01*
X45868985Y-4990474D02*
X45821366Y-4895236D01*
X45821366Y-4895236D02*
X45821366Y-4657141D01*
X45821366Y-4657141D02*
X45773747Y-4561903D01*
X-11947681Y-14538095D02*
X-11138158Y-14538095D01*
X-11138158Y-14538095D02*
X-11042920Y-14490476D01*
X-11042920Y-14490476D02*
X-10995300Y-14442857D01*
X-10995300Y-14442857D02*
X-10947681Y-14347619D01*
X-10947681Y-14347619D02*
X-10947681Y-14157143D01*
X-10947681Y-14157143D02*
X-10995300Y-14061905D01*
X-10995300Y-14061905D02*
X-11042920Y-14014286D01*
X-11042920Y-14014286D02*
X-11138158Y-13966667D01*
X-11138158Y-13966667D02*
X-11947681Y-13966667D01*
X-10995300Y-13538095D02*
X-10947681Y-13395238D01*
X-10947681Y-13395238D02*
X-10947681Y-13157143D01*
X-10947681Y-13157143D02*
X-10995300Y-13061905D01*
X-10995300Y-13061905D02*
X-11042920Y-13014286D01*
X-11042920Y-13014286D02*
X-11138158Y-12966667D01*
X-11138158Y-12966667D02*
X-11233396Y-12966667D01*
X-11233396Y-12966667D02*
X-11328634Y-13014286D01*
X-11328634Y-13014286D02*
X-11376253Y-13061905D01*
X-11376253Y-13061905D02*
X-11423872Y-13157143D01*
X-11423872Y-13157143D02*
X-11471491Y-13347619D01*
X-11471491Y-13347619D02*
X-11519110Y-13442857D01*
X-11519110Y-13442857D02*
X-11566729Y-13490476D01*
X-11566729Y-13490476D02*
X-11661967Y-13538095D01*
X-11661967Y-13538095D02*
X-11757205Y-13538095D01*
X-11757205Y-13538095D02*
X-11852443Y-13490476D01*
X-11852443Y-13490476D02*
X-11900062Y-13442857D01*
X-11900062Y-13442857D02*
X-11947681Y-13347619D01*
X-11947681Y-13347619D02*
X-11947681Y-13109524D01*
X-11947681Y-13109524D02*
X-11900062Y-12966667D01*
X-11471491Y-12204762D02*
X-11423872Y-12061905D01*
X-11423872Y-12061905D02*
X-11376253Y-12014286D01*
X-11376253Y-12014286D02*
X-11281015Y-11966667D01*
X-11281015Y-11966667D02*
X-11138158Y-11966667D01*
X-11138158Y-11966667D02*
X-11042920Y-12014286D01*
X-11042920Y-12014286D02*
X-10995300Y-12061905D01*
X-10995300Y-12061905D02*
X-10947681Y-12157143D01*
X-10947681Y-12157143D02*
X-10947681Y-12538095D01*
X-10947681Y-12538095D02*
X-11947681Y-12538095D01*
X-11947681Y-12538095D02*
X-11947681Y-12204762D01*
X-11947681Y-12204762D02*
X-11900062Y-12109524D01*
X-11900062Y-12109524D02*
X-11852443Y-12061905D01*
X-11852443Y-12061905D02*
X-11757205Y-12014286D01*
X-11757205Y-12014286D02*
X-11661967Y-12014286D01*
X-11661967Y-12014286D02*
X-11566729Y-12061905D01*
X-11566729Y-12061905D02*
X-11519110Y-12109524D01*
X-11519110Y-12109524D02*
X-11471491Y-12204762D01*
X-11471491Y-12204762D02*
X-11471491Y-12538095D01*
X-11042920Y-10204762D02*
X-10995300Y-10252381D01*
X-10995300Y-10252381D02*
X-10947681Y-10395238D01*
X-10947681Y-10395238D02*
X-10947681Y-10490476D01*
X-10947681Y-10490476D02*
X-10995300Y-10633333D01*
X-10995300Y-10633333D02*
X-11090539Y-10728571D01*
X-11090539Y-10728571D02*
X-11185777Y-10776190D01*
X-11185777Y-10776190D02*
X-11376253Y-10823809D01*
X-11376253Y-10823809D02*
X-11519110Y-10823809D01*
X-11519110Y-10823809D02*
X-11709586Y-10776190D01*
X-11709586Y-10776190D02*
X-11804824Y-10728571D01*
X-11804824Y-10728571D02*
X-11900062Y-10633333D01*
X-11900062Y-10633333D02*
X-11947681Y-10490476D01*
X-11947681Y-10490476D02*
X-11947681Y-10395238D01*
X-11947681Y-10395238D02*
X-11900062Y-10252381D01*
X-11900062Y-10252381D02*
X-11852443Y-10204762D01*
X-10947681Y-9347619D02*
X-11471491Y-9347619D01*
X-11471491Y-9347619D02*
X-11566729Y-9395238D01*
X-11566729Y-9395238D02*
X-11614348Y-9490476D01*
X-11614348Y-9490476D02*
X-11614348Y-9680952D01*
X-11614348Y-9680952D02*
X-11566729Y-9776190D01*
X-10995300Y-9347619D02*
X-10947681Y-9442857D01*
X-10947681Y-9442857D02*
X-10947681Y-9680952D01*
X-10947681Y-9680952D02*
X-10995300Y-9776190D01*
X-10995300Y-9776190D02*
X-11090539Y-9823809D01*
X-11090539Y-9823809D02*
X-11185777Y-9823809D01*
X-11185777Y-9823809D02*
X-11281015Y-9776190D01*
X-11281015Y-9776190D02*
X-11328634Y-9680952D01*
X-11328634Y-9680952D02*
X-11328634Y-9442857D01*
X-11328634Y-9442857D02*
X-11376253Y-9347619D01*
X-10947681Y-8871428D02*
X-11947681Y-8871428D01*
X-11566729Y-8871428D02*
X-11614348Y-8776190D01*
X-11614348Y-8776190D02*
X-11614348Y-8585714D01*
X-11614348Y-8585714D02*
X-11566729Y-8490476D01*
X-11566729Y-8490476D02*
X-11519110Y-8442857D01*
X-11519110Y-8442857D02*
X-11423872Y-8395238D01*
X-11423872Y-8395238D02*
X-11138158Y-8395238D01*
X-11138158Y-8395238D02*
X-11042920Y-8442857D01*
X-11042920Y-8442857D02*
X-10995300Y-8490476D01*
X-10995300Y-8490476D02*
X-10947681Y-8585714D01*
X-10947681Y-8585714D02*
X-10947681Y-8776190D01*
X-10947681Y-8776190D02*
X-10995300Y-8871428D01*
X-10947681Y-7823809D02*
X-10995300Y-7919047D01*
X-10995300Y-7919047D02*
X-11090539Y-7966666D01*
X-11090539Y-7966666D02*
X-11947681Y-7966666D01*
X-10995300Y-7061904D02*
X-10947681Y-7157142D01*
X-10947681Y-7157142D02*
X-10947681Y-7347618D01*
X-10947681Y-7347618D02*
X-10995300Y-7442856D01*
X-10995300Y-7442856D02*
X-11090539Y-7490475D01*
X-11090539Y-7490475D02*
X-11471491Y-7490475D01*
X-11471491Y-7490475D02*
X-11566729Y-7442856D01*
X-11566729Y-7442856D02*
X-11614348Y-7347618D01*
X-11614348Y-7347618D02*
X-11614348Y-7157142D01*
X-11614348Y-7157142D02*
X-11566729Y-7061904D01*
X-11566729Y-7061904D02*
X-11471491Y-7014285D01*
X-11471491Y-7014285D02*
X-11376253Y-7014285D01*
X-11376253Y-7014285D02*
X-11281015Y-7490475D01*
X48107319Y-14014285D02*
X47107319Y-14014285D01*
X48107319Y-13442857D02*
X47535890Y-13871428D01*
X47107319Y-13442857D02*
X47678747Y-14014285D01*
X48059700Y-12633333D02*
X48107319Y-12728571D01*
X48107319Y-12728571D02*
X48107319Y-12919047D01*
X48107319Y-12919047D02*
X48059700Y-13014285D01*
X48059700Y-13014285D02*
X47964461Y-13061904D01*
X47964461Y-13061904D02*
X47583509Y-13061904D01*
X47583509Y-13061904D02*
X47488271Y-13014285D01*
X47488271Y-13014285D02*
X47440652Y-12919047D01*
X47440652Y-12919047D02*
X47440652Y-12728571D01*
X47440652Y-12728571D02*
X47488271Y-12633333D01*
X47488271Y-12633333D02*
X47583509Y-12585714D01*
X47583509Y-12585714D02*
X47678747Y-12585714D01*
X47678747Y-12585714D02*
X47773985Y-13061904D01*
X48059700Y-11776190D02*
X48107319Y-11871428D01*
X48107319Y-11871428D02*
X48107319Y-12061904D01*
X48107319Y-12061904D02*
X48059700Y-12157142D01*
X48059700Y-12157142D02*
X47964461Y-12204761D01*
X47964461Y-12204761D02*
X47583509Y-12204761D01*
X47583509Y-12204761D02*
X47488271Y-12157142D01*
X47488271Y-12157142D02*
X47440652Y-12061904D01*
X47440652Y-12061904D02*
X47440652Y-11871428D01*
X47440652Y-11871428D02*
X47488271Y-11776190D01*
X47488271Y-11776190D02*
X47583509Y-11728571D01*
X47583509Y-11728571D02*
X47678747Y-11728571D01*
X47678747Y-11728571D02*
X47773985Y-12204761D01*
X47440652Y-11299999D02*
X48440652Y-11299999D01*
X47488271Y-11299999D02*
X47440652Y-11204761D01*
X47440652Y-11204761D02*
X47440652Y-11014285D01*
X47440652Y-11014285D02*
X47488271Y-10919047D01*
X47488271Y-10919047D02*
X47535890Y-10871428D01*
X47535890Y-10871428D02*
X47631128Y-10823809D01*
X47631128Y-10823809D02*
X47916842Y-10823809D01*
X47916842Y-10823809D02*
X48012080Y-10871428D01*
X48012080Y-10871428D02*
X48059700Y-10919047D01*
X48059700Y-10919047D02*
X48107319Y-11014285D01*
X48107319Y-11014285D02*
X48107319Y-11204761D01*
X48107319Y-11204761D02*
X48059700Y-11299999D01*
X47107319Y-9442856D02*
X47107319Y-9252380D01*
X47107319Y-9252380D02*
X47154938Y-9157142D01*
X47154938Y-9157142D02*
X47250176Y-9061904D01*
X47250176Y-9061904D02*
X47440652Y-9014285D01*
X47440652Y-9014285D02*
X47773985Y-9014285D01*
X47773985Y-9014285D02*
X47964461Y-9061904D01*
X47964461Y-9061904D02*
X48059700Y-9157142D01*
X48059700Y-9157142D02*
X48107319Y-9252380D01*
X48107319Y-9252380D02*
X48107319Y-9442856D01*
X48107319Y-9442856D02*
X48059700Y-9538094D01*
X48059700Y-9538094D02*
X47964461Y-9633332D01*
X47964461Y-9633332D02*
X47773985Y-9680951D01*
X47773985Y-9680951D02*
X47440652Y-9680951D01*
X47440652Y-9680951D02*
X47250176Y-9633332D01*
X47250176Y-9633332D02*
X47154938Y-9538094D01*
X47154938Y-9538094D02*
X47107319Y-9442856D01*
X47440652Y-8157142D02*
X48107319Y-8157142D01*
X47440652Y-8585713D02*
X47964461Y-8585713D01*
X47964461Y-8585713D02*
X48059700Y-8538094D01*
X48059700Y-8538094D02*
X48107319Y-8442856D01*
X48107319Y-8442856D02*
X48107319Y-8299999D01*
X48107319Y-8299999D02*
X48059700Y-8204761D01*
X48059700Y-8204761D02*
X48012080Y-8157142D01*
X47440652Y-7823808D02*
X47440652Y-7442856D01*
X47107319Y-7680951D02*
X47964461Y-7680951D01*
X47964461Y-7680951D02*
X48059700Y-7633332D01*
X48059700Y-7633332D02*
X48107319Y-7538094D01*
X48107319Y-7538094D02*
X48107319Y-7442856D01*
D11*
G04 #@! TO.C,Q1*
X20630000Y-22700000D02*
G75*
G02*
X20550000Y-22700000I-40000J0D01*
G01*
X20550000Y-22700000D02*
G75*
G02*
X20630000Y-22700000I40000J0D01*
G01*
D12*
G04 #@! TO.C,U1*
X11990000Y-26660000D02*
G75*
G02*
X11790000Y-26660000I-100000J0D01*
G01*
X11790000Y-26660000D02*
G75*
G02*
X11990000Y-26660000I100000J0D01*
G01*
G04 #@! TO.C,U2*
X15350000Y-24430000D02*
G75*
G02*
X15150000Y-24430000I-100000J0D01*
G01*
X15150000Y-24430000D02*
G75*
G02*
X15350000Y-24430000I100000J0D01*
G01*
G04 #@! TO.C,U5*
X9340000Y-33050000D02*
G75*
G02*
X9140000Y-33050000I-100000J0D01*
G01*
X9140000Y-33050000D02*
G75*
G02*
X9340000Y-33050000I100000J0D01*
G01*
D11*
G04 #@! TO.C,Q8*
X31080000Y-25610000D02*
G75*
G02*
X31000000Y-25610000I-40000J0D01*
G01*
X31000000Y-25610000D02*
G75*
G02*
X31080000Y-25610000I40000J0D01*
G01*
G04 #@! TO.C,Q6*
X26679771Y-25610000D02*
G75*
G02*
X26599771Y-25610000I-40000J0D01*
G01*
X26599771Y-25610000D02*
G75*
G02*
X26679771Y-25610000I40000J0D01*
G01*
G04 #@! TO.C,Q7*
X28870000Y-25610000D02*
G75*
G02*
X28790000Y-25610000I-40000J0D01*
G01*
X28790000Y-25610000D02*
G75*
G02*
X28870000Y-25610000I40000J0D01*
G01*
G04 #@! TO.C,Q5*
X24530000Y-25610000D02*
G75*
G02*
X24450000Y-25610000I-40000J0D01*
G01*
X24450000Y-25610000D02*
G75*
G02*
X24530000Y-25610000I40000J0D01*
G01*
G04 #@! TO.C,U6*
X25720000Y-31110000D02*
G75*
G02*
X25620000Y-31110000I-50000J0D01*
G01*
X25620000Y-31110000D02*
G75*
G02*
X25720000Y-31110000I50000J0D01*
G01*
G04 #@! TO.C,Q2*
X6530000Y-25460000D02*
G75*
G02*
X6450000Y-25460000I-40000J0D01*
G01*
X6450000Y-25460000D02*
G75*
G02*
X6530000Y-25460000I40000J0D01*
G01*
G04 #@! TD*
M02*
