G04 #@! TF.GenerationSoftware,KiCad,Pcbnew,8.0.8*
G04 #@! TF.CreationDate,2025-02-16T13:22:54-05:00*
G04 #@! TF.ProjectId,pico2-test-mule,7069636f-322d-4746-9573-742d6d756c65,v0.1.0*
G04 #@! TF.SameCoordinates,Original*
G04 #@! TF.FileFunction,Legend,Top*
G04 #@! TF.FilePolarity,Positive*
%FSLAX46Y46*%
G04 Gerber Fmt 4.6, Leading zero omitted, Abs format (unit mm)*
G04 Created by KiCad (PCBNEW 8.0.8) date 2025-02-16 13:22:54*
%MOMM*%
%LPD*%
G01*
G04 APERTURE LIST*
%ADD10C,0.150000*%
%ADD11C,0.200000*%
%ADD12C,0.100000*%
%ADD13C,0.120000*%
%ADD14C,0.250000*%
G04 APERTURE END LIST*
D10*
X39309523Y-33819819D02*
X38738095Y-33819819D01*
X39023809Y-33819819D02*
X39023809Y-32819819D01*
X39023809Y-32819819D02*
X38928571Y-32962676D01*
X38928571Y-32962676D02*
X38833333Y-33057914D01*
X38833333Y-33057914D02*
X38738095Y-33105533D01*
X39928571Y-32819819D02*
X40023809Y-32819819D01*
X40023809Y-32819819D02*
X40119047Y-32867438D01*
X40119047Y-32867438D02*
X40166666Y-32915057D01*
X40166666Y-32915057D02*
X40214285Y-33010295D01*
X40214285Y-33010295D02*
X40261904Y-33200771D01*
X40261904Y-33200771D02*
X40261904Y-33438866D01*
X40261904Y-33438866D02*
X40214285Y-33629342D01*
X40214285Y-33629342D02*
X40166666Y-33724580D01*
X40166666Y-33724580D02*
X40119047Y-33772200D01*
X40119047Y-33772200D02*
X40023809Y-33819819D01*
X40023809Y-33819819D02*
X39928571Y-33819819D01*
X39928571Y-33819819D02*
X39833333Y-33772200D01*
X39833333Y-33772200D02*
X39785714Y-33724580D01*
X39785714Y-33724580D02*
X39738095Y-33629342D01*
X39738095Y-33629342D02*
X39690476Y-33438866D01*
X39690476Y-33438866D02*
X39690476Y-33200771D01*
X39690476Y-33200771D02*
X39738095Y-33010295D01*
X39738095Y-33010295D02*
X39785714Y-32915057D01*
X39785714Y-32915057D02*
X39833333Y-32867438D01*
X39833333Y-32867438D02*
X39928571Y-32819819D01*
X4311133Y-22609524D02*
X4311133Y-23371429D01*
X3930180Y-22990476D02*
X4692085Y-22990476D01*
X4025419Y-25180952D02*
X3977800Y-25133333D01*
X3977800Y-25133333D02*
X3930180Y-24990476D01*
X3930180Y-24990476D02*
X3930180Y-24895238D01*
X3930180Y-24895238D02*
X3977800Y-24752381D01*
X3977800Y-24752381D02*
X4073038Y-24657143D01*
X4073038Y-24657143D02*
X4168276Y-24609524D01*
X4168276Y-24609524D02*
X4358752Y-24561905D01*
X4358752Y-24561905D02*
X4501609Y-24561905D01*
X4501609Y-24561905D02*
X4692085Y-24609524D01*
X4692085Y-24609524D02*
X4787323Y-24657143D01*
X4787323Y-24657143D02*
X4882561Y-24752381D01*
X4882561Y-24752381D02*
X4930180Y-24895238D01*
X4930180Y-24895238D02*
X4930180Y-24990476D01*
X4930180Y-24990476D02*
X4882561Y-25133333D01*
X4882561Y-25133333D02*
X4834942Y-25180952D01*
X4215895Y-25561905D02*
X4215895Y-26038095D01*
X3930180Y-25466667D02*
X4930180Y-25800000D01*
X4930180Y-25800000D02*
X3930180Y-26133333D01*
X3930180Y-26466667D02*
X4930180Y-26466667D01*
X4930180Y-26466667D02*
X4930180Y-26847619D01*
X4930180Y-26847619D02*
X4882561Y-26942857D01*
X4882561Y-26942857D02*
X4834942Y-26990476D01*
X4834942Y-26990476D02*
X4739704Y-27038095D01*
X4739704Y-27038095D02*
X4596847Y-27038095D01*
X4596847Y-27038095D02*
X4501609Y-26990476D01*
X4501609Y-26990476D02*
X4453990Y-26942857D01*
X4453990Y-26942857D02*
X4406371Y-26847619D01*
X4406371Y-26847619D02*
X4406371Y-26466667D01*
X4311133Y-28228572D02*
X4311133Y-28990477D01*
X4572200Y-38485713D02*
X4619819Y-38342856D01*
X4619819Y-38342856D02*
X4619819Y-38104761D01*
X4619819Y-38104761D02*
X4572200Y-38009523D01*
X4572200Y-38009523D02*
X4524580Y-37961904D01*
X4524580Y-37961904D02*
X4429342Y-37914285D01*
X4429342Y-37914285D02*
X4334104Y-37914285D01*
X4334104Y-37914285D02*
X4238866Y-37961904D01*
X4238866Y-37961904D02*
X4191247Y-38009523D01*
X4191247Y-38009523D02*
X4143628Y-38104761D01*
X4143628Y-38104761D02*
X4096009Y-38295237D01*
X4096009Y-38295237D02*
X4048390Y-38390475D01*
X4048390Y-38390475D02*
X4000771Y-38438094D01*
X4000771Y-38438094D02*
X3905533Y-38485713D01*
X3905533Y-38485713D02*
X3810295Y-38485713D01*
X3810295Y-38485713D02*
X3715057Y-38438094D01*
X3715057Y-38438094D02*
X3667438Y-38390475D01*
X3667438Y-38390475D02*
X3619819Y-38295237D01*
X3619819Y-38295237D02*
X3619819Y-38057142D01*
X3619819Y-38057142D02*
X3667438Y-37914285D01*
X4619819Y-37485713D02*
X3619819Y-37485713D01*
X3619819Y-37485713D02*
X3619819Y-37104761D01*
X3619819Y-37104761D02*
X3667438Y-37009523D01*
X3667438Y-37009523D02*
X3715057Y-36961904D01*
X3715057Y-36961904D02*
X3810295Y-36914285D01*
X3810295Y-36914285D02*
X3953152Y-36914285D01*
X3953152Y-36914285D02*
X4048390Y-36961904D01*
X4048390Y-36961904D02*
X4096009Y-37009523D01*
X4096009Y-37009523D02*
X4143628Y-37104761D01*
X4143628Y-37104761D02*
X4143628Y-37485713D01*
X4619819Y-36485713D02*
X3619819Y-36485713D01*
X4619819Y-35914285D02*
X4048390Y-36342856D01*
X3619819Y-35914285D02*
X4191247Y-36485713D01*
X4619819Y-34914285D02*
X4143628Y-35247618D01*
X4619819Y-35485713D02*
X3619819Y-35485713D01*
X3619819Y-35485713D02*
X3619819Y-35104761D01*
X3619819Y-35104761D02*
X3667438Y-35009523D01*
X3667438Y-35009523D02*
X3715057Y-34961904D01*
X3715057Y-34961904D02*
X3810295Y-34914285D01*
X3810295Y-34914285D02*
X3953152Y-34914285D01*
X3953152Y-34914285D02*
X4048390Y-34961904D01*
X4048390Y-34961904D02*
X4096009Y-35009523D01*
X4096009Y-35009523D02*
X4143628Y-35104761D01*
X4143628Y-35104761D02*
X4143628Y-35485713D01*
X4259523Y-33819819D02*
X3926190Y-33343628D01*
X3688095Y-33819819D02*
X3688095Y-32819819D01*
X3688095Y-32819819D02*
X4069047Y-32819819D01*
X4069047Y-32819819D02*
X4164285Y-32867438D01*
X4164285Y-32867438D02*
X4211904Y-32915057D01*
X4211904Y-32915057D02*
X4259523Y-33010295D01*
X4259523Y-33010295D02*
X4259523Y-33153152D01*
X4259523Y-33153152D02*
X4211904Y-33248390D01*
X4211904Y-33248390D02*
X4164285Y-33296009D01*
X4164285Y-33296009D02*
X4069047Y-33343628D01*
X4069047Y-33343628D02*
X3688095Y-33343628D01*
D11*
X34559999Y-29887247D02*
X34559999Y-28887247D01*
X34559999Y-28887247D02*
X34940951Y-28887247D01*
X34940951Y-28887247D02*
X35036189Y-28934866D01*
X35036189Y-28934866D02*
X35083808Y-28982485D01*
X35083808Y-28982485D02*
X35131427Y-29077723D01*
X35131427Y-29077723D02*
X35131427Y-29220580D01*
X35131427Y-29220580D02*
X35083808Y-29315818D01*
X35083808Y-29315818D02*
X35036189Y-29363437D01*
X35036189Y-29363437D02*
X34940951Y-29411056D01*
X34940951Y-29411056D02*
X34559999Y-29411056D01*
X35559999Y-29887247D02*
X35559999Y-29220580D01*
X35559999Y-28887247D02*
X35512380Y-28934866D01*
X35512380Y-28934866D02*
X35559999Y-28982485D01*
X35559999Y-28982485D02*
X35607618Y-28934866D01*
X35607618Y-28934866D02*
X35559999Y-28887247D01*
X35559999Y-28887247D02*
X35559999Y-28982485D01*
X36464760Y-29839628D02*
X36369522Y-29887247D01*
X36369522Y-29887247D02*
X36179046Y-29887247D01*
X36179046Y-29887247D02*
X36083808Y-29839628D01*
X36083808Y-29839628D02*
X36036189Y-29792008D01*
X36036189Y-29792008D02*
X35988570Y-29696770D01*
X35988570Y-29696770D02*
X35988570Y-29411056D01*
X35988570Y-29411056D02*
X36036189Y-29315818D01*
X36036189Y-29315818D02*
X36083808Y-29268199D01*
X36083808Y-29268199D02*
X36179046Y-29220580D01*
X36179046Y-29220580D02*
X36369522Y-29220580D01*
X36369522Y-29220580D02*
X36464760Y-29268199D01*
X37036189Y-29887247D02*
X36940951Y-29839628D01*
X36940951Y-29839628D02*
X36893332Y-29792008D01*
X36893332Y-29792008D02*
X36845713Y-29696770D01*
X36845713Y-29696770D02*
X36845713Y-29411056D01*
X36845713Y-29411056D02*
X36893332Y-29315818D01*
X36893332Y-29315818D02*
X36940951Y-29268199D01*
X36940951Y-29268199D02*
X37036189Y-29220580D01*
X37036189Y-29220580D02*
X37179046Y-29220580D01*
X37179046Y-29220580D02*
X37274284Y-29268199D01*
X37274284Y-29268199D02*
X37321903Y-29315818D01*
X37321903Y-29315818D02*
X37369522Y-29411056D01*
X37369522Y-29411056D02*
X37369522Y-29696770D01*
X37369522Y-29696770D02*
X37321903Y-29792008D01*
X37321903Y-29792008D02*
X37274284Y-29839628D01*
X37274284Y-29839628D02*
X37179046Y-29887247D01*
X37179046Y-29887247D02*
X37036189Y-29887247D01*
X38512380Y-28982485D02*
X38559999Y-28934866D01*
X38559999Y-28934866D02*
X38655237Y-28887247D01*
X38655237Y-28887247D02*
X38893332Y-28887247D01*
X38893332Y-28887247D02*
X38988570Y-28934866D01*
X38988570Y-28934866D02*
X39036189Y-28982485D01*
X39036189Y-28982485D02*
X39083808Y-29077723D01*
X39083808Y-29077723D02*
X39083808Y-29172961D01*
X39083808Y-29172961D02*
X39036189Y-29315818D01*
X39036189Y-29315818D02*
X38464761Y-29887247D01*
X38464761Y-29887247D02*
X39083808Y-29887247D01*
X40274285Y-29887247D02*
X40274285Y-28887247D01*
X40274285Y-28887247D02*
X40512380Y-28887247D01*
X40512380Y-28887247D02*
X40655237Y-28934866D01*
X40655237Y-28934866D02*
X40750475Y-29030104D01*
X40750475Y-29030104D02*
X40798094Y-29125342D01*
X40798094Y-29125342D02*
X40845713Y-29315818D01*
X40845713Y-29315818D02*
X40845713Y-29458675D01*
X40845713Y-29458675D02*
X40798094Y-29649151D01*
X40798094Y-29649151D02*
X40750475Y-29744389D01*
X40750475Y-29744389D02*
X40655237Y-29839628D01*
X40655237Y-29839628D02*
X40512380Y-29887247D01*
X40512380Y-29887247D02*
X40274285Y-29887247D01*
X41845713Y-29792008D02*
X41798094Y-29839628D01*
X41798094Y-29839628D02*
X41655237Y-29887247D01*
X41655237Y-29887247D02*
X41559999Y-29887247D01*
X41559999Y-29887247D02*
X41417142Y-29839628D01*
X41417142Y-29839628D02*
X41321904Y-29744389D01*
X41321904Y-29744389D02*
X41274285Y-29649151D01*
X41274285Y-29649151D02*
X41226666Y-29458675D01*
X41226666Y-29458675D02*
X41226666Y-29315818D01*
X41226666Y-29315818D02*
X41274285Y-29125342D01*
X41274285Y-29125342D02*
X41321904Y-29030104D01*
X41321904Y-29030104D02*
X41417142Y-28934866D01*
X41417142Y-28934866D02*
X41559999Y-28887247D01*
X41559999Y-28887247D02*
X41655237Y-28887247D01*
X41655237Y-28887247D02*
X41798094Y-28934866D01*
X41798094Y-28934866D02*
X41845713Y-28982485D01*
X42845713Y-29792008D02*
X42798094Y-29839628D01*
X42798094Y-29839628D02*
X42655237Y-29887247D01*
X42655237Y-29887247D02*
X42559999Y-29887247D01*
X42559999Y-29887247D02*
X42417142Y-29839628D01*
X42417142Y-29839628D02*
X42321904Y-29744389D01*
X42321904Y-29744389D02*
X42274285Y-29649151D01*
X42274285Y-29649151D02*
X42226666Y-29458675D01*
X42226666Y-29458675D02*
X42226666Y-29315818D01*
X42226666Y-29315818D02*
X42274285Y-29125342D01*
X42274285Y-29125342D02*
X42321904Y-29030104D01*
X42321904Y-29030104D02*
X42417142Y-28934866D01*
X42417142Y-28934866D02*
X42559999Y-28887247D01*
X42559999Y-28887247D02*
X42655237Y-28887247D01*
X42655237Y-28887247D02*
X42798094Y-28934866D01*
X42798094Y-28934866D02*
X42845713Y-28982485D01*
X44036190Y-29887247D02*
X44036190Y-28887247D01*
X44036190Y-28887247D02*
X44274285Y-28887247D01*
X44274285Y-28887247D02*
X44417142Y-28934866D01*
X44417142Y-28934866D02*
X44512380Y-29030104D01*
X44512380Y-29030104D02*
X44559999Y-29125342D01*
X44559999Y-29125342D02*
X44607618Y-29315818D01*
X44607618Y-29315818D02*
X44607618Y-29458675D01*
X44607618Y-29458675D02*
X44559999Y-29649151D01*
X44559999Y-29649151D02*
X44512380Y-29744389D01*
X44512380Y-29744389D02*
X44417142Y-29839628D01*
X44417142Y-29839628D02*
X44274285Y-29887247D01*
X44274285Y-29887247D02*
X44036190Y-29887247D01*
X45417142Y-29839628D02*
X45321904Y-29887247D01*
X45321904Y-29887247D02*
X45131428Y-29887247D01*
X45131428Y-29887247D02*
X45036190Y-29839628D01*
X45036190Y-29839628D02*
X44988571Y-29744389D01*
X44988571Y-29744389D02*
X44988571Y-29363437D01*
X44988571Y-29363437D02*
X45036190Y-29268199D01*
X45036190Y-29268199D02*
X45131428Y-29220580D01*
X45131428Y-29220580D02*
X45321904Y-29220580D01*
X45321904Y-29220580D02*
X45417142Y-29268199D01*
X45417142Y-29268199D02*
X45464761Y-29363437D01*
X45464761Y-29363437D02*
X45464761Y-29458675D01*
X45464761Y-29458675D02*
X44988571Y-29553913D01*
X46321904Y-29839628D02*
X46226666Y-29887247D01*
X46226666Y-29887247D02*
X46036190Y-29887247D01*
X46036190Y-29887247D02*
X45940952Y-29839628D01*
X45940952Y-29839628D02*
X45893333Y-29792008D01*
X45893333Y-29792008D02*
X45845714Y-29696770D01*
X45845714Y-29696770D02*
X45845714Y-29411056D01*
X45845714Y-29411056D02*
X45893333Y-29315818D01*
X45893333Y-29315818D02*
X45940952Y-29268199D01*
X45940952Y-29268199D02*
X46036190Y-29220580D01*
X46036190Y-29220580D02*
X46226666Y-29220580D01*
X46226666Y-29220580D02*
X46321904Y-29268199D01*
X46893333Y-29887247D02*
X46798095Y-29839628D01*
X46798095Y-29839628D02*
X46750476Y-29792008D01*
X46750476Y-29792008D02*
X46702857Y-29696770D01*
X46702857Y-29696770D02*
X46702857Y-29411056D01*
X46702857Y-29411056D02*
X46750476Y-29315818D01*
X46750476Y-29315818D02*
X46798095Y-29268199D01*
X46798095Y-29268199D02*
X46893333Y-29220580D01*
X46893333Y-29220580D02*
X47036190Y-29220580D01*
X47036190Y-29220580D02*
X47131428Y-29268199D01*
X47131428Y-29268199D02*
X47179047Y-29315818D01*
X47179047Y-29315818D02*
X47226666Y-29411056D01*
X47226666Y-29411056D02*
X47226666Y-29696770D01*
X47226666Y-29696770D02*
X47179047Y-29792008D01*
X47179047Y-29792008D02*
X47131428Y-29839628D01*
X47131428Y-29839628D02*
X47036190Y-29887247D01*
X47036190Y-29887247D02*
X46893333Y-29887247D01*
X48083809Y-29887247D02*
X48083809Y-28887247D01*
X48083809Y-29839628D02*
X47988571Y-29887247D01*
X47988571Y-29887247D02*
X47798095Y-29887247D01*
X47798095Y-29887247D02*
X47702857Y-29839628D01*
X47702857Y-29839628D02*
X47655238Y-29792008D01*
X47655238Y-29792008D02*
X47607619Y-29696770D01*
X47607619Y-29696770D02*
X47607619Y-29411056D01*
X47607619Y-29411056D02*
X47655238Y-29315818D01*
X47655238Y-29315818D02*
X47702857Y-29268199D01*
X47702857Y-29268199D02*
X47798095Y-29220580D01*
X47798095Y-29220580D02*
X47988571Y-29220580D01*
X47988571Y-29220580D02*
X48083809Y-29268199D01*
X48940952Y-29839628D02*
X48845714Y-29887247D01*
X48845714Y-29887247D02*
X48655238Y-29887247D01*
X48655238Y-29887247D02*
X48560000Y-29839628D01*
X48560000Y-29839628D02*
X48512381Y-29744389D01*
X48512381Y-29744389D02*
X48512381Y-29363437D01*
X48512381Y-29363437D02*
X48560000Y-29268199D01*
X48560000Y-29268199D02*
X48655238Y-29220580D01*
X48655238Y-29220580D02*
X48845714Y-29220580D01*
X48845714Y-29220580D02*
X48940952Y-29268199D01*
X48940952Y-29268199D02*
X48988571Y-29363437D01*
X48988571Y-29363437D02*
X48988571Y-29458675D01*
X48988571Y-29458675D02*
X48512381Y-29553913D01*
X49417143Y-29887247D02*
X49417143Y-29220580D01*
X49417143Y-29411056D02*
X49464762Y-29315818D01*
X49464762Y-29315818D02*
X49512381Y-29268199D01*
X49512381Y-29268199D02*
X49607619Y-29220580D01*
X49607619Y-29220580D02*
X49702857Y-29220580D01*
X35893333Y-30497191D02*
X36464761Y-30497191D01*
X36179047Y-31497191D02*
X36179047Y-30497191D01*
X37179047Y-31449572D02*
X37083809Y-31497191D01*
X37083809Y-31497191D02*
X36893333Y-31497191D01*
X36893333Y-31497191D02*
X36798095Y-31449572D01*
X36798095Y-31449572D02*
X36750476Y-31354333D01*
X36750476Y-31354333D02*
X36750476Y-30973381D01*
X36750476Y-30973381D02*
X36798095Y-30878143D01*
X36798095Y-30878143D02*
X36893333Y-30830524D01*
X36893333Y-30830524D02*
X37083809Y-30830524D01*
X37083809Y-30830524D02*
X37179047Y-30878143D01*
X37179047Y-30878143D02*
X37226666Y-30973381D01*
X37226666Y-30973381D02*
X37226666Y-31068619D01*
X37226666Y-31068619D02*
X36750476Y-31163857D01*
X37607619Y-31449572D02*
X37702857Y-31497191D01*
X37702857Y-31497191D02*
X37893333Y-31497191D01*
X37893333Y-31497191D02*
X37988571Y-31449572D01*
X37988571Y-31449572D02*
X38036190Y-31354333D01*
X38036190Y-31354333D02*
X38036190Y-31306714D01*
X38036190Y-31306714D02*
X37988571Y-31211476D01*
X37988571Y-31211476D02*
X37893333Y-31163857D01*
X37893333Y-31163857D02*
X37750476Y-31163857D01*
X37750476Y-31163857D02*
X37655238Y-31116238D01*
X37655238Y-31116238D02*
X37607619Y-31021000D01*
X37607619Y-31021000D02*
X37607619Y-30973381D01*
X37607619Y-30973381D02*
X37655238Y-30878143D01*
X37655238Y-30878143D02*
X37750476Y-30830524D01*
X37750476Y-30830524D02*
X37893333Y-30830524D01*
X37893333Y-30830524D02*
X37988571Y-30878143D01*
X38321905Y-30830524D02*
X38702857Y-30830524D01*
X38464762Y-30497191D02*
X38464762Y-31354333D01*
X38464762Y-31354333D02*
X38512381Y-31449572D01*
X38512381Y-31449572D02*
X38607619Y-31497191D01*
X38607619Y-31497191D02*
X38702857Y-31497191D01*
X39798096Y-31497191D02*
X39798096Y-30497191D01*
X39798096Y-30497191D02*
X40131429Y-31211476D01*
X40131429Y-31211476D02*
X40464762Y-30497191D01*
X40464762Y-30497191D02*
X40464762Y-31497191D01*
X41369524Y-30830524D02*
X41369524Y-31497191D01*
X40940953Y-30830524D02*
X40940953Y-31354333D01*
X40940953Y-31354333D02*
X40988572Y-31449572D01*
X40988572Y-31449572D02*
X41083810Y-31497191D01*
X41083810Y-31497191D02*
X41226667Y-31497191D01*
X41226667Y-31497191D02*
X41321905Y-31449572D01*
X41321905Y-31449572D02*
X41369524Y-31401952D01*
X41988572Y-31497191D02*
X41893334Y-31449572D01*
X41893334Y-31449572D02*
X41845715Y-31354333D01*
X41845715Y-31354333D02*
X41845715Y-30497191D01*
X42750477Y-31449572D02*
X42655239Y-31497191D01*
X42655239Y-31497191D02*
X42464763Y-31497191D01*
X42464763Y-31497191D02*
X42369525Y-31449572D01*
X42369525Y-31449572D02*
X42321906Y-31354333D01*
X42321906Y-31354333D02*
X42321906Y-30973381D01*
X42321906Y-30973381D02*
X42369525Y-30878143D01*
X42369525Y-30878143D02*
X42464763Y-30830524D01*
X42464763Y-30830524D02*
X42655239Y-30830524D01*
X42655239Y-30830524D02*
X42750477Y-30878143D01*
X42750477Y-30878143D02*
X42798096Y-30973381D01*
X42798096Y-30973381D02*
X42798096Y-31068619D01*
X42798096Y-31068619D02*
X42321906Y-31163857D01*
X43893335Y-30830524D02*
X44131430Y-31497191D01*
X44131430Y-31497191D02*
X44369525Y-30830524D01*
X44940954Y-30497191D02*
X45036192Y-30497191D01*
X45036192Y-30497191D02*
X45131430Y-30544810D01*
X45131430Y-30544810D02*
X45179049Y-30592429D01*
X45179049Y-30592429D02*
X45226668Y-30687667D01*
X45226668Y-30687667D02*
X45274287Y-30878143D01*
X45274287Y-30878143D02*
X45274287Y-31116238D01*
X45274287Y-31116238D02*
X45226668Y-31306714D01*
X45226668Y-31306714D02*
X45179049Y-31401952D01*
X45179049Y-31401952D02*
X45131430Y-31449572D01*
X45131430Y-31449572D02*
X45036192Y-31497191D01*
X45036192Y-31497191D02*
X44940954Y-31497191D01*
X44940954Y-31497191D02*
X44845716Y-31449572D01*
X44845716Y-31449572D02*
X44798097Y-31401952D01*
X44798097Y-31401952D02*
X44750478Y-31306714D01*
X44750478Y-31306714D02*
X44702859Y-31116238D01*
X44702859Y-31116238D02*
X44702859Y-30878143D01*
X44702859Y-30878143D02*
X44750478Y-30687667D01*
X44750478Y-30687667D02*
X44798097Y-30592429D01*
X44798097Y-30592429D02*
X44845716Y-30544810D01*
X44845716Y-30544810D02*
X44940954Y-30497191D01*
X45702859Y-31401952D02*
X45750478Y-31449572D01*
X45750478Y-31449572D02*
X45702859Y-31497191D01*
X45702859Y-31497191D02*
X45655240Y-31449572D01*
X45655240Y-31449572D02*
X45702859Y-31401952D01*
X45702859Y-31401952D02*
X45702859Y-31497191D01*
X46702858Y-31497191D02*
X46131430Y-31497191D01*
X46417144Y-31497191D02*
X46417144Y-30497191D01*
X46417144Y-30497191D02*
X46321906Y-30640048D01*
X46321906Y-30640048D02*
X46226668Y-30735286D01*
X46226668Y-30735286D02*
X46131430Y-30782905D01*
X47131430Y-31401952D02*
X47179049Y-31449572D01*
X47179049Y-31449572D02*
X47131430Y-31497191D01*
X47131430Y-31497191D02*
X47083811Y-31449572D01*
X47083811Y-31449572D02*
X47131430Y-31401952D01*
X47131430Y-31401952D02*
X47131430Y-31497191D01*
X47798096Y-30497191D02*
X47893334Y-30497191D01*
X47893334Y-30497191D02*
X47988572Y-30544810D01*
X47988572Y-30544810D02*
X48036191Y-30592429D01*
X48036191Y-30592429D02*
X48083810Y-30687667D01*
X48083810Y-30687667D02*
X48131429Y-30878143D01*
X48131429Y-30878143D02*
X48131429Y-31116238D01*
X48131429Y-31116238D02*
X48083810Y-31306714D01*
X48083810Y-31306714D02*
X48036191Y-31401952D01*
X48036191Y-31401952D02*
X47988572Y-31449572D01*
X47988572Y-31449572D02*
X47893334Y-31497191D01*
X47893334Y-31497191D02*
X47798096Y-31497191D01*
X47798096Y-31497191D02*
X47702858Y-31449572D01*
X47702858Y-31449572D02*
X47655239Y-31401952D01*
X47655239Y-31401952D02*
X47607620Y-31306714D01*
X47607620Y-31306714D02*
X47560001Y-31116238D01*
X47560001Y-31116238D02*
X47560001Y-30878143D01*
X47560001Y-30878143D02*
X47607620Y-30687667D01*
X47607620Y-30687667D02*
X47655239Y-30592429D01*
X47655239Y-30592429D02*
X47702858Y-30544810D01*
X47702858Y-30544810D02*
X47798096Y-30497191D01*
D10*
X41859523Y-33819819D02*
X41288095Y-33819819D01*
X41573809Y-33819819D02*
X41573809Y-32819819D01*
X41573809Y-32819819D02*
X41478571Y-32962676D01*
X41478571Y-32962676D02*
X41383333Y-33057914D01*
X41383333Y-33057914D02*
X41288095Y-33105533D01*
X42811904Y-33819819D02*
X42240476Y-33819819D01*
X42526190Y-33819819D02*
X42526190Y-32819819D01*
X42526190Y-32819819D02*
X42430952Y-32962676D01*
X42430952Y-32962676D02*
X42335714Y-33057914D01*
X42335714Y-33057914D02*
X42240476Y-33105533D01*
X33716667Y-41438866D02*
X34478572Y-41438866D01*
X34097619Y-41819819D02*
X34097619Y-41057914D01*
X36288095Y-41819819D02*
X35954762Y-41343628D01*
X35716667Y-41819819D02*
X35716667Y-40819819D01*
X35716667Y-40819819D02*
X36097619Y-40819819D01*
X36097619Y-40819819D02*
X36192857Y-40867438D01*
X36192857Y-40867438D02*
X36240476Y-40915057D01*
X36240476Y-40915057D02*
X36288095Y-41010295D01*
X36288095Y-41010295D02*
X36288095Y-41153152D01*
X36288095Y-41153152D02*
X36240476Y-41248390D01*
X36240476Y-41248390D02*
X36192857Y-41296009D01*
X36192857Y-41296009D02*
X36097619Y-41343628D01*
X36097619Y-41343628D02*
X35716667Y-41343628D01*
X36669048Y-41534104D02*
X37145238Y-41534104D01*
X36573810Y-41819819D02*
X36907143Y-40819819D01*
X36907143Y-40819819D02*
X37240476Y-41819819D01*
X37573810Y-41819819D02*
X37573810Y-40819819D01*
X38526190Y-41819819D02*
X38050000Y-41819819D01*
X38050000Y-41819819D02*
X38050000Y-40819819D01*
X39621429Y-41438866D02*
X40383334Y-41438866D01*
X44359523Y-33819819D02*
X43788095Y-33819819D01*
X44073809Y-33819819D02*
X44073809Y-32819819D01*
X44073809Y-32819819D02*
X43978571Y-32962676D01*
X43978571Y-32962676D02*
X43883333Y-33057914D01*
X43883333Y-33057914D02*
X43788095Y-33105533D01*
X44740476Y-32915057D02*
X44788095Y-32867438D01*
X44788095Y-32867438D02*
X44883333Y-32819819D01*
X44883333Y-32819819D02*
X45121428Y-32819819D01*
X45121428Y-32819819D02*
X45216666Y-32867438D01*
X45216666Y-32867438D02*
X45264285Y-32915057D01*
X45264285Y-32915057D02*
X45311904Y-33010295D01*
X45311904Y-33010295D02*
X45311904Y-33105533D01*
X45311904Y-33105533D02*
X45264285Y-33248390D01*
X45264285Y-33248390D02*
X44692857Y-33819819D01*
X44692857Y-33819819D02*
X45311904Y-33819819D01*
X41509524Y-41438866D02*
X42271429Y-41438866D01*
X41890476Y-41819819D02*
X41890476Y-41057914D01*
X43366667Y-40819819D02*
X43700000Y-41819819D01*
X43700000Y-41819819D02*
X44033333Y-40819819D01*
X44938095Y-41724580D02*
X44890476Y-41772200D01*
X44890476Y-41772200D02*
X44747619Y-41819819D01*
X44747619Y-41819819D02*
X44652381Y-41819819D01*
X44652381Y-41819819D02*
X44509524Y-41772200D01*
X44509524Y-41772200D02*
X44414286Y-41676961D01*
X44414286Y-41676961D02*
X44366667Y-41581723D01*
X44366667Y-41581723D02*
X44319048Y-41391247D01*
X44319048Y-41391247D02*
X44319048Y-41248390D01*
X44319048Y-41248390D02*
X44366667Y-41057914D01*
X44366667Y-41057914D02*
X44414286Y-40962676D01*
X44414286Y-40962676D02*
X44509524Y-40867438D01*
X44509524Y-40867438D02*
X44652381Y-40819819D01*
X44652381Y-40819819D02*
X44747619Y-40819819D01*
X44747619Y-40819819D02*
X44890476Y-40867438D01*
X44890476Y-40867438D02*
X44938095Y-40915057D01*
X45938095Y-41724580D02*
X45890476Y-41772200D01*
X45890476Y-41772200D02*
X45747619Y-41819819D01*
X45747619Y-41819819D02*
X45652381Y-41819819D01*
X45652381Y-41819819D02*
X45509524Y-41772200D01*
X45509524Y-41772200D02*
X45414286Y-41676961D01*
X45414286Y-41676961D02*
X45366667Y-41581723D01*
X45366667Y-41581723D02*
X45319048Y-41391247D01*
X45319048Y-41391247D02*
X45319048Y-41248390D01*
X45319048Y-41248390D02*
X45366667Y-41057914D01*
X45366667Y-41057914D02*
X45414286Y-40962676D01*
X45414286Y-40962676D02*
X45509524Y-40867438D01*
X45509524Y-40867438D02*
X45652381Y-40819819D01*
X45652381Y-40819819D02*
X45747619Y-40819819D01*
X45747619Y-40819819D02*
X45890476Y-40867438D01*
X45890476Y-40867438D02*
X45938095Y-40915057D01*
X47128572Y-41438866D02*
X47890477Y-41438866D01*
X37140476Y-33153152D02*
X37140476Y-33819819D01*
X36902381Y-32772200D02*
X36664286Y-33486485D01*
X36664286Y-33486485D02*
X37283333Y-33486485D01*
X4259523Y-31319819D02*
X3783333Y-31319819D01*
X3783333Y-31319819D02*
X3783333Y-30319819D01*
X30638095Y-27238866D02*
X31400000Y-27238866D01*
X31019047Y-27619819D02*
X31019047Y-26857914D01*
X32638095Y-27619819D02*
X32638095Y-26619819D01*
X32638095Y-26619819D02*
X32971428Y-27334104D01*
X32971428Y-27334104D02*
X33304761Y-26619819D01*
X33304761Y-26619819D02*
X33304761Y-27619819D01*
X33971428Y-26619819D02*
X34161904Y-26619819D01*
X34161904Y-26619819D02*
X34257142Y-26667438D01*
X34257142Y-26667438D02*
X34352380Y-26762676D01*
X34352380Y-26762676D02*
X34399999Y-26953152D01*
X34399999Y-26953152D02*
X34399999Y-27286485D01*
X34399999Y-27286485D02*
X34352380Y-27476961D01*
X34352380Y-27476961D02*
X34257142Y-27572200D01*
X34257142Y-27572200D02*
X34161904Y-27619819D01*
X34161904Y-27619819D02*
X33971428Y-27619819D01*
X33971428Y-27619819D02*
X33876190Y-27572200D01*
X33876190Y-27572200D02*
X33780952Y-27476961D01*
X33780952Y-27476961D02*
X33733333Y-27286485D01*
X33733333Y-27286485D02*
X33733333Y-26953152D01*
X33733333Y-26953152D02*
X33780952Y-26762676D01*
X33780952Y-26762676D02*
X33876190Y-26667438D01*
X33876190Y-26667438D02*
X33971428Y-26619819D01*
X34685714Y-26619819D02*
X35257142Y-26619819D01*
X34971428Y-27619819D02*
X34971428Y-26619819D01*
X35780952Y-26619819D02*
X35971428Y-26619819D01*
X35971428Y-26619819D02*
X36066666Y-26667438D01*
X36066666Y-26667438D02*
X36161904Y-26762676D01*
X36161904Y-26762676D02*
X36209523Y-26953152D01*
X36209523Y-26953152D02*
X36209523Y-27286485D01*
X36209523Y-27286485D02*
X36161904Y-27476961D01*
X36161904Y-27476961D02*
X36066666Y-27572200D01*
X36066666Y-27572200D02*
X35971428Y-27619819D01*
X35971428Y-27619819D02*
X35780952Y-27619819D01*
X35780952Y-27619819D02*
X35685714Y-27572200D01*
X35685714Y-27572200D02*
X35590476Y-27476961D01*
X35590476Y-27476961D02*
X35542857Y-27286485D01*
X35542857Y-27286485D02*
X35542857Y-26953152D01*
X35542857Y-26953152D02*
X35590476Y-26762676D01*
X35590476Y-26762676D02*
X35685714Y-26667438D01*
X35685714Y-26667438D02*
X35780952Y-26619819D01*
X37209523Y-27619819D02*
X36876190Y-27143628D01*
X36638095Y-27619819D02*
X36638095Y-26619819D01*
X36638095Y-26619819D02*
X37019047Y-26619819D01*
X37019047Y-26619819D02*
X37114285Y-26667438D01*
X37114285Y-26667438D02*
X37161904Y-26715057D01*
X37161904Y-26715057D02*
X37209523Y-26810295D01*
X37209523Y-26810295D02*
X37209523Y-26953152D01*
X37209523Y-26953152D02*
X37161904Y-27048390D01*
X37161904Y-27048390D02*
X37114285Y-27096009D01*
X37114285Y-27096009D02*
X37019047Y-27143628D01*
X37019047Y-27143628D02*
X36638095Y-27143628D01*
X38400000Y-27238866D02*
X39161905Y-27238866D01*
X31985714Y-33534104D02*
X32461904Y-33534104D01*
X31890476Y-33819819D02*
X32223809Y-32819819D01*
X32223809Y-32819819D02*
X32557142Y-33819819D01*
X32890476Y-32819819D02*
X32890476Y-33629342D01*
X32890476Y-33629342D02*
X32938095Y-33724580D01*
X32938095Y-33724580D02*
X32985714Y-33772200D01*
X32985714Y-33772200D02*
X33080952Y-33819819D01*
X33080952Y-33819819D02*
X33271428Y-33819819D01*
X33271428Y-33819819D02*
X33366666Y-33772200D01*
X33366666Y-33772200D02*
X33414285Y-33724580D01*
X33414285Y-33724580D02*
X33461904Y-33629342D01*
X33461904Y-33629342D02*
X33461904Y-32819819D01*
X33842857Y-32819819D02*
X34509523Y-33819819D01*
X34509523Y-32819819D02*
X33842857Y-33819819D01*
X34795238Y-32819819D02*
X35414285Y-32819819D01*
X35414285Y-32819819D02*
X35080952Y-33200771D01*
X35080952Y-33200771D02*
X35223809Y-33200771D01*
X35223809Y-33200771D02*
X35319047Y-33248390D01*
X35319047Y-33248390D02*
X35366666Y-33296009D01*
X35366666Y-33296009D02*
X35414285Y-33391247D01*
X35414285Y-33391247D02*
X35414285Y-33629342D01*
X35414285Y-33629342D02*
X35366666Y-33724580D01*
X35366666Y-33724580D02*
X35319047Y-33772200D01*
X35319047Y-33772200D02*
X35223809Y-33819819D01*
X35223809Y-33819819D02*
X34938095Y-33819819D01*
X34938095Y-33819819D02*
X34842857Y-33772200D01*
X34842857Y-33772200D02*
X34795238Y-33724580D01*
X50282319Y1284280D02*
X51091842Y1284280D01*
X51091842Y1284280D02*
X51187080Y1331899D01*
X51187080Y1331899D02*
X51234700Y1379518D01*
X51234700Y1379518D02*
X51282319Y1474756D01*
X51282319Y1474756D02*
X51282319Y1665232D01*
X51282319Y1665232D02*
X51234700Y1760470D01*
X51234700Y1760470D02*
X51187080Y1808089D01*
X51187080Y1808089D02*
X51091842Y1855708D01*
X51091842Y1855708D02*
X50282319Y1855708D01*
X50282319Y2236661D02*
X50282319Y2903327D01*
X50282319Y2903327D02*
X51282319Y2474756D01*
D12*
G04 #@! TO.C,L1*
X18810000Y-25595000D02*
X18810000Y-25015000D01*
X21000000Y-25015000D02*
X21000000Y-25595000D01*
D13*
G04 #@! TO.C,Q4*
X28440000Y-27200000D02*
X28440000Y-27790000D01*
X29860000Y-27200000D02*
X29860000Y-28000000D01*
X28440000Y-28380000D02*
X28160000Y-28100000D01*
X28440000Y-28100000D01*
X28440000Y-28380000D01*
G36*
X28440000Y-28380000D02*
G01*
X28160000Y-28100000D01*
X28440000Y-28100000D01*
X28440000Y-28380000D01*
G37*
G04 #@! TO.C,R8*
X28770000Y-29753641D02*
X28770000Y-29446359D01*
X29530000Y-29753641D02*
X29530000Y-29446359D01*
G04 #@! TO.C,R7*
X27720000Y-29753641D02*
X27720000Y-29446359D01*
X28480000Y-29753641D02*
X28480000Y-29446359D01*
G04 #@! TO.C,RN2*
X14910000Y-36872500D02*
X14910000Y-36372500D01*
X17190000Y-36872500D02*
X17190000Y-36372500D01*
G04 #@! TO.C,D12*
X16140000Y-38735000D02*
X16140000Y-41020000D01*
X16140000Y-41020000D02*
X17610000Y-41020000D01*
X17610000Y-41020000D02*
X17610000Y-38735000D01*
G04 #@! TO.C,D15*
X23115000Y-38735000D02*
X23115000Y-41020000D01*
X23115000Y-41020000D02*
X24585000Y-41020000D01*
X24585000Y-41020000D02*
X24585000Y-38735000D01*
G04 #@! TO.C,C1*
X11107836Y-27090000D02*
X10892164Y-27090000D01*
X11107836Y-27810000D02*
X10892164Y-27810000D01*
G04 #@! TO.C,D11*
X13815000Y-38735000D02*
X13815000Y-41020000D01*
X13815000Y-41020000D02*
X15285000Y-41020000D01*
X15285000Y-41020000D02*
X15285000Y-38735000D01*
G04 #@! TO.C,Q13*
X26890000Y-35722500D02*
X26890000Y-35072500D01*
X26890000Y-35722500D02*
X26890000Y-36372500D01*
X30010000Y-35722500D02*
X30010000Y-35072500D01*
X30010000Y-35722500D02*
X30010000Y-36372500D01*
X30290000Y-34800000D02*
X29960000Y-34560000D01*
X30290000Y-34320000D01*
X30290000Y-34800000D01*
G36*
X30290000Y-34800000D02*
G01*
X29960000Y-34560000D01*
X30290000Y-34320000D01*
X30290000Y-34800000D01*
G37*
D12*
G04 #@! TO.C,Q1*
X20410000Y-22660000D02*
X20410000Y-22060000D01*
X21550000Y-22060000D02*
X21550000Y-22660000D01*
X20470000Y-22830000D02*
G75*
G02*
X20390000Y-22830000I-40000J0D01*
G01*
X20390000Y-22830000D02*
G75*
G02*
X20470000Y-22830000I40000J0D01*
G01*
D13*
G04 #@! TO.C,C20*
X20742164Y-28040000D02*
X20957836Y-28040000D01*
X20742164Y-28760000D02*
X20957836Y-28760000D01*
G04 #@! TO.C,RN1*
X5510000Y-36885000D02*
X5510000Y-36385000D01*
X7790000Y-36885000D02*
X7790000Y-36385000D01*
G04 #@! TO.C,J4*
X35630000Y-40615000D02*
X35630000Y-39285000D01*
X36960000Y-40615000D02*
X35630000Y-40615000D01*
X38230000Y-37955000D02*
X45910000Y-37955000D01*
X38230000Y-40615000D02*
X38230000Y-37955000D01*
X38230000Y-40615000D02*
X45910000Y-40615000D01*
X45910000Y-40615000D02*
X45910000Y-37955000D01*
D10*
G04 #@! TO.C,U1*
X10100000Y-25000000D02*
X11900000Y-25000000D01*
X10100000Y-26800000D02*
X11900000Y-26800000D01*
D12*
X12300000Y-26500000D02*
G75*
G02*
X12100000Y-26500000I-100000J0D01*
G01*
X12100000Y-26500000D02*
G75*
G02*
X12300000Y-26500000I100000J0D01*
G01*
D13*
G04 #@! TO.C,R11*
X31920000Y-29446359D02*
X31920000Y-29753641D01*
X32680000Y-29446359D02*
X32680000Y-29753641D01*
D10*
G04 #@! TO.C,D2*
X4527500Y-33437500D02*
X4657500Y-33437500D01*
X4527500Y-34697500D02*
X4527500Y-33437500D01*
X4657500Y-33437500D02*
X4777500Y-33437500D01*
X4657500Y-34697500D02*
X4527500Y-34697500D01*
X4657500Y-34697500D02*
X4657500Y-33437500D01*
X4777500Y-34697500D02*
X4657500Y-34697500D01*
D13*
G04 #@! TO.C,U7*
X452500Y-800000D02*
X452500Y-3290000D01*
X452500Y-3290000D02*
X1366020Y-3290000D01*
X452500Y-4637939D02*
X452500Y-3290000D01*
X452500Y-6565000D02*
X452500Y-5562061D01*
X452500Y-16037939D02*
X452500Y-15035000D01*
X452500Y-18310000D02*
X452500Y-16962060D01*
X452500Y-18310000D02*
X1366020Y-18310000D01*
X452500Y-20800000D02*
X452500Y-18310000D01*
X515500Y-21070000D02*
X51609500Y-21070000D01*
X1062500Y-190000D02*
X51062500Y-190000D01*
X1062500Y-21410000D02*
X51062500Y-21410000D01*
X2732500Y-21730000D02*
X1132500Y-21730000D01*
X3758980Y-3290000D02*
X48366020Y-3290000D01*
X3758980Y-18310000D02*
X48366020Y-18310000D01*
X50758980Y-3290000D02*
X51672500Y-3290000D01*
X50758980Y-18310000D02*
X51672500Y-18310000D01*
X51609500Y-530000D02*
X515500Y-530000D01*
X51672500Y-4637939D02*
X51672500Y-800000D01*
X51672500Y-5562061D02*
X51672500Y-7200000D01*
X51672500Y-7200000D02*
X51672500Y-14400000D01*
X51672500Y-14400000D02*
X51672500Y-16037939D01*
X51672500Y-20800000D02*
X51672500Y-16962061D01*
X452500Y-800000D02*
G75*
G02*
X1062500Y-190000I610000J0D01*
G01*
X1062500Y-21410000D02*
G75*
G02*
X452500Y-20800000I0J610000D01*
G01*
X51062500Y-190000D02*
G75*
G02*
X51672500Y-800000I0J-610000D01*
G01*
X51672500Y-20800000D02*
G75*
G02*
X51062500Y-21410000I-609901J-99D01*
G01*
D10*
G04 #@! TO.C,D1*
X4527500Y-30662500D02*
X4657500Y-30662500D01*
X4527500Y-31922500D02*
X4527500Y-30662500D01*
X4657500Y-30662500D02*
X4777500Y-30662500D01*
X4657500Y-31922500D02*
X4527500Y-31922500D01*
X4657500Y-31922500D02*
X4657500Y-30662500D01*
X4777500Y-31922500D02*
X4657500Y-31922500D01*
G04 #@! TO.C,D4*
X6917500Y-32037500D02*
X7037500Y-32037500D01*
X7037500Y-32037500D02*
X7037500Y-33297500D01*
X7037500Y-32037500D02*
X7167500Y-32037500D01*
X7037500Y-33297500D02*
X6917500Y-33297500D01*
X7167500Y-32037500D02*
X7167500Y-33297500D01*
X7167500Y-33297500D02*
X7037500Y-33297500D01*
D13*
G04 #@! TO.C,RN3*
X24310000Y-36872500D02*
X24310000Y-36372500D01*
X26590000Y-36872500D02*
X26590000Y-36372500D01*
G04 #@! TO.C,R19*
X20696359Y-31820000D02*
X21003641Y-31820000D01*
X20696359Y-32580000D02*
X21003641Y-32580000D01*
G04 #@! TO.C,C17*
X17430000Y-29588748D02*
X17430000Y-31011252D01*
X19250000Y-29588748D02*
X19250000Y-31011252D01*
G04 #@! TO.C,R5*
X30870000Y-36481359D02*
X30870000Y-36788641D01*
X31630000Y-36481359D02*
X31630000Y-36788641D01*
G04 #@! TO.C,D13*
X18465000Y-38735000D02*
X18465000Y-41020000D01*
X18465000Y-41020000D02*
X19935000Y-41020000D01*
X19935000Y-41020000D02*
X19935000Y-38735000D01*
G04 #@! TO.C,R2*
X8713641Y-25020000D02*
X8406359Y-25020000D01*
X8713641Y-25780000D02*
X8406359Y-25780000D01*
G04 #@! TO.C,J2*
X820000Y-35870000D02*
X2150000Y-35870000D01*
X820000Y-37200000D02*
X820000Y-35870000D01*
X820000Y-38470000D02*
X820000Y-41070000D01*
X820000Y-38470000D02*
X3480000Y-38470000D01*
X820000Y-41070000D02*
X3480000Y-41070000D01*
X3480000Y-38470000D02*
X3480000Y-41070000D01*
G04 #@! TO.C,D19*
X32415000Y-38735000D02*
X32415000Y-41020000D01*
X32415000Y-41020000D02*
X33885000Y-41020000D01*
X33885000Y-41020000D02*
X33885000Y-38735000D01*
G04 #@! TO.C,C7*
X21290000Y-25445580D02*
X21290000Y-25164420D01*
X22310000Y-25445580D02*
X22310000Y-25164420D01*
G04 #@! TO.C,Q3*
X28440000Y-32050000D02*
X28440000Y-31250000D01*
X29860000Y-32050000D02*
X29860000Y-31460000D01*
X30140000Y-31150000D02*
X29860000Y-31150000D01*
X29860000Y-30870000D01*
X30140000Y-31150000D01*
G36*
X30140000Y-31150000D02*
G01*
X29860000Y-31150000D01*
X29860000Y-30870000D01*
X30140000Y-31150000D01*
G37*
G04 #@! TO.C,J6*
X820000Y-29570000D02*
X2150000Y-29570000D01*
X820000Y-30900000D02*
X820000Y-29570000D01*
X820000Y-32170000D02*
X820000Y-34770000D01*
X820000Y-32170000D02*
X3480000Y-32170000D01*
X820000Y-34770000D02*
X3480000Y-34770000D01*
X3480000Y-32170000D02*
X3480000Y-34770000D01*
G04 #@! TO.C,R17*
X20696359Y-28970000D02*
X21003641Y-28970000D01*
X20696359Y-29730000D02*
X21003641Y-29730000D01*
G04 #@! TO.C,D9*
X9165000Y-38735000D02*
X9165000Y-41020000D01*
X9165000Y-41020000D02*
X10635000Y-41020000D01*
X10635000Y-41020000D02*
X10635000Y-38735000D01*
G04 #@! TO.C,R16*
X20696359Y-29920000D02*
X21003641Y-29920000D01*
X20696359Y-30680000D02*
X21003641Y-30680000D01*
G04 #@! TO.C,J8*
X32295000Y-26280000D02*
X32295000Y-24950000D01*
X33625000Y-26280000D02*
X32295000Y-26280000D01*
X34895000Y-23620000D02*
X37495000Y-23620000D01*
X34895000Y-26280000D02*
X34895000Y-23620000D01*
X34895000Y-26280000D02*
X37495000Y-26280000D01*
X37495000Y-26280000D02*
X37495000Y-23620000D01*
G04 #@! TO.C,R4*
X8713641Y-26970000D02*
X8406359Y-26970000D01*
X8713641Y-27730000D02*
X8406359Y-27730000D01*
G04 #@! TO.C,Q10*
X11490000Y-36122500D02*
X11490000Y-35472500D01*
X11490000Y-36122500D02*
X11490000Y-36772500D01*
X14610000Y-36122500D02*
X14610000Y-35472500D01*
X14610000Y-36122500D02*
X14610000Y-36772500D01*
X14890000Y-35200000D02*
X14560000Y-34960000D01*
X14890000Y-34720000D01*
X14890000Y-35200000D01*
G36*
X14890000Y-35200000D02*
G01*
X14560000Y-34960000D01*
X14890000Y-34720000D01*
X14890000Y-35200000D01*
G37*
G04 #@! TO.C,Q11*
X17490000Y-35785000D02*
X17490000Y-35135000D01*
X17490000Y-35785000D02*
X17490000Y-36435000D01*
X20610000Y-35785000D02*
X20610000Y-35135000D01*
X20610000Y-35785000D02*
X20610000Y-36435000D01*
X20890000Y-34862500D02*
X20560000Y-34622500D01*
X20890000Y-34382500D01*
X20890000Y-34862500D01*
G36*
X20890000Y-34862500D02*
G01*
X20560000Y-34622500D01*
X20890000Y-34382500D01*
X20890000Y-34862500D01*
G37*
G04 #@! TO.C,D8*
X6840000Y-38735000D02*
X6840000Y-41020000D01*
X6840000Y-41020000D02*
X8310000Y-41020000D01*
X8310000Y-41020000D02*
X8310000Y-38735000D01*
G04 #@! TO.C,C8*
X15130000Y-29588748D02*
X15130000Y-31011252D01*
X16950000Y-29588748D02*
X16950000Y-31011252D01*
G04 #@! TO.C,D10*
X11490000Y-38735000D02*
X11490000Y-41020000D01*
X11490000Y-41020000D02*
X12960000Y-41020000D01*
X12960000Y-41020000D02*
X12960000Y-38735000D01*
D12*
G04 #@! TO.C,D5*
X7010000Y-28810000D02*
X7010000Y-27800000D01*
G04 #@! TO.C,D6*
X7010000Y-27660000D02*
X7010000Y-26650000D01*
D11*
G04 #@! TO.C,U2*
X16080000Y-23930000D02*
X17220000Y-23930000D01*
X17220000Y-26930000D02*
X16080000Y-26930000D01*
X15690000Y-23630000D02*
G75*
G02*
X15410000Y-23630000I-140000J0D01*
G01*
X15410000Y-23630000D02*
G75*
G02*
X15690000Y-23630000I140000J0D01*
G01*
D14*
G04 #@! TO.C,U5*
X8500000Y-29950000D02*
X8500000Y-30350000D01*
X8500000Y-29950000D02*
X8900000Y-29950000D01*
X8500000Y-32560000D02*
X8500000Y-32950000D01*
X8500000Y-32950000D02*
X8900000Y-32950000D01*
X11110000Y-29950000D02*
X11500000Y-29950000D01*
X11110000Y-32950000D02*
X11500000Y-32950000D01*
X11500000Y-30350000D02*
X11500000Y-29950000D01*
X11500000Y-32950000D02*
X11500000Y-32560000D01*
X8760000Y-33290000D02*
G75*
G02*
X8660000Y-33290000I-50000J0D01*
G01*
X8660000Y-33290000D02*
G75*
G02*
X8760000Y-33290000I50000J0D01*
G01*
D13*
G04 #@! TO.C,D17*
X27765000Y-38735000D02*
X27765000Y-41020000D01*
X27765000Y-41020000D02*
X29235000Y-41020000D01*
X29235000Y-41020000D02*
X29235000Y-38735000D01*
G04 #@! TO.C,C19*
X13122164Y-31540000D02*
X13337836Y-31540000D01*
X13122164Y-32260000D02*
X13337836Y-32260000D01*
D12*
G04 #@! TO.C,Q8*
X30400000Y-24650000D02*
X31000000Y-24650000D01*
X31000000Y-25790000D02*
X30400000Y-25790000D01*
X31210000Y-25770000D02*
G75*
G02*
X31130000Y-25770000I-40000J0D01*
G01*
X31130000Y-25770000D02*
G75*
G02*
X31210000Y-25770000I40000J0D01*
G01*
D13*
G04 #@! TO.C,R12*
X29820000Y-29751141D02*
X29820000Y-29443859D01*
X30580000Y-29751141D02*
X30580000Y-29443859D01*
G04 #@! TO.C,R18*
X20696359Y-30870000D02*
X21003641Y-30870000D01*
X20696359Y-31630000D02*
X21003641Y-31630000D01*
G04 #@! TO.C,R1*
X8406359Y-25970000D02*
X8713641Y-25970000D01*
X8406359Y-26730000D02*
X8713641Y-26730000D01*
G04 #@! TO.C,C5*
X17757836Y-23095000D02*
X17542164Y-23095000D01*
X17757836Y-23815000D02*
X17542164Y-23815000D01*
D10*
G04 #@! TO.C,D3*
X6917500Y-29262500D02*
X7037500Y-29262500D01*
X7037500Y-29262500D02*
X7037500Y-30522500D01*
X7037500Y-29262500D02*
X7167500Y-29262500D01*
X7037500Y-30522500D02*
X6917500Y-30522500D01*
X7167500Y-29262500D02*
X7167500Y-30522500D01*
X7167500Y-30522500D02*
X7037500Y-30522500D01*
D13*
G04 #@! TO.C,C2*
X13240000Y-25740580D02*
X13240000Y-25459420D01*
X14260000Y-25740580D02*
X14260000Y-25459420D01*
G04 #@! TO.C,D18*
X30090000Y-38735000D02*
X30090000Y-41020000D01*
X30090000Y-41020000D02*
X31560000Y-41020000D01*
X31560000Y-41020000D02*
X31560000Y-38735000D01*
G04 #@! TO.C,R3*
X8713641Y-27920000D02*
X8406359Y-27920000D01*
X8713641Y-28680000D02*
X8406359Y-28680000D01*
G04 #@! TO.C,Q12*
X20890000Y-35785000D02*
X20890000Y-35135000D01*
X20890000Y-35785000D02*
X20890000Y-36435000D01*
X24010000Y-35785000D02*
X24010000Y-35135000D01*
X24010000Y-35785000D02*
X24010000Y-36435000D01*
X24290000Y-34862500D02*
X23960000Y-34622500D01*
X24290000Y-34382500D01*
X24290000Y-34862500D01*
G36*
X24290000Y-34862500D02*
G01*
X23960000Y-34622500D01*
X24290000Y-34382500D01*
X24290000Y-34862500D01*
G37*
D12*
G04 #@! TO.C,Q6*
X25999771Y-24650000D02*
X26599771Y-24650000D01*
X26599771Y-25790000D02*
X25999771Y-25790000D01*
X26809771Y-25770000D02*
G75*
G02*
X26729771Y-25770000I-40000J0D01*
G01*
X26729771Y-25770000D02*
G75*
G02*
X26809771Y-25770000I40000J0D01*
G01*
D13*
G04 #@! TO.C,D7*
X4515000Y-38735000D02*
X4515000Y-41020000D01*
X4515000Y-41020000D02*
X5985000Y-41020000D01*
X5985000Y-41020000D02*
X5985000Y-38735000D01*
G04 #@! TO.C,C18*
X13122164Y-30590000D02*
X13337836Y-30590000D01*
X13122164Y-31310000D02*
X13337836Y-31310000D01*
G04 #@! TO.C,D14*
X20790000Y-38735000D02*
X20790000Y-41020000D01*
X20790000Y-41020000D02*
X22260000Y-41020000D01*
X22260000Y-41020000D02*
X22260000Y-38735000D01*
G04 #@! TO.C,Q9*
X8090000Y-36122500D02*
X8090000Y-35472500D01*
X8090000Y-36122500D02*
X8090000Y-36772500D01*
X11210000Y-36122500D02*
X11210000Y-35472500D01*
X11210000Y-36122500D02*
X11210000Y-36772500D01*
X11490000Y-35200000D02*
X11160000Y-34960000D01*
X11490000Y-34720000D01*
X11490000Y-35200000D01*
G36*
X11490000Y-35200000D02*
G01*
X11160000Y-34960000D01*
X11490000Y-34720000D01*
X11490000Y-35200000D01*
G37*
D12*
G04 #@! TO.C,Q7*
X28190000Y-24650000D02*
X28790000Y-24650000D01*
X28790000Y-25790000D02*
X28190000Y-25790000D01*
X29000000Y-25770000D02*
G75*
G02*
X28920000Y-25770000I-40000J0D01*
G01*
X28920000Y-25770000D02*
G75*
G02*
X29000000Y-25770000I40000J0D01*
G01*
D13*
G04 #@! TO.C,R13*
X30870000Y-29446359D02*
X30870000Y-29753641D01*
X31630000Y-29446359D02*
X31630000Y-29753641D01*
G04 #@! TO.C,J7*
X33080000Y-36730000D02*
X33080000Y-35400000D01*
X34410000Y-36730000D02*
X33080000Y-36730000D01*
X35680000Y-34070000D02*
X45900000Y-34070000D01*
X35680000Y-36730000D02*
X35680000Y-34070000D01*
X35680000Y-36730000D02*
X45900000Y-36730000D01*
X45900000Y-36730000D02*
X45900000Y-34070000D01*
G04 #@! TO.C,J5*
X820000Y-23220000D02*
X2150000Y-23220000D01*
X820000Y-24550000D02*
X820000Y-23220000D01*
X820000Y-25820000D02*
X820000Y-28420000D01*
X820000Y-25820000D02*
X3480000Y-25820000D01*
X820000Y-28420000D02*
X3480000Y-28420000D01*
X3480000Y-25820000D02*
X3480000Y-28420000D01*
D12*
G04 #@! TO.C,Q5*
X23850000Y-24650000D02*
X24450000Y-24650000D01*
X24450000Y-25790000D02*
X23850000Y-25790000D01*
X24660000Y-25770000D02*
G75*
G02*
X24580000Y-25770000I-40000J0D01*
G01*
X24580000Y-25770000D02*
G75*
G02*
X24660000Y-25770000I40000J0D01*
G01*
D10*
G04 #@! TO.C,U6*
X23600000Y-29250000D02*
X25600000Y-29250000D01*
X23600000Y-31450000D02*
X25600000Y-31450000D01*
X26090000Y-31160000D02*
G75*
G02*
X25950000Y-31160000I-70000J0D01*
G01*
X25950000Y-31160000D02*
G75*
G02*
X26090000Y-31160000I70000J0D01*
G01*
D12*
G04 #@! TO.C,Q2*
X5530000Y-26100000D02*
X5530000Y-25500000D01*
X6670000Y-25500000D02*
X6670000Y-26100000D01*
X6690000Y-25330000D02*
G75*
G02*
X6610000Y-25330000I-40000J0D01*
G01*
X6610000Y-25330000D02*
G75*
G02*
X6690000Y-25330000I40000J0D01*
G01*
D13*
G04 #@! TO.C,D16*
X25440000Y-38735000D02*
X25440000Y-41020000D01*
X25440000Y-41020000D02*
X26910000Y-41020000D01*
X26910000Y-41020000D02*
X26910000Y-38735000D01*
G04 #@! TD*
M02*
