%TF.GenerationSoftware,KiCad,Pcbnew,9.0.0*%
%TF.CreationDate,2025-02-25T17:39:02-05:00*%
%TF.ProjectId,pico2-test-mule,7069636f-322d-4746-9573-742d6d756c65,v0.2.1*%
%TF.SameCoordinates,Original*%
%TF.FileFunction,Drillmap*%
%TF.FilePolarity,Positive*%
%FSLAX45Y45*%
G04 Gerber Fmt 4.5, Leading zero omitted, Abs format (unit mm)*
G04 Created by KiCad (PCBNEW 9.0.0) date 2025-02-25 17:39:02*
%MOMM*%
%LPD*%
G01*
G04 APERTURE LIST*
%ADD10C,0.050000*%
%ADD11C,0.200000*%
G04 APERTURE END LIST*
D10*
X0Y0D02*
X5250000Y0D01*
X5250000Y-4200000D01*
X0Y-4200000D01*
X0Y0D01*
D11*
X258277Y-4513984D02*
X258277Y-4313984D01*
X258277Y-4313984D02*
X305896Y-4313984D01*
X305896Y-4313984D02*
X334467Y-4323508D01*
X334467Y-4323508D02*
X353515Y-4342555D01*
X353515Y-4342555D02*
X363039Y-4361603D01*
X363039Y-4361603D02*
X372562Y-4399698D01*
X372562Y-4399698D02*
X372562Y-4428270D01*
X372562Y-4428270D02*
X363039Y-4466365D01*
X363039Y-4466365D02*
X353515Y-4485412D01*
X353515Y-4485412D02*
X334467Y-4504460D01*
X334467Y-4504460D02*
X305896Y-4513984D01*
X305896Y-4513984D02*
X258277Y-4513984D01*
X458277Y-4513984D02*
X458277Y-4380650D01*
X458277Y-4418746D02*
X467801Y-4399698D01*
X467801Y-4399698D02*
X477324Y-4390174D01*
X477324Y-4390174D02*
X496372Y-4380650D01*
X496372Y-4380650D02*
X515420Y-4380650D01*
X582086Y-4513984D02*
X582086Y-4380650D01*
X582086Y-4313984D02*
X572563Y-4323508D01*
X572563Y-4323508D02*
X582086Y-4333031D01*
X582086Y-4333031D02*
X591610Y-4323508D01*
X591610Y-4323508D02*
X582086Y-4313984D01*
X582086Y-4313984D02*
X582086Y-4333031D01*
X705896Y-4513984D02*
X686848Y-4504460D01*
X686848Y-4504460D02*
X677324Y-4485412D01*
X677324Y-4485412D02*
X677324Y-4313984D01*
X810658Y-4513984D02*
X791610Y-4504460D01*
X791610Y-4504460D02*
X782086Y-4485412D01*
X782086Y-4485412D02*
X782086Y-4313984D01*
X1039229Y-4513984D02*
X1039229Y-4313984D01*
X1039229Y-4313984D02*
X1105896Y-4456841D01*
X1105896Y-4456841D02*
X1172563Y-4313984D01*
X1172563Y-4313984D02*
X1172563Y-4513984D01*
X1353515Y-4513984D02*
X1353515Y-4409222D01*
X1353515Y-4409222D02*
X1343991Y-4390174D01*
X1343991Y-4390174D02*
X1324944Y-4380650D01*
X1324944Y-4380650D02*
X1286848Y-4380650D01*
X1286848Y-4380650D02*
X1267801Y-4390174D01*
X1353515Y-4504460D02*
X1334467Y-4513984D01*
X1334467Y-4513984D02*
X1286848Y-4513984D01*
X1286848Y-4513984D02*
X1267801Y-4504460D01*
X1267801Y-4504460D02*
X1258277Y-4485412D01*
X1258277Y-4485412D02*
X1258277Y-4466365D01*
X1258277Y-4466365D02*
X1267801Y-4447317D01*
X1267801Y-4447317D02*
X1286848Y-4437793D01*
X1286848Y-4437793D02*
X1334467Y-4437793D01*
X1334467Y-4437793D02*
X1353515Y-4428270D01*
X1448753Y-4380650D02*
X1448753Y-4580650D01*
X1448753Y-4390174D02*
X1467801Y-4380650D01*
X1467801Y-4380650D02*
X1505896Y-4380650D01*
X1505896Y-4380650D02*
X1524943Y-4390174D01*
X1524943Y-4390174D02*
X1534467Y-4399698D01*
X1534467Y-4399698D02*
X1543991Y-4418746D01*
X1543991Y-4418746D02*
X1543991Y-4475889D01*
X1543991Y-4475889D02*
X1534467Y-4494936D01*
X1534467Y-4494936D02*
X1524943Y-4504460D01*
X1524943Y-4504460D02*
X1505896Y-4513984D01*
X1505896Y-4513984D02*
X1467801Y-4513984D01*
X1467801Y-4513984D02*
X1448753Y-4504460D01*
X1629705Y-4494936D02*
X1639229Y-4504460D01*
X1639229Y-4504460D02*
X1629705Y-4513984D01*
X1629705Y-4513984D02*
X1620182Y-4504460D01*
X1620182Y-4504460D02*
X1629705Y-4494936D01*
X1629705Y-4494936D02*
X1629705Y-4513984D01*
X1629705Y-4390174D02*
X1639229Y-4399698D01*
X1639229Y-4399698D02*
X1629705Y-4409222D01*
X1629705Y-4409222D02*
X1620182Y-4399698D01*
X1620182Y-4399698D02*
X1629705Y-4390174D01*
X1629705Y-4390174D02*
X1629705Y-4409222D01*
M02*
