G04 #@! TF.GenerationSoftware,KiCad,Pcbnew,9.0.0*
G04 #@! TF.CreationDate,2025-03-14T09:56:35-04:00*
G04 #@! TF.ProjectId,pico2-test-mule,7069636f-322d-4746-9573-742d6d756c65,v0.2.4*
G04 #@! TF.SameCoordinates,Original*
G04 #@! TF.FileFunction,Soldermask,Bot*
G04 #@! TF.FilePolarity,Negative*
%FSLAX46Y46*%
G04 Gerber Fmt 4.6, Leading zero omitted, Abs format (unit mm)*
G04 Created by KiCad (PCBNEW 9.0.0) date 2025-03-14 09:56:35*
%MOMM*%
%LPD*%
G01*
G04 APERTURE LIST*
G04 Aperture macros list*
%AMRoundRect*
0 Rectangle with rounded corners*
0 $1 Rounding radius*
0 $2 $3 $4 $5 $6 $7 $8 $9 X,Y pos of 4 corners*
0 Add a 4 corners polygon primitive as box body*
4,1,4,$2,$3,$4,$5,$6,$7,$8,$9,$2,$3,0*
0 Add four circle primitives for the rounded corners*
1,1,$1+$1,$2,$3*
1,1,$1+$1,$4,$5*
1,1,$1+$1,$6,$7*
1,1,$1+$1,$8,$9*
0 Add four rect primitives between the rounded corners*
20,1,$1+$1,$2,$3,$4,$5,0*
20,1,$1+$1,$4,$5,$6,$7,0*
20,1,$1+$1,$6,$7,$8,$9,0*
20,1,$1+$1,$8,$9,$2,$3,0*%
%AMFreePoly0*
4,1,37,0.603843,0.796157,0.639018,0.796157,0.711114,0.766294,0.766294,0.711114,0.796157,0.639018,0.796157,0.603843,0.800000,0.600000,0.800000,-0.600000,0.796157,-0.603843,0.796157,-0.639018,0.766294,-0.711114,0.711114,-0.766294,0.639018,-0.796157,0.603843,-0.796157,0.600000,-0.800000,0.000000,-0.800000,0.000000,-0.796148,-0.078414,-0.796148,-0.232228,-0.765552,-0.377117,-0.705537,
-0.507515,-0.618408,-0.618408,-0.507515,-0.705537,-0.377117,-0.765552,-0.232228,-0.796148,-0.078414,-0.796148,0.078414,-0.765552,0.232228,-0.705537,0.377117,-0.618408,0.507515,-0.507515,0.618408,-0.377117,0.705537,-0.232228,0.765552,-0.078414,0.796148,0.000000,0.796148,0.000000,0.800000,0.600000,0.800000,0.603843,0.796157,0.603843,0.796157,$1*%
%AMFreePoly1*
4,1,37,0.000000,0.796148,0.078414,0.796148,0.232228,0.765552,0.377117,0.705537,0.507515,0.618408,0.618408,0.507515,0.705537,0.377117,0.765552,0.232228,0.796148,0.078414,0.796148,-0.078414,0.765552,-0.232228,0.705537,-0.377117,0.618408,-0.507515,0.507515,-0.618408,0.377117,-0.705537,0.232228,-0.765552,0.078414,-0.796148,0.000000,-0.796148,0.000000,-0.800000,-0.600000,-0.800000,
-0.603843,-0.796157,-0.639018,-0.796157,-0.711114,-0.766294,-0.766294,-0.711114,-0.796157,-0.639018,-0.796157,-0.603843,-0.800000,-0.600000,-0.800000,0.600000,-0.796157,0.603843,-0.796157,0.639018,-0.766294,0.711114,-0.711114,0.766294,-0.639018,0.796157,-0.603843,0.796157,-0.600000,0.800000,0.000000,0.800000,0.000000,0.796148,0.000000,0.796148,$1*%
G04 Aperture macros list end*
%ADD10R,1.700000X1.700000*%
%ADD11O,1.700000X1.700000*%
%ADD12RoundRect,0.200000X0.600000X-0.600000X0.600000X0.600000X-0.600000X0.600000X-0.600000X-0.600000X0*%
%ADD13C,1.600000*%
%ADD14FreePoly0,90.000000*%
%ADD15FreePoly1,90.000000*%
G04 APERTURE END LIST*
D10*
G04 #@! TO.C,J5*
X10125000Y-22750000D03*
D11*
X12665000Y-22750000D03*
G04 #@! TD*
D10*
G04 #@! TO.C,J2*
X36960000Y-39285000D03*
D11*
X39500000Y-39285000D03*
X42040000Y-39285000D03*
X44580000Y-39285000D03*
G04 #@! TD*
D12*
G04 #@! TO.C,U3*
X1932500Y-19690000D03*
D13*
X4472500Y-19690000D03*
D14*
X7012500Y-19690000D03*
D13*
X9552500Y-19690000D03*
X12092500Y-19690000D03*
X14632500Y-19690000D03*
X17172500Y-19690000D03*
D14*
X19712500Y-19690000D03*
D13*
X22252500Y-19690000D03*
X24792500Y-19690000D03*
X27332500Y-19690000D03*
X29872500Y-19690000D03*
D14*
X32412500Y-19690000D03*
D13*
X34952500Y-19690000D03*
X37492500Y-19690000D03*
X40032500Y-19690000D03*
X42572500Y-19690000D03*
D14*
X45112500Y-19690000D03*
D13*
X47652500Y-19690000D03*
X50192500Y-19690000D03*
X50192500Y-1910000D03*
X47652500Y-1910000D03*
D15*
X45112500Y-1910000D03*
D13*
X42572500Y-1910000D03*
X40032500Y-1910000D03*
X37492500Y-1910000D03*
X34952500Y-1910000D03*
D15*
X32412500Y-1910000D03*
D13*
X29872500Y-1910000D03*
X27332500Y-1910000D03*
X24792500Y-1910000D03*
X22252500Y-1910000D03*
D15*
X19712500Y-1910000D03*
D13*
X17172500Y-1910000D03*
X14632500Y-1910000D03*
X12092500Y-1910000D03*
X9552500Y-1910000D03*
D15*
X7012500Y-1910000D03*
D13*
X4472500Y-1910000D03*
X1932500Y-1910000D03*
G04 #@! TD*
D10*
G04 #@! TO.C,J1*
X2150000Y-25820000D03*
D11*
X2150000Y-28360000D03*
X2150000Y-30900000D03*
X2150000Y-33440000D03*
X2150000Y-35980000D03*
X2150000Y-38520000D03*
G04 #@! TD*
D10*
G04 #@! TO.C,J4*
X33625000Y-24950000D03*
D11*
X36165000Y-24950000D03*
G04 #@! TD*
D10*
G04 #@! TO.C,J3*
X34410000Y-35400000D03*
D11*
X36950000Y-35400000D03*
X39490000Y-35400000D03*
X42030000Y-35400000D03*
X44570000Y-35400000D03*
G04 #@! TD*
M02*
