M48
; DRILL file {KiCad 9.0.0} date 2025-03-07T19:18:07-0500
; FORMAT={-:-/ absolute / metric / decimal}
; #@! TF.CreationDate,2025-03-07T19:18:07-05:00
; #@! TF.GenerationSoftware,Kicad,Pcbnew,9.0.0
; #@! TF.FileFunction,Plated,1,2,PTH
FMAT,2
METRIC
; #@! TA.AperFunction,Plated,PTH,ViaDrill
T1C0.300
; #@! TA.AperFunction,Plated,PTH,ComponentDrill
T2C1.000
%
G90
G05
T1
X4.35Y-36.425
X4.35Y-37.05
X5.4Y-36.1
X5.65Y-25.425
X6.15Y-25.05
X6.35Y-40.3
X6.4Y-24.05
X6.5Y-26.2
X7.107Y-29.892
X7.257Y-32.072
X7.45Y-26.4
X7.6Y-33.6
X7.6Y-34.3
X7.7Y-29.9
X7.9Y-31.2
X8.3Y-32.65
X8.4Y-40.3
X8.55Y-15.4
X8.6Y-16.1
X8.8Y-33.05
X9.28Y-16.1
X9.75Y-27.35
X10.085Y-27.885
X10.7Y-40.3
X11.4Y-29.7
X11.49Y-21.05
X12.025Y-29.7
X12.75Y-30.3
X12.95Y-35.2
X13.05Y-40.3
X14.5Y-29.1
X15.55Y-27.75
X15.85Y-27.1
X16.65Y-27.1
X17.65Y-30.75
X18.35Y-30.15
X18.9Y-34.85
X19.4Y-22.05
X19.8Y-28.4
X19.85Y-27.1
X20.05Y-40.3
X20.2Y-22.1
X20.95Y-23.15
X21.8Y-22.55
X22.1Y-32.15
X22.35Y-34.85
X22.4Y-40.3
X23.05Y-22.05
X23.6Y-28.0
X23.85Y-25.65
X24.2Y-29.0
X24.225Y-28.0
X24.35Y-24.55
X24.55Y-23.05
X24.7Y-40.3
X24.9Y-29.05
X25.25Y-25.46
X25.7Y-28.75
X25.935Y-25.65
X26.45Y-22.6
X26.635Y-24.8
X26.8Y-27.1
X27.0Y-40.3
X27.85Y-30.7
X28.2Y-25.65
X28.35Y-22.6
X28.4Y-34.75
X28.6Y-30.7
X28.8Y-24.8
X30.1Y-27.05
X30.3Y-25.7
X30.35Y-22.6
X31.033Y-24.785
X38.1Y-29.1
T2
X1.932Y-1.91
X1.932Y-19.69
X2.15Y-25.82
X2.15Y-28.36
X2.15Y-30.9
X2.15Y-33.44
X2.15Y-35.98
X2.15Y-38.52
X4.473Y-1.91
X4.473Y-19.69
X7.012Y-1.91
X7.012Y-19.69
X9.553Y-1.91
X9.553Y-19.69
X10.125Y-22.75
X12.092Y-1.91
X12.092Y-19.69
X12.665Y-22.75
X14.632Y-1.91
X14.632Y-19.69
X17.172Y-1.91
X17.172Y-19.69
X19.712Y-1.91
X19.712Y-19.69
X22.252Y-1.91
X22.252Y-19.69
X24.793Y-1.91
X24.793Y-19.69
X27.332Y-1.91
X27.332Y-19.69
X29.872Y-1.91
X29.872Y-19.69
X32.413Y-1.91
X32.413Y-19.69
X33.625Y-24.95
X34.41Y-35.4
X34.953Y-1.91
X34.953Y-19.69
X36.165Y-24.95
X36.95Y-35.4
X36.96Y-39.285
X37.492Y-1.91
X37.492Y-19.69
X39.49Y-35.4
X39.5Y-39.285
X40.032Y-1.91
X40.032Y-19.69
X42.03Y-35.4
X42.04Y-39.285
X42.572Y-1.91
X42.572Y-19.69
X44.57Y-35.4
X44.58Y-39.285
X45.112Y-1.91
X45.112Y-19.69
X47.652Y-1.91
X47.652Y-19.69
X50.192Y-1.91
X50.192Y-19.69
M30
