G04 #@! TF.GenerationSoftware,KiCad,Pcbnew,9.0.0*
G04 #@! TF.CreationDate,2025-06-26T10:02:38-04:00*
G04 #@! TF.ProjectId,pico2-test-mule,7069636f-322d-4746-9573-742d6d756c65,v0.2.5*
G04 #@! TF.SameCoordinates,Original*
G04 #@! TF.FileFunction,Paste,Top*
G04 #@! TF.FilePolarity,Positive*
%FSLAX46Y46*%
G04 Gerber Fmt 4.6, Leading zero omitted, Abs format (unit mm)*
G04 Created by KiCad (PCBNEW 9.0.0) date 2025-06-26 10:02:38*
%MOMM*%
%LPD*%
G01*
G04 APERTURE LIST*
G04 Aperture macros list*
%AMRoundRect*
0 Rectangle with rounded corners*
0 $1 Rounding radius*
0 $2 $3 $4 $5 $6 $7 $8 $9 X,Y pos of 4 corners*
0 Add a 4 corners polygon primitive as box body*
4,1,4,$2,$3,$4,$5,$6,$7,$8,$9,$2,$3,0*
0 Add four circle primitives for the rounded corners*
1,1,$1+$1,$2,$3*
1,1,$1+$1,$4,$5*
1,1,$1+$1,$6,$7*
1,1,$1+$1,$8,$9*
0 Add four rect primitives between the rounded corners*
20,1,$1+$1,$2,$3,$4,$5,0*
20,1,$1+$1,$4,$5,$6,$7,0*
20,1,$1+$1,$6,$7,$8,$9,0*
20,1,$1+$1,$8,$9,$2,$3,0*%
G04 Aperture macros list end*
%ADD10R,2.000000X0.850000*%
%ADD11RoundRect,0.050000X0.050000X-0.050000X0.050000X0.050000X-0.050000X0.050000X-0.050000X-0.050000X0*%
%ADD12R,0.320000X0.500000*%
%ADD13RoundRect,0.218750X0.256250X-0.218750X0.256250X0.218750X-0.256250X0.218750X-0.256250X-0.218750X0*%
%ADD14RoundRect,0.140000X0.140000X0.170000X-0.140000X0.170000X-0.140000X-0.170000X0.140000X-0.170000X0*%
%ADD15RoundRect,0.112500X-0.187500X-0.112500X0.187500X-0.112500X0.187500X0.112500X-0.187500X0.112500X0*%
%ADD16RoundRect,0.150000X-0.150000X0.587500X-0.150000X-0.587500X0.150000X-0.587500X0.150000X0.587500X0*%
%ADD17R,0.400000X0.250000*%
%ADD18R,0.400000X0.700000*%
%ADD19RoundRect,0.140000X-0.140000X-0.170000X0.140000X-0.170000X0.140000X0.170000X-0.140000X0.170000X0*%
%ADD20R,0.400000X0.200000*%
%ADD21R,0.500000X0.900000*%
%ADD22RoundRect,0.135000X-0.185000X0.135000X-0.185000X-0.135000X0.185000X-0.135000X0.185000X0.135000X0*%
%ADD23R,1.010000X0.800000*%
%ADD24R,0.610000X0.800000*%
%ADD25RoundRect,0.135000X-0.135000X-0.185000X0.135000X-0.185000X0.135000X0.185000X-0.135000X0.185000X0*%
%ADD26RoundRect,0.250000X-0.650000X0.325000X-0.650000X-0.325000X0.650000X-0.325000X0.650000X0.325000X0*%
%ADD27RoundRect,0.135000X0.135000X0.185000X-0.135000X0.185000X-0.135000X-0.185000X0.135000X-0.185000X0*%
%ADD28RoundRect,0.225000X0.250000X-0.225000X0.250000X0.225000X-0.250000X0.225000X-0.250000X-0.225000X0*%
%ADD29RoundRect,0.050000X-0.050000X0.050000X-0.050000X-0.050000X0.050000X-0.050000X0.050000X0.050000X0*%
%ADD30R,1.100000X0.550000*%
%ADD31R,0.250000X0.600000*%
%ADD32R,0.600000X0.250000*%
%ADD33R,1.500000X1.500000*%
%ADD34R,0.280000X0.100000*%
%ADD35R,0.350000X0.150000*%
%ADD36RoundRect,0.135000X0.185000X-0.135000X0.185000X0.135000X-0.185000X0.135000X-0.185000X-0.135000X0*%
%ADD37R,0.450000X0.300000*%
%ADD38R,0.900000X1.700000*%
G04 APERTURE END LIST*
D10*
G04 #@! TO.C,L1*
X19900000Y-26135000D03*
X19900000Y-24475000D03*
G04 #@! TD*
D11*
G04 #@! TO.C,Q9*
X28800000Y-28050000D03*
X29150000Y-28050000D03*
X29500000Y-28050000D03*
X29500000Y-27150000D03*
X29150000Y-27150000D03*
X28800000Y-27150000D03*
G04 #@! TD*
D12*
G04 #@! TO.C,RN2*
X16800000Y-36122500D03*
X16300000Y-36122500D03*
X15800000Y-36122500D03*
X15300000Y-36122500D03*
X15300000Y-37122500D03*
X15800000Y-37122500D03*
X16300000Y-37122500D03*
X16800000Y-37122500D03*
G04 #@! TD*
D13*
G04 #@! TO.C,D10*
X16875000Y-40322500D03*
X16875000Y-38747500D03*
G04 #@! TD*
G04 #@! TO.C,D14*
X23850000Y-40322500D03*
X23850000Y-38747500D03*
G04 #@! TD*
D14*
G04 #@! TO.C,C1*
X11480000Y-27450000D03*
X10520000Y-27450000D03*
G04 #@! TD*
D13*
G04 #@! TO.C,D9*
X14550000Y-40322500D03*
X14550000Y-38747500D03*
G04 #@! TD*
D15*
G04 #@! TO.C,D21*
X27070000Y-29610000D03*
X29170000Y-29610000D03*
G04 #@! TD*
D16*
G04 #@! TO.C,Q8*
X29400000Y-34785000D03*
X27500000Y-34785000D03*
X28450000Y-36660000D03*
G04 #@! TD*
D17*
G04 #@! TO.C,Q1*
X20630000Y-22135000D03*
X20630000Y-22585000D03*
D18*
X21330000Y-22360000D03*
G04 #@! TD*
D19*
G04 #@! TO.C,C10*
X20370000Y-28400000D03*
X21330000Y-28400000D03*
G04 #@! TD*
D12*
G04 #@! TO.C,RN1*
X7400000Y-36135000D03*
X6900000Y-36135000D03*
X6400000Y-36135000D03*
X5900000Y-36135000D03*
X5900000Y-37135000D03*
X6400000Y-37135000D03*
X6900000Y-37135000D03*
X7400000Y-37135000D03*
G04 #@! TD*
D20*
G04 #@! TO.C,U1*
X11700000Y-26500000D03*
X11700000Y-26100000D03*
X11700000Y-25700000D03*
X11700000Y-25300000D03*
X10300000Y-25300000D03*
X10300000Y-25700000D03*
X10300000Y-26100000D03*
X10300000Y-26500000D03*
D21*
X11000000Y-25900000D03*
G04 #@! TD*
D22*
G04 #@! TO.C,R8*
X32300000Y-29090000D03*
X32300000Y-30110000D03*
G04 #@! TD*
D23*
G04 #@! TO.C,D2*
X5467500Y-34067500D03*
D24*
X6627500Y-34067500D03*
G04 #@! TD*
D23*
G04 #@! TO.C,D1*
X5467500Y-31292500D03*
D24*
X6627500Y-31292500D03*
G04 #@! TD*
D23*
G04 #@! TO.C,D8*
X6227500Y-32667500D03*
D24*
X5067500Y-32667500D03*
G04 #@! TD*
D12*
G04 #@! TO.C,RN3*
X26200000Y-36122500D03*
X25700000Y-36122500D03*
X25200000Y-36122500D03*
X24700000Y-36122500D03*
X24700000Y-37122500D03*
X25200000Y-37122500D03*
X25700000Y-37122500D03*
X26200000Y-37122500D03*
G04 #@! TD*
D25*
G04 #@! TO.C,R14*
X20340000Y-32200000D03*
X21360000Y-32200000D03*
G04 #@! TD*
D26*
G04 #@! TO.C,C8*
X18340000Y-28825000D03*
X18340000Y-31775000D03*
G04 #@! TD*
D22*
G04 #@! TO.C,R7*
X31250000Y-36125000D03*
X31250000Y-37145000D03*
G04 #@! TD*
D13*
G04 #@! TO.C,D11*
X19200000Y-40322500D03*
X19200000Y-38747500D03*
G04 #@! TD*
D27*
G04 #@! TO.C,R2*
X8970000Y-26950000D03*
X7950000Y-26950000D03*
G04 #@! TD*
D13*
G04 #@! TO.C,D19*
X33150000Y-40322500D03*
X33150000Y-38747500D03*
G04 #@! TD*
D28*
G04 #@! TO.C,C4*
X21800000Y-26080000D03*
X21800000Y-24530000D03*
G04 #@! TD*
D29*
G04 #@! TO.C,Q7*
X29500000Y-31200000D03*
X29150000Y-31200000D03*
X28800000Y-31200000D03*
X28800000Y-32100000D03*
X29150000Y-32100000D03*
X29500000Y-32100000D03*
G04 #@! TD*
D25*
G04 #@! TO.C,R12*
X20340000Y-29350000D03*
X21360000Y-29350000D03*
G04 #@! TD*
D13*
G04 #@! TO.C,D5*
X9900000Y-40322500D03*
X9900000Y-38747500D03*
G04 #@! TD*
D25*
G04 #@! TO.C,R11*
X20340000Y-30300000D03*
X21360000Y-30300000D03*
G04 #@! TD*
D27*
G04 #@! TO.C,R4*
X8970000Y-26000000D03*
X7950000Y-26000000D03*
G04 #@! TD*
D22*
G04 #@! TO.C,R15*
X4530000Y-22860000D03*
X4530000Y-23880000D03*
G04 #@! TD*
D16*
G04 #@! TO.C,Q3*
X14000000Y-35185000D03*
X12100000Y-35185000D03*
X13050000Y-37060000D03*
G04 #@! TD*
G04 #@! TO.C,Q5*
X20000000Y-34847500D03*
X18100000Y-34847500D03*
X19050000Y-36722500D03*
G04 #@! TD*
D13*
G04 #@! TO.C,D4*
X7575000Y-40322500D03*
X7575000Y-38747500D03*
G04 #@! TD*
D26*
G04 #@! TO.C,C5*
X16040000Y-28825000D03*
X16040000Y-31775000D03*
G04 #@! TD*
D13*
G04 #@! TO.C,D6*
X12225000Y-40322500D03*
X12225000Y-38747500D03*
G04 #@! TD*
D18*
G04 #@! TO.C,D13*
X6330000Y-28300000D03*
X5680000Y-28300000D03*
G04 #@! TD*
G04 #@! TO.C,D18*
X6330000Y-27150000D03*
X5680000Y-27150000D03*
G04 #@! TD*
D30*
G04 #@! TO.C,U2*
X15450000Y-24480000D03*
X15450000Y-25430000D03*
X15450000Y-26380000D03*
X17850000Y-26380000D03*
X17850000Y-25430000D03*
X17850000Y-24480000D03*
G04 #@! TD*
D31*
G04 #@! TO.C,U4*
X9250000Y-32950000D03*
X9750000Y-32950000D03*
X10250000Y-32950000D03*
X10750000Y-32950000D03*
D32*
X11500000Y-32200000D03*
X11500000Y-31700000D03*
X11500000Y-31200000D03*
X11500000Y-30700000D03*
D31*
X10750000Y-29950000D03*
X10250000Y-29950000D03*
X9750000Y-29950000D03*
X9250000Y-29950000D03*
D32*
X8500000Y-30700000D03*
X8500000Y-31200000D03*
X8500000Y-31700000D03*
X8500000Y-32200000D03*
D33*
X10000000Y-31450000D03*
G04 #@! TD*
D13*
G04 #@! TO.C,D16*
X28500000Y-40322500D03*
X28500000Y-38747500D03*
G04 #@! TD*
D19*
G04 #@! TO.C,C9*
X12750000Y-31900000D03*
X13710000Y-31900000D03*
G04 #@! TD*
D15*
G04 #@! TO.C,D20*
X5660000Y-23340000D03*
X7760000Y-23340000D03*
G04 #@! TD*
D34*
G04 #@! TO.C,Q12*
X30970000Y-25570000D03*
X30970000Y-25270000D03*
D35*
X30940000Y-24950000D03*
D34*
X30430000Y-24870000D03*
X30430000Y-25170000D03*
D35*
X30460000Y-25500000D03*
G04 #@! TD*
D36*
G04 #@! TO.C,R9*
X30200000Y-30107500D03*
X30200000Y-29087500D03*
G04 #@! TD*
D25*
G04 #@! TO.C,R13*
X20340000Y-31250000D03*
X21360000Y-31250000D03*
G04 #@! TD*
G04 #@! TO.C,R1*
X7950000Y-27900000D03*
X8970000Y-27900000D03*
G04 #@! TD*
D14*
G04 #@! TO.C,C3*
X18130000Y-23455000D03*
X17170000Y-23455000D03*
G04 #@! TD*
D23*
G04 #@! TO.C,D7*
X6227500Y-29892500D03*
D24*
X5067500Y-29892500D03*
G04 #@! TD*
D28*
G04 #@! TO.C,C2*
X13750000Y-26375000D03*
X13750000Y-24825000D03*
G04 #@! TD*
D27*
G04 #@! TO.C,R16*
X27930000Y-31060000D03*
X26910000Y-31060000D03*
G04 #@! TD*
D13*
G04 #@! TO.C,D17*
X30825000Y-40322500D03*
X30825000Y-38747500D03*
G04 #@! TD*
D27*
G04 #@! TO.C,R3*
X8970000Y-25050000D03*
X7950000Y-25050000D03*
G04 #@! TD*
D16*
G04 #@! TO.C,Q6*
X23400000Y-34847500D03*
X21500000Y-34847500D03*
X22450000Y-36722500D03*
G04 #@! TD*
D34*
G04 #@! TO.C,Q10*
X26029771Y-24870000D03*
X26029771Y-25170000D03*
D35*
X26059771Y-25490000D03*
D34*
X26569771Y-25570000D03*
X26569771Y-25270000D03*
D35*
X26539771Y-24940000D03*
G04 #@! TD*
D13*
G04 #@! TO.C,D3*
X5250000Y-40322500D03*
X5250000Y-38747500D03*
G04 #@! TD*
D19*
G04 #@! TO.C,C7*
X12750000Y-30950000D03*
X13710000Y-30950000D03*
G04 #@! TD*
D13*
G04 #@! TO.C,D12*
X21525000Y-40322500D03*
X21525000Y-38747500D03*
G04 #@! TD*
D16*
G04 #@! TO.C,Q2*
X10600000Y-35185000D03*
X8700000Y-35185000D03*
X9650000Y-37060000D03*
G04 #@! TD*
D34*
G04 #@! TO.C,Q13*
X28760000Y-25570000D03*
X28760000Y-25270000D03*
D35*
X28730000Y-24950000D03*
D34*
X28220000Y-24870000D03*
X28220000Y-25170000D03*
D35*
X28250000Y-25500000D03*
G04 #@! TD*
D22*
G04 #@! TO.C,R10*
X31250000Y-29090000D03*
X31250000Y-30110000D03*
G04 #@! TD*
D34*
G04 #@! TO.C,Q11*
X24420000Y-25570000D03*
X24420000Y-25270000D03*
D35*
X24390000Y-24950000D03*
D34*
X23880000Y-24870000D03*
X23880000Y-25170000D03*
D35*
X23910000Y-25500000D03*
G04 #@! TD*
D37*
G04 #@! TO.C,U5*
X25500000Y-31100000D03*
X25500000Y-30600000D03*
X25500000Y-30100000D03*
X25500000Y-29600000D03*
X23700000Y-29600000D03*
X23700000Y-30100000D03*
X23700000Y-30600000D03*
X23700000Y-31100000D03*
D38*
X24600000Y-30350000D03*
G04 #@! TD*
D17*
G04 #@! TO.C,Q4*
X5750000Y-25575000D03*
X5750000Y-26025000D03*
D18*
X6450000Y-25800000D03*
G04 #@! TD*
D13*
G04 #@! TO.C,D15*
X26175000Y-40322500D03*
X26175000Y-38747500D03*
G04 #@! TD*
M02*
